ply
format ascii 1.0
element vertex 149
property double x
property double y
property double z
end_header
-94.609802246093750 4.912079811096191 -73.117996215820313
-94.176002502441406 3.512419939041138 -73.202301025390625
-94.609802246093750 4.912079811096191 -73.117996215820313
-94.218902587890625 6.281740188598633 -73.115898132324219
-93.036399841308594 7.805469989776611 -73.114303588867187
-93.074996948242187 2.001719951629639 -74.598503112792969
-94.745697021484375 1.925340056419373 -74.654602050781250
-94.385902404785156 3.438129901885986 -75.051597595214844
-94.207702636718750 6.299349784851074 -74.543998718261719
-89.999496459960937 8.985219955444336 -74.643798828125000
-94.344902038574219 4.919980049133301 -75.274398803710937
-93.411300659179688 1.356490015983582 -76.709297180175781
-93.411300659179688 1.356490015983582 -76.709297180175781
-93.041099548339844 7.830709934234619 -75.338699340820313
-91.814796447753906 -1.171010017395020 -77.693397521972656
-91.442703247070312 8.687930107116699 -75.377700805664063
-92.786003112792969 0.547619998455048 -77.484497070312500
-93.196403503417969 8.065190315246582 -76.104103088378906
-91.834999084472656 8.499520301818848 -76.207298278808594
-93.385803222656250 3.385289907455444 -77.709297180175781
-91.466697692871094 -1.013579964637756 -79.056396484375000
-90.033996582031250 9.197620391845703 -76.839797973632813
-88.718299865722656 9.600310325622559 -77.049003601074219
-93.471000671386719 4.961679935455322 -77.752197265625000
-92.546699523925781 7.356440067291260 -77.530403137207031
-92.291397094726563 1.350419998168945 -79.206298828125000
-92.876502990722656 3.456140041351318 -79.018501281738281
-90.824798583984375 -1.060960054397583 -80.593498229980469
-92.928497314453125 4.885789871215820 -79.033401489257813
-89.837402343750000 -2.471290111541748 -81.496902465820313
-92.000099182128906 6.836719989776611 -79.051696777343750
-90.128997802734375 8.640210151672363 -79.144096374511719
-86.363197326660156 10.775199890136719 -79.117401123046875
-87.883201599121094 9.850979804992676 -79.273498535156250
-91.470298767089844 1.462870001792908 -81.036903381347656
-89.362800598144531 -2.823669910430908 -82.484703063964844
-91.963897705078125 3.449860095977783 -81.034599304199219
-91.531799316406250 6.353229999542236 -80.567199707031250
-88.560897827148438 -4.064000129699707 -83.601303100585937
-91.662002563476563 4.940259933471680 -81.368301391601563
-90.441596984863281 7.448170185089111 -80.938301086425781
-89.100502014160156 8.560110092163086 -80.936096191406250
-88.870002746582031 -2.663419961929321 -83.734901428222656
-85.777198791503906 10.532400131225586 -80.831199645996094
-84.363296508789063 11.330599784851074 -80.783996582031250
-87.979896545410156 9.177800178527832 -80.998397827148438
-90.344100952148438 1.093340039253235 -82.985801696777344
-89.394996643066406 -1.063140034675598 -83.640403747558594
-91.025299072265625 6.050099849700928 -81.793197631835938
-88.135803222656250 -3.972870111465454 -84.879699707031250
-90.355003356933594 6.612400054931641 -82.276397705078125
-87.050498962402344 9.286860466003418 -82.055702209472656
-88.455101013183594 -2.550159931182861 -85.023101806640625
-90.340797424316406 3.408839941024780 -83.766197204589844
-88.603500366210937 -1.075639963150024 -85.105796813964844
-88.692596435546875 7.472539901733398 -83.162498474121094
-90.264701843261719 4.939290046691895 -83.699699401855469
-86.098701477050781 9.359370231628418 -83.087799072265625
-88.845001220703125 0.346691995859146 -85.248397827148438
-87.187698364257813 -4.095970153808594 -86.647300720214844
-83.889701843261719 11.152400016784668 -83.249801635742187
-89.344001770019531 1.928650021553040 -85.097900390625000
-87.310096740722656 8.187959671020508 -83.777702331542969
-87.453796386718750 -2.641139984130859 -86.806900024414063
-84.607498168945313 10.006899833679199 -83.961303710937500
-89.676002502441406 4.829810142517090 -84.806602478027344
-89.466697692871094 3.436789989471436 -85.195396423339844
-87.840797424316406 -1.058269977569580 -86.598098754882813
-86.629798889160156 -3.993269920349121 -87.806503295898438
-88.016098022460938 6.590489864349365 -85.247299194335938
-88.145401000976563 0.908001005649567 -86.644798278808594
-85.572998046875000 8.589859962463379 -85.078796386718750
-83.672798156738281 10.521900177001953 -84.862899780273438
-86.760498046875000 -2.493730068206787 -87.893402099609375
-86.743896484375000 7.424759864807129 -85.480796813964844
-84.277496337890625 9.576000213623047 -85.227203369140625
-82.926399230957031 11.155200004577637 -85.302902221679688
-86.969200134277344 -1.028789997100830 -88.033897399902344
-85.734001159667969 -4.099060058593750 -88.926101684570313
-88.222900390625000 3.433640003204346 -87.109703063964844
-87.098701477050781 6.372710227966309 -86.586196899414063
-85.905097961425781 -2.647710084915161 -89.065200805664063
-87.996498107910156 4.908549785614014 -87.033699035644531
-87.269203186035156 1.148710012435913 -88.204101562500000
-84.126998901367188 8.700739860534668 -86.646003723144531
-82.482200622558594 10.794099807739258 -86.503402709960938
-85.674797058105469 6.980350017547607 -87.171699523925781
-86.673698425292969 5.837709903717041 -87.674598693847656
-87.423202514648438 3.405450105667114 -88.326499938964844
-85.743896484375000 -1.125530004501343 -89.703399658203125
-87.132301330566406 4.917399883270264 -88.120002746582031
-84.539299011230469 7.463439941406250 -87.746902465820313
-82.775596618652344 9.498049736022949 -87.463401794433594
-83.845802307128906 -3.126820087432861 -90.837997436523438
-86.388000488281250 1.157060027122498 -89.640701293945313
-85.904197692871094 5.230559825897217 -89.152496337890625
-85.116096496582031 -0.809602022171021 -90.731201171875000
-84.277496337890625 6.625800132751465 -89.026000976562500
-86.476501464843750 3.489629983901978 -89.712303161621094
-81.928001403808594 8.699999809265137 -88.965499877929688
-84.500999450683594 -1.258939981460571 -91.376502990722656
-82.695297241210937 7.273799896240234 -89.686096191406250
-80.274597167968750 9.292420387268066 -89.477699279785156
-85.502098083496094 1.213400006294251 -91.037200927734375
-83.467597961425781 -2.120699882507324 -92.083000183105469
-84.818702697753906 0.113990999758244 -91.612297058105469
-85.162696838378906 4.460030078887940 -90.692398071289063
-85.511497497558594 3.392519950866699 -91.035301208496094
-83.909896850585937 5.481709957122803 -90.887100219726563
-78.102600097656250 7.796440124511719 -91.024803161621094
-81.925201416015625 6.496109962463379 -91.188003540039063
-80.139602661132813 7.492579936981201 -91.194900512695313
-84.834800720214844 3.495160102844238 -91.841003417968750
-83.693801879882812 -0.923187971115112 -93.153198242187500
-82.431999206542969 -2.469779968261719 -94.035102844238281
-83.778297424316406 4.482279777526856 -92.278198242187500
-84.290199279785156 1.310930013656616 -93.129501342773438
-76.638099670410156 6.494770050048828 -92.666099548339844
-79.606399536132813 6.340060234069824 -92.555603027343750
-78.179397583007812 6.575019836425781 -92.745498657226562
-82.157501220703125 5.165999889373779 -92.898002624511719
-83.657203674316406 3.568000078201294 -93.198303222656250
-80.201202392578125 5.882530212402344 -92.997802734375000
-82.835403442382812 -1.165339946746826 -94.961196899414063
-78.065002441406250 5.776549816131592 -93.736396789550781
-82.118698120117188 -2.338180065155029 -95.414703369140625
-83.324501037597656 2.085469961166382 -94.537002563476562
-81.127899169921875 4.909959793090820 -94.114997863769531
-75.915496826171875 5.213160037994385 -94.990402221679688
-78.174896240234375 5.168369770050049 -95.013900756835938
-80.033798217773438 4.727039813995361 -95.011299133300781
-82.177200317382813 3.472759962081909 -95.164596557617188
-82.827102661132812 1.187090039253235 -95.717903137207031
-81.532997131347656 -2.685559988021851 -97.265899658203125
-82.309700012207031 -1.073729991912842 -96.956100463867188
-82.282997131347656 1.099230051040649 -96.930801391601562
-80.724197387695313 -3.966949939727783 -98.450599670410156
-78.059097290039063 4.439589977264404 -96.944801330566406
-75.860603332519531 4.791500091552734 -97.083297729492187
-80.394500732421875 3.485440015792847 -97.146003723144531
-81.708396911621094 2.095969915390015 -97.396003723144531
-81.249298095703125 -2.601480007171631 -98.668296813964844
-81.421501159667969 -1.104590058326721 -98.746498107910156
-81.308296203613281 1.190379977226257 -98.702499389648438
-80.839202880859375 -2.548249959945679 -100.021003723144530
-81.011596679687500 -1.084550023078919 -100.074996948242190
-80.826301574707031 1.104390025138855 -99.991500854492188
-80.447700500488281 -2.550460100173950 -101.347999572753910
-80.157897949218750 2.096040010452271 -100.363998413085940
