ply
format ascii 1.0
element vertex 322
property double x
property double y
property double z
end_header
-29.700599670410156 -50.027099609375000 82.887901306152344
-30.262399673461914 -49.393100738525391 85.070198059082031
-31.505199432373047 -48.858600616455078 84.432701110839844
-28.900199890136719 -50.873298645019531 82.906898498535156
-29.700599670410156 -50.027099609375000 82.887901306152344
-29.700599670410156 -50.027099609375000 82.887901306152344
-30.243299484252930 -49.290199279785156 82.882102966308594
-31.664800643920898 -48.435001373291016 82.839302062988281
-33.271900177001953 -47.868499755859375 82.834800720214844
-30.330900192260742 -49.363498687744141 81.394401550292969
-31.703100204467773 -48.380599975585938 81.401199340820313
-29.885099411010742 -50.297698974609375 79.856201171875000
-30.180299758911133 -49.154998779296875 79.898696899414063
-33.750000000000000 -47.319000244140625 80.679100036621094
-31.892000198364258 -47.872699737548828 79.932601928710937
-31.484199523925781 -48.580398559570313 78.957298278808594
-33.036701202392578 -47.444499969482422 79.132003784179687
-34.819400787353516 -46.390399932861328 78.336997985839844
-31.552600860595703 -48.988399505615234 76.873802185058594
-33.066501617431641 -47.495800018310547 76.875701904296875
-34.629600524902344 -46.080799102783203 76.880699157714844
-31.549200057983398 -50.545398712158203 75.357803344726563
-36.339199066162109 -44.800998687744141 76.848701477050781
-31.971500396728516 -49.335899353027344 74.676902770996094
-33.842498779296875 -46.782100677490234 75.387901306152344
-36.341201782226562 -44.985298156738281 75.221900939941406
-32.300899505615234 -49.540798187255859 72.472297668457031
-33.552700042724609 -47.234500885009766 73.116897583007812
-37.342201232910156 -43.969001770019531 74.026100158691406
-35.682300567626953 -44.604900360107422 73.378402709960937
-34.600700378417969 -45.553199768066406 72.883399963378906
-33.705898284912109 -47.942298889160156 70.924499511718750
-37.772598266601563 -43.431198120117187 72.294097900390625
-34.080699920654297 -46.997299194335938 70.907699584960937
-34.705898284912109 -45.416500091552734 70.865600585937500
-35.857799530029297 -44.120700836181641 70.955802917480469
-36.424301147460938 -43.621101379394531 70.809600830078125
-38.304599761962891 -42.914798736572266 70.935096740722656
-34.566200256347656 -46.530498504638672 69.374900817871094
-35.611801147460938 -44.903900146484375 69.090499877929688
-36.521099090576172 -43.639598846435547 69.323501586914063
-38.173801422119141 -42.656200408935547 69.473800659179688
-37.183200836181641 -43.960601806640625 68.738601684570313
-34.785099029541016 -46.904300689697266 67.158096313476563
-35.240001678466797 -46.435001373291016 67.194900512695313
-35.955299377441406 -44.950401306152344 67.120300292968750
-36.629299163818359 -43.584400177001953 67.093803405761719
-37.631000518798828 -42.610099792480469 66.861801147460938
-39.907199859619141 -41.631999969482422 67.125701904296875
-34.888401031494141 -46.258998870849609 64.915397644042969
-35.711101531982422 -46.655601501464844 64.793601989746094
-36.225700378417969 -44.652198791503906 64.886398315429687
-36.856201171875000 -43.714900970458984 64.907302856445313
-37.688201904296875 -42.492900848388672 64.852302551269531
-39.018001556396484 -41.352600097656250 64.930496215820313
-40.305500030517578 -40.852199554443359 65.075103759765625
-36.021999359130859 -46.041900634765625 63.369800567626953
-42.043399810791016 -41.007900238037109 65.119201660156250
-36.873500823974609 -43.651599884033203 63.365898132324219
-36.631900787353516 -44.668201446533203 62.814800262451172
-37.666999816894531 -42.388000488281250 63.372100830078125
-40.108299255371094 -40.488098144531250 63.288700103759766
-42.106098175048828 -39.993698120117188 63.410198211669922
-38.853298187255859 -41.161701202392578 62.703098297119141
-36.290100097656250 -46.145500183105469 61.158901214599609
-37.312400817871094 -44.414100646972656 61.103000640869141
-37.870998382568359 -42.572601318359375 61.118301391601563
-41.931499481201172 -39.563899993896484 62.023300170898438
-43.564201354980469 -39.678501129150391 62.038299560546875
-37.007598876953125 -44.295501708984375 60.252799987792969
-39.783401489257813 -40.315498352050781 61.341098785400391
-38.732799530029297 -41.111698150634766 60.444400787353516
-40.474498748779297 -39.719100952148438 60.466999053955078
-37.571399688720703 -44.564399719238281 58.866600036621094
-42.272998809814453 -38.995800018310547 60.264598846435547
-38.096900939941406 -42.636199951171875 58.905998229980469
-44.388500213623047 -39.053600311279297 60.200000762939453
-38.779899597167969 -41.252399444580078 58.885501861572266
-39.388801574707031 -40.375499725341797 58.840198516845703
-40.633201599121094 -39.360401153564453 58.871299743652344
-42.147399902343750 -38.634399414062500 58.865001678466797
-38.255401611328125 -42.682701110839844 57.408599853515625
-43.619800567626953 -38.506900787353516 58.905998229980469
-45.836101531982422 -38.766498565673828 58.803901672363281
-38.806098937988281 -41.293201446533203 57.377799987792969
-39.388900756835937 -40.363998413085938 57.326900482177734
-40.491901397705078 -39.168098449707031 57.423400878906250
-38.974998474121094 -43.045799255371094 55.851699829101563
-44.287998199462891 -38.022201538085937 57.570701599121094
-46.648399353027344 -38.241100311279297 57.499000549316406
-39.026599884033203 -41.524700164794922 55.870300292968750
-41.975700378417969 -38.138599395751953 56.757900238037109
-39.486198425292969 -40.432800292968750 55.837100982666016
-40.709899902343750 -38.757801055908203 55.843101501464844
-38.976600646972656 -39.857700347900391 54.363998413085938
-43.676700592041016 -37.339000701904297 55.051498413085938
-45.866001129150391 -37.272899627685547 55.063899993896484
-48.127201080322266 -37.347198486328125 55.059200286865234
-42.253898620605469 -37.437301635742187 54.290100097656250
-49.470100402832031 -37.670898437500000 54.135700225830078
-40.721298217773438 -38.692401885986328 52.874298095703125
-42.151401519775391 -37.175598144531250 52.861198425292969
-43.620601654052734 -36.750598907470703 52.967601776123047
-45.881698608398438 -36.633899688720703 52.993499755859375
-48.087299346923828 -36.606700897216797 53.036098480224609
-49.606899261474609 -36.752899169921875 52.965698242187500
-45.909198760986328 -36.174800872802734 51.228900909423828
-43.557098388671875 -36.761199951171875 50.700801849365234
-48.169399261474609 -36.152900695800781 51.199901580810547
-43.334800720214844 -38.522399902343750 49.197399139404297
-43.544300079345703 -40.136501312255859 48.436698913574219
-49.602001190185547 -35.999298095703125 49.753700256347656
-45.228000640869141 -35.993900299072266 49.024799346923828
-46.627700805664063 -35.605499267578125 49.124500274658203
-43.653301239013672 -37.111099243164062 48.376399993896484
-48.131599426269531 -35.584598541259766 49.133300781250000
-42.889598846435547 -40.214401245117187 47.039901733398437
-43.011100769042969 -38.335700988769531 47.092201232910156
-49.634700775146484 -35.522098541259766 48.401100158691406
-51.112300872802734 -35.728199005126953 48.325199127197266
-43.654899597167969 -37.104900360107422 46.878501892089844
-43.219501495361328 -41.710098266601563 45.315299987792969
-45.874900817871094 -35.466999053955078 46.917900085449219
-48.132701873779297 -35.048999786376953 47.046001434326172
-42.999000549316406 -40.110198974609375 45.299800872802734
-49.683200836181641 -35.213298797607422 47.000400543212891
-43.215900421142578 -38.476398468017578 45.352401733398438
-51.872299194335938 -35.625099182128906 46.868000030517578
-42.748798370361328 -38.784698486328125 44.734199523925781
-46.071998596191406 -35.360698699951172 44.923400878906250
-48.111900329589844 -34.818099975585938 45.244098663330078
-43.594898223876953 -40.572601318359375 43.364101409912109
-43.011100769042969 -38.258499145507813 43.741001129150391
-49.520301818847656 -34.663299560546875 45.221801757812500
-54.143100738525391 -35.456901550292969 45.410198211669922
-51.821701049804688 -35.091701507568359 44.875099182128906
-43.511398315429687 -38.517799377441406 42.853401184082031
-43.853500366210938 -37.164600372314453 43.176300048828125
-43.066898345947266 -39.949001312255859 42.209800720214844
-45.870601654052734 -35.299999237060547 42.964801788330078
-48.165699005126953 -34.450298309326172 43.077400207519531
-50.309898376464844 -34.527000427246094 43.061100006103516
-54.157199859619141 -35.414901733398437 43.155101776123047
-52.741901397705078 -35.166000366210937 42.945999145507813
-44.444099426269531 -40.108200073242188 40.886001586914063
-44.030799865722656 -38.553298950195312 40.822200775146484
-44.447601318359375 -36.958400726318359 40.835899353027344
-45.423900604248047 -35.955699920654297 40.942798614501953
-46.250499725341797 -35.111499786376953 40.883899688720703
-45.178901672363281 -40.060600280761719 39.408401489257812
-48.163898468017578 -34.257198333740234 40.878898620605469
-44.341499328613281 -38.596599578857422 39.357898712158203
-50.325698852539062 -34.406200408935547 40.842700958251953
-54.215000152587891 -35.117000579833984 40.951499938964844
-52.554698944091797 -34.717700958251953 40.824401855468750
-55.642101287841797 -35.539501190185547 40.886299133300781
-44.939201354980469 -36.964599609375000 39.321498870849609
-46.530300140380859 -34.921501159667969 39.346698760986328
-45.597999572753906 -39.190399169921875 38.136199951171875
-45.658199310302734 -36.319198608398438 38.760299682617188
-49.636199951171875 -34.205299377441406 39.369998931884766
-44.575500488281250 -38.252601623535156 37.648998260498047
-47.820800781250000 -34.416698455810547 38.894199371337891
-52.527599334716797 -34.549900054931641 39.302299499511719
-46.377998352050781 -40.198398590087891 36.995399475097656
-54.194698333740234 -34.926799774169922 38.919200897216797
-56.149200439453125 -35.336799621582031 38.899299621582031
-46.102199554443359 -38.667198181152344 36.439998626708984
-49.624698638916016 -34.024398803710937 37.885601043701172
-45.698200225830078 -36.993400573730469 36.689498901367188
-46.553199768066406 -35.538700103759766 37.113998413085938
-57.187599182128906 -35.367500305175781 37.910198211669922
-48.176998138427734 -34.261199951171875 37.127799987792969
-52.604698181152344 -34.231300354003906 37.351299285888672
-47.147701263427734 -39.865100860595703 35.089401245117187
-54.025398254394531 -34.475498199462891 37.049400329589844
-47.643501281738281 -40.350601196289063 34.659000396728516
-49.578098297119141 -33.779399871826172 36.411701202392578
-46.853401184082031 -38.533699035644531 34.974700927734375
-51.162700653076172 -33.729198455810547 36.438800811767578
-56.421901702880859 -35.446701049804687 36.398899078369141
-46.250198364257813 -36.902301788330078 34.763099670410156
-46.778701782226563 -35.664501190185547 34.911499023437500
-48.179401397705078 -34.194000244140625 34.876899719238281
-49.517398834228516 -33.628501892089844 34.911701202392578
-51.964698791503906 -33.561199188232422 34.991100311279297
-57.263801574707031 -35.080898284912109 34.986000061035156
-55.690399169921875 -34.710300445556641 34.918098449707031
-54.133499145507813 -34.078300476074219 34.881999969482422
-46.698799133300781 -37.067100524902344 33.418498992919922
-47.816398620605469 -38.981899261474609 32.953899383544922
-46.881000518798828 -35.778800964355469 33.417499542236328
-47.675098419189453 -34.935501098632812 33.190700531005859
-49.485698699951172 -33.719100952148438 33.390998840332031
-57.908000946044922 -35.504299163818359 33.404300689697266
-54.253501892089844 -33.703899383544922 33.489799499511719
-46.598400115966797 -37.065898895263672 31.871900558471680
-51.837299346923828 -33.180698394775391 33.270198822021484
-56.221801757812500 -34.431999206542969 33.253700256347656
-48.525501251220703 -38.659599304199219 30.839300155639648
-47.968799591064453 -37.081600189208984 31.083799362182617
-55.764099121093750 -33.736000061035156 31.993299484252930
-48.170700073242188 -34.856601715087891 30.963800430297852
-57.025600433349609 -34.312999725341797 31.791799545288086
-49.420700073242187 -33.676799774169922 31.122900009155273
-51.891201019287109 -32.870300292968750 31.086299896240234
-58.573898315429688 -34.978000640869141 31.081699371337891
-54.040000915527344 -32.918598175048828 31.028999328613281
-49.445701599121094 -38.691299438476562 28.801799774169922
-55.929500579833984 -33.386001586914062 30.612800598144531
-57.214199066162109 -33.896800994873047 30.449899673461914
-48.533599853515625 -37.119499206542969 28.816999435424805
-48.497501373291016 -35.252399444580078 28.979900360107422
-49.595798492431641 -33.575298309326172 28.836099624633789
-48.418598175048828 -37.171298980712891 27.471700668334961
-51.908100128173828 -32.645099639892578 28.885700225830078
-57.387100219726563 -33.539001464843750 29.087299346923828
-58.315601348876953 -34.979198455810547 28.816799163818359
-54.173599243164062 -32.380199432373047 28.940799713134766
-56.251998901367188 -32.904998779296875 28.778799057006836
-48.847599029541016 -35.533401489257813 27.377000808715820
-49.597900390625000 -37.104301452636719 26.609500885009766
-49.600898742675781 -34.381599426269531 27.074600219726563
-50.224300384521484 -38.252998352050781 26.162900924682617
-49.830799102783203 -32.966800689697266 27.372900009155273
-50.782901763916016 -38.828800201416016 25.739000320434570
-54.270698547363281 -31.995199203491211 27.535200119018555
-52.145900726318359 -32.456100463867188 26.909999847412109
-56.181701660156250 -32.386001586914063 26.927799224853516
-51.201599121093750 -38.531101226806641 24.408800125122070
-49.871498107910156 -34.990299224853516 25.092399597167969
-54.153900146484375 -31.922599792480469 26.025400161743164
-48.958400726318359 -36.752101898193359 24.229400634765625
-50.761600494384766 -37.232799530029297 24.221000671386719
-57.198799133300781 -32.402801513671875 25.933799743652344
-51.663101196289063 -32.555198669433594 24.894199371337891
-50.618099212646484 -33.637199401855469 24.300100326538086
-57.846801757812500 -32.553501129150391 25.125299453735352
-51.617099761962891 -38.244998931884766 23.089199066162109
-51.076599121093750 -37.104598999023438 22.858499526977539
-54.144500732421875 -31.586999893188477 24.281999588012695
-55.531898498535156 -31.459400177001953 24.275199890136719
-50.488899230957031 -34.875499725341797 22.830099105834961
-50.618000030517578 -33.548801422119141 22.831899642944336
-51.568298339843750 -32.561698913574219 22.909500122070312
-51.752498626708984 -37.220100402832031 21.317699432373047
-54.187198638916016 -31.437900543212891 22.811700820922852
-55.608398437500000 -31.221599578857422 22.844699859619141
-50.972499847412109 -35.194499969482422 21.327400207519531
-50.884799957275391 -33.087200164794922 21.335899353027344
-52.836498260498047 -31.584899902343750 21.326700210571289
-52.458198547363281 -37.186698913574219 19.815200805664063
-51.379199981689453 -34.471298217773438 20.324199676513672
-51.810199737548828 -32.613098144531250 20.804300308227539
-54.166698455810547 -31.215499877929688 21.364999771118164
-55.630100250244141 -31.136400222778320 21.370300292968750
-51.055099487304688 -34.039501190185547 19.864799499511719
-53.810398101806641 -37.517700195312500 18.204000473022461
-51.782600402832031 -34.748901367187500 18.682399749755859
-52.070098876953125 -32.707901000976562 19.190799713134766
-57.158798217773438 -30.949899673461914 19.908599853515625
-54.223701477050781 -30.711999893188477 19.359500885009766
-55.592800140380859 -30.846099853515625 19.403200149536133
-52.592498779296875 -31.353799819946289 18.836799621582031
-53.949901580810547 -37.245601654052734 16.796400070190430
-55.322898864746094 -37.720100402832031 16.576400756835938
-52.535099029541016 -34.504699707031250 16.876300811767578
-52.697399139404297 -32.638401031494141 16.889499664306641
-52.893600463867188 -31.491100311279297 16.876800537109375
-54.327899932861328 -36.923301696777344 15.475999832153320
-54.016700744628906 -30.976299285888672 16.878000259399414
-55.507999420166016 -30.547100067138672 16.929800033569336
-55.280799865722656 -37.503700256347656 15.190500259399414
-53.370601654052734 -35.553699493408203 15.405099868774414
-52.935798645019531 -34.109500885009766 15.499699592590332
-52.904098510742188 -31.410400390625000 15.402600288391113
-52.832500457763672 -32.645099639892578 15.058899879455566
-53.566898345947266 -31.072599411010742 14.906200408935547
-53.242000579833984 -33.920799255371094 14.140899658203125
-55.714099884033203 -36.939899444580078 13.184599876403809
-54.037200927734375 -34.846599578857422 13.089099884033203
-55.176898956298828 -30.535999298095703 13.950799942016602
-54.196098327636719 -31.080499649047852 13.385499954223633
-53.894100189208984 -32.590801239013672 12.806799888610840
-54.536998748779297 -33.983299255371094 11.023699760437012
-54.340599060058594 -32.562400817871094 10.955100059509277
-54.152999877929688 -31.077899932861328 10.892800331115723
-54.896499633789063 -31.048700332641602 6.400619983673096
-55.880401611328125 -32.488998413085938 4.955500125885010
-55.472999572753906 -31.168899536132812 4.822460174560547
-56.536098480224609 -32.427200317382813 3.456670045852661
-55.916999816894531 -30.941200256347656 2.724720001220703
-57.737499237060547 -33.823398590087891 2.096369981765747
-58.368400573730469 -34.202701568603516 1.029010057449341
-57.748100280761719 -32.691898345947266 1.078310012817383
-56.289199829101562 -31.260599136352539 1.091490030288696
-59.891899108886719 -33.149700164794922 0.210831001400948
-59.825801849365234 -35.964000701904297 -1.251009941101074
-59.383399963378906 -34.530300140380859 -1.326730012893677
-58.621498107910156 -33.370498657226562 -1.118999958038330
-57.643398284912109 -31.910900115966797 -0.936309993267059
-56.889801025390625 -31.177400588989258 -1.228180050849915
-56.060798645019531 -28.812700271606445 -1.018200039863586
-60.226600646972656 -35.485298156738281 -2.572050094604492
-58.714801788330078 -33.277999877929687 -2.608700037002564
-56.601898193359375 -28.919799804687500 -2.752140045166016
-57.382801055908203 -30.961500167846680 -3.282020092010498
-59.256698608398438 -33.700298309326172 -3.869649887084961
-58.666500091552734 -32.571300506591797 -4.865059852600098
-58.178600311279297 -31.332000732421875 -5.044919967651367
-60.151699066162109 -34.066501617431641 -5.610280036926270
-59.536399841308594 -33.027500152587891 -5.864240169525147
-58.286701202392578 -32.488700866699219 -7.154829978942871
-57.282901763916016 -29.034900665283203 -5.072780132293701
-58.413101196289063 -31.144500732421875 -7.161610126495361
-57.902099609375000 -28.885700225830078 -7.111269950866699
-58.343101501464844 -28.907400131225586 -8.692110061645508
-54.792301177978516 -32.454898834228516 8.827389717102051
-54.376800537109375 -31.025499343872070 8.945429801940918
-55.742500305175781 -34.064998626708984 7.171850204467773
-55.385799407958984 -32.631099700927734 7.066150188446045
-56.768199920654297 -34.208099365234375 4.735539913177490
