ply
format ascii 1.0
element vertex 135
property double x
property double y
property double z
end_header
-427.342010498046870 -502.424987792968750 -456.216003417968750
-417.861999511718750 -500.338989257812500 -452.622009277343750
-427.342010498046870 -502.424987792968750 -456.216003417968750
-451.295013427734370 -507.063995361328130 -467.118011474609370
-442.277008056640620 -508.558990478515630 -462.795013427734370
-404.451995849609370 -509.596984863281250 -455.856994628906250
-434.180999755859370 -509.561004638671870 -454.394989013671870
-413.320007324218750 -511.351013183593750 -447.121002197265620
-461.555999755859380 -510.260986328125000 -467.114990234375000
-456.415008544921870 -511.807006835937500 -458.619995117187500
-426.359985351562500 -512.895019531250000 -448.186004638671870
-415.769012451171870 -514.825012207031250 -415.716003417968750
-446.360992431640620 -513.591003417968750 -454.768005371093750
-395.621002197265620 -514.659973144531250 -459.018005371093750
-450.915985107421870 -515.767028808593750 -426.717987060546870
-444.101989746093750 -516.646972656250000 -418.236999511718750
-447.846984863281250 -517.080993652343750 -436.177001953125000
-439.218994140625000 -517.642028808593750 -428.670989990234370
-412.820007324218750 -518.791015625000000 -424.730010986328120
-444.338989257812500 -517.534973144531250 -445.786010742187500
-431.356994628906250 -518.903015136718750 -420.704010009765630
-400.428985595703120 -519.057006835937500 -446.770996093750000
-421.369995117187500 -520.674987792968750 -432.261993408203120
-464.015014648437500 -518.802978515625000 -462.140014648437500
-460.438995361328120 -519.260009765625000 -452.705993652343750
-408.859008789062500 -521.918029785156250 -413.700012207031250
-434.903015136718750 -520.583007812500000 -441.812011718750000
-424.360992431640630 -520.791992187500000 -442.037994384765620
-459.239990234375000 -520.992004394531250 -420.748992919921870
-362.852996826171870 -521.913024902343750 -450.203002929687500
-458.691009521484370 -520.737976074218750 -435.707000732421870
-389.240997314453120 -522.247985839843750 -457.171997070312500
-372.367004394531250 -522.809997558593750 -453.190002441406250
-351.286010742187500 -524.505981445312500 -438.412994384765620
-391.236999511718750 -523.684997558593750 -447.131988525390620
-398.783996582031250 -525.129028320312500 -416.148986816406250
-409.838012695312500 -524.340026855468750 -436.221008300781250
-401.709991455078120 -525.659973144531250 -428.204986572265620
-469.092010498046870 -522.882995605468750 -472.153991699218750
-381.338989257812500 -525.468017578125000 -449.217010498046870
-464.803985595703120 -524.929992675781250 -443.209014892578120
-361.441009521484370 -527.270019531250000 -440.502014160156250
-373.350006103515620 -527.932006835937500 -443.225006103515620
-467.407012939453120 -526.882995605468750 -452.691009521484370
-386.333007812500000 -529.296997070312500 -438.988006591796870
-469.046997070312500 -527.380004882812500 -463.196990966796870
-395.851013183593750 -529.914978027343750 -435.704010009765620
-387.877014160156250 -531.021972656250000 -429.178009033203120
-461.319000244140620 -529.913024902343750 -426.704010009765630
-465.226013183593750 -532.427001953125000 -435.779998779296870
-348.830993652343750 -534.906982421875000 -438.130004882812500
-374.401000976562500 -535.494018554687500 -425.683013916015620
-469.490997314453120 -533.830017089843750 -445.704010009765620
-468.789001464843750 -532.906005859375000 -473.207000732421870
-338.848999023437500 -536.916015625000000 -439.220001220703120
-376.963989257812500 -536.849975585937500 -437.494995117187500
-362.347991943359370 -540.450012207031250 -435.907989501953120
-374.015991210937500 -541.976013183593750 -414.570007324218750
-463.039001464843750 -541.396972656250000 -430.175994873046870
-366.393005371093750 -543.958984375000000 -422.234008789062500
-472.786987304687500 -540.927001953125000 -454.739013671875000
-468.333007812500000 -542.409973144531250 -439.222991943359370
-467.903991699218750 -542.906005859375000 -470.207000732421870
-339.355987548828120 -546.823974609375000 -435.015991210937500
-357.851989746093750 -549.408020019531250 -422.201995849609370
-475.860992431640620 -546.908020019531250 -444.696990966796870
-362.817993164062500 -550.289978027343750 -413.131988525390620
-329.341003417968750 -550.414978027343750 -432.731994628906250
-350.329986572265620 -550.432983398437500 -434.394012451171870
-473.062011718750000 -548.317016601562500 -463.313995361328120
-353.378997802734370 -554.056030273437500 -411.709991455078120
-346.906005859375000 -554.539978027343750 -425.686004638671870
-465.305999755859370 -552.411987304687500 -435.717987060546870
-317.787994384765620 -556.421997070312500 -428.015991210937500
-343.859008789062500 -556.937988281250000 -414.704010009765620
-337.381011962890620 -556.408996582031250 -432.533996582031250
-475.824005126953120 -555.362976074218750 -454.721008300781250
-474.291992187500000 -556.914978027343750 -441.238006591796870
-337.281005859375000 -561.357971191406250 -421.187988281250000
-482.438995361328120 -558.895996093750000 -448.084014892578120
-476.739013671875000 -558.507019042968750 -466.105010986328120
-313.726989746093750 -562.820007324218750 -436.013000488281250
-324.259002685546870 -563.861999511718750 -430.010986328125000
-333.834991455078120 -566.393981933593750 -433.252014160156250
-334.187988281250000 -567.338989257812500 -412.291992187500000
-303.290985107421880 -567.898986816406250 -427.697998046875000
-305.717987060546870 -570.351989746093750 -418.179992675781250
-481.736999511718750 -565.431030273437500 -460.755004882812500
-489.313995361328120 -565.932006835937500 -452.714996337890620
-482.925994873046870 -568.330017089843750 -444.640991210937500
-328.476989746093750 -572.630981445312500 -420.365997314453120
-312.305999755859370 -572.867980957031250 -434.140991210937500
-323.338012695312500 -573.898010253906250 -432.290985107421870
-482.714996337890620 -569.586975097656250 -470.178009033203120
-302.430999755859370 -579.934020996093750 -417.186004638671870
-489.261993408203120 -576.914978027343750 -452.555999755859370
-328.730987548828120 -582.830993652343750 -416.704010009765620
-485.037994384765620 -578.921997070312500 -462.516998291015620
-319.377990722656250 -583.437011718750000 -432.703002929687500
-317.889007568359370 -585.450012207031250 -422.743011474609370
-490.679992675781250 -583.956970214843750 -469.291992187500000
-309.851013183593750 -591.918029785156250 -423.209014892578120
-312.269989013671870 -591.833984375000000 -435.209991455078120
-494.709991455078120 -588.098022460937500 -477.615997314453120
-485.145996093750000 -588.958984375000000 -461.705993652343750
-490.746002197265620 -591.405029296875000 -447.667999267578120
-493.236999511718750 -594.396972656250000 -469.334014892578120
-500.644989013671870 -596.051025390625000 -476.352996826171870
-487.519989013671870 -599.367004394531250 -462.734008789062500
-490.110992431640620 -600.866027832031250 -452.192993164062500
-490.583007812500000 -604.276000976562500 -441.790008544921880
-506.690002441406250 -603.491027832031250 -479.311004638671870
-498.483001708984370 -605.354003906250000 -471.963012695312500
-490.294006347656250 -609.924011230468750 -456.687011718750000
-490.135986328125000 -609.908996582031250 -466.938995361328120
-493.128997802734370 -614.416015625000000 -444.114013671875000
-498.742004394531250 -615.456970214843750 -472.471008300781250
-494.080993652343750 -619.581970214843750 -456.743988037109370
-491.945007324218750 -621.822998046875000 -468.644012451171870
-494.622009277343750 -632.536010742187500 -472.309997558593750
-502.393005371093750 -637.757995605468750 -478.746002197265620
-491.873992919921870 -642.408996582031250 -470.688995361328120
-494.665008544921880 -648.380004882812500 -478.250000000000000
-494.427001953125000 -655.413024902343750 -465.230987548828120
-493.342010498046870 -657.908020019531250 -482.704986572265620
-490.346984863281250 -662.905029296875000 -470.709991455078120
-493.822998046875000 -667.411010742187500 -459.704986572265620
-488.167999267578120 -671.335998535156250 -487.182006835937500
-495.467987060546870 -675.893981933593750 -465.186004638671870
-490.144012451171870 -676.893981933593750 -473.648986816406250
-493.287994384765620 -678.908996582031250 -455.742004394531250
-498.486999511718750 -686.859008789062500 -465.248992919921870
-489.463989257812500 -686.903991699218750 -474.753997802734370
-485.497009277343750 -693.393981933593750 -482.252990722656250
-484.632995605468750 -708.382019042968750 -480.721008300781250
