ply
format ascii 1.0
element vertex 644
property double x
property double y
property double z
end_header
-586.937011718750000 194.781005859375000 -400.394012451171870
-573.255981445312500 196.132003784179690 -402.381011962890620
-586.937011718750000 194.781005859375000 -400.394012451171870
-581.354980468750000 190.132003784179690 -407.764007568359370
-563.151000976562500 188.264007568359370 -398.825988769531250
-570.791992187500000 187.669006347656250 -407.809997558593750
-614.377990722656250 185.283996582031250 -393.135986328125000
-589.338012695312500 184.009994506835940 -411.079986572265620
-561.719970703125000 182.227996826171870 -407.303985595703120
-555.473022460937500 181.477005004882810 -399.184997558593750
-613.421020507812500 181.740005493164060 -402.739013671875000
-623.416992187500000 180.699005126953120 -391.654998779296870
-599.861999511718750 180.604995727539060 -411.725006103515620
-626.382019042968750 179.669006347656250 -403.217987060546870
-618.872009277343750 178.708999633789060 -410.769989013671870
-580.840026855468750 177.772003173828120 -415.940002441406250
-548.661987304687500 174.740005493164060 -395.658996582031250
-634.973022460937500 176.341995239257810 -396.619995117187500
-591.835021972656250 176.233993530273440 -416.910003662109370
-571.307983398437500 174.787002563476560 -416.450012207031250
-550.763977050781250 172.735000610351560 -410.794006347656250
-606.357971191406250 173.994995117187500 -418.148010253906250
-630.594970703125000 173.757003784179690 -413.140991210937500
-559.690979003906250 172.307006835937500 -415.415985107421870
-645.275024414062500 172.847000122070310 -405.208007812500000
-616.377014160156250 172.820007324218750 -419.860992431640620
-640.390014648437500 172.320007324218750 -414.772003173828120
-584.815002441406250 170.757003784179690 -421.933990478515620
-542.611999511718750 168.843002319335940 -405.149993896484370
-641.973022460937500 169.764007568359370 -392.520996093750000
-595.344970703125000 169.643997192382810 -423.765014648437500
-626.843017578125000 171.714996337890620 -478.160003662109370
-542.703002929687500 166.740005493164060 -394.135009765625000
-626.210021972656250 169.027999877929690 -420.963012695312500
-651.434020996093750 169.326995849609370 -416.747985839843750
-654.388000488281250 168.677993774414060 -405.170989990234370
-569.356018066406250 167.072998046875000 -422.680999755859370
-609.325988769531250 169.673004150390620 -475.178009033203120
-636.831970214843750 168.022994995117190 -424.167999267578120
-609.853027343750000 167.563003540039060 -426.683013916015620
-597.333007812500000 168.654006958007810 -483.180999755859380
-639.374023437500000 168.815002441406250 -470.626007080078120
-619.848022460937500 166.697006225585940 -428.727996826171870
-541.460998535156250 164.386001586914060 -414.084991455078120
-626.854980468750000 167.578002929687500 -468.708007812500000
-616.849975585937500 166.957992553710940 -468.743011474609370
-663.900024414062500 165.186004638671870 -410.699005126953120
-652.372985839843750 167.152999877929690 -473.204986572265620
-654.856994628906250 165.335006713867190 -425.276000976562500
-604.857971191406250 165.570999145507810 -467.209014892578120
-588.398986816406250 163.850997924804690 -430.118988037109370
-535.679992675781250 161.761001586914060 -403.165985107421870
-596.802001953125000 165.291000366210940 -473.627014160156250
-602.306030273437500 163.865997314453120 -432.864990234375000
-578.841003417968750 163.132003784179690 -427.234985351562500
-641.356994628906250 165.117004394531250 -461.187011718750000
-654.676025390625000 162.311004638671870 -392.968994140625000
-612.856994628906250 163.005004882812500 -435.114013671875000
-585.244995117187500 164.264007568359370 -485.213989257812500
-547.344970703125000 161.106002807617190 -422.213012695312500
-671.419006347656250 163.259994506835940 -418.195007324218750
-654.846008300781250 164.494003295898440 -463.197998046875000
-662.820007324218750 162.029998779296870 -401.244995117187500
-488.880004882812500 161.268005371093750 -476.639007568359370
-659.895019531250000 164.615997314453120 -479.704986572265620
-557.356018066406250 160.539993286132810 -425.654998779296870
-629.336975097656250 162.789001464843750 -458.622985839843750
-653.382995605468750 162.378997802734380 -440.204010009765620
-506.832000732421870 160.983993530273440 -482.713012695312500
-664.307006835937500 163.442993164062500 -467.227996826171880
-648.856994628906250 162.526992797851560 -454.701995849609370
-610.853027343750000 161.783004760742190 -458.628997802734370
-644.344970703125000 161.436996459960940 -435.078002929687500
-663.398986816406250 161.720993041992190 -433.240997314453120
-498.839996337890620 159.977005004882810 -476.755004882812500
-594.806030273437500 160.854995727539060 -460.145996093750000
-661.374023437500000 161.817993164062500 -454.188995361328120
-630.354003906250000 160.591003417968750 -437.703002929687500
-531.687011718750000 157.785003662109370 -414.294006347656250
-585.309020996093750 160.748001098632810 -467.666992187500000
-607.835021972656250 160.347000122070310 -445.290985107421870
-478.826995849609370 158.751998901367190 -473.029998779296870
-580.937988281250000 160.848007202148440 -476.768005371093750
-623.362976074218750 160.479995727539060 -446.658996582031250
-635.843994140625000 160.688003540039060 -447.705993652343750
-662.893005371093750 160.850006103515620 -444.191986083984370
-680.866027832031250 160.119003295898440 -416.195007324218750
-597.851013183593750 159.102005004882810 -446.705993652343750
-515.856994628906250 158.656005859375000 -478.187988281250000
-571.807983398437500 159.848007202148440 -481.156005859375000
-594.341979980468750 158.649993896484370 -437.270996093750000
-521.367004394531250 158.996994018554690 -486.696990966796870
-565.869995117187500 159.854003906250000 -489.236999511718750
-673.833007812500000 159.807998657226560 -432.828002929687500
-672.861022949218750 160.123992919921870 -455.697998046875000
-570.309020996093750 156.712005615234380 -436.381988525390620
-526.226989746093750 157.354995727539060 -477.621002197265620
-559.856018066406250 158.076004028320310 -480.704986572265620
-676.388977050781250 159.781997680664060 -466.739013671875000
-538.836975097656250 157.417999267578120 -477.730010986328120
-672.846984863281250 160.035003662109370 -477.678009033203120
-548.903991699218750 157.408004760742190 -474.147003173828120
-680.393005371093750 158.811996459960940 -444.673004150390630
-587.359985351562500 157.074005126953120 -448.196014404296880
-686.827026367187500 158.477005004882810 -436.239990234375000
-578.341979980468750 157.139007568359370 -461.200988769531250
-489.355010986328120 155.625000000000000 -468.173004150390620
-679.841979980468750 157.052993774414060 -406.717987060546870
-558.348022460937500 156.677993774414060 -470.177001953125000
-548.872985839843750 154.990005493164060 -430.156005859375000
-691.359985351562500 157.617996215820310 -426.703002929687500
-581.306030273437500 155.766006469726560 -437.799987792968750
-511.842010498046870 155.486999511718750 -468.268005371093750
-527.129028320312500 153.289993286132810 -404.644989013671870
-568.836975097656250 156.350997924804690 -471.223999023437500
-550.351013183593750 156.574005126953120 -487.200988769531250
-668.262023925781250 155.444000244140620 -395.316986083984370
-534.820007324218750 156.210998535156250 -487.233001708984370
-530.755981445312500 152.684997558593750 -394.640014648437500
-690.353027343750000 157.578994750976560 -446.704010009765620
-457.381988525390620 153.636993408203130 -466.113006591796870
-535.856018066406250 153.582992553710940 -425.697998046875000
-499.348999023437500 153.787994384765620 -465.575012207031250
-685.875976562500000 157.248001098632810 -463.678985595703120
-564.307006835937500 154.751007080078120 -461.199005126953120
-684.895019531250000 157.220993041992190 -475.200988769531250
-701.356018066406250 156.111999511718750 -436.697998046875000
-528.854003906250000 153.688995361328120 -463.173004150390620
-693.359008789062500 156.643005371093750 -456.212005615234380
-700.317993164062500 156.376007080078120 -447.191986083984370
-569.806030273437500 153.772003173828120 -448.730010986328120
-696.789001464843750 154.936996459960940 -418.248992919921870
-715.846984863281250 156.279006958007810 -456.686004638671870
-538.853027343750000 152.587005615234370 -462.203002929687500
-725.369018554687500 155.761993408203120 -452.687011718750000
-518.848022460937500 152.046997070312500 -461.734008789062500
-701.853027343750000 155.598007202148440 -461.703002929687500
-703.901000976562500 154.231002807617190 -425.662994384765620
-522.190002441406250 150.291000366210940 -416.218994140625000
-729.840026855468750 155.882995605468750 -462.158996582031250
-553.508972167968750 152.251998901367190 -458.273010253906250
-717.838989257812500 154.951004028320310 -444.718994140625000
-720.476013183593750 155.722000122070310 -467.454986572265620
-447.803985595703120 150.188995361328120 -463.502014160156250
-560.932983398437500 151.423995971679690 -437.493011474609370
-559.807983398437500 151.802001953125000 -448.700012207031250
-735.348022460937500 155.414001464843750 -453.747985839843750
-711.372009277343750 154.184997558593750 -436.177001953125000
-757.354980468750000 155.645004272460940 -455.187011718750000
-746.367004394531250 155.199996948242190 -452.630004882812500
-709.856018066406250 155.044998168945310 -468.687011718750000
-744.854003906250000 155.125000000000000 -462.713989257812500
-698.851989746093750 154.576995849609370 -473.199005126953120
-677.450012207031250 151.257995605468750 -397.575988769531250
-549.872985839843750 150.018997192382810 -445.200012207031250
-544.356994628906250 150.039993286132810 -454.225006103515620
-767.403991699218750 154.348999023437500 -454.183013916015620
-538.870971679687500 149.048004150390620 -434.166992187500000
-733.854003906250000 153.089996337890620 -443.703002929687500
-524.768981933593750 148.253997802734380 -426.753997802734370
-692.458007812500000 150.757003784179690 -407.082000732421870
-509.850006103515620 148.716995239257810 -457.104003906250000
-480.328002929687500 148.277999877929690 -462.481994628906250
-715.349975585937500 151.072998046875000 -426.707000732421870
-519.122985839843750 146.304992675781250 -407.153015136718750
-534.283996582031250 148.311996459960940 -453.524993896484370
-777.388000488281250 151.764999389648440 -452.654998779296870
-708.330993652343750 149.044998168945310 -416.744995117187500
-758.879028320312500 150.733993530273440 -446.135986328125000
-516.241027832031250 144.774002075195310 -422.752014160156250
-535.281982421875000 145.740997314453120 -443.196014404296870
-495.272003173828120 145.330001831054690 -455.533996582031250
-729.419006347656250 148.804992675781250 -432.972991943359370
-748.838012695312500 148.996994018554690 -441.266998291015620
-466.848999023437500 143.710006713867190 -461.054992675781250
-504.351989746093750 142.606994628906250 -451.183990478515620
-453.859985351562500 141.628997802734370 -459.618988037109370
-769.867004394531250 147.147003173828120 -444.154998779296870
-683.921020507812500 143.641998291015620 -395.049987792968750
-510.808990478515630 140.667007446289060 -408.177001953125000
-743.859008789062500 145.727005004882810 -433.101989746093750
-518.130981445312500 139.768005371093750 -394.042999267578120
-518.380004882812500 141.501007080078120 -447.230987548828120
-699.848022460937500 143.080001831054690 -404.213012695312500
-513.828002929687500 140.156997680664060 -432.747009277343750
-788.879028320312500 146.158996582031250 -450.152008056640620
-476.335998535156250 140.162994384765620 -458.096984863281250
-507.709014892578120 139.302001953125000 -423.700012207031250
-732.859008789062500 143.632003784179690 -422.682006835937500
-485.845001220703120 139.606994628906250 -454.174987792968750
-722.431030273437500 142.746002197265620 -417.009002685546870
-523.419006347656250 138.940994262695310 -436.476013183593750
-502.200012207031250 135.800003051757810 -414.714996337890620
-494.821014404296880 136.684997558593750 -448.627014160156250
-693.750976562500000 138.522003173828120 -397.450988769531250
-744.273986816406250 140.363006591796870 -424.367004394531250
-781.879028320312500 141.651000976562500 -444.136993408203120
-461.355010986328120 135.046997070312500 -456.772003173828120
-442.838989257812500 134.602996826171870 -459.175994873046870
-505.360992431640620 133.080993652343750 -401.707000732421870
-499.243988037109370 133.789001464843750 -431.269012451171870
-713.330993652343750 136.550003051757810 -406.242004394531250
-801.330017089843750 138.973999023437500 -449.319000244140620
-730.869995117187500 136.119995117187500 -415.167999267578120
-479.299011230468750 132.264999389648440 -451.979003906250000
-507.903015136718750 131.925994873046870 -436.618011474609380
-451.812988281250000 131.498992919921870 -455.932006835937500
-495.289001464843750 130.268005371093750 -406.602996826171870
-752.346984863281250 135.057006835937500 -420.730987548828120
-771.817993164062500 135.526992797851560 -434.295989990234370
-490.763000488281250 129.735000610351560 -427.687988281250000
-492.312011718750000 129.164001464843750 -416.697998046875000
-488.722991943359370 129.742004394531250 -443.572998046875000
-506.209014892578120 127.305000305175780 -393.532012939453120
-792.875000000000000 134.125000000000000 -442.644012451171870
-433.180999755859370 127.694999694824220 -470.658996582031250
-470.854003906250000 127.083000183105470 -450.214996337890620
-721.411010742187500 130.184005737304690 -404.562011718750000
-459.835998535156250 126.198997497558590 -451.947998046875000
-483.859985351562500 125.058998107910160 -410.704010009765620
-494.769012451171870 125.748001098632810 -436.319000244140620
-495.832000732421870 124.160003662109370 -396.154998779296870
-764.406982421875000 130.216003417968750 -419.148986816406250
-742.322021484375000 129.007003784179690 -413.299011230468750
-479.782012939453120 124.734001159667970 -443.080993652343750
-480.773986816406250 123.744003295898440 -423.625000000000000
-811.341003417968750 131.074005126953120 -449.234008789062500
-485.341003417968750 122.779998779296870 -399.605010986328120
-773.388000488281250 128.652999877929690 -426.671997070312500
-438.348999023437500 122.594001770019530 -456.196990966796870
-783.320007324218750 128.526000976562500 -435.279998779296870
-802.854980468750000 128.589004516601560 -444.200988769531250
-475.354003906250000 120.304000854492190 -399.165008544921870
-448.825012207031250 121.648002624511720 -451.575012207031250
-480.855987548828120 119.685997009277340 -390.187988281250000
-485.781005859375000 121.269996643066410 -435.824005126953120
-467.846008300781250 119.126998901367190 -390.701995849609370
-443.888000488281250 118.017997741699220 -391.183013916015620
-473.811004638671870 117.973999023437500 -382.308990478515620
-753.356018066406250 124.123001098632810 -410.675994873046870
-415.858001708984370 116.796997070312500 -392.385986328125000
-473.779998779296870 118.789001464843750 -417.251007080078120
-466.308990478515620 117.851997375488280 -403.696990966796870
-471.292999267578120 119.269996643066410 -442.558990478515620
-453.837005615234370 116.211997985839840 -398.255004882812500
-763.354980468750000 122.625999450683590 -409.170013427734370
-469.774993896484370 117.712997436523440 -431.774993896484380
-427.312988281250000 115.318000793457030 -393.825988769531250
-460.747985839843750 117.838996887207030 -446.460998535156250
-774.859985351562500 122.597999572753910 -418.697998046875000
-819.406982421875000 124.621002197265620 -450.627014160156250
-782.466979980468750 122.735000610351560 -427.053009033203120
-745.338012695312500 120.552001953125000 -405.774993896484380
-440.872985839843750 113.986000061035160 -400.126007080078120
-428.851989746093750 116.091003417968750 -465.703002929687500
-795.645996093750000 121.870002746582030 -436.386993408203120
-407.141998291015620 112.164001464843750 -390.355987548828120
-464.359985351562500 114.071998596191410 -417.699005126953120
-774.567993164062500 119.335998535156250 -409.100006103515620
-456.355010986328120 113.083999633789060 -411.700012207031250
-460.924011230468750 113.485000610351560 -429.669006347656250
-438.253997802734370 113.295997619628910 -451.044006347656250
-449.355987548828120 112.584999084472660 -447.208007812500000
-435.247009277343750 108.736000061035160 -406.891998291015620
-444.873992919921870 108.934997558593750 -413.154998779296870
-413.239013671875000 107.265998840332030 -401.403015136718750
-424.730010986328120 110.136001586914060 -474.723999023437500
-425.855987548828120 107.505996704101560 -403.652008056640620
-789.414001464843750 115.155998229980470 -425.149993896484370
-452.316009521484370 108.661003112792970 -427.717987060546870
-810.463012695312500 115.644996643066410 -442.554992675781250
-827.101989746093750 115.638000488281250 -453.983001708984370
-782.239013671875000 113.015998840332030 -413.807006835937500
-427.743011474609370 106.665000915527340 -457.122009277343750
-461.750000000000000 106.276000976562500 -437.178009033203120
-405.692993164062500 102.128997802734370 -395.266998291015620
-422.664001464843750 104.690002441406250 -466.175994873046870
-431.514007568359370 101.859001159667970 -415.015991210937500
-444.371002197265620 102.572998046875000 -429.678009033203120
-803.705993652343750 109.497001647949220 -433.953002929687500
-453.346008300781250 101.098999023437500 -434.716003417968750
-818.468994140625000 108.231002807617190 -446.026000976562500
-420.627990722656250 100.727996826171870 -477.751007080078120
-413.924011230468750 97.999298095703125 -410.069000244140620
-793.963989257812500 105.655998229980470 -421.062988281250000
-812.219970703125000 106.486000061035160 -438.364990234375000
-433.869995117187500 98.566802978515625 -424.690002441406250
-405.167999267578120 96.518302917480469 -386.700988769531250
-826.327026367187500 105.634002685546870 -453.761993408203120
-404.813995361328120 94.103698730468750 -402.713989257812500
-422.601989746093750 94.277900695800781 -453.542999267578120
-423.868011474609370 93.058197021484375 -421.182006835937500
-802.197998046875000 100.459999084472660 -424.477996826171880
-443.752014160156250 93.720901489257813 -434.835998535156250
-820.112976074218750 99.430099487304688 -441.390014648437500
-417.713989257812500 92.155601501464844 -462.687988281250000
-402.621002197265620 89.129096984863281 -393.743011474609370
-428.998992919921870 90.877700805664063 -429.498992919921870
-810.939025878906250 97.647300720214844 -428.606994628906250
-834.953002929687500 99.100196838378906 -457.071990966796870
-404.497009277343750 87.971900939941406 -410.610992431640620
-827.052978515625000 96.972602844238281 -448.444000244140620
-411.480010986328120 86.940101623535156 -417.986999511718750
-436.257995605468750 87.238601684570312 -436.233001708984370
-427.722991943359370 86.853202819824219 -442.085998535156250
-413.553985595703120 87.760498046875000 -476.335998535156250
-843.306030273437500 94.627296447753906 -463.264007568359370
-416.760009765625000 85.152397155761719 -455.169006347656250
-818.828002929687500 92.055900573730469 -431.722991943359370
-415.161010742187500 82.355003356933594 -426.386993408203120
-423.460998535156250 82.478996276855469 -431.979003906250000
-400.671997070312500 80.683403015136719 -402.631011962890620
-400.251007080078120 79.606300354003906 -391.725006103515620
-834.169006347656250 89.516403198242188 -454.319000244140620
-826.172973632812500 88.543098449707031 -437.842987060546870
-415.287994384765620 81.113800048828125 -483.772003173828120
-414.665985107421870 78.239898681640625 -447.141998291015620
-408.161010742187500 78.749198913574219 -471.199005126953120
-400.348999023437500 76.092399597167969 -416.705993652343750
-841.343017578125000 85.065597534179688 -459.700988769531250
-409.325988769531250 76.111701965332031 -460.190002441406250
-849.892028808593750 83.090698242187500 -468.147003173828120
-404.614990234375000 71.842697143554687 -426.910003662109370
-398.457000732421870 70.061500549316406 -388.220001220703120
-395.158996582031250 69.706596374511719 -404.657012939453120
-414.661987304687500 69.843498229980469 -436.139007568359370
-411.954986572265620 71.043701171875000 -484.061004638671870
-405.256011962890620 69.217597961425781 -454.164001464843750
-394.183013916015620 66.703399658203125 -415.286010742187500
-402.171997070312500 68.217697143554688 -464.221984863281250
-406.710998535156250 66.814102172851563 -442.118011474609380
-853.758972167968750 75.136199951171875 -472.851989746093750
-403.105010986328120 66.208000183105469 -474.289001464843750
-394.660003662109370 62.248100280761719 -424.325012207031250
-846.195983886718750 72.031997680664062 -466.299987792968750
-399.704986572265620 61.712001800537109 -447.203002929687500
-392.136993408203120 58.735500335693359 -402.032012939453120
-398.291992187500000 60.618801116943359 -457.200012207031250
-411.817993164062500 61.115200042724609 -486.250000000000000
-388.227996826171870 57.153400421142578 -411.703002929687500
-399.364013671875000 58.079498291015625 -432.169006347656250
-398.188995361328120 58.183200836181641 -470.252990722656250
-403.677001953125000 58.665298461914063 -480.842987060546870
-387.743011474609370 54.192901611328125 -423.256011962890620
-392.720001220703120 53.196899414062500 -447.726989746093750
-393.191986083984370 52.697101593017578 -461.225006103515620
-383.694000244140620 48.164901733398437 -416.216003417968750
-385.696014404296880 47.672100067138672 -405.114013671875000
-394.748992919921870 48.588500976562500 -473.250000000000000
-400.130004882812500 48.937698364257813 -481.988006591796870
-391.695007324218750 45.740501403808594 -433.437988281250000
-384.354003906250000 43.092300415039062 -445.209014892578120
-387.778991699218750 43.129699707031250 -458.721984863281250
-377.985992431640620 40.324699401855469 -422.705993652343750
-379.808013916015620 39.612998962402344 -411.203002929687500
-383.757995605468750 39.649398803710937 -431.843994140625000
-386.687988281250000 36.050300598144531 -399.472991943359370
-378.195007324218750 35.229198455810547 -446.274993896484370
-382.605987548828120 34.664901733398438 -456.282989501953120
-386.572998046875000 35.031700134277344 -465.631011962890620
-397.877014160156250 30.995399475097656 -391.981994628906250
-393.582000732421870 34.226699829101563 -481.856994628906250
-372.714996337890620 31.675399780273438 -428.270996093750000
-375.356994628906250 30.086399078369141 -410.200012207031250
-379.798004150390620 29.632099151611328 -435.213012695312500
-371.250000000000000 28.685800552368164 -441.720001220703120
-380.777008056640620 24.022499084472656 -402.503997802734370
-386.760986328125000 26.659599304199219 -474.257995605468750
-373.161987304687500 24.778600692749023 -452.321990966796870
-367.933990478515620 22.515499114990234 -430.063995361328120
-397.828002929687500 21.551300048828125 -395.506988525390620
-365.274993896484370 21.660699844360352 -420.190002441406250
-379.147003173828120 22.340000152587891 -467.347991943359370
-365.761993408203120 20.652399063110352 -446.255004882812500
-388.298004150390620 18.066299438476563 -399.075988769531250
-371.188995361328120 18.810600280761719 -461.279998779296870
-372.959014892578120 16.095899581909180 -407.871002197265620
-385.498992919921870 18.899299621582031 -484.565002441406250
-376.002014160156250 17.342100143432617 -475.520996093750000
-367.888000488281250 13.564100265502930 -434.696990966796870
-358.815002441406250 12.628000259399414 -420.164001464843750
-362.852996826171870 13.090800285339355 -458.204010009765620
-358.305999755859370 12.142200469970703 -448.720001220703130
-366.138000488281250 10.802000045776367 -412.934997558593750
-376.683013916015620 13.401599884033203 -484.901000976562500
-368.364013671875000 11.556200027465820 -478.692993164062500
-398.282989501953120 9.131480216979981 -400.316009521484370
-360.817993164062500 10.159199714660645 -470.721008300781250
-387.790008544921880 7.554880142211914 -401.079986572265620
-360.334991455078120 8.104969978332520 -430.733001708984370
-353.921997070312500 7.541049957275391 -440.231994628906250
-353.255004882812500 5.167109966278076 -424.208007812500000
-352.014007568359370 5.914100170135498 -454.670013427734370
-359.834014892578120 6.646240234375000 -481.222991943359370
-367.398986816406250 6.945859909057617 -488.069000244140620
-352.704986572265620 5.793190002441406 -466.217987060546870
-350.378997802734370 3.538889884948731 -476.696990966796870
-347.135009765625000 1.239809989929199 -446.167999267578120
-369.876007080078120 -0.420437008142471 -409.257995605468750
-395.315002441406250 -1.392590045928955 -402.372009277343750
-380.863006591796870 -2.404619932174683 -405.269012451171870
-354.256988525390620 -2.255239963531494 -430.858001708984370
-347.295013427734370 -4.339650154113770 -423.696014404296870
-340.690002441406250 -3.742700099945068 -469.688995361328120
-341.725006103515620 -4.747310161590576 -457.203002929687500
-341.285003662109370 -6.854070186614990 -442.682006835937500
-387.858001708984370 -9.909970283508301 -404.223999023437500
-333.812988281250000 -8.343879699707031 -478.186004638671870
-376.838012695312500 -11.411600112915039 -407.533996582031250
-333.135986328125000 -11.260199546813965 -466.209014892578120
-341.761993408203120 -12.818799972534180 -424.709991455078120
-335.248992919921870 -12.805899620056152 -448.209991455078120
-323.877014160156250 -12.513500213623047 -480.220001220703130
-330.734985351562500 -15.768500328063965 -456.657012939453130
-335.700988769531250 -16.774900436401367 -438.572998046875000
-352.315002441406250 -17.883800506591797 -416.584991455078120
-346.226013183593750 -17.807199478149414 -433.209014892578120
-324.270996093750000 -17.297500610351563 -464.641998291015620
-309.299011230468750 -17.736200332641602 -480.657989501953120
-316.566009521484370 -18.580400466918945 -472.531005859375000
-387.833007812500000 -20.409999847412109 -403.269989013671870
-342.375000000000000 -21.442699432373047 -418.290008544921870
-327.558013916015620 -21.160800933837891 -445.600006103515620
-368.863006591796870 -21.921499252319336 -409.222991943359370
-322.680999755859370 -22.633600234985352 -454.621002197265620
-359.350006103515620 -23.903600692749023 -412.183013916015620
-305.402008056640620 -23.268499374389648 -473.000000000000000
-336.371002197265620 -24.419300079345703 -427.177001953125000
-378.255004882812500 -25.752399444580078 -402.584991455078120
-311.846984863281250 -24.898099899291992 -464.700012207031250
-297.303985595703120 -28.280099868774414 -469.079010009765620
-326.992004394531250 -29.040500640869141 -436.861999511718750
-319.803009033203120 -28.843299865722656 -447.179992675781250
-350.744995117187500 -30.249900817871094 -411.518005371093750
-338.333007812500000 -30.367799758911133 -415.997009277343750
-363.316986083984370 -30.334400177001953 -405.157989501953120
-313.808990478515620 -29.853599548339844 -455.171997070312500
-374.869995117187500 -31.644599914550781 -394.901000976562500
-330.178985595703120 -31.820199966430664 -423.759002685546870
-364.964996337890620 -34.128501892089844 -395.282012939453130
-304.045989990234370 -33.201801300048828 -459.347991943359370
-290.346984863281250 -33.817401885986328 -464.140014648437500
-280.872009277343750 -35.653598785400391 -461.472991943359370
-312.321014404296870 -36.851699829101563 -446.178009033203120
-334.433990478515620 -37.484100341796875 -432.713989257812500
-354.805999755859370 -38.837001800537109 -397.675994873046870
-333.904998779296870 -39.006198883056641 -413.316986083984370
-344.236999511718750 -40.760101318359375 -404.119995117187500
-273.361999511718750 -40.307098388671875 -455.082000732421870
-295.868011474609370 -41.939701080322266 -453.730987548828120
-318.875000000000000 -43.932201385498047 -434.253997802734370
-346.799011230468750 -45.779998779296875 -382.694000244140620
-322.196014404296870 -45.798900604248047 -421.217010498046870
-281.867004394531250 -45.817298889160156 -449.638000488281250
-335.858001708984370 -46.922199249267578 -404.212005615234370
-345.833007812500000 -47.353698730468750 -392.704986572265620
-272.411010742187500 -47.461799621582031 -441.220001220703120
-328.925994873046870 -46.903598785400391 -432.092010498046870
-299.828002929687500 -47.811698913574219 -446.625000000000000
-324.238006591796870 -49.229099273681641 -412.033996582031250
-272.186004638671870 -51.304798126220703 -431.667999267578120
-337.765014648437500 -51.741600036621094 -388.734008789062500
-290.305999755859370 -50.992099761962891 -445.803985595703120
-331.811004638671870 -53.335800170898437 -378.705993652343750
-307.976013183593750 -52.029201507568359 -436.977996826171870
-328.920013427734370 -54.000900268554688 -402.750000000000000
-270.359985351562500 -53.908401489257813 -452.205993652343750
-328.425994873046870 -55.528999328613281 -388.708007812500000
-318.019012451171870 -54.957099914550781 -422.532012939453120
-283.339996337890620 -57.389701843261719 -440.641998291015620
-323.342010498046870 -58.891799926757813 -380.704010009765630
-321.161010742187500 -58.204700469970703 -408.187988281250000
-320.343994140625000 -57.375999450683594 -432.033996582031250
-320.446014404296880 -59.622600555419922 -396.847991943359370
-292.365997314453120 -60.436901092529297 -436.239013671875000
-310.355987548828120 -60.415901184082031 -431.731994628906250
-267.802001953125000 -62.370498657226562 -422.763000488281250
-316.348999023437500 -63.396900177001953 -373.200988769531250
-312.365997314453120 -61.918800354003906 -416.200988769531250
-314.690002441406250 -64.708702087402344 -390.178985595703120
-301.355987548828120 -64.912803649902344 -432.713012695312500
-311.832000732421870 -65.887802124023438 -406.700012207031250
-317.852996826171880 -65.909400939941406 -426.703002929687500
-307.255004882812500 -71.237899780273438 -380.282012939453120
-278.014007568359370 -70.037101745605469 -449.803985595703120
-308.893005371093750 -71.439697265625000 -397.196014404296870
-307.826995849609370 -70.896499633789063 -415.707000732421870
-310.852996826171870 -71.910896301269531 -430.709991455078120
-290.190002441406250 -72.263298034667969 -432.488006591796870
-306.290008544921870 -75.350502014160156 -406.195007324218750
-299.858001708984370 -74.916900634765625 -430.233001708984370
-294.329010009765630 -77.866096496582031 -373.213989257812500
-273.949005126953120 -75.125801086425781 -458.809997558593750
-301.635986328125000 -78.216598510742187 -393.287994384765620
-297.799987792968750 -79.355903625488281 -382.705993652343750
-281.658996582031250 -79.210998535156250 -444.166992187500000
-303.277008056640620 -80.365303039550781 -416.740997314453120
-283.148010253906250 -84.759399414062500 -372.338012695312500
-293.726989746093750 -85.319900512695313 -391.768005371093750
-275.191009521484380 -84.339302062988281 -453.696014404296880
-298.173004150390620 -86.262702941894531 -400.798004150390630
-305.355987548828120 -85.934799194335938 -429.320007324218750
-287.144989013671870 -86.359703063964844 -431.545989990234370
-286.540985107421880 -89.573402404785156 -386.092010498046870
-297.239013671875000 -89.321998596191406 -410.722991943359370
-280.953002929687500 -89.969398498535156 -441.269012451171870
-296.365997314453120 -90.408302307128906 -428.134002685546870
-271.901000976562500 -90.387397766113281 -461.701995849609370
-279.805999755859380 -93.901901245117188 -375.212005615234370
-270.380004882812500 -96.247802734375000 -372.835998535156250
-300.593994140625000 -94.997802734375000 -419.453002929687500
-287.278991699218750 -96.371299743652344 -395.239990234375000
-276.082000732421870 -94.810096740722656 -449.057006835937500
-283.816986083984370 -96.397697448730469 -432.182006835937500
-282.751007080078130 -98.914100646972656 -386.246002197265620
-293.912994384765620 -100.751998901367190 -414.473999023437500
-267.897003173828120 -103.083000183105470 -381.527008056640620
-288.339996337890620 -101.902999877929690 -403.708007812500000
-299.347991943359370 -101.444000244140620 -427.907989501953120
-270.938995361328130 -102.415000915527340 -465.212005615234370
-278.075988769531250 -103.387001037597660 -439.109008789062500
-281.670989990234370 -105.914001464843750 -375.739990234375000
-258.937988281250000 -107.494003295898440 -383.044006347656250
-274.981994628906250 -104.863998413085940 -448.717987060546870
-290.890991210937500 -106.899002075195310 -426.497009277343750
-280.950012207031250 -107.424003601074220 -429.209014892578120
-287.798004150390620 -109.888999938964840 -409.729003906250000
-284.286010742187500 -110.896003723144530 -396.718994140625000
-294.347991943359370 -110.407997131347660 -417.709991455078120
-272.631988525390620 -109.392997741699220 -458.165985107421880
-282.204010009765620 -112.400001525878910 -384.743988037109370
-271.979003906250000 -115.078002929687500 -368.105987548828120
-273.416992187500000 -114.906997680664060 -394.131011962890620
-262.351989746093750 -115.407997131347660 -389.208007812500000
-278.049011230468750 -115.632003784179690 -376.095001220703120
-276.548004150390620 -113.991996765136720 -435.769012451171870
-268.845001220703120 -113.402000427246090 -466.697998046875000
-274.199005126953120 -114.866996765136720 -445.682006835937500
-279.593994140625000 -116.752998352050780 -425.071990966796870
-290.394012451171870 -116.886001586914060 -425.976013183593750
-283.441009521484370 -119.443000793457030 -407.664001464843750
-269.394012451171870 -121.502998352050780 -375.640014648437500
-281.317993164062500 -120.896003723144530 -396.216003417968750
-277.971984863281250 -121.508003234863280 -386.153991699218750
-256.364990234375000 -123.875999450683590 -388.736999511718750
-288.673004150390630 -123.367996215820310 -415.403015136718750
-263.722991943359370 -122.722000122070310 -455.593994140625000
-256.269012451171870 -126.324996948242190 -374.802001953125000
-274.760986328125000 -125.370002746582030 -427.679992675781250
-272.151000976562500 -125.345001220703120 -437.687011718750000
-269.915985107421870 -127.499000549316410 -384.126007080078120
-268.061004638671870 -126.101997375488280 -446.790008544921870
-284.372009277343750 -127.429000854492190 -424.131988525390620
-282.079986572265620 -129.598999023437500 -410.513000488281250
-256.813995361328120 -129.272994995117190 -451.608001708984370
-273.742004394531250 -131.304000854492190 -392.802001953125000
-295.195007324218750 -131.707992553710940 -420.401000976562500
-246.707000732421870 -132.660003662109370 -452.524993896484370
-269.769989013671870 -133.339004516601560 -431.658996582031250
-264.707000732421870 -133.785995483398440 -440.651000976562500
-255.981002807617190 -136.389999389648440 -375.678985595703120
-264.770996093750000 -135.824996948242190 -388.809997558593750
-276.157012939453120 -135.361999511718750 -404.819000244140620
-254.343002319335940 -136.934997558593750 -444.734008789062500
-281.425994873046870 -137.880996704101560 -423.033996582031250
-244.373992919921870 -138.177001953125000 -444.352996826171870
-233.848999023437500 -139.440994262695310 -442.713012695312500
-271.101013183593750 -140.723999023437500 -397.916992187500000
-268.648010253906250 -140.804992675781250 -424.145996093750000
-263.058990478515620 -141.151992797851560 -433.972991943359370
-253.350006103515620 -142.854995727539060 -436.673004150390620
-249.854995727539060 -143.412002563476560 -423.716003417968750
-261.444000244140620 -145.363998413085940 -390.468994140625000
-260.088012695312500 -146.072998046875000 -378.221984863281250
-281.994995117187500 -144.436996459960940 -413.050994873046870
-225.863006591796870 -145.341995239257810 -435.080993652343750
-239.671005249023440 -145.953994750976560 -420.859008789062500
-244.360000610351560 -146.548995971679690 -432.812988281250000
-235.498001098632810 -147.848007202148440 -409.636993408203120
-274.639007568359370 -147.375000000000000 -406.928009033203120
-278.292999267578120 -147.410995483398440 -421.963989257812500
-267.398010253906250 -149.927001953125000 -400.169006347656250
-262.687011718750000 -149.291000366210940 -426.118011474609370
-262.648986816406250 -153.386993408203120 -368.736999511718750
-233.871994018554690 -151.977005004882810 -430.855987548828120
-268.343994140625000 -154.434005737304690 -419.329986572265620
-243.679992675781250 -155.458999633789060 -420.414001464843750
-263.199005126953120 -156.414993286132810 -393.235992431640620
-254.339004516601560 -155.742004394531250 -424.006988525390620
-263.277008056640620 -157.445007324218750 -379.226013183593750
-257.238006591796870 -158.326004028320310 -361.309997558593750
-225.360000610351560 -156.889999389648440 -428.169006347656250
-238.453002929687500 -157.393005371093750 -411.678985595703120
-277.847991943359370 -157.425003051757810 -420.842987060546870
-277.257995605468750 -158.897994995117190 -410.811004638671870
-268.597991943359370 -159.363006591796870 -403.454010009765630
-259.305999755859370 -162.871994018554690 -419.013000488281250
-232.875000000000000 -163.352005004882810 -425.588989257812500
-259.578002929687500 -165.313995361328120 -373.355987548828120
-269.377014160156250 -164.406997680664060 -419.101989746093750
-253.438995361328120 -166.985000610351560 -365.143005371093750
-243.830001831054690 -165.347000122070310 -424.542999267578120
-261.691986083984370 -169.354003906250000 -382.265014648437500
-272.144012451171870 -168.906997680664060 -407.446990966796870
-264.777008056640620 -169.904006958007810 -400.256011962890620
-252.339996337890620 -170.402999877929690 -421.151000976562500
-277.691009521484370 -171.257995605468750 -419.127990722656250
-229.356002807617190 -172.406005859375000 -421.191986083984370
-217.401992797851560 -173.382003784179690 -411.158996582031250
-253.845001220703130 -174.408996582031250 -372.209991455078120
-243.940002441406250 -175.500000000000000 -361.661010742187500
-261.846984863281250 -174.408996582031250 -417.786010742187500
-242.873992919921870 -174.865997314453120 -421.536010742187500
-272.272003173828120 -178.880996704101560 -408.287994384765620
-262.346984863281250 -179.910003662109370 -396.705993652343750
-246.809997558593750 -181.378005981445310 -369.250000000000000
-260.175994873046870 -180.860992431640620 -386.760986328125000
-270.356994628906250 -180.399993896484370 -418.140014648437500
-253.869003295898440 -180.925994873046870 -418.324005126953120
-232.867996215820310 -181.902999877929690 -418.670013427734370
-253.143997192382810 -183.343994140625000 -376.871002197265620
-243.850006103515620 -184.871002197265620 -418.967987060546870
-224.600997924804690 -185.751007080078120 -412.053985595703120
-266.966003417968750 -186.404006958007810 -403.096008300781250
-262.348999023437500 -186.912002563476560 -417.759002685546880
-272.747009277343750 -189.423004150390620 -411.268005371093750
-231.860000610351560 -193.408004760742190 -413.691986083984370
-259.593994140625000 -194.434997558593750 -394.010986328125000
-229.261001586914060 -196.947998046875000 -401.678985595703120
-257.339996337890620 -195.908004760742190 -417.308990478515620
-253.287994384765620 -197.891006469726560 -383.752014160156250
-242.348007202148440 -196.929000854492190 -415.760009765625000
-267.339996337890620 -196.902999877929690 -417.108001708984370
-269.567993164062500 -197.936996459960940 -407.080993652343750
-264.373992919921870 -201.910003662109370 -399.186004638671870
-233.759994506835940 -202.475006103515620 -409.785003662109370
-251.904006958007810 -204.391998291015620 -416.483001708984370
-235.132995605468750 -208.994003295898440 -401.687011718750000
-240.496002197265620 -209.828002929687500 -411.002990722656250
-248.830001831054690 -215.925003051757810 -413.742004394531250
-239.257003784179690 -218.447998046875000 -401.213989257812500
-243.309997558593750 -220.460006713867190 -391.255004882812500
-247.722000122070310 -225.434005737304690 -410.299011230468750
-243.669006347656250 -227.964004516601560 -400.743988037109370
