ply
format ascii 1.0
comment Author: CloudCompare (TELECOM PARISTECH/EDF R&D)
obj_info Generated by CloudCompare!
element vertex 1777
property float x
property float y
property float z
property float scalar_Original_cloud_index
end_header
52.6475 271.261 102.271 0 
47.7083 270.164 104.181 0 
47.1365 269.37 104.438 0 
50.1473 270.834 103.327 0 
51.1409 270.78 103.257 0 
50.6022 271.681 102.629 0 
46.5876 268.79 104.555 0 
48.1497 274.279 100.944 0 
50.1465 269.733 103.627 0 
50.1219 272.158 102.078 0 
49.6894 271.208 102.663 0 
50.1352 273.298 101.29 0 
51.6248 271.119 102.526 0 
46.6305 267.837 104.802 0 
48.6651 274.838 100.361 0 
49.5194 275.129 100.122 0 
47.1944 269.756 103.545 0 
52.6475 271.261 102.271 0 
49.1094 273.499 101.062 0 
51.1292 272.238 101.718 0 
52.0336 270.497 102.735 0 
51.0798 273.158 101.137 0 
45.5992 264.329 106.796 0 
46.3309 264.835 106.438 0 
52.1308 271.784 101.775 0 
49.1554 270.327 102.821 0 
53.0906 270.236 102.639 0 
50.7474 269.309 103.328 0 
51.1456 269.882 102.945 0 
47.09 268.971 103.703 0 
49.6559 272.756 101.223 0 
49.6423 273.967 100.47 0 
50.1705 274.877 99.8735 0 
50.5785 274.223 100.212 0 
52.5198 269.818 102.815 0 
49.7266 275.475 99.4506 0 
49.2637 272.132 101.533 0 
46.9246 268.194 104.081 0 
53.0623 271.639 101.61 0 
49.278 276.109 99.0258 0 
52.595 272.237 101.226 0 
48.6486 273.894 100.404 0 
50.1572 268.864 103.424 0 
53.5801 270.695 102.106 0 
51.5074 269.231 103.103 0 
48.1656 273.323 100.731 0 
53.0963 259.845 108.803 0 
52.1285 272.811 100.806 0 
54.0722 269.726 102.608 0 
49.6813 269.392 102.998 0 
51.7011 273.408 100.4 0 
51.3053 274.047 100.015 0 
48.1103 271.909 101.494 0 
54.0763 271.193 101.618 0 
53.1435 269.317 102.798 0 
54.1989 268.901 102.99 0 
50.1796 275.889 98.8754 0 
45.6701 263.353 106.852 0 
46.7482 267.153 104.443 0 
50.9522 274.587 99.628 0 
54.5682 270.227 102.136 0 
50.569 275.238 99.2374 0 
46.6187 266.379 104.871 0 
53.5004 260.344 108.233 0 
53.6462 268.326 103.277 0 
52.2556 268.844 103.012 0 
52.4342 257.919 109.753 0 
51.0033 268.586 103.225 0 
47.258 269.209 103.025 0 
53.0323 272.583 100.614 0 
53.6877 271.961 100.963 0 
47.1822 269.929 102.521 0 
49.1311 277.315 97.82 0 
54.5582 261.414 107.366 0 
53.1397 258.342 109.334 0 
46.1035 263.831 106.3 0 
48.8188 269.22 102.825 0 
54.9886 269.205 102.516 0 
49.2817 268.612 103.167 0 
47.5817 271.405 101.519 0 
55.2469 269.952 102.018 0 
49.5198 276.602 98.1817 0 
54.9186 262.044 106.904 0 
54.7443 271.507 101.021 0 
53.3941 258.977 108.816 0 
55.158 270.856 101.358 0 
52.4703 273.089 100.109 0 
52.6472 267.838 103.332 0 
48.1461 269.457 102.55 0 
54.6211 267.81 103.224 0 
55.1583 268.346 102.855 0 
52.0043 273.695 99.7072 0 
46.5395 264.335 105.761 0 
45.9161 261.993 107.236 0 
47.6849 272.302 100.767 0 
51.6142 274.305 99.3096 0 
51.2505 274.948 98.9224 0 
50.5047 267.925 103.283 0 
49.7629 267.948 103.304 0 
53.9523 267.516 103.348 0 
51.7591 268.177 103.048 0 
47.0989 267.907 103.412 0 
50.2295 276.454 97.9087 0 
47.6477 270.326 101.81 0 
54.6117 272.243 100.259 0 
55.5356 263.556 105.572 0 
55.6158 268.822 102.293 0 
56.0115 269.775 101.681 0 
51.0289 275.715 98.2521 0 
48.4574 268.452 102.87 0 
46.2615 262.876 106.414 0 
55.5976 271.263 100.743 0 
54.5555 266.762 103.573 0 
49.7575 277.028 97.4573 0 
53.155 272.857 99.8429 0 
55.9831 270.651 101.049 0 
55.5844 267.257 103.142 0 
47.0422 267.127 103.637 0 
56.103 264.054 105.063 0 
56.6847 264.933 104.489 0 
54.1254 272.726 99.7734 0 
53.6321 266.859 103.41 0 
57.1782 265.508 104.057 0 
55.6151 264.945 104.46 0 
46.4616 259.456 108.32 0 
49.6176 277.801 96.8136 0 
46.6571 265.849 104.355 0 
54.0012 261.567 106.597 0 
55.1481 264.332 104.826 0 
51.2644 267.504 103.063 0 
52.0078 267.476 103.025 0 
52.6679 273.363 99.3507 0 
47.1889 268.264 102.756 0 
50.2624 267.229 103.234 0 
55.0684 265.489 104.048 0 
56.614 266.132 103.558 0 
55.0731 266.227 103.57 0 
47.8184 267.907 102.893 0 
49.5243 267.241 103.213 0 
47.0058 266.348 103.89 0 
56.1173 266.728 103.183 0 
48.5432 267.672 102.989 0 
46.5666 263.321 105.776 0 
56.0244 267.702 102.577 0 
54.4084 265.896 103.767 0 
55.6174 272.238 99.7501 0 
46.3095 261.355 106.952 0 
52.228 273.908 98.8801 0 
57.6514 266.301 103.297 0 
49.1118 278.288 96.3085 0 
53.5337 260.542 107.029 0 
54.5556 262.023 106.057 0 
46.749 264.288 105.052 0 
56.6937 269.359 101.382 0 
56.6006 270.301 100.778 0 
52.6346 266.888 103.081 0 
53.5744 273.081 99.2002 0 
54.5614 263.509 105.068 0 
53.8682 259.76 107.42 0 
53.1555 258.334 108.334 0 
50.2677 277.004 96.9347 0 
56.5744 267.213 102.649 0 
49.2248 267.883 102.606 0 
56.4695 268.183 102.044 0 
51.8897 274.695 98.2401 0 
52.0415 255.898 109.854 0 
56.5177 271.193 100.161 0 
53.6278 265.373 103.906 0 
55.1292 272.735 99.2607 0 
52.3419 256.723 109.283 0 
46.7964 264.91 104.503 0 
55.1194 262.859 105.337 0 
51.5998 275.303 97.8135 0 
52.6142 257.36 108.839 0 
47.92 267.128 103.034 0 
51.0421 276.202 97.2561 0 
56.2934 272.051 99.5467 0 
51.019 266.817 103.048 0 
57.0453 267.728 102.156 0 
46.1765 259.873 107.563 0 
48.7955 266.881 103.087 0 
47.4681 266.6 103.317 0 
53.6126 261.889 105.887 0 
53.1113 265.885 103.44 0 
53.8333 263.744 104.684 0 
54.1639 264.311 104.291 0 
47.2082 265.565 103.868 0 
46.7239 262.344 105.881 0 
54.0941 262.421 105.437 0 
53.2618 261.21 106.218 0 
51.0395 253.903 110.845 0 
50.0032 277.623 96.2078 0 
51.4151 254.661 110.331 0 
52.8067 273.63 98.5213 0 
54.6395 273.132 98.7193 0 
56.946 271.547 99.545 0 
57.3148 269.95 100.501 0 
53.5802 262.929 105.012 0 
56.111 272.776 98.7906 0 
48.2148 266.353 103.14 0 
52.7249 265.212 103.609 0 
51.6569 266.362 102.942 0 
49.5294 266.193 103.155 0 
57.1637 270.856 99.8559 0 
46.5447 261.358 106.262 0 
53.077 264.414 104.035 0 
55.6672 273.371 98.3559 0 
53.4347 258.98 107.357 0 
47.432 264.809 104.05 0 
53.0759 260.419 106.434 0 
53.6611 273.396 98.3705 0 
46.8618 263.341 104.927 0 
46.8303 259.314 107.416 0 
52.619 258.869 107.382 0 
53.0392 262.203 105.291 0 
57.1097 268.322 101.297 0 
52.2883 274.958 97.3922 0 
52.8351 261.59 105.623 0 
46.1689 258.863 107.648 0 
52.704 259.767 106.741 0 
50.2735 265.819 103.109 0 
48.7894 265.866 103.156 0 
57.0957 272.259 98.7669 0 
52.537 274.225 97.7778 0 
51.6265 275.815 96.8233 0 
57.6248 271.308 99.2983 0 
52.0765 259.384 106.951 0 
51.0753 276.721 96.2652 0 
51.0209 265.779 103.027 0 
48.113 265.569 103.303 0 
52.1295 265.501 103.118 0 
52.7173 263.747 104.148 0 
52.7052 257.794 107.819 0 
52.0041 264.521 103.695 0 
49.6284 278.276 95.3082 0 
56.5144 273.053 98.1495 0 
51.6243 255.354 109.339 0 
47.1375 263.835 104.321 0 
51.835 256.209 108.763 0 
52.1452 256.84 108.335 0 
55.1073 273.697 97.745 0 
54.1227 273.725 97.7777 0 
46.6846 260.337 106.376 0 
52.7019 260.787 105.784 0 
57.9789 270.19 99.675 0 
48.0309 264.786 103.492 0 
55.9842 273.541 97.6618 0 
47.2096 262.713 104.781 0 
49.531 265.155 103.137 0 
58.3335 271.034 99.0466 0 
52.0462 263.437 104.055 0 
51.5319 258.531 107.102 0 
50.7774 277.455 95.4131 0 
50.6007 252.867 110.62 0 
51.676 264.93 103.104 0 
50.5846 264.848 103.208 0 
52.2154 262.269 104.713 0 
47.1003 261.367 105.501 0 
53.1955 273.964 97.3957 0 
46.2403 256.777 108.367 0 
48.7828 264.853 103.23 0 
50.1659 250.823 111.817 0 
52.1143 257.865 107.354 0 
52.5197 259.965 106.02 0 
51.8238 257.191 107.763 0 
49.7185 278.931 94.3967 0 
57.6091 272.779 97.7934 0 
57.6644 271.864 98.3541 0 
52.8595 274.556 96.9342 0 
51.6176 259.364 106.378 0 
52.258 261.233 105.189 0 
51.6671 276.356 95.8445 0 
51.7122 262.776 104.183 0 
52.2 275.387 96.354 0 
45.901 255.85 108.746 0 
48.1007 264.003 103.589 0 
47.7217 263.359 103.99 0 
47.2908 261.932 104.894 0 
50.5185 278.119 94.7152 0 
50.886 253.517 109.854 0 
50.1359 260.859 105.351 0 
51.2433 276.891 95.3712 0 
51.1968 254.31 109.331 0 
57.1069 273.264 97.2866 0 
53.638 274.247 96.7944 0 
55.6812 273.939 96.8765 0 
49.7716 251.176 111.24 0 
51.5511 261.945 104.489 0 
51.5121 263.473 103.542 0 
50.167 251.817 110.813 0 
46.3875 258.307 106.973 0 
46.9564 260.344 105.675 0 
51.1441 261.343 104.837 0 
54.6496 273.915 96.8728 0 
51.5853 256.383 107.859 0 
46.5958 259.311 106.284 0 
49.5298 264.126 103.151 0 
51.7359 260.734 105.129 0 
48.7764 263.84 103.301 0 
56.5989 273.73 96.7749 0 
50.5445 263.843 103.146 0 
51.1299 264.341 102.787 0 
46.1945 257.324 107.361 0 
56.1459 274.298 96.3171 0 
51.2155 258.405 106.379 0 
49.6814 263.349 103.4 0 
51.1008 262.4 103.913 0 
51.1963 255.293 108.293 0 
50.8688 278.515 93.947 0 
51.1327 277.827 94.3285 0 
50.7291 279.381 93.3681 0 
51.624 259.872 105.385 0 
47.7468 261.921 104.313 0 
51.1586 257.2 107.018 0 
50.3211 252.711 109.812 0 
57.711 272.945 96.8998 0 
50.4996 263.121 103.34 0 
47.6665 261.136 104.684 0 
52.0965 275.815 95.3246 0 
51.1049 260.411 104.852 0 
47.4285 260.317 105.095 0 
47.0502 259.318 105.718 0 
55.1247 274.485 95.8998 0 
51.7752 276.412 94.8767 0 
50.5633 255.447 107.893 0 
50.5906 261.552 104.113 0 
48.2393 262.262 103.792 0 
46.1612 255.836 107.839 0 
49.3477 250.245 111.113 0 
48.7709 262.823 103.363 0 
50.6726 253.806 108.794 0 
54.1363 274.395 95.8633 0 
50.9982 255.958 107.42 0 
49.6562 251.329 110.339 0 
52.6478 275.34 95.3356 0 
49.9893 255.01 107.992 0 
50.9616 259.489 105.165 0 
58.0904 273.246 96.2803 0 
53.071 274.587 95.6993 0 
50.0083 251.965 109.834 0 
46.8387 258.354 106.024 0 
50.5044 257.991 106.054 0 
50.4581 257.098 106.574 0 
50.011 262.43 103.288 0 
50.6749 256.493 106.909 0 
50.4687 280.201 92.2554 0 
56.1313 274.766 95.3071 0 
47.4672 259.583 105.139 0 
50.2373 254.244 108.216 0 
50.6419 258.846 105.349 0 
51.6792 277.357 93.8448 0 
48.2242 261.275 103.962 0 
51.4106 278.223 93.2522 0 
49.9521 252.477 109.186 0 
51.1297 278.829 92.8278 0 
49.9455 257.516 106.059 0 
46.6489 257.339 106.336 0 
49.2752 262.09 103.239 0 
48.1657 260.344 104.372 0 
50.6016 252.877 108.817 0 
52.3862 276.008 94.4112 0 
53.2395 275.069 94.9368 0 
57.5838 274.192 95.2488 0 
49.9003 256.506 106.572 0 
47.5005 258.835 105.207 0 
55.1386 274.911 94.8656 0 
50.2118 260.841 103.802 0 
48.7607 261.477 103.477 0 
48.7006 248.809 111.268 0 
50.2355 259.254 104.722 0 
57.1192 274.721 94.7714 0 
49.7572 261.424 103.368 0 
49.5639 257.976 105.503 0 
54.1493 274.814 94.8224 0 
45.8333 255.837 106.976 0 
50.0187 258.522 105.096 0 
47.9754 259.313 104.63 0 
49.8365 255.739 106.693 0 
49.9392 259.892 104.092 0 
49.2018 257.263 105.728 0 
53.0025 275.552 94.2055 0 
49.4194 255.044 107.061 0 
56.6288 275.152 94.2362 0 
48.6663 259.364 104.403 0 
46.3271 256.289 106.423 0 
47.2044 257.857 105.403 0 
50.0085 253.467 107.962 0 
51.2245 279.387 91.862 0 
46.2341 254.774 107.331 0 
48.7448 260.492 103.656 0 
55.632 275.132 94.2396 0 
54.6906 275.138 94.2746 0 
52.167 276.852 93.3423 0 
51.8968 277.49 92.9287 0 
49.2626 256.242 106.199 0 
49.7002 252.796 108.291 0 
50.8942 280.198 91.2811 0 
49.4936 260.448 103.557 0 
51.7079 278.368 92.3512 0 
57.7158 274.509 94.4205 0 
49.1654 259.845 103.904 0 
45.9216 253.519 107.939 0 
49.4074 258.642 104.525 0 
50.4669 280.729 90.8062 0 
57.645 275.276 93.803 0 
48.1458 248.34 110.836 0 
48.1712 258.336 104.556 0 
53.6381 275.246 93.8044 0 
49.1965 255.323 106.304 0 
48.9064 257.989 104.611 0 
46.1795 255.339 106.358 0 
55.6326 275.487 93.3636 0 
49.9984 254.866 106.403 0 
48.8998 254.632 106.604 0 
46.8906 256.392 105.619 0 
56.6426 275.609 93.199 0 
54.629 275.422 93.3622 0 
52.937 275.677 93.2682 0 
49.7391 259.324 103.537 0 
51.7027 278.869 91.3491 0 
45.7354 254.272 106.845 0 
51.3926 279.741 90.8015 0 
52.6334 276.332 92.8312 0 
48.7649 255.783 105.707 0 
47.3633 256.885 105.092 0 
45.1574 249.307 109.874 0 
52.3344 276.963 92.396 0 
50.05 252.911 107.379 0 
52.1705 277.852 91.8397 0 
51.2084 280.365 90.3349 0 
47.9569 257.381 104.683 0 
48.6386 257.025 104.847 0 
55.188 275.75 92.7967 0 
46.3262 251.266 108.378 0 
55.6728 276.264 92.3075 0 
54.121 275.63 92.7477 0 
48.624 256.036 105.011 0 
49.4606 252.006 107.455 0 
56.6059 276.081 92.1725 0 
47.1101 255.485 105.392 0 
46.6234 254.836 105.808 0 
47.9899 256.356 104.672 0 
53.5311 276.002 92.1926 0 
47.6424 250.349 108.354 0 
45.9376 253.367 106.568 0 
49.2752 258.755 102.966 0 
51.4481 279.802 89.8367 0 
52.575 277.295 91.3214 0 
47.7015 247.778 109.824 0 
52.8429 276.38 91.844 0 
52.3217 277.912 90.8584 0 
52.0553 278.784 90.3079 0 
56.6058 276.537 91.438 0 
54.6061 275.954 91.8858 0 
47.473 255.845 104.662 0 
44.7666 247.095 110.205 0 
55.6106 276.498 91.3986 0 
49.3388 252.228 106.719 0 
49.8124 254.077 105.516 0 
47.0005 249.994 108.169 0 
45.8843 250.636 107.805 0 
47.26 247.204 109.815 0 
45.1365 247.916 109.407 0 
53.6635 276.379 91.352 0 
48.8897 252.953 106.01 0 
57.1482 276.821 90.8257 0 
48.8931 251.433 106.944 0 
56.1461 276.841 90.8356 0 
47.9233 255.247 104.57 0 
45.6272 245.787 110.503 0 
44.0366 245.1 110.983 0 
47.4022 254.654 104.882 0 
48.6401 254.611 104.83 0 
45.6397 246.407 110.022 0 
47.1466 248.36 108.721 0 
49.6425 254.345 104.839 0 
55.1209 276.414 90.8653 0 
52.9746 276.682 90.7937 0 
51.2907 279.931 88.8371 0 
48.6295 251.842 106.342 0 
52.6565 277.342 90.3352 0 
46.1433 251.852 106.372 0 
51.7868 278.912 89.3341 0 
48.8282 249.237 107.832 0 
48.6676 253.3 105.315 0 
52.4478 277.931 89.8656 0 
45.112 252.391 106.02 0 
45.1975 250.278 107.315 0 
48.8876 249.926 107.34 0 
48.6018 248.375 108.313 0 
54.1605 276.18 90.7798 0 
45.5657 248.979 108.019 0 
56.6056 277.423 89.8615 0 
45.6442 248.361 108.393 0 
49.17 253.786 104.802 0 
48.346 252.3 105.723 0 
45.1719 245.47 110.035 0 
53.5646 276.663 90.2783 0 
48.3116 254.808 104.043 0 
46.6517 247.34 108.67 0 
55.5873 276.976 89.8751 0 
48.531 250.86 106.382 0 
51.7282 279.396 88.342 0 
48.3257 251.321 105.755 0 
50.9257 280.163 87.7746 0 
52.126 278.327 88.8343 0 
54.138 276.434 89.8625 0 
48.6836 253.447 104.342 0 
50.5981 280.81 87.3222 0 
48.1921 247.805 107.842 0 
44.77 248.232 107.745 0 
48.651 249.338 106.835 0 
49.476 253.934 103.92 0 
46.0987 244.919 109.644 0 
52.9917 276.962 89.4234 0 
56.0653 277.531 88.8964 0 
48.0606 246.882 108.241 0 
54.6719 276.764 89.3133 0 
44.5657 244.534 109.745 0 
53.6406 276.583 89.2388 0 
46.6183 243.854 109.811 0 
49.4453 252.675 104.099 0 
51.4688 279.674 87.2792 0 
47.8854 245.735 108.43 0 
52.5896 277.794 88.3294 0 
51.1179 280.331 86.8339 0 
48.2957 247.274 107.339 0 
48.5145 247.894 106.848 0 
55.1867 277.262 88.3147 0 
48.5787 250.31 105.32 0 
51.813 278.963 87.3638 0 
55.6996 277.724 87.8127 0 
43.9974 244.08 109.195 0 
54.1421 276.856 88.34 0 
53.1245 277.053 88.2296 0 
49.0828 252.862 103.358 0 
52.3835 278.113 87.2783 0 
48.5656 248.352 105.842 0 
51.2947 280.374 85.8482 0 
55.0712 277.478 87.3471 0 
48.3226 247.27 106.319 0 
47.9139 246.436 106.826 0 
47.5393 244.892 107.794 0 
52.8249 277.475 87.3599 0 
48.7258 251.795 103.316 0 
48.0406 245.374 107.312 0 
54.1747 277.209 87.3072 0 
49.5206 251.76 103.255 0 
44.0702 242.34 109.342 0 
44.2248 243.693 108.427 0 
43.296 242.917 108.948 0 
48.9226 249.859 104.346 0 
52.0485 278.755 86.3161 0 
50.9556 279.731 85.7512 0 
51.7517 280.261 85.2832 0 
48.7146 248.831 104.834 0 
55.5524 277.986 86.3449 0 
51.4462 280.769 84.815 0 
53.6339 277.244 86.8094 0 
45.7417 243.276 108.209 0 
51.452 279.127 85.7392 0 
45.1488 243.742 107.927 0 
47.4351 244.198 107.41 0 
45.1304 241.356 109.283 0 
48.0816 245.861 106.335 0 
43.7565 239.791 110.277 0 
53.0913 277.754 86.306 0 
54.6352 277.426 86.3439 0 
43.9289 242.449 108.517 0 
47.9388 244.686 106.924 0 
48.5409 247.843 104.845 0 
46.7472 242.275 108.364 0 
50.8403 281.478 83.9116 0 
52.5505 278.238 85.817 0 
48.0594 246.875 105.343 0 
46.6799 242.82 107.849 0 
53.6236 277.722 85.8082 0 
47.1784 243.325 107.343 0 
51.5866 279.348 84.839 0 
51.3098 280.918 83.8765 0 
54.6706 277.737 85.3287 0 
50.8448 281.967 82.9078 0 
47.6993 244.314 106.341 0 
44.3964 241.903 108 0 
48.0232 245.878 105.346 0 
52.0123 278.752 84.8008 0 
53.0704 277.765 85.3295 0 
43.0244 238.885 109.885 0 
43.2878 239.783 109.274 0 
48.024 244.906 105.85 0 
46.4532 241.491 107.817 0 
43.9206 242.343 107.337 0 
47.7429 246.836 104.325 0 
51.7173 280.369 83.3518 0 
50.5069 282.211 82.2699 0 
54.1524 277.77 84.8186 0 
51.4553 281.211 82.7711 0 
43.7945 238.767 109.362 0 
47.3893 243.25 106.362 0 
51.8994 279.283 83.7934 0 
52.6309 278.328 84.33 0 
47.0469 242.392 106.82 0 
44.6311 240.841 107.864 0 
53.5866 278.198 84.2735 0 
54.528 278.544 83.9979 0 
44.1485 239.793 108.489 0 
44.0901 240.332 107.966 0 
47.6129 245.838 104.334 0 
47.3368 244.007 105.381 0 
42.3981 237.902 109.385 0 
55.1093 278.888 83.3853 0 
47.6857 244.823 104.829 0 
52.3942 279.178 83.2748 0 
51.156 282.344 81.3379 0 
52.1182 279.827 82.8296 0 
51.8829 280.713 82.2729 0 
51.6518 281.341 81.836 0 
43.9484 238.484 108.682 0 
42.599 238.342 108.838 0 
46.8516 241.727 106.403 0 
44.6307 238.889 108.126 0 
54.5089 278.609 83.0471 0 
46.1466 240.84 106.832 0 
47.1973 242.324 105.841 0 
45.6606 238.811 107.977 0 
45.7183 240.229 107.086 0 
47.4806 242.891 105.3 0 
52.9178 278.686 82.781 0 
47.4205 244.868 103.889 0 
52.5728 279.292 82.318 0 
52.3728 279.946 81.8667 0 
53.662 278.308 82.8015 0 
52.0013 280.799 81.3183 0 
51.6983 282.354 80.3347 0 
51.819 281.381 80.8451 0 
47.2575 243.796 104.294 0 
45.114 237.853 107.704 0 
46.212 239.788 106.442 0 
45.657 238.333 107.363 0 
53.0625 278.727 81.7954 0 
47.0308 241.875 104.827 0 
50.5524 282.736 79.3189 0 
42.5972 236.374 108.34 0 
54.2392 279.169 81.2691 0 
52.0184 280.814 80.3284 0 
46.7571 240.795 105.338 0 
52.3082 279.889 80.8489 0 
47.0367 243.87 103.38 0 
51.4572 282.262 79.3403 0 
45.6897 238.817 106.381 0 
51.2077 282.872 78.832 0 
43.1295 239.843 105.83 0 
45.1466 240.35 105.346 0 
44.6299 239.374 105.883 0 
46.5519 239.907 105.331 0 
53.6122 278.888 80.8623 0 
41.7262 235.354 108.384 0 
44.8335 237.049 107.131 0 
51.8443 281.411 79.3369 0 
42.6489 238.339 106.336 0 
45.473 237.431 106.735 0 
42.27 235.755 107.812 0 
44.5792 236.389 107.289 0 
42.9805 238.875 105.799 0 
46.1302 238.347 105.82 0 
43.2734 237.165 106.657 0 
43.2226 236.247 107.143 0 
41.8473 234.283 108.384 0 
43.5453 239.887 104.784 0 
52.744 279.387 79.8679 0 
52.5329 280.268 79.2892 0 
42.5624 237.362 106.322 0 
46.8471 239.968 104.456 0 
44.1715 238.253 105.589 0 
52.1125 280.83 78.8313 0 
46.7547 239.279 104.779 0 
51.1439 282.337 77.8349 0 
51.8388 281.444 78.3241 0 
50.6147 282.817 77.3339 0 
45.0432 236.398 106.25 0 
42.771 237.81 105.394 0 
53.119 279.215 79.2114 0 
41.6836 233.823 107.839 0 
41.9594 235.411 106.832 0 
53.0163 279.842 78.7799 0 
45.8805 237.252 105.452 0 
43.8958 239.722 103.962 0 
41.76 232.846 108.32 0 
52.6904 280.355 78.351 0 
43.6407 237.349 105.377 0 
42.3904 236.717 105.828 0 
46.2934 238.796 104.291 0 
52.2344 280.912 77.8459 0 
41.0407 230.824 109.392 0 
41.4494 234.826 106.789 0 
51.7797 281.437 77.3449 0 
42.0346 235.876 105.834 0 
45.3834 236.538 105.234 0 
46.1368 237.84 104.336 0 
41.4155 233.385 107.314 0 
45.8855 237.006 104.75 0 
41.5367 232.319 107.87 0 
43.1478 237.839 104.336 0 
41.0238 229.809 109.393 0 
45.2748 235.765 105.395 0 
50.3676 283.053 75.8787 0 
45.9582 238.866 103.387 0 
42.7201 236.317 104.877 0 
41.8106 234.78 105.87 0 
51.5195 281.728 76.3185 0 
41.6184 233.847 106.331 0 
42.1991 235.329 105.346 0 
52.6847 279.779 77.3162 0 
52.3208 280.508 76.8774 0 
44.5077 234.417 105.77 0 
41.2055 232.842 106.841 0 
43.6522 234.847 105.398 0 
45.0613 234.887 105.295 0 
45.616 236.349 104.332 0 
51.9204 281.112 76.3208 0 
50.8992 282.563 75.3951 0 
42.6535 228.783 109.06 0 
45.5115 235.414 104.799 0 
41.7224 228.353 109.355 0 
45.8087 237.806 103.287 0 
42.2273 230.873 107.674 0 
40.762 229.826 108.29 0 
41.4587 231.331 107.315 0 
41.1376 228.835 108.84 0 
44.0872 233.385 105.779 0 
41.4482 233.366 105.796 0 
53.1473 280.841 75.8361 0 
44.6104 233.858 105.303 0 
52.2418 280.587 75.8782 0 
43.1626 234.781 104.621 0 
51.4199 282.108 74.8787 0 
51.6347 281.329 75.334 0 
50.3001 282.982 74.34 0 
41.2947 227.882 108.728 0 
49.4944 283.662 73.8141 0 
43.9554 232.534 105.71 0 
45.2944 236.281 103.285 0 
42.1537 234.836 104.338 0 
45.4173 236.888 102.898 0 
42.1241 229.836 107.403 0 
41.2825 230.819 106.809 0 
43.2206 229.322 107.601 0 
41.2806 232.33 105.835 0 
44.4657 232.984 105.224 0 
41.7023 233.813 104.853 0 
45.1159 234.357 104.331 0 
45.383 234.958 103.854 0 
40.6866 228.849 107.804 0 
41.386 232.886 105.228 0 
53.1205 280.966 74.8836 0 
44.9315 233.451 104.671 0 
41.3389 226.91 108.706 0 
50.9689 282.233 73.8377 0 
41.0117 227.82 107.914 0 
43.9356 231.982 105.176 0 
50.6256 282.821 73.3339 0 
41.1646 230.829 105.832 0 
45.0911 234.355 103.341 0 
41.0418 231.362 105.338 0 
41.6641 232.835 104.344 0 
42.263 234.274 103.381 0 
40.1922 228.85 106.8 0 
42.6248 228.245 107.039 0 
42.073 225.749 108.592 0 
41.442 231.968 104.754 0 
42.0125 233.371 103.769 0 
41.6575 228.351 106.809 0 
51.4112 281.658 73.3382 0 
40.366 227.846 107.119 0 
44.3277 231.758 104.423 0 
41.094 228.823 106.379 0 
42.642 225.31 108.439 0 
41.1457 226.339 107.837 0 
40.9069 229.79 105.7 0 
44.7948 233.287 103.324 0 
44.7534 232.294 103.856 0 
40.935 230.777 104.814 0 
41.8584 232.44 103.678 0 
41.2819 231.302 104.374 0 
50.9908 282.124 72.3874 0 
41.5657 225.292 108.014 0 
40.3369 226.805 107.141 0 
43.9121 230.741 104.5 0 
42.0213 228.99 105.62 0 
39.7429 227.337 106.722 0 
42.6898 229.286 105.231 0 
40.7271 229.838 104.849 0 
44.427 231.603 103.496 0 
40.777 225.85 107.208 0 
41.517 228.371 105.553 0 
44.7517 233.315 102.319 0 
42.1044 226.781 106.475 0 
43.1424 223.844 108.215 0 
44.543 232.379 102.854 0 
42.1235 224.302 107.962 0 
51.5603 283.353 70.8813 0 
39.7557 226.31 106.719 0 
52.629 282.369 71.3422 0 
40.4974 228.828 105.045 0 
44.2771 230.853 103.476 0 
41.2376 224.86 107.225 0 
40.7215 227.833 105.225 0 
51.6939 281.74 71.3075 0 
42.1763 225.858 106.298 0 
44.3142 231.248 102.827 0 
40.3001 225.349 106.676 0 
51.1757 282.371 70.8257 0 
44.2114 231.805 102.324 0 
43.1667 225.867 106.037 0 
41.1767 230.339 103.34 0 
41.6996 226.363 105.771 0 
43.6179 228.353 104.336 0 
51.0695 283.373 69.892 0 
43.9417 228.896 103.858 0 
41.5856 223.319 107.426 0 
42.2478 222.904 107.613 0 
43.3977 227.552 104.657 0 
40.7295 226.872 105.214 0 
40.7077 224.348 106.734 0 
43.8038 230.254 102.819 0 
40.225 227.36 104.732 0 
50.7864 282.26 70.2238 0 
39.6776 224.838 106.267 0 
51.6624 281.858 70.3302 0 
42.8768 227.003 104.691 0 
42.6469 225.31 105.666 0 
41.1043 225.817 105.394 0 
40.5054 228.366 103.835 0 
43.965 229.37 102.854 0 
50.2834 281.654 70.1894 0 
40.7352 223.373 106.7 0 
40.1477 223.839 106.333 0 
50.6751 282.811 69.3009 0 
43.7989 228.291 103.327 0 
40.0571 226.444 104.568 0 
50.37 282.125 69.5753 0 
41.1719 222.355 106.783 0 
43.5125 226.917 103.822 0 
42.0893 221.788 107.009 0 
40.1336 222.834 106.355 0 
40.2166 225.352 104.716 0 
50.6946 283.316 68.3029 0 
39.58 223.325 105.939 0 
39.6315 225.85 104.373 0 
43.8161 228.797 102.299 0 
43.944 229.4 101.878 0 
42.6702 223.817 105.373 0 
43.7645 227.782 102.806 0 
50.3734 282.504 68.5195 0 
42.3916 225.68 104.03 0 
41.1193 224.326 104.898 0 
49.5871 282.44 68.4404 0 
40.6261 221.827 106.374 0 
48.6453 283.335 67.8326 0 
41.6825 223.369 105.26 0 
43.263 226.278 103.364 0 
43.4102 226.966 102.896 0 
41.6819 220.852 106.704 0 
49.4292 283.036 67.6854 0 
42.5343 223.031 105.103 0 
43.4712 227.899 101.886 0 
39.719 224.347 104.221 0 
39.6936 221.856 105.762 0 
42.7814 225.265 103.396 0 
49.183 283.824 66.7913 0 
40.5666 223.329 104.513 0 
41.186 222.86 104.752 0 
41.6002 219.793 106.486 0 
40.7265 220.401 106.1 0 
50.0914 283.218 66.7649 0 
48.5999 284.794 65.8278 0 
39.6722 220.828 105.769 0 
39.7166 223.34 104.212 0 
43.1612 226.832 101.832 0 
42.5627 222.385 104.585 0 
43.0036 225.897 102.334 0 
41.6464 221.839 104.835 0 
48.8606 283.856 65.9769 0 
42.1757 223.835 103.357 0 
42.4394 224.434 102.8 0 
40.1673 219.867 105.74 0 
42.9258 224.917 102.388 0 
39.1634 222.843 103.804 0 
40.2062 218.88 105.651 0 
41.144 220.834 104.348 0 
42.8666 225.439 101.384 0 
38.5898 222.343 103.491 0 
39.2119 221.845 103.711 0 
42.1859 222.831 102.849 0 
42.5979 224.363 101.845 0 
42.6851 223.32 102.332 0 
39.6607 220.842 103.805 0 
41.6885 221.786 102.858 0 
41.6561 219.786 104.077 0 
40.128 219.838 103.923 0 
38.6415 220.841 103.346 0 
42.2688 223.79 101.312 0 
42.333 222.802 101.81 0 
38.997 219.882 103.6 0 
39.1447 216.835 105.361 0 
40.1493 216.855 105.262 0 
41.6483 218.836 103.911 0 
40.6441 218.832 103.894 0 
38.0589 220.363 103.042 0 
41.8808 220.993 102.414 0 
39.6432 218.837 103.855 0 
42.0981 222.845 100.845 0 
40.1451 215.877 105.239 0 
41.9972 221.869 101.374 0 
38.2994 219.36 103.091 0 
39.1577 215.894 105.164 0 
39.0546 218.356 103.522 0 
39.6644 217.857 103.744 0 
40.6537 217.878 103.607 0 
41.7023 217.797 103.501 0 
41.6015 220.364 101.84 0 
38.1873 215.837 104.789 0 
41.1476 217.352 103.683 0 
37.6537 218.836 102.82 0 
38.3246 218.257 103.061 0 
39.1306 217.33 103.41 0 
41.83 221.295 100.801 0 
38.6433 214.837 104.845 0 
37.548 217.913 102.973 0 
40.6424 216.786 103.482 0 
38.0682 217.345 102.958 0 
41.6404 220.341 100.836 0 
39.6665 216.4 103.124 0 
37.687 214.335 104.302 0 
41.3848 217.889 101.867 0 
41.4538 218.771 101.271 0 
41.4828 219.382 100.852 0 
37.5436 216.865 102.533 0 
38.64 213.854 104.257 0 
39.1526 215.814 103 0 
37.6457 215.841 102.843 0 
37.6429 212.827 104.394 0 
38.1657 215.329 102.739 0 
38.6376 212.884 104.174 0 
41.297 218.797 100.329 0 
40.9583 216.4 101.758 0 
41.1611 214.788 102.433 0 
41.3042 217.294 100.847 0 
40.1142 214.411 102.653 0 
40.9757 217.89 100.335 0 
37.7322 213.842 102.666 0 
40.8214 215.713 101.347 0 
37.1807 214.328 102.257 0 
37.1403 211.336 103.855 0 
39.1511 213.341 102.422 0 
38.1466 212.822 102.516 0 
40.2794 216.244 100.275 0 
40.666 216.824 99.8235 0 
37.1274 212.828 102.374 0 
37.1795 210.351 103.743 0 
38.6474 211.836 102.364 0 
40.5149 214.9 100.353 0 
40.1288 217.354 98.8403 0 
39.0546 215.854 99.7854 0 
40.1238 216.358 99.3508 0 
40.6943 215.725 99.6881 0 
40.5185 213.429 100.835 0 
37.653 208.845 103.763 0 
36.6718 208.843 103.733 0 
36.6186 211.839 101.876 0 
37.997 214.354 100.233 0 
38.5371 214.844 99.7685 0 
37.6586 207.854 103.716 0 
40.2105 212.805 100.335 0 
35.8041 209.193 102.708 0 
38.4096 213.867 99.6667 0 
36.5959 207.823 103.439 0 
36.3295 210.738 101.604 0 
35.8605 208.33 103.103 0 
39.1444 214.84 98.8339 0 
40.102 213.781 99.2542 0 
39.8951 210.935 100.841 0 
36.6747 206.849 103.275 0 
37.6383 208.831 101.987 0 
39.5478 215.363 97.7994 0 
40.0959 211.853 99.8356 0 
36.2685 209.293 101.613 0 
39.2012 213.313 98.8459 0 
36.6619 208.34 101.771 0 
36.6595 205.853 103.239 0 
39.5949 214.347 97.8122 0 
39.3231 211.836 99.3446 0 
36.2503 210.307 100.379 0 
39.805 210.827 99.8259 0 
39.2656 209.183 100.866 0 
39.6774 209.833 100.336 0 
35.9885 208.851 100.876 0 
36.115 205.274 103.044 0 
38.6457 212.339 98.3345 0 
38.9318 213.002 97.8639 0 
37.6934 207.272 101.459 0 
39.8644 208.62 100.498 0 
36.3601 209.758 99.9035 0 
38.6733 207.808 100.873 0 
39.2358 210.827 98.8388 0 
35.6981 207.82 100.795 0 
36.1551 204.287 102.945 0 
39.4046 208.904 99.8332 0 
39.1068 211.341 98.3273 0 
36.122 208.848 99.8287 0 
38.1648 206.816 100.866 0 
38.8504 212.281 97.4111 0 
39.0646 209.858 98.8303 0 
38.7738 207.259 100.372 0 
35.1859 206.808 100.756 0 
37.2129 206.24 100.925 0 
39.3168 208.277 99.3164 0 
39.27 210.314 97.8474 0 
35.6775 207.342 99.8348 0 
39.0264 211.868 96.7889 0 
36.4815 208.891 98.7548 0 
35.1978 205.8 100.598 0 
35.9891 207.864 99.2775 0 
39.0764 207.376 99.3312 0 
38.6934 208.813 98.3316 0 
38.4604 205.853 100.126 0 
38.6121 209.359 97.8355 0 
38.9356 206.359 99.6216 0 
35.2361 206.297 99.7681 0 
38.3531 204.939 100.126 0 
38.8281 205.43 99.6568 0 
35.6409 206.84 98.833 0 
38.2949 208.244 97.7993 0 
38.1401 208.844 97.3359 0 
38.3784 209.54 96.8763 0 
37.9599 207.558 97.9473 0 
38.8152 204.33 99.5629 0 
38.1425 203.841 99.8306 0 
37.2796 207.149 97.7809 0 
37.665 207.814 97.3173 0 
36.2303 204.244 99.2661 0 
38.8074 203.765 98.9611 0 
36.1457 203.34 99.337 0 
35.5893 203.931 98.9433 0 
38.3333 202.76 99.0277 0 
38.5914 202.865 98.3107 0 
37.1085 200.353 99.7727 0 
37.9907 201.907 98.7297 0 
37.8624 200.777 98.9656 0 
37.6145 199.848 99.3112 0 
35.1308 200.42 99.0851 0 
38.4799 201.381 98.1946 0 
36.753 199.275 99.4586 0 
34.1348 200.893 97.8757 0 
37.2065 198.813 98.883 0 
37.8109 199.261 98.406 0 
37.9455 199.926 97.7519 0 
36.7877 197.818 98.9852 0 
36.4885 196.907 99.184 0 
37.3268 197.812 98.4896 0 
37.3345 198.69 97.3555 0 
33.2149 198.813 97.3569 0 
37.1418 196.84 98.3311 0 
36.2159 195.81 98.9236 0 
33.6368 199.343 96.83 0 
37.5035 197.364 97.7673 0 
36.8276 195.782 98.4922 0 
36.4697 194.917 98.5838 0 
37.2121 195.817 97.8763 0 
35.9419 193.398 98.6271 0 
36.5773 193.855 98.2815 0 
37.1039 195.355 97.3196 0 
36.9578 194.369 97.755 0 
32.7245 196.316 96.3578 0 
35.8756 192.451 98.5578 0 
37.1492 194.339 96.8357 0 
36.2901 192.295 97.9295 0 
35.5289 190.873 98.7282 0 
36.7794 192.799 97.409 0 
35.9656 191.396 98.1855 0 
37.0772 193.354 96.8043 0 
32.2481 194.807 95.8234 0 
32.084 193.867 96.3446 0 
36.5398 191.867 97.2684 0 
33.192 189.823 98.6531 0 
36.9039 192.395 96.729 0 
35.0011 189.401 98.6057 0 
35.5363 189.865 98.2257 0 
36.2464 190.814 97.3961 0 
31.9608 191.36 97.0806 0 
32.1548 193.836 95.3347 0 
36.1341 189.842 97.3284 0 
36.7508 191.32 96.3802 0 
33.1424 188.345 98.3636 0 
34.8656 187.918 98.4818 0 
32.12 192.353 95.835 0 
37.0062 191.881 95.8005 0 
36.378 190.428 96.7205 0 
33.1324 186.887 99.0373 0 
31.9958 192.92 95.3353 0 
35.3566 188.285 97.9529 0 
31.8083 190.333 96.6905 0 
35.7943 188.795 97.4083 0 
34.1136 185.85 99.2952 0 
33.1721 185.834 99.2694 0 
31.3463 190.833 96.1613 0 
31.6895 191.826 95.3466 0 
34.5766 186.857 98.2473 0 
35.2246 187.319 97.8802 0 
31.9904 192.385 94.796 0 
33.6652 184.831 99.3613 0 
35.6446 187.84 97.3341 0 
36.2594 189.308 96.3627 0 
35.9441 188.396 96.7847 0 
34.4684 185.389 98.6351 0 
31.4177 190.933 95.2623 0 
36.6089 190.352 95.3276 0 
35.0327 186.366 97.7557 0 
31.2947 189.286 96.0191 0 
35.449 186.896 97.2679 0 
31.642 188.338 96.3375 0 
31.3771 189.86 95.3791 0 
34.8427 185.306 97.9661 0 
31.7469 191.306 94.3672 0 
36.4027 189.43 95.2801 0 
34.147 183.839 98.8356 0 
32.1889 191.818 93.8592 0 
34.5932 184.352 98.29 0 
35.7406 187.313 96.3583 0 
32.7706 192.272 93.4135 0 
31.1497 188.839 95.3339 0 
36.1568 188.335 95.3369 0 
31.5115 190.369 94.3101 0 
31.3661 186.446 96.7368 0 
35.3261 185.792 96.92 0 
31.3255 187.836 95.728 0 
35.5871 186.356 96.3211 0 
32.4024 191.477 93.2131 0 
34.0697 182.874 98.2706 0 
34.919 184.398 97.2723 0 
35.9176 187.416 95.295 0 
31.3077 189.323 94.3412 0 
34.5363 183.379 97.7636 0 
31.273 186.849 95.7773 0 
31.7864 190.304 93.3819 0 
36.3698 188.27 94.3761 0 
32.2108 190.812 92.8639 0 
35.1902 184.824 96.3429 0 
31.1659 188.337 94.3349 0 
35.6567 186.336 95.336 0 
33.8715 182.191 97.9769 0 
31.1863 185.846 95.8156 0 
35.4357 185.412 95.8187 0 
31.1125 187.339 94.8423 0 
34.217 182.79 97.3788 0 
31.4121 184.86 96.1064 0 
31.4603 189.375 93.2958 0 
34.5707 183.378 96.8123 0 
31.9165 189.9 92.7389 0 
31.0238 186.344 94.8768 0 
35.8424 186.766 94.3551 0 
36.0029 187.388 93.8186 0 
33.9008 182.126 97.1273 0 
35.3022 184.786 95.3442 0 
31.2539 188.328 93.3522 0 
34.9933 183.888 95.8196 0 
35.4257 185.407 94.8099 0 
33.5788 181.438 97.2839 0 
32.2955 190.264 91.875 0 
30.9629 185.328 94.918 0 
32.6405 182.847 96.3596 0 
30.9588 186.856 93.8577 0 
31.1416 184.339 95.3378 0 
30.6678 185.837 94.3245 0 
34.0439 182.405 96.2603 0 
31.6127 182.345 96.4176 0 
31.1043 187.343 93.3348 0 
32.2182 181.806 96.6031 0 
35.6414 185.841 93.8345 0 
32.0478 180.879 96.9972 0 
35.2788 184.794 94.3471 0 
35.0022 183.889 94.8278 0 
30.7767 184.856 94.298 0 
34.6816 182.828 95.3387 0 
31.6261 181.342 96.3773 0 
31.1569 182.84 95.3301 0 
35.1695 186.335 92.8388 0 
30.5785 185.84 93.3482 0 
30.8387 183.35 94.7577 0 
30.8872 186.418 92.8372 0 
32.6313 180.279 96.4946 0 
33.459 181.512 95.6803 0 
34.1186 181.861 95.3188 0 
35.3317 184.963 93.3156 0 
35.0786 185.541 92.9553 0 
34.1564 185.816 92.8186 0 
35.0432 183.877 93.8232 0 
34.6808 186.279 92.3014 0 
30.4934 184.831 93.3801 0 
32.1136 179.762 96.4203 0 
34.7432 182.812 94.3418 0 
31.5168 180.3 96.013 0 
30.6752 183.84 93.8244 0 
33.1522 180.834 95.3411 0 
30.6999 185.825 92.339 0 
30.9122 181.872 94.7229 0 
34.6876 185.325 92.3092 0 
35.3067 184.278 92.8677 0 
31.0265 186.375 91.789 0 
34.4278 181.923 94.3388 0 
34.4261 184.696 92.5827 0 
30.5078 182.842 93.8848 0 
33.8843 180.977 94.7292 0 
31.2612 180.364 95.2307 0 
34.7501 182.802 93.3407 0 
30.4388 183.85 92.8881 0 
34.9787 183.404 92.8052 0 
30.4784 181.851 93.9202 0 
30.4306 184.363 92.3254 0 
31.1352 179.331 95.3451 0 
30.8652 185.766 91.3776 0 
34.3132 181.275 93.86 0 
31.3025 186.272 90.9209 0 
30.5022 184.87 91.8116 0 
33.3702 179.97 94.6618 0 
31.6923 179.859 94.8004 0 
34.4845 181.894 93.3244 0 
30.4129 182.841 92.9319 0 
30.9559 180.754 93.9503 0 
32.6347 178.306 95.3741 0 
30.2537 183.331 92.3163 0 
31.5438 178.7 94.9845 0 
33.6329 185.855 90.3642 0 
33.2239 179.29 94.3773 0 
31.6802 185.837 90.3821 0 
30.4529 184.279 91.3929 0 
34.703 182.319 92.3481 0 
30.3725 180.809 93.4841 0 
33.241 185.21 90.5758 0 
32.2259 186.32 89.9364 0 
33.7421 179.786 93.8844 0 
30.2852 181.81 92.7836 0 
30.7139 184.823 90.8614 0 
35.1894 182.825 91.8487 0 
34.0835 180.359 93.3226 0 
31.1396 185.341 90.3299 0 
31.8165 177.975 94.6839 0 
32.8965 178.543 94.1996 0 
31.1796 178.364 94.3054 0 
33.4407 178.932 93.7481 0 
30.5474 183.873 90.7969 0 
32.3282 185.777 89.441 0 
30.4716 180.278 92.9238 0 
30.2123 182.826 91.3364 0 
34.3219 180.79 92.3466 0 
30.25 181.833 91.8041 0 
30.7832 179.357 93.2612 0 
34.5348 181.382 91.8114 0 
30.0055 180.832 92.3816 0 
31.4305 184.98 89.7093 0 
31.7724 177.413 94.2191 0 
33.8377 179.252 92.9 0 
31.2359 177.897 93.748 0 
34.1426 179.84 92.3342 0 
30.4513 183.235 90.4059 0 
31.8862 184.975 89.1282 0 
30.7937 183.785 89.9084 0 
30.2493 179.872 92.2973 0 
31.2768 184.279 89.4352 0 
32.9992 177.919 93.2272 0 
30.0922 181.845 90.8392 0 
33.4479 178.447 92.7346 0 
32.3077 185.281 88.3874 0 
34.2461 180.304 91.3484 0 
30.4661 178.79 92.4463 0 
30.297 180.353 91.2726 0 
33.8535 178.75 91.873 0 
30.2064 182.319 89.8432 0 
34.0378 179.367 91.3234 0 
30.6353 182.845 89.3307 0 
31.1195 183.359 88.8195 0 
30.1378 179.338 91.3391 0 
29.9938 180.849 90.3698 0 
31.7681 183.751 88.4361 0 
33.6944 177.825 91.8464 0 
30.0338 181.361 89.8368 0 
34.2075 179.822 90.3431 0 
30.5225 177.351 91.9612 0 
29.9089 179.823 90.4343 0 
32.9003 176.011 92.5628 0 
29.9845 177.846 91.4752 0 
31.4082 183.027 88.1394 0 
29.8305 180.317 89.8167 0 
33.7978 178.307 90.8504 0 
30.4259 181.947 88.7286 0 
29.9597 180.877 89.2973 0 
33.9911 178.879 90.3169 0 
32.1808 183.828 87.3466 0 
30.9135 182.471 88.1697 0 
33.1427 176.341 91.833 0 
29.9835 178.821 90.4228 0 
30.0227 176.82 91.449 0 
29.7643 179.335 89.8056 0 
33.6156 177.345 90.8302 0 
29.58 177.328 90.8927 0 
30.2636 181.294 88.4022 0 
31.9354 182.901 87.2534 0 
31.3883 182.192 87.5598 0 
31.0284 175.647 91.5695 0 
29.8454 177.839 90.1695 0 
30.1904 175.86 91.2969 0 
29.7195 179.825 88.8386 0 
30.0048 180.389 88.3 0 
31.8667 182.217 87.0082 0 
33.6003 177.353 89.8266 0 
29.5864 178.332 89.3632 0 
30.8637 181.214 87.4836 0 
29.4036 176.239 90.5251 0 
29.565 178.842 88.8443 0 
31.2673 175.031 91.0825 0 
29.5724 177.316 89.3822 0 
30.3018 180.274 87.4315 0 
31.1102 180.858 86.8113 0 
29.7643 175.436 90.2273 0 
29.3274 177.84 88.7343 0 
31.5354 181.386 86.2918 0 
32.5886 175.5 89.5984 0 
29.8569 179.25 87.413 0 
30.5726 179.873 86.7835 0 
32.6423 175.972 88.9756 0 
29.2795 177.823 87.8051 0 
33.2801 174.376 89.6783 0 
29.1963 176.844 88.3064 0 
29.5966 178.361 87.3182 0 
31.707 173.418 90.2279 0 
31.317 180.268 85.9098 0 
29.3552 175.881 88.6965 0 
30.0502 178.89 86.7852 0 
31.0284 174.633 88.9776 0 
30.9643 179.427 85.7861 0 
32.4602 173.861 89.0933 0 
33.373 175.727 87.8835 0 
29.0199 176.858 87.3955 0 
29.8985 174.038 89.0377 0 
29.9128 178.217 86.4417 0 
33.0099 174.887 88.3135 0 
29.1719 175.844 87.8225 0 
30.419 178.695 85.9902 0 
29.4387 177.415 86.7734 0 
30.8187 178.763 85.387 0 
33.1466 176.839 86.335 0 
29.0534 176.355 86.8407 0 
29.2526 174.863 87.7493 0 
32.1626 172.837 88.8075 0 
31.1937 179.316 84.8495 0 
30.4987 174.167 88.0447 0 
30.2171 172.943 88.7011 0 
33.0966 174.863 87.3257 0 
28.965 175.345 87.1966 0 
30.6647 172.356 88.8062 0 
33.1134 175.84 86.3491 0 
31.6072 171.822 88.8951 0 
29.4 176.727 85.9532 0 
28.9063 174.029 87.6003 0 
29.8585 177.227 85.4539 0 
31.4694 177.669 85.0643 0 
30.0162 173.702 87.5191 0 
29.6944 172.404 88.2531 0 
30.5655 177.873 84.8109 0 
30.9905 171.691 88.4536 0 
32.9932 174.87 86.3807 0 
28.8383 175.307 86.2923 0 
29.256 172.938 87.7217 0 
32.4624 176.314 85.4274 0 
32.9248 173.874 86.865 0 
29.044 175.875 85.8054 0 
28.8318 174.368 86.6972 0 
28.709 173.394 87.3 0 
31.7847 170.889 88.6336 0 
29.5269 176.391 85.2466 0 
31.7022 176.794 84.8068 0 
32.6296 175.339 85.3418 0 
30.7455 171.422 87.7594 0 
28.8001 172.455 87.1834 0 
32.0446 175.848 84.871 0 
28.5147 174.334 85.8784 0 
32.4218 170.829 87.8237 0 
31.1182 176.326 84.3328 0 
28.7342 174.815 85.336 0 
32.5962 174.343 85.3498 0 
29.2295 175.294 84.8605 0 
32.3752 171.856 86.8125 0 
28.9036 172.691 86.4457 0 
32.6409 173.34 85.8361 0 
29.9102 175.703 84.4617 0 
32.1785 174.846 84.8214 0 
30.3682 171.028 87.1232 0 
29.7791 171.458 86.6824 0 
31.3758 173.931 84.9057 0 
28.4764 173.288 85.4414 0 
29.5078 174.93 84.2911 0 
28.6461 172.339 85.8356 0 
32.3142 171.876 85.9027 0 
32.4059 172.832 85.2651 0 
31.005 174.891 83.8995 0 
30.2356 175.768 83.3375 0 
29.7358 170.893 86.2312 0 
28.6842 173.818 84.3494 0 
29.2234 174.284 83.8849 0 
32.4314 170.859 85.8238 0 
28.2123 172.855 84.7824 0 
29.805 174.737 83.4477 0 
31.4692 173.858 83.8995 0 
32.3908 169.838 86.3219 0 
32.4797 168.829 86.8308 0 
32.0398 172.835 84.3622 0 
32.2327 171.845 84.8168 0 
29.0788 170.303 85.9197 0 
29.8619 169.964 86.0745 0 
30.6837 175.832 82.3384 0 
28.3443 171.297 85.1186 0 
30.3876 169.355 86.1738 0 
32.3554 170.331 85.3231 0 
29.4569 173.981 83.1988 0 
31.1082 174.367 82.8518 0 
32.3546 167.825 86.8099 0 
32.3186 170.842 84.8111 0 
31.1733 173.335 83.3276 0 
28.0864 171.833 84.378 0 
30.5426 168.364 86.3839 0 
28.2437 170.353 85.2219 0 
30.3565 175.421 81.8197 0 
28.2838 172.307 83.7964 0 
31.9903 171.825 83.8768 0 
28.5118 172.913 83.3194 0 
30.538 173.404 82.8842 0 
32.3754 168.302 85.8372 0 
31.5517 172.312 83.3677 0 
29.1365 173.346 82.8287 0 
29.257 169.429 85.1988 0 
28.136 170.838 84.341 0 
32.2463 168.836 85.3292 0 
30.1554 167.836 85.8311 0 
32.0626 170.837 83.8561 0 
28.4721 169.217 85.016 0 
27.9234 171.363 83.7124 0 
29.9978 174.917 81.333 0 
32.2311 169.833 84.3222 0 
28.0081 169.815 84.4179 0 
28.2128 172.313 82.8553 0 
30.26 173.78 81.8269 0 
31.8981 171.308 83.2518 0 
28.9142 172.661 82.4856 0 
31.3908 171.835 82.7579 0 
30.9358 172.373 82.3777 0 
32.44 167.344 85.3637 0 
27.9018 170.325 83.7486 0 
32.2288 168.838 84.331 0 
32.4282 166.333 85.8529 0 
28.5299 168.779 84.4428 0 
32.285 167.844 84.8206 0 
28.145 171.34 82.8339 0 
31.9643 169.834 83.3701 0 
28.5072 171.898 82.2632 0 
27.6454 169.339 83.8356 0 
29.2757 172.259 81.8712 0 
31.7205 170.338 82.8078 0 
29.61 172.856 81.3188 0 
32.868 165.85 85.333 0 
27.738 170.337 82.8155 0 
31.2574 170.852 82.2907 0 
30.8773 171.355 81.8751 0 
31.9627 168.836 83.3668 0 
28.2681 171.263 81.9756 0 
27.7707 168.406 83.7256 0 
32.1872 167.84 83.8294 0 
32.3188 166.862 84.3155 0 
31.8105 169.356 82.7873 0 
27.7012 169.335 82.8202 0 
29.0047 171.407 81.2862 0 
32.5216 165.823 84.3271 0 
31.4222 169.795 81.9244 0 
31.854 168.357 82.7718 0 
27.5973 168.343 82.853 0 
30.9033 170.283 81.4601 0 
27.651 169.838 81.8344 0 
28.1673 170.329 81.3469 0 
28.8582 170.722 80.9843 0 
31.9734 167.323 82.8783 0 
32.5945 164.83 84.3339 0 
31.5286 168.813 81.8792 0 
32.1816 166.343 83.3277 0 
27.5503 167.341 82.8843 0 
29.4704 171.401 80.2195 0 
27.5112 168.864 81.8485 0 
31.3504 169.341 81.2356 0 
27.3334 167.824 82.2914 0 
27.9264 169.416 81.2198 0 
31.5934 167.833 81.8534 0 
28.439 169.932 80.703 0 
31.3468 168.474 81.2462 0 
30.4889 169.852 80.3642 0 
31.9573 166.311 82.3834 0 
27.2651 166.839 82.2959 0 
32.8978 163.904 83.7896 0 
27.3584 168.299 81.3412 0 
30.8199 168.872 80.7861 0 
27.8789 168.716 80.9459 0 
29.1405 170.341 79.8335 0 
31.7156 166.85 81.8167 0 
28.1751 169.324 80.355 0 
32.293 164.869 82.8053 0 
27.1423 167.34 81.3354 0 
31.3437 167.276 80.9338 0 
27.4882 167.871 80.7514 0 
30.3826 168.817 79.8806 0 
32.5034 163.807 82.8626 0 
27.9545 168.424 80.1961 0 
30.7852 167.875 80.2876 0 
28.8779 169.266 79.3878 0 
32.0799 164.825 81.853 0 
29.2281 169.815 78.8498 0 
31.5354 166.31 80.8632 0 
31.7698 165.355 81.3043 0 
26.9534 166.388 80.8732 0 
31.1536 166.841 80.3322 0 
27.8287 167.751 79.9355 0 
28.4001 168.233 79.4557 0 
27.0375 166.876 80.3303 0 
30.5562 167.318 79.8485 0 
30.2094 167.835 79.3144 0 
32.374 163.309 81.8972 0 
32.0557 163.823 81.3678 0 
28.0965 167.359 79.3177 0 
26.685 165.83 80.328 0 
31.3835 165.288 80.4044 0 
28.5228 167.877 78.8045 0 
31.7032 164.346 80.8201 0 
27.3727 166.726 79.4142 0 
28.9162 168.398 78.2905 0 
32.3409 162.356 81.7607 0 
26.5792 164.844 80.3537 0 
30.8931 165.804 79.4753 0 
31.8117 163.349 80.7863 0 
30.4114 166.287 78.9529 0 
28.4315 167.225 78.4048 0 
27.0364 165.879 79.2999 0 
27.6469 166.339 78.8349 0 
28.7747 167.809 77.8652 0 
30.0136 166.826 78.3945 0 
31.9813 162.297 80.9027 0 
31.4447 163.824 79.8973 0 
32.7 161.352 81.3098 0 
31.2717 164.314 79.2858 0 
30.1172 165.834 78.3504 0 
26.3723 164.38 79.4234 0 
26.8119 165.274 78.8368 0 
30.6973 164.856 78.8101 0 
27.3175 165.751 78.4049 0 
31.5505 162.82 79.8685 0 
28.1893 166.322 77.8432 0 
29.4868 165.897 77.8898 0 
28.7798 166.779 77.3757 0 
32.187 161.352 80.3176 0 
31.7011 161.853 79.8118 0 
26.1942 163.823 78.8293 0 
31.0865 163.343 78.8587 0 
29.9895 164.809 77.9186 0 
26.6 164.36 78.3247 0 
27.8943 165.733 77.388 0 
31.3166 162.361 79.2694 0 
32.2679 160.567 80.2366 0 
28.2361 166.306 76.8529 0 
27.11 164.84 77.7965 0 
28.664 166.829 76.3413 0 
26.0193 162.875 78.8763 0 
30.3669 163.75 77.9954 0 
25.7878 161.798 79.2776 0 
26.4328 163.722 77.8658 0 
32.0026 160.758 79.4095 0 
30.8891 162.297 78.4381 0 
26.9101 164.195 77.4527 0 
29.4979 164.84 76.8831 0 
28.4257 166.195 75.9663 0 
31.2747 161.363 78.7897 0 
27.6108 164.854 76.8176 0 
30.4658 162.784 77.9228 0 
25.7596 162.308 78.3192 0 
30.0853 163.326 77.3668 0 
26.0236 162.902 77.8164 0 
29.612 163.831 76.8506 0 
28.071 165.375 75.8144 0 
30.5458 161.791 77.8796 0 
28.6562 165.834 75.3398 0 
26.7358 163.284 76.8855 0 
27.2733 163.762 76.3923 0 
30.9202 160.798 77.8955 0 
30.0574 162.327 76.874 0 
25.6627 161.834 77.3365 0 
30.3955 161.238 77.4329 0 
29.4891 162.791 76.4015 0 
26.1138 162.36 76.8223 0 
27.81 164.278 75.3602 0 
28.1708 164.832 74.8393 0 
26.8892 162.694 75.9466 0 
27.4989 163.389 75.3132 0 
30.0843 161.323 76.3669 0 
29.6507 161.841 75.8328 0 
29.146 162.339 75.3352 0 
27.1206 162.349 75.3301 0 
30.315 160.376 76.256 0 
29.803 160.891 75.7553 0 
27.656 163.336 74.3364 0 
27.9822 163.893 73.8122 0 
28.7463 161.793 74.8287 0 
27.2571 162.297 74.3485 0 
29.2132 160.853 74.8097 0 
27.7504 163.301 73.3489 0 
26.8895 161.455 74.2861 0 
28.7621 161.334 73.8079 0 
27.1822 161.827 73.3404 0 
27.526 162.375 72.8086 0 
28.9638 160.308 73.9141 0 
28.7282 159.85 73.3106 0 
28.2133 160.347 72.8123 0 
28.4434 159.308 72.4052 0 
32.5204 158.285 79.3807 1 
32.2271 158.84 78.8206 1 
31.6509 159.341 78.3328 1 
31.0849 159.821 77.8508 1 
31.9051 158.301 77.9167 1 
30.5441 159.818 76.8858 1 
32.5188 157.253 78.3531 1 
31.6868 157.338 78.3171 1 
31.2376 158.905 77.2813 1 
31.7251 157.884 77.2888 1 
31.0919 158.319 76.8563 1 
30.4522 158.787 76.4118 1 
32.0751 156.324 77.3611 1 
31.4702 157.655 76.442 1 
30.8108 157.914 76.2696 1 
29.992 159.294 75.4103 1 
31.8497 156.906 76.743 1 
29.4974 159.795 74.9012 1 
30.1195 158.326 75.3468 1 
29.659 158.842 74.8293 1 
31.9816 155.778 76.3945 1 
29.301 159.375 74.2652 1 
30.6961 157.377 75.3071 1 
31.681 156.372 75.8176 1 
31.0596 156.748 75.392 1 
29.9181 157.713 74.4465 1 
27.1776 161.327 72.3431 1 
31.8662 155.799 75.3881 1 
29.4198 158.268 73.9497 1 
31.53 154.849 75.8732 1 
30.8205 156.495 74.7497 1 
29.0099 158.815 73.3963 1 
30.2789 156.914 74.2675 1 
29.5436 157.32 73.8829 1 
29.1584 157.842 73.3296 1 
27.2382 160.8 71.3636 1 
28.8175 158.365 72.7666 1 
30.8074 156.453 73.7679 1 
31.6025 155.319 74.3462 1 
32.0539 154.318 74.8569 1 
29.6912 156.859 73.3112 1 
31.1028 155.789 73.8511 1 
27.448 160.439 70.7484 1 
28.4509 158.309 71.9179 1 
28.0742 158.832 71.3565 1 
31.8825 154.525 73.7702 1 
28.9926 156.795 72.4111 1 
30.3898 155.589 72.9672 1 
32.3501 153.946 73.7815 1 
28.5717 157.326 71.8672 1 
27.0676 159.892 70.3454 1 
29.4776 156.229 72.4321 1 
28.3158 157.839 71.2818 1 
30.7819 154.963 72.7662 1 
31.4098 154.62 72.9308 1 
28.7762 156.369 71.7778 1 
30.1113 155.311 72.3555 1 
29.4452 155.684 71.9553 1 
28.2165 156.829 71.3078 1 
26.8345 159.236 69.8371 1 
31.9239 153.769 72.8819 1 
27.9788 157.842 70.3862 1 
30.7498 154.413 72.2803 1 
27.9603 156.847 70.4025 1 
28.9092 155.442 71.2157 1 
28.1781 155.839 70.328 1 
26.6202 158.35 68.8305 1 
29.431 154.647 70.9435 1 
30.4405 153.575 71.0197 1 
28.718 154.884 70.2983 1 
29.778 153.95 70.747 1 
27.601 156.332 69.3489 1 
29.058 153.782 70.3874 1 
31.1443 152.836 70.8371 1 
27.8253 155.254 69.4039 1 
28.3299 154.446 69.7813 1 
26.1875 157.328 67.8357 1 
30.268 152.948 70.239 1 
30.1828 151.798 70.8557 1 
29.5785 153.287 69.881 1 
27.408 155.8 68.4096 1 
27.7587 154.867 68.7947 1 
28.819 153.455 69.2353 1 
29.8664 152.647 69.5021 1 
28.2191 153.872 68.803 1 
25.9614 156.383 67.3197 1 
27.3657 154.784 67.9367 1 
30.6294 151.348 69.831 1 
27.6663 153.843 68.3271 1 
29.2707 152.432 68.7661 1 
28.5615 152.792 68.3828 1 
27.969 153.281 67.9207 1 
30.0944 151.313 68.852 1 
27.2524 153.879 67.2975 1 
29.4887 151.732 68.414 1 
28.1155 152.843 67.3423 1 
28.817 151.967 67.747 1 
29.9243 151.045 68.1793 1 
27.4412 152.758 66.928 1 
27.9838 151.897 67.3702 1 
29.4396 150.295 67.9011 1 
29.2682 150.888 67.2842 1 
27.2442 152.387 66.2888 1 
28.5776 151.299 66.8647 1 
26.6759 152.832 65.8276 1 
29.4671 148.85 67.8427 1 
27.5647 151.305 65.8862 1 
28.7044 150.361 66.3047 1 
26.5277 152.352 64.8345 1 
27.3302 152.556 64.5331 1 
29.0599 149.327 66.376 1 
28.4167 149.774 65.9671 1 
27.2932 150.908 65.2519 1 
26.8399 151.366 64.8073 1 
27.8422 150.42 65.2028 1 
28.9593 148.328 65.9229 1 
28.0389 149.77 64.9106 1 
26.5837 151.346 63.8545 1 
27.37 149.952 64.6755 1 
28.1686 148.847 64.8228 1 
27.5343 149.271 64.4104 1 
26.9855 149.762 63.9311 1 
28.5207 147.831 64.8833 1 
26.4725 150.305 63.4116 1 
27.8155 148.4 64.2462 1 
26.6986 149.361 63.3103 1 
27.3379 148.235 63.5048 1 
27.9384 146.837 63.9281 1 
26.0258 149.32 62.3845 1 
25.9224 149.856 61.8993 1 
27.5521 147.292 63.3797 1 
27.1544 147.842 62.8305 1 
26.5404 148.297 62.389 1 
27.9459 145.801 63.4203 1 
27.5522 146.317 62.8834 1 
27.0632 146.824 62.3807 1 
25.9362 148.268 61.4223 1 
26.5836 147.322 61.8688 1 
27.6017 144.844 62.8399 1 
26.7403 146.363 61.7813 1 
26.2862 146.877 61.257 1 
25.8509 147.368 60.7816 1 
27.0834 145.32 61.8628 1 
25.4124 148.306 59.8717 1 
26.9733 144.789 61.3826 1 
25.5323 147.322 59.8598 1 
25.9559 146.527 60.2449 1 
26.5448 145.307 60.8828 1 
26.1315 145.831 60.3403 1 
25.3605 146.77 59.4186 1 
26.2066 145.344 59.809 1 
