ply
format ascii 1.0
element vertex 753
property double x
property double y
property double z
end_header
9.515029907226563 -53.118801116943359 44.612899780273438
9.437250137329102 -52.121799468994141 45.074901580810547
9.962880134582520 -53.051399230957031 46.073101043701172
9.991880416870117 -54.020500183105469 46.136001586914062
9.650589942932129 -52.138198852539063 46.521800994873047
9.763059616088867 -53.112400054931641 46.993198394775391
9.175290107727051 -51.027801513671875 45.867900848388672
9.315679550170898 -54.128601074218750 46.976600646972656
9.834010124206543 -52.106399536132812 47.511199951171875
9.796839714050293 -55.200099945068359 47.376598358154297
9.775670051574707 -53.062900543212891 48.488998413085938
9.229869842529297 -53.983299255371094 48.439098358154297
8.860690116882324 -50.516700744628906 47.639598846435547
9.282320022583008 -49.692298889160156 46.874298095703125
7.811049938201904 -54.409900665283203 48.380001068115234
8.342399597167969 -49.811798095703125 47.227901458740234
7.878739833831787 -50.302501678466797 47.768100738525391
8.303380012512207 -53.985900878906250 48.930301666259766
10.028800010681152 -52.259799957275391 49.093200683593750
6.794879913330078 -54.739200592041016 48.108001708984375
9.887519836425781 -49.872699737548828 48.961498260498047
8.828700065612793 -49.333198547363281 49.154300689697266
9.301320075988770 -48.883899688720703 49.827701568603516
7.797949790954590 -49.350601196289063 49.334201812744141
8.290599822998047 -48.901199340820313 49.858501434326172
9.555560111999512 -52.342700958251953 50.159900665283203
9.674189567565918 -51.888999938964844 50.897201538085938
6.960309982299805 -49.793800354003906 49.157398223876953
6.893849849700928 -49.969398498535156 48.221900939941406
8.801369667053223 -48.437000274658203 50.376899719238281
9.336389541625977 -53.120201110839844 49.519500732421875
9.830550193786621 -48.212398529052734 50.596900939941406
6.547500133514404 -50.455398559570312 48.854801177978516
8.911259651184082 -52.758598327636719 50.589298248291016
6.760139942169190 -49.043300628662109 49.970600128173828
9.304149627685547 -51.085399627685547 51.995998382568359
8.757470130920410 -52.401298522949219 51.397998809814453
7.300449848175049 -48.530700683593750 50.467601776123047
8.286179542541504 -53.438201904296875 49.906898498535156
9.894379615783691 -49.622200012207031 52.029800415039063
9.291379928588867 -52.006198883056641 51.960601806640625
6.143970012664795 -50.035701751708984 49.951499938964844
6.100309848785400 -51.628700256347656 48.527099609375000
7.830629825592041 -48.120601654052734 51.020099639892578
5.928349971771240 -51.120201110839844 49.526798248291016
8.777489662170410 -47.785800933837891 51.294799804687500
7.824669837951660 -52.583801269531250 51.499401092529297
7.293849945068359 -53.356998443603516 50.145000457763672
5.957260131835938 -52.099399566650391 49.502700805664063
5.906310081481934 -50.614700317382813 50.525798797607422
6.058000087738037 -51.581401824951172 50.505901336669922
7.310229778289795 -53.804901123046875 49.284400939941406
7.324359893798828 -53.029800415039063 50.968799591064453
6.371679782867432 -52.544399261474609 50.492000579833984
8.308039665222168 -52.006000518798828 52.453998565673828
6.909100055694580 -52.388401031494141 51.472400665283203
5.687719821929932 -51.800201416015625 47.432201385498047
6.402410030364990 -48.682300567626953 51.057201385498047
10.233799934387207 -48.565700531005859 52.483600616455078
6.002180099487305 -49.626998901367188 51.046901702880859
6.257999897003174 -53.138801574707031 49.541301727294922
5.796609878540039 -52.603801727294922 48.510501861572266
9.330109596252441 -47.427700042724609 51.865798950195312
6.719230175018311 -53.885101318359375 48.616001129150391
8.813380241394043 -51.551601409912109 52.980300903320313
5.911620140075684 -50.596099853515625 51.506999969482422
6.172090053558350 -51.693099975585938 51.562900543212891
8.279950141906738 -47.467998504638672 51.917900085449219
6.797609806060791 -48.074001312255859 51.493499755859375
7.331950187683106 -52.084800720214844 52.500900268554688
9.298110008239746 -51.023399353027344 53.464000701904297
7.312129974365234 -47.546100616455078 51.988300323486328
9.821310043334961 -47.166698455810547 52.552200317382813
8.794130325317383 -46.958599090576172 52.397701263427734
8.754469871520996 -46.342399597167969 53.327999114990234
9.854080200195313 -46.464801788330078 53.436798095703125
7.827360153198242 -46.606098175048828 53.510898590087891
7.315780162811279 -47.084999084472656 53.002101898193359
9.322779655456543 -45.931198120117187 53.898899078369141
6.439050197601318 -47.665100097656250 52.548599243164063
7.780069828033447 -46.041801452636719 54.465599060058594
8.808540344238281 -45.533699035644531 54.458900451660156
9.363289833068848 -50.169101715087891 54.558399200439453
6.389780044555664 -47.135700225830078 53.531200408935547
6.089890003204346 -48.023101806640625 53.452499389648437
6.955349922180176 -46.345001220703125 54.583599090576172
9.150870323181152 -49.793598175048828 55.328201293945313
6.159060001373291 -48.513500213623047 51.952800750732422
8.901220321655273 -50.801998138427734 54.179500579833984
8.310750007629395 -50.463401794433594 54.926498413085937
5.932720184326172 -49.111000061035156 53.007900238037109
9.528490066528320 -48.825801849365234 56.161899566650391
6.054379940032959 -48.103000640869141 54.499000549316406
8.064760208129883 -45.385799407958984 55.167400360107422
6.020709991455078 -49.093498229980469 53.992000579833984
9.776909828186035 -48.073299407958984 56.477901458740234
8.307290077209473 -49.897300720214844 55.894401550292969
5.895349979400635 -49.606300354003906 52.013401031494141
6.087289810180664 -47.107200622558594 54.997299194335938
7.801720142364502 -51.350101470947266 53.653800964355469
7.360630035400391 -50.518100738525391 54.955699920654297
7.138140201568604 -50.894500732421875 54.177898406982422
6.177549839019775 -49.152900695800781 55.054500579833984
6.614319801330566 -50.294898986816406 54.637500762939453
6.250329971313477 -46.089199066162109 55.003898620605469
8.874010086059570 -49.246700286865234 56.593101501464844
6.158010005950928 -48.121101379394531 55.535598754882813
6.971380233764648 -45.746799468994141 55.567199707031250
7.403979778289795 -49.875301361083984 55.869300842285156
6.302619934082031 -50.623001098632813 53.521701812744141
9.319680213928223 -44.587001800537109 55.494499206542969
6.022250175476074 -50.570598602294922 52.475498199462891
6.929860115051270 -51.388301849365234 53.369400024414063
6.640810012817383 -49.433101654052734 55.880599975585938
9.892970085144043 -47.132598876953125 57.031200408935547
7.772480010986328 -49.372200012207031 56.670200347900391
7.567530155181885 -45.310398101806641 56.138000488281250
6.149970054626465 -46.606899261474609 56.032798767089844
8.330699920654297 -44.610401153564453 56.013801574707031
10.155799865722656 -46.057998657226563 56.993198394775391
6.448540210723877 -51.535701751708984 52.457401275634766
6.431350231170654 -48.573200225830078 56.485698699951172
8.796939849853516 -48.857398986816406 57.333801269531250
6.284500122070313 -47.610198974609375 56.517200469970703
9.378510475158691 -48.186500549316406 57.574401855468750
7.148719787597656 -48.850601196289063 57.160598754882813
6.204170227050781 -45.593898773193359 56.021701812744141
8.792229652404785 -44.038898468017578 56.464801788330078
7.939789772033691 -44.222400665283203 57.073001861572266
9.847290039062500 -44.170898437500000 56.060798645019531
7.321030139923096 -44.599201202392578 57.508399963378906
9.220529556274414 -43.367900848388672 57.345798492431641
8.211990356445313 -43.473899841308594 57.926998138427734
9.793910026550293 -46.088100433349609 58.493198394775391
6.740570068359375 -45.067100524902344 56.512798309326172
7.574709892272949 -43.877998352050781 58.368999481201172
9.672050476074219 -47.044498443603516 57.951198577880859
10.193699836730957 -45.022499084472656 58.938999176025391
6.215879917144775 -44.613800048828125 57.519401550292969
6.250989913940430 -46.107601165771484 57.019199371337891
6.313700199127197 -45.607398986816406 58.013099670410156
9.631429672241211 -46.405799865722656 59.350799560546875
8.857569694519043 -42.663299560546875 58.548099517822266
9.395250320434570 -47.188400268554688 59.074798583984375
6.013110160827637 -44.087898254394531 56.508899688720703
7.855289936065674 -43.133899688720703 59.028900146484375
9.304510116577148 -45.560199737548828 59.996799468994141
9.185939788818359 -47.899398803710937 58.364200592041016
9.783049583435059 -42.509399414062500 58.444000244140625
6.470990180969238 -45.095199584960938 58.991901397705078
10.439299583435059 -44.181701660156250 59.568000793457031
6.469329833984375 -46.596801757812500 58.484199523925781
6.345469951629639 -47.105098724365234 57.508499145507812
10.008600234985352 -44.735900878906250 60.107398986816406
5.945970058441162 -43.588199615478516 57.982101440429688
9.167830467224121 -46.894100189208984 59.896701812744141
8.334659576416016 -47.942001342773438 58.906898498535156
6.261340141296387 -44.115299224853516 59.022499084472656
6.552740097045898 -45.720699310302734 59.606201171875000
8.324210166931152 -48.540699005126953 57.967300415039062
8.302680015563965 -47.384101867675781 59.685600280761719
7.309440135955811 -47.647499084472656 59.038799285888672
6.636429786682129 -46.581199645996094 59.448398590087891
6.564690113067627 -47.574298858642578 58.454101562500000
8.199769973754883 -42.466400146484375 59.417198181152344
7.234409809112549 -48.278800964355469 58.132801055908203
6.464159965515137 -48.075199127197266 57.480701446533203
6.530099868774414 -44.586799621582031 59.978900909423828
9.413619995117188 -46.273799896240234 60.612800598144531
7.221280097961426 -46.765399932861328 60.125301361083984
7.377890110015869 -43.138099670410156 60.030498504638672
9.669269561767578 -44.860000610351563 60.913700103759766
8.306449890136719 -46.758300781250000 60.619701385498047
9.753179550170898 -41.893299102783203 59.370700836181641
6.417530059814453 -43.598499298095703 59.993400573730469
8.932459831237793 -41.842098236083984 59.667800903320312
6.804969787597656 -46.139499664306641 60.532600402832031
6.571979999542236 -45.179100036621094 60.576801300048828
10.115500450134277 -43.956699371337891 60.917098999023437
8.818019866943359 -46.381301879882813 61.200901031494141
7.775829792022705 -46.248001098632813 61.112400054931641
5.408130168914795 -42.551998138427734 58.506099700927734
6.574170112609863 -44.109298706054687 61.018600463867188
10.476599693298340 -43.206901550292969 61.059700012207031
8.342229843139648 -41.622501373291016 60.521099090576172
7.726759910583496 -42.026699066162109 60.963901519775391
8.773280143737793 -41.023498535156250 60.957000732421875
9.396490097045898 -41.322700500488281 60.155498504638672
7.672440052032471 -41.479400634765625 61.941600799560547
6.967020034790039 -42.252601623535156 61.556999206542969
9.734729766845703 -40.790199279785156 60.807598114013672
9.859660148620606 -43.628898620605469 62.023998260498047
10.427599906921387 -42.658401489257813 62.041099548339844
6.746429920196533 -43.088699340820313 60.999599456787109
8.958189964294434 -40.382198333740234 61.708801269531250
9.527770042419434 -44.421600341796875 61.878700256347656
9.614500045776367 -43.441299438476562 62.920501708984375
7.055069923400879 -41.799198150634766 62.583801269531250
7.963119983673096 -40.723499298095703 62.579101562500000
10.043999671936035 -42.732601165771484 63.087898254394531
6.665480136871338 -42.540401458740234 62.495601654052734
6.595290184020996 -43.603801727294922 62.009101867675781
10.794799804687500 -41.589298248291016 62.500099182128906
7.441599845886231 -41.189701080322266 63.052898406982422
9.808469772338867 -40.002300262451172 61.949001312255859
8.758700370788574 -40.003700256347656 62.443599700927734
6.665480136871338 -43.626701354980469 63.017501831054688
6.737870216369629 -44.625598907470703 62.027698516845703
6.918930053710938 -41.653400421142578 63.533000946044922
9.437109947204590 -42.735099792480469 64.102798461914063
8.286899566650391 -44.815399169921875 63.166000366210938
10.198300361633301 -42.007801055908203 63.944599151611328
6.595849990844727 -42.667198181152344 63.563701629638672
7.337039947509766 -45.074298858642578 62.489898681640625
8.805919647216797 -45.315200805664063 62.670799255371094
9.303330421447754 -44.876998901367188 63.233600616455078
7.775109767913818 -44.352600097656250 63.679199218750000
10.737500190734863 -41.060600280761719 63.486801147460938
7.922560214996338 -40.182300567626953 63.555198669433594
6.844379901885986 -44.563301086425781 62.985298156738281
7.824639797210693 -45.618400573730469 62.019901275634766
8.827480316162109 -44.164398193359375 64.059501647949219
6.898789882659912 -45.464401245117188 61.420200347900391
9.321809768676758 -45.870998382568359 61.845100402832031
7.409430027008057 -40.665199279785156 64.034400939941406
8.926750183105469 -43.274799346923828 64.663299560546875
6.742350101470947 -43.642898559570313 64.022796630859375
10.327199935913086 -39.470401763916016 62.926998138427734
7.833630084991455 -43.745700836181641 64.614898681640625
9.665510177612305 -41.923801422119141 64.857398986816406
8.890009880065918 -39.191501617431641 63.564201354980469
6.716660022735596 -41.542098999023438 64.488700866699219
10.447600364685059 -41.187000274658203 64.565902709960938
8.223640441894531 -39.518299102783203 63.959800720214844
6.483029842376709 -42.642299652099609 64.550201416015625
9.127559661865234 -42.453201293945313 65.291496276855469
9.789560317993164 -38.949001312255859 63.413501739501953
7.673649787902832 -39.997398376464844 64.467597961425781
8.319829940795898 -43.066898345947266 65.481300354003906
7.243840217590332 -40.547100067138672 65.002197265625000
7.241250038146973 -43.361900329589844 65.364700317382813
10.958999633789063 -40.172100067138672 64.553596496582031
6.141170024871826 -41.993999481201172 64.973602294921875
10.187399864196777 -40.977600097656250 65.416801452636719
11.390500068664551 -39.638099670410156 64.024803161621094
8.175359725952148 -38.986801147460938 64.934799194335938
8.835379600524902 -38.617801666259766 64.518402099609375
7.565020084381104 -39.699699401855469 65.550903320312500
7.919199943542481 -38.657398223876953 66.041801452636719
9.292530059814453 -38.033599853515625 64.965698242187500
8.638870239257813 -37.874500274658203 65.864097595214844
7.401239871978760 -39.626399993896484 66.519401550292969
9.674349784851074 -40.850200653076172 66.335899353027344
10.423500061035156 -40.179100036621094 66.058502197265625
9.241470336914063 -41.478801727294922 65.899101257324219
10.331000328063965 -38.627899169921875 64.022903442382813
8.749759674072266 -40.875701904296875 66.821197509765625
10.889300346374512 -39.642601013183594 65.534500122070312
10.310400009155273 -37.988998413085937 64.946197509765625
7.194540023803711 -40.575000762939453 66.501403808593750
10.174500465393066 -39.949501037597656 66.905097961425781
9.481470108032227 -40.351600646972656 67.187500000000000
6.823040008544922 -41.102600097656250 65.511199951171875
7.705589771270752 -38.549701690673828 66.981498718261719
8.314180374145508 -40.527198791503906 67.452903747558594
11.288499832153320 -39.089298248291016 64.999801635742187
10.831199645996094 -39.108501434326172 66.512397766113281
9.776129722595215 -37.338600158691406 65.856597900390625
8.605230331420898 -42.012500762939453 66.248901367187500
8.186800003051758 -41.541400909423828 66.842201232910156
10.804900169372559 -37.827499389648437 65.616500854492188
7.339379787445068 -39.608798980712891 67.511703491210937
8.099909782409668 -37.752498626708984 67.091201782226562
11.211199760437012 -38.555698394775391 65.974800109863281
8.898209571838379 -37.197898864746094 66.567199707031250
9.264780044555664 -39.931598663330078 67.883903503417969
10.448599815368652 -39.196899414062500 67.579299926757812
10.527700424194336 -37.778598785400391 66.908302307128906
7.313660144805908 -42.179599761962891 66.496200561523438
6.366799831390381 -41.664600372314453 65.999198913574219
8.315369606018066 -39.851799011230469 68.322402954101563
7.541570186614990 -38.497299194335938 67.956100463867187
10.324399948120117 -36.983001708984375 66.437202453613281
9.712770462036133 -39.368598937988281 68.344596862792969
9.342009544372559 -36.635501861572266 67.030296325683594
7.849810123443604 -37.615699768066406 68.016700744628906
10.991100311279297 -38.164798736572266 67.585296630859375
7.434090137481690 -39.123901367187500 68.518501281738281
8.799469947814941 -39.390899658203125 68.858001708984375
6.840489864349365 -41.912799835205078 67.486900329589844
8.523480415344238 -36.793598175048828 67.639396667480469
5.892109870910645 -41.457099914550781 67.035697937011719
10.817399978637695 -36.695899963378906 67.072402954101562
10.741399765014648 -38.057098388671875 68.478302001953125
10.245800018310547 -38.527900695800781 68.960899353027344
7.545559883117676 -38.015098571777344 68.960197448730469
9.250940322875977 -38.889099121093750 69.365303039550781
8.325099945068359 -38.991798400878906 69.426300048828125
6.868609905242920 -41.701400756835938 68.538497924804687
10.329299926757812 -36.140701293945313 67.534896850585938
8.113759994506836 -36.745399475097656 68.594497680664063
9.266429901123047 -36.013000488281250 67.946197509765625
8.621170043945313 -35.881198883056641 68.863296508789063
9.446599960327148 -35.421298980712891 68.719902038574219
7.672269821166992 -37.058601379394531 69.984199523925781
8.281900405883789 -35.580200195312500 69.994300842285156
8.892080307006836 -35.178798675537109 69.557800292968750
9.834039688110352 -38.116199493408203 70.017898559570313
7.873539924621582 -36.122501373291016 70.520401000976563
8.788729667663574 -38.341098785400391 70.302001953125000
10.526000022888184 -37.775100708007812 69.620597839355469
10.314599990844727 -35.480701446533203 68.424499511718750
7.885419845581055 -37.967498779296875 70.388496398925781
9.276829719543457 -37.855300903320312 70.813697814941406
11.028499603271484 -37.222801208496094 69.078201293945313
7.762619972229004 -37.114101409912109 71.021003723144531
10.690400123596191 -36.997798919677734 70.439201354980469
8.604929924011231 -34.915100097656250 70.385299682617188
9.969900131225586 -37.278499603271484 71.129096984863281
9.332429885864258 -34.615501403808594 70.017196655273438
10.289999961853027 -34.824901580810547 69.313697814941406
8.821040153503418 -37.486000061035156 71.415100097656250
11.261400222778320 -36.065700531005859 69.987297058105469
11.316200256347656 -35.718498229980469 68.591499328613281
11.292099952697754 -36.323898315429687 67.657600402832031
7.753280162811279 -36.098201751708984 71.511497497558594
10.370200157165527 -36.649600982666016 71.541397094726563
10.929800033569336 -36.166099548339844 71.050498962402344
9.308819770812988 -37.021800994873047 71.947196960449219
10.344599723815918 -34.294399261474609 70.129600524902344
8.007880210876465 -35.166801452636719 71.547599792480469
9.274439811706543 -34.021598815917969 70.953598022460938
8.028690338134766 -36.437500000000000 72.368896484375000
8.822899818420410 -36.638801574707031 72.536003112792969
9.775650024414063 -36.499000549316406 72.434196472167969
8.503430366516113 -34.235801696777344 71.593597412109375
11.148900032043457 -35.037300109863281 71.457603454589844
10.856200218200684 -35.624599456787109 72.022903442382813
7.809199810028076 -35.606498718261719 72.512001037597656
10.808600425720215 -33.904098510742187 70.865402221679688
7.979469776153565 -34.645801544189453 72.533996582031250
10.291899681091309 -33.426101684570312 71.383598327636719
10.350000381469727 -35.629600524902344 73.028297424316406
9.187870025634766 -33.421199798583984 71.888801574707031
8.376020431518555 -35.916000366210937 73.367996215820312
9.316769599914551 -35.980098724365234 73.417900085449219
8.436989784240723 -33.672401428222656 72.550399780273437
7.827479839324951 -40.858600616455078 71.440101623535156
8.397709846496582 -33.145698547363281 73.533599853515625
8.029680252075195 -34.152900695800781 73.534400939941406
9.320610046386719 -32.594501495361328 73.003196716308594
7.878540039062500 -35.105300903320313 73.508796691894531
7.998750209808350 -33.634899139404297 74.525398254394531
10.271300315856934 -32.400600433349609 72.868698120117188
8.022190093994141 -34.588199615478516 74.496803283691406
9.791199684143066 -35.481098175048828 73.916397094726563
10.462100028991699 -34.750099182128906 74.109298706054687
8.824740409851074 -35.128700256347656 74.526702880859375
8.904950141906738 -32.187500000000000 74.059997558593750
10.996600151062012 -34.732700347900391 73.086799621582031
8.342729568481445 -32.615798950195313 74.516899108886719
10.813899993896484 -33.006099700927734 71.937500000000000
9.839659690856934 -34.635501861572266 75.032699584960938
10.807399749755859 -34.090301513671875 74.500297546386719
9.703020095825195 -31.850200653076172 73.848800659179688
8.407110214233398 -34.369998931884766 75.333602905273437
11.331199645996094 -33.609199523925781 74.012802124023438
10.802000045776367 -31.953399658203125 73.407897949218750
9.323860168457031 -34.326000213623047 75.676498413085938
10.280900001525879 -34.046798706054687 75.470298767089844
7.980639934539795 -33.128200531005859 75.514900207519531
8.838009834289551 -31.616500854492187 75.017700195312500
10.262900352478027 -31.362899780273438 74.354698181152344
8.288080215454102 -32.088199615478516 75.500198364257813
8.694410324096680 -33.817401885986328 76.177299499511719
10.954999923706055 -33.209300994873047 75.577102661132813
11.326800346374512 -31.593900680541992 74.002799987792969
11.602899551391602 -32.492900848388672 74.943901062011719
9.818050384521484 -33.579799652099609 76.492202758789063
8.272600173950195 -33.141700744628906 76.541999816894531
9.263689994812012 -31.011400222778320 75.448898315429687
10.694499969482422 -32.987598419189453 76.430000305175781
10.359499931335449 -30.829799652099609 75.157203674316406
8.098620414733887 -32.073200225830078 76.494003295898438
11.322299957275391 -30.998800277709961 74.942100524902344
9.313079833984375 -33.223999023437500 77.097396850585938
8.402219772338867 -31.161800384521484 76.547897338867188
11.317700386047363 -32.099498748779297 76.506896972656250
10.265000343322754 -30.390100479125977 75.866500854492188
8.386710166931152 -32.528301239013672 77.447799682617187
9.853580474853516 -32.802799224853516 77.651901245117187
9.203439712524414 -30.413099288940430 76.380401611328125
8.777660369873047 -30.063100814819336 77.483299255371094
8.091440200805664 -31.639900207519531 77.550498962402344
8.250980377197266 -30.577899932861328 77.994400024414063
10.372400283813477 -29.819999694824219 76.655097961425781
9.189920425415039 -29.389999389648438 77.870597839355469
9.253149986267090 -32.373500823974609 78.224800109863281
10.239800453186035 -29.346799850463867 77.333503723144531
10.370499610900879 -32.186401367187500 78.062698364257813
8.182510375976563 -31.194599151611328 78.590896606445312
11.029500007629395 -31.820499420166016 77.639503479003906
8.867589950561523 -31.545999526977539 78.960403442382813
9.816329956054688 -31.908599853515625 78.863098144531250
8.465459823608398 -29.720300674438477 78.588897705078125
11.390399932861328 -31.155099868774414 78.037300109863281
11.292799949645996 -30.305299758911133 75.807197570800781
11.341799736022949 -29.750000000000000 76.604698181152344
10.724100112915039 -31.415300369262695 78.876502990722656
9.906609535217285 -28.841999053955078 78.169700622558594
10.770199775695801 -28.869699478149414 77.846900939941406
8.300209999084473 -30.643499374389648 79.540199279785156
9.829710006713867 -31.319700241088867 79.670799255371094
11.161800384521484 -30.841400146484375 79.347503662109375
11.831800460815430 -29.283700942993164 77.614501953125000
9.295100212097168 -28.557199478149414 78.977401733398437
9.226389884948731 -30.801799774169922 80.169197082519531
8.589900016784668 -28.938299179077148 79.402702331542969
11.663800239562988 -30.023599624633789 78.975898742675781
10.399000167846680 -28.354799270629883 78.681701660156250
10.403400421142578 -30.831499099731445 80.165199279785156
8.159680366516113 -29.571699142456055 79.998001098632813
11.284000396728516 -28.412200927734375 78.374000549316406
11.249400138854980 -29.996000289916992 79.945198059082031
8.776309967041016 -30.189699172973633 80.580802917480469
9.779919624328613 -28.006000518798828 79.435600280761719
9.848520278930664 -30.453699111938477 80.883102416992188
8.882579803466797 -28.158899307250977 80.040496826171875
10.738499641418457 -27.821500778198242 79.318603515625000
8.360400199890137 -28.629999160766602 80.520500183105469
8.344909667968750 -29.578599929809570 80.987602233886719
9.201180458068848 -29.802000045776367 81.188400268554687
10.834199905395508 -30.142599105834961 81.040100097656250
8.710060119628906 -28.017000198364258 80.990997314453125
9.892180442810059 -27.357700347900391 80.199096679687500
9.069089889526367 -27.304100036621094 81.641098022460938
8.421480178833008 -28.958400726318359 81.908302307128906
10.797300338745117 -27.004400253295898 80.435600280761719
9.801919937133789 -29.295299530029297 82.188003540039063
9.281979560852051 -28.793300628662109 82.659400939941406
10.303299903869629 -26.346399307250977 81.288696289062500
10.321599960327148 -29.780899047851563 81.692802429199219
10.340900421142578 -28.795600891113281 82.706901550292969
8.500539779663086 -27.285200119018555 82.625602722167969
9.817649841308594 -28.326499938964844 83.173896789550781
11.283900260925293 -26.473600387573242 80.916198730468750
8.328200340270996 -28.105499267578125 83.010498046875000
11.275199890136719 -29.164800643920898 82.187698364257813
9.745550155639648 -26.034900665283203 82.445297241210938
9.137820243835449 -26.452800750732422 82.891197204589844
10.871800422668457 -28.261699676513672 83.148597717285156
11.776599884033203 -27.467199325561523 79.397003173828125
11.892800331115723 -26.776199340820313 80.157402038574219
11.872200012207031 -28.593700408935547 82.447601318359375
11.325300216674805 -30.107200622558594 82.018203735351563
11.272399902343750 -25.848199844360352 81.813697814941406
9.351570129394531 -27.957799911499023 83.904098510742187
10.317299842834473 -27.961099624633789 83.907501220703125
8.419730186462402 -26.695800781250000 83.574600219726563
12.219200134277344 -27.600799560546875 82.584999084472656
10.796899795532227 -25.422599792480469 82.361999511718750
12.394000053405762 -26.319200515747070 80.707603454589844
12.339699745178223 -29.600000381469727 82.489097595214844
9.653809547424316 -25.418600082397461 83.370399475097656
10.311800003051758 -25.034500122070313 82.960601806640625
11.061400413513184 -27.311199188232422 84.334396362304688
11.922599792480469 -25.345300674438477 82.169502258300781
9.814109802246094 -27.341400146484375 84.684501647949219
12.572699546813965 -28.087299346923828 83.333000183105469
12.574299812316895 -27.086799621582031 83.146797180175781
8.959429740905762 -25.755100250244141 84.099197387695313
12.731499671936035 -29.139600753784180 83.130897521972656
11.295700073242188 -24.960399627685547 82.905799865722656
12.809800148010254 -25.560600280761719 81.472000122070313
8.855859756469727 -27.027999877929687 84.952102661132813
9.947939872741699 -24.778099060058594 84.096603393554688
12.925000190734863 -27.109300613403320 83.956703186035156
10.320400238037109 -26.950899124145508 85.401901245117188
12.696700096130371 -24.855300903320313 82.344497680664063
11.362899780273437 -26.677600860595703 85.060203552246094
8.879810333251953 -25.173099517822266 85.055297851562500
9.684189796447754 -24.400400161743164 85.387199401855469
10.512399673461914 -23.865200042724609 85.138496398925781
10.757300376892090 -24.347299575805664 83.855003356933594
9.302419662475586 -26.702199935913086 85.583297729492188
8.964610099792481 -24.314599990844727 86.156600952148438
9.792169570922852 -26.364700317382813 86.204498291015625
11.268600463867188 -23.919599533081055 84.396797180175781
10.790800094604492 -26.452899932861328 85.906402587890625
8.388339996337891 -26.467800140380859 85.406700134277344
10.352100372314453 -23.647100448608398 86.032997131347656
11.762999534606934 -25.570600509643555 85.474800109863281
10.316499710083008 -25.918100357055664 86.887001037597656
9.395939826965332 -23.737499237060547 86.600997924804687
9.314570426940918 -25.647199630737305 87.040100097656250
11.331899642944336 -25.612199783325195 86.514900207519531
11.407299995422363 -23.379600524902344 85.190803527832031
11.798399925231934 -24.510799407958984 83.446701049804687
8.291919708251953 -25.154499053955078 87.045898437500000
10.790599822998047 -25.460699081420898 87.416297912597656
12.290200233459473 -24.018600463867188 83.952796936035156
11.269499778747559 -22.986900329589844 85.950202941894531
9.791810035705566 -25.350000381469727 87.683700561523438
12.255900382995605 -23.395399093627930 84.867301940917969
9.861060142517090 -23.203800201416016 87.078002929687500
11.811499595642090 -24.589700698852539 87.000900268554688
10.799400329589844 -23.027200698852539 86.969200134277344
7.937739849090576 -24.487699508666992 87.419601440429688
12.943200111389160 -26.104099273681641 83.951698303222656
8.793899536132813 -24.671699523925781 88.055999755859375
8.913169860839844 -23.278099060058594 87.632202148437500
13.323900222778320 -25.606899261474609 85.012496948242188
12.401200294494629 -22.775600433349609 85.630699157714844
12.898699760437012 -24.226600646972656 83.084297180175781
11.574700355529785 -24.365200042724609 87.863800048828125
11.770899772644043 -22.484100341796875 86.447402954101563
13.310999870300293 -26.608900070190430 85.017898559570313
13.104100227355957 -23.312599182128906 84.319900512695312
9.801560401916504 -24.730400085449219 88.594398498535156
10.839300155639648 -24.642499923706055 88.533996582031250
13.535200119018555 -25.586200714111328 85.959098815917969
13.616100311279297 -24.595899581909180 85.957199096679688
13.336799621582031 -23.622600555419922 83.523300170898437
9.375570297241211 -22.713699340820313 88.084602355957031
8.335820198059082 -24.092300415039063 88.501197814941406
10.313300132751465 -22.524999618530273 87.958297729492188
13.234900474548340 -27.612499237060547 84.549797058105469
13.381099700927734 -22.688400268554688 85.059303283691406
13.726599693298340 -26.624500274658203 86.020103454589844
11.307399749755859 -22.480400085449219 87.942802429199219
9.282389640808106 -24.205600738525391 89.079101562500000
10.321499824523926 -24.391099929809570 89.195503234863281
11.285799980163574 -24.047000885009766 88.972702026367188
11.769399642944336 -21.967300415039063 87.435798645019531
13.751500129699707 -24.098699569702148 87.013000488281250
13.892000198364258 -24.254800796508789 82.644897460937500
13.647899627685547 -25.095699310302734 87.502601623535156
13.568300247192383 -26.140399932861328 87.542900085449219
13.950699806213379 -22.812799453735352 84.189796447753906
10.284000396728516 -21.910999298095703 88.876502990722656
9.321029663085938 -22.089300155639648 88.999496459960938
9.815620422363281 -21.569200515747070 89.485298156738281
11.317000389099121 -21.876800537109375 88.846000671386719
10.817500114440918 -21.331600189208984 89.843200683593750
11.824500083923340 -21.588399887084961 89.501098632812500
9.807160377502441 -23.689699172973633 90.066200256347656
10.831999778747559 -23.611900329589844 90.017303466796875
8.812210083007813 -23.634799957275391 89.531303405761719
10.275500297546387 -20.861099243164063 90.343399047851562
9.305020332336426 -21.048299789428711 90.469802856445313
9.286089897155762 -23.197099685668945 90.573402404785156
10.328700065612793 -23.363899230957031 90.677902221679688
11.314100265502930 -23.082799911499023 90.495597839355469
11.315500259399414 -20.870399475097656 90.340599060058594
8.186719894409180 -22.798999786376953 90.151496887207031
7.759319782257080 -23.202600479125977 89.072502136230469
8.833689689636231 -22.597400665283203 91.004699707031250
11.662199974060059 -22.412900924682617 90.867401123046875
9.872650146484375 -22.901199340820313 91.377502441406250
10.781100273132324 -22.901599884033203 91.371398925781250
10.806900024414063 -20.422000885009766 90.880302429199219
7.814030170440674 -22.122699737548828 90.522697448730469
12.279899597167969 -20.936399459838867 90.450996398925781
9.410639762878418 -22.375999450683594 91.861900329589844
11.221599578857422 -22.309900283813477 91.804298400878906
11.917099952697754 -21.710599899291992 91.573898315429688
7.517519950866699 -21.399900436401367 90.848098754882813
8.230070114135742 -21.740999221801758 91.608703613281250
10.334099769592285 -22.374399185180664 92.183197021484375
10.313500404357910 -20.037799835205078 91.462097167968750
9.361430168151856 -20.195499420166016 91.575798034667969
11.324299812316895 -20.052700042724609 91.473297119140625
11.754799842834473 -20.826499938964844 92.008300781250000
13.704400062561035 -24.048799514770508 88.995201110839844
8.840640068054199 -21.587999343872070 92.498596191406250
13.764100074768066 -24.092199325561523 88.006500244140625
7.842179775238037 -21.087799072265625 91.996597290039063
9.863169670104981 -21.925600051879883 92.893096923828125
10.779100418090820 -21.897399902343750 92.864501953125000
10.825799942016602 -19.583000183105469 91.994796752929688
13.785400390625000 -23.591499328613281 90.499603271484375
13.352000236511230 -25.112499237060547 88.513900756835938
14.299699783325195 -22.592300415039063 90.510803222656250
9.778679847717285 -19.459100723266602 92.400703430175781
8.454959869384766 -20.940900802612305 92.889099121093750
11.434800148010254 -21.240699768066406 93.109397888183594
9.401909828186035 -21.436800003051758 93.402099609375000
10.812500000000000 -18.900400161743164 92.860801696777344
9.890190124511719 -18.822299957275391 93.186302185058594
8.898079872131348 -19.274499893188477 93.136299133300781
10.354100227355957 -18.293199539184570 93.658798217773438
11.285200119018555 -18.372699737548828 93.694000244140625
9.269109725952148 -18.500799179077148 93.928901672363281
10.836700439453125 -17.851400375366211 94.198303222656250
11.222000122070313 -20.919700622558594 93.876899719238281
9.726980209350586 -17.917400360107422 94.354598999023438
10.338899612426758 -21.380699157714844 93.692100524902344
11.586199760437012 -20.290000915527344 94.293800354003906
9.221289634704590 -20.793500900268555 94.127601623535156
8.248959541320801 -20.219400405883789 93.597801208496094
10.314399719238281 -20.955400466918945 94.408798217773438
12.102999687194824 -19.411199569702148 94.376701354980469
8.777910232543945 -20.167699813842773 94.550300598144531
10.791799545288086 -20.476100921630859 94.921401977539062
7.833920001983643 -19.603900909423828 94.009101867675781
7.474020004272461 -19.961900711059570 92.906700134277344
9.726129531860352 -20.389799118041992 95.196998596191406
11.505700111389160 -19.841600418090820 95.159896850585938
10.258999824523926 -17.347499847412109 94.803398132324219
7.351749897003174 -19.084199905395508 93.499298095703125
9.029620170593262 -19.888700485229492 95.370903015136719
8.283630371093750 -19.151899337768555 95.043800354003906
11.356699943542480 -17.439800262451172 94.891403198242188
8.895999908447266 -17.729499816894531 95.115402221679688
10.766799926757813 -19.875299453735352 95.851600646972656
11.572600364685059 -19.285200119018555 95.811096191406250
7.322380065917969 -18.611000061035156 94.515296936035156
9.785180091857910 -19.791700363159180 96.136001586914062
10.820599555969238 -16.920400619506836 95.372100830078125
8.781709671020508 -19.150100708007813 96.039596557617188
9.344260215759277 -17.138500213623047 95.538200378417969
7.901169776916504 -18.529600143432617 95.451698303222656
12.072799682617188 -18.471900939941406 95.911499023437500
10.908599853515625 -19.291799545288086 96.640403747558594
11.253299713134766 -17.332000732421875 96.091598510742188
7.158780097961426 -17.739999771118164 95.108901977539062
8.482839584350586 -18.464799880981445 96.417198181152344
10.293700218200684 -16.426500320434570 95.872703552246094
12.538499832153320 -17.790300369262695 96.110496520996094
9.333840370178223 -19.094400405883789 97.003501892089844
11.384599685668945 -18.686500549316406 97.065299987792969
10.317899703979492 -18.960100173950195 97.412696838378906
9.236020088195801 -16.473100662231445 96.395401000976562
10.357199668884277 -15.794500350952148 96.654998779296875
11.306200027465820 -16.273399353027344 96.620903015136719
9.712360382080078 -15.378399848937988 97.312599182128906
8.990739822387695 -15.880999565124512 97.249603271484375
10.837599754333496 -15.321800231933594 97.287002563476562
10.291399955749512 -14.840299606323242 97.792396545410156
11.272899627685547 -15.286399841308594 98.118698120117187
8.883799552917481 -15.198599815368652 98.094703674316406
8.360690116882324 -17.580999374389648 97.494499206542969
11.770299911499023 -18.043600082397461 97.468399047851562
12.338100433349609 -17.615600585937500 97.016403198242188
8.948719978332520 -18.500099182128906 97.446098327636719
7.825729846954346 -17.608299255371094 96.512397766113281
10.796099662780762 -18.495800018310547 97.930603027343750
11.237899780273438 -17.927200317382812 98.378601074218750
8.430350303649902 -17.048500061035156 98.473098754882813
7.892199993133545 -16.557899475097656 97.976303100585938
12.019800186157227 -16.902299880981445 98.318099975585938
9.829489707946777 -18.596000671386719 98.004402160644531
8.987469673156738 -17.945899963378906 98.414596557617188
9.758549690246582 -14.403900146484375 98.340400695800781
10.334699630737305 -18.205499649047852 98.578201293945313
10.835599899291992 -14.517399787902832 98.446197509765625
7.304530143737793 -16.631200790405273 97.028701782226563
9.771209716796875 -17.824899673461914 99.153602600097656
7.232260227203369 -17.184000015258789 96.065101623535156
11.358499526977539 -15.045700073242188 98.994499206542969
11.680000305175781 -16.855400085449219 99.196701049804688
10.793399810791016 -17.481399536132812 99.428802490234375
8.819160461425781 -17.113899230957031 99.515502929687500
7.172430038452148 -15.747900009155273 98.106399536132812
10.327300071716309 -13.928299903869629 98.886596679687500
7.816579818725586 -15.615599632263184 99.019401550292969
8.285019874572754 -16.130899429321289 99.525901794433594
11.841799736022949 -15.606800079345703 99.512199401855469
8.900930404663086 -14.231699943542480 99.117301940917969
9.802370071411133 -17.247100830078125 100.101997375488280
11.398599624633789 -16.690200805664063 100.068000793457030
11.255399703979492 -14.248499870300293 99.594596862792969
6.966010093688965 -15.022399902343750 98.467201232910156
9.068829536437988 -16.850799560546875 100.351997375488280
9.336299896240234 -13.622400283813477 99.524803161621094
10.375100135803223 -16.862400054931641 100.677001953125000
8.455039978027344 -16.032300949096680 100.469001770019530
7.579179763793945 -14.856800079345703 99.682098388671875
10.320599555969238 -13.341300010681152 99.682800292968750
11.860799789428711 -15.617899894714355 100.518997192382810
11.192999839782715 -16.352600097656250 100.844001770019530
8.121660232543945 -15.215499877929687 100.564002990722660
11.828499794006348 -14.606900215148926 100.511001586914060
9.162090301513672 -16.337200164794922 101.174003601074220
10.308600425720215 -16.422800064086914 101.393997192382810
10.965299606323242 -13.382200241088867 100.372001647949220
9.793769836425781 -12.353599548339844 100.810997009277340
10.782099723815918 -12.714400291442871 101.072998046875000
8.684860229492188 -12.910099983215332 100.834999084472660
10.340399742126465 -12.042799949645996 101.471000671386720
11.466099739074707 -14.011699676513672 100.972999572753910
9.281270027160645 -12.003299713134766 101.418998718261720
8.453639984130859 -12.290599822998047 101.682998657226560
11.384099960327148 -12.523200035095215 101.967002868652340
9.829150199890137 -11.474300384521484 101.914001464843750
7.611279964447022 -14.314999580383301 100.651000976562500
7.972539901733398 -14.525600433349609 101.472000122070310
11.843400001525879 -14.609999656677246 101.514999389648440
8.858880043029785 -11.665699958801270 102.066001892089840
7.734799861907959 -13.662500381469727 102.037002563476560
7.248760223388672 -13.679100036621094 101.057998657226560
12.100700378417969 -13.721799850463867 102.074996948242190
8.446220397949219 -15.508299827575684 101.454002380371090
8.142270088195801 -14.451700210571289 102.436996459960940
11.714799880981445 -15.479599952697754 101.434997558593750
11.170399665832520 -11.898500442504883 102.663002014160160
8.993209838867188 -15.420700073242187 102.386001586914060
11.491100311279297 -14.755999565124512 102.612998962402340
10.267000198364258 -11.270199775695801 102.619003295898440
9.731909751892090 -15.878499984741211 102.192001342773440
10.766599655151367 -15.943799972534180 101.911003112792970
9.316249847412109 -11.061100006103516 102.472000122070310
6.890960216522217 -13.043499946594238 101.470001220703120
6.647540092468262 -13.287599563598633 100.620002746582030
8.701000213623047 -14.752400398254395 103.098999023437500
11.854200363159180 -13.617500305175781 103.017997741699220
10.778800010681152 -15.362099647521973 102.860000610351560
6.754749774932861 -14.176400184631348 99.552200317382813
7.844989776611328 -13.597599983215332 103.008003234863280
9.759889602661133 -15.323499679565430 103.144996643066410
7.302189826965332 -12.625000000000000 102.519996643066410
8.212579727172852 -11.395899772644043 102.818000793457030
8.306130409240723 -14.125499725341797 103.521003723144530
10.895600318908691 -14.790499687194824 103.624000549316410
9.871410369873047 -14.897899627685547 103.878997802734370
11.916999816894531 -11.940699577331543 103.434997558593750
7.516069889068604 -12.519100189208984 103.484001159667970
9.142410278320313 -14.390099525451660 104.186996459960940
7.966509819030762 -13.495699882507324 103.958000183105470
11.496399879455566 -13.781299591064453 104.142997741699220
10.784999847412109 -14.420800209045410 104.390998840332030
8.680259704589844 -13.797200202941895 104.625000000000000
10.331000328063965 -14.147299766540527 105.038002014160160
11.287899971008301 -13.557600021362305 104.974998474121090
11.676300048828125 -11.351799964904785 104.142997741699220
11.769399642944336 -12.575799942016602 104.991996765136720
7.907179832458496 -10.765199661254883 103.652999877929690
8.761320114135742 -10.484000205993652 103.394996643066410
9.803589820861816 -13.756199836730957 105.609001159667970
8.929829597473145 -13.483400344848633 105.439002990722660
10.832500457763672 -11.097399711608887 103.505996704101560
7.201660156250000 -11.666999816894531 104.032997131347660
8.235429763793945 -13.195400238037109 105.058998107910160
9.827389717102051 -10.599300384521484 103.004997253417970
7.620130062103272 -12.489199638366699 104.482002258300780
14.415200233459473 -23.240800857543945 83.641700744628906
13.691599845886230 -24.849599838256836 81.781898498535156
7.267539978027344 -40.410198211669922 72.378700256347656
6.298719882965088 -40.540000915527344 72.478897094726563
6.811250209808350 -40.916400909423828 71.469497680664063
6.793210029602051 -41.486198425292969 69.483497619628906
7.821179866790772 -41.661998748779297 69.517501831054688
5.955259799957275 -41.825599670410156 69.576103210449219
