ply
format ascii 1.0
element vertex 277
property double x
property double y
property double z
end_header
-1.400159955024719 7.493070125579834 -10.361000061035156
-1.400159955024719 7.432069778442383 -10.354999542236328
-1.411159992218018 7.451069831848145 -10.411000251770020
-1.421159982681274 7.551070213317871 -10.390000343322754
-1.392160058021545 7.446070194244385 -10.291000366210937
-1.422150015830994 7.571070194244385 -10.298999786376953
-1.421159982681274 7.616069793701172 -10.357999801635742
-1.358160018920898 7.391069889068604 -10.300999641418457
-1.442160010337830 7.612070083618164 -10.425000190734863
-1.292160034179688 7.416069984436035 -10.303999900817871
-1.380159974098206 7.459070205688477 -10.220999717712402
-1.394160032272339 7.633069992065430 -10.289999961853027
-1.257159948348999 7.425069808959961 -10.352999687194824
-1.424160003662109 7.560070037841797 -10.217000007629395
-1.368160009384155 7.386069774627686 -10.232000350952148
-1.215149998664856 7.465069770812988 -10.328000068664551
-1.373160004615784 7.469069957733154 -10.161999702453613
-1.423149943351746 7.574069976806641 -10.147999763488770
-1.366160035133362 7.471069812774658 -10.083999633789062
-1.424160003662109 7.566070079803467 -10.071999549865723
-1.406159996986389 7.619070053100586 -10.204000473022461
-1.386160016059876 7.376070022583008 -10.145999908447266
-1.401160001754761 7.524069786071777 -10.029999732971191
-1.356160044670105 7.389070034027100 -10.081999778747559
-1.283159971237183 7.407070159912109 -10.211999893188477
-1.324159979820252 7.358069896697998 -10.147000312805176
-1.408159971237183 7.637070178985596 -10.074000358581543
-1.293159961700440 7.393070220947266 -10.081999778747559
-1.242149949073792 7.419069766998291 -10.161000251770020
-1.345160007476807 7.675069808959961 -10.204000473022461
-1.237159967422485 7.444069862365723 -10.258999824523926
-1.404160022735596 7.529069900512695 -9.951040267944336
-1.317160010337830 7.455070018768311 -9.968040466308594
-1.424160003662109 7.577070236206055 -9.982040405273438
-1.342159986495972 7.470069885253906 -9.899040222167969
-1.395149946212769 7.517069816589356 -9.861040115356445
-1.432160019874573 7.578070163726807 -9.895039558410645
-1.258159995079041 7.436069965362549 -10.015999794006348
-1.415159940719605 7.646070003509522 -9.971039772033691
-1.246160030364990 7.443069934844971 -9.941040039062500
-1.294160008430481 7.439070224761963 -9.848039627075195
-1.374150037765503 7.490069866180420 -9.806039810180664
-1.436149954795837 7.622069835662842 -9.854040145874023
-1.427160024642944 7.556069850921631 -9.808039665222168
-1.421159982681274 7.665070056915283 -9.904040336608887
-1.214149951934815 7.590069770812988 -9.969039916992188
-1.257159948348999 7.650070190429688 -9.952039718627930
-1.190160036087036 7.453070163726807 -9.981040000915527
-1.220160007476807 7.444069862365723 -10.071000099182129
-1.407160043716431 7.528069972991943 -9.744039535522461
-1.329159975051880 7.455070018768311 -9.756039619445801
-1.361160039901733 7.478069782257080 -9.700039863586426
-1.431159973144531 7.561069965362549 -9.700039863586426
-1.441159963607788 7.610070228576660 -9.768039703369141
-1.399160027503967 7.519070148468018 -9.664039611816406
-1.268159985542297 7.644070148468018 -9.779040336608887
-1.273159980773926 7.435070037841797 -9.732040405273438
-1.427160024642944 7.670070171356201 -9.765040397644043
-1.448160052299500 7.628069877624512 -9.697039604187012
-1.234159946441650 7.585070133209229 -9.718040466308594
-1.226160049438477 7.593070030212402 -9.816040039062500
-1.320160031318665 7.686069965362549 -9.764039993286133
-1.247159957885742 7.432069778442383 -9.803039550781250
-1.206159949302673 7.558070182800293 -9.771039962768555
-1.303159952163696 7.445069789886475 -9.659040451049805
-1.298149943351746 7.681069850921631 -9.823040008544922
-1.297150015830994 7.667069911956787 -9.704039573669434
-1.382159948348999 7.700069904327393 -9.807040214538574
-1.429149985313416 7.554069995880127 -9.625040054321289
-1.268159985542297 7.654069900512695 -9.874039649963379
-1.344159960746765 7.469069957733154 -9.615039825439453
-1.391160011291504 7.703070163726807 -9.718040466308594
-1.222149968147278 7.588069915771484 -9.882040023803711
-1.192160010337830 7.543069839477539 -9.850040435791016
-1.239159941673279 7.563069820404053 -9.642040252685547
-1.189159989356995 7.518070220947266 -9.701040267944336
-1.414160013198853 7.533070087432861 -9.555040359497070
-1.263149976730347 7.608069896697998 -9.602040290832520
-1.265159964561462 7.597070217132568 -9.540040016174316
-1.252159953117371 7.522069931030273 -9.539039611816406
-1.297150015830994 7.667069911956787 -9.561039924621582
-1.291149973869324 7.657070159912109 -9.632040023803711
-1.455160021781921 7.625070095062256 -9.614040374755859
-1.395149946212769 7.507070064544678 -9.478039741516113
-1.459159970283508 7.619070053100586 -9.539039611816406
-1.323160052299500 7.444069862365723 -9.537039756774902
-1.361160039901733 7.709070205688477 -9.569040298461914
-1.267160058021545 7.575069904327393 -9.463040351867676
-1.405159950256348 7.705070018768311 -9.619039535522461
-1.282160043716431 7.426070213317871 -9.601039886474609
-1.450150012969971 7.574069976806641 -9.470040321350098
-1.288159966468811 7.655069828033447 -9.471039772033691
-1.361160039901733 7.706069946289063 -9.662039756774902
-1.442160010337830 7.677070140838623 -9.662039756774902
-1.327160000801086 7.465069770812988 -9.457039833068848
-1.449159979820252 7.688069820404053 -9.534040451049805
-1.242149949073792 7.430069923400879 -9.659040451049805
-1.192160010337830 7.474070072174072 -9.531040191650391
-1.278159976005554 7.627069950103760 -9.414039611816406
-1.312150001525879 7.683070182800293 -9.374039649963379
-1.294160008430481 7.621069908142090 -9.309040069580078
-1.274160027503967 7.554069995880127 -9.334039688110352
-1.319149971008301 7.694069862365723 -9.434040069580078
-1.290159940719605 7.507070064544678 -9.399040222167969
-1.358160018920898 7.495069980621338 -9.385040283203125
-1.418159961700440 7.523069858551025 -9.385040283203125
-1.378159999847412 7.709070205688477 -9.427040100097656
-1.453160047531128 7.575069904327393 -9.359040260314941
-1.324159979820252 7.509069919586182 -9.308039665222168
-1.337159991264343 7.687069892883301 -9.299039840698242
-1.470160007476807 7.625070095062256 -9.444040298461914
-1.475160002708435 7.639070034027100 -9.372039794921875
-1.454159975051880 7.702070236206055 -9.402039527893066
-1.394160032272339 7.499070167541504 -9.294039726257324
-1.406159996986389 7.722070217132568 -9.322039604187012
-1.434159994125366 7.544069766998291 -9.283040046691895
-1.467159986495972 7.608069896697998 -9.299039840698242
-1.310160040855408 7.646070003509522 -9.241040229797363
-1.451149940490723 7.695069789886475 -9.470040321350098
-1.247159957885742 7.461070060729981 -9.448040008544922
-1.468160033226013 7.693069934844971 -9.316040039062500
-1.354150056838989 7.487070083618164 -9.250040054321289
-1.399160027503967 7.718070030212402 -9.252039909362793
-1.328160047531128 7.677070140838623 -9.167039871215820
-1.300160050392151 7.544069766998291 -9.212039947509766
-1.405159950256348 7.720069885253906 -9.186039924621582
-1.369160056114197 7.708069801330566 -9.131039619445801
-1.305150032043457 7.659070014953613 -9.108039855957031
-1.292160034179688 7.577070236206055 -9.123040199279785
-1.436149954795837 7.548069953918457 -9.214039802551270
-1.464149951934815 7.590069770812988 -9.176039695739746
-1.324159979820252 7.525070190429688 -9.143039703369141
-1.382159948348999 7.499070167541504 -9.180040359497070
-1.432160019874573 7.542069911956787 -9.130040168762207
-1.486160039901733 7.659070014953613 -9.193039894104004
-1.480159997940064 7.658070087432861 -9.260040283203125
-1.469159960746765 7.601069927215576 -9.116040229797363
-1.457149982452393 7.731070041656494 -9.238039970397949
-1.485149979591370 7.658070087432861 -9.130040168762207
-1.382159948348999 7.505070209503174 -9.111040115356445
-1.417160034179688 7.733069896697998 -9.090040206909180
-1.471150040626526 7.719069957733154 -9.123040199279785
-1.303159952163696 7.568069934844971 -9.052040100097656
-1.340149998664856 7.705070018768311 -9.041040420532227
-1.343160033226013 7.519070148468018 -9.047039985656738
-1.304149985313416 7.665070056915283 -9.000040054321289
-1.305150032043457 7.627069950103760 -8.940039634704590
-1.337159991264343 7.735070228576660 -8.983039855957031
-1.302160024642944 7.689070224761963 -8.940039634704590
-1.404160022735596 7.742070198059082 -9.020039558410645
-1.321159958839417 7.534070014953613 -8.958040237426758
-1.453160047531128 7.557069778442383 -9.039039611816406
-1.490159988403320 7.619070053100586 -9.019040107727051
-1.407160043716431 7.518070220947266 -9.040040016174316
-1.365159988403320 7.758069992065430 -8.931039810180664
-1.470160007476807 7.557069778442383 -8.980039596557617
-1.490159988403320 7.682069778442383 -9.054039955139160
-1.476160049438477 7.736070156097412 -9.028039932250977
-1.429149985313416 7.762070178985596 -8.949040412902832
-1.374150037765503 7.511069774627686 -8.935040473937988
-1.510159969329834 7.673069953918457 -8.976039886474609
-1.308159947395325 7.562069892883301 -8.885040283203125
-1.421159982681274 7.538070201873779 -8.903039932250977
-1.327160000801086 7.714069843292236 -8.867039680480957
-1.318150043487549 7.648069858551025 -8.851039886474609
-1.491160035133362 7.724070072174072 -8.950039863586426
-1.477159976959229 7.580070018768311 -8.898039817810059
-1.523159980773926 7.575069904327393 -8.945039749145508
-1.332149982452393 7.683070182800293 -8.769040107727051
-1.364159941673279 7.742070198059082 -8.808039665222168
-1.316159963607788 7.597070217132568 -8.747039794921875
-1.317160010337830 7.565070152282715 -8.817040443420410
-1.370159983634949 7.749070167541504 -8.732040405273438
-1.487159967422485 7.604070186614990 -8.811039924621582
-1.427160024642944 7.542069911956787 -8.799039840698242
-1.358160018920898 7.533070087432861 -8.764039993286133
-1.373160004615784 7.787069797515869 -8.861040115356445
-1.324159979820252 7.651070117950440 -8.680040359497070
-1.450150012969971 7.564070224761963 -8.735039710998535
-1.343160033226013 7.709070205688477 -8.677040100097656
-1.520149946212769 7.657070159912109 -8.809040069580078
-1.397160053253174 7.541069984436035 -8.716039657592773
-1.449159979820252 7.773069858551025 -8.886039733886719
-1.372159957885742 7.510069847106934 -8.863039970397949
-1.415159940719605 7.812069892883301 -8.815039634704590
-1.498160004615784 7.606070041656494 -8.729040145874023
-1.340149998664856 7.557069778442383 -8.691040039062500
-1.524160027503967 7.721069812774658 -8.846039772033691
-1.525159955024719 7.630070209503174 -8.889039993286133
-1.380159974098206 7.759069919586182 -8.667039871215820
-1.477159976959229 7.806069850921631 -8.805040359497070
-1.363160014152527 7.842070102691650 -8.818039894104004
-1.531159996986389 7.757070064544678 -8.798040390014648
-1.545160055160523 7.687069892883301 -8.744039535522461
-1.334159970283508 7.673069953918457 -8.619039535522461
-1.369160056114197 7.736070156097412 -8.589039802551270
-1.333150029182434 7.617070198059082 -8.560040473937988
-1.333150029182434 7.578070163726807 -8.633040428161621
-1.383159995079041 7.749070167541504 -8.522040367126465
-1.478150010108948 7.606070041656494 -8.588040351867676
-1.356160044670105 7.560070037841797 -8.562040328979492
-1.401160001754761 7.815070152282715 -8.640040397644043
-1.458150029182434 7.574069976806641 -8.640040397644043
-1.396160006523132 7.540070056915283 -8.655039787292481
-1.499150037765503 7.647069931030273 -8.548040390014648
-1.413159966468811 7.538070201873779 -8.596039772033691
-1.408159971237183 7.805069923400879 -8.529040336608887
-1.441159963607788 7.562069892883301 -8.542039871215820
-1.519160032272339 7.635069847106934 -8.670040130615234
-1.543159961700440 7.682069778442383 -8.638039588928223
-1.546159982681274 7.687069892883301 -8.571040153503418
-1.522160053253174 7.713069915771484 -8.500040054321289
-1.526160001754761 7.703070163726807 -8.332039833068848
-1.445160031318665 7.799069881439209 -8.338040351867676
-1.507159948348999 7.764070034027100 -8.341039657592773
-1.391160011291504 7.769070148468018 -8.347040176391602
-1.546159982681274 7.693069934844971 -8.389039993286133
-1.403159976005554 7.767069816589356 -8.422039985656738
-1.491160035133362 7.818069934844971 -8.434040069580078
-1.529160022735596 7.766069889068604 -8.438039779663086
-1.469159960746765 7.564070224761963 -8.429039955139160
-1.360149979591370 7.722070217132568 -8.446040153503418
-1.428159952163696 7.815070152282715 -8.468040466308594
-1.504160046577454 7.670070171356201 -8.461039543151856
-1.362159967422485 7.547070026397705 -8.446040153503418
-1.573160052299500 7.764070034027100 -8.486040115356445
-1.479150056838989 7.601069927215576 -8.476039886474609
-1.426159977912903 7.544069766998291 -8.483039855957031
-1.346150040626526 7.685070037841797 -8.502039909362793
-1.338160037994385 7.598070144653320 -8.493040084838867
-1.586159944534302 7.716070175170898 -8.535039901733398
-1.439159989356995 7.886069774627686 -8.580039978027344
-1.603150010108948 7.738070011138916 -8.597040176391602
-1.584159970283508 7.791069984436035 -8.619039535522461
-1.455160021781921 7.874070167541504 -8.643039703369141
-1.591160058975220 7.732069969177246 -8.656040191650391
-1.514160037040710 7.867070198059082 -8.687040328979492
-1.563159942626953 7.762070178985596 -8.700039863586426
-1.551159977912903 7.821070194244385 -8.712039947509766
-1.444149971008301 7.844069957733154 -8.713040351867676
-1.598160028457642 7.716070175170898 -8.735039710998535
-1.504160046577454 7.831069946289063 -8.756039619445801
-1.394160032272339 7.850069999694824 -8.759039878845215
-1.575150012969971 7.687069892883301 -8.847040176391602
-1.551159977912903 7.632070064544678 -8.948040008544922
-1.163159966468811 7.478069782257080 -9.433039665222168
-1.176159977912903 7.441070079803467 -9.481040000915527
-1.216160058975220 7.396070003509522 -9.504039764404297
-1.210160017013550 7.416069984436035 -9.589039802551270
-1.184159994125366 7.467070102691650 -9.637040138244629
-1.197160005569458 7.435070037841797 -9.739040374755859
-1.173149943351746 7.489069938659668 -9.778039932250977
-1.319149971008301 7.733069896697998 -9.853039741516113
-1.384160041809082 7.709070205688477 -9.873040199279785
-1.170160055160523 7.462069988250732 -9.837039947509766
-1.202160000801086 7.449069976806641 -9.895039558410645
-1.316159963607788 7.707069873809815 -9.935040473937988
-1.395149946212769 7.713069915771484 -9.946040153503418
-1.179149985313416 7.526070117950440 -9.930040359497070
-1.241160035133362 7.636069774627686 -10.038999557495117
-1.189159989356995 7.556069850921631 -10.027999877929687
-1.263149976730347 7.693069934844971 -10.050000190734863
-1.188159942626953 7.568069934844971 -10.086999893188477
-1.174160003662109 7.485070228576660 -10.079000473022461
-1.204159975051880 7.664070129394531 -10.135000228881836
-1.197160005569458 7.453070163726807 -10.133000373840332
-1.175160050392151 7.579070091247559 -10.145000457763672
-1.163159966468811 7.509069919586182 -10.166999816894531
-1.124150037765503 7.633069992065430 -10.189000129699707
-1.142160058021545 7.560070037841797 -10.232999801635742
-1.347149968147278 7.670070171356201 -10.281000137329102
-1.187150001525879 7.487070083618164 -10.260000228881836
-1.286159992218018 7.682069778442383 -10.286000251770020
-1.135159969329834 7.576069831848145 -10.310000419616699
-1.242149949073792 7.717070102691650 -10.343999862670898
-1.164160013198853 7.519070148468018 -10.352999687194824
-1.277150034904480 7.704070091247559 -10.413999557495117
