ply
format ascii 1.0
element vertex 484
property double x
property double y
property double z
end_header
-2.081160068511963 10.019100189208984 -7.568039894104004
-2.049160003662109 9.970069885253906 -7.537040233612061
-2.019160032272339 10.021100044250488 -7.555039882659912
-2.081160068511963 10.019100189208984 -7.568039894104004
-2.041150093078613 10.105099678039551 -7.580039978027344
-2.095160007476807 9.946069717407227 -7.570040225982666
-2.038160085678101 9.906069755554199 -7.578040122985840
-1.979150056838989 10.195099830627441 -7.612040042877197
-2.079159975051880 9.840069770812988 -7.582039833068848
-1.995159983634949 10.130100250244141 -7.614039897918701
-2.114160060882568 9.895070075988770 -7.597040176391602
-2.091160058975220 10.088100433349609 -7.619040012359619
-2.116159915924072 10.027099609375000 -7.619040012359619
-2.057159900665283 9.774069786071777 -7.593039989471436
-2.011159896850586 10.023099899291992 -7.619040012359619
-2.062150001525879 10.177100181579590 -7.646039962768555
-2.022160053253174 9.697070121765137 -7.594039916992188
-2.137160062789917 9.959070205688477 -7.633039951324463
-2.027149915695190 9.835069656372070 -7.614039897918701
-2.288160085678101 10.225099563598633 -7.676040172576904
-2.321160078048706 10.281100273132324 -7.684040069580078
-2.110150098800659 9.777070045471191 -7.621039867401123
-2.342159986495972 10.132100105285645 -7.672039985656738
-2.272160053253174 10.111100196838379 -7.666039943695068
-2.028160095214844 10.235099792480469 -7.667039871215820
-2.233160018920898 10.040100097656250 -7.661039829254150
-2.339149951934815 10.191100120544434 -7.684040069580078
-2.140160083770752 10.096099853515625 -7.664040088653565
-2.029160022735596 9.898070335388184 -7.639039993286133
-2.083149909973145 9.678070068359375 -7.619040012359619
-2.044159889221191 9.628069877624512 -7.612040042877197
-2.087160110473633 10.242099761962891 -7.680039882659912
-2.116159915924072 10.188099861145020 -7.676040172576904
-2.167160034179688 10.039099693298340 -7.664040088653565
-2.242150068283081 10.178099632263184 -7.683040142059326
-2.323159933090210 10.055100440979004 -7.676040172576904
-2.134160041809082 9.835069656372070 -7.643040180206299
-2.208149909973145 10.124099731445312 -7.679039955139160
-2.285160064697266 9.997070312500000 -7.670040130615234
-2.012160062789917 9.767069816589356 -7.634039878845215
-2.206160068511963 9.984069824218750 -7.668039798736572
-1.847149968147278 9.190070152282715 -7.566040039062500
-2.167160034179688 9.907070159912109 -7.659039974212647
-2.232160091400147 9.914070129394531 -7.669040203094482
-1.990159988403320 9.658069610595703 -7.630040168762207
-2.180150032043457 10.185099601745605 -7.696040153503418
-2.032160043716431 9.972069740295410 -7.666039943695068
-2.029160022735596 10.046099662780762 -7.674039840698242
-2.242150068283081 9.213069915771484 -7.599040031433106
-2.305150032043457 9.205069541931152 -7.602039813995361
-2.197160005569458 9.847069740295410 -7.667039871215820
-2.131150007247925 9.709070205688477 -7.650040149688721
-1.893159985542297 9.243069648742676 -7.591040134429932
-2.209160089492798 10.241100311279297 -7.715040206909180
-2.183160066604614 9.786069869995117 -7.666039943695068
-1.990159988403320 9.544070243835449 -7.630040168762207
-1.837159991264343 9.073069572448731 -7.573040008544922
-2.134160041809082 10.260100364685059 -7.714039802551270
-2.244159936904907 9.152070045471191 -7.604040145874023
-1.904160022735596 9.181070327758789 -7.589039802551270
-2.308160066604614 9.937069892883301 -7.691040039062500
-1.888149976730347 9.117070198059082 -7.582039833068848
-2.284149885177612 10.373100280761719 -7.736040115356445
-2.349159955978394 10.369099617004395 -7.740039825439453
-2.175159931182861 9.236069679260254 -7.612040042877197
-2.214149951934815 9.289070129394531 -7.620039939880371
-2.051160097122192 9.554070472717285 -7.639039993286133
-2.019160032272339 10.184100151062012 -7.704040050506592
-1.976160049438477 9.473070144653320 -7.628039836883545
-2.187150001525879 9.171070098876953 -7.609039783477783
-1.882159948348999 9.312069892883301 -7.607039928436279
-2.356159925460815 10.301099777221680 -7.737040042877197
-2.039160013198853 10.109100341796875 -7.700039863586426
-2.238159894943237 10.326100349426270 -7.734039783477783
-2.343159914016724 10.239100456237793 -7.733039855957031
-2.036159992218018 9.487070083618164 -7.640039920806885
-2.083149909973145 10.337100028991699 -7.732039928436279
-2.268160104751587 9.323069572448731 -7.636040210723877
-2.002160072326660 9.419070243835449 -7.633039951324463
-2.278160095214844 9.874070167541504 -7.696040153503418
-2.093159914016724 9.602069854736328 -7.658040046691895
-1.949159979820252 9.336070060729981 -7.623040199279785
-2.324160099029541 9.252070426940918 -7.635039806365967
-2.040159940719605 9.807069778442383 -7.678040027618408
-2.244159936904907 9.803070068359375 -7.690040111541748
-2.018160104751587 10.355099678039551 -7.737040042877197
-2.159149885177612 9.329070091247559 -7.638040065765381
-2.302160024642944 9.138070106506348 -7.626039981842041
-2.219160079956055 9.739069938659668 -7.686039924621582
-2.213160037994385 9.360070228576660 -7.646039962768555
-2.162159919738770 10.312100410461426 -7.743040084838867
-2.158159971237183 9.624070167541504 -7.672039985656738
-2.063159942626953 9.896069526672363 -7.696040153503418
-1.958150029182434 9.248069763183594 -7.623040199279785
-2.010159969329834 9.352069854736328 -7.637040138244629
-2.204159975051880 9.439069747924805 -7.657040119171143
-1.922150015830994 9.391070365905762 -7.637040138244629
-2.324160099029541 10.124099731445312 -7.736040115356445
-2.034149885177612 9.730070114135742 -7.679039955139160
-2.327159881591797 9.318070411682129 -7.653039932250977
-1.980159997940064 10.298100471496582 -7.737040042877197
-2.342159986495972 10.055100440979004 -7.734039783477783
-2.070159912109375 9.988069534301758 -7.712039947509766
-2.109159946441650 9.287070274353027 -7.643040180206299
-1.790159940719605 9.012069702148438 -7.597040176391602
-2.120160102844238 9.544070243835449 -7.671040058135986
-2.138149976730347 9.143070220947266 -7.630040168762207
-2.327159881591797 10.418100357055664 -7.775040149688721
-2.285160064697266 9.390069961547852 -7.665040016174316
-2.136159896850586 10.364100456237793 -7.759039878845215
-2.163160085678101 9.493069648742676 -7.671040058135986
-2.136159896850586 9.391070365905762 -7.659039974212647
-2.071160078048706 9.337070465087891 -7.650040149688721
-2.066159963607788 9.423069953918457 -7.659039974212647
-2.202159881591797 9.547069549560547 -7.681039810180664
-2.077159881591797 10.061100006103516 -7.728040218353272
-2.041150093078613 10.406100273132324 -7.763040065765381
-2.114160060882568 9.220069885253906 -7.643040180206299
-2.244159936904907 10.421099662780762 -7.778039932250977
-2.103149890899658 9.479069709777832 -7.672039985656738
-2.345160007476807 9.971070289611816 -7.737040042877197
-1.947160005569458 9.133069992065430 -7.628039836883545
-2.194149971008301 10.386099815368652 -7.773039817810059
-2.027149915695190 9.653070449829102 -7.687039852142334
-2.109159946441650 10.434100151062012 -7.776040077209473
-2.256150007247925 9.489069938659668 -7.686039924621582
-2.104150056838989 9.938070297241211 -7.729040145874023
-2.279160022735596 10.080100059509277 -7.754039764404297
-2.239160060882568 9.640069961547852 -7.706039905548096
-2.279160022735596 10.169099807739258 -7.764039993286133
-1.843160033226013 9.155070304870606 -7.634039878845215
-2.064160108566284 10.172100067138672 -7.753039836883545
-2.266160011291504 9.754070281982422 -7.721039772033691
-2.052160024642944 9.263070106506348 -7.658040046691895
-2.184159994125366 9.088069915771484 -7.647039890289307
-2.024159908294678 10.256099700927734 -7.761040210723877
-1.952160000801086 9.437069892883301 -7.672039985656738
-2.128159999847412 10.033100128173828 -7.745039939880371
-2.096149921417236 9.837070465087891 -7.723040103912354
-1.995159983634949 9.573069572448731 -7.690040111541748
-1.885159969329834 9.255069732666016 -7.651040077209473
-1.895149946212769 9.037070274353027 -7.629039764404297
-2.292160034179688 10.230099678039551 -7.776040077209473
-2.107160091400147 10.515099525451660 -7.796040058135986
-2.120160102844238 10.136099815368652 -7.759039878845215
-2.332149982452393 9.909070014953613 -7.747039794921875
-1.749150037765503 8.944069862365723 -7.614039897918701
-2.080159902572632 9.160070419311523 -7.655039787292481
-2.270149946212769 9.553070068359375 -7.707039833068848
-2.289160013198853 9.212070465087891 -7.674039840698242
-2.277149915695190 9.096070289611816 -7.663040161132813
-2.273159980773926 10.487099647521973 -7.809040069580078
-2.080159902572632 9.684069633483887 -7.715040206909180
-2.209160089492798 10.129099845886230 -7.769040107727051
-2.307159900665283 9.831069946289063 -7.744040012359619
-2.315160036087036 10.351099967956543 -7.799039840698242
-2.182159900665283 10.468099594116211 -7.804039955139160
-2.104150056838989 9.758069992065430 -7.726039886474609
-2.012160062789917 9.191069602966309 -7.662040233612061
-2.041150093078613 10.499099731445312 -7.801040172576904
-2.293159961700440 9.993069648742676 -7.762040138244629
-2.167160034179688 10.085100173950195 -7.765039920806885
-2.224159955978394 10.057100296020508 -7.766039848327637
-1.853150010108948 8.967069625854492 -7.632040023803711
-2.051160097122192 9.602069854736328 -7.711040019989014
-1.952160000801086 9.067070007324219 -7.651040077209473
-1.811149954795837 8.924070358276367 -7.629039764404297
-2.301160097122192 9.278070449829102 -7.694039821624756
-2.096149921417236 10.219099998474121 -7.782040119171143
-1.993160009384155 10.377099990844727 -7.793039798736572
-2.161159992218018 9.957070350646973 -7.760039806365967
-2.230159997940064 9.995070457458496 -7.768040180206299
-2.071160078048706 10.574099540710449 -7.820040225982666
-2.013149976730347 9.496069908142090 -7.704040050506592
-1.771160006523132 8.873069763183594 -7.626039981842041
-2.283159971237183 10.300100326538086 -7.806039810180664
-2.312150001525879 9.346070289611816 -7.708040237426758
-1.888149976730347 9.195070266723633 -7.670040130615234
-2.162159919738770 10.545100212097168 -7.829040050506592
-2.031160116195679 9.122070312500000 -7.673039913177490
-2.155159950256348 9.839070320129395 -7.755040168762207
-2.113159894943237 10.620100021362305 -7.836040019989014
-2.076149940490723 10.289099693298340 -7.800039768218994
-2.226160049438477 10.534099578857422 -7.834040164947510
-2.255160093307495 9.154069900512695 -7.691040039062500
-2.278160095214844 9.878069877624512 -7.769040107727051
-1.822160005569458 9.064069747924805 -7.659039974212647
-2.326149940490723 10.515099525451660 -7.841040134429932
-1.996160030364990 9.378069877624512 -7.704040050506592
-2.069149971008301 9.537070274353027 -7.725039958953857
-2.194149971008301 9.900070190429688 -7.770040035247803
-2.309159994125366 10.431099891662598 -7.832039833068848
-2.229150056838989 10.232099533081055 -7.807040214538574
-1.939159989356995 9.228070259094238 -7.686039924621582
-1.749150037765503 8.765069961547852 -7.628039836883545
-2.322160005569458 9.491069793701172 -7.736040115356445
-2.158159971237183 9.765069961547852 -7.756040096282959
-2.144160032272339 9.685070037841797 -7.747039794921875
-2.170160055160523 10.213100433349609 -7.804039955139160
-2.308160066604614 9.758069992065430 -7.764039993286133
-2.289160013198853 10.562100410461426 -7.849040031433106
-2.113159894943237 9.597069740295410 -7.739039897918701
-2.072160005569458 9.061070442199707 -7.682040214538574
-1.911159992218018 8.968070030212402 -7.664040088653565
-2.135159969329834 9.022069931030273 -7.684040069580078
-1.986160039901733 9.278070449829102 -7.704040050506592
-1.867149949073792 8.911069869995117 -7.659039974212647
-2.252160072326660 9.038069725036621 -7.695040225982666
-2.047149896621704 10.356100082397461 -7.822040081024170
-2.229150056838989 9.789070129394531 -7.773039817810059
-2.299160003662109 9.413069725036621 -7.738039970397949
-2.046159982681274 9.410070419311523 -7.724040031433106
-2.075150012969971 9.466070175170898 -7.732039928436279
-2.221149921417236 9.231069564819336 -7.716040134429932
-2.306159973144531 9.604069709777832 -7.760039806365967
-1.823160052299500 8.850069999694824 -7.655039787292481
-2.304150104522705 9.693070411682129 -7.770040035247803
-2.195159912109375 10.596099853515625 -7.859039783477783
-2.349159955978394 10.566100120544434 -7.865039825439453
-2.154160022735596 10.654100418090820 -7.865039825439453
-2.214149951934815 8.989069938659668 -7.694039821624756
-2.222150087356567 9.106069564819336 -7.707039833068848
-2.149159908294678 9.286069869995117 -7.722040176391602
-2.238159894943237 9.723070144653320 -7.773039817810059
-2.255160093307495 9.370070457458496 -7.737040042877197
-1.989159941673279 9.035070419311523 -7.688039779663086
-2.202159881591797 9.663069725036621 -7.766039848327637
-2.108160018920898 9.330069541931152 -7.726039886474609
-2.181159973144531 9.345069885253906 -7.732039928436279
-2.038160085678101 9.334070205688477 -7.723040103912354
-2.192159891128540 9.408069610595703 -7.741040229797363
-2.201149940490723 9.174070358276367 -7.718039989471436
-2.185159921646118 10.289099693298340 -7.834040164947510
-2.131150007247925 9.506070137023926 -7.749040126800537
-2.106159925460815 10.335100173950195 -7.835040092468262
-2.119159936904907 9.420069694519043 -7.740039825439453
-2.167160034179688 9.575070381164551 -7.759039878845215
-2.290159940719605 9.535070419311523 -7.763040065765381
-2.261159896850586 9.472069740295410 -7.755040168762207
-2.227159976959229 10.357099533081055 -7.846039772033691
-2.237159967422485 9.600069999694824 -7.768040180206299
-2.150160074234009 9.223070144653320 -7.724040031433106
-2.210160017013550 9.523070335388184 -7.759039878845215
-2.185159921646118 9.467069625854492 -7.752039909362793
-1.874150037765503 9.083069801330566 -7.695040225982666
-1.807160019874573 8.789070129394531 -7.663040161132813
-1.958150029182434 9.139069557189941 -7.709040164947510
-2.060159921646118 9.220069885253906 -7.724040031433106
-1.989159941673279 9.190070152282715 -7.718039989471436
-1.766160011291504 8.915069580078125 -7.677040100097656
-2.027149915695190 8.986069679260254 -7.699039936065674
-1.724159955978394 8.839070320129395 -7.667039871215820
-1.963160037994385 8.974069595336914 -7.695040225982666
-2.043159961700440 10.594099998474121 -7.870039939880371
-2.073159933090210 10.416099548339844 -7.854040145874023
-1.765159964561462 8.714070320129395 -7.660039901733398
-2.235150098800659 10.659099578857422 -7.892039775848389
-2.190160036087036 9.042070388793945 -7.725039958953857
-2.159149885177612 10.365099906921387 -7.862040042877197
-1.941159963607788 9.073069572448731 -7.716040134429932
-1.849159955978394 9.014069557189941 -7.705039978027344
-2.065160036087036 10.492099761962891 -7.874040126800537
-2.062150001525879 8.927069664001465 -7.710040092468262
-2.243160009384155 10.410099983215332 -7.876039981842041
-2.102159976959229 9.110070228576660 -7.734039783477783
-2.303159952163696 10.526100158691406 -7.897039890289307
-1.871160030364990 8.811070442199707 -7.697040081024170
-1.926159977912903 8.891070365905762 -7.710040092468262
-2.226160049438477 8.940070152282715 -7.732039928436279
-2.015160083770752 9.127070426940918 -7.741040229797363
-2.121160030364990 9.050069808959961 -7.739039897918701
-2.177160024642944 10.432100296020508 -7.888040065765381
-2.167160034179688 8.987070083618164 -7.738039970397949
-1.713160037994385 8.783069610595703 -7.692039966583252
-2.128159999847412 10.471099853515625 -7.892039775848389
-1.815160036087036 8.935070037841797 -7.714039802551270
-2.319149971008301 10.585100173950195 -7.915040016174316
-1.915159940719605 8.996069908142090 -7.730040073394775
-2.090150117874146 10.620100021362305 -7.910039901733398
-2.053159952163696 9.063070297241211 -7.745039939880371
-2.185159921646118 10.677100181579590 -7.922039985656738
-2.258160114288330 10.472100257873535 -7.905039787292481
-2.136159896850586 8.852069854736328 -7.729040145874023
-2.099159955978394 10.558099746704102 -7.907040119171143
-2.280159950256348 10.643099784851074 -7.929039955139160
-1.989159941673279 9.009070396423340 -7.745039939880371
-1.845160007476807 8.709070205688477 -7.706039905548096
-2.074160099029541 9.003069877624512 -7.750040054321289
-1.694149971008301 8.656069755554199 -7.693039894104004
-2.076149940490723 8.809069633483887 -7.732039928436279
-1.999150037765503 8.846070289611816 -7.732039928436279
-1.766160011291504 8.844070434570313 -7.722040176391602
-2.220160007476807 10.523099899291992 -7.924039840698242
-1.757159948348999 8.648070335388184 -7.702040195465088
-2.128159999847412 10.701100349426270 -7.938039779663086
-2.106159925460815 8.951069831848145 -7.754039764404297
-2.162159919738770 8.909070014953613 -7.754039764404297
-2.158159971237183 10.541099548339844 -7.926040172576904
-2.252160072326660 10.577099800109863 -7.936039924621582
-2.144160032272339 10.603099822998047 -7.933040142059326
-1.932160019874573 8.827070236206055 -7.736040115356445
-2.189160108566284 8.833069801330566 -7.751039981842041
-1.879160046577454 8.936070442199707 -7.745039939880371
-1.884160041809082 8.751070022583008 -7.726039886474609
-2.049160003662109 8.738069534301758 -7.737040042877197
-1.814159989356995 8.876070022583008 -7.739039897918701
-1.945160031318665 8.947070121765137 -7.754039764404297
-2.213160037994385 10.625100135803223 -7.945040225982666
-2.107160091400147 8.719070434570313 -7.740039825439453
-2.034149885177612 8.951069831848145 -7.762040138244629
-2.011159896850586 8.787070274353027 -7.744040012359619
-2.177160024642944 8.767069816589356 -7.757040023803711
-2.053159952163696 8.668069839477539 -7.741040229797363
-2.084160089492798 8.889069557189941 -7.770040035247803
-1.873160004615784 8.660070419311523 -7.736040115356445
-2.021159887313843 8.889069557189941 -7.771039962768555
-2.143160104751587 8.649069786071777 -7.753039836883545
-2.055150032043457 8.593070030212402 -7.745039939880371
-1.937150001525879 8.884070396423340 -7.772039890289307
-1.988160014152527 8.724069595336914 -7.760039806365967
-2.128159999847412 8.804070472717285 -7.777040004730225
-1.988160014152527 8.618069648742676 -7.750040054321289
-1.735149979591370 8.750069618225098 -7.752039909362793
-1.699159979820252 8.701069831848145 -7.746039867401123
-1.926159977912903 8.715069770812988 -7.760039806365967
-1.939159989356995 8.654069900512695 -7.756040096282959
-1.825150012969971 8.616069793701172 -7.746039867401123
-2.107160091400147 8.565070152282715 -7.760039806365967
-2.004159927368164 8.534070014953613 -7.755040168762207
-1.705160021781921 8.615070343017578 -7.750040054321289
-2.057159900665283 8.803070068359375 -7.790040016174316
-1.878159999847412 8.814069747924805 -7.785039901733398
-1.795160055160523 8.766070365905762 -7.784039974212647
-2.034149885177612 8.460069656372070 -7.767039775848389
-2.080159902572632 8.716070175170898 -7.800039768218994
-2.069149971008301 8.516070365905762 -7.779039859771729
-1.965149998664856 8.776069641113281 -7.801040172576904
-1.874150037765503 8.580069541931152 -7.776040077209473
-1.946159958839417 8.534070014953613 -7.778039932250977
-1.765159964561462 8.587070465087891 -7.777040004730225
-2.082149982452393 8.613069534301758 -7.801040172576904
-1.647160053253174 8.614069938659668 -7.779039859771729
-1.762159943580627 8.711070060729981 -7.799039840698242
-1.908159971237183 8.741069793701172 -7.811039924621582
-2.019160032272339 8.704070091247559 -7.817039966583252
-1.706159949302673 8.661069869995117 -7.797039985656738
-1.982159972190857 8.470069885253906 -7.797039985656738
-1.835160017013550 8.728070259094238 -7.816040039062500
-2.007159948348999 8.647069931030273 -7.833040237426758
-2.039160013198853 8.572070121765137 -7.835040092468262
-1.606160044670105 8.584070205688477 -7.814040184020996
-2.037159919738770 8.489069938659668 -7.833040237426758
-1.829159975051880 8.554070472717285 -7.830039978027344
-1.904160022735596 8.661069869995117 -7.847040176391602
-1.935160040855408 8.493069648742676 -7.835040092468262
-2.018160104751587 8.423069953918457 -7.836040019989014
-1.665159940719605 8.551070213317871 -7.831039905548096
-1.765159964561462 8.633069992065430 -7.846039772033691
-1.886160016059876 8.536069869995117 -7.852039813995361
-1.961159944534302 8.601070404052734 -7.864039897918701
-1.749150037765503 8.534070014953613 -7.852039813995361
-1.899160027503967 8.608070373535156 -7.875040054321289
-1.816159963607788 8.610070228576660 -7.874040126800537
-1.714149951934815 8.581069946289063 -7.873040199279785
-1.996160030364990 8.493069648742676 -7.881040096282959
-1.598160028457642 8.547069549560547 -7.868040084838867
-1.942160010337830 8.535070419311523 -7.893040180206299
-1.894160032272339 8.465069770812988 -7.888040065765381
-1.687150001525879 8.498069763183594 -7.889039993286133
-1.863160014152527 8.559069633483887 -7.906040191650391
-1.941159963607788 8.386070251464844 -7.893040180206299
-1.782160043716431 8.544070243835449 -7.904039859771729
-2.002160072326660 8.363069534301758 -7.912040233612061
-1.832149982452393 8.481069564819336 -7.915040016174316
-1.969159960746765 8.447070121765137 -7.922039985656738
-1.636160016059876 8.518070220947266 -7.914040088653565
-1.876160025596619 8.417070388793945 -7.924039840698242
-1.587159991264343 8.470069885253906 -7.923039913177490
-1.723160028457642 8.519069671630859 -7.941040039062500
-1.913159966468811 8.472069740295410 -7.947040081024170
-1.901160001754761 8.362070083618164 -7.940040111541748
-1.749150037765503 8.452070236206055 -7.945040225982666
-1.785159945487976 8.507069587707520 -7.953040122985840
-1.641160011291504 8.432069778442383 -7.940040111541748
-1.965149998664856 8.391070365905762 -7.958040237426758
-1.545160055160523 8.427069664001465 -7.944039821624756
-1.866160035133362 8.448069572448731 -7.980040073394775
-1.674160003662109 8.461070060729981 -7.983039855957031
-1.973160028457642 8.313070297241211 -7.989039897918701
-1.902150034904480 8.319069862365723 -7.987040042877197
-1.908159971237183 8.394069671630859 -7.998040199279785
-1.809159994125366 8.437069892883301 -8.001040458679199
-1.604150056838989 8.426070213317871 -7.990039825439453
-1.749150037765503 8.444069862365723 -8.006039619445801
-1.817160010337830 8.361069679260254 -8.002039909362793
-1.695160031318665 8.376070022583008 -8.000040054321289
-1.620159983634949 8.363069534301758 -8.000040054321289
-1.746160030364990 8.349069595336914 -8.022040367126465
-1.953160047531128 8.268070220947266 -8.032039642333984
-1.866160035133362 8.353070259094238 -8.042039871215820
-1.631150007247925 8.314069747924805 -8.037039756774902
-1.831159949302673 8.277070045471191 -8.049039840698242
-1.555150032043457 8.326069831848145 -8.039039611816406
-1.690160036087036 8.360070228576660 -8.066040039062500
-1.693150043487549 8.279069900512695 -8.065039634704590
-1.806159973144531 8.325070381164551 -8.082039833068848
-1.774160027503967 8.254070281982422 -8.073040008544922
-1.747159957885742 8.345069885253906 -8.083040237426758
-1.907160043716431 8.254070281982422 -8.083040237426758
-1.601160049438477 8.225069999694824 -8.064040184020996
-1.854150056838989 8.215069770812988 -8.090040206909180
-1.938159942626953 8.199069976806641 -8.095040321350098
-1.529160022735596 8.247070312500000 -8.078040122985840
-1.704159975051880 8.221070289611816 -8.085040092468262
-1.556159973144531 8.181070327758789 -8.080039978027344
-1.649160027503967 8.188070297241211 -8.095040321350098
-1.734159946441650 8.298069953918457 -8.124039649963379
-1.661159992218018 8.280070304870606 -8.122039794921875
-1.769160032272339 8.186070442199707 -8.119039535522461
-1.814159989356995 8.240070343017578 -8.131039619445801
-1.901160001754761 8.164070129394531 -8.130040168762207
-1.716160058975220 8.150070190429688 -8.134039878845215
-1.843160033226013 8.144069671630859 -8.146039962768555
-1.538159966468811 8.110070228576660 -8.129039764404297
-1.617149949073792 8.116069793701172 -8.136039733886719
-1.757159948348999 8.235070228576660 -8.157039642333984
-1.595160007476807 8.206069946289063 -8.154040336608887
-1.552160024642944 8.163069725036621 -8.155039787292481
-1.791149973869324 8.168069839477539 -8.175040245056152
-1.761160016059876 8.105070114135742 -8.173040390014648
-1.707149982452393 8.215069770812988 -8.186039924621582
-1.650159955024719 8.196069717407227 -8.186039924621582
-1.695160031318665 8.066069602966309 -8.180040359497070
-1.806159973144531 8.066069602966309 -8.187040328979492
-1.630159974098206 8.059069633483887 -8.181039810180664
-1.567160010337830 8.058070182800293 -8.178039550781250
-1.604150056838989 8.153070449829102 -8.211039543151856
-1.731160044670105 8.149069786071777 -8.224040031433106
-1.673149943351746 8.013070106506348 -8.208040237426758
-1.518159985542297 8.070070266723633 -8.219039916992188
-1.762159943580627 8.044070243835449 -8.241040229797363
-1.769160032272339 7.972070217132568 -8.237039566040039
-1.703160047531128 7.959070205688477 -8.241040229797363
-1.664160013198853 8.144069671630859 -8.269040107727051
-1.761160016059876 8.096070289611816 -8.273039817810059
-1.651160001754761 7.971069812774658 -8.269040107727051
-1.759160041809082 7.919069766998291 -8.271039962768555
-1.608160018920898 8.108070373535156 -8.291040420532227
-1.758159995079041 8.022069931030273 -8.304039955139160
-1.546159982681274 8.065070152282715 -8.297039985656738
-1.576149940490723 8.010069847106934 -8.296039581298828
-1.684159994125366 8.090069770812988 -8.333040237426758
-1.754160046577454 7.913070201873779 -8.337039947509766
-1.682160019874573 7.928070068359375 -8.338040351867676
-1.622159957885742 7.956069946289063 -8.339039802551270
-1.687150001525879 8.035070419311523 -8.364040374755859
-1.592159986495972 8.061070442199707 -8.366040229797363
-1.741160035133362 7.987070083618164 -8.381039619445801
-1.741160035133362 7.862070083618164 -8.390040397644043
-1.714149951934815 7.931069850921631 -8.397040367126465
-1.581159949302673 7.948070049285889 -8.393039703369141
-1.631150007247925 8.038069725036621 -8.414039611816406
-1.551159977912903 8.014069557189941 -8.408040046691895
-1.687150001525879 7.989069938659668 -8.415040016174316
-1.626160025596619 7.907070159912109 -8.406040191650391
-1.565160036087036 7.903069972991943 -8.434040069580078
-1.681159973144531 7.872069835662842 -8.444040298461914
-1.510159969329834 7.936069965362549 -8.452039718627930
-1.603150010108948 7.847070217132568 -8.449040412902832
-1.478150010108948 7.880070209503174 -8.448040008544922
-1.540159940719605 7.850069999694824 -8.450039863586426
-1.555150032043457 7.980070114135742 -8.471039772033691
-1.647160053253174 7.913070201873779 -8.473039627075195
-1.609159946441650 7.983069896697998 -8.503040313720703
-1.643159985542297 7.818069934844971 -8.497039794921875
-1.537160038948059 7.943069934844971 -8.521039962768555
-1.632159948348999 7.760069847106934 -8.514039993286133
-1.612159967422485 7.930069923400879 -8.532039642333984
-1.473160028457642 7.912069797515869 -8.525039672851563
-1.415159940719605 7.870069980621338 -8.527039527893066
-1.612159967422485 7.849070072174072 -8.538040161132813
-1.591160058975220 7.890069961547852 -8.594039916992188
-1.534150004386902 7.909070014953613 -8.603039741516113
-1.573160052299500 7.872069835662842 -8.649040222167969
