ply
format ascii 1.0
element vertex 431
property double x
property double y
property double z
end_header
-2.264159917831421 9.037070274353027 -4.572040081024170
-2.264159917831421 9.037070274353027 -4.572040081024170
-2.205159902572632 9.052069664001465 -4.604040145874023
-2.165159940719605 9.009070396423340 -4.617040157318115
-2.170160055160523 8.943070411682129 -4.616040229797363
-2.246160030364990 9.002070426940918 -4.630040168762207
-2.231159925460815 8.948069572448731 -4.654039859771729
-2.205159902572632 9.036069869995117 -4.664040088653565
-2.132159948348999 9.020070075988770 -4.670040130615234
-2.218159914016724 8.869070053100586 -4.660039901733398
-2.152149915695190 8.877070426940918 -4.665040016174316
-2.098160028457642 8.956069946289063 -4.674039840698242
-2.169159889221191 8.820070266723633 -4.681039810180664
-2.108160018920898 8.847069740295410 -4.698040008544922
-2.188159942626953 8.987070083618164 -4.725039958953857
-2.202159881591797 8.896069526672363 -4.730040073394775
-2.137160062789917 9.043069839477539 -4.744040012359619
-2.189160108566284 8.773070335388184 -4.736040115356445
-2.070159912109375 8.880069732666016 -4.744040012359619
-2.191159963607788 8.838069915771484 -4.748040199279785
-2.092159986495972 8.815070152282715 -4.749040126800537
-2.162159919738770 8.952070236206055 -4.772039890289307
-2.122159957885742 8.763070106506348 -4.762040138244629
-2.077159881591797 8.947070121765137 -4.792039871215820
-2.163160085678101 8.883069992065430 -4.794040203094482
-2.174160003662109 8.753069877624512 -4.794040203094482
-2.175159931182861 8.818070411682129 -4.806039810180664
-2.041150093078613 8.808070182800293 -4.811039924621582
-2.124150037765503 8.924070358276367 -4.828040122985840
-2.092159986495972 8.735070228576660 -4.809040069580078
-2.035160064697266 8.882069587707520 -4.825039863586426
-2.054150104522705 8.962070465087891 -4.856040000915527
-2.035160064697266 8.727069854736328 -4.840040206909180
-2.149159908294678 8.708069801330566 -4.850039958953857
-2.127160072326660 8.845069885253906 -4.864039897918701
-1.996160030364990 8.783069610595703 -4.855040073394775
-2.140160083770752 8.779069900512695 -4.869040012359619
-1.993160009384155 8.853070259094238 -4.869040012359619
-2.080159902572632 8.906069755554199 -4.880040168762207
-2.091160058975220 8.653070449829102 -4.862040042877197
-2.023159980773926 8.920069694519043 -4.899040222167969
-2.021159887313843 8.680069923400879 -4.891039848327637
-2.111160039901733 8.811070442199707 -4.911039829254150
-1.979150056838989 8.724069595336914 -4.900040149688721
-2.053159952163696 8.870070457458496 -4.922039985656738
-1.939159989356995 8.771069526672363 -4.911039829254150
-2.127160072326660 8.657070159912109 -4.914040088653565
-1.928159952163696 8.846070289611816 -4.926040172576904
-1.975160002708435 8.888070106506348 -4.939040184020996
-2.067159891128540 8.603070259094238 -4.930039882659912
-2.068150043487549 8.820070266723633 -4.953040122985840
-2.119159936904907 8.710069656372070 -4.954040050506592
-1.888149976730347 8.803070068359375 -4.953040122985840
-1.998160004615784 8.635069847106934 -4.950039863586426
-1.944149971008301 8.683070182800293 -4.955039978027344
-2.114160060882568 8.601070404052734 -4.970039844512940
-1.896160006523132 8.720069885253906 -4.972040176391602
-1.937150001525879 8.855070114135742 -4.991040229797363
-2.091160058975220 8.755069732666016 -4.990039825439453
-2.017159938812256 8.817070007324219 -4.997039794921875
-2.041150093078613 8.575070381164551 -4.979040145874023
-2.093159914016724 8.542070388793945 -4.996039867401123
-1.929149985313416 8.647069931030273 -5.001039981842041
-1.976160049438477 8.590069770812988 -5.006040096282959
-2.084160089492798 8.706069946289063 -5.031040191650391
-1.837159991264343 8.824069976806641 -5.038040161132813
-2.038160085678101 8.757069587707520 -5.047039985656738
-1.901160001754761 8.817070007324219 -5.051040172576904
-2.034149885177612 8.531069755554199 -5.036039829254150
-1.977159976959229 8.789070129394531 -5.061039924621582
-2.089149951934815 8.649069786071777 -5.054039955139160
-2.099159955978394 8.571069717407227 -5.051040172576904
-1.931159973144531 8.600069999694824 -5.046040058135986
-1.833150029182434 8.721070289611816 -5.055039882659912
-1.969159960746765 8.548069953918457 -5.052040100097656
-1.876160025596619 8.651069641113281 -5.066040039062500
-2.058160066604614 8.696069717407227 -5.090040206909180
-1.930150032043457 8.773070335388184 -5.102039813995361
-1.855159997940064 8.791069984436035 -5.106040000915527
-2.086159944534302 8.505069732666016 -5.095039844512940
-2.028160095214844 8.473070144653320 -5.093039989471436
-2.062150001525879 8.641070365905762 -5.118040084838867
-1.983160018920898 8.739069938659668 -5.124040126800537
-2.075150012969971 8.574069976806641 -5.115039825439453
-1.891160011291504 8.587070465087891 -5.114039897918701
-1.802160024642944 8.756070137023926 -5.135039806365967
-1.969159960746765 8.479069709777832 -5.118040084838867
-1.862159967422485 8.744070053100586 -5.145040035247803
-2.024159908294678 8.687069892883301 -5.155039787292481
-1.837159991264343 8.625069618225098 -5.140039920806885
-2.028160095214844 8.425069808959961 -5.131040096282959
-2.077159881591797 8.460069656372070 -5.139039993286133
-1.916149973869324 8.508069992065430 -5.145040035247803
-1.916149973869324 8.720069885253906 -5.174039840698242
-1.761160016059876 8.710069656372070 -5.170040130615234
-2.047149896621704 8.600069999694824 -5.175039768218994
-1.855159997940064 8.562069892883301 -5.161039829254150
-2.065160036087036 8.534070014953613 -5.171040058135986
-1.969159960746765 8.428070068359375 -5.162040233612061
-1.972149968147278 8.682069778442383 -5.193039894104004
-1.786159992218018 8.627070426940918 -5.180039882659912
-1.848160028457642 8.705069541931152 -5.202040195465088
-2.059159994125366 8.413069725036621 -5.189040184020996
-1.873160004615784 8.501070022583008 -5.191040039062500
-2.001159906387329 8.376070022583008 -5.188039779663086
-1.732159972190857 8.650070190429688 -5.202040195465088
-1.913159966468811 8.457070350646973 -5.202040195465088
-2.039160013198853 8.559069633483887 -5.222040176391602
-2.007159948348999 8.623069763183594 -5.233039855957031
-1.793159961700440 8.547069549560547 -5.218039989471436
-1.949159979820252 8.389069557189941 -5.220039844512940
-2.052160024642944 8.492070198059082 -5.240039825439453
-1.696159958839417 8.608070373535156 -5.235040187835693
-1.805150032043457 8.680069923400879 -5.250040054321289
-1.635159969329834 8.603070259094238 -5.243040084838867
-1.826149940490723 8.483070373535156 -5.243040084838867
-1.901160001754761 8.653070449829102 -5.267039775848389
-1.718160033226013 8.553070068359375 -5.248040199279785
-1.963160037994385 8.632069587707520 -5.275040149688721
-2.038160085678101 8.364069938659668 -5.256040096282959
-1.770149946212769 8.505069732666016 -5.257040023803711
-1.995159983634949 8.318070411682129 -5.252039909362793
-1.865159988403320 8.416069984436035 -5.268040180206299
-1.912160038948059 8.362070083618164 -5.266039848327637
-2.026160001754761 8.528070449829102 -5.294040203094482
-1.662160038948059 8.541069984436035 -5.278039932250977
-1.800160050392151 8.445070266723633 -5.282040119171143
-1.737159967422485 8.657070159912109 -5.302040100097656
-1.718160033226013 8.494070053100586 -5.294040203094482
-1.938159942626953 8.303070068359375 -5.297039985656738
-1.959159970283508 8.603070259094238 -5.333040237426758
-1.806159973144531 8.634070396423340 -5.331039905548096
-1.896160006523132 8.608070373535156 -5.344039916992188
-2.027149915695190 8.470069885253906 -5.339039802551270
-1.609159946441650 8.531069755554199 -5.323040008544922
-1.994160056114197 8.540069580078125 -5.347040176391602
-1.772160053253174 8.408069610595703 -5.331039905548096
-2.028160095214844 8.337070465087891 -5.338039875030518
-1.986160039901733 8.267069816589356 -5.336040019989014
-1.831159949302673 8.349069595336914 -5.337039947509766
-2.027149915695190 8.404069900512695 -5.362040042877197
-1.871160030364990 8.290069580078125 -5.345039844512940
-1.695160031318665 8.467069625854492 -5.354040145874023
-1.832149982452393 8.598070144653320 -5.387040138244629
-1.735149979591370 8.619070053100586 -5.392039775848389
-1.928159952163696 8.244070053100586 -5.364039897918701
-1.728150010108948 8.408069610595703 -5.376039981842041
-1.943150043487549 8.562069892883301 -5.410039901733398
-1.771160006523132 8.363069534301758 -5.380040168762207
-1.636160016059876 8.496069908142090 -5.392039775848389
-2.016160011291504 8.355070114135742 -5.400040149688721
-2.010159969329834 8.441069602966309 -5.411039829254150
-1.982159972190857 8.494070053100586 -5.419040203094482
-1.676159977912903 8.436070442199707 -5.403039932250977
-2.001159906387329 8.267069816589356 -5.410039901733398
-1.840149998664856 8.265069961547852 -5.407040119171143
-1.773159980773926 8.575070381164551 -5.442039966583252
-1.966160058975220 8.204070091247559 -5.421040058135986
-1.791149973869324 8.289070129394531 -5.438039779663086
-1.684159994125366 8.384070396423340 -5.445040225982666
-1.871160030364990 8.203069686889648 -5.438039779663086
-1.845160007476807 8.542070388793945 -5.474040031433106
-1.997159957885742 8.349069595336914 -5.463039875030518
-1.910159945487976 8.523070335388184 -5.486040115356445
-1.626160025596619 8.414070129394531 -5.460040092468262
-1.730159997940064 8.323069572448731 -5.466040134429932
-1.924160003662109 8.167070388793945 -5.464039802551270
-1.964149951934815 8.450070381164551 -5.498040199279785
-1.989159941673279 8.237070083618164 -5.480040073394775
-1.981160044670105 8.393070220947266 -5.506040096282959
-1.779160022735596 8.530070304870606 -5.513040065765381
-1.984159946441650 8.296070098876953 -5.500040054321289
-1.806159973144531 8.223070144653320 -5.484039783477783
-1.671159982681274 8.338069915771484 -5.497039794921875
-1.983160018920898 8.180069923400879 -5.503039836883545
-1.860149979591370 8.505069732666016 -5.535039901733398
-1.614159941673279 8.362070083618164 -5.507040023803711
-1.920160055160523 8.468070030212402 -5.541039943695068
-1.755159974098206 8.251070022583008 -5.514039993286133
-1.827160000801086 8.177069664001465 -5.525040149688721
-1.970160007476807 8.331069946289063 -5.554039955139160
-1.949159979820252 8.403070449829102 -5.561039924621582
-1.792160034179688 8.495070457458496 -5.562039852142334
-1.895149946212769 8.134070396423340 -5.531040191650391
-1.684159994125366 8.291069984436035 -5.537040233612061
-1.973160028457642 8.247070312500000 -5.549039840698242
-1.568150043487549 8.355070114135742 -5.545040130615234
-1.952160000801086 8.124070167541504 -5.554039955139160
-1.911159992218018 8.005069732666016 -5.543039798736572
-1.768159985542297 8.195070266723633 -5.559040069580078
-1.715149998664856 8.242070198059082 -5.562039852142334
-1.962159991264343 8.182069778442383 -5.581039905548096
-1.802160024642944 8.148070335388184 -5.575039863586426
-1.751160025596619 8.473070144653320 -5.607039928436279
-1.623160004615784 8.280070304870606 -5.585040092468262
-1.921159982681274 8.056070327758789 -5.578040122985840
-1.923149943351746 8.389069557189941 -5.619040012359619
-1.849159955978394 8.107069969177246 -5.590040206909180
-1.534150004386902 8.320070266723633 -5.595039844512940
-1.867149949073792 8.015069961547852 -5.593039989471436
-1.677160024642944 8.227069854736328 -5.606040000915527
-1.883159995079041 8.430069923400879 -5.639039993286133
-1.943150043487549 8.327070236206055 -5.635039806365967
-1.749150037765503 8.157070159912109 -5.610040187835693
-1.951149940490723 8.248069763183594 -5.636040210723877
-1.792160034179688 8.440070152282715 -5.648039817810059
-1.946159958839417 8.144069671630859 -5.630040168762207
-1.723160028457642 8.443070411682129 -5.661039829254150
-1.543159961700440 8.274069786071777 -5.635039806365967
-1.782160043716431 8.084070205688477 -5.635039806365967
-1.613160014152527 8.239069938659668 -5.647039890289307
-1.684159994125366 8.179070472717285 -5.646039962768555
-1.908159971237183 8.354069709777832 -5.680039882659912
-1.923149943351746 8.064069747924805 -5.658040046691895
-1.881150007247925 7.968070030212402 -5.647039890289307
-1.842159986495972 8.052069664001465 -5.655039787292481
-1.822160005569458 8.416069984436035 -5.699039936065674
-1.927160024642944 8.287070274353027 -5.694039821624756
-1.932160019874573 8.213069915771484 -5.698040008544922
-1.686149954795837 8.410070419311523 -5.708040237426758
-1.482159972190857 8.248069763183594 -5.680039882659912
-1.930150032043457 8.148070335388184 -5.697040081024170
-1.575150012969971 8.213069915771484 -5.693039894104004
-1.889160037040710 8.007069587707520 -5.693039894104004
-1.793159961700440 8.036069869995117 -5.695040225982666
-1.771160006523132 8.400070190429688 -5.733039855957031
-1.652150034904480 8.163069725036621 -5.702040195465088
-1.866160035133362 8.365070343017578 -5.736040115356445
-1.705160021781921 8.121069908142090 -5.708040237426758
-1.916149973869324 8.078069686889648 -5.719039916992188
-1.517160058021545 8.190070152282715 -5.711040019989014
-1.911159992218018 8.259070396423340 -5.745039939880371
-1.750159978866577 8.075070381164551 -5.717040061950684
-1.810160040855408 7.983069896697998 -5.721039772033691
-1.867149949073792 7.931069850921631 -5.721039772033691
-1.914160013198853 8.132069587707520 -5.756040096282959
-1.881150007247925 8.303070068359375 -5.777040004730225
-1.598160028457642 8.164070129394531 -5.753039836883545
-1.775159955024719 8.027070045471191 -5.757040023803711
-1.664160013198853 8.361069679260254 -5.786039829254150
-1.891160011291504 7.990069866180420 -5.760039806365967
-1.836159944534302 8.350069999694824 -5.796040058135986
-1.511160016059876 8.157070159912109 -5.762040138244629
-1.903159976005554 8.191069602966309 -5.789040088653565
-1.476160049438477 8.241069793701172 -5.771039962768555
-1.902150034904480 8.060070037841797 -5.781040191650391
-1.524160027503967 8.306070327758789 -5.788040161132813
-1.654160022735596 8.110070228576660 -5.775040149688721
-1.609159946441650 8.335069656372070 -5.815040111541748
-1.885159969329834 8.246069908142090 -5.822040081024170
-1.766160011291504 8.352069854736328 -5.827040195465088
-1.852159976959229 8.300069808959961 -5.830039978027344
-1.809159994125366 7.916069984436035 -5.793039798736572
-1.788159966468811 7.979070186614990 -5.800039768218994
-1.548149943351746 8.138070106506348 -5.807040214538574
-1.697160005569458 8.343070030212402 -5.842040061950684
-1.508159995079041 8.253069877624512 -5.826039791107178
-1.865159988403320 7.947070121765137 -5.817039966583252
-1.754160046577454 8.035070419311523 -5.821040153503418
-1.699159979820252 8.068070411682129 -5.824039936065674
-1.563159942626953 8.290069580078125 -5.840040206909180
-1.482159972190857 8.120070457458496 -5.819039821624756
-1.887159943580627 8.159070014953613 -5.848040103912354
-1.889160037040710 8.033069610595703 -5.836040019989014
-1.889160037040710 8.095069885253906 -5.846039772033691
-1.841160058975220 7.877069950103760 -5.832039833068848
-1.791149973869324 8.327070236206055 -5.883039951324463
-1.617149949073792 8.302069664001465 -5.872039794921875
-1.785159945487976 7.933070182800293 -5.855040073394775
-1.870159983634949 8.202070236206055 -5.889039993286133
-1.493160009384155 8.208069801330566 -5.870039939880371
-1.453160047531128 8.151069641113281 -5.862040042877197
-1.846150040626526 8.257069587707520 -5.901040077209473
-1.575150012969971 8.062069892883301 -5.868040084838867
-1.723160028457642 8.312069892883301 -5.906040191650391
-1.636160016059876 8.038069725036621 -5.874040126800537
-1.861160039901733 7.961070060729981 -5.879039764404297
-1.691159963607788 8.011070251464844 -5.875040054321289
-1.541149973869324 8.243069648742676 -5.893040180206299
-1.728150010108948 7.949069976806641 -5.896039962768555
-1.826149940490723 7.888070106506348 -5.897039890289307
-1.618160009384155 8.271069526672363 -5.931039810180664
-1.663159966468811 7.965069770812988 -5.903039932250977
-1.525159955024719 8.034070014953613 -5.905039787292481
-1.476160049438477 8.161069869995117 -5.921040058135986
-1.864159941673279 8.108070373535156 -5.944039821624756
-1.867149949073792 8.020070075988770 -5.935039997100830
-1.467159986495972 8.044070243835449 -5.918039798736572
-1.832149982452393 8.221070289611816 -5.957039833068848
-1.532160043716431 8.206069946289063 -5.943039894104004
-1.848160028457642 8.163069725036621 -5.964039802551270
-1.674160003662109 8.281069755554199 -5.970039844512940
-1.849159955978394 7.940070152282715 -5.944039821624756
-1.751160025596619 7.901070117950440 -5.938039779663086
-1.737159967422485 8.287070274353027 -5.978040218353272
-1.798149943351746 7.845069885253906 -5.941040039062500
-1.553159952163696 7.976069927215576 -5.946040153503418
-1.663159966468811 7.919069766998291 -5.955039978027344
-1.794160008430481 8.242070198059082 -6.002039909362793
-1.491160035133362 8.151069641113281 -5.981040000915527
-1.438159942626953 8.063070297241211 -5.974040031433106
-1.825150012969971 7.895070075988770 -5.979040145874023
-1.605159997940064 7.927070140838623 -5.973040103912354
-1.587159991264343 8.221070289611816 -6.005040168762207
-1.643159985542297 8.251070022583008 -6.012040138244629
-1.539160013198853 8.184069633483887 -6.002039909362793
-1.487159967422485 7.972070217132568 -5.983039855957031
-1.835160017013550 8.134070396423340 -6.024040222167969
-1.836159944534302 7.977069854736328 -6.016039848327637
-1.788159966468811 7.840069770812988 -6.002039909362793
-1.843160033226013 8.059069633483887 -6.028039932250977
-1.806159973144531 8.180069923400879 -6.050039768218994
-1.704159975051880 8.257069587707520 -6.053040027618408
-1.416149973869324 8.006070137023926 -6.014039993286133
-1.651160001754761 7.886069774627686 -6.015039920806885
-1.758159995079041 8.238069534301758 -6.072040081024170
-1.446159958839417 8.063070297241211 -6.040040016174316
-1.731160044670105 7.808070182800293 -6.030039787292481
-1.561149954795837 7.897069931030273 -6.033040046691895
-1.492149949073792 7.929069995880127 -6.035039901733398
-1.547150015830994 8.166069984436035 -6.064040184020996
-1.430150032043457 7.942070007324219 -6.049039840698242
-1.822160005569458 7.992070198059082 -6.077040195465088
-1.810160040855408 8.135069847106934 -6.093039989471436
-1.600160002708435 8.191069602966309 -6.089039802551270
-1.785159945487976 7.867070198059082 -6.066040039062500
-1.689159989356995 7.843070030212402 -6.067039966583252
-1.511160016059876 8.122070312500000 -6.087039947509766
-1.802160024642944 7.924069881439209 -6.086040019989014
-1.417160034179688 7.997069835662842 -6.075039863586426
-1.515159964561462 7.882070064544678 -6.073040008544922
-1.668159961700440 8.217069625854492 -6.127039909362793
-1.622159957885742 7.849070072174072 -6.087039947509766
-1.458150029182434 8.059069633483887 -6.103040218353272
-1.733160018920898 8.226070404052734 -6.136040210723877
-1.776160001754761 8.168069839477539 -6.134039878845215
-1.743160009384155 7.819069862365723 -6.106040000915527
-1.819149971008301 8.053070068359375 -6.137040138244629
-1.674160003662109 7.800069808959961 -6.108039855957031
-1.573160052299500 8.155070304870606 -6.141039848327637
-1.433159947395325 7.892069816589356 -6.121039867401123
-1.784150004386902 8.117070198059082 -6.171040058135986
-1.793159961700440 7.943069934844971 -6.166039943695068
-1.513149976730347 7.842070102691650 -6.142039775848389
-1.516160011291504 8.101070404052734 -6.170040130615234
-1.709159970283508 8.206069946289063 -6.192039966583252
-1.594159960746765 7.824069976806641 -6.147039890289307
-1.425160050392151 7.983069896697998 -6.159039974212647
-1.613160014152527 8.168069839477539 -6.189040184020996
-1.764160037040710 7.877069950103760 -6.168039798736572
-1.806159973144531 8.019069671630859 -6.188039779663086
-1.469159960746765 8.039070129394531 -6.185039997100830
-1.561149954795837 8.129070281982422 -6.202040195465088
-1.685160040855408 7.774069786071777 -6.174039840698242
-1.459159970283508 7.849070072174072 -6.170040130615234
-1.406159996986389 7.924069881439209 -6.175039768218994
-1.732159972190857 8.150070190429688 -6.233039855957031
-1.732159972190857 7.828070163726807 -6.200039863586426
-1.657160043716431 8.171070098876953 -6.232039928436279
-1.625159978866577 7.768070220947266 -6.189040184020996
-1.561149954795837 7.782070159912109 -6.196040153503418
-1.763149976730347 8.096070289611816 -6.242040157318115
-1.606160044670105 8.141070365905762 -6.254039764404297
-1.747159957885742 7.877069950103760 -6.235040187835693
-1.476160049438477 7.808070182800293 -6.215040206909180
-1.772160053253174 7.938069820404053 -6.255040168762207
-1.431159973144531 7.954070091247559 -6.241040229797363
-1.697160005569458 8.175069808959961 -6.281040191650391
-1.782160043716431 8.006070137023926 -6.269040107727051
-1.471150040626526 8.014069557189941 -6.254039764404297
-1.508159995079041 8.062069892883301 -6.262040138244629
-1.699159979820252 7.799069881439209 -6.247039794921875
-1.413159966468811 7.823070049285889 -6.235040187835693
-1.404160022735596 7.887070178985596 -6.243040084838867
-1.508159995079041 7.765069961547852 -6.250040054321289
-1.765159964561462 8.060070037841797 -6.305039882659912
-1.632159948348999 7.770070075988770 -6.270040035247803
-1.451149940490723 7.788070201873779 -6.269040107727051
-1.702160000801086 8.143070220947266 -6.332039833068848
-1.642160058021545 8.135069847106934 -6.328040122985840
-1.574159979820252 7.745069980621338 -6.287040233612061
-1.444149971008301 7.941070079803467 -6.313039779663086
-1.724159955978394 7.863070011138916 -6.322040081024170
-1.686149954795837 7.815070152282715 -6.319039821624756
-1.755159974098206 7.934070110321045 -6.342040061950684
-1.733160018920898 8.089070320129395 -6.358039855957031
-1.560160040855408 8.105070114135742 -6.352039813995361
-1.479150056838989 8.010069847106934 -6.341040134429932
-1.766160011291504 7.993070125579834 -6.358039855957031
-1.419160008430481 7.859069824218750 -6.325039863586426
-1.508159995079041 8.061070442199707 -6.356040000915527
-1.525159955024719 7.736070156097412 -6.331039905548096
-1.602159976959229 7.765069961547852 -6.354040145874023
-1.437150001525879 7.756070137023926 -6.347040176391602
-1.745159983634949 8.042070388793945 -6.395040035247803
-1.740159988403320 7.869070053100586 -6.396039962768555
-1.419160008430481 7.812069892883301 -6.375040054321289
-1.705160021781921 8.086070060729981 -6.423039913177490
-1.758159995079041 7.940070152282715 -6.411039829254150
-1.545160055160523 7.716070175170898 -6.385039806365967
-1.682160019874573 7.774069786071777 -6.400040149688721
-1.465149998664856 7.710070133209229 -6.383039951324463
-1.599159955978394 7.685070037841797 -6.403039932250977
-1.691159963607788 7.714069843292236 -6.427040100097656
-1.430150032043457 7.869070053100586 -6.430039882659912
-1.738160014152527 7.992070198059082 -6.465040206909180
-1.754160046577454 7.889070034027100 -6.466040134429932
-1.672150015830994 8.093070030212402 -6.488039970397949
-1.743160009384155 7.679069995880127 -6.449039936065674
-1.770149946212769 7.818069934844971 -6.468039989471436
-1.689159989356995 7.631070137023926 -6.446040153503418
-1.622159957885742 7.615069866180420 -6.441040039062500
-1.562150001525879 7.628069877624512 -6.440040111541748
-1.781159996986389 7.750070095062256 -6.465040206909180
-1.707149982452393 8.038069725036621 -6.496039867401123
-1.479150056838989 7.599070072174072 -6.445040225982666
-1.443150043487549 7.912069797515869 -6.476039886474609
-1.557160019874573 7.568069934844971 -6.449039936065674
-1.415159940719605 7.653069972991943 -6.455039978027344
-1.460160017013550 7.717070102691650 -6.466040134429932
-1.429149985313416 7.766069889068604 -6.486040115356445
-1.766160011291504 7.853069782257080 -6.534039974212647
-1.718160033226013 7.986070156097412 -6.547039985656738
-1.729150056838989 7.924069881439209 -6.548039913177490
-1.397160053253174 7.714069843292236 -6.510039806365967
-1.673149943351746 8.048069953918457 -6.564040184020996
-1.421159982681274 7.901070117950440 -6.538040161132813
-1.403159976005554 7.836070060729981 -6.552040100097656
-1.706159949302673 7.941070079803467 -6.610040187835693
-1.646160006523132 8.014069557189941 -6.621039867401123
-1.671159982681274 7.959070205688477 -6.659039974212647
