ply
format ascii 1.0
element vertex 130
property double x
property double y
property double z
end_header
-99.222602844238281 -40.953998565673828 -10.344699859619141
-97.974899291992188 -42.680698394775391 -8.941080093383789
-99.288200378417969 -41.034000396728516 -8.849200248718262
-97.567901611328125 -42.338001251220703 -10.368399620056152
-99.222602844238281 -40.953998565673828 -10.344699859619141
-96.263496398925781 -43.998901367187500 -11.845000267028809
-98.126197814941406 -49.810501098632813 -13.084300041198730
-96.954101562500000 -46.469600677490234 -12.911999702453613
-97.733398437500000 -42.996498107910156 -12.585399627685547
-98.059303283691406 -48.359600067138672 -13.861900329589844
-99.375000000000000 -41.112800598144531 -12.372099876403809
-100.370002746582030 -51.223400115966797 -14.560600280761719
-97.751899719238281 -46.999298095703125 -14.081500053405762
-97.743103027343750 -45.271198272705078 -13.859700202941895
-97.680801391601563 -42.397399902343750 -13.363699913024902
-100.847999572753910 -39.579498291015625 -12.541899681091309
-99.485702514648437 -49.858200073242187 -14.647999763488770
-99.050903320312500 -48.602100372314453 -15.023799896240234
-102.072998046875000 -37.859001159667969 -12.699299812316895
-100.267997741699220 -50.302898406982422 -15.268799781799316
-99.407302856445312 -41.838298797607422 -13.960800170898438
-99.441802978515625 -42.599098205566406 -14.704600334167480
-99.008499145507813 -43.859798431396484 -15.041500091552734
-101.755996704101560 -51.320301055908203 -16.145000457763672
-101.678001403808590 -39.418701171875000 -14.044799804687500
-99.695503234863281 -48.239299774169922 -15.971400260925293
-103.593002319335940 -36.364700317382812 -13.447699546813965
-99.242897033691406 -45.158100128173828 -15.606100082397461
-99.453399658203125 -47.116798400878906 -16.095399856567383
-100.727996826171870 -40.967998504638672 -14.861499786376953
-101.288002014160160 -50.152000427246094 -16.543800354003906
-100.495002746582030 -48.597499847412109 -16.575599670410156
-103.003997802734370 -38.008899688720703 -14.480999946594238
-101.527999877929690 -40.361801147460938 -15.347000122070313
-104.031997680664060 -52.784198760986328 -17.589199066162109
-104.069999694824220 -36.727798461914063 -14.650099754333496
-100.291000366210940 -45.457000732421875 -16.793600082397461
-101.864997863769530 -49.742099761962891 -17.492900848388672
-100.462997436523440 -43.925598144531250 -16.599800109863281
-101.161003112792970 -41.395500183105469 -16.080400466918945
-103.620002746582030 -51.595600128173828 -17.971000671386719
-102.941001892089840 -50.739299774169922 -17.923900604248047
-101.594001770019530 -48.450500488281250 -17.763299942016602
-105.001998901367190 -34.869998931884766 -15.009300231933594
-102.987998962402340 -39.458698272705078 -16.392000198364258
-101.367996215820310 -46.987998962402344 -17.988000869750977
-101.463996887207030 -45.478698730468750 -17.890399932861328
-104.430000305175780 -37.616401672363281 -16.224800109863281
-105.342002868652340 -35.814701080322266 -15.825799942016602
-101.609001159667970 -43.678901672363281 -17.754699707031250
-105.402999877929690 -52.098499298095703 -19.175300598144531
-103.347000122070310 -49.792900085449219 -19.011299133300781
-102.138000488281250 -42.431598663330078 -17.955799102783203
-104.448997497558590 -50.720298767089844 -19.498399734497070
-103.101997375488280 -48.431999206542969 -19.241399765014648
-102.974998474121090 -40.945201873779297 -17.868700027465820
-102.932998657226560 -46.975799560546875 -19.422800064086914
-106.297996520996090 -34.814399719238281 -16.830699920654297
-106.291999816894530 -36.416698455810547 -17.190599441528320
-104.400001525878910 -39.388099670410156 -17.975000381469727
-105.361000061035160 -38.086299896240234 -17.731300354003906
-102.950996398925780 -45.493801116943359 -19.398700714111328
-105.705001831054690 -51.152500152587891 -20.264900207519531
-103.265998840332030 -43.267601013183594 -19.361099243164063
-105.384002685546870 -49.920898437500000 -20.676300048828125
-106.425003051757810 -37.653198242187500 -18.275499343872070
-108.261001586914060 -35.779399871826172 -17.794200897216797
-104.688003540039060 -48.414100646972656 -20.587499618530273
-104.084999084472660 -47.013401031494141 -20.440099716186523
-104.499000549316410 -40.966598510742188 -19.355600357055664
-105.430000305175780 -39.673999786376953 -19.136899948120117
-106.938003540039060 -38.211399078369141 -19.073999404907227
-104.589996337890620 -42.847301483154297 -20.375699996948242
-105.002998352050780 -47.001701354980469 -21.179000854492188
-106.529998779296870 -39.231498718261719 -19.646099090576172
-108.333999633789060 -37.403900146484375 -19.169300079345703
-104.908996582031250 -45.480499267578125 -21.185499191284180
-105.574996948242190 -41.255901336669922 -20.471300125122070
-105.037002563476560 -43.955699920654297 -21.097299575805664
-110.056999206542970 -37.217800140380859 -19.393199920654297
-105.713996887207030 -46.952999114990234 -21.780000686645508
-107.000999450683590 -39.786399841308594 -20.509700775146484
-109.209999084472660 -38.374198913574219 -20.470899581909180
-106.161003112792970 -42.884799957275391 -21.780799865722656
-106.894996643066410 -41.092498779296875 -21.437400817871094
-112.018997192382810 -38.106300354003906 -20.760299682617188
-108.699996948242190 -39.597999572753906 -21.482700347900391
-109.510002136230470 -38.986400604248047 -21.319799423217773
-107.939002990722660 -40.673500061035156 -22.004400253295898
-109.361000061035160 -40.499298095703125 -22.900100708007813
-110.235000610351560 -40.181301116943359 -23.153099060058594
-112.013000488281250 -39.434101104736328 -22.881299972534180
-117.194000244140620 -40.938499450683594 -31.428600311279297
-115.772003173828120 -41.001300811767578 -29.829700469970703
-115.597999572753910 -43.368000030517578 -30.565799713134766
-115.182998657226560 -45.384899139404297 -28.196599960327148
-115.883003234863280 -39.631500244140625 -28.256900787353516
-114.546997070312500 -44.723800659179688 -24.248899459838867
-116.181999206542970 -39.895401000976562 -29.495199203491211
-111.837997436523440 -46.568199157714844 -24.236900329589844
-110.069999694824220 -45.536098480224609 -24.658100128173828
-110.139999389648440 -43.187500000000000 -25.048000335693359
-114.204002380371090 -39.354999542236328 -23.898399353027344
-112.571998596191410 -45.727798461914063 -25.647699356079102
-115.461997985839840 -38.995399475097656 -25.023899078369141
-114.217002868652340 -46.280601501464844 -26.894399642944336
-113.364997863769530 -44.805999755859375 -26.979299545288086
-114.600997924804690 -40.136199951171875 -26.598600387573242
-114.640998840332030 -46.921199798583984 -28.076900482177734
-115.516998291015620 -39.224899291992188 -26.999000549316406
-113.782997131347660 -43.316101074218750 -28.398199081420898
-113.736000061035160 -41.471698760986328 -28.097799301147461
-117.385002136230470 -38.109600067138672 -28.289800643920898
-114.681999206542970 -42.470600128173828 -29.508199691772461
-106.850997924804690 -48.455101013183594 -22.213199615478516
-106.598999023437500 -47.003101348876953 -22.573900222778320
-106.532997131347660 -45.508800506591797 -22.635200500488281
-106.585998535156250 -43.972999572753906 -22.544900894165039
-108.577003479003910 -48.311401367187500 -23.365400314331055
-108.405998229980470 -46.945899963378906 -23.646799087524414
-107.597000122070310 -45.014499664306641 -23.414499282836914
-108.530998229980470 -41.710800170898438 -23.181600570678711
-108.399002075195310 -43.319999694824219 -23.664300918579102
-110.985000610351560 -40.672000885009766 -24.179500579833984
-112.007003784179690 -40.999401092529297 -25.335899353027344
-113.497001647949220 -40.019298553466797 -25.062500000000000
-111.632003784179690 -41.746398925781250 -26.421600341796875
-111.977996826171870 -43.288700103759766 -26.840499877929687
-112.676002502441410 -44.049098968505859 -26.964099884033203
-112.920997619628910 -41.136398315429688 -26.652500152587891
