ply
format ascii 1.0
element vertex 369
property double x
property double y
property double z
end_header
-154.751007080078120 -60.528598785400391 39.126399993896484
-162.184005737304690 -63.636199951171875 40.382499694824219
-157.759994506835940 -62.389598846435547 40.046298980712891
-160.628997802734370 -62.399501800537109 40.353298187255859
-159.257003784179690 -62.449401855468750 40.144199371337891
-164.162002563476560 -63.414001464843750 39.987998962402344
-151.753005981445310 -60.606300354003906 39.026500701904297
-153.251998901367190 -60.501899719238281 39.145999908447266
-154.751007080078120 -60.528598785400391 39.126399993896484
-159.291000366210940 -61.594299316406250 39.412700653076172
-160.824996948242190 -61.681198120117187 39.346599578857422
-156.975006103515620 -60.655498504638672 39.058200836181641
-162.283004760742190 -61.905799865722656 39.211498260498047
-168.218002319335940 -65.051803588867188 38.960098266601563
-163.679992675781250 -62.250499725341797 38.952598571777344
-166.725997924804690 -63.603401184082031 38.968101501464844
-159.225006103515620 -60.626098632812500 38.319499969482422
-169.632995605468750 -65.135002136230469 38.574100494384766
-151.128005981445310 -58.766498565673828 37.756900787353516
-150.270996093750000 -59.088401794433594 37.582099914550781
-148.869003295898440 -59.388099670410156 37.360298156738281
-165.869995117187500 -62.532001495361328 38.529598236083984
-160.688995361328120 -60.887100219726563 38.219898223876953
-168.263000488281250 -63.413200378417969 38.521701812744141
-153.251007080078120 -59.018798828125000 37.636299133300781
-154.736999511718750 -59.116298675537109 37.582401275634766
-171.358993530273440 -64.791297912597656 38.240699768066406
-156.957000732421870 -59.657798767089844 37.582901000976563
-169.833999633789060 -63.267501831054688 38.166599273681641
-162.292007446289060 -61.030700683593750 37.766799926757813
-174.328002929687500 -66.387702941894531 37.970500946044922
-166.020996093750000 -61.811698913574219 37.856300354003906
-163.777999877929690 -61.167800903320313 37.681400299072266
-172.815994262695310 -64.901199340820313 37.949100494384766
-147.199005126953120 -58.813701629638672 36.301700592041016
-162.207000732421870 -50.140800476074219 39.441799163818359
-163.656997680664060 -51.606498718261719 39.319400787353516
-145.882995605468750 -59.241401672363281 35.936100006103516
-169.714996337890620 -54.584300994873047 39.313701629638672
-168.240005493164060 -53.782901763916016 39.291301727294922
-168.255996704101560 -61.972900390625000 37.684398651123047
-166.024993896484370 -52.968799591064453 39.119300842285156
-148.729995727539060 -58.134399414062500 36.224800109863281
-171.274002075195310 -62.728900909423828 37.667400360107422
-175.009002685546880 -64.987396240234375 37.616699218750000
-170.598007202148440 -55.744598388671875 38.756900787353516
-166.936004638671870 -54.232398986816406 38.642398834228516
-164.022994995117190 -52.639701843261719 38.533901214599609
-154.865997314453120 -58.533100128173828 36.425701141357422
-166.042007446289060 -60.843101501464844 37.118801116943359
-150.274002075195310 -57.821300506591797 35.973400115966797
-162.259994506835940 -51.871799468994141 38.378398895263672
-172.740997314453120 -62.777500152587891 37.463100433349609
-153.264999389648440 -58.098300933837891 36.229900360107422
-169.781005859375000 -61.304599761962891 37.378799438476562
-151.753997802734370 -57.794601440429687 35.973598480224609
-168.276992797851560 -60.717700958251953 37.125999450683594
-178.746994018554690 -63.493900299072266 37.685501098632812
-157.024993896484370 -58.930500030517578 36.186100006103516
-159.264007568359370 -59.475700378417969 36.319599151611328
-168.188995361328120 -56.126499176025391 37.859901428222656
-160.662994384765620 -51.676601409912109 37.847499847412109
-174.960006713867190 -63.146900177001953 37.229099273681641
-156.889007568359370 -48.712398529052734 37.979301452636719
-165.203002929687500 -54.574199676513672 37.765800476074219
-172.712997436523440 -57.621200561523437 37.946998596191406
-171.235000610351560 -57.542701721191406 37.760898590087891
-177.238998413085940 -64.988998413085937 37.008098602294922
-163.740005493164060 -53.760700225830078 37.655498504638672
-174.212005615234370 -58.330299377441406 37.877399444580078
-166.061996459960940 -55.538299560546875 37.503398895263672
-145.666000366210940 -57.984100341796875 34.835098266601563
-154.602996826171870 -58.072299957275391 35.757701873779297
-171.276992797851560 -60.505901336669922 37.101699829101562
-162.274993896484370 -59.586700439453125 36.276901245117188
-169.789001464843750 -57.413200378417969 37.485801696777344
-177.253005981445310 -61.248699188232422 37.552299499511719
-158.580993652343750 -50.434898376464844 37.532901763916016
-172.779006958007810 -60.446201324462891 37.173198699951172
-177.259994506835940 -63.488201141357422 37.084201812744141
-165.740997314453120 -59.799098968505859 36.529998779296875
-163.774002075195310 -59.566699981689453 36.347000122070313
-175.774993896484370 -61.988700866699219 37.154598236083984
-172.783996582031250 -58.916301727294922 37.360900878906250
-167.630996704101560 -57.270401000976563 37.106399536132813
-175.024993896484370 -60.451900482177734 37.293899536132813
-169.848999023437500 -58.890800476074219 37.026000976562500
-175.755004882812500 -58.988700866699219 37.645099639892578
-160.738006591796870 -59.227199554443359 35.969600677490234
-171.311004638671870 -58.858898162841797 37.181098937988281
-160.992004394531250 -52.522800445556641 37.141399383544922
-168.152999877929690 -58.983798980712891 36.658699035644531
-147.985992431640620 -57.320400238037109 34.752101898193359
-144.115997314453120 -58.846099853515625 34.011199951171875
-165.906005859375000 -57.578800201416016 36.507198333740234
-144.671997070312500 -58.023998260498047 34.117500305175781
-162.259002685546880 -53.990798950195313 36.665401458740234
-163.611999511718750 -55.410800933837891 36.450500488281250
-159.192001342773440 -58.474098205566406 35.335800170898437
-153.291000366210940 -57.195301055908203 34.857498168945313
-156.850997924804690 -50.543399810791016 36.468200683593750
-163.826004028320310 -57.502201080322266 35.878898620605469
-150.285995483398440 -56.948299407958984 34.512100219726562
-154.453994750976560 -47.163898468017578 36.662101745605469
-151.774993896484370 -56.902301788330078 34.532001495361328
-160.779998779296870 -53.728500366210937 36.078498840332031
-162.388000488281250 -55.861000061035156 35.787700653076172
-154.667999267578120 -48.558101654052734 36.296699523925781
-158.582000732421870 -52.496601104736328 35.967998504638672
-156.430999755859380 -51.262298583984375 35.814998626708984
-162.082992553710940 -57.560100555419922 35.227298736572266
-154.889999389648440 -49.831699371337891 35.888099670410156
-145.598999023437500 -56.977901458740234 33.499900817871094
-157.007003784179690 -57.507999420166016 34.622699737548828
-144.210006713867190 -57.425098419189453 33.207199096679688
-160.654006958007810 -56.781398773193359 35.042999267578125
-159.244003295898440 -57.469398498535156 34.751098632812500
-153.391998291015620 -56.455799102783203 34.253799438476562
-160.470993041992190 -54.797599792480469 35.327201843261719
-142.541000366210940 -58.806800842285156 32.543098449707031
-143.274002075195310 -57.923500061035156 32.735500335693359
-153.763000488281250 -49.480201721191406 35.415599822998047
-153.563995361328120 -48.312400817871094 35.558799743652344
-159.205993652343750 -55.307998657226563 34.828701019287109
-156.115005493164060 -52.420398712158203 34.898799896240234
-153.537002563476560 -46.963600158691406 35.569301605224609
-154.569000244140620 -50.925498962402344 34.922500610351563
-157.089996337890620 -56.026500701904297 34.207401275634766
-153.069000244140620 -49.425300598144531 34.924900054931641
-157.074996948242190 -54.067798614501953 34.473201751708984
-150.259002685546870 -56.026798248291016 33.130401611328125
-151.742004394531250 -55.944099426269531 33.190898895263672
-155.039001464843750 -52.714599609375000 34.150100708007813
-144.623001098632810 -56.536300659179687 32.297000885009766
-154.647003173828120 -55.831199645996094 33.488498687744141
-153.218002319335940 -55.844600677490234 33.308700561523437
-155.998001098632810 -54.707298278808594 33.758598327636719
-151.442993164062500 -48.463001251220703 34.316200256347656
-152.113006591796870 -49.578800201416016 34.159000396728516
-141.899002075195310 -60.469200134277344 31.003200531005859
-147.992004394531250 -55.893901824951172 32.490001678466797
-153.184997558593750 -50.776599884033203 33.969501495361328
-154.597000122070310 -53.845600128173828 33.425201416015625
-150.651992797851560 -48.258098602294922 34.031398773193359
-150.147994995117190 -47.154998779296875 34.054100036621094
-142.302993774414060 -57.474800109863281 31.113100051879883
-145.707992553710940 -55.779201507568359 31.789100646972656
-153.205993652343750 -52.274898529052734 33.209098815917969
-151.617996215820310 -50.133998870849609 33.337001800537109
-140.813003540039060 -58.674701690673828 30.561199188232422
-149.559005737304690 -48.439998626708984 33.082099914550781
-140.020996093750000 -59.147399902343750 29.879899978637695
-151.839996337890620 -51.935501098632812 32.511100769042969
-143.005004882812500 -56.259101867675781 30.673999786376953
-151.585006713867190 -53.755001068115234 32.056800842285156
-150.227996826171870 -54.447799682617188 31.737300872802734
-148.225006103515620 -46.923400878906250 32.859401702880859
-147.419006347656250 -54.904998779296875 31.253299713134766
-141.305999755859370 -57.531799316406250 30.098600387573242
-150.309997558593750 -50.299900054931641 32.333301544189453
-148.871994018554690 -45.506999969482422 32.948799133300781
-143.996994018554690 -55.541000366210938 30.431200027465820
-140.537994384765620 -57.457401275634766 29.425100326538086
-148.662002563476560 -49.361400604248047 31.817699432373047
-146.860992431640620 -45.673900604248047 32.248798370361328
-148.205993652343750 -54.179798126220703 30.797000885009766
-149.729995727539060 -52.108600616455078 31.245100021362305
-147.197006225585940 -47.764900207519531 31.722499847412109
-138.311004638671870 -59.031101226806641 28.587299346923828
-144.430999755859370 -54.881099700927734 29.894800186157227
-145.783004760742190 -54.552600860595703 30.102399826049805
-139.182006835937500 -57.625000000000000 28.444000244140625
-145.649993896484370 -47.100399017333984 31.059400558471680
-147.919006347656250 -52.343700408935547 30.294799804687500
-147.417007446289060 -50.218299865722656 30.635499954223633
-145.992996215820310 -45.466999053955078 31.275999069213867
-146.233993530273440 -48.534000396728516 30.691699981689453
-141.149993896484370 -55.933601379394531 28.691699981689453
-136.494003295898440 -58.658798217773437 27.585199356079102
-142.598999023437500 -55.015998840332031 28.851400375366211
-145.798995971679690 -53.570400238037109 29.429199218750000
-144.110992431640620 -46.362499237060547 30.443799972534180
-142.675003051757810 -45.619201660156250 30.391199111938477
-139.824005126953120 -45.310501098632812 29.990600585937500
-141.283004760742190 -45.443000793457031 30.099500656127930
-146.201004028320310 -52.107601165771484 29.242399215698242
-145.667007446289060 -50.056999206542969 29.510900497436523
-138.438003540039060 -45.010398864746094 29.663299560546875
-142.949996948242190 -46.764999389648437 29.797599792480469
-144.276992797851560 -53.650699615478516 28.646400451660156
-137.460006713867190 -57.453800201416016 27.191799163818359
-140.764007568359370 -55.309600830078125 27.797599792480469
-144.315002441406250 -48.808498382568359 29.278400421142578
-135.686996459960940 -57.940299987792969 26.427900314331055
-138.998992919921870 -55.951999664306641 27.146499633789063
-142.848007202148440 -53.757801055908203 27.826700210571289
-140.875000000000000 -46.563201904296875 28.949600219726562
-138.697998046875000 -46.138198852539062 28.760900497436523
-136.753005981445310 -45.493999481201172 28.657199859619141
-142.654006958007810 -47.870800018310547 28.825799942016602
-144.539001464843750 -51.355098724365234 28.260999679565430
-136.341003417968750 -56.992698669433594 26.308200836181641
-137.222000122070310 -56.497501373291016 26.435100555419922
-135.076995849609370 -57.151699066162109 26.039899826049805
-143.934005737304690 -52.187698364257813 27.593799591064453
-143.714004516601560 -50.381500244140625 27.847200393676758
-133.899002075195310 -57.664199829101563 25.388599395751953
-140.897003173828120 -54.063400268554688 26.815200805664063
-141.996002197265620 -48.439498901367188 27.898599624633789
-142.964004516601560 -49.820301055908203 27.640800476074219
-142.817993164062500 -52.209400177001953 27.089199066162109
-138.149993896484370 -55.085601806640625 25.823699951171875
-133.992004394531250 -56.471698760986328 25.060400009155273
-138.925994873046870 -47.137199401855469 27.263799667358398
-136.785003662109370 -46.840198516845703 27.073900222778320
-139.537994384765620 -54.196300506591797 25.946699142456055
-136.910003662109370 -55.463901519775391 25.404399871826172
-140.542007446289060 -48.047599792480469 27.121999740600586
-135.406997680664060 -46.461299896240234 26.856000900268555
-135.210998535156250 -55.865200042724609 24.984100341796875
-141.608993530273440 -49.648200988769531 26.668899536132812
-142.276000976562500 -51.646198272705078 26.259599685668945
-132.255004882812500 -55.993999481201172 24.150699615478516
-139.986999511718750 -53.206699371337891 25.361499786376953
-135.214996337890630 -47.517799377441406 25.852100372314453
-140.677993774414060 -52.211200714111328 25.440500259399414
-137.324005126953120 -47.405998229980469 25.919799804687500
-133.800003051757810 -55.384998321533203 24.025899887084961
-140.610992431640620 -50.295700073242188 25.503299713134766
-130.216003417968750 -55.588100433349609 23.264999389648438
-139.117996215820310 -48.353500366210937 25.513999938964844
-138.138000488281250 -53.540401458740234 24.338600158691406
-136.904006958007810 -53.956100463867188 23.986499786376953
-135.210006713867190 -54.383499145507812 23.461900711059570
-136.826995849609370 -47.719799041748047 24.803899765014648
-139.020996093750000 -52.138099670410156 24.143299102783203
-135.268005371093750 -47.862800598144531 24.172000885009766
-139.039001464843750 -50.344001770019531 24.107599258422852
-138.115997314453120 -48.619201660156250 24.320600509643555
-132.195007324218750 -54.270999908447266 22.017299652099609
-135.438995361328120 -53.401100158691406 22.314199447631836
-137.044998168945310 -48.630298614501953 23.376399993896484
-137.942993164062500 -50.839900970458984 23.051000595092773
-133.783004760742190 -53.766601562500000 21.886199951171875
-136.893005371093750 -52.222599029541016 22.500799179077148
-127.875999450683590 -54.869201660156250 21.009199142456055
-129.962005615234370 -54.331001281738281 21.233900070190430
-130.317001342773440 -45.921298980712891 22.775699615478516
-135.080993652343750 -52.757598876953125 21.359500885009766
-132.399002075195310 -53.582000732421875 20.837099075317383
-136.731994628906250 -50.290798187255859 21.893999099731445
-135.154006958007810 -48.583301544189453 22.003700256347656
-126.367996215820310 -54.830699920654297 19.546100616455078
-127.777999877929690 -54.546501159667969 19.634000778198242
-131.908004760742190 -47.573600769042969 21.350000381469727
-130.524993896484370 -46.372200012207031 21.249300003051758
-133.736999511718750 -48.522899627685547 21.173099517822266
-129.970993041992190 -53.664398193359375 19.658100128173828
-135.298004150390630 -51.516498565673828 20.387599945068359
-132.248001098632810 -52.972400665283203 19.663600921630859
-126.197998046875000 -55.933799743652344 18.166099548339844
-133.761993408203130 -52.191398620605469 19.660100936889648
-135.479995727539060 -50.012599945068359 20.224800109863281
-129.445007324218750 -53.521499633789063 18.719900131225586
-131.708999633789060 -47.657199859619141 19.998100280761719
-133.466995239257810 -48.845699310302734 19.931900024414063
-127.680999755859370 -54.372898101806641 18.191799163818359
-130.651992797851560 -47.095001220703125 19.697399139404297
-130.695007324218750 -52.855800628662109 18.214099884033203
-129.992004394531250 -45.472099304199219 19.480300903320312
-133.957000732421870 -50.485698699951172 18.754699707031250
-126.443000793457030 -55.456100463867188 16.955499649047852
-131.889007568359370 -52.113498687744141 18.067499160766602
-131.595993041992190 -48.405498504638672 18.125799179077148
-127.778999328613280 -53.799400329589844 16.635499954223633
-130.190002441406250 -46.920700073242188 18.104900360107422
-129.384994506835940 -45.449798583984375 18.117300033569336
-129.839996337890620 -52.640201568603516 16.793899536132812
-129.585998535156250 -43.997798919677734 18.068199157714844
-131.996002197265620 -50.653099060058594 16.895299911499023
-125.947998046875000 -55.786899566650391 15.240599632263184
-131.688003540039060 -49.094898223876953 17.084999084472656
-126.877998352050780 -54.344898223876953 15.200099945068359
-130.557006835937500 -47.897899627685547 16.787599563598633
-127.897003173828120 -53.154499053955078 15.104599952697754
-128.968002319335940 -52.527599334716797 15.334199905395508
-129.639999389648440 -46.775600433349609 16.448999404907227
-129.020996093750000 -44.781200408935547 16.709899902343750
-130.115005493164060 -51.632701873779297 15.094900131225586
-131.830001831054690 -49.786098480224609 15.484199523925781
-130.488998413085940 -48.749698638916016 15.342000007629395
-129.902999877929690 -42.696201324462891 16.406499862670898
-128.957992553710940 -46.300498962402344 15.251299858093262
-128.843994140625000 -43.979801177978516 15.242199897766113
-130.311996459960940 -50.921298980712891 13.973699569702148
-126.361000061035160 -54.079898834228516 12.867500305175781
-129.264999389648440 -51.504199981689453 13.647000312805176
-127.708999633789060 -52.458099365234375 12.913999557495117
-129.962997436523440 -50.178298950195313 12.901700019836426
-128.942993164062500 -48.207000732421875 13.061599731445312
-128.561996459960940 -43.968498229980469 13.641099929809570
-125.646003723144530 -54.146400451660156 10.869799613952637
-128.208999633789060 -45.130599975585937 12.771300315856934
-128.001007080078120 -46.934200286865234 12.079299926757812
-126.281997680664060 -53.009799957275391 10.644599914550781
-127.634002685546870 -51.383998870849609 10.712599754333496
-128.914993286132810 -49.755699157714844 10.875000000000000
-129.432998657226560 -42.598098754882813 12.110300064086914
-125.097999572753910 -54.609500885009766 9.026880264282227
-127.976997375488280 -48.423900604248047 10.492300033569336
-127.704002380371090 -47.006500244140625 10.669899940490723
-126.291000366210940 -52.294700622558594 9.501440048217773
-127.763999938964840 -44.764598846435547 10.654600143432617
-127.275001525878910 -51.074199676513672 9.412679672241211
-128.339004516601560 -49.902301788330078 9.617110252380371
-124.843002319335940 -53.803298950195313 7.989570140838623
-127.471000671386720 -47.822601318359375 9.280340194702148
-127.175003051757810 -45.405700683593750 9.323749542236328
-125.834999084472660 -51.946800231933594 7.817890167236328
-127.936996459960940 -43.313400268554688 9.478469848632813
-127.461997985839840 -49.776298522949219 7.817379951477051
-127.193000793457030 -48.434501647949219 7.934309959411621
-124.261001586914060 -54.319999694824219 6.292719841003418
-126.515998840332030 -46.277400970458984 7.564400196075440
-126.566001892089840 -50.220401763916016 6.760039806365967
-127.235000610351560 -43.810001373291016 7.805039882659912
-124.681999206542970 -52.473098754882813 5.669859886169434
-127.599998474121090 -42.442199707031250 7.705430030822754
-126.279998779296870 -50.135898590087891 5.882380008697510
-125.995002746582030 -46.947498321533203 6.283299922943115
-125.935997009277340 -48.152900695800781 5.746630191802979
-126.023002624511720 -44.928001403808594 5.761760234832764
-125.172996520996090 -50.262001037597656 3.732059955596924
-125.933998107910160 -43.176101684570313 4.834980010986328
-124.843002319335940 -46.710300445556641 4.010350227355957
-125.359001159667970 -48.931900024414063 3.612070083618164
-124.579002380371090 -45.439201354980469 3.269360065460205
-124.913002014160160 -43.271900177001953 3.049890041351318
-124.731002807617190 -48.480998992919922 1.662619948387146
-123.943000793457030 -46.976699829101563 1.754709959030151
-122.898002624511720 -42.644798278808594 1.998970031738281
-123.542999267578130 -45.487400054931641 1.523169994354248
-123.698997497558590 -44.044799804687500 1.385280013084412
-122.910003662109370 -45.463798522949219 0.370481014251709
-123.319999694824220 -46.978298187255859 0.122997999191284
-122.515998840332030 -43.963100433349609 0.139240995049477
-120.541999816894530 -51.479301452636719 -7.512750148773193
-121.765998840332030 -49.991401672363281 -5.850850105285645
-122.101997375488280 -48.551998138427734 -5.215320110321045
-122.166999816894530 -50.801799774169922 -4.471179962158203
-122.871002197265620 -49.834598541259766 -2.703030109405518
-123.926002502441410 -49.920799255371094 0.216541007161140
-123.809997558593750 -48.742599487304688 -0.864816009998322
-123.272003173828120 -49.998901367187500 -1.352290034294128
-122.629997253417970 -52.193401336669922 -2.678349971771240
-121.981002807617190 -53.008300781250000 -4.406889915466309
-123.078002929687500 -48.423801422119141 -3.533620119094849
-121.782997131347660 -52.238498687744141 -5.853300094604492
-124.596000671386720 -51.421199798583984 3.955800056457520
-123.710998535156250 -53.824401855468750 3.036000013351440
-123.225997924804690 -54.486301422119141 1.660979986190796
-123.545997619628910 -52.346900939941406 1.574550032615662
-124.285003662109370 -50.488601684570313 1.833150029182434
-123.239997863769530 -54.490600585937500 0.156939998269081
-123.210998535156250 -52.232101440429687 0.163677006959915
-123.373001098632810 -54.475399017333984 -1.357450008392334
-122.835998535156250 -52.139701843261719 -1.221189975738525
-122.955001831054690 -47.150299072265625 -1.150930047035217
-123.398002624511720 -54.439201354980469 -2.872240066528320
