ply
format ascii 1.0
element vertex 489
property double x
property double y
property double z
end_header
-199.673995971679690 35.018299102783203 -125.890998840332030
-199.593715122767860 36.499986376081196 -126.223570687430240
-199.581915537516270 38.210341453552246 -126.466084162394210
-199.634000990125860 40.010522206624351 -126.258998446994350
-199.968002319335940 40.871250152587891 -126.250499725341800
-199.652000427246090 34.770883560180664 -124.588500976562500
-199.844642639160160 36.360778536115376 -124.754928043910440
-200.480499267578120 38.708200454711914 -124.018497467041020
-199.977876663208010 38.100455760955811 -124.659313201904300
-201.016714913504470 40.135386058262419 -124.363856179373600
-200.023714338030150 39.796828678676057 -125.020570482526510
-200.682998657226560 40.860799789428711 -125.300498962402340
-199.591999598911830 34.805457523890901 -122.833142961774560
-199.926572527204230 36.246407372610911 -122.930071149553570
-197.390402221679690 36.154740142822263 -123.568199157714840
-200.754287719726560 38.722784859793528 -123.062856401715960
-200.297831217447910 37.762883504231773 -122.926832834879560
-207.785003662109370 40.717899322509766 -122.185997009277340
-207.071006774902340 40.517400741577148 -122.157997131347660
-202.449497222900390 40.510250091552734 -122.808002471923830
-201.597823199103860 39.733411452349493 -123.025117313160620
-207.835006713867190 40.961799621582031 -122.473999023437500
-207.343002319335940 40.934101104736328 -122.498001098632810
-202.932998657226560 40.891998291015625 -122.447998046875000
-206.455426897321420 35.156914847237722 -120.796999250139510
-205.241201782226570 34.866900634765628 -120.498199462890620
-199.485264025236430 34.694563815468236 -120.839578327379730
-206.843668619791660 35.452899932861328 -120.557668050130200
-200.554400634765610 35.906919097900392 -120.440798950195320
-200.057374000549320 36.203731298446655 -121.330374717712400
-200.501750946044920 38.584399223327637 -121.277750015258790
-200.333200073242180 37.952330017089842 -121.032199859619140
-208.392866007486990 39.731806945800784 -121.195867411295570
-206.684751129150380 39.862554740905765 -121.169599914550790
-204.598999023437500 40.627699851989746 -120.542499542236330
-203.019665188259550 40.568411085340713 -121.142944759792750
-201.356522933296530 39.687091329823367 -121.165564827297050
-202.983993530273440 40.826900482177734 -121.960998535156250
-210.305664062500000 34.874800364176430 -118.553998311360670
-204.644332885742190 35.087967554728188 -119.957164764404300
-202.837543834339500 34.830554268576883 -119.097726301713420
-201.141448974609370 34.657550048828128 -119.336500549316410
-200.250335693359370 34.104966481526695 -120.053667704264330
-206.187220255533840 35.956944783528648 -119.352556016710070
-205.051999178799720 35.724981828169390 -119.231908624822440
-203.665664672851560 35.689500172932945 -119.028666178385420
-200.649600219726550 36.401940917968751 -119.471199035644530
-200.311665852864590 36.987000783284508 -118.945332845052080
-210.186499023437510 38.381350326538083 -119.250499725341800
-208.719000009390020 38.602807265061600 -118.994154123159560
-207.393005371093750 38.382400512695312 -118.611999511718750
-199.885665893554690 38.115193176269528 -119.267466735839850
-208.830001831054690 39.011798858642578 -119.928001403808590
-206.443384023813110 39.661138681265022 -119.493537315955540
-204.934616088867190 40.628199944129356 -119.416691706730770
-202.454505920410160 40.720849990844727 -119.679498672485350
-201.065335083007820 40.263153584798175 -119.452267456054680
-199.982668558756500 39.530533154805504 -119.151666641235350
-203.157917022705080 41.021383285522461 -119.112250645955400
-201.878005981445310 40.861598968505859 -118.870002746582030
-211.626400756835950 35.000119781494142 -117.237998962402340
-210.099665323893220 34.970699310302734 -118.267997741699220
-208.683998955620670 34.856677585177948 -117.629220750596790
-206.423834482828770 34.746408462524414 -117.304665883382160
-205.630004882812500 35.053100585937500 -118.280998229980470
-211.763131713867180 36.140900166829425 -117.102999369303390
-210.158599853515620 36.150346374511720 -117.910666910807290
-208.537788792660360 36.181478600752982 -117.316737526341480
-206.667001996721550 36.140278407505583 -117.401570456368590
-204.750249226888030 36.435633341471352 -117.685000101725270
-203.144856044224330 36.327963965279714 -117.563571384974890
-201.318222045898440 36.714800092909073 -117.431555006239150
-200.296249389648440 37.123700141906738 -117.672000885009770
-212.345993041992190 37.499000549316406 -116.946998596191410
-209.826995849609370 38.075401306152344 -118.379997253417970
-208.556801350911460 37.844720204671226 -117.876733398437490
-206.530426025390620 38.058606828962056 -117.601499285016740
-205.642501831054690 37.439599990844727 -116.877502441406250
-199.296449279785150 38.149539947509766 -117.601449966430660
-206.098921555739200 39.467691861666168 -117.787692730243390
-205.363846998948300 40.361469268798828 -117.645692678598250
-199.377781743588660 40.114352184793226 -117.645608984905730
-198.508666992187500 39.489365895589195 -116.834999084472660
-204.500714983258920 40.919656481061665 -117.592571803501670
-203.186468505859380 41.350020090738930 -117.526134745279950
-201.359427315848220 41.358621324811665 -117.577142442975730
-200.020141601562500 41.064842769077849 -117.169429234095990
-213.655502319335940 35.050849914550781 -115.792499542236330
-212.554000854492190 34.995349884033203 -116.389999389648440
-213.529795837402330 36.096580505371094 -115.553500366210940
-212.647416432698580 36.251317024230957 -116.247250239054370
-204.485666910807280 37.025599161783852 -116.277000427246090
-202.978352266199440 36.879341798670154 -115.958883397719430
-201.436555650499140 36.987077924940323 -115.869778951009110
-200.382995605468750 37.177898406982422 -116.475997924804690
-213.037994384765620 37.409999847412109 -116.157997131347660
-212.561004638671870 37.423599243164063 -116.654998779296870
-205.828002929687500 39.005798339843750 -116.432998657226560
-205.070422245905950 37.975619536179764 -115.712615379920380
-203.891502380371090 37.376298904418945 -115.109996795654300
-200.946334838867190 37.329832712809242 -115.041669209798170
-199.491633365028780 37.833052584999486 -115.724947477641860
-198.381248474121090 38.699738025665283 -115.749875068664550
-205.091445922851560 40.121805614895294 -115.659278445773650
-198.921997070312500 40.673599243164062 -116.566997528076170
-198.018099212646490 39.955555152893069 -115.647199249267570
-204.357124328613280 41.045725345611572 -115.677375793457030
-203.131727738813910 41.668554132634945 -115.727454445578830
-201.330141339983270 42.044442858014790 -115.679286956787110
-199.484546314586280 41.564631895585492 -115.796818473122340
-198.230429513113850 41.113357543945313 -115.256857735770080
-204.418582916259770 38.548508326212563 -114.145334243774410
-203.150550842285160 37.760264968872072 -113.973449707031250
-201.382909601384940 37.588255101984196 -113.835363908247520
-199.512467447916660 37.974213409423825 -113.960733540852870
-198.057666354709200 38.734756045871308 -113.923111809624570
-204.463499886649000 39.892763955252512 -113.862999507359090
-197.316498892647870 39.847364425659180 -114.107713426862450
-196.734504699707030 40.269899368286133 -113.476497650146480
-204.202995300292970 40.900751113891602 -114.211997985839840
-203.132698822021500 41.708160018920900 -113.909250259399410
-201.325444539388030 42.379288991292320 -113.927556355794270
-199.488221910264770 42.351121690538193 -114.106222364637590
-197.637362393465910 41.524154489690609 -114.036908583207560
-199.824501037597660 42.716999053955078 -113.458499908447270
-202.925367656506980 38.512805537173620 -112.338630274722450
-201.340585072835300 38.109808286031090 -112.156166712443040
-199.563833448621950 38.307388729519317 -112.110500335693360
-198.050888061523440 38.746766832139755 -112.382665846082900
-204.096996307373050 40.002400398254395 -112.862997055053710
-203.537287030901240 39.749564307076589 -111.880285535539900
-197.262460561899050 39.353584582989029 -112.114077054537260
-196.440001267653260 40.219423147348259 -112.154461200420670
-203.080693783967400 41.568812992261805 -112.204434602156920
-201.830220540364590 42.423377566867401 -112.389332241482210
-197.253282819475460 42.307785579136443 -112.722856794084820
-196.315306290336280 41.695604075556219 -112.100086046301800
-201.044500350952150 42.803124904632568 -111.991250038146970
-199.536645328297340 42.992317424100989 -112.226530187270210
-197.770462036132810 42.940007723294769 -111.956154456505400
-196.592498779296870 42.789300918579102 -111.449001312255860
-202.371002197265620 38.952499389648437 -110.893997192382810
-201.348600769042970 38.725699996948244 -110.510501098632820
-199.596616304837740 38.723123110257660 -110.388538067157460
-198.319000244140620 38.978551864624023 -110.673500061035160
-202.715577778063330 39.854931279232630 -110.401263588353200
-201.802332560221340 39.253866831461586 -109.808667500813800
-198.848999023437500 39.116401672363281 -109.464996337890620
-197.460998535156250 39.366600354512535 -110.227833429972340
-196.070248603820800 40.219512224197388 -110.371061801910400
-202.696286882672980 41.489893232073101 -110.415642874581480
-201.966125488281250 42.335436820983887 -110.193249702453610
-195.385665893554690 41.762460072835289 -110.382133483886720
-194.877998352050780 41.997348785400391 -109.654499053955080
-201.173797607421870 42.819229888916013 -110.336798858642580
-199.572354997907350 43.391364233834402 -110.357071467808310
-197.703332265218110 43.602025032043457 -110.353334426879880
-195.987895764802630 43.210746965910261 -110.193526820132600
-194.981994628906250 42.636199951171875 -109.643997192382810
-200.828994750976560 39.003299713134766 -109.430999755859370
-199.829330444335940 38.954065958658852 -109.414001464843750
-202.329498291015620 40.504650115966797 -109.180500030517580
-201.408448791503900 39.840735054016115 -108.578049850463870
-199.573916117350250 39.324558575948082 -108.412750244140620
-197.639769334059510 39.628884535569412 -108.587615379920380
-196.073854718889520 40.251113891601562 -108.637427193777900
-202.349498748779300 41.262949943542480 -109.173248291015620
-201.747236364028030 41.859941145953009 -108.457941391888780
-195.168334960937500 40.881100972493492 -108.463333129882810
-194.575199381510430 41.823186492919923 -108.682132975260420
-200.865249633789060 43.017350196838379 -108.633083343505860
-199.560387505425350 43.685150358412002 -108.652887980143230
-197.673311233520510 44.112718582153320 -108.709062576293950
-195.670698547363290 44.028730010986330 -108.644300842285160
-194.612802124023430 43.415726470947263 -108.370866394042960
-197.070999145507810 44.425149917602539 -107.911502838134770
-196.335006713867190 44.444900512695312 -107.907997131347660
-200.904569353376100 40.426043374197825 -107.069572448730470
-199.594858078729540 40.036576225644069 -106.783618745349700
-197.625534057617190 40.103286488850912 -106.699400329589850
-196.028415679931640 40.575275103251137 -106.719167073567700
-201.066221449110230 41.626966688368057 -106.626999749077700
-195.305496215820310 40.955499649047852 -106.170997619628910
-193.995000203450530 42.037399927775063 -106.447001139322920
-200.730111016167540 42.959622701009117 -106.853887769911030
-199.585607114045530 43.812004586924679 -106.662304090416950
-198.270996093750000 44.312301635742187 -107.410003662109370
-193.824779934353300 43.735399670071075 -106.911333719889330
-193.192993164062500 43.520999908447266 -105.994003295898440
-198.792007446289060 44.458099365234375 -105.942001342773440
-197.597533162434900 44.689346313476563 -106.569198608398440
-195.812561035156250 44.913255691528320 -106.702000617980960
-194.353428431919640 44.741149629865376 -106.445856911795470
-199.382110595703120 40.609433492024742 -105.434778849283860
-197.586901855468740 40.556030273437500 -105.034400177001960
-196.144004821777340 40.751251220703125 -105.485496520996090
-200.523714338030150 42.036057063511443 -105.435284205845420
-199.844556172688810 41.469689051310219 -104.730389489067930
-198.376007080078120 40.829498291015625 -104.349998474121090
-195.879111395941830 40.979844411214195 -104.813779195149730
-193.924546675248590 41.724118319424718 -104.750908591530550
-192.959665934244780 42.482299804687500 -104.940999348958330
-199.572579634817030 43.733173771908412 -104.977368404990740
-192.736001332600920 43.466408411661781 -105.017417271931960
-198.772994995117190 44.429901123046875 -104.445999145507810
-197.812784467424680 44.908949988228933 -104.968999590192520
-196.027833302815760 45.438541730244957 -104.963832219441730
-193.959799194335940 45.283373260498045 -105.029933675130210
-192.792555067274290 44.817232767740883 -104.518887837727860
-199.257001604352670 42.000776745024183 -103.254334222702750
-197.693684628135290 41.343615682501543 -103.055894550524260
-195.824383075420680 41.383654961219200 -103.235614483173080
-194.194665527343740 41.774100240071611 -103.194333902994790
-199.386115579044120 43.668512232163373 -103.207235448500680
-192.064167022705080 43.547674814860024 -103.461416880289720
-191.410995483398440 44.004699707031250 -102.392997741699220
-198.791248321533200 44.469875335693359 -103.190498352050780
-197.804591092196380 45.087163578380235 -103.109091325239700
-196.126907348632810 45.740400487726383 -103.247817299582740
-193.920198059082030 45.974559783935547 -103.643498992919920
-192.316071082805760 45.388462461274244 -103.125861858499460
-191.392501831054690 44.738750457763672 -102.395000457763670
-195.276992797851560 46.275398254394531 -102.387001037597660
-194.129875183105470 46.378874778747559 -102.666625022888180
-192.867996215820310 46.393100738525391 -102.382003784179690
-198.713500976562500 42.383848190307617 -102.036998748779300
-197.667801920572910 42.139420064290363 -101.431733703613280
-195.965929303850460 41.954171589442659 -101.123500279017860
-194.121247609456390 42.146691004435219 -101.368000030517580
-192.824996948242190 42.480300903320313 -100.921997070312500
-198.907600402832030 43.334380340576175 -101.679500579833980
-198.283555772569460 43.081177605523003 -100.854554918077260
-193.367004394531250 42.634601593017578 -100.486999511718750
-191.261993408203120 44.004001617431641 -101.971000671386720
-198.717002868652340 44.457550048828125 -101.723503112792970
-197.870556301540800 45.213727527194550 -101.278666178385420
-196.472002301897330 46.012357439313618 -101.505284990583150
-191.605003356933590 45.995151519775391 -101.916000366210940
-190.937834845648870 45.382489522298179 -101.275000254313160
-195.645429338727670 46.389342171805247 -101.342427934919090
-194.129770132211550 46.734030796931343 -101.411615811861480
-192.126666598849820 46.734994888305664 -101.406221601698140
-191.223251342773440 46.748149871826172 -100.793001174926760
-196.876007080078120 42.398300170898438 -100.365997314453120
-195.883334689670140 42.410778045654297 -99.885211520724823
-194.485666910807280 42.450499852498375 -100.079167683919270
-197.617769681490390 43.450869340163010 -99.649481553297775
-195.997001647949220 42.861774444580078 -99.087473869323730
-194.171000162760410 42.684700012207031 -99.301816304524735
-197.584956293520720 45.338100267493203 -99.675721541694969
-196.453994750976560 46.206401824951172 -100.444999694824220
-190.082922128530640 45.273876777062050 -99.941500150240387
-189.481501261393220 45.506766637166344 -99.051031748453781
-195.923001607259120 46.551841100056969 -99.684366861979171
-194.077069963727670 47.124021257672993 -99.756878989083432
-192.524836222330720 47.386250178019203 -99.925083160400391
-190.410126686096190 46.963325500488281 -99.554593563079834
-189.449005126953120 46.494899749755859 -98.844200134277344
-197.055834452311190 44.047033309936523 -98.211966196695968
-195.968459447224940 43.650704224904381 -97.785262743632003
-194.483615581805880 43.182238945594200 -97.742439856896027
-191.223007202148440 44.295398712158203 -97.314201354980469
-197.130749702453610 45.281930923461914 -97.937075138092041
-196.628749847412110 45.169599533081055 -96.979576110839844
-190.578498840332030 44.755149841308594 -96.959899902343750
-195.909136685458090 46.848563974553890 -97.692191384055391
-194.071561813354490 47.620406389236450 -97.765856266021729
-192.337832132975250 47.872117360432945 -98.146450042724609
-190.250999450683590 47.725799560546875 -97.760238647460938
-188.638133748372380 47.001593271891274 -97.726953124999994
-193.332000732421870 48.021999359130859 -96.935997009277344
-192.322163899739590 48.123851140340172 -97.215198516845703
-190.712666829427090 48.146216710408531 -97.306316375732422
-195.497501373291020 44.240374565124512 -96.409475326538086
-194.055313110351560 43.958968513890319 -96.046910336143085
-192.407667795817050 43.595966974894203 -95.953924814860031
-190.536001586914070 43.390107218424482 -95.704813639322921
-196.043680419921880 45.183248138427736 -95.946672058105463
-194.904998779296870 44.624450683593750 -95.342052459716797
-191.828002929687500 44.504199981689453 -95.432197570800781
-190.483200073242190 45.041299819946289 -95.757408905029294
-189.373992919921870 45.602600097656250 -95.442497253417969
-195.644915262858060 46.939975102742515 -95.993457794189453
-194.559000651041660 47.785088857014976 -96.043632507324219
-188.809666951497410 47.684167226155601 -95.944198608398438
-193.678334554036470 48.195917129516602 -95.765715281168625
-192.383100891113290 48.539780426025388 -96.014730072021479
-190.544061660766600 48.490018844604492 -95.931487560272217
-189.077000935872410 48.229683558146156 -95.507982889811203
-195.420999380258420 45.717061262864334 -94.525361281174881
-194.176215580531530 45.073196547372000 -94.159263883318218
-192.329830169677730 44.765925089518227 -94.169074376424149
-190.524058622472440 45.178259008071002 -94.221377653234143
-189.033700561523430 45.619400024414063 -94.083049774169922
-195.335398864746080 46.851779937744141 -94.325499725341800
-194.715666029188360 47.548722585042320 -94.095321655273438
-188.333831787109370 47.223566691080727 -93.879683176676437
-193.790213448660720 48.397742407662527 -94.077892848423545
-192.342133585611980 49.025933074951169 -94.084146118164057
-190.630866495768230 49.234506479899089 -94.125986226399746
-188.721251678466790 48.845379829406738 -94.061894989013666
-187.477335611979160 48.358533223470054 -93.445933024088546
-193.802614652193510 45.888599982628456 -92.538261413574219
-192.340458796574520 45.503915053147537 -92.369384765625000
-190.559922438401430 45.550738408015327 -92.397039560171280
-189.157000732421860 46.063021087646483 -92.543060302734375
-194.270048522949220 47.010605049133304 -92.216230392456055
-188.307139805385050 46.747435433523997 -92.421892438616069
-187.592330932617190 47.255366007486977 -92.236534118652344
-193.685921302208530 48.551815619835487 -92.310629624586838
-192.468914031982420 49.277475357055664 -92.388208389282227
-190.758996146065840 49.689671652657644 -92.746512276785708
-188.566329956054690 49.575921800401474 -92.694190131293396
-187.197946336534300 48.873911327785919 -92.179677751329208
-190.327168782552090 50.015416463216148 -92.185202280680343
-188.707502365112300 49.998449802398682 -91.929699897766113
-192.074752807617190 46.013975143432617 -91.188076019287109
-190.578248341878260 46.004741668701172 -90.932523727416992
-189.358993530273440 46.096900939941406 -91.452400207519531
-193.552265421549490 47.283000437418622 -90.793446350097653
-192.587267049153640 46.699426523844402 -90.336560567220047
-190.637200927734370 46.361720275878909 -89.969479370117185
-188.540199788411460 46.624813334147134 -90.624660237630209
-187.221134440104180 47.474699910481768 -90.636186726888027
-193.530197143554690 48.500499725341797 -90.827902221679693
-192.707154494065490 49.336238567645736 -90.576908405010514
-186.516135475852280 49.001891222867101 -90.636781865900218
-185.843498229980470 49.250349044799805 -89.922149658203125
-191.827887641059020 50.051644643147789 -90.440466986762146
-190.580572945731030 50.382571356637136 -90.747392381940571
-188.642537043644840 50.585199796236481 -90.571446345402649
-186.975294225356150 50.236134921803192 -90.348776873420263
-192.197200012207020 47.468720245361325 -88.901230239868170
-190.655765309053320 46.956293891457953 -88.670029135311353
-188.693286350795200 46.944242749895366 -88.768113817487446
-187.134467569986980 47.580433146158853 -88.623072306315109
-192.490100860595700 48.935380172729495 -88.717989730834958
-186.261999130249020 48.174162387847900 -88.681025505065918
-185.570624351501460 49.012987613677979 -88.677462577819824
-191.753441704644100 50.093655480278862 -88.757432725694443
-190.554946096319900 50.791831568667760 -88.561500147769323
-188.650352029239430 51.257258471320654 -88.721541909610522
-186.783721923828120 51.039949840969513 -88.886627621120880
-185.572867838541670 50.567186737060545 -88.522953287760416
-187.824005126953120 51.614101409912109 -87.977600097656250
-186.751007080078120 51.644500732421875 -88.023200988769531
-191.494003295898440 47.796699523925781 -87.756301879882813
-190.398916880289700 47.687266667683922 -87.138775507609054
-188.721785409109940 47.473392486572266 -87.025621686662944
-187.247125625610350 47.761512279510498 -86.919425010681152
-191.817198689778650 48.940226999918622 -87.203513590494794
-190.948089599609370 48.486809817227453 -86.497463573109016
-186.257998657226550 48.199559783935548 -87.028359985351557
-185.300400797526040 48.984813181559247 -86.933880106608072
-191.585000610351560 50.046260833740234 -86.969679260253912
-190.582873344421390 51.024499893188477 -86.935893535614014
-189.344497680664060 51.539699554443359 -87.185401916503906
-184.802695896314530 50.836417820142664 -87.018847258194640
-184.069999694824220 50.771301269531250 -86.083148956298828
-188.383916219075530 51.838166872660317 -86.938425064086914
-186.893582661946620 52.014225006103516 -86.918891270955399
-185.249418894449860 51.931441624959312 -86.553317387898758
-188.835001627604160 47.919633229573570 -85.892400105794266
-187.563499450683590 47.908849716186523 -85.903949737548828
-190.350043255349870 49.009221450142242 -85.327442998471469
-188.715466308593760 48.376119995117186 -84.975200398763022
-186.769181685014220 48.313836531205610 -85.097909407182172
-185.079773642800060 49.085045207630507 -85.229563279585406
-184.117996215820310 49.794498443603516 -84.455802917480469
-190.498739491338310 50.769956339960515 -85.222726573114812
-184.228996276855470 50.758451461791992 -85.980049133300781
-183.686520783797560 50.728047909943953 -85.085700325343922
-189.654998779296870 51.842899322509766 -84.968597412109375
-188.764501190185540 52.111544227600099 -85.182909393310553
-186.891384418194120 52.669115506685699 -85.129353449894836
-185.028237479073650 52.549975803920198 -85.227980840773810
-183.714272238991470 52.177772521972656 -84.758798772638499
-189.822001139322910 49.715166727701821 -83.965530395507813
-188.751610649956600 49.313227971394859 -83.455095503065323
-186.912082672119140 48.874749819437660 -83.321392059326172
-185.079812049865720 49.257737636566162 -83.308356285095215
-184.130335489908840 49.734933217366539 -83.427632649739579
-189.925466918945320 50.702980295817056 -83.647653198242182
-189.399251302083340 50.628225008646645 -82.867241541544601
-183.159188406808030 50.713661557152157 -83.324014209565661
-188.666646620806520 52.384447209975299 -83.371835147633277
-186.991000705295140 53.093344794379341 -83.538145277235245
-185.316830952962250 53.222633997599281 -83.820782979329422
-183.073237827845990 52.720661526634579 -83.345670790899362
-182.273750305175780 52.531925201416016 -82.534399032592773
-186.311996459960940 53.429798126220703 -82.915100097656250
-184.976901245117180 53.579400253295901 -82.956410217285153
-183.549995422363280 53.576200485229492 -82.718399047851562
-187.903495788574220 49.599100112915039 -82.331249237060547
-186.968908136541190 49.515491138805039 -81.917927828702062
-185.167385394756620 49.563153780423676 -81.621837909405045
-184.173995971679690 49.740299224853516 -82.411300659179687
-188.652267456054690 50.758096822102864 -81.639279683430985
-187.251571655273440 50.080357142857146 -81.078114100864951
-184.276000976562500 49.858001708984375 -81.149848937988281
-183.125722249348970 50.441694259643555 -81.711816151936844
-182.163125991821290 51.350749969482422 -81.441549301147461
-188.435687065124510 52.493806362152100 -81.683418273925781
-187.352626800537110 53.290662288665771 -81.674725532531738
-182.457992553710940 53.352298736572266 -82.309501647949219
-181.715800984700510 52.662906646728516 -81.422119140625000
-186.562111748589420 53.621011098225914 -81.713922288682724
-185.060067749023430 54.075606791178387 -81.453386433919277
-183.270071847098220 54.075614384242463 -81.662713732038227
-181.928417205810550 53.870666821797691 -81.190425237019852
-188.046997070312500 51.291179656982422 -80.317160034179693
-186.934218033500340 50.831604501475461 -79.740034352178156
-185.086750030517580 50.191043376922607 -79.727981090545654
-183.178121566772460 50.560130834579468 -79.681736469268799
-181.964461106520450 51.219545804537262 -79.631183330829330
-188.201636574485090 52.176645452325992 -79.989008816805750
-187.540299987792960 52.414160156249999 -79.358811950683588
-181.144684640984790 52.381104921039785 -79.711142289011107
-180.536336263020840 53.022266387939453 -79.087999979654953
-186.700769277719360 53.869677030123199 -79.584784287672775
-185.140471609015210 54.550547348825553 -79.720110441509050
-183.374803161621090 54.833509826660155 -79.827240753173825
-181.378417332967130 54.474070707956948 -79.856246630350753
-180.407375335693360 53.949299812316895 -79.272101402282715
-182.986668904622410 55.373200734456383 -78.953099568684891
-182.369003295898440 55.321800231933594 -78.871803283691406
-186.291999816894530 51.320150375366211 -78.477600097656250
-185.089608934190550 51.026266945732964 -77.996893141004776
-183.377899169921870 50.874560165405271 -77.970742034912107
-181.880664825439450 51.323800404866539 -77.937775929768875
-186.799229548527650 52.357615544245796 -77.951784280630264
-185.817497253417970 51.778949737548828 -77.448200225830078
-180.918887668185760 52.091078016493057 -77.939945644802521
-180.306251525878910 52.892763137817383 -77.850538253784180
-186.900142124720990 53.742971147809712 -77.892542157854351
-185.155001322428380 54.866291681925453 -77.973774592081710
-179.707499577448910 54.432926764855019 -77.950734358567459
-184.239003499348970 55.302800496419273 -77.917900085449219
-183.321667141384550 55.557878282335068 -77.927921719021271
-181.511691753680880 55.602922879732574 -78.087162311260514
-180.053713117327020 55.484256744384766 -77.665700639997212
-184.504002888997410 51.471800486246742 -76.746431986490890
-183.280002593994140 51.405712127685547 -76.471188545227051
-182.120999145507820 51.467639923095703 -76.524679565429693
-186.213598632812510 52.895860290527345 -76.630900573730472
-185.156677246093750 52.362806873936805 -76.089331596128403
-183.466999053955080 51.821623802185059 -75.535100936889648
-181.324333699544270 51.866699981689450 -76.091887410481775
-180.077525891755760 52.812910581889902 -76.149158277009661
-186.347998985877410 53.980715531569260 -76.296938969538758
-185.629501342773440 54.261849085489906 -75.989649454752609
-179.079429626464840 53.932400022234233 -76.288851056780132
-178.326230562650240 54.730815594012924 -75.970862755408660
-184.594142368861610 55.395586286272319 -76.434428623744424
-183.795751571655270 55.892861366271973 -76.054498672485352
-181.145427158900670 56.431443350655691 -76.459557669503354
-179.600149536132820 56.022674751281741 -76.211180114746099
-178.260302734374990 55.862120437622067 -75.636639404296872
-179.987164815266940 58.390316645304360 -75.765700022379562
-180.285750071207670 59.460649808247886 -75.858782450358078
-184.667000664605040 53.002589331732857 -74.762956407335068
-183.430914837381120 52.547256801439367 -74.224594447923749
-181.421784537179120 52.111885343279155 -74.387506757463726
-179.953589944278490 52.725882361916938 -74.348259420955884
-185.154731163611790 54.266027010404144 -74.289860945481522
-184.205993652343750 53.630699157714844 -73.535797119140625
-179.118597412109380 53.597460174560545 -74.530639648437500
-178.081999884711370 54.484683142768013 -74.358665890163849
-184.793668111165370 55.595200220743813 -74.294050852457687
-183.574498494466160 56.395116170247398 -74.261801401774093
-181.773996988932280 56.827200571695961 -74.417765299479171
-179.561500549316410 56.742829513549808 -74.482639312744141
-177.675159912109360 56.260472106933591 -74.523756103515623
-176.854999542236330 55.986312389373779 -73.861687660217285
-182.531005859375000 57.121601104736328 -73.485000610351562
-181.461001309481530 57.802290829745203 -74.334213256835938
-179.914667765299470 57.494416554768883 -74.012767791748047
-177.948800659179680 57.178919219970702 -73.694839477539062
-182.946199035644530 53.083340072631835 -72.767739868164057
-181.685725818980810 52.776973030783914 -72.403581099076703
-179.757647346047800 52.792517493752875 -72.607599595013781
-184.621073041643430 54.645956856863840 -72.867214202880859
-183.665687561035160 53.887425184249878 -72.499130725860596
-178.981399536132810 53.575439453125000 -72.532659912109381
-184.930999755859370 55.562100001743865 -72.563200814383364
-183.650332132975250 56.681566874186196 -72.864667256673172
-182.904997253417970 57.298000717163085 -72.481430816650388
-181.269251251220710 52.533175086975099 -70.895726013183591
-182.212399291992200 53.520400238037112 -70.634278869628901
