ply
format ascii 1.0
element vertex 448
property double x
property double y
property double z
end_header
-191.240005493164060 48.925201416015625 -100.551002502441410
-191.902999877929690 48.066101074218750 -99.846801757812500
-190.445646398207710 48.502558764289404 -99.419387368594897
-189.202571323939740 48.992743355887278 -98.944699968610493
-188.432006835937500 50.077301025390625 -98.797996520996094
-188.528278774685330 45.583516862657333 -97.786945766872833
-187.781005859375000 45.013401031494141 -96.970901489257813
-187.679000854492190 47.487800598144531 -97.084800720214844
-188.573443942599820 48.554518523039640 -97.875558923791957
-187.367922269381010 49.127500093900238 -97.363261296198914
-188.231994628906250 49.961299896240234 -98.544097900390625
-187.120002746582030 50.030948638916016 -97.633850097656250
-193.424398803710940 42.019439697265625 -95.718818664550781
-192.357770479642430 41.987338432898888 -95.613445575420670
-191.092568533761150 42.281128474644255 -95.384114946637837
-187.048353307387400 45.505647098316864 -95.802329568301928
-186.943105597245080 47.136389079846836 -95.816515069258841
-186.564188957214360 48.657468557357788 -96.222918510437012
-185.476333618164060 49.190166473388672 -95.529391606648758
-184.130004882812500 49.809600830078125 -95.098999023437500
-191.650497436523440 40.639148712158203 -94.287601470947266
-190.754333496093750 40.592416127522789 -93.916665395100907
-192.066142490931920 41.207914624895366 -94.794641767229351
-190.411916732788090 41.606396039326988 -94.392867406209305
-189.142634998668310 42.082245566628195 -93.655999617143110
-189.821495056152340 43.254449844360352 -94.941001892089844
-188.719946610300160 43.442062779476771 -94.117431239077916
-187.164284842354900 44.121314457484651 -93.745185852050781
-186.382999420166020 45.015808423360191 -94.417767206827804
-185.481460571289060 45.577222970815804 -93.892430232121399
-186.220249176025390 46.749725341796875 -94.785425186157227
-185.388367502312920 47.186889246890416 -93.950068825169609
-184.763089960271660 48.672081513838336 -94.339513258500531
-183.667856488909050 49.238064084734233 -93.877963474818642
-183.470497131347660 49.886199951171875 -94.279098510742188
-189.727996826171870 40.428398132324219 -93.068199157714844
-188.749496459960940 40.439516703287758 -92.578484853108719
-188.405832078721800 41.579410976833771 -92.603333791097000
-187.504100036621080 42.063089752197264 -91.897160339355466
-186.879464285714280 43.430656978062224 -92.478071212768555
-185.396429879324780 44.074113845825195 -92.147227696010049
-184.840813636779790 45.115144014358521 -92.766168117523193
-183.673999023437490 45.297372945149739 -91.891193644205728
-184.466891818576390 47.057166629367401 -92.845833672417541
-183.706694382887630 47.237076979417068 -91.979337838979873
-183.384249687194820 48.634412765502930 -92.369688034057617
-182.237998962402340 49.192949295043945 -91.512348175048828
-186.779810587565090 41.810852414085751 -90.673257736932669
-185.889994303385410 42.380400339762367 -90.050099690755204
-186.245498657226560 42.926666259765625 -91.018515268961593
-185.112375259399410 43.435316562652588 -90.585920969645187
-183.312335968017580 44.044900258382164 -90.289824803670243
-182.852616530198300 45.206107799823471 -90.946130018967850
-181.955356052943640 45.347071783883230 -90.057507651192807
-182.900917053222660 47.047700246175133 -91.029050191243485
-182.064083099365230 47.132308006286621 -90.113623936971024
-182.693399047851560 48.345179748535159 -91.177960205078122
-181.964417775472010 48.854450543721519 -90.293007532755539
-186.473427908761150 41.239814758300781 -89.471099853515625
-185.313356672014520 42.060621261596680 -88.800485883440288
-184.604997253417960 42.967140579223631 -89.106858825683588
-183.307334899902340 43.507500118679474 -88.819811926947693
-181.763822667738960 44.019753400017237 -88.534311182358692
-180.233993530273440 44.388500213623047 -88.072097778320313
-181.054000854492190 45.179600055401139 -89.133630018967850
-180.136428833007810 45.363135746547151 -88.333492279052734
-181.129265340169270 47.214852650960289 -89.135140991210932
-180.177362615411940 47.052654613148086 -88.223954634232953
-181.087563514709470 48.797324895858765 -89.047587394714355
-180.361430576869420 48.868100302559988 -88.127443586077007
-180.719505310058590 50.007650375366211 -88.762798309326172
-180.329602050781260 50.314919281005857 -88.340139770507818
-184.505996704101560 42.205699920654297 -87.806198120117188
-184.192993164062500 42.355998992919922 -87.524902343750000
-183.429248809814450 42.845000267028809 -87.576549530029297
-181.565118228687960 43.419305913588580 -87.048535515280335
-179.775470509248630 43.926564609303192 -87.044764799230236
-178.527999877929690 44.087760162353518 -86.396818542480474
-162.938334147135410 43.888533274332680 -86.443433125813797
-162.256996154785160 43.311750411987305 -86.440750122070313
-179.222502136230470 45.399839401245117 -87.531379699707031
-178.165199279785160 45.248870086669925 -86.614741134643552
-164.473007202148440 45.841800689697266 -86.446800231933594
-163.654001871744780 44.861199696858726 -86.602032979329422
-179.303463275616000 47.271530444805435 -87.377192570612976
-178.185062408447270 47.094693660736084 -86.475675582885742
-166.709831237792970 47.613599777221680 -86.687183380126953
-165.635167439778660 46.867516835530601 -86.596598307291671
-179.493316650390620 48.933852145546361 -87.109289470471836
-178.537666320800780 48.686382929484047 -86.312567392985031
-168.688995361328120 49.723800659179688 -86.285301208496094
-167.447662353515620 48.233999888102211 -86.581166585286454
-179.622462346003600 50.323784754826470 -86.798439025878906
-170.614253997802730 50.426424980163574 -86.255775451660156
-159.818000793457030 40.512899398803711 -84.944400787353516
-181.577499389648440 42.471924781799316 -84.454725265502930
-180.084495544433590 42.566101074218750 -84.390850067138672
-161.148999532063810 42.278966903686523 -85.077266693115234
-160.331169128417970 41.424508412679039 -84.851200739542648
-181.518600463867190 42.816553243001302 -85.355459594726568
-179.598842420076070 43.086994773463196 -85.203252691971628
-177.885809035528270 43.543471745082307 -85.152195885067897
-176.312727494673280 43.841145948930219 -84.659026406028048
-162.893999099731450 44.191324710845947 -85.185913085937500
-162.000299835205080 43.312294769287107 -85.104235076904303
-177.316501617431640 45.258225440979004 -85.948225021362305
-176.148257785373260 45.281214961299192 -85.053959316677521
-174.925994873046880 46.021701812744141 -84.263198852539063
-164.808299255371080 45.942030334472655 -85.067438507080084
-163.761600494384770 45.074734878540042 -85.185434722900396
-177.302332560221340 47.263599395751953 -85.802068074544266
-176.119900512695320 47.127444839477540 -85.078925704956049
-174.847000122070310 47.259625434875488 -84.396274566650391
-168.348999023437500 47.962501525878906 -84.458602905273438
-167.022499084472660 47.509400177001950 -85.134699630737302
-165.593000139508920 46.632163728986470 -85.367692129952573
-177.738166809082030 48.925599416097008 -85.695999781290695
-176.100867716471360 48.970559692382814 -84.956013488769528
-174.382444593641480 48.943444569905601 -84.456955803765197
-172.489888509114590 49.324199676513672 -84.416666666666671
-170.485466512044270 49.353606160481768 -84.947679646809902
-169.027097429547980 48.809381030854723 -85.244061787923172
-167.827751159667970 48.251073837280273 -85.690549850463867
-178.876998901367190 50.737098693847656 -85.849899291992188
-177.934501647949220 50.636275291442871 -85.448543071746826
-176.088066609700520 50.595526377360024 -85.062933349609381
-174.328199768066410 50.620530319213870 -84.998079681396490
-172.586599731445320 50.550144577026366 -85.210714721679693
-170.945600891113290 50.167369461059572 -85.520900726318359
-156.642498016357420 36.768276214599609 -82.777151107788086
-157.683692345252410 38.346576690673828 -83.213522104116592
-156.917251586914060 37.743075370788574 -82.795000076293945
-159.190002441406250 40.404219055175780 -83.592900085449216
-158.478333791097010 39.882399876912437 -83.056915918986007
-183.132598876953120 41.620709991455080 -83.159380340576178
-181.551034998010690 41.677992644133390 -83.319329720956304
-179.714271545410160 41.841377431696110 -83.309130928733126
-178.061175178079050 42.058793909409466 -83.086847193100880
-176.482167561848970 42.304483413696289 -82.720631917317704
-160.852005004882810 42.486198425292969 -83.926399230957031
-160.001862265846940 41.687718131325461 -83.283568295565516
-158.988006591796870 40.875999450683594 -82.842102050781250
-177.701199340820320 42.805239868164065 -83.909059143066401
-175.962950897216790 43.138694572448728 -83.564640045166016
-174.255397033691390 43.473305320739748 -83.109419631958005
-173.094400024414060 43.869960021972659 -82.696600341796881
-162.810498555501310 44.281382878621422 -83.431332906087235
-161.702554490831180 43.388833151923286 -83.437317742241760
-160.725997924804690 42.616500854492188 -82.948799133300781
-174.365294512580420 45.065812054802393 -83.797740263097424
-172.674610561794710 45.389316558837891 -82.929239484998917
-170.846500396728520 46.045700073242187 -82.611776351928711
-166.559001922607420 46.042574882507324 -82.662849426269531
-165.156232946059280 45.682488609762750 -83.220106237074901
-163.726642063685830 44.894171306065154 -83.394528525216245
-174.159101867675790 47.092149353027345 -84.092980957031244
-172.566445244683170 47.071783489651153 -83.534898969862198
-170.414165920681430 47.059327867296005 -83.124421861436630
-168.800048828125000 47.124400138854980 -83.234934616088864
-167.231841237921460 46.793704585025182 -83.433673657869036
-165.852996826171870 46.280399322509766 -83.797101338704422
-173.818496704101560 48.501501083374023 -84.219848632812500
-172.424600219726560 48.475770187377933 -84.006460571289068
-170.726902770996110 48.436069869995116 -83.983869934082037
-169.442667643229160 48.121632893880211 -83.993466695149735
-153.885002136230470 35.214750289916992 -81.834548950195313
-152.279668172200530 35.036666870117187 -80.831932067871094
-178.847000122070310 37.014999389648438 -80.821098327636719
-178.354003906250000 37.048301696777344 -80.682403564453125
-155.955249786376950 37.083199501037598 -82.051948547363281
-154.391313552856450 36.324275016784668 -81.363975048065186
-153.285998535156240 35.922119903564450 -80.976881408691412
-179.551888359917540 38.376444498697914 -80.963578118218322
-177.945846557617190 38.316730499267578 -80.871915377103363
-176.871002197265620 38.571201324462891 -80.708602905273437
-157.503005981445310 38.874198913574219 -82.333900451660156
-156.274953668767750 38.156445243141867 -81.607341419566765
-155.195599365234390 37.552979278564450 -81.067698669433597
-181.366786411830360 40.216685703822542 -81.941078730991904
-179.653650665283210 39.994714927673343 -81.734890747070310
-177.783364035866470 40.102227644486860 -81.521528070623219
-176.325417836507170 39.964099884033203 -81.055250167846680
-174.897003173828120 40.600898742675781 -80.755500793457031
-157.744999132658310 40.012347773501745 -81.661958393297695
-156.884799194335930 39.344200134277344 -81.156880187988278
-183.319000244140620 41.157199859619141 -82.327301025390625
-182.326004028320310 41.040699005126953 -82.401603698730469
-179.333669026692720 41.030501047770180 -82.400433858235672
-177.873777601453980 41.146943834092880 -82.190522935655380
-175.975427536737360 41.543323698497957 -81.848157973516550
-174.384299468994130 41.808399963378903 -81.418733978271490
-172.731768094576320 42.165576641376205 -81.075930081881012
-171.110000610351560 42.566598892211914 -80.854099273681641
-159.860279507107210 42.011233223809135 -81.589238908555771
-158.725001525878890 41.108459472656250 -81.523968505859372
-174.069000244140620 42.720998764038086 -82.219150543212891
-172.520411771886500 43.214453080121210 -81.982357698328357
-170.656278822157110 43.420544306437172 -81.162282731797958
-169.320855276925220 43.948114122663227 -80.849770682198667
-166.811335245768220 44.259400685628258 -80.684633890787765
-165.227200317382820 44.218759918212889 -80.918359374999994
-163.499469532686130 44.016076480641082 -81.460364397834326
-161.676286243257070 43.229418799990697 -81.716419038318449
-160.708328247070310 42.673767089843750 -81.911399841308594
-171.960498809814450 44.638699531555176 -82.288875579833984
-170.512822768267450 45.146264693316290 -81.958159502814794
-168.880634654652000 45.239495710893110 -81.670146248557344
-167.106268075796270 45.185176996084358 -81.644072606013367
-165.388001578194750 44.917614800589426 -81.781785692487446
-164.126599121093760 44.701079559326175 -82.141979980468747
-149.270996093750000 33.586601257324219 -79.470397949218750
-174.239501953125000 34.999724388122559 -79.332675933837891
-172.929003906249990 34.303321075439456 -79.241738891601557
-152.037498474121090 35.039299011230469 -80.467151641845703
-151.035702873678760 34.850864859188306 -79.759158414952893
-149.624124526977540 34.092412948608398 -79.258887290954590
-177.511332194010410 36.847232818603516 -80.517433166503906
-176.040251413981110 36.595457712809242 -80.072657903035477
-174.272308349609370 36.234561920166016 -79.313030536358170
-173.361999511718750 36.251899719238281 -78.873901367187500
-153.868798828124990 36.977300262451173 -80.172918701171881
-152.690888016312210 36.255944569905601 -79.716318201135707
-151.509002685546870 35.569849014282227 -79.227451324462891
-179.813499450683590 38.076848983764648 -80.557598114013672
-177.287994384765620 37.485099792480469 -80.614501953125000
-175.980748494466160 38.038942019144692 -80.306807835896805
-174.194437980651860 38.126881599426270 -79.575062274932861
-173.085000610351560 38.285580444335935 -79.009599304199213
-155.656999860491080 38.737142835344585 -79.927942548479351
-154.646863070401280 37.935136448253282 -79.610509352250531
-153.518005371093750 37.286399841308594 -78.902099609375000
-175.421249389648440 39.479324340820312 -80.515325546264648
-174.138000488281250 39.856076754056488 -80.080453725961533
-172.600998878479000 39.999868869781494 -79.413675308227539
-171.192998250325530 40.554233551025391 -79.026766459147140
-157.855000495910640 40.394562721252441 -79.671481609344482
-156.469410615808810 39.429376489975873 -79.662347681382130
-174.026496887207030 40.937950134277344 -80.551498413085938
-172.395934041341150 41.341912841796876 -80.129386393229169
-170.645043055216460 41.704291502634682 -79.795366287231445
-169.018528657801000 41.940100277171418 -79.456765118767237
-167.231701660156260 42.255020141601563 -79.178480529785162
-165.327997843424470 42.504966735839844 -78.934333801269531
-163.439398193359380 42.461680603027347 -79.068101501464838
-161.591588637408080 42.203241236069623 -79.531495038200831
-160.047612508138030 41.650689231024849 -79.679900275336365
-158.744501113891600 41.068438053131104 -79.951911926269531
-168.889333089192720 43.261316617329918 -80.333699544270829
-167.119609666907280 43.420835080354109 -79.954756695291266
-165.319498697916660 43.363194359673393 -79.825122409396698
-163.658451080322270 43.117049980163571 -79.939459991455081
-162.133801269531260 42.792079925537109 -80.239241027832037
-170.238006591796870 33.055198669433594 -77.549201965332031
-147.270429338727670 33.199099404471262 -77.648414611816406
-172.119778103298610 34.754199981689453 -78.433377583821610
-170.768648035386040 34.390788358800549 -77.687770619111902
-169.468002319335940 33.863132476806641 -77.124799092610672
-150.440498352050780 35.157462120056152 -78.120176315307617
-149.148999382467820 34.350711598115808 -77.895618214326745
-148.005004882812500 33.744701385498047 -77.405097961425781
-172.590087890625000 36.222504491391391 -78.348169409710422
-171.107750892639160 36.253481149673462 -77.387206077575684
-152.604267374674490 36.742386881510420 -77.925633748372391
-151.314582824707030 35.822707494099937 -78.048566182454422
-172.182461078350370 38.100438044621391 -78.415284963754502
-170.793866984049490 38.273306528727211 -77.665486653645829
-169.736999511718750 38.423900604248047 -77.111297607421875
-156.023888481987850 38.722866906060112 -77.687767028808594
-154.496811866760250 37.989687442779541 -77.997243404388428
-153.439000447591160 37.339633941650391 -77.954032897949219
-171.996337890625000 39.338099161783852 -78.766535441080734
-170.583437919616700 39.886643886566162 -78.359569549560547
-169.012734664113910 39.950757679186367 -77.699888932077513
-167.149233304537260 40.416569342980019 -77.439484816331131
-165.456249237060550 40.546125411987305 -77.265375137329102
-163.582500457763670 40.672675132751465 -77.243673324584961
-161.803665161132810 40.709865570068359 -77.227165222167969
-159.825846745417660 40.511823214017426 -77.697931142953720
-158.168116850011500 39.885070800781250 -77.920628715963929
-156.583003997802730 39.240851402282715 -78.197149276733398
-168.886375427246090 41.045312881469727 -78.520838737487793
-167.028234145220580 41.382299759808710 -78.386824215159692
-165.327666388617620 41.506139119466148 -78.176621754964188
-163.571626027425140 41.587537447611489 -78.094413439432785
-161.665056016710080 41.323883480495880 -78.056861029730896
-160.237499237060550 41.045899391174316 -78.359550476074219
-168.619003295898440 33.486000061035156 -76.892200469970703
-166.893728082830250 33.255499753085047 -75.773736433549360
-166.026000976562500 32.827848434448242 -75.479347229003906
-146.953858511788500 33.234421321323943 -76.256093706403462
-145.587934366861990 32.649786885579424 -75.906933085123697
-144.354499816894530 32.228799819946289 -75.708499908447266
-170.042668660481780 34.811766306559242 -76.870666503906250
-168.811903454008560 34.399633316766646 -76.222185770670578
-167.718502044677730 34.058813095092773 -75.601863861083984
-150.385002136230470 35.313133239746094 -76.163901011149093
-149.057956861413030 34.562565347422726 -76.173987347146735
-147.806375503540040 33.793424606323242 -76.180950164794922
-170.197502136230470 36.260775566101074 -76.782588005065918
-169.083906693892030 36.205863605846055 -76.007522236217156
-167.895500183105470 36.782350540161133 -75.314296722412109
-154.134167989095060 37.069816589355469 -75.739301045735672
-152.724813461303710 36.524555921554565 -76.114644050598145
-151.267266845703120 35.797472890218096 -76.198846944173184
-170.004999796549470 37.679500579833984 -76.914199829101563
-168.829528808593750 38.040870890897864 -76.429922664866723
-167.144525628340860 38.370815678646693 -75.831121745862461
-165.417800903320310 38.770140075683592 -75.479939270019528
-160.828994750976560 39.003799438476563 -75.434303283691406
-159.724200439453110 38.815800476074216 -75.426420593261724
-158.012614323542660 38.678846212533806 -75.727715712327225
-156.319555494520390 38.247022204928925 -76.199988894992401
-154.834307157076320 37.688991840069107 -76.473507220928482
-153.475997924804690 37.233501434326172 -77.025901794433594
-168.331993103027340 39.256799697875977 -76.927150726318359
-166.988783700125570 39.563571657453267 -76.608428955078125
-165.306411743164060 39.756364934584674 -76.353853113511036
-163.575642177036830 39.745939527239116 -76.193232400076724
-161.706290562947600 39.754749933878578 -76.233683268229171
-159.984164767795140 39.604316287570526 -76.341805352105041
-158.273998684353300 39.280221727159287 -76.656621297200516
-143.611999511718750 31.645899772644043 -73.707401275634766
-166.332000732421870 33.501499176025391 -74.928596496582031
-165.169953086159440 33.006740396673031 -74.407876794988454
-163.699726451527000 32.274245002053000 -73.881072998046875
-147.074429103306360 33.130642482212615 -74.269635881696431
-145.543950653076170 32.348410415649411 -74.369415664672857
-144.025833129882810 31.886250178019207 -74.461949666341141
-166.880777994791660 34.453672620985245 -74.684233347574875
-165.755099487304680 34.227440261840819 -73.907330322265622
-152.077667236328120 35.304732004801430 -73.691635131835938
-150.862923255333530 34.975614987886871 -74.275091904860275
-149.088436126708980 34.171093940734863 -74.285624980926514
-147.965995788574220 33.705400466918945 -74.615299224853516
-167.053092262961660 36.111918015913531 -74.666854858398438
-165.508572169712610 36.513956614903044 -73.890720912388389
-164.342002868652340 37.029949188232422 -73.649150848388672
-157.264007568359370 37.192901611328125 -73.820098876953125
-156.268377304077150 36.937187671661377 -73.934112548828125
-154.511620657784590 36.507228488013858 -74.225199744814915
-152.825000469501190 35.895016009990982 -74.358791644756607
-151.560005187988280 35.545999526977539 -74.918399810791016
-166.618835449218750 37.532966613769531 -75.032433827718094
-165.256069728306360 37.926800046648296 -74.762242998395649
-163.547073364257810 38.107099603723597 -74.384640446415659
-161.613476960555370 38.325187019679859 -74.372751650602922
-159.905881993910840 38.150317472570080 -74.391359217026661
-158.158500671386720 37.801745848222211 -74.370512875643641
-156.474663628472230 37.516255696614586 -74.720576816134979
-161.774801635742190 31.642179870605467 -72.477938842773440
-145.217712402343750 31.626943043300084 -72.320741925920757
-143.605266316731760 31.313439941406251 -72.572986857096353
-142.453994750976560 30.713100433349609 -72.511703491210937
-164.470001220703120 33.388099670410156 -73.272499084472656
-163.376086691151500 32.898169393124789 -72.794630299443781
-162.283099365234360 32.413360023498534 -72.169819641113278
-148.775250752766940 33.324258486429848 -72.462908426920578
-147.360399373372390 32.614833323160809 -72.617512512207028
-145.889751434326170 32.009675502777100 -72.805336952209473
-164.878300476074230 34.597919845581053 -73.107970428466800
-163.531176398782180 34.494482376996210 -72.220406027401197
-154.205285208565840 35.168828691755024 -72.246870858328677
-152.661050415039060 34.760190010070801 -72.472385787963873
-150.915550231933590 34.239124870300294 -72.565334701538092
-149.458335876464840 33.904250462849937 -73.074217478434250
-164.836001078287750 35.941366195678711 -73.245433807373047
-163.466718139648440 36.229991912841797 -72.751068115234375
-161.663227428089500 36.568486300381750 -72.355291539972484
-159.822250366210940 36.843633333841957 -72.365891774495438
-158.031368054841690 36.692352294921875 -72.523437500000000
-156.355216979980470 36.242964063371929 -72.636835915701724
-154.736331939697270 35.739225387573242 -72.875733693440750
-153.069000244140620 35.531650543212891 -73.415699005126953
-161.465427943638390 37.439099993024556 -73.283814566476011
-159.838666280110690 37.416833241780601 -73.246916453043625
-158.759002685546870 37.277198791503906 -73.270301818847656
-161.006332397460940 31.341700236002605 -71.422233581542969
-160.098908857865780 31.183263605291192 -70.655263727361501
-146.423004150390620 31.786999702453613 -71.233398437500000
-145.307833353678380 31.404299894968670 -70.779541015625000
-143.676132202148440 30.902886708577473 -70.774193827311194
-142.582996368408200 30.500299930572510 -71.183399200439453
-161.484446207682280 32.901571909586586 -71.140861511230469
-160.393999539888820 32.586939151470474 -70.332523052509018
-152.189333597819000 33.447099685668945 -70.285699208577469
-150.805352603687960 33.080082388485181 -70.645088195800781
-149.071849060058580 32.743040084838867 -70.778885650634763
-147.376818570223720 32.309218666770242 -70.805372758345172
-146.109745025634770 31.950074195861816 -70.184875488281250
-162.695999145507810 34.263250350952148 -71.640602111816406
-161.647768460787260 34.435622875507065 -71.023346534142121
-160.067540095402650 34.808061453012321 -70.318637554462143
-158.224597167968740 35.246319580078122 -70.077998352050784
-156.128856113978800 35.226028442382813 -70.322956630161826
-154.478238060360870 34.698247273763023 -70.680223010835192
-152.890000563401430 33.993915557861328 -70.950676551231965
-151.590499877929690 33.713201522827148 -71.463497161865234
-161.446374893188480 35.686937808990479 -71.387212753295898
-159.858215332031250 35.884343011038645 -71.162170955112998
-158.120366949784140 35.873884100663034 -71.010805230391654
-156.482002258300780 35.633150736490883 -71.080333709716797
-159.346504211425780 31.496100425720215 -69.669750213623047
-158.325732421874990 31.115473429361980 -68.782592773437500
-148.341995239257810 31.804100036621094 -68.514701843261719
-147.327336629231780 31.704266866048176 -68.416765848795578
-145.454501342773430 31.664750099182129 -68.776899719238287
-144.305999755859370 31.462999343872070 -68.905532836914063
-159.602000843394880 32.817836067893289 -69.623500477183953
-158.289953751997500 32.771754698319867 -68.769663377241656
-156.828002929687500 33.511301040649414 -68.184051513671875
-152.413749694824220 33.336662292480469 -68.876376152038574
-150.978182705965910 32.668890866366297 -69.020781083540484
-149.155928475516190 32.103885514395579 -69.038242340087891
-147.262626647949220 32.016687393188477 -69.365711212158203
-146.188664754231780 31.903132756551106 -69.305501302083329
-159.519668579101560 34.199799855550133 -69.713869730631515
-157.933368080540700 34.512537102950247 -69.296819988049961
-156.327499389648440 34.467188517252602 -68.894711388481994
-154.627624511718750 34.263737916946411 -68.888555526733398
-153.344749450683590 33.830699920654297 -68.949924468994141
-157.425251007080080 30.879375457763672 -67.976573944091797
-156.303734334309890 30.809093221028647 -67.250099182128906
-155.046666463216160 31.165150324503582 -66.580416361490890
-148.329996744791660 31.686066945393879 -67.575899759928390
-147.325750986735020 31.505358537038166 -67.184716542561844
-145.787331899007170 31.525974909464519 -67.304299672444657
-157.291999816894530 32.241300582885742 -67.999252319335938
-156.274926321847090 32.742007391793386 -67.619378226143979
-154.560046968005960 32.856404985700337 -66.996481032598581
-152.632999965122760 33.166104452950613 -67.041348048618858
-150.988436698913570 32.719874858856201 -67.212349891662598
-149.246133422851560 32.125660324096678 -67.162480672200516
-154.585502624511720 33.820737838745117 -67.868999481201172
-153.283996582031250 33.715000152587891 -67.835998535156250
-154.034164428710940 31.055333455403645 -65.956600189208984
-152.713555230034730 31.381955676608616 -65.229823642306854
-151.166859218052450 31.545928682599747 -64.764898027692524
-148.815750122070310 31.717512369155884 -65.002888679504395
-147.370298767089850 31.575770187377930 -65.344430541992182
-146.085494995117190 31.538800239562988 -65.932750701904297
-153.759002685546880 31.924600601196289 -66.111602783203125
-152.491832733154300 32.229150613149010 -65.839216868082687
-150.863070896693640 32.211578777858186 -65.573785509381977
-149.288779364691830 32.034144507514107 -65.690466986762146
-145.253005981445310 31.831600189208984 -65.916702270507813
-151.832000732421870 31.025499343872070 -64.412002563476563
-150.276000976562500 31.673900604248047 -64.399803161621094
-149.499003092447910 31.322199503580730 -64.281200408935547
