ply
format ascii 1.0
element vertex 623
property double x
property double y
property double z
end_header
-9.089770317077637 -7.503339767456055 -15.053199768066406
-9.041769981384277 -7.572340011596680 -14.842200279235840
-8.578769683837891 -7.260340213775635 -13.669199943542480
-8.545769691467285 -7.264339923858643 -13.897199630737305
-8.247770309448242 -7.271339893341065 -13.593199729919434
-8.647769927978516 -7.063340187072754 -14.886199951171875
-8.590769767761231 -7.263339996337891 -13.229200363159180
-8.372770309448242 -7.313340187072754 -13.234199523925781
-8.145770072937012 -7.371339797973633 -13.250200271606445
-8.988769531250000 -7.674339771270752 -13.375200271606445
-8.091770172119141 -7.608339786529541 -13.404199600219727
-8.298769950866699 -7.131340026855469 -13.414199829101562
-8.197770118713379 -7.800340175628662 -13.463199615478516
-8.820770263671875 -7.762340068817139 -13.493200302124023
-8.066769599914551 -7.343339920043945 -13.482199668884277
-8.507769584655762 -7.166339874267578 -13.482199668884277
-8.033769607543945 -7.595339775085449 -13.629199981689453
-9.014769554138184 -7.839340209960938 -13.679200172424316
-8.704770088195801 -7.731339931488037 -13.679200172424316
-9.136770248413086 -8.017339706420898 -13.725199699401855
-8.184769630432129 -7.741340160369873 -13.727199554443359
-8.359769821166992 -7.308340072631836 -13.782199859619141
-8.135769844055176 -7.377339839935303 -13.821200370788574
-7.987770080566406 -7.562339782714844 -13.863200187683105
-9.032770156860352 -7.844339847564697 -13.922200202941895
-9.118769645690918 -8.048339843750000 -13.982199668884277
-8.189769744873047 -7.665339946746826 -13.969200134277344
-8.319769859313965 -7.340340137481690 -13.999199867248535
-8.910770416259766 -8.065340042114258 -14.052200317382813
-8.044770240783691 -7.452340126037598 -14.074199676513672
-8.112770080566406 -7.632339954376221 -14.188199996948242
-8.328769683837891 -7.676340103149414 -14.212200164794922
-8.217769622802734 -7.336339950561523 -14.207200050354004
-8.063770294189453 -7.409339904785156 -14.360199928283691
-7.983769893646240 -7.617340087890625 -14.394200325012207
-8.229769706726074 -7.569340229034424 -14.397199630737305
-8.332770347595215 -7.267340183258057 -14.391200065612793
-8.405770301818848 -7.521339893341065 -14.521200180053711
-8.158769607543945 -7.271339893341065 -14.534199714660645
-8.481769561767578 -7.261340141296387 -14.563199996948242
-8.066769599914551 -7.464340209960938 -14.588199615478516
-8.995770454406738 -7.681340217590332 -14.621199607849121
-8.328769683837891 -7.362339973449707 -14.685199737548828
-9.183770179748535 -7.742340087890625 -14.746199607849121
-8.246769905090332 -7.146339893341065 -14.722200393676758
-8.454770088195801 -7.142340183258057 -14.801199913024902
-9.278770446777344 -7.587339878082275 -14.920200347900391
-8.316769599914551 -6.822340011596680 -14.934200286865234
-9.390769958496094 -7.397339820861816 -14.986200332641602
-8.369770050048828 -7.071340084075928 -14.993200302124023
-8.514769554138184 -6.882339954376221 -15.014200210571289
-9.233770370483398 -7.357339859008789 -15.149200439453125
-8.522769927978516 -7.051340103149414 -15.177200317382813
-8.690770149230957 -6.908339977264404 -15.178199768066406
-6.355770111083984 -13.119299888610840 -9.463190078735352
-7.426770210266113 -14.120300292968750 -9.334190368652344
-7.397769927978516 -14.303299903869629 -9.472189903259277
-7.217770099639893 -14.145299911499023 -9.498189926147461
-6.355770111083984 -13.119299888610840 -9.463190078735352
-7.374770164489746 -13.989299774169922 -9.529190063476563
-7.200769901275635 -14.362299919128418 -9.570190429687500
-7.161769866943359 -13.938300132751465 -9.577190399169922
-6.429769992828369 -12.917300224304199 -9.551190376281738
-6.433770179748535 -13.332300186157227 -9.576189994812012
-6.593770027160645 -13.143300056457520 -9.571189880371094
-7.230770111083984 -13.636300086975098 -9.617190361022949
-7.384769916534424 -13.433300018310547 -9.646189689636231
-6.267769813537598 -13.634300231933594 -9.660189628601074
-7.158770084381104 -14.617300033569336 -9.713190078735352
-6.242770195007324 -13.253299713134766 -9.652190208435059
-6.673769950866699 -13.366299629211426 -9.665189743041992
-7.016769886016846 -14.418299674987793 -9.715189933776856
-6.221769809722900 -14.507300376892090 -9.714189529418945
-7.344769954681397 -14.439299583435059 -9.721190452575684
-6.914770126342773 -14.000300407409668 -9.710189819335938
-7.289770126342773 -14.172300338745117 -9.721190452575684
-6.534770011901856 -13.648300170898437 -9.694190025329590
-6.635769844055176 -12.882300376892090 -9.664190292358398
-6.312769889831543 -14.306300163269043 -9.722189903259277
-7.304769992828369 -13.828300476074219 -9.710189819335938
-6.769770145416260 -13.063300132751465 -9.677189826965332
-6.687769889831543 -13.827300071716309 -9.712189674377441
-6.917769908905029 -14.222299575805664 -9.732190132141113
-6.704770088195801 -14.075300216674805 -9.725190162658691
-7.434770107269287 -13.642299652099609 -9.713190078735352
-6.944769859313965 -13.718299865722656 -9.713190078735352
-6.751770019531250 -13.596300125122070 -9.710189819335938
-7.003769874572754 -13.503299713134766 -9.709190368652344
-7.608769893646240 -13.486300468444824 -9.717189788818359
-6.887770175933838 -13.315299987792969 -9.708189964294434
-7.137770175933838 -13.287300109863281 -9.711190223693848
-6.343770027160645 -13.997300148010254 -9.736189842224121
-6.497769832611084 -14.164299964904785 -9.761190414428711
-7.252769947052002 -13.088299751281738 -9.724189758300781
-6.713769912719727 -14.300299644470215 -9.778189659118652
-7.477769851684570 -13.110300064086914 -9.743189811706543
-6.321770191192627 -13.016300201416016 -9.732190132141113
-6.401770114898682 -12.666299819946289 -9.719189643859863
-6.995769977569580 -13.104299545288086 -9.742190361022949
-6.508769989013672 -14.405300140380859 -9.796190261840820
-7.679769992828369 -13.280300140380859 -9.762189865112305
-6.423769950866699 -14.616299629211426 -9.812190055847168
-6.887770175933838 -12.867300033569336 -9.745189666748047
-7.345769882202148 -14.668299674987793 -9.827190399169922
-6.973770141601563 -14.661299705505371 -9.825189590454102
-7.400770187377930 -12.893300056457520 -9.763190269470215
-6.700769901275635 -12.690299987792969 -9.750189781188965
-7.128769874572754 -12.896300315856934 -9.767189979553223
-6.809770107269287 -14.503299713134766 -9.835189819335938
-7.622769832611084 -12.909299850463867 -9.780190467834473
-8.082770347595215 -11.747300148010254 -9.739190101623535
-7.830770015716553 -11.756299972534180 -9.743189811706543
-7.133769989013672 -14.824299812316895 -9.868189811706543
-6.291769981384277 -13.470299720764160 -9.806189537048340
-7.550769805908203 -12.688300132751465 -9.785189628601074
-7.789770126342773 -12.236300468444824 -9.769189834594727
-6.555769920349121 -12.496299743652344 -9.772190093994141
-6.243770122528076 -13.802300453186035 -9.826189994812012
-7.177770137786865 -14.019300460815430 -9.843190193176270
-6.641769886016846 -14.643300056457520 -9.867190361022949
-7.257770061492920 -12.701299667358398 -9.794190406799316
-8.061770439147949 -12.089300155639648 -9.777190208435059
-6.281770229339600 -14.827300071716309 -9.883190155029297
-6.643770217895508 -12.026300430297852 -9.774189949035645
-8.089770317077637 -11.510299682617188 -9.765190124511719
-7.787769794464111 -11.977299690246582 -9.785189628601074
-7.150770187377930 -13.779299736022949 -9.860190391540527
-6.619770050048828 -11.756299972534180 -9.778189659118652
-6.909770011901856 -12.640299797058105 -9.817190170288086
-7.407770156860352 -12.518300056457520 -9.820190429687500
-6.364769935607910 -13.257300376892090 -9.845190048217773
-6.499770164489746 -14.853300094604492 -9.917189598083496
-7.430769920349121 -13.405300140380859 -9.865189552307129
-7.550769805908203 -12.350299835205078 -9.823189735412598
-6.467770099639893 -12.191300392150879 -9.809189796447754
-7.707769870758057 -12.512299537658691 -9.833189964294434
-7.260769844055176 -13.547300338745117 -9.875189781188965
-6.774769783020020 -12.457300186157227 -9.827190399169922
-7.223770141601563 -14.482299804687500 -9.921190261840820
-7.727769851684570 -13.089300155639648 -9.869190216064453
-6.797770023345947 -14.787300109863281 -9.933190345764160
-7.987770080566406 -12.304300308227539 -9.842189788818359
-6.692770004272461 -12.251299858093262 -9.832189559936523
-6.804769992828369 -11.877300262451172 -9.819190025329590
-7.144770145416260 -14.252300262451172 -9.921190261840820
-6.162769794464111 -14.615300178527832 -9.929189682006836
-7.865769863128662 -11.508299827575684 -9.818189620971680
-6.221769809722900 -14.387299537658691 -9.928190231323242
-6.889770030975342 -12.111300468444824 -9.841190338134766
-7.614769935607910 -12.116299629211426 -9.848190307617188
-6.412769794464111 -13.685299873352051 -9.905190467834473
-6.280769824981690 -14.131299972534180 -9.925189971923828
-7.106770038604736 -12.519300460815430 -9.865189552307129
-7.815770149230957 -12.880299568176270 -9.891189575195313
-7.960770130157471 -12.524299621582031 -9.878190040588379
-6.956769943237305 -14.935299873352051 -9.977190017700195
-6.435770034790039 -12.898300170898438 -9.891189575195313
-6.483769893646240 -13.442299842834473 -9.917189598083496
-6.251770019531250 -15.111300468444824 -9.993189811706543
-7.535769939422607 -13.205300331115723 -9.933190345764160
-7.294769763946533 -14.891300201416016 -10.007200241088867
-6.973770141601563 -13.860300064086914 -9.964189529418945
-6.996769905090332 -14.083299636840820 -9.974189758300781
-7.985770225524902 -11.877300262451172 -9.891189575195313
-7.003769874572754 -13.640299797058105 -9.957189559936523
-6.965769767761231 -12.334300041198730 -9.910189628601074
-6.519770145416260 -13.120300292968750 -9.946189880371094
-6.579770088195801 -13.809300422668457 -9.983189582824707
-6.447770118713379 -13.996299743652344 -9.990189552307129
-7.674769878387451 -11.756299972534180 -9.907190322875977
-6.678770065307617 -13.545299530029297 -9.980190277099609
-7.237770080566406 -12.300299644470215 -9.933190345764160
-6.684770107269287 -14.957300186157227 -10.040200233459473
-6.788770198822022 -13.739299774169922 -9.991189956665039
-7.806769847869873 -12.670299530029297 -9.956190109252930
-7.412769794464111 -12.142299652099609 -9.933190345764160
-7.106770038604736 -13.385299682617187 -9.989190101623535
-7.060770034790039 -15.117300033569336 -10.062199592590332
-7.909770011901856 -12.105299949645996 -9.945190429687500
-7.325769901275635 -13.247300148010254 -9.991189956665039
-6.992770195007324 -11.854299545288086 -9.932189941406250
-7.207769870758057 -14.684300422668457 -10.051199913024902
-6.882770061492920 -13.454299926757812 -9.999190330505371
-6.412769794464111 -12.421299934387207 -9.956190109252930
-6.660769939422607 -13.314299583435059 -9.998189926147461
-7.091770172119141 -12.113300323486328 -9.953189849853516
-8.113769531250000 -11.339300155639648 -9.931189537048340
-6.800769805908203 -14.005299568176270 -10.041199684143066
-7.620769977569580 -12.891300201416016 -10.007200241088867
-6.412769794464111 -15.255299568176270 -10.096199989318848
-7.522769927978516 -11.918299674987793 -9.968190193176270
-7.811769962310791 -12.386300086975098 -9.994190216064453
-6.418769836425781 -14.238300323486328 -10.065199851989746
-6.630770206451416 -12.937299728393555 -10.014200210571289
-7.068769931793213 -14.499300003051758 -10.082200050354004
-6.823770046234131 -15.114299774169922 -10.109199523925781
-6.331769943237305 -14.519300460815430 -10.081199645996094
-7.441770076751709 -13.026300430297852 -10.029199600219727
-6.512770175933838 -12.625300407409668 -10.006199836730957
-6.943769931793213 -14.279299736022949 -10.078200340270996
-8.021769523620606 -11.554300308227539 -9.978190422058106
-6.609769821166992 -14.125300407409668 -10.081199645996094
-6.276770114898682 -15.425299644470215 -10.134200096130371
-6.646770000457764 -11.633299827575684 -9.981189727783203
-6.603769779205322 -15.149299621582031 -10.130200386047363
-6.874770164489746 -11.649299621582031 -9.990189552307129
-6.775770187377930 -13.132300376892090 -10.051199913024902
-6.985770225524902 -13.200300216674805 -10.068200111389160
-6.472770214080811 -11.922300338745117 -10.020199775695801
-7.270770072937012 -11.977299690246582 -10.030200004577637
-7.648769855499268 -12.545299530029297 -10.058199882507324
-7.905769824981690 -11.308300018310547 -10.010199546813965
-7.731770038604736 -11.477299690246582 -10.018199920654297
-6.282770156860352 -14.806300163269043 -10.150199890136719
-7.189770221710205 -13.099300384521484 -10.087200164794922
-7.163770198822022 -11.757300376892090 -10.037199974060059
-6.531770229339600 -12.169300079345703 -10.056200027465820
-6.967770099639893 -15.303299903869629 -10.191200256347656
-6.832769870758057 -12.879300117492676 -10.095199584960937
-7.230770111083984 -15.168299674987793 -10.194199562072754
-6.708769798278809 -12.684300422668457 -10.088199615478516
-7.474770069122315 -12.727299690246582 -10.096199989318848
-6.187769889831543 -15.226300239562988 -10.190199851989746
-7.768770217895508 -11.987299919128418 -10.068200111389160
-7.166769981384277 -14.931300163269043 -10.189200401306152
-7.853769779205322 -11.773300170898438 -10.064200401306152
-6.597770214080811 -12.398300170898438 -10.081199645996094
-7.673769950866699 -12.227299690246582 -10.084199905395508
-7.281770229339600 -12.890299797058105 -10.111200332641602
-6.520770072937012 -14.420299530029297 -10.169199943542480
-6.210770130157471 -15.703300476074219 -10.225199699401855
-6.729770183563232 -14.296299934387207 -10.172200202941895
-7.030769824981690 -14.704299926757812 -10.195199966430664
-7.378769874572754 -11.778300285339355 -10.080200195312500
-6.875770092010498 -14.515299797058105 -10.194199562072754
-6.751770019531250 -15.333299636840820 -10.231200218200684
-6.407770156860352 -15.604299545288086 -10.240200042724609
-6.455770015716553 -14.672300338745117 -10.217200279235840
-7.052770137786865 -12.891300201416016 -10.151200294494629
-6.531770229339600 -15.406299591064453 -10.256199836730957
-7.170770168304443 -15.372300148010254 -10.262200355529785
-7.047770023345947 -11.570300102233887 -10.106200218200684
-8.232769966125488 -11.212300300598145 -10.103199958801270
-7.515769958496094 -12.376299858093262 -10.146200180053711
-7.169769763946533 -12.703300476074219 -10.165200233459473
-6.666769981384277 -14.595299720764160 -10.240200042724609
-7.543769836425781 -11.579299926757812 -10.124199867248535
-7.348770141601563 -12.529299736022949 -10.163200378417969
-7.272769927978516 -11.572299957275391 -10.133199691772461
-6.737770080566406 -12.230299949645996 -10.162199974060059
-6.962769985198975 -12.619299888610840 -10.182200431823730
-6.407770156860352 -14.941300392150879 -10.276200294494629
-6.811769962310791 -12.449299812316895 -10.176199913024902
-6.650770187377930 -12.012299537658691 -10.164199829101562
-6.905769824981690 -15.491299629211426 -10.313199996948242
-6.818769931793213 -14.750300407409668 -10.288200378417969
-7.905769824981690 -11.505299568176270 -10.164199829101562
-6.562769889831543 -11.745300292968750 -10.178199768066406
-7.583769798278809 -11.955300331115723 -10.195199966430664
-6.983769893646240 -14.911299705505371 -10.313199996948242
-6.748770236968994 -11.546299934387207 -10.173199653625488
-6.607769966125488 -14.814299583435059 -10.313199996948242
-7.450769901275635 -12.151300430297852 -10.211199760437012
-7.118770122528076 -12.465299606323242 -10.223199844360352
-7.674769878387451 -11.753299713134766 -10.198200225830078
-6.677770137786865 -15.537300109863281 -10.360199928283691
-7.286769866943359 -12.319299697875977 -10.232199668884277
-6.207769870758057 -15.452300071716309 -10.354200363159180
-6.362770080566406 -15.810299873352051 -10.370200157165527
-7.865769863128662 -11.193300247192383 -10.194199562072754
-6.576769828796387 -15.739299774169922 -10.374199867248535
-7.071770191192627 -15.179300308227539 -10.358200073242187
-6.991769790649414 -12.284299850463867 -10.250200271606445
-6.321770191192627 -15.234299659729004 -10.368200302124023
-8.058770179748535 -11.297300338745117 -10.223199844360352
-6.864769935607910 -12.072299957275391 -10.248200416564941
-7.632770061492920 -11.313300132751465 -10.228199958801270
-7.089769840240479 -15.579299926757812 -10.407199859619141
-6.847770214080811 -15.689299583435059 -10.419199943542480
-7.437769889831543 -11.428299903869629 -10.253199577331543
-7.177770137786865 -12.132300376892090 -10.289199829101562
-7.364769935607910 -11.955300331115723 -10.284199714660645
-8.095769882202148 -11.066300392150879 -10.253199577331543
-6.756770133972168 -14.971300125122070 -10.405200004577637
-6.924769878387451 -11.450300216674805 -10.264200210571289
-6.503769874572754 -15.113300323486328 -10.427200317382812
-6.747769832611084 -11.826299667358398 -10.293199539184570
-7.686769962310791 -11.537300109863281 -10.290200233459473
-7.462769985198975 -11.756299972534180 -10.303199768066406
-6.199769973754883 -15.679300308227539 -10.469200134277344
-7.221769809722900 -11.355299949645996 -10.300200462341309
-7.055769920349121 -11.930299758911133 -10.327199935913086
-6.881770133972168 -15.145299911499023 -10.467200279235840
-7.826769828796387 -11.369299888610840 -10.323200225830078
-7.019770145416260 -15.372300148010254 -10.484199523925781
-8.311770439147949 -11.077300071716309 -10.324199676513672
-6.228769779205322 -15.943300247192383 -10.515199661254883
-6.712769985198975 -15.860300064086914 -10.516200065612793
-6.488770008087158 -15.897299766540527 -10.531200408935547
-7.229770183563232 -11.784299850463867 -10.369199752807617
-6.461770057678223 -15.311300277709961 -10.524200439453125
-7.031770229339600 -15.749300003051758 -10.547200202941895
-6.944769859313965 -11.747300148010254 -10.395199775695801
-6.681769847869873 -11.535300254821777 -10.396200180053711
-6.685770034790039 -15.217300415039063 -10.551199913024902
-6.313769817352295 -15.502300262451172 -10.565199851989746
-7.967770099639893 -11.194299697875977 -10.411199569702148
-7.391769886016846 -11.568300247192383 -10.427200317382812
-7.783770084381104 -11.028300285339355 -10.412199974060059
-8.040769577026367 -10.920299530029297 -10.412199974060059
-7.033770084381104 -11.324299812316895 -10.426199913024902
-7.374770164489746 -11.218299865722656 -10.431200027465820
-6.960770130157471 -15.543299674987793 -10.621199607849121
-7.534770011901856 -11.391300201416016 -10.454199790954590
-6.886769771575928 -15.909299850463867 -10.642200469970703
-6.372769832611084 -16.057300567626953 -10.650199890136719
-7.705770015716553 -11.244299888610840 -10.465200424194336
-6.845769882202148 -15.348299980163574 -10.631199836730957
-7.162769794464111 -11.579299926757812 -10.482199668884277
-6.186769962310791 -16.171300888061523 -10.680199623107910
-8.157770156860352 -11.092300415039063 -10.496199607849121
-6.867770195007324 -11.578300476074219 -10.514200210571289
-8.237770080566406 -10.851300239562988 -10.499199867248535
-8.434769630432129 -10.949299812316895 -10.507200241088867
-6.624770164489746 -15.402299880981445 -10.686200141906738
-6.267769813537598 -15.680299758911133 -10.699199676513672
-6.634769916534424 -15.999300003051758 -10.728199958801270
-6.157770156860352 -15.953300476074219 -10.728199958801270
-7.304769992828369 -11.394300460815430 -10.552200317382812
-7.177770137786865 -11.180299758911133 -10.546199798583984
-6.449769973754883 -15.546299934387207 -10.739199638366699
-7.940770149230957 -11.031299591064453 -10.577199935913086
-7.532770156860352 -11.156299591064453 -10.583200454711914
-6.770770072937012 -15.547300338745117 -10.772199630737305
-7.013770103454590 -11.419300079345703 -10.627200126647949
-6.485770225524902 -16.132299423217773 -10.824199676513672
-7.968770027160645 -10.709300041198730 -10.614199638366699
-7.691770076751709 -11.011300086975098 -10.630200386047363
-6.721769809722900 -11.461299896240234 -10.660200119018555
-6.843770027160645 -11.270299911499023 -10.658200263977051
-8.260769844055176 -10.993300437927246 -10.671199798583984
-8.370770454406738 -10.795299530029297 -10.675200462341309
-8.182769775390625 -10.677300453186035 -10.672200202941895
-6.939770221710205 -15.900300025939941 -10.885199546813965
-7.630770206451416 -10.778300285339355 -10.687199592590332
-6.783770084381104 -16.069299697875977 -10.901200294494629
-7.337769985198975 -11.131299972534180 -10.704199790954590
-8.067770004272461 -10.889300346374512 -10.702199935913086
-6.259769916534424 -15.830300331115723 -10.896200180053711
-6.279769897460938 -16.234300613403320 -10.919199943542480
-6.790770053863525 -15.724300384521484 -10.906200408935547
-7.842770099639893 -10.871299743652344 -10.716199874877930
-6.552770137786865 -15.669300079345703 -10.911199569702148
-7.084770202636719 -11.241299629211426 -10.749199867248535
-7.483769893646240 -10.945300102233887 -10.746199607849121
-6.180769920349121 -16.038299560546875 -11.000200271606445
-6.485770225524902 -16.263299942016602 -11.018199920654297
-6.419769763946533 -15.808300018310547 -11.056200027465820
-7.432769775390625 -10.522299766540527 -10.859199523925781
-7.280769824981690 -10.886300086975098 -10.879199981689453
-7.092770099639893 -11.024299621582031 -10.884200096130371
-8.417770385742188 -10.840299606323242 -10.886199951171875
-8.219770431518555 -10.734299659729004 -10.882200241088867
-6.698770046234131 -15.818300247192383 -11.084199905395508
-7.878769874572754 -10.644300460815430 -10.880200386047363
-6.869770050048828 -15.968299865722656 -11.098199844360352
-8.152770042419434 -10.517299652099609 -10.887200355529785
-7.448770046234131 -10.742300033569336 -10.893199920654297
-6.926770210266113 -10.878299713134766 -10.897199630737305
-6.908770084381104 -11.146300315856934 -10.909199714660645
-7.658770084381104 -10.644300460815430 -10.904199600219727
-7.115769863128662 -10.464300155639648 -10.894200325012207
-6.713769912719727 -11.015299797058105 -10.919199943542480
-6.669769763946533 -16.241300582885742 -11.145199775695801
-6.887770175933838 -10.661299705505371 -10.937199592590332
-7.214769840240479 -10.181300163269043 -10.939200401306152
-6.308770179748535 -15.962300300598145 -11.174200057983398
-6.344769954681397 -16.375299453735352 -11.192199707031250
-7.782770156860352 -10.333299636840820 -10.958200454711914
-6.958769798278809 -9.821339607238770 -10.946200370788574
-7.088769912719727 -10.747300148010254 -10.993200302124023
-6.889770030975342 -10.221300125122070 -10.971199989318848
-7.272769927978516 -10.626299858093262 -10.991200447082520
-7.412769794464111 -10.282299995422363 -10.980199813842773
-7.043769836425781 -10.045299530029297 -10.981200218200684
-7.170770168304443 -9.722339630126953 -10.972200393676758
-7.943769931793213 -10.477299690246582 -11.009200096130371
-7.576769828796387 -10.429300308227539 -11.007200241088867
-7.055769920349121 -9.529339790344238 -10.967200279235840
-6.242770195007324 -16.172300338745117 -11.240200042724609
-6.551770210266113 -15.912300109863281 -11.247200012207031
-8.120770454406738 -10.350299835205078 -11.042200088500977
-6.940770149230957 -10.448300361633301 -11.048199653625488
-6.745769977569580 -16.027299880981445 -11.283200263977051
-7.312769889831543 -9.926340103149414 -11.038200378417969
-7.268770217895508 -9.506340026855469 -11.031200408935547
-8.284770011901856 -10.507300376892090 -11.082200050354004
-7.235770225524902 -10.384300231933594 -11.075200080871582
-6.539770126342773 -16.335300445556641 -11.316200256347656
-8.365770339965820 -10.722299575805664 -11.103199958801270
-7.476769924163818 -10.067299842834473 -11.086199760437012
-7.069769859313965 -10.236300468444824 -11.104200363159180
-7.366769790649414 -9.712340354919434 -11.086199760437012
-6.750770092010498 -16.234300613403320 -11.360199928283691
-6.385769844055176 -16.065299987792969 -11.381199836730957
-7.793769836425781 -10.066300392150879 -11.145199775695801
-7.282770156860352 -10.171299934387207 -11.149200439453125
-7.642769813537598 -10.227299690246582 -11.157199859619141
-7.029769897460938 -9.673339843750000 -11.136199951171875
-7.864769935607910 -10.324299812316895 -11.170200347900391
-6.296770095825195 -16.452299118041992 -11.419199943542480
-8.003769874572754 -10.128299713134766 -11.171199798583984
-7.098770141601563 -9.387339591979981 -11.151200294494629
-7.137770175933838 -9.939339637756348 -11.179200172424316
-7.630770206451416 -9.896340370178223 -11.199199676513672
-8.192770004272461 -10.236300468444824 -11.224200248718262
-6.585770130157471 -16.116300582885742 -11.461199760437012
-7.318769931793213 -9.357339859008789 -11.197199821472168
-7.531770229339600 -9.628339767456055 -11.213199615478516
-6.270770072937012 -16.241300582885742 -11.505200386047363
-7.216770172119141 -9.739339828491211 -11.248200416564941
-8.334770202636719 -10.400300025939941 -11.298199653625488
-7.421770095825195 -9.874340057373047 -11.271200180053711
-8.380769729614258 -10.627300262451172 -11.318200111389160
-7.943769931793213 -9.946339607238770 -11.290200233459473
-6.671770095825195 -16.332300186157227 -11.553199768066406
-8.171770095825195 -10.033300399780273 -11.330200195312500
-7.860770225524902 -10.178299903869629 -11.336199760437012
-6.446770191192627 -16.414300918579102 -11.588199615478516
-6.138770103454590 -16.504299163818359 -11.595199584960938
-7.189770221710205 -9.509340286254883 -11.315199851989746
-7.776770114898682 -9.753339767456055 -11.334199905395508
-7.725769996643066 -9.992340087890625 -11.373200416564941
-7.480770111083984 -9.415340423583984 -11.350199699401855
-7.378769874572754 -9.609339714050293 -11.371199607849121
-8.322770118713379 -10.189299583435059 -11.408200263977051
-6.480770111083984 -16.200300216674805 -11.652199745178223
-7.170770168304443 -9.281339645385742 -11.373200416564941
-8.031769752502441 -9.776339530944824 -11.407199859619141
-7.570769786834717 -9.730340003967285 -11.420200347900391
-7.681769847869873 -9.534339904785156 -11.418199539184570
-6.163770198822022 -16.305299758911133 -11.698200225830078
-8.248769760131836 -9.786339759826660 -11.450200080871582
-8.405770301818848 -9.966340065002441 -11.463199615478516
-8.302769660949707 -10.514300346374512 -11.502200126647949
-8.021769523620606 -10.162300109863281 -11.489199638366699
-6.301770210266113 -16.471300125122070 -11.747200012207031
-8.179770469665527 -10.329299926757812 -11.508199691772461
-8.454770088195801 -10.347299575805664 -11.513199806213379
-7.885769844055176 -9.607339859008789 -11.481200218200684
-6.572770118713379 -16.369300842285156 -11.770199775695801
-7.887770175933838 -9.935339927673340 -11.529199600219727
-8.484769821166992 -9.735340118408203 -11.534199714660645
-7.359769821166992 -9.267339706420898 -11.511199951171875
-7.500770092010498 -9.521340370178223 -11.565199851989746
-8.520770072937012 -10.108300209045410 -11.598199844360352
-6.389770030975342 -16.270299911499023 -11.848199844360352
-8.308770179748535 -9.589340209960938 -11.586199760437012
-8.287770271301270 -10.119299888610840 -11.615200042724609
-8.612770080566406 -9.898340225219727 -11.613200187683105
-8.712770462036133 -9.700340270996094 -11.607199668884277
-8.087770462036133 -9.580340385437012 -11.602199554443359
-8.522769927978516 -9.522339820861816 -11.606200218200684
-8.091770172119141 -10.007300376892090 -11.632200241088867
-7.660769939422607 -9.344340324401856 -11.616200447082520
-7.721769809722900 -9.565340042114258 -11.656200408935547
-8.734769821166992 -9.253339767456055 -11.655200004577637
-7.176770210266113 -9.301340103149414 -11.654199600219727
-8.402770042419434 -9.902339935302734 -11.706199645996094
-7.980770111083984 -9.798339843750000 -11.701199531555176
-8.355770111083984 -9.383339881896973 -11.694199562072754
-8.004770278930664 -9.357339859008789 -11.694199562072754
-8.712770462036133 -9.504340171813965 -11.716199874877930
-7.447770118713379 -9.356340408325195 -11.707200050354004
-8.521769523620606 -9.236339569091797 -11.712200164794922
-8.194769859313965 -9.820340156555176 -11.753199577331543
-7.349770069122315 -9.157340049743652 -11.723199844360352
-8.536769866943359 -9.715339660644531 -11.760199546813965
-7.592770099639893 -9.184339523315430 -11.756199836730957
-6.398769855499268 -16.378299713134766 -12.049200057983398
-7.896770000457764 -9.597339630126953 -11.800200462341309
-7.851769924163818 -9.185339927673340 -11.788200378417969
-7.756770133972168 -9.412340164184570 -11.811200141906738
-8.158769607543945 -9.237339973449707 -11.822199821472168
-8.352769851684570 -9.601340293884277 -11.863200187683105
-8.114769935607910 -9.581339836120606 -11.878199577331543
-8.563770294189453 -9.504340171813965 -11.886199951171875
-8.783769607543945 -9.221340179443359 -11.877200126647949
-7.150770187377930 -9.229339599609375 -11.867199897766113
-8.053770065307617 -9.047340393066406 -11.882200241088867
-8.347769737243652 -9.127340316772461 -11.891200065612793
-8.608770370483398 -9.075340270996094 -11.900199890136719
-7.420770168304443 -9.259340286254883 -11.911199569702148
-7.509769916534424 -9.047340393066406 -11.913200378417969
-7.288770198822022 -9.064339637756348 -11.915200233459473
-7.743770122528076 -9.043339729309082 -11.921199798583984
-7.670770168304443 -9.263339996337891 -11.949199676513672
-8.336770057678223 -9.412340164184570 -11.980199813842773
-8.623769760131836 -9.315340042114258 -12.051199913024902
-7.987770080566406 -9.356340408325195 -12.054200172424316
-8.209770202636719 -9.236339569091797 -12.062199592590332
-8.364769935607910 -8.966340065002441 -12.053199768066406
-8.142769813537598 -8.933340072631836 -12.056200027465820
-7.858769893646240 -8.905340194702148 -12.056200027465820
-7.850769996643066 -9.158340454101563 -12.094200134277344
-7.307769775390625 -9.190340042114258 -12.099200248718262
-7.529769897460938 -9.159339904785156 -12.110199928283691
-7.609769821166992 -8.902339935302734 -12.100199699401855
-8.420769691467285 -9.258339881896973 -12.124199867248535
-8.661769866943359 -9.033340454101563 -12.127200126647949
-8.810770034790039 -9.210339546203613 -12.137200355529785
-7.081769943237305 -9.183340072631836 -12.141200065612793
-7.209770202636719 -8.988340377807617 -12.183199882507324
-8.044770240783691 -9.191340446472168 -12.203200340270996
-8.009770393371582 -8.812339782714844 -12.198200225830078
-7.699769973754883 -9.056340217590332 -12.231200218200684
-8.287770271301270 -8.849340438842773 -12.230199813842773
-8.501770019531250 -8.911339759826660 -12.237199783325195
-8.283769607543945 -9.126339912414551 -12.250200271606445
-7.748770236968994 -8.762339591979981 -12.244199752807617
-8.593770027160645 -9.221340179443359 -12.280200004577637
-7.413770198822022 -9.025340080261231 -12.278200149536133
-8.767769813537598 -9.093339920043945 -12.334199905395508
-7.896770000457764 -9.031339645385742 -12.338199615478516
-7.576769828796387 -8.875340461730957 -12.337200164794922
-8.137769699096680 -8.726340293884277 -12.356200218200684
-7.918769836425781 -8.677339553833008 -12.371199607849121
-7.272769927978516 -8.851340293884277 -12.378199577331543
-8.114769935607910 -9.017339706420898 -12.407199859619141
-8.432769775390625 -9.115340232849121 -12.442199707031250
-8.437769889831543 -8.790340423583984 -12.429200172424316
-8.636770248413086 -8.918339729309082 -12.436200141906738
-7.677879810333252 -8.660579681396484 -12.427100181579590
-8.273770332336426 -8.642339706420898 -12.519200325012207
-8.822770118713379 -9.144339561462402 -12.544199943542480
-8.004770278930664 -8.808340072631836 -12.538200378417969
-8.276769638061523 -8.991339683532715 -12.554200172424316
-8.081769943237305 -8.520339965820313 -12.541199684143066
-7.597410202026367 -8.457360267639160 -12.539899826049805
-8.590769767761231 -8.776339530944824 -12.599200248718262
-8.612770080566406 -9.143340110778809 -12.617199897766113
-7.707769870758057 -8.263339996337891 -12.575200080871582
-7.896770000457764 -8.408340454101563 -12.589200019836426
-8.741769790649414 -8.941340446472168 -12.631199836730957
-7.560770034790039 -8.085339546203613 -12.600199699401855
-8.463769912719727 -8.970339775085449 -12.689200401306152
-8.264769554138184 -8.467340469360352 -12.671199798583984
-8.443770408630371 -8.626339912414551 -12.686200141906738
-8.158769607543945 -8.825340270996094 -12.709199905395508
-7.756770133972168 -8.036339759826660 -12.694199562072754
-8.009770393371582 -8.500340461730957 -12.754199981689453
-7.859769821166992 -8.237339973449707 -12.760199546813965
-8.799770355224609 -9.085339546203613 -12.805199623107910
-8.700770378112793 -8.782340049743652 -12.805199623107910
-8.107769966125488 -8.285340309143066 -12.797200202941895
-8.320770263671875 -8.735340118408203 -12.840200424194336
-8.594770431518555 -8.572340011596680 -12.851200103759766
-8.597769737243652 -8.998339653015137 -12.869199752807617
-8.384770393371582 -8.449339866638184 -12.866200447082520
-7.903769969940186 -7.932340145111084 -12.842200279235840
-8.134770393371582 -8.632340431213379 -12.906200408935547
-8.012769699096680 -8.120340347290039 -12.909199714660645
-8.530770301818848 -8.809339523315430 -12.966199874877930
-7.994770050048828 -7.695340156555176 -12.929200172424316
-8.781769752502441 -8.885339736938477 -12.984199523925781
-8.087770462036133 -8.410340309143066 -12.988200187683105
-8.308770179748535 -8.261340141296387 -12.997200012207031
-8.397769927978516 -8.637339591979981 -13.032199859619141
-8.540769577026367 -8.457340240478516 -13.040200233459473
-8.055769920349121 -7.925340175628662 -13.016200065612793
-8.702770233154297 -8.641340255737305 -13.061200141906738
-8.185770034790039 -8.095339775085449 -13.102199554443359
-8.222769737243652 -8.528340339660645 -13.127200126647949
-8.159770011901856 -7.720339775085449 -13.098199844360352
-8.477769851684570 -8.261340141296387 -13.140199661254883
-8.805769920349121 -8.795339584350586 -13.226200103759766
-8.306770324707031 -7.557340145111084 -13.178199768066406
-8.421770095825195 -8.467340469360352 -13.240200042724609
-8.923769950866699 -8.133339881896973 -13.249199867248535
-9.048769950866699 -7.931340217590332 -13.243200302124023
-8.520770072937012 -7.577340126037598 -13.226200103759766
-8.854769706726074 -7.823339939117432 -13.250200271606445
-8.696769714355469 -8.599340438842773 -13.281200408935547
-8.428770065307617 -8.040340423583984 -13.259200096130371
-8.621769905090332 -8.151339530944824 -13.266200065612793
-8.965769767761231 -8.643340110778809 -13.289199829101563
-8.195770263671875 -7.930339813232422 -13.277199745178223
-8.882769584655762 -8.437339782714844 -13.310199737548828
-8.242770195007324 -8.198340415954590 -13.308199882507324
-8.409770011901856 -7.789340019226074 -13.299200057983398
-8.616769790649414 -8.387339591979981 -13.337200164794922
-8.625769615173340 -7.915339946746826 -13.329199790954590
-8.692770004272461 -7.682340145111084 -13.330200195312500
-9.094770431518555 -8.465339660644531 -13.390199661254883
-8.776769638061523 -8.081339836120606 -13.410200119018555
-8.410770416259766 -8.304340362548828 -13.438199996948242
-8.279769897460938 -8.018340110778809 -13.461199760437012
-8.900770187377930 -8.277339935302734 -13.482199668884277
-8.581769943237305 -8.170339584350586 -13.491200447082520
-9.091770172119141 -8.177339553833008 -13.530200004577637
-8.926770210266113 -7.992340087890625 -13.547200202941895
-8.747770309448242 -8.092340469360352 -13.640199661254883
-8.396769523620606 -8.219340324401856 -13.659199714660645
-8.308770179748535 -7.931340217590332 -13.663200378417969
-8.554770469665527 -8.061340332031250 -13.748200416564941
-8.887769699096680 -7.992340087890625 -13.786199569702148
-8.369770050048828 -8.073340415954590 -13.884200096130371
-8.706769943237305 -7.951340198516846 -13.906200408935547
-8.324769973754883 -7.838339805603027 -13.932200431823730
-8.552769660949707 -8.010339736938477 -14.058199882507324
-8.369770050048828 -7.901340007781982 -14.139200210571289
-8.751770019531250 -7.946340084075928 -14.149200439453125
-8.949769973754883 -7.801340103149414 -14.164199829101563
-9.078769683837891 -7.984340190887451 -14.207200050354004
-8.551770210266113 -7.927340030670166 -14.271200180053711
-8.889769554138184 -8.032340049743652 -14.314200401306152
-9.076769828796387 -8.125340461730957 -14.391200065612793
-8.727769851684570 -7.867340087890625 -14.408200263977051
-8.940770149230957 -7.772339820861816 -14.419199943542480
-9.087770462036133 -7.889339923858643 -14.555199623107910
-9.203769683837891 -8.081339836120606 -14.576199531555176
-9.322770118713379 -7.928339958190918 -14.714200019836426
-9.426770210266113 -7.750339984893799 -14.811200141906738
