ply
format ascii 1.0
comment Author: CloudCompare (TELECOM PARISTECH/EDF R&D)
obj_info Generated by CloudCompare!
element vertex 897
property float x
property float y
property float z
property float scalar_Original_cloud_index
end_header
-1.83118 103.134 159.96 0 
-1.18738 104.027 160.476 0 
-2.32149 103.623 160.471 0 
-1.83118 103.134 159.96 0 
-2.23393 102.508 159.582 0 
-1.17634 102.931 159.161 0 
-3.23671 102.04 159.554 0 
-4.24382 101.553 159.539 0 
-2.73067 101.545 159.024 0 
-3.78939 101.165 158.892 0 
-5.19967 100.614 158.415 0 
-4.24172 100.57 158.469 0 
-5.77661 100.392 157.803 0 
-4.71669 100.056 158.01 0 
-5.22149 99.5991 157.48 0 
-4.2382 99.5596 157.547 0 
-6.23952 99.4704 157.156 0 
-6.72416 98.9849 156.618 0 
-5.7173 98.5451 157.015 0 
-7.78003 98.4236 156.299 0 
-4.74299 98.5832 156.528 0 
-6.21918 98.0007 156.583 0 
-5.23245 97.6831 156.333 0 
-6.72998 97.4569 156.154 0 
-8.75434 97.4019 155.731 0 
-7.73091 97.1181 155.947 0 
-5.73371 97.1575 155.918 0 
-6.74704 96.627 155.458 0 
-9.2377 96.3787 155.276 0 
-8.23341 96.3636 155.26 0 
-5.91506 96.7062 155.023 0 
-7.2372 96.0437 155.055 0 
-9.75519 95.9059 154.804 0 
-8.69687 95.6699 154.824 0 
-6.35341 96.1468 154.548 0 
-7.72651 95.5084 154.588 0 
-9.64908 95.096 154.298 0 
-6.72927 95.4963 154.106 0 
-8.72976 94.8709 154.273 0 
-10.7709 94.875 153.779 0 
-7.64067 94.742 153.797 0 
-9.79101 94.3448 153.825 0 
-11.6436 94.204 153.316 0 
-10.6351 94.134 153.334 0 
-8.26059 94.0978 153.519 0 
-12.1907 93.5789 153.008 0 
-11.1971 93.5629 152.962 0 
-9.73122 93.4334 153.176 0 
-8.73803 93.5518 153.055 0 
-7.6292 93.757 152.7 0 
-13.7601 93.4333 152.16 0 
-11.6847 93.0993 152.474 0 
-10.2328 92.9117 152.715 0 
-9.2134 92.9398 152.653 0 
-12.7494 92.9171 152.154 0 
-8.15548 93.3294 152.208 0 
-10.7348 92.3946 152.223 0 
-13.4483 92.7592 151.355 0 
-11.7959 92.2589 151.849 0 
-9.27936 92.1723 151.931 0 
-10.2012 91.8393 151.774 0 
-13.1036 92.1114 150.98 0 
-12.3341 91.8016 151.292 0 
-11.2422 91.3048 151.297 0 
-13.5488 91.6605 150.482 0 
-14.0659 92.1031 150.016 0 
-12.7517 91.4466 150.648 0 
-10.2283 91.0397 151.053 0 
-11.7385 90.8957 150.694 0 
-10.744 90.6074 150.506 0 
-9.85197 90.7845 150.354 0 
-12.694 90.5251 150.074 0 
-13.395 90.8357 149.736 0 
-14.0119 91.0469 149.014 0 
-11.2356 90.0528 149.979 0 
-10.148 90.2094 149.784 0 
-12.2789 89.86 149.755 0 
-13.2137 90.0172 149.09 0 
-14.1255 91.0028 148.071 0 
-11.7308 89.3401 149.255 0 
-10.7223 89.4869 149.109 0 
-14.0092 89.8374 148.354 0 
-14.3822 90.0289 147.603 0 
-12.2445 88.8823 148.721 0 
-13.3561 88.8196 148.345 0 
-11.172 88.894 148.142 0 
-14.4446 88.7786 147.334 0 
-13.7933 88.4024 147.717 0 
-12.7021 88.077 147.996 0 
-11.7222 88.0524 148.042 0 
-14.2482 87.9669 147.138 0 
-14.754 88.4659 146.64 0 
-13.1991 87.5875 147.494 0 
-12.2441 87.2954 147.299 0 
-13.8827 87.2988 146.861 0 
-15.2819 88.4727 145.665 0 
-15.0399 87.6183 145.897 0 
-12.7554 86.8424 146.76 0 
-14.3246 86.8803 146.262 0 
-15.5438 88.4805 144.495 0 
-13.259 86.3632 146.255 0 
-14.7043 86.498 145.59 0 
-15.2299 86.9852 145.115 0 
-15.6746 87.4912 144.574 0 
-13.7913 85.8179 145.895 0 
-15.1034 86.0407 144.991 0 
-15.598 86.5203 144.504 0 
-14.5206 85.6091 145.35 0 
-16.0199 86.9215 143.776 0 
-16.3784 87.4718 143.146 0 
-13.7488 84.9513 145.168 0 
-15.6769 85.5009 144.074 0 
-15.1152 85.0367 144.515 0 
-16.1015 86.0102 143.511 0 
-14.3875 84.2584 144.35 0 
-16.2948 86.4981 142.133 0 
-15.6871 84.5007 143.578 0 
-15.0783 84.07 143.95 0 
-16.1255 85.0104 143.042 0 
-16.4874 85.5409 142.235 0 
-16.681 85.9781 141.591 0 
-14.3129 83.3508 143.802 0 
-16.5308 84.5666 142.479 0 
-16.0155 84.0685 142.935 0 
-15.3467 83.3681 143.287 0 
-16.7786 84.4835 141.641 0 
-15.8294 85.5977 140.602 0 
-16.3219 83.4538 142.183 0 
-15.747 82.9712 142.639 0 
-14.6675 82.6382 142.926 0 
-16.7141 84.9827 140.609 0 
-17.0696 83.9476 141.058 0 
-16.1334 82.5251 142.024 0 
-15.1747 82.0227 142.542 0 
-16.6596 82.999 141.564 0 
-14.199 82.0595 142.513 0 
-16.7971 85.0242 139.609 0 
-17.254 83.9979 140.117 0 
-15.6241 81.5503 141.987 0 
-17.2348 82.9864 140.615 0 
-17.5778 83.4118 139.576 0 
-16.3438 81.4345 141.219 0 
-16.9092 81.9255 140.745 0 
-15.0129 80.6189 141.862 0 
-17.5004 82.532 139.985 0 
-16.4852 84.2648 138.663 0 
-15.8087 80.4389 141.214 0 
-17.543 83.341 138.623 0 
-16.7187 80.9884 140.606 0 
-17.2296 81.485 140.114 0 
-17.8159 82.4906 139.147 0 
-16.8225 83.6338 138.066 0 
-16.2716 84.0415 137.593 0 
-16.115 80.0572 140.48 0 
-17.9864 82.6174 138.133 0 
-17.3885 83.1267 137.59 0 
-17.6699 81.0007 139.079 0 
-18.0647 81.4869 138.544 0 
-16.8831 79.9262 139.821 0 
-18.3135 82.0225 137.625 0 
-17.8155 82.56 137.102 0 
-17.5522 80.0186 138.978 0 
-17.0531 82.7793 136.678 0 
-18.4325 80.9478 137.707 0 
-18.2433 81.9989 136.61 0 
-17.9654 79.9356 138.262 0 
-17.5734 82.225 136.183 0 
-16.8247 78.8264 138.809 0 
-17.6266 79.0411 138.513 0 
-18.767 80.9925 136.621 0 
-18.2174 79.4879 137.607 0 
-18.569 80.0096 137.031 0 
-18.4948 81.3192 135.633 0 
-17.9558 78.6267 137.884 0 
-16.1528 78.1435 138.436 0 
-17.1175 78.1174 137.964 0 
-18.9001 79.9913 136.184 0 
-18.9686 80.5943 135.645 0 
-18.4502 79.0418 136.942 0 
-18.2265 77.9859 137.112 0 
-18.1975 80.9393 134.624 0 
-19.2209 79.9873 135.109 0 
-18.7805 78.4775 136.143 0 
-19.0538 79.0057 135.544 0 
-17.7052 76.9994 137.095 0 
-18.6068 80.3334 134.146 0 
-18.5226 77.4305 136.282 0 
-19.0056 78.019 135.522 0 
-19.3759 78.9741 134.666 0 
-19.51 79.4821 134.066 0 
-17.8466 78.5974 134.588 0 
-18.3447 76.4252 136.208 0 
-18.7896 76.9724 135.646 0 
-19.3348 77.9783 134.654 0 
-18.2166 79.9739 133.114 0 
-17.6235 78.8797 133.645 0 
-19.749 78.4887 133.616 0 
-19.412 79.1262 133.127 0 
-19.3015 76.9791 134.641 0 
-18.7987 79.6068 132.562 0 
-19.6084 77.4892 134.067 0 
-18.9423 76.0248 134.965 0 
-19.9171 78.617 132.607 0 
-17.0817 78.863 132.643 0 
-19.299 79.0836 132.075 0 
-19.931 77.4904 133.18 0 
-18.2899 77.5583 133.083 0 
-19.8146 76.4937 133.648 0 
-17.7047 77.9693 132.615 0 
-20.2381 77.9929 132.112 0 
-19.217 74.9882 134.606 0 
-19.7116 75.487 134.104 0 
-19.7756 78.5427 131.593 0 
-20.1913 76.9852 132.597 0 
-20.0797 75.9838 133.049 0 
-20.1315 77.9474 131.1 0 
-18.2234 76.9874 132.11 0 
-19.9789 74.9878 133.501 0 
-20.425 77.0236 131.674 0 
-17.7197 77.4846 131.61 0 
-20.3853 75.9875 132.173 0 
-20.361 74.9975 132.665 0 
-18.7074 76.4673 131.619 0 
-19.8621 78.0712 130.102 0 
-20.5027 77.5744 130.069 0 
-17.7874 76.5894 131.043 0 
-20.7553 75.9917 131.119 0 
-18.6804 77.8566 129.719 0 
-20.5253 73.9641 132.537 0 
-20.7873 74.9953 131.635 0 
-20.8947 76.5393 130.126 0 
-21.0823 75.4588 130.578 0 
-19.189 77.3026 129.24 0 
-18.8628 75.6958 130.512 0 
-20.6169 76.9259 129.131 0 
-21.0833 74.4623 131.057 0 
-18.2217 75.9857 130.11 0 
-20.9071 73.4993 131.687 0 
-20.9976 76.1243 129.124 0 
-21.2087 75.4832 129.606 0 
-21.3248 74.5084 130.14 0 
-21.3696 73.4868 130.679 0 
-21.5161 74.9397 129.064 0 
-18.9424 75.1245 129.03 0 
-21.1144 75.9268 128.104 0 
-21.6563 73.9705 129.588 0 
-21.2532 72.4807 130.629 0 
-19.7169 74.4819 129.112 0 
-21.6269 72.9867 130.069 0 
-21.9431 73.4251 129.027 0 
-21.7534 74.495 128.113 0 
-21.5014 75.1226 127.614 0 
-20.9444 75.7283 127.032 0 
-19.131 74.4167 128.154 0 
-21.7417 71.9821 129.62 0 
-20.0966 75.84 126.655 0 
-22.1284 72.4752 129.078 0 
-22.0688 73.4493 128.082 0 
-21.8402 74.5316 127.113 0 
-21.4421 75.1223 126.585 0 
-19.8371 73.6535 127.972 0 
-18.8966 74.5775 127.109 0 
-22.3268 72.5092 128.134 0 
-20.827 75.1474 126.058 0 
-22.27 71.4831 128.629 0 
-21.6 71.1104 128.996 0 
-20.2655 73.0646 127.546 0 
-22.0481 73.9366 126.595 0 
-21.7465 74.4989 126.108 0 
-19.5785 73.3526 127.188 0 
-22.3358 73.0164 127.127 0 
-19.7035 74.8161 125.653 0 
-22.553 71.951 127.569 0 
-22.5631 70.9736 128.046 0 
-21.9318 70.553 128.462 0 
-22.0275 73.9146 125.596 0 
-21.2908 74.5697 125.081 0 
-19.3933 73.595 126.096 0 
-22.3764 73.0295 126.129 0 
-20.6133 72.3298 126.716 0 
-22.8288 71.5125 126.629 0 
-19.7911 72.529 126.091 0 
-22.9343 70.5034 127.17 0 
-22.524 72.9244 125.092 0 
-22.2184 73.485 124.61 0 
-22.7764 72.0035 125.617 0 
-20.8014 71.7122 125.923 0 
-23.1153 70.9604 126.09 0 
-22.5524 68.9995 127.516 0 
-22.4761 72.8825 124.115 0 
-20.0413 71.8499 125.154 0 
-19.7776 72.5142 124.605 0 
-22.0139 73.3487 123.64 0 
-23.0214 71.4095 125.09 0 
-22.8217 72.0207 124.615 0 
-23.3443 70.0106 126.141 0 
-23.1763 68.9868 126.594 0 
-23.3328 70.5279 125.125 0 
-21.4283 70.7832 124.914 0 
-23.0704 71.4286 124.099 0 
-22.836 72.0372 123.607 0 
-23.6383 69.4644 125.59 0 
-20.4062 71.1924 124.495 0 
-22.4218 72.6238 123.078 0 
-20.0423 71.7239 124.023 0 
-21.8465 73.0823 122.588 0 
-23.6315 69.9483 124.597 0 
-23.3915 70.5573 124.123 0 
-23.7727 68.4899 125.626 0 
-21.7937 70.0924 124.544 0 
-23.1059 71.4421 123.106 0 
-20.7979 70.5671 124.055 0 
-22.7612 72.0098 122.606 0 
-22.3038 72.5434 122.097 0 
-20.2213 70.9861 123.61 0 
-23.9802 69.089 124.655 0 
-24.0619 67.9635 125.069 0 
-23.5177 70.3878 123.095 0 
-21.2169 69.9789 123.616 0 
-23.8891 69.5634 123.626 0 
-20.5593 70.3513 123.165 0 
-24.2828 68.5054 124.12 0 
-23.284 71.0125 122.107 0 
-22.9114 71.5997 121.588 0 
-24.527 67.4228 124.575 0 
-21.7653 69.5899 123.017 0 
-24.1876 68.9719 123.105 0 
-20.3134 70.5581 122.089 0 
-23.7362 69.9936 122.109 0 
-24.5719 67.9328 123.57 0 
-22.5019 71.8176 120.633 0 
-20.8417 69.6031 122.562 0 
-23.2344 70.9931 121.108 0 
-22.2218 68.9857 122.61 0 
-25.0382 67.1498 123.671 0 
-24.5516 68.3997 122.588 0 
-20.5296 69.8727 121.639 0 
-23.7405 69.9947 121.107 0 
-22.9231 71.2354 120.147 0 
-21.2597 69.0302 122.094 0 
-24.2576 69.0047 121.608 0 
-24.9065 67.5701 122.645 0 
-22.8325 68.2824 121.949 0 
-25.0595 66.4553 123.077 0 
-24.0011 69.3795 120.617 0 
-23.6887 69.9716 120.114 0 
-20.9041 69.0858 121.088 0 
-23.3074 70.5267 119.598 0 
-24.5434 68.3997 121.102 0 
-21.8809 68.2723 121.43 0 
-25.1274 66.9643 122.095 0 
-24.9271 67.5826 121.122 0 
-25.5021 66.0934 122.146 0 
-20.9225 69.1047 120.114 0 
-22.807 67.7706 120.965 0 
-21.1481 68.4301 120.628 0 
-23.531 69.8927 119.133 0 
-24.3794 68.5683 120.106 0 
-21.6356 69.5215 119.574 0 
-23.1019 70.4292 118.611 0 
-24.0115 69.1485 119.08 0 
-21.7973 67.6671 120.5 0 
-25.1543 66.9707 120.603 0 
-24.9214 67.5797 120.119 0 
-25.2295 65.987 121.11 0 
-22.616 67.2853 120.255 0 
-23.6644 69.4547 118.121 0 
-21.3251 68.4862 119.14 0 
-24.6641 67.9585 119.109 0 
-23.1036 69.9091 117.647 0 
-24.2747 68.5143 118.603 0 
-21.6257 69.4824 118.082 0 
-25.182 66.9753 119.608 0 
-23.3091 66.7914 119.869 0 
-25.349 65.9887 120.124 0 
-22.2174 66.9787 119.615 0 
-21.7257 67.4899 119.109 0 
-23.9479 68.8359 117.648 0 
-21.7026 68.4836 118.103 0 
-24.5506 67.8959 118.121 0 
-24.9938 67.1219 118.609 0 
-23.4523 69.1472 117.039 0 
-25.0418 65.0778 120.049 0 
-22.7063 69.438 116.638 0 
-25.4543 65.9435 119.091 0 
-24.2049 64.7582 120.009 0 
-23.2514 66.0994 119.016 0 
-22.7747 68.4517 117.126 0 
-22.3731 66.2445 118.955 0 
-24.3512 68.06 117.092 0 
-23.8399 68.5822 116.587 0 
-25.2506 66.4974 118.11 0 
-21.9361 67.5516 117.61 0 
-21.6489 66.9669 118.118 0 
-24.9404 67.0927 117.6 0 
-25.3206 64.965 119.136 0 
-22.7111 68.6917 116.307 0 
-23.6957 65.4189 118.659 0 
-22.2714 67.9693 116.625 0 
-22.1817 65.9517 118.124 0 
-25.5669 65.4494 118.095 0 
-25.1692 66.4639 117.112 0 
-24.8511 67.0517 116.6 0 
-25.015 64.3165 118.73 0 
-24.4656 67.6196 116.089 0 
-23.1282 68.3584 115.645 0 
-23.9426 68.1656 115.579 0 
-23.2997 65.165 117.989 0 
-21.9114 66.9994 116.649 0 
-21.9588 66.0486 117.12 0 
-22.4463 65.295 117.415 0 
-23.8491 64.2949 118.048 0 
-25.1137 66.4316 116.117 0 
-25.473 64.3068 117.726 0 
-24.7452 66.9988 115.607 0 
-25.6922 64.9824 117.107 0 
-25.5151 65.6294 116.595 0 
-23.4433 68.296 114.641 0 
-24.3808 67.5678 115.092 0 
-22.4777 67.0532 115.559 0 
-22.0364 65.9605 116.1 0 
-22.7137 67.5927 114.538 0 
-25.024 66.3876 115.128 0 
-25.7543 64.9943 116.11 0 
-23.3981 64.2395 116.979 0 
-24.625 66.9329 114.619 0 
-23.962 67.6779 114.08 0 
-25.4666 65.5791 115.598 0 
-25.1926 63.5995 117.08 0 
-22.7462 64.5153 116.594 0 
-25.7052 63.9876 116.607 0 
-24.26 63.5344 117.102 0 
-22.3038 65.0208 116.1 0 
-22.4402 66.4862 114.66 0 
-24.3879 67.1 113.594 0 
-22.2223 65.487 115.109 0 
-25.3831 65.564 114.594 0 
-24.9822 66.1328 114.08 0 
-24.7603 63.0501 116.584 0 
-25.8941 63.9983 115.626 0 
-23.7242 63.4892 116.108 0 
-23.0498 63.8152 115.696 0 
-22.5769 64.4192 115.132 0 
-25.8442 64.5196 114.606 0 
-24.7336 66.4929 113.108 0 
-22.3763 65.506 114.138 0 
-23.3611 65.8535 113.625 0 
-25.261 65.5065 113.606 0 
-25.2006 62.9061 115.622 0 
-24.1891 62.923 115.645 0 
-25.9626 63.4752 114.635 0 
-22.5456 64.44 114.104 0 
-23.3862 63.152 115.032 0 
-25.7242 64.4875 113.609 0 
-22.8789 63.6004 114.561 0 
-24.9522 65.8272 112.135 0 
-23.2046 65.4952 112.605 0 
-24.8293 62.32 114.948 0 
-25.6064 62.607 114.553 0 
-25.9957 63.5145 113.62 0 
-23.7955 62.5695 114.57 0 
-22.6457 64.4839 113.101 0 
-24.7351 66.4915 111.107 0 
-25.6914 64.4762 112.61 0 
-23.1932 62.9657 114.118 0 
-25.3785 65.0697 112.096 0 
-22.8162 63.5207 113.605 0 
-25.3047 61.9031 114.152 0 
-25.9014 62.3886 113.675 0 
-24.2068 61.9683 114.119 0 
-26.0775 63.4588 112.603 0 
-22.9405 64.4767 112.125 0 
-23.5277 62.3192 113.685 0 
-23.0405 62.8709 113.141 0 
-25.2314 64.9909 111.108 0 
-22.7659 63.4948 112.61 0 
-24.8065 65.5261 110.6 0 
-25.8073 64.0236 111.606 0 
-26.218 62.4869 112.609 0 
-23.1892 64.4898 111.099 0 
-25.6302 61.5525 113.063 0 
-23.9001 61.694 113.039 0 
-24.7201 61.4777 113.111 0 
-25.5428 64.3787 110.631 0 
-23.0056 62.8979 112.085 0 
-26.1794 62.9743 111.609 0 
-25.1135 64.9251 110.122 0 
-25.9328 63.5869 110.593 0 
-23.2787 62.0346 112.093 0 
-24.3656 63.773 110.536 0 
-25.9787 61.3976 112.187 0 
-26.3465 61.9813 111.629 0 
-23.112 62.9653 111.083 0 
-23.4615 63.9691 110.186 0 
-25.6258 63.9279 109.624 0 
-24.2554 61.0387 112.086 0 
-26.3115 62.5105 110.612 0 
-23.6174 61.3919 111.667 0 
-25.1325 60.7654 111.968 0 
-23.3254 62.0322 111.103 0 
-24.9107 64.6098 108.582 0 
-26.113 62.9472 109.612 0 
-26.4582 61.4745 110.642 0 
-23.3927 62.5127 110.148 0 
-24.286 62.9633 109.614 0 
-26.1347 60.5119 111.088 0 
-23.5627 61.4082 110.645 0 
-25.7041 63.4749 108.612 0 
-24.263 60.5281 111.093 0 
-25.4111 60.1791 111.207 0 
-25.1868 63.9624 108.115 0 
-26.4425 61.9427 109.593 0 
-23.5159 61.944 109.589 0 
-26.2895 62.5126 108.606 0 
-26.3541 60.4468 110.146 0 
-26.5792 60.9826 109.593 0 
-24.7516 60.023 110.594 0 
-23.841 62.4862 108.627 0 
-23.8957 60.6222 110.062 0 
-25.9578 62.8292 107.64 0 
-26.5725 61.4671 108.6 0 
-25.5376 63.3604 107.135 0 
-23.7108 60.9832 109.109 0 
-24.2502 60.0095 109.602 0 
-26.3279 59.9593 109.126 0 
-26.6594 60.4844 108.603 0 
-25.1725 59.3991 109.638 0 
-23.9813 62.0267 107.55 0 
-26.5914 61.4586 107.603 0 
-26.3318 62.0402 107.098 0 
-23.829 61.0036 108.126 0 
-24.0305 60.0978 108.614 0 
-26.0156 62.5091 106.087 0 
-26.7889 60.4911 107.615 0 
-24.4413 61.922 106.665 0 
-25.2153 61.0396 107.128 0 
-26.4337 59.4073 108.148 0 
-24.798 59.094 108.567 0 
-25.6535 58.826 108.673 0 
-24.2793 59.5206 108.101 0 
-26.7224 60.9871 106.609 0 
-26.4072 61.5861 106.083 0 
-24.0466 60.4694 107.079 0 
-26.8833 59.9975 106.625 0 
-26.6578 60.9657 105.614 0 
-26.1377 58.5261 107.573 0 
-26.6886 58.9938 107.099 0 
-26.2649 61.5095 105.102 0 
-24.2418 60.4869 106.114 0 
-25.8492 62.0617 104.59 0 
-25.1398 58.3883 107.649 0 
-24.5197 58.825 107.155 0 
-24.2774 59.5035 106.613 0 
-26.9583 60.0409 105.609 0 
-24.6187 60.9989 105.086 0 
-26.5712 60.9081 104.629 0 
-26.8508 58.4603 106.16 0 
-24.7028 60.0633 105.031 0 
-27.0437 58.9834 105.585 0 
-25.2277 57.9922 106.608 0 
-24.6708 58.4571 106.115 0 
-26.2826 61.0183 103.593 0 
-27.0754 59.4743 104.595 0 
-26.8974 60.0773 104.086 0 
-24.5125 59.0493 105.139 0 
-25.7146 57.4725 106.114 0 
-24.7812 59.9839 104.124 0 
-25.0598 57.8361 105.654 0 
-26.5537 60.3708 103.162 0 
-27.1376 58.4895 104.595 0 
-25.7537 61.0092 102.602 0 
-24.7348 58.4915 104.611 0 
-26.2411 57.0996 105.56 0 
-27.0087 57.5023 105.051 0 
-27.0495 59.4509 103.101 0 
-25.4613 57.1743 105.042 0 
-27.2475 58.4878 103.612 0 
-24.9672 57.6441 104.564 0 
-26.3569 60.2876 102.144 0 
-24.8807 58.9921 103.137 0 
-26.1546 56.862 104.645 0 
-26.8837 59.571 102.095 0 
-24.7996 58.0095 103.612 0 
-27.2029 56.9918 104.101 0 
-25.8392 57.7528 103.548 0 
-25.2954 57.0395 104.095 0 
-27.3278 58.4989 102.614 0 
-27.2822 57.4839 103.119 0 
-27.1352 58.958 101.613 0 
-25.0152 57.3852 103.12 0 
-26.8841 59.5546 101.113 0 
-26.6903 56.3026 103.693 0 
-25.1493 58.4924 102.096 0 
-25.7202 56.4849 103.61 0 
-27.4581 57.4919 102.134 0 
-25.0794 57.4548 102.097 0 
-26.2088 55.961 103.119 0 
-26.7769 59.4995 100.109 0 
-25.3814 56.6441 102.561 0 
-27.4104 58.0258 101.105 0 
-27.4434 56.0141 102.539 0 
-25.3258 57.9822 101.135 0 
-27.2246 58.4876 100.109 0 
-27.554 56.9819 101.093 0 
-25.6992 55.9646 102.115 0 
-25.3189 56.9967 101.123 0 
-26.7247 55.6063 102.084 0 
-27.6311 55.982 101.597 0 
-27.5342 57.4601 100.1 0 
-27.372 58.5222 99.1123 0 
-25.6345 57.5021 100.093 0 
-25.4681 56.0642 101.104 0 
-27.6669 56.4853 100.104 0 
-25.9891 55.3163 101.158 0 
-27.4635 57.5745 99.1155 0 
-26.784 55.1521 101.059 0 
-27.6592 55.485 100.599 0 
-25.5279 55.904 100.105 0 
-27.724 56.4872 99.1094 0 
-25.6642 56.4841 99.101 0 
-27.7438 55.4882 99.6124 0 
-25.9014 55.12 100.07 0 
-27.4407 57.5852 97.6064 0 
-27.7582 56.4952 98.1102 0 
-25.8165 56.4883 98.1225 0 
-27.8816 55.4999 98.6285 0 
-25.8307 55.0277 99.1065 0 
-27.7012 56.4807 97.1095 0 
-27.9346 53.6958 99.2483 0 
-28.0392 54.4242 98.562 0 
-27.9584 55.525 97.6172 0 
-24.9131 55.0569 98.131 0 
-25.8622 55.4832 97.6279 0 
-27.9197 56.4994 96.1381 0 
-25.2197 54.2499 98.2047 0 
-28.206 54.4815 97.6056 0 
-28.3936 53.5833 98.1698 0 
-28.7065 52.9748 98.6045 0 
-28.1465 54.9637 96.6017 0 
-27.7896 56.4993 95.1196 0 
-24.7616 54.3259 97.0914 0 
-28.4911 54.1163 96.6534 0 
-28.0236 55.4343 95.5978 0 
-28.6894 53.4745 97.1037 0 
-23.7161 54.1645 97.1437 0 
-29.017 52.8027 97.5727 0 
-25.8917 55.071 96.0554 0 
-28.3595 54.5453 95.6176 0 
-29.5264 52.2794 97.0849 0 
-24.2142 54.2998 96.0732 0 
-28.8004 53.5186 96.1157 0 
-28.1363 55.4667 94.6029 0 
-29.0599 52.8843 96.589 0 
-25.2354 54.3413 95.5807 0 
-28.3577 54.5432 94.6185 0 
-23.7306 54.5148 95.1143 0 
-25.7324 54.0547 94.6101 0 
-26.8041 54.3211 94.2027 0 
-28.2605 54.5072 93.6096 0 
-24.231 54.1991 94.0819 0 
-26.2159 53.8832 93.633 0 
-25.223 54.0011 93.6072 0 
-28.5628 53.9029 93.1142 0 
-28.2572 54.5131 92.6093 0 
-23.6651 53.6712 93.0633 0 
-26.234 53.5698 92.5887 0 
-27.2356 53.616 92.0717 0 
-25.2347 53.6099 92.0865 0 
-24.2301 53.6278 92.0757 0 
-25.7012 53.4029 91.1299 0 
-25.2242 53.0231 90.6022 0 
-28.8385 53.5335 95.1154 1 
-28.8417 53.5446 94.1128 1 
-29.3207 52.5255 94.1157 1 
-30.2168 51.4829 94.1094 1 
-29.7064 51.9771 93.6094 1 
-29.2926 52.5185 93.1093 1 
-28.9807 53.1139 92.6 1 
-28.3832 53.6147 91.5882 1 
-30.5823 50.8654 93.1255 1 
-30.0577 51.354 92.6272 1 
-29.5636 51.9223 92.1122 1 
-29.246 52.4998 91.6083 1 
-28.7899 53.0381 91.1001 1 
-27.7363 53.1417 91.0759 1 
-26.7424 53.1678 91.0724 1 
-31.1795 50.4354 92.6171 1 
-30.5784 50.8374 92.1282 1 
-29.5125 51.9074 91.1109 1 
-29.1367 52.4281 90.6209 1 
-27.1969 52.8269 90.1455 1 
-26.2198 52.9467 90.1181 1 
-28.3104 52.6642 90.0576 1 
-31.3385 50.1543 91.5917 1 
-30.5343 50.7034 91.0993 1 
-29.4531 51.8621 90.1353 1 
-29.9872 51.0946 90.6029 1 
-28.9022 52.2736 89.5287 1 
-31.2093 50.4672 90.611 1 
-26.7435 52.5632 89.0892 1 
-27.6951 52.3585 89.1389 1 
-30.3764 50.5838 90.0965 1 
-26.9438 50.8816 90.1192 1 
-25.6831 52.8862 88.6385 1 
-29.8728 51.0565 89.591 1 
-29.3752 51.6292 89.0696 1 
-29.0722 49.6041 90.5754 1 
-28.2457 52.047 88.5964 1 
-31.3727 49.6735 90.0675 1 
-27.3055 50.0188 90.1061 1 
-30.8017 50.0626 89.5958 1 
-30.2414 50.5023 89.1059 1 
-27.2543 52.1142 88.086 1 
-29.7229 50.9871 88.6093 1 
-28.7989 51.6178 88.0759 1 
-28.6647 49.0414 90.0865 1 
-29.3123 49.3744 89.6683 1 
-27.835 49.6279 89.6261 1 
-31.1376 49.4082 89.1335 1 
-27.2659 50.0016 89.1061 1 
-27.7172 50.4883 88.6094 1 
-26.2089 51.9171 87.6226 1 
-30.6569 49.9294 88.6204 1 
-30.0672 50.3681 88.1311 1 
-29.3112 51.0904 87.5828 1 
-28.207 48.5086 89.5989 1 
-27.7964 51.6692 87.0676 1 
-28.6653 51.3558 87.1416 1 
-28.9146 48.7246 89.2431 1 
-29.6393 49.0958 88.5604 1 
-27.5331 49.349 88.6038 1 
-27.2372 49.9914 88.1089 1 
-31.1326 49.366 88.1278 1 
-30.4741 49.7303 87.6409 1 
-29.6852 50.455 87.117 1 
-29.1564 50.8967 86.6316 1 
-28.6175 48.189 88.5437 1 
-27.7836 49.966 87.0973 1 
-28.2991 51.1616 86.0541 1 
-29.2184 48.4873 88.1076 1 
-29.7737 48.9415 87.6295 1 
-30.0733 49.8659 86.6329 1 
-29.5803 50.3487 86.1383 1 
-27.2353 51.0432 85.5853 1 
-27.7135 48.4835 87.6097 1 
-28.8728 50.7232 85.5462 1 
-28.1317 49.5202 86.1213 1 
-29.5338 48.1789 86.9867 1 
-30.1879 48.5339 86.5835 1 
-28.6986 48.0314 87.0961 1 
-31.1097 48.8048 86.1476 1 
-30.479 49.2547 85.6406 1 
-29.8932 49.6173 85.0821 1 
-29.2546 50.0315 84.5971 1 
-29.1922 47.5148 86.591 1 
-27.5557 48.9541 85.6043 1 
-27.8116 48.0161 86.1045 1 
-30.4548 48.7681 84.6526 1 
-28.2042 48.988 84.609 1 
-29.7465 47.463 85.623 1 
-30.3114 47.8999 85.1561 1 
-28.2497 50.049 83.5906 1 
-29.9389 49.1828 84.0585 1 
-28.2092 47.4754 85.6086 1 
-27.7218 47.9866 85.1094 1 
-29.2687 49.5515 83.5897 1 
-29.3938 46.8043 85.2044 1 
-29.9845 47.2429 84.7454 1 
-30.51 48.315 83.6526 1 
-28.1541 49.8854 82.6395 1 
-27.8935 48.4873 83.6202 1 
-27.9082 47.5097 84.1112 1 
-29.3147 49.1031 82.5768 1 
-28.8804 48.4322 83.0982 1 
-30.462 47.3265 83.7306 1 
-28.6691 49.4243 82.1276 1 
-30.1135 48.4044 82.6269 1 
-29.5672 46.0665 84.0329 1 
-30.0716 46.5817 83.5399 1 
-28.0264 47.9905 82.5808 1 
-30.7835 47.473 82.624 1 
-28.141 46.4652 83.615 1 
-29.69 48.4495 81.6174 1 
-28.8269 48.696 81.048 1 
-30.6326 47.4269 81.6152 1 
-28.1551 48.8681 80.6484 1 
-30.1299 47.8916 81.1295 1 
-28.0418 46.9699 82.1084 1 
-29.6566 45.5195 83.0812 1 
-30.1467 46.0289 82.5733 1 
-30.6089 46.5521 82.0589 1 
-28.2698 46.0034 82.6065 1 
-29.3436 48.192 80.5545 1 
-28.2338 47.4869 81.1101 1 
-28.6759 48.3906 80.134 1 
-30.5844 47.3324 80.6443 1 
-29.1898 45.038 82.5908 1 
-29.8875 45.3849 82.1776 1 
-30.902 46.4005 81.1762 1 
-29.8972 47.6751 80.0598 1 
-28.1898 45.9769 81.6117 1 
-29.6261 44.5293 82.0698 1 
-30.5923 45.5699 81.0443 1 
-28.4673 46.964 80.1355 1 
-31.0947 46.51 80.0817 1 
-28.5585 45.3608 81.1426 1 
-28.1833 45.9772 80.61 1 
-29.9742 44.8241 81.2207 1 
-28.2907 45.9935 79.6116 1 
-30.489 44.8232 80.247 1 
-29.0963 46.0389 79.106 1 
-28.9346 46.943 78.1235 1 
-28.6757 44.4645 80.1179 1 
-28.3507 45.0252 79.603 1 
-30.968 44.8597 79.2003 1 
-31.2836 45.4811 78.6239 1 
-30.2894 43.9543 79.6385 1 
-28.5847 46.001 78.1032 1 
-28.5465 44.4007 79.1387 1 
-30.7365 43.9796 78.6154 1 
-31.2289 44.4857 78.1108 1 
-28.4942 44.442 78.1068 1 
-28.6554 45.4898 77.1039 1 
-29.0594 43.3845 78.6484 1 
-30.2051 42.9966 78.6004 1 
-31.3497 43.9521 77.1443 1 
-31.5996 44.4939 76.5614 1 
-28.7617 43.5091 77.6038 1 
-30.4386 42.8492 77.7305 1 
-28.6019 44.4862 76.6033 1 
-31.0046 43.1093 76.9922 1 
-31.4389 43.3979 76.1899 1 
-31.8692 43.9556 75.6709 1 
-28.822 44.4741 75.6154 1 
-29.2829 42.5243 77.0967 1 
-32.0997 44.4924 75.0808 1 
-28.8412 43.0386 76.5969 1 
-29.7519 42.0105 76.6025 1 
-29.2466 44.4771 74.6156 1 
-32.2772 44.4831 74.1217 1 
-29.1152 42.4278 76.1305 1 
-28.7742 42.9975 75.6097 1 
-30.8012 41.9482 76.15 1 
-31.2277 42.4844 75.6115 1 
-31.7029 42.9971 75.1033 1 
-32.1533 43.4885 74.5953 1 
-28.8177 43.4869 74.6176 1 
-29.543 42.2171 75.116 1 
-32.42 43.9673 73.1471 1 
-32.6497 44.4957 72.5908 1 
-31.0206 41.6223 75.0143 1 
-32.2877 42.9827 73.6187 1 
-28.9664 42.0715 74.583 1 
-29.08 42.9809 73.58 1 
-31.5008 41.6429 73.9966 1 
-30.5891 41.066 74.5542 1 
-32.0393 42.1106 73.5254 1 
-32.3989 42.9609 72.6392 1 
-32.6196 43.5037 72.0846 1 
-29.0141 41.9023 73.6177 1 
-29.4303 41.1667 74.0268 1 
-28.8543 42.5514 72.6609 1 
-31.3037 40.9536 73.6454 1 
-31.8331 41.4272 73.1553 1 
-32.2329 41.9841 72.6115 1 
-30.0844 40.3466 73.6747 1 
-29.2376 41.4909 72.6105 1 
-32.3581 41.958 71.6429 1 
-29.4439 40.6374 73.0458 1 
-32.6111 42.5071 71.094 1 
-31.6747 40.5097 72.5813 1 
-32.0583 41.0463 72.0686 1 
-30.6676 39.8554 73.1508 1 
-32.6833 42.9858 70.1118 1 
-29.36 41.5074 71.6077 1 
-29.8054 40.0492 72.5827 1 
-29.369 40.5179 72.1039 1 
-31.3994 39.6797 72.3703 1 
-32.2836 40.9761 71.1252 1 
-32.5179 41.5218 70.5804 1 
-32.5469 42.9637 69.1334 1 
-32.6498 41.9908 69.6087 1 
-31.7208 39.489 71.6079 1 
-30.3926 39.1998 71.9922 1 
-32.0858 40.0164 71.0666 1 
-29.2015 41.4824 70.1093 1 
-29.7644 39.5319 71.5839 1 
-29.4215 40.5029 70.6206 1 
-32.584 41.0008 69.5956 1 
-32.5629 41.9713 68.6192 1 
-31.009 38.621 71.4832 1 
-32.3433 39.9665 70.142 1 
-30.1389 38.9193 71.1434 1 
-29.5774 39.4366 70.6172 1 
-32.6441 40.9862 68.6081 1 
-29.5958 39.9687 69.6099 1 
-32.5524 39.9966 69.086 1 
