ply
format ascii 1.0
element vertex 416
property double x
property double y
property double z
end_header
-5.746650218963623 -116.586997985839840 97.425003051757812
-5.907599925994873 -116.623001098632810 98.400497436523438
-6.018939971923828 -115.639999389648440 98.377403259277344
-6.237599849700928 -117.122001647949220 98.986000061035156
-5.664360046386719 -118.112998962402340 96.402496337890625
-6.231239795684815 -114.583999633789060 97.910797119140625
-6.378769874572754 -116.103996276855470 99.387397766113281
-6.830930233001709 -116.015998840332030 95.686599731445313
-6.315750122070313 -115.112998962402340 99.427101135253906
-6.930830001831055 -117.013000488281250 99.684799194335938
-7.318449974060059 -114.977996826171870 96.142196655273438
-6.679749965667725 -114.000999450683590 97.326499938964844
-7.838200092315674 -116.149002075195310 95.481002807617188
-7.350359916687012 -118.075996398925780 99.348396301269531
-6.734379768371582 -115.651000976562500 100.024002075195310
-7.255209922790527 -113.975997924804690 96.708198547363281
-6.439260005950928 -113.637001037597660 98.424400329589844
-8.347339630126953 -115.527000427246090 95.758903503417969
-7.845570087432861 -117.098999023437500 99.889801025390625
-7.391650199890137 -116.032997131347660 100.254997253417970
-8.350879669189453 -114.575996398925780 96.336898803710938
-6.462570190429688 -114.105003356933590 99.855400085449219
-7.372769832611084 -113.227996826171870 97.107498168945313
-8.346890449523926 -116.497001647949220 100.195999145507810
-8.846209526062012 -114.108001708984370 96.906303405761719
-6.409959793090820 -113.116996765136720 99.401901245117188
-7.014289855957031 -114.526000976562500 100.682998657226560
-6.997169971466065 -112.694000244140630 98.004798889160156
-8.308429718017578 -113.163002014160160 97.029502868652344
-7.851419925689697 -115.091003417968750 100.874000549316410
-6.714570045471191 -113.627998352050780 100.507003784179690
-6.596129894256592 -112.513999938964840 98.832496643066406
-8.874469757080078 -115.682998657226560 100.549003601074220
-7.868979930877686 -112.238998413085940 97.619003295898438
-7.427999973297119 -114.026000976562500 101.199996948242190
-6.614029884338379 -112.609001159667970 100.307998657226560
-8.825779914855957 -112.623001098632810 97.443496704101563
-8.359959602355957 -114.504997253417970 101.202003479003910
-9.760970115661621 -115.013999938964840 100.247001647949220
-9.504059791564941 -113.061996459960940 97.757797241210938
-7.397809982299805 -111.657997131347660 97.975997924804688
-6.929059982299805 -111.664001464843750 98.950103759765625
-9.299019813537598 -114.552001953125000 100.791999816894530
-7.010300159454346 -113.053001403808590 101.204002380371090
-7.921790122985840 -113.488998413085940 101.615997314453120
-8.384510040283203 -111.537002563476560 97.763999938964844
-10.008000373840332 -113.656997680664060 99.951797485351563
-9.952819824218750 -114.207000732421870 100.558998107910160
-6.772560119628906 -112.112998962402340 100.950996398925780
-9.392539978027344 -112.093002319335940 97.865501403808594
-8.869799613952637 -113.690002441406250 101.559997558593750
-10.043999671936035 -112.591003417968750 98.806503295898437
-6.812290191650391 -111.103996276855470 99.913398742675781
-7.438769817352295 -112.549003601074220 101.736999511718750
-6.823279857635498 -111.109001159667970 100.918998718261720
-7.177849769592285 -110.512001037597660 99.331497192382812
-6.958730220794678 -110.135002136230470 100.407997131347660
-6.990930080413818 -110.123001098632810 101.377998352050780
-7.085010051727295 -111.648002624511720 101.609001159667970
-7.582600116729736 -110.385002136230470 98.677398681640625
-7.638150215148926 -109.472000122070310 99.226799011230469
-7.182179927825928 -110.625999450683590 102.014999389648440
-7.382569789886475 -109.125000000000000 99.928703308105469
-7.173180103302002 -109.063003540039060 100.894996643066410
-7.880300045013428 -110.696998596191410 98.015098571777344
-7.668950080871582 -111.716003417968750 102.193000793457030
-8.342410087585449 -109.587997436523440 98.879302978515625
-7.195479869842529 -109.611000061035160 101.983001708984370
-8.850720405578613 -110.102996826171870 98.395599365234375
-7.982850074768066 -111.018997192382810 102.655998229980470
-7.576129913330078 -110.152999877929690 102.632003784179690
-8.392840385437012 -112.498001098632810 102.183998107910160
-8.305080413818359 -108.699996948242190 99.100502014160156
-9.195779800415039 -111.165000915527340 98.053100585937500
-9.622090339660645 -110.665000915527340 98.574897766113281
-7.871290206909180 -108.124000549316410 99.929199218750000
-7.437729835510254 -108.138000488281250 100.928001403808590
-9.445320129394531 -109.569999694824220 98.804901123046875
-10.063599586486816 -111.127998352050780 99.019302368164063
-9.779430389404297 -111.628997802734370 98.466102600097656
-8.865830421447754 -111.510002136230470 102.714996337890620
-10.053899765014648 -110.067001342773440 99.266502380371094
-9.450099945068359 -112.211997985839840 102.087997436523440
-10.340399742126465 -111.611000061035160 99.915000915527344
-10.401499748229980 -110.611000061035160 99.900497436523438
-7.317860126495361 -108.611000061035160 102.425003051757810
-9.230609893798828 -108.648002624511720 99.023902893066406
-10.243800163269043 -112.096000671386720 100.904998779296870
-10.417300224304199 -111.123001098632810 100.920997619628910
-10.105299949645996 -111.733001708984370 101.603996276855470
-10.189100265502930 -112.588996887207030 99.921501159667969
-9.880120277404785 -112.636001586914060 101.455001831054690
-9.911129951477051 -109.095001220703120 99.357498168945313
-8.401160240173340 -110.053001403808590 103.261001586914060
-10.356300354003906 -109.611000061035160 99.909103393554688
-9.871839523315430 -111.128997802734370 102.438003540039060
-8.523200035095215 -107.723999023437500 99.572799682617188
-9.696410179138184 -113.453002929687500 101.155998229980470
-10.578900337219238 -110.074996948242190 100.928001403808590
-9.376529693603516 -110.680000305175780 103.033996582031250
-10.357199668884277 -110.615997314453120 101.918998718261720
-7.946589946746826 -109.083999633789060 103.307998657226560
-7.395430088043213 -107.621002197265620 101.912002563476560
-10.692500114440918 -109.098999023437500 100.939002990722660
-10.008000373840332 -108.069000244140620 99.783500671386719
-9.361599922180176 -107.601997375488280 99.392501831054688
-10.494199752807617 -108.598999023437500 100.333999633789060
-7.573589801788330 -108.141998291015620 103.107002258300780
-7.642010211944580 -107.045997619628910 101.355003356933590
-10.654999732971191 -109.575996398925780 101.902000427246090
-10.227800369262695 -110.035003662109370 102.807998657226560
-8.906609535217285 -109.516998291015620 103.697998046875000
-9.864600181579590 -109.628997802734370 103.438003540039060
-8.424280166625977 -108.583999633789060 103.817001342773440
-8.083319664001465 -106.464996337890620 100.735000610351560
-10.756099700927734 -108.109001159667970 100.936996459960940
-10.399600028991699 -107.602996826171870 100.379997253417970
-10.450200080871582 -109.165000915527340 102.967002868652340
-9.847410202026367 -107.110000610351560 99.910102844238281
-7.494790077209473 -107.120002746582030 102.857002258300780
-8.660209655761719 -106.470001220703120 100.167999267578120
-10.871299743652344 -108.616996765136720 101.915000915527340
-7.991199970245361 -107.577003479003910 103.765998840332030
-10.031299591064453 -108.804000854492190 103.716003417968750
-9.366069793701172 -108.483001708984380 104.163002014160160
-10.702500343322754 -107.114997863769530 100.966003417968750
-10.246800422668457 -106.632003784179690 100.484001159667970
-11.017200469970703 -107.629997253417970 101.896003723144530
-7.697850227355957 -106.078002929687500 102.415000915527340
-8.670020103454590 -107.722000122070310 104.218002319335940
-9.435429573059082 -106.027000427246090 100.222000122070310
-10.855500221252441 -108.114997863769530 102.917999267578120
-7.998179912567139 -105.665000915527340 101.452003479003910
-8.735580444335938 -105.487998962402340 100.735000610351560
-10.531800270080566 -107.992996215820310 103.800003051757810
-7.760640144348145 -106.105003356933590 103.445999145507810
-8.104280471801758 -106.634002685546870 104.089996337890620
-10.623000144958496 -106.157997131347660 101.077003479003910
-10.092399597167969 -105.669998168945310 100.606002807617190
-11.053299903869629 -106.610000610351560 101.851997375488280
-7.905600070953369 -105.126998901367190 102.417999267578120
-8.273269653320313 -104.578002929687500 101.888999938964840
-7.987709999084473 -105.124000549316410 103.866996765136720
-8.160699844360352 -104.055000305175780 102.877998352050780
-8.930830001831055 -104.703002929687500 101.152999877929690
-8.272250175476074 -105.615997314453120 104.462997436523440
-8.607110023498535 -103.723999023437500 102.011001586914060
-8.115139961242676 -104.084999084472660 103.970001220703120
-8.644240379333496 -106.679000854492190 104.653999328613280
-8.447150230407715 -103.146003723144530 102.935997009277340
-9.902159690856934 -104.601997375488280 100.862998962402340
-10.518899917602539 -105.075996398925780 101.296997070312500
-8.649979591369629 -105.140998840332030 105.074996948242190
-9.314900398254395 -103.241996765136720 101.679000854492190
-10.341099739074707 -104.111999511718750 101.416000366210940
-10.997699737548828 -105.591003417968750 101.835998535156250
-8.438449859619141 -104.113998413085940 104.862998962402340
-10.881699562072754 -104.603996276855470 101.890998840332030
-9.013569831848145 -106.053001403808590 105.207000732421870
-8.292059898376465 -103.100997924804690 103.918998718261720
-11.229999542236328 -105.111000061035160 102.435997009277340
-9.310110092163086 -107.250999450683590 104.686996459960940
-11.305199623107910 -106.108001708984370 102.915000915527340
-10.743700027465820 -103.628997802734370 101.980003356933590
-11.107500076293945 -106.200996398925780 104.010002136230470
-11.414400100708008 -105.119003295898440 103.417999267578120
-10.145500183105469 -103.152000427246090 101.569000244140620
-11.155300140380859 -107.081001281738280 102.901000976562500
-9.904060363769531 -106.717002868652340 105.102996826171870
-10.842000007629395 -107.111000061035160 103.915000915527340
-9.421420097351074 -105.507003784179690 105.651000976562500
-11.351200103759766 -104.111999511718750 102.913002014160160
-10.654100418090820 -106.537002563476560 104.820999145507810
-8.488650321960449 -103.129997253417970 104.859001159667970
-10.095999717712402 -107.472999572753910 104.736999511718750
-9.131580352783203 -104.721000671386720 105.762001037597660
-9.060560226440430 -102.222999572753910 102.554000854492190
-11.293100357055664 -105.102996826171870 104.406997680664060
-10.953100204467773 -105.652999877929690 104.971000671386720
-8.762029647827148 -103.615997314453120 105.468002319335940
-11.072799682617188 -103.164001464843750 102.591003417968750
-8.646510124206543 -102.051002502441410 103.363998413085940
-10.460200309753418 -105.699996948242190 105.568000793457030
-11.535099983215332 -104.138000488281250 103.924003601074220
-8.495969772338867 -102.139999389648440 104.391998291015620
-11.476499557495117 -103.108001708984370 103.372001647949220
-9.873390197753906 -104.504997253417970 106.185997009277340
-11.031100273132324 -104.699996948242190 105.545997619628910
-11.416299819946289 -104.126998901367190 104.930999755859370
-10.737199783325195 -102.137001037597660 102.484001159667970
-9.926859855651856 -101.569999694824220 102.338996887207030
-9.112730026245117 -103.156997680664060 106.108001708984370
-9.060919761657715 -101.192001342773440 102.992996215820310
-11.664799690246582 -103.085998535156250 104.392997741699220
-8.762470245361328 -102.107002258300780 105.444999694824220
-11.361000061035156 -102.107002258300780 103.403999328613280
-9.787610054016113 -103.666999816894530 106.553001403808590
-10.765899658203125 -104.058998107910160 106.327003479003910
-8.749739646911621 -101.084999084472660 103.911003112792970
-11.532699584960938 -103.161003112792970 105.464996337890620
-9.058460235595703 -102.091003417968750 106.257003784179690
-11.123200416564941 -101.149002075195310 103.072998046875000
-9.506279945373535 -102.583999633789060 106.764999389648440
-11.255700111389160 -103.084999084472660 106.379997253417970
-10.336600303649902 -103.125000000000000 106.946998596191410
-11.966500282287598 -101.630996704101560 103.929000854492190
-9.519659996032715 -100.212997436523440 103.108001708984370
-8.835160255432129 -100.609001159667970 104.916999816894530
-8.965220451354981 -101.126998901367190 105.866996765136720
-8.934069633483887 -100.142997741699220 103.897003173828120
-11.864800453186035 -101.613998413085940 104.916999816894530
-9.406900405883789 -101.603996276855470 106.861000061035160
-11.513099670410156 -102.165000915527340 106.486999511718750
-9.954629898071289 -102.088996887207030 107.297996520996090
-11.797900199890137 -101.603996276855470 105.907997131347660
-9.187319755554199 -99.551399230957031 104.944999694824220
-9.248290061950684 -99.592498779296875 105.930999755859370
-9.499589920043945 -98.676002502441406 104.904998779296870
-9.184470176696777 -100.607002258300780 106.490997314453120
-9.423720359802246 -98.633499145507813 105.912002563476560
-9.353580474853516 -99.612098693847656 106.910003662109370
-9.648659706115723 -98.052696228027344 105.380996704101560
-9.531640052795410 -100.580001831054690 107.250999450683590
-11.975099563598633 -100.627998352050780 105.919998168945310
-12.056300163269043 -99.627197265625000 105.892997741699220
-9.536600112915039 -98.624900817871094 107.350997924804690
-12.045000076293945 -100.572998046875000 104.456001281738280
-9.609689712524414 -97.553398132324219 106.390998840332030
-9.860830307006836 -99.608703613281250 107.899002075195310
-10.036999702453613 -101.061996459960940 107.705001831054690
-11.932800292968750 -100.128997802734370 106.930999755859370
-11.591899871826172 -101.202003479003910 107.054000854492190
-10.853699684143066 -100.665000915527340 108.027999877929690
-10.411399841308594 -100.067001342773440 108.264999389648440
-10.957699775695801 -101.672996520996090 107.519996643066410
-12.181699752807617 -99.080902099609375 106.902999877929690
-11.597399711608887 -100.030998229980470 107.817001342773440
-9.766469955444336 -98.118499755859375 107.960998535156250
-9.855870246887207 -96.615699768066406 106.416999816894530
-10.225399971008301 -98.657501220703125 108.558998107910160
-11.920299530029297 -99.137001037597656 107.948997497558590
-12.342200279235840 -98.111396789550781 106.915000915527340
-10.887000083923340 -99.051002502441406 108.777999877929690
-9.755519866943359 -96.596603393554688 107.421997070312500
-11.608699798583984 -98.719596862792969 108.568000793457030
-10.079199790954590 -97.660102844238281 108.619003295898440
-12.248200416564941 -98.088096618652344 107.894996643066410
-10.849900245666504 -97.999801635742188 109.147003173828120
-12.465299606323242 -97.126403808593750 107.413002014160160
-9.925459861755371 -96.611099243164063 108.380996704101560
-9.941140174865723 -95.629096984863281 107.412002563476560
-11.904700279235840 -97.650398254394531 108.981002807617190
-10.488200187683105 -97.072700500488281 109.262001037597660
-12.373499870300293 -97.120002746582031 108.422996520996090
-10.216500282287598 -95.070297241210937 106.891998291015620
-10.168700218200684 -96.126197814941406 109.014999389648440
-11.379500389099121 -97.193801879882813 109.595001220703120
-12.573399543762207 -96.167396545410156 108.466003417968750
-10.038900375366211 -95.130798339843750 108.380996704101560
-10.867199897766113 -96.549003601074219 109.763000488281250
-12.194800376892090 -96.553001403808594 109.317001342773440
-12.639699935913086 -95.583396911621094 107.927001953125000
-10.502799987792969 -94.167098999023438 106.949996948242190
-10.256500244140625 -94.087997436523438 107.906997680664060
-10.621399879455566 -93.205001831054687 107.486000061035160
-10.317700386047363 -93.607299804687500 108.917999267578120
-12.569600105285645 -94.101699829101563 107.283996582031250
-10.306300163269043 -95.114196777343750 109.434997558593750
-12.246899604797363 -93.124099731445313 106.992996215820310
-12.811200141906738 -94.607498168945313 107.918998718261720
-10.488599777221680 -92.643699645996094 108.910003662109370
-12.880499839782715 -93.613098144531250 107.903999328613280
-10.463000297546387 -93.614799499511719 109.864997863769530
-11.341699600219727 -92.099502563476562 107.398002624511720
-10.715100288391113 -92.065299987792969 108.386001586914060
-12.713600158691406 -95.082397460937500 108.887001037597660
-10.635199546813965 -94.640998840332031 110.069000244140620
-12.945799827575684 -94.129402160644531 108.925003051757810
-12.646599769592285 -92.635597229003906 107.558998107910160
-10.799799919128418 -95.631698608398437 109.972000122070310
-12.104599952697754 -92.013702392578125 107.151000976562500
-12.420000076293945 -95.636398315429687 109.457000732421870
-10.557600021362305 -92.634803771972656 109.859001159667970
-12.476900100708008 -94.669296264648438 110.005996704101560
-13.120100021362305 -93.144996643066406 108.903999328613280
-13.029999732971191 -92.610801696777344 108.350997924804690
-11.808300018310547 -96.093101501464844 109.878997802734380
-11.839200019836426 -95.105201721191406 110.402000427246090
-11.352700233459473 -94.535896301269531 110.750999450683590
-12.896499633789063 -93.625000000000000 109.930999755859370
-11.006699562072754 -93.581100463867188 110.783996582031250
-10.688899993896484 -91.575302124023438 109.418998718261720
-10.976699829101563 -91.169197082519531 108.444999694824220
-12.753199577331543 -91.627601623535156 107.972000122070310
-11.819399833679199 -91.134696960449219 107.458999633789060
-12.214200019836426 -94.038497924804687 110.789001464843750
-13.130100250244141 -92.683601379394531 110.023002624511720
-11.390000343322754 -90.650596618652344 107.954002380371090
-13.132300376892090 -91.606201171875000 108.805000305175780
-13.307499885559082 -92.107597351074219 109.416000366210940
-10.734800338745117 -91.605003356933594 110.448997497558590
-12.712599754333496 -93.050598144531250 110.804000854492190
-11.425999641418457 -93.092597961425781 111.346000671386720
-12.391900062561035 -90.596603393554688 107.872001647949220
-11.081899642944336 -92.072799682617188 111.254997253417970
-11.107299804687500 -90.214996337890625 108.961997985839840
-10.890600204467773 -90.622001647949219 109.913002014160160
-12.352999687194824 -92.617599487304688 111.426002502441410
-12.925200462341309 -92.145401000976563 110.972000122070310
-13.225099563598633 -90.613601684570313 108.961997985839840
-13.445300102233887 -91.127296447753906 109.918998718261720
-12.789899826049805 -90.122299194335938 108.456001281738280
-11.813199996948242 -92.075302124023438 111.846000671386720
-11.032999992370605 -91.113998413085938 111.333999633789060
-12.178999900817871 -89.655097961425781 108.064002990722660
-11.063400268554687 -89.654899597167969 109.927001953125000
-13.325900077819824 -91.107002258300781 110.910003662109370
-13.181300163269043 -89.636901855468750 109.033996582031250
-13.547499656677246 -90.129302978515625 109.874000549316410
-11.950300216674805 -91.210899353027344 112.094001770019530
-11.333100318908691 -89.108001708984375 109.413002014160160
-11.049200057983398 -90.123199462890625 111.352996826171870
-12.679400444030762 -89.144798278808594 108.550003051757810
-12.774499893188477 -91.069297790527344 111.841003417968750
-11.336999893188477 -90.611701965332031 111.916999816894530
-13.578599929809570 -90.055198669433594 110.866996765136720
-11.118700027465820 -89.068702697753906 110.935997009277340
-12.339699745178223 -90.609497070312500 112.411003112792970
-11.483499526977539 -88.170402526855469 109.950996398925780
-11.302300453186035 -88.100196838378906 110.913002014160160
-11.953399658203125 -87.664596557617188 109.457000732421870
-11.531000137329102 -87.162803649902344 110.930999755859370
-13.305000305175781 -88.616096496582031 109.440002441406250
-11.348699569702148 -88.112197875976563 111.913002014160160
-11.261300086975098 -89.108299255371094 111.942001342773440
-13.033800125122070 -87.591796875000000 109.273002624511720
-13.675200462341309 -89.090301513671875 109.935997009277340
-12.046699523925781 -86.720100402832031 110.011001586914060
-13.656900405883789 -87.634300231933594 110.044998168945310
-13.844799995422363 -89.111999511718750 110.915000915527340
-11.474699974060059 -87.133300781250000 111.902000427246090
-13.633199691772461 -89.041603088378906 111.834999084472660
-13.225299835205078 -90.051101684570313 111.814002990722660
-14.037300109863281 -87.627601623535156 110.867996215820310
-13.353500366210937 -86.610496520996094 109.907997131347660
-14.010499954223633 -88.152000427246094 111.440002441406250
-11.595100402832031 -88.116699218750000 112.820999145507810
-12.909600257873535 -89.653503417968750 112.494003295898440
-11.764399528503418 -86.083801269531250 111.400001525878910
-11.842800140380859 -89.611396789550781 112.914001464843750
-13.213500022888184 -88.539802551269531 112.796997070312500
-12.498999595642090 -85.763496398925781 110.058998107910160
-13.744099617004395 -88.071800231933594 112.362998962402340
-11.585599899291992 -86.559997558593750 112.432998657226560
-14.047300338745117 -86.618896484375000 110.830001831054690
-12.268099784851074 -89.047798156738281 113.287002563476560
-14.244999885559082 -87.094001770019531 111.418998718261720
-12.198300361633301 -85.511199951171875 110.825996398925780
-13.292400360107422 -85.617500305175781 109.954002380371090
-12.838500022888184 -88.108802795410156 113.410003662109370
-13.464200019836426 -87.675498962402344 113.010002136230470
-14.140000343322754 -87.052200317382813 112.364997863769530
-12.350500106811523 -87.618400573730469 113.928001403808590
-11.944199562072754 -85.139198303222656 111.924003601074220
-14.198599815368652 -85.618202209472656 111.007003784179690
-14.460300445556641 -86.130897521972656 111.910003662109370
-13.771800041198730 -85.115898132324219 110.462997436523440
-11.759799957275391 -85.595802307128906 112.920997619628910
-13.168100357055664 -87.004096984863281 113.721000671386720
-13.736800193786621 -86.558502197265625 113.327003479003910
-13.162799835205078 -84.629402160644531 110.059997558593750
-14.259099960327148 -86.083602905273438 112.876998901367190
-12.549400329589844 -84.212097167968750 111.014999389648440
-12.764900207519531 -86.548500061035156 114.291000366210940
-14.184200286865234 -84.618598937988281 111.021003723144530
-14.588199615478516 -85.134803771972656 111.851997375488280
-13.416000366210938 -86.155799865722656 113.992996215820310
-12.194999694824219 -84.047096252441406 111.875000000000000
-13.736700057983398 -84.118598937988281 110.486000061035160
-14.043399810791016 -85.702697753906250 113.549003601074220
-12.073499679565430 -84.163696289062500 112.917999267578120
-14.563599586486816 -85.196601867675781 113.013000488281250
-12.782099723815918 -85.552101135253906 114.791999816894530
-14.715800285339355 -84.104896545410156 111.947998046875000
-14.315500259399414 -83.612503051757813 111.430000305175780
-13.445599555969238 -85.179100036621094 114.537002563476560
-13.839500427246094 -83.111999511718750 110.916999816894530
-12.394100189208984 -83.132400512695312 112.424003601074220
-14.915800094604492 -84.127700805664063 112.918998718261720
-12.769499778747559 -82.576400756835938 111.893997192382810
-12.330100059509277 -82.608802795410156 113.915000915527340
-12.158499717712402 -83.569198608398438 113.915000915527340
-13.155500411987305 -82.671501159667969 111.148002624511720
-14.655200004577637 -83.112098693847656 111.978996276855470
-14.348799705505371 -82.611297607421875 111.412002563476560
-15.037400245666504 -83.132102966308594 112.896003723144530
-14.508399963378906 -84.189498901367188 114.023002624511720
-14.999500274658203 -83.174301147460938 113.976997375488280
-14.240699768066406 -83.545600891113281 114.819000244140630
-13.458600044250488 -84.214202880859375 115.087997436523440
-12.963800430297852 -83.726699829101563 115.613998413085940
-12.336000442504883 -84.601600646972656 115.397003173828120
-15.017000198364258 -81.605201721191406 112.846000671386720
-14.011099815368652 -82.746597290039063 115.622001647949220
-14.824099540710449 -82.601196289062500 114.903999328613280
-13.319700241088867 -83.088996887207031 115.876998901367190
-12.425000190734863 -83.229301452636719 116.094001770019530
-15.244899749755859 -82.593299865722656 113.417999267578130
-14.453900337219238 -81.620201110839844 111.374000549316410
-12.984299659729004 -81.730201721191406 112.004997253417970
-14.616800308227539 -82.116600036621094 112.001998901367190
-12.585900306701660 -82.200302124023438 112.971000671386720
-11.691300392150879 -98.625801086425781 104.987998962402340
-12.328499794006348 -97.111396789550781 106.417999267578130
-11.819000244140625 -95.617301940917969 105.933998107910160
-12.426400184631348 -95.102897644042969 106.865997314453120
