ply
format ascii 1.0
comment Author: CloudCompare (TELECOM PARISTECH/EDF R&D)
obj_info Generated by CloudCompare!
element vertex 1810
property float x
property float y
property float z
end_header
-109.901 -27.3939 165.654 
-103.338 -18.0637 160.27 
-106.84 -18.6243 159.392 
-100.853 -17.612 159.362 
-102.339 -18.606 159.991 
-105.352 -19.0489 159.543 
-99.8337 -18.1285 159.58 
-98.8483 -18.1776 160.036 
-106.88 -19.5063 159.577 
-103.346 -19.1061 159.997 
-105.837 -19.6452 159.842 
-107.918 -19.9689 159.682 
-104.846 -19.6335 159.877 
-100.348 -19.0957 159.835 
-105.334 -20.2121 160.222 
-107.365 -20.5334 160.033 
-102.343 -19.6129 159.91 
-106.355 -20.4762 160.116 
-96.8417 -18.8056 160.094 
-104.358 -20.2442 160.194 
-103.351 -20.0452 160.093 
-108.96 -20.8988 159.688 
-98.3491 -19.094 159.856 
-109.844 -21.1098 159.417 
-108.297 -21.2326 160.266 
-106.847 -21.0739 160.462 
-105.348 -20.9645 160.618 
-99.3468 -19.5809 159.796 
-107.347 -21.5842 160.946 
-109.381 -21.5414 160.004 
-110.958 -21.4792 159.104 
-97.8897 -19.1013 159.126 
-106.343 -21.4931 161.03 
-104.342 -21.0041 160.611 
-110.262 -21.7437 159.755 
-102.847 -20.662 160.318 
-108.38 -22.004 161.018 
-97.3452 -19.4019 159.642 
-96.8621 -18.9806 158.802 
-96.3509 -19.2656 159.566 
-111.631 -21.7923 158.752 
-104.84 -21.5488 160.992 
-109.262 -22.2768 160.751 
-101.875 -20.697 160.229 
-103.353 -21.222 160.737 
-107.876 -22.4537 161.561 
-95.8366 -18.8951 158.472 
-105.841 -22.2112 161.824 
-108.832 -22.6366 161.39 
-111.276 -22.1839 159.339 
-110.382 -22.5562 160.479 
-106.867 -22.4327 161.587 
-100.917 -20.728 160.148 
-104.855 -22.229 161.825 
-94.8134 -18.8486 158.135 
-106.378 -22.7969 162.211 
-102.302 -21.4053 160.701 
-109.933 -22.9759 161.061 
-105.344 -22.7038 162.335 
-107.364 -22.9851 162.042 
-99.867 -20.6401 159.833 
-111.95 -22.5136 159.013 
-111.12 -22.8679 160.135 
-109.264 -23.255 161.766 
-97.8521 -20.1042 159.36 
-103.85 -22.1847 161.337 
-102.806 -21.9273 161.136 
-112.881 -22.584 158.449 
-110.744 -23.2344 160.783 
-93.7927 -18.8452 157.79 
-106.868 -23.4305 162.593 
-104.361 -22.8264 162.254 
-96.8488 -22.6524 164.963 
-108.388 -23.481 162.043 
-98.8291 -20.6111 159.494 
-111.787 -23.1675 159.859 
-109.975 -23.8904 162.104 
-95.456 -19.638 158.476 
-105.854 -23.4005 162.607 
-107.8 -23.8192 162.71 
-101.393 -21.7579 160.692 
-111.424 -23.5155 160.515 
-96.3281 -20.1422 159.082 
-107.342 -24.118 163.409 
-108.879 -24.0271 162.497 
-94.8598 -20.0543 159.24 
-92.7748 -18.8886 157.438 
-101.877 -22.2363 161.243 
-102.857 -22.682 161.839 
-108.286 -24.301 163.226 
-113.531 -22.9901 158.087 
-110.902 -24.028 161.498 
-106.344 -24.0758 163.442 
-112.557 -23.3351 159.193 
-94.4338 -19.6086 158.136 
-104.86 -23.7948 163.278 
-108.804 -24.7585 163.783 
-107.835 -24.6455 163.881 
-109.375 -24.5386 162.977 
-91.911 -21.9175 164.259 
-106.847 -24.5654 163.953 
-103.361 -23.2153 162.326 
-97.3645 -23.1891 164.534 
-111.767 -24.1997 160.83 
-107.36 -25.0311 164.495 
-102.36 -23.1795 162.337 
-112.446 -24.009 160.019 
-99.9248 -21.7869 160.136 
-108.321 -25.1899 164.338 
-103.787 -23.7632 162.986 
-110.757 -24.7367 162.3 
-91.7598 -18.9828 157.076 
-93.4137 -19.615 157.79 
-113.21 -23.6928 158.817 
-103.848 -24.2235 163.864 
-101.78 -22.8839 161.668 
-109.272 -25.3837 164.186 
-105.843 -24.6424 163.896 
-104.854 -24.4967 163.967 
-103.845 -24.711 164.866 
-101.843 -25.042 166.415 
-110.368 -25.071 162.947 
-97.3527 -21.1206 159.382 
-105.133 -24.8799 164.608 
-100.411 -22.2925 160.684 
-106.347 -25.0494 164.461 
-109.963 -25.3495 163.597 
-95.075 -20.373 158.482 
-104.343 -25.1433 165.393 
-100.868 -22.7092 161.306 
-111.447 -24.9875 162.035 
-105.883 -25.361 165.179 
-98.8783 -21.6806 159.714 
-112.129 -24.8327 161.21 
-107.826 -25.6578 164.855 
-92.8871 -22.489 163.813 
-98.3568 -24.1855 165.386 
-113.052 -24.3718 159.663 
-103.372 -25.309 165.779 
-102.69 -23.8995 162.865 
-106.848 -25.5871 164.941 
-96.4133 -21.1657 159.187 
-108.927 -25.8997 164.712 
-92.3959 -19.661 157.437 
-100.843 -24.5156 164.92 
-101.841 -24.7224 164.87 
-113.886 -24.0899 158.453 
-110.99 -25.8488 163.599 
-111.34 -25.6152 162.913 
-109.869 -26.0533 164.475 
-94.0537 -20.3599 158.139 
-90.748 -19.1316 156.705 
-99.062 -24.1715 164.627 
-95.3465 -23.1907 163.931 
-102.345 -25.1298 165.403 
-99.3623 -22.3697 160.376 
-93.8962 -22.8532 163.71 
-102.386 -24.4342 163.765 
-106.381 -25.9939 165.57 
-102.85 -24.8918 164.498 
-101.476 -23.5355 161.972 
-113.535 -24.4639 159.055 
-100.9 -25.0592 165.572 
-98.0303 -23.9791 164.315 
-108.262 -26.2327 165.167 
-104.779 -26.315 166.766 
-112.785 -25.1743 160.862 
-99.8101 -24.3986 164.448 
-95.3559 -21.1177 158.861 
-101.544 -24.5365 164.013 
-101.859 -24.1908 163.081 
-112.336 -25.6191 161.908 
-112.012 -25.8849 162.597 
-99.3988 -24.9298 165.634 
-110.881 -26.5398 164.482 
-111.776 -26.2311 163.333 
-91.3806 -19.7499 157.076 
-102.856 -25.886 166.197 
-93.0342 -20.3767 157.791 
-109.365 -26.5547 164.999 
-95.8343 -23.3855 163.349 
-103.874 -26.4991 167.056 
-94.3625 -21.1194 158.822 
-107.39 -26.4876 165.571 
-97.8139 -22.0693 159.536 
-97.3113 -23.8961 163.838 
-100.438 -24.5062 163.922 
-101.022 -24.3751 163.315 
-100.292 -23.4868 161.55 
-90.8506 -22.569 163.356 
-110.401 -26.9525 165.086 
-104.393 -26.9689 167.579 
-113.691 -25.2419 159.814 
-114.403 -24.5598 157.964 
-89.7397 -19.339 156.324 
-113.436 -25.5186 160.493 
-105.409 -26.9755 167.082 
-99.8762 -23.2077 160.812 
-112.998 -25.9388 161.556 
-114.142 -24.9156 158.65 
-112.595 -26.4248 162.702 
-92.3667 -22.9579 163.208 
-111.947 -26.9255 164.065 
-99.864 -25.5648 165.981 
-100.5 -24.2179 162.616 
-96.4078 -23.8843 163.508 
-94.3682 -23.4403 163.297 
-98.356 -22.6389 159.832 
-92.0167 -20.4269 157.437 
-96.8992 -22.153 159.25 
-111.455 -27.3994 165.084 
-93.6726 -21.0927 158.145 
-108.385 -27.0533 165.54 
-93.3119 -23.1801 162.987 
-109.901 -27.3939 165.654 
-90.3681 -19.8851 156.708 
-99.5804 -24.4286 163.094 
-112.879 -27.0552 163.452 
-98.9081 -23.2884 160.598 
-113.802 -26.1519 160.883 
-113.261 -26.7114 162.357 
-97.8865 -24.3792 163.417 
-112.303 -27.6754 164.874 
-114.288 -25.6599 159.38 
-99.4832 -24.2794 162.26 
-98.8735 -24.7229 163.367 
-91.0012 -20.5129 157.078 
-88.735 -19.6087 155.933 
-115.158 -25.26 157.772 
-96.8483 -24.2025 162.937 
-95.8497 -23.995 162.839 
-112.992 -27.9084 164.567 
-113.287 -27.6772 163.869 
-114.881 -25.5756 158.444 
-94.8482 -22.1148 158.895 
-98.6425 -24.4069 162.505 
-90.3404 -23.0857 162.91 
-94.8468 -23.8952 162.827 
-89.3178 -22.9298 162.902 
-113.914 -27.0307 161.96 
-89.3584 -20.07 156.331 
-114.438 -26.5186 160.488 
-97.8933 -23.3868 160.236 
-88.3361 -23.0776 163.413 
-112.45 -28.4283 165.533 
-99.3141 -24.0368 160.991 
-93.8347 -23.6789 162.445 
-95.7805 -22.5651 159.096 
-91.3364 -23.2674 162.507 
-97.2985 -23.0634 159.561 
-113.858 -27.5946 162.924 
-97.5392 -24.425 162.404 
-91.6367 -21.1792 157.44 
-92.8391 -23.6505 162.434 
-113.699 -28.2868 164.273 
-115.009 -26.439 159.547 
-92.3068 -21.64 158.026 
-91.8477 -23.7153 162.907 
-113.279 -28.7144 165.345 
-89.988 -20.6375 156.711 
-115.214 -26.2438 158.822 
-96.3267 -23.0967 159.468 
-93.3609 -22.1176 158.369 
-97.7896 -24.4023 161.664 
-114.613 -27.3158 161.242 
-96.5171 -24.3972 162.064 
-98.374 -24.2162 160.816 
-87.7339 -19.9409 155.53 
-114.202 -28.2572 163.34 
-113.945 -28.9574 165.017 
-86.3208 -22.9639 162.84 
-88.3483 -23.157 162.424 
-90.3495 -23.3315 161.98 
-88.3518 -20.3074 155.945 
-114.467 -27.9833 162.49 
-97.1539 -23.8101 160.181 
-115.764 -26.2028 157.85 
-90.6214 -21.268 157.08 
-93.8727 -22.6325 158.811 
-91.8411 -23.6608 161.931 
-89.3468 -23.2151 161.939 
-115.204 -27.2378 160.302 
-89.8599 -21.4751 157.694 
-115.59 -26.8787 159.228 
-114.515 -28.8725 164.05 
-88.9772 -20.8033 156.337 
-112.904 -29.4671 166.01 
-96.7724 -24.4586 161.309 
-94.8689 -24.389 161.93 
-95.8131 -24.3763 161.431 
-116.49 -26.4604 157.528 
-94.8482 -23.1127 158.899 
-114.365 -29.577 165.431 
-95.5176 -23.4786 159.415 
-93.8555 -24.2967 161.893 
-114.972 -27.9817 161.49 
-114.847 -28.6071 162.917 
-116.162 -26.833 158.283 
-96.1366 -23.8643 159.827 
-91.4052 -22.0564 157.692 
-92.3701 -23.858 161.35 
-90.8438 -23.6334 161.425 
-114.954 -29.4189 164.491 
-89.608 -21.3894 156.714 
-92.7914 -22.6328 158.035 
-86.8955 -23.3115 162 
-115.796 -27.6569 159.871 
-115.549 -27.9353 160.59 
-88.8334 -23.4152 161.329 
-115.28 -29.1748 163.391 
-96.2603 -24.4671 160.582 
-89.847 -23.6811 161.444 
-94.351 -24.2641 160.892 
-86.7362 -20.3304 155.118 
-115.449 -29.9625 164.984 
-116.439 -27.5166 159.003 
-115.34 -28.6136 161.913 
-117.227 -26.7133 156.833 
-93.3037 -23.1002 158.501 
-116.815 -27.1432 157.894 
-87.9689 -21.0113 155.956 
-93.3421 -24.1932 160.908 
-94.2677 -23.6088 159.188 
-87.8055 -23.4466 161.379 
-91.355 -23.8974 160.849 
-95.326 -24.4576 160.409 
-115.954 -30.4699 165.463 
-115.68 -29.7599 163.872 
-116.164 -28.2779 160.264 
-88.5966 -21.5455 156.342 
-95.0521 -24.2036 159.671 
-88.8305 -22.5627 158.504 
-110.842 -30.1078 166.421 
-115.735 -29.2115 162.365 
-92.3465 -24.0746 160.406 
-90.5386 -23.9198 160.688 
-115.985 -28.9823 161.501 
-88.8384 -23.5262 160.388 
-117.156 -27.7889 158.264 
-116.758 -28.1917 159.335 
-85.856 -23.7077 161.954 
-90.8388 -22.6209 157.428 
-86.0728 -20.6188 154.838 
-117.42 -27.5406 157.471 
-89.2282 -22.1465 156.716 
-87.8526 -22.6359 158.366 
-115.936 -30.4689 164.452 
-91.9296 -23.0912 157.692 
-86.8917 -22.19 157.732 
-93.4175 -23.9019 158.9 
-86.9627 -21.2555 155.569 
-94.3002 -24.4145 159.652 
-116.101 -29.8243 162.825 
-115.816 -31.1439 165.898 
-116.491 -30.9119 164.959 
-116.505 -28.9765 160.551 
-87.8542 -23.6863 160.434 
-91.3377 -24.1597 159.929 
-93.3275 -24.5196 159.903 
-87.5871 -21.7327 155.964 
-116.314 -29.6361 161.9 
-89.8316 -22.6469 156.963 
-117.383 -28.573 158.948 
-90.3453 -24.0625 159.903 
-117.749 -28.1938 157.859 
-117.092 -28.8679 159.643 
-89.3451 -23.9109 159.846 
-86.7821 -23.8959 160.86 
-116.446 -30.502 163.455 
-85.4106 -20.9284 154.554 
-116.889 -31.5537 165.431 
-89.89 -23.2562 157.811 
-85.3284 -24.0455 161.403 
-88.33 -23.9225 159.849 
-85.8449 -22.6162 157.908 
-117.882 -28.0786 156.935 
-90.8357 -23.5839 157.941 
-116.789 -29.6581 160.877 
-116.624 -30.2827 162.331 
-85.9582 -21.5284 155.176 
-116.875 -31.0715 163.93 
-86.8613 -23.1493 158.355 
-117.701 -29.24 159.296 
-91.8773 -24.3927 158.986 
-117.997 -28.9814 158.513 
-86.5787 -21.9399 155.583 
-92.8354 -24.5572 158.914 
-87.321 -23.982 159.871 
-88.3326 -22.721 156.549 
-117.39 -29.5684 159.956 
-92.3364 -24.0915 157.92 
-90.3304 -24.019 158.486 
-117.038 -30.915 162.981 
-90.8046 -24.3729 159.006 
-118.222 -28.7087 157.366 
-117.298 -31.6674 164.387 
-84.7495 -21.2572 154.267 
-117.131 -30.2968 161.274 
-117.485 -31.4507 163.462 
-86.3736 -24.2409 159.943 
-91.326 -24.484 158.403 
-89.3702 -23.6911 157.353 
-118.284 -29.6576 158.878 
-88.832 -24.3416 158.988 
-89.94 -23.5177 156.661 
-118.032 -29.9578 159.568 
-117.691 -30.2365 160.301 
-118.287 -28.6587 156.394 
-86.8932 -24.1332 159.137 
-87.7578 -22.9384 156.066 
-88.7989 -23.4894 156.865 
-118.554 -29.4736 158.007 
-84.9044 -23.2046 157.741 
-84.8402 -24.6046 160.914 
-87.8702 -24.3644 159.011 
-117.896 -32.0462 163.943 
-117.383 -31.0772 161.932 
-83.3657 -22.6167 156.842 
-86.0206 -23.7926 158.355 
-89.3328 -24.4949 158.397 
-84.0894 -21.6036 153.977 
-85.7772 -24.3771 159.387 
-84.3459 -22.195 155.009 
-118.596 -29.2713 156.842 
-85.3095 -22.6556 155.525 
-117.801 -31.6474 162.402 
-117.919 -31.0468 160.956 
-118.284 -30.6545 159.875 
-83.9089 -23.179 157.184 
-118.835 -30.1168 158.411 
-88.3407 -24.5466 158.398 
-87.3264 -24.4049 158.392 
-86.6231 -23.9751 157.694 
-86.4083 -23.0671 155.698 
-88.8437 -23.6054 155.907 
-83.7958 -24.9146 160.868 
-118.235 -32.2118 162.899 
-87.4389 -23.8624 156.735 
-118.967 -30.0287 157.457 
-85.204 -24.3308 158.528 
-118.281 -31.6631 161.384 
-84.7886 -24.931 159.862 
-83.4303 -21.9666 153.684 
-89.8652 -24.8247 157.469 
-86.342 -24.602 158.413 
-119.079 -29.7023 156.342 
-118.467 -32.9781 163.986 
-118.892 -31.0801 159.444 
-118.503 -31.4841 160.49 
-88.8598 -24.7602 157.445 
-84.2581 -24.173 157.962 
-83.8056 -24.9525 159.893 
-87.8418 -24.5988 157.413 
-86.781 -23.8843 156.106 
-83.6508 -23.9873 157.516 
-118.607 -32.3035 161.841 
-83.8379 -22.7227 154.549 
-82.9047 -23.7413 157.237 
-84.8313 -23.1272 154.959 
-119.166 -30.7094 157.901 
-86.0498 -24.3697 157.148 
-118.825 -32.1226 160.908 
-118.936 -33.0359 162.925 
-86.8461 -24.5645 156.947 
-119.123 -31.7611 159.806 
-81.8618 -23.6502 156.846 
-82.8691 -25.2055 159.93 
-81.8649 -22.559 154.347 
-82.7722 -22.346 153.389 
-80.7414 -23.422 156.645 
-84.7826 -24.9784 158.44 
-83.7818 -24.7134 158.25 
-78.4793 -23.9896 158.8 
-119.291 -30.6369 156.907 
-119.397 -31.5799 158.939 
-80.3885 -22.4542 154.282 
-84.1218 -23.5119 155.002 
-83.8671 -25.2068 158.909 
-82.9051 -22.9536 154.21 
-84.8894 -24.7517 157.415 
-85.9348 -24.3025 155.835 
-83.923 -24.337 156.711 
-119.571 -31.4946 157.949 
-119.068 -32.9851 161.494 
-119.315 -32.6305 160.4 
-82.7686 -24.8379 157.883 
-85.8297 -24.1255 154.948 
-79.8445 -25.0196 159.407 
-88.3335 -25.4234 156.808 
-83.8797 -23.5204 154.234 
-119.294 -33.6348 162.405 
-85.4081 -24.7771 156.36 
-118.652 -34.1247 163.731 
-82.115 -22.7416 153.09 
-79.3756 -23.6603 156.293 
-77.8353 -24.1207 157.924 
-76.8356 -23.0991 155.926 
-78.8422 -22.5634 153.87 
-84.8801 -24.2974 155.251 
-80.8367 -25.1812 158.922 
-82.3423 -25.4604 158.921 
-119.852 -32.1062 158.417 
-82.1378 -24.329 156.386 
-76.765 -23.6547 157.028 
-77.778 -23.4276 156.094 
-82.9119 -24.4973 156.339 
-81.5584 -24.5412 156.978 
-83.3852 -23.9836 154.939 
-80.8588 -23.0664 153.866 
-77.8589 -22.4915 153.796 
-119.799 -32.639 159.395 
-83.3448 -25.5391 158.411 
-119.493 -31.5461 156.944 
-79.8915 -22.8759 153.703 
-77.9484 -23.8569 156.724 
-119.53 -33.2723 160.805 
-82.3515 -23.7583 154.633 
-75.3429 -22.6124 154.914 
-79.8629 -25.0125 158.395 
-81.315 -23.4845 154.335 
-75.885 -23.2372 155.854 
-82.3883 -23.5115 153.78 
-120.13 -31.5624 156.103 
-119.88 -34.0909 161.923 
-82.3453 -25.4893 157.931 
-79.3057 -25.3979 158.952 
-76.3426 -22.6565 153.93 
-80.7021 -24.4798 156.148 
-119.71 -32.172 157.387 
-81.4588 -23.1532 152.789 
-81.3444 -25.6304 158.409 
-85.3557 -24.5954 154.382 
-77.2015 -24.3202 157.109 
-74.4099 -22.7602 154.718 
-80.3914 -24.904 157.067 
-84.8732 -25.2202 155.905 
-78.2689 -24.7255 157.513 
-120.024 -33.5121 159.993 
-78.7582 -23.3496 154.049 
-81.561 -24.6633 155.85 
-79.7976 -23.6728 154.339 
-84.3102 -25.4203 156.415 
-78.8483 -25.0871 157.918 
-120.034 -33.9927 160.958 
-120.276 -33.148 158.89 
-80.8401 -24.0489 154.619 
-81.3432 -23.6121 153.413 
-82.3364 -24.8548 155.798 
-78.3531 -23.0332 153.311 
-79.8652 -24.6713 156.381 
-82.9202 -24.7172 155.193 
-120.144 -32.7282 157.882 
-81.8821 -24.4173 154.9 
-84.2877 -24.9042 154.98 
-80.3741 -23.4797 153.269 
-75.8852 -24.0411 156.343 
-79.8039 -25.2594 157.47 
-75.3697 -23.4174 155.102 
-83.8356 -24.2716 153.492 
-82.852 -24.0588 153.37 
-76.8635 -22.9273 153.272 
-120.04 -34.8212 162.3 
-77.6554 -23.3767 153.948 
-81.3364 -25.3801 156.93 
-74.9417 -23.6894 155.746 
-75.3519 -22.7824 153.473 
-80.1137 -24.617 155.646 
-79.3824 -23.4103 153.164 
-77.8465 -24.605 156.406 
-120.249 -34.6648 161.388 
-84.366 -24.4065 152.937 
-81.0541 -24.7606 155.107 
-76.8952 -24.5464 156.338 
-78.828 -25.2019 156.941 
-76.3176 -23.6883 154.541 
-74.3612 -22.8618 153.477 
-78.9786 -24.1701 154.519 
-80.0183 -24.4986 154.807 
-76.8543 -24.1025 155.196 
-77.8944 -24.4375 155.483 
-79.0919 -24.5943 155.305 
-119.923 -32.5883 156.451 
-120.485 -34.0408 159.472 
-77.0948 -23.911 154.485 
-77.8665 -24.0392 154.444 
-73.3265 -22.9911 153.908 
-73.8156 -23.572 154.978 
-120.481 -34.5304 160.449 
-120.681 -33.672 158.378 
-83.3373 -25.5661 155.416 
-80.8794 -23.9481 152.769 
-83.3311 -24.4529 152.836 
-120.406 -35.5818 162.428 
-77.3724 -23.463 152.755 
-74.3416 -24.1104 155.417 
-79.8609 -23.9505 152.749 
-79.3804 -25.4796 156.36 
-74.8438 -23.1575 152.943 
-81.8977 -24.3764 152.718 
-120.433 -33.5642 157.412 
-78.2959 -25.2356 155.975 
-75.8623 -23.3629 152.728 
-78.2968 -23.8275 152.659 
-120.631 -35.2072 160.858 
-81.844 -25.8097 155.431 
-73.343 -23.1939 152.964 
-120.864 -34.6036 158.92 
-76.4379 -24.9017 155.328 
-77.3022 -25.174 155.473 
-120.809 -35.1261 159.909 
-80.853 -24.3571 152.021 
-120.044 -33.4901 156.451 
-72.3193 -23.3692 153.293 
-72.9628 -24.1428 154.632 
-79.3784 -25.4651 154.91 
-79.8562 -24.3288 152.023 
-120.668 -36.1628 161.867 
-120.97 -34.5565 157.92 
-76.3798 -23.9086 152.217 
-73.8465 -23.5102 152.343 
-78.8434 -24.2962 152.047 
-71.9688 -24.0761 154.172 
-81.3464 -26.1558 154.925 
-77.8358 -24.2654 152.044 
-75.3206 -23.8566 152.113 
-120.875 -36.1005 160.924 
-72.8429 -23.5875 152.399 
-121.145 -35.6745 159.378 
-79.3268 -24.5316 151.388 
-120.608 -34.3226 156.429 
-71.8454 -23.6531 152.437 
-76.8812 -24.397 151.739 
-74.3629 -23.9826 151.8 
-80.3483 -24.7064 150.949 
-70.8537 -23.7043 152.452 
-120.991 -37.0733 161.932 
-73.35 -23.928 151.786 
-73.4371 -25.0294 154.218 
-121.239 -35.6399 158.396 
-75.8825 -24.4119 151.69 
-120.689 -34.2657 155.423 
-121.026 -35.0197 156.931 
-121.195 -36.6541 160.388 
-72.4603 -24.994 154.125 
-72.34 -23.9838 151.832 
-78.3681 -24.8279 151.087 
-121.312 -35.6222 157.413 
-74.8667 -24.519 151.324 
-77.3753 -24.8807 151.071 
-121.288 -36.6246 159.405 
-121.01 -35.0289 155.906 
-73.8803 -24.3589 151.195 
-121.336 -37.6131 161.414 
-70.3514 -24.1815 151.948 
-72.845 -24.3564 151.237 
-71.3426 -24.1985 151.477 
-121.442 -35.568 156.426 
-121.486 -36.5797 158.442 
-76.3518 -24.9726 150.835 
-77.855 -25.2114 150.484 
-75.3725 -24.9309 150.771 
-67.2909 -23.8284 151.597 
-120.762 -35.1564 154.924 
-121.476 -37.5743 159.929 
-74.3879 -24.9028 150.705 
-64.2563 -22.7369 149.985 
-64.9087 -23.0176 150.34 
-121.727 -38.1457 160.917 
-71.8427 -24.6297 150.928 
-73.3741 -24.8156 150.675 
-69.8434 -24.5739 151.391 
-63.4335 -22.4957 149.264 
-76.8477 -25.45 150.313 
-121.604 -36.5611 156.905 
-70.8417 -24.661 150.948 
-121.662 -36.1636 155.939 
-121.743 -37.1121 157.912 
-75.8553 -25.3344 150.242 
-68.8463 -24.5643 151.385 
-67.897 -24.3812 151.199 
-63.3392 -23.6354 150.95 
-72.3421 -25.0306 150.352 
-74.8146 -25.3941 150.105 
-121.444 -36.074 154.915 
-121.537 -38.001 158.912 
-71.3439 -25.1042 150.408 
-66.8883 -24.4497 150.724 
-62.3529 -22.5984 148.384 
-64.1877 -23.2802 149.16 
-121.857 -38.6087 159.914 
-121.911 -37.0954 156.41 
-69.3445 -25.0837 150.895 
-73.8426 -25.449 149.826 
-64.8272 -23.6314 149.435 
-76.3465 -25.7664 149.481 
-70.3392 -25.153 150.442 
-68.3544 -25.0592 150.874 
-72.8492 -25.4908 149.815 
-122.049 -38.1 157.908 
-71.8539 -25.4855 149.807 
-121.782 -37.129 155.417 
-63.904 -24.4687 150.648 
-74.837 -25.9028 149.285 
-75.816 -25.9298 148.875 
-70.8607 -25.463 149.798 
-67.3513 -25.0929 150.387 
-121.712 -38.6142 158.41 
-61.8375 -23.1205 147.944 
-63.3526 -23.6003 148.392 
-65.1975 -24.282 149.093 
-64.4238 -24.0168 148.791 
-121.844 -38.1126 156.914 
-73.3544 -25.8793 149.266 
-60.8286 -23.1746 148.14 
-121.682 -39.5813 159.903 
-72.3794 -25.8833 149.238 
-66.3578 -25.0857 149.88 
-68.8501 -25.6961 149.949 
-122.073 -38.0915 155.893 
-71.3799 -25.9348 149.264 
-64.0358 -24.822 149.684 
-74.8673 -26.3036 148.495 
-121.82 -39.6095 158.916 
-70.3534 -25.9528 149.251 
-62.9004 -24.9996 150.151 
-73.8551 -26.3317 148.615 
-64.7744 -24.6945 148.506 
-62.8412 -24.1134 147.92 
-65.8412 -25.1128 148.917 
-69.3453 -25.9028 149.249 
-63.9695 -24.4628 148.198 
-64.8715 -25.5444 150.26 
-67.8532 -25.899 149.776 
-72.8618 -26.3003 148.559 
-121.834 -38.1113 154.914 
-121.709 -39.0694 156.956 
-61.8629 -24.0429 147.721 
-71.8851 -26.2985 148.66 
-63.9033 -25.5072 150.139 
-62.963 -24.7422 148.768 
-61.934 -25.0468 149.692 
-122.016 -39.7276 157.925 
-60.8494 -24.1369 147.952 
-70.8841 -26.3959 148.723 
-63.4905 -25.2865 149.266 
-73.3564 -26.7351 148.004 
-121.894 -39.1218 155.903 
-69.8435 -26.4467 148.739 
-64.3106 -25.1457 147.967 
-67.8508 -26.3338 149.065 
-68.8864 -26.3564 148.67 
-64.3676 -26.0067 149.747 
-62.7661 -25.6995 149.695 
-62.3314 -24.6491 147.491 
-65.3241 -25.6263 148.443 
-62.0155 -25.2655 148.637 
-61.3438 -24.6592 147.5 
-121.691 -40.5781 158.437 
-71.3522 -26.7672 148.015 
-63.2814 -25.5144 148.456 
-121.859 -41.112 159.413 
-63.3309 -25.1418 147.464 
-72.3785 -26.8458 147.525 
-121.653 -40.0767 156.963 
-65.3479 -26.3771 149.201 
-60.4234 -24.824 147.689 
-70.3603 -26.8256 148.034 
-122.161 -41.654 159.962 
-69.3417 -26.9175 148.294 
-72.8293 -27.0203 146.878 
-67.3615 -26.7841 148.543 
-68.3531 -26.8385 148.205 
-61.3953 -25.6807 148.301 
-122.05 -40.1506 155.856 
-63.3556 -26.5087 149.268 
-64.308 -26.1166 147.973 
-64.3408 -26.5997 148.905 
-62.36 -25.4619 147.143 
-62.2 -25.8877 148.013 
-62.376 -26.5813 149.312 
-63.9482 -25.9568 147.169 
-69.8707 -27.2749 147.493 
-70.8667 -27.3538 147.071 
-71.8236 -27.4518 146.827 
-121.602 -41.0594 156.973 
-60.3327 -26.1189 148.455 
-121.951 -41.6073 157.882 
-60.8406 -25.6024 146.903 
-61.3599 -26.5953 148.863 
-68.3582 -27.3419 147.604 
-62.8544 -26.0339 146.802 
-121.54 -40.64 155.357 
-122.16 -42.1385 158.478 
-66.3547 -27.3779 148.125 
-122.351 -42.61 159.412 
-67.346 -27.4027 147.746 
-63.794 -26.6582 147.518 
-59.9281 -25.8108 147.104 
-61.8678 -26.0081 146.712 
-62.8287 -26.612 147.45 
-63.3597 -27.236 148.522 
-64.3237 -27.4011 148.226 
-62.3366 -27.1944 148.51 
-121.121 -40.6022 154.491 
-68.8808 -27.7235 146.964 
-69.8573 -27.6835 146.442 
-59.816 -26.5979 147.99 
-60.3846 -26.2303 146.537 
-60.3685 -27.0689 148.313 
-58.8512 -26.6075 147.88 
-121.373 -41.6218 155.909 
-65.8542 -27.8048 147.553 
-66.8493 -27.9339 147.287 
-61.3517 -26.5372 146.279 
-67.8445 -27.9886 146.83 
-61.3547 -27.4513 148.238 
-122.065 -43.128 158.521 
-62.8485 -27.6878 147.991 
-64.824 -28.0228 147.354 
-59.8486 -27.5761 147.858 
-63.8446 -28.1311 147.434 
-61.847 -27.9622 147.751 
-121.247 -41.5867 153.93 
-121.037 -42.6305 156.367 
-67.3312 -28.3778 146.328 
-121.19 -42.0654 154.953 
-66.3878 -28.3289 146.544 
-58.8768 -27.5798 147.78 
-121.718 -43.5954 157.983 
-60.8429 -27.9618 147.745 
-121.275 -43.0996 156.944 
-65.3882 -28.3176 146.535 
-68.3391 -28.593 145.409 
-56.3626 -27.3939 147.635 
-62.8325 -28.4613 147.249 
-65.8337 -28.5751 145.897 
-67.8535 -29.6199 147.398 
-67.3513 -28.7097 145.468 
-55.3448 -27.5879 147.4 
-121.535 -44.1121 157.313 
-61.8418 -28.6889 147.004 
-121.689 -44.5218 158.002 
-59.8489 -28.4547 147.22 
-120.831 -42.6053 153.915 
-63.3321 -29.0058 146.794 
-60.84 -28.7033 147.027 
-64.792 -28.8652 145.758 
-66.4041 -28.8463 145.01 
-67.1605 -29.9736 147.168 
-121.296 -44.1168 156.436 
-63.8351 -29.047 145.886 
-54.8477 -27.9959 146.859 
-65.3533 -29.196 144.958 
-62.8653 -29.2169 145.959 
-52.8963 -27.7636 146.723 
-121.101 -44.1498 155.501 
-59.3538 -28.9891 146.744 
-121.02 -43.6442 154.377 
-53.8425 -28.0557 146.898 
-64.3565 -29.3116 145.065 
-61.8823 -29.3533 146.022 
-121.475 -45.0905 156.865 
-63.3135 -29.343 145.247 
-121.335 -43.607 153.416 
-65.842 -29.607 144.412 
-60.8416 -29.5424 146.33 
-53.3684 -28.2923 146.235 
-62.332 -29.5601 145.392 
-59.846 -29.5544 146.335 
-54.3709 -28.5437 146.257 
-121.37 -45.1033 155.903 
-120.932 -44.5915 154.879 
-58.8495 -29.5332 146.288 
-63.8537 -29.7298 144.51 
-64.8661 -29.7078 143.953 
-57.8437 -29.5004 146.244 
-55.3553 -29.071 146.291 
-62.8575 -29.6972 144.468 
-52.372 -28.4174 145.676 
-120.958 -44.6443 153.871 
-121.06 -44.2681 152.89 
-61.8537 -29.7908 144.555 
-51.3661 -28.3642 145.567 
-121.12 -43.977 151.916 
-53.4121 -28.9806 145.634 
-63.338 -30.0663 143.877 
-55.8471 -29.6739 146.04 
-58.3445 -30.0779 145.863 
-121.275 -45.6254 154.949 
-121.477 -46.0847 155.864 
-64.8177 -30.0209 142.886 
-60.3324 -30.4841 145.72 
-57.3442 -30.032 145.793 
-50.3479 -28.6491 145.472 
-62.3491 -30.2052 143.982 
-54.353 -29.6076 145.874 
-55.3204 -29.3556 144.622 
-61.3595 -30.2809 144.046 
-120.775 -45.1032 152.937 
-59.3464 -30.6885 145.531 
-52.3303 -29.2285 145.049 
-51.3509 -29.1969 145.022 
-60.8425 -31.1096 145.412 
-56.8429 -29.8378 144.16 
-55.8358 -29.7718 144.085 
-53.7664 -30.0904 145.594 
-61.842 -30.688 143.474 
-120.886 -46.1039 153.894 
-55.3095 -30.4953 145.717 
-60.175 -30.8093 144.361 
-56.3459 -30.6371 145.452 
-54.8237 -29.8427 144.131 
-58.3429 -31.0043 145.273 
-60.8567 -30.6592 143.449 
-59.8581 -31.2638 145.198 
-121.211 -46.6287 154.481 
-54.3626 -30.6006 145.812 
-52.9107 -30.1321 145.219 
-57.3378 -30.9614 145.205 
-59.8735 -30.7377 143.486 
-49.8688 -29.6548 144.991 
-50.8913 -29.8047 144.646 
-61.3173 -30.9253 142.812 
-58.3319 -30.6989 143.505 
-59.357 -31.1662 143.926 
-57.3403 -30.6387 143.446 
-58.8411 -31.5812 144.871 
-54.8418 -31.1056 145.404 
-60.3215 -31.0091 142.859 
-52.2915 -30.5858 145.046 
-56.3418 -30.6217 143.427 
-57.8403 -31.5685 144.862 
-120.741 -47.1024 153.967 
-59.8147 -32.022 144.77 
-55.3432 -30.5991 143.4 
-59.3449 -31.1396 142.933 
-53.3682 -30.4006 143.703 
-56.8403 -31.567 144.846 
-54.3426 -30.6103 143.413 
-51.4323 -30.6625 144.679 
-55.3466 -31.6358 144.948 
-53.8482 -31.5891 145.348 
-58.3428 -32.1177 144.421 
-52.8515 -31.6101 145.379 
-49.9261 -30.7361 144.558 
-120.397 -47.122 152.392 
-52.3688 -30.7894 143.577 
-57.3434 -32.1182 144.423 
-120.556 -47.6461 153.311 
-57.3472 -31.5049 142.794 
-54.8448 -31.0916 142.892 
-60.3838 -31.8607 142.087 
-58.3432 -31.6521 142.45 
-56.3494 -31.4919 142.761 
-55.8478 -32.1693 144.493 
-53.8422 -31.1468 142.949 
-59.3454 -31.8372 142.131 
-51.3573 -31.6188 144.874 
-57.3332 -32.0851 143.394 
-52.8462 -31.1597 142.962 
-53.3739 -32.2453 145.106 
-54.3698 -32.246 144.602 
-52.2813 -32.1344 145.188 
-120.362 -47.1218 150.911 
-51.8013 -31.4969 143.367 
-120.058 -47.6397 151.56 
-120.26 -48.1029 152.46 
-56.3569 -32.7331 144.074 
-50.7359 -32.0514 144.665 
-48.9191 -31.698 144.49 
-120.73 -48.6044 152.988 
-59.8458 -32.527 141.773 
-53.344 -31.6343 142.438 
-57.3469 -32.1871 141.99 
-57.3202 -33.0088 143.803 
-55.3506 -32.0106 142.289 
-54.8614 -32.7535 144.12 
-53.4268 -32.1733 143.314 
-52.3512 -31.6782 142.483 
-54.3636 -31.9542 142.22 
-50.8467 -31.6271 142.93 
-56.3528 -32.2425 142.042 
-51.3362 -32.6112 144.941 
-49.8567 -32.1199 144.369 
-52.8901 -32.7993 144.641 
-49.9087 -31.7906 143.534 
-53.8026 -32.9465 144.213 
-58.8446 -32.6579 141.46 
-57.849 -32.7281 141.575 
-119.998 -48.6527 151.848 
-55.3668 -33.2943 143.668 
-56.8505 -32.6602 141.454 
-52.8471 -32.155 141.962 
-52.8631 -32.636 142.875 
-54.8522 -32.5341 141.815 
-51.8626 -33.2389 144.621 
-56.3301 -33.5494 143.34 
-53.8599 -32.4849 141.745 
-54.2975 -33.4334 143.691 
-55.8766 -32.7837 141.563 
-48.9089 -32.6652 144.142 
-50.3701 -32.2116 142.511 
-49.4238 -32.2886 143.047 
-51.3823 -32.3127 142.116 
-120.166 -49.59 152.514 
-53.3235 -33.5352 143.817 
-50.8727 -33.6038 144.745 
-57.3464 -33.1439 140.946 
-48.3961 -32.7075 143.466 
-52.3669 -33.7022 144.018 
-56.3273 -33.0683 140.887 
-49.8191 -33.6386 144.663 
-54.3492 -33.0776 141.369 
-47.8008 -33.0313 143.878 
-51.8719 -32.8202 141.626 
-51.4379 -33.8799 144.154 
-46.9037 -33.2303 144.464 
-55.3857 -33.2856 141.054 
-53.3502 -33.0503 141.334 
-48.8388 -33.6157 144.444 
-55.35 -34.1648 142.985 
-48.9296 -32.8189 142.575 
-49.8971 -32.792 142.072 
-50.7931 -32.918 141.737 
-54.3764 -34.2509 143.09 
-53.4001 -34.3321 143.197 
-50.3675 -34.24 144.177 
-47.9282 -33.272 142.988 
-54.7231 -33.8441 141.433 
-52.3566 -33.3569 141.14 
-53.8444 -33.5953 140.895 
-52.3186 -34.4666 143.22 
-51.3196 -33.4184 141.231 
-54.8699 -33.7832 140.556 
-46.8491 -33.6257 143.421 
-54.8715 -34.7638 142.616 
-48.2557 -33.4313 142.299 
-48.2887 -34.0313 143.533 
-51.3251 -34.5179 143.291 
-50.3017 -33.4332 141.249 
-49.3416 -34.6571 144.211 
-53.9033 -34.8529 142.718 
-119.516 -49.8247 149.358 
-47.1778 -33.7521 142.729 
-50.3657 -34.701 143.532 
-55.8401 -34.1038 139.91 
-52.8645 -33.9127 140.684 
-49.3396 -33.6025 141.408 
-119.149 -50.9563 151.485 
-51.8596 -33.9093 140.696 
-52.8165 -35.0077 142.779 
-47.3243 -34.6148 144.008 
-45.8327 -34.0853 143.402 
-44.8579 -34.1721 143.937 
-48.4259 -33.8263 141.589 
-50.8356 -33.9302 140.719 
-51.8365 -35.0655 142.848 
-54.3486 -34.3226 140.123 
-48.3638 -35.0817 144.242 
-119.043 -50.7746 150.328 
-54.8096 -35.4517 142.218 
-49.7984 -33.9381 140.769 
-50.8454 -35.1206 142.924 
-53.3498 -34.4555 140.241 
-47.3454 -34.1176 141.918 
-52.7248 -34.9004 141.447 
-53.4195 -35.3537 142.183 
-54.742 -34.3634 139.321 
-46.4025 -34.2653 142.508 
-52.3606 -34.4589 140.247 
-49.8787 -35.2779 143.123 
-48.9634 -35.3586 143.627 
-48.865 -34.1722 140.96 
-45.3087 -34.4863 142.855 
-52.3303 -35.5674 142.362 
-51.3491 -34.4703 140.26 
-118.764 -51.5263 150.939 
-55.3609 -34.6801 138.96 
-47.7516 -34.3992 141.264 
-47.8393 -35.6462 144.016 
-50.3378 -34.4445 140.24 
-51.3489 -35.6576 142.479 
-54.3221 -36.0246 141.805 
-44.3708 -34.7369 142.962 
-49.3107 -34.4981 140.321 
-50.3569 -35.7057 142.542 
-118.381 -52.1416 151.393 
-118.81 -51.5699 149.92 
-46.8724 -34.6838 141.452 
-45.901 -34.7702 142.009 
-52.8046 -35.9992 141.805 
-51.8464 -34.9677 139.78 
-48.3773 -34.6971 140.47 
-53.3562 -35.2068 139.502 
-43.332 -34.8345 142.796 
-54.3664 -35.1802 138.964 
-46.388 -35.6261 143.268 
-44.813 -34.9382 142.331 
-49.2747 -35.9513 142.775 
-50.8416 -35.0212 139.821 
-51.8658 -36.2122 142.028 
-47.2816 -34.9583 140.808 
-118.868 -51.6406 148.91 
-118.503 -52.2449 150.385 
-49.8385 -35.0536 139.851 
-50.8593 -36.2505 142.13 
-48.4119 -36.2473 143.042 
-48.8259 -35.0519 139.864 
-52.3451 -35.4533 139.284 
-49.8645 -36.2784 142.148 
-118.282 -52.0374 149.425 
-46.3772 -35.2002 140.969 
-45.3818 -35.2522 141.497 
-119.626 -51.9787 148.602 
-45.766 -36.0544 143.095 
-43.8492 -35.2101 141.959 
-47.2956 -36.5046 143.341 
-51.317 -35.4626 139.307 
-52.3745 -36.7123 141.506 
-47.8851 -35.2437 140.023 
-51.3245 -36.0856 140.423 
-42.8483 -35.2613 141.96 
-46.3338 -36.6899 143.623 
-50.3428 -35.6135 139.417 
-117.925 -52.702 149.908 
-46.7943 -35.4814 140.323 
-50.368 -36.8093 141.713 
-49.3434 -35.6235 139.428 
-48.8722 -36.725 142.046 
-52.8434 -36.0779 138.884 
-47.9229 -36.8214 142.594 
-40.8735 -35.0058 141.352 
-44.8812 -36.5812 143.215 
-51.8194 -35.8892 138.736 
-43.3524 -35.505 141.359 
-51.3271 -37.0228 141.306 
-48.3529 -35.6721 139.48 
-44.8601 -35.7048 140.969 
-42.3668 -35.4307 141.333 
-45.8697 -35.6989 140.472 
-43.8684 -36.5704 143.152 
-118.847 -52.6249 148.432 
-47.3754 -35.7458 139.538 
-39.775 -34.8216 140.574 
-49.3607 -37.2311 141.571 
-43.8609 -35.8787 140.78 
-52.3006 -37.45 140.75 
-46.3031 -35.9958 139.836 
-50.8914 -36.282 138.522 
-46.3466 -37.5856 143.338 
-52.3376 -36.4831 138.291 
-48.844 -36.2288 139.056 
-47.4395 -37.3 142.048 
-50.3336 -37.5378 141.305 
-48.2686 -37.34 141.707 
-45.3654 -37.5847 143.274 
-49.8796 -36.371 138.653 
-41.8281 -35.7003 140.454 
-47.8532 -36.198 139.011 
-40.8563 -35.5445 140.382 
-45.3646 -36.209 139.98 
-119.884 -53.2497 147.664 
-42.8729 -35.9622 140.331 
-44.3717 -37.5829 143.193 
-51.3258 -36.5489 137.868 
-46.8868 -36.2764 139.054 
-44.3457 -36.3229 140.038 
-39.9105 -35.4116 139.765 
-118.803 -53.4962 147.773 
-48.8763 -37.8014 141.154 
-45.7989 -36.4636 139.319 
-41.3838 -35.9175 139.798 
-50.3684 -36.8374 138.105 
-48.352 -36.7665 138.576 
-43.3823 -36.4116 139.795 
-46.7639 -38.0174 141.894 
-47.775 -37.9283 141.272 
-44.8508 -36.6699 139.452 
-47.3655 -36.7373 138.551 
-49.4004 -36.9542 138.194 
-43.8318 -38.1531 143.113 
-50.3582 -38.2274 140.555 
-42.2884 -36.3216 139.568 
-38.3498 -35.444 139.168 
-40.3757 -35.979 139.322 
-46.3987 -36.8342 138.605 
-39.3248 -35.7795 139.098 
-45.9418 -38.281 141.997 
-42.8486 -38.1043 142.857 
-117.852 -54.1369 147.923 
-44.8383 -38.6242 142.986 
-45.3052 -36.9634 138.828 
-46.921 -38.3107 141.11 
-48.2652 -38.3753 140.694 
-49.8584 -37.3223 137.607 
-43.8457 -36.8999 139.121 
-47.868 -37.2835 138.083 
-42.8054 -36.8091 139.072 
-41.8308 -36.6528 138.949 
-48.8154 -37.4664 137.779 
-40.8743 -36.4784 138.804 
-39.8006 -36.3077 138.623 
-38.8462 -36.1947 138.552 
-45.3537 -39.1827 142.605 
-49.4157 -38.8606 140.183 
-45.8971 -37.3492 138.128 
-43.8446 -39.1028 142.869 
-44.3617 -37.2839 138.533 
-47.3842 -38.7364 140.543 
-46.8453 -37.6425 137.951 
-43.3282 -37.2956 138.562 
-42.8483 -39.1014 142.772 
-118.368 -54.8825 147.17 
-42.3218 -37.2033 138.494 
-46.2357 -38.9512 140.8 
-49.3156 -37.9802 137.252 
-41.3634 -37.0414 138.349 
-40.3922 -36.8916 138.205 
-48.2998 -37.9483 137.277 
-48.3537 -39.155 139.961 
-44.8467 -37.6418 137.94 
-45.205 -39.4389 141.826 
-44.3446 -39.6739 142.594 
-45.538 -39.3376 141.06 
-39.3119 -36.9132 138.141 
-43.8501 -37.7505 138.026 
-47.3503 -38.1658 137.469 
-46.869 -39.191 139.985 
-42.8306 -37.7039 137.999 
-38.312 -37.0269 138.217 
-46.348 -38.1985 137.507 
-41.8443 -37.5952 137.899 
-48.9116 -38.3014 136.571 
-45.8897 -39.3155 140.081 
-40.8766 -37.4748 137.775 
-45.3423 -38.1739 137.489 
-37.4374 -37.2149 138.578 
-118.851 -56.5186 148.435 
-43.3698 -40.1641 142.573 
-117.863 -56.3952 148.429 
-47.8533 -39.6469 139.448 
-39.836 -37.435 137.681 
-47.8288 -38.5277 136.844 
-44.3493 -38.1798 137.482 
-44.7565 -39.9958 141.354 
-43.3401 -38.2002 137.497 
-45.0556 -39.871 140.518 
-38.823 -37.5585 137.824 
-46.8528 -38.6897 136.985 
-46.3943 -39.7453 139.517 
-42.3344 -38.158 137.465 
-42.3119 -40.5507 142.824 
-37.9479 -37.7401 138.108 
-45.8505 -38.7414 137.046 
-41.355 -38.0604 137.358 
-43.8248 -40.5788 141.858 
-41.3399 -40.6088 142.913 
-44.8378 -38.7498 137.133 
-40.3476 -37.9963 137.265 
-42.9285 -40.7414 142.07 
-43.8477 -38.7357 137.04 
-39.3282 -38.0515 137.325 
-44.3378 -40.6043 140.912 
-45.3707 -40.2025 139.493 
-42.8329 -38.7105 137.027 
-37.3566 -38.6215 138.918 
-38.4672 -38.2614 137.636 
-47.8934 -39.2777 136.029 
-41.8342 -38.6525 136.967 
-41.8075 -41.0217 142.272 
-44.8228 -40.5756 139.893 
-43.4593 -40.8886 141.145 
-46.8025 -39.3593 136.23 
-40.8472 -38.5725 136.862 
-45.3536 -39.2966 136.624 
-39.8399 -38.5934 136.888 
-48.2939 -39.4667 135.321 
-37.5677 -38.8237 138.177 
-44.3714 -39.4127 136.63 
-43.3308 -39.2734 136.616 
-45.8086 -40.5423 138.395 
-38.8881 -38.7066 137.071 
-43.8897 -41.1914 140.465 
-42.3076 -41.4716 141.753 
-46.8508 -40.6185 137.91 
-42.3272 -39.2181 136.56 
-117.401 -57.0369 145.756 
-44.1734 -40.8725 139.306 
-41.3309 -39.1754 136.515 
-41.3409 -41.5626 141.848 
-40.3428 -39.1515 136.479 
-37.8821 -39.1424 137.438 
-44.8057 -39.9518 136.276 
-40.3754 -41.5047 141.383 
-39.3846 -39.2286 136.611 
-42.3698 -41.7415 140.982 
-36.9702 -39.7137 138.489 
-46.2004 -40.9811 137.495 
-44.8691 -41.1695 138.45 
-43.8624 -40.0367 136.281 
-42.8161 -39.821 136.199 
-41.3785 -41.783 140.989 
-45.8867 -40.2171 135.503 
-41.8223 -39.7603 136.132 
-117.925 -58.0602 145.764 
-38.8613 -41.5171 140.849 
-37.8916 -41.3782 140.729 
-39.8727 -39.7479 136.14 
-37.5477 -39.8438 137.222 
-42.3988 -42.0187 140.129 
-38.4246 -39.7507 136.623 
-39.8639 -41.9457 140.846 
-37.3481 -41.1024 139.903 
-44.6849 -41.4407 137.393 
-40.8439 -40.0969 135.888 
-44.8811 -40.7439 135.532 
-42.8553 -40.5727 135.827 
-43.8276 -40.7821 135.651 
-41.3606 -42.2803 139.967 
-38.3901 -41.873 140.245 
-41.8597 -40.5044 135.694 
-44.1646 -41.8618 137.808 
-36.5043 -40.779 138.457 
-38.8679 -40.1927 136.035 
-118.395 -59.0934 145.848 
-40.363 -42.2719 139.979 
-43.3939 -42.1887 138.467 
-42.4077 -42.3246 139.002 
-39.3211 -42.2099 139.984 
-36.8676 -40.6361 137.428 
-37.3954 -41.8801 139.705 
-37.8273 -40.5867 136.383 
-40.3405 -40.7093 135.586 
-44.7452 -41.3138 134.732 
-43.8836 -41.2899 135.031 
-39.3505 -40.6989 135.568 
-40.8523 -41.64 136.892 
-37.144 -40.9141 136.729 
-39.8447 -42.6637 139.442 
-42.803 -42.5349 137.858 
-42.8153 -41.4474 135.261 
-38.8448 -42.5599 139.378 
-40.8575 -42.7748 138.979 
-41.8941 -42.7921 138.503 
-37.8773 -42.4377 139.257 
-41.86 -41.5196 135.21 
-36.2192 -41.4845 137.341 
-39.8565 -41.2874 135.21 
-116.921 -59.6118 144.747 
-40.859 -41.4733 135.161 
-38.3667 -41.1885 135.522 
-37.4729 -41.2917 136.09 
-43.392 -41.7836 134.533 
-39.3456 -42.9691 138.828 
-36.8377 -42.5914 138.896 
-36.8215 -41.5874 136.396 
-38.3512 -42.9242 138.782 
-42.8845 -43.2831 137.534 
-35.4572 -42.2273 137.952 
-41.8729 -43.215 137.47 
-40.8777 -43.2636 137.991 
-44.3359 -42.0949 133.899 
-38.8594 -41.6971 135.042 
-35.8645 -42.1351 136.928 
-42.4114 -42.299 134.561 
-40.3518 -42.0316 134.762 
-39.8458 -43.4305 138.09 
-41.3574 -42.3001 134.677 
-38.85 -43.3483 138.066 
-37.7454 -41.9141 135.196 
-42.2931 -43.4814 136.844 
-37.3684 -43.3532 138.107 
-42.7768 -42.4747 133.849 
-39.3598 -42.2618 134.644 
-36.1591 -42.402 136.257 
-41.3583 -43.664 136.941 
-36.9412 -42.2689 135.565 
-40.3632 -43.7851 137.518 
-36.269 -43.434 138.264 
-41.7579 -42.85 134.233 
-38.2963 -42.4365 134.675 
-38.3607 -43.757 137.535 
-40.7827 -43.5248 135.941 
-39.3583 -43.8768 137.271 
-42.9545 -42.8115 133.006 
-36.8699 -43.8311 137.579 
-42.2808 -43.0102 133.37 
-39.8561 -43.0257 134.249 
-35.7774 -43.0349 135.857 
-40.896 -44.3422 136.55 
-35.7855 -43.9661 137.804 
-40.8664 -43.2237 134.011 
-38.8369 -43.0044 134.237 
-39.8794 -44.3738 136.556 
-37.8522 -44.2051 136.988 
-35.264 -43.5155 136.355 
-38.8148 -44.3619 136.723 
-36.418 -43.2093 134.995 
-37.3555 -43.1429 134.45 
-41.354 -43.6433 133.434 
-32.8478 -43.6447 136.945 
-34.5319 -43.8608 136.581 
-40.3547 -44.6381 135.925 
-36.81 -44.4731 136.815 
-35.4022 -43.6949 135.479 
-40.3799 -43.7697 133.553 
-39.3727 -44.8057 136.073 
-37.8478 -43.6325 133.942 
-39.3621 -43.8234 133.733 
-35.8494 -44.6271 136.927 
-41.9185 -43.7922 132.519 
-34.778 -44.0052 135.853 
-38.3875 -44.8985 136.092 
-35.9982 -43.8456 134.634 
-36.9037 -43.7754 134.098 
-33.3703 -44.2384 136.511 
-37.3606 -44.8469 136.094 
-40.8539 -44.1438 132.936 
-36.308 -44.9732 136.297 
-38.3447 -44.1663 133.512 
-38.8483 -45.1558 135.445 
-33.8179 -44.5401 135.87 
-37.3737 -44.227 133.564 
-35.212 -44.398 134.765 
-37.8534 -45.2516 135.526 
-32.8564 -44.7131 136 
-39.8662 -44.6737 132.96 
-36.8643 -45.3003 135.576 
-34.4449 -44.7875 135.03 
-38.8797 -44.7602 133.074 
-35.7944 -45.422 135.74 
-38.3326 -45.5153 134.851 
-40.9323 -44.822 132.024 
-35.4661 -44.8323 134.124 
-36.4062 -44.7662 133.578 
-33.631 -45.9899 137.334 
-31.3903 -44.8867 135.691 
-37.3644 -45.7978 135.064 
-32.3533 -45.23 135.516 
-37.8451 -45.1333 132.948 
-39.4059 -45.2822 132.533 
-33.4059 -45.3173 135.048 
-36.87 -45.2045 133.03 
-35.2804 -45.8883 135.203 
-37.8463 -46.1351 134.432 
-36.3318 -46.0621 134.877 
-29.8357 -45.1747 135.463 
-39.8098 -45.5285 131.873 
-30.8996 -45.3825 135.19 
-33.852 -45.6364 134.432 
-34.829 -45.5859 133.894 
-33.7604 -46.5559 136.381 
-38.3719 -45.7054 132.53 
-37.3575 -45.734 132.593 
-32.8112 -45.8641 134.721 
-36.8042 -46.4396 134.286 
-35.6894 -45.8163 133.147 
-33.2288 -47.0616 136.883 
-31.8577 -45.9316 134.757 
-39.2607 -45.9564 131.305 
-38.8816 -46.1924 131.99 
-30.298 -45.806 134.587 
-33.3662 -46.18 133.967 
-29.3196 -45.7151 134.499 
-37.9012 -46.3042 132.163 
-34.9457 -46.3109 133.114 
-32.4157 -46.3775 134.126 
-36.8296 -46.4914 132.243 
-31.361 -46.3804 134.197 
-33.8498 -46.6322 133.432 
-35.8338 -46.5581 132.34 
-38.4067 -46.7581 131.546 
-32.8858 -46.7515 133.531 
-30.363 -46.5449 133.848 
-29.4403 -46.363 133.658 
-33.0306 -47.8081 135.407 
-37.3137 -47.0068 131.815 
-31.8372 -46.8766 133.691 
-33.3601 -47.167 132.968 
-34.3712 -47.1713 132.474 
-35.356 -47.1572 131.969 
-37.7537 -47.3605 131.208 
-36.3914 -47.2924 131.58 
-30.8426 -47.1121 133.415 
-32.3956 -47.2815 133.061 
-29.9021 -46.9708 133.264 
-28.809 -46.7861 133.077 
-36.8976 -47.7519 131.006 
-32.8699 -47.693 132.487 
-31.3434 -47.6315 132.934 
-34.8832 -47.7466 131.576 
-33.7499 -47.8476 132.207 
-30.3491 -47.5901 132.891 
-35.7968 -47.9185 131.183 
-29.4066 -47.4642 132.733 
-37.2517 -47.9071 130.313 
-28.3049 -47.2898 132.583 
-31.8388 -48.0884 132.393 
-33.8682 -48.2042 131.514 
-36.4184 -48.2788 130.528 
-30.8412 -48.1337 132.437 
-29.8516 -48.0789 132.378 
-32.7745 -48.4061 131.72 
-28.9186 -47.9351 132.194 
-35.2963 -48.485 130.79 
-34.3518 -48.6464 130.954 
-31.3434 -48.6232 131.927 
-30.3408 -48.6371 131.941 
-35.7636 -48.9003 130.223 
-33.2647 -48.8971 131.191 
-29.3552 -48.5681 131.863 
-32.3088 -49.0008 131.306 
-30.8444 -49.1668 131.473 
-34.3015 -49.473 130.255 
-33.3409 -49.6062 130.409 
-31.3482 -49.6454 130.95 
-32.3846 -49.7475 130.56 
-34.9396 -49.853 129.658 
-30.3429 -49.6849 130.994 
-32.8684 -50.2063 130.009 
-33.9085 -50.3086 129.612 
-30.8493 -50.1644 130.471 
-31.7861 -50.3761 130.161 
-29.8376 -50.2068 130.519 
-30.348 -50.7164 130.033 
-33.2927 -50.9696 129.272 
-29.3295 -50.7214 130.045 
-31.311 -50.9437 129.718 
-32.3438 -51.1153 129.419 
-29.8417 -51.249 129.574 
-28.8276 -51.2487 129.582 
-32.9418 -51.8088 128.59 
-31.3732 -51.7321 129.053 
-30.3592 -51.7785 129.111 
-29.3313 -51.7928 129.137 
-28.3237 -51.7847 129.124 
-31.8832 -52.2149 128.524 
-30.8929 -52.3043 128.625 
-29.8351 -52.4273 128.683 
-32.4106 -52.7506 128.051 
-28.8747 -52.4127 128.644 
-27.8107 -52.3048 128.665 
-31.405 -52.7624 128.069 
-30.3151 -52.9578 128.236 
-29.3509 -52.9936 128.258 
-31.8471 -53.1218 127.424 
-28.3671 -52.9511 128.185 
-27.3513 -52.9214 128.179 
-30.7563 -53.4082 127.71 
-28.8485 -53.5528 127.831 
-29.8795 -53.7814 127.604 
-27.8593 -53.5064 127.76 
-31.2428 -53.8966 127.156 
-26.85 -53.4743 127.736 
-25.8833 -53.481 127.677 
-30.3381 -54.1029 126.909 
-29.3873 -54.3448 127.166 
-31.4325 -54.2704 126.011 
-26.3448 -54.0296 127.305 
-30.7139 -54.3905 126.275 
-28.3438 -54.4535 127.188 
-25.3594 -54.0364 127.283 
-27.3704 -54.4299 127.123 
-24.3538 -53.9745 127.163 
-29.9147 -54.7606 126.529 
-28.8252 -54.986 126.754 
-30.2966 -55.0228 125.853 
-27.8475 -55.0245 126.789 
-26.8744 -54.9715 126.684 
-29.424 -55.3049 126.064 
-25.844 -54.9394 126.667 
-24.8589 -54.9904 126.687 
-28.331 -55.5627 126.362 
-23.8391 -54.9868 126.647 
-29.8467 -55.6223 125.424 
-27.3453 -55.5873 126.378 
-26.3582 -55.5488 126.306 
-28.9796 -55.8702 125.6 
-25.3375 -55.5242 126.275 
-24.3422 -55.5901 126.378 
-27.8487 -56.1463 125.954 
-23.3495 -55.6296 126.442 
-26.8378 -56.1618 125.994 
-29.4119 -56.2664 125.05 
-25.8403 -56.1346 125.957 
-24.8443 -56.1252 125.935 
-28.2999 -56.5104 125.334 
-23.8499 -56.1746 126.021 
-27.3673 -56.7299 125.556 
-29.9134 -56.7679 124.564 
-26.3435 -56.7508 125.641 
-28.9896 -56.8731 124.659 
-25.3445 -56.7273 125.618 
-24.362 -56.7324 125.574 
-27.9706 -57.3633 124.646 
-27.3302 -57.5602 125.338 
-26.3175 -57.4709 125.2 
-23.3529 -57.1493 125.466 
-25.3523 -57.4939 125.21 
-29.3687 -57.696 124.002 
-28.462 -57.8305 124.143 
-24.346 -57.6752 125.016 
-27.315 -58.0552 124.354 
-27.2757 -58.6375 125.545 
-22.9023 -57.7804 125.139 
-28.8723 -58.1797 123.489 
-26.3965 -58.2635 124.609 
-25.3595 -58.3194 124.746 
-27.9546 -58.291 123.562 
-23.3944 -58.2792 124.641 
-24.3525 -58.4615 124.63 
-26.9643 -58.8184 123.601 
-25.3363 -59.0466 124.306 
-27.3992 -59.1975 122.986 
-26.0037 -59.4148 123.693 
-23.334 -59.2134 124.116 
-24.3665 -59.4727 124.153 
-22.4157 -59.2915 124.141 
-26.4054 -59.74 123.039 
-23.8555 -60.046 123.786 
-24.8693 -60.2337 123.586 
-26.8646 -60.1709 122.478 
-22.3011 -59.9633 123.683 
-25.9333 -60.3473 122.665 
-22.8519 -60.5812 123.346 
-26.3978 -60.7925 122.115 
-21.8367 -60.5907 123.38 
-23.8316 -61.0149 123.258 
-25.2748 -60.9923 122.312 
-24.3352 -61.6187 123.452 
-24.4917 -61.3932 122.637 
-25.9925 -61.3643 121.671 
-21.3973 -61.2382 123.098 
-22.347 -61.5799 122.848 
-24.8658 -61.6553 121.95 
-23.3997 -61.8354 122.719 
-20.427 -61.7533 123.126 
-21.8396 -62.1785 122.548 
-24.43 -62.3007 121.585 
-25.4138 -62.2745 121.113 
-20.8911 -62.217 122.581 
-22.9037 -62.7873 122.13 
-19.8267 -62.5899 122.89 
-23.504 -62.8862 121.642 
-23.7953 -63.654 123.09 
-19.1303 -62.8857 123.208 
-21.8556 -62.9674 122.131 
-18.5144 -63.2769 123.524 
-23.8678 -63.1505 120.944 
-24.873 -63.1722 120.476 
-20.8562 -63.1762 122.021 
-19.4593 -63.2703 122.598 
-23.2928 -64.1467 122.577 
-22.8258 -63.5809 121.386 
-21.3519 -63.7768 121.692 
-18.1473 -63.9056 123.251 
-19.8846 -63.6838 122.008 
-23.4589 -63.7907 120.556 
-17.4723 -64.2347 123.978 
-24.416 -63.829 120.186 
-18.8026 -64.0574 122.359 
-20.3548 -64.1716 121.522 
-21.9477 -64.3702 121.198 
-22.6363 -64.3136 120.708 
-17.8105 -64.5779 122.89 
-19.2391 -64.4477 121.704 
-23.7462 -64.4634 119.792 
-17.2477 -65.027 123.362 
-20.8649 -64.7562 121.149 
-18.412 -64.7107 122.021 
-22.9231 -64.7355 120.012 
-22.2211 -64.954 120.306 
-19.7695 -64.9406 121.137 
-17.4815 -65.2487 122.508 
-18.8316 -65.0937 121.393 
-23.3149 -65.0624 119.374 
-21.4525 -65.2945 120.594 
-17.7608 -65.5142 121.825 
-20.3245 -65.5158 120.747 
-19.3216 -65.5652 120.843 
-21.864 -65.6358 119.932 
-17.1156 -65.9054 122.263 
-18.1957 -65.9008 121.173 
-22.5054 -65.7864 119.037 
-17.4231 -66.2079 121.513 
-20.4435 -66.3183 120.169 
-18.8896 -66.2227 120.59 
-21.1581 -66.3808 119.753 
-16.8483 -66.616 121.918 
-17.8201 -66.5785 120.875 
-21.7237 -66.4771 118.834 
-22.7736 -66.4957 118.31 
-19.3926 -66.7616 120.153 
-20.5758 -67.3074 119.246 
-17.7433 -67.4637 120.217 
-21.479 -67.2905 118.006 
-19.8485 -67.6218 119.426 
-16.9953 -67.7643 120.571 
-18.9089 -67.7647 119.639 
-20.853 -67.6235 118.42 
-16.3984 -68.1553 120.951 
-20.2278 -67.974 118.837 
-15.9001 -68.6512 121.442 
-19.4474 -68.2737 119.079 
-17.9045 -68.2439 119.619 
-16.8401 -68.608 119.911 
-19.8356 -68.6021 118.409 
-18.4125 -68.7669 119.119 
-16.196 -68.9766 120.301 
-20.8052 -68.5545 117.381 
-20.1458 -68.8248 117.723 
-17.2901 -69.0161 119.301 
-15.5258 -69.7066 120.974 
-19.1172 -69.3293 118.238 
-15.8854 -69.6505 119.95 
-20.4592 -69.3334 117.095 
-18.353 -69.6357 118.441 
-19.7262 -69.4612 117.323 
-16.4644 -69.7947 119.125 
-17.4081 -69.7872 118.641 
-18.7631 -69.9887 117.818 
-17.9201 -70.2649 118.077 
-19.2852 -70.0363 116.864 
-15.7539 -70.529 119.335 
-20.3337 -70.0989 116.403 
-16.7985 -70.5392 118.326 
-18.3691 -70.6473 117.442 
-16.0521 -70.8354 118.656 
-19.5164 -70.324 116.06 
-18.9145 -70.6952 116.469 
-17.2807 -70.9946 117.776 
-15.5029 -71.2398 119.028 
-15.7872 -71.5542 118.365 
-18.1605 -71.3964 116.756 
-19.3346 -71.1057 115.411 
-15.2737 -72.0565 118.875 
-16.4108 -71.7436 117.592 
-17.4441 -71.7542 117.039 
-18.6895 -71.4516 115.83 
-15.6557 -72.412 117.722 
-15.0058 -72.7327 118.497 
-17.9214 -72.2111 115.974 
-17.288 -72.5334 116.343 
-16.3581 -72.6356 116.943 
-18.4426 -72.2907 115.006 
-15.3423 -73.1116 117.415 
-18.3712 -73.6151 116.897 
-14.8322 -73.6039 117.91 
-16.9069 -73.1935 115.985 
-16.2365 -73.4738 116.273 
-18.0214 -74.1307 116.325 
-15.5021 -73.7937 116.598 
-17.6079 -73.3583 114.536 
-14.957 -74.2101 116.993 
-16.9841 -73.7444 114.998 
-16.3908 -74.1613 115.454 
-14.5247 -74.7355 117.475 
-17.9903 -75.1008 116.319 
-15.732 -74.4975 115.797 
-14.005 -75.2117 117.957 
-15.0563 -74.8932 116.203 
-16.4887 -74.7494 114.51 
-14.2675 -75.5608 116.874 
-17.5777 -75.6473 115.592 
-15.9377 -75.1934 114.986 
-13.7777 -76.0726 117.388 
-15.2795 -75.5618 115.36 
-14.5425 -75.7665 116.08 
-16.3775 -76.6314 116.936 
-17.2497 -76.1252 114.978 
-17.7199 -76.635 115.506 
-15.5637 -75.9131 114.723 
-16.0233 -75.7719 114.011 
-13.9065 -76.6547 116.449 
-14.7116 -76.5247 115.312 
-17.4043 -77.0964 114.868 
-16.3304 -77.603 116.409 
-14.074 -76.9304 115.736 
-15.6395 -76.4741 113.832 
-17.9501 -77.6008 115.336 
-16.0284 -76.2418 112.993 
-15.1203 -76.9661 114.301 
-14.4617 -77.1971 115.001 
-16.8093 -78.0989 115.415 
-13.5612 -77.7523 115.569 
-17.1643 -78.1199 114.549 
-16.0575 -78.4861 115.824 
-15.4401 -77.1786 112.954 
-14.6063 -77.9449 114.267 
-13.8328 -78.1037 114.908 
-16.1735 -78.5717 114.897 
-15.006 -77.8884 113.301 
-15.6684 -79.5393 115.811 
-15.2876 -78.0739 112.396 
-13.5031 -78.8816 114.717 
-14.4862 -78.708 113.481 
-15.9562 -79.633 114.942 
-13.9194 -79.1639 113.96 
-13.2974 -79.5803 114.385 
-15.6679 -80.5326 115.289 
-15.852 -80.6136 114.417 
-15.1336 -81.2002 115.554 
-13.4561 -80.2391 113.49 
-15.2845 -80.6073 113.43 
-12.8574 -80.638 113.926 
-15.3216 -81.6039 114.905 
-14.6133 -81.8332 115.69 
-14.8927 -80.6148 112.401 
-15.4664 -81.6271 113.912 
-13.0188 -80.8478 113.007 
