ply
format ascii 1.0
comment Author: CloudCompare (TELECOM PARISTECH/EDF R&D)
obj_info Generated by CloudCompare!
element vertex 1368
property float x
property float y
property float z
property float scalar_Original_cloud_index
end_header
-26.8504 -26.0618 161.435 0 
-29.8678 -27.4278 163.493 0 
-28.8956 -26.8515 162.507 0 
-28.8522 -27.4984 163.974 0 
-28.3398 -27.1491 163.395 0 
-29.8558 -27.9386 164.507 0 
-28.3589 -26.5314 161.941 0 
-30.8784 -27.9079 164.001 0 
-30.8788 -27.4641 162.963 0 
-26.8504 -26.0618 161.435 0 
-29.8552 -27.0657 162.427 0 
-26.3198 -25.7365 160.865 0 
-27.8095 -26.2492 161.374 0 
-25.8526 -25.9584 161.501 0 
-25.3615 -25.434 160.498 0 
-26.8438 -26.5673 162.44 0 
-30.3595 -28.3725 165.063 0 
-27.3513 -26.9277 163.014 0 
-24.8421 -25.1154 159.913 0 
-24.3401 -24.6248 158.91 0 
-23.3603 -24.4883 158.983 0 
-28.8427 -28.115 164.912 0 
-25.8563 -26.3896 162.228 0 
-26.8583 -25.5621 159.928 0 
-25.4062 -24.8806 158.98 0 
-27.4094 -25.9052 160.456 0 
-27.8476 -27.7098 164.349 0 
-23.8597 -24.8619 159.556 0 
-24.8465 -25.8111 161.281 0 
-27.3682 -27.3648 163.748 0 
-26.3034 -25.2437 159.38 0 
-23.8058 -24.3528 158.344 0 
-22.3469 -24.3954 159.043 0 
-28.9034 -26.4432 160.936 0 
-22.8292 -24.2038 158.379 0 
-22.8903 -24.7785 159.647 0 
-23.8437 -25.2609 160.328 0 
-26.3372 -26.9296 163.038 0 
-29.9192 -26.889 161.441 0 
-28.3285 -26.1525 160.408 0 
-30.7925 -27.2777 161.887 0 
-24.8809 -24.4963 157.939 0 
-29.345 -28.6254 165.406 0 
-24.8835 -26.4075 162.192 0 
-23.8648 -25.8183 161.258 0 
-26.3936 -27.3886 163.687 0 
-23.3529 -24.0644 157.423 0 
-27.8663 -28.3393 165.202 0 
-24.3069 -24.2391 157.4 0 
-26.8722 -27.7829 164.279 0 
-22.8691 -25.2845 160.277 0 
-21.8219 -24.8099 159.63 0 
-26.3398 -25.1182 158.414 0 
-25.7657 -24.8154 157.883 0 
-27.345 -25.6065 158.915 0 
-29.3547 -29.2428 166.296 0 
-28.3612 -28.8218 165.719 0 
-25.3631 -27.2214 163.321 0 
-31.8549 -27.5776 161.414 0 
-28.9475 -26.3865 159.914 0 
-30.8155 -27.1784 160.915 0 
-29.776 -26.7715 160.406 0 
-21.8588 -25.2695 160.28 0 
-23.4188 -23.8724 156.44 0 
-28.3503 -26.0943 159.416 0 
-24.9324 -24.396 156.925 0 
-32.9202 -27.8328 161.376 0 
-23.3767 -26.2821 161.768 0 
-22.8061 -25.8926 161.1 0 
-23.8561 -26.6785 162.355 0 
-24.3237 -24.1712 156.409 0 
-25.7819 -27.8981 164.122 0 
-26.3692 -25.0627 157.415 0 
-26.3928 -28.3077 164.73 0 
-25.7686 -24.7742 156.914 0 
-26.8754 -28.7102 165.308 0 
-24.4036 -27.3471 163.2 0 
-27.9633 -25.9057 158.408 0 
-21.3606 -25.7514 160.783 0 
-27.3526 -25.5948 157.913 0 
-24.8958 -27.7773 163.752 0 
-27.3712 -29.1984 165.817 0 
-24.9469 -24.3851 155.907 0 
-30.7703 -27.2463 159.933 0 
-21.8698 -26.2386 161.298 0 
-31.8128 -27.6798 160.426 0 
-29.9529 -26.9263 159.385 0 
-22.3592 -26.6619 161.864 0 
-24.3184 -24.1706 155.416 0 
-29.3261 -26.639 158.919 0 
-28.7125 -26.323 158.44 0 
-27.8645 -29.6905 166.329 0 
-25.2919 -28.4981 164.551 0 
-25.7358 -24.7804 155.937 0 
-26.9452 -25.4544 156.893 0 
-26.3247 -25.1399 156.419 0 
-22.9126 -27.3241 162.697 0 
-32.83 -28.1423 160.419 0 
-25.7679 -28.968 165.111 0 
-26.4307 -29.3297 165.65 0 
-28.3715 -30.2047 166.811 0 
-23.405 -27.7678 163.229 0 
-21.3885 -26.7622 161.754 0 
-26.9195 -29.8115 166.159 0 
-23.894 -28.2226 163.775 0 
-23.8556 -24.0856 154.411 0 
-31.2961 -27.6931 159.435 0 
-30.4875 -27.3698 158.854 0 
-29.2479 -26.7488 157.954 0 
-24.3852 -28.6888 164.313 0 
-29.8636 -27.0792 158.406 0 
-28.482 -26.4191 157.371 0 
-27.8479 -26.1042 156.913 0 
-25.5169 -24.8418 154.871 0 
-24.8615 -29.1424 164.868 0 
-24.8908 -24.5192 154.399 0 
-21.2674 -27.3825 162.221 0 
-32.3088 -28.1783 159.434 0 
-25.3404 -29.6076 165.42 0 
-21.923 -27.7904 162.706 0 
-27.3532 -30.6339 166.881 0 
-26.2303 -25.2541 154.948 0 
-33.2729 -28.7531 159.936 0 
-22.4082 -28.2513 163.234 0 
-25.8431 -30.1118 165.914 0 
-26.8089 -25.6517 155.426 0 
-27.4024 -26.0403 155.892 0 
-22.9091 -28.7432 163.723 0 
-27.4905 -31.3299 167.644 0 
-26.322 -30.5889 166.447 0 
-24.4342 -24.4702 153.386 0 
-29.7333 -27.2599 157.478 0 
-30.374 -27.5665 157.897 0 
-30.9969 -27.8841 158.331 0 
-28.9817 -26.935 156.85 0 
-28.3292 -26.6288 156.421 0 
-23.4078 -29.2152 164.253 0 
-20.7986 -28.0282 162.539 0 
-32.8067 -28.6723 158.938 0 
-25.203 -24.8767 153.468 0 
-25.7726 -25.1986 153.938 0 
-31.7272 -28.3005 158.485 0 
-23.9179 -29.6862 164.757 0 
-24.9979 -30.2879 165.614 0 
-21.2918 -28.539 163.029 0 
-26.6588 -25.8127 154.481 0 
-27.2223 -26.2425 154.964 0 
-21.8102 -29.065 163.505 0 
-27.8346 -26.6201 155.419 0 
-25.6465 -25.3068 152.984 0 
-33.3393 -29.1171 158.418 0 
-22.3143 -29.5806 163.982 0 
-26.3523 -31.6185 166.902 0 
-20.4609 -28.7073 162.717 0 
-24.9179 -25.0137 152.387 0 
-26.1826 -25.759 153.477 0 
-20.9004 -29.1733 163.258 0 
-23.7807 -30.5689 165.038 0 
-30.6971 -28.288 157.01 0 
-22.8505 -30.1192 164.397 0 
-31.35 -28.6031 157.41 0 
-32.0135 -28.9155 157.806 0 
-28.6637 -27.3167 155.522 0 
-29.2908 -27.6688 155.947 0 
-29.9229 -28.0243 156.363 0 
-24.9906 -31.7032 166.175 0 
-21.3797 -30.1432 163.815 0 
-26.1467 -32.4886 167.138 0 
-33.3824 -29.5081 157.346 0 
-25.5078 -32.1974 166.653 0 
-26.856 -26.5999 153.408 0 
-24.8149 -25.1362 150.923 0 
-19.8108 -29.5812 162.979 0 
-32.4427 -29.4878 157.343 0 
-27.4319 -27.0351 153.868 0 
-31.7618 -29.2052 156.973 0 
-21.9203 -30.6691 164.235 0 
-25.3227 -25.6279 151.421 0 
-24.0168 -31.7039 165.618 0 
-20.3201 -30.091 163.492 0 
-29.6552 -28.2919 155.548 0 
-28.0207 -27.4595 154.31 0 
-25.9176 -26.0529 151.889 0 
-30.2733 -28.6776 155.966 0 
-30.9372 -29.0045 156.337 0 
-28.9212 -28.043 154.86 0 
-26.4062 -26.5623 152.39 0 
-33.9207 -29.9569 156.826 0 
-27.1769 -27.2523 152.997 0 
-32.8901 -30.0233 156.874 0 
-25.1084 -25.807 150.483 0 
-32.1935 -29.8339 156.571 0 
-24.5046 -32.6828 166.161 0 
-22.45 -31.6574 164.687 0 
-27.7637 -27.677 153.456 0 
-25.7161 -26.206 150.954 0 
-25.182 -33.0438 166.625 0 
-23.2209 -32.0657 165.148 0 
-28.3517 -28.104 153.909 0 
-30.6483 -29.3228 155.584 0 
-24.9517 -25.5488 149.402 0 
-25.698 -33.5436 167.113 0 
-26.1785 -26.72 151.464 0 
-23.7347 -32.5633 165.588 0 
-29.2373 -28.7023 154.491 0 
-21.234 -31.5489 164.163 0 
-19.8172 -31.0588 163.596 0 
-26.702 -27.21 151.969 0 
-29.8654 -29.0902 154.897 0 
-31.5192 -29.8993 155.742 0 
-33.3665 -30.577 156.391 0 
-21.8148 -32.0989 164.488 0 
-20.3865 -31.6394 163.801 0 
-28.048 -28.337 153.071 0 
-25.4891 -26.5104 149.87 0 
-27.4754 -28.024 152.355 0 
-28.6176 -28.7823 153.547 0 
-22.3904 -32.6247 164.81 0 
-32.4073 -30.5106 155.833 0 
-24.1952 -33.564 166.126 0 
-26.0421 -26.9879 150.349 0 
-29.5439 -29.3505 154.151 0 
-25.1122 -26.2782 148.949 0 
-22.9411 -33.1402 165.238 0 
-30.1962 -29.7577 154.55 0 
-24.7352 -34.0816 166.563 0 
-26.5277 -27.4962 150.851 0 
-30.8709 -30.0803 154.887 0 
-33.8411 -31.1157 155.917 0 
-25.1798 -34.5619 167.117 0 
-23.4955 -33.6553 165.687 0 
-26.9781 -28.0234 151.363 0 
-19.3637 -32.155 163.767 0 
-32.0364 -30.8103 155.156 0 
-32.8563 -31.0873 155.396 0 
-20.3279 -32.6049 163.951 0 
-29.0002 -29.4901 153.303 0 
-25.5511 -26.9911 148.881 0 
-21.3328 -33.1089 164.439 0 
-26.2696 -27.6514 149.94 0 
-29.8972 -30.062 153.871 0 
-22.3454 -33.6123 164.909 0 
-30.5324 -30.4006 154.228 0 
-31.2443 -30.7355 154.525 0 
-27.6116 -28.7546 151.535 0 
-23.9672 -34.6482 166.24 0 
-26.6954 -28.1945 150.47 0 
-22.8937 -34.1249 165.334 0 
-28.1543 -29.2348 152.02 0 
-24.5242 -35.1951 166.725 0 
-34.2591 -31.8431 155.075 0 
-28.7184 -29.699 152.493 0 
-24.8178 -35.5984 167.44 0 
-32.4724 -31.3954 154.729 0 
-29.295 -30.1475 152.948 0 
-19.3798 -33.179 163.776 0 
-25.9076 -27.5786 148.404 0 
-20.4531 -33.6331 164.124 0 
-33.3973 -31.8663 154.72 0 
-21.3021 -34.1086 164.516 0 
-23.3708 -35.1214 165.876 0 
-26.202 -28.1729 148.959 0 
-27.0826 -28.975 150.316 0 
-30.0618 -30.854 153.129 0 
-23.8905 -35.629 166.36 0 
-30.7285 -31.2351 153.538 0 
-21.8994 -34.6221 164.811 0 
-27.5793 -29.4722 150.804 0 
-31.413 -31.5166 153.827 0 
-24.3081 -36.1003 166.945 0 
-34.383 -32.4839 154.31 0 
-22.4649 -35.1404 165.219 0 
-19.8266 -34.1041 163.961 0 
-28.3262 -30.1218 151.424 0 
-33.2244 -32.3445 154.12 0 
-32.3529 -32.0948 153.9 0 
-29.1368 -30.7555 152.067 0 
-25.8209 -28.1184 147.418 0 
-20.4199 -34.6224 164.18 0 
-29.7734 -31.164 152.469 0 
-26.5577 -29.0109 148.85 0 
-30.3794 -31.577 152.879 0 
-26.2289 -28.6514 147.947 0 
-21.2916 -35.1082 164.562 0 
-31.1039 -31.8959 153.204 0 
-27.7947 -30.1409 150.44 0 
-26.9824 -29.536 149.358 0 
-26.0453 -28.0822 146.43 0 
-22.9522 -36.1428 165.778 0 
-33.8939 -32.8684 153.702 0 
-21.8749 -35.6182 164.859 0 
-18.874 -34.6356 163.786 0 
-31.9526 -32.4284 153.246 0 
-23.4513 -36.6436 166.293 0 
-19.8119 -35.103 164.056 0 
-29.4897 -31.502 151.798 0 
-23.9826 -37.1524 166.745 0 
-30.065 -31.9158 152.203 0 
-32.9122 -32.941 153.259 0 
-30.7186 -32.2456 152.557 0 
-20.393 -35.6126 164.253 0 
-26.0018 -29.0656 146.899 0 
-22.3772 -36.6201 165.369 0 
-28.3223 -31.1232 150.426 0 
-27.5093 -30.5327 149.346 0 
-26.2955 -28.6217 145.406 0 
-28.8892 -31.5808 150.886 0 
-22.8731 -37.1227 165.881 0 
-26.3386 -29.6131 147.416 0 
-18.8498 -35.6148 163.869 0 
-23.2868 -37.5883 166.475 0 
-29.7298 -32.1913 151.505 0 
-26.7791 -30.1423 147.94 0 
-33.3742 -33.5171 152.824 0 
-30.3613 -32.5944 151.896 0 
-32.2582 -33.2525 152.559 0 
-31.3994 -33.0268 152.326 0 
-19.812 -36.1124 164.088 0 
-27.2045 -30.6764 148.472 0 
-34.3902 -33.9157 152.726 0 
-20.8407 -36.6118 164.42 0 
-26.2458 -29.6438 146.419 0 
-21.8301 -37.1092 164.932 0 
-28.0158 -31.513 149.322 0 
-22.349 -37.6138 165.407 0 
-29.4625 -32.5291 150.827 0 
-22.7622 -38.0827 165.993 0 
-30.059 -32.947 151.229 0 
-26.6034 -29.5532 144.968 0 
-32.912 -33.914 152.213 0 
-30.6919 -33.2615 151.585 0 
-31.826 -33.6396 151.944 0 
-23.1425 -38.5286 166.593 0 
-34.3442 -34.0833 151.89 0 
-18.3507 -36.5866 164.136 0 
-26.5376 -30.5361 146.87 0 
-20.2715 -37.1218 164.17 0 
-26.9152 -31.0777 147.389 0 
-26.2583 -30.1324 145.408 0 
-19.3398 -37.1117 163.999 0 
-29.0918 -32.762 150.088 0 
-20.8585 -37.6109 164.379 0 
-21.7814 -38.0985 164.992 0 
-27.3651 -31.6013 147.906 0 
-29.688 -33.2214 150.54 0 
-33.3846 -34.4593 151.734 0 
-28.5287 -32.5294 149.314 0 
-34.313 -34.449 151.203 0 
-22.2463 -38.5836 165.514 0 
-32.2664 -34.2531 151.567 0 
-30.3147 -33.6381 150.945 0 
-31.3772 -34.0476 151.349 0 
-22.5862 -39.0042 166.152 0 
-27.8146 -32.125 148.428 0 
-26.6328 -31.2023 146.469 0 
-26.6812 -30.1418 143.872 0 
-27.5784 -30.182 143.069 0 
-21.2083 -38.59 164.587 0 
-26.4351 -31.0821 145.404 0 
-19.8279 -38.1143 164.015 0 
-32.8926 -34.9491 151.208 0 
-29.9742 -34.0115 150.291 0 
-31.805 -34.6784 150.99 0 
-21.6917 -39.0794 165.079 0 
-30.946 -34.4594 150.755 0 
-18.8466 -38.1159 163.985 0 
-27.2471 -32.1485 146.948 0 
-28.9849 -33.531 149.325 0 
-28.2896 -33.1331 148.439 0 
-22.0433 -39.691 165.741 0 
-27.6549 -32.6783 147.494 0 
-34.8106 -35.412 150.662 0 
-22.3957 -40.137 166.376 0 
-27.9881 -30.665 142.519 0 
-33.8452 -35.5448 150.819 0 
-26.8516 -32.108 145.913 0 
-26.5922 -31.1555 143.863 0 
-29.5875 -34.2773 149.634 0 
-17.902 -38.618 164.199 0 
-20.4497 -39.1173 164.215 0 
-32.231 -35.3069 150.641 0 
-30.5423 -34.8518 150.13 0 
-21.1635 -39.5793 164.611 0 
-26.9917 -31.1052 142.959 0 
-26.7231 -32.1538 144.931 0 
-18.8428 -39.1116 163.92 0 
-21.5454 -40.1877 165.219 0 
-28.743 -34.1529 148.478 0 
-31.4468 -35.4198 150.191 0 
-27.9362 -33.5748 147.374 0 
-21.9124 -40.6457 165.858 0 
-34.3426 -36.0973 150.397 0 
-29.263 -34.6541 148.977 0 
-19.8244 -39.6123 163.986 0 
-33.3455 -36.0707 150.365 0 
-27.1352 -32.9886 145.842 0 
-29.8985 -35.0673 149.362 0 
-26.5338 -32.0522 143.903 0 
-32.4166 -35.9249 150.198 0 
-17.9074 -39.6045 164.182 0 
-20.4499 -40.1203 164.236 0 
-27.4842 -33.5656 146.374 0 
-27.4017 -31.6152 141.936 0 
-26.9031 -32.1013 142.919 0 
-21.019 -40.6644 164.701 0 
-26.9853 -33.062 144.891 0 
-21.4495 -41.161 165.325 0 
-18.842 -40.1113 163.904 0 
-22.1069 -41.7722 166.217 0 
-28.2645 -34.6345 147.453 0 
-30.1905 -35.7531 149.086 0 
-31.741 -36.2776 149.613 0 
-27.2318 -33.6467 145.443 0 
-30.8824 -36.0603 149.353 0 
-28.7477 -35.1547 147.978 0 
-19.8202 -40.6107 163.985 0 
-34.3494 -37.0239 149.747 0 
-26.8226 -33.1171 143.917 0 
-29.383 -35.5843 148.38 0 
-33.3894 -36.9744 149.717 0 
-20.4162 -41.1311 164.304 0 
-27.8082 -34.6206 146.427 0 
-21.4676 -42.141 165.842 0 
-20.9002 -41.6303 164.864 0 
-21.7382 -42.5719 166.473 0 
-27.0083 -32.594 141.44 0 
-31.9391 -36.9311 149.186 0 
-28.4969 -35.5572 147.331 0 
-17.8932 -41.1131 164.103 0 
-33.8503 -37.5713 149.346 0 
-29.0301 -35.9869 147.746 0 
-19.8167 -41.6055 163.979 0 
-29.9436 -36.5307 148.296 0 
-32.8942 -37.4819 149.224 0 
-26.8885 -33.6015 142.912 0 
-27.0297 -34.063 143.895 0 
-27.3562 -34.6085 144.912 0 
-27.3144 -32.6094 140.405 0 
-30.9546 -36.9665 148.711 0 
-20.3496 -42.1138 164.406 0 
-18.8412 -41.609 163.793 0 
-28.1791 -35.6707 146.476 0 
-27.5986 -35.1666 145.487 0 
-20.6975 -42.5605 165.012 0 
-20.9289 -43.1457 165.871 0 
-34.3184 -38.2102 149.075 0 
-21.2928 -43.5889 166.443 0 
-26.9835 -33.5718 141.421 0 
-31.3334 -37.6237 148.432 0 
-32.4171 -37.9924 148.71 0 
-30.5111 -37.4223 148.148 0 
-28.5405 -36.5133 146.781 0 
-27.0628 -34.5597 142.903 0 
-19.8038 -42.6032 164.016 0 
-27.3547 -33.1116 139.418 0 
-27.1895 -33.6121 140.365 0 
-20.2399 -43.0845 164.553 0 
-33.386 -38.5162 148.731 0 
-20.2644 -43.5705 165.452 0 
-27.8526 -36.1101 145.412 0 
-27.4271 -35.5964 144.403 0 
-27.2312 -35.1365 143.429 0 
-18.8452 -42.6101 163.771 0 
-17.9648 -42.6084 164.107 0 
-29.1486 -37.2318 147.096 0 
-28.173 -36.6571 145.995 0 
-29.7989 -37.6443 147.465 0 
-30.8524 -38.1009 147.898 0 
-31.9309 -38.5048 148.222 0 
-28.0168 -33.6185 138.506 0 
-32.8586 -39.0866 148.352 0 
-19.3579 -43.6142 163.87 0 
-27.0985 -35.1437 141.427 0 
-27.2388 -35.6281 142.424 0 
-27.3652 -34.1109 138.92 0 
-27.4002 -36.1025 143.409 0 
-34.3324 -39.6273 148.456 0 
-27.5404 -36.5863 144.382 0 
-19.8149 -44.1002 164.453 0 
-18.3316 -43.6081 163.842 0 
-28.9575 -34.143 138.014 0 
-27.0961 -34.634 139.892 0 
-30.394 -38.5658 147.337 0 
-17.3829 -43.6184 164.073 0 
-20.0088 -44.6617 165.323 0 
-28.3518 -37.6075 145.909 0 
-31.4553 -39.013 147.723 0 
-28.9315 -38.0599 146.338 0 
-29.5184 -38.504 146.748 0 
-16.886 -44.1151 164.528 0 
-32.3347 -39.617 147.929 0 
-28.0103 -37.5864 144.868 0 
-28.1544 -34.6463 138.022 0 
-33.7628 -40.2105 148.202 0 
-27.2023 -36.1315 141.42 0 
-27.3672 -36.6087 142.413 0 
-19.6408 -44.9894 164.54 0 
-27.4229 -37.1045 143.406 0 
-30.9814 -39.4968 147.201 0 
-18.8628 -44.6121 163.77 0 
-27.1446 -35.6338 139.903 0 
-27.5483 -35.0956 138.463 0 
-17.8416 -44.6114 163.91 0 
-19.9243 -45.6355 165.339 0 
-27.6718 -37.6252 143.943 0 
-31.8183 -40.1261 147.457 0 
-28.3951 -38.589 145.375 0 
-32.8757 -40.5838 147.815 0 
-28.9875 -39.0364 145.784 0 
-30.2175 -39.7047 146.583 0 
-29.5639 -39.4713 146.19 0 
-19.2716 -45.5914 163.973 0 
-27.2012 -36.1222 138.905 0 
-27.975 -35.642 137.463 0 
-27.2099 -36.6249 139.915 0 
-19.6333 -46.2334 164.747 0 
-27.2838 -37.1168 140.915 0 
-27.4089 -37.6081 141.911 0 
-28.0505 -39.0289 144.749 0 
-18.3345 -45.6281 163.681 0 
-27.4562 -38.1092 142.898 0 
-17.3662 -45.6114 163.976 0 
-32.3457 -41.1097 147.409 0 
-27.702 -38.6145 143.444 0 
-33.3878 -41.5721 147.758 0 
-30.8017 -40.6372 146.468 0 
-28.6664 -39.7059 145.08 0 
-31.4328 -41.0606 146.797 0 
-29.2875 -40.1442 145.47 0 
-19.1447 -46.5417 164.073 0 
-27.5356 -36.6185 137.926 0 
-29.9108 -40.5681 145.836 0 
-19.2953 -47.0851 164.931 0 
-27.2497 -37.1197 138.917 0 
-27.3435 -37.6115 139.915 0 
-27.3465 -38.1114 140.914 0 
-27.4902 -38.6096 141.904 0 
-27.7824 -39.6311 143.95 0 
-27.4679 -39.1165 142.897 0 
-32.8674 -42.0969 147.369 0 
-18.3183 -46.6195 163.598 0 
-27.889 -36.6248 136.932 0 
-17.2977 -46.5694 163.716 0 
-28.3013 -40.1332 144.45 0 
-28.917 -40.5701 144.845 0 
-31.9257 -42.0667 146.792 0 
-29.5176 -41.0095 145.232 0 
-30.4496 -41.5526 145.784 0 
-18.6832 -47.5473 164.005 0 
-27.5415 -40.0663 143.31 0 
-27.333 -38.1116 138.915 0 
-27.2936 -38.6092 139.916 0 
-27.9514 -40.5475 143.82 0 
-27.3762 -37.613 137.416 0 
-31.1741 -42.2082 146.131 0 
-28.5554 -40.994 144.232 0 
-17.8327 -47.6145 163.5 0 
-27.3285 -39.6108 141.416 0 
-33.2675 -43.1929 147.053 0 
-27.3796 -40.1135 142.41 0 
-32.4769 -43.009 146.705 0 
-16.8534 -47.6129 163.544 0 
-30.0342 -42.0083 145.213 0 
-29.1836 -41.6893 144.569 0 
-18.461 -48.4427 164.135 0 
-27.1928 -39.599 140.423 0 
-18.579 -48.9276 164.96 0 
-27.3462 -38.6114 137.914 0 
-30.7601 -42.6688 145.509 0 
-27.3997 -38.1219 136.425 0 
-31.7386 -43.2092 146.053 0 
-27.6419 -41.196 143.066 0 
-28.2716 -41.6473 143.478 0 
-17.803 -48.6066 163.544 0 
-27.2087 -40.6013 141.429 0 
-28.8339 -42.1156 143.923 0 
-16.8417 -48.6123 163.426 0 
-33.3326 -44.1237 146.429 0 
-29.7119 -42.6992 144.554 0 
-27.3048 -39.6079 138.415 0 
-27.7271 -38.5707 135.869 0 
-27.2385 -40.0994 139.418 0 
-30.3585 -43.0994 144.897 0 
-27.1524 -40.5973 140.428 0 
-31.3408 -43.6128 145.417 0 
-18.4173 -49.6369 164.342 0 
-32.3952 -44.0301 145.819 0 
-27.9051 -42.0798 142.859 0 
-27.2989 -39.6083 137.417 0 
-27.3625 -41.6118 141.911 0 
-28.4866 -42.5439 143.286 0 
-17.8026 -49.5986 163.458 0 
-29.3345 -43.1165 143.923 0 
-29.9737 -43.4926 144.256 0 
-16.8431 -49.6126 163.43 0 
-32.8628 -44.5586 145.363 0 
-27.2442 -41.6077 140.926 0 
-30.9531 -43.9856 144.765 0 
-31.9629 -44.4069 145.199 0 
-27.081 -40.584 138.423 0 
-27.3912 -39.6283 135.926 0 
-26.9915 -41.1253 139.408 0 
-27.5597 -42.4962 142.221 0 
-18.1006 -50.5128 164.126 0 
-15.8028 -50.1021 163.852 0 
-33.3444 -45.0222 144.849 0 
-28.9638 -43.5536 143.295 0 
-30.2609 -44.189 144.019 0 
-28.1795 -43.182 142.567 0 
-29.5629 -43.9226 143.621 0 
-18.3983 -51.2557 164.814 0 
-27.084 -40.6321 136.916 0 
-17.3828 -50.6228 163.365 0 
-26.959 -42.1309 139.896 0 
-16.3486 -50.6159 163.471 0 
-31.4206 -44.9147 144.242 0 
-27.041 -42.6491 140.865 0 
-26.9044 -41.6197 138.414 0 
-27.1939 -40.5967 135.901 0 
-27.2188 -43.1376 141.494 0 
-32.4261 -45.3789 144.214 0 
-30.5238 -44.869 143.65 0 
-27.8041 -43.6272 141.95 0 
-15.3974 -51.1163 164.014 0 
-17.7545 -51.5877 164.012 0 
-26.9013 -41.6207 137.414 0 
-28.3851 -44.0985 142.379 0 
-27.3025 -40.6017 134.911 0 
-33.2175 -45.8839 144.123 0 
-28.9662 -44.5199 142.766 0 
-26.8108 -42.6051 138.918 0 
-26.8065 -43.1064 139.922 0 
-26.9179 -43.5847 140.858 0 
-31.8083 -45.7158 143.507 0 
-15.8333 -51.6132 163.395 0 
-29.815 -45.1436 142.957 0 
-30.8928 -45.5084 143.317 0 
-27.4369 -44.0743 141.33 0 
-26.9583 -41.6344 135.913 0 
-17.2505 -52.0875 163.536 0 
-17.7819 -52.5966 164.465 0 
-32.8777 -46.0241 143.351 0 
-26.754 -42.5925 137.92 0 
-28.0106 -44.5463 141.763 0 
-27.0607 -41.5495 134.887 0 
-16.3555 -52.1503 163.167 0 
-28.6774 -45.2098 142.12 0 
-26.6996 -42.5809 136.918 0 
-30.2212 -45.8046 142.627 0 
-29.3724 -45.5791 142.366 0 
-26.5495 -43.6645 138.886 0 
-31.9124 -46.3678 142.722 0 
-17.3635 -53.1162 163.894 0 
-32.8238 -46.5178 142.376 0 
-26.7972 -42.6012 135.915 0 
-26.8641 -44.6026 140.396 0 
-27.4398 -45.0766 140.824 0 
-26.4824 -43.6499 137.897 0 
-33.2439 -46.418 141.353 0 
-30.8837 -46.466 142.282 0 
-28.2651 -45.658 141.511 0 
-29.7835 -46.2329 142.068 0 
-26.6004 -43.1913 136.408 0 
-16.3182 -53.1175 163.042 0 
-26.868 -42.6196 134.917 0 
-28.9134 -46.0426 141.803 0 
-15.3354 -53.0932 163.261 0 
-16.8876 -53.6158 163.348 0 
-27.1844 -42.5115 133.894 0 
-32.37 -46.8541 141.532 0 
-26.3118 -44.6018 138.918 0 
-26.4893 -45.0659 139.786 0 
-31.3698 -46.9148 141.752 0 
-27.0277 -45.5406 140.229 0 
-30.2693 -46.8467 141.685 0 
-26.183 -44.5644 137.938 0 
-29.2135 -43.6424 134.589 0 
-33.2778 -46.9911 140.365 0 
-28.4423 -46.5024 141.237 0 
-26.4302 -43.6455 135.406 0 
-27.6371 -46.2148 140.638 0 
-26.3439 -44.1121 136.415 0 
-31.8615 -47.19 140.96 0 
-16.3076 -54.1177 162.985 0 
-29.3723 -47.0224 141.312 0 
-30.8641 -47.3626 141.208 0 
-16.8999 -54.6047 163.338 0 
-26.986 -43.236 133.447 0 
-26.1068 -45.5976 139.032 0 
-26.0989 -44.7071 136.885 0 
-32.2266 -47.3838 140.296 0 
-26.6685 -46.1898 139.605 0 
-26.4246 -43.6655 133.92 0 
-15.32 -54.6317 163.019 0 
-27.2475 -46.6538 140.015 0 
-31.3732 -47.6789 140.462 0 
-26.0653 -44.7059 135.88 0 
-25.8762 -45.6207 137.908 0 
-27.85 -47.1071 140.406 0 
-28.8833 -47.4813 140.77 0 
-32.8838 -47.6695 139.45 0 
-27.8051 -44.1158 133.492 0 
-26.0847 -44.2445 134.379 0 
-28.8417 -44.6118 133.916 0 
-26.5538 -43.7926 132.971 0 
-29.8857 -47.8657 140.657 0 
-25.8094 -45.6004 136.92 0 
-26.2206 -46.6394 139.025 0 
-32.1555 -47.8978 139.263 0 
-26.8502 -47.1083 139.406 0 
-16.337 -55.6129 162.926 0 
-26.0631 -44.4082 133.395 0 
-25.7678 -45.0752 134.927 0 
-27.432 -47.5596 139.804 0 
-25.7165 -45.5635 135.934 0 
-28.387 -47.956 140.229 0 
-30.3748 -48.3174 140.086 0 
-15.39 -55.5847 162.717 0 
-31.4559 -48.2919 139.53 0 
-25.6954 -46.5901 137.981 0 
-28.2974 -45.1244 133.516 0 
-29.3192 -48.3347 140.141 0 
-32.3647 -48.1668 138.437 0 
-25.6659 -45.0045 133.926 0 
-25.5465 -46.1772 136.384 0 
-31.7095 -48.4241 138.762 0 
-16.9189 -56.6045 163.302 0 
-27.9637 -48.378 139.642 0 
-25.4116 -45.6369 134.397 0 
-25.7878 -45.072 132.906 0 
-28.3904 -45.9092 133.72 0 
-25.4525 -46.1487 135.391 0 
-29.8552 -48.8287 139.602 0 
-30.9759 -48.8185 139.079 0 
-25.9002 -47.5959 138.359 0 
-25.4104 -47.1262 137.389 0 
-28.8267 -48.7852 139.579 0 
-27.2994 -45.6371 133.019 0 
-31.8781 -48.6771 137.955 0 
-26.5417 -48.0349 138.703 0 
-15.3262 -56.6291 162.52 0 
-25.378 -45.6294 133.414 0 
-16.3832 -57.0942 162.834 0 
-14.3385 -56.6701 162.674 0 
-31.2995 -49.0529 138.369 0 
-25.3059 -47.0999 136.42 0 
-27.2828 -48.6762 139.013 0 
-32.2656 -48.9723 137.328 0 
-27.8997 -46.4308 133.209 0 
-25.4042 -45.6506 132.425 0 
-25.445 -48.0419 137.774 0 
-25.0446 -46.6652 134.379 0 
-25.0625 -47.1779 135.373 0 
-26.3356 -46.1164 132.434 0 
-26.1853 -48.6975 138.109 0 
-15.8057 -57.6264 162.553 0 
-28.8486 -49.5445 138.853 0 
-30.7668 -49.5131 137.851 0 
-26.9655 -46.5302 132.65 0 
-29.8647 -49.6888 138.477 0 
-26.8056 -49.1204 138.448 0 
-27.8901 -49.4536 138.741 0 
-14.8516 -57.5933 162.324 0 
-25.1112 -46.5084 132.923 0 
-32.0593 -49.3744 136.528 0 
-24.9434 -48.1407 136.397 0 
-31.3564 -49.6296 136.925 0 
-25.1268 -48.7173 137.186 0 
-24.8469 -47.1129 133.414 0 
-27.3191 -47.2077 132.516 0 
-24.7866 -47.596 134.424 0 
-25.7515 -49.1646 137.532 0 
-28.3522 -50.0334 138.338 0 
-24.8383 -48.1103 135.416 0 
-26.4053 -47.0603 132.247 0 
-27.4074 -49.9354 138.212 0 
-30.3537 -50.1303 137.427 0 
-29.366 -50.2414 138.02 0 
-24.8552 -47.1162 132.414 0 
-27.8055 -47.7411 132.05 0 
-25.2946 -49.6423 136.977 0 
-24.556 -48.1692 133.876 0 
-26.6807 -50.2504 137.654 0 
-25.9575 -50.0325 137.26 0 
-15.3389 -59.1301 161.965 0 
-29.9595 -50.815 137.041 0 
-28.345 -50.7681 137.564 0 
-26.8721 -48.0157 131.773 0 
-14.3473 -59.1272 161.96 0 
-27.3152 -50.702 137.514 0 
-24.506 -48.1577 132.886 0 
-28.2697 -48.292 131.629 0 
-24.596 -49.6275 136.08 0 
-25.9002 -48.0202 131.726 0 
-13.3565 -59.2013 162.105 0 
-28.8674 -51.212 137 0 
-27.393 -48.4531 131.231 0 
-24.3423 -49.6115 134.915 0 
-27.8432 -51.2733 137.063 0 
-26.8251 -51.1651 136.974 0 
-24.9249 -50.5362 136.286 0 
-28.4213 -48.9548 131.206 0 
-25.9688 -50.9711 136.698 0 
-14.8495 -60.1038 161.837 0 
-25.3646 -48.5525 131.328 0 
-24.2717 -49.5922 133.926 0 
-29.3803 -49.4105 131.174 0 
-28.3687 -51.7427 136.522 0 
-24.1703 -50.7176 135.658 0 
-26.3554 -48.9928 130.796 0 
-27.3381 -51.7338 136.529 0 
-26.3346 -51.6274 136.434 0 
-14.3232 -60.6416 161.652 0 
-27.9484 -49.4388 130.669 0 
-25.5082 -51.4265 136.131 0 
-13.3723 -60.493 161.619 0 
-24.1157 -49.5655 132.437 0 
-24.048 -50.6775 134.879 0 
-24.0154 -50.1596 133.392 0 
-28.8842 -49.9125 130.669 0 
-27.8561 -52.1808 135.974 0 
-26.8765 -49.4738 130.25 0 
-25.853 -49.4791 130.287 0 
-26.8297 -52.2272 136.03 0 
-24.7694 -51.6941 135.562 0 
-25.8561 -52.0869 135.882 0 
-23.9457 -51.5024 135.21 0 
-24.842 -49.5869 130.39 0 
-24.1399 -49.748 130.942 0 
-23.949 -50.1449 131.908 0 
-28.3954 -50.4241 130.166 0 
-27.3315 -50.1334 129.947 0 
-23.8179 -51.1042 133.418 0 
-27.3518 -52.6824 135.477 0 
-26.3741 -49.9943 129.765 0 
-25.3617 -49.9204 129.716 0 
-26.3297 -52.6933 135.503 0 
-24.2875 -52.1803 135.037 0 
-25.3785 -52.5468 135.32 0 
-23.7649 -51.0876 132.423 0 
-23.5511 -51.7137 133.889 0 
-24.3598 -50.1839 129.989 0 
-26.8295 -50.6369 129.455 0 
-27.9014 -50.9402 129.666 0 
-26.8518 -53.1925 134.99 0 
-23.726 -51.0668 131.416 0 
-25.8831 -50.5102 129.259 0 
-23.5414 -51.6923 132.892 0 
-23.9557 -50.7018 130.458 0 
-25.8229 -53.1983 135.023 0 
-24.8463 -50.4802 129.25 0 
-23.7971 -52.6712 134.521 0 
-24.8846 -53.0438 134.805 0 
-23.4943 -51.681 131.91 0 
-27.3353 -53.5896 134.395 0 
-26.3136 -51.1592 129.008 0 
-27.4086 -51.4713 129.187 0 
-26.3552 -53.742 134.549 0 
-25.3751 -51.0552 128.804 0 
-23.5077 -51.6838 130.91 0 
-25.3159 -53.7027 134.538 0 
-23.299 -53.1518 133.997 0 
-27.7422 -53.8714 133.722 0 
-24.3393 -51.1842 129.022 0 
-24.3853 -53.5366 134.292 0 
-23.221 -52.555 132.424 0 
-23.7313 -51.5438 129.893 0 
-26.843 -54.1133 133.916 0 
-25.801 -51.6991 128.584 0 
-26.8922 -52.0151 128.733 0 
-23.1764 -52.5274 131.419 0 
-23.0293 -53.1732 132.881 0 
-25.8465 -54.2821 134.101 0 
-24.8134 -54.1935 134.029 0 
-23.8861 -54.0394 133.796 0 
-27.263 -54.4528 133.281 0 
-23.9001 -51.8615 128.742 0 
-23.2105 -52.5471 130.41 0 
-22.9676 -53.1652 131.904 0 
-23.5184 -52.2192 129.451 0 
-24.8532 -52.0048 128.235 0 
-26.3728 -54.7212 133.515 0 
-26.3682 -52.5483 128.306 0 
-22.9182 -53.147 130.917 0 
-25.3353 -54.7948 133.615 0 
-24.3125 -54.6954 133.537 0 
-23.3906 -54.5331 133.282 0 
-25.3321 -52.6397 127.972 0 
-23.8262 -52.5887 128.393 0 
-25.8783 -55.2566 133.044 0 
-23.3359 -53.1059 128.911 0 
-24.8314 -55.3088 133.144 0 
-22.5688 -54.2022 131.413 0 
-23.8033 -55.1963 133.047 0 
-24.3563 -52.9769 127.66 0 
-22.8777 -55.0509 132.811 0 
-22.9476 -53.6678 129.434 0 
-22.5657 -54.2039 130.413 0 
-25.3881 -55.803 132.588 0 
-23.0648 -53.7695 128.503 0 
-24.3474 -55.899 132.672 0 
-23.2991 -55.7062 132.565 0 
-22.3767 -55.5577 132.32 0 
-23.3466 -53.6284 127.441 0 
-22.2656 -55.076 130.412 0 
-22.6443 -54.4892 128.878 0 
-24.9122 -56.3593 132.118 0 
-23.8489 -56.4084 132.181 0 
-22.7877 -56.2175 132.088 0 
-21.8884 -56.0467 131.795 0 
-22.2509 -55.0673 129.407 0 
-22.7864 -54.5606 127.901 0 
-23.2251 -54.4286 127.207 0 
-21.9818 -55.6845 129.926 0 
-22.4112 -55.1576 128.425 0 
-23.342 -56.9341 131.71 0 
-22.2808 -56.7251 131.614 0 
-22.0577 -55.7169 128.934 0 
-22.8343 -55.0961 126.894 0 
-22.3058 -55.5795 127.4 0 
-22.3682 -57.4494 131.205 0 
-23.3515 -57.7154 131.023 0 
-21.7151 -56.5462 128.897 0 
-21.9741 -56.1823 127.922 0 
-22.4189 -55.7493 126.599 0 
-21.3632 -57.1209 129.415 0 
-21.7363 -57.7392 130.634 0 
-22.8821 -56.2366 126.127 0 
-22.3285 -58.2412 130.573 0 
-21.7265 -56.5171 126.871 0 
-21.5329 -57.2168 127.936 0 
-21.1164 -57.7441 128.901 0 
-21.0176 -58.1874 129.891 0 
-21.9101 -56.7372 126.078 0 
-22.8696 -58.7362 130.032 0 
-21.826 -58.751 130.09 0 
-21.2726 -57.5681 126.909 0 
-21.1686 -58.013 127.886 0 
-22.3738 -57.2176 125.585 0 
-22.3743 -59.2696 129.575 0 
-20.7968 -58.5907 128.413 0 
-21.3366 -57.6021 125.906 0 
-21.3367 -59.2833 129.626 0 
-20.8903 -58.6345 127.415 0 
-21.7908 -57.9763 125.253 0 
-21.8791 -59.8137 129.139 0 
-20.7569 -58.5637 126.42 0 
-22.7964 -59.9745 128.763 0 
-21.1579 -58.367 125.756 0 
-20.5791 -59.2277 127.91 0 
-22.3089 -58.5171 124.794 0 
-20.5581 -59.2023 126.876 0 
-21.3636 -58.6652 124.981 0 
-21.3524 -60.3063 128.628 0 
-20.6414 -58.8943 125.49 0 
-22.3296 -60.568 128.364 0 
-20.2716 -59.572 125.913 0 
-20.2564 -60.0747 126.919 0 
-22.8073 -61.0185 127.809 0 
-20.9353 -59.3236 124.676 0 
-20.8658 -60.9052 128.237 0 
-21.8502 -61.1443 127.954 0 
-21.4058 -59.7678 124.125 0 
-20.0105 -60.2079 125.433 0 
-19.9578 -60.6566 126.4 0 
-22.3455 -61.6192 127.424 0 
-21.3684 -61.7314 127.568 0 
-20.3601 -61.7551 127.61 0 
-20.4768 -60.3191 124.198 0 
-22.799 -62.0327 126.828 0 
-21.8899 -62.2311 127.064 0 
-19.655 -60.9753 124.863 0 
-20.8832 -62.3067 127.19 0 
-20.9151 -60.7569 123.624 0 
-19.4328 -61.6559 125.889 0 
-19.84 -62.3463 127.221 0 
-19.9043 -61.1772 123.989 0 
-21.4295 -62.8261 126.695 0 
-19.3629 -61.6282 124.424 0 
-19.2975 -62.8545 126.705 0 
-18.9148 -62.1624 124.922 0 
-21.983 -63.3165 126.151 0 
-20.3787 -63.2663 126.63 0 
-19.0362 -62.7192 125.872 0 
-19.5985 -61.8657 123.693 0 
-19.3431 -63.5889 126.382 0 
-20.9143 -63.8027 126.164 0 
-18.5806 -62.9439 124.925 0 
-18.8611 -62.6288 123.926 0 
-21.4438 -64.2903 125.623 0 
-19.8505 -64.185 126.016 0 
-22.0557 -64.3634 125.148 0 
-18.8322 -64.1572 125.981 0 
-18.1075 -63.4334 124.369 0 
-20.3754 -64.7229 125.564 0 
-19.3443 -64.7575 125.62 0 
-18.1176 -64.1918 124.788 0 
-18.3258 -64.6563 125.491 0 
-17.0225 -64.2912 124.98 0 
-19.8911 -65.3295 125.211 0 
-18.7856 -65.2972 125.21 0 
-16.022 -64.8042 124.646 0 
-19.335 -66.017 124.784 0 
-16.3176 -65.0827 123.885 0 
-18.3626 -65.9937 124.737 0 
-16.6358 -65.9667 123.345 0 
-15.7578 -66.0331 123.846 0 
-18.3133 -66.7985 124.2 0 
-16.4291 -66.6692 122.951 0 
-18.8276 -67.4854 123.743 0 
-17.852 -67.4822 123.722 0 
-15.8588 -67.1216 123.424 0 
-19.3165 -68.0004 123.272 0 
-17.3559 -68.0298 123.289 0 
-18.3516 -68.3063 123.18 0 
-16.3025 -67.5884 122.401 0 
-19.8024 -68.4966 122.778 0 
-16.6563 -67.4674 121.287 0 
-18.9006 -68.8392 122.689 0 
-16.8521 -68.5606 122.836 0 
-17.8335 -68.9746 122.725 0 
-19.4305 -69.3426 122.164 0 
-18.3171 -69.4997 122.271 0 
-17.345 -69.7747 122.141 0 
-18.8005 -69.9883 121.767 0 
-17.8897 -70.3281 121.687 0 
-16.8182 -70.4603 121.666 0 
-15.8528 -71.1405 121.463 0 
-16.8715 -71.2662 121.136 0 
-17.3992 -71.8032 120.657 0 
-16.2926 -72.0114 120.773 0 
-15.4288 -72.2324 121.13 0 
-17.9144 -72.2843 120.112 0 
-16.7914 -72.4995 120.274 0 
-15.8925 -72.6839 120.518 0 
-17.2647 -72.9425 119.726 0 
-16.362 -73.1391 119.951 0 
-16.815 -73.5669 119.363 0 
-16.036 -73.8001 119.676 0 
-15.4015 -74.17 120 0 
-17.2611 -73.973 118.761 0 
-14.8491 -74.5748 120.855 0 
-16.4449 -74.2243 119.052 0 
-15.8003 -74.5709 119.36 0 
-16.8547 -74.6267 118.432 0 
-15.2213 -74.9675 119.729 0 
-16.1862 -74.9714 118.741 0 
-15.5778 -75.3553 119.081 0 
-15.2927 -76.0573 118.837 0 
-15.7046 -76.4911 118.235 0 
-32.3463 -49.111 134.914 1 
-31.9335 -49.9053 135.331 1 
-31.3891 -50.1615 135.926 1 
-30.8055 -50.5564 136.396 1 
-31.1818 -50.485 134.858 1 
-30.6556 -50.9374 135.334 1 
-29.9701 -51.3045 136.021 1 
-29.3241 -51.5553 136.373 1 
-32.3454 -51.1103 133.912 1 
-30.7731 -51.0493 134.406 1 
-31.3587 -50.606 132.896 1 
-30.2544 -51.531 134.879 1 
-29.6238 -51.9032 135.33 1 
-30.449 -51.7036 133.948 1 
-30.5978 -51.2626 132.712 1 
-28.8771 -52.2003 135.475 1 
-31.2582 -51.7018 132.99 1 
-29.8342 -52.1029 134.41 1 
-31.9474 -51.9921 133.277 1 
-28.3858 -52.7237 134.995 1 
-30.2457 -52.2912 133.02 1 
-31.4937 -52.4206 132.696 1 
-29.4186 -52.7176 133.981 1 
-32.4378 -52.9356 132.803 1 
-30.4695 -52.4174 132.27 1 
-29.7278 -52.9995 132.873 1 
-28.4693 -53.313 134.043 1 
-32.9161 -53.4657 132.295 1 
-30.9964 -52.8909 131.741 1 
-31.744 -53.2444 132.039 1 
-29.1156 -53.3607 133.307 1 
-29.231 -53.4949 132.384 1 
-29.9049 -52.9778 130.785 1 
-32.4199 -53.932 131.782 1 
-30.6792 -53.3067 131.064 1 
-31.3603 -53.5862 131.392 1 
-28.4909 -53.8728 133.06 1 
-28.9638 -53.7321 131.458 1 
-32.6362 -54.724 131.671 1 
-29.3915 -53.4998 130.218 1 
-28.182 -54.4145 132.306 1 
-32.3773 -54.5442 130.836 1 
-31.2315 -54.2835 130.589 1 
-30.3904 -54.0216 130.305 1 
-28.689 -54.4474 131.322 1 
-27.4912 -54.8167 132.564 1 
-26.819 -55.0573 132.873 1 
-31.8858 -55.044 130.317 1 
-27.7698 -55.0219 131.861 1 
-29.3621 -54.5011 129.749 1 
-28.9142 -54.818 130.56 1 
-32.9192 -55.4598 130.226 1 
-30.2845 -54.8031 129.666 1 
-28.1831 -55.4169 130.831 1 
-27.3613 -55.6395 131.432 1 
-28.8623 -55.0066 129.247 1 
-26.4374 -55.8025 132.041 1 
-30.8584 -55.5891 129.378 1 
-29.7991 -55.3331 129.208 1 
-31.9321 -56.0045 129.718 1 
-27.6058 -55.926 130.305 1 
-28.3691 -55.4807 128.717 1 
-25.9665 -56.3532 131.576 1 
-30.363 -56.073 128.859 1 
-29.3045 -55.7931 128.64 1 
-31.4678 -56.4261 129.14 1 
-27.0292 -56.3778 130.558 1 
-26.3318 -56.5924 130.901 1 
-32.4612 -56.9871 129.219 1 
-27.8572 -56.0592 128.344 1 
-30.7581 -56.7255 128.596 1 
-25.2766 -56.901 131.253 1 
-27.2686 -56.5257 129.373 1 
-29.8621 -56.5622 128.34 1 
-28.8726 -56.4823 128.229 1 
-31.7844 -57.212 128.561 1 
-26.7244 -56.949 129.83 1 
-25.8596 -57.1451 130.435 1 
-24.4246 -57.3488 131.097 1 
-27.4131 -56.4562 127.73 1 
-30.9179 -57.4703 128.187 1 
-28.3847 -56.9825 127.728 1 
-24.8717 -57.6808 130.466 1 
-26.5359 -57.3422 129.003 1 
-31.9156 -57.9923 128.219 1 
-29.4349 -57.4386 127.62 1 
-25.9086 -57.728 129.477 1 
-30.4225 -57.9845 127.686 1 
-26.7224 -57.4136 127.847 1 
-27.8984 -57.4889 127.233 1 
-31.3763 -58.4835 127.655 1 
-24.9515 -58.2859 129.55 1 
-23.9412 -58.3496 130.106 1 
-28.9177 -57.9738 127.168 1 
-26.2616 -58.015 128.35 1 
-25.6581 -58.3804 128.742 1 
-29.9057 -58.5196 127.211 1 
-27.4281 -57.9603 126.685 1 
-30.8701 -59.0597 127.287 1 
-28.4122 -58.4931 126.713 1 
-24.251 -58.9012 129.235 1 
-25.8835 -58.6616 127.953 1 
-29.3849 -59.0567 126.779 1 
-25.2662 -59.0058 128.325 1 
-26.3686 -58.6552 126.932 1 
-23.4517 -59.3456 129.132 1 
-24.4575 -59.3065 128.579 1 
-27.9208 -59.0055 126.218 1 
-31.3177 -60.1248 127.013 1 
-26.0428 -59.3473 127.061 1 
-30.3715 -60.0589 126.748 1 
-25.3314 -59.5973 127.404 1 
-28.3007 -59.6576 126.02 1 
-29.3407 -60.1123 126.419 1 
-27.4143 -59.5377 125.742 1 
-24.2993 -60.0428 127.852 1 
-25.5171 -59.7971 126.524 1 
-31.3684 -61.0861 126.758 1 
-26.3619 -59.5764 125.347 1 
-23.4616 -60.3212 128.129 1 
-24.9448 -60.2372 127.001 1 
-29.8442 -61.1106 126.408 1 
-28.4078 -60.5954 125.786 1 
-23.8987 -60.6959 127.497 1 
-30.8103 -61.6439 126.61 1 
-28.9549 -61.0998 126.126 1 
-27.2129 -60.6886 125.196 1 
-24.5727 -60.8846 126.628 1 
-25.2512 -60.3942 125.223 1 
-24.9521 -60.727 125.97 1 
-26.3837 -60.5655 124.786 1 
-27.8591 -61.107 125.383 1 
-28.3956 -61.6189 125.812 1 
-29.8827 -62.0696 126.146 1 
-23.4971 -61.3303 127.113 1 
-28.9202 -62.0998 126.133 1 
-27.2776 -61.6164 125.035 1 
-23.8598 -61.6328 126.431 1 
-25.8363 -61.1178 124.434 1 
-27.8298 -62.1071 125.434 1 
-24.6338 -61.3509 124.786 1 
-28.309 -62.5928 125.968 1 
-24.4168 -61.6896 125.452 1 
-28.9039 -63.1188 126.161 1 
-25.2953 -61.6557 124.086 1 
-26.3346 -62.1116 124.429 1 
-26.9002 -62.6312 124.83 1 
-23.6168 -62.4205 125.665 1 
-27.3203 -63.0975 125.442 1 
-24.0669 -62.3365 125.023 1 
-27.772 -63.5606 126.037 1 
-22.9288 -62.718 126.009 1 
-25.7592 -62.6127 124.079 1 
-28.3779 -64.1424 126.307 1 
-26.2923 -63.0919 124.488 1 
-24.8934 -62.5562 123.71 1 
-26.7213 -63.5421 125.065 1 
-27.0003 -64.2109 125.739 1 
-23.0596 -63.3371 125.226 1 
-27.4018 -64.6615 126.275 1 
-23.5316 -63.289 124.514 1 
-25.675 -63.5455 124.154 1 
-24.3433 -63.1109 123.412 1 
-22.4225 -63.7072 125.506 1 
-26.0266 -64.2217 124.718 1 
-24.9868 -63.6337 123.659 1 
-26.4004 -64.6472 125.353 1 
-26.8061 -65.0916 125.957 1 
-22.71 -63.9818 124.824 1 
-25.1855 -64.542 124.113 1 
-25.5611 -64.9362 124.705 1 
-24.423 -64.0976 123.239 1 
-22.9484 -64.2076 123.97 1 
-25.8612 -65.6209 125.395 1 
-22.3708 -64.6366 124.433 1 
-26.4163 -66.1426 125.835 1 
-21.7405 -64.9971 124.797 1 
-23.8469 -64.6088 122.902 1 
-24.5853 -65.2339 123.713 1 
-22.5897 -64.8116 123.545 1 
-24.8915 -65.6329 124.37 1 
-20.8985 -65.2271 125.059 1 
-25.2764 -66.0843 124.978 1 
-25.6631 -66.5357 125.581 1 
-22.055 -65.3033 124.072 1 
-21.3678 -65.6453 124.451 1 
-24.0524 -65.6646 123.195 1 
-24.3654 -66.1189 123.894 1 
-20.438 -65.8314 124.683 1 
-24.7321 -66.5798 124.515 1 
-25.582 -67.5447 125.671 1 
-22.8942 -65.593 122.3 1 
-21.8097 -66.08 123.392 1 
-23.5177 -66.1343 122.698 1 
-23.8902 -66.6251 123.375 1 
-24.2255 -67.0878 124.017 1 
-24.8925 -67.6193 124.87 1 
-21.255 -66.4928 123.787 1 
-22.3102 -66.1249 121.986 1 
-20.3851 -66.709 124.03 1 
-22.9437 -66.6199 122.273 1 
-19.3787 -66.8167 124.174 1 
-21.5177 -66.7905 123.065 1 
-23.3959 -67.1243 122.864 1 
-25.3372 -68.6113 125.42 1 
-23.7475 -67.5964 123.498 1 
-20.855 -67.1289 123.434 1 
-24.2018 -68.1084 124.048 1 
-21.8907 -66.6096 121.332 1 
-19.9229 -67.3238 123.663 1 
-24.6883 -68.6112 124.563 1 
-22.3621 -67.1104 121.882 1 
-21.1993 -67.4582 122.781 1 
-22.862 -67.6157 122.395 1 
-23.2572 -68.1046 122.996 1 
-20.4494 -67.7718 123.088 1 
-23.7443 -68.6159 123.511 1 
-24.2874 -69.1142 123.969 1 
-21.8127 -67.609 121.454 1 
-24.9118 -69.5992 124.344 1 
-22.3263 -68.1093 121.933 1 
-20.8346 -68.1021 122.405 1 
-22.7667 -68.6105 122.491 1 
-23.2658 -69.118 122.99 1 
-23.7788 -69.6152 123.477 1 
-24.335 -70.1112 123.922 1 
-20.8354 -68.1105 120.422 1 
-20.4587 -68.8121 122.103 1 
-21.5082 -68.6173 121.227 1 
-22.0062 -69.1053 121.732 1 
-22.5568 -69.5726 122.195 1 
-23.1085 -70.0921 122.673 1 
-23.5844 -70.607 123.208 1 
-20.973 -69.1051 120.772 1 
-24.0059 -71.1124 123.781 1 
-21.4917 -69.5905 121.244 1 
-20.3524 -69.6319 121.432 1 
-22.1346 -70.1675 121.641 1 
-20.3013 -69.1107 119.957 1 
-22.676 -70.6347 122.075 1 
-23.1277 -71.1152 122.597 1 
-23.6272 -71.6272 123.103 1 
-20.7913 -70.1263 120.471 1 
-19.8856 -70.1932 120.983 1 
-21.3742 -70.5999 120.878 1 
-21.9854 -71.0648 121.25 1 
-22.5181 -71.615 121.767 1 
-19.9689 -70.0951 119.271 1 
-18.904 -70.7594 121.076 1 
-22.9124 -72.1163 122.357 1 
-20.3053 -70.6262 119.957 1 
-20.9322 -71.0752 120.312 1 
-23.5162 -72.6277 122.75 1 
-21.5356 -71.5702 120.706 1 
-17.8662 -71.1917 121.016 1 
-22.0516 -72.1298 121.234 1 
-22.4279 -72.6347 121.848 1 
-19.4676 -71.3293 120.098 1 
-22.8104 -73.1 122.44 1 
-19.7027 -71.1432 119.064 1 
-18.3721 -71.6795 120.495 1 
-20.273 -71.631 119.492 1 
-20.8537 -72.11 119.903 1 
-21.3487 -72.6121 120.409 1 
-21.7115 -73.0778 121.013 1 
-19.3295 -71.6145 118.429 1 
-21.9252 -73.6597 121.862 1 
-22.3365 -74.1085 122.42 1 
-19.804 -72.121 118.959 1 
-18.9484 -72.2826 119.532 1 
-20.4103 -72.6032 119.341 1 
-20.8806 -73.1154 119.882 1 
-21.2359 -73.567 120.479 1 
-21.3243 -74.0963 121.423 1 
-18.9374 -72.1236 117.861 1 
-19.3552 -72.6101 118.402 1 
-19.9268 -73.1007 118.824 1 
-18.8172 -73.0543 118.869 1 
-20.4139 -73.6177 119.353 1 
-20.7243 -74.5098 120.966 1 
-20.7556 -74.0846 119.975 1 
-17.9467 -73.3306 119.11 1 
-19.4573 -73.5956 118.298 1 
-18.6916 -73.115 117.517 1 
-19.9473 -74.1105 118.823 1 
-18.3715 -73.6725 118.463 1 
-20.2213 -74.5922 119.5 1 
-19.7973 -75.0441 120.433 1 
-19.0007 -74.0921 117.769 1 
-19.4996 -74.6094 118.29 1 
-17.9373 -74.3082 118.086 1 
-19.7902 -75.1024 118.951 1 
-19.2192 -75.4531 119.46 1 
-18.552 -74.6408 117.13 1 
-19.1287 -75.1146 117.703 1 
-17.5234 -74.8725 117.654 1 
-19.3707 -75.6152 118.398 1 
-17.8572 -75.9811 119.705 1 
-18.8456 -76.1891 119.52 1 
-18.4844 -75.8245 118.809 1 
-16.7346 -75.5094 117.795 1 
-18.2381 -75.9644 117.989 1 
-18.4879 -75.5964 116.799 1 
-17.362 -76.4885 119.2 1 
-16.0775 -75.8135 118.189 1 
-19.0131 -76.1315 117.311 1 
-17.7711 -76.4919 118.478 1 
-16.9828 -75.8107 117.1 1 
-18.3396 -77.1309 118.948 1 
-16.7506 -76.4811 118.078 1 
-17.7375 -76.4082 117.5 1 
-18.1342 -76.066 116.202 1 
-18.6122 -76.591 116.732 1 
-18.953 -77.1317 117.356 1 
-17.8127 -77.7277 118.653 1 
-18.1309 -77.1455 116.065 1 
-17.3474 -78.5951 118.373 1 
-15.7955 -78.5842 116.887 1 
