ply
format ascii 1.0
element vertex 332
property double x
property double y
property double z
end_header
-31.804300308227539 -71.475601196289063 90.404502868652344
-30.880899429321289 -71.692703247070313 91.914100646972656
-31.804300308227539 -71.475601196289063 90.404502868652344
-29.783800125122070 -72.401298522949219 92.990600585937500
-30.381500244140625 -72.297401428222656 92.315200805664062
-30.325799942016602 -72.030403137207031 91.429702758789063
-32.335399627685547 -71.586402893066406 89.410697937011719
-29.363100051879883 -72.249099731445313 91.872802734375000
-30.806299209594727 -71.892402648925781 90.422401428222656
-28.870700836181641 -72.763397216796875 92.846099853515625
-29.828100204467773 -71.933799743652344 90.428199768066406
-28.363199234008789 -72.324501037597656 91.849098205566406
-28.837799072265625 -72.042602539062500 90.927101135253906
-31.304500579833984 -71.843101501464844 89.387298583984375
-27.856199264526367 -72.803001403808594 92.816101074218750
-28.372400283813477 -73.402297973632813 93.734397888183594
-30.348100662231445 -71.907096862792969 89.418601989746094
-27.353500366210938 -72.263999938964844 91.374198913574219
-26.859300613403320 -72.845298767089844 92.804496765136719
-26.830099105834961 -72.482200622558594 91.966102600097656
-27.394399642944336 -73.380401611328125 93.746696472167969
-32.296901702880859 -71.911903381347656 88.390602111816406
-28.837200164794922 -71.958099365234375 89.921600341796875
-27.865600585937500 -73.735900878906250 94.341201782226562
-32.904098510742188 -71.829696655273438 87.887199401855469
-27.838899612426758 -72.042800903320312 90.424400329589844
-26.351499557495117 -72.296798706054688 91.359298706054688
-25.836599349975586 -72.505401611328125 91.957901000976563
-26.351600646972656 -73.215400695800781 93.349403381347656
-25.859399795532227 -72.889701843261719 92.793800354003906
-31.328100204467773 -72.020797729492188 88.400398254394531
-26.841600418090820 -72.093101501464844 90.417999267578125
-27.364999771118164 -74.204803466796875 94.852203369140625
-26.898599624633789 -73.850700378417969 94.243103027343750
-25.358699798583984 -72.332199096679687 91.354598999023438
-29.338100433349609 -72.028999328613281 88.908302307128906
-25.361799240112305 -73.263900756835938 93.310897827148438
-24.864000320434570 -72.785301208496094 92.333801269531250
-30.341400146484375 -72.059402465820313 88.406700134277344
-25.847400665283203 -72.174003601074219 90.404701232910156
-25.882400512695313 -73.880096435546875 94.196998596191406
-32.336799621582031 -72.080802917480469 87.407699584960937
-24.324800491333008 -72.494499206542969 91.463996887207031
-26.880300521850586 -74.708297729492187 95.347702026367188
-26.404800415039063 -74.350898742675781 94.724700927734375
-24.862499237060547 -73.728103637695312 93.823997497558594
-24.396699905395508 -73.385299682617188 93.210403442382813
-23.889999389648437 -72.889701843261719 92.238502502441406
-25.391899108886719 -74.404998779296875 94.637802124023438
-23.382999420166016 -73.313903808593750 92.761398315429688
-23.901300430297852 -73.877899169921875 93.697196960449219
-26.290700912475586 -75.536399841308594 96.458000183105469
-22.878499984741211 -72.851997375488281 91.795402526855469
-25.908399581909180 -74.909599304199219 95.149497985839844
-24.371099472045898 -74.249298095703125 94.290100097656250
-22.352600097656250 -73.189498901367188 92.358398437500000
-22.886400222778320 -73.801300048828125 93.253402709960938
-24.823799133300781 -75.002502441406250 95.037200927734375
-23.352899551391602 -74.642601013183594 94.384002685546875
-25.318700790405273 -75.524597167968750 95.506896972656250
-21.346399307250977 -73.672698974609375 92.858596801757813
-21.847400665283203 -74.153602600097656 93.370498657226563
-23.892200469970703 -75.333702087402344 95.169502258300781
-25.392700195312500 -76.287803649902344 96.244400024414063
-24.395099639892578 -75.845199584960938 95.646003723144531
-22.427799224853516 -74.857398986816406 94.173599243164063
-20.854299545288086 -74.462402343750000 93.605903625488281
-19.882400512695313 -74.415496826171875 93.649299621582031
-22.928600311279297 -75.808700561523438 95.146003723144531
-24.295499801635742 -76.516403198242188 96.036499023437500
-19.418800354003906 -74.895103454589844 94.186203002929688
-20.368499755859375 -75.011802673339844 94.054901123046875
-21.384700775146484 -75.285301208496094 94.199203491210937
-24.763000488281250 -76.963500976562500 96.563102722167969
-23.433200836181641 -76.310401916503906 95.630401611328125
-18.320999145507813 -74.821403503417969 94.247802734375000
-21.908700942993164 -75.759803771972656 94.725097656250000
-18.810499191284180 -75.313598632812500 94.734298706054687
-24.899200439453125 -77.713699340820312 97.300399780273438
-17.886199951171875 -75.458198547363281 95.080802917480469
-16.900400161743164 -75.369003295898437 95.149497985839844
-23.884500503540039 -77.180900573730469 96.319297790527344
-22.358400344848633 -76.635498046875000 95.367599487304688
-16.310199737548828 -75.776901245117187 95.756301879882813
-17.417100906372070 -75.939796447753906 95.641403198242188
-15.354299545288086 -75.510803222656250 95.498001098632812
-19.919000625610352 -75.989601135253906 94.648101806640625
-18.909400939941406 -76.023803710937500 95.076103210449219
-20.849899291992187 -76.240997314453125 94.705200195312500
-24.183500289916992 -77.924301147460938 97.074501037597656
-14.887299537658691 -75.881698608398438 96.125198364257813
-15.812399864196777 -76.212799072265625 96.303001403808594
-13.868700027465820 -76.004302978515625 96.493202209472656
-13.265899658203125 -76.282699584960937 97.266799926757813
-16.922899246215820 -76.459098815917969 96.151000976562500
-14.418800354003906 -76.462600708007813 97.067596435546875
-12.792499542236328 -76.718902587890625 98.311798095703125
-18.408500671386719 -76.554702758789063 95.544197082519531
-13.533399581909180 -76.890403747558594 98.155502319335937
-22.990900039672852 -77.747901916503906 96.142501831054687
-15.298800468444824 -76.689102172851563 96.814498901367188
-21.379999160766602 -77.160797119140625 95.286499023437500
-23.783399581909180 -78.565299987792969 97.453697204589844
-23.502500534057617 -78.249496459960938 96.705200195312500
-13.055299758911133 -77.469001770019531 99.155097961425781
-16.406799316406250 -77.008201599121094 96.598602294921875
-14.266300201416016 -77.168899536132813 97.828903198242188
-17.898399353027344 -77.070701599121094 96.018699645996094
-19.873199462890625 -77.050697326660156 95.052101135253906
-13.879099845886230 -77.589897155761719 98.454803466796875
-12.738300323486328 -78.155502319335938 99.808601379394531
-14.923700332641602 -77.549697875976563 97.523498535156250
-21.870599746704102 -78.144798278808594 95.836097717285156
-15.882900238037109 -77.569297790527344 97.006599426269531
-20.352800369262695 -77.677696228027344 95.263397216796875
-18.514099121093750 -77.568199157714844 95.647697448730469
-19.325799942016602 -77.629501342773438 95.361999511718750
-14.509099960327148 -78.017898559570313 98.099296569824219
-22.425800323486328 -78.685798645019531 96.253303527832031
-20.892299652099609 -78.247703552246094 95.632202148437500
-22.918899536132812 -79.168800354003906 96.827903747558594
-23.273099899291992 -79.563796997070313 97.474098205566406
-13.523300170898438 -78.527397155761719 99.099403381347656
-17.399700164794922 -78.091201782226563 96.502601623535156
-12.585300445556641 -79.563102722167969 101.051002502441410
-15.441900253295898 -78.560501098632813 97.554100036621094
-16.431299209594727 -78.548301696777344 97.106101989746094
-19.372800827026367 -78.479896545410156 95.696701049804688
-13.136099815368652 -79.174301147460938 99.711601257324219
-18.022899627685547 -78.577400207519531 96.148597717285156
-20.828899383544922 -79.065399169921875 96.003196716308594
-22.989099502563477 -80.246200561523438 97.748397827148438
-22.644500732421875 -79.966300964355469 97.106399536132813
-14.160599708557129 -79.159698486328125 98.718902587890625
-14.944399833679199 -79.078399658203125 98.034103393554687
-19.842699050903320 -79.109199523925781 95.918800354003906
-18.859600067138672 -79.044197082519531 96.021400451660156
-21.359699249267578 -79.654998779296875 96.332496643066406
-17.283700942993164 -79.143798828125000 96.812797546386719
-13.697899818420410 -79.645301818847656 99.272102355957031
-12.873299598693848 -80.105796813964844 100.439002990722660
-21.900699615478516 -80.197502136230469 96.779701232910156
-22.683200836181641 -80.946899414062500 98.103103637695313
-20.348899841308594 -79.709396362304688 96.249801635742187
-12.458499908447266 -80.602302551269531 101.477996826171870
-15.918899536132812 -79.570899963378906 97.559097290039063
-22.400999069213867 -80.673500061035156 97.328498840332031
-19.330799102783203 -79.675201416015625 96.317497253417969
-18.358600616455078 -79.571701049804688 96.476699829101563
-20.879499435424805 -80.288002014160156 96.616302490234375
-14.478599548339844 -80.081398010253906 98.568397521972656
-19.826000213623047 -80.291801452636719 96.647003173828125
-15.373900413513184 -80.096496582031250 97.967201232910156
-18.808900833129883 -80.218803405761719 96.757202148437500
-17.841499328613281 -80.115501403808594 96.909202575683594
-13.292599678039551 -80.617996215820313 99.876403808593750
-16.810199737548828 -80.141799926757813 97.339103698730469
-13.998700141906738 -80.584800720214844 99.070800781250000
-12.937000274658203 -81.104698181152344 100.472999572753910
-21.381200790405273 -81.231697082519531 97.225402832031250
-19.293300628662109 -80.817298889160156 97.116096496582031
-20.352899551391602 -81.022003173828125 97.045997619628906
-18.296499252319336 -80.744903564453125 97.218803405761719
-12.475799560546875 -81.604301452636719 101.470001220703120
-16.287500381469727 -80.685096740722656 97.755798339843750
-12.306099891662598 -82.113502502441406 102.402000427246090
-21.936599731445313 -81.796997070312500 97.642799377441406
-17.365400314331055 -81.001899719238281 97.558502197265625
-14.893799781799316 -81.084701538085938 98.500297546386719
-19.856000900268555 -81.554199218750000 97.491096496582031
-18.882699966430664 -81.448303222656250 97.604499816894531
-15.733300209045410 -81.229896545410156 98.160697937011719
-20.875699996948242 -81.973297119140625 97.625297546386719
-17.844900131225586 -81.599998474121094 97.928199768066406
-16.852300643920898 -81.536598205566406 98.006500244140625
-13.584600448608398 -81.674499511718750 99.644996643066406
-19.364099502563477 -82.040100097656250 97.999900817871094
-12.731900215148926 -82.119400024414063 100.845001220703120
-14.380299568176270 -81.597099304199219 98.965797424316406
-21.340700149536133 -82.545097351074219 98.005203247070312
-17.345300674438477 -82.086097717285156 98.441101074218750
-18.397399902343750 -82.410797119140625 98.616096496582031
-12.470999717712402 -82.602302551269531 101.467002868652340
-20.363700866699219 -82.547798156738281 98.007598876953125
-16.345199584960937 -82.071601867675781 98.459602355957031
-15.421500205993652 -82.008300781250000 98.616500854492188
-12.207200050354004 -83.121398925781250 102.362998962402340
-17.818599700927734 -82.828796386718750 99.239898681640625
-18.880500793457031 -83.020202636718750 99.010498046875000
-16.851999282836914 -82.820800781250000 99.239501953125000
-19.874700546264648 -83.069602966308594 98.480903625488281
-13.140800476074219 -82.640296936035156 100.248001098632810
-11.777400016784668 -83.620597839355469 102.880996704101560
-15.842499732971191 -82.614196777343750 98.911399841308594
-17.368400573730469 -83.416099548339844 100.063003540039060
-18.431600570678711 -83.415100097656250 99.601501464843750
-13.929499626159668 -82.587501525878906 99.517303466796875
-14.876299858093262 -82.586898803710938 98.975196838378906
-17.902900695800781 -83.925903320312500 100.555000305175780
-12.742600440979004 -83.122596740722656 100.846000671386720
-16.375000000000000 -83.311203002929688 99.766296386718750
-17.339500427246094 -84.196197509765625 101.365997314453120
-16.856100082397461 -83.864501953125000 100.775001525878910
-16.839500427246094 -84.595001220703125 102.420997619628910
-18.410400390625000 -84.427200317382812 101.046997070312500
-16.414400100708008 -84.406700134277344 101.764999389648440
-15.340600013732910 -83.155097961425781 99.363403320312500
-18.865299224853516 -84.064697265625000 99.959602355957031
-15.908100128173828 -83.840301513671875 100.266998291015620
-15.911299705505371 -84.776199340820313 102.361000061035160
-19.854600906372070 -84.094001770019531 98.938400268554688
-13.485600471496582 -83.579597473144531 100.068000793457030
-12.500399589538574 -84.107803344726563 101.469001770019530
-14.399299621582031 -83.589996337890625 99.496101379394531
-15.470299720764160 -85.270896911621094 102.839996337890620
-15.389800071716309 -84.702102661132813 101.375000000000000
-14.842000007629395 -84.011299133300781 100.033996582031250
-11.682999610900879 -85.133499145507813 103.858001708984370
-12.211199760437012 -84.621002197265625 102.371002197265620
-15.240799903869629 -84.393997192382812 100.586997985839840
-13.008299827575684 -84.078399658203125 100.569999694824220
-15.202099800109863 -86.013900756835938 103.519996643066410
-14.948300361633301 -85.253898620605469 101.861999511718750
-13.921199798583984 -84.590103149414063 100.007003784179690
-14.398200035095215 -85.192703247070312 100.857002258300780
-13.067500114440918 -85.074203491210938 100.611000061035160
-13.614500045776367 -85.574203491210938 100.156997680664060
-11.808500289916992 -99.618202209472656 104.916000366210940
-11.840999603271484 -99.613700866699219 103.914001464843750
-10.296600341796875 -97.638298034667969 103.841003417968750
-11.247699737548828 -98.132896423339844 103.847000122070310
-9.979430198669434 -97.156402587890625 105.448997497558590
-12.103400230407715 -98.606597900390625 105.823997497558590
-11.559800148010254 -97.656097412109375 104.995002746582030
-11.690500259399414 -98.643600463867187 103.321998596191410
-12.554599761962891 -99.851799011230469 103.545997619628910
-12.048199653625488 -97.590400695800781 105.787002563476560
-12.158599853515625 -99.175598144531250 102.794998168945310
-10.883999824523926 -97.095802307128906 103.481002807617190
-10.904399871826172 -96.589202880859375 104.851997375488280
-9.784130096435547 -96.621902465820312 103.830001831054690
-10.362799644470215 -96.140403747558594 105.933998107910160
-11.690500259399414 -97.127296447753906 103.238998413085940
-11.955900192260742 -96.595596313476562 105.842002868652340
-11.376000404357910 -96.100898742675781 105.382003784179690
-12.233900070190430 -97.621696472167969 102.804000854492190
-10.376899719238281 -96.107696533203125 103.463996887207030
-12.734499931335449 -98.629203796386719 102.316001892089840
-9.856809616088867 -95.610801696777344 103.930999755859370
-11.284999847412109 -96.131401062011719 103.280998229980470
-12.238599777221680 -96.120399475097656 106.462997436523440
-12.303000450134277 -96.613899230957031 102.856002807617190
-12.873100280761719 -97.111900329589844 102.460998535156250
-10.417799949645996 -95.125000000000000 103.500999450683590
-12.575300216674805 -96.124702453613281 107.374000549316410
-11.916600227355957 -95.593200683593750 103.094001770019530
-10.107999801635742 -94.555603027343750 104.845001220703120
-9.996669769287109 -94.648498535156250 104.029998779296870
-11.268500328063965 -95.139503479003906 103.183998107910160
-12.809200286865234 -95.620201110839844 102.837997436523440
-10.466500282287598 -94.140701293945313 105.420997619628910
-11.928000450134277 -94.590103149414063 106.333000183105470
-11.234499931335449 -94.152099609375000 106.061996459960940
-11.873200416564941 -94.594398498535156 103.042999267578120
-11.763699531555176 -93.627197265625000 106.495002746582030
-9.989620208740234 -93.143203735351563 104.961997985839840
-10.146200180053711 -93.564201354980469 104.291999816894530
-9.864609718322754 -92.109497070312500 104.938003540039060
-10.313699722290039 -92.607101440429688 104.392997741699220
-10.677599906921387 -93.079803466796875 103.767997741699220
-10.328599929809570 -91.107803344726563 104.903999328613280
-10.785300254821777 -94.098899841308594 103.356002807617190
-10.630900382995605 -91.582000732421875 104.257003784179690
-11.228300094604492 -93.103996276855469 103.222999572753910
-11.034700393676758 -92.150703430175781 103.583000183105470
-11.083399772644043 -90.203201293945313 105.497001647949220
-11.856599807739258 -93.605796813964844 102.973999023437500
-10.877599716186523 -90.619499206542969 104.434997558593750
-11.128999710083008 -91.074096679687500 103.730003356933590
-11.852299690246582 -92.611297607421875 102.941001892089840
-12.847399711608887 -93.608901977539063 102.956001281738280
-13.396400451660156 -93.138000488281250 103.320999145507810
-12.823200225830078 -94.617897033691406 102.853996276855470
-11.560000419616699 -91.558097839355469 103.146003723144530
-12.826100349426270 -92.604698181152344 102.981002807617190
-13.404500007629395 -92.133499145507813 103.300003051757810
-11.277600288391113 -90.097396850585938 103.882003784179690
-11.642800331115723 -90.575996398925781 103.247001647949220
-12.854900360107422 -91.616096496582031 102.888999938964840
-11.567500114440918 -89.173202514648438 104.928001403808590
-13.636400222778320 -91.055999755859375 103.633003234863280
-11.747300148010254 -88.093803405761719 104.901000976562500
-11.555700302124023 -89.150100708007813 103.986999511718750
-11.814399719238281 -88.107803344726563 103.910003662109370
-13.888799667358398 -90.127403259277344 103.875000000000000
-11.886899948120117 -89.614898681640625 102.934997558593750
-12.715900421142578 -90.068901062011719 102.569000244140620
-13.261199951171875 -90.581703186035156 103.008003234863280
-11.788499832153320 -86.112098693847656 104.403999328613280
-14.596699714660645 -85.924697875976563 102.541999816894530
-12.273599624633789 -85.611297607421875 102.396003723144530
-12.046500205993652 -86.100799560546875 103.456001281738280
-12.525300025939941 -85.608596801757812 101.471000671386720
-14.619700431823730 -86.955802917480469 103.611999511718750
-14.157799720764160 -85.941398620605469 101.503997802734370
-14.337200164794922 -86.608001708984375 102.917999267578120
-12.157699584960938 -86.605102539062500 102.876998901367190
-11.938500404357910 -87.113998413085938 103.930000305175780
-12.854499816894531 -86.111000061035156 100.920997619628910
-13.804200172424316 -87.088996887207031 102.440002441406250
-14.673600196838379 -88.044403076171875 104.061996459960940
-14.065299987792969 -87.696899414062500 103.205001831054690
-12.387800216674805 -87.112197875976563 101.927001953125000
-12.063699722290039 -87.630996704101563 102.958999633789060
-12.846400260925293 -87.111999511718750 100.916999816894530
-13.501500129699707 -88.173202514648437 102.751998901367190
-13.929800033569336 -88.646697998046875 103.317001342773440
-14.362299919128418 -89.121101379394531 103.892997741699220
-13.127799987792969 -86.974502563476563 99.414299011230469
-11.960399627685547 -88.624801635742187 102.949996948242190
-13.000499725341797 -87.647903442382813 99.944198608398438
-13.140700340270996 -89.034400939941406 102.585998535156250
-12.644200325012207 -88.586196899414063 101.382003784179690
-13.561900138854980 -89.682197570800781 103.221000671386720
-12.823100090026855 -88.606201171875000 100.413002014160160
-12.401100158691406 -89.619598388671875 101.426002502441410
-12.910900115966797 -89.130401611328125 99.425903320312500
-12.628199577331543 -89.659103393554688 100.472999572753910
-12.135899543762207 -90.582702636718750 101.886001586914060
-12.294300079345703 -90.603500366210938 100.907997131347660
-12.492099761962891 -91.138198852539062 99.947402954101563
-12.075400352478027 -91.665802001953125 100.944000244140620
