ply
format ascii 1.0
element vertex 441
property double x
property double y
property double z
end_header
36.302879333496094 -25.583560180664062 -27.746659851074220
36.954725265502930 -25.885525226593018 -27.779600143432617
31.195933659871418 -24.216300328572590 -27.445799509684246
31.934700012207031 -23.887599945068359 -27.251300811767578
31.261125564575195 -23.208799839019775 -28.154449939727783
32.041235923767090 -23.074521745954240 -27.802764211382186
33.245179748535158 -23.036080169677735 -27.575600051879881
34.791049957275391 -23.537249565124512 -27.577149391174316
32.093251228332520 -27.300849914550781 -26.039450645446777
34.604000091552734 -26.891700744628906 -26.059800148010254
35.891565958658852 -25.429400126139324 -26.243233362833660
31.326299667358398 -24.829799652099609 -27.191299438476563
32.096732457478844 -24.034233093261719 -27.000267028808594
35.236999511718750 -23.813899993896484 -27.077199935913086
35.722525596618652 -24.351462602615356 -26.505512237548828
32.116933822631836 -23.511734008789063 -26.347233454386394
33.391444813121446 -23.094990990378641 -26.540345625443891
34.616811752319336 -23.356587409973145 -26.638437271118164
31.173799514770508 -26.945166905721027 -25.065999984741211
32.019939422607422 -26.933879852294922 -25.396920013427735
33.392214093889507 -26.945957183837891 -25.343385696411133
34.815483729044594 -26.770766576131184 -25.324883460998535
35.504798889160156 -26.361600875854492 -25.094800949096680
35.944399515787758 -25.761583010355633 -25.319966952006023
31.150214059012278 -24.356300081525529 -25.165514264787948
31.530700683593750 -23.885999679565430 -24.660499572753906
35.779683430989586 -24.275983492533367 -25.319883664449055
31.866740417480468 -23.434339904785155 -25.060879898071288
33.232666015625000 -23.047333399454754 -25.235083262125652
34.866820526123050 -22.666759872436522 -25.111420440673829
35.978075027465820 -22.880000114440918 -24.996450424194336
35.334300994873047 -22.358900070190430 -25.098300933837891
31.075825214385986 -26.729224681854248 -24.337399959564209
32.132440185546876 -26.707119750976563 -24.079460144042969
33.327967325846352 -26.785944620768230 -24.072321997748482
34.704061985015869 -26.601362228393555 -24.133149623870850
35.279098510742187 -26.246500015258789 -23.591899871826172
35.852712631225586 -25.703149795532227 -24.133987426757813
31.369649887084961 -24.536224842071533 -24.200574874877930
31.594899495442707 -24.159467061360676 -24.036100387573242
35.784562587738037 -24.339149951934814 -24.134274959564209
32.217612981796265 -23.404350042343140 -24.018262147903442
33.489833831787109 -22.769099871317547 -24.061566352844238
34.823775768280029 -22.650337696075439 -23.941637516021729
35.691832224527992 -23.014166514078777 -24.265333175659180
32.103079605102536 -26.441040039062500 -22.647940063476561
33.253824234008789 -26.594987869262695 -22.628425121307373
34.372900009155273 -26.466700077056885 -22.681775093078613
31.331366221110027 -25.585233688354492 -22.414333343505859
31.864400863647461 -26.167400360107422 -22.114599227905273
35.015814099993023 -26.100971221923828 -22.515000207083567
35.577371324811665 -25.498600006103516 -22.648343222481863
31.116175174713135 -24.680850028991699 -22.322424888610840
31.747440338134766 -23.907119750976562 -22.679499816894531
35.850020599365237 -24.570919799804688 -22.574160003662108
32.337899208068848 -23.339662551879883 -22.572700023651123
33.391112804412842 -22.894762516021729 -22.505862236022949
34.819355434841583 -22.859800126817490 -22.593344370524090
36.056375503540039 -22.994899749755859 -22.609399795532227
33.460149765014648 -26.390924930572510 -21.675199508666992
31.331500371297199 -25.420166015625000 -21.417366027832031
32.030783017476402 -25.996300379435223 -21.393283208211262
33.330132802327476 -26.265933990478516 -21.075033823649090
34.844943455287385 -26.005028315952845 -21.355642863682338
35.524724960327148 -25.253200054168701 -21.330949783325195
31.355366388956707 -24.347866694132488 -21.401732762654621
31.613899230957031 -24.307100296020508 -21.144399642944336
36.061966578165688 -24.258733113606770 -21.317900021870930
32.106975317001343 -23.274275064468384 -21.385749816894531
33.336983362833656 -22.771066665649414 -21.326483090718586
34.796483357747398 -22.832766532897949 -21.334349950154621
35.816685267857146 -23.257842745099747 -21.419685636247909
31.344233194986980 -25.244799931844074 -20.078533808390301
32.141145879572086 -25.820190949873492 -20.012272748080168
33.383222368028427 -26.129466798570419 -20.085855695936417
34.828636863014914 -25.836781761863016 -20.115827213634144
35.562600453694664 -25.350367228190105 -19.720166524251301
31.335749626159668 -24.202650070190430 -19.585000038146973
35.878520202636722 -24.322200012207031 -20.126149940490723
32.118611229790581 -23.153211169772678 -19.906555387708877
33.380233764648437 -22.569189071655273 -20.134311040242512
34.827211591932510 -22.711477915445965 -20.082110934787327
35.648885999407085 -23.309099742344447 -20.146971021379745
31.384550094604492 -25.196049690246582 -18.837300300598145
32.059624671936035 -25.661024570465088 -18.820174694061279
33.318517049153648 -25.926649729410808 -18.798866907755535
34.871285574776785 -25.663685934884207 -18.793699809483119
35.564033508300781 -25.131567001342773 -18.924599965413410
31.014450073242187 -24.879249572753906 -18.557900428771973
35.842716852823891 -24.236066500345867 -18.828100204467773
31.479000091552734 -23.461799621582031 -18.550800323486328
32.109212398529053 -23.048637390136719 -18.819212436676025
33.028200785319008 -22.506834030151367 -18.907800038655598
35.046060180664064 -22.645659637451171 -18.776019668579103
35.663273811340332 -23.202800273895264 -18.830899238586426
33.662400563557945 -22.358633041381836 -18.739699681599934
34.320600509643555 -22.341650009155273 -18.824249267578125
31.473400115966797 -25.104000091552734 -18.106599807739258
32.018849849700928 -25.386625051498413 -17.575237274169922
33.332355923122833 -25.737533357408310 -17.579944186740452
34.844259643554686 -25.482180023193358 -17.621909904479981
35.629501342773438 -25.009500503540039 -18.093999862670898
31.058980178833007 -24.449050140380859 -17.620660018920898
31.592249870300293 -24.968750000000000 -17.080350875854492
35.729341824849449 -24.378174940745037 -17.567399978637695
31.287250518798828 -23.479700088500977 -17.824800014495850
32.048299789428711 -22.846514565604075 -17.644828251429967
35.048633575439453 -22.503033320109051 -17.572566350301106
35.616537094116211 -22.918761968612671 -17.574287652969360
33.330477820502388 -22.260933346218533 -17.574744542439777
34.555665969848633 -22.322266578674316 -17.576816558837891
32.076650301615395 -25.193916320800781 -16.238416989644367
33.268600463867187 -25.492772882634942 -16.153572689403187
34.678685324532644 -25.341771534511022 -16.146814210074290
31.183528355189733 -24.419828687395370 -15.998800277709961
31.729599952697754 -24.911950111389160 -15.801099777221680
35.635971762917258 -24.297272942282937 -16.072527365251020
31.168285642351425 -23.439399991716659 -16.141742842538015
31.938850402832031 -22.727233568827312 -16.069549719492596
35.242550532023110 -22.614366531372070 -16.072799841562908
35.662599945068358 -23.211960220336913 -16.177259826660155
32.351799011230469 -22.331300735473633 -15.566900253295898
33.314599990844727 -22.068839645385744 -16.030920028686523
34.524899005889893 -22.151599645614624 -16.012375235557556
32.369550704956055 -25.114550590515137 -14.845499992370605
33.326783498128258 -25.310733477274578 -14.817849953969320
34.569200515747070 -25.223299980163574 -14.832674980163574
31.181020355224611 -24.313880157470702 -14.878440093994140
31.821374893188477 -24.810599803924561 -14.688774824142456
35.208400726318359 -24.811766942342121 -14.910700162251791
35.801475524902344 -24.019725322723389 -14.823174953460693
31.732100168863933 -22.708932876586914 -14.906700134277344
35.587383906046547 -22.989749908447266 -14.826149940490723
32.126633961995445 -22.195566813151043 -14.750699996948242
33.326033274332680 -21.823166847229004 -14.818066438039144
34.717277526855469 -22.080066468980576 -14.846844461229113
32.747798919677734 -25.065099716186523 -13.532999992370605
33.334544711642792 -25.126355489095051 -13.595322079128689
34.505366007486977 -25.086300532023113 -13.911266962687174
31.024756840297155 -24.159257071358816 -13.709685734340123
32.004188961452911 -24.704966439141167 -13.448211140102810
35.031359863281253 -24.814259719848632 -13.369120025634766
35.774070739746094 -24.085157121930802 -13.574314253670829
31.738719940185547 -22.891080474853517 -13.288699722290039
35.649678124321831 -22.928355534871418 -13.575488938225639
32.173114231654573 -22.062414441789901 -13.647057260785784
33.330922444661461 -21.680911170111763 -13.582511054144966
34.843233744303383 -21.994633356730144 -13.576924959818522
33.321601867675781 -25.010700225830078 -12.543199539184570
31.359333038330078 -24.051566441853840 -12.413033485412598
31.990333557128906 -24.577866554260254 -12.327316602071127
33.321679687500001 -24.946640014648438 -12.249580001831054
34.773683547973633 -24.645983378092449 -12.231416702270508
35.698199272155762 -24.046424865722656 -12.320574998855591
31.224199771881104 -23.040649890899658 -12.206850051879883
31.528949737548828 -22.839200019836426 -12.588050365447998
35.730051040649414 -22.865099906921387 -12.324016571044922
31.392900466918945 -22.374500274658203 -12.062199592590332
32.210080718994142 -21.799599838256835 -12.283440017700196
33.390282948811851 -21.495366414388020 -12.401333173116049
34.752433776855469 -21.710800170898438 -12.352344618903267
35.422901153564453 -22.197599411010742 -12.083700180053711
31.248240280151368 -23.946320343017579 -11.177200126647950
32.025150060653687 -24.426699876785278 -10.951750040054321
33.329633076985679 -24.779622395833332 -11.073466618855795
34.727544572618271 -24.547155380249023 -11.077277819315592
35.641200256347659 -23.980619812011717 -11.171919822692871
31.109799861907959 -23.116750240325928 -11.081274986267090
35.789214542933870 -22.935099737984793 -11.142999921526227
31.415249824523926 -22.168549537658691 -11.070000171661377
32.052500406901039 -21.662983258565266 -11.157299995422363
33.333544413248696 -21.267733256022137 -11.073899904886881
34.778946216289810 -21.529692283043495 -11.114361542921801
35.563099670410153 -22.224839782714845 -10.978899955749512
31.315850257873535 -23.787899971008301 -9.821825027465820
31.916120147705080 -24.144669914245604 -9.618932914733886
33.386940002441406 -24.523780059814452 -9.608428001403809
34.809678395589195 -24.215477837456596 -9.573602358500162
35.580800056457520 -23.818124771118164 -9.815957546234131
31.200683275858562 -23.192883173624676 -9.397083282470703
31.551900863647461 -22.930500030517578 -10.123399734497070
35.806982676188149 -23.020033200581867 -9.574175039927164
31.291299819946289 -22.221599578857422 -10.071100234985352
31.969055599636501 -21.626888910929363 -9.628793504503038
32.807899475097656 -21.180500030517578 -10.086400032043457
34.896420288085935 -21.428440093994141 -9.679430103302002
35.618033091227211 -22.131499926249187 -9.415154774983725
33.397000312805176 -21.013325214385986 -9.524803638458252
34.308333079020180 -21.038099288940430 -9.238080024719238
32.110560607910159 -23.987740325927735 -8.272158050537110
33.331615447998047 -24.316833496093750 -8.316838264465332
34.773049672444664 -24.030633608500164 -8.483296712239584
31.223375320434570 -23.508550167083740 -8.207272291183472
32.041400909423828 -22.437200546264648 -8.631090164184570
35.267101287841797 -23.697599411010742 -8.089320182800293
35.828624725341797 -23.017524719238281 -8.324577569961548
31.974459838867187 -21.519279861450194 -8.356400108337402
35.045650482177734 -21.285850524902344 -8.320795059204102
35.628850301106773 -21.925133387247723 -8.325434843699137
32.265899658203125 -21.059099197387695 -8.096489906311035
33.327983220418297 -20.816650390625000 -8.323876539866129
34.417499542236328 -20.929833730061848 -8.229226748148600
32.153916676839195 -23.852883338928223 -7.240228335062663
33.327788882785370 -24.078111012776692 -7.081858846876356
34.604183197021484 -23.899233182271320 -7.064603249231975
31.308474540710449 -23.289674758911133 -6.942742586135864
31.881099700927734 -23.632200241088867 -6.599820137023926
35.077299753824867 -23.612899780273438 -7.075980027516683
35.742343357631135 -23.063214165823801 -7.002668653215681
31.354866027832031 -21.496433258056641 -6.731310049692790
31.948132832845051 -21.514799753824871 -7.086506525675456
35.319067637125649 -21.276966730753582 -7.073383331298828
35.692067040337456 -21.896855672200520 -7.078585571712917
32.163759994506833 -20.874500274658203 -6.962268066406250
33.320508783513851 -20.574799797751687 -7.025975487448952
34.653900527954100 -20.846680068969725 -7.026830005645752
32.336799621582031 -23.739000320434570 -6.079609870910645
33.321482340494789 -23.874049822489422 -5.807443459828694
34.572900772094727 -23.807250022888184 -6.072289943695068
31.412250518798828 -22.902999877929688 -6.100950002670288
31.789779663085938 -23.205199813842775 -5.684768009185791
35.013380432128905 -23.535259628295897 -5.769460105895996
35.656275749206543 -23.025450229644775 -5.946884989738464
31.245866775512695 -21.315032958984375 -5.931143283843994
35.666312217712402 -21.687162876129150 -5.826834976673126
31.449800491333008 -20.956300735473633 -5.540430068969727
31.991633097330730 -20.760866800944012 -5.908686637878418
33.322367350260414 -20.306066830952961 -5.821853319803874
34.673349380493164 -20.685650348663330 -5.819640100002289
33.578749656677246 -23.774250030517578 -4.823232531547546
34.327400207519531 -23.751749992370605 -4.827265024185181
31.208459472656251 -22.695600128173830 -4.667806053161621
32.002060127258304 -23.244560241699219 -4.512498998641968
33.215674400329590 -23.669525146484375 -4.465437531471252
34.937349796295166 -23.380050182342529 -4.578207492828369
35.594632466634117 -22.822933197021484 -4.568969964981079
35.752581509676844 -21.668299761685457 -4.621094530278986
31.392099380493164 -20.900199890136719 -5.057690143585205
32.105900446573891 -20.340950012207031 -4.489645083745320
33.340344746907554 -20.053566826714409 -4.635710027482775
34.820067087809242 -20.544033368428547 -4.571358323097229
35.605701446533203 -21.094200134277344 -4.095079898834229
32.830001831054687 -19.756999969482422 -4.075270175933838
31.360099792480469 -22.599800109863281 -3.077617526054382
32.185599565505981 -23.119474887847900 -3.067131280899048
33.329389360215927 -23.443555619981552 -3.071884420182970
34.843910217285156 -23.219530105590820 -3.034278011322022
35.541040039062501 -22.691719818115235 -3.273835992813110
30.914100170135498 -22.031275272369385 -2.820972561836243
35.802829360961915 -21.827349853515624 -3.024432992935181
31.167774677276611 -20.882299900054932 -3.308465003967285
32.039559936523439 -20.213220214843751 -3.168955993652344
33.524179840087889 -19.888820266723634 -3.169804048538208
34.780988481309677 -20.270266638861763 -3.074937714470758
35.539049784342446 -20.801250139872234 -3.080404996871948
33.084175109863281 -19.751074790954590 -2.951657474040985
31.944659805297853 -22.758839797973632 -1.875517988204956
33.338400522867836 -23.220949808756512 -1.833439985911052
34.824282964070640 -22.991383552551270 -1.829755028088888
35.511449813842773 -22.462100028991699 -1.777419984340668
31.288000106811523 -22.336200714111328 -2.062089920043945
35.861715952555336 -21.750283559163410 -1.829605003197988
34.832529340471538 -20.074099949428014 -1.785490001950945
35.651099205017090 -20.690624713897705 -1.838477522134781
32.318950653076172 -19.296949386596680 -1.820415079593658
33.350533167521156 -19.548600196838379 -1.832385023434957
32.194698810577393 -22.685474872589111 -0.939176276326180
33.395925045013428 -22.934112310409546 -0.501996131148189
34.812720108032224 -22.746400260925292 -0.530400810297579
35.353199005126953 -22.300699234008789 -0.066353999078274
35.742800140380858 -21.765989875793458 -0.565175595320761
35.100080108642580 -19.995000076293945 -0.769016410410404
35.675024509429932 -20.498412132263184 -0.516058126930147
32.342233022054039 -19.063033421834309 -0.575749357541402
33.359880065917970 -19.395219802856445 -0.612280911579728
34.539279174804690 -19.663500213623045 -0.475848615169525
33.658432006835938 -22.795033137003582 0.597931325435638
34.636016845703125 -22.668699900309246 0.754979178309441
33.334499359130859 -22.187400817871094 0.923219978809357
35.138033548990883 -22.267166773478191 0.759831666946411
35.821539306640624 -21.587360000610353 0.730241018533707
31.712400436401367 -19.811399459838867 1.318950057029724
35.249000549316406 -19.851100921630859 0.440373986959457
35.756717046101890 -20.377717018127441 0.665183509389559
33.586425781250000 -19.224824905395508 0.670564241707325
34.780937671661377 -19.533750057220459 0.800648875534534
33.896499633789062 -22.499000549316406 1.967859983444214
34.307133992513023 -22.582832972208660 1.749986688296000
32.210179519653323 -21.504899978637695 2.205799984931946
33.219862461090088 -22.100287437438965 2.055392548441887
34.902874946594238 -22.117849826812744 2.061943769454956
35.722499847412109 -21.469333012898762 1.853169997533162
31.876774787902832 -20.693375110626221 1.859472513198853
35.821899414062500 -20.305522494845921 1.933710018793742
33.575000762939453 -18.952282905578613 1.844268321990967
34.676145341661240 -19.220377816094292 1.991141120592753
35.438865661621094 -19.667966842651367 1.906510035196940
32.145529065813335 -21.889071328299387 3.395895719528198
33.378587722778320 -22.168687582015991 3.477323770523071
34.708160018920900 -21.865079879760742 3.360080981254578
35.577919769287107 -21.366199874877928 3.346818017959595
35.889214651925222 -20.403143201555526 3.352474280766078
32.282285417829243 -19.122771944318497 3.550390005111694
33.324100494384766 -18.849830245971681 3.322961974143982
34.798999439586289 -18.993291508067738 3.384900006380948
35.611833572387695 -19.566183408101399 3.583323280016581
32.008033434549965 -21.865316708882649 4.770345052083333
33.389949798583984 -21.818249702453613 4.603142499923706
34.855843135288787 -21.508757182529994 4.640158517020089
31.146924495697021 -20.493149757385254 4.583877444267273
31.883899688720703 -20.585516611735027 4.634758353233337
35.807933807373047 -20.656650225321453 4.656101624170939
32.206810845269096 -18.991899914211697 4.630300045013428
33.580200195312500 -18.539549827575684 4.381120204925537
34.819183349609375 -18.740949948628742 4.670228322347005
35.660816828409828 -19.429883321126301 4.674378395080566
33.457799911499023 -18.462025165557861 4.837679862976074
32.152325153350830 -21.406274795532227 5.645045042037964
33.329272530295633 -21.409972797740590 5.845669963143089
34.774137496948242 -21.333962440490723 5.875823736190796
32.245116551717125 -20.606691678365070 6.060884157816569
35.161298751831055 -21.017250061035156 6.410660028457642
35.718811035156250 -20.657233344184029 5.935329967074924
32.177842140197754 -19.161900043487549 5.799362500508626
35.095183054606117 -18.675566673278809 5.758169968922933
35.750766330295136 -19.367066913180881 5.923291153377956
32.607200622558594 -18.351999282836914 6.400829792022705
33.332477569580078 -18.233300103081596 5.920467747582330
34.593283971150719 -18.333733240763348 6.090646664301555
33.667367299397789 -21.219467163085938 7.080516656239827
34.322900772094727 -21.201049804687500 7.160709857940674
32.290786198207307 -20.422942570277623 7.064585753849575
32.984200795491539 -20.937632878621418 7.258906682332357
35.047799682617189 -20.911260223388673 7.132176017761230
35.756175994873047 -20.359224796295166 7.184582471847534
32.086699803670250 -19.115249951680500 7.265526533126831
35.724225521087646 -19.148374795913696 7.176760017871857
32.469500541687012 -18.443324565887451 7.199989914894104
33.322616577148438 -18.023883501688641 7.176851749420166
34.772028241838726 -18.195256914411271 7.223552840096610
32.445877922905815 -20.153977500067818 8.440425554911295
33.335999806722008 -20.790677600436741 8.429649935828316
34.734700339181082 -20.831657409667969 8.420618602207728
35.637000083923340 -20.294099330902100 8.548137307167053
32.016018434004351 -19.153590982610528 8.475591876290061
35.781425158182778 -19.111266771952312 8.421182552973429
32.330166498819985 -18.005350112915039 8.675353527069092
33.392900943756104 -17.678475141525269 8.346113741397858
34.844807942708336 -17.992841720581055 8.421379208564758
32.576899210611977 -20.025667190551758 9.943819999694824
33.348391215006508 -20.485099792480469 9.886212428410849
34.882079696655275 -20.490110206604005 9.870705890655518
35.581301371256508 -19.986233393351238 9.931286811828613
32.184573086825282 -19.236763694069602 9.932885430075906
35.876177893744575 -19.266588634914822 9.924743334452311
32.332685198102681 -17.887199946812220 9.848009926932198
33.463900429861887 -17.329899924142019 10.006297247750419
34.715624809265137 -17.638874848683674 9.932206710179647
35.554616292317711 -18.290399869283039 9.929691791534424
32.710248947143555 -19.933500289916992 11.205649852752686
33.348949432373047 -20.241966565450031 11.170516649881998
34.725220489501950 -20.323839950561524 11.133860015869141
35.431301116943359 -19.982150077819824 11.213799953460693
32.174874782562256 -19.136087417602539 11.176349997520447
35.891683578491211 -19.234666824340820 11.170166492462158
31.992400360107421 -18.076100158691407 11.228339958190919
34.935485294886995 -17.501828602382115 11.129957062857491
35.662825584411621 -18.206250190734863 11.163899898529053
33.406566619873047 -17.074133237202961 11.169699827829996
34.404899597167969 -17.136800765991211 11.401399612426758
33.441662311553955 -20.051537513732910 12.359374880790710
34.792521582709419 -20.074600219726563 12.310322231716579
35.412998199462891 -19.906600952148437 11.946999549865723
32.315769958496091 -19.160330009460449 12.384800052642822
32.860050201416016 -19.722650527954102 12.666349887847900
35.338798522949219 -19.800800323486328 12.932200431823730
36.011050542195640 -18.983817100524902 12.415683269500732
31.870599746704102 -17.760988659328884 12.424811257256401
35.090525627136230 -17.373350143432617 12.321074962615967
35.631600273980034 -17.968599955240887 12.422211117214626
32.110099792480469 -16.798799514770508 12.388799667358398
33.472757066999165 -16.793157305036271 12.355928557259697
34.593027932303293 -17.003371374947683 12.573142869131905
33.637466430664063 -19.877499262491863 13.607666333516439
34.506398518880211 -19.887166976928711 13.613433202107748
32.455766677856445 -19.132199923197430 13.679900010426840
33.078899383544922 -19.658566792805988 13.739333470662435
35.131134033203125 -19.652633666992187 13.733833312988281
35.741600036621094 -19.138816833496094 13.683616638183594
31.968389087253147 -17.898422453138565 13.659899923536512
34.644656590053010 -16.812228611537389 13.706585747855049
33.821399688720703 -19.808799743652344 14.429699897766113
32.494785853794646 -18.960028239658900 14.859471321105957
33.291060256958005 -19.527519798278810 15.020769977569580
34.789362907409668 -19.478412628173828 14.932812333106995
31.928269767761229 -17.824720191955567 14.975490188598632
31.994850635528564 -16.708350181579590 14.940850019454956
32.551883061726890 -18.799350420633953 16.426966667175293
33.375819778442384 -19.368779945373536 16.470190048217773
34.742225646972656 -19.043775081634521 16.531912446022034
32.015430743877701 -17.853507702167217 16.426538394047665
32.652849197387695 -18.909649848937988 17.695625305175781
33.363499959309898 -19.197266896565754 17.412566502888996
34.626200358072914 -18.873200098673504 17.588767369588215
32.108411365085175 -17.864822599622940 17.711555480957031
35.341300964355469 -18.188899993896484 17.985700607299805
32.722900390625000 -20.225799560546875 19.017499923706055
32.721149444580078 -19.259950637817383 18.752299308776855
33.114574432373047 -19.110000133514404 19.291299819946289
34.925900268554685 -18.674559783935546 18.683080673217773
35.800098419189453 -18.560699462890625 18.555099487304687
32.197520065307614 -17.898646926879884 18.928746668497720
35.351299285888672 -18.386999130249023 18.347200393676758
33.404740142822263 -18.940240097045898 20.205979919433595
34.230499267578125 -19.483650207519531 20.489500045776367
32.175466961330841 -17.810922198825413 20.146110746595596
32.786800384521484 -18.351400375366211 20.444799423217773
35.192468007405601 -18.422599792480469 20.309933980305988
31.674900054931641 -16.572949886322021 20.183475017547607
34.993400573730469 -16.764299392700195 20.866100311279297
32.190075397491455 -17.654183387756348 21.377850055694580
33.335344102647568 -18.279677920871311 21.430455313788521
34.530659484863278 -18.284159851074218 21.330720138549804
31.647966384887695 -16.544767061869305 21.430916468302410
35.730131785074867 -16.563700358072918 21.420733769734699
32.341378106011284 -17.598733266194660 22.820522308349609
33.448274612426758 -18.060787439346313 23.037262201309204
34.523179626464845 -18.167200088500977 22.807120132446290
31.716324806213379 -16.739575147628784 22.980387210845947
32.355225563049316 -17.496075153350830 24.177899837493896
33.318833033243813 -17.848566691080730 24.188216527303059
34.586199760437012 -17.898849964141846 24.191699504852295
31.763700103759767 -16.845859909057616 24.131240463256837
35.255350112915039 -16.729700088500977 24.153849601745605
32.457939910888669 -17.383799743652343 25.434980392456055
33.403711795806885 -17.721962213516235 25.359862327575684
34.576583226521812 -17.753433545430500 25.423800150553387
31.792862415313721 -16.824812412261963 25.484275102615356
32.562250137329102 -17.306650161743164 26.430150032043457
33.411519622802736 -17.559900283813477 26.725999832153320
34.552598953247070 -17.604025363922119 26.655424594879150
