ply
format ascii 1.0
element vertex 110
property double x
property double y
property double z
end_header
-7.683978319168091 -251.360165913899750 -585.679168701171870
-4.878321038352119 -245.039445665147580 -583.490336100260380
-2.102982020378113 -243.680798339843760 -582.563391113281230
0.129015007189342 -237.152284894670770 -580.444292340959810
0.912805974483490 -232.061996459960940 -580.127014160156250
2.274254997571310 -235.710833231608060 -578.599680582682250
6.363868088949294 -236.295857747395840 -575.814519973028270
2.259025037288666 -231.734001159667970 -578.578491210937500
4.921497035026550 -229.949098205566400 -574.646508789062520
9.293405055999756 -233.779502868652340 -571.619506835937500
11.522380065917968 -234.814797973632810 -570.961804199218700
8.187708705663681 -229.577439308166500 -569.394371032714840
12.084235600062780 -231.722214835030680 -567.199432373046870
6.450337489446004 -224.133749643961580 -568.247833251953120
9.966400146484375 -228.054000854492190 -565.328979492187500
13.985411043520328 -228.564038877133980 -562.354110152633100
18.162200927734375 -227.225006103515620 -559.958007812500000
8.178495009740194 -223.510887993706600 -561.677334255642340
12.644816716512045 -225.844500223795560 -559.855346679687500
7.372318772708669 -222.250823077033540 -555.026517980238960
13.680384101867675 -224.235679931640620 -555.814914550781280
18.864370155334473 -223.375001525878900 -554.335906982421870
7.989096403121948 -221.516928536551350 -547.754211425781250
14.339409134604715 -221.281637018377130 -548.629549893465880
18.261099815368652 -220.800003051757810 -549.610504150390630
16.162800312042236 -219.006500244140620 -546.696014404296870
18.072099685668945 -218.611668904622410 -547.148661295572880
7.375564575195313 -221.095271717418310 -541.272555264559630
12.049271311078753 -220.296857561383920 -540.727137974330390
15.335055351257324 -218.468777126736110 -540.530334472656250
18.883930646456204 -215.929229736328120 -540.561626727764410
8.307913303375244 -220.037165323893220 -535.900838216145870
13.336127194491299 -219.959818059747870 -533.439996892755630
7.787027154650007 -218.222287859235480 -533.529724121093750
14.141724944114685 -219.083124160766600 -534.647254943847660
19.689085824148997 -215.982642037527910 -533.718928745814760
22.714300155639648 -212.176506042480470 -534.890991210937500
13.858328683035714 -220.529713221958700 -526.238220214843750
18.253533681233723 -219.692001342773440 -525.607320149739620
8.841289923741268 -215.932537372295680 -526.672316331129760
11.405342919485909 -218.561571393694210 -526.193429129464330
21.025510893927681 -216.171554565429690 -527.627170138888910
9.432996749877930 -219.906336466471340 -518.390319824218750
12.788085596902031 -221.856783185686400 -519.404785156250000
19.062471662248885 -220.789143153599330 -519.257010323660670
9.048115015029907 -217.444496154785160 -520.693008422851560
10.853700160980225 -219.222496032714840 -520.454010009765630
21.624190937389027 -216.447093616832380 -519.421636408025620
8.348699569702148 -228.020004272460940 -509.901000976562500
9.314157485961914 -223.855749130249020 -513.762130737304690
13.979207479036772 -224.823383037860570 -512.865926889272830
20.754926279971475 -222.512893676757810 -512.931052760074070
26.386819839477539 -220.443002319335930 -510.728198242187490
23.313560104370119 -217.414199829101560 -514.977600097656250
24.992899894714355 -216.825996398925780 -513.778984069824220
10.259900093078613 -228.688499450683590 -508.581512451171870
13.950707231249128 -228.806287493024540 -506.558212280273440
20.219918337735262 -227.700184215198870 -504.582910711115060
27.515066782633465 -226.863662719726560 -503.502003987630190
16.530199050903320 -226.472000122070310 -508.240997314453120
21.809116522471111 -225.090583801269530 -507.823748270670590
26.494607925415039 -224.009691678560700 -506.775076059194700
21.305600166320801 -233.738998413085940 -495.638000488281250
14.385199758741591 -231.643332587348080 -499.716773139105900
21.153359985351564 -230.900466918945310 -499.367665608723940
27.284653046551874 -229.105353860294120 -498.441589355468750
32.341999053955078 -228.264007568359370 -497.748992919921870
15.600083351135254 -234.113166809082030 -490.979665120442690
21.279452828799975 -236.203999238855690 -491.691761690027590
26.127655665079754 -235.595443725585940 -490.827663845486090
13.679583072662354 -233.021497090657560 -494.086003621419250
21.189550399780273 -233.264503479003910 -495.325988769531250
28.846135820661271 -231.303570338657920 -492.775998796735510
32.287666956583656 -229.235666910807280 -491.655324300130190
21.589807101658412 -242.444715227399540 -483.779000418526780
27.343385696411133 -242.606571742466510 -483.634434291294670
15.628150224685669 -235.370250701904300 -487.198493957519530
20.434888839721680 -238.509333292643220 -487.242770724826410
29.001433417910622 -237.394668579101560 -485.200762067522310
31.130350112915039 -232.114501953125000 -486.861999511718750
21.896360015869142 -250.060699462890630 -477.555300903320300
28.395954652266070 -249.719364513050440 -477.312361283735810
33.289699826921733 -248.776286533900670 -475.580570765904040
22.264933268229168 -245.942337036132810 -481.123992919921870
29.316566626230877 -244.927000681559240 -479.873499552408870
34.040700565684922 -243.723908857865780 -476.292541503906250
31.083524703979492 -238.297996520996090 -479.681991577148440
33.701957157679963 -238.132860456194210 -477.421434674944180
30.298000335693359 -263.848999023437500 -467.847991943359370
34.733614240373882 -263.604431152343750 -468.549285888671870
22.361399650573730 -256.207000732421870 -470.143997192382810
26.743213926042831 -256.550861903599350 -470.780282156808030
35.028086598714189 -258.225468953450500 -470.738401285807300
40.637256622314453 -257.599997384207600 -469.249860491071440
22.821914672851563 -253.494857788085940 -473.294856480189710
28.267033259073894 -253.859670003255220 -473.748006184895810
35.368250370025635 -252.100498199462890 -473.649749755859370
39.261899948120117 -251.722499847412110 -472.653755187988280
40.041198730468750 -283.778015136718750 -461.459014892578120
37.820499420166016 -275.638000488281250 -462.861999511718750
39.215413093566895 -278.960121154785160 -461.849998474121090
37.356260681152342 -271.316601562500010 -464.324603271484360
39.599617004394531 -271.451995849609370 -462.327504475911440
29.304399967193604 -265.397499084472660 -466.837997436523440
36.631578233506943 -265.649441189236090 -466.541334364149290
40.026271275111604 -264.520501273018970 -463.916567121233240
41.239324569702148 -259.623756408691410 -466.521003723144530
42.580821990966797 -284.982073102678560 -458.713644845145100
42.742977315729313 -279.371683294122870 -458.205907648259940
42.453212261199951 -272.003871917724610 -458.989749908447270
