ply
format ascii 1.0
element vertex 386
property double x
property double y
property double z
end_header
29.258577558729385 -201.254777696397580 -385.080447726779540
32.206298828125000 -199.770996093750000 -387.707000732421870
24.239700317382813 -193.746994018554690 -383.640991210937500
27.879979705810548 -197.598999023437500 -385.297198486328110
32.071399688720703 -197.871002197265620 -387.946990966796870
23.329550107320149 -207.659166971842440 -377.928161621093750
23.094549973805744 -194.745667775472010 -379.609583536783870
24.984449386596680 -196.405494689941410 -383.222991943359370
22.911466598510742 -189.149337768554690 -378.264994303385440
22.168621471949987 -207.280141557965950 -373.309855869838150
16.141016483306885 -200.625834147135410 -370.544001261393250
20.307837486267090 -201.645937919616700 -373.645933151245120
16.542316754659016 -195.720670064290370 -370.400660196940120
20.537990388416109 -195.517238798595600 -373.240142822265620
19.593699985080296 -189.066223144531250 -371.838663736979190
15.808474779129028 -200.142745971679690 -365.680496215820310
20.388876634485580 -202.621646656709570 -366.196590647977930
9.459930102030436 -192.992665608723970 -364.517995198567690
13.396653366088866 -194.451998901367180 -366.889469401041650
9.457065105438232 -189.772499084472660 -363.336502075195310
14.284628459385463 -188.030093965076280 -365.550807407924080
15.854933420817057 -183.923665364583340 -364.012003580729190
18.868099212646484 -184.462997436523440 -365.411987304687500
16.677433649698894 -199.269332885742190 -359.602661132812500
20.358927119861949 -202.029364845969470 -360.358365145596570
8.283500115076700 -192.739000956217440 -357.954335530598940
13.267252175704293 -196.266087407651160 -358.452177628226880
2.075200080871582 -186.235992431640620 -356.122009277343750
6.799480048092929 -187.278453480113630 -360.503368030894880
12.579766591389975 -185.319666544596340 -361.536010742187500
0.670331833638354 -180.738166809082030 -356.746220906575500
7.912607212066650 -180.463880615234390 -359.084559326171870
12.968300070081439 -181.756786891392300 -360.070495605468750
-3.896080017089844 -171.923004150390620 -355.977996826171870
0.226510361823089 -173.752528471105250 -357.028410070082710
6.222150047620137 -175.243164062500000 -357.805163065592470
-4.929377215249198 -169.473857334681920 -356.555999755859380
-0.597368016839027 -169.492500305175780 -358.322998046875000
15.365000247955322 -199.689498901367190 -354.516998291015620
18.878400802612305 -203.373001098632810 -355.270996093750000
10.007362604141235 -192.024501800537110 -352.574501037597660
12.602144347296822 -195.544333563910580 -353.033223470052060
-4.144060134887695 -184.630004882812500 -351.191009521484370
0.122065126895905 -186.565443250868040 -351.798444959852420
6.276417922973633 -189.381199137369800 -352.369468180338520
-6.079029162724813 -179.078749338785800 -351.210581461588560
-2.018467362437929 -181.183143615722660 -354.093710763113850
12.189399719238281 -178.195999145507810 -355.291992187500000
-10.954500198364258 -171.903330485026030 -348.998331705729190
-7.104462262911675 -174.019921718499600 -352.032078669621400
-2.894312000274658 -175.520196533203120 -355.083605957031240
-12.299477842119005 -166.125720553927950 -350.706108940972230
-8.985391696294149 -169.407334645589200 -353.176251729329410
-13.978000164031982 -161.805999755859370 -350.777999877929690
0.880810610949993 -185.198499679565430 -345.160495758056640
6.304927759700352 -187.150500827365450 -344.753609551323790
10.644800186157227 -191.451004028320310 -347.779998779296870
-11.470739936828613 -177.911199951171880 -344.685601806640650
-6.996323217045177 -180.970499905672940 -344.277132901278430
-1.474776671888928 -183.640223185221340 -344.801445855034730
-17.827949523925781 -171.735000610351560 -341.744506835937500
-13.207726105399754 -173.346303525178340 -345.680259372877060
-10.318680000305175 -174.383200073242190 -348.215991210937490
-18.207149505615234 -166.826000213623050 -342.165252685546880
-15.025597596168518 -166.980224609375000 -345.546153259277330
-18.728277842203777 -159.745332505967890 -342.252556694878480
-16.248294157140396 -160.337999231675100 -344.960239186006450
-18.380450248718262 -154.797004699707030 -342.309494018554690
-16.739799880981444 -155.455401611328110 -343.871600341796860
-4.028940200805664 -184.559005737304690 -335.753997802734370
0.360856311188804 -185.257220798068570 -337.692111545138910
4.230345010757446 -185.664001464843750 -338.630004882812500
-12.294463764537465 -178.975452769886370 -336.985273881392060
-7.369155530576353 -181.656110975477420 -337.794443766276060
-0.439064493402839 -183.655626296997070 -338.334377288818360
-19.535899639129639 -172.355249404907230 -337.967250823974610
-15.365735006332397 -175.863349914550780 -337.803198242187480
-25.994599478585378 -165.196860177176350 -336.022569928850430
-21.396107940673829 -166.211519775390630 -339.415800781250030
-25.798933347066242 -160.510167439778660 -335.027496337890620
-21.996833589341904 -159.772998951099540 -338.772664388020810
-21.290558338165283 -154.257041931152340 -338.021544138590510
-6.139039993286133 -184.630004882812500 -334.106994628906250
-12.802440979901482 -179.155529246610740 -331.846527099609370
-8.540275467766655 -181.793889363606780 -333.139553493923590
-19.681764602661133 -172.612941966337300 -330.686765782973340
-15.594838509192833 -175.912229097806490 -330.824002779447140
-39.706298828125000 -163.750000000000000 -327.565002441406250
-33.423683802286781 -164.749003092447910 -329.323333740234370
-28.148166868421768 -165.996002197265620 -330.718329535590270
-23.213483810424805 -169.947331746419280 -329.947168986002620
-34.138695126488095 -159.432854788643970 -329.306711832682310
-28.718533277511597 -159.436874389648440 -332.395331064860040
-32.867099761962891 -155.575004577636720 -327.891494750976560
-27.251226593466367 -153.109589520622710 -330.229497572954980
-23.928490066528319 -152.055000305175780 -333.184701538085960
-19.458625078201294 -172.194625854492190 -324.479751586914060
-16.314233462015789 -175.629333496093750 -324.994333902994810
-34.682086127144949 -164.150571550641730 -325.201141357421870
-27.972866694132488 -165.724868774414060 -324.026332600911470
-22.684318195689809 -168.705456820401280 -323.247358842329560
-48.863816579182945 -159.409001668294280 -321.511500040690120
-41.812295913696289 -160.646124521891270 -324.709958394368470
-36.092018821022727 -160.970363270152690 -324.144633900035500
-48.146852829877069 -152.417117848115820 -321.527645335477930
-42.274342945643831 -152.694034576416020 -323.287716456822010
-34.995507240295410 -152.930619012741830 -324.528260730561780
-30.336157117571151 -151.459431239536830 -326.395285470145100
-47.260200500488281 -147.502597045898430 -321.095599365234360
-42.707362651824951 -147.737001419067380 -321.646369934082030
-34.745274543762207 -148.187623977661130 -321.691371917724610
-29.474550247192383 -148.102666219075530 -324.974995930989560
-26.285233179728191 -164.215001424153660 -319.745340983072940
-22.427056993756974 -166.499143327985480 -319.457715715680820
-54.034099578857422 -157.309497833251950 -315.498512268066410
-49.429392594557541 -158.584844735952520 -317.645770733173090
-41.987450599670410 -160.435747146606450 -317.849746704101560
-34.299116611480713 -161.795998891194670 -317.102579752604190
-27.945571354457311 -162.381713867187500 -317.747432163783460
-61.510399745060845 -150.727384127103360 -314.514918400691100
-55.920874459402903 -152.686056082589290 -317.339514160156230
-51.593300342559814 -153.026498794555660 -319.889247894287110
-68.790451049804687 -143.800498962402340 -313.794494628906250
-62.702583312988281 -145.784611172146270 -315.637278238932310
-56.317676180884952 -146.008143833705360 -318.378000895182310
-49.101939307318794 -145.378891838921450 -319.739332411024290
-42.206986904144287 -146.234436988830570 -319.309125900268550
-36.499150753021240 -147.373374938964840 -319.889625549316410
-70.216098785400391 -139.931499481201170 -315.333374023437500
-62.813105863683361 -139.642058428596040 -317.199473661534910
-55.862913513183592 -140.141534423828120 -318.434269205729150
-49.708973884582520 -141.269500732421870 -319.504501342773440
-54.323449452718101 -157.915664672851560 -308.904836018880190
-51.688501358032227 -158.676002502441410 -310.604003906250000
-63.374353262094353 -152.893690842848570 -310.770075871394230
-58.551979827880857 -155.727398681640640 -309.235998535156230
-81.115600585937500 -143.141998291015620 -307.121002197265620
-79.039313180106021 -144.463856288364950 -308.078286307198650
-70.508675070369947 -146.697470272288600 -311.484059053308840
-65.441599527994796 -148.778671264648440 -313.157338460286440
-82.474859619140631 -138.650951385498050 -309.173252868652360
-79.176743030548096 -140.416002273559570 -311.448247909545900
-84.998748779296875 -134.001998901367190 -308.919998168945310
-49.643600463867188 -165.656005859375000 -303.489990234375000
-56.011195659637451 -159.107999165852870 -302.974126180013000
-51.844166437784828 -161.903834025065090 -304.410659790039060
-87.712799072265625 -149.735992431640620 -299.597991943359370
-83.765233357747391 -150.420003255208340 -300.316996256510440
-76.877354939778641 -151.359888712565090 -301.230885823567690
-70.900313241141177 -152.577285766601560 -302.095284598214280
-62.566256761550903 -154.776877403259280 -302.653188705444340
-87.866699218750000 -145.722666422526030 -299.759328206380190
-84.239717820111437 -145.068705839269310 -302.947175867417290
-80.156898498535156 -147.150497436523440 -305.159988403320310
-88.506083170572921 -137.886497497558590 -300.256835937500000
-85.473330688476565 -139.579799652099610 -304.238198852539090
-88.986329650878901 -133.163700866699230 -302.657498168945320
-86.899898529052734 -133.837997436523440 -305.742004394531250
-60.271999359130859 -157.268249511718750 -296.661003112792970
-57.448759460449217 -159.411599731445310 -298.333001708984400
-95.623596191406250 -149.729003906250000 -295.416992187500000
-90.985099792480469 -149.776331583658840 -297.664337158203120
-83.396266937255859 -151.074333190917970 -295.953333536783870
-76.715959930419928 -151.023902893066410 -295.605697631835940
-70.200710296630859 -151.924499511718750 -295.436801147460930
-63.774291356404625 -154.752165476481110 -295.638837178548160
-98.090401282677277 -145.921768188476560 -294.024310772235590
-91.525747172037754 -145.869667561848960 -297.571266682942730
-95.779414585658486 -138.574569702148440 -293.368861607142830
-92.085688171386721 -138.472680664062490 -296.559399414062510
-95.416079711914065 -132.570599365234390 -293.686804199218730
-92.690574645996094 -133.033752441406250 -297.070873260498050
-110.362998962402340 -149.789332071940090 -288.319997151692690
-105.617500305175780 -149.689002990722660 -290.432998657226560
-90.810055202907989 -150.178220960828980 -288.228220621744810
-84.232774734497070 -149.855247497558590 -290.602005004882810
-76.170500183105474 -149.987200927734360 -291.153997802734350
-69.697262850674718 -150.919726285067470 -289.105721213600870
-64.455198287963867 -154.287498474121090 -291.685989379882810
-123.721000671386720 -143.710006713867190 -285.555999755859380
-118.390856606619690 -144.843001229422440 -286.916645595005600
-112.260769770695620 -145.854613084059510 -288.483851506159850
-105.140933227539070 -145.973266601562500 -291.015865071614600
-100.024002075195310 -143.436996459960940 -292.365997314453120
-87.840351104736328 -149.268501281738280 -286.739501953125000
-82.568870544433594 -148.337286812918530 -287.582715715680820
-76.530370330810541 -148.434799194335940 -287.868200683593730
-73.604103088378906 -149.322998046875000 -287.868011474609370
-143.697998046875000 -139.891006469726560 -285.910003662109370
-139.092666625976560 -137.822001139322910 -285.856669108072940
-131.564398193359380 -136.994502258300770 -285.858905029296860
-125.787083307902020 -138.599582672119140 -286.358754475911440
-118.479666137695320 -138.958066813151050 -287.384932454427090
-111.379222022162540 -138.978279113769530 -288.478000217013910
-105.003678730555950 -138.314177921840130 -289.348676409040190
-98.740968704223633 -137.836700439453120 -291.199902343750010
-132.714996337890620 -135.428001403808590 -287.238006591796870
-124.394332885742190 -133.009999593098970 -286.159667968750000
-118.881571088518410 -133.092714582170770 -286.442709786551350
-111.729000091552730 -133.229000091552730 -286.669998168945310
-105.696748733520510 -133.470125198364260 -287.960498809814450
-97.899161705603973 -132.896460899939910 -290.962615966796870
-163.884506225585940 -156.934501647949220 -280.468490600585940
-160.213298034667960 -155.143399047851570 -281.856698608398460
-154.789999825613850 -151.841214861188600 -281.110212053571440
-148.223003387451170 -150.244998931884770 -279.652496337890620
-101.709999084472660 -151.865997314453120 -279.703002929687500
-97.400517272949216 -150.997399902343740 -280.223400878906260
-92.675325393676758 -150.137123107910160 -281.622123718261720
-152.349004109700530 -148.563003540039060 -283.152659098307310
-146.991333007812500 -146.624109903971340 -282.715610080295160
-140.086863431063560 -146.404227516867910 -281.771591186523440
-133.073046729678200 -146.532382056826630 -281.557522728329620
-126.050333658854170 -146.357503255208340 -282.875167846679690
-95.763801574707031 -149.082000732421870 -283.317993164062500
-90.662860107421878 -149.259802246093760 -281.934796142578140
-84.036158752441409 -147.164797973632800 -283.920001220703110
-76.969569614955361 -145.972856794084830 -284.277138846261150
-70.790351867675781 -148.033996582031250 -285.384002685546880
-140.141779581705720 -140.482445610894100 -284.787448459201410
-132.918098449707030 -140.123599243164050 -284.944900512695310
-128.653003692626950 -141.635498046875000 -285.277999877929690
-172.661003112792970 -156.618499755859370 -273.350997924804690
-167.484500885009770 -157.286998748779300 -275.458621978759770
-162.865600585937500 -156.834799194335940 -276.016003417968760
-173.066996256510410 -155.874834696451810 -271.941004435221370
-167.734334309895840 -155.840334574381500 -272.270660400390620
-159.731729680841620 -155.878542813387780 -273.955999200994310
-154.123078566331120 -154.229846660907440 -275.228919396033630
-146.934445699056000 -152.541831970214840 -274.466445922851560
-140.679212297712040 -151.282712663922980 -274.730930873325920
-133.432167053222660 -150.993166605631500 -273.533833821614560
-127.664501190185550 -150.235744476318360 -273.038749694824220
-113.725498199462890 -153.712997436523440 -272.580001831054690
-102.445665995279950 -154.087331136067720 -276.682657877604190
-97.875258127848312 -153.502585093180330 -276.210914611816410
-92.360443115234375 -151.319856916155150 -276.718575613839280
-179.713996887207030 -155.616500854492190 -266.607498168945310
-174.453642708914630 -155.788856506347660 -267.948002406529040
-168.041539118840150 -156.048922025240390 -268.579230675330510
-160.719415028889980 -155.975166320800780 -267.667249043782530
-153.573092373934660 -155.358725807883530 -268.153816916725870
-147.051118774414050 -153.827720947265620 -267.028079833984350
-140.234900919596360 -151.488332112630220 -268.015367635091140
-132.729945712619350 -150.194610595703120 -268.917943318684880
-127.419001261393230 -150.558664957682280 -267.697830200195310
-118.263000488281250 -152.763252258300780 -268.133499145507810
-113.044502258300780 -155.396251678466800 -269.968498229980470
-137.739334106445310 -149.156331380208340 -265.605336507161440
-133.163098144531260 -148.983900451660160 -266.708099365234370
-128.503002166748050 -149.193496704101560 -265.576507568359370
-185.675003051757810 -157.634002685546870 -257.532989501953120
-182.181597900390610 -157.877801513671870 -258.201196289062520
-174.011537992037260 -158.449998121995180 -259.673231858473570
-168.023133341471350 -158.308067830403640 -260.251999918619790
-161.625002347506010 -157.309461153470550 -260.673074575570920
-189.727005004882810 -155.710006713867190 -257.600006103515620
-182.098999023437500 -155.636833190917970 -261.786499023437500
-175.129664103190090 -156.388666788736970 -263.252665201822940
-158.828002929687500 -155.826998623934660 -259.892639160156250
-154.105115182059170 -153.634400721958710 -260.297915213448680
-148.050251960754390 -151.502312660217290 -262.592500686645510
-131.173665364583340 -150.075332641601560 -262.968332926432310
-127.558998107910160 -151.191001892089840 -262.735504150390620
-120.281997680664060 -152.710006713867190 -263.911987304687500
-152.147499084472660 -148.487495422363280 -258.025009155273440
-146.771874427795410 -146.967812538146970 -259.640001296997070
-140.239999771118160 -147.371290842692050 -261.290541330973330
-133.688737568102400 -148.047263697574010 -261.237579345703120
-208.734249114990230 -172.547996520996090 -251.365497589111330
-202.997998046875010 -171.608599853515610 -251.049002075195320
-202.307847243088930 -168.308999868539670 -253.292306753305300
-196.184812545776370 -166.785311698913570 -252.312000274658200
-188.529731241861980 -165.689666748046870 -252.480264282226560
-182.198109944661470 -165.131779988606780 -252.606443617078980
-177.291000366210940 -164.109748840332030 -252.104248046875000
-195.254800415039060 -161.072402954101560 -254.121398925781250
-188.291637073863630 -159.760818481445310 -255.384274569424720
-182.071273803710940 -161.003363869406970 -255.947183782404120
-174.584213256835940 -161.862928118024540 -254.904714311872200
-167.812713623046870 -159.563427516392300 -253.352286202566970
-163.293497721354160 -157.217333475748690 -255.375666300455720
-160.055401611328140 -153.432250213623040 -253.347348022460950
-155.793261076274660 -151.342840897409530 -255.775579352127890
-154.109499613444000 -147.575611538357210 -254.549276563856320
-145.369829813639310 -143.719329833984370 -256.419001261393250
-141.038670857747410 -144.464670817057280 -256.233668009440120
-135.945007324218750 -146.272994995117190 -255.546997070312500
-222.581497192382810 -192.854995727539060 -243.815002441406250
-221.518005371093750 -188.894500732421870 -244.117996215820310
-217.296600341796870 -186.210601806640620 -243.857199096679690
-215.562332153320310 -181.425416310628260 -245.856666564941410
-209.855931599934910 -180.508797200520830 -245.723600260416670
-204.079728560014220 -179.596728238192470 -244.977453058416190
-199.507003784179690 -178.164001464843750 -243.863998413085940
-213.827499389648440 -176.340499877929690 -249.231498718261720
-209.730333116319460 -175.190665351019960 -249.135442097981780
-202.970397949218750 -175.318402099609390 -248.251531982421880
-196.663473831979840 -173.859895405016460 -247.558210674085100
-190.054272738370030 -171.650544600053280 -246.124002630060370
-194.652503967285160 -170.114494323730470 -250.271003723144530
-187.648363980379970 -169.739723899147720 -247.170636263760660
-182.034573146275110 -167.551500592912960 -246.630999973842080
-175.502001444498690 -164.829416910807280 -246.351833343505860
-173.361663818359370 -163.250335693359370 -247.469665527343750
-168.000917434692380 -159.476582209269200 -247.155165990193690
-161.663129723590340 -153.036087036132810 -247.191826861837630
-158.800251007080080 -149.271251678466800 -248.301750183105470
-157.441335042317720 -147.995671590169280 -248.830001831054690
-231.844501495361330 -214.045753479003910 -237.191997528076170
-229.358399963378900 -209.131001281738290 -238.422200012207040
-225.724200439453110 -207.363400268554700 -237.723397827148430
-227.705993652343750 -201.798004150390620 -241.729995727539060
-223.901999918619790 -202.105868530273430 -239.831400553385410
-219.440498352050780 -200.058498382568360 -237.953750610351560
-222.154429844447550 -196.160712105887280 -242.175286429268970
-217.373870186183750 -194.788783197817590 -239.935174029806380
-212.898397827148440 -192.590597534179690 -238.143795776367200
-216.265999688042540 -189.141445583767360 -242.443222045898440
-210.217910073020250 -188.078955216841250 -240.127043984153060
-205.777999877929690 -185.130249023437500 -238.987499237060550
-207.625999450683590 -183.894500732421870 -242.724502563476560
-202.705098724365230 -181.736500549316420 -240.287300109863280
-198.759122848510740 -178.479997634887700 -239.398126602172850
-194.725213187081470 -174.832501002720420 -239.266573224748900
-190.458215985979360 -171.628570556640620 -239.008285522460940
-186.603634920987220 -169.781184803355810 -239.427092118696720
-181.555336846245670 -168.732889811197910 -240.100886027018220
-174.907307551457340 -166.992000873272250 -240.816921527569120
-170.550399780273440 -164.965798950195310 -240.825399780273440
-167.487889607747410 -161.082444932725710 -242.326002332899290
-164.429992675781250 -157.011001586914060 -243.408996582031250
-163.619995117187500 -155.813995361328120 -241.643005371093750
-238.815999348958340 -236.639663696289060 -229.964004516601560
-236.407598876953130 -229.806401062011730 -231.958500671386730
-233.772998809814450 -228.698246002197270 -230.537246704101560
-236.449330647786470 -223.323832194010410 -234.842333475748690
-232.016209652549350 -222.679631283408720 -232.229263305664060
-229.627110799153660 -216.764443291558170 -233.886888292100710
-226.806833902994780 -214.036165873209630 -231.654500325520840
-224.632737009148850 -209.419682552939970 -233.283582185444090
-221.523776584201390 -204.492001003689240 -232.390999688042540
-219.208229651817900 -201.218771127554080 -233.017384455754210
-215.627999739213440 -196.211726101962000 -232.939865112304690
-212.399099731445320 -192.675598144531250 -233.839501953124990
-208.765000406901040 -189.218000284830740 -233.217665608723960
-205.629996163504470 -186.145573207310260 -232.165856497628340
-202.106349945068360 -180.746949768066400 -233.140449523925780
-199.462005615234370 -177.914993286132810 -235.520004272460940
-200.180664062500000 -176.784001668294280 -232.464335123697910
-195.861704209271610 -174.109472835765160 -234.794647216796870
-191.055200195312490 -171.158999633789050 -235.385800170898450
-187.164855957031250 -169.635288783482140 -235.075430733816970
-183.816001892089840 -169.206504821777340 -234.637504577636720
-239.386500040690090 -249.401835123697910 -223.659334818522130
-238.075250625610350 -243.894748687744140 -225.337937355041500
-236.638231717623200 -237.829999483548680 -227.446694007286650
-234.187875747680660 -235.346124649047850 -225.171873092651370
-233.209229689377990 -229.582613431490390 -225.875691340519840
-231.386248588562010 -222.922310829162600 -225.687875747680660
-229.969937324523930 -215.703249931335450 -225.672188758850100
-226.824996948242190 -213.682495117187500 -227.668998718261720
-229.059165954589840 -210.333834330240880 -225.217498779296870
-225.622917175292970 -207.641499837239590 -226.832750956217440
-223.620499610900880 -201.751563072204590 -225.405750274658200
-220.021495819091800 -199.971000671386720 -227.858249664306640
-221.156501770019530 -198.363998413085940 -224.195999145507810
-218.060538658728970 -196.290537907527040 -225.789076585036070
-208.930200195312490 -189.713601684570310 -228.055200195312490
-205.367500305175780 -186.654251098632810 -228.125251770019530
-203.212501525878910 -183.011497497558590 -227.666999816894530
-237.475997924804690 -264.067891438802060 -217.384109497070310
-234.287994384765620 -263.388000488281250 -216.626998901367190
-237.313902282714850 -257.300599670410180 -219.619799804687490
-233.387001037597660 -257.807750701904300 -217.006996154785160
-237.277613713191100 -251.818000206580540 -221.253616333007810
-233.736557006835940 -249.939776950412320 -217.856777615017360
-235.075004577636720 -244.839004516601560 -221.899002075195310
-233.846498107910150 -243.536999511718760 -218.045599365234380
-235.500162760416660 -234.365002950032560 -218.547332763671870
-234.315372467041020 -238.519750595092770 -219.406749725341800
-235.651887681749140 -230.001776801215270 -219.799109564887150
-234.410001118977870 -229.716166178385410 -222.022666931152340
-234.152503967285160 -223.767501831054690 -221.996002197265620
-219.275497436523440 -195.836997985839840 -222.013999938964840
-232.274002075195310 -249.725006103515620 -215.270996093750000
