ply
format ascii 1.0
element vertex 782
property double x
property double y
property double z
end_header
25.429700088500976 -137.293002319335930 -329.241809082031240
22.132068872451782 -131.045750617980960 -331.204376220703130
25.670310020446777 -132.187500000000000 -330.224697875976570
22.150285720825195 -126.451430184500550 -330.599714006696440
24.351299285888672 -127.699996948242190 -327.708007812500000
24.484100341796875 -119.801002502441410 -327.747009277343750
27.198323176457333 -140.193307729867800 -322.376542311448300
27.144184012162057 -131.731053402549350 -323.677157753392290
23.950232823689777 -123.738332112630200 -327.426330566406250
26.051181197166443 -125.127625942230220 -323.972875595092770
25.593299865722656 -119.394748687744140 -323.099502563476560
29.661141115076401 -138.446237003102030 -317.392531451056980
28.064385032653810 -132.000849914550770 -316.872299194335940
27.153714316231863 -124.551535470145080 -316.699356079101560
23.980899810791016 -115.893997192382810 -317.696990966796880
25.319341818491619 -119.449417114257810 -316.988337198893250
29.621780014038087 -145.331597900390620 -309.624301147460930
27.693675041198730 -139.110372543334960 -310.056627273559570
32.159480285644534 -136.645999145507800 -312.315197753906260
29.341376697315891 -132.013824462890620 -310.413118250229790
31.983462810516357 -132.383123397827150 -308.673999786376950
27.757575273513794 -124.671375910441090 -309.750041961669920
21.783062458038330 -118.925000190734860 -309.154369354248050
26.011488914489746 -118.350888146294490 -308.806059095594610
26.081299972534179 -112.559800720214840 -307.799798583984400
30.459932963053387 -149.690333048502590 -305.063334147135440
30.543970298767089 -145.605699157714840 -303.330700683593760
31.821399370829266 -145.355667114257810 -302.132497151692690
28.247855504353840 -139.106942070855040 -302.860000610351560
20.678699874877928 -130.176699829101550 -305.029202270507820
27.828022696755149 -131.613544810902000 -302.448410034179690
32.843722873263886 -130.476333618164060 -304.355889214409730
29.338183403015137 -124.719333012898760 -303.596664428710940
33.766304347826086 -125.774826049804690 -301.687389871348500
28.451246114877556 -117.055384709284850 -304.771845890925480
32.523583730061851 -118.064000447591140 -301.104665120442690
29.361936309120871 -111.205363186922940 -304.180138327858690
31.939700020684135 -110.510444641113280 -300.889665391710080
30.095233281453449 -105.750000000000000 -302.268666585286440
32.410400390625000 -105.721000671386720 -299.834991455078120
28.467011133829754 -138.043223063151030 -296.275221082899290
26.583352930405560 -131.465000825769750 -295.988467945772070
28.051194134880514 -125.931824179256670 -296.116354549632380
35.200459515606916 -123.563592133698630 -296.876776801215270
38.457366943359375 -122.532000223795580 -294.261332194010440
35.243077596028648 -118.928221384684250 -295.495502048068600
38.594299316406250 -120.318000793457030 -293.281005859375000
34.841550191243492 -110.235749562581380 -295.563079833984370
34.671899795532227 -104.620250701904300 -295.605499267578120
26.841199874877930 -135.628997802734370 -291.526000976562500
27.090388615926106 -131.522445678710940 -289.617329915364560
29.705114637102401 -125.937570844377790 -290.899139404296880
31.943666934967041 -124.014166514078780 -287.384498596191410
35.806568346525495 -117.360525833932980 -289.665210924650470
39.911954146165115 -116.632692777193510 -288.573998084435120
36.718526713053386 -111.042000325520830 -288.670469156901050
40.531199455261230 -112.509750366210940 -286.611751556396480
36.257765562637992 -103.732260330863620 -288.583307680876370
39.217233022054039 -104.985165913899730 -286.812169392903630
35.568239593505858 -96.828760147094727 -287.248298645019530
38.437700271606445 -98.710147857666016 -285.807495117187500
36.998450279235840 -90.722824096679688 -286.207000732421870
31.712900161743164 -129.636993408203130 -285.489990234375000
32.168980026245116 -123.305999755859370 -282.264300537109360
32.488388909233940 -117.271055433485240 -281.747329711914060
41.885501861572266 -115.801002502441410 -285.490997314453120
35.335878018979670 -111.581629152651190 -281.264443856698510
41.765929191343247 -110.295645190823460 -282.171646610383050
36.847385406494141 -103.154572623116640 -284.569863455636150
40.915676703819862 -103.998115539550780 -281.889460637019230
36.644958178202309 -96.763875325520829 -284.114919026692690
41.295528813412318 -96.830778623882097 -281.771343030427660
36.186750411987305 -91.679347991943359 -283.651000976562500
41.843733610930265 -89.726678353768804 -281.657443576388910
45.563667297363281 -89.489067077636719 -279.077992757161440
43.284070205688479 -85.171869659423834 -281.448400878906230
46.472274780273437 -83.186347961425781 -279.363998413085940
31.301099777221680 -116.472999572753910 -274.831008911132810
32.198399543762207 -116.219999313354490 -277.166252136230470
33.820127858055962 -110.620276980929900 -275.052721659342470
36.209744886918500 -105.845181551846590 -273.882818048650560
42.350150108337402 -104.467707951863600 -275.465961456298830
46.205842699323384 -104.059285845075340 -274.973140171595960
43.885377671983505 -96.873920864529083 -277.516442192925350
46.129041290283205 -95.747261047363281 -274.231597900390620
44.582632700602211 -89.790466308593750 -277.898000081380190
46.724638131948616 -89.117239145132217 -276.149843656099730
44.923999786376953 -85.827003479003906 -278.369995117187500
48.657485416957307 -83.956178937639507 -275.470790318080330
50.418649673461914 -79.388748168945313 -275.209991455078120
30.752799987792969 -110.184501647949220 -268.514007568359370
32.803433100382485 -108.616333007812500 -269.269081115722660
35.390389541099815 -104.281379436624460 -267.554512813173520
40.119628906250000 -102.943714686802450 -268.845432826450920
46.055900573730469 -100.656997680664060 -270.752990722656250
38.337699890136719 -99.872802734375000 -265.546997070312500
42.529373515735976 -98.743381847034797 -267.221183083274130
47.869327891956679 -97.678027066317469 -267.671272971413370
49.124267578125000 -90.213834126790360 -267.375325520833310
51.505624771118164 -81.678375244140625 -269.058746337890620
52.466598510742187 -79.770301818847656 -265.644012451171870
52.174999237060547 -77.721298217773438 -269.622985839843750
52.638150533040367 -75.805049896240234 -267.311828613281250
52.234798431396484 -71.724098205566406 -267.626007080078120
52.507701873779297 -67.710197448730469 -265.677001953125000
30.229400634765625 -107.722999572753910 -263.665985107421870
35.125716845194496 -103.227917353312180 -262.579833984375000
39.868698120117187 -101.017997741699220 -263.838012695312500
36.322766621907554 -98.453356001112198 -260.286387125651060
41.820584846265390 -96.841718962698266 -260.852089621804000
47.960700108454780 -94.544430659367492 -262.205385648287230
44.436948776245117 -92.830398559570313 -258.578002929687500
49.463295676491477 -91.414709264581859 -259.995362715287630
54.020899772644043 -89.100599288940430 -259.096755981445310
52.117198944091797 -82.680801391601562 -261.586990356445310
52.616940307617185 -80.570458984374994 -261.244000244140640
53.412399927775063 -76.217408498128250 -260.004745483398440
52.304000854492187 -69.738700866699219 -259.615997314453120
53.307206630706787 -69.068869113922119 -260.428813934326170
54.050916671752930 -62.426366806030273 -259.070500691731750
55.046100616455078 -57.872501373291016 -258.239013671875000
37.216333601209854 -95.686732821994354 -254.383997599283840
41.204600095748901 -95.261268615722656 -255.139748573303220
46.432201385498047 -94.018302917480469 -257.476989746093750
38.270301818847656 -91.740600585937500 -253.621002197265620
42.832260767618813 -91.375733269585510 -253.430277506510410
48.435796499252319 -89.711953401565552 -254.007970333099370
53.754049301147461 -87.401350021362305 -256.491744995117190
51.321350097656250 -85.758926391601563 -252.628498077392580
55.047942933582121 -82.687338692801333 -254.170001075381320
56.026996612548828 -75.621449334280825 -253.945856366838740
56.703882778392121 -68.919790604535265 -253.823088702033540
59.784298896789551 -67.661300659179687 -251.729000091552730
57.356617198270911 -61.726211772245520 -254.485527487362130
60.489908738569781 -61.830945448441938 -251.811184969815340
57.512649536132813 -57.760650634765625 -255.971496582031250
62.415798187255859 -57.740898132324219 -251.733993530273440
37.297932942708336 -91.607100168863937 -248.777832031250000
41.990521638289742 -89.659104720405907 -248.166783208432410
48.012684822082520 -88.168499755859372 -247.727099609374990
43.303125381469727 -86.094774246215820 -246.389247894287110
49.906478052553922 -84.630878614342734 -246.427697223165750
55.187208493550621 -82.118604024251297 -247.251750310262050
57.846362113952637 -76.687973022460938 -246.882125854492190
60.697437763214111 -75.833238601684570 -246.442497253417970
58.845466613769531 -68.497800191243485 -250.258666992187500
61.971477985382080 -68.440828800201416 -246.939844131469730
63.529775619506836 -61.886587460835777 -247.223375956217440
65.191883087158203 -56.453450520833336 -248.122502644856780
68.028322219848633 -52.683124542236328 -244.555000305175780
68.460440063476568 -48.906200408935547 -245.300402832031240
41.849899291992188 -87.633760070800776 -242.473800659179690
47.354650497436523 -86.633052825927734 -242.672500610351560
43.686066945393883 -85.012217203776046 -240.517333984375000
48.796167237418040 -83.168150493076865 -239.946108136858270
54.300858146265931 -81.315295169228008 -240.445158305921040
52.041099548339844 -79.277702331542969 -237.828994750976560
56.960883670383026 -77.185693952772354 -239.593388027615020
61.593066215515137 -74.431032816569015 -240.382251739501950
64.394532945421005 -70.021955702039932 -238.971223619249140
66.805000305175781 -68.015899658203125 -237.441497802734370
65.881462097167969 -63.213220977783202 -242.255999755859360
67.398112297058105 -61.406975030899048 -239.259625434875490
68.954938741830674 -54.889680715707634 -239.555884728064910
69.874345259232953 -47.914437033913352 -239.570906205610780
70.171300252278641 -42.402466456095375 -238.927001953125000
49.200613403320311 -81.693766784667972 -233.663666788736980
53.515419769287107 -80.264881896972653 -233.995797729492180
51.087674617767334 -78.340410232543945 -232.138250350952150
56.333038217881146 -76.384112189797790 -232.796941420611200
61.294058407054230 -73.995957318474268 -233.274704877068020
63.340522059687864 -70.337966918945312 -232.550297489872690
67.753586769104004 -67.345006942749023 -233.357187271118160
69.474479675292969 -62.471442631312776 -233.246285574776780
71.317425881662672 -54.773876928514049 -233.204096148090970
71.486019897460935 -47.836279869079590 -233.220151519775380
71.614127309698802 -41.514489424856087 -232.498735929790290
50.471199035644531 -80.673899332682296 -228.199671427408840
51.828748703002930 -79.081150054931641 -226.865493774414060
55.396467885663434 -75.422160979240175 -226.243355535691790
60.156599680582680 -73.553532918294266 -227.702000935872410
57.844500541687012 -71.324799537658691 -225.588376998901370
62.776583247714569 -68.951235665215393 -225.990999009874140
68.303476969401046 -67.081134372287323 -226.721333821614590
65.391349792480469 -64.909847259521484 -224.441497802734370
69.986121784557000 -62.884795622392133 -225.772046175870030
74.877343919542099 -60.815777248806427 -225.505109998914920
72.722400665283203 -55.398050308227539 -228.016998291015620
76.008387883504227 -53.621562480926514 -225.732707977294920
72.606681823730469 -46.909559631347655 -227.747201538085930
75.436987559000656 -47.851566314697266 -225.678876241048190
72.476613044738770 -41.701138019561768 -226.970375061035160
75.327378523977174 -41.327983655427630 -224.734055368523850
72.653662109375006 -34.909760284423825 -227.402999877929690
74.315739440917966 -35.085199737548827 -224.184197998046870
55.947180938720706 -73.743858337402344 -221.368399047851570
57.975953615628754 -69.732400160569412 -219.298923198993380
61.901266256968178 -67.607054074605301 -219.762624104817720
63.552539008004324 -62.981028420584543 -218.128606523786260
69.653027648925786 -61.542815856933593 -219.499838867187490
74.212699890136719 -61.418598175048828 -219.835006713867190
71.029115041097000 -57.535733540852867 -217.242497762044280
77.322831587357953 -55.046936208551578 -219.442864157936780
82.872533162434891 -53.506483713785805 -218.066332499186190
78.432859420776367 -47.546389579772949 -219.955799102783200
82.021900177001953 -48.592484156290688 -217.433331807454440
77.262148100754317 -40.417920605889684 -219.445413523706890
80.651424407958984 -40.666899681091309 -216.637996673583980
78.042726690118968 -35.551936929876156 -219.045181274414060
82.095585414341514 -33.438613891601563 -217.507999965122760
82.242787361145020 -27.226562500000000 -216.870872497558590
60.491901397705078 -66.084396362304687 -215.490005493164060
62.696211214418767 -61.683351587366175 -212.693184746636290
69.903678894042969 -59.702200147840713 -213.104887220594610
64.698966556125214 -56.981222364637588 -211.737887912326390
69.814696448189878 -55.011225019182476 -211.723678588867190
76.038161754608154 -53.784775018692017 -212.605751037597660
82.353134155273437 -52.175132751464844 -215.377665201822910
78.190301895141602 -50.982149124145508 -210.239997863769530
83.920989227294925 -48.664044952392580 -212.286499786376960
89.563416798909500 -48.010750452677406 -210.944834391276030
84.460283362347141 -40.878112958825156 -212.634825996730630
88.057651519775391 -40.716150283813477 -209.401500701904300
80.043899536132812 -35.774101257324219 -215.298004150390620
83.934388104607081 -33.597052854650158 -213.195530610926000
88.754433949788407 -33.026466369628906 -210.041664123535160
85.579577975802948 -27.785722096761067 -213.820661756727420
90.867127158425077 -26.758167960427024 -210.696999983354060
95.317401885986328 -24.774049758911133 -208.693504333496090
90.510225296020508 -21.846474647521973 -212.936748504638670
97.154399871826172 -20.091224670410156 -209.425502777099610
64.803428104945596 -55.445358276367188 -207.050000871930790
69.465132649739587 -54.308246612548828 -205.609200032552080
74.801286969866069 -53.255128587995259 -205.438855852399540
66.189498901367188 -49.342800140380859 -206.089996337890620
70.045687507180602 -49.467829535989203 -205.159469604492190
76.373611898983228 -48.873723422779754 -204.753236658432910
84.098608163686905 -46.928161914531998 -204.873001098632810
90.068409729003903 -45.551870346069336 -206.197999572753900
94.578399658203125 -44.513099670410156 -207.337997436523440
91.792961120605469 -40.720730708195610 -204.871768657977750
96.289674758911133 -42.692999839782715 -203.644248962402340
92.143733342488602 -33.764458179473877 -206.455245971679690
96.178677029079864 -33.541188769870331 -203.379221598307280
92.900511169433599 -27.362199783325195 -207.257501220703120
97.885705245168580 -26.237968444824219 -205.397263376336350
102.780165354410810 -25.804783185323078 -202.761164347330720
99.608486720493858 -20.469656535557338 -207.334001813616080
104.352666945684520 -19.577280952816917 -204.168142409551710
106.349400329589840 -15.414059829711913 -204.919799804687500
108.803001403808590 -16.089099884033203 -202.070999145507810
72.290149688720703 -45.874549865722656 -198.599502563476560
77.890841764562268 -46.919623655431408 -198.023824355181520
83.417810821533209 -46.660669708251952 -197.890800476074220
88.236103057861328 -46.792999267578125 -196.607994079589840
79.347148895263672 -44.102899551391602 -195.487998962402340
84.787211418151855 -43.535350799560547 -196.865247726440430
91.123270852225161 -42.470370973859517 -198.181858607700890
97.642070388793940 -40.344639968872073 -197.929199981689460
102.181499481201170 -38.480800628662109 -196.720993041992190
99.031266530354813 -33.988833745320640 -200.111495971679690
104.170997619628910 -37.359001159667969 -195.761001586914060
100.731998443603520 -28.928150177001953 -200.187500000000000
105.213126182556150 -26.616349935531616 -198.737752914428710
108.944999694824220 -23.960399627685547 -196.011993408203120
107.351165771484370 -21.227133433024090 -199.422668457031250
109.875933837890630 -19.271239852905275 -196.911334228515610
111.395461449256320 -13.554835466238169 -197.877770057091340
112.529998779296870 -8.641779899597168 -196.219993591308590
79.603632609049484 -47.102032979329429 -192.891331990559910
83.935711860656738 -45.733600139617920 -192.025876998901370
89.313914707728799 -45.558642796107698 -192.713285173688600
78.550799778529580 -42.844428471156526 -191.670285906110480
83.883886064801899 -41.595657348632812 -190.419857933407740
91.331228347051706 -40.771476200648713 -191.166763305664060
97.304347111628601 -40.962107144869293 -191.658922635591950
99.184670584542417 -36.910300118582590 -189.362712315150670
105.053061962127690 -35.511500358581543 -190.737437248229980
109.869400024414060 -33.932019805908205 -188.551599121093740
111.755561351776120 -24.494631171226501 -190.737752914428710
112.531323340631300 -19.801258210212954 -191.364420244770660
116.228996276855470 -17.717899322509766 -187.593994140625000
113.913889567057300 -13.642318778567844 -191.630835639105900
116.175624847412110 -12.710309982299805 -188.544496536254880
114.556001451280380 -5.791987710528904 -191.261779785156250
116.194799804687510 -6.129579973220825 -188.377401733398440
116.501998901367190 -1.780410051345825 -187.802001953125000
85.272267659505204 -40.381000518798828 -185.592999776204440
90.265385219029014 -40.469714300973074 -184.396856035505010
96.355265299479171 -40.312817255655922 -183.821334838867190
85.753824234008789 -35.825698852539063 -183.558254241943360
91.064825948079431 -35.873506418863933 -183.483935546874990
98.291334364149307 -35.410744984944664 -183.572445339626740
104.585908369584520 -34.117226340553977 -183.811907681551840
111.103785923549110 -32.262092999049592 -184.542001996721550
113.834400177001950 -26.817640113830567 -185.354798889160150
117.352132670084630 -25.042620086669920 -182.968933105468750
114.069999694824220 -21.676850318908691 -186.494003295898440
118.074703922978160 -20.032107317889178 -183.422333893952550
119.186799621582030 -12.780286331176757 -183.752321777343750
119.276499430338550 -5.716897779040867 -183.557388305664060
119.610571725027900 -1.444218133177076 -183.166427612304690
122.763999938964840 -1.870280027389526 -180.582000732421870
92.261667887369796 -38.037183125813804 -178.682001749674470
97.258949279785156 -38.072151184082031 -178.402999877929690
92.421200678898742 -33.779715464665337 -177.005230243389430
98.478711296530335 -34.719223471248853 -176.547939524931050
104.773461268498350 -33.671091886667107 -176.378846975473270
111.032498168945310 -32.742150306701660 -177.395999145507800
116.261001586914060 -31.557600021362305 -175.667999267578120
112.643199920654300 -29.479360580444336 -176.228698730468750
119.282579522383840 -26.295373816239206 -176.999367964895160
124.202003479003910 -25.312999725341797 -173.800003051757810
120.486923804649930 -20.363630881676308 -178.450386634239780
124.863407841435190 -19.510651835688837 -175.903185809100110
119.815502166748050 -15.773999691009521 -178.988502502441410
125.257887946234800 -13.068279972782841 -177.278258712203410
130.189801025390640 -11.311234092712402 -174.316397094726570
125.678000450134280 -5.862652540206909 -178.288875579833980
132.892332712809240 -5.488720854123433 -175.011500040690090
137.501502990722660 -4.000280141830444 -174.172004699707030
126.752556694878480 0.017661566225191 -179.252334594726560
133.265143258231030 0.280956719070673 -177.587356567382810
140.266766716452200 1.192855775684995 -176.109470143037700
144.486495971679690 3.132834970951080 -174.854248046875000
143.796005249023440 4.816730022430420 -177.007003784179690
98.548455374581479 -32.272914341517854 -171.630859375000000
104.797473706697160 -32.837552723131679 -169.629527041786590
109.823599243164070 -33.617899322509764 -171.627801513671870
108.336002349853520 -29.949950218200684 -170.614997863769530
111.849110921223950 -28.961344612969292 -170.050557454427090
119.157834370930980 -26.428858280181885 -169.630999247233060
125.803428649902340 -24.119000026157924 -170.669854300362720
127.336834589640300 -20.154808521270752 -170.402083079020170
131.418418884277340 -19.674424807230633 -169.788249969482420
127.655201721191400 -14.998959922790528 -171.484597778320310
133.132999420166020 -13.381696462631226 -171.205049896240240
138.798999023437490 -11.464895820617675 -168.600997924804690
134.709996541341160 -8.138693332672119 -173.129333496093750
140.229410508099730 -6.383476523792043 -171.188411937040430
144.346798706054700 -4.658122014999390 -169.302200317382810
142.495002746582030 -1.961799979209900 -172.970993041992190
147.133083343505860 1.074542770492068 -170.240960439046230
148.533144269670770 6.557828562600272 -170.499282836914060
150.872670491536470 6.338559786478679 -167.636662801106780
104.960166931152340 -31.739933013916016 -165.360832214355470
108.430999755859370 -30.504400253295898 -163.671997070312500
112.515625000000000 -29.759512424468994 -162.630249023437500
119.174466959635410 -26.997999954223634 -162.955136108398450
124.771999782986110 -24.510899649726021 -162.093222724066830
128.271859305245530 -22.643599918910436 -162.193431309291300
133.030465698242180 -20.647900009155272 -162.445733642578120
139.488200378417960 -18.842559814453125 -162.209997558593760
145.170997619628910 -17.245349884033203 -159.800003051757810
148.330993652343750 -9.769980430603027 -159.690002441406250
148.591353472541360 -5.054079939337338 -162.340117510627290
150.788497924804690 -3.901810050010681 -159.933502197265620
149.571876525878910 -1.139375362545252 -164.533998489379880
151.752190726143970 1.259477442573934 -162.497571672712040
153.357539250300480 8.247533137981709 -163.312461266150850
155.599998474121090 12.205249786376953 -160.896499633789060
114.661003112792970 -30.567199707031250 -158.065994262695310
116.246002197265620 -31.696100234985352 -155.593994140625000
118.717713492257260 -28.999142510550364 -157.242854527064740
125.754546425559300 -25.185091018676758 -155.733907526189630
128.255996704101560 -23.089532852172852 -156.946670532226560
132.875267537434890 -20.543799845377603 -155.360869344075520
140.222334120008670 -17.598044501410591 -155.635333591037320
144.410003662109370 -16.554500579833984 -157.281005859375000
147.641819347034810 -14.223573771390049 -155.755271218039780
152.840751647949220 -10.529520034790039 -154.175750732421870
149.592002868652340 -7.474889993667603 -159.074501037597660
153.427030226763550 -5.635767628164852 -155.747206295237820
157.830505371093750 -4.511095046997070 -153.086502075195310
154.403709165511600 0.726482040068555 -157.345224688130030
160.460251808166500 1.957313238643110 -154.102625846862790
156.162802124023440 7.875444030761718 -158.714599609375000
160.836856297084270 8.273296322141375 -156.055783952985480
167.079499562581390 8.123315056165060 -153.752417246500640
172.059005737304690 10.499799728393555 -152.986999511718750
161.798999362521700 12.756044493781197 -157.304999457465270
168.270101928710940 13.771429920196534 -155.958300781249990
174.620446099175350 13.531911108228895 -153.610221015082460
362.262329101562500 -143.192998250325530 -148.858001708984370
359.281997680664060 -140.163997650146480 -147.643501281738280
361.412246704101560 -140.965000152587890 -146.814498901367190
127.477584203084310 -25.742100079854328 -149.809499104817720
130.035995483398440 -23.540800094604492 -145.630004882812500
132.261874198913570 -21.129956245422363 -148.494688034057620
138.761305588942320 -17.522530629084660 -149.146847064678500
142.322502136230470 -15.961450099945068 -146.582000732421870
146.784385094275850 -15.086684520427998 -148.719768817608180
154.056181474165470 -12.338032809170810 -148.119545676491470
159.179000854492190 -11.343100070953369 -145.675994873046870
155.984197998046880 -6.617367982864380 -151.732800292968760
160.650563115658970 -5.884393080421116 -149.605564946713660
165.311801147460930 -4.342089986801147 -147.492401123046880
162.305875778198240 -0.976220376789570 -150.907749176025390
167.895731412447420 0.467310561726873 -149.099268399752110
173.290331522623690 2.935773255924384 -147.120747884114590
169.802997589111330 6.210219979286194 -151.695247650146480
175.295440673828120 7.389979209899902 -149.171080932617200
180.842287336077020 9.695154190063477 -147.028570992606030
177.311004638671870 12.175799846649170 -151.715499877929690
181.314361572265620 12.824672785672275 -149.359818892045470
358.652333577473940 -137.078111436631960 -143.662109375000000
361.638711111886150 -138.252999441964280 -143.073715209960940
357.478548916903430 -133.687454223632810 -140.415273492986500
361.284500122070310 -134.737495422363280 -139.516998291015620
134.000001271565760 -18.937341690063477 -142.197166442871090
137.328498840332030 -16.800950050354004 -142.573997497558590
139.939365733753560 -15.608854467218572 -141.799091685902000
147.379306499774630 -14.060546141404371 -141.906001164362980
154.303554958767360 -12.721800062391493 -141.650332980685760
160.491997855050220 -10.987468583243233 -141.612141200474330
164.175003051757810 -7.667009830474854 -145.529998779296870
168.059248606363920 -6.376499970753987 -142.251583099365230
173.308711460658490 -3.851385695593698 -140.655713762555790
170.169006347656250 -1.605630040168762 -145.526000976562500
175.798916498819980 0.381142122050126 -142.346583684285490
179.613164265950530 2.973158419132233 -140.664332071940090
177.727005004882810 4.877289772033691 -145.067001342773440
182.323694082406860 8.042079228621264 -142.717617328350370
185.752494812011720 9.631370067596436 -139.220001220703120
184.423004150390620 12.210850238800049 -144.762504577636720
187.470078688401430 14.749192237854004 -141.308922400841340
352.244491577148440 -129.498992919921870 -136.781501770019530
357.081830342610660 -130.285082499186190 -136.725415547688810
351.941400146484400 -127.226199340820320 -133.382595825195320
356.582168579101560 -126.933834075927730 -133.125082651774080
146.934331258138030 -17.490800221761067 -132.246337890625000
136.313995361328130 -15.824899673461914 -137.597000122070310
141.062399291992190 -14.388119888305663 -136.438198852539070
146.240999221801760 -14.198524951934814 -135.932376861572270
154.255142211914060 -13.848471505301339 -135.610571725027910
160.936501820882170 -12.460574865341187 -134.975997924804690
166.148699951171860 -10.532040882110596 -134.288999938964850
169.263996124267580 -8.820020198822022 -134.621749877929690
174.919111463758670 -6.415048890643650 -134.043889363606780
182.196670532226560 -5.341086546579997 -131.671997070312500
186.315994262695310 -4.552700042724609 -131.623992919921870
176.996994018554690 -2.476419925689697 -138.333999633789060
180.580167134602870 0.644683132568995 -137.644836425781250
188.602005004882810 4.184725046157837 -132.955497741699220
184.857997894287110 6.759587526321411 -137.310001373291020
188.890934244791680 8.047038650512695 -134.075268554687510
192.550994873046870 10.118200302124023 -132.033996582031250
190.464767456054690 14.305961535527157 -135.925000704251800
193.418301391601570 16.202379989624024 -133.212500000000010
195.311752319335940 20.256900310516357 -133.202247619628910
346.264007568359370 -123.575996398925780 -125.703002929687500
350.176437377929690 -123.869063377380370 -127.997812747955320
356.458185369318190 -123.150635459206330 -129.276911648837000
351.853405761718760 -119.713598632812510 -125.225598144531250
356.326199340820320 -119.425798797607430 -126.293901062011710
147.243499755859380 -18.104949951171875 -129.732002258300780
154.250000000000000 -17.621099472045898 -125.547996520996090
154.714331732855900 -15.521244578891331 -129.377000596788210
160.860834757486970 -14.650558312733969 -128.228166580200200
167.676500320434570 -11.557289361953735 -127.511437416076660
174.105000422551090 -7.776193031897912 -127.784538269042970
181.522090565074560 -5.249529968608510 -127.450273687189280
188.326429094587040 -4.209141390664237 -126.710287911551330
191.127250671386720 4.344647526741028 -128.899250030517580
196.524571010044640 2.778431858335222 -126.452287946428570
201.114753723144530 3.430004954338074 -125.333749771118160
191.042125701904300 8.094234943389893 -130.411375045776370
195.339704160337110 8.513955911000570 -128.019814385308170
202.864769568810090 8.130519353426420 -126.019153888408950
192.061004638671870 12.421400070190430 -131.445999145507810
196.939473202354040 14.244031504580850 -128.755999916478200
203.029685974121090 15.130293786525726 -127.027750968933110
209.504848773662870 15.486992249122032 -125.711845984825710
216.711000230577270 16.847088813781738 -125.940110948350690
222.136667887369780 17.133166631062824 -125.406997680664060
198.456504821777340 21.190850257873535 -129.857002258300780
203.354667663574220 20.901849428812664 -127.800834655761720
210.175003051757810 20.387649536132813 -127.106998443603520
216.236000061035160 19.374624729156494 -127.307252883911130
345.894012451171870 -123.260002136230470 -123.873001098632810
347.291503906250000 -121.755500793457030 -122.621501922607420
345.783996582031250 -119.469001770019530 -117.947998046875000
349.176666259765620 -118.180428641183040 -121.474476405552450
356.004249572753910 -116.101624488830570 -123.552373886108400
350.844083150227850 -112.282001495361330 -119.226334253946940
355.446250915527340 -111.268500645955400 -119.917750040690110
160.576995849609370 -16.526800155639648 -123.861999511718750
163.449000040690090 -15.455933252970377 -122.863332112630200
168.046631662469170 -13.035331575494064 -121.137104636744450
172.134246826171870 -10.110739946365356 -119.594249725341800
175.733579936780420 -7.101746860303376 -120.892790141858550
182.299250284830720 -4.382394969463348 -120.615749359130860
189.070131429036450 -3.558919350306193 -120.615732828776050
195.021798706054680 -3.080264043807984 -119.607600402832030
202.311748504638670 -2.561662554740906 -118.118249893188480
197.641598510742200 1.678411597013473 -123.929199218750000
203.223867797851570 2.461377286911011 -122.634733072916660
209.655786786760610 1.910389667376876 -120.121071406773150
216.304715837751100 3.315441421100072 -118.568285260881690
198.590001424153660 8.225096543629965 -124.078333536783860
203.172694279597350 8.449581402998705 -122.142691979041470
210.066895334344170 7.827038915533769 -122.430630332545230
217.093069893973220 8.039799315588814 -121.245143345424110
223.458356584821420 8.639840739113945 -119.289785657610210
228.148498535156250 10.577499866485596 -118.250999450683590
198.914505004882810 13.079449653625488 -124.361000061035160
203.348751068115230 12.257424831390381 -122.357999801635740
217.712855747767860 13.042257036481585 -123.800427028111050
224.281598917643240 14.213360087076824 -122.470466613769530
229.732917785644530 15.240266799926758 -119.459917068481450
228.082992553710940 18.520500183105469 -123.288002014160160
345.177801513671850 -116.385600280761720 -114.609599304199220
346.723495483398440 -116.898498535156250 -117.340000152587890
345.308200073242180 -110.953900909423820 -112.410399627685550
348.198499043782530 -109.800500869750980 -115.838166554768880
356.247009277343750 -107.833999633789060 -117.486000061035160
345.547991943359360 -104.111798095703120 -111.603398132324220
349.672002792358400 -104.245812416076660 -114.477937221527100
355.018001556396480 -103.882500648498540 -115.285623550415040
350.104671902126710 -99.159390767415360 -111.898220486111110
354.285664876302060 -99.075632731119796 -112.285001118977860
170.300994873046870 -12.772600173950195 -116.652999877929690
172.640802001953120 -10.925574111938477 -115.230799865722660
176.139455621892750 -7.450959075580943 -114.742455222389920
181.240600585937500 -3.857439017295838 -113.235199737548830
189.281501770019530 -2.577185034751892 -115.380001068115230
196.716799926757800 -2.812234020233154 -114.861601257324220
203.013817527077410 -2.817362763664939 -113.471362720836300
209.265998840332030 -2.725630044937134 -111.604000091552730
184.428504943847660 -2.186805069446564 -112.520999908447270
189.266598510742200 -1.780119979381561 -113.209500885009760
195.692501068115230 -2.185772448778153 -112.019500732421870
210.745333353678380 -1.570028732220332 -114.110500335693360
217.154572259812140 0.145529762974807 -114.429904756091890
223.778123855590820 1.611520551145077 -113.416624069213870
231.156777275933170 2.958611090977987 -112.036000569661450
236.381996154785160 4.058315038681030 -110.939998626708980
224.152500152587890 5.473087549209595 -116.855997085571290
230.910390218098970 7.968506097793579 -114.988166385226780
237.548200988769540 7.414599943161011 -111.962800598144530
241.958999633789060 10.446900367736816 -110.946998596191410
233.473142351422980 14.684428351266044 -116.602856227329800
238.514109293619780 13.819944275750053 -113.403445773654510
242.678253173828120 14.795425176620483 -111.860500335693360
343.011371612548830 -108.733999252319340 -107.867624282836910
342.378588508157180 -103.609941370346970 -106.794882830451510
342.839113675630980 -96.870984884408799 -106.644962017352770
349.561000823974610 -95.340499877929688 -109.468626022338870
354.261505126953120 -94.746147155761719 -109.649501800537110
343.382919311523440 -90.007465998331710 -104.766749064127610
349.611136881510390 -90.668446350097653 -106.511000061035160
354.149505615234370 -92.349750518798828 -108.261001586914060
346.261993408203120 -85.717399597167969 -103.675003051757810
350.232655843098940 -85.612569173177079 -103.984001159667970
176.429000854492190 -7.975619792938232 -109.626998901367190
180.465332031250000 -4.199328343073527 -108.958000183105470
191.143249511718750 -4.670592486858368 -105.490249633789060
195.600445217556430 -5.755295541551378 -105.426222907172300
203.325690636268040 -3.744384618905874 -106.091384300818820
210.039564049762220 -3.263189564580503 -106.716043555218230
216.226308969350950 -3.456639216496394 -105.993538489708530
224.248166402181000 -3.497500061988831 -104.519166310628250
231.407143729073650 -3.285530022212437 -104.961571829659600
238.231666564941410 -3.507289965947469 -104.386666615804030
243.288997650146480 -3.184665024280548 -104.087251663208010
183.594601440429700 -1.556684190034866 -108.002799987792970
188.846156193659850 0.367997611371370 -107.133154649000900
195.881211130242600 -0.699130636688910 -106.173052737587380
200.796598815917970 -2.092178022861481 -106.006700134277340
217.323501586914060 -2.433500051498413 -108.885002136230470
224.569713047572550 -1.630441286734172 -108.852142333984370
231.518923245943510 -0.798229849682404 -108.376078092134920
237.767840736790700 1.073166413134650 -108.110684445029800
244.892388237847230 0.963226215706931 -106.515666537814670
251.373614971454320 1.420862711966038 -104.816307654747590
256.344497680664060 3.222015142440796 -103.849498748779300
236.352996826171870 6.630432486534119 -109.906000137329100
245.205638538707380 7.689073692668568 -108.792454112659800
251.951547796076000 8.601567225022750 -106.462818492542610
257.756874084472660 8.777468681335449 -104.343874931335450
245.933200073242180 13.436599922180175 -109.769599914550780
252.142749786376950 12.853875160217285 -107.744377136230470
257.703250885009770 12.371649742126465 -105.457000732421870
338.575988769531250 -101.693000793457030 -102.441001892089840
340.404998779296870 -105.633003234863280 -103.426002502441410
337.736269124348950 -96.516559855143228 -99.442947387695313
339.486663818359370 -97.643300374348954 -102.202667236328120
338.064453125000000 -90.094345092773438 -99.618945728648796
339.852996826171870 -88.780700683593750 -102.835002899169920
336.948498196072020 -82.518872155083557 -99.404549916585282
342.885684967041020 -82.724281787872314 -102.376875400543210
349.724997384207600 -82.086543491908486 -102.794856480189740
335.470923790564880 -75.381014897273133 -98.797608008751496
343.289248148600280 -75.787174860636398 -101.177666346232100
348.184997558593750 -76.853549957275391 -101.271499633789060
331.250000000000000 -67.729449272155762 -97.166925430297852
335.817732747395840 -69.214746093749994 -98.928273010253903
342.407081604003910 -69.039023717244461 -99.794433593750000
346.351013183593750 -71.635002136230469 -99.878898620605469
330.370107014973940 -61.694733513726128 -97.541811625162765
336.302442762586790 -61.746155632866753 -98.609688652886291
340.881327311197940 -62.513899485270180 -98.580599466959640
330.346084594726560 -54.756999969482422 -97.315715154012040
335.881805419921870 -55.108600234985353 -97.901290130615237
340.001007080078130 -57.790100097656250 -98.192497253417969
331.335998535156250 -49.850000381469727 -96.870101928710938
334.305999755859370 -49.750499725341797 -97.404602050781250
287.907598876953100 -17.967999649047851 -97.256080627441406
294.273503621419250 -18.671616872151692 -97.450333913167313
300.238830566406250 -18.682266871134441 -97.047765096028641
304.419006347656250 -17.915199279785156 -96.537696838378906
253.250000000000000 -9.843635082244873 -97.692699432373047
259.249877929687500 -10.877862572669983 -97.948624610900879
266.275375366210940 -11.851080060005188 -97.877600669860840
272.952913920084650 -12.632368326187134 -97.808608373006180
279.867854527064710 -12.811595712389265 -98.352407182965962
287.374554104275150 -13.079677846696642 -99.444182925754120
294.456665039062500 -12.918227513631185 -99.711983362833664
300.504875183105470 -14.462487578392029 -98.065137863159180
191.624328613281250 -3.567836682001750 -102.330665588378910
195.809917449951170 -4.642505069573720 -99.612634023030594
203.799268282376800 -5.113222699898940 -99.750515571007355
210.026649026309740 -5.606764078140259 -99.514059627757348
217.013077955979550 -4.973925443796011 -99.750884422889129
224.274108886718750 -5.032527817620172 -99.632934570312500
231.266417185465490 -5.122609138488770 -99.664633433024093
239.301002502441410 -5.683308362960815 -100.741249084472660
245.506751060485840 -6.246901214122772 -100.489482402801510
252.123168945312500 -6.254208286603292 -100.883249918619800
259.065176571116750 -6.355759999331306 -99.974705864401429
265.896600341796900 -5.787265992164612 -100.034369659423830
273.560143607003340 -6.274118576731000 -99.707149505615234
280.320668538411440 -5.717700031068590 -100.759767320421010
285.667428152901780 -6.908142805099487 -101.737713405064170
191.968002319335940 1.489619970321655 -102.468002319335940
196.925998263888890 -0.696736986438433 -100.945099724663630
200.549801635742200 -2.052667951583862 -100.853259277343750
253.181999206542970 -1.592230021953583 -103.256496429443360
259.601536051432280 0.784146698315938 -102.050533548990880
266.215499877929690 1.276610734562079 -100.771167755126950
272.720153808593750 0.877938827643028 -100.390230618990390
279.555122375488280 -0.202883757650852 -101.290375709533690
261.028393554687510 7.520594024658204 -102.738000488281240
265.681719098772310 7.431992803301130 -100.830143519810260
270.279998779296870 6.129809856414795 -100.468002319335940
336.055496215820310 -94.633300781250000 -95.748901367187500
336.191779242621520 -89.719588385687928 -93.649744669596359
334.836383526141840 -82.855207589956436 -92.888076782226562
331.298665364583310 -74.599810282389328 -92.147610982259110
332.909006754557310 -77.604583740234375 -93.574517567952469
328.489738132642690 -68.715852156929344 -93.144917695418641
323.457427978515620 -61.407757077898296 -92.025493076869424
326.638877868652340 -62.046250343322754 -95.151887893676758
317.021255493164060 -53.413162231445313 -90.839074134826660
321.424997965494810 -55.085419246128630 -93.687537783668148
326.071754455566410 -54.707725524902344 -96.293924331665039
310.616658528645810 -46.068200429280601 -90.629834493001297
315.389890882703980 -48.390555275811089 -92.406344943576386
322.360775417751710 -47.709210713704429 -95.264711168077255
327.980121612548830 -47.403574466705322 -96.080738067626953
303.278330485026060 -38.788333892822266 -90.579366048177079
308.075825410730720 -40.910905950209674 -92.012975804945995
314.570843036358160 -40.518207550048828 -94.182068457970246
321.604069301060290 -41.182285581316265 -95.019057137625552
327.501247406005860 -41.527987003326416 -95.315299034118652
294.797004699707030 -31.931462526321411 -90.981388092041016
300.593631142064170 -34.272289577283360 -92.172515066046458
307.736996737393440 -34.283245606855914 -94.105599836869672
315.375546542080940 -33.736472563310102 -94.626646562056109
322.320999145507810 -34.774817148844399 -94.739550272623703
281.317504882812500 -24.141224861145020 -91.085100173950195
287.051158704255780 -26.054415753013210 -92.228373477333477
293.753445095486090 -27.210727585686577 -93.953694661458329
301.464933268229170 -26.776779937744141 -95.154858907063797
308.244748433430970 -26.718382994333904 -94.842148462931320
314.907296752929710 -28.114489936828612 -94.405970001220709
260.491500854492190 -17.569049835205078 -90.205097198486328
267.598004150390640 -17.454560089111329 -91.129760742187500
273.104881735408980 -18.992988249834845 -93.011418062097889
279.578263132195730 -20.656126323499176 -94.065715589021380
286.656802368164050 -21.564330291748046 -95.528321075439450
294.228668212890620 -21.927799860636394 -96.258733113606766
301.916998291015600 -21.468500137329102 -96.166481018066406
307.979426792689710 -20.329000200544083 -95.644042968750000
206.270004272460940 -9.734450340270996 -91.625297546386719
210.652200317382810 -10.108002090454102 -92.298619079589841
217.863796997070320 -10.180395889282227 -91.268580627441409
223.380996704101560 -10.170890331268311 -89.999851226806641
246.308670043945310 -12.236153602600098 -89.620000203450516
252.572536761944120 -10.852394544161283 -92.547253535344055
259.480723063151060 -13.217249976264107 -92.889600541856552
265.738581339518250 -15.349708159764608 -93.943391164143875
273.169242858886720 -16.096825361251831 -96.138376235961914
197.083999633789060 -4.721466700236003 -94.988967895507813
203.628498840332040 -6.666698074340820 -94.871879577636719
209.780001322428380 -7.778699318567912 -94.597808837890625
217.202076838566710 -7.327449248387263 -94.872823275052582
224.113846998948300 -7.790296958043025 -93.333992004394531
230.835571289062500 -6.866024391991751 -92.936171395438052
239.509717668805790 -7.095887184143066 -93.036569867815288
243.774599202473950 -8.075109259287517 -92.965585835774746
248.425746917724610 -9.238967418670654 -92.635822296142578
263.089324951171870 -6.407199859619141 -96.029134114583329
334.266250610351560 -81.764301300048828 -87.115999221801758
330.492359508167620 -74.979008067737922 -85.433881586248219
332.688659667968750 -78.114199320475265 -86.951899210611984
324.205546985973000 -67.295500321821734 -85.030881708318532
327.170223659939210 -69.947289784749344 -86.029021792941620
317.376510620117190 -59.678550720214844 -83.550052642822266
321.323225541548310 -62.628914226185195 -85.982813748446375
315.341442532009520 -54.818938785129120 -85.360355377197266
319.032999674479190 -57.665332794189453 -88.249565124511719
309.317125320434570 -46.937037706375122 -85.901330947875977
312.707000732421870 -50.173855251736114 -87.169289482964416
301.519952683221730 -40.033594948904856 -85.476627894810264
305.645098876953110 -43.174369812011719 -86.820970153808588
289.692993164062500 -30.651599884033203 -85.781196594238281
293.602736623663650 -33.103021220157018 -86.131200690018503
298.565999348958310 -36.776633580525719 -86.573682149251297
275.504669189453120 -23.936666488647461 -84.439033508300781
280.135716029575920 -25.556721142360143 -85.875928061349057
286.403131103515650 -28.534113311767577 -86.289612325032550
254.565994262695310 -16.945400238037109 -83.715499877929688
258.393992106119810 -18.362550099690754 -85.575499216715500
266.899693415715150 -18.097469036395733 -85.729246286245498
272.413814544677730 -21.323362469673157 -86.471736907958984
277.459503173828120 -23.328450202941895 -88.484249114990234
224.919331868489590 -10.972678343454996 -88.546599070231125
230.252334594726560 -11.550846735636393 -85.638799031575516
239.237503051757810 -12.905250072479248 -83.626548767089844
245.258163452148440 -13.613699913024902 -84.271783192952469
252.874499850802950 -11.346819983588325 -85.505833519829650
258.677934773763010 -12.483073298136393 -85.605940755208337
263.428166707356750 -15.506566683451334 -85.619848887125656
231.568333943684910 -8.360903263092041 -88.257082621256515
236.279747009277340 -7.584400057792664 -87.608074188232422
245.082125663757320 -8.085592478513718 -85.970144271850586
251.127286638532350 -8.950812884739467 -84.477913992745542
328.553670247395810 -74.113332112630204 -81.952468872070313
317.765014648437500 -66.056396484375000 -80.358703613281250
322.117803955078100 -67.930340576171872 -81.840519714355466
325.830668131510440 -71.478932698567704 -81.365066528320313
315.652853829520100 -61.683800561087473 -80.009664263044087
319.140991210937500 -64.847850799560547 -81.798801422119141
310.661804199218750 -52.537220001220703 -77.223600769042974
312.918999305138240 -55.793145693265473 -80.175399780273438
308.690048944382450 -48.038214002336773 -78.965376354399183
301.395679820667620 -40.693158583207563 -79.450336456298828
305.258247375488280 -43.511087894439697 -79.131063461303711
288.505000523158460 -31.344242640904017 -77.407028198242188
294.210633930407080 -33.845489200792812 -79.216741863049961
298.251196289062480 -36.553039550781250 -79.216699218749994
267.617004394531250 -25.093250274658203 -76.945598602294922
273.082045782180050 -26.508504776727584 -78.762142363048739
279.519691467285160 -28.501843810081482 -78.755781173706055
285.622998918805820 -29.661142894199916 -79.979828970772886
258.863594563802110 -18.664093399047850 -78.235246785481777
265.427238827659950 -20.383233115786599 -79.462604704357332
270.364486694335940 -22.581600189208984 -81.519950866699219
233.541666666666660 -13.469499905904135 -80.869232177734375
238.626286097935260 -13.030214173453194 -80.183799743652344
245.324749946594240 -13.383018672466278 -78.668000221252441
252.693143572126100 -14.416960035051618 -78.772478921072818
258.212683426706410 -13.503494764629163 -79.751384132786796
262.949508666992190 -16.067050457000732 -81.791000366210938
246.290860857282350 -7.631092888968332 -81.082827976771767
252.117417653401700 -8.481339097023010 -80.581907272338867
311.028015136718750 -59.383998870849609 -73.220100402832031
308.183398437499990 -54.979259872436522 -72.655349731445313
307.169754028320310 -47.465625762939453 -74.585948944091797
301.274490356445310 -38.801950454711914 -74.632350921630859
305.535995483398440 -42.562400817871094 -73.719100952148438
268.562988281250000 -31.170400619506836 -71.180900573730469
271.069488525390620 -31.133600234985352 -72.936000823974609
279.819000244140620 -32.648949384689331 -73.806437492370605
286.523624420166020 -32.581737518310547 -73.932587623596191
293.226501464843750 -33.887750625610352 -73.682250976562500
262.312988281250000 -23.687599182128906 -73.558097839355469
266.573998345269100 -26.965188980102539 -74.151788499620224
270.473495483398440 -29.441500663757324 -74.396900177001953
258.545144217354900 -19.743828637259348 -73.891401018415181
262.621002197265620 -23.169000625610352 -75.113098144531250
