ply
format ascii 1.0
element vertex 251
property double x
property double y
property double z
end_header
16.476699829101563 17.540699958801270 -193.851005554199220
17.690599441528320 18.033100128173828 -193.307006835937500
14.290208299954733 22.043754339218140 -191.652833302815760
18.137700271606445 20.978519821166991 -189.104998779296860
18.254299799601238 23.595366160074871 -184.959335327148440
18.118633270263672 26.230466842651367 -184.236333211263030
10.362199783325195 24.205699920654297 -179.492996215820310
9.979013442993164 29.552683512369793 -176.094334920247410
12.581007664020245 29.530438349797176 -178.386614285982570
13.558013343811036 35.524673207600912 -176.648335774739590
15.780576926011305 43.040345998910759 -177.694537823016820
8.416549682617188 32.023700714111328 -173.343994140625000
8.095152378082275 36.245554410494293 -169.773304865910460
11.618787527084351 36.970349788665771 -171.818746566772460
9.498815059661865 39.969799041748047 -167.250999450683590
13.044141208424287 43.017105775720935 -169.766000186695780
14.637062311172485 49.714450836181641 -169.568876266479490
14.025985854012626 57.379958016531809 -168.148860386439740
2.359665989875794 44.805059051513673 -163.002203369140630
6.802470048268636 43.196242196219309 -163.894810267857140
11.496550083160400 45.055600166320801 -164.868999481201170
2.261059999465942 48.207401275634766 -159.570999145507810
7.907455784933908 47.442943028041292 -160.549710954938600
12.549946721394857 50.112380218505862 -162.670601399739580
14.268020057678223 57.479953511555991 -162.843399047851560
13.857166608174643 64.160416603088379 -162.597333272298190
10.196400165557861 71.158248901367188 -162.471000671386720
12.247640132904053 69.666639709472662 -161.813198852539070
10.284199714660645 76.281700134277344 -159.675994873046870
10.476499557495117 74.570297241210937 -160.184997558593750
1.739889517426491 51.436274528503418 -157.768749237060550
6.680424765536659 50.890573401200143 -157.323210866827710
10.962066332499186 51.562900543212891 -158.912999471028660
1.439087113365531 58.758400917053223 -156.050374984741210
6.389923810958862 56.530412673950195 -154.034500122070310
12.270214285169329 57.310213906424387 -156.213500976562500
0.436650509480387 62.798765818277992 -153.876998901367190
14.012288835313585 64.061156378851990 -155.202555338541660
14.176486587524414 71.422333272298175 -156.342135620117180
12.908171449388776 77.946565355573384 -155.436713082449780
7.226680074419294 86.235928671700620 -156.065783909388950
11.961808443069458 84.243625640869141 -154.095417022705080
6.515078663825989 90.223361968994141 -153.537124633789060
6.975419264573318 58.802869650033806 -151.065386258638820
10.496700286865234 60.033901214599609 -151.341995239257810
1.647387202490460 64.210744684392751 -150.650819258256400
6.825710427761078 63.729905128479004 -148.010501098632800
11.977715345529409 63.891876807579628 -150.178539569561310
0.832974422590009 69.397986275809146 -147.032856532505580
14.053735664912633 71.579385484967915 -149.086142403738850
4.245126724243164 79.568265279134110 -146.930338541666660
14.518341700236002 78.265707651774093 -148.622417449951170
4.366250038146973 82.229301452636719 -145.554000854492190
13.710570001602173 85.260439682006833 -149.024099731445320
0.993919598204749 92.985442025320864 -150.694000244140620
7.360955556233724 93.381943596733947 -151.392111884223080
12.348081171512604 91.999781131744385 -148.439623832702640
0.627592674671457 98.207445584810699 -147.511075533353360
7.129408783382839 98.813277350531678 -148.044278462727870
11.298019981384277 97.637379455566403 -146.707800292968760
1.698819160461426 72.270343235560830 -143.326714651925220
6.532878084616228 70.860213886607781 -142.611135309392750
12.064663800326260 71.918828790838063 -143.446909124201000
1.216594657727650 77.239850725446431 -141.417144775390620
4.022140026092529 75.529098510742188 -138.789993286132810
13.535245375199752 77.777927051890984 -141.508908358487220
1.943424258913313 83.916570390973774 -140.909999302455360
4.104567587375641 84.827173233032227 -143.256496429443360
14.677200078964233 85.259216944376632 -141.630583445231110
3.978029966354370 89.385101318359375 -139.885505676269530
14.586881724270908 92.458654230291188 -142.384635231711660
-3.980329990386963 102.333999633789060 -139.839996337890620
-1.621590417623520 101.032202148437510 -143.840200805664070
10.088700294494629 102.093002319335940 -145.276992797851560
13.190527757008871 99.392349667019317 -142.229498121473510
-0.608826806680078 105.873762221563420 -142.024713425409230
6.928815252640668 106.325470419491040 -143.407353120691620
12.003253863408016 105.236998924842250 -140.930462176983180
0.618822428087393 111.668778313530820 -139.781889173719610
6.836396950941819 112.059231684758120 -139.841999934269840
11.310699939727783 110.352500915527340 -138.714996337890620
1.418608771430121 79.401765611436630 -137.242221408420140
5.061371114518908 78.469866434733078 -135.817777845594610
13.448200225830078 80.461601257324219 -137.774002075195310
0.027262723920020 85.241850072687328 -134.691952792080970
4.303050041198731 82.269851684570313 -132.658004760742190
14.490076626048369 85.809622371897973 -134.966999727136940
-1.300465965270996 90.671859741210937 -133.206198120117190
15.384729957580566 92.144894409179685 -134.617300415039070
-5.085149765014648 102.277999877929690 -137.192001342773440
15.376919065202985 98.715686979747957 -134.407097226097480
-5.030569098212502 106.638272372159090 -135.672181562943900
14.618218161843039 105.778364354913890 -135.203819274902340
-4.911684215068817 112.437667210896810 -133.629914601643890
-1.368147648870945 114.130500248500280 -137.026071820940300
7.940736472606659 115.484875679016110 -137.332002639770510
12.849847064298743 112.732470792882580 -134.683060589958640
-4.267226696014404 118.434000651041670 -132.046335856119780
-0.429733868688345 119.980312347412110 -134.461438179016110
7.152317206064860 119.914999643961590 -134.820999993218320
11.519842965262276 118.827427455357140 -132.851573399135050
0.940129660069942 124.608500162760420 -132.297332763671870
5.619441588719686 124.628331502278640 -132.315170288085940
2.349939982096354 87.661633809407547 -130.455998738606780
4.638716618220012 85.667817433675125 -130.196665445963530
15.812000274658203 88.420700073242188 -131.529006958007810
0.190775416791439 92.418448055491723 -128.732942020191870
4.145463466644287 92.145896911621094 -126.792663574218750
16.320733070373535 92.185966491699219 -129.710998535156250
-4.069769859313965 102.065002441406250 -125.389999389648440
-1.796688931186994 97.378273518880206 -126.682066853841150
16.018833319346111 99.621332804361984 -129.533334096272800
-5.492214918136597 105.313499450683590 -125.686500549316410
16.266930946936974 106.571231548602770 -128.291385357196500
17.454500198364258 108.010002136230470 -125.200996398925780
-6.655928876664904 114.293554517957900 -128.549779256184910
15.589423006231135 113.077227505770590 -128.059818267822270
17.441999435424805 110.252998352050780 -125.197998046875000
-6.206966638565064 120.108833948771160 -128.142751693725590
-3.481110095977783 122.081001281738280 -131.352996826171870
13.791500031948090 120.803812026977540 -128.152125358581540
-5.328430005482265 126.517214638846260 -126.993785858154300
-0.688052414701535 127.657924358661360 -129.970153808593750
7.533832708994548 127.898401387532560 -129.578599039713540
12.272566731770834 126.341600036621090 -127.121601359049480
-4.267669975757599 132.331001281738280 -125.803251266479490
-0.332283368799835 133.903813362121580 -126.544937610626220
6.752034425735474 133.880060195922850 -126.228937149047850
11.073866526285807 131.749664306640620 -125.157000223795580
1.426224023103714 137.708496093750000 -124.729499816894530
4.190919876098633 137.679992675781250 -124.691001892089840
-0.191155383220086 100.120807941143330 -123.057461078350360
-4.700027465820313 106.508876800537110 -122.133250236511230
-2.006413681060076 104.968699645996100 -120.133300018310550
-6.026670047215053 112.529571533203130 -119.597570146833150
18.167959976196290 112.994999694824220 -123.163999938964850
-8.012805143992106 120.266834259033200 -122.678501129150390
16.535766601562500 121.651331583658860 -123.169001261393230
18.208799362182617 122.242996215820310 -119.580001831054690
-8.253103596823555 128.280214582170770 -121.405571528843470
15.486815159137432 127.098308269794170 -122.518077556903550
18.293300628662109 124.267997741699220 -119.652000427246090
-7.053631133503384 134.302834404839420 -121.335888332790800
9.290805339813232 136.293502807617190 -123.674499511718750
13.292868413423237 134.261737221165700 -121.676314906070100
-6.012181237339973 140.712125778198240 -119.871499538421630
-0.342594543099403 140.988933308919260 -122.430865478515630
7.255407333374023 140.998000295538650 -121.672894528037620
12.481364318302699 140.181785583496090 -119.018000466482970
-4.880920112133026 146.520503997802730 -118.107000350952150
0.106015335768461 146.683165232340490 -119.268665949503590
6.163789098913020 146.347818548029120 -118.878090598366480
-1.353255013624827 108.006668090820310 -116.067334493001300
-5.075228903028700 114.025332980685760 -115.174000210232210
-3.107353369394938 110.869333902994800 -114.878664652506520
-6.745420058568318 119.849666595458980 -114.099168141682940
-8.345825672149658 127.571140834263390 -112.617285592215400
-9.913637674771822 133.948998084435090 -113.781922560471760
-11.134200096130371 140.916000366210940 -112.350667317708330
-9.170448339902437 141.670461801382200 -115.653615511380710
14.041633288065592 142.050333658854160 -117.164334615071610
-11.336060142517089 147.780203247070320 -111.386599731445320
-7.991892708672418 148.380997551812070 -114.492611779106990
-0.648068524897099 150.082500457763670 -117.301750183105470
7.998578919304742 149.108444213867190 -116.656111823187930
11.671274781227112 148.130500793457030 -115.088624954223630
-6.615717185868157 154.632888793945310 -112.604223039415150
-0.314548525027931 154.955312728881840 -114.655499935150150
7.168815517425538 155.060899353027340 -113.707600021362310
11.526199976603190 152.160334269205720 -112.829666137695310
-5.343619823455811 159.662994384765620 -110.626998901367190
-0.104216624796391 160.217999267578140 -111.566699218750000
5.596485058466594 159.893666585286470 -111.530831654866530
-5.087200164794922 122.467002868652340 -110.180000305175780
-6.020578956604004 127.918898773193360 -108.736898803710940
-3.508690118789673 124.356002807617190 -107.893997192382810
-7.360571408271790 133.790000915527340 -107.074401092529300
-11.226466496785482 142.417002360026030 -108.087666829427080
-9.349725008010864 139.672601318359370 -105.868799591064460
-11.771649932861328 148.308898925781250 -107.926700592041020
-12.174269962310792 154.570498657226550 -107.065699386596680
-9.577106237411499 155.647750854492190 -109.698749542236330
12.045800209045410 153.822998046875000 -109.266998291015620
-12.014766587151421 161.641774495442720 -104.780665927463100
-7.441342383623123 162.000314712524410 -108.216311931610110
-0.272065120083945 163.441144670758920 -109.648000444684710
6.315547125680106 163.504571097237720 -109.570857456752240
-6.575863997141521 168.350066121419270 -105.402733357747390
-0.088293866316477 169.246066284179680 -106.415333557128900
4.768857479095459 167.729751586914060 -107.123748779296870
-3.830060005187988 172.539993286132810 -104.275001525878910
-0.084693825244904 173.323403930664060 -104.080599975585940
4.307690143585205 172.636993408203120 -104.394996643066410
-7.032584580508146 141.534362792968750 -102.198817166415130
-11.529166539510092 149.698664347330720 -102.460667928059890
-8.650136538914271 147.533427647181920 -100.451242719377790
-12.349899973188128 155.677498953683030 -100.293464660644530
-8.810497011457171 153.253856113978800 -97.563814435686382
-13.124250003269740 162.786358424595420 -100.449428013392860
-12.813309533255440 168.935572306315090 -100.272561572846910
-9.002436478932699 171.528666178385410 -102.837333679199220
-12.426824967066446 175.736001332600920 -98.501708348592118
-6.948211953043938 176.135126113891600 -101.596993923187260
-0.122081404924393 176.537001037597660 -102.191199493408210
4.224709987640381 174.061004638671870 -103.220001220703120
-11.611899852752686 181.194000244140620 -97.405300140380859
-6.609985494613648 182.953247833251960 -98.596529388427740
-1.715967965126038 182.602200317382820 -99.185121154785151
-5.653049945831299 187.985000610351560 -96.839500427246094
-3.645720005035400 188.018997192382810 -96.947998046875000
-8.758909821510315 157.229747772216800 -95.485750198364258
-12.095474958419800 162.351001739501950 -95.245525360107422
-9.437278175354004 161.756201171875010 -93.756379699707026
-13.330320103963215 169.177133178710930 -93.233098856608066
-9.762819925944010 168.220998128255220 -90.847368876139328
-14.687713368733723 176.312666829427090 -93.544505818684897
-14.454084616440992 183.541613065279450 -93.146176264836242
-14.501917614656335 190.070881563074440 -91.851335413315724
-7.997567474842072 190.538751602172850 -95.460700035095215
-13.657449960708618 196.735916137695310 -91.198625564575195
-8.962747955322266 195.912402343749990 -93.446340942382818
-11.815299987792969 172.171005249023440 -89.476997375488281
-9.721030235290527 172.091995239257810 -89.203697204589844
-13.006322330898708 176.738666110568570 -87.695122612847229
-14.569138453556942 182.517614511343140 -86.021952702448914
-17.743499755859375 192.261001586914060 -84.623798370361328
-16.798921585083008 190.398856026785720 -86.031199863978799
-18.230884845440205 198.137154212364780 -84.951830350435699
-16.885172314114040 196.937110053168400 -86.313566419813370
-18.463143825531006 204.280751228332520 -84.407344341278076
-16.122859764099122 203.967001342773440 -87.151139831542963
-18.904720306396484 209.892202758789070 -83.648320007324216
-17.557000478108723 210.249333699544280 -85.400967915852860
-15.893499374389648 191.140502929687500 -81.436550140380859
-18.353183746337891 198.831835428873690 -80.790200551350907
-17.531533559163410 198.329666137695310 -80.349599202473954
-19.183313115437826 204.793332926432300 -79.851259867350265
-20.323881058465865 211.455093383789060 -78.746876671200710
-21.931814193725586 218.778429303850460 -76.196628025599892
-18.259599685668945 205.962997436523440 -75.143699645996094
-17.401500701904297 206.481994628906250 -74.080200195312500
-19.523010063171387 211.978599548339840 -73.288368988037107
-21.324630737304688 218.909309974083530 -71.973592318021332
-22.233080164591470 224.069666544596340 -71.176306660970056
-23.375200271606445 230.354003906250000 -69.778503417968750
-20.812556639961574 225.737304687500000 -65.405321038287624
-22.257835006713869 232.266300201416020 -64.460650634765628
-23.573566754659016 237.265167236328120 -63.672434488932289
-18.789600372314453 226.731002807617190 -60.117698669433594
-20.439179992675783 232.699899291992180 -59.388030242919925
-21.948045383800160 237.638547030362220 -59.502054734663531
