ply
format ascii 1.0
element vertex 426
property double x
property double y
property double z
end_header
1.354040026664734 21.076999664306641 -31.241699218750000
1.482040047645569 20.961000442504883 -31.230699539184570
1.376039981842041 21.162000656127930 -31.080699920654297
1.246039986610413 21.020999908447266 -31.381700515747070
1.242040038108826 21.225000381469727 -31.180700302124023
1.399039983749390 20.909999847412109 -31.359699249267578
1.172039985656738 21.155000686645508 -31.343700408935547
1.517040014266968 21.107000350952148 -31.015699386596680
1.200039982795715 21.290000915527344 -30.990699768066406
1.121039986610413 21.334999084472656 -31.131700515747070
1.055040001869202 21.299999237060547 -31.270700454711914
1.328040003776550 21.235000610351563 -30.847700119018555
1.634039998054504 21.142000198364258 -30.898700714111328
1.475039958953857 21.193000793457031 -30.806699752807617
1.754040002822876 21.336000442504883 -31.144699096679688
1.746039986610413 21.403999328613281 -31.287700653076172
1.417039990425110 21.197000503540039 -30.653699874877930
1.220039963722229 21.263000488281250 -30.700700759887695
1.271039962768555 21.225999832153320 -30.528699874877930
1.602040052413940 21.190000534057617 -30.681699752807617
1.522040009498596 21.170000076293945 -30.515699386596680
1.073040008544922 21.322000503540039 -30.802700042724609
1.101040005683899 21.253999710083008 -30.543699264526367
1.425040006637573 21.167999267578125 -30.369699478149414
1.777040004730225 21.191999435424805 -30.735700607299805
1.726040005683899 21.172000885009766 -30.510700225830078
1.281039953231812 21.187999725341797 -30.259700775146484
1.103039979934692 21.209999084472656 -30.294700622558594
1.606040000915527 21.575000762939453 -30.820699691772461
1.377040028572083 21.179000854492188 -30.127700805664063
1.184039950370789 21.202999114990234 -30.100700378417969
1.504040002822876 21.128999710083008 -30.239700317382813
1.312039971351624 21.173999786376953 -29.950700759887695
1.016039967536926 21.257999420166016 -30.172700881958008
1.572039961814880 21.136999130249023 -30.064699172973633
1.466040015220642 21.138000488281250 -29.946699142456055
1.073040008544922 21.299999237060547 -30.011699676513672
1.182039976119995 21.250999450683594 -29.894699096679688
1.645040035247803 21.166000366210937 -30.328699111938477
1.313040018081665 21.663000106811523 -30.324699401855469
1.773040056228638 21.186000823974609 -30.212699890136719
1.477040052413940 21.645999908447266 -30.246700286865234
1.613039970397949 21.141000747680664 -29.869699478149414
1.023040056228638 21.584999084472656 -30.256700515747070
1.090039968490601 21.614999771118164 -30.111700057983398
1.359040021896362 21.670000076293945 -30.122699737548828
1.217039942741394 21.674999237060547 -30.194700241088867
1.731040000915527 21.166999816894531 -30.002700805664062
0.993036985397339 21.507999420166016 -30.016700744628906
1.135040044784546 21.639999389648438 -30.366699218750000
1.215039968490601 21.236000061035156 -29.728700637817383
1.516039967536926 21.622999191284180 -30.439699172973633
1.332039952278137 21.232000350952148 -29.603700637817383
1.118039965629578 21.319999694824219 -29.609699249267578
1.093039989471436 21.337999343872070 -29.768699645996094
1.451040029525757 21.183000564575195 -29.705699920654297
1.219040036201477 21.236999511718750 -29.434700012207031
1.505040049552918 21.180000305175781 -29.552700042724609
1.389039993286133 21.211000442504883 -29.391700744628906
1.635040044784546 21.176000595092773 -29.666700363159180
1.002040028572083 21.531999588012695 -29.816699981689453
0.985037028789520 21.517999649047852 -29.615699768066406
1.069039940834045 21.634000778198242 -29.710699081420898
1.202039957046509 21.679000854492187 -29.823699951171875
1.108039975166321 21.311000823974609 -29.314699172973633
1.231040000915527 21.697000503540039 -29.651699066162109
1.393039941787720 21.686000823974609 -29.650699615478516
1.364040017127991 21.690999984741211 -29.815700531005859
1.079040050506592 21.621999740600586 -29.927700042724609
1.574040055274963 21.187999725341797 -29.377700805664062
1.552039980888367 21.625999450683594 -29.795700073242187
1.115039944648743 21.663000106811523 -29.517700195312500
1.529039978981018 21.631000518798828 -29.569700241088867
1.636039972305298 21.559999465942383 -29.671699523925781
0.987039983272552 21.509000778198242 -29.427700042724609
1.290040016174316 21.194999694824219 -29.243700027465820
1.361039996147156 21.684999465942383 -29.486700057983398
1.753039956092835 21.208000183105469 -29.789699554443359
1.695039987564087 21.506000518798828 -29.818700790405273
1.769039988517761 21.284000396728516 -29.607700347900391
1.233039975166321 21.680000305175781 -30.018699645996094
1.131039977073669 21.197000503540039 -29.175699234008789
1.045040011405945 21.336000442504883 -29.147699356079102
1.237040042877197 21.188999176025391 -29.052700042724609
1.400040030479431 21.198999404907227 -29.082700729370117
1.471040010452271 21.208000183105469 -29.242700576782227
1.082039952278137 21.194999694824219 -28.990699768066406
1.013039946556091 21.340000152587891 -28.975700378417969
1.099040031433106 21.680999755859375 -29.188699722290039
0.971036970615387 21.566999435424805 -29.117700576782227
1.050040006637573 21.638999938964844 -29.334699630737305
1.376039981842041 21.701999664306641 -29.208700180053711
1.285040020942688 21.142000198364258 -28.907699584960937
1.562039971351624 21.191999435424805 -29.056699752807617
1.530040025711060 21.642000198364258 -29.178699493408203
1.479040026664734 21.183000564575195 -28.922700881958008
1.222040057182312 21.761999130249023 -29.247699737548828
1.490039944648743 21.646999359130859 -29.365699768066406
1.628039956092835 21.197000503540039 -29.212699890136719
0.963038027286530 21.489000320434570 -28.934700012207031
1.213039994239807 21.736999511718750 -29.402700424194336
1.130040049552918 21.194999694824219 -28.819700241088867
1.593039989471436 21.520999908447266 -28.998699188232422
1.623039960861206 21.586000442504883 -29.299699783325195
1.253039956092835 21.783000946044922 -29.054700851440430
1.717039942741394 21.336999893188477 -29.163700103759766
1.430040001869202 21.721000671386719 -28.966699600219727
1.310039997100830 21.684999465942383 -28.869699478149414
1.008039951324463 21.641000747680664 -28.900699615478516
1.509039998054504 21.579000473022461 -28.869699478149414
1.029039978981018 21.330999374389648 -28.772699356079102
1.693040013313294 21.336999893188477 -28.988700866699219
1.730039954185486 21.275999069213867 -29.312700271606445
1.146039962768555 21.704000473022461 -28.859699249267578
1.724040031433106 21.495000839233398 -29.095699310302734
1.078040003776550 21.336999893188477 -28.605699539184570
1.203040003776550 21.167999267578125 -28.681699752807617
0.959035992622375 21.506000518798828 -28.763700485229492
1.217039942741394 21.708999633789063 -28.711700439453125
1.095039963722229 21.337999343872070 -28.445699691772461
1.412039995193481 21.639999389648438 -28.726699829101563
0.990037977695465 21.639999389648438 -28.686700820922852
1.103039979934692 21.707000732421875 -28.599700927734375
1.354040026664734 21.672000885009766 -28.546699523925781
1.245040059089661 21.243000030517578 -28.420700073242187
1.515040040016174 21.561000823974609 -28.608699798583984
0.964037001132965 21.569000244140625 -28.467699050903320
1.294039964675903 21.044000625610352 -28.737699508666992
1.198040008544922 21.714000701904297 -28.454700469970703
1.307039976119995 21.045999526977539 -28.549699783325195
0.982038974761963 21.458000183105469 -28.345699310302734
1.534039974212647 21.115999221801758 -28.631700515747070
1.566040039062500 21.277999877929688 -28.461700439453125
1.033040046691895 21.701999664306641 -28.406700134277344
1.493039965629578 21.593000411987305 -28.389699935913086
1.662039995193481 21.415000915527344 -28.797700881958008
1.668040037155151 21.320999145507813 -28.670700073242187
1.134039998054504 21.327999114990234 -28.250699996948242
1.470039963722229 21.027000427246094 -28.744699478149414
1.344040036201477 21.674999237060547 -28.322700500488281
1.461040019989014 21.114000320434570 -28.424699783325195
1.356040000915527 21.191999435424805 -28.301700592041016
1.613039970397949 21.138000488281250 -28.807699203491211
1.580039978027344 21.719999313354492 -28.864700317382813
1.089040040969849 21.340000152587891 -28.077699661254883
1.252040028572083 21.281000137329102 -28.102699279785156
0.970037996768951 21.452999114990234 -28.041700363159180
1.412039995193481 21.649000167846680 -28.179700851440430
0.954038977622986 21.599000930786133 -28.271699905395508
1.188040018081665 21.735000610351563 -28.287700653076172
1.220039963722229 21.736999511718750 -28.086700439453125
1.383039951324463 21.256999969482422 -28.006700515747070
1.054039955139160 21.728000640869141 -28.169700622558594
0.957036972045898 21.635999679565430 -28.059700012207031
1.200039982795715 21.288999557495117 -27.888700485229492
1.035040020942688 21.315000534057617 -27.918699264526367
1.357040047645569 21.681999206542969 -28.005699157714844
1.528040051460266 21.507999420166016 -28.097700119018555
1.542039990425110 21.489000320434570 -28.270700454711914
1.087039947509766 21.739999771118164 -27.999700546264648
1.459040045738220 21.167999267578125 -28.181699752807617
1.529039978981018 21.273000717163086 -28.079700469970703
0.915037989616394 21.552000045776367 -27.925699234008789
1.472040057182312 21.596000671386719 -27.936700820922852
1.541039943695068 21.246000289916992 -28.292699813842773
1.552039980888367 21.458000183105469 -27.950700759887695
1.210039973258972 21.750000000000000 -27.883699417114258
1.474040031433106 21.274999618530273 -27.877700805664063
0.987039983272552 21.715000152587891 -27.866699218750000
1.077039957046509 21.250000000000000 -27.772699356079102
1.348039984703064 21.260999679565430 -27.753700256347656
1.215039968490601 21.281000137329102 -27.614700317382812
1.033040046691895 21.277000427246094 -27.579700469970703
1.134039998054504 21.315000534057617 -27.452699661254883
1.221040010452271 21.754999160766602 -27.628700256347656
0.923036992549896 21.311000823974609 -27.753700256347656
0.900038003921509 21.622999191284180 -27.771699905395508
0.970037996768951 21.738000869750977 -27.658700942993164
1.408040046691895 21.659999847412109 -27.760700225830078
0.990037977695465 21.399999618530273 -27.411699295043945
1.362040042877197 21.281000137329102 -27.526699066162109
0.840036988258362 21.474000930786133 -27.755699157714844
1.389039993286133 21.638000488281250 -27.509700775146484
1.109040021896362 21.795000076293945 -27.761699676513672
1.470039963722229 21.572999954223633 -27.632699966430664
1.120040059089661 21.743999481201172 -27.464700698852539
0.873037993907928 21.315999984741211 -27.550699234008789
1.510040044784546 21.517999649047852 -27.783700942993164
1.514039993286133 21.343999862670898 -27.631700515747070
0.819037020206451 21.670999526977539 -27.576700210571289
1.295040011405945 21.705999374389648 -27.374700546264648
1.049039959907532 21.858999252319336 -27.572700500488281
1.482040047645569 21.354000091552734 -27.441699981689453
1.108039975166321 21.340000152587891 -27.267700195312500
0.723035991191864 21.524999618530273 -27.648700714111328
0.999037027359009 21.722000122070313 -27.343700408935547
1.497040033340454 21.549999237060547 -27.365699768066406
1.160040020942688 21.743000030517578 -27.288700103759766
0.878039002418518 21.778999328613281 -27.445699691772461
0.730036020278931 21.288000106811523 -27.668699264526367
1.274039983749390 21.298999786376953 -27.259700775146484
0.834035992622375 21.371000289916992 -27.318700790405273
1.409039974212647 21.658000946044922 -27.277700424194336
0.756036996841431 21.254999160766602 -27.462699890136719
1.148040056228638 21.340000152587891 -27.105699539184570
0.917035996913910 21.420000076293945 -27.182699203491211
1.041039943695068 21.419000625610352 -26.989700317382812
0.852038025856018 21.490999221801758 -27.027700424194336
1.269039988517761 21.731000900268555 -27.171699523925781
1.033040046691895 21.774999618530273 -27.072700500488281
1.201040029525757 21.767000198364258 -27.006700515747070
0.913039028644562 21.778999328613281 -27.212699890136719
0.934038996696472 21.482000350952148 -26.890699386596680
1.362040042877197 21.687000274658203 -27.039699554443359
1.294039964675903 21.306999206542969 -26.968700408935547
0.741038024425507 21.395999908447266 -27.166700363159180
1.191040039062500 21.336999893188477 -26.839700698852539
1.473039984703064 21.570999145507813 -27.118700027465820
1.086040019989014 21.802000045776367 -26.892700195312500
1.431040048599243 21.301000595092773 -27.072700500488281
1.432039976119995 21.291999816894531 -27.235700607299805
1.326040029525757 21.722000122070313 -26.884700775146484
0.963038027286530 21.871000289916992 -26.964700698852539
0.823037981987000 21.850000381469727 -27.091699600219727
1.010040044784546 21.430000305175781 -26.747699737548828
0.782037973403931 21.788999557495117 -27.320699691772461
1.523040056228638 21.419000625610352 -27.219699859619141
1.451040029525757 21.613000869750977 -26.915700912475586
0.740037977695465 21.558000564575195 -26.868700027465820
0.970037996768951 21.905000686645508 -27.397699356079102
0.667035996913910 21.400999069213867 -26.991699218750000
0.685037970542908 21.302000045776367 -27.279699325561523
1.495040059089661 21.372999191284180 -26.947700500488281
1.382040023803711 21.320999145507813 -26.834699630737305
0.649038970470428 21.694000244140625 -27.265699386596680
0.706037998199463 21.674999237060547 -27.467699050903320
0.893037974834442 21.542999267578125 -26.687700271606445
1.021039962768555 21.429000854492188 -26.503700256347656
0.912038981914520 21.690000534057617 -26.566699981689453
1.212039947509766 21.340000152587891 -26.672700881958008
0.929036974906921 21.506999969482422 -26.385700225830078
1.018039941787720 21.830999374389648 -26.692699432373047
1.180040001869202 21.340000152587891 -26.514699935913086
0.981038987636566 21.711999893188477 -26.410699844360352
1.091040015220642 21.799999237060547 -26.513700485229492
1.195039987564087 21.798000335693359 -26.718700408935547
1.311040043830872 21.757999420166016 -26.591699600219727
0.928038001060486 21.322999954223633 -26.331699371337891
1.105039954185486 21.784999847412109 -26.347700119018555
0.968038976192474 21.613000869750977 -26.253700256347656
1.247040033340454 21.815999984741211 -26.452699661254883
1.360039949417114 21.334999084472656 -26.553699493408203
1.401039958000183 21.674999237060547 -26.732700347900391
1.101040005683899 21.290000915527344 -26.337699890136719
0.938036024570465 21.983999252319336 -26.611700057983398
1.003039956092835 21.995000839233398 -26.755699157714844
1.463039994239807 21.631000518798828 -26.531700134277344
1.389039993286133 21.746000289916992 -26.445699691772461
1.267040014266968 21.281000137329102 -26.332700729370117
1.499040007591248 21.531999588012695 -26.724700927734375
1.488039970397949 21.427000045776367 -26.595699310302734
0.801038980484009 21.966999053955078 -26.834699630737305
1.007040023803711 21.489000320434570 -26.146699905395508
0.987039983272552 21.607000350952148 -26.015699386596680
1.018039941787720 21.756999969482422 -26.180700302124023
0.956037998199463 21.775999069213867 -26.001699447631836
1.038040041923523 21.451000213623047 -25.986700057983398
1.180040001869202 21.798999786376953 -26.115699768066406
0.997038006782532 21.309999465942383 -26.101699829101563
1.103039979934692 21.840999603271484 -25.969699859619141
0.937036991119385 21.690999984741211 -25.827699661254883
1.290040016174316 21.770999908447266 -26.273700714111328
1.352040052413940 21.731000900268555 -26.115699768066406
1.288040041923523 21.763000488281250 -25.954700469970703
0.967038989067078 21.228000640869141 -25.966699600219727
0.839037001132965 21.208000183105469 -26.195699691772461
1.098039984703064 21.856000900268555 -25.810699462890625
0.921037971973419 21.558000564575195 -25.703699111938477
1.159039974212647 21.193000793457031 -26.157699584960938
0.993036985397339 21.142999649047852 -26.194700241088867
0.951036989688873 21.864999771118164 -25.711700439453125
1.334040045738220 21.931999206542969 -26.315700531005859
0.906038999557495 21.725000381469727 -25.655700683593750
0.895036995410919 21.610000610351562 -25.544700622558594
0.976037979125977 21.478000640869141 -25.573699951171875
0.863039016723633 21.665000915527344 -25.398700714111328
0.850039005279541 21.836000442504883 -25.487699508666992
1.092039942741394 21.895000457763672 -25.632699966430664
1.027040004730225 21.319999694824219 -25.718700408935547
1.239040017127991 21.804000854492187 -25.720699310302734
1.185039997100830 21.849000930786133 -25.468700408935547
0.969038009643555 21.937999725341797 -25.421699523925781
0.912038981914520 21.537000656127930 -25.275699615478516
0.803038001060486 21.823999404907227 -25.319700241088867
1.008039951324463 21.372999191284180 -25.323699951171875
1.347040057182312 21.763000488281250 -25.600700378417969
1.022040009498596 21.239999771118164 -25.453699111938477
1.086040019989014 21.943000793457031 -25.312700271606445
1.015040040016174 21.176000595092773 -25.613700866699219
0.864039003849030 21.677000045776367 -25.168699264526367
0.994040012359619 21.184999465942383 -25.799699783325195
1.293040037155151 21.808000564575195 -25.332700729370117
1.422039985656738 21.715999603271484 -25.735700607299805
0.900038003921509 21.469999313354492 -25.085699081420898
0.799036026000977 21.763999938964844 -25.049699783325195
0.765039980411530 21.871999740600586 -25.171699523925781
0.898038983345032 21.318000793457031 -25.040700912475586
0.902037024497986 21.965000152587891 -25.209699630737305
0.931035995483398 21.291999816894531 -25.211700439453125
1.039039969444275 21.996000289916992 -25.121700286865234
1.188040018081665 21.884000778198242 -25.188699722290039
1.157039999961853 21.926000595092773 -25.037700653076172
1.330039978027344 21.822999954223633 -25.069700241088867
0.947039008140564 21.152999877929687 -25.025699615478516
0.960039973258972 21.153999328613281 -24.798700332641602
0.841036021709442 21.459999084472656 -24.842699050903320
1.251039981842041 21.900999069213867 -24.855699539184570
0.901037991046906 21.302999496459961 -24.853700637817383
0.754037976264954 21.735000610351563 -24.899700164794922
1.447039961814880 21.804000854492187 -24.859699249267578
1.567039966583252 21.698999404907227 -24.892700195312500
0.995038986206055 21.038999557495117 -24.922700881958008
0.721036970615387 21.923999786376953 -25.017700195312500
0.888037025928497 22.003000259399414 -25.032699584960938
0.861037015914917 21.624000549316406 -25.014699935913086
1.468039989471436 21.753999710083008 -25.008699417114258
1.086040019989014 20.941999435424805 -25.016700744628906
1.603039979934692 21.604999542236328 -25.041700363159180
0.948037981987000 20.986999511718750 -25.104700088500977
0.909036993980408 21.115999221801758 -25.207700729370117
1.437039971351624 21.759000778198242 -25.213699340820313
1.582039952278137 21.575000762939453 -25.200700759887695
1.096040010452271 20.950000762939453 -25.195699691772461
1.251039981842041 21.011999130249023 -25.288700103759766
0.946039974689484 20.906999588012695 -25.306699752807617
1.511039972305298 21.666000366210938 -25.316699981689453
0.962037980556488 21.107999801635742 -25.369699478149414
1.443040013313294 21.725999832153320 -25.464700698852539
1.131039977073669 20.978000640869141 -25.441699981689453
0.987039983272552 21.017000198364258 -25.501699447631836
1.532039999961853 21.621999740600586 -25.564699172973633
1.098039984703064 20.975000381469727 -25.615699768066406
0.956037998199463 20.926000595092773 -25.685699462890625
1.210039973258972 21.065999984741211 -25.709699630737305
1.350039958953857 21.124000549316406 -25.772699356079102
1.072039961814880 20.959999084472656 -25.791700363159180
1.454040050506592 21.687000274658203 -25.931699752807617
1.201040029525757 21.122999191284180 -25.992700576782227
1.067039966583252 21.082000732421875 -26.068700790405273
1.440039992332459 21.881999969482422 -26.209699630737305
1.406039953231812 21.288000106811523 -26.210699081420898
1.525040030479431 21.997999191284180 -26.288700103759766
1.492040038108826 21.840999603271484 -26.356700897216797
1.480039954185486 21.599000930786133 -26.357700347900391
1.426040053367615 21.358999252319336 -26.385700225830078
0.814040005207062 22.083999633789063 -26.570699691772461
0.921037971973419 22.134000778198242 -26.725700378417969
0.918039977550507 22.072999954223633 -26.893699645996094
0.710039973258972 21.885999679565430 -26.973699569702148
0.967038989067078 22.045000076293945 -27.073699951171875
0.496039003133774 21.340000152587891 -27.079700469970703
0.668039977550507 21.815000534057617 -27.134700775146484
0.570035994052887 21.622999191284180 -27.136699676513672
0.632036983966827 21.267999649047852 -27.116699218750000
0.508040010929108 21.459999084472656 -27.220699310302734
0.525038003921509 21.246999740600586 -27.237699508666992
1.006039977073669 22.028999328613281 -27.257699966430664
0.568036973476410 21.513999938964844 -27.360700607299805
0.582036972045898 21.327999114990234 -27.398700714111328
1.039039969444275 22.059000015258789 -27.446699142456055
0.634038984775543 21.538999557495117 -27.517700195312500
0.619040012359619 21.305999755859375 -27.551700592041016
1.107040047645569 22.004999160766602 -27.629699707031250
1.554039955139160 20.988000869750977 -28.369699478149414
1.622040033340454 20.805999755859375 -28.356700897216797
1.404039978981018 20.948999404907227 -28.426700592041016
1.708039999008179 20.943000793457031 -28.463699340820312
1.527040004730225 20.863000869750977 -28.495700836181641
1.805040001869202 21.242000579833984 -28.514699935913086
1.690039992332459 21.108999252319336 -28.538700103759766
1.402040004730225 20.902000427246094 -28.590700149536133
1.599040031433106 20.954000473022461 -28.614700317382813
1.722040057182312 21.145999908447266 -28.693700790405273
1.825039982795715 21.318000793457031 -28.701700210571289
1.726040005683899 21.242000579833984 -28.842699050903320
1.673040032386780 21.666000366210938 -29.006700515747070
1.771039962768555 21.531999588012695 -29.278699874877930
1.836040019989014 21.447999954223633 -29.444700241088867
1.660040020942688 21.563999176025391 -29.514699935913086
1.768039941787720 21.479999542236328 -29.599700927734375
1.841040015220642 21.333000183105469 -29.829700469970703
1.456040024757385 21.694999694824219 -29.951700210571289
1.623039960861206 21.601999282836914 -29.958700180053711
1.731040000915527 21.474000930786133 -29.972700119018555
1.829040050506592 21.330999374389648 -30.021699905395508
1.549039959907532 21.670000076293945 -30.081699371337891
1.704040050506592 21.535999298095703 -30.115699768066406
1.817039966583252 21.358999252319336 -30.194700241088867
1.760040044784546 21.525999069213867 -30.283700942993164
1.644039988517761 21.643999099731445 -30.308700561523438
1.825039982795715 21.266000747680664 -30.342699050903320
1.094040036201477 21.641000747680664 -30.552700042724609
1.394039988517761 21.658000946044922 -30.561700820922852
1.796040058135986 21.548000335693359 -30.523700714111328
1.839040040969849 21.309000015258789 -30.512699127197266
1.646039962768555 21.586000442504883 -30.576700210571289
1.237040042877197 21.669000625610352 -30.625699996948242
1.856040000915527 21.431999206542969 -30.613700866699219
1.523040056228638 21.635000228881836 -30.693700790405273
1.908040046691895 21.277000427246094 -30.683700561523438
1.092039942741394 21.638999938964844 -30.791700363159180
1.738039970397949 21.497999191284180 -30.739700317382812
1.448040008544922 21.763999938964844 -30.790700912475586
1.296040058135986 21.694000244140625 -30.807699203491211
1.967039942741394 21.334999084472656 -30.829700469970703
1.511039972305298 21.631000518798828 -30.949699401855469
1.200039982795715 21.642000198364258 -30.984699249267578
1.699040055274963 21.465999603271484 -30.933700561523438
1.369040012359619 21.670000076293945 -31.041700363159180
2.054039955139160 21.339000701904297 -30.971700668334961
1.078040003776550 21.589000701904297 -31.072700500488281
1.831040024757385 21.288999557495117 -31.005699157714844
1.550040006637573 21.611999511718750 -31.100700378417969
1.655040025711060 21.493000030517578 -31.122699737548828
1.910040020942688 21.368999481201172 -31.208700180053711
1.899039983749390 21.416999816894531 -31.360700607299805
