ply
format ascii 1.0
element vertex 259
property double x
property double y
property double z
end_header
2.592040061950684 18.261999130249023 -25.976699829101563
2.650039911270142 18.447999954223633 -25.917699813842773
2.734040021896362 17.343000411987305 -25.840700149536133
2.591039896011353 18.625999450683594 -25.955699920654297
2.682039976119995 18.094999313354492 -25.954700469970703
2.592040061950684 18.261999130249023 -25.976699829101563
2.746040105819702 18.309999465942383 -25.981700897216797
2.527040004730225 18.488000869750977 -26.015699386596680
2.837039947509766 17.482999801635742 -25.927700042724609
2.697040081024170 17.666000366210938 -25.956699371337891
2.717040061950684 17.111999511718750 -25.918699264526367
2.632040023803711 17.941999435424805 -25.984699249267578
2.890039920806885 17.160999298095703 -25.925699234008789
2.767040014266968 17.809000015258789 -25.983699798583984
2.878040075302124 16.978000640869141 -25.921699523925781
2.639039993286133 17.343999862670898 -25.966699600219727
2.742039918899536 16.825000762939453 -25.924699783325195
2.756040096282959 18.476999282836914 -26.050699234008789
2.800040006637573 17.962999343872070 -26.011699676513672
2.611040115356445 17.517999649047852 -26.009700775146484
2.689039945602417 18.638000488281250 -26.103700637817383
2.893039941787720 17.652999877929688 -26.021699905395508
2.446039915084839 18.766000747680664 -26.138700485229492
2.944040060043335 17.309999465942383 -26.002700805664062
2.840039968490601 18.121999740600586 -26.072700500488281
2.887039899826050 16.746000289916992 -25.974700927734375
2.451040029525757 18.597999572753906 -26.139699935913086
2.575040102005005 17.701999664306641 -26.067699432373047
2.515039920806885 18.261999130249023 -26.116699218750000
2.551039934158325 18.080999374389648 -26.105699539184570
2.831039905548096 18.339000701904297 -26.110700607299805
2.653039932250977 17.202999114990234 -26.046699523925781
2.652040004730225 17.003000259399414 -26.040700912475586
2.567039966583252 17.865999221801758 -26.112699508666992
2.956039905548096 17.513999938964844 -26.062700271606445
2.912039995193481 17.858999252319336 -26.092699050903320
2.984040021896362 17.028999328613281 -26.030700683593750
2.493040084838867 18.423999786376953 -26.168699264526367
2.690040111541748 16.641000747680664 -26.033700942993164
2.651040077209473 16.812999725341797 -26.064699172973633
3.056040048599243 16.790000915527344 -26.035699844360352
2.609040021896362 18.802999496459961 -26.218700408935547
2.784039974212647 16.475000381469727 -26.042699813842773
3.038039922714233 17.173000335693359 -26.074699401855469
3.003040075302124 17.697999954223633 -26.131700515747070
2.800040006637573 18.606000900268555 -26.217699050903320
2.349040031433106 18.808000564575195 -26.267700195312500
2.630039930343628 17.565000534057617 -26.158700942993164
2.964040040969849 16.618000030517578 -26.066699981689453
3.087039947509766 17.409999847412109 -26.117700576782227
2.665040016174316 17.353000640869141 -26.150699615478516
2.950040102005005 18.142999649047852 -26.186700820922852
2.741039991378784 16.173999786376953 -26.071699142456055
3.094039916992188 19.139999389648438 -26.257699966430664
2.964040040969849 17.982999801635742 -26.189699172973633
2.638040065765381 16.354999542236328 -26.103700637817383
3.143039941787720 16.954000473022461 -26.106700897216797
2.942039966583252 18.350999832153320 -26.222700119018555
2.629040002822876 18.047000885009766 -26.237699508666992
2.575040102005005 18.284000396728516 -26.260700225830078
2.646039962768555 16.514999389648437 -26.131700515747070
2.515039920806885 18.958999633789062 -26.314699172973633
2.431040048599243 18.634000778198242 -26.306699752807617
3.051039934158325 18.957000732421875 -26.284700393676758
2.693039894104004 17.073999404907227 -26.184700012207031
2.746040105819702 16.020000457763672 -26.108699798583984
2.919039964675903 16.423000335693359 -26.129699707031250
3.092040061950684 18.312000274658203 -26.249700546264648
3.199039936065674 17.260000228881836 -26.167699813842773
3.112040042877197 17.864999771118164 -26.218700408935547
2.355040073394775 19.027000427246094 -26.361700057983398
2.883039951324463 16.243000030517578 -26.126699447631836
2.951040029525757 18.579999923706055 -26.286699295043945
3.162039995193481 17.534999847412109 -26.203699111938477
2.683039903640747 16.683000564575195 -26.186700820922852
3.142040014266968 17.708999633789063 -26.224700927734375
2.802040100097656 18.729999542236328 -26.325700759887695
2.674040079116821 17.694000244140625 -26.263700485229492
2.686039924621582 17.884000778198242 -26.283700942993164
2.695039987564087 18.891000747680664 -26.356700897216797
3.259040117263794 17.040000915527344 -26.190700531005859
2.948040008544922 19.118999481201172 -26.361700057983398
3.115040063858032 18.523000717163086 -26.308700561523438
2.927040100097656 18.841999053955078 -26.348699569702148
2.543040037155151 18.527999877929688 -26.356700897216797
3.148040056228638 18.138999938964844 -26.282699584960937
2.300040006637573 18.885000228881836 -26.408700942993164
2.738039970397949 17.525999069213867 -26.282699584960937
3.035039901733398 16.544000625610352 -26.190700531005859
2.629040002822876 16.094999313354492 -26.191699981689453
2.724040031433106 18.149000167846680 -26.330699920654297
3.093039989471436 16.691999435424805 -26.207700729370117
2.746040105819702 16.930999755859375 -26.254699707031250
2.413039922714233 18.756999969482422 -26.416700363159180
3.035039901733398 19.304000854492188 -26.406700134277344
2.779040098190308 17.170999526977539 -26.285699844360352
2.627039909362793 15.937999725341797 -26.215700149536133
2.633039951324463 19.052000045776367 -26.434700012207031
2.829040050506592 18.975000381469727 -26.414699554443359
2.804039955139160 17.381000518798828 -26.307699203491211
2.765039920806885 15.821999549865723 -26.207700729370117
2.670039892196655 16.243000030517578 -26.244699478149414
2.712039947509766 16.426000595092773 -26.257699966430664
2.489039897918701 19.131000518798828 -26.466699600219727
2.777040004730225 17.997999191284180 -26.364700317382813
2.756040096282959 18.305000305175781 -26.391700744628906
2.762039899826050 16.576999664306641 -26.274700164794922
2.257040023803711 19.034999847412109 -26.487699508666992
2.802040100097656 17.716999053955078 -26.352699279785156
2.686039924621582 18.485000610351562 -26.416700363159180
2.874039888381958 15.968999862670898 -26.228700637817383
2.805039882659912 16.787000656127930 -26.292699813842773
3.197040081024170 17.146999359130859 -26.287700653076172
2.974040031433106 18.708000183105469 -26.427700042724609
2.894040107727051 19.311000823974609 -26.477699279785156
2.335040092468262 19.173000335693359 -26.512699127197266
3.025039911270142 18.440000534057617 -26.409700393676758
2.899039983749390 16.964000701904297 -26.316699981689453
2.939039945602417 16.125000000000000 -26.254699707031250
2.561039924621582 18.718999862670898 -26.470699310302734
2.772039890289307 19.121999740600586 -26.483699798583984
2.929039955139160 18.305000305175781 -26.414699554443359
3.074039936065674 17.002000808715820 -26.315700531005859
3.019040107727051 16.819999694824219 -26.307699203491211
2.853039979934692 18.462999343872070 -26.440700531005859
2.972039937973023 17.160999298095703 -26.342699050903320
3.186039924621582 18.236999511718750 -26.401699066162109
2.929039955139160 16.666999816894531 -26.311700820922852
2.981040000915527 18.989000320434570 -26.471700668334961
2.873039960861206 18.115999221801758 -26.424699783325195
2.778039932250977 18.618999481201172 -26.467699050903320
2.882040023803711 17.555999755859375 -26.390699386596680
3.021039962768555 18.174999237060547 -26.424699783325195
2.419039964675903 18.888000488281250 -26.522699356079102
2.947040081024170 17.375999450683594 -26.375699996948242
2.902040004730225 16.493999481201172 -26.321699142456055
3.112040042877197 17.275999069213867 -26.361700057983398
2.946039915084839 17.975000381469727 -26.436700820922852
2.805039882659912 16.302000045776367 -26.333700180053711
2.533040046691895 19.261999130249023 -26.564699172973633
3.145040035247803 17.451000213623047 -26.393699645996094
3.168040037155151 17.687999725341797 -26.410699844360352
2.806040048599243 18.806999206542969 -26.517700195312500
3.052040100097656 17.580999374389648 -26.413700103759766
2.994040012359619 16.287000656127930 -26.327699661254883
3.196039915084839 17.976999282836914 -26.431699752807617
2.864039897918701 19.448999404907227 -26.565700531005859
2.982039928436279 17.739000320434570 -26.437700271606445
2.920039892196655 19.124000549316406 -26.541700363159180
3.083039999008179 17.861999511718750 -26.441699981689453
2.676039934158325 15.817999839782715 -26.340700149536133
2.690040111541748 19.302999496459961 -26.584699630737305
2.639039993286133 18.850999832153320 -26.560699462890625
2.803040027618408 16.111999511718750 -26.366699218750000
2.220040082931519 19.219999313354492 -26.651699066162109
2.730040073394775 19.000999450683594 -26.597700119018555
2.434040069580078 19.406000137329102 -26.657699584960938
2.737040042877197 19.506999969482422 -26.653699874877930
2.358040094375610 19.114000320434570 -26.656700134277344
2.259040117263794 19.386999130249023 -26.683700561523438
2.827039957046509 19.224000930786133 -26.631700515747070
2.514039993286133 19.086999893188477 -26.648700714111328
2.576040029525757 19.481000900268555 -26.681699752807617
2.800040006637573 15.881999969482422 -26.413700103759766
2.673039913177490 19.142999649047852 -26.660699844360352
2.305039882659912 19.531999588012695 -26.734699249267578
2.661040067672730 15.621000289916992 -26.447700500488281
2.463040113449097 19.579999923706055 -26.750699996948242
2.891040086746216 19.516000747680664 -26.714700698852539
2.390039920806885 19.246000289916992 -26.740699768066406
2.730040073394775 19.371999740600586 -26.744699478149414
2.004040002822876 19.715999603271484 -26.839700698852539
2.569040060043335 19.304000854492188 -26.767700195312500
2.199039936065674 19.823999404907227 -26.836700439453125
2.584039926528931 19.670999526977539 -26.797700881958008
2.249039888381958 19.416000366210937 -26.837699890136719
2.370039939880371 19.756999969482422 -26.853700637817383
2.054039955139160 19.958999633789063 -26.896699905395508
2.421040058135986 19.402999877929688 -26.840700149536133
2.113039970397949 19.537000656127930 -26.874700546264648
2.694040060043335 19.506000518798828 -26.832700729370117
2.852040052413940 19.754999160766602 -26.839700698852539
1.945039987564087 19.836999893188477 -26.922700881958008
2.711040019989014 19.908000946044922 -26.891700744628906
1.954040050506592 20.066999435424805 -26.967699050903320
2.533040046691895 19.503999710083008 -26.889699935913086
2.495039939880371 19.881000518798828 -26.922700881958008
2.720040082931519 19.666999816894531 -26.890699386596680
2.294039964675903 19.909999847412109 -26.942699432373047
2.361040115356445 19.537000656127930 -26.922700881958008
2.178040027618408 20.014999389648438 -27.003700256347656
2.099040031433106 19.673999786376953 -26.989700317382812
1.881039977073669 19.940000534057617 -27.026699066162109
2.631040096282959 19.798999786376953 -26.971700668334961
2.565040111541748 20.018999099731445 -27.009700775146484
2.262039899826050 19.662000656127930 -27.010700225830078
2.489039897918701 19.701999664306641 -26.999700546264648
2.393039941787720 20.031999588012695 -27.036699295043945
2.465039968490601 20.180000305175781 -27.047700881958008
2.056040048599243 20.120000839233398 -27.076700210571289
2.029040098190308 19.815999984741211 -27.083700180053711
1.824040055274963 20.091999053955078 -27.123699188232422
2.438040018081665 19.877000808715820 -27.091699600219727
2.272039890289307 19.795999526977539 -27.110700607299805
2.236040115356445 20.125999450683594 -27.142700195312500
2.427040100097656 20.433000564575195 -27.149700164794922
1.928040027618408 20.195999145507813 -27.190700531005859
1.953040003776550 19.929000854492188 -27.175699234008789
2.111040115356445 20.201999664306641 -27.206699371337891
2.320039987564087 20.273000717163086 -27.200700759887695
2.117039918899536 19.891000747680664 -27.208700180053711
2.277040004730225 19.951000213623047 -27.206699371337891
2.374039888381958 20.084999084472656 -27.210699081420898
1.785040020942688 20.204000473022461 -27.301700592041016
1.895040035247803 20.038000106811523 -27.308700561523438
2.332040071487427 20.518999099731445 -27.324699401855469
2.191040039062500 20.298999786376953 -27.325700759887695
2.206039905548096 20.055999755859375 -27.308700561523438
2.007040023803711 20.302000045776367 -27.347700119018555
2.367039918899536 20.354999542236328 -27.328699111938477
2.058039903640747 19.997999191284180 -27.335699081420898
1.875040054321289 20.344999313354492 -27.442699432373047
1.839040040969849 20.128000259399414 -27.444700241088867
1.709040045738220 20.306999206542969 -27.472700119018555
2.097039937973023 20.143999099731445 -27.438699722290039
2.233040094375610 20.561000823974609 -27.464700698852539
2.056040048599243 20.429000854492188 -27.475700378417969
2.294039964675903 20.416000366210937 -27.459699630737305
2.358040094375610 20.670999526977539 -27.489700317382813
2.154040098190308 20.281000137329102 -27.496700286865234
1.972040057182312 20.173999786376953 -27.531700134277344
1.763039946556091 20.399999618530273 -27.599700927734375
2.173039913177490 20.417999267578125 -27.582700729370117
1.794039964675903 20.243000030517578 -27.608699798583984
1.922039985656738 20.511999130249023 -27.618700027465820
2.270040035247803 20.572000503540039 -27.620700836181641
2.100039958953857 20.589000701904297 -27.635700225830078
1.940039992332459 20.302999496459961 -27.653699874877930
2.236040115356445 20.733999252319336 -27.667699813842773
2.035039901733398 20.430000305175781 -27.703699111938477
1.827039957046509 20.565000534057617 -27.758699417114258
2.061039924621582 20.688999176025391 -27.754699707031250
1.754040002822876 20.413999557495117 -27.782699584960938
2.210040092468262 20.784000396728516 -27.818700790405273
1.898040056228638 20.694000244140625 -27.847700119018555
2.048039913177490 20.815000534057617 -27.858699798583984
1.952039957046509 20.548000335693359 -27.876699447631836
1.747040033340454 20.573999404907227 -27.901699066162109
1.778040051460266 20.729999542236328 -27.975700378417969
1.923040032386780 20.792999267578125 -27.976699829101563
1.981040000915527 20.934999465942383 -28.036699295043945
1.647040009498596 20.725999832153320 -28.074699401855469
1.849040031433106 20.879999160766602 -28.128700256347656
1.784039974212647 20.729000091552734 -28.172700881958008
1.554039955139160 20.739000320434570 -28.200700759887695
1.671040058135986 20.877000808715820 -28.212699890136719
1.470039963722229 20.875000000000000 -28.279699325561523
1.795040011405945 20.986999511718750 -28.309700012207031
1.822039961814880 21.127000808715820 -28.406700134277344
