ply
format ascii 1.0
element vertex 492
property double x
property double y
property double z
end_header
0.785036027431488 21.663999557495117 -26.687700271606445
0.803038001060486 21.819999694824219 -26.609699249267578
0.621038973331451 21.676000595092773 -26.722700119018555
0.594038009643555 21.504999160766602 -26.833700180053711
0.646036982536316 21.815999984741211 -26.596700668334961
0.760038971900940 21.955999374389648 -26.458700180053711
0.797038018703461 22.108999252319336 -26.376699447631836
0.589037001132965 21.906999588012695 -26.463699340820313
0.669039011001587 22.006999969482422 -26.579700469970703
0.490038007497787 21.715000152587891 -26.615699768066406
0.469038009643555 21.451000213623047 -26.708700180053711
0.605036020278931 21.923000335693359 -26.851699829101563
0.546037971973419 21.823999404907227 -26.982700347900391
0.474038988351822 21.653999328613281 -26.995700836181641
-3.159310102462769 24.064100265502930 -23.876199722290039
-4.677959918975830 23.674999237060547 -23.897699356079102
-2.853960037231445 23.916999816894531 -23.782699584960938
-4.525959968566895 23.743999481201172 -23.941699981689453
-4.556960105895996 23.548000335693359 -23.931699752807617
-3.270230054855347 24.183200836181641 -23.882799148559570
-3.159310102462769 24.064100265502930 -23.876199722290039
-2.707959890365601 23.861999511718750 -23.831699371337891
-4.896430015563965 24.695400238037109 -24.086299896240234
-4.620960235595703 23.857000350952148 -24.010700225830078
-2.980959892272949 23.899000167846680 -23.885700225830078
-4.829959869384766 23.819999694824219 -24.024700164794922
-4.375959873199463 23.774000167846680 -23.992700576782227
-4.348959922790527 23.615999221801758 -23.990699768066406
-3.524960041046143 24.315000534057617 -23.978700637817383
-3.402960062026978 24.208999633789063 -23.962699890136719
-4.777959823608398 23.656999588012695 -24.031700134277344
-4.734849929809570 24.646200180053711 -24.128499984741211
-3.323019981384277 24.068599700927734 -23.981800079345703
-3.127959966659546 23.917999267578125 -23.960699081420898
-5.118959903717041 24.750000000000000 -24.184700012207031
-2.841959953308106 23.843000411987305 -23.944700241088867
-4.739960193634033 23.933000564575195 -24.101699829101563
-5.001959800720215 23.829000473022461 -24.121700286865234
-4.441959857940674 23.954999923706055 -24.094699859619141
-4.604959964752197 23.586999893188477 -24.082700729370117
-4.998960018157959 24.641000747680664 -24.192699432373047
-4.576169967651367 24.592100143432617 -24.158800125122070
-3.644959926605225 24.353000640869141 -24.077699661254883
-4.892960071563721 23.705999374389648 -24.132699966430664
-4.280960083007813 23.937000274658203 -24.103700637817383
-4.129960060119629 23.867000579833984 -24.087699890136719
-4.335959911346436 23.420000076293945 -24.080699920654297
-4.102960109710693 23.711999893188477 -24.085699081420898
-3.285069942474365 23.919900894165039 -24.037300109863281
-4.856689929962158 24.571300506591797 -24.208200454711914
-3.764960050582886 24.156000137329102 -24.095699310302734
-4.300960063934326 24.499000549316406 -24.161699295043945
-4.567959785461426 24.034999847412109 -24.155700683593750
-4.167960166931152 23.538999557495117 -24.094699859619141
-3.684959888458252 24.006999969482422 -24.090700149536133
-3.967959880828857 23.843000411987305 -24.101699829101563
-3.492959976196289 24.172000885009766 -24.089700698852539
-3.799959897994995 24.313999176025391 -24.126699447631836
-4.182960033416748 24.080999374389648 -24.143699645996094
-3.997960090637207 24.013000488281250 -24.125699996948242
-4.862959861755371 23.989999771118164 -24.193700790405273
-4.702770233154297 24.509300231933594 -24.218900680541992
-4.091959953308106 24.231000900268555 -24.151699066162109
-4.343959808349609 24.073999404907227 -24.161699295043945
-4.319960117340088 24.283000946044922 -24.175699234008789
-3.820960044860840 23.777000427246094 -24.101699829101563
-3.932960033416748 24.173999786376953 -24.139699935913086
-3.836960077285767 23.962999343872070 -24.126699447631836
-3.079950094223023 23.792600631713867 -24.055900573730469
-2.907160043716431 23.738700866699219 -24.043199539184570
-3.648960113525391 23.781999588012695 -24.104700088500977
-4.467959880828857 23.551000595092773 -24.154699325561523
-5.225959777832031 24.735000610351563 -24.300699234008789
-3.885960102081299 23.618000030517578 -24.118700027465820
-4.721960067749023 23.663000106811523 -24.188699722290039
-4.420959949493408 24.413999557495117 -24.218700408935547
-4.572959899902344 24.325000762939453 -24.224700927734375
-4.455959796905518 24.205999374389648 -24.207700729370117
-4.650959968566895 24.156999588012695 -24.220699310302734
-3.915960073471069 24.416999816894531 -24.181699752807617
-4.827960014343262 24.145999908447266 -24.239700317382813
-4.775010108947754 24.350400924682617 -24.253499984741211
-3.486959934234619 23.812000274658203 -24.116699218750000
-4.153960227966309 24.490999221801758 -24.225700378417969
-5.089960098266602 23.829999923706055 -24.256700515747070
-3.233560085296631 23.793100357055664 -24.114999771118164
-3.536959886550903 23.648000717163086 -24.129699707031250
-4.009960174560547 23.530000686645508 -24.160699844360352
-4.927179813385010 24.332500457763672 -24.291500091552734
-2.765959978103638 23.666999816894531 -24.081699371337891
-4.988959789276123 24.024999618530273 -24.283700942993164
-2.621959924697876 23.763999938964844 -24.080699920654297
-3.689960002899170 23.568000793457031 -24.152700424194336
-3.607959985733032 24.114000320434570 -24.186700820922852
-3.517960071563721 23.954000473022461 -24.176700592041016
-4.983960151672363 24.180999755859375 -24.307699203491211
-5.073390007019043 24.598400115966797 -24.354299545288086
-4.200960159301758 23.393999099731445 -24.211700439453125
-4.203959941864014 24.308000564575195 -24.279699325561523
-2.453959941864014 23.788000106811523 -24.106700897216797
-4.331960201263428 23.520000457763672 -24.234699249267578
-4.029960155487061 24.353000640869141 -24.271699905395508
-4.585959911346436 23.687000274658203 -24.269699096679688
-5.016499996185303 24.446100234985352 -24.360000610351563
-3.014800071716309 23.688199996948242 -24.157499313354492
-3.869960069656372 24.247999191284180 -24.269699096679688
-4.041959762573242 23.371999740600586 -24.221700668334961
-3.751960039138794 24.103000640869141 -24.257699966430664
-4.784959793090820 23.743999481201172 -24.315700531005859
-4.412960052490234 23.679000854492188 -24.282699584960937
-5.317349910736084 24.744699478149414 -24.430200576782227
-2.896960020065308 22.829000473022461 -24.112699508666992
-4.730959892272949 24.208999633789063 -24.354700088500977
-2.508960008621216 23.645000457763672 -24.148700714111328
-2.654959917068481 22.920000076293945 -24.109699249267578
-3.753959894180298 23.444000244140625 -24.232700347900391
-4.531960010528565 24.170999526977539 -24.344699859619141
-4.092959880828857 24.152000427246094 -24.310699462890625
-4.349959850311279 24.156999588012695 -24.331699371337891
-3.447959899902344 23.534999847412109 -24.217699050903320
-5.142960071563721 24.021999359130859 -24.389699935913086
-2.810960054397583 22.975999832153320 -24.134700775146484
-3.583960056304932 23.448999404907227 -24.229700088500977
-3.633960008621216 23.875000000000000 -24.268699645996094
-3.166790008544922 23.661800384521484 -24.219800949096680
-2.996959924697876 22.979999542236328 -24.165700912475586
-4.131959915161133 23.511999130249023 -24.293699264526367
-3.322329998016357 23.647899627685547 -24.240400314331055
-5.199379920959473 24.639099121093750 -24.457000732421875
-4.460959911346436 23.836000442504883 -24.343700408935547
-4.657959938049316 23.825000762939453 -24.361700057983398
-4.980959892272949 23.799999237060547 -24.386699676513672
-3.792959928512573 23.950000762939453 -24.304700851440430
-3.481960058212280 23.722999572753906 -24.264699935913086
-5.157959938049316 23.791999816894531 -24.400699615478516
-3.942960023880005 24.002000808715820 -24.321699142456055
-2.491960048675537 22.861999511718750 -24.128700256347656
-4.235960006713867 23.670999526977539 -24.321699142456055
-2.657959938049316 23.621000289916992 -24.195699691772461
-4.140960216522217 23.989999771118164 -24.338699340820312
-4.263959884643555 23.885000228881836 -24.341699600219727
-2.835730075836182 23.603099822998047 -24.211099624633789
-4.373960018157959 23.999000549316406 -24.359699249267578
-3.134959936141968 22.906999588012695 -24.190700531005859
-4.567959785461426 24.007999420166016 -24.382699966430664
-4.732960224151611 24.023000717163086 -24.401699066162109
-4.833960056304932 23.879999160766602 -24.399700164794922
-5.131959915161133 24.334999084472656 -24.460699081420898
-3.924959897994995 23.283000946044922 -24.293699264526367
-5.115260124206543 24.495300292968750 -24.472499847412109
-2.893959999084473 23.097000122070313 -24.202699661254883
-5.430749893188477 24.808300018310547 -24.521799087524414
-4.111959934234619 23.788999557495117 -24.347700119018555
-3.077960014343262 23.135000228881836 -24.224700927734375
-3.280960083007813 22.954999923706055 -24.230699539184570
-5.240960121154785 24.194000244140625 -24.473699569702148
-3.278959989547730 23.365999221801758 -24.262699127197266
-3.918960094451904 23.812000274658203 -24.345699310302734
-2.732959985733032 23.138999938964844 -24.206699371337891
-3.243959903717041 23.118000030517578 -24.245700836181641
-2.764960050582886 22.716999053955078 -24.180700302124023
-3.744960069656372 23.770999908447266 -24.331699371337891
-3.998960018157959 23.658000946044922 -24.345699310302734
-2.597959995269775 23.047000885009766 -24.193700790405273
-3.500960111618042 23.268999099731445 -24.280700683593750
-3.014379978179932 23.575399398803711 -24.267099380493164
-4.947959899902344 24.003000259399414 -24.450700759887695
-2.307960033416748 23.731000900268555 -24.231700897216797
-3.614959955215454 23.665000915527344 -24.332700729370117
-3.166980028152466 23.505399703979492 -24.287799835205078
-2.383960008621216 22.756999969482422 -24.174699783325195
-3.913959980010986 23.443000793457031 -24.347700119018555
-2.998960018157959 23.281999588012695 -24.268699645996094
-3.822959899902344 23.636999130249023 -24.359699249267578
-2.997960090637207 22.812999725341797 -24.241699218750000
-5.249959945678711 24.412000656127930 -24.530700683593750
-5.087959766387940 24.131000518798828 -24.498699188232422
-2.610960006713867 22.684000015258789 -24.203699111938477
-3.702960014343262 23.194999694824219 -24.327699661254883
-5.070960044860840 23.905000686645508 -24.487699508666992
-3.328959941864014 23.513999938964844 -24.324699401855469
-5.262959957122803 24.037000656127930 -24.512699127197266
-5.277959823608398 23.850000381469727 -24.502700805664063
-2.525959968566895 23.496999740600586 -24.267700195312500
-3.405960083007813 23.072000503540039 -24.308700561523438
-2.378959894180298 22.923000335693359 -24.222700119018555
-5.348959922790527 24.281000137329102 -24.552700042724609
-3.787960052490234 23.327999114990234 -24.364700317382813
-3.682960033416748 23.509000778198242 -24.373699188232422
-2.431960105895996 23.639999389648438 -24.288700103759766
-3.507960081100464 23.489000320434570 -24.363700866699219
-2.940959930419922 23.438999176025391 -24.326700210571289
-2.465960025787354 23.082000732421875 -24.271699905395508
-3.558959960937500 23.129999160766602 -24.361700057983398
-2.620959997177124 23.242000579833984 -24.296699523925781
-3.398960113525391 23.364000320434570 -24.366699218750000
-3.615959882736206 23.320999145507813 -24.381700515747070
-3.138959884643555 23.010000228881836 -24.327699661254883
-3.140959978103638 23.351999282836914 -24.352699279785156
-5.310840129852295 24.536199569702148 -24.610099792480469
-5.518680095672607 24.830900192260742 -24.650299072265625
-2.848959922790527 22.825000762939453 -24.301700592041016
-2.718960046768189 23.413000106811523 -24.334699630737305
-2.456959962844849 22.638000488281250 -24.263700485229492
-3.298959970474243 23.197999954223633 -24.370700836181641
-5.396130084991455 24.711999893188477 -24.643600463867188
-5.422959804534912 24.409999847412109 -24.632699966430664
-3.138959884643555 23.190000534057617 -24.368700027465820
-2.986959934234619 23.061000823974609 -24.351699829101563
-2.416960000991821 23.400999069213867 -24.334699630737305
-2.285959959030151 22.628000259399414 -24.271699905395508
-2.844959974288940 23.326999664306641 -24.382699966430664
-5.543960094451904 24.520000457763672 -24.677700042724609
-2.199959993362427 23.656000137329102 -24.356700897216797
-2.036959886550903 23.652999877929688 -24.347700119018555
-2.089960098266602 23.486000061035156 -24.342699050903320
-2.219959974288940 22.780000686645508 -24.311700820922852
-5.368959903717041 23.892000198364258 -24.636699676513672
-2.850960016250610 23.131000518798828 -24.389699935913086
-2.811959981918335 22.974000930786133 -24.378700256347656
-2.472959995269775 23.250000000000000 -24.374700546264648
-2.267960071563721 22.988000869750977 -24.343700408935547
-2.572959899902344 23.392000198364258 -24.398700714111328
-2.294960021972656 23.514999389648438 -24.395700454711914
-2.669960021972656 22.837999343872070 -24.383699417114258
-2.309959888458252 23.135999679565430 -24.382699966430664
-2.563960075378418 22.716999053955078 -24.377700805664063
-5.465710163116455 24.143699645996094 -24.712900161743164
-5.536570072174072 24.366699218750000 -24.734899520874023
-5.603559970855713 24.853300094604492 -24.782100677490234
-2.044960021972656 23.333999633789063 -24.402700424194336
-5.497300148010254 24.736999511718750 -24.777999877929688
-5.657959938049316 24.471000671386719 -24.774700164794922
-2.698960065841675 23.065000534057617 -24.446699142456055
-2.200959920883179 23.242000579833984 -24.427700042724609
-5.506619930267334 23.995300292968750 -24.744899749755859
-1.947960019111633 23.499000549316406 -24.433700561523438
-2.122960090637207 22.902000427246094 -24.406700134277344
-2.136960029602051 22.673999786376953 -24.403699874877930
-2.200959920883179 23.402999877929688 -24.463699340820313
-2.345959901809692 23.313999176025391 -24.474700927734375
-2.539959907531738 23.117000579833984 -24.485700607299805
-2.398960113525391 22.646999359130859 -24.444700241088867
-2.578959941864014 22.924999237060547 -24.485700607299805
-2.167959928512573 23.083999633789063 -24.467699050903320
-5.642210006713867 24.603500366210938 -24.860799789428711
-5.572959899902344 24.128999710083008 -24.837699890136719
-2.443959951400757 22.794000625610352 -24.504699707031250
-5.671959877014160 24.275999069213867 -24.866699218750000
-5.689839839935303 24.875699996948242 -24.912399291992188
-5.770959854125977 24.493000030517578 -24.904699325561523
-1.743489980697632 23.248699188232422 -24.511400222778320
-2.306960105895996 23.094999313354492 -24.553699493408203
-2.232959985733032 22.584999084472656 -24.516700744628906
-2.381959915161133 22.934000015258789 -24.553699493408203
-1.995959997177124 22.958999633789063 -24.532699584960938
-1.895269989967346 23.179899215698242 -24.548900604248047
-2.030960083007813 22.645999908447266 -24.523700714111328
-2.048959970474243 23.129999160766602 -24.571699142456055
-2.279959917068481 22.809999465942383 -24.583700180053711
-1.457960009574890 23.131000518798828 -24.554700851440430
-1.918959975242615 22.784000396728516 -24.574699401855469
-5.858960151672363 24.587999343872070 -25.012699127197266
-1.719400048255920 23.112400054931641 -24.589000701904297
-2.182960033416748 22.965999603271484 -24.618700027465820
-2.104959964752197 22.510000228881836 -24.587699890136719
-5.703330039978027 24.765800476074219 -25.027200698852539
-5.789330005645752 24.900600433349609 -25.048700332641602
-1.868299961090088 23.038799285888672 -24.612699508666992
-5.736959934234619 24.308000564575195 -25.007699966430664
-2.172960042953491 22.691999435424805 -24.623699188232422
-1.207239985466003 23.008300781250000 -24.576599121093750
-1.574959993362427 23.045000076293945 -24.617700576782227
-5.818960189819336 24.436000823974609 -25.053699493408203
-2.059959888458252 22.809999465942383 -24.659700393676758
-1.372959971427918 22.986000061035156 -24.625699996948242
-5.964960098266602 24.645000457763672 -25.114700317382813
-1.924960017204285 22.905000686645508 -24.687700271606445
-1.733960032463074 22.981000900268555 -24.682699203491211
-5.845459938049316 24.775100708007812 -25.142000198364258
-0.974125981330872 22.912700653076172 -24.632099151611328
-2.024960041046143 22.645000457763672 -24.695699691772461
-1.132959961891174 22.879999160766602 -24.650699615478516
-1.968960046768189 22.475999832153320 -24.687700271606445
-5.896709918975830 24.925899505615234 -25.176399230957031
-1.512959957122803 22.919000625610352 -24.693700790405273
-1.884960055351257 22.701999664306641 -24.746700286865234
-1.268959999084473 22.924999237060547 -24.726699829101563
-1.783959984779358 22.827999114990234 -24.766700744628906
-5.982800006866455 24.802299499511719 -25.237100601196289
-5.891600131988525 24.497200012207031 -25.219100952148438
-6.135960102081299 24.766000747680664 -25.260700225830078
-1.390959978103638 22.812000274658203 -24.755699157714844
-0.922963976860046 22.785999298095703 -24.721700668334961
-1.078959941864014 22.746999740600586 -24.737699508666992
-1.630959987640381 22.871000289916992 -24.793699264526367
-1.859959959983826 22.527999877929688 -24.790700912475586
-6.012000083923340 24.951700210571289 -25.295499801635742
-0.798963010311127 22.881000518798828 -24.756700515747070
-1.693959951400757 22.688999176025391 -24.823699951171875
-6.251070022583008 24.677400588989258 -25.330499649047852
-5.989319801330566 24.584800720214844 -25.310600280761719
-0.653963029384613 22.954999923706055 -24.779699325561523
-1.217960000038147 22.690999984741211 -24.818700790405273
-1.510959982872009 22.808000564575195 -24.873699188232422
-1.716619968414307 22.481700897216797 -24.867000579833984
-1.383960008621216 22.659000396728516 -24.856700897216797
-6.286960124969482 24.825000762939453 -25.397699356079102
-0.821961998939514 22.739999771118164 -24.834699630737305
-1.008960008621216 22.826000213623047 -24.858699798583984
-6.130970001220703 24.977800369262695 -25.410600662231445
-6.087339878082275 24.662900924682617 -25.408599853515625
-1.035959959030151 22.642000198364258 -24.873699188232422
-1.530959963798523 22.649999618530273 -24.917699813842773
-1.347959995269775 22.801000595092773 -24.916700363159180
-1.152959942817688 22.797000885009766 -24.918699264526367
-0.634962022304535 22.836000442504883 -24.881700515747070
-1.257959961891174 22.565000534057617 -24.921699523925781
-6.502960205078125 24.822999954223633 -25.501699447631836
-1.621700048446655 22.397399902343750 -24.959800720214844
-6.373960018157959 24.732999801635742 -25.496700286865234
-6.247749805450440 25.003700256347656 -25.527999877929688
-6.185550212860107 24.734899520874023 -25.510700225830078
-6.614960193634033 24.708000183105469 -25.549699783325195
-6.387959957122803 24.924999237060547 -25.556699752807617
-1.433959960937500 22.495000839233398 -25.015699386596680
-1.359959959983826 22.680000305175781 -25.029699325561523
-1.067960023880005 22.523000717163086 -24.998699188232422
-0.886960983276367 22.746999740600586 -25.006700515747070
-0.536961972713470 22.916000366210938 -24.996700286865234
-1.519619941711426 22.307699203491211 -25.038799285888672
-0.725961029529572 22.801000595092773 -25.020700454711914
-1.041960000991821 22.716999053955078 -25.040700912475586
-6.729959964752197 24.794000625610352 -25.637699127197266
-6.283919811248779 24.802000045776367 -25.616100311279297
-6.605959892272949 24.909000396728516 -25.651699066162109
-6.478960037231445 24.620000839233398 -25.623699188232422
-1.207960009574890 22.395999908447266 -25.061700820922852
-1.201959967613220 22.686000823974609 -25.099700927734375
-0.771963000297546 22.608999252319336 -25.067699432373047
-6.369060039520264 25.033000946044922 -25.681400299072266
-1.381960034370422 22.232000350952148 -25.113700866699219
-1.284960031509399 22.534000396728516 -25.132699966430664
-1.027959942817688 22.382999420166016 -25.116699218750000
-1.343960046768189 22.386999130249023 -25.143699645996094
-0.899960994720459 22.500000000000000 -25.117700576782227
-6.407959938049316 24.747999191284180 -25.707700729370117
-6.826960086822510 24.861000061035156 -25.752700805664062
-0.446886986494064 22.876300811767578 -25.120199203491211
-0.598962008953094 22.797000885009766 -25.127700805664062
-0.917963027954102 22.659999847412109 -25.158700942993164
-6.706960201263428 24.969999313354492 -25.780700683593750
-6.672959804534912 24.711999893188477 -25.762699127197266
-1.300959944725037 22.086000442504883 -25.159700393676758
-6.508959770202637 25.038999557495117 -25.777700424194336
-1.057960033416748 22.209999084472656 -25.181699752807617
-1.123960018157959 22.534000396728516 -25.229700088500977
-0.719960987567902 22.645999908447266 -25.211700439453125
-1.208960056304932 22.400999069213867 -25.244699478149414
-6.437960147857666 24.868999481201172 -25.827699661254883
-1.227959990501404 22.225000381469727 -25.250699996948242
-0.873960018157959 22.388999938964844 -25.240699768066406
-0.470959991216660 22.767999649047852 -25.244699478149414
-6.522960186004639 24.735000610351563 -25.856700897216797
-0.977959990501404 22.079999923706055 -25.241699218750000
-1.182960033416748 22.063999176025391 -25.265699386596680
-0.916962981224060 22.229999542236328 -25.259700775146484
-6.905960083007813 24.878999710083008 -25.924699783325195
-0.953962028026581 22.572999954223633 -25.298700332641602
-6.915959835052490 25.034999847412109 -25.939699172973633
-6.678959846496582 25.051000595092773 -25.926700592041016
-6.494959831237793 25.117000579833984 -25.922700881958008
-1.052960038185120 21.941999435424805 -25.289699554443359
-0.790964007377625 22.555999755859375 -25.328699111938477
-0.631151020526886 22.583400726318359 -25.328699111938477
-1.034960031509399 22.386999130249023 -25.353700637817383
-1.097959995269775 22.232000350952148 -25.351699829101563
-6.706960201263428 24.760000228881836 -25.970699310302734
-0.475360006093979 22.643199920654297 -25.350000381469727
-0.305245012044907 22.720899581909180 -25.349000930786133
-6.510960102081299 24.868999481201172 -25.985700607299805
-6.790180206298828 24.936700820922852 -26.023000717163086
-0.833962976932526 22.104000091552734 -25.361700057983398
-6.995960235595703 24.938999176025391 -26.042699813842773
-6.765960216522217 25.089000701904297 -26.066699981689453
-1.020959973335266 22.077999114990234 -25.407699584960937
-0.726961016654968 22.224000930786133 -25.403699874877930
-0.863961994647980 22.423999786376953 -25.430700302124023
-6.807960033416748 24.788000106811523 -26.087699890136719
-6.935959815979004 25.070999145507813 -26.117700576782227
-6.571959972381592 25.055999755859375 -26.101699829101563
-0.357665985822678 22.601600646972656 -25.449100494384766
-0.202309995889664 22.631700515747070 -25.452499389648438
-6.605959892272949 24.867000579833984 -26.110700607299805
-0.568566977977753 22.452899932861328 -25.482999801635742
-0.722962975502014 22.430000305175781 -25.508699417114258
-0.912962019443512 22.010000228881836 -25.502700805664063
-0.867963016033173 22.232000350952148 -25.515699386596680
-0.606962025165558 22.191999435424805 -25.510700225830078
-6.929959774017334 24.819000244140625 -26.190700531005859
-6.673960208892822 25.097999572753906 -26.223699569702148
-7.025959968566895 24.934999465942383 -26.242700576782227
-0.461961001157761 22.302999496459961 -25.551700592041016
-0.126962006092072 22.530000686645508 -25.549699783325195
-0.818964004516602 21.895000457763672 -25.562700271606445
-0.796959996223450 22.111000061035156 -25.593700408935547
-0.365960985422134 22.430000305175781 -25.588699340820313
-6.713960170745850 24.916000366210938 -26.266700744628906
-0.644963979721069 22.031999588012695 -25.591699600219727
-6.986959934234619 25.086000442504883 -26.302700042724609
-6.824960231781006 25.108999252319336 -26.296699523925781
-0.590963006019592 22.358999252319336 -25.639699935913086
-6.865960121154785 24.899999618530273 -26.320699691772461
-0.659963011741638 22.209999084472656 -25.675699234008789
-7.135960102081299 25.035999298095703 -26.395700454711914
-0.221964001655579 22.406999588012695 -25.673700332641602
-0.416963011026382 22.139999389648438 -25.678699493408203
0.028036499395967 22.500000000000000 -25.674699783325195
-0.720960021018982 21.923999786376953 -25.695699691772461
-0.295960992574692 22.239999771118164 -25.692699432373047
-6.913959980010986 25.010999679565430 -26.422700881958008
-0.067960396409035 22.375999450683594 -25.715700149536133
-0.431962996721268 22.343999862670898 -25.743700027465820
-0.571961998939514 22.073999404907227 -25.790700912475586
-7.221960067749023 25.069999694824219 -26.536699295043945
-7.056960105895996 25.087999343872070 -26.539699554443359
-0.475960999727249 22.200000762939453 -25.827699661254883
-0.317959994077683 22.068000793457031 -25.816699981689453
0.114248998463154 22.440399169921875 -25.815900802612305
-0.313962996006012 22.302999496459961 -25.867700576782227
-0.121960997581482 22.211999893188477 -25.870700836181641
-7.317959785461426 25.061000823974609 -26.662700653076172
-0.448960989713669 22.037000656127930 -25.914699554443359
-0.413960993289948 21.864999771118164 -25.929700851440430
0.232006996870041 22.409999847412109 -25.921100616455078
-0.238961994647980 21.969999313354492 -25.927700042724609
0.080504097044468 22.320999145507813 -25.927900314331055
-0.347963005304337 22.160999298095703 -25.955699920654297
-0.186964005231857 22.216999053955078 -26.024700164794922
-0.018960600718856 22.167999267578125 -26.019699096679688
0.305036991834641 22.318000793457031 -26.025699615478516
-0.258962005376816 21.760999679565430 -26.032699584960937
0.141038998961449 22.235000610351563 -26.044700622558594
-0.132963001728058 21.854999542236328 -26.044700622558594
-0.068963602185249 22.004999160766602 -26.050699234008789
-0.331959992647171 21.899999618530273 -26.064699172973633
-0.258962005376816 22.076000213623047 -26.098699569702148
0.448038011789322 22.229999542236328 -26.076700210571289
0.003038800088689 21.819000244140625 -26.142700195312500
-0.215963006019592 21.934999465942383 -26.174699783325195
0.294039011001587 22.222999572753906 -26.162700653076172
0.071039602160454 21.981000900268555 -26.166700363159180
0.024038700386882 22.149999618530273 -26.184700012207031
0.192037999629974 22.103000640869141 -26.171699523925781
0.535036027431488 22.114000320434570 -26.150699615478516
-0.120962001383305 22.065000534057617 -26.205699920654297
-0.167962998151779 21.742000579833984 -26.194700241088867
0.406038999557495 22.052999496459961 -26.233699798583984
0.099039502441883 21.736000061035156 -26.238700866699219
-0.059960901737213 21.632999420166016 -26.245700836181641
-0.095960199832916 21.919000625610352 -26.276699066162109
0.189040005207062 21.909999847412109 -26.281700134277344
0.004038199782372 22.051000595092773 -26.307699203491211
0.651037991046906 22.125999450683594 -26.268699645996094
0.555037021636963 21.996000289916992 -26.277700424194336
0.267039000988007 22.115999221801758 -26.314699172973633
0.112039998173714 21.538999557495117 -26.297700881958008
-0.015962200239301 21.774000167846680 -26.341699600219727
0.219037994742393 21.672000885009766 -26.319700241088867
0.387037992477417 21.951000213623047 -26.356700897216797
0.485036998987198 22.103000640869141 -26.378700256347656
0.050039701163769 21.902999877929688 -26.406700134277344
0.292035996913910 21.820999145507812 -26.387699127197266
0.127039000391960 22.042999267578125 -26.430700302124023
0.634038984775543 22.048999786376953 -26.408700942993164
0.210040003061295 21.510000228881836 -26.419700622558594
0.105035997927189 21.636999130249023 -26.442699432373047
0.358038008213043 21.663000106811523 -26.429700851440430
0.417035996913910 21.850999832153320 -26.491699218750000
0.127039000391960 21.785999298095703 -26.537700653076172
0.335040003061295 22.020999908447266 -26.547700881958008
0.205037996172905 21.920000076293945 -26.570699691772461
0.448038011789322 21.544000625610352 -26.530700683593750
0.204039007425308 21.628999710083008 -26.571699142456055
0.478036999702454 22.000000000000000 -26.616699218750000
0.337038010358810 21.520000457763672 -26.646699905395508
0.321040004491806 21.915000915527344 -26.679700851440430
0.217039003968239 21.791999816894531 -26.685699462890625
0.353036999702454 21.639999389648438 -26.847700119018555
0.417035996913910 21.815999984741211 -26.863700866699219
0.431035995483398 21.511999130249023 -26.926700592041016
0.514037013053894 21.370000839233398 -26.918699264526367
