ply
format ascii 1.0
element vertex 652
property double x
property double y
property double z
end_header
2.055039882659912 27.246999740600586 -15.495699882507324
1.988039970397949 26.891000747680664 -15.433699607849121
1.962039947509766 26.722999572753906 -15.456700325012207
1.938040018081665 27.131000518798828 -15.489700317382812
1.865039944648743 26.982000350952148 -15.488699913024902
2.055039882659912 27.246999740600586 -15.495699882507324
1.942039966583252 27.347999572753906 -15.542699813842773
2.048039913177490 27.481000900268555 -15.555700302124023
1.800040006637573 26.843000411987305 -15.532699584960938
1.816040039062500 27.218000411987305 -15.561699867248535
1.734040021896362 27.082000732421875 -15.566699981689453
2.083039999008179 27.000000000000000 -15.533699989318848
1.927039980888367 26.520000457763672 -15.519700050354004
1.831040024757385 26.669000625610352 -15.540699958801270
1.686040043830872 26.933000564575195 -15.595700263977051
1.847040057182312 26.392999649047852 -15.567700386047363
1.727040052413940 26.509000778198242 -15.592700004577637
1.676040053367615 27.221000671386719 -15.653699874877930
1.703040003776550 26.718000411987305 -15.623700141906738
2.080039978027344 27.341999053955078 -15.643699645996094
1.578040003776550 27.090000152587891 -15.676699638366699
1.593039989471436 26.579000473022461 -15.646699905395508
1.853039979934692 27.434999465942383 -15.687700271606445
1.768039941787720 26.201000213623047 -15.610699653625488
1.919039964675903 26.115999221801758 -15.598699569702148
1.995040059089661 26.285999298095703 -15.605699539184570
1.348039984703064 26.504999160766602 -15.672699928283691
1.678040027618408 26.343999862670898 -15.639699935913086
2.040040016174316 26.687999725341797 -15.641699790954590
1.534039974212647 26.402000427246094 -15.663700103759766
1.456040024757385 26.653999328613281 -15.688699722290039
1.323040008544922 26.339000701904297 -15.677700042724609
1.547039985656738 26.900999069213867 -15.699700355529785
1.957039952278137 27.549999237060547 -15.721699714660645
1.999040007591248 27.059999465942383 -15.694700241088867
2.010040044784546 26.877000808715820 -15.689700126647949
1.770040035247803 27.312000274658203 -15.743700027465820
1.469040036201477 26.259000778198242 -15.695699691772461
1.620040059089661 26.197000503540039 -15.682700157165527
1.946040034294128 27.288000106811523 -15.736700057983398
1.733039975166321 26.045999526977539 -15.671699523925781
1.855039954185486 27.117000579833984 -15.750699996948242
1.724040031433106 27.013999938964844 -15.757699966430664
1.890040040016174 25.976999282836914 -15.672699928283691
1.685039997100830 26.853000640869141 -15.763699531555176
1.860039949417114 26.923000335693359 -15.758700370788574
1.582039952278137 26.726999282836914 -15.766699790954590
2.001039981842041 26.444000244140625 -15.714699745178223
1.187039971351624 25.966999053955078 -15.746700286865234
1.934039950370789 26.614000320434570 -15.746700286865234
1.441040039062500 26.106000900268555 -15.751700401306152
1.809039950370789 26.726999282836914 -15.775699615478516
1.479040026664734 26.513999938964844 -15.793700218200684
1.367040038108826 25.965999603271484 -15.770700454711914
1.766039967536926 25.826999664306641 -15.732700347900391
1.607040047645569 26.010999679565430 -15.761699676513672
1.693040013313294 26.618999481201172 -15.808699607849121
2.021039962768555 26.080999374389648 -15.746700286865234
1.971040010452271 25.847000122070313 -15.739700317382813
1.428040027618408 26.364000320434570 -15.823699951171875
1.807039976119995 26.509000778198242 -15.814700126647949
1.336040019989014 26.215999603271484 -15.835700035095215
1.574040055274963 25.833000183105469 -15.796699523925781
1.072039961814880 25.993999481201172 -15.851699829101563
1.658040046691895 26.466999053955078 -15.842700004577637
1.928040027618408 26.349000930786133 -15.818699836730957
1.196040034294128 25.797000885009766 -15.839699745178223
1.012040019035339 25.805000305175781 -15.855699539184570
1.246039986610413 26.065000534057617 -15.860699653625488
1.362040042877197 25.792999267578125 -15.848699569702148
1.594040036201477 26.323999404907227 -15.870699882507324
1.785040020942688 26.309000015258789 -15.878700256347656
1.827039957046509 25.708999633789063 -15.834699630737305
1.952039957046509 26.176000595092773 -15.861700057983398
1.492040038108826 26.204000473022461 -15.909700393676758
1.497040033340454 25.715000152587891 -15.877699851989746
1.644039988517761 25.649000167846680 -15.863699913024902
1.984040021896362 25.739999771118164 -15.859700202941895
0.868036985397339 25.826999664306641 -15.954700469970703
1.968039989471436 26.007999420166016 -15.883700370788574
0.943036973476410 25.660999298095703 -15.947699546813965
1.386039972305298 26.075000762939453 -15.946700096130371
1.202039957046509 25.940999984741211 -15.951700210571289
1.711040019989014 26.179000854492188 -15.942700386047363
1.165040016174316 25.670999526977539 -15.970700263977051
1.324040055274963 25.670000076293945 -15.962699890136719
1.845039963722229 26.093999862670898 -15.952699661254883
1.784039974212647 25.556999206542969 -15.929699897766113
1.547039985656738 25.586999893188477 -15.971699714660645
1.116039991378784 25.822999954223633 -16.031700134277344
1.939039945602417 25.597999572753906 -15.954700469970703
1.338039994239807 25.936000823974609 -16.031700134277344
1.659039974212647 26.017999649047852 -16.013700485229492
1.921040058135986 25.812999725341797 -15.985699653625488
1.496039986610413 25.986000061035156 -16.031700134277344
1.796040058135986 25.938999176025391 -16.020700454711914
1.057039976119995 25.573999404907227 -16.053699493408203
0.849039018154144 25.629999160766602 -16.076700210571289
1.277040004730225 25.552000045776367 -16.072700500488281
1.653040051460266 25.468000411987305 -16.037700653076172
0.983038008213043 25.708999633789063 -16.109699249267578
1.801040053367615 25.403999328613281 -16.036699295043945
1.445039987564087 25.525999069213867 -16.077699661254883
1.226040005683899 25.759000778198242 -16.127700805664063
1.805040001869202 25.767000198364258 -16.089700698852539
1.413040041923523 25.836000442504883 -16.126699447631836
0.915037989616394 25.459999084472656 -16.149700164794922
1.621039986610413 25.825000762939453 -16.122699737548828
1.146039962768555 25.478000640869141 -16.152700424194336
0.762037992477417 25.558000564575195 -16.191699981689453
1.855039954185486 25.600000381469727 -16.138700485229492
1.110039949417114 25.648000717163086 -16.200700759887695
1.597040057182312 25.375999450683594 -16.156700134277344
0.957036972045898 25.599000930786133 -16.223699569702148
1.316040039062500 25.448999404907227 -16.192699432373047
1.752040028572083 25.291000366210938 -16.153699874877930
1.340039968490601 25.708999633789063 -16.225700378417969
1.914039969444275 25.284000396728516 -16.163700103759766
1.698040008544922 25.642000198364258 -16.209699630737305
0.826036989688873 25.378000259399414 -16.262699127197266
0.682039976119995 25.458999633789063 -16.287700653076172
1.518039941787720 25.690999984741211 -16.239700317382812
1.035040020942688 25.357000350952148 -16.280700683593750
1.454040050506592 25.358999252319336 -16.252700805664063
1.194039940834045 25.368000030517578 -16.277700424194336
1.786039948463440 25.495000839233398 -16.257699966430664
1.196040034294128 25.577999114990234 -16.312700271606445
1.590039968490601 25.565999984741211 -16.319700241088867
1.872040033340454 25.149999618530273 -16.271699905395508
0.742036998271942 25.327999114990234 -16.385700225830078
1.654039978981018 25.165000915527344 -16.309700012207031
1.411039948463440 25.565000534057617 -16.362699508666992
1.836040019989014 25.354000091552734 -16.316699981689453
1.326040029525757 25.284000396728516 -16.355699539184570
0.890039980411530 25.438999176025391 -16.408700942993164
0.902037024497986 25.261999130249023 -16.398700714111328
1.504040002822876 25.225000381469727 -16.352699279785156
1.084040045738220 25.454999923706055 -16.408700942993164
1.279039978981018 25.492000579833984 -16.426700592041016
1.658040046691895 25.392000198364258 -16.395700454711914
1.070039987564087 25.233999252319336 -16.449699401855469
1.514039993286133 25.469999313354492 -16.433700561523438
1.226040005683899 25.201999664306641 -16.447700500488281
1.772040009498596 25.028999328613281 -16.394699096679688
1.384039998054504 25.145000457763672 -16.438699722290039
1.529039978981018 25.077999114990234 -16.423700332641602
0.595037996768951 25.368000030517578 -16.523700714111328
0.830038011074066 25.350000381469727 -16.524700164794922
1.215039968490601 25.364000320434570 -16.504699707031250
1.743039965629578 25.201000213623047 -16.457700729370117
0.695035994052887 25.236999511718750 -16.546699523925781
1.845039963722229 24.867000579833984 -16.437700271606445
1.678040027618408 24.917999267578125 -16.463699340820313
0.994040012359619 25.312000274658203 -16.564699172973633
1.412039995193481 25.357000350952148 -16.535699844360352
0.984037995338440 25.141000747680664 -16.559700012207031
1.498039960861206 24.929000854492187 -16.515699386596680
1.288040041923523 25.045999526977539 -16.542699813842773
1.541039943695068 25.225000381469727 -16.549699783325195
0.816039025783539 25.135999679565430 -16.601699829101563
0.577036023139954 25.273000717163086 -16.649700164794922
1.150040030479431 25.260000228881836 -16.608699798583984
1.141039967536926 25.042999267578125 -16.609699249267578
1.656039953231812 25.094999313354492 -16.581699371337891
1.307039976119995 25.216999053955078 -16.628700256347656
1.781039953231812 24.739000320434570 -16.559700012207031
1.626039981842041 24.743999481201172 -16.599700927734375
1.324040055274963 24.889999389648437 -16.644699096679687
0.928038001060486 25.061000823974609 -16.689699172973633
1.463039994239807 24.784000396728516 -16.635700225830078
1.457039952278137 25.146999359130859 -16.672700881958008
1.738039970397949 24.938999176025391 -16.637699127197266
0.833037018775940 25.207000732421875 -16.741699218750000
0.587037980556488 25.149999618530273 -16.761699676513672
1.163040041923523 24.920000076293945 -16.720699310302734
1.104040026664734 25.167999267578125 -16.744699478149414
0.725039005279541 25.076000213623047 -16.780700683593750
1.626039981842041 24.938999176025391 -16.748699188232422
0.965036988258362 25.156000137329102 -16.821699142456055
1.014039993286133 24.926000595092773 -16.803699493408203
0.862039983272552 24.976999282836914 -16.825700759887695
1.250040054321289 25.083999633789063 -16.805700302124023
1.409039974212647 25.052000045776367 -16.793699264526367
1.634039998054504 24.561000823974609 -16.747699737548828
1.469040036201477 24.587999343872070 -16.765699386596680
0.485036998987198 25.179000854492188 -16.893699645996094
1.770040035247803 24.687000274658203 -16.768699645996094
1.306040048599243 24.718000411987305 -16.813699722290039
1.155040025711060 24.781999588012695 -16.856700897216797
1.668040037155151 24.794000625610352 -16.830699920654297
1.499040007591248 24.930999755859375 -16.853700637817383
1.129040002822876 25.048999786376953 -16.900699615478516
0.750037014484406 24.926000595092773 -16.933700561523438
1.800040006637573 24.475000381469727 -16.822700500488281
0.895036995410919 24.856000900268555 -16.927700042724609
0.671037971973419 25.062000274658203 -16.964700698852539
1.359040021896362 24.582000732421875 -16.894699096679687
0.981038987636566 25.020999908447266 -16.958700180053711
0.517039000988007 25.061000823974609 -17.000699996948242
1.674039959907532 24.408000946044922 -16.888700485229492
1.344040036201477 24.927000045776367 -16.951700210571289
1.002040028572083 24.732999801635742 -16.988700866699219
0.602038025856018 24.927000045776367 -17.034700393676758
1.474040031433106 24.434999465942383 -16.937700271606445
1.720039963722229 24.601999282836914 -16.931699752807617
1.597040057182312 24.725000381469727 -16.971700668334961
1.818040013313294 24.329999923706055 -16.941699981689453
1.209040045738220 24.600999832153320 -17.009700775146484
1.440039992332459 24.799999237060547 -17.013700485229492
0.888037025928497 24.936000823974609 -17.073699951171875
0.734037995338440 24.768999099731445 -17.096700668334961
1.316040039062500 24.486000061035156 -17.032699584960937
1.249040007591248 24.916999816894531 -17.076700210571289
1.065039992332459 24.937000274658203 -17.105699539184570
0.876039981842041 24.688999176025391 -17.105699539184570
1.052039980888367 24.607999801635742 -17.087699890136719
1.572039961814880 24.273000717163086 -17.034700393676758
0.558039009571075 24.791999816894531 -17.165700912475586
1.428040027618408 24.332000732421875 -17.077699661254883
1.471040010452271 24.680999755859375 -17.113700866699219
1.730039954185486 24.228000640869141 -17.062700271606445
1.599040031433106 24.572000503540039 -17.097700119018555
1.320039987564087 24.787000656127930 -17.140699386596680
1.161039948463440 24.489999771118164 -17.146699905395508
1.686040043830872 24.424999237060547 -17.103700637817383
0.835039973258972 24.834999084472656 -17.201700210571289
1.292039990425110 24.374000549316406 -17.156700134277344
1.162039995193481 24.820999145507813 -17.207700729370117
0.765039980411530 24.601999282836914 -17.232700347900391
0.576036989688873 24.650999069213867 -17.252700805664063
0.691039025783539 24.764999389648438 -17.254699707031250
0.446040004491806 24.740999221801758 -17.274700164794922
1.001039981842041 24.809000015258789 -17.246700286865234
1.521039962768555 24.198999404907227 -17.174699783325195
0.908038020133972 24.524000167846680 -17.251699447631836
1.842039942741394 24.138000488281250 -17.155700683593750
1.383039951324463 24.641000747680664 -17.238700866699219
1.687039971351624 24.138999938964844 -17.186700820922852
1.532039999961853 24.510999679565430 -17.228700637817383
1.024039983749390 24.427999496459961 -17.298700332641602
1.627040028572083 24.365999221801758 -17.248699188232422
1.213039994239807 24.721000671386719 -17.317699432373047
1.392040014266968 24.197999954223633 -17.267700195312500
1.174039959907532 24.337999343872070 -17.294700622558594
0.897040009498596 24.722000122070313 -17.351699829101562
0.492036998271942 24.618000030517578 -17.382699966430664
0.769038021564484 24.483999252319336 -17.355699539184570
0.691039025783539 24.649000167846680 -17.377700805664063
0.606038987636566 24.504999160766602 -17.384700775146484
1.058040022850037 24.709999084472656 -17.368700027465820
1.744040012359619 24.027999877929688 -17.295700073242187
1.441040039062500 24.503000259399414 -17.362699508666992
1.270040035247803 24.218000411987305 -17.364700317382812
1.306040048599243 24.590000152587891 -17.397699356079102
1.562039971351624 24.027999877929688 -17.344699859619141
0.879037976264954 24.391000747680664 -17.426700592041016
1.060039997100830 24.311000823974609 -17.407699584960938
1.605039954185486 24.250000000000000 -17.382699966430664
1.416039943695068 24.038999557495117 -17.416700363159180
0.483038008213043 24.479999542236328 -17.520700454711914
0.662038981914520 24.559999465942383 -17.523700714111328
1.034039974212647 24.610000610351563 -17.502700805664063
0.837037980556488 24.597000122070313 -17.518699645996094
0.723035991191864 24.389999389648438 -17.517700195312500
1.674039959907532 23.909000396728516 -17.411699295043945
1.495040059089661 24.319999694824219 -17.476699829101563
1.202039957046509 24.580999374389648 -17.521699905395508
0.949038028717041 24.274000167846680 -17.533700942993164
1.183040022850037 24.145999908447266 -17.507699966430664
1.373039960861206 24.431999206542969 -17.518699645996094
1.499040007591248 23.902000427246094 -17.474700927734375
1.661039948463440 24.072999954223633 -17.477699279785156
1.548040032386780 24.174999237060547 -17.538700103759766
1.797039985656738 23.850999832153320 -17.502700805664063
1.268039941787720 24.018999099731445 -17.559700012207031
0.457037001848221 24.368000030517578 -17.661699295043945
0.622038006782532 24.461999893188477 -17.660699844360352
1.033040046691895 24.152000427246094 -17.610700607299805
0.863039016723633 24.516000747680664 -17.654699325561523
1.617040038108826 23.718000411987305 -17.548700332641602
0.679036974906921 24.308000564575195 -17.663700103759766
1.364040017127991 23.885999679565430 -17.584699630737305
1.434039950370789 24.270000457763672 -17.613700866699219
0.875037014484406 24.215000152587891 -17.661699295043945
1.297039985656738 24.375999450683594 -17.651699066162109
1.174039959907532 24.490999221801758 -17.674699783325195
1.017040014266968 24.500000000000000 -17.690700531005859
1.451040029525757 23.753000259399414 -17.611700057983398
1.557039976119995 24.040000915527344 -17.643699645996094
1.110039949417114 24.030000686645508 -17.678699493408203
0.552039027214050 24.292999267578125 -17.762699127197266
0.761038005352020 24.452999114990234 -17.761699676513672
1.707039952278137 23.833999633789063 -17.663700103759766
1.679039955139160 23.599000930786133 -17.651699066162109
0.734037995338440 24.193000793457031 -17.774700164794922
1.816040039062500 23.694999694824219 -17.660699844360352
1.202039957046509 23.908000946044922 -17.735700607299805
1.320039987564087 23.795000076293945 -17.718700408935547
1.362040042877197 24.215999603271484 -17.755699157714844
0.978036999702454 24.025999069213867 -17.781700134277344
1.572039961814880 23.898000717163086 -17.733699798583984
1.446040034294128 23.635999679565430 -17.730699539184570
1.561040043830872 23.506999969482422 -17.712699890136719
1.240039944648743 24.320999145507813 -17.803699493408203
1.472040057182312 24.018999099731445 -17.775699615478516
0.925040006637573 24.417999267578125 -17.851699829101563
0.660036027431488 24.343000411987305 -17.871700286865234
1.101040005683899 24.395000457763672 -17.855699539184570
1.645040035247803 23.746999740600586 -17.798700332641602
1.764039993286133 23.607999801635742 -17.789699554443359
1.138039946556091 23.834999084472656 -17.860700607299805
0.623037993907928 24.202999114990234 -17.934700012207031
0.872038006782532 23.986000061035156 -17.901699066162109
1.256039977073669 23.728000640869141 -17.860700607299805
1.503039956092835 23.857000350952148 -17.868700027465820
1.632040023803711 23.346000671386719 -17.826700210571289
1.362040042877197 23.576999664306641 -17.876699447631836
0.991038024425507 23.871000289916992 -17.933700561523438
1.468039989471436 23.441999435424805 -17.867700576782227
0.722037017345428 24.031999588012695 -17.972700119018555
1.399039983749390 23.993999481201172 -17.919700622558594
0.803038001060486 24.301000595092773 -18.005699157714844
1.159039974212647 24.283000946044922 -17.976699829101563
1.283040046691895 24.134000778198242 -17.957700729370117
1.003039956092835 24.313999176025391 -18.004699707031250
1.685039997100830 23.531999588012695 -17.902700424194336
1.542039990425110 23.712999343872070 -17.935699462890625
1.481040000915527 23.291999816894531 -17.920700073242188
0.854036986827850 23.889999389648437 -18.024700164794922
1.219040036201477 23.634000778198242 -17.985700607299805
1.083039999008179 23.735000610351562 -18.009700775146484
1.437039971351624 23.822999954223633 -18.009700775146484
0.689040005207062 24.173000335693359 -18.102699279785156
1.309039950370789 23.497999191284180 -18.011699676513672
0.633040010929108 24.013999938964844 -18.116699218750000
1.565039992332459 23.572000503540039 -18.019699096679688
0.942037999629974 23.771999359130859 -18.085699081420898
1.322039961814880 23.978000640869141 -18.074699401855469
0.930037021636963 24.224000930786133 -18.130699157714844
1.384039998054504 23.350000381469727 -18.034700393676758
1.131039977073669 24.200000762939453 -18.122699737548828
1.627040028572083 23.055999755859375 -18.010700225830078
0.734037995338440 23.885999679565430 -18.144699096679688
1.492040038108826 23.125999450683594 -18.058700561523438
1.617040038108826 23.384000778198242 -18.081699371337891
1.675040006637573 23.224000930786133 -18.069700241088867
1.099040031433106 23.611000061035156 -18.147699356079102
1.215039968490601 23.496000289916992 -18.139699935913086
1.362040042877197 23.830999374389648 -18.153699874877930
1.444039940834045 23.638999938964844 -18.141700744628906
0.829038977622986 23.767000198364258 -18.203699111938477
1.236039996147156 24.003999710083008 -18.208700180053711
0.858038008213043 24.134000778198242 -18.253700256347656
0.722037017345428 24.051000595092773 -18.270700454711914
1.300040006637573 23.336999893188477 -18.181699752807617
1.041039943695068 24.136999130249023 -18.266700744628906
0.967038989067078 23.635999679565430 -18.242700576782227
1.508039951324463 23.437000274658203 -18.188699722290039
1.537039995193481 22.975999832153320 -18.165700912475586
0.652037024497986 23.910999298095703 -18.306699752807617
1.395040035247803 23.101999282836914 -18.207700729370117
1.564039945602417 23.268999099731445 -18.210699081420898
1.369040012359619 23.691999435424805 -18.276699066162109
1.104040026664734 23.507999420166016 -18.291700363159180
1.289039969444275 23.832000732421875 -18.307699203491211
0.708037018775940 23.752000808715820 -18.354700088500977
1.413040041923523 23.520000457763672 -18.299699783325195
0.834035992622375 23.648000717163086 -18.355699539184570
1.210039973258972 23.385000228881836 -18.309700012207031
1.124040007591248 24.024000167846680 -18.365699768066406
1.596040010452271 23.090000152587891 -18.276699066162109
1.436040043830872 22.943000793457031 -18.286699295043945
0.763037025928497 23.993000030517578 -18.415700912475586
0.983038008213043 24.037000656127930 -18.441699981689453
0.613039016723633 23.840000152587891 -18.458700180053711
1.494040012359619 23.256000518798828 -18.350700378417969
1.192039966583252 23.889999389648437 -18.420700073242187
1.499040007591248 22.760000228881836 -18.319700241088867
1.616039991378784 22.881999969482422 -18.326700210571289
0.920038998126984 23.541000366210937 -18.435699462890625
1.073040008544922 23.440000534057617 -18.433700561523438
1.276039958000183 23.742000579833984 -18.441699981689453
1.325039982795715 23.065999984741211 -18.391700744628906
1.346040010452271 23.599000930786133 -18.428699493408203
1.277040004730225 23.222999572753906 -18.415700912475586
0.666037023067474 23.636999130249023 -18.512699127197266
1.410040020942688 23.372999191284180 -18.449699401855469
1.382040023803711 22.856000900268555 -18.427700042724609
1.178040027618408 23.329000473022461 -18.477699279785156
1.560039997100830 23.009000778198242 -18.428699493408203
0.554036974906921 23.725999832153320 -18.585699081420898
0.777037024497986 23.898000717163086 -18.589700698852539
0.929036974906921 23.952999114990234 -18.584699630737305
1.493039965629578 23.139999389648438 -18.485700607299805
1.115039944648743 23.885999679565430 -18.568700790405273
0.813036024570465 23.503000259399414 -18.572700500488281
1.539039969444275 22.621000289916992 -18.462699890136719
1.399039983749390 22.690000534057617 -18.482700347900391
1.248039960861206 23.093999862670898 -18.533700942993164
1.028040051460266 23.374000549316406 -18.578699111938477
1.204040050506592 23.746000289916992 -18.595699310302734
1.304039955139160 23.570999145507813 -18.579700469970703
1.297039985656738 22.913000106811523 -18.559700012207031
0.692037999629974 23.799999237060547 -18.678699493408203
0.680037021636963 23.520999908447266 -18.662700653076172
1.376039981842041 23.370000839233398 -18.606700897216797
0.532037973403931 23.601999282836914 -18.699699401855469
0.885038971900940 23.385000228881836 -18.669700622558594
1.534039974212647 22.834999084472656 -18.586700439453125
1.440039992332459 22.524000167846680 -18.578699111938477
1.506039977073669 23.018999099731445 -18.612699508666992
1.105039954185486 23.218999862670898 -18.659700393676758
1.421040058135986 23.204000473022461 -18.640699386596680
0.871038973331451 23.861000061035156 -18.733699798583984
1.033040046691895 23.864999771118164 -18.726699829101563
1.341040015220642 22.711000442504883 -18.633699417114258
1.181040048599243 23.044000625610352 -18.669700622558594
1.206040024757385 23.649000167846680 -18.719699859619141
1.554039955139160 22.631999969482422 -18.637699127197266
0.720037996768951 23.398000717163086 -18.781700134277344
0.978036999702454 23.239999771118164 -18.757699966430664
1.265040040016174 22.850000381469727 -18.713699340820313
1.281039953231812 23.486000061035156 -18.764699935913086
0.753039002418518 23.753999710083008 -18.827699661254883
1.102040052413940 23.739999771118164 -18.801700592041016
0.619040012359619 23.652999877929688 -18.839700698852539
1.521039962768555 22.900999069213867 -18.734699249267578
1.444039940834045 23.087999343872070 -18.759700775146484
1.351040005683899 23.312999725341797 -18.783700942993164
1.368039965629578 22.465999603271484 -18.733699798583984
0.565038979053497 23.504999160766602 -18.871700286865234
0.917035996913910 23.785999298095703 -18.866699218750000
0.819037020206451 23.284000396728516 -18.842699050903320
1.084040045738220 23.066999435424805 -18.808700561523437
1.170040011405945 23.591999053955078 -18.875699996948242
1.295040011405945 22.566999435424805 -18.834699630737305
1.152040004730225 22.874000549316406 -18.868700027465820
1.475039958953857 22.579999923706055 -18.827699661254883
1.241039991378784 23.444000244140625 -18.923700332641602
0.590036988258362 23.350000381469727 -18.970699310302734
1.235039949417114 22.708000183105469 -18.875699996948242
0.975039005279541 23.135000228881836 -18.929700851440430
0.683039009571075 23.597999572753906 -19.005699157714844
0.691039025783539 23.226999282836914 -18.980699539184570
1.020040035247803 22.972000122070313 -18.937700271606445
0.155038997530937 22.948999404907227 -19.004699707031250
1.451040029525757 22.943000793457031 -18.906700134277344
0.261038005352020 23.075000762939453 -19.010700225830078
1.486039996147156 22.761999130249023 -18.895700454711914
0.838038027286530 23.679000854492188 -19.014699935913086
1.309039950370789 22.408000946044922 -18.892700195312500
1.308040022850037 23.298999786376953 -18.957700729370117
0.996038973331451 23.718999862670898 -19.016700744628906
1.099040031433106 23.584999084472656 -19.018699645996094
0.818036973476410 23.108999252319336 -19.028699874877930
1.069039940834045 22.797000885009766 -18.993700027465820
1.389039993286133 23.062999725341797 -18.989700317382813
0.630038022994995 23.455999374389648 -19.089700698852539
1.213039994239807 22.493999481201172 -18.995700836181641
1.146039962768555 22.652999877929688 -19.016700744628906
1.418040037155151 22.569000244140625 -18.993700027465820
0.558039009571075 23.097000122070313 -19.104700088500977
0.584035992622375 23.277999877929687 -19.117700576782227
1.181040048599243 23.423999786376953 -19.085699081420898
0.894038021564484 22.938999176025391 -19.074699401855469
0.695035994052887 23.013000488281250 -19.109699249267578
0.791037023067474 23.586999893188477 -19.149700164794922
1.436040043830872 22.757999420166016 -19.048700332641602
0.287039011716843 22.997999191284180 -19.161699295043945
0.243037000298500 22.839000701904297 -19.156700134277344
0.413038998842239 22.822999954223633 -19.160699844360352
1.379040002822876 22.944000244140625 -19.101699829101563
1.246039986610413 23.284000396728516 -19.137699127197266
0.932039976119995 22.775999069213867 -19.134700775146484
1.077039957046509 23.517999649047852 -19.177700042724609
0.452035993337631 22.989999771118164 -19.191699981689453
1.327039957046509 23.118000030517578 -19.133699417114258
0.777037024497986 22.858999252319336 -19.183700561523438
1.317039966583252 22.426000595092773 -19.112699508666992
0.952036023139954 23.600999832153320 -19.230699539184570
1.101040005683899 22.504999160766602 -19.146699905395508
0.577036023139954 22.832000732421875 -19.211700439453125
1.170040011405945 22.354000091552734 -19.144699096679688
0.314040005207062 22.718999862670898 -19.241699218750000
0.991038024425507 22.632999420166016 -19.184700012207031
0.534036993980408 23.165000915527344 -19.258699417114258
0.678038001060486 23.422000885009766 -19.271699905395508
1.397040009498596 22.672000885009766 -19.188699722290039
0.813036024570465 23.510000228881836 -19.300699234008789
1.319039940834045 22.997999191284180 -19.240699768066406
0.318037003278732 22.945999145507813 -19.317699432373047
0.498037993907928 22.674999237060547 -19.287700653076172
1.364040017127991 22.820999145507812 -19.230699539184570
0.864039003849030 22.688999176025391 -19.266700744628906
0.597037017345428 23.294000625610352 -19.331699371337891
0.420038998126984 23.065000534057617 -19.338699340820313
1.177039980888367 23.315999984741211 -19.300699234008789
1.375040054321289 22.509000778198242 -19.232700347900391
0.352037996053696 22.584999084472656 -19.328699111938477
1.021039962768555 23.510000228881836 -19.341699600219727
1.275040030479431 22.236000061035156 -19.239700317382813
1.265040040016174 23.131000518798828 -19.307699203491211
1.014039993286133 22.462999343872070 -19.296699523925781
0.728036999702454 22.746000289916992 -19.353700637817383
1.133039951324463 22.159000396728516 -19.299699783325195
0.882036983966827 22.555000305175781 -19.348699569702148
1.376039981842041 22.631999969482422 -19.345699310302734
0.621038973331451 22.635999679565430 -19.411699295043945
1.343039989471436 22.347000122070312 -19.348699569702148
1.281039953231812 22.986999511718750 -19.404699325561523
0.792035996913910 23.392999649047852 -19.492700576782227
0.749037027359009 22.545000076293945 -19.438699722290039
0.529039978981018 23.124000549316406 -19.501699447631836
1.328040003776550 22.797000885009766 -19.417699813842773
0.397040009498596 22.802999496459961 -19.493700027465820
0.438035994768143 22.992000579833984 -19.508699417114258
0.944037020206451 22.388999938964844 -19.427700042724609
0.970037996768951 23.469999313354492 -19.501699447631836
1.118039965629578 23.284999847412109 -19.500699996948242
0.585039973258972 22.500000000000000 -19.488700866699219
1.045040011405945 22.229000091552734 -19.434700012207031
0.422037988901138 22.468000411987305 -19.501699447631836
0.665037989616394 23.253999710083008 -19.549699783325195
1.220039963722229 23.132999420166016 -19.511699676513672
0.803038001060486 22.408000946044922 -19.508699417114258
1.356040000915527 22.510999679565430 -19.482700347900391
0.430036991834641 22.613000869750977 -19.571699142456055
1.308040022850037 22.333999633789063 -19.505699157714844
1.206040024757385 22.183000564575195 -19.508699417114258
1.268039941787720 22.978000640869141 -19.572700500488281
1.025040030479431 23.336999893188477 -19.625699996948242
0.526037991046906 22.364000320434570 -19.598699569702148
0.832036972045898 23.329999923706055 -19.643699645996094
0.943036973476410 22.238000869750977 -19.559700012207031
0.602038025856018 23.114999771118164 -19.653699874877930
1.299039959907532 22.791999816894531 -19.579700469970703
1.062039971351624 22.113000869750977 -19.553699493408203
0.496039003133774 22.936000823974609 -19.657699584960938
0.459035992622375 22.740999221801758 -19.659700393676758
0.715036988258362 23.221000671386719 -19.698699951171875
0.680037021636963 22.320999145507813 -19.641700744628906
1.313040018081665 22.589000701904297 -19.615699768066406
0.483038008213043 22.509000778198242 -19.679700851440430
1.202039957046509 23.090000152587891 -19.689699172973633
0.819037020206451 22.238000869750977 -19.669700622558594
1.236039996147156 22.288000106811523 -19.651699066162109
0.976037979125977 22.138999938964844 -19.686700820922852
0.576036989688873 22.993000030517578 -19.780700683593750
0.524038970470428 22.826000213623047 -19.796699523925781
1.268039941787720 22.885000228881836 -19.745700836181641
0.492036998271942 22.625999450683594 -19.793699264526367
0.660036027431488 23.120000839233398 -19.819700241088867
0.969038009643555 23.319999694824219 -19.813699722290039
1.253039956092835 22.443000793457031 -19.743700027465820
1.148040056228638 22.180000305175781 -19.734699249267578
0.779039978981018 23.219999313354492 -19.843700408935547
1.281039953231812 22.618000030517578 -19.767700195312500
0.702036023139954 22.222999572753906 -19.790700912475586
1.119040012359619 23.118999481201172 -19.835699081420898
0.496039003133774 22.486000061035156 -19.883699417114258
1.053040027618408 22.076999664306641 -19.813699722290039
0.875037014484406 22.118000030517578 -19.830699920654297
1.220039963722229 22.972000122070313 -19.885700225830078
0.599039018154144 22.954000473022461 -19.943700790405273
0.572039008140564 22.233999252319336 -19.896699905395508
0.900038003921509 23.219999313354492 -19.952699661254883
0.724039018154144 23.128000259399414 -19.967699050903320
1.196040034294128 22.333000183105469 -19.877700805664062
0.555037021636963 22.784999847412109 -19.974700927734375
1.260040044784546 22.813999176025391 -19.946699142456055
1.261039972305298 22.496000289916992 -19.937700271606445
1.118039965629578 22.166999816894531 -19.928699493408203
0.528035998344421 22.590999603271484 -20.010700225830078
0.771036982536316 22.106000900268555 -19.962699890136719
0.950037002563477 22.058000564575195 -19.966699600219727
1.124040007591248 23.048999786376953 -20.024700164794922
0.499036997556686 22.375999450683594 -20.028699874877930
0.668039977550507 23.014999389648437 -20.072700500488281
1.002040028572083 23.135999679565430 -20.076700210571289
0.649038970470428 22.135000228881836 -20.058700561523438
1.220039963722229 22.905000686645508 -20.074699401855469
0.553038001060486 22.715999603271484 -20.123699188232422
0.819037020206451 23.106000900268555 -20.148700714111328
0.608038008213043 22.888000488281250 -20.152700424194336
1.279039978981018 22.708000183105469 -20.090700149536133
0.546037971973419 22.239000320434570 -20.120700836181641
1.165040016174316 22.274999618530273 -20.080699920654297
1.048040032386780 22.136999130249023 -20.084699630737305
0.827036023139954 22.013999938964844 -20.120700836181641
0.539038002490997 22.561000823974609 -20.195699691772461
1.091040015220642 23.024000167846680 -20.197700500488281
1.243039965629578 22.423999786376953 -20.156700134277344
0.518037974834442 22.395000457763672 -20.218700408935547
0.953040003776550 23.079000473022461 -20.249700546264648
0.766039013862610 23.020000457763672 -20.278699874877930
1.244040012359619 22.759000778198242 -20.245700836181641
1.173040032386780 22.906999588012695 -20.265699386596680
0.987039983272552 22.079999923706055 -20.231700897216797
0.727038025856018 22.020999908447266 -20.249700546264648
0.571039974689484 22.812999725341797 -20.318700790405273
1.109040021896362 22.204999923706055 -20.234699249267578
0.609037995338440 22.128000259399414 -20.281700134277344
0.877039015293121 21.966999053955078 -20.277700424194336
0.635038971900940 22.978000640869141 -20.373699188232422
1.188040018081665 22.329999923706055 -20.290700912475586
0.529039978981018 22.607999801635742 -20.413700103759766
0.462038010358810 22.764999389648437 -20.436700820922852
1.054039955139160 22.952999114990234 -20.419700622558594
0.882036983966827 23.020000457763672 -20.439699172973633
1.166039943695068 22.837999343872070 -20.412700653076172
0.542035996913910 22.205999374389648 -20.432699203491211
1.039039969444275 22.075000762939453 -20.404699325561523
1.142040014266968 22.197999954223633 -20.417699813842773
1.250040054321289 22.416999816894531 -20.428699493408203
1.295040011405945 22.570999145507813 -20.437700271606445
0.595037996768951 22.010999679565430 -20.455699920654297
0.771036982536316 21.919000625610352 -20.436700820922852
0.933039009571075 21.930000305175781 -20.435699462890625
0.395036995410919 22.646999359130859 -20.528699874877930
0.485036998987198 22.434999465942383 -20.540700912475586
1.242040038108826 22.690000534057617 -20.531700134277344
0.969038009643555 22.940999984741211 -20.581699371337891
0.486036986112595 21.936000823974609 -20.551700592041016
0.468039005994797 22.093999862670898 -20.567699432373047
1.210039973258972 22.285999298095703 -20.533700942993164
1.132040023803711 22.815999984741211 -20.580699920654297
0.452035993337631 22.297000885009766 -20.609699249267578
0.668039977550507 21.839000701904297 -20.560699462890625
0.825037002563477 21.850000381469727 -20.568700790405273
1.056040048599243 22.033000946044922 -20.574699401855469
1.166039943695068 22.149000167846680 -20.621700286865234
0.998037993907928 21.888000488281250 -20.618700027465820
0.356038987636566 22.202999114990234 -20.709699630737305
0.913039028644562 22.924999237060547 -20.727699279785156
1.192039966583252 22.708999633789063 -20.692699432373047
1.045040011405945 22.840999603271484 -20.713699340820313
1.256039977073669 22.347000122070312 -20.683700561523438
1.282039999961853 22.525999069213867 -20.705699920654297
1.118039965629578 22.031000137329102 -20.720699310302734
1.061040043830872 21.841999053955078 -20.766700744628906
0.971036970615387 22.836999893188477 -20.856700897216797
1.191040039062500 22.136999130249023 -20.817699432373047
1.097040057182312 22.729999542236328 -20.866699218750000
1.244040012359619 22.285999298095703 -20.828699111938477
1.219040036201477 22.597000122070313 -20.852699279785156
1.202039957046509 21.972999572753906 -20.841699600219727
1.266039967536926 22.441999435424805 -20.883699417114258
1.309039950370789 22.059999465942383 -20.926700592041016
1.319039940834045 21.878000259399414 -20.918699264526367
1.232040047645569 22.197000503540039 -20.960699081420898
1.330039978027344 21.711000442504883 -20.952699661254883
1.171040058135986 22.559999465942383 -21.037700653076172
