ply
format ascii 1.0
element vertex 374
property double x
property double y
property double z
end_header
-15.390072000000000 -85.643743999999998 -503.383324000000020
-13.720904000000001 -85.767078999999995 -503.239165000000010
-11.907571000000001 -85.653745000000001 -502.310813000000000
-8.897570999999999 -81.648745000000005 -502.875819999999980
-16.060072000000002 -79.693747999999999 -503.065810000000000
-13.182570999999999 -79.778745999999998 -503.665804999999980
-11.940072000000001 -79.503747000000004 -503.343299000000000
-13.981322000000000 -85.152494000000004 -500.978317000000000
-11.992571000000000 -85.658743999999999 -500.895798000000010
-9.888821000000000 -85.615412000000006 -501.080400999999990
-16.117571000000002 -84.191243999999998 -501.305789000000000
-9.062571000000000 -82.773745000000005 -502.025813000000030
-17.109238999999999 -81.780413999999993 -501.510819000000030
-9.272572000000000 -81.552081999999999 -500.895812999999980
-15.252571000000000 -80.012078000000002 -501.375250999999990
-13.279237000000000 -80.028747999999993 -502.082487000000010
-11.952571000000001 -79.843740999999994 -500.915796000000000
-9.955072000000000 -79.506245000000007 -500.528327999999990
-7.927572000000000 -79.963744000000005 -501.420796000000000
-6.638822000000000 -79.806242999999995 -501.383297000000030
-14.000071000000000 -85.113742999999999 -498.730794000000000
-11.962571000000001 -85.588738000000006 -499.055803000000030
-10.040072000000000 -85.438743000000002 -499.078304000000000
-16.032571000000001 -84.033745999999994 -499.430805000000020
-17.272570999999999 -82.130410999999995 -499.304146000000000
-9.648127000000001 -81.612632000000005 -498.988025999999990
-15.992571000000000 -80.338742999999994 -499.425798999999980
-13.695904000000001 -79.992909999999995 -499.332477999999980
-11.912571000000000 -79.838745000000003 -498.795807000000020
-9.957572000000001 -79.588745000000003 -499.350800999999990
-13.735905000000001 -85.243744000000007 -497.155804999999990
-11.917572000000000 -85.618748999999994 -497.230813000000010
-10.113822000000001 -85.356246999999996 -497.183304000000020
-16.010905999999999 -84.115412000000006 -496.980816000000000
-9.424238000000001 -82.826244000000003 -497.249139000000010
-17.280487999999998 -81.913745000000006 -497.284771999999980
-10.422571000000000 -80.898747000000000 -497.510806000000000
-15.877572000000001 -80.258741999999998 -497.425810000000010
-13.567572000000000 -80.035413000000005 -497.170811000000010
-11.922571000000000 -80.231245999999999 -497.073308000000000
-9.755903999999999 -79.758746000000002 -497.232457000000010
-14.006321000000000 -85.188743000000002 -494.983312000000010
-11.982570000000001 -85.718744000000001 -494.455784999999990
-9.871321000000000 -85.137496999999996 -495.058306000000020
-16.117571999999999 -84.113738999999995 -494.740798999999980
-9.372571000000001 -82.763739000000001 -494.715809999999980
-17.140905000000000 -81.730417000000003 -495.460803000000000
-10.500071000000000 -81.216245999999998 -496.145815000000030
-16.002571000000000 -80.278746999999996 -494.755833999999990
-14.685905000000000 -80.005412000000007 -495.169132999999990
-11.982570000000001 -80.608748000000006 -494.675785000000020
-9.350571000000000 -78.433745000000002 -496.174818000000020
-14.602573000000000 -84.918745000000001 -493.155837000000020
-11.977572000000000 -85.768741000000006 -492.840797000000010
-10.014238000000001 -85.270409000000001 -492.730805999999970
-16.115071000000000 -84.114577999999995 -493.311646000000000
-9.372571000000001 -82.788751000000005 -493.465796000000010
-16.920071000000000 -81.926247000000004 -493.745789000000000
-11.551460000000001 -81.022080000000003 -493.503597000000010
-15.972571000000000 -80.348744999999994 -493.495791999999990
-14.177572000000000 -80.180414999999996 -493.365823999999980
-13.955904000000000 -85.288742999999997 -491.464142999999980
-11.902571999999999 -85.648745000000005 -490.505785000000000
-10.030905000000001 -85.248745000000000 -490.640799000000020
-16.432572000000000 -83.935410000000005 -490.662465999999990
-9.397570999999999 -82.918743000000006 -491.317471000000010
-17.115072999999999 -82.631247000000002 -491.300798999999980
-16.402570999999998 -80.878743999999998 -491.505809000000000
-11.264238000000001 -81.368744000000007 -491.034134999999990
-13.612571000000001 -80.355413999999996 -491.255805000000010
-14.244237999999999 -85.205410999999998 -489.167482000000010
-11.957572000000001 -85.663747000000001 -488.928303000000030
-10.140905000000000 -85.197080000000000 -489.120800999999970
-17.415071999999999 -82.778745999999998 -488.788314000000010
-16.242571000000002 -84.208742000000001 -489.460796000000020
-9.432570999999999 -82.823746000000000 -489.075809999999990
-17.189239000000001 -81.295416000000003 -488.847479000000020
-11.614238000000000 -81.273746000000003 -488.997469000000020
-10.562571000000000 -81.858746999999994 -489.215821000000010
-15.992571999999999 -80.393743000000001 -489.205836999999970
-13.735905000000001 -80.482083000000003 -489.285806999999980
-13.947571000000000 -85.364576999999997 -487.557473000000020
-11.992571000000000 -85.698746000000000 -486.645818000000020
-10.029237999999999 -85.192079000000007 -487.322489000000020
-17.773126999999999 -83.595411999999996 -486.812481999999990
-15.862572000000000 -84.578744999999998 -487.380817999999980
-9.412571000000000 -82.803745000000006 -487.045810000000020
-17.920905000000001 -81.532077999999998 -486.490800999999980
-11.767571999999999 -81.203749000000002 -486.813284000000010
-10.652571999999999 -81.808750000000003 -487.415804999999980
-15.932573000000000 -80.348744999999994 -486.965776000000010
-14.204238000000000 -80.487076000000002 -487.079143999999990
-14.172571000000000 -85.296243000000004 -485.540799999999990
-12.002572000000001 -85.598743999999996 -485.015808999999990
-9.960905000000000 -85.185411000000002 -485.149135000000000
-18.907571000000001 -82.663745000000006 -484.680802000000030
-17.312573000000000 -83.258741000000001 -484.505802000000020
-16.115071000000000 -84.321247000000000 -485.198304000000010
-9.447571999999999 -82.828742000000005 -485.145791999999970
-18.742573000000000 -82.444742000000005 -485.321814000000020
-17.937571999999999 -81.376244999999997 -484.850816000000010
-13.982571999999999 -80.668744000000004 -485.305815999999990
-11.442572000000000 -81.368744000000007 -485.945790999999990
-10.662571000000000 -81.798747000000006 -486.005843000000030
-17.309238000000001 -79.912079000000006 -485.144138000000000
-16.002571000000000 -80.418751000000000 -485.705793000000030
-14.215904999999999 -85.362077999999997 -483.601365999999980
-12.002572000000001 -85.698746000000000 -483.650803999999990
-10.061738000000000 -85.262912000000000 -483.237467999999980
-17.332573000000000 -83.198747999999995 -483.015806000000000
-16.317571999999998 -84.238744999999994 -482.590824000000000
-9.387570999999999 -83.046244000000002 -483.420818999999990
-17.459237000000002 -82.592076000000006 -483.230798999999990
-16.190071000000000 -80.968743000000003 -483.340800000000000
-13.715904999999999 -80.825411000000003 -483.392487000000020
-11.842572000000001 -81.273748999999995 -483.398318000000020
-10.400072000000000 -82.166240999999999 -483.238323999999980
-13.932570999999999 -85.548743999999999 -481.730803999999980
-11.967572000000001 -85.943743999999995 -481.040791000000010
-10.297572000000001 -85.528743000000006 -481.465816000000020
-16.297570000000000 -84.278739999999999 -481.905818000000010
-9.302571000000000 -83.198747999999995 -481.935798999999970
-17.439238000000000 -82.565414000000004 -480.922480000000010
-16.185072000000002 -81.251243000000002 -481.005825000000020
-14.185905000000000 -80.955411999999995 -481.019139000000000
-11.922572000000001 -81.312078000000000 -481.519122999999980
-10.237571000000001 -82.423747000000006 -481.715798000000010
-15.545071000000000 -85.091239000000002 -479.498312000000000
-13.752572000000001 -85.658747000000005 -479.564706000000000
-11.927572000000000 -85.853744000000006 -478.230789000000020
-10.191459999999999 -85.293189999999996 -479.765806000000000
-17.123822000000001 -83.923743000000002 -479.287054000000010
-9.332572000000001 -83.308749000000006 -479.715794000000020
-17.642572000000001 -82.578744999999998 -478.547794000000010
-16.202570999999999 -81.283743999999999 -478.635803000000010
-13.917571000000001 -81.094993000000002 -478.555810000000010
-11.975072000000001 -81.371251999999998 -479.455821000000010
-10.232571000000000 -82.376247000000006 -479.490801999999970
-15.342571000000000 -85.181246000000002 -477.448300000000020
-13.272570999999999 -85.778743000000006 -477.725803999999980
-11.992571000000000 -85.898741999999999 -476.325809999999990
-10.407571000000001 -85.423749000000001 -477.765799000000020
-17.242571000000002 -83.918743000000006 -476.765810999999990
-9.321322000000000 -83.768745999999993 -477.357045000000030
-17.287572000000001 -81.918743000000006 -477.405801000000000
-15.989238000000000 -81.325408999999993 -477.282473999999980
-14.612570000000000 -81.258743999999993 -476.515800000000010
-12.159238000000000 -81.408750999999995 -477.359135999999980
-10.325072000000000 -82.413741999999999 -477.418296000000000
-15.407571000000001 -85.284853999999996 -475.485813000000010
-13.312571000000000 -85.823745000000002 -475.795791000000010
-11.977572000000000 -85.863747000000004 -474.295810000000020
-10.332571000000000 -85.399299999999997 -475.611910000000020
-17.435905000000002 -83.567077999999995 -475.477466999999990
-17.745903999999999 -82.492080999999999 -474.669149000000000
-15.915070999999999 -81.416246000000001 -475.313290999999990
-13.754238000000001 -81.255414000000002 -474.845806999999980
-11.690905000000001 -81.720410999999999 -475.689138000000010
-10.382571000000000 -82.565411999999995 -474.619149999999990
-15.837571000000001 -85.283741000000006 -473.395809999999980
-13.942570999999999 -85.763743000000005 -473.125823000000030
-10.657571000000001 -85.528741999999994 -473.120809000000010
-17.357572000000001 -84.228742999999994 -473.230794000000000
-17.910571000000001 -82.586743999999996 -473.281813000000000
-15.652571000000000 -81.408743000000001 -473.310806000000010
-13.347571000000000 -81.348740000000006 -473.220795000000010
-11.972573000000001 -81.738748000000001 -473.365814000000000
-10.652571999999999 -82.328751999999994 -473.255812999999990
-15.294238000000000 -85.512079000000000 -471.470807999999980
-13.282572000000000 -85.928746000000004 -471.750781000000020
-11.932570999999999 -85.923743000000002 -471.870825000000020
-10.290072000000000 -85.293744000000004 -471.210815000000030
-17.403404999999999 -84.223742999999999 -471.332477999999980
-17.632572000000000 -82.488744999999994 -471.113301999999980
-16.002571000000000 -81.608743000000004 -471.515805000000000
-13.967571000000000 -81.407910999999999 -471.787467999999990
-12.023405000000000 -81.530411000000001 -471.061644000000000
-10.355072000000000 -82.546246999999994 -471.980802999999980
-15.931739000000000 -85.363747000000004 -469.548312000000010
-13.972571000000000 -85.898746000000003 -468.853324999999980
-11.987571000000001 -85.983745999999996 -469.355807000000030
-10.180071000000000 -85.483743000000004 -468.853310000000020
-17.535072000000000 -84.128744999999995 -468.858301999999980
-17.754238999999998 -82.487075000000004 -469.002479999999990
-15.987571000000001 -81.628747000000004 -469.350799999999990
-13.737572000000000 -81.380967999999996 -469.514698000000010
-11.952572000000000 -80.848738999999995 -468.685806000000010
-16.162571000000000 -85.412077999999994 -466.682474000000010
-13.980071000000001 -86.038743999999994 -466.353312000000020
-11.882572000000000 -85.973742999999999 -466.245799999999970
-9.695349000000000 -85.455409000000003 -466.956934999999990
-17.724795000000000 -83.797631999999993 -466.819146999999990
-17.607572000000001 -82.458753000000002 -467.095822000000000
-15.997571000000001 -81.718743000000003 -466.380805000000010
-13.995905000000000 -81.222076999999999 -467.200810999999990
-11.932570999999999 -80.638744000000003 -467.410818000000010
-16.002571000000000 -85.508745000000005 -465.280801000000000
-14.170071000000000 -86.111245999999994 -464.758291999999980
-9.985071000000000 -86.103739000000004 -465.575799000000020
-17.752571000000000 -84.018743999999998 -465.245813000000000
-17.415071999999999 -82.421244999999999 -465.220816000000010
-13.714238000000000 -81.680412000000004 -464.992487999999980
-11.419238000000000 -81.675413000000006 -465.007478999999990
-9.215904000000000 -86.662079000000006 -463.725784999999970
-17.312570999999998 -84.708738999999994 -463.845789000000020
-16.266738000000000 -85.452078999999998 -463.024152000000020
-13.947571000000000 -86.168746999999996 -463.410795000000010
-12.002572000000001 -85.948742999999993 -463.265821000000020
-9.726737999999999 -85.670411999999999 -463.029143999999970
-17.905906000000002 -83.867081999999996 -463.430821999999980
-11.867571000000000 -82.663747999999998 -462.810798999999970
-10.189238000000000 -83.742075999999997 -463.348028000000000
-17.262571000000001 -82.458742000000001 -463.455796000000020
-15.957572000000001 -81.906244000000001 -463.085823000000000
-13.937571000000000 -82.028750000000002 -463.300794000000000
-11.847571000000000 -82.623745999999997 -464.035794000000010
-17.317572999999999 -84.783743999999999 -461.220816000000010
-16.492573000000000 -85.428745000000006 -461.305827000000020
-13.662571000000000 -86.145413000000005 -461.569149999999980
-11.422571000000000 -85.483744999999999 -461.503318999999980
-10.582571000000000 -85.348748000000001 -462.185830000000010
-17.885905000000001 -83.782077000000001 -461.172481000000000
-11.985071000000000 -82.721244999999996 -461.308308000000010
-17.487572000000000 -82.601245000000006 -462.028309999999980
-13.712571000000001 -82.208742999999998 -461.492459000000000
-16.762571000000001 -85.458748000000000 -459.805787000000010
-15.967572000000001 -85.938739999999996 -459.475799999999990
-14.149238000000000 -86.198745000000002 -459.012469000000010
-11.467571000000000 -85.432079999999999 -459.359139000000030
-17.591737999999999 -83.495408999999995 -459.083310999999980
-12.225071000000000 -82.851241999999999 -459.025815000000020
-17.239238000000000 -82.648741999999999 -460.029135000000000
-15.972571000000000 -82.211242999999996 -458.968289000000030
-13.960070999999999 -82.298743999999999 -459.158323999999990
-17.242571000000002 -85.332072999999994 -458.074152000000030
-16.002571000000000 -86.048744999999997 -457.335829999999990
-13.920071000000000 -86.326243000000005 -456.990808000000020
-11.687571000000000 -85.546245999999996 -456.868306000000020
-17.635071000000000 -83.316242000000003 -457.020797000000020
-12.862572000000000 -82.703743000000003 -456.795812000000010
-11.882571000000000 -83.308749000000006 -456.285834000000020
-14.612571000000001 -82.298741000000007 -456.965803999999990
-17.382570999999999 -85.385412000000002 -455.177465999999980
-15.982571000000000 -86.166252999999998 -455.065793999999980
-13.759239000000001 -86.427076000000000 -454.680810000000010
-11.705905000000000 -85.435411999999999 -454.650803999999990
-18.322572000000001 -84.158748000000003 -455.820799000000020
-12.002572000000001 -83.098747000000003 -454.875796999999980
-17.157571999999998 -82.643750999999995 -455.695808000000000
-15.962571000000001 -82.328744000000000 -455.545813000000010
-13.227570999999999 -82.556246000000002 -455.323293999999980
-17.382570999999999 -85.592080999999993 -453.085789999999970
-14.572571999999999 -86.558744000000004 -452.675818999999990
-11.792572000000000 -85.568745000000007 -452.595815000000020
-17.614794000000000 -83.147632999999999 -453.723590000000000
-13.302572000000000 -82.678742999999997 -452.845803999999990
-11.962571000000001 -83.293743000000006 -452.800810000000010
-16.002571000000000 -82.338742999999994 -453.935832000000000
-14.607571000000000 -82.356245999999999 -453.418321999999990
-15.352572000000000 -86.675409999999999 -451.709975999999980
-14.502572000000001 -86.868741000000000 -450.645775000000010
-17.946459999999998 -85.660966999999999 -450.852466999999990
-13.447571999999999 -86.538745000000006 -451.275810999999980
-11.917572000000000 -85.671245999999996 -450.890808999999990
-18.797571000000001 -83.888743000000005 -450.545788000000020
-18.559238000000001 -84.032073999999994 -451.359132999999990
-13.282571000000001 -82.843746999999993 -450.220807999999980
-17.580071000000000 -82.386250000000004 -451.063319999999980
-15.957571000000000 -81.596245999999994 -450.940817999999980
-14.612570000000000 -81.938744000000000 -450.745820999999980
-17.287571000000000 -87.668746999999996 -448.870792999999990
-15.992571000000000 -87.503746000000007 -449.295803999999980
-14.642571000000000 -86.973742000000001 -448.860794000000000
-18.737570999999999 -85.588746000000000 -449.190810000000000
-18.382573000000001 -86.498745000000000 -448.970795000000010
-13.173821000000000 -86.452494000000002 -448.637065000000010
-12.002572000000001 -85.658743999999999 -448.515803000000010
-19.192571000000001 -84.238744999999994 -448.879133000000020
-13.292571000000001 -83.298734999999994 -448.645800000000010
-11.952571000000001 -83.891243000000003 -449.483304999999970
-17.843684000000000 -81.664302000000006 -449.396369999999990
-15.527571000000000 -81.821246000000002 -449.170813000000010
-14.665905000000000 -82.548747000000006 -448.982466999999990
-17.322572999999998 -79.943746000000004 -448.480799999999990
-16.002571000000000 -80.218739999999997 -449.195832000000000
-19.582573000000000 -86.858749000000003 -446.475803999999980
-18.204238000000000 -87.952078000000000 -447.135403999999990
-16.002571000000000 -86.678742999999997 -447.205811999999980
-14.582572000000001 -86.908743000000001 -446.685790999999990
-19.419239000000001 -86.002080000000007 -447.085812999999970
-17.262571000000001 -86.268744999999996 -447.015822000000010
-13.452572000000000 -86.648740000000004 -447.655797000000010
-11.972573000000001 -85.658743999999999 -447.545796999999990
-19.778821000000001 -83.974995000000007 -447.102061999999990
-17.502571000000000 -82.983742000000007 -446.488320999999980
-15.900072000000000 -83.203744000000000 -446.988299999999980
-13.322571000000000 -83.538741000000002 -447.395802000000000
-12.042572000000000 -84.188744000000000 -447.365791000000000
-19.340904999999999 -81.915411000000006 -447.265824000000010
-17.138822000000001 -81.693747999999999 -447.085827999999990
-16.002571000000000 -81.268743000000001 -448.205768999999980
-17.990905000000001 -79.817077999999995 -447.102477000000020
-16.029237999999999 -86.730412000000001 -445.182453000000010
-13.977570999999999 -86.843742000000006 -445.025808999999980
-18.105906000000001 -85.763743000000005 -445.344139999999980
-13.312571000000000 -86.628747000000004 -446.179131999999980
-12.222572000000000 -86.108745999999996 -445.413298999999990
-17.302571000000000 -83.578743000000003 -444.720820000000000
-13.962571000000001 -83.556244000000007 -445.745803000000020
-12.159238000000000 -84.092080999999993 -446.125805000000010
-18.586321999999999 -81.908743999999999 -444.940812999999990
-13.702571000000001 -86.918740999999997 -442.952474000000000
-17.820070999999999 -85.651245000000003 -443.698308999999990
-12.217571000000000 -86.548749000000001 -443.280771000000020
-17.632570999999999 -83.781244000000001 -442.788310000000020
-15.997571000000001 -83.473753000000002 -443.175808000000020
-13.937571999999999 -83.621246999999997 -443.513304000000010
-12.035905000000000 -84.038743999999994 -443.422485999999990
-16.213820999999999 -86.808747999999994 -441.298313000000010
-14.105905000000000 -86.968742000000006 -441.045820999999990
-17.746946999999999 -85.789370000000005 -441.341435999999990
-12.327571000000001 -86.523741999999999 -441.378294999999980
-17.842571000000000 -83.988747000000004 -440.850794000000010
-15.997571000000001 -83.433744000000004 -440.770820000000010
-13.930071999999999 -83.693745000000007 -441.015809999999990
-12.157571000000001 -84.063748000000004 -441.055805000000020
-17.417572000000000 -86.773741999999999 -439.580812999999980
-15.882572000000000 -87.068752000000003 -439.525782999999990
-13.982571999999999 -87.133747000000000 -438.818306000000010
-18.659237999999998 -85.138745999999998 -439.209142999999980
-13.962571000000001 -83.643745999999993 -438.850804999999980
-12.192570999999999 -84.028751000000000 -438.925802999999970
-17.588128000000001 -87.451520000000002 -437.423040000000010
-15.982571999999999 -87.468750999999997 -437.615812000000010
-13.742571000000000 -87.192081000000002 -437.112461000000000
-19.008571000000000 -85.126745999999997 -436.573808999999980
-18.220905999999999 -85.823745000000002 -436.859992999999970
-12.200905000000001 -84.150412000000003 -437.517458999999970
-17.718404000000000 -89.012078000000002 -434.790804999999980
-17.365071000000000 -87.621245999999999 -435.300790000000010
-15.912571000000000 -87.716245999999998 -434.893295000000020
-13.987571000000001 -87.293744000000004 -435.390800000000010
-18.612572000000000 -86.078748000000004 -434.380813999999990
-12.267571000000000 -84.103744000000006 -434.805825000000030
-17.537572000000001 -86.756242000000000 -433.178306000000020
-15.972571000000000 -87.398752999999999 -432.845800999999990
-18.930904999999999 -85.098748000000001 -433.089144999999970
-18.592572000000001 -86.098746000000006 -432.745814000000000
-12.197571000000000 -84.056245000000004 -433.180809000000010
-17.592571000000000 -86.813744000000000 -431.070818999999970
-16.002571000000000 -87.498739000000000 -430.915802999999980
-18.940072000000001 -85.223743999999996 -431.575811999999980
-17.302572999999999 -83.998746999999995 -431.175797999999990
-15.982571999999999 -83.738743999999997 -430.945813999999980
-17.507572000000000 -86.976248999999996 -428.950793999999970
-16.082571999999999 -87.536243999999996 -429.113320999999980
-18.870905000000000 -85.180412000000004 -429.120818999999980
-18.662573999999999 -86.213745000000003 -430.115818999999990
-17.322569999999999 -87.218738999999999 -427.385807000000000
-15.947571000000000 -87.766244999999998 -426.678299999999980
-14.152571000000000 -88.017076000000003 -427.312468000000020
-19.025905999999999 -85.132080000000002 -427.112469999999970
-18.492571999999999 -86.501244000000000 -427.335814000000030
-18.762571999999999 -86.798744999999997 -425.502469000000020
-17.952573000000001 -87.413747000000001 -425.080806000000000
-15.402571000000000 -88.063747000000006 -424.873299999999970
-19.487572000000000 -85.340412999999998 -424.964150000000020
-17.830072000000001 -87.966802999999999 -423.083020999999970
-15.922571000000000 -88.288747000000001 -423.415810000000020
-13.977572000000000 -88.311249000000004 -423.405811000000030
-19.960903999999999 -85.962080000000000 -423.259139000000000
-18.029237999999999 -83.957081000000002 -423.585809999999980
-18.967572000000001 -88.128746000000007 -420.295804999999970
-18.645904999999999 -88.018744999999996 -421.445797000000030
