ply
format ascii 1.0
element vertex 141
property double x
property double y
property double z
end_header
-78.752570000000006 -62.728748000000003 -498.635799000000020
-77.852565999999996 -62.586246000000003 -497.365801999999970
-76.792574999999999 -62.468741000000001 -495.555788000000010
-75.845067999999998 -62.321247999999997 -493.503310000000000
-75.072571999999994 -61.978746000000001 -491.385816999999970
-74.255067999999994 -61.513745000000000 -489.370800999999970
-73.315071000000003 -61.047078999999997 -487.504980999999990
-72.027574999999999 -60.543743999999997 -485.130816999999980
-19.803820999999999 -81.371245999999999 -483.198727000000020
-19.882570000000001 -80.058745999999999 -482.335790999999970
-18.677571000000000 -79.843745999999996 -483.448319000000030
-71.055904999999996 -60.417077999999997 -483.334134000000010
-70.452574999999996 -59.753743999999998 -482.690811000000000
-21.442570000000000 -81.435410000000005 -481.165816000000010
-21.307573000000001 -80.228746000000001 -480.950803000000010
-20.572572000000001 -79.895411999999993 -481.512467000000020
-69.982573000000002 -60.453747999999997 -480.985805000000030
-23.892571000000000 -81.098744999999994 -478.372445000000030
-22.569237999999999 -80.982077000000004 -479.665786000000030
-23.222570000000001 -79.938743000000002 -478.890791999999980
-21.712572000000002 -79.748745999999997 -479.970813000000020
-20.497572000000002 -78.878744999999995 -480.190768999999990
-21.632570999999999 -78.492079000000004 -478.742459999999990
-69.150073000000006 -60.016244999999998 -480.148301000000000
-67.800903000000005 -59.636245000000002 -478.319957999999990
-25.426321999999999 -81.368745000000004 -476.909559000000000
-26.115905000000001 -79.722080000000005 -476.740812000000010
-23.992571999999999 -79.618745000000004 -478.095828999999980
-25.317571999999998 -78.598741000000004 -476.685807000000010
-24.177572000000001 -78.151242999999994 -476.838305999999990
-22.632570999999999 -77.968745999999996 -477.285801999999990
-66.872570999999994 -60.563746999999999 -477.055803000000030
-66.650069999999999 -58.977910999999999 -477.036648000000010
-29.592572000000001 -79.428747000000001 -474.215804999999990
-28.144793000000000 -80.073189999999997 -475.399693000000010
-26.592571000000000 -80.648742999999996 -476.105809000000020
-29.407571999999998 -78.133751000000004 -474.410832000000030
-27.720348999999999 -77.838192000000006 -474.976905999999990
-25.566323000000001 -77.468744999999998 -475.023299000000010
-66.571736000000001 -62.750413999999999 -474.706627000000030
-65.875905000000003 -61.345827999999997 -475.533721000000010
-64.022575000000003 -61.173746000000001 -474.352464000000000
-65.345903000000007 -59.365409999999997 -475.742459000000000
-63.797570999999998 -59.563744999999997 -474.445805000000010
-65.277573000000004 -58.453744000000000 -475.810811000000000
-30.622572000000002 -79.108744999999999 -473.825811999999980
-31.064239000000001 -77.743746000000002 -473.165804999999980
-29.942571999999998 -78.458748999999997 -473.340808999999980
-29.867016000000000 -75.867635000000007 -473.181356999999990
-28.537571000000000 -75.658745999999994 -473.600804999999980
-26.632570000000001 -76.148741000000001 -473.855822999999990
-29.322572000000001 -74.178740000000005 -472.275823000000000
-28.132572000000000 -74.508745000000005 -472.935795999999980
-65.292574999999999 -62.848747000000003 -473.995805000000020
-63.937570999999998 -63.018746999999998 -473.040803999999980
-63.627571000000003 -62.168745000000001 -473.325804000000010
-62.647570000000002 -61.943747000000002 -473.190813999999990
-62.298819999999999 -59.914996000000002 -473.482050000000020
-35.042572999999997 -77.588745000000003 -470.345795000000010
-33.742570999999998 -77.920078000000004 -471.170813000000010
-32.305070999999998 -77.869995000000003 -472.034559000000000
-36.062570000000001 -76.008745000000005 -470.365821999999980
-33.995069999999998 -75.896242999999998 -471.108314000000010
-32.002572000000001 -75.608744999999999 -472.195804000000010
-36.010905000000001 -74.168743000000006 -470.327472000000000
-33.999240000000000 -73.787075999999999 -470.829971000000000
-32.071738000000003 -73.382078000000007 -470.864976000000010
-30.567571999999998 -73.708744999999993 -471.873306000000010
-32.189239000000001 -71.678747999999999 -470.299134999999980
-61.783237000000000 -63.962414000000003 -471.097980000000010
-59.882572000000003 -63.008744000000000 -470.763310999999990
-58.652571999999999 -63.693747000000002 -470.355809000000020
-61.063403999999998 -61.664577000000001 -471.944975000000000
-58.715904999999999 -62.355412999999999 -470.469147000000020
-59.927573000000002 -60.306246999999999 -471.578314999999980
-58.609239000000002 -60.470410999999999 -470.322470000000010
-34.657570999999997 -78.733745999999996 -469.715803999999990
-37.307572000000000 -76.703749999999999 -469.010800000000020
-35.872571999999998 -77.005415999999997 -469.272473999999990
-38.958821999999998 -75.786247000000003 -468.697045000000000
-37.322569999999999 -75.848750999999993 -469.745785000000010
-36.002572999999998 -75.758740000000003 -469.535798000000000
-41.383823000000000 -73.892497000000006 -468.544560999999990
-39.961320000000001 -73.506242000000000 -468.965814000000020
-38.164237000000000 -73.867075999999997 -469.502469000000020
-42.662576000000001 -72.133750000000006 -468.395799000000010
-40.362572000000000 -71.625412999999995 -468.952472000000000
-37.682569999999998 -71.965410000000006 -469.405824999999990
-35.625905000000003 -71.705412999999993 -469.469130000000010
-33.702572000000004 -71.737080000000006 -469.504143000000000
-43.872568999999999 -70.528745999999998 -468.365817999999990
-41.720069000000002 -70.393743000000001 -468.533300000000000
-39.952572000000004 -69.598748999999998 -468.355774999999990
-37.842570000000002 -70.423744999999997 -468.838311999999970
-35.967571999999997 -70.543744000000004 -468.990833000000010
-34.497571999999998 -70.388745999999998 -468.815833000000000
-59.654237000000002 -65.267081000000005 -468.892490000000010
-57.692571999999998 -65.254576999999998 -468.854968999999980
-55.585070999999999 -65.292495000000002 -468.783307999999980
-53.635072000000001 -65.088740999999999 -468.565813999999990
-58.632568999999997 -64.493746000000002 -469.345807999999980
-55.747570000000003 -63.333744000000003 -469.245798999999980
-57.332571999999999 -62.598742999999999 -469.985813000000010
-56.292571000000002 -61.349162999999997 -469.040394999999990
-54.652571999999999 -61.768743999999998 -468.545795000000000
-45.332569999999997 -72.858743000000004 -466.785789000000020
-44.093572000000002 -72.725745000000003 -467.662814000000030
-49.492570999999998 -71.028739000000002 -466.335774000000010
-47.163817999999999 -71.761245000000002 -466.407063999999990
-45.765903999999999 -71.615408000000002 -467.102467999999990
-43.832569999999997 -71.338742999999994 -467.915802999999980
-51.142572000000001 -68.888744000000003 -467.575826000000010
-49.827154000000000 -69.596663000000007 -467.265826000000000
-47.980902999999998 -69.315414000000004 -467.638308999999990
-46.132570999999999 -70.030411000000001 -467.809141000000010
-37.895068999999999 -69.466243000000006 -467.505805000000010
-56.957571000000002 -66.828745999999995 -467.625812000000000
-55.957571000000002 -67.103751000000003 -467.680812000000000
-53.609448000000000 -68.056245000000004 -467.734555000000000
-51.927571999999998 -67.668746999999996 -467.885791999999980
-49.967570000000002 -67.793745999999999 -467.870802000000030
-47.937573999999998 -67.193742999999998 -467.825814999999980
-45.715904000000002 -67.658748000000003 -467.635794999999970
-44.147571999999997 -68.036660999999995 -467.784975999999970
-42.080072000000001 -67.953744999999998 -467.497051000000000
-40.202572000000004 -68.196245000000005 -467.381643999999990
-38.647570000000002 -68.553742000000000 -467.420801999999980
-57.517572999999999 -66.258747000000000 -467.640817000000030
-49.945072000000003 -65.543746999999996 -467.726919000000010
-47.504238000000001 -65.945414000000000 -467.094988000000000
-45.720905000000002 -65.802076999999997 -466.827476999999990
-43.902569999999997 -66.043749000000005 -466.805831000000010
-42.652572999999997 -66.408745999999994 -466.695845000000020
-51.905071999999997 -63.926662000000000 -467.987061999999980
-50.622574999999998 -63.173749000000001 -466.435819999999980
-47.987569000000001 -63.503746000000000 -466.300799999999980
-52.992573000000000 -62.028747000000003 -467.835799000000010
-51.405904999999997 -62.137912000000000 -466.868291000000000
-49.312573000000000 -63.598742999999999 -466.090813000000030
-48.207572999999996 -64.483746999999994 -466.045796999999990
-46.647567000000002 -64.478744000000006 -466.025800000000000
