ply
format ascii 1.0
element vertex 337
property double x
property double y
property double z
end_header
-9.632572000000000 -83.523745000000005 -471.079145999999980
-9.327571000000001 -83.928753000000000 -469.030782999999990
-10.332571000000000 -82.517077999999998 -469.065810000000000
-9.555071000000000 -82.956243000000001 -466.728299999999990
-11.007572000000000 -81.428751000000005 -467.855780999999980
-10.662571000000000 -81.798747000000006 -466.915816000000010
-9.322571000000000 -83.418741999999995 -464.545816000000000
-8.002571000000000 -84.358751999999996 -464.505791999999990
-9.986321000000000 -82.414992999999996 -464.692082000000030
-8.092571000000000 -85.477074999999999 -462.984145000000010
-7.526321000000000 -83.306246000000002 -462.989560999999980
-9.207572000000001 -81.423744999999997 -463.605805999999970
-8.053405000000000 -85.797911999999997 -460.965802000000000
-6.662571000000000 -84.868744000000007 -461.085826000000000
-7.706460000000000 -81.597633999999999 -461.758021999999980
-6.582571000000000 -82.322080999999997 -460.925817000000000
-7.712572000000000 -86.028746999999996 -459.635793999999980
-6.230905000000000 -85.368744000000007 -458.927476000000010
-5.265904000000000 -83.172079999999994 -459.167485000000000
-5.768821000000000 -81.872499000000005 -459.094554000000020
-5.125905000000000 -85.588738000000006 -457.022468000000000
-5.342572000000000 -81.158744999999996 -458.145797000000020
-4.120905000000000 -82.230412999999999 -456.527481000000020
-4.752571000000000 -80.358744000000002 -456.935792999999990
-3.942571000000000 -85.472911999999994 -455.117476000000010
-3.442571000000000 -83.838752999999997 -455.605804999999980
-2.562571000000000 -83.872077000000004 -454.409141999999970
-3.935071000000000 -80.931244000000007 -455.633289999999990
-2.372571000000000 -85.218745999999996 -453.210816000000020
-1.402571000000000 -83.805412000000004 -452.655792000000020
-3.422571000000000 -80.228746000000001 -454.115777999999980
-2.677571000000000 -80.528744000000003 -452.810793999999990
-0.742571000000000 -84.398739000000006 -451.635808000000000
0.124096000000000 -83.918743000000006 -450.569143000000000
-1.382571000000000 -81.929995000000005 -451.812058999999980
0.124096000000000 -82.475410999999994 -450.229157999999980
1.237429000000000 -84.788740000000004 -448.865800999999980
1.340762000000000 -84.098743999999996 -449.075807999999990
1.167429000000000 -81.208742999999998 -448.465794000000020
1.292429000000000 -82.521242999999998 -448.978312000000020
2.395762000000000 -85.348746000000006 -446.919137999999980
2.692428000000000 -84.003747000000004 -447.548299999999980
4.007429000000000 -83.648748999999995 -446.335793000000020
2.593429000000000 -81.704410999999993 -447.036476999999990
4.037428000000000 -81.173743999999999 -446.375816999999980
2.032429000000000 -79.866242000000000 -446.963303000000000
2.607429000000000 -86.038741000000002 -446.179131999999980
4.062429000000000 -85.613747000000004 -445.311924999999970
5.337428000000000 -85.383750000000006 -444.275780999999990
5.352428000000000 -83.393744999999996 -445.103304999999980
4.292429000000000 -81.753748000000002 -445.510811999999990
6.282429000000000 -81.518747000000005 -444.550812000000010
4.625429000000000 -79.823744000000005 -445.515807999999990
5.197429000000000 -78.628748999999999 -444.919119000000020
62.649929000000000 -73.808747999999994 -444.663300999999990
63.959926000000003 -71.863746000000006 -445.090815000000020
5.532429000000000 -87.003743000000000 -443.685799999999970
8.004095000000000 -87.102079000000003 -442.392477999999980
6.627429000000000 -85.846243999999999 -443.483308000000020
8.020762000000000 -85.688745999999995 -442.673581000000010
6.687428000000000 -83.918743000000006 -443.785816000000010
8.267429999999999 -83.938739999999996 -442.275822000000010
6.580207000000000 -81.617080000000001 -443.099696999999990
8.027428000000001 -82.548744999999997 -443.175821999999980
6.789095000000000 -79.963744000000005 -442.978321999999990
8.017429000000000 -80.153747999999993 -442.925811000000010
6.582429000000000 -78.633743999999993 -443.510801000000010
8.214095000000000 -78.342078000000001 -442.259122999999990
60.027427000000003 -75.876244999999997 -442.385808000000000
61.337429999999998 -75.263750000000002 -443.685799999999970
61.499927999999997 -73.917074999999997 -443.563312000000000
62.784092999999999 -71.995410000000007 -443.799128000000000
10.027429000000000 -87.393749000000000 -441.350833000000020
10.120761999999999 -85.646077000000005 -441.189128999999980
12.037428999999999 -85.878744999999995 -440.365791000000000
10.114928000000001 -83.308745999999999 -441.107068000000030
12.190761999999999 -84.022076999999996 -440.455794000000030
8.147429000000001 -81.611248000000003 -441.584133000000010
9.812984000000000 -81.456524000000002 -441.163583000000020
7.972429000000000 -80.018739999999994 -441.045806000000030
9.942428000000000 -79.746247999999994 -441.235795999999990
7.882429000000000 -78.598748999999998 -441.420808000000020
9.504928000000000 -77.866247000000001 -440.718307999999980
58.240428000000001 -77.622411999999997 -440.805357000000010
57.949928000000000 -75.806245000000004 -440.773301000000000
58.514096000000002 -73.858746999999994 -440.749139000000010
59.925761999999999 -73.380410999999995 -441.599126000000010
61.062429000000002 -72.608746999999994 -442.160799999999990
61.447429999999997 -71.902080999999995 -441.795836000000010
14.133054000000000 -87.598744999999994 -438.550799999999980
12.303262000000000 -85.570408000000000 -439.589967000000000
13.667429000000000 -84.958742999999998 -439.000814999999990
12.007428000000001 -83.158745999999994 -439.425825999999970
14.407429000000000 -83.941239999999993 -439.008309999999990
10.621179000000000 -81.652490000000000 -439.513287999999990
12.433679000000000 -81.590620999999999 -439.243297999999980
9.397429000000001 -79.068749999999994 -439.335823000000000
12.032427999999999 -79.753748999999999 -439.445823000000020
54.697428000000002 -79.613742000000002 -438.325792999999980
56.641596000000000 -79.333743999999996 -438.996635000000030
57.827432000000002 -80.008745000000005 -439.345837000000020
9.190761999999999 -78.435411000000002 -439.565797999999970
10.421179000000000 -77.306245000000004 -439.022053000000030
54.266179000000001 -78.162499999999994 -438.560806000000010
56.147427999999998 -77.721244999999996 -439.257048000000000
54.681429000000001 -75.732742000000002 -438.365811000000010
56.252426000000000 -75.698745000000002 -439.530804999999990
54.622427999999999 -74.588746000000000 -438.400789999999970
56.347430000000003 -73.853746000000001 -439.273334999999970
57.357430999999998 -73.263741999999993 -439.105778999999980
57.137430000000002 -71.565414000000004 -438.442469000000020
58.622427000000002 -72.288740000000004 -439.545824999999980
14.737428000000000 -88.858745999999996 -437.915801999999990
16.017429000000000 -88.808745000000002 -436.505824000000020
16.119928000000002 -87.978746000000001 -436.909556000000010
18.187429000000002 -86.913746000000003 -436.855822999999990
14.264929000000000 -85.153746999999996 -437.953307999999990
15.993053000000000 -85.602493999999993 -437.354560999999990
18.057428000000002 -85.526239000000004 -436.733291000000010
20.012429000000001 -85.338745000000003 -436.405807999999980
15.877428999999999 -83.808745999999999 -436.840787999999970
17.736177999999999 -83.313744999999997 -436.839565999999990
14.483817999999999 -81.462631999999999 -437.543574999999980
16.052429000000000 -82.558744000000004 -437.770813999999970
18.672428000000000 -81.483744000000002 -436.295807000000020
19.729928999999998 -82.271242999999998 -436.230822999999990
44.399929000000000 -82.138746999999995 -436.313309000000000
46.667427000000004 -82.038753000000000 -436.485826999999970
48.042430000000003 -81.243746000000002 -436.385809999999990
50.225430000000003 -81.459411000000003 -436.874483000000000
52.157428000000003 -81.213741999999996 -436.925798999999980
54.687429000000002 -80.778739999999999 -437.475829999999970
11.297428000000000 -79.526246000000000 -438.185804000000020
13.767429000000000 -79.964579999999998 -437.589966000000000
16.012428000000000 -80.078743000000003 -436.940818999999980
46.727429999999998 -80.488748999999999 -436.565815999999980
48.007429000000002 -79.418749000000005 -436.475813000000020
50.082428000000000 -79.721248000000003 -436.730809000000020
51.874926000000002 -79.846248000000003 -436.968303999999990
53.352429999999998 -80.533743000000001 -437.200829000000000
10.380762000000001 -78.157079999999993 -438.204130000000020
12.518679000000001 -78.054997000000000 -437.339569999999980
14.677429000000000 -78.238748000000001 -436.275809999999980
49.951386999999997 -77.685828999999998 -436.663305999999980
52.054927999999997 -77.843746999999993 -437.158316000000010
53.664653000000001 -77.556522000000001 -437.782460000000010
50.727426999999999 -75.808749000000006 -436.725795000000010
51.937427999999997 -75.678742999999997 -437.075808999999990
53.407431000000003 -75.198744000000005 -437.035814000000020
52.672429000000001 -73.625411999999997 -436.634120999999990
54.265760999999998 -73.445410999999993 -437.442481999999980
55.922426000000002 -73.623746999999995 -438.040793000000010
53.989930000000001 -71.857495999999998 -436.720811000000030
56.017425000000003 -71.728744000000006 -438.025831999999980
17.969929000000000 -88.198745000000002 -435.660817000000010
20.413678999999998 -87.228740999999999 -435.663309000000030
22.957429000000001 -87.228745000000004 -434.475809000000030
24.132428999999998 -87.593744999999998 -434.385806000000000
18.524929000000000 -85.793749000000005 -435.455795000000020
20.007429999999999 -85.458748000000000 -434.915811000000020
21.932428999999999 -85.480413999999996 -435.059145000000000
24.017429000000000 -85.698746000000000 -435.025810999999980
26.077428999999999 -85.294995000000000 -434.540800999999990
36.557429999999997 -85.275413999999998 -434.322466000000020
18.182428000000002 -83.653744000000003 -435.635789999999990
20.007429999999999 -83.778743000000006 -434.850797000000000
21.730345000000000 -83.506241000000003 -434.986219000000010
24.012428000000000 -83.978741999999997 -435.175806000000020
26.022427000000000 -83.833742999999998 -434.675813000000010
37.014096000000002 -82.675410999999997 -434.535791000000020
38.367426999999999 -84.023743999999994 -434.700802000000010
39.969428000000001 -83.890749999999997 -435.697799999999970
41.875760000000000 -83.060416000000004 -435.889144999999980
16.142429000000000 -81.347081000000003 -435.842484000000010
18.299095000000001 -81.693749999999994 -434.922482000000000
20.074650999999999 -81.540965999999997 -434.762468000000010
21.824928000000000 -81.672497000000007 -435.220815000000020
24.027429999999999 -82.358739999999997 -434.895812999999980
26.219094999999999 -82.175410999999997 -434.395809999999980
38.567428000000000 -81.468745999999996 -434.565811999999990
40.414096000000001 -82.083743999999996 -435.307478000000000
42.230759999999997 -81.445408000000000 -435.559148999999990
44.687429000000002 -80.959025999999994 -435.581092000000010
14.987428000000000 -79.858745999999996 -435.650810999999980
17.751179000000000 -79.917496999999997 -435.722038000000000
20.022430000000000 -79.558745000000002 -434.605792000000010
22.087429000000000 -80.263738000000004 -434.375792999999990
40.317427000000002 -79.988748000000001 -434.385806000000000
42.137428999999997 -79.463746000000000 -434.645802000000000
44.077430000000000 -79.168744000000004 -435.095817000000010
46.030763000000000 -80.068749999999994 -435.525809999999980
48.012430000000002 -80.038748999999996 -435.335815000000030
49.407429999999998 -79.238749999999996 -435.535789000000020
14.387428000000000 -78.220416000000000 -435.465813000000030
16.127427999999998 -78.488744999999994 -435.565800000000020
17.417428000000001 -78.208748000000000 -434.240817999999990
42.662427000000001 -78.248743000000005 -434.250802000000020
43.854095999999998 -77.923742000000004 -434.320802000000010
45.824095000000000 -77.674301000000000 -434.813013000000010
48.044096000000003 -77.512074999999996 -435.787484000000010
49.337428000000003 -78.318736999999999 -435.525804999999990
46.694929000000002 -76.203743000000003 -434.565796999999980
48.017431000000002 -75.628746000000007 -434.950799000000020
50.004303999999998 -75.241866000000002 -435.323308999999990
46.787427999999998 -74.428745000000006 -434.310809000000010
48.419929000000003 -73.636240999999998 -434.578313999999980
50.269928000000000 -73.764161999999999 -435.381230000000020
49.347427000000003 -72.478740999999999 -434.635817999999970
51.954926000000000 -72.035409999999999 -435.674141000000020
26.027426999999999 -87.283744999999996 -433.900818000000020
28.007428999999998 -86.863747000000004 -432.975821000000000
29.372429000000000 -87.073751000000001 -432.915806999999970
34.052430000000001 -87.043746999999996 -432.785794000000010
24.037427999999998 -85.558750000000003 -433.955818000000020
25.794094000000001 -85.858743000000004 -433.384144999999990
28.022428999999999 -85.128747000000004 -434.005811999999990
30.352428000000000 -85.740412000000006 -433.467478000000030
32.612426999999997 -85.843745999999996 -433.398299000000010
33.845205999999997 -85.558188000000001 -432.948571000000020
35.377428000000002 -84.888745000000000 -433.840825999999990
22.677429000000000 -83.928748999999996 -434.035807999999970
24.492428000000000 -83.384994000000006 -433.310807000000010
26.484929999999999 -83.536247000000003 -432.608314000000010
28.077428999999999 -83.568752000000003 -434.105814000000010
29.337427000000002 -83.948746000000000 -433.825790999999980
32.027427000000003 -83.368747999999997 -434.005827000000010
34.022427999999998 -83.883743999999993 -434.080808999999990
35.649093999999998 -83.901246000000000 -433.262479999999980
37.367432999999998 -83.648748999999995 -433.835775000000010
22.107429000000000 -81.791246000000001 -433.648332999999980
23.584095000000001 -81.131242999999998 -432.879146999999990
25.840762000000002 -81.178745000000006 -432.925815000000000
28.032430000000002 -81.508747999999997 -433.690831000000000
30.225762000000000 -81.850414000000001 -433.644136000000000
32.047426000000002 -81.433746999999997 -433.530807999999980
33.732427999999999 -81.891244000000000 -433.673307000000020
36.231178000000000 -81.165413999999998 -433.094975999999970
38.234095000000003 -81.915412000000003 -433.272475999999980
39.729928999999998 -81.338746000000000 -433.793298999999990
41.352426999999999 -81.338745000000003 -433.870807000000010
16.873262000000000 -79.800410999999997 -434.019140999999990
19.624928000000001 -79.853742999999994 -432.638302000000010
21.307428999999999 -79.958743999999996 -432.392477999999980
24.052430000000001 -79.878747000000004 -433.725803999999980
26.089096000000001 -79.472080000000005 -433.172466999999980
28.342430000000000 -79.598747000000003 -432.890818000000020
30.244095000000002 -79.832080000000005 -432.984133999999980
32.072429000000000 -79.853742999999994 -433.000803000000020
34.507429000000002 -79.608744000000002 -432.945803000000010
36.742427999999997 -79.633746000000002 -433.445826000000010
38.157429000000000 -79.282077000000001 -432.777484000000020
40.684927999999999 -79.448751999999999 -433.308303000000020
42.104928000000001 -79.286248000000001 -433.390810999999990
16.312428000000001 -78.400827000000007 -433.497469000000020
18.139928999999999 -77.456244999999996 -432.433314999999990
19.787427999999998 -77.952494000000002 -433.022056000000020
21.805762000000001 -78.317077999999995 -433.102468999999990
24.887429000000001 -78.296248000000006 -432.720795000000010
26.677430000000001 -78.298748000000003 -432.485818999999990
29.007427000000000 -78.628748999999999 -432.555825000000030
30.667430000000000 -78.268743999999998 -432.235776999999980
33.357427999999999 -78.638744000000003 -432.370812000000000
36.433262999999997 -78.107078000000001 -432.475807999999970
40.167428000000001 -77.590412000000001 -433.097479000000020
42.137425999999998 -77.643744999999996 -433.318316999999980
45.044092999999997 -77.272081999999997 -434.092482000000020
42.832430000000002 -75.858744000000002 -432.500809000000000
44.022430999999997 -75.688745999999995 -432.967484000000010
45.627428000000002 -75.608744999999999 -433.699145999999980
45.037427999999998 -74.593749000000003 -432.600796000000000
46.337428000000003 -73.511246999999997 -432.929549000000010
48.044930000000001 -73.691247000000004 -433.588296000000010
30.797428000000000 -87.592079999999996 -431.359142000000020
32.037426000000004 -87.488748000000001 -431.915790000000020
30.206178999999999 -85.768747000000005 -431.588306999999990
32.172429999999999 -86.156243000000003 -431.513308999999990
28.032430000000002 -83.888743000000005 -432.115808000000020
30.190761999999999 -83.640411000000000 -431.685814999999990
32.229095999999998 -83.480412999999999 -431.670804999999970
28.007428999999998 -82.028739000000002 -432.165800999999990
30.272428999999999 -81.698746999999997 -431.865816000000000
32.089928000000000 -80.978741999999997 -431.770802000000000
34.033678000000002 -81.858744999999999 -432.087064000000000
22.747429000000000 -79.758741000000001 -431.975842000000000
24.453261999999999 -79.417077000000006 -431.528298000000010
26.692429000000001 -78.693743999999995 -430.720791000000020
27.786178000000000 -80.188743000000002 -431.634552999999980
30.339096000000001 -79.602079000000003 -431.285813000000020
32.107427999999999 -79.548745999999994 -431.265801000000010
34.039929999999998 -79.106246999999996 -431.132055999999980
18.278680000000001 -77.692494999999994 -431.458298000000010
19.920763000000001 -77.567079000000007 -430.780813000000020
22.186427999999999 -77.531745000000001 -431.435809000000010
23.875761000000001 -77.133746000000002 -431.246636000000020
26.044929000000000 -77.506246000000004 -430.870815999999990
28.032429000000000 -77.983744000000002 -431.188300000000030
29.822427999999999 -77.898747000000000 -430.844142999999970
32.175761000000001 -77.968745999999996 -431.340824000000000
33.377428000000002 -77.508740000000003 -431.475788000000020
36.368540000000003 -77.664299000000000 -431.486915000000010
38.342427999999998 -77.590414999999993 -431.430792000000000
40.402428000000000 -77.143747000000005 -431.330806999999990
24.027429999999999 -75.968750000000000 -430.505811999999990
25.627430000000000 -75.858742000000007 -430.395811999999980
29.164928000000000 -75.857495999999998 -430.492054999999990
30.667430000000000 -76.048747000000006 -430.505811999999990
34.012428000000000 -76.268743999999998 -430.630788000000000
37.349929000000003 -76.033749000000000 -430.660806999999980
39.890762000000002 -76.038747000000001 -431.022465000000010
41.864094999999999 -75.570412000000005 -431.492473000000020
42.757427000000000 -74.268739999999994 -431.063302000000020
44.422429999999999 -73.562911999999997 -431.156637999999990
45.377429999999997 -73.818751000000006 -431.555808000000010
45.337426999999998 -72.368741000000000 -431.255788000000000
21.382429999999999 -77.313747000000006 -430.105835000000010
26.067428000000000 -77.056244000000007 -429.970807999999980
28.067430000000002 -77.358744999999999 -429.940789999999990
29.897428000000001 -77.268742000000003 -429.699153000000020
32.037426000000004 -77.668740999999997 -430.045813000000010
33.941873000000001 -77.134298000000001 -429.465797000000010
36.218679000000002 -77.447490999999999 -429.664559999999990
38.717430000000000 -76.948746999999997 -429.905831999999980
22.197427000000001 -75.973748000000001 -429.782043999999980
24.067428000000000 -75.638749000000004 -429.845840000000010
26.802427999999999 -75.668740999999997 -429.875806000000010
28.004928000000000 -74.736245999999994 -429.208935999999990
30.060762000000000 -74.923743999999999 -429.117476000000010
31.994927000000001 -75.556246999999999 -429.270808999999990
33.899929000000000 -75.764579999999995 -429.148302000000000
36.092427999999998 -75.383741000000001 -428.860797999999990
38.254095000000000 -75.398742999999996 -429.049149000000000
40.004094000000002 -74.872074999999995 -429.330821000000010
41.357424000000002 -75.578749000000002 -429.895818000000020
40.947429999999997 -74.628752000000006 -429.995805000000020
41.407426999999998 -74.548745999999994 -428.762466000000020
38.422427999999996 -75.253743999999998 -427.550821999999980
40.057431999999999 -74.958742000000001 -427.605838000000010
