ply
format ascii 1.0
element vertex 730
property double x
property double y
property double z
end_header
-113.317567999999990 -69.133747000000000 -448.920800999999980
-113.682568000000000 -68.558745000000002 -449.985801999999980
-113.364230000000010 -69.350413000000003 -447.405800000000000
-114.409236000000010 -67.723743999999996 -447.208300000000010
-20.055071000000002 -86.261245000000002 -444.404564999999990
-20.532571999999998 -84.001243000000002 -444.790810000000020
-20.161738000000000 -80.912916999999993 -445.494148000000000
-19.615072000000001 -79.590412999999998 -445.599140999999970
-18.632572000000000 -80.518744999999996 -445.535808999999970
-113.500902000000000 -69.588744000000005 -445.140794000000030
-113.937572000000000 -68.161247000000003 -445.494570000000010
-21.342571000000000 -86.672077999999999 -442.419131999999990
-21.349239000000001 -85.698745000000002 -443.192461999999980
-21.460903999999999 -84.032081000000005 -443.091648000000020
-21.502572000000001 -81.625411999999997 -443.222483000000010
-19.942571999999998 -82.485412999999994 -443.622480000000000
-21.538405000000001 -79.824575999999993 -442.949150999999970
-113.441320000000000 -69.968744000000001 -443.583290999999970
-113.980573000000010 -67.805744000000004 -443.288802999999970
-114.882574000000010 -66.598750999999993 -442.805827000000020
-22.560071000000001 -86.082080000000005 -440.824134000000020
-22.757572000000000 -84.003747000000004 -440.890826000000000
-21.465904999999999 -83.818741000000003 -440.839152000000010
-22.842572000000001 -82.625416000000001 -440.672466999999980
-21.873125999999999 -81.779854999999998 -440.848587000000010
-21.322572999999998 -80.578751999999994 -441.445798000000020
-112.962570000000000 -70.733744999999999 -441.420822999999980
-113.349234999999990 -69.380409999999998 -441.404141999999980
-114.077156000000000 -67.371662000000001 -441.522050999999980
-114.522574000000010 -66.459997999999999 -441.550798999999980
-22.917570999999999 -85.713740000000001 -439.470790000000020
-24.035905000000000 -83.692079000000007 -438.492477000000010
-22.592571000000000 -83.978741999999997 -439.135789999999990
-23.462571000000001 -81.838741999999996 -439.030796000000010
-22.502569999999999 -82.258750000000006 -438.315824000000020
-22.739238000000000 -79.982079999999996 -438.322483999999970
-22.632570999999999 -80.108746999999994 -439.335823000000000
-112.557571000000000 -70.768747000000005 -438.920780999999980
-113.371739000000010 -67.736241000000007 -439.111632999999980
-113.408822000000000 -66.453745999999995 -438.953318000000020
-24.090070999999998 -85.719992000000005 -437.737048000000020
-25.312573000000000 -83.998746999999995 -436.265796000000020
-24.505904000000001 -83.815413000000007 -437.022457999999970
-23.856321000000001 -81.514369000000002 -437.178921000000000
-23.632572000000000 -79.868748999999994 -436.725810000000020
-112.142574000000000 -71.143743000000001 -436.975837000000010
-111.965903000000000 -69.912633000000000 -437.332478999999980
-112.305697000000000 -68.048122000000006 -437.409561000000000
-112.255072000000000 -65.878744999999995 -436.660803999999980
-25.742851000000002 -85.487630999999993 -435.305800999999970
-25.664238999999998 -83.367080999999999 -435.015798000000020
-25.428822000000000 -81.806242999999995 -435.367058999999980
-24.272572000000000 -81.022079000000005 -435.215821000000010
-24.129238999999998 -79.955405999999996 -435.299138000000030
-111.755073000000000 -71.771244999999993 -434.728287000000020
-111.887573000000000 -69.864580000000004 -435.093305999999980
-112.047572000000000 -67.738744999999994 -435.445800000000020
-111.327573000000000 -65.709372000000002 -434.936422999999990
-26.417570999999999 -86.803745000000006 -434.193306000000010
-27.769238000000001 -85.813743000000002 -432.704970000000000
-27.432569999999998 -83.728746000000001 -433.065802000000020
-26.605072000000000 -83.881243999999995 -434.185810000000000
-27.475071000000000 -82.521242999999998 -432.898282999999990
-26.179238999999999 -81.595412999999994 -432.746356999999990
-25.349240000000002 -79.928741000000002 -433.272475999999980
-111.110073000000000 -71.691248999999999 -432.638309999999990
-111.122570999999990 -69.427913000000004 -433.225813000000020
-110.282578000000000 -68.948746000000000 -432.415813000000010
-110.981322000000010 -67.737495999999993 -433.369561999999970
-110.382572000000000 -65.783749999999998 -432.855815000000010
-29.187571999999999 -86.718742000000006 -430.395811999999980
-29.292570999999999 -85.118745000000004 -430.845797000000000
-28.429237000000001 -85.222077999999996 -431.732476000000020
-29.485071999999999 -83.836243999999994 -430.540799999999990
-28.419239000000001 -83.572074999999998 -431.549142000000020
-29.307570999999999 -81.718746999999993 -430.440812999999990
-28.182570999999999 -81.544858000000005 -431.121366000000020
-26.627569999999999 -81.333744999999993 -431.300818999999990
-28.297570000000000 -79.973746000000006 -430.785790000000020
-26.007570999999999 -79.717911999999998 -431.344134000000000
-110.592569999999990 -72.191248000000002 -430.625804000000020
-110.636739000000010 -69.562911999999997 -431.109980000000010
-109.782573000000000 -67.703747000000007 -430.652047999999980
-109.598821000000000 -65.722498000000002 -431.052070000000010
-109.352570000000000 -63.853743999999999 -431.265815999999970
-30.227571000000001 -85.288745000000006 -429.310804000000020
-31.119237999999999 -83.995412000000002 -428.585798000000010
-30.642571000000000 -83.118744000000007 -429.165810000000020
-31.242571999999999 -81.253748000000002 -428.355813000000010
-30.157571000000001 -81.872078000000002 -429.385786000000000
-29.299239000000000 -79.416522999999998 -429.224695999999990
-27.967571000000000 -79.813744999999997 -429.645791999999970
-26.632570000000001 -79.088746999999998 -430.125833000000000
-29.282571999999998 -78.558743000000007 -428.535789000000020
-110.362571000000000 -71.823746000000000 -429.500817999999980
-109.735068000000000 -68.926244999999994 -429.005809000000000
-109.427575000000000 -67.813747000000006 -428.820804000000010
-109.247573000000000 -66.417496999999997 -429.392062000000010
-108.812571000000010 -64.188743000000002 -429.315789999999990
-33.182572999999998 -84.738738999999995 -426.225841000000000
-31.977570000000000 -85.458743999999996 -427.415796000000000
-33.293821000000001 -83.322491999999997 -426.329567999999990
-32.025072000000002 -83.656248000000005 -427.758321000000020
-32.280070000000002 -81.726246000000003 -427.088298000000010
-31.752571000000000 -79.611243999999999 -427.425817000000000
-30.552569999999999 -79.098746000000006 -427.515805000000000
-31.478822000000001 -78.501242000000005 -427.213303999999990
-110.392571000000000 -72.918750000000003 -427.315801000000020
-110.035071000000000 -72.123745000000000 -427.505821000000030
-109.518197000000000 -69.801868999999996 -427.414567999999970
-107.972570000000000 -68.968743000000003 -426.555812000000000
-108.492572000000000 -67.958742000000001 -427.165805999999980
-108.332567000000000 -66.443745000000007 -427.495807000000010
-108.100072999999990 -64.249578000000000 -427.187462999999980
-35.050071000000003 -84.031243000000003 -424.348317000000010
-34.582574000000001 -83.078749999999999 -425.005793999999980
-33.769235999999999 -81.208742999999998 -425.665805999999980
-34.217573000000002 -79.623741999999993 -424.885802000000010
-33.472572000000000 -77.913743999999994 -425.088294000000020
-109.797988000000000 -73.094161000000000 -425.099548000000030
-109.615069000000010 -71.746249000000006 -426.060795999999980
-108.002566000000000 -71.438740999999993 -424.880788000000000
-109.402570999999990 -70.563744999999997 -426.060811000000000
-107.944236000000000 -70.025413000000000 -425.435811000000000
-106.592569999999990 -68.878743999999998 -424.395815000000030
-108.137570000000000 -67.773743999999994 -425.260805000000000
-106.652573000000000 -67.998745000000000 -424.825847000000010
-107.952569999999990 -66.328747000000007 -425.675798999999980
-106.637570999999990 -65.553745000000006 -424.848311000000020
-107.870069000000000 -64.251244000000000 -425.480799999999990
-35.502572000000001 -85.328743000000003 -423.429537999999980
-37.272570999999999 -83.428747999999999 -422.300800999999980
-35.952570999999999 -82.747078999999999 -423.665821999999990
-37.276322000000000 -81.698744000000005 -422.473319000000000
-35.480628000000003 -80.731800000000007 -423.437771000000000
-37.092570000000002 -79.608745999999996 -422.365814000000000
-35.872573000000003 -79.863742000000002 -423.605799999999990
-35.844237999999997 -77.498745000000000 -422.877471000000010
-34.645069999999997 -77.873744000000002 -423.735805000000030
-35.942568999999999 -75.918749000000005 -422.355800999999990
-109.510071999999990 -73.806245000000004 -423.638313999999980
-107.722568000000000 -72.802074000000005 -423.005809000000000
-109.333822000000000 -72.084992999999997 -423.582069999999990
-107.840072000000010 -72.107078999999999 -422.999144000000000
-107.818127000000000 -69.604854000000003 -423.005550000000030
-105.816320000000000 -69.738744999999994 -422.972062999999990
-107.102569000000000 -67.828740999999994 -422.915800999999990
-105.557568000000000 -67.678749999999994 -423.340812000000030
-104.582562999999990 -67.868746999999999 -422.325850000000000
-107.172579000000000 -65.558745999999999 -423.655807999999980
-105.865069000000010 -65.491246000000004 -422.513306000000000
-104.682571999999990 -65.598748999999998 -422.315806000000010
-106.937571000000010 -63.191246000000000 -423.040799999999990
-105.987571000000000 -64.013745999999998 -423.380822000000020
-106.372573000000000 -62.548749000000001 -422.225802999999980
-37.612571000000003 -85.293744000000004 -421.212474999999980
-38.792572999999997 -84.018743999999998 -421.015799000000020
-38.642569999999999 -83.808750000000003 -420.545816000000000
-38.938403999999998 -81.478744000000006 -420.925811000000010
-37.332568000000002 -80.928742999999997 -421.905816000000020
-37.912571000000000 -79.637490999999997 -420.983307000000020
-35.962569999999999 -79.438745999999995 -422.175794999999990
-37.450071000000001 -78.044579999999996 -421.013307999999990
-35.982571000000000 -77.698745000000002 -421.615778999999970
-36.405073000000002 -75.841244000000003 -421.163313000000020
-109.387574000000000 -73.714995999999999 -421.974532000000010
-108.347568999999990 -73.818742999999998 -421.165823999999990
-106.119241000000000 -73.505414000000002 -420.579133000000010
-107.827568000000000 -71.801247000000004 -421.180792000000000
-106.102572000000000 -71.412081999999998 -420.947476999999990
-106.787570000000000 -70.168745000000001 -421.055823999999970
-106.220068000000000 -69.818747999999999 -420.595795000000010
-104.012573000000000 -69.536244999999994 -420.950800000000020
-106.402570999999990 -67.548747000000006 -421.672462999999990
-103.672572000000000 -67.538746000000003 -421.385794999999970
-105.950072000000010 -65.423745999999994 -421.303294999999990
-103.785906999999990 -65.575407999999996 -421.302467999999980
-105.887570000000000 -63.448743999999998 -421.647067999999990
-103.712574000000000 -63.818745000000000 -421.045810000000020
-102.662578000000000 -64.528747999999993 -420.275806999999990
-105.282574999999990 -62.468741000000001 -421.375811000000000
-42.168819999999997 -85.146242999999998 -418.453317000000030
-39.957571999999999 -85.146242999999998 -419.623299999999970
-38.637571000000001 -85.468743000000003 -419.925809000000020
-41.967570000000002 -83.794994000000003 -418.687052999999990
-40.378822000000000 -83.122495999999998 -419.847049000000030
-41.904237999999999 -81.462078000000005 -418.791653999999990
-40.702570000000001 -81.108740999999995 -419.675767000000010
-41.692571999999998 -79.326241999999993 -418.390803000000010
-39.995072000000000 -79.959579000000005 -419.218292000000020
-38.662571000000000 -79.318740000000005 -419.345825999999990
-39.704239999999999 -77.948747999999995 -419.282461000000010
-38.201737999999999 -77.417077000000006 -419.118308000000010
-108.157571000000000 -75.211246000000003 -419.488302999999970
-105.935070999999990 -75.518747000000005 -418.474555000000010
-37.864237000000003 -75.706245999999993 -419.007479999999990
-107.985626999999990 -73.697635000000005 -419.988022000000000
-105.907568000000000 -73.699995000000001 -418.845799000000000
-103.997570000000000 -73.568742999999998 -418.915808000000030
-102.652572000000010 -73.208748999999997 -418.315797999999970
-105.590070000000000 -71.688749000000001 -419.150792000000020
-103.722570000000000 -71.988747000000004 -419.742464999999980
-101.770909000000000 -71.652079000000001 -418.538292000000010
-105.072571000000000 -69.708748000000000 -419.288299999999990
-103.927571000000000 -68.873745000000000 -418.335795000000020
-101.986322000000000 -69.658744999999996 -419.315178000000000
-100.197576000000000 -68.758747999999997 -418.325797000000020
-105.107575999999990 -67.853745000000004 -419.885799000000020
-103.732575000000000 -67.398748999999995 -418.590814000000020
-101.675071000000000 -67.596239999999995 -419.698283000000000
-99.857568999999998 -67.398741999999999 -418.395802000000000
-104.992572000000000 -66.288747000000001 -420.040800999999990
-103.951320000000000 -65.618745000000004 -419.270809999999980
-102.330070000000010 -65.706245999999993 -419.160805999999980
-100.190073000000000 -65.427492999999998 -418.642055000000030
-103.390072000000000 -63.702494000000002 -419.782045999999980
-102.135907000000000 -63.225409999999997 -419.072458999999980
-100.002579000000000 -63.658743999999999 -418.475806999999970
-100.622572000000010 -62.538747000000001 -418.655782999999990
-44.199238000000001 -84.905410000000003 -417.129139000000010
-45.332572999999996 -83.908748000000003 -416.390806000000000
-43.982573000000002 -83.798743999999999 -417.315781000000020
-45.332569999999997 -81.588745000000003 -416.470825999999990
-44.400069999999999 -81.728746999999998 -417.183310000000010
-43.897570999999999 -80.058745999999999 -417.070806000000000
-41.724238999999997 -79.522076999999996 -417.405824000000000
-43.395071000000002 -78.158742000000004 -416.653304999999990
-41.425072000000000 -77.231245000000001 -417.218304999999990
-39.930905000000003 -77.730413999999996 -417.202477999999990
-38.650069000000002 -76.803747999999999 -417.075812999999980
-105.822571000000000 -76.198749000000007 -417.825818000000030
-103.934237999999990 -75.337912000000003 -417.052484999999990
-41.332568999999999 -76.468743000000003 -416.485845999999980
-39.882570999999999 -75.838745000000003 -417.055815000000000
-38.582568999999999 -75.538742999999997 -417.165786000000030
-105.292570000000000 -74.253742000000003 -417.965814000000020
-103.665901000000010 -73.288746000000003 -417.405814000000020
-102.351738000000000 -74.464578000000003 -416.988308000000020
-100.622570000000000 -72.962744999999998 -417.187816000000000
-103.795072000000000 -71.633742999999996 -417.695798000000020
-99.917575999999997 -71.551244999999994 -417.293318000000000
-98.612577000000002 -71.688740999999993 -416.345835000000020
-103.522565000000000 -70.063739999999996 -417.530790000000020
-102.510907000000000 -69.610412999999994 -416.629975000000000
-99.350071999999997 -70.186244000000002 -417.303293999999990
-97.910068999999993 -68.786244999999994 -416.658320000000000
-102.352571000000000 -67.868746999999999 -417.180792000000000
-97.959239999999994 -67.225412000000006 -416.995813000000000
-101.477570000000000 -65.628743000000000 -417.187467000000030
-97.959239999999994 -66.408745999999994 -417.005816999999980
-101.327572000000000 -64.063743000000002 -417.620822999999970
-100.095073000000000 -63.998744000000002 -416.690796999999980
-97.978572999999997 -64.124746999999999 -416.981822000000020
-99.827575999999993 -62.453747000000000 -417.118311000000010
-98.652570999999995 -62.328744999999998 -417.265803000000010
-47.620489999999997 -85.687077000000002 -414.482891999999990
-45.914237999999997 -85.492908000000000 -415.432467999999970
-49.302571000000000 -83.783745999999994 -414.410784999999980
-47.461320999999998 -83.663742999999997 -415.203310999999990
-46.632573000000001 -83.698757000000001 -415.105848999999980
-49.536321000000001 -81.778745999999998 -414.330818000000020
-47.191181999999998 -81.639021999999997 -415.462199000000000
-49.252572000000001 -80.035410999999996 -414.339114999999990
-47.975071000000000 -79.386245000000002 -414.603299999999990
-45.917569999999998 -79.307911000000004 -415.436640000000010
-43.962572000000002 -79.298742000000004 -416.145802000000000
-42.602573999999997 -78.783747000000005 -415.740788000000010
-100.237571000000000 -77.028747999999993 -414.370790000000000
-45.905904999999997 -77.785411999999994 -414.929137000000030
-43.635069999999999 -77.597910999999996 -415.477477000000020
-41.875073000000000 -77.681246999999999 -414.553307000000020
-39.932571000000003 -77.233746999999994 -415.605782999999970
-101.841320000000000 -76.097493000000000 -415.583305000000000
-99.982567000000003 -75.778745000000001 -414.275825000000000
-98.642572999999999 -75.468740999999994 -414.425819999999990
-43.192573000000003 -76.016244999999998 -414.690814999999990
-41.255071999999998 -75.696247000000000 -415.288298999999990
-39.977573000000000 -75.543745999999999 -415.950805000000000
-101.557570000000000 -72.682079999999999 -415.757467000000020
-100.111318999999990 -74.189997000000005 -415.242056999999990
-97.936318000000000 -73.512495000000001 -415.167052000000010
-95.992575000000002 -73.015406999999996 -414.325793999999970
-101.472571000000000 -71.338742999999994 -415.430784000000020
-100.015906000000000 -72.558743000000007 -414.315800000000020
-97.487568999999993 -71.708742999999998 -415.525824000000000
-95.767572999999999 -71.743748999999994 -414.435789000000000
-101.282574000000000 -68.663746000000003 -415.790796000000000
-100.344237000000010 -69.900412000000003 -414.412468999999990
-97.242575000000002 -70.553742000000000 -415.680795999999990
-95.935070999999994 -69.841245000000001 -414.993315999999990
-94.485072000000002 -69.258746000000002 -414.300784000000020
-100.892566000000000 -67.633747999999997 -415.905789000000030
-99.600075000000004 -67.736245999999994 -414.633295999999970
-96.082567999999995 -67.753739999999993 -415.600776999999990
-94.442565000000002 -67.193742999999998 -414.350822999999990
-100.207572000000000 -66.442075000000003 -415.769119999999990
-98.632570000000001 -65.508741999999998 -414.905816000000020
-96.197573000000006 -65.181248999999994 -415.564555999999980
-94.625905000000003 -66.125410000000002 -414.322466000000020
-99.177576999999999 -64.596244999999996 -415.658302999999990
-98.075903999999994 -64.072074999999998 -414.659152000000010
-95.745908999999997 -63.430410999999999 -414.767478999999980
-97.875073999999998 -62.341245000000001 -415.218301000000000
-47.902569000000000 -86.758740000000003 -413.885802000000010
-55.632570999999999 -85.268747000000005 -412.290797000000000
-53.997571999999998 -85.225414000000001 -412.867472000000020
-51.992573000000000 -85.648745000000005 -413.175820999999980
-49.982570000000003 -85.723747000000003 -413.715809999999980
-47.987572999999998 -85.423744999999997 -413.775817000000020
-55.072569999999999 -83.438743000000002 -412.270799000000010
-53.360073000000000 -83.916245000000004 -412.998295999999980
-51.982570000000003 -84.113747000000004 -413.480789000000020
-49.332569999999997 -83.528750000000002 -413.935810000000000
-54.972574000000002 -81.808745999999999 -412.425816000000000
-53.612155000000001 -81.960329999999999 -412.752810000000010
-52.146318999999998 -81.947492999999994 -413.272038000000010
-50.662570000000002 -81.756242000000000 -413.515806000000000
-53.497573000000003 -79.933747999999994 -412.500813999999990
-51.601322000000003 -79.651872999999995 -412.962676999999990
-99.342572000000004 -77.410410999999996 -413.324138000000000
-98.185903999999994 -77.432079000000002 -412.669142000000020
-52.762568000000002 -78.608750999999998 -412.425816000000000
-51.317571000000001 -78.037913000000003 -412.705826000000000
-49.777569999999997 -77.664370000000005 -412.697688000000030
-48.258822000000002 -77.663747999999998 -413.405817000000010
-45.928821999999997 -77.382495000000006 -413.278315000000020
-44.002569999999999 -77.028744000000003 -413.085803000000000
-41.977570000000000 -76.923744999999997 -413.525834999999970
-98.030489000000003 -75.659993999999998 -413.342259000000010
-95.962576999999996 -75.488746000000006 -413.115798999999980
-94.652574999999999 -75.613744999999994 -412.455797000000020
-48.992573999999998 -75.888738000000004 -412.385790999999980
-46.937572000000003 -75.918740999999997 -413.140818000000020
-45.332569999999997 -75.758747999999997 -413.465813000000030
-43.926322999999996 -74.887495000000001 -412.600807999999970
-41.950071999999999 -75.043745000000001 -412.838317000000020
-98.585075000000003 -73.808745999999999 -413.033299000000000
-93.840491000000000 -73.835410999999993 -413.088731000000000
-91.410905000000000 -73.390414000000007 -412.367473000000020
-99.952579000000000 -71.838744000000005 -414.125830000000010
-98.675904000000003 -71.605408999999995 -412.962486000000010
-93.977570999999998 -71.563747000000006 -413.740814000000000
-91.989238999999998 -71.565411999999995 -412.932475000000010
-98.712570999999997 -70.428747999999999 -412.875801000000020
-98.507571999999996 -69.268748000000002 -413.065821000000030
-93.257576000000000 -68.918741999999995 -413.810818999999980
-91.867574000000005 -70.553746000000004 -413.035810000000030
-90.652574000000001 -70.558745000000002 -412.480816000000000
-98.080072999999999 -67.862495999999993 -413.262065000000010
-93.312568999999996 -66.858739000000000 -413.635789999999990
-91.956739999999996 -67.892076000000003 -413.043290000000010
-90.642571000000004 -67.688744000000000 -412.295802999999980
-97.403824000000000 -65.664995000000005 -413.569557999999970
-96.582577000000001 -64.948745000000002 -412.955821000000010
-93.017573999999996 -66.133748999999995 -413.285806999999980
-91.992571999999996 -66.528745000000001 -412.675797999999990
-97.262575999999996 -63.678749000000003 -413.885802000000010
-96.070076999999998 -63.968744000000001 -412.620805000000020
-93.742575000000002 -63.782079000000003 -412.932475000000010
-95.997574000000000 -62.038746000000003 -413.125819999999980
-57.639792999999997 -85.275966999999994 -411.054146000000000
-59.867572000000003 -83.893744999999996 -410.220801999999990
-58.632567999999999 -83.548747000000006 -410.875827000000020
-56.302571999999998 -82.943748999999997 -411.535828999999980
-60.025072999999999 -82.003743999999998 -410.358295000000000
-57.805903999999998 -81.844161000000000 -411.038313000000020
-56.662571000000000 -81.048749000000001 -410.750820999999970
-60.995069999999998 -79.976243999999994 -410.250805000000010
-59.982574000000000 -79.623748000000006 -410.545811000000010
-57.982571999999998 -79.316247000000004 -410.510792999999980
-56.027572999999997 -79.791247999999996 -411.495812000000000
-97.542574999999999 -77.861248000000003 -411.452467000000010
-95.839237999999995 -77.483744999999999 -411.399478999999990
-93.962570999999997 -77.633747999999997 -410.353318000000000
-92.242569000000003 -77.223748000000001 -410.245806000000020
-90.607572000000005 -76.898746000000003 -410.235807000000020
-59.247571999999998 -77.608745999999996 -410.322048000000000
-58.635905000000001 -78.252080000000007 -410.342485000000010
-55.238959000000001 -77.973466999999999 -411.129973000000010
-53.790906000000000 -77.343744999999998 -411.370814000000000
-97.372568999999999 -75.533743999999999 -411.580816000000030
-96.087570999999997 -75.793746999999996 -410.280808999999980
-93.272574000000006 -75.695409999999995 -411.755789999999990
-91.840072000000006 -75.431246000000002 -411.413312000000020
-90.192573999999993 -75.192081999999999 -410.959978999999980
-87.972573999999994 -75.078740999999994 -410.275817000000020
-57.192574999999998 -76.618746000000002 -410.485803999999970
-53.960070000000002 -75.211246000000003 -410.545811000000010
-51.406737999999997 -75.455411999999995 -410.880813999999990
-49.962572999999999 -75.456243000000001 -411.380798000000030
-47.379446000000002 -75.077495999999996 -411.543312000000010
-45.312572000000003 -75.288742999999997 -411.245822999999970
-43.982573000000002 -75.388745000000000 -410.985768000000010
-42.622570000000003 -75.778745000000001 -411.665797000000000
-97.280071000000007 -73.867497000000000 -411.679573000000000
-95.791319999999999 -73.464995999999999 -410.460815000000030
-89.322574000000003 -73.601241999999999 -411.390810999999990
-87.945065999999997 -73.618745000000004 -410.783313000000020
-86.005903000000004 -73.937077000000002 -410.454148999999970
-84.437572000000003 -72.733749000000003 -410.270809999999980
-53.312573999999998 -74.578739999999996 -410.375834000000000
-49.822571000000003 -73.788742999999997 -410.440810000000000
-48.066737000000003 -73.725413000000003 -411.005796999999970
-46.335346999999999 -73.715412000000001 -410.911919000000010
-43.952573000000001 -74.548743999999999 -410.955817000000020
-97.247570999999994 -71.208744999999993 -411.715805999999990
-95.657576000000006 -71.193751000000006 -410.455807999999990
-89.235904000000005 -71.825412000000000 -411.732464999999990
-87.972573999999994 -70.918745999999999 -411.105812000000010
-85.754238999999998 -71.823745000000002 -410.499125999999990
-84.257569000000004 -71.463745000000003 -410.250797999999970
-97.267567999999997 -70.133746000000002 -411.835804999999990
-96.120073000000005 -69.558745000000002 -411.135800000000020
-94.662572999999995 -68.973742000000001 -410.290808000000030
-89.447570999999996 -69.326245999999998 -411.885783000000000
-87.472575000000006 -70.166246999999998 -410.963288999999970
-85.332571999999999 -69.768744999999996 -410.520791999999970
-84.032568999999995 -69.668746999999996 -410.293325999999980
-95.922573999999997 -67.543740999999997 -411.690801000000020
-94.490071999999998 -67.623748000000006 -410.473301999999990
-89.532567000000000 -67.582081000000002 -411.619137000000020
-87.607014000000007 -67.892076000000003 -410.753581000000000
-85.969235999999995 -68.257080000000002 -410.495817999999990
-95.832575000000006 -66.321246000000002 -412.023305999999990
-94.282566000000003 -65.481245999999999 -410.670809000000020
-91.952569999999994 -64.713746000000000 -411.935790999999990
-89.852573000000007 -65.721242000000004 -411.108308000000020
-88.139238000000006 -65.992076999999995 -410.369138000000020
-95.087576999999996 -64.278744000000003 -411.615818999999990
-93.877572999999998 -63.293748000000001 -411.470816000000010
-91.962568000000005 -63.183740000000000 -410.710811999999980
-90.232572000000005 -64.448744000000005 -410.503305000000010
-94.832577000000001 -62.333744000000003 -412.185803000000020
-94.147569000000004 -62.143746000000000 -410.933331000000010
-60.012573000000003 -85.612077999999997 -409.065792999999990
-58.662571000000000 -86.328744999999998 -409.715802000000000
-61.022571999999997 -84.198742999999993 -409.055829000000020
-59.987572999999998 -83.648745000000005 -408.240810000000010
-58.652571999999999 -83.898745000000005 -409.300804000000030
-63.932572999999998 -81.823744000000005 -408.693306000000010
-61.882568999999997 -82.443742000000000 -409.475811000000020
-59.982571999999998 -81.908748000000003 -408.815801000000020
-58.622568999999999 -82.028739000000002 -409.545809000000020
-93.982566000000006 -79.028744000000003 -409.125835000000000
-92.002571000000003 -79.198747999999995 -408.215791000000020
-86.627572999999998 -78.688744000000000 -408.940836999999990
-83.922572000000002 -78.695414000000000 -409.009159000000010
-81.970071000000004 -79.406240999999994 -408.648304999999990
-79.992570000000001 -80.258741999999998 -408.655822000000000
-78.209238999999997 -80.222080000000005 -408.572484999999970
-73.982574000000000 -79.618745000000004 -408.240810000000010
-72.002574999999993 -79.118742999999995 -408.225834000000020
-69.312565000000006 -79.958736999999999 -408.255786000000000
-68.002573999999996 -78.818746000000004 -408.655822000000000
-65.805902000000003 -79.673192000000000 -408.717478000000030
-61.977570000000000 -79.901246000000000 -409.123302000000020
-59.987572999999998 -79.823740000000001 -409.460798000000010
-95.945075000000003 -77.749992000000006 -409.674558999999990
-94.677572999999995 -77.346249000000000 -408.758311999999990
-91.650070999999997 -78.611243999999999 -408.970804999999980
-89.287567999999993 -78.113749999999996 -409.030809999999970
-87.915904999999995 -77.685411000000002 -409.302458000000000
-85.819238999999996 -77.508748999999995 -409.427483999999990
-83.972572999999997 -77.288747000000001 -409.475833000000020
-81.822569999999999 -77.762079999999997 -409.190804000000010
-79.964237999999995 -77.712080999999998 -409.067487000000030
-77.692570000000003 -77.467078000000001 -408.944155000000020
-75.945074000000005 -77.273742999999996 -408.853315000000010
-73.692572999999996 -77.818743999999995 -408.562480999999990
-71.962573000000006 -77.333744999999993 -408.475786000000030
-70.195903000000001 -77.470410999999999 -408.607487999999990
-67.975905999999995 -77.168745000000001 -408.259142999999990
-66.602573000000007 -77.338747999999995 -408.775805999999990
-63.950073000000003 -77.861248000000003 -408.963307999999980
-61.962569999999999 -77.679996000000003 -409.085821000000010
-59.972572999999997 -77.531245999999996 -409.415811000000020
-56.645071000000002 -77.183744000000004 -409.663304999999980
-94.140904000000006 -75.384579000000002 -408.931640000000020
-85.952568999999997 -75.418744000000004 -410.080820000000020
-83.962567000000007 -75.998745999999997 -409.815788000000000
-81.962570999999997 -75.873744000000002 -409.685805000000020
-79.992570000000001 -75.598747000000003 -409.605771000000000
-77.982573000000002 -75.421244000000002 -409.300804000000030
-75.672567000000001 -75.798743000000002 -408.995807000000010
-74.185901999999999 -75.727076999999994 -408.732484000000000
-71.972571000000002 -74.928746000000004 -408.285797000000000
-65.332577000000001 -76.438739999999996 -408.235817999999990
-61.692570000000003 -75.816246000000007 -409.010805000000000
-59.952576000000001 -75.468740999999994 -409.225792000000010
-57.800071000000003 -75.986244999999997 -409.154560000000000
-53.242573000000000 -75.838745000000003 -409.480810000000020
-93.399240000000006 -73.637073999999998 -408.985811000000010
-91.972575000000006 -73.728747999999996 -408.425777999999980
-83.982572000000005 -74.258745000000005 -410.195798000000020
-81.947564999999997 -74.338741999999996 -409.905805999999980
-80.002576000000005 -73.618746999999999 -409.625828000000010
-78.652575999999996 -74.223742000000001 -409.430802000000030
-75.990904999999998 -73.898746000000003 -408.982476000000020
-73.987570000000005 -73.378742000000003 -408.480793000000010
-69.902573000000004 -73.933746999999997 -408.285812000000020
-65.332577000000001 -74.408743999999999 -408.245802000000030
-61.302568999999998 -74.498750000000001 -408.465802999999990
-57.695070000000001 -74.466246999999996 -408.975810000000020
-55.325902999999997 -74.128747000000004 -409.375802000000020
-54.215071000000002 -73.099996000000004 -408.799562999999980
-51.937570999999998 -73.966247999999993 -409.310817999999980
-50.652571000000002 -73.018744999999996 -410.035819000000000
-93.862566999999999 -71.508742999999996 -409.480810000000020
-91.902569000000000 -72.083741000000003 -408.495814000000000
-81.965072000000006 -71.741243999999995 -409.913300999999990
-79.907570000000007 -71.456248000000002 -409.590825000000000
-77.916323000000006 -71.913743999999994 -409.227073000000020
-76.189239999999998 -71.982078000000001 -408.842493999999990
-74.642568999999995 -71.338742999999994 -408.425777999999980
-49.759238000000003 -72.036246000000006 -409.208318000000020
-94.892576000000005 -70.088744000000005 -410.195812999999990
-93.267571000000004 -69.113749999999996 -409.390807000000000
-91.722572000000000 -70.441246000000007 -408.683321999999980
-81.972571000000002 -69.356247999999994 -409.860790000000010
-79.400907000000004 -69.017911999999995 -409.125802000000020
-77.972568999999993 -70.378743000000000 -409.075810999999990
-75.987570000000005 -69.058741999999995 -408.225790000000020
-93.282579999999996 -67.278743000000006 -409.545809000000020
-92.206322999999998 -67.966246999999996 -408.767063000000010
-84.002568999999994 -67.488744999999994 -409.835815000000030
-81.919239000000005 -67.640412999999995 -409.414123000000020
-79.947568000000004 -67.573747999999995 -408.895820000000010
-93.312568999999996 -65.823740999999998 -409.690811999999990
-92.472576000000004 -65.518743999999998 -408.985853000000020
-85.940072000000001 -65.591247999999993 -409.360799999999980
-83.932573000000005 -65.268743999999998 -408.920795000000000
-81.927571000000000 -65.931247999999997 -408.893302000000010
-93.562577000000005 -62.968746000000003 -409.900814000000030
-92.237568999999993 -64.623746999999995 -408.750816999999980
-89.935074000000000 -63.393746000000000 -409.335806999999990
-87.975076000000001 -64.231245000000001 -408.995814999999990
-82.612573999999995 -64.228742999999994 -408.275782999999990
-93.332566000000000 -61.988745000000002 -409.765809999999990
-91.782573999999997 -62.442078000000002 -409.069136000000010
-62.652572999999997 -84.738738999999995 -406.215817000000020
-60.306322000000002 -85.721249000000000 -407.605800999999990
-73.272577999999996 -82.738749999999996 -407.265811999999980
-72.049239999999998 -82.968744999999998 -406.522477999999980
-69.895071999999999 -83.068745000000007 -406.608291000000010
-67.952566000000004 -83.118744000000007 -406.505823000000020
-65.232570999999993 -83.738743999999997 -406.435816999999990
-64.039235000000005 -84.032078999999996 -406.565814999999990
-61.632015000000003 -83.484859000000000 -407.458590000000020
-76.074572000000003 -81.386741999999998 -407.875806000000010
-73.740071000000000 -81.291241999999997 -407.213941999999970
-71.927570000000003 -81.388745000000000 -407.780825999999990
-70.104791000000006 -81.582633999999999 -407.643588000000020
-67.885901000000004 -81.705410000000001 -407.782474999999980
-66.112572000000000 -82.037075999999999 -407.745808000000010
-63.822571000000003 -80.973743999999996 -406.705797000000020
-62.125069000000003 -81.783744999999996 -407.357479000000010
-94.107569999999996 -79.083742999999998 -407.805822999999980
-90.797572000000002 -79.897497999999999 -406.279556000000010
-89.265071000000006 -80.083742999999998 -407.010808999999990
-87.722565000000003 -80.058740999999998 -407.247483999999990
-85.708681999999996 -79.703747000000007 -407.145809999999980
-83.927576000000002 -79.673741000000007 -407.810821999999970
-82.597572000000000 -79.628738999999996 -408.040821999999990
-77.332571000000002 -79.318747000000002 -407.560810000000000
-76.182569999999998 -79.608748000000006 -407.645806999999990
-73.982574000000000 -79.918745999999999 -407.315819999999970
-72.037570000000002 -79.773742999999996 -406.255810999999990
-69.987572999999998 -79.253742000000003 -407.393321000000010
-67.912564000000003 -79.468742000000006 -406.335771000000020
-66.006738999999996 -79.757076999999995 -406.628306000000010
-63.512571000000001 -80.088750000000005 -407.695800000000020
-62.632567999999999 -79.878748000000002 -408.165813000000010
-93.350070000000002 -77.833747000000002 -407.632056999999970
-91.570903999999999 -77.835410999999993 -406.796631999999990
-89.237573999999995 -77.858742000000007 -406.405806999999980
-87.957566999999997 -77.923743000000002 -406.400806999999990
-85.760904999999994 -77.255413000000004 -406.515822000000010
-83.982572000000005 -77.278747999999993 -406.630799000000020
-81.730069000000000 -77.514578999999998 -407.065806000000010
-79.992574000000005 -77.493746000000002 -407.305821999999980
-78.183683000000002 -77.405967000000004 -407.248569999999970
-75.977570999999998 -77.353741999999997 -406.940788000000000
-74.192569000000006 -77.473742999999999 -406.835799000000010
-71.937573999999998 -77.796244999999999 -406.575799000000020
-70.555901000000006 -77.712079000000003 -406.675806000000020
-67.937567999999999 -78.328744000000000 -406.980797999999990
-65.990074000000007 -77.691246000000007 -407.963313000000030
-63.957576000000003 -78.413751000000005 -408.060804000000020
-91.375069999999994 -75.402491999999995 -407.698296000000030
-89.297569999999993 -75.908747000000005 -407.005816999999980
-88.347568999999993 -75.258747000000000 -407.095820000000000
-86.652569000000000 -75.978740999999999 -406.665801999999990
-83.982572000000005 -75.928740000000005 -406.565814999999990
-81.962570999999997 -75.123745999999997 -406.580806000000000
-79.992570000000001 -74.998750999999999 -406.615793999999990
-77.947571999999994 -75.433745999999999 -406.725794000000010
-76.277573000000004 -75.733744000000002 -406.750812999999990
-73.272577999999996 -75.648740000000004 -406.855792000000010
-71.992576000000000 -75.218744999999998 -406.925796999999990
-69.968404000000007 -75.575412000000000 -407.807461999999990
-67.915907000000004 -74.738746000000006 -408.155799000000000
-65.717572000000004 -75.193743999999995 -407.875813999999990
-61.907572999999999 -75.173747000000006 -407.415806999999970
-59.982574000000000 -75.603741999999997 -407.665803999999980
-57.966321000000001 -75.484990999999994 -407.193322000000020
-55.294237000000003 -75.447078000000005 -407.924145000000010
-90.182018999999997 -73.320966999999996 -407.769135000000010
-87.977570000000000 -73.458738999999994 -407.290800999999990
-86.209239999999994 -73.963745000000003 -406.925796999999990
-83.912574000000006 -74.438743000000002 -406.585812999999970
-81.970071000000004 -73.743746000000002 -406.585826999999990
-79.982570999999993 -74.158743000000001 -406.685798999999970
-77.977571999999995 -74.358743000000004 -406.630799000000020
-75.962573000000006 -73.538749999999993 -406.695843000000020
-73.962569000000002 -74.121245999999999 -406.825803000000010
-71.910066000000000 -73.361243999999999 -407.498292999999990
-69.962569999999999 -73.251245999999995 -407.179560999999980
-67.967571000000007 -73.066246000000007 -407.328307999999990
-65.982570999999993 -73.932496999999998 -407.362080999999990
-63.820073999999998 -73.972494999999995 -407.159547999999970
-62.055570000000003 -73.844745000000003 -407.166811999999990
-59.742573000000000 -73.158743000000001 -407.058314000000000
-57.950068999999999 -73.101245000000006 -407.178297999999980
-55.836320999999998 -73.726247000000001 -407.218311000000030
-53.830072000000001 -74.511245000000002 -407.965802000000000
-90.060074000000000 -71.521244999999993 -407.865799999999980
-88.002561999999998 -71.638748000000007 -407.385796000000030
-85.282563999999994 -72.043743000000006 -406.835808999999980
-83.465073000000004 -71.349577999999994 -406.532473999999980
-81.287570000000002 -71.383743999999993 -406.345814000000020
-79.939235999999994 -71.582078999999993 -406.465808999999980
-78.154235999999997 -71.612083999999996 -406.624152999999980
-75.992569000000003 -71.983743000000004 -406.880826000000010
-73.888571999999996 -71.862746000000001 -407.008805999999990
-71.952569999999994 -71.443742000000000 -407.215803999999990
-69.935485000000000 -71.709160999999995 -407.047469999999980
-67.932573000000005 -71.542081999999994 -406.455805000000000
-65.957570000000004 -72.236247000000006 -407.348298000000000
-63.937573999999998 -72.288746000000003 -406.537052000000020
-62.582566999999997 -72.268747000000005 -406.495810000000010
-55.872571000000001 -72.478740999999999 -406.665801999999990
-53.880071999999998 -72.436241999999993 -407.465797000000010
-52.065905000000001 -71.948746999999997 -408.102472999999970
-89.382570000000001 -69.548744999999997 -407.622476000000010
-87.942573999999993 -69.733745999999996 -407.145798000000010
-85.930074000000005 -70.051247000000004 -406.693294999999980
-84.432571999999993 -70.038740000000004 -406.365796999999990
-81.312578000000002 -68.928747999999999 -406.275824000000000
-80.060907000000000 -69.577078000000000 -406.435821999999970
-78.315900999999997 -69.683746999999997 -406.955803000000000
-75.992572999999993 -68.893745999999993 -407.080799000000010
-73.831571999999994 -69.880744000000007 -407.345814000000020
-71.747158999999996 -69.779995999999997 -406.566225999999970
-69.732011999999997 -69.815967000000001 -406.445812999999990
-67.947569999999999 -70.088747999999995 -406.560808000000010
-66.622569999999996 -70.518747000000005 -406.550810000000010
-89.944239999999994 -67.365416999999994 -407.432457000000000
-87.520071999999999 -67.156248000000005 -406.335816000000020
-86.567570000000003 -68.338744000000005 -406.355813000000010
-81.805907000000005 -67.685410000000005 -406.489153999999980
-80.002576000000005 -67.988746000000006 -407.175778999999980
-77.727571999999995 -67.847078999999994 -407.852476000000020
-75.336949000000004 -67.974997999999999 -407.070181999999990
-73.322571999999994 -67.058750000000003 -406.475812000000020
-71.982569999999996 -67.828744999999998 -406.295806000000030
-90.203126999999995 -65.824856999999994 -407.396919000000030
-88.069232999999997 -65.902077000000006 -406.292458000000010
-83.332571999999999 -65.610408000000007 -406.284153000000000
-81.282571000000004 -66.238746000000006 -407.115816999999990
-79.940068999999994 -65.351241999999999 -407.973297000000000
-77.962573000000006 -65.474997000000002 -407.564566000000010
-75.982573000000002 -66.218749000000003 -406.532475999999970
-74.462574000000004 -66.133741000000001 -406.440809000000000
-91.682571999999993 -63.108745999999996 -407.985820999999990
-89.580489999999998 -63.378328000000003 -407.002476000000000
-87.982564999999994 -63.093744000000001 -407.890826000000000
-85.737570000000005 -63.348747000000003 -407.489141000000020
-83.997572000000005 -63.747081000000001 -407.319163000000000
-82.180905999999993 -64.043745000000001 -407.459139999999990
-91.525071999999994 -62.263744000000003 -408.105813000000010
-89.945904999999996 -62.463743999999998 -406.594136999999990
-87.962568000000005 -62.328747000000000 -406.635821000000020
-86.642574999999994 -62.538744999999999 -406.385824000000010
-61.977572000000002 -85.018744999999996 -405.458287999999980
-69.312565000000006 -83.588741999999996 -405.725837000000010
-68.010571999999996 -83.966744000000006 -405.051815999999970
-66.070907000000005 -83.624854999999997 -405.359693999999990
-63.897571999999997 -83.596245999999994 -405.090816000000020
-62.652572999999997 -83.948746000000000 -404.925822999999980
-69.967572000000004 -82.513745999999998 -405.615807000000020
-67.982574999999997 -81.828743000000003 -405.488296999999990
-65.742570000000001 -81.285416999999995 -405.779142999999980
-89.272574000000006 -79.948746000000000 -406.015812999999980
-69.977570000000000 -80.203744999999998 -406.098299000000000
-59.652574000000001 -74.738748000000001 -406.145810999999980
-60.712570999999997 -72.947080000000000 -405.134145999999990
-60.002572999999998 -73.848738999999995 -405.155778000000000
-58.602573999999997 -73.642080000000007 -405.252485999999980
-55.925071000000003 -73.762080999999995 -405.504981999999980
-66.184239000000005 -71.712081999999995 -405.840814000000020
-63.997574000000000 -71.218744000000001 -404.740810000000010
-62.658822000000001 -72.198746999999997 -405.069564000000010
-57.032570000000000 -72.428752000000003 -405.680805000000020
-55.782570999999997 -72.042079999999999 -405.195802000000010
-54.297572000000002 -71.958749999999995 -406.165808000000030
-83.992570999999998 -69.358744000000002 -406.100810000000020
-81.952569999999994 -69.501244000000000 -406.090788999999970
-69.972568999999993 -68.896247000000002 -405.115806000000020
-67.992576000000000 -68.958743999999996 -405.055820999999980
-65.995069999999998 -70.511244000000005 -405.387063000000010
-85.297569999999993 -67.578744000000000 -405.975789000000020
-84.002568999999994 -67.368746000000002 -405.865817999999990
-82.652575999999996 -67.418746999999996 -406.185806000000010
-73.972572000000000 -67.083749999999995 -405.420810000000020
-71.700349000000003 -67.804298000000003 -405.206905000000010
-69.252572999999998 -67.988746000000006 -404.635816999999970
-87.484240999999997 -64.865409000000000 -405.967479000000030
-85.302576000000002 -65.478741999999997 -405.755788000000000
-83.992570999999998 -66.428751000000005 -405.905782999999990
-73.997572000000005 -66.408745999999994 -405.690789000000000
-87.982564999999994 -63.048743000000002 -405.685782000000020
-85.967571000000007 -63.933745000000002 -405.860796999999990
-65.322569999999999 -84.018744999999996 -404.050796999999990
-63.992575000000002 -83.918743000000006 -404.155791000000020
-59.917572999999997 -73.023747999999998 -403.955802000000010
-58.627572000000001 -72.868746000000002 -403.585805999999990
-56.630071000000001 -72.658745999999994 -403.848313000000020
-62.010905000000001 -71.688744999999997 -403.414145000000020
-64.992569000000003 -69.818749999999994 -403.225839000000010
-63.912570000000002 -70.466245000000001 -403.383314999999980
