ply
format ascii 1.0
element vertex 97
property double x
property double y
property double z
end_header
-16.160070000000001 -89.341241999999994 -386.875815999999990
-17.495905000000000 -89.143743999999998 -385.319128999999980
-15.359238000000000 -88.227079000000003 -384.838307999999980
-19.962572000000002 -89.018747000000005 -382.945835999999990
-18.592572000000001 -88.988743999999997 -383.175819999999990
-21.402570999999998 -88.238746000000006 -382.279137999999990
-17.262571000000001 -88.488742999999999 -382.405818000000010
-16.062570999999998 -87.832077999999996 -382.349133999999990
-14.602573000000000 -87.188749999999999 -383.315802000000020
-22.187571999999999 -86.463749000000007 -382.415831000000030
-20.081738000000001 -89.386245000000002 -381.300807000000020
-18.647570999999999 -89.208741000000003 -381.035804999999980
-22.427569999999999 -87.818748999999997 -380.805790000000000
-17.332573000000000 -88.418736999999993 -381.305814000000000
-16.247571000000001 -87.453744999999998 -381.000816999999980
-22.377572000000001 -85.851245000000006 -381.585799000000010
-14.789237999999999 -86.368746999999999 -381.129125999999990
-21.322572999999998 -89.048743000000002 -379.985809000000020
-20.075904999999999 -89.482080999999994 -379.729142000000020
-18.542570999999999 -89.338735000000000 -379.565805000000010
-22.923404999999999 -87.427076999999997 -378.991641000000020
-21.949238000000001 -88.145410999999996 -378.917456000000020
-19.466322999999999 -87.814993000000001 -378.410393000000000
-17.322572999999998 -87.743744000000007 -379.270806999999990
-15.932570999999999 -86.675413000000006 -379.392474999999990
-23.052569999999999 -86.568747000000002 -378.345817000000010
-22.664570999999999 -85.266243000000003 -378.916313000000000
-23.419236999999999 -88.012079000000000 -377.092470999999990
-17.272570999999999 -86.778745000000001 -377.765805000000000
-22.832571000000002 -85.085412000000005 -376.749147999999990
-21.758127999999999 -85.866522000000003 -377.440253999999980
-19.565071000000000 -85.851241000000002 -378.068298000000030
-17.805906000000000 -85.850414000000001 -377.277479000000030
-15.857571000000000 -85.718743000000003 -377.220808999999970
-21.588571999999999 -83.782747000000001 -376.895803000000000
-19.987572000000000 -83.343748000000005 -376.795798999999990
-23.762570000000000 -87.468743000000003 -375.295802999999980
-23.005904999999998 -85.957078999999993 -375.402465000000010
-21.649238000000000 -83.778745999999998 -375.155797000000010
-23.837571000000001 -86.668747999999994 -373.940811000000000
-23.511322000000000 -85.724998999999997 -373.124573000000000
-22.130071999999998 -83.821247999999997 -372.845805999999980
-24.422571000000001 -86.288749999999993 -370.845795000000010
-21.807573000000001 -83.343751999999995 -371.565804000000010
-17.229237999999999 -87.325412000000000 -368.889153000000020
-24.602571999999999 -85.898741999999999 -369.255810999999990
-17.172571000000001 -86.638749000000004 -368.705839000000030
-21.677571000000000 -82.893748000000002 -369.475797000000000
-17.712572999999999 -84.008746000000002 -368.965804999999990
-21.332573000000000 -82.643750999999995 -368.800818999999990
-17.212569999999999 -87.028741999999994 -366.365819999999990
-24.569239000000000 -85.252081000000004 -367.619126999999990
-22.529237999999999 -82.863742000000002 -367.179140000000020
-17.385905000000001 -84.195409999999995 -367.349148000000010
-15.903404999999999 -84.254579000000007 -367.664133999999990
-21.622572999999999 -82.483745999999996 -367.230802999999980
-17.357572000000001 -86.633741999999998 -364.670827999999970
-24.260072999999998 -84.240414999999999 -365.493731000000030
-22.582570000000000 -82.672073999999995 -364.595800999999990
-17.315905999999998 -83.667073000000002 -365.157474999999980
-21.312570999999998 -82.323749000000007 -365.265802000000010
-20.002573999999999 -82.168743000000006 -364.415795000000000
-17.532571000000001 -85.348748000000001 -362.575784000000000
-23.912571000000000 -83.348743999999996 -363.315815999999980
-18.192572999999999 -83.346248000000003 -362.763292999999980
-22.005070000000000 -82.251240999999993 -363.100826999999980
-20.002573999999999 -82.058743000000007 -363.175809000000020
-17.322569999999999 -82.358739999999997 -364.155799000000000
-23.159237999999998 -82.477076999999994 -361.342460000000020
-21.317571000000001 -81.763744000000003 -360.840826999999990
-20.200073000000000 -81.911248999999998 -361.130818999999970
-18.612570999999999 -82.648739000000006 -362.155795000000010
-22.110070000000000 -81.756243999999995 -359.365813000000000
-20.002573999999999 -81.858746999999994 -358.875811000000000
-21.764655000000001 -81.352495000000005 -357.162468999999990
-20.260072999999998 -81.633747000000000 -357.145808999999990
-18.567571999999998 -82.613748000000001 -356.435835000000000
-22.800070999999999 -81.338742999999994 -354.795798999999990
-21.962571000000001 -81.218749000000003 -355.225816000000010
-20.112572000000000 -81.393747000000005 -354.793318000000000
-18.412571000000000 -82.616240000000005 -354.848310000000030
-22.985904000000001 -81.305413999999999 -353.982478000000010
-22.235071999999999 -80.877076000000002 -352.983316000000000
-19.902573000000000 -81.343744000000001 -352.820799000000020
-18.662573999999999 -82.208744999999993 -353.495776999999980
-21.332573000000000 -80.738746000000006 -351.975827999999980
-19.667572000000000 -81.141240999999994 -351.178303000000030
-21.332573000000000 -80.628744999999995 -351.165800999999990
-21.442571999999998 -80.315414000000004 -349.402467000000000
-21.272572000000000 -80.158748000000003 -347.990811000000010
-20.136322000000000 -80.314997000000005 -346.972047999999970
-20.229239000000000 -79.845416000000000 -344.697484999999970
-20.207571999999999 -79.396246000000005 -342.743299999999980
-19.742571000000002 -79.078740999999994 -340.775787999999980
-18.662573999999999 -79.438745999999995 -340.205818000000020
-19.327573000000001 -78.756248999999997 -339.065797999999970
-18.662572000000001 -78.474744999999999 -337.051808999999990
