ply
format ascii 1.0
element vertex 656
property double x
property double y
property double z
end_header
-6.873980045318604 -0.378459006547928 6.098969936370850
-6.873980045318604 -0.378459006547928 6.098969936370850
-6.918980121612549 -0.417459011077881 5.898970127105713
-6.827980041503906 -0.535458981990814 5.873960018157959
-6.787980079650879 -0.638459026813507 5.751969814300537
-6.898980140686035 -0.514459013938904 5.737969875335693
-6.701980113983154 -0.747458994388580 5.674970149993897
-6.914979934692383 -0.594458997249603 5.602960109710693
-6.721980094909668 -0.754459023475647 5.515970230102539
-6.837979793548584 -0.748459994792938 5.420969963073731
-6.577980041503906 -0.901459991931915 5.373960018157959
-6.721980094909668 -0.824460029602051 5.354959964752197
-6.537980079650879 -0.949460029602051 5.226970195770264
-6.820980072021484 -0.856459975242615 5.219970226287842
-6.675980091094971 -0.884459972381592 5.200960159301758
-6.422979831695557 -1.003460049629211 5.093969821929932
-6.796979904174805 -0.953459978103638 5.092969894409180
-6.569980144500732 -0.980458021163940 5.078969955444336
-6.922979831695557 -0.968459010124207 5.011960029602051
-6.689980030059815 -0.997458994388580 4.991960048675537
-6.219979763031006 -1.177459955215454 4.983960151672363
-6.355979919433594 -1.099460005760193 4.962969779968262
-6.497980117797852 -1.042459964752197 4.961969852447510
-6.806980133056641 -0.938458979129791 4.909959793090820
-6.911980152130127 -1.059460043907166 4.889969825744629
-6.756979942321777 -1.080459952354431 4.875969886779785
-6.268980026245117 -1.119459986686707 4.843969821929932
-6.594979763031006 -1.078459978103638 4.843969821929932
-6.186979770660400 -1.243460059165955 4.825960159301758
-6.470980167388916 -1.125460028648377 4.762959957122803
-6.823979854583740 -1.014459967613220 4.746970176696777
-6.675980091094971 -1.015460014343262 4.725969791412354
-6.102980136871338 -1.298460006713867 4.704969882965088
-6.328979969024658 -1.154459953308106 4.708960056304932
-6.757979869842529 -1.166460037231445 4.684969902038574
-6.902979850769043 -1.108459949493408 4.646969795227051
-6.579979896545410 -1.088459968566895 4.621970176696777
-6.239980220794678 -1.225460052490234 4.612969875335693
-5.999979972839356 -1.354460000991821 4.587969779968262
-6.458980083465576 -1.183459997177124 4.587969779968262
-6.669980049133301 -1.202460050582886 4.562960147857666
-6.790979862213135 -1.102460026741028 4.524970054626465
-6.342979907989502 -1.245460033416748 4.500969886779785
-6.158979892730713 -1.288460016250610 4.485960006713867
-6.863979816436768 -1.223459959030151 4.461969852447510
-6.545979976654053 -1.229460000991821 4.460969924926758
-6.033979892730713 -1.372460007667542 4.429959774017334
-6.722980022430420 -1.219460010528565 4.413969993591309
-6.268980026245117 -1.304460048675537 4.369969844818115
-5.905980110168457 -1.441460013389587 4.363969802856445
-6.427979946136475 -1.268460035324097 4.368959903717041
-6.604979991912842 -1.276460051536560 4.327970027923584
-6.135980129241943 -1.358459949493408 4.307970046997070
-6.788980007171631 -1.261459946632385 4.284959793090820
-5.998980045318604 -1.437459945678711 4.234960079193115
-6.690979957580566 -1.361459970474243 4.229959964752197
-6.490980148315430 -1.318459987640381 4.223969936370850
-5.861979961395264 -1.488459944725037 4.204969882965088
-6.364980220794678 -1.239459991455078 4.207960128784180
-6.294980049133301 -1.373460054397583 4.200960159301758
-6.145979881286621 -1.397459983825684 4.155970096588135
-5.983980178833008 -1.469460010528565 4.074960231781006
-6.746980190277100 -1.377460002899170 4.075960159301758
-6.367980003356934 -1.386459946632385 4.066969871520996
-6.651979923248291 -1.262459993362427 4.069960117340088
-6.487979888916016 -1.286460041999817 4.060959815979004
-6.597980022430420 -1.401460051536560 4.051970005035400
-5.716979980468750 -1.442459940910339 4.020959854125977
-6.223979949951172 -1.404459953308106 4.017970085144043
-5.853980064392090 -1.517459988594055 3.992959976196289
-6.092979907989502 -1.466459989547730 3.949959993362427
-6.689980030059815 -1.340459942817688 3.933969974517822
-5.663980007171631 -1.583459973335266 3.908960103988648
-6.528979778289795 -1.315459966659546 3.918970108032227
-5.950980186462402 -1.453459978103638 3.894959926605225
-6.297979831695557 -1.382459998130798 3.880959987640381
-6.439980030059815 -1.427459955215454 3.869970083236694
-6.586979866027832 -1.451460003852844 3.868959903717041
-5.805980205535889 -1.549460053443909 3.852960109710693
-6.197979927062988 -1.481459975242615 3.830970048904419
-5.557980060577393 -1.587460041046143 3.791960000991821
-6.728980064392090 -1.436460018157959 3.791960000991821
-5.678979873657227 -1.500460028648377 3.784960031509399
-6.037980079650879 -1.503460049629211 3.756959915161133
-5.886980056762695 -1.479460000991821 3.738970041275024
-6.352980136871338 -1.405460000038147 3.729959964752197
-6.592979907989502 -1.365460038185120 3.728960037231445
-5.765979766845703 -1.593459963798523 3.697969913482666
-6.495979785919190 -1.488459944725037 3.691970109939575
-5.543980121612549 -1.505460023880005 3.661969900131226
-6.176980018615723 -1.411460041999817 3.656970024108887
-6.301980018615723 -1.524459958076477 3.646970033645630
-6.114980220794678 -1.553460001945496 3.639970064163208
-5.638979911804199 -1.631459951400757 3.627969980239868
-6.708980083465576 -1.437459945678711 3.627969980239868
-5.984980106353760 -1.480460047721863 3.610960006713867
-5.877980232238770 -1.587460041046143 3.599970102310181
-6.572979927062988 -1.427459955215454 3.567960023880005
-5.432980060577393 -1.649459958076477 3.550970077514648
-6.414979934692383 -1.449460029602051 3.549969911575317
-6.203979969024658 -1.491459965705872 3.520960092544556
-5.736979961395264 -1.560459971427918 3.501970052719116
-5.579979896545410 -1.658460021018982 3.493959903717041
-6.677979946136475 -1.498460054397583 3.476969957351685
-6.534979820251465 -1.579460024833679 3.468970060348511
-5.987979888916016 -1.526460051536560 3.460969924926758
-5.853980064392090 -1.631459951400757 3.440969944000244
-5.473979949951172 -1.574460029602051 3.425970077514648
-6.260980129241943 -1.620460033416748 3.424969911575317
-6.387979984283447 -1.533460021018982 3.421960115432739
-5.359980106353760 -1.682459950447083 3.405970096588135
-6.126979827880859 -1.540459990501404 3.396970033645630
-5.645979881286621 -1.589460015296936 3.339960098266602
-6.055980205535889 -1.668460011482239 3.316970109939575
-6.610980033874512 -1.586459994316101 3.313970088958740
-5.772980213165283 -1.686460018157959 3.308969974517822
-6.468979835510254 -1.664459943771362 3.308969974517822
-5.908979892730713 -1.594460010528565 3.296960115432739
-6.311979770660400 -1.710459947586060 3.284960031509399
-5.407979965209961 -1.621459960937500 3.278970003128052
-6.187980175018311 -1.611459970474243 3.263959884643555
-5.547979831695557 -1.698459982872009 3.257970094680786
-5.287980079650879 -1.733459949493408 3.207959890365601
-5.686979770660400 -1.628460049629211 3.187959909439087
-6.380980014801025 -1.615460038185120 3.181969881057739
-6.155980110168457 -1.768460035324097 3.169970035552979
-6.404980182647705 -1.764459967613220 3.154969930648804
-6.562980175018311 -1.624459981918335 3.158960103988648
-5.995979785919190 -1.630460023880005 3.155970096588135
-5.843979835510254 -1.651460051536560 3.145960092544556
-5.434979915618897 -1.666460037231445 3.120970010757446
-5.235980033874512 -1.626459956169128 3.096960067749023
-6.265979766845703 -1.696460008621216 3.062959909439087
-5.879980087280273 -1.773460030555725 3.050970077514648
-5.607979774475098 -1.674460053443909 3.052969932556152
-6.167980194091797 -1.858459949493408 3.045969963073731
-5.709980010986328 -1.784459948539734 3.045969963073731
-6.052979946136475 -1.705459952354431 3.029969930648804
-5.230979919433594 -1.765460014343262 3.010970115661621
-6.503980159759522 -1.779459953308106 3.007970094680786
-5.431980133056641 -1.775460004806519 3.004960060119629
-6.008979797363281 -1.846459984779358 2.992959976196289
-6.353980064392090 -1.886459946632385 2.983959913253784
-6.249979972839356 -1.789459943771362 2.940969944000244
-5.585979938507080 -1.815459966659546 2.935960054397583
-5.753980159759522 -1.815459966659546 2.903970003128052
-5.919980049133301 -1.765460014343262 2.899970054626465
-6.466979980468750 -1.863459944725037 2.884969949722290
-5.213980197906494 -1.695459961891174 2.872960090637207
-5.953979969024658 -1.913460016250610 2.862970113754273
-6.122980117797852 -1.862460017204285 2.859960079193115
-5.357979774475098 -1.808459997177124 2.849970102310181
-6.327980041503906 -1.871459960937500 2.825959920883179
-5.213980197906494 -1.840459942817688 2.804960012435913
-6.200980186462402 -1.995460033416748 2.794970035552979
-5.072979927062988 -1.768460035324097 2.788969993591309
-5.673980236053467 -1.880460023880005 2.777960062026978
-6.438980102539063 -1.976459980010986 2.775959968566895
-5.814980030059815 -1.791460037231445 2.766969919204712
-5.559979915618897 -1.786460041999817 2.761960029602051
-6.058979988098145 -1.938459992408752 2.735960006713867
-5.411980152130127 -1.788460016250610 2.712970018386841
-5.916979789733887 -1.890460014343262 2.709969997406006
-5.293980121612549 -1.906460046768189 2.688970088958740
-6.288980007171631 -1.973459959030151 2.672960042953491
-5.500979900360107 -1.909459948539734 2.670969963073731
-5.092979907989502 -1.855460047721863 2.660969972610474
-6.095980167388916 -2.067460060119629 2.654969930648804
-5.815979957580566 -2.016459941864014 2.650959968566895
-6.381979942321777 -2.083460092544556 2.626970052719116
-6.235980033874512 -2.111459970474243 2.617959976196289
-5.780980110168457 -1.873460054397583 2.623960018157959
-5.627980232238770 -1.942459940910339 2.587970018386841
-5.207980155944824 -1.771460056304932 2.582959890365601
-5.359980106353760 -1.826460003852844 2.578969955444336
-5.965980052947998 -2.035459995269775 2.569960117340088
-5.419980049133301 -1.965459942817688 2.557970046997070
-6.028979778289795 -2.167459964752197 2.530970096588135
-5.222980022430420 -1.914459943771362 2.528970003128052
-5.068980216979981 -1.771460056304932 2.507970094680786
-5.829979896545410 -2.000459909439087 2.500969886779785
-5.861979961395264 -2.156460046768189 2.494970083236694
-6.331980228424072 -2.132460117340088 2.495970010757446
-6.166979789733887 -2.150460004806519 2.472959995269775
-5.582980155944824 -2.043459892272949 2.463959932327271
-5.526979923248291 -1.885460019111633 2.462970018386841
-5.722980022430420 -2.146460056304932 2.429960012435913
-6.100979804992676 -2.274460077285767 2.422960042953491
-5.699979782104492 -1.953459978103638 2.430959939956665
-5.026979923248291 -1.904459953308106 2.427969932556152
-6.273980140686035 -2.264460086822510 2.411969900131226
-5.316979885101318 -1.879459977149963 2.412970066070557
-4.930980205535889 -1.790459990501404 2.405970096588135
-5.423980236053467 -1.983459949493408 2.389970064163208
-5.965980052947998 -2.162460088729858 2.377969980239868
-5.834980010986328 -2.066459894180298 2.366960048675537
-5.898980140686035 -2.306459903717041 2.333960056304932
-5.156980037689209 -1.882459998130798 2.332959890365601
-6.179979801177979 -2.329459905624390 2.304960012435913
-5.247980117797852 -1.998460054397583 2.309969902038574
-5.691979885101318 -2.037460088729858 2.301970005035400
-5.763979911804199 -2.268460035324097 2.283960103988648
-5.539979934692383 -1.982460021972656 2.287970066070557
-6.031980037689209 -2.308459997177124 2.253969907760620
-5.040979862213135 -1.982460021972656 2.256959915161133
-4.814980030059815 -1.864459991455078 2.259969949722290
-4.965980052947998 -1.844460010528565 2.256959915161133
-5.607979774475098 -2.153460025787354 2.237970113754273
-5.374979972839356 -1.938459992408752 2.224970102310181
-5.452980041503906 -2.096460103988648 2.214960098266602
-6.105979919433594 -2.474459886550903 2.169970035552979
-5.954979896545410 -2.452460050582886 2.168970108032227
-5.766980171203613 -2.142460107803345 2.176970005035400
-5.887979984283447 -2.249459981918335 2.170969963073731
-5.160980224609375 -1.955459952354431 2.171960115432739
-5.298980236053467 -2.054460048675537 2.155970096588135
-5.013979911804199 -1.901460051536560 2.126970052719116
-4.889979839324951 -1.812459945678711 2.120970010757446
-5.554979801177979 -2.050460100173950 2.113970041275024
-5.637979984283447 -2.236459970474243 2.093970060348511
-5.890979766845703 -2.357460021972656 2.033960103988648
-6.071979999542236 -2.550460100173950 2.027960062026978
-5.778979778289795 -2.259459972381592 2.020960092544556
-5.409979820251465 -2.075459957122803 2.017970085144043
-5.222980022430420 -2.021460056304932 2.015969991683960
-5.076980113983154 -1.975460052490234 2.007970094680786
-5.555980205535889 -2.151459932327271 1.985960006713867
-5.282979965209961 -2.158459901809692 1.976969957351685
-4.953979969024658 -1.895460009574890 1.970960021018982
-5.955979824066162 -2.490459918975830 1.949959993362427
-5.117980003356934 -2.120460033416748 1.931970000267029
-6.016980171203613 -2.659460067749023 1.915959954261780
-5.768980026245117 -2.345459938049316 1.899970054626465
-4.840980052947998 -1.800459980964661 1.912969946861267
-5.654980182647705 -2.241460084915161 1.888960003852844
-5.664979934692383 -2.451459884643555 1.873960018157959
-5.509980201721191 -2.295459985733032 1.869969964027405
-5.459980010986328 -2.126460075378418 1.868960022926331
-5.836979866027832 -2.476459980010986 1.836969971656799
-4.870979785919190 -2.008460044860840 1.846959948539734
-5.343979835510254 -2.214459896087647 1.837970018386841
-5.033979892730713 -1.992460012435913 1.835970044136047
-5.924980163574219 -2.599459886550903 1.808969974517822
-5.223979949951172 -2.105459928512573 1.821969985961914
-5.904980182647705 -2.784460067749023 1.756960034370422
-4.861979961395264 -1.857460021972656 1.774970054626465
-5.625979900360107 -2.323460102081299 1.757969975471497
-5.728980064392090 -2.471460103988648 1.714959979057312
-5.104979991912842 -2.069459915161133 1.716969966888428
-5.464980125427246 -2.249459981918335 1.708960056304932
-4.769979953765869 -1.957460045814514 1.709969997406006
-4.954979896545410 -1.969460010528565 1.709969997406006
-5.816979885101318 -2.608459949493408 1.680960059165955
-4.739980220794678 -1.796460032463074 1.698969960212708
-5.321979999542236 -2.184459924697876 1.683969974517822
-5.174980163574219 -2.246459960937500 1.672960042953491
-5.670979976654053 -2.628459930419922 1.656970024108887
-4.991980075836182 -2.157459974288940 1.668969988822937
-5.837979793548584 -2.820460081100464 1.623960018157959
-5.623980045318604 -2.497459888458252 1.592970013618469
-5.539979934692383 -2.354460000991821 1.594969987869263
-4.842979907989502 -2.058459997177124 1.589959979057312
-5.719979763031006 -2.753459930419922 1.561959981918335
-4.841979980468750 -1.854460000991821 1.566969990730286
-5.752980232238770 -2.906460046768189 1.531970024108887
-5.114980220794678 -2.126460075378418 1.553959965705872
-4.987979888916016 -2.034460067749023 1.548959970474243
-5.404980182647705 -2.305459976196289 1.540959954261780
-5.597980022430420 -2.666460037231445 1.528970003128052
-5.264979839324951 -2.223459959030151 1.536970019340515
-5.126979827880859 -2.280459880828857 1.519960045814514
-5.501979827880859 -2.457459926605225 1.491960048675537
-4.709980010986328 -1.764459967613220 1.510969996452332
-4.959980010986328 -2.172460079193115 1.479959964752197
-5.636980056762695 -2.843460083007813 1.455970048904419
-5.484980106353760 -2.623460054397583 1.438969969749451
-4.737979888916016 -1.904459953308106 1.456959962844849
-4.889979839324951 -1.923460006713867 1.439970016479492
-5.674980163574219 -2.998460054397583 1.407960057258606
-5.346980094909668 -2.332459926605225 1.402959942817688
-5.517980098724365 -2.783459901809692 1.386960029602051
-5.069980144500732 -2.125459909439087 1.391970038414002
-5.388979911804199 -2.480459928512573 1.379959940910339
-5.198979854583740 -2.257460117340088 1.373960018157959
-4.949979782104492 -2.040460109710693 1.366960048675537
-4.812980175018311 -1.800459980964661 1.365960001945496
-4.801980018615723 -2.011460065841675 1.350970029830933
-5.420979976654053 -2.671459913253784 1.310960054397583
-5.538980007171631 -2.894459962844849 1.280969977378845
-4.675980091094971 -1.807459950447083 1.282960057258606
-5.278979778289795 -2.395459890365601 1.264969944953919
-5.325980186462402 -2.568459987640381 1.242959976196289
-5.123980045318604 -2.243459939956665 1.241960048675537
-5.004980087280273 -2.123460054397583 1.237969994544983
-4.830979824066162 -2.104460000991821 1.236960053443909
-5.442979812622070 -2.785459995269775 1.215960025787354
-5.607979774475098 -3.009459972381592 1.206959962844849
-4.854979991912842 -1.844460010528565 1.223970055580139
-4.923980236053467 -1.997460007667542 1.186959981918335
-5.338980197906494 -2.714459896087647 1.135969996452332
-5.259980201721191 -2.481460094451904 1.133970022201538
-4.902979850769043 -2.209460020065308 1.132969975471497
-5.198979854583740 -2.324460029602051 1.127969980239868
-5.520979881286621 -2.931459903717041 1.094969987869263
-4.708980083465576 -1.843459963798523 1.120970010757446
-5.049980163574219 -2.212460041046143 1.108960032463074
-4.786980152130127 -2.013459920883179 1.101969957351685
-5.060979843139648 -2.382460117340088 1.078969955444336
-5.347980022430420 -2.782459974288940 1.003970026969910
-5.663980007171631 -2.952460050582886 0.997964978218079
-5.512979984283447 -2.819459915161133 0.994966983795166
-5.216979980468750 -2.411459922790527 1.000970005989075
-4.797979831695557 -2.138459920883179 0.994966983795166
-4.864980220794678 -1.929460048675537 0.997964978218079
-4.791979789733887 -1.793460011482239 0.980966985225677
-4.929979801177979 -2.070460081100464 0.963964998722076
-5.037980079650879 -2.204459905624390 0.958962976932526
-5.251979827880859 -2.581459999084473 0.940966010093689
-4.904980182647705 -2.270459890365601 0.945967018604279
-4.652979850769043 -1.796460032463074 0.923964023590088
-5.128980159759522 -2.319459915161133 0.906965017318726
-5.351980209350586 -2.680459976196289 0.891965985298157
-5.677979946136475 -3.010459899902344 0.861962974071503
-5.016980171203613 -2.412460088729858 0.877965986728668
-4.749979972839356 -1.912459969520569 0.888963997364044
-5.552979946136475 -2.845459938049316 0.841966986656189
-5.190979957580566 -2.474459886550903 0.849965989589691
-5.339980125427246 -2.818459987640381 0.831965029239655
-5.172979831695557 -2.673460006713867 0.825963973999023
-4.870979785919190 -2.184459924697876 0.825963973999023
-5.001979827880859 -2.264460086822510 0.817964971065521
-5.070980072021484 -2.545459985733032 0.790964007377625
-5.300980091094971 -2.650460004806519 0.744966983795166
-4.768980026245117 -2.087460041046143 0.760964989662170
-5.135980129241943 -2.379460096359253 0.748964011669159
-4.697979927062988 -1.883460044860840 0.752965986728668
-5.455979824066162 -2.903460025787354 0.718966007232666
-5.590980052947998 -2.855459928512573 0.672963976860046
-4.900979995727539 -2.313460111618042 0.685965001583099
-4.620979785919190 -1.760460019111633 0.697965979576111
-5.179979801177979 -2.567460060119629 0.666963994503021
-5.017980098724365 -2.478460073471069 0.667967021465302
-5.324979782104492 -2.827460050582886 0.655965983867645
-4.741980075836182 -1.983459949493408 0.648966014385223
-4.802979946136475 -2.159460067749023 0.622964978218079
-5.691979885101318 -2.939460039138794 0.596964001655579
-5.045979976654053 -2.612459897994995 0.600965976715088
-5.286980152130127 -2.675460100173950 0.594964981079102
-5.462979793548584 -2.794460058212280 0.569963991641998
-4.663980007171631 -1.854460000991821 0.577966988086700
-4.982979774475098 -2.382460117340088 0.550966024398804
-5.114980220794678 -2.458460092544556 0.545965015888214
-5.169980049133301 -2.599459886550903 0.512964010238647
-5.262979984283447 -2.806459903717041 0.501967012882233
-4.772980213165283 -2.058459997177124 0.511964976787567
-5.558979988098145 -2.864459991455078 0.478964000940323
-4.707980155944824 -2.196460008621216 0.475966006517410
-4.594190120697022 -1.749690055847168 0.488936990499496
-4.873980045318604 -2.434459924697876 0.452966988086700
-5.660980224609375 -2.966459989547730 0.424966990947723
-5.417980194091797 -2.814460039138794 0.423963993787766
-4.690979957580566 -1.945459961891174 0.445966988801956
-4.806980133056641 -2.303459882736206 0.424966990947723
-5.013979911804199 -2.423460006713867 0.396966993808746
-5.102980136871338 -2.544460058212280 0.387964010238647
-5.037980079650879 -2.682460069656372 0.372965008020401
-5.510980129241943 -2.966459989547730 0.364966005086899
-5.189980030059815 -2.678459882736206 0.369967013597488
-4.831980228424072 -2.103460073471069 0.371964991092682
-5.273980140686035 -2.846460103988648 0.347963005304337
-4.636980056762695 -1.847460031509399 0.346964001655579
-4.686979770660400 -2.178459882736206 0.308966010808945
-4.938980102539063 -2.549459934234619 0.292966991662979
-5.640979766845703 -3.021460056304932 0.272965997457504
-5.438980102539063 -2.864459991455078 0.273966014385223
-4.732979774475098 -1.986459970474243 0.298963993787766
-4.767980098724365 -2.348459959030151 0.281964987516403
-4.909979820251465 -2.393460035324097 0.279965996742249
-5.087979793548584 -2.608459949493408 0.251967012882233
-5.170979976654053 -2.797460079193115 0.242963999509811
-5.576980113983154 -3.121459960937500 0.182965993881226
-4.732979774475098 -1.825459957122803 0.216967001557350
-5.535980224609375 -2.956459999084473 0.182965993881226
-5.302979946136475 -2.811460018157959 0.175965994596481
-4.852980136871338 -2.248460054397583 0.185965001583099
-5.010980129241943 -2.485460042953491 0.158963993191719
-4.999979972839356 -2.742460012435913 0.133966997265816
-4.916979789733887 -2.605459928512573 0.137963995337486
-4.726980209350586 -2.339459896087647 0.136965006589890
-5.144979953765869 -2.698460102081299 0.124963998794556
-5.412980079650879 -2.893460035324097 0.116963997483253
-4.693980216979981 -2.192460060119629 0.133966997265816
-4.875979900360107 -2.381459951400757 0.111962996423244
-4.802979946136475 -1.922459959983826 0.122965000569820
-5.256979942321777 -2.809459924697876 0.032964799553156
-4.731979846954346 -1.779459953308106 0.052965201437473
-5.107979774475098 -2.844460010528565 -0.008035600185394
-5.496980190277100 -3.188460111618042 -0.023034999147058
-4.889979839324951 -2.710459947586060 -0.010034499689937
-5.353980064392090 -2.914459943771362 -0.019033400341868
-4.998980045318604 -2.542459964752197 -0.010034499689937
-5.067979812622070 -2.693459987640381 -0.018033899366856
-5.449979782104492 -3.034460067749023 -0.031034400686622
-4.691979885101318 -2.014460086822510 -0.007036100141704
-4.683979988098145 -2.196460008621216 -0.026033300906420
-4.854979991912842 -2.414459943771362 -0.033033300191164
-4.852980136871338 -2.125459909439087 -0.029035499319434
-4.789979934692383 -1.899459958076477 -0.039033800363541
-4.639979839324951 -1.862460017204285 -0.047033198177814
-4.699979782104492 -2.373460054397583 -0.063035897910595
-4.980979919433594 -2.812459945678711 -0.090036302804947
-4.696979999542236 -1.701460003852844 -0.077035799622536
-5.241980075836182 -2.886460065841675 -0.122033998370171
-5.409979820251465 -3.156460046768189 -0.150033995509148
-4.759980201721191 -2.508460044860840 -0.133036002516747
-5.342979907989502 -3.009459972381592 -0.154035001993179
-4.985980033874512 -2.667459964752197 -0.151032999157906
-4.816979885101318 -2.022459983825684 -0.138036996126175
-4.640979766845703 -2.112459897994995 -0.154035001993179
-4.939980030059815 -2.519459962844849 -0.174035996198654
-4.828979969024658 -2.193459987640381 -0.168035000562668
-4.655980110168457 -2.269459962844849 -0.181035995483398
-4.620979785919190 -1.957460045814514 -0.174035996198654
-5.360980033874512 -3.286459922790527 -0.219034001231194
-5.127980232238770 -2.843460083007813 -0.207032993435860
-4.829979896545410 -2.625459909439087 -0.213034003973007
-4.803979873657227 -2.346460103988648 -0.205034002661705
-4.869979858398438 -2.789459943771362 -0.227034002542496
-4.734980106353760 -1.772459983825684 -0.214032992720604
-5.245979785919190 -2.974459886550903 -0.263036996126175
-4.684979915618897 -2.425460100173950 -0.249033004045486
-5.320980072021484 -3.117460012435913 -0.283033013343811
-4.836979866027832 -2.475460052490234 -0.299035996198654
-4.963980197906494 -2.633460044860840 -0.305036008358002
-4.988979816436768 -2.805459976196289 -0.319036006927490
-4.580979824066162 -2.031460046768189 -0.307034999132156
-4.593979835510254 -2.208460092544556 -0.315034985542297
-5.286980152130127 -3.267460107803345 -0.351033985614777
-5.106979846954346 -2.897459983825684 -0.351033985614777
-4.804979801177979 -1.930459976196289 -0.325033009052277
-4.813980102539063 -2.702460050582886 -0.383035987615585
-4.705979824066162 -2.518460035324097 -0.379034012556076
-5.229979991912842 -3.089459896087647 -0.417035996913910
-5.185979843139648 -3.405459880828857 -0.427033990621567
-4.841979980468750 -2.852459907531738 -0.411035001277924
-4.613979816436768 -2.399460077285767 -0.411035001277924
-4.893980026245117 -2.558459997177124 -0.419034987688065
-4.813980102539063 -2.182460069656372 -0.415033012628555
-4.564980030059815 -1.915459990501404 -0.411035001277924
-4.625979900360107 -1.769459962844849 -0.410035997629166
-4.526979923248291 -2.114459991455078 -0.421034008264542
-4.777979850769043 -2.392460107803345 -0.434033989906311
-5.110980033874512 -2.994460105895996 -0.469033986330032
-4.808979988098145 -2.029459953308106 -0.446034997701645
-4.993979930877686 -2.883460044860840 -0.474034994840622
-5.213980197906494 -3.266459941864014 -0.486036002635956
-4.522980213165283 -2.280459880828857 -0.462033987045288
-4.763979911804199 -1.889459967613220 -0.495034992694855
-4.629980087280273 -2.501460075378418 -0.518033981323242
-4.473979949951172 -2.001460075378418 -0.507035970687866
-4.801980018615723 -2.510459899902344 -0.527037024497986
-5.142980098724365 -3.473459959030151 -0.559033989906311
-4.766980171203613 -2.787460088729858 -0.543034970760345
-4.411980152130127 -2.190459966659546 -0.526032984256744
-5.152979850769043 -3.116460084915161 -0.556035995483398
-4.942979812622070 -2.630460023880005 -0.556035995483398
-4.404980182647705 -2.424459934234619 -0.567034006118774
-4.797979831695557 -2.216459989547730 -0.565034985542297
-4.308979988098145 -2.296459913253784 -0.573033988475800
-5.131979942321777 -3.314460039138794 -0.605036020278931
-5.029980182647705 -3.034460067749023 -0.626035988330841
-4.781980037689209 -2.026459932327271 -0.600035011768341
-4.217979907989502 -2.184459924697876 -0.614035010337830
-4.749979972839356 -2.661459922790527 -0.635034024715424
-4.724979877471924 -2.425460100173950 -0.628035008907318
-4.903979778289795 -2.863460063934326 -0.651032984256744
-4.686979770660400 -1.778460025787354 -0.632035970687866
-4.740980148315430 -2.878459930419922 -0.670033991336823
-5.060979843139648 -3.460459947586060 -0.701035976409912
-5.056980133056641 -3.208460092544556 -0.699033975601196
-4.512979984283447 -2.473459959030151 -0.678034007549286
-4.654980182647705 -2.547460079193115 -0.683035016059875
-4.835979938507080 -2.986459970474243 -0.710035026073456
-4.732979774475098 -1.912459969520569 -0.682035028934479
-4.897980213165283 -2.647459983825684 -0.706034004688263
-4.734980106353760 -2.230459928512573 -0.700033009052277
-4.971980094909668 -3.092459917068481 -0.758036017417908
-4.928979873657227 -3.445460081100464 -0.801034986972809
-4.786980152130127 -2.562459945678711 -0.785036027431488
-4.701980113983154 -2.439460039138794 -0.783033013343811
-4.834980010986328 -2.829459905624390 -0.796033978462219
-4.764979839324951 -2.049459934234619 -0.782033979892731
-4.463980197906494 -2.552459955215454 -0.826035976409912
-4.989980220794678 -3.296459913253784 -0.848035991191864
-4.638979911804199 -1.912459969520569 -0.812035977840424
-4.727980136871338 -2.955460071563721 -0.848035991191864
-4.884980201721191 -3.013459920883179 -0.851033985614777
-4.852980136871338 -2.683459997177124 -0.844034016132355
-4.716979980468750 -2.184459924697876 -0.847036004066467
-4.910980224609375 -3.175460100173950 -0.883036017417908
-4.682980060577393 -2.656460046768189 -0.871034979820251
-4.603980064392090 -2.526459932327271 -0.875036001205444
-4.672979831695557 -2.326459884643555 -0.888037025928497
-4.396979808807373 -2.660459995269775 -0.911035001277924
-4.670979976654053 -2.822459936141968 -0.917035996913910
-4.666979789733887 -2.122459888458252 -0.991033017635345
-4.790979862213135 -3.067460060119629 -1.030030012130737
-4.810979843139648 -3.248460054397583 -1.038030028343201
-4.638979911804199 -2.691459894180298 -1.027040004730225
-4.777979850769043 -2.797460079193115 -1.037029981613159
-4.676980018615723 -2.524460077285767 -1.030030012130737
-4.671979904174805 -3.439460039138794 -1.059030055999756
-4.544980049133301 -2.051460027694702 -1.038030028343201
-4.776979923248291 -2.649460077285767 -1.065029978752136
-4.631979942321777 -2.370460033416748 -1.061030030250549
-4.504980087280273 -2.449460029602051 -1.065029978752136
-4.412980079650879 -2.591459989547730 -1.073029994964600
-4.592979907989502 -3.559459924697876 -1.108029961585999
-4.637979984283447 -2.834460020065308 -1.089030027389526
-4.584980010986328 -2.210459947586060 -1.081030011177063
-4.731979846954346 -2.964459896087647 -1.131039977073669
-4.432980060577393 -2.105459928512573 -1.134039998054504
-4.737979888916016 -3.279459953308106 -1.172029972076416
-4.745979785919190 -2.794460058212280 -1.184030055999756
-4.640979766845703 -2.536459922790527 -1.185029983520508
-4.491980075836182 -3.575459957122803 -1.224040031433106
-4.615980148315430 -3.407459974288940 -1.227030038833618
-4.442979812622070 -2.487459897994995 -1.206030011177063
-4.507979869842529 -3.296459913253784 -1.231040000915527
-4.577980041503906 -2.372459888458252 -1.205029964447022
-4.397980213165283 -3.448460102081299 -1.244040012359619
-4.469979763031006 -2.266459941864014 -1.212030053138733
-4.597980022430420 -2.786459922790527 -1.238039970397949
-4.742980003356934 -2.655459880828857 -1.244040012359619
-4.627980232238770 -2.938460111618042 -1.275030016899109
-4.650979995727539 -3.268460035324097 -1.294029951095581
-4.333980083465576 -2.249459981918335 -1.271039962768555
-4.317979812622070 -3.339459896087647 -1.321040034294128
-4.410980224609375 -3.198460102081299 -1.318029999732971
-4.361979961395264 -2.594460010528565 -1.309030055999756
-4.522980213165283 -3.432460069656372 -1.340039968490601
-4.403979778289795 -3.558459997177124 -1.351029992103577
-4.546979904174805 -3.103460073471069 -1.344030022621155
-4.530980110168457 -2.477459907531738 -1.328040003776550
-4.642980098724365 -2.582459926605225 -1.334040045738220
-4.170979976654053 -2.286459922790527 -1.328040003776550
-4.399980068206787 -3.029459953308106 -1.359030008316040
-4.711979866027832 -2.781460046768189 -1.351029992103577
-4.430980205535889 -2.368459939956665 -1.343029975891113
-4.279980182647705 -3.118459939956665 -1.367030024528503
-4.208980083465576 -3.450459957122803 -1.378029942512512
-4.181980133056641 -3.259459972381592 -1.387030005455017
-4.510980129241943 -2.650460004806519 -1.376039981842041
-4.541979789733887 -2.960459947586060 -1.403040051460266
-4.568980216979981 -3.249459981918335 -1.418040037155151
-4.081980228424072 -3.507460117340088 -1.430040001869202
-4.454979896545410 -2.789459943771362 -1.411039948463440
-4.274980068206787 -3.589459896087647 -1.439039945602417
-4.294980049133301 -2.341459989547730 -1.404039978981018
-4.063980102539063 -2.399460077285767 -1.426030039787293
-4.494979858398438 -3.366460084915161 -1.478029966354370
-4.349979877471924 -2.681459903717041 -1.470029950141907
-4.589980125427246 -2.790460109710693 -1.474040031433106
-4.705979824066162 -2.692460060119629 -1.483029961585999
-4.375979900360107 -3.455460071563721 -1.509039998054504
-4.401979923248291 -2.432460069656372 -1.479040026664734
-4.497980117797852 -2.547460079193115 -1.494040012359619
-4.161980152130127 -3.581459999084473 -1.544029951095581
-4.498980045318604 -3.032459974288940 -1.532029986381531
-4.502980232238770 -3.184459924697876 -1.546030044555664
-4.001979827880859 -2.487459897994995 -1.531030058860779
-4.154980182647705 -2.411459922790527 -1.549039959907532
-4.262979984283447 -3.480459928512573 -1.602030038833618
-4.587979793548584 -2.635459899902344 -1.583039999008179
-4.446979999542236 -3.307460069656372 -1.620040059089661
-4.288980007171631 -2.433459997177124 -1.612040042877197
-4.043980121612549 -3.585459947586060 -1.649029970169067
-4.537980079650879 -2.826459884643555 -1.632040023803711
-4.400979995727539 -2.538460016250610 -1.629029989242554
-3.928980112075806 -2.574460029602051 -1.641039967536926
-4.685979843139648 -2.740459918975830 -1.659039974212647
-4.070980072021484 -2.477459907531738 -1.665030002593994
-4.449979782104492 -3.043459892272949 -1.697029948234558
-3.923979997634888 -3.523459911346436 -1.716040015220642
-4.350979804992676 -3.328459978103638 -1.734030008316040
-4.489980220794678 -2.656460046768189 -1.714030027389526
-4.392980098724365 -3.181459903717041 -1.735030055046082
-4.474979877471924 -2.897459983825684 -1.747030019760132
-4.229979991912842 -3.413460016250610 -1.765040040016174
-4.086979866027832 -3.498460054397583 -1.770040035247803
-4.218979835510254 -2.474459886550903 -1.747030019760132
-4.586979866027832 -2.782459974288940 -1.788030028343201
-4.326980113983154 -2.569459915161133 -1.785040020942688
-4.024980068206787 -2.532459974288940 -1.800040006637573
-4.418980121612549 -3.005460023880005 -1.845029950141907
-4.271979808807373 -3.306459903717041 -1.867030024528503
-3.911979913711548 -2.642460107803345 -1.868039965629578
-4.414979934692383 -2.670459985733032 -1.875040054321289
-4.473979949951172 -2.817460060119629 -1.886029958724976
-4.327980041503906 -3.145459890365601 -1.898030042648315
-3.823980093002319 -2.786459922790527 -1.889039993286133
-4.130980014801025 -2.497459888458252 -1.912029981613159
-4.266980171203613 -2.561460018157959 -1.925040006637573
-4.000979900360107 -2.549459934234619 -1.997030019760132
-4.456980228424072 -2.794460058212280 -2.048039913177490
-4.305980205535889 -3.074460029602051 -2.069040060043335
-4.242980003356934 -2.607460021972656 -2.081029891967773
-3.909980058670044 -2.652460098266602 -2.098040103912354
-4.374979972839356 -2.930459976196289 -2.107029914855957
-4.126979827880859 -2.499459981918335 -2.097039937973023
-4.380980014801025 -2.674459934234619 -2.132040023803711
-3.997980117797852 -2.546459913253784 -2.156029939651489
-4.261980056762695 -3.067460060119629 -2.215039968490601
-4.419980049133301 -2.794460058212280 -2.220030069351196
-4.145979881286621 -2.540460109710693 -2.241029977798462
-3.905980110168457 -2.633460044860840 -2.250040054321289
-4.333980083465576 -2.942460060119629 -2.263040065765381
-4.326980113983154 -2.671459913253784 -2.297029972076416
-4.188980102539063 -3.098459959030151 -2.371030092239380
-4.197979927062988 -2.618459939956665 -2.377039909362793
-4.063980102539063 -2.544460058212280 -2.378030061721802
-4.384980201721191 -2.806459903717041 -2.394030094146729
-4.293980121612549 -2.962460041046143 -2.422029972076416
-4.095980167388916 -3.167459964752197 -2.465039968490601
-4.299980163574219 -2.686460018157959 -2.475029945373535
-4.108980178833008 -2.605459928512573 -2.510030031204224
-4.325980186462402 -2.864459991455078 -2.533030033111572
-4.214980125427246 -3.050460100173950 -2.542040109634399
-4.438980102539063 -2.747459888458252 -2.538029909133911
-4.272980213165283 -2.956459999084473 -2.645040035247803
-4.227980136871338 -2.693459987640381 -2.648030042648315
-4.122980117797852 -3.112459897994995 -2.668040037155151
-4.352980136871338 -2.784460067749023 -2.671030044555664
-3.992980003356934 -3.148459911346436 -2.769030094146729
-4.290979862213135 -2.868459939956665 -2.778039932250977
-4.187980175018311 -3.026459932327271 -2.803030014038086
-4.233980178833008 -2.937459945678711 -2.920030117034912
-3.583980083465576 -3.018460035324097 -1.432039976119995
-3.637979984283447 -2.830460071563721 -1.437039971351624
-3.536979913711548 -3.150460004806519 -1.488039970397949
-3.781980037689209 -2.666460037231445 -1.564039945602417
-3.619980096817017 -2.938460111618042 -1.579030036926270
-3.692980051040649 -2.798460006713867 -1.582030057907105
-3.552979946136475 -3.038460016250610 -1.667039990425110
-3.660979986190796 -2.897459983825684 -1.720029950141907
-3.759979963302612 -2.781460046768189 -1.723039984703064
-3.595979928970337 -2.990459918975830 -1.824030041694641
-3.695980072021484 -2.894459962844849 -1.897040009498596
-3.665980100631714 -2.943459987640381 -2.052030086517334
-3.750979900360107 -2.812459945678711 -2.058029890060425
-3.567980051040649 -3.059459924697876 -2.072030067443848
-3.720979928970337 -2.904459953308106 -2.188040018081665
-3.815979957580566 -2.785459995269775 -2.198029994964600
-3.595979928970337 -3.006459951400757 -2.210040092468262
-3.657979965209961 -2.910459995269775 -2.329030036926270
-3.769979953765869 -2.806459903717041 -2.338030099868774
