ply
format ascii 1.0
element vertex 295
property double x
property double y
property double z
end_header
-1.355980038642883 -5.903460025787354 -9.935040473937988
-1.355980038642883 -5.903460025787354 -9.935040473937988
-1.276980042457581 -6.042459964752197 -9.968029975891113
-1.241979956626892 -6.203460216522217 -10.012999534606934
-1.631979942321777 -5.557459831237793 -10.000000000000000
-1.774979948997498 -5.508460044860840 -10.019000053405762
-1.489979982376099 -5.621459960937500 -10.036000251770020
-1.149979948997498 -6.080460071563721 -10.053999900817871
-1.324980020523071 -5.839459896087647 -10.074000358581543
-1.190979957580566 -6.321459770202637 -10.097999572753906
-1.252979993820190 -5.981460094451904 -10.107999801635742
-1.535979986190796 -5.485459804534912 -10.093999862670898
-1.016980051994324 -6.353459835052490 -10.142000198364258
-1.890980005264282 -5.439459800720215 -10.112999916076660
-1.693979978561401 -5.465459823608398 -10.144000053405762
-1.189980030059815 -5.243460178375244 -10.149000167846680
-1.130980014801025 -6.416460037231445 -10.218000411987305
-1.089980006217957 -6.592460155487061 -10.234000205993652
-1.125980019569397 -6.257460117340088 -10.225000381469727
-1.139979958534241 -6.107460021972656 -10.225000381469727
-1.200979948043823 -5.865459918975830 -10.218000411987305
-1.329980015754700 -5.665460109710693 -10.218999862670898
-0.874981999397278 -5.693459987640381 -10.222999572753906
-1.035979986190796 -5.382460117340088 -10.225000381469727
-1.446979999542236 -5.504459857940674 -10.227999687194824
-1.568979978561401 -5.417459964752197 -10.229999542236328
-1.771980047225952 -5.372459888458252 -10.234000205993652
-1.273980021476746 -5.065460205078125 -10.225999832153320
-1.943979978561401 -5.371459960937500 -10.236000061035156
-1.127979993820190 -5.130459785461426 -10.234000205993652
-0.938982009887695 -5.537459850311279 -10.248000144958496
-1.389979958534241 -5.197460174560547 -10.237000465393066
-1.170979976654053 -5.703460216522217 -10.262999534606934
-1.091979980468750 -5.972459793090820 -10.277000427246094
-1.087980031967163 -5.555459976196289 -10.265000343322754
-1.253980040550232 -5.545460224151611 -10.265000343322754
-0.988981008529663 -6.695459842681885 -10.303000450134277
-1.173979997634888 -5.336460113525391 -10.265000343322754
-1.014979958534241 -5.696459770202637 -10.279999732971191
-0.865980029106140 -5.910459995269775 -10.298000335693359
-0.754984021186829 -5.758460044860840 -10.296999931335449
-1.333979964256287 -5.382460117340088 -10.286000251770020
-1.736979961395264 -5.159460067749023 -10.281000137329102
-1.009979963302612 -5.843460083007813 -10.305999755859375
-1.026980042457581 -6.182459831237793 -10.317000389099121
-1.041980028152466 -6.356460094451904 -10.326999664306641
-1.910979986190796 -5.129459857940674 -10.288999557495117
-1.428979992866516 -5.063459873199463 -10.293000221252441
-1.254979968070984 -5.208459854125977 -10.298000335693359
-1.561980009078980 -5.160459995269775 -10.298999786376953
-1.478979945182800 -5.324460029602051 -10.305999755859375
-0.853982985019684 -6.132460117340088 -10.336000442504883
-1.644979953765869 -5.297460079193115 -10.310000419616699
-0.975979983806610 -6.039460182189941 -10.342000007629395
-1.007979989051819 -6.541460037231445 -10.364000320434570
-1.826979994773865 -5.277460098266602 -10.333999633789062
-2.036979913711548 -5.294459819793701 -10.340000152587891
-0.756982028484344 -6.017459869384766 -10.380000114440918
-1.792979955673218 -4.993460178375244 -10.352000236511230
-2.053980112075806 -5.144460201263428 -10.357000350952148
-1.300979971885681 -4.990459918975830 -10.354999542236328
-1.998980045318604 -5.002460002899170 -10.354999542236328
-0.799982011318207 -6.472459793090820 -10.404999732971191
-0.910982012748718 -6.857460021972656 -10.420000076293945
-1.626979947090149 -4.929460048675537 -10.362000465393066
-0.911980986595154 -6.262460231781006 -10.409999847412109
-1.443979978561401 -4.925459861755371 -10.371999740600586
-0.940980970859528 -6.409460067749023 -10.421999931335449
-0.930981993675232 -6.697460174560547 -10.444999694824219
-1.887979984283447 -4.884459972381592 -10.387999534606934
-0.655981004238129 -6.470459938049316 -10.454999923706055
-0.756982028484344 -6.182459831237793 -10.446000099182129
-1.744979977607727 -4.841460227966309 -10.402999877929687
-1.654979944229126 -5.127460002899170 -10.416000366210937
-1.935979962348938 -5.203460216522217 -10.428000450134277
-1.535979986190796 -5.029459953308106 -10.430999755859375
-2.039979934692383 -4.879459857940674 -10.430000305175781
-0.894982993602753 -6.554460048675537 -10.486000061035156
-0.771982014179230 -6.332459926605225 -10.482000350952148
-0.632982015609741 -6.255459785461426 -10.487000465393066
-1.543980002403259 -4.817460060119629 -10.451000213623047
-2.108979940414429 -5.031459808349609 -10.463000297546387
-1.876979947090149 -4.723460197448731 -10.458000183105469
-1.820979952812195 -5.085460186004639 -10.470999717712402
-0.487980991601944 -6.525459766387940 -10.522000312805176
-1.722980022430420 -4.690460205078125 -10.467000007629395
-0.868982017040253 -6.950459957122803 -10.541000366210937
-2.117980003356934 -5.180459976196289 -10.486000061035156
-0.555981993675232 -6.393459796905518 -10.536000251770020
-0.700982987880707 -6.710460186004639 -10.553000450134277
-1.886980056762695 -4.573460102081299 -10.487000465393066
-0.757982015609741 -6.538459777832031 -10.552000045776367
-0.509980976581573 -6.693459987640381 -10.559000015258789
-1.891980051994324 -4.197460174560547 -10.487000465393066
-2.021980047225952 -4.691460132598877 -10.503000259399414
-1.988980054855347 -4.332459926605225 -10.496999740600586
-0.849981009960175 -6.715459823608398 -10.576000213623047
-1.741979956626892 -4.941460132598877 -10.520999908447266
-1.842980027198792 -4.429460048675537 -10.512999534606934
-1.988980054855347 -5.114459991455078 -10.534999847412109
-2.006979942321777 -4.479459762573242 -10.520000457763672
-2.040980100631714 -4.149459838867188 -10.515000343322754
-1.571979999542236 -4.689459800720215 -10.534000396728516
-1.662979960441589 -4.816460132598877 -10.543000221252441
-0.605980992317200 -6.573460102081299 -10.607000350952148
-2.187979936599731 -4.732460021972656 -10.550000190734863
-2.160979986190796 -4.881460189819336 -10.555000305175781
-1.890980005264282 -4.979459762573242 -10.569000244140625
-2.138979911804199 -4.570459842681885 -10.560999870300293
-0.825982987880707 -6.856460094451904 -10.647999763488770
-2.112979888916016 -4.379459857940674 -10.571000099182129
-0.838982999324799 -7.054460048675537 -10.661000251770020
-2.164979934692383 -5.062459945678711 -10.602999687194824
-0.676980972290039 -6.854459762573242 -10.664999961853027
-1.794980049133301 -4.292459964752197 -10.593000411987305
-1.742980003356934 -4.505459785461426 -10.612999916076660
-0.603982985019684 -6.712460041046143 -10.687999725341797
-1.885980010032654 -4.843460083007813 -10.628999710083008
-2.023979902267456 -5.006460189819336 -10.633999824523926
-0.455980002880096 -6.862460136413574 -10.696999549865723
-2.140980005264282 -4.234459877014160 -10.616999626159668
-2.276979923248291 -4.530459880828857 -10.633999824523926
-2.110980033874512 -4.036459922790527 -10.619999885559082
-1.826979994773865 -4.656459808349609 -10.654999732971191
-1.885980010032654 -4.182459831237793 -10.642999649047852
-1.959980010986328 -4.039460182189941 -10.640999794006348
-2.233979940414429 -4.385459899902344 -10.656999588012695
-0.762983024120331 -6.965459823608398 -10.760999679565430
-2.195980072021484 -4.821459770202637 -10.692999839782715
-2.232980012893677 -4.676459789276123 -10.689999580383301
-1.870980024337769 -4.415460109710693 -10.692999839782715
-2.057980060577393 -3.907459974288940 -10.682000160217285
-2.211980104446411 -4.123459815979004 -10.689000129699707
-2.158979892730713 -4.964459896087647 -10.718999862670898
-0.765981018543243 -7.111460208892822 -10.789999961853027
-2.022979974746704 -4.867459774017334 -10.723999977111816
-1.922979950904846 -4.558460235595703 -10.722000122070313
-0.572979986667633 -6.866459846496582 -10.798000335693359
-0.362980991601944 -6.917459964752197 -10.803000450134277
-0.504984021186829 -6.998459815979004 -10.821999549865723
-2.370980024337769 -4.452459812164307 -10.741000175476074
-2.313980102539063 -4.244460105895996 -10.737000465393066
-1.969980001449585 -4.255459785461426 -10.763999938964844
-2.223979949951172 -3.990459918975830 -10.756999969482422
-2.444979906082153 -4.312459945678711 -10.779000282287598
-2.033979892730713 -4.674459934234619 -10.793000221252441
-0.658982992172241 -6.974460124969482 -10.866999626159668
-2.041980028152466 -4.480460166931152 -10.807999610900879
-2.135979890823364 -4.836460113525391 -10.829000473022461
-2.318979978561401 -4.588459968566895 -10.829000473022461
-2.024980068206787 -4.112460136413574 -10.817000389099121
-2.377979993820190 -4.095459938049316 -10.817000389099121
-0.398981004953384 -7.030459880828857 -10.923000335693359
-0.768983006477356 -7.245460033416748 -10.942000389099121
-2.165980100631714 -3.863460063934326 -10.835000038146973
-2.087980031967163 -4.309460163116455 -10.848999977111816
-0.703980982303619 -7.105460166931152 -10.951999664306641
-2.537980079650879 -4.190460205078125 -10.866999626159668
-2.147979974746704 -4.627460002899170 -10.885000228881836
-0.565980970859528 -7.044459819793701 -10.963000297546387
-2.329979896545410 -3.950459957122803 -10.866000175476074
-2.449980020523071 -4.494460105895996 -10.883000373840332
-2.548979997634888 -4.373459815979004 -10.895000457763672
-2.186980009078980 -4.466460227966309 -10.899000167846680
-2.083980083465576 -3.983459949493408 -10.902999877929688
-2.491980075836182 -4.053460121154785 -10.909000396728516
-0.472981989383698 -7.150459766387940 -11.012000083923340
-2.145979881286621 -4.134459972381592 -10.918999671936035
-2.269979953765869 -4.693459987640381 -10.937999725341797
-2.676980018615723 -4.295460224151611 -10.934000015258789
-2.659980058670044 -4.121459960937500 -10.935000419616699
-2.209980010986328 -4.285459995269775 -10.942999839782715
-2.397979974746704 -4.613460063934326 -10.958000183105469
-2.796979904174805 -4.178460121154785 -10.958999633789063
-2.313980102539063 -4.424459934234619 -10.968999862670898
-2.993979930877686 -4.199460029602051 -10.973999977111816
-2.583980083465576 -4.537459850311279 -10.986000061035156
-0.614979982376099 -7.152460098266602 -11.100000381469727
-0.745980978012085 -7.254459857940674 -11.102999687194824
-2.468980073928833 -4.430459976196289 -11.015999794006348
-2.405980110168457 -3.898459911346436 -11.000000000000000
-2.200979948043823 -4.007460117340088 -11.005000114440918
-2.837980031967163 -4.331459999084473 -11.015000343322754
-2.706979990005493 -4.423460006713867 -11.019000053405762
-2.265980005264282 -3.841459989547730 -11.003000259399414
-2.377979993820190 -4.299459934234619 -11.020000457763672
-2.558979988098145 -3.923460006713867 -11.008999824523926
-2.729979991912842 -4.012460231781006 -11.013999938964844
-0.399980008602142 -7.233459949493408 -11.125000000000000
-2.907979965209961 -4.049459934234619 -11.027999877929688
-2.346980094909668 -4.150459766387940 -11.036999702453613
-2.595979928970337 -4.317460060119629 -11.059000015258789
-2.485980033874512 -4.186460018157959 -11.074999809265137
-2.728980064392090 -4.239459991455078 -11.079000473022461
-2.889980077743530 -4.189459800720215 -11.079999923706055
-2.320980072021484 -3.982460021972656 -11.093000411987305
-3.039979934692383 -4.083459854125977 -11.095000267028809
-2.476979970932007 -3.800460100173950 -11.100999832153320
-2.663980007171631 -3.854460000991821 -11.102999687194824
-2.460979938507080 -4.045460224151611 -11.116999626159668
-2.614979982376099 -4.120460033416748 -11.119000434875488
-2.817980051040649 -3.888459920883179 -11.135999679565430
-2.812979936599731 -4.076459884643555 -11.149000167846680
-2.947979927062988 -3.976459980010986 -11.152000427246094
-0.712979972362518 -7.269460201263428 -11.263999938964844
-0.552980005741119 -7.204460144042969 -11.265999794006348
-2.663980007171631 -3.708460092544556 -11.166000366210938
-0.391981005668640 -7.217460155487061 -11.284000396728516
-2.683979988098145 -3.996459960937500 -11.180999755859375
-2.367980003356934 -3.815459966659546 -11.203000068664551
-2.554980039596558 -3.865459918975830 -11.215999603271484
-0.485983014106750 -7.327459812164307 -11.336999893188477
-3.081979990005493 -4.043459892272949 -11.241000175476074
-2.700979948043823 -3.853460073471069 -11.251999855041504
-2.504980087280273 -3.731460094451904 -11.258000373840332
-0.303983002901077 -7.283460140228272 -11.383999824523926
-2.823980093002319 -3.692460060119629 -11.270999908447266
-0.637983024120331 -7.302460193634033 -11.390000343322754
-3.192980051040649 -3.941459894180298 -11.284000396728516
-2.981980085372925 -3.907459974288940 -11.284999847412109
-2.843980073928833 -3.848459959030151 -11.291999816894531
-2.596980094909668 -3.296459913253784 -11.291999816894531
-2.997980117797852 -3.725460052490234 -11.305000305175781
-2.543979883193970 -3.572459936141968 -11.302000045776367
-2.798979997634888 -3.547460079193115 -11.300999641418457
-3.280980110168457 -3.802459955215454 -11.319000244140625
-2.738980054855347 -3.352459907531738 -11.310999870300293
-2.681979894638062 -3.657459974288940 -11.324000358581543
-3.097980022430420 -3.830460071563721 -11.336999893188477
-0.498982995748520 -7.273459911346436 -11.479999542236328
-2.670979976654053 -3.475460052490234 -11.359000205993652
-2.849980115890503 -3.196460008621216 -11.357000350952148
-3.388979911804199 -3.596460103988648 -11.375000000000000
-2.874979972839356 -3.353460073471069 -11.376000404357910
-0.367982000112534 -7.343460083007813 -11.505000114440918
-3.104979991912842 -3.639460086822510 -11.390999794006348
-3.260979890823364 -3.671459913253784 -11.397000312805176
-2.947979927062988 -3.491460084915161 -11.411000251770020
-2.997980117797852 -3.119460105895996 -11.402999877929688
-2.876980066299439 -3.645459890365601 -11.420000076293945
-0.598981022834778 -7.371459960937500 -11.539999961853027
-3.274980068206787 -3.535459995269775 -11.477000236511230
-3.049979925155640 -3.338459968566895 -11.484000205993652
-2.923979997634888 -3.256459951400757 -11.482000350952148
-3.106980085372925 -3.187459945678711 -11.480999946594238
-3.016979932785034 -3.603460073471069 -11.506999969482422
-0.402981996536255 -7.325459957122803 -11.649000167846680
-3.493979930877686 -3.550460100173950 -11.531000137329102
-3.137979984283447 -3.509459972381592 -11.534000396728516
-0.530981004238129 -7.393459796905518 -11.682999610900879
-2.967979907989502 -3.445460081100464 -11.557000160217285
-3.181979894638062 -3.092459917068481 -11.586999893188477
-3.225980043411255 -3.442460060119629 -11.642999649047852
-3.399980068206787 -3.447459936141968 -11.649999618530273
-3.076980113983154 -3.407459974288940 -11.656000137329102
-3.168979883193970 -3.239459991455078 -11.663000106811523
-3.541980028152466 -3.501460075378418 -11.678000450134277
-0.482980012893677 -7.411459922790527 -11.824999809265137
-3.303980112075806 -3.341459989547730 -11.723999977111816
-0.344980001449585 -7.356460094451904 -11.854999542236328
-3.211980104446411 -3.096460103988648 -11.739000320434570
-3.461980104446411 -3.406460046768189 -11.781999588012695
-3.288980007171631 -3.210459947586060 -11.814999580383301
-0.433981001377106 -7.410459995269775 -11.967000007629395
-3.188980102539063 -2.966459989547730 -11.824999809265137
-3.621979951858521 -3.468460083007813 -11.857000350952148
-3.395979881286621 -3.312459945678711 -11.890000343322754
-3.550980091094971 -3.332459926605225 -11.902000427246094
-3.321979999542236 -3.078459978103638 -11.914999961853027
-3.242980003356934 -2.962460041046143 -11.963999748229980
-3.498980045318604 -3.156460046768189 -11.970999717712402
-0.353983014822006 -7.373459815979004 -12.121999740600586
-3.621979951858521 -3.403460025787354 -12.013999938964844
-3.362979888916016 -3.209460020065308 -12.015000343322754
-3.607980012893677 -3.244460105895996 -12.036999702453613
-3.407979965209961 -3.032459974288940 -12.041999816894531
-3.493979930877686 -3.192460060119629 -12.123000144958496
-3.321979999542236 -2.923460006713867 -12.125000000000000
-3.382980108261108 -2.781460046768189 -12.121999740600586
-3.681979894638062 -3.343460083007813 -12.140999794006348
-3.636980056762695 -3.138459920883179 -12.138999938964844
-3.526979923248291 -3.037460088729858 -12.140000343322754
-3.480979919433594 -2.887459993362427 -12.163999557495117
-3.749979972839356 -3.224459886550903 -12.215999603271484
-3.863980054855347 -3.086460113525391 -12.269000053405762
-3.565979957580566 -2.805459976196289 -12.262999534606934
-3.576980113983154 -3.077460050582886 -12.274000167846680
-3.558979988098145 -2.647459983825684 -12.298000335693359
-3.716979980468750 -3.061460018157959 -12.321000099182129
-3.665980100631714 -2.921459913253784 -12.321000099182129
-3.510979890823364 -2.930459976196289 -12.324000358581543
-3.803980112075806 -2.952460050582886 -12.392999649047852
-3.684979915618897 -2.784460067749023 -12.388999938964844
-3.841979980468750 -2.805459976196289 -12.409999847412109
-3.736979961395264 -2.906460046768189 -12.519000053405762
