ply
format ascii 1.0
element vertex 470
property double x
property double y
property double z
end_header
-3.928980112075806 -2.401459932327271 -11.250000000000000
-4.087979793548584 -2.425460100173950 -11.092000007629395
-3.944979906082153 -2.382460117340088 -11.102000236511230
-3.983979940414429 -2.382460117340088 -10.958000183105469
-3.766979932785034 -2.476459980010986 -11.041000366210937
-3.956979990005493 -2.790460109710693 -11.107999801635742
-3.799979925155640 -2.381459951400757 -11.166999816894531
-3.820980072021484 -2.341459989547730 -11.008999824523926
-3.715980052947998 -2.526459932327271 -11.173999786376953
-3.703979969024658 -2.619460105895996 -11.052000045776367
-4.150979995727539 -2.786459922790527 -11.038000106811523
-4.150979995727539 -2.374459981918335 -10.864000320434570
-3.739979982376099 -2.534460067749023 -10.836000442504883
-3.874979972839356 -2.284460067749023 -10.878000259399414
-3.979979991912842 -2.396460056304932 -10.722000122070313
-3.835979938507080 -2.436460018157959 -10.668999671936035
-3.742980003356934 -2.577460050582886 -10.628000259399414
-3.955980062484741 -2.427459955215454 -10.529000282287598
-3.817980051040649 -2.499459981918335 -10.503999710083008
-3.776979923248291 -2.392460107803345 -10.800999641418457
-4.195980072021484 -2.512459993362427 -10.663000106811523
-4.034979820251465 -2.287460088729858 -10.815999984741211
-3.911979913711548 -2.223459959030151 -10.743000030517578
-4.232979774475098 -2.425460100173950 -10.541000366210937
-4.340980052947998 -2.469460010528565 -10.442000389099121
-4.476980209350586 -2.528460025787354 -10.498999595642090
-4.494979858398438 -2.677459955215454 -10.506999969482422
-4.438980102539063 -2.333460092544556 -10.510000228881836
-4.345980167388916 -2.591459989547730 -10.572999954223633
-4.401979923248291 -2.448460102081299 -10.607000350952148
-4.326980113983154 -2.290460109710693 -10.619999885559082
-4.422979831695557 -2.694459915161133 -10.647999763488770
-4.089980125427246 -2.163460016250610 -10.684000015258789
-4.280980110168457 -2.818459987640381 -10.729000091552734
-4.320980072021484 -2.586460113525391 -10.729999542236328
-4.285980224609375 -2.403460025787354 -10.736000061035156
-3.720979928970337 -2.273459911346436 -10.871000289916992
-4.079979896545410 -2.920459985733032 -10.895000457763672
-4.125979900360107 -2.934459924697876 -11.057000160217285
-3.682980060577393 -2.302459955215454 -11.067999839782715
-7.620979785919190 0.189539998769760 -8.092040061950684
-7.716979980468750 0.269542008638382 -8.008040428161621
-8.038979530334473 0.350540995597839 -8.030030250549316
-7.483980178833008 0.052540700882673 -8.065030097961426
-7.847980022430420 0.268539994955063 -8.089030265808106
-7.620979785919190 0.189539998769760 -8.092040061950684
-7.332980155944824 -0.163459002971649 -8.177029609680176
-7.399980068206787 -0.018458500504494 -8.183030128479004
-7.504980087280273 0.145540997385979 -8.182040214538574
-8.080980300903320 0.334540009498596 -8.184029579162598
-7.714980125427246 0.269542008638382 -8.195030212402344
-7.291979789733887 -0.303460001945496 -8.221030235290527
-7.930980205535889 0.318540990352631 -8.208029747009277
-7.148980140686035 -0.228459000587463 -8.229029655456543
-8.204979896545410 0.425540000200272 -8.211030006408691
-8.047980308532715 0.481541991233826 -8.230039596557617
-8.352979660034180 0.406540989875793 -8.237039566040039
-7.894979953765869 0.462541013956070 -8.245039939880371
-7.252980232238770 -0.431459009647369 -8.301030158996582
-7.434979915618897 0.075541399419308 -8.301030158996582
-7.758979797363281 0.416541010141373 -8.296039581298828
-7.620979785919190 0.231542006134987 -8.307040214538574
-7.257979869842529 -0.188458994030952 -8.328040122985840
-7.053979873657227 -0.351458996534348 -8.341030120849609
-7.315979957580566 -0.039458401501179 -8.345040321350098
-8.003979682922363 0.376540005207062 -8.333029747009277
-8.251979827880859 0.528540015220642 -8.328040122985840
-7.069980144500732 -0.182459995150566 -8.353030204772949
-8.519980430603027 0.388541013002396 -8.338040351867676
-8.106980323791504 0.580541014671326 -8.345040321350098
-8.416979789733887 0.501540005207062 -8.347029685974121
-7.965980052947998 0.525539994239807 -8.361029624938965
-7.156980037689209 -0.487459987401962 -8.405030250549316
-7.188980102539063 -0.324459999799728 -8.401040077209473
-6.984980106353760 -0.463459998369217 -8.411040306091309
-8.154979705810547 0.423541009426117 -8.389030456542969
-7.761980056762695 0.264541000127792 -8.402029991149902
-7.646979808807373 0.407539993524551 -8.398030281066895
-7.498980045318604 0.325540989637375 -8.403030395507813
-6.959980010986328 -0.263458997011185 -8.426030158996582
-7.509980201721191 0.177541002631187 -8.421039581298828
-8.301980018615723 0.415542006492615 -8.415040016174316
-7.197979927062988 -0.112460002303123 -8.447030067443848
-7.382979869842529 0.088540002703667 -8.442040443420410
-8.638979911804199 0.432539999485016 -8.431030273437500
-8.211979866027832 0.659541010856628 -8.427029609680176
-8.522979736328125 0.551540970802307 -8.446040153503418
-6.857979774475098 -0.364459007978439 -8.479029655456543
-7.838980197906494 0.538541018962860 -8.451029777526856
-8.337980270385742 0.581539988517761 -8.450039863586426
-7.903979778289795 0.385540992021561 -8.462030410766602
-7.627980232238770 0.268539994955063 -8.467040061950684
-6.914979934692383 -0.555459022521973 -8.513030052185059
-6.901979923248291 -0.135459005832672 -8.501040458679199
-7.092979907989502 -0.005459900014102 -8.497030258178711
-7.242980003356934 0.021540500223637 -8.498040199279785
-6.127980232238770 -0.065459400415421 -8.504030227661133
-6.770979881286621 -0.505460023880005 -8.520030021667481
-8.432979583740234 0.440540999174118 -8.492030143737793
-7.079979896545410 -0.365458995103836 -8.520030021667481
-7.092979907989502 -0.210460007190704 -8.519040107727051
-8.062979698181152 0.671540021896362 -8.492030143737793
-8.040980339050293 0.479541003704071 -8.502039909362793
-6.000979900360107 -0.158460006117821 -8.527029991149902
-7.066979885101318 -0.534458994865417 -8.537030220031738
-7.747980117797852 0.385540992021561 -8.511030197143555
-6.703979969024658 -0.329459011554718 -8.544030189514160
-6.236979961395264 0.036539901047945 -8.534029960632324
-6.760980129241943 -0.168459996581078 -8.542030334472656
-8.749979972839356 0.497539997100830 -8.518030166625977
-7.626979827880859 0.486541002988815 -8.523030281066895
-7.407979965209961 0.257541000843048 -8.536040306091309
-8.310979843139648 0.721540987491608 -8.521030426025391
-7.286980152130127 0.164539992809296 -8.543040275573731
-8.217980384826660 0.493541002273560 -8.531029701232910
-6.226980209350586 -0.220459997653961 -8.561039924621582
-7.408979892730713 0.488541007041931 -8.538029670715332
-8.648980140686035 0.606541991233826 -8.538029670715332
-8.446980476379395 0.666540980339050 -8.545029640197754
-7.537980079650879 0.366540014743805 -8.557040214538574
-6.616980075836182 -0.445459008216858 -8.584030151367188
-6.339980125427246 -0.075459599494934 -8.578040122985840
-6.647980213165283 -0.599460005760193 -8.608030319213867
-6.976980209350586 -0.276459991931915 -8.602040290832520
-6.966979980468750 0.086541101336479 -8.591030120849609
-6.075980186462402 -0.280460000038147 -8.606040000915527
-6.578979969024658 -0.236459001898766 -8.604029655456543
-6.373980045318604 0.075541399419308 -8.595040321350098
-7.019979953765869 -0.092459797859192 -8.600029945373535
-6.504980087280273 -0.555459022521973 -8.616040229797363
-7.156980037689209 0.111541002988815 -8.596030235290527
-6.839980125427246 -0.029460100457072 -8.602040290832520
-7.769979953765869 0.516541004180908 -8.585040092468262
-8.354980468750000 0.525539994239807 -8.587030410766602
-5.927979946136475 -0.260459005832672 -8.617030143737793
-7.939980030059815 0.556540012359619 -8.588040351867676
-8.599980354309082 0.463539987802505 -8.591030120849609
-6.516980171203613 0.015540000051260 -8.612039566040039
-7.539979934692383 0.695540010929108 -8.589030265808106
-6.844979763031006 -0.634459972381592 -8.632029533386231
-6.196979999542236 -0.385459005832672 -8.626040458679199
-7.184979915618897 0.418540000915527 -8.600029945373535
-6.619979858398438 -0.093459196388721 -8.617030143737793
-6.356979846954346 -0.268458008766174 -8.625029563903809
-6.456980228424072 -0.155460000038147 -8.629030227661133
-7.436979770660400 0.832540988922119 -8.597029685974121
-7.292980194091797 0.771540999412537 -8.601030349731445
-8.792980194091797 0.621541023254395 -8.604029655456543
-8.151980400085449 0.751540005207062 -8.605039596557617
-6.483980178833008 -0.373459994792938 -8.644040107727051
-8.102979660034180 0.596540987491608 -8.615030288696289
-8.873979568481445 0.494540005922318 -8.618029594421387
-7.332980155944824 0.393539994955063 -8.625029563903809
-6.344979763031006 -0.427459001541138 -8.657039642333984
-8.566980361938477 0.726540029048920 -8.618029594421387
-6.154980182647705 -0.028458699584007 -8.647040367126465
-7.518980026245117 0.553539991378784 -8.628029823303223
-6.986979961395264 -0.552459001541138 -8.664039611816406
-7.908979892730713 0.806540012359619 -8.621029853820801
-6.710979938507080 0.077540300786495 -8.646030426025391
-6.921979904174805 -0.402458995580673 -8.661040306091309
-5.956980228424072 -0.408459991216660 -8.664039611816406
-7.173980236053467 0.262540012598038 -8.644040107727051
-6.089980125427246 -0.488460004329681 -8.670029640197754
-7.659979820251465 0.609539985656738 -8.633040428161621
-6.884980201721191 -0.172460004687309 -8.661040306091309
-6.569980144500732 0.169541001319885 -8.652029991149902
-7.833980083465576 0.650539994239807 -8.635029792785645
-8.119979858398438 0.894541978836060 -8.630040168762207
-8.363980293273926 0.828540027141571 -8.632029533386231
-6.376979827880859 -0.593459010124207 -8.681030273437500
-7.723979949951172 0.766541004180908 -8.639030456542969
-8.505979537963867 0.566541016101837 -8.645030021667481
-7.398980140686035 0.674539983272552 -8.645030021667481
-8.263979911804199 0.963540017604828 -8.636030197143555
-7.301980018615723 0.543540000915527 -8.656029701232910
-7.199979782104492 0.669541001319885 -8.656029701232910
-7.042980194091797 0.188539996743202 -8.675040245056152
-6.223979949951172 -0.567460000514984 -8.701029777526856
-6.724979877471924 -0.684458971023560 -8.705030441284180
-6.423980236053467 0.205540999770164 -8.680029869079590
-8.261980056762695 0.649541020393372 -8.663029670715332
-7.580979824066162 0.827539980411530 -8.660030364990234
-8.718979835510254 0.511539995670319 -8.672039985656738
-8.012980461120606 0.705541014671326 -8.670029640197754
-8.710980415344238 0.752541005611420 -8.668040275573731
-6.038980007171631 -0.147459998726845 -8.706040382385254
-6.289979934692383 -0.724460005760193 -8.725029945373535
-8.904979705810547 0.689540028572083 -8.680029869079590
-8.171979904174805 1.084540009498596 -8.670029640197754
-6.798980236053467 -0.313459008932114 -8.718029975891113
-6.759980201721191 0.208541005849838 -8.703040122985840
-8.501979827880859 0.880540013313293 -8.681030273437500
-6.762979984283447 -0.094458699226379 -8.716030120849609
-7.076980113983154 0.377541005611420 -8.703040122985840
-6.850979804992676 0.082541398704052 -8.713040351867676
-8.992980003356934 0.569540977478027 -8.694029808044434
-6.047979831695557 -0.618458986282349 -8.744039535522461
-6.432980060577393 -0.770458996295929 -8.750029563903809
-6.283979892730713 -0.068459600210190 -8.730039596557617
-7.801980018615723 0.891541004180908 -8.698030471801758
-8.433979988098145 1.015540003776550 -8.695030212402344
-6.438980102539063 -0.026459800079465 -8.732029914855957
-8.401980400085449 0.689540028572083 -8.708029747009277
-6.904980182647705 0.230540007352829 -8.728030204772949
-6.613979816436768 0.009541399776936 -8.736029624938965
-6.665979862213135 -0.213459998369217 -8.751040458679199
-7.999979972839356 0.921540021896362 -8.714030265808106
-8.316980361938477 1.109539985656738 -8.709030151367188
-6.913980007171631 -0.640460014343262 -8.766039848327637
-5.871980190277100 -0.477459996938705 -8.766039848327637
-8.830980300903320 0.824540019035339 -8.720040321350098
-8.235980033874512 0.843541026115417 -8.721030235290527
-8.638979911804199 0.627541005611420 -8.730039596557617
-6.829979896545410 -0.500459015369415 -8.771030426025391
-6.525979995727539 -0.152458995580673 -8.764030456542969
-6.623980045318604 0.268539994955063 -8.753029823303223
-6.191979885101318 -0.817460000514984 -8.789039611816406
-8.587980270385742 0.997539997100830 -8.734040260314941
-6.702980041503906 -0.408459991216660 -8.790040016174316
-8.721980094909668 0.932539999485016 -8.748040199279785
-8.797980308532715 0.612540006637573 -8.760029792785645
-6.379980087280273 -0.216457992792130 -8.792030334472656
-6.028979778289795 -0.752460002899170 -8.811039924621582
-6.165979862213135 -0.227459996938705 -8.796039581298828
-5.914979934692383 -0.650457978248596 -8.810040473937988
-6.576980113983154 -0.324459999799728 -8.799030303955078
-8.533980369567871 0.744539976119995 -8.765040397644043
-8.988980293273926 0.831539988517761 -8.769040107727051
-9.081979751586914 0.657540023326874 -8.776040077209473
-6.565979957580566 -0.748459994792938 -8.828040122985840
-8.384980201721191 0.894541978836060 -8.774029731750488
-8.868980407714844 0.957540988922119 -8.776040077209473
-5.908979892730713 -0.247458994388580 -8.822030067443848
-6.330979824066162 -0.831459999084473 -8.851030349731445
-6.094979763031006 -0.929459989070892 -8.861029624938965
-6.286980152130127 -0.326458990573883 -8.842040061950684
-5.813980102539063 -0.362459987401962 -8.848039627075195
-6.052979946136475 -0.309459000825882 -8.848039627075195
-6.426980018615723 -0.388458997011185 -8.856040000915527
-6.812980175018311 -0.683458983898163 -8.869039535522461
-8.618980407714844 1.168540000915527 -8.809029579162598
-6.719979763031006 -0.558458983898163 -8.867030143737793
-6.553979873657227 -0.467460006475449 -8.870039939880371
-8.611980438232422 0.864540994167328 -8.829030036926270
-8.822979927062988 1.126539945602417 -8.821040153503418
-5.888979911804199 -0.807460010051727 -8.887040138244629
-8.922980308532715 0.716539978981018 -8.836030006408691
-8.494979858398438 1.074540019035339 -8.827030181884766
-5.947979927062988 -0.946460008621216 -8.899029731750488
-9.176980018615723 0.748539984226227 -8.847029685974121
-5.799980163574219 -0.582459986209869 -8.896030426025391
-8.754980087280273 0.815541028976440 -8.848039627075195
-8.970979690551758 1.044540047645569 -8.847029685974121
-9.102979660034180 0.971540987491608 -8.850029945373535
-6.165979862213135 -0.437458992004395 -8.915040016174316
-6.325980186462402 -0.484459996223450 -8.919030189514160
-6.466979980468750 -0.800459980964661 -8.935040473937988
-9.044980049133301 1.169540047645569 -8.879030227661133
-5.809979915618897 -0.920458972454071 -8.953040122985840
-6.224979877471924 -0.910458981990814 -8.956040382385254
-5.843979835510254 -1.093459963798523 -8.963040351867676
-8.907979965209961 0.860540986061096 -8.897040367126465
-8.703980445861816 1.070539951324463 -8.891039848327637
-5.950980186462402 -0.399459004402161 -8.946040153503418
-9.055979728698731 0.815541028976440 -8.909029960632324
-6.592979907989502 -0.595459997653961 -8.958029747009277
-9.213979721069336 1.092540025711060 -8.904040336608887
-6.050980091094971 -1.018460035324097 -8.978030204772949
-5.745979785919190 -0.766460001468658 -8.974040031433106
-8.839980125427246 1.008540034294128 -8.914039611816406
-6.604979991912842 -0.750459015369415 -8.976030349731445
-9.196980476379395 0.873539984226227 -8.930029869079590
-6.443980216979981 -0.596459984779358 -8.989029884338379
-6.196979999542236 -0.565459012985229 -8.990030288696289
-8.906979560852051 1.163540005683899 -8.939040184020996
-6.051980018615723 -0.527459025382996 -9.003029823303223
-5.788980007171631 -0.370460003614426 -9.001040458679199
-5.643980026245117 -0.909458994865417 -9.021030426025391
-9.292980194091797 1.216539978981018 -8.956040382385254
-5.032979965209961 -1.087460041046143 -9.037030220031738
-9.007980346679688 0.964541018009186 -8.967040061950684
-5.690979957580566 -0.636458992958069 -9.027029991149902
-6.336979866027832 -0.847459018230438 -9.033040046691895
-5.715980052947998 -1.055459976196289 -9.043040275573731
-4.925980091094971 -1.210459947586060 -9.055029869079590
-5.959980010986328 -1.113459944725037 -9.058030128479004
-5.907979965209961 -0.521458983421326 -9.042030334472656
-5.556980133056641 -1.073459982872009 -9.060040473937988
-9.304980278015137 0.976540029048920 -8.990030288696289
-9.148980140686035 1.188539981842041 -8.998040199279785
-5.808979988098145 -1.212460041046143 -9.079030036926270
-6.324979782104492 -0.658460021018982 -9.066029548645020
-6.149980068206787 -0.958459019660950 -9.077030181884766
-9.154979705810547 1.008540034294128 -9.012040138244629
-5.443980216979981 -0.968459010124207 -9.082030296325684
-5.653979778289795 -1.189460039138794 -9.093029975891113
-5.305980205535889 -1.046460032463074 -9.090029716491699
-5.521979808807373 -0.690459012985229 -9.084030151367188
-6.485980033874512 -0.757458984851837 -9.085040092468262
-5.187980175018311 -0.937458992004395 -9.094030380249023
-5.517980098724365 -0.839460015296936 -9.091030120849609
-5.342979907989502 -0.844458997249603 -9.094030380249023
-5.169980049133301 -1.105460047721863 -9.105039596557617
-5.433979988098145 -1.148460030555725 -9.107029914855957
-9.374979972839356 1.113540053367615 -9.030030250549316
-5.993979930877686 -0.641460001468658 -9.097029685974121
-6.150979995727539 -0.677459001541138 -9.103030204772949
-5.725979804992676 -1.352460026741028 -9.126040458679199
-5.723979949951172 -0.495460003614426 -9.103030204772949
-5.086979866027832 -1.272459983825684 -9.137040138244629
-5.044980049133301 -0.961458981037140 -9.130040168762207
-5.290979862213135 -1.204460024833679 -9.150030136108398
-5.815979957580566 -0.619459986686707 -9.131030082702637
-5.389979839324951 -0.687458992004395 -9.171039581298828
-5.638979911804199 -0.635459005832672 -9.170029640197754
-5.574979782104492 -1.517459988594055 -9.204030036926270
-5.512979984283447 -1.294460058212280 -9.199040412902832
-5.863979816436768 -1.276460051536560 -9.204030036926270
-4.940979957580566 -1.325459957122803 -9.210040092468262
-5.961979866027832 -1.163460016250610 -9.205030441284180
-5.957980155944824 -0.788459002971649 -9.198030471801758
-5.778979778289795 -0.750459015369415 -9.198030471801758
-6.106979846954346 -0.783460021018982 -9.201029777526856
-5.192979812622070 -1.353459954261780 -9.221030235290527
-6.295979976654053 -0.818459987640381 -9.208029747009277
-9.456979751586914 1.048539996147156 -9.146030426025391
-5.252980232238770 -0.855458021163940 -9.215029716491699
-5.714980125427246 -1.568459987640381 -9.239029884338379
-5.342979907989502 -1.330459952354431 -9.237039566040039
-5.436979770660400 -1.459460020065308 -9.248040199279785
-5.808979988098145 -1.408460021018982 -9.248040199279785
-5.557980060577393 -0.808458983898163 -9.234040260314941
-5.454979896545410 -1.606459975242615 -9.259039878845215
-5.404980182647705 -0.829459011554718 -9.237039566040039
-6.188980102539063 -0.929459989070892 -9.240030288696289
-5.518980026245117 -1.778460025787354 -9.276040077209473
-5.071979999542236 -1.423460006713867 -9.272040367126465
-5.858980178833008 -0.891460001468658 -9.260029792785645
-5.161980152130127 -1.000460028648377 -9.268030166625977
-5.662980079650879 -0.911459982395172 -9.268030166625977
-5.530980110168457 -1.958459973335266 -9.301030158996582
-5.033979892730713 -1.081459999084473 -9.275030136108398
-6.018980026245117 -0.909458994865417 -9.272040367126465
-5.370979785919190 -1.772459983825684 -9.304039955139160
-6.097980022430420 -1.045459985733032 -9.285030364990234
-5.652979850769043 -1.865460038185120 -9.317040443420410
-5.774980068206787 -1.766459941864014 -9.316029548645020
-5.515979766845703 -0.985459029674530 -9.299030303955078
-5.323979854583740 -1.000460028648377 -9.305029869079590
-4.916979789733887 -1.174460053443909 -9.313030242919922
-5.784979820251465 -1.027459979057312 -9.309029579162598
-4.835979938507080 -1.317459940910339 -9.322030067443848
-5.832980155944824 -1.610460042953491 -9.329030036926270
-5.944980144500732 -1.052459955215454 -9.314040184020996
-5.325980186462402 -1.560459971427918 -9.335040092468262
-5.214980125427246 -1.447460055351257 -9.336030006408691
-5.957980155944824 -1.341459989547730 -9.333029747009277
-5.640979766845703 -1.064460039138794 -9.326029777526856
-6.028979778289795 -1.174460053443909 -9.338040351867676
-5.392980098724365 -1.998460054397583 -9.367030143737793
-5.263979911804199 -1.912459969520569 -9.368029594421387
-5.418980121612549 -1.129459977149963 -9.351030349731445
-5.901979923248291 -1.480460047721863 -9.362039566040039
-5.861979961395264 -1.181460022926331 -9.356040000915527
-9.633979797363281 1.151540040969849 -9.279040336608887
-5.252980232238770 -1.128460049629211 -9.359040260314941
-5.705979824066162 -1.202460050582886 -9.368029594421387
-5.289979934692383 -2.115459918975830 -9.398030281066895
-4.933979988098145 -1.444460034370422 -9.380040168762207
-5.537980079650879 -1.218459963798523 -9.374030113220215
-5.467979907989502 -1.850460052490234 -9.396030426025391
-5.750979900360107 -1.493460059165955 -9.385029792785645
-5.796979904174805 -1.320459961891174 -9.383040428161621
-5.666979789733887 -1.630460023880005 -9.394040107727051
-5.113979816436768 -1.187459945678711 -9.385029792785645
-5.639979839324951 -1.361459970474243 -9.393030166625977
-5.090980052947998 -1.531460046768189 -9.402029991149902
-5.217979907989502 -1.767459988594055 -9.414039611816406
-5.521979808807373 -1.688459992408752 -9.414039611816406
-5.554979801177979 -1.529459953308106 -9.414039611816406
-5.369979858398438 -1.266459941864014 -9.411040306091309
-5.477980136871338 -1.373460054397583 -9.423029899597168
-9.643980026245117 1.020539999008179 -9.353030204772949
-5.219979763031006 -1.279459953308106 -9.435040473937988
-4.986979961395264 -1.248460054397583 -9.442040443420410
-5.407979965209961 -1.554460048675537 -9.459030151367188
-5.311979770660400 -1.398460030555725 -9.457030296325684
-5.318980216979981 -1.972460031509399 -9.494039535522461
-5.349979877471924 -1.790459990501404 -9.490030288696289
-4.967979907989502 -1.588459968566895 -9.496029853820801
-4.846980094909668 -1.288460016250610 -9.496029853820801
-5.140979766845703 -1.661460041999817 -9.513030052185059
-4.859980106353760 -1.487460017204285 -9.509039878845215
-5.098979949951172 -1.344460010528565 -9.505040168762207
-5.293980121612549 -1.656460046768189 -9.529040336608887
-5.215980052947998 -1.491459965705872 -9.530030250549316
-5.271979808807373 -2.151459932327271 -9.558030128479004
-4.957980155944824 -1.370460033416748 -9.553039550781250
-5.097980022430420 -1.923460006713867 -9.575039863586426
-5.242980003356934 -1.854460000991821 -9.580030441284180
-5.077980041503906 -1.489459991455078 -9.591030120849609
-4.822979927062988 -1.613459944725037 -9.599040031433106
-4.742980003356934 -1.358459949493408 -9.593029975891113
-5.230979919433594 -2.008460044860840 -9.636030197143555
-4.931980133056641 -1.726459980010986 -9.644040107727051
-5.141980171203613 -1.771460056304932 -9.657039642333984
-4.648980140686035 -1.460459947586060 -9.651040077209473
-4.954979896545410 -1.542459964752197 -9.665040016174316
-5.067979812622070 -1.642459988594055 -9.669030189514160
-4.792980194091797 -1.484459996223450 -9.678039550781250
-5.012979984283447 -2.021460056304932 -9.698030471801758
-4.589980125427246 -1.638460040092468 -9.690030097961426
-4.432980060577393 -1.795459985733032 -9.696040153503418
-5.220980167388916 -2.179460048675537 -9.715029716491699
-5.114980220794678 -1.910459995269775 -9.734040260314941
-4.685979843139648 -1.771460056304932 -9.733030319213867
-4.823979854583740 -1.829460024833679 -9.766039848327637
-5.024980068206787 -1.792459964752197 -9.767029762268066
-4.721980094909668 -1.599460005760193 -9.762040138244629
-4.876979827880859 -1.655460000038147 -9.767029762268066
-5.141980171203613 -2.061460018157959 -9.779040336608887
-4.327980041503906 -1.932459950447083 -9.788029670715332
-4.917980194091797 -2.085459947586060 -9.799030303955078
-4.545979976654053 -1.821460008621216 -9.796039581298828
-5.152979850769043 -2.242460012435913 -9.831040382385254
-5.029980182647705 -2.004460096359253 -9.859040260314941
-4.925980091094971 -1.866459965705872 -9.873040199279785
-4.784979820251465 -2.111459970474243 -9.900030136108398
-4.424980163574219 -1.860460042953491 -9.895030021667481
-5.057980060577393 -2.153460025787354 -9.907039642333984
-4.913980007171631 -2.256459951400757 -9.916029930114746
-4.746980190277100 -1.787459969520569 -9.902029991149902
-4.535980224609375 -1.971459984779358 -9.910030364990234
-4.392980098724365 -2.020459890365601 -9.913029670715332
-4.691979885101318 -1.960459947586060 -9.914039611816406
-5.050980091094971 -2.308459997177124 -9.941029548645020
-4.604979991912842 -1.842460036277771 -9.954030036926270
-4.932980060577393 -2.092459917068481 -9.966030120849609
-4.829979896545410 -1.948459982872009 -9.969030380249023
-4.709980010986328 -2.226459980010986 -9.989029884338379
-4.939980030059815 -2.374459981918335 -10.015000343322754
-4.639979839324951 -2.094460010528565 -10.008999824523926
-4.299980163574219 -1.976459980010986 -10.020999908447266
-4.827980041503906 -2.488460063934326 -10.036000251770020
-4.850979804992676 -2.237459897994995 -10.053000450134277
-4.793980121612549 -2.077460050582886 -10.053000450134277
-4.512979984283447 -1.987460017204285 -10.062999725341797
-4.688980102539063 -1.961459994316101 -10.062999725341797
-4.401979923248291 -2.095459938049316 -10.074000358581543
-4.694980144500732 -2.533459901809692 -10.107000350952148
-4.772980213165283 -2.353460073471069 -10.107999801635742
-4.718979835510254 -2.199460029602051 -10.140999794006348
-4.540979862213135 -2.223459959030151 -10.151000022888184
-4.650979995727539 -2.327460050582886 -10.196000099182129
-4.590980052947998 -2.473459959030151 -10.218000411987305
-4.528979778289795 -2.609460115432739 -10.223999977111816
-4.297979831695557 -2.128459930419922 -10.225000381469727
-4.201980113983154 -2.013459920883179 -10.222999572753906
-4.601980209350586 -2.110460042953491 -10.230999946594238
-4.446979999542236 -2.105459928512573 -10.244000434875488
-4.545979976654053 -2.302459955215454 -10.302000045776367
-4.395979881286621 -2.340460062026978 -10.347999572753906
-4.476980209350586 -2.667459964752197 -10.359999656677246
-4.511980056762695 -2.447459936141968 -10.361000061035156
-4.356979846954346 -2.131459951400757 -10.364000320434570
-4.495979785919190 -2.188460111618042 -10.383000373840332
-4.206980228424072 -2.066459894180298 -10.387000083923340
-4.139979839324951 -2.052459955215454 -10.548999786376953
-4.244979858398438 -2.158459901809692 -10.564000129699707
