ply
format ascii 1.0
element vertex 729
property double x
property double y
property double z
end_header
-4.039979934692383 -2.827460050582886 -8.729029655456543
-3.843980073928833 -2.368459939956665 -8.761030197143555
-3.871979951858521 -2.349459886550903 -8.948030471801758
-3.765980005264282 -2.438460111618042 -8.477040290832520
-4.056980133056641 -2.791460037231445 -8.399029731750488
-4.125979900360107 -2.792459964752197 -8.584030151367188
-3.950979948043823 -2.889460086822510 -8.595040321350098
-3.968980073928833 -2.854460000991821 -8.296039581298828
-4.044980049133301 -2.921459913253784 -8.481040000915527
-3.689980030059815 -2.401459932327271 -8.330030441284180
-3.828979969024658 -2.517460107803345 -8.086030006408691
-3.738980054855347 -2.408459901809692 -8.190030097961426
-3.688980102539063 -2.533459901809692 -7.937029838562012
-3.798979997634888 -2.393460035324097 -7.931029796600342
-3.708980083465576 -2.353460073471069 -8.051030158996582
-3.659980058670044 -2.258460044860840 -8.257029533386231
-3.881979942321777 -2.987459897994995 -8.282039642333984
-3.927979946136475 -3.127460002899170 -8.300040245056152
-4.010980129241943 -3.263459920883179 -8.312029838562012
-3.856980085372925 -3.259459972381592 -8.346030235290527
-4.049980163574219 -3.073460102081299 -8.366040229797363
-3.808979988098145 -3.090460062026978 -8.383040428161621
-4.111979961395264 -3.217459917068481 -8.412030220031738
-3.643980026245117 -2.289459943771362 -8.427029609680176
-4.226980209350586 -3.145459890365601 -8.483030319213867
-3.890980005264282 -2.999459981918335 -8.483030319213867
-4.021979808807373 -3.071460008621216 -8.513030052185059
-4.158979892730713 -3.013459920883179 -8.511030197143555
-4.292980194091797 -3.041460037231445 -8.571040153503418
-3.708980083465576 -2.285459995269775 -8.570030212402344
-4.342979907989502 -2.903460025787354 -8.622030258178711
-4.201980113983154 -2.868459939956665 -8.687029838562012
-4.421979904174805 -2.812459945678711 -8.709030151367188
-3.796979904174805 -2.230459928512573 -8.733030319213867
-3.905980110168457 -2.210459947586060 -8.887040138244629
-0.391981005668640 -6.383460044860840 -5.139029979705811
-0.398981004953384 -6.302460193634033 -5.011030197143555
-0.259712010622025 -6.510019779205322 -5.113190174102783
-0.318982988595963 -6.231460094451904 -5.123040199279785
-0.467981010675430 -6.224460124969482 -5.125030040740967
-0.704980015754700 -6.091460227966309 -5.121029853820801
-0.535982012748718 -6.053460121154785 -5.121029853820801
-0.391981005668640 -6.383460044860840 -5.139029979705811
-0.164954006671906 -6.605060100555420 -5.187640190124512
-0.086980402469635 -6.737460136413574 -5.194029808044434
-0.261983007192612 -6.350460052490234 -5.215030193328857
-0.162828996777534 -6.460780143737793 -5.225230216979981
-0.762983024120331 -5.959459781646729 -5.210040092468262
-0.870980978012085 -6.075459957122803 -5.254030227661133
-0.463982999324799 -6.111460208892822 -5.259039878845215
-0.625981986522675 -6.061460018157959 -5.258039951324463
-0.505982995033264 -5.958459854125977 -5.261030197143555
-0.904981017112732 -5.921460151672363 -5.267029762268066
0.016734000295401 -6.885799884796143 -5.303160190582275
-0.374981999397278 -6.233459949493408 -5.285029888153076
-0.639981985092163 -5.901460170745850 -5.290040016174316
-0.081311099231243 -6.585840225219727 -5.314539909362793
-0.264982014894485 -6.122459888458252 -5.300039768218994
-1.008980035781860 -6.017459869384766 -5.321040153503418
-0.787980973720551 -5.835460186004639 -5.319029808044434
-0.011983499862254 -6.718460083007813 -5.363039970397949
0.094019301235676 -7.001460075378418 -5.372029781341553
-0.747979998588562 -6.078460216522217 -5.351029872894287
-0.109598003327847 -6.320040225982666 -5.364389896392822
-0.256981998682022 -5.982460021972656 -5.362040042877197
-0.531979978084564 -5.836460113525391 -5.369040012359619
-0.385980010032654 -6.068459987640381 -5.378029823303223
-0.380982995033264 -5.865459918975830 -5.375030040740967
-0.986981987953186 -5.837460041046143 -5.376039981842041
0.232020005583763 -6.956459999084473 -5.417029857635498
-0.826982021331787 -5.703460216522217 -5.388030052185059
0.102018997073174 -6.856460094451904 -5.426030158996582
-0.096982598304749 -6.024459838867188 -5.402029991149902
0.778016984462738 -6.458459854125977 -5.425039768218994
0.226018995046616 -6.763460159301758 -5.435039997100830
0.013017999939620 -6.588459968566895 -5.433030128479004
-0.882982015609741 -6.014460086822510 -5.419030189514160
-0.135979995131493 -6.186460018157959 -5.427030086517334
0.354018002748489 -6.067460060119629 -5.426030158996582
0.674017012119293 -6.345459938049316 -5.438029766082764
-0.503979980945587 -5.982460021972656 -5.426030158996582
0.886018991470337 -6.607460021972656 -5.457029819488525
0.501016974449158 -6.099460124969482 -5.441030025482178
0.179018005728722 -6.402460098266602 -5.454030036926270
0.633017003536224 -6.180459976196289 -5.449039936065674
-0.495981007814407 -5.706459999084473 -5.433030128479004
0.232020005583763 -6.613460063934326 -5.465030193328857
-0.679983019828796 -5.676459789276123 -5.435039997100830
-0.213982999324799 -5.839459896087647 -5.442039966583252
-0.653981983661652 -5.997459888458252 -5.446040153503418
-1.045979976654053 -5.953460216522217 -5.450039863586426
0.363016992807388 -6.873459815979004 -5.483029842376709
1.098019957542419 -6.689459800720215 -5.479030132293701
0.229018002748489 -6.172460079193115 -5.466030120849609
0.036016799509525 -6.447460174560547 -5.475029945373535
0.034017898142338 -5.984459877014160 -5.465030193328857
0.080019399523735 -6.150459766387940 -5.474040031433106
0.415017992258072 -6.303460121154785 -5.480040073394775
0.199018999934196 -5.911459922790527 -5.468029975891113
-0.339982986450195 -5.715459823608398 -5.468029975891113
-0.227982997894287 -6.077459812164307 -5.480040073394775
0.153016999363899 -7.039460182189941 -5.512040138244629
-0.035981800407171 -6.276460170745850 -5.493030071258545
-0.946981012821198 -5.659460067749023 -5.473040103912354
0.334017008543015 -6.491459846496582 -5.502039909362793
0.649020016193390 -6.498459815979004 -5.506030082702637
0.105016998946667 -6.685460090637207 -5.513030052185059
0.510020017623901 -6.435460090637207 -5.509039878845215
0.370016008615494 -6.683460235595703 -5.520030021667481
0.741019010543823 -6.618460178375244 -5.521029949188232
-0.317983001470566 -5.960460186004639 -5.499030113220215
-0.915983021259308 -5.885459899902344 -5.499030113220215
0.445017009973526 -5.961460113525391 -5.506030082702637
0.957018017768860 -6.737460136413574 -5.531030178070068
0.431017011404037 -7.004459857940674 -5.540040016174316
0.338019013404846 -5.854459762573242 -5.505040168762207
0.314016997814178 -7.104459762573242 -5.546040058135986
-1.097980022430420 -5.676459789276123 -5.504030227661133
0.807017028331757 -6.759459972381592 -5.544030189514160
-0.768983006477356 -5.907460212707520 -5.518030166625977
-0.040982801467180 -5.842460155487061 -5.518030166625977
-0.589982986450195 -5.586460113525391 -5.513030052185059
-0.058980599045753 -6.108459949493408 -5.532040119171143
0.500018000602722 -6.856460094451904 -5.557040214538574
-0.736981987953186 -5.533460140228272 -5.515039920806885
-0.459982007741928 -5.862460136413574 -5.528029918670654
0.514016985893250 -6.660459995269775 -5.557040214538574
-0.145981997251511 -5.951459884643555 -5.534029960632324
0.522017002105713 -6.215459823608398 -5.544030189514160
0.148019999265671 -6.520460128784180 -5.555029869079590
1.002020001411438 -6.584459781646729 -5.560039997100830
0.877020001411438 -6.499460220336914 -5.560039997100830
0.100019998848438 -6.282460212707520 -5.556029796600342
-0.409981995820999 -5.596459865570068 -5.534029960632324
-0.452982008457184 -5.447460174560547 -5.532040119171143
0.401019006967545 -6.119460105895996 -5.557040214538574
-0.601979970932007 -5.423460006713867 -5.536039829254150
0.186018005013466 -6.894460201263428 -5.583030223846436
-0.302980005741119 -5.117459774017334 -5.528029918670654
-1.116979956626892 -5.842460155487061 -5.549029827117920
0.294019997119904 -5.989459991455078 -5.559030055999756
-0.629984021186829 -5.848460197448731 -5.555029869079590
-0.207983002066612 -5.257460117340088 -5.538030147552490
-0.218871995806694 -5.736149787902832 -5.552830219268799
0.304017990827560 -6.248459815979004 -5.571040153503418
0.617017984390259 -6.352459907531738 -5.575039863586426
-0.565980970859528 -5.269460201263428 -5.540040016174316
0.225020006299019 -6.742459774017334 -5.590030193328857
0.630019009113312 -6.765460014343262 -5.592040061950684
-0.876981019973755 -5.497459888458252 -5.551030158996582
0.165018007159233 -6.076459884643555 -5.575039863586426
-0.345982998609543 -5.326459884643555 -5.551030158996582
0.113017000257969 -5.835460186004639 -5.570030212402344
0.246020004153252 -6.398459911346436 -5.588039875030518
-0.429982990026474 -5.203460216522217 -5.552030086517334
-0.748983025550842 -5.381460189819336 -5.560039997100830
1.152019977569580 -6.857460021972656 -5.612040042877197
-1.023980021476746 -5.539460182189941 -5.567039966583252
0.397017002105713 -6.391459941864014 -5.599040031433106
0.292017012834549 -6.594460010528565 -5.610030174255371
0.907019019126892 -6.858459949493408 -5.620039939880371
0.610018014907837 -6.956459999084473 -5.625030040740967
-0.159411996603012 -5.115880012512207 -5.571229934692383
0.168016999959946 -5.680459976196289 -5.590030193328857
0.527018010616302 -7.083459854125977 -5.638030052185059
-1.176980018615723 -5.580460071563721 -5.590030193328857
0.198018997907639 -7.116459846496582 -5.644040107727051
0.737016975879669 -6.509459972381592 -5.627039909362793
-0.805981993675232 -5.766459941864014 -5.601029872894287
-0.468980014324188 -5.720459938049316 -5.601029872894287
0.746020019054413 -6.862460136413574 -5.640039920806885
-0.066366299986839 -5.249969959259033 -5.595789909362793
0.404017001390457 -7.173460006713867 -5.658040046691895
-0.977982997894287 -5.370460033416748 -5.609039783477783
0.587019026279449 -6.502460002899170 -5.649030208587647
0.437018007040024 -6.542459964752197 -5.650030136108398
-0.693983018398285 -5.213459968566895 -5.607029914855957
-0.986981987953186 -5.838459968566895 -5.627039909362793
0.029982300475240 -5.620580196380615 -5.622519969940186
-1.122979998588562 -5.423460006713867 -5.616040229797363
-0.621980011463165 -5.707459926605225 -5.627039909362793
-0.862981021404266 -5.271460056304932 -5.614029884338379
1.276020050048828 -6.917459964752197 -5.670030117034912
-0.242982000112534 -5.568459987640381 -5.629030227661133
-0.116792999207973 -5.647359848022461 -5.633480072021484
1.032019972801209 -6.932459831237793 -5.677030086517334
0.264016985893250 -6.975460052490234 -5.680029869079590
0.260019987821579 -7.246459960937500 -5.693039894104004
-1.211979985237122 -4.313459873199463 -5.603030204772949
0.715017974376678 -7.040460109710693 -5.695030212402344
-1.115980029106140 -4.441460132598877 -5.612040042877197
0.404017001390457 -6.696459770202637 -5.686039924621582
0.013011399656534 -5.368229866027832 -5.645309925079346
-0.056370001286268 -5.502920150756836 -5.649869918823242
-0.465981990098953 -5.053460121154785 -5.636030197143555
0.879019021987915 -6.641459941864014 -5.689040184020996
0.870015978813171 -6.974460124969482 -5.705029964447022
0.100870996713638 -5.493750095367432 -5.660429954528809
-0.924982011318207 -5.698460102081299 -5.667029857635498
-0.936982989311218 -4.553460121154785 -5.638030052185059
0.358018994331360 -6.854459762573242 -5.714029788970947
0.696017026901245 -6.630459785461426 -5.708030223846436
-0.557981014251709 -5.556459903717041 -5.674029827117920
-0.603982985019684 -5.107460021972656 -5.662030220031738
-0.362980991601944 -5.478459835052490 -5.676030158996582
0.549017012119293 -6.666460037231445 -5.715030193328857
-0.331983000040054 -4.993460178375244 -5.662030220031738
-0.218979999423027 -5.419459819793701 -5.678040027618408
-1.115980029106140 -5.240459918975830 -5.673029899597168
-1.251979947090149 -5.466460227966309 -5.680029869079590
0.632018029689789 -7.172460079193115 -5.739029884338379
-0.993982017040253 -5.155459880828857 -5.674029827117920
-1.281980037689209 -4.453460216522217 -5.652029991149902
-1.250980019569397 -5.306459903717041 -5.679039955139160
-0.750981986522675 -5.659460067749023 -5.693039894104004
-1.161980032920837 -5.833459854125977 -5.699039936065674
0.996020019054413 -6.726459980010986 -5.731040000915527
1.165019989013672 -7.060460090637207 -5.751039981842041
-0.802980005741119 -5.138460159301758 -5.693039894104004
1.003020048141480 -7.078460216522217 -5.757030010223389
-0.291981995105743 -5.278460025787354 -5.699039936065674
0.834016978740692 -7.109459877014160 -5.758039951324463
0.486018002033234 -7.266459941864014 -5.769040107727051
-0.485983014106750 -5.401460170745850 -5.713039875030518
-1.235980033874512 -5.648459911346436 -5.722030162811279
-1.238980054855347 -5.144460201263428 -5.708030223846436
-0.642979979515076 -5.401460170745850 -5.725029945373535
0.285017013549805 -7.125460147857666 -5.782040119171143
0.789018988609314 -6.727459907531738 -5.774030208587647
-0.740980029106140 -5.517459869384766 -5.738039970397949
0.607020020484924 -6.784460067749023 -5.786039829254150
1.398020029067993 -7.105460166931152 -5.798029899597168
0.378019988536835 -6.988460063934326 -5.794030189514160
-1.330979943275452 -4.296460151672363 -5.708030223846436
-0.393983006477356 -5.176459789276123 -5.740029811859131
0.755019009113312 -7.237460136413574 -5.806029796600342
-0.910982012748718 -5.043459892272949 -5.740029811859131
-0.448980003595352 -4.939459800720215 -5.738039970397949
-1.189980030059815 -4.546460151672363 -5.725029945373535
-1.108979940414429 -5.050459861755371 -5.744040012359619
0.345019012689590 -7.279459953308106 -5.816030025482178
1.244019985198975 -7.181459903717041 -5.815030097961426
-0.522980988025665 -5.254459857940674 -5.753029823303223
-0.704980015754700 -5.026460170745850 -5.748040199279785
-1.360980033874512 -5.384459972381592 -5.758039951324463
-0.867981970310211 -5.606460094451904 -5.769040107727051
-1.375980019569397 -5.221459865570068 -5.758039951324463
-1.356979966163635 -5.059460163116455 -5.754030227661133
1.084020018577576 -7.184460163116455 -5.825039863586426
0.508017003536224 -6.892459869384766 -5.815030097961426
-1.405979990959168 -4.432459831237793 -5.742030143737793
0.616019010543823 -7.300459861755371 -5.835040092468262
-1.015980005264282 -4.493460178375244 -5.750030040740967
1.190019965171814 -6.902460098266602 -5.829030036926270
-0.850979983806610 -4.602459907531738 -5.754030227661133
0.936017990112305 -7.221459865570068 -5.841030120849609
1.045019984245300 -6.854459762573242 -5.830029964447022
-1.007979989051819 -5.653460025787354 -5.797039985656738
-0.927980005741119 -4.816460132598877 -5.773029804229736
1.307019948959351 -6.992459774017334 -5.860030174255371
-0.718980014324188 -4.819459915161133 -5.790040016174316
-0.730980992317200 -5.277460098266602 -5.806029796600342
-1.012979984283447 -4.938459873199463 -5.795030117034912
-1.079980015754700 -4.673460006713867 -5.787030220031738
-1.243980050086975 -4.945459842681885 -5.796040058135986
-1.307979941368103 -5.541460037231445 -5.815030097961426
1.563019990921021 -7.289460182189941 -5.875030040740967
-1.184980034828186 -4.357460021972656 -5.779039859771729
-0.528981983661652 -5.048460006713867 -5.802030086517334
0.795019984245300 -6.860459804534912 -5.862040042877197
-0.630982995033264 -5.163459777832031 -5.809030055999756
-0.828980982303619 -5.392459869384766 -5.816030025482178
-1.119979977607727 -5.760459899902344 -5.829030036926270
-0.810983002185822 -4.937459945678711 -5.807040214538574
0.649020016193390 -6.914460182189941 -5.871029853820801
1.302019953727722 -7.304460048675537 -5.888030052185059
0.409018009901047 -7.151460170745850 -5.882030010223389
-1.309980034828186 -4.586460113525391 -5.805029869079590
1.151020050048828 -7.298460006713867 -5.895030021667481
-1.428979992866516 -4.929460048675537 -5.819029808044434
0.525018990039825 -7.042459964752197 -5.892029762268066
0.461019992828369 -7.356460094451904 -5.902029991149902
-0.942982971668243 -5.485459804534912 -5.843029975891113
0.851019024848938 -7.347459793090820 -5.909029960632324
-1.301980018615723 -5.694459915161133 -5.855040073394775
1.443019986152649 -7.375460147857666 -5.918039798736572
-0.618982017040253 -4.936460018157959 -5.840030193328857
1.677019953727722 -7.400459766387940 -5.921040058135986
-1.476979970932007 -5.297460079193115 -5.854030132293701
0.998018980026245 -7.332459926605225 -5.924029827117920
-1.437980055809021 -4.275459766387940 -5.825039863586426
0.938017010688782 -6.929460048675537 -5.914040088653565
1.484019994735718 -7.156459808349609 -5.925039768218994
-1.521980047225952 -4.403460025787354 -5.834030151367188
-1.157979965209961 -4.820459842681885 -5.848040103912354
1.085019946098328 -6.969460010528565 -5.922039985656738
-0.786980986595154 -5.149459838867188 -5.868030071258545
-1.504979968070984 -5.092460155487061 -5.866040229797363
-1.321979999542236 -4.823460102081299 -5.861030101776123
-1.282979965209961 -4.242459774017334 -5.844029903411865
-1.439980030059815 -5.451459884643555 -5.881030082702637
1.550019979476929 -7.478459835052490 -5.953040122985840
-1.569980025291443 -4.947460174560547 -5.870039939880371
1.757019996643066 -7.532460212707520 -5.958030223846436
-0.886982977390289 -5.270460128784180 -5.883039951324463
0.778016984462738 -6.984459877014160 -5.942039966583252
-1.080979943275452 -5.523459911346436 -5.897039890289307
-1.117980003356934 -4.467460155487061 -5.866040229797363
0.518019020557404 -7.221459865570068 -5.957029819488525
-0.989979982376099 -4.571459770202637 -5.875030040740967
-1.452980041503906 -4.548460006713867 -5.876039981842041
0.720018982887268 -7.400459766387940 -5.971030235290527
1.208019971847534 -7.046460151672363 -5.962029933929443
-1.175979971885681 -5.648459911346436 -5.922039985656738
-1.492980003356934 -4.817460060119629 -5.896029949188232
-1.390980005264282 -4.697460174560547 -5.903029918670654
-0.882982015609741 -5.043459892272949 -5.917029857635498
0.642019987106323 -7.136459827423096 -5.987040042877197
1.343019962310791 -7.449460029602051 -6.000030040740967
0.573019027709961 -7.378459930419922 -5.999030113220215
-1.369979977607727 -5.592460155487061 -5.942039966583252
-1.035979986190796 -5.319459915161133 -5.935039997100830
-1.578979969024658 -4.251460075378418 -5.901040077209473
1.337020039558411 -7.134459972381592 -5.999030113220215
1.202020049095154 -7.392459869384766 -6.009039878845215
0.905019998550415 -7.047460079193115 -5.998040199279785
-0.989979982376099 -5.177460193634033 -5.940030097961426
-0.884980976581573 -4.821459770202637 -5.932040214538574
-1.638980031013489 -4.815460205078125 -5.934030055999756
-1.249979972839356 -4.382460117340088 -5.925039768218994
-1.636980056762695 -4.424459934234619 -5.928040027618408
0.866019010543823 -7.437459945678711 -6.030029773712158
-1.583979964256287 -5.270460128784180 -5.959030151367188
-1.694980025291443 -4.966460227966309 -5.950039863586426
1.742020010948181 -7.661459922790527 -6.041029930114746
-1.630980014801025 -5.107460021972656 -5.958030223846436
1.616019964218140 -7.580460071563721 -6.041029930114746
1.458019971847534 -7.553460121154785 -6.043039798736572
1.047019958496094 -7.093460083007813 -6.032040119171143
-0.992981970310211 -4.932459831237793 -5.962029933929443
1.063019990921021 -7.439459800720215 -6.046040058135986
0.792016983032227 -7.135459899902344 -6.039040088653565
-1.173979997634888 -5.380459785461426 -5.983029842376709
-1.573979973793030 -4.573460102081299 -5.959030151367188
1.450019955635071 -7.238460063934326 -6.048029899597168
-1.545979976654053 -5.414460182189941 -5.986030101776123
-1.240980029106140 -5.515460014343262 -5.993030071258545
1.585019946098328 -7.337460041046143 -6.059030055999756
0.667016983032227 -7.269460201263428 -6.057040214538574
-1.105980038642883 -5.030459880828857 -5.986030101776123
-1.129979968070984 -5.199460029602051 -5.993030071258545
-1.103979945182800 -4.669459819793701 -5.979030132293701
-1.822980046272278 -4.837460041046143 -5.986030101776123
1.184020042419434 -7.146460056304932 -6.070030212402344
-1.115980029106140 -4.817460060119629 -5.995039939880371
-1.830979943275452 -4.999460220336914 -6.004030227661133
-1.236979961395264 -4.600460052490234 -5.999030113220215
-1.460980057716370 -4.180459976196289 -5.986030101776123
-1.328979969024658 -4.259459972381592 -5.989029884338379
-1.691980004310608 -4.284460067749023 -5.993030071258545
-1.677979946136475 -4.686460018157959 -6.009039878845215
-1.974979996681213 -4.913459777832031 -6.018030166625977
-1.456979990005493 -5.521460056304932 -6.040040016174316
-1.228979945182800 -4.932459831237793 -6.023029804229736
-1.243980050086975 -5.089459896087647 -6.029039859771729
-2.466979980468750 -4.656459808349609 -6.016039848327637
-2.592979907989502 -4.575459957122803 -6.015039920806885
-1.301980018615723 -5.260459899902344 -6.046040058135986
-1.607980012893677 -4.158460140228272 -6.014029979705811
-1.733979940414429 -5.169459819793701 -6.046040058135986
1.947020053863525 -7.751460075378418 -6.135029792785645
-1.339980006217957 -4.492459774017334 -6.030029773712158
-1.688979983329773 -5.310460090637207 -6.058030128479004
-1.367980003356934 -5.398459911346436 -6.062029838562012
1.682019948959351 -7.452459812164307 -6.133039951324463
1.869019985198975 -7.617459774017334 -6.139029979705811
-1.348979949951172 -4.828460216522217 -6.048029899597168
-2.308979988098145 -4.740459918975830 -6.044030189514160
-2.448980093002319 -4.816460132598877 -6.047039985656738
0.735018014907837 -7.397459983825684 -6.134039878845215
-2.153980016708374 -4.735459804534912 -6.046040058135986
-1.986979961395264 -4.687459945678711 -6.047039985656738
-1.366979956626892 -4.987460136413574 -6.058030128479004
0.830018997192383 -7.274459838867188 -6.136030197143555
-1.724979996681213 -4.461460113525391 -6.044030189514160
-1.371979951858521 -4.679460048675537 -6.052030086517334
1.731019973754883 -7.763460159301758 -6.155029773712158
-1.392979979515076 -5.134459972381592 -6.069029808044434
-2.538980007171631 -4.424459934234619 -6.045030117034912
1.521020054817200 -7.637460231781006 -6.154039859771729
1.250020027160645 -7.527460098266602 -6.152029991149902
-2.356980085372925 -4.938459873199463 -6.072030067443848
1.339020013809204 -7.271460056304932 -6.154039859771729
0.983018994331360 -7.227459907531738 -6.153029918670654
-1.497979998588562 -4.898459911346436 -6.078040122985840
0.993017971515656 -7.495460033416748 -6.166029930114746
-1.751979947090149 -4.161459922790527 -6.061039924621582
-1.477980017662048 -5.277460098266602 -6.098040103912354
-1.531980037689209 -5.043459892272949 -6.092040061950684
-1.431980013847351 -4.356460094451904 -6.073029994964600
1.470020055770874 -7.358459949493408 -6.172039985656738
-1.482980012893677 -4.570459842681885 -6.083030223846436
-1.535979986190796 -4.716460227966309 -6.088039875030518
1.897019982337952 -7.917459964752197 -6.196040153503418
1.133020043373108 -7.241459846496582 -6.177030086517334
-1.646980047225952 -4.827459812164307 -6.100029945373535
-1.677979946136475 -4.995460033416748 -6.112040042877197
-2.682980060577393 -4.464459896087647 -6.098040103912354
-1.603979945182800 -5.195459842681885 -6.124030113220215
0.850019991397858 -7.465459823608398 -6.204030036926270
-1.802979946136475 -4.337460041046143 -6.104030132293701
-1.581979990005493 -5.376460075378418 -6.139029979705811
-1.801980018615723 -4.899459838867188 -6.124030113220215
-1.640980005264282 -4.579460144042969 -6.119040012359619
1.391020059585571 -7.604459762573242 -6.219029903411865
-1.562980055809021 -4.442460060119629 -6.119040012359619
-2.223979949951172 -5.002460002899170 -6.136030197143555
-2.207979917526245 -4.852459907531738 -6.135029792785645
-1.803979992866516 -5.081459999084473 -6.143030166625977
1.769019961357117 -7.542459964752197 -6.228030204772949
-1.758980035781860 -4.697460174560547 -6.135029792785645
-1.959980010986328 -4.815460205078125 -6.139029979705811
-1.807979941368103 -5.240459918975830 -6.154039859771729
-1.933979988098145 -4.979459762573242 -6.146029949188232
2.032020092010498 -7.872459888458252 -6.245039939880371
-2.080980062484741 -4.931459903717041 -6.146029949188232
-2.341979980468750 -4.616459846496582 -6.136030197143555
-1.950979948043823 -5.171460151672363 -6.156030178070068
1.614019989967346 -7.716460227966309 -6.243030071258545
-2.499979972839356 -4.571459770202637 -6.139029979705811
-1.488980054855347 -4.204460144042969 -6.134039878845215
-2.192980051040649 -4.624460220336914 -6.147039890289307
-2.088979959487915 -5.102459907531738 -6.165040016174316
1.578019976615906 -7.454460144042969 -6.248040199279785
1.115020036697388 -7.530459880828857 -6.251039981842041
0.951017975807190 -7.352459907531738 -6.247029781341553
-2.039979934692383 -4.564459800720215 -6.155029773712158
-1.736979961395264 -4.009459972381592 -6.140039920806885
-1.900979995727539 -4.640460014343262 -6.164040088653565
-1.565979957580566 -4.053460121154785 -6.150030136108398
1.233019948005676 -7.323460102081299 -6.257030010223389
-2.299979925155640 -4.471459865570068 -6.162030220031738
-1.632979989051819 -4.279459953308106 -6.159029960632324
-1.914980053901672 -4.450459957122803 -6.168039798736572
2.067019939422607 -8.040459632873535 -6.289040088653565
-1.779979944229126 -4.550459861755371 -6.181029796600342
1.368020057678223 -7.386459827423096 -6.278029918670654
-2.531980037689209 -4.337460041046143 -6.177030086517334
1.797019958496094 -7.876460075378418 -6.301030158996582
-1.702980041503906 -4.414460182189941 -6.190030097961426
-2.149960041046143 -4.462339878082275 -6.194089889526367
1.933019995689392 -7.678460121154785 -6.302030086517334
1.256019949913025 -7.583459854125977 -6.301030158996582
1.092020034790039 -7.363460063934326 -6.301030158996582
1.934020042419434 -7.987460136413574 -6.331039905548096
-1.906980037689209 -4.114459991455078 -6.209030151367188
-2.586980104446411 -4.467460155487061 -6.223040103912354
-2.433979988098145 -4.449460029602051 -6.226029872894287
-1.949980020523071 -4.265460014343262 -6.225029945373535
-1.769979953765869 -4.212460041046143 -6.224040031433106
0.969018995761871 -7.477459907531738 -6.332029819488525
1.502020001411438 -7.692460060119629 -6.345039844512940
-2.715980052947998 -4.389460086822510 -6.239029884338379
1.682019948959351 -7.517459869384766 -6.351029872894287
-2.320050001144409 -4.351140022277832 -6.247789859771729
1.815019965171814 -7.598460197448731 -6.361030101776123
-1.829980015754700 -4.363460063934326 -6.255040168762207
2.102020025253296 -7.876460075378418 -6.378029823303223
-2.035979986190796 -4.402460098266602 -6.268030166625977
1.495020031929016 -7.471459865570068 -6.372029781341553
-1.620980024337769 -4.172460079193115 -6.264029979705811
1.634019970893860 -7.779459953308106 -6.385029792785645
-1.649979948997498 -3.993459939956665 -6.262040138244629
1.234019994735718 -7.431459903717041 -6.385029792785645
-1.478979945182800 -4.092460155487061 -6.278029918670654
1.372020006179810 -7.654459953308106 -6.408040046691895
-1.825979948043823 -4.007460117340088 -6.294030189514160
2.135020017623901 -8.159460067749023 -6.436039924621582
1.095020055770874 -7.504459857940674 -6.417029857635498
2.021019935607910 -8.063460350036621 -6.443039894104004
-2.476979970932007 -4.279459953308106 -6.318039894104004
2.164020061492920 -8.013460159301758 -6.445030212402344
-2.126980066299439 -4.297460079193115 -6.322030067443848
-1.976979970932007 -4.019460201263428 -6.320030212402344
-2.017980098724365 -4.169459819793701 -6.325039863586426
1.848019957542419 -7.914460182189941 -6.451029777526856
-2.622980117797852 -4.313459873199463 -6.339029788970947
1.214020013809204 -7.591460227966309 -6.448029994964600
1.898020029067993 -7.666460037231445 -6.470039844512940
1.370020031929016 -7.498459815979004 -6.464029788970947
-1.870980024337769 -4.193459987640381 -6.356040000915527
-1.976979970932007 -4.306459903717041 -6.369040012359619
1.596019983291626 -7.539460182189941 -6.482029914855957
-2.329550027847290 -4.268370151519775 -6.378019809722900
1.535019993782044 -7.737460136413574 -6.499030113220215
-2.777980089187622 -4.413459777832031 -6.396029949188232
-1.587980031967163 -4.093460083007813 -6.390039920806885
-1.730980038642883 -3.932460069656372 -6.398029804229736
1.725020051002502 -7.870460033416748 -6.528029918670654
-1.736979961395264 -4.122459888458252 -6.406030178070068
1.735020041465759 -7.599460124969482 -6.527029991149902
2.010020017623901 -7.741459846496582 -6.533040046691895
-2.138979911804199 -4.095459938049316 -6.417029857635498
-1.904979944229126 -3.920459985733032 -6.415040016174316
1.937019944190979 -7.990459918975830 -6.550039768218994
-2.728980064392090 -4.275459766387940 -6.436039924621582
2.133019924163818 -7.874460220336914 -6.557040214538574
-2.184979915618897 -4.238460063934326 -6.449039936065674
1.305019974708557 -7.626460075378418 -6.563029766082764
-2.294980049133301 -4.135459899902344 -6.452030181884766
1.465019941329956 -7.588459968566895 -6.572030067443848
2.187020063400269 -8.150460243225098 -6.591030120849609
-2.537980079650879 -4.275459766387940 -6.462029933929443
-2.053980112075806 -3.948460102081299 -6.456039905548096
2.063019990921021 -8.063460350036621 -6.598040103912354
1.411020040512085 -7.732460021972656 -6.590030193328857
-2.022979974746704 -4.178460121154785 -6.489029884338379
-1.883980035781860 -4.101459980010986 -6.491040229797363
1.610020041465759 -7.625460147857666 -6.607029914855957
1.835019946098328 -7.671460151672363 -6.611030101776123
1.807019948959351 -7.952459812164307 -6.624030113220215
-2.427979946136475 -4.173460006713867 -6.509039878845215
2.292020082473755 -8.241459846496582 -6.648029804229736
2.241019964218140 -7.990459918975830 -6.645030021667481
-2.647979974746704 -4.184460163116455 -6.521029949188232
-1.625980019569397 -3.940459966659546 -6.518030166625977
-2.234980106353760 -4.013460159301758 -6.520030021667481
-2.813980102539063 -4.370460033416748 -6.534029960632324
-1.766980051994324 -3.995460033416748 -6.551030158996582
-2.534980058670044 -4.079460144042969 -6.556029796600342
1.943019986152649 -8.053460121154785 -6.690030097961426
1.671020030975342 -7.875460147857666 -6.687029838562012
-2.396980047225952 -4.016459941864014 -6.560039997100830
1.528020024299622 -7.771460056304932 -6.685039997100830
-2.131979942321777 -4.112460136413574 -6.566030025482178
-1.843979954719544 -3.865459918975830 -6.561039924621582
1.697020053863525 -7.729459762573242 -6.695030212402344
-2.148979902267456 -3.899460077285767 -6.571040153503418
1.922019958496094 -7.769460201263428 -6.701029777526856
-2.797980070114136 -4.226459980010986 -6.583030223846436
-1.996979951858521 -3.872459888458252 -6.574039936065674
2.403019905090332 -8.312459945678711 -6.723040103912354
-1.979979991912842 -4.044459819793701 -6.592040061950684
-2.696079969406128 -4.331580162048340 -6.617690086364746
2.073019981384277 -8.104459762573242 -6.750030040740967
2.022020101547241 -7.873459815979004 -6.748040199279785
1.735020041465759 -7.991459846496582 -6.764029979705811
-2.692980051040649 -4.088459968566895 -6.638030052185059
2.214020013809204 -8.165459632873535 -6.774030208587647
2.159019947052002 -7.930459976196289 -6.768030166625977
1.830019950866699 -7.876460075378418 -6.783040046691895
-2.271980047225952 -3.810460090637207 -6.654039859771729
1.835019946098328 -8.091460227966309 -6.811039924621582
-2.396980047225952 -3.897459983825684 -6.673029899597168
-2.584980010986328 -3.969460010528565 -6.677030086517334
-2.060980081558228 -3.956459999084473 -6.681029796600342
-2.294980049133301 -4.014460086822510 -6.684030055999756
-1.763980031013489 -3.901459932327271 -6.682040214538574
-2.461980104446411 -4.066460132598877 -6.686039924621582
-2.089979887008667 -3.808459997177124 -6.686039924621582
1.948019981384277 -7.968460083007813 -6.835040092468262
2.329020023345947 -8.242460250854492 -6.845039844512940
-1.915979981422424 -3.921459913253784 -6.708030223846436
2.467020034790039 -8.321459770202637 -6.858029842376709
2.257019996643066 -8.038459777832031 -6.851029872894287
-2.836980104446411 -4.326459884643555 -6.727039813995361
1.978019952774048 -8.118459701538086 -6.869040012359619
-2.785979986190796 -4.146460056304932 -6.739029884338379
2.089020013809204 -8.013460159301758 -6.871029853820801
-2.756979942321777 -3.983459949493408 -6.743030071258545
-2.497980117797852 -3.822459936141968 -6.766039848327637
-2.643980026245117 -4.146460056304932 -6.783040046691895
2.142019987106323 -8.152460098266602 -6.923029899597168
-1.842980027198792 -3.814460039138794 -6.783040046691895
-2.659980058670044 -3.867460012435913 -6.783040046691895
-2.209980010986328 -3.847460031509399 -6.785029888153076
-2.303980112075806 -3.687459945678711 -6.784029960632324
-2.107980012893677 -3.691459894180298 -6.785029888153076
-2.512979984283447 -3.987459897994995 -6.808030128479004
-1.998980045318604 -3.823460102081299 -6.810039997100830
-2.724980115890503 -4.280459880828857 -6.823029994964600
2.284019947052002 -8.140460014343262 -6.968029975891113
2.412019968032837 -8.239459991455078 -6.974040031433106
-2.507980108261108 -3.678459882736206 -6.830029964447022
-2.358979940414429 -3.823460102081299 -6.845039844512940
-2.395979881286621 -3.580460071563721 -6.843029975891113
2.550019979476929 -8.301460266113281 -7.001039981842041
-2.833980083465576 -4.112460136413574 -6.879030227661133
-2.829979896545410 -3.947459936141968 -6.883039951324463
-2.652980089187622 -3.695460081100464 -6.885029792785645
-2.585979938507080 -3.543459892272949 -6.882030010223389
-2.766979932785034 -3.801460027694702 -6.890039920806885
-2.202980041503906 -3.641459941864014 -6.888030052185059
-2.847980022430420 -4.259459972381592 -6.910029888153076
-2.448980093002319 -3.444459915161133 -6.897039890289307
-2.554980039596558 -3.871459960937500 -6.926030158996582
-2.300980091094971 -3.504460096359253 -6.937029838562012
-2.650979995727539 -4.029459953308106 -6.963039875030518
-2.369980096817017 -3.324460029602051 -6.947030067443848
-2.522979974746704 -3.321460008621216 -6.950039863586426
-2.827980041503906 -3.695460081100464 -6.982029914855957
-2.647979974746704 -3.402460098266602 -6.974040031433106
-2.579979896545410 -3.137459993362427 -6.966030120849609
-2.728980064392090 -3.556459903717041 -6.985030174255371
-2.858979940414429 -3.857460021972656 -6.999030113220215
-2.527980089187622 -3.698460102081299 -6.998040199279785
-2.460979938507080 -3.563460111618042 -6.997029781341553
-2.873980045318604 -4.160459995269775 -7.018030166625977
-2.703979969024658 -3.258460044860840 -6.992030143737793
-2.723979949951172 -4.164460182189941 -7.028029918670654
-2.703979969024658 -3.035459995269775 -6.994040012359619
-2.444979906082153 -3.198460102081299 -7.000030040740967
-2.750979900360107 -2.892460107803345 -7.002039909362793
-2.649980068206787 -3.825459957122803 -7.041029930114746
-2.789979934692383 -3.379460096359253 -7.027029991149902
-2.881979942321777 -3.997459888458252 -7.053040027618408
-2.819979906082153 -3.124459981918335 -7.031030178070068
-2.961980104446411 -3.629460096359253 -7.069029808044434
-2.729979991912842 -3.953459978103638 -7.080029964447022
-2.597980022430420 -3.544460058212280 -7.074039936065674
-2.572979927062988 -2.968460083007813 -7.059030055999756
-2.856980085372925 -3.515460014343262 -7.091030120849609
-2.576980113983154 -3.228460073471069 -7.086030006408691
-2.646980047225952 -3.686460018157959 -7.104030132293701
-2.862979888916016 -3.261460065841675 -7.093029975891113
-2.852979898452759 -2.968460083007813 -7.089029788970947
-2.977979898452759 -3.810460090637207 -7.121029853820801
-2.838979959487915 -4.114459991455078 -7.157040119171143
-2.778980016708374 -3.802459955215454 -7.149030208587647
-3.000979900360107 -3.524460077285767 -7.168039798736572
-2.925980091094971 -3.109460115432739 -7.162030220031738
-2.852979898452759 -3.933459997177124 -7.193039894104004
-2.934979915618897 -3.368459939956665 -7.176030158996582
-2.737979888916016 -2.846460103988648 -7.168039798736572
-2.699980020523071 -3.451459884643555 -7.187029838562012
-2.910979986190796 -2.820460081100464 -7.168039798736572
-2.737979888916016 -3.250459909439087 -7.188029766082764
-2.965980052947998 -4.042459964752197 -7.228030204772949
-2.674979925155640 -3.117460012435913 -7.210040092468262
-3.099980115890503 -3.657459974288940 -7.229030132293701
-2.777980089187622 -3.625459909439087 -7.238039970397949
-3.114979982376099 -3.804460048675537 -7.244040012359619
-3.080980062484741 -3.951459884643555 -7.251039981842041
-2.987979888916016 -3.227459907531738 -7.243030071258545
-2.959980010986328 -3.816459894180298 -7.270030021667481
-3.158979892730713 -3.519459962844849 -7.265039920806885
-2.967979907989502 -2.960459947586060 -7.263030052185059
-3.039979934692383 -3.409460067749023 -7.277029991149902
-3.244980096817017 -3.876460075378418 -7.298029899597168
-2.782979965209961 -3.378459930419922 -7.290040016174316
-2.915980100631714 -3.636460065841675 -7.302030086517334
-2.771980047225952 -3.027460098266602 -7.288030147552490
-3.375979900360107 -3.799459934234619 -7.329030036926270
-2.828979969024658 -3.222460031509399 -7.313029766082764
-3.286979913711548 -3.599459886550903 -7.325039863586426
-2.964979887008667 -2.785459995269775 -7.302030086517334
-3.054980039596558 -3.086460113525391 -7.315030097961426
-2.690979957580566 -2.843460083007813 -7.310039997100830
-2.887979984283447 -3.491460084915161 -7.338039875030518
-3.170979976654053 -3.714459896087647 -7.348040103912354
-2.835979938507080 -2.891459941864014 -7.349040031433106
-3.564980030059815 -3.611459970474243 -7.370039939880371
-3.047980070114136 -3.583460092544556 -7.371029853820801
-2.913980007171631 -3.107460021972656 -7.357029914855957
-3.173979997634888 -3.380460023880005 -7.372029781341553
-3.316979885101318 -3.460459947586060 -7.380040168762207
-3.648979902267456 -3.473459959030151 -7.385029792785645
-2.900979995727539 -3.343460083007813 -7.383039951324463
-3.420979976654053 -3.587460041046143 -7.400030136108398
-3.044980049133301 -3.303459882736206 -7.398029804229736
-3.183979988098145 -3.528460025787354 -7.416029930114746
-3.477979898452759 -3.427459955215454 -7.414040088653565
-3.006979942321777 -3.448460102081299 -7.424029827117920
-3.116980075836182 -3.158459901809692 -7.431029796600342
-2.996979951858521 -2.887459993362427 -7.423029899597168
-3.732980012893677 -3.349459886550903 -7.459030151367188
-3.581979990005493 -3.324460029602051 -7.463039875030518
-3.299979925155640 -3.332459926605225 -7.474040031433106
-2.987979888916016 -3.212460041046143 -7.507030010223389
-3.010979890823364 -3.035459995269775 -7.506030082702637
-3.437979936599731 -3.299459934234619 -7.523029804229736
-3.131979942321777 -3.357460021972656 -7.527029991149902
-3.170979976654053 -3.040460109710693 -7.519040107727051
-3.109980106353760 -2.904459953308106 -7.530029773712158
-2.878979921340942 -2.833460092544556 -7.540040016174316
-3.176980018615723 -3.208460092544556 -7.570030212402344
-3.683979988098145 -3.270459890365601 -7.579030036926270
-3.785979986190796 -3.420459985733032 -7.589029788970947
-3.289979934692383 -3.103460073471069 -7.602039813995361
-3.433979988098145 -3.151459932327271 -7.618030071258545
-3.233979940414429 -2.922460079193115 -7.614029884338379
-3.070980072021484 -3.112459897994995 -7.622029781341553
-3.538980007171631 -3.293459892272949 -7.632030010223389
-3.310980081558228 -3.264460086822510 -7.632030010223389
-3.084980010986328 -2.701459884643555 -7.624030113220215
-3.010979890823364 -2.831459999084473 -7.631030082702637
-3.585979938507080 -3.149460077285767 -7.646029949188232
-3.356980085372925 -3.010459899902344 -7.705029964447022
-3.764980077743530 -3.256459951400757 -7.717040061950684
-3.225980043411255 -2.670459985733032 -7.709030151367188
-3.327980041503906 -2.848459959030151 -7.716030120849609
-3.132980108261108 -3.016459941864014 -7.727039813995361
-3.804980039596558 -3.405459880828857 -7.744040012359619
-3.488980054855347 -3.066459894180298 -7.747029781341553
-3.138979911804199 -2.798460006713867 -7.742030143737793
-3.309979915618897 -2.543459892272949 -7.738039970397949
-3.635979890823364 -3.311460018157959 -7.767029762268066
-3.356980085372925 -3.192460060119629 -7.781030178070068
-3.210979938507080 -3.146460056304932 -7.782040119171143
-3.695980072021484 -3.129460096359253 -7.783040046691895
-3.352979898452759 -2.678459882736206 -7.789040088653565
-3.444979906082153 -2.560460090637207 -7.801030158996582
-3.445980072021484 -2.877460002899170 -7.811039924621582
-3.225980043411255 -2.907459974288940 -7.816030025482178
-3.782979965209961 -3.310460090637207 -7.859039783477783
-3.570980072021484 -3.094460010528565 -7.872029781341553
-3.307980060577393 -3.036459922790527 -7.873040199279785
-3.549979925155640 -2.909460067749023 -7.916029930114746
-3.432980060577393 -3.137459993362427 -7.924029827117920
-3.731980085372925 -3.180459976196289 -7.929039955139160
-3.665980100631714 -3.005460023880005 -7.956039905548096
-3.393980026245117 -2.963459968566895 -7.978030204772949
-3.818979978561401 -3.287460088729858 -8.014030456542969
-3.528980016708374 -3.082459926605225 -8.044030189514160
-3.788980007171631 -3.110460042953491 -8.050040245056152
-3.469980001449585 -2.954459905624390 -8.107029914855957
-3.590980052947998 -3.034460067749023 -8.180029869079590
-3.881979942321777 -3.270459890365601 -8.194029808044434
-3.814980030059815 -3.122459888458252 -8.197030067443848
