ply
format ascii 1.0
element vertex 672
property double x
property double y
property double z
end_header
-58.807399749755859 8.560520172119141 -72.756896972656250
-58.292900085449219 9.199910163879395 -72.289100646972656
-58.064601898193359 6.274670124053955 -70.823097229003906
-57.270301818847656 5.809519767761231 -70.258201599121094
-59.235698699951172 7.696589946746826 -70.940299987792969
-58.644298553466797 7.175600051879883 -70.574401855468750
-58.250999450683594 9.355170249938965 -70.871696472167969
-57.876998901367188 9.686079978942871 -70.901100158691406
-57.582901000976563 6.635960102081299 -70.018898010253906
-57.031799316406250 6.198249816894531 -69.475402832031250
-58.978298187255859 8.200349807739258 -70.098396301269531
-58.014198303222656 7.566100120544434 -69.618698120117188
-57.405300140380859 7.245719909667969 -69.156501770019531
-58.895099639892578 8.727999687194824 -69.789703369140625
-58.463199615478516 8.831310272216797 -69.321899414062500
-57.865100860595703 9.899510383605957 -69.420501708984375
-56.588001251220703 6.470839977264404 -68.218803405761719
-57.602001190185547 7.856319904327393 -68.361801147460938
-57.192699432373047 7.321320056915283 -68.075897216796875
-57.957698822021484 8.795829772949219 -68.259902954101563
-57.653099060058594 9.916430473327637 -68.217903137207031
-56.876701354980469 10.549900054931641 -68.251296997070313
-56.545600891113281 6.769790172576904 -66.989799499511719
-57.608200073242188 8.170920372009277 -66.858901977539062
-57.110099792480469 7.435490131378174 -66.852203369140625
-57.693599700927734 8.903499603271484 -66.973899841308594
-57.656101226806641 9.919630050659180 -66.949996948242188
-56.964599609375000 10.349300384521484 -67.119300842285156
-56.307300567626953 6.731560230255127 -65.531196594238281
-57.497299194335938 8.215160369873047 -66.128501892089844
-56.960098266601563 7.419869899749756 -65.591499328613281
-57.504901885986328 9.025779724121094 -65.729202270507813
-57.375400543212891 8.411379814147949 -65.321502685546875
-57.523200988769531 10.066599845886230 -65.550003051757813
-57.242801666259766 10.542400360107422 -65.624000549316406
-56.233600616455078 6.889389991760254 -64.444900512695313
-56.721401214599609 7.611509799957275 -64.244400024414063
-57.303298950195313 8.861989974975586 -64.465103149414063
-57.482299804687500 10.127400398254395 -64.339698791503906
-57.221401214599609 10.769399642944336 -64.374298095703125
-56.744998931884766 11.416600227355957 -64.385002136230469
-56.494701385498047 7.928790092468262 -63.118400573730469
-55.599800109863281 7.226930141448975 -63.020198822021484
-57.070201873779297 8.787899971008301 -63.147399902343750
-57.443298339843750 10.229800224304199 -63.393299102783203
-57.265300750732422 10.233599662780762 -63.073898315429688
-56.294601440429688 8.085659980773926 -62.097198486328125
-55.443199157714844 7.627309799194336 -61.731098175048828
-56.782901763916016 8.798500061035156 -61.596500396728516
-57.476100921630859 10.723400115966797 -61.892601013183594
-57.256198883056641 10.189000129699707 -61.658798217773438
-55.390701293945313 7.979770183563232 -60.495300292968750
-56.594200134277344 8.914219856262207 -60.440200805664063
-56.002998352050781 8.391019821166992 -60.115398406982422
-57.168998718261719 10.160699844360352 -60.455501556396484
-57.202301025390625 11.396300315856934 -60.317001342773438
-55.077400207519531 8.142780303955078 -59.246398925781250
-56.454200744628906 9.110010147094727 -59.229400634765625
-55.759498596191406 8.471369743347168 -59.097999572753906
-56.938400268554687 10.107799530029297 -59.084999084472656
-57.179199218750000 11.493399620056152 -59.246700286865234
-53.586601257324219 12.087499618530273 -59.365600585937500
-54.119098663330078 12.541999816894531 -59.139701843261719
-53.481899261474609 12.181500434875488 -58.633899688720703
-56.279098510742187 9.347510337829590 -57.682201385498047
-55.579399108886719 8.729089736938477 -57.842098236083984
-56.744701385498047 10.121600151062012 -57.866600036621094
-57.122699737548828 11.454500198364258 -57.872600555419922
-54.083698272705078 12.824199676513672 -57.901798248291016
-53.379199981689453 12.271900177001953 -57.903198242187500
-55.399700164794922 8.959340095520020 -56.552799224853516
-56.538200378417969 10.163700103759766 -56.638401031494141
-56.075298309326172 9.605219841003418 -56.099800109863281
-56.991798400878906 11.475299835205078 -56.636501312255859
-54.008598327636719 13.070199966430664 -56.702301025390625
-53.171501159667969 12.428099632263184 -56.583698272705078
-54.467399597167969 13.445699691772461 -56.095699310302734
-55.247001647949219 9.219180107116699 -55.303798675537109
-56.364398956298828 10.363200187683105 -55.206199645996094
-55.877300262451172 9.777959823608398 -54.926601409912109
-56.782199859619141 11.433500289916992 -55.141101837158203
-56.687500000000000 12.694100379943848 -55.184200286865234
-53.750198364257813 13.264100074768066 -55.483100891113281
-53.011600494384766 12.701399803161621 -55.143699645996094
-54.150901794433594 13.586299896240234 -54.984401702880859
-55.032199859619141 9.443149566650391 -54.044300079345703
-54.117099761962891 9.304900169372559 -53.839000701904297
-56.251499176025391 10.588299751281738 -53.863498687744141
-55.727600097656250 9.931159973144531 -53.904098510742188
-56.613800048828125 11.422200202941895 -53.943199157714844
-56.520301818847656 12.745599746704102 -53.811100006103516
-52.849998474121094 12.871700286865234 -53.927700042724609
-54.017101287841797 13.793199539184570 -53.953899383544922
-53.505401611328125 13.627499580383301 -53.621398925781250
-54.499698638916016 9.505570411682129 -53.079799652099609
-56.257400512695313 10.823900222778320 -53.180801391601562
-55.494998931884766 10.173299789428711 -52.645401000976562
-54.127899169921875 9.623459815979004 -52.519199371337891
-56.377300262451172 11.351900100708008 -52.578800201416016
-56.547000885009766 12.731200218200684 -52.680599212646484
-52.549800872802734 12.979599952697754 -52.650600433349609
-54.067699432373047 14.091300010681152 -52.697200775146484
-53.250999450683594 13.678400039672852 -52.649200439453125
-55.364498138427734 10.427900314331055 -51.424999237060547
-54.252998352050781 9.902959823608398 -51.311599731445312
-56.393699645996094 11.576100349426270 -51.479801177978516
-55.929100036621094 11.011099815368652 -51.154701232910156
-56.568599700927734 12.715100288391113 -51.372398376464844
-52.354499816894531 13.092000007629395 -51.484901428222656
-52.111000061035156 12.442500114440918 -51.379901885986328
-54.024398803710938 14.341300010681152 -51.446098327636719
-52.939498901367188 13.881099700927734 -51.273300170898438
-55.119499206542969 10.604399681091309 -50.296798706054687
-54.315399169921875 10.220199584960937 -50.067501068115234
-56.166801452636719 11.559300422668457 -50.083099365234375
-55.747200012207031 11.290699958801270 -50.016899108886719
-56.479198455810547 12.784799575805664 -50.197299957275391
-52.289699554443359 13.274700164794922 -50.400501251220703
-51.976600646972656 12.572099685668945 -50.068801879882813
-54.115100860595703 14.635399818420410 -50.454799652099609
-52.925399780273437 14.199700355529785 -50.137401580810547
-54.242000579833984 14.811800003051758 -49.828201293945313
-54.883201599121094 10.788999557495117 -49.161598205566406
-54.210399627685547 10.513099670410156 -48.718898773193359
-55.502700805664063 11.336899757385254 -48.694000244140625
-54.780799865722656 10.936300277709961 -48.464099884033203
-52.552600860595703 14.290200233459473 -48.647800445556641
-52.148300170898438 13.696499824523926 -48.311798095703125
-53.933799743652344 10.711600303649902 -47.389499664306641
-55.459201812744141 11.742699623107910 -47.497100830078125
-54.492298126220703 11.071000099182129 -47.359600067138672
-55.872398376464844 12.613699913024902 -47.020099639892578
-52.479099273681641 14.402700424194336 -47.393901824951172
-52.044399261474609 13.845399856567383 -47.391799926757813
-53.329101562500000 15.385700225830078 -47.832801818847656
-55.041801452636719 11.877400398254395 -46.403900146484375
-54.281600952148438 11.284899711608887 -46.150299072265625
-52.960201263427734 10.965999603271484 -45.932498931884766
-55.515098571777344 12.781900405883789 -46.190101623535156
-55.734600067138672 13.711099624633789 -45.878700256347656
-52.437999725341797 14.544400215148926 -46.473400115966797
-51.861698150634766 14.008999824523926 -46.097900390625000
-53.921298980712891 15.246399879455566 -45.896301269531250
-52.963199615478516 14.982399940490723 -45.959499359130859
-54.226898193359375 11.590499877929688 -44.819198608398438
-55.140899658203125 12.742199897766113 -44.899200439453125
-55.678600311279297 13.999199867248535 -44.810199737548828
-51.694499969482422 14.247300148010254 -44.813598632812500
-54.146701812744141 15.423999786376953 -44.930999755859375
-52.785301208496094 15.128399848937988 -44.934398651123047
-54.087398529052734 11.803299903869629 -43.630798339843750
-55.054199218750000 13.031999588012695 -43.703899383544922
-54.615001678466797 12.348099708557129 -43.547199249267578
-55.362400054931641 14.040800094604492 -43.517700195312500
-51.382099151611328 14.165599822998047 -43.582901000976563
-54.174999237060547 15.723899841308594 -43.641498565673828
-52.867298126220703 15.515700340270996 -43.590999603271484
-51.928798675537109 14.973400115966797 -43.642200469970703
-53.931499481201172 11.977100372314453 -42.395000457763672
-54.907699584960938 13.240400314331055 -42.397201538085938
-54.452800750732422 12.637499809265137 -42.112701416015625
-55.119300842285156 14.092800140380859 -42.191799163818359
-51.153400421142578 14.108300209045410 -42.218700408935547
-55.041198730468750 15.239700317382813 -41.819099426269531
-52.714599609375000 15.760999679565430 -42.336601257324219
-51.716300964355469 15.177700042724609 -42.043800354003906
-54.189998626708984 16.138200759887695 -42.119598388671875
-53.296100616455078 16.082000732421875 -41.773700714111328
-54.249500274658203 12.764200210571289 -40.968200683593750
-54.955799102783203 14.231599807739258 -40.889999389648438
-51.023101806640625 14.463600158691406 -40.883998870849609
-54.966999053955078 15.231599807739258 -40.887500762939453
-52.358299255371094 15.963600158691406 -40.996601104736328
-51.598899841308594 15.405799865722656 -40.937000274658203
-54.076499938964844 16.265399932861328 -40.985801696777344
-53.026199340820313 16.245300292968750 -40.846500396728516
-53.972301483154297 12.863300323486328 -39.680301666259766
-54.877700805664063 14.244099617004395 -39.901199340820313
-54.656101226806641 13.846099853515625 -39.553798675537109
-54.886100769042969 14.984299659729004 -39.650001525878906
-54.622001647949219 15.704500198364258 -39.837600708007812
-51.302398681640625 15.480199813842773 -39.739799499511719
-50.830600738525391 14.747200012207031 -39.401699066162109
-54.048099517822266 16.599800109863281 -39.656299591064453
-52.814201354980469 16.580799102783203 -39.607299804687500
-51.923500061035156 16.224399566650391 -39.409301757812500
-53.902198791503906 13.143500328063965 -38.447898864746094
-54.435199737548828 13.907099723815918 -38.340301513671875
-54.709899902343750 15.260000228881836 -38.393798828125000
-51.136901855468750 15.774700164794922 -38.406200408935547
-50.776199340820312 15.012100219726562 -38.411098480224609
-54.218898773193359 16.621099472045898 -38.390998840332031
-52.787700653076172 17.011600494384766 -38.314201354980469
-51.734401702880859 16.427299499511719 -38.402301788330078
-53.394599914550781 17.406499862670898 -37.696399688720703
-54.318401336669922 14.128299713134766 -37.134300231933594
-54.586799621582031 15.477499961853027 -37.125999450683594
-50.933300018310547 15.727600097656250 -37.641998291015625
-50.630901336669922 15.292900085449219 -37.029098510742188
-54.274799346923828 16.581600189208984 -37.070201873779297
-52.583599090576172 17.250400543212891 -37.483501434326172
-51.469799041748047 16.636800765991211 -37.095298767089844
-52.805698394775391 17.555099487304687 -36.756401062011719
-53.993499755859375 14.097200393676758 -35.762199401855469
-54.423801422119141 15.319000244140625 -35.729099273681641
-54.121601104736328 16.736499786376953 -35.640998840332031
-51.192699432373047 16.973699569702148 -35.763801574707031
-53.713798522949219 17.614099502563477 -35.633899688720703
-52.741001129150391 17.972799301147461 -35.557598114013672
-51.700698852539062 17.701700210571289 -35.536399841308594
-54.152000427246094 15.401399612426758 -34.516101837158203
-54.006099700927734 16.659299850463867 -34.430599212646484
-53.747200012207031 17.982299804687500 -34.395000457763672
-53.819499969482422 15.317999839782715 -33.225601196289063
-50.334800720214844 15.291199684143066 -35.654998779296875
-50.662700653076172 13.981100082397461 -37.181400299072266
-50.721500396728516 13.997900009155273 -38.445999145507812
-50.800899505615234 13.970899581909180 -39.649700164794922
-50.905300140380859 13.731300354003906 -40.894599914550781
-51.236000061035156 12.739800453186035 -42.141101837158203
-51.265098571777344 12.769200325012207 -43.597900390625000
-51.347499847412109 12.727800369262695 -44.897598266601563
-51.447101593017578 12.730600357055664 -46.142200469970703
-51.604999542236328 12.763299942016602 -47.401599884033203
-51.779998779296875 12.739500045776367 -48.598999023437500
-51.856899261474609 11.474200248718262 -50.145801544189453
-51.962200164794922 11.483799934387207 -51.392200469970703
-52.163898468017578 12.246800422668457 -52.396099090576172
-52.078701019287109 11.520500183105469 -52.640098571777344
-52.202899932861328 11.492799758911133 -53.777099609375000
-52.297698974609375 11.757599830627441 -54.156200408935547
-52.390499114990234 11.484299659729004 -55.146301269531250
-54.062301635742187 8.979969978332520 -55.033401489257812
-52.623901367187500 11.520999908447266 -56.641399383544922
-54.175598144531250 8.598629951477051 -56.700199127197266
-52.891899108886719 11.588199615478516 -57.928100585937500
-54.104900360107422 8.436590194702148 -57.819999694824219
-53.090499877929687 11.563899993896484 -59.144001007080078
-54.169898986816406 8.056469917297363 -59.256698608398438
-55.574798583984375 6.902050018310547 -63.318199157714844
-54.942199707031250 6.969759941101074 -64.173400878906250
-55.556301116943359 6.799809932708740 -64.243202209472656
-55.413299560546875 6.682350158691406 -65.813400268554688
-55.428600311279297 6.354129791259766 -66.953399658203125
-55.578300476074219 5.941070079803467 -68.195800781250000
-56.680999755859375 5.353929996490479 -69.735603332519531
-57.241901397705078 5.335299968719482 -70.566802978515625
-59.000900268554687 6.342820167541504 -71.386901855468750
-57.933200836181641 5.213210105895996 -71.353897094726563
-58.513999938964844 5.681149959564209 -71.507698059082031
-50.322601318359375 20.497299194335937 -26.584499359130859
-49.845699310302734 19.814199447631836 -26.926500320434570
-50.679500579833984 20.232500076293945 -27.895299911499023
-50.045501708984375 19.616800308227539 -27.913700103759766
-49.278701782226563 18.951499938964844 -28.002199172973633
-49.449199676513672 18.704399108886719 -28.882699966430664
-50.331501007080078 19.327400207519531 -29.168500900268555
-51.127300262451172 19.803300857543945 -29.673400878906250
-50.594799041748047 18.988800048828125 -30.489299774169922
-51.430900573730469 19.544599533081055 -30.705299377441406
-50.844100952148437 18.816900253295898 -31.431499481201172
-51.562999725341797 19.163499832153320 -31.826799392700195
-50.400699615478516 18.016700744628906 -31.841699600219727
-51.778198242187500 18.858400344848633 -32.992900848388672
-50.713100433349609 17.781099319458008 -33.099399566650391
-51.204799652099609 18.361499786376953 -33.296501159667969
-50.264499664306641 16.732900619506836 -33.136798858642578
-53.666599273681641 17.947099685668945 -33.194301605224609
-51.411598205566406 18.000900268554687 -34.373798370361328
-50.639099121093750 16.807899475097656 -34.363201141357422
-52.818199157714844 18.260099411010742 -34.375301361083984
-50.746200561523438 16.324399948120117 -35.540199279785156
-53.426101684570313 17.981599807739258 -26.644699096679688
-53.378398895263672 17.974599838256836 -27.894599914550781
-53.509799957275391 16.733699798583984 -27.894599914550781
-53.398601531982422 17.979400634765625 -29.144899368286133
-53.503101348876953 16.734399795532227 -29.079200744628906
-53.533798217773438 16.737400054931641 -29.638399124145508
-53.478698730468750 18.037900924682617 -30.540399551391602
-53.577201843261719 16.733600616455078 -30.633399963378906
-53.457199096679688 15.478899955749512 -30.641500473022461
-53.561798095703125 17.743000030517578 -31.133699417114258
-53.583198547363281 17.998600006103516 -31.880300521850586
-53.667098999023438 16.731800079345703 -31.899099349975586
-53.505599975585938 15.216099739074707 -31.636600494384766
-53.596698760986328 15.597299575805664 -31.891300201416016
-53.807399749755859 16.781999588012695 -33.103199005126953
-49.321498870849609 16.794000625610352 -25.360900878906250
-49.444301605224609 16.991699218750000 -26.642299652099609
-49.735198974609375 16.233400344848633 -26.641000747680664
-49.782600402832031 16.246200561523437 -27.806100845336914
-49.332199096679688 16.944200515747070 -28.035200119018555
-50.281898498535156 15.310999870300293 -29.202100753784180
-48.999401092529297 17.905099868774414 -29.262599945068359
-49.081001281738281 17.008100509643555 -29.185600280761719
-49.840499877929687 16.591100692749023 -29.268600463867187
-49.699600219726563 18.422899246215820 -29.751800537109375
-49.465900421142578 17.699300765991211 -30.250499725341797
-49.331600189208984 16.895999908447266 -30.293800354003906
-49.960800170898438 18.181800842285156 -30.659799575805664
-49.916900634765625 16.483100891113281 -30.644500732421875
-50.192199707031250 15.302000045776367 -30.699300765991211
-49.885898590087891 16.810400009155273 -31.795700073242187
-50.040298461914063 15.342700004577637 -31.846599578857422
-50.395801544189453 14.721099853515625 -32.142898559570313
-50.046699523925781 15.540900230407715 -34.415100097656250
-53.118499755859375 18.121700286865234 -24.015600204467773
-52.620700836181641 17.022300720214844 -24.145900726318359
-48.843898773193359 19.454299926757813 -25.433500289916992
-48.620498657226563 17.416700363159180 -25.079900741577148
-53.079700469970703 19.229799270629883 -25.390899658203125
-52.589500427246094 16.642499923706055 -25.145399093627930
-48.981098175048828 19.177700042724609 -26.636899948120117
-53.086898803710938 19.187700271606445 -26.639499664306641
-53.121299743652344 19.173999786376953 -27.921699523925781
-52.549598693847656 18.006500244140625 -22.707300186157227
-49.209098815917969 20.540599822998047 -24.045600891113281
-52.338699340820312 17.132600784301758 -22.777000427246094
-48.071300506591797 18.948099136352539 -24.069900512695313
-48.582698822021484 19.579399108886719 -24.282300949096680
-47.448200225830078 17.868099212646484 -24.253000259399414
-46.920501708984375 16.989500045776367 -24.395099639892578
-53.139499664306641 19.224000930786133 -24.142000198364258
-48.619899749755859 17.427799224853516 -24.462400436401367
-49.252899169921875 16.722200393676758 -24.186000823974609
-47.109600067138672 17.140199661254883 -24.650400161743164
-49.384998321533203 20.101600646972656 -25.321800231933594
-50.226398468017578 15.364899635314941 -24.101600646972656
-48.206501007080078 18.777500152587891 -25.319099426269531
-49.666599273681641 16.078699111938477 -24.408199310302734
-52.119201660156250 16.307300567626953 -24.142099380493164
-47.033798217773437 17.161300659179687 -25.145999908447266
-51.715099334716797 15.664299964904785 -24.158399581909180
-47.551498413085937 17.990800857543945 -25.416200637817383
-53.613399505615234 17.777200698852539 -24.652399063110352
-46.933200836181641 17.225700378417969 -25.643499374389648
-50.894901275634766 21.264200210571289 -26.157899856567383
-49.698299407958984 16.092800140380859 -25.154499053955078
-53.450599670410156 18.240600585937500 -25.395799636840820
-52.134998321533203 16.105199813842773 -25.117200851440430
-51.643901824951172 21.510299682617188 -26.576700210571289
-53.564998626708984 17.763099670410156 -25.403600692749023
-50.341201782226563 15.313799858093262 -25.418699264526367
-46.756698608398437 17.232200622558594 -26.479000091552734
-51.840900421142578 15.624799728393555 -25.321199417114258
-53.658100128173828 16.811300277709961 -25.426500320434570
-47.671199798583984 17.989700317382813 -26.653999328613281
-51.197200775146484 21.124000549316406 -26.927600860595703
-46.844398498535156 17.329500198364258 -27.154100418090820
-51.736900329589844 15.300200462341309 -26.287500381469727
-50.279399871826172 15.312500000000000 -26.558099746704102
-46.873600006103516 17.292800903320313 -27.656700134277344
-51.471099853515625 20.806100845336914 -27.932399749755859
-53.583499908447266 16.734399795532227 -26.647100448608398
-51.185501098632813 14.114899635314941 -26.392099380493164
-47.795398712158203 17.711099624633789 -27.884599685668945
-52.659999847412109 20.616199493408203 -27.930299758911133
-48.630100250244141 18.354799270629883 -28.130800247192383
-47.269298553466797 17.131000518798828 -28.112100601196289
-53.434600830078125 15.731499671936035 -27.144399642944336
-47.891601562500000 17.508499145507813 -28.659000396728516
-50.232299804687500 15.260299682617188 -27.891799926757813
-51.527198791503906 20.302000045776367 -29.059700012207031
-47.831600189208984 17.096099853515625 -28.819599151611328
-53.558399200439453 16.734100341796875 -27.895399093627930
-52.757900238037109 20.329099655151367 -29.147800445556641
-53.425800323486328 15.732600212097168 -28.143899917602539
-53.181701660156250 19.156499862670898 -29.090999603271484
-51.885898590087891 20.037900924682617 -30.161899566650391
-52.655300140380859 20.138999938964844 -30.118000030517578
-53.488998413085938 15.726799964904785 -29.391799926757813
-53.081001281738281 19.331199645996094 -30.692699432373047
-51.232799530029297 14.099100112915039 -30.193700790405273
-50.302600860595703 14.318300247192383 -30.418800354003906
-52.995899200439453 19.214700698852539 -31.951099395751953
-53.695800781250000 15.243499755859375 -30.883499145507813
-53.541698455810547 18.997699737548828 -32.887401580810547
-52.783500671386719 18.939599990844727 -33.043701171875000
-53.602298736572266 14.365400314331055 -31.885099411010742
-53.282398223876953 13.714900016784668 -31.801799774169922
-52.646499633789063 12.776399612426758 -31.883899688720703
-53.756698608398438 14.238400459289551 -33.059101104736328
-53.373100280761719 13.682000160217285 -33.014900207519531
-52.728199005126953 12.927599906921387 -33.182899475097656
-50.600200653076172 13.965299606323242 -34.631999969482422
-51.504600524902344 12.950799942016602 -34.318099975585938
-53.904899597167969 14.371800422668457 -34.488098144531250
-53.465999603271484 13.700499534606934 -34.389400482177734
-52.818698883056641 12.938300132751465 -34.368000030517578
-53.520599365234375 13.657899856567383 -35.125900268554687
-50.549301147460938 13.947500228881836 -35.789699554443359
-51.449199676513672 12.922200202941895 -35.736301422119141
-52.911399841308594 12.906399726867676 -35.679500579833984
-51.419601440429688 12.866399765014648 -37.181400299072266
-52.866199493408203 12.611800193786621 -37.115699768066406
-53.701198577880859 13.251600265502930 -37.248001098632812
-51.416900634765625 12.719499588012695 -38.396999359130859
-52.923599243164062 12.426400184631348 -38.386600494384766
-51.276401519775391 12.732600212097168 -39.647300720214844
-53.263500213623047 12.272100448608398 -39.529598236083984
-52.661899566650391 11.982500076293945 -39.755298614501953
-51.925998687744141 12.055999755859375 -40.149200439453125
-51.206298828125000 12.739899635314941 -40.893299102783203
-53.493499755859375 12.134099960327148 -40.616298675537109
-51.897800445556641 11.937800407409668 -40.888999938964844
-52.814201354980469 11.854299545288086 -40.851699829101563
-53.566001892089844 11.989000320434570 -41.336498260498047
-51.809799194335937 11.859100341796875 -42.151100158691406
-52.904800415039062 11.530699729919434 -42.264400482177734
-55.174198150634766 15.615699768066406 -43.634998321533203
-51.842601776123047 11.638699531555176 -43.654598236083984
-52.884799957275391 11.399200439453125 -43.646598815917969
-56.478801727294922 14.168199539184570 -44.161201477050781
-56.459300994873047 14.455599784851074 -44.656700134277344
-51.783298492431641 11.572400093078613 -44.894199371337891
-52.905700683593750 11.112899780273438 -44.869800567626953
-53.926399230957031 16.322900772094727 -47.038101196289063
-51.801300048828125 11.470700263977051 -46.138099670410156
-54.152198791503906 15.657999992370605 -47.267200469970703
-52.953800201416016 10.685500144958496 -46.650600433349609
-51.896800994873047 11.241399765014648 -47.395900726318359
-52.843898773193359 15.561400413513184 -48.383598327636719
-56.483898162841797 12.309200286865234 -47.169399261474609
-52.991401672363281 10.513999938964844 -47.416000366210938
-55.486099243164063 15.232600212097168 -48.709598541259766
-56.430301666259766 15.257699966430664 -48.769100189208984
-51.832801818847656 11.343700408935547 -48.590999603271484
-52.134399414062500 14.778599739074707 -49.614299774169922
-52.777500152587891 10.334899902343750 -48.603199005126953
-52.035900115966797 10.784600257873535 -49.146400451660156
-55.426300048828125 14.840800285339355 -49.909099578857422
-56.425598144531250 14.765399932861328 -50.149101257324219
-56.357799530029297 14.109800338745117 -50.145900726318359
-55.175498962402344 14.701999664306641 -50.639598846435547
-52.127601623535156 10.672699928283691 -50.138099670410156
-52.927501678466797 10.112700462341309 -50.082000732421875
-55.417400360107422 14.488800048828125 -51.406700134277344
-56.532100677490234 13.732500076293945 -51.374599456787109
-52.099601745605469 10.616999626159668 -51.477001190185547
-52.847698211669922 9.923600196838379 -51.368198394775391
-55.419200897216797 14.232700347900391 -52.644401550292969
-56.367500305175781 13.971199989318848 -52.651401519775391
-52.139099121093750 10.626500129699707 -52.517398834228516
-52.696498870849609 9.830760002136231 -52.553798675537109
-53.310298919677734 9.432550430297852 -52.892898559570312
-55.350700378417969 13.986399650573730 -53.924800872802734
-56.552700042724609 13.959600448608398 -53.761798858642578
-52.205600738525391 10.723999977111816 -53.891201019287109
-57.437698364257813 14.003000259399414 -54.098701477050781
-52.534000396728516 9.851249694824219 -53.889099121093750
-53.261299133300781 9.335200309753418 -53.906700134277344
-56.464599609375000 13.612199783325195 -54.648399353027344
-55.422901153564453 13.737000465393066 -55.144901275634766
-52.405300140380859 10.167699813842773 -55.096099853515625
-53.053199768066406 9.166480064392090 -55.220600128173828
-55.333198547363281 13.492300033569336 -56.396198272705078
-56.740699768066406 12.719599723815918 -56.587501525878906
-52.438999176025391 10.236399650573730 -56.644100189208984
-55.545398712158203 13.341400146484375 -57.037300109863281
-53.039600372314453 8.992779731750488 -56.600799560546875
-55.428600311279297 13.150400161743164 -57.876800537109375
-56.729400634765625 12.881299972534180 -57.875099182128906
-52.477401733398438 10.229800224304199 -57.891799926757813
-53.026298522949219 8.842980384826660 -57.890598297119141
-50.522701263427734 8.597370147705078 -58.257301330566406
-50.430301666259766 9.251689910888672 -58.609298706054687
-51.398899078369141 8.587050437927246 -58.410499572753906
-51.193801879882813 8.805379867553711 -58.514598846435547
-50.683799743652344 9.771800041198731 -59.079101562500000
-55.414699554443359 12.854700088500977 -59.169898986816406
-52.476299285888672 10.219400405883789 -59.141799926757813
-56.769798278808594 12.568499565124512 -59.171600341796875
-53.062999725341797 8.509160041809082 -59.033798217773437
-54.321098327636719 12.357000350952148 -60.319000244140625
-53.728698730468750 11.943099975585938 -60.441101074218750
-53.237098693847656 11.418299674987793 -60.397998809814453
-53.398700714111328 8.160779953002930 -59.626899719238281
-55.417800903320313 12.558600425720215 -60.479198455810547
-52.560798645019531 10.350299835205078 -60.391700744628906
-56.682498931884766 12.456999778747559 -60.301799774169922
-54.404701232910156 12.258799552917480 -61.148899078369141
-53.220401763916016 8.105400085449219 -60.286899566650391
-52.569499969482422 8.644980430603027 -60.527801513671875
-54.114700317382813 7.854599952697754 -60.347499847412109
-54.018600463867187 11.823800086975098 -61.688899993896484
-53.246299743652344 11.160599708557129 -61.644100189208984
-55.417701721191406 12.282699584960938 -61.654499053955078
-52.686798095703125 10.266900062561035 -61.637901306152344
-56.760101318359375 12.279399871826172 -61.569801330566406
-57.233398437500000 11.721899986267090 -61.623001098632813
-52.718898773193359 8.739859580993652 -61.592498779296875
-53.249698638916016 7.953949928283691 -61.853298187255859
-54.108299255371094 7.488790035247803 -61.686500549316406
-53.317401885986328 10.981800079345703 -62.825500488281250
-57.415599822998047 12.257399559020996 -62.654499053955078
-57.455799102783203 11.971199989318848 -62.692199707031250
-54.082698822021484 11.501799583435059 -63.140499114990234
-55.479499816894531 11.926199913024902 -63.209899902343750
-52.906501770019531 10.277600288391113 -63.195098876953125
-56.724498748779297 11.749099731445313 -63.074100494384766
-52.704399108886719 8.948619842529297 -63.141101837158203
-53.107898712158203 7.705880165100098 -63.221099853515625
-54.119499206542969 7.068789958953857 -62.997798919677734
-54.191600799560547 11.284000396728516 -64.278503417968750
-53.112300872802734 10.298899650573730 -64.367897033691406
-55.431198120117187 11.658300399780273 -64.379203796386719
-53.999900817871094 6.916120052337647 -63.652500152587891
-52.746898651123047 8.977649688720703 -64.396301269531250
-53.085300445556641 7.616449832916260 -64.395401000976563
-54.126899719238281 6.952690124511719 -64.141799926757813
-54.233299255371094 11.063799858093262 -65.462196350097656
-54.002799987792969 6.818600177764893 -64.524299621582031
-53.129001617431641 10.041099548339844 -65.578498840332031
-53.707199096679688 10.656700134277344 -65.729598999023438
-55.402698516845703 11.366600036621094 -65.662101745605469
-52.793498992919922 8.985569953918457 -65.644500732421875
-56.777801513671875 11.240200042724609 -65.647796630859375
-57.851600646972656 10.986599922180176 -65.643302917480469
-53.042400360107422 7.597159862518311 -65.642196655273437
-54.027698516845703 6.670810222625732 -65.582801818847656
-54.408000946044922 10.949899673461914 -66.895401000976562
-53.753601074218750 10.615900039672852 -66.917602539062500
-53.249000549316406 9.967080116271973 -66.891197204589844
-55.441001892089844 11.169099807739258 -66.884300231933594
-53.515899658203125 6.809949874877930 -66.167098999023437
-56.665100097656250 11.102000236511230 -66.871002197265625
-52.882701873779297 8.834230422973633 -66.943298339843750
-52.974300384521484 7.548460006713867 -66.804801940917969
-54.036499023437500 10.919500350952148 -67.795997619628906
-53.310398101806641 6.810150146484375 -66.916000366210937
-54.025501251220703 6.413939952850342 -66.870903015136719
-56.465301513671875 10.921799659729004 -67.656097412109375
-55.431598663330078 10.939599990844727 -67.973999023437500
-53.243400573730469 10.226799964904785 -68.198699951171875
-52.862598419189453 8.735750198364258 -68.134902954101563
-52.855998992919922 7.473040103912354 -68.136703491210937
-55.422100067138672 10.818200111389160 -68.640502929687500
-53.928100585937500 6.182559967041016 -67.877799987792969
-53.243598937988281 6.643760204315186 -68.148696899414063
-55.075698852539063 10.913800239562988 -69.325798034667969
-52.977401733398437 9.998689651489258 -69.469001770019531
-54.189899444580078 10.660799980163574 -69.564201354980469
-52.705001831054688 8.755700111389160 -69.582397460937500
-55.800701141357422 10.650699615478516 -69.631599426269531
-52.781898498535156 7.577730178833008 -69.486396789550781
-56.808101654052734 10.444399833679199 -69.628898620605469
-55.433200836181641 5.319859981536865 -68.803001403808594
-53.716499328613281 5.809949874877930 -69.371498107910156
-53.206401824951172 6.384459972381592 -69.694000244140625
-55.328601837158203 5.084280014038086 -69.041496276855469
-53.997299194335938 4.992489814758301 -69.439697265625000
-55.105098724365234 3.831850051879883 -69.082702636718750
-53.057899475097656 9.972310066223145 -71.021202087402344
-52.656799316406250 8.799189567565918 -70.829498291015625
-53.790901184082031 10.538299560546875 -71.173400878906250
-55.519100189208984 10.372799873352051 -70.954002380371094
-54.146499633789063 3.725719928741455 -69.599601745605469
-52.526401519775391 7.624509811401367 -70.874496459960938
-56.909500122070313 10.226300239562988 -70.898399353027344
-53.416000366210937 4.982709884643555 -70.135696411132812
-52.742401123046875 6.201779842376709 -70.754798889160156
-53.442901611328125 4.234660148620606 -70.166297912597656
-52.341899871826172 8.885780334472656 -71.709800720214844
-59.265399932861328 8.539239883422852 -70.576301574707031
-52.788501739501953 4.992680072784424 -70.738601684570313
-52.821998596191406 9.905730247497559 -72.030799865722656
-52.224300384521484 7.266809940338135 -71.451103210449219
-54.283000946044922 2.660209894180298 -70.038398742675781
-53.631301879882813 3.307820081710815 -70.370903015136719
-52.175399780273438 6.259319782257080 -71.390800476074219
-52.894100189208984 3.732029914855957 -70.856697082519531
-55.425300598144531 10.250599861145020 -72.144401550292969
-52.157199859619141 4.981299877166748 -71.360801696777344
-51.818099975585937 8.732549667358398 -72.375900268554688
-51.636600494384766 7.633190155029297 -72.173301696777344
-56.907798767089844 10.151800155639648 -72.143898010253906
-52.145500183105469 4.222249984741211 -71.357696533203125
-51.560100555419922 6.242949962615967 -72.027702331542969
-53.929798126220703 2.596820116043091 -70.744697570800781
-54.184398651123047 9.955530166625977 -72.627197265625000
-51.936798095703125 13.689399719238281 -73.955902099609375
-51.726200103759766 12.721400260925293 -73.744796752929687
-60.854598999023438 4.204209804534912 -70.181396484375000
-52.965698242187500 12.684499740600586 -73.560600280761719
-52.837398529052734 13.691499710083008 -73.912902832031250
-54.037200927734375 12.874799728393555 -73.525901794433594
-51.432998657226562 9.085200309753418 -72.973701477050781
-51.069698333740234 8.178130149841309 -72.812500000000000
-57.806198120117188 9.791230201721191 -72.249198913574219
-51.792301177978516 10.088899612426758 -73.256202697753906
-59.439998626708984 5.156310081481934 -70.836196899414063
-51.681900024414063 11.479000091552734 -73.641998291015625
-54.226299285888672 14.024399757385254 -73.907699584960937
-51.540699005126953 4.975759983062744 -72.015998840332031
-50.826999664306641 8.277079582214356 -72.984001159667969
-53.237800598144531 2.804199934005737 -71.271003723144531
-52.848499298095703 11.550100326538086 -73.586196899414063
-52.937599182128906 14.363900184631348 -74.294898986816406
-50.773101806640625 7.776209831237793 -72.944602966308594
-52.340198516845703 3.182280063629150 -71.536697387695313
-54.184600830078125 14.704700469970703 -74.199897766113281
-51.683200836181641 14.374799728393555 -74.516700744628906
-52.952301025390625 10.141799926757812 -73.257202148437500
-54.946800231933594 13.997099876403809 -74.044998168945312
-60.667499542236328 4.965229988098145 -70.888603210449219
-51.794200897216797 3.677700042724609 -71.942703247070313
-54.228900909423828 15.408699989318848 -74.583999633789063
-52.921100616455078 15.283900260925293 -74.813201904296875
-55.282398223876953 15.373600006103516 -74.517097473144531
-51.945899963378906 15.180700302124023 -74.978797912597656
-61.094699859619141 4.037769794464111 -70.802398681640625
-54.255298614501953 9.943900108337402 -73.361198425292969
-54.462699890136719 3.169919967651367 -71.599296569824219
-55.425899505615234 10.227899551391602 -73.392402648925781
-58.078498840332031 4.895090103149414 -71.650497436523438
-59.680698394775391 7.698100090026856 -72.123802185058594
-52.970298767089844 16.128599166870117 -75.306396484375000
-52.507198333740234 16.056800842285156 -75.408203125000000
-52.825401306152344 2.290990114212036 -71.857803344726563
-55.553699493408203 14.100700378417969 -74.462699890136719
-59.501998901367188 6.144480228424072 -71.890098571777344
-56.799999237060547 10.075599670410156 -73.360900878906250
-54.403800964355469 12.440500259399414 -74.375801086425781
-59.035999298095703 5.287479877471924 -71.890602111816406
-55.335998535156250 3.317990064620972 -71.973197937011719
-53.420898437500000 11.407699584960937 -74.364601135253906
-60.561599731445313 5.371449947357178 -71.755897521972656
-57.723400115966797 9.788700103759766 -73.341400146484375
-54.220500946044922 2.533469915390015 -72.035400390625000
-53.864299774169922 11.835599899291992 -74.513702392578125
-52.896099090576172 1.709290027618408 -72.100097656250000
-59.810901641845703 8.127369880676270 -72.865196228027344
-60.221099853515625 7.539760112762451 -72.658897399902344
-55.442001342773438 12.822099685668945 -74.796600341796875
-58.290798187255859 9.215749740600586 -73.440902709960938
-57.468799591064453 4.134990215301514 -72.333099365234375
-54.209800720214844 10.156399726867676 -74.413002014160156
-60.567600250244141 6.278820037841797 -72.462799072265625
-56.280399322509766 14.057999610900879 -75.113502502441406
-55.507301330566406 10.353099822998047 -74.299102783203125
-55.054401397705078 2.785749912261963 -72.511001586914063
-59.421901702880859 8.556249618530273 -73.325996398925781
-60.895801544189453 7.716589927673340 -72.961898803710938
-56.941898345947266 3.695260047912598 -72.599700927734375
-60.152801513671875 4.034880161285400 -72.386802673339844
-55.358100891113281 11.426400184631348 -75.009399414062500
-61.571300506591797 8.035810470581055 -73.226303100585937
-60.703899383544922 8.581729888916016 -73.521003723144531
-56.799301147460938 10.363400459289551 -74.670600891113281
-55.274101257324219 2.548110008239746 -72.989402770996094
-56.617801666259766 13.753700256347656 -75.689498901367188
-55.611499786376953 12.085000038146973 -75.485099792480469
-59.598598480224609 3.971970081329346 -72.844497680664063
-56.833698272705078 3.294379949569702 -73.208900451660156
-56.583999633789063 11.147399902343750 -75.271102905273438
-57.795501708984375 9.799189567565918 -74.787399291992188
-58.330200195312500 9.377079963684082 -74.636497497558594
-55.998199462890625 12.375499725341797 -75.784896850585937
-56.300300598144531 12.740900039672852 -76.042503356933594
-57.254100799560547 10.588700294494629 -75.407096862792969
-59.372501373291016 9.080340385437012 -74.698799133300781
-57.055000305175781 11.234100341796875 -75.763496398925781
-60.551300048828125 8.986559867858887 -74.690399169921875
-57.504199981689453 3.124209880828857 -73.719703674316406
-58.059501647949219 10.362999916076660 -75.668098449707031
-57.017601013183594 2.567179918289185 -73.976699829101563
-57.948200225830078 11.222999572753906 -76.150199890136719
-59.700698852539062 9.403240203857422 -75.517997741699219
-59.368198394775391 10.204799652099609 -75.952400207519531
-59.390598297119141 11.188500404357910 -76.413803100585938
-50.162101745605469 14.055899620056152 -27.880800247192383
-47.942798614501953 15.159999847412109 -34.439701080322266
