ply
format ascii 1.0
element vertex 262
property double x
property double y
property double z
end_header
-3.935129880905151 7.920589923858643 -13.706600189208984
-3.864130020141602 7.821589946746826 -13.713600158691406
-3.910130023956299 7.902589797973633 -13.575599670410156
-3.928129911422730 8.020589828491211 -13.540599822998047
-3.794130086898804 7.784589767456055 -13.608599662780762
-3.870130062103272 8.112589836120606 -13.615599632263184
-3.858129978179932 7.799590110778809 -13.507599830627441
-3.930130004882813 7.929590225219727 -13.451600074768066
-3.678129911422730 7.764589786529541 -13.642600059509277
-3.804130077362061 8.197589874267578 -13.681599617004395
-3.841130018234253 8.190589904785156 -13.513600349426270
-3.883130073547363 7.829589843750000 -13.375599861145020
-3.902129888534546 8.121589660644531 -13.420599937438965
-3.762130022048950 7.767590045928955 -13.439599990844727
-3.664129972457886 7.773590087890625 -13.516599655151367
-3.925129890441895 7.925590038299561 -13.315600395202637
-3.733129978179932 8.233590126037598 -13.575599670410156
-3.940129995346069 8.046600341796875 -13.330599784851074
-3.570130109786987 7.800590038299561 -13.598600387573242
-3.878129959106445 7.831600189208984 -13.254599571228027
-3.934129953384399 7.931590080261231 -13.170599937438965
-3.947129964828491 8.059590339660645 -13.176600456237793
-3.779129981994629 7.783589839935303 -13.314599990844727
-3.802129983901978 7.803599834442139 -13.163599967956543
-3.940129995346069 7.928599834442139 -13.040599822998047
-3.888129949569702 8.192600250244141 -13.292599678039551
-3.926130056381226 8.180589675903320 -13.163599967956543
-3.690129995346069 7.784589767456055 -13.220600128173828
-3.821130037307739 8.223589897155762 -13.395600318908691
-3.953130006790161 8.045590400695801 -12.980600357055664
-3.644129991531372 7.773590087890625 -13.352600097656250
-3.769129991531372 7.786590099334717 -13.044599533081055
-3.867130041122437 7.835589885711670 -12.977600097656250
-3.800129890441895 8.255599975585938 -13.220600128173828
-3.950129985809326 7.934589862823486 -12.920599937438965
-3.710129976272583 8.244589805603027 -13.326600074768066
-3.596129894256592 7.837590217590332 -13.142600059509277
-3.551130056381226 7.855589866638184 -13.283599853515625
-3.572129964828491 8.082590103149414 -13.266599655151367
-3.950129985809326 8.175589561462402 -12.981599807739258
-3.962130069732666 8.061590194702148 -12.844599723815918
-3.931129932403565 7.894599914550781 -12.777600288391113
-3.837130069732666 7.820590019226074 -12.811599731445313
-3.973129987716675 8.025600433349609 -12.704600334167480
-3.943130016326904 8.183589935302734 -12.860600471496582
-3.958129882812500 8.140589714050293 -12.742600440979004
-3.753129959106445 7.779590129852295 -12.915599822998047
-3.955130100250244 7.916590213775635 -12.633600234985352
-3.836129903793335 7.825590133666992 -12.673600196838379
-3.721129894256592 7.804590225219727 -12.774600028991699
-3.645129919052124 7.826590061187744 -12.883600234985352
-3.964129924774170 8.120590209960938 -12.614600181579590
-3.722130060195923 8.196590423583984 -12.952599525451660
-3.628129959106445 8.071590423583984 -12.938599586486816
-3.870130062103272 8.268600463867188 -12.802599906921387
-3.669130086898804 8.140589714050293 -12.807600021362305
-3.891129970550537 8.267589569091797 -13.033599853515625
-3.976130008697510 8.009590148925781 -12.552599906921387
-3.591130018234253 7.927589893341065 -12.962599754333496
-3.737129926681519 8.239589691162109 -12.840600013732910
-3.646130084991455 7.796599864959717 -13.037599563598633
-3.619129896163940 7.871590137481690 -12.758600234985352
-3.589129924774170 7.998600006103516 -12.831600189208984
-3.781130075454712 8.225589752197266 -12.721599578857422
-3.805130004882813 8.287590026855469 -12.946599960327148
-3.894129991531372 8.231590270996094 -12.663599967956543
-3.660130023956299 8.139590263366699 -13.045599937438965
-3.694129943847656 7.841589927673340 -12.646599769592285
-3.613130092620850 8.006589889526367 -12.705599784851074
-3.692130088806152 8.139590263366699 -12.665599822998047
-3.877130031585693 7.842589855194092 -12.521599769592285
-3.965130090713501 7.915589809417725 -12.471599578857422
-3.967129945755005 8.095600128173828 -12.461600303649902
-3.981129884719849 7.932590007781982 -12.344599723815918
-3.979130029678345 8.058589935302734 -12.344599723815918
-3.880130052566528 7.829589843750000 -12.393600463867188
-3.930130004882813 8.208589553833008 -12.532600402832031
-3.935129880905151 8.183589935302734 -12.385600090026855
-3.759130001068115 7.815589904785156 -12.527600288391113
-3.822129964828491 8.221590042114258 -12.473600387573242
-3.943130016326904 7.871590137481690 -12.244600296020508
-3.740129947662354 7.846590042114258 -12.362600326538086
-3.682130098342896 7.888589859008789 -12.468600273132324
-3.779129981994629 8.212590217590332 -12.598600387573242
-3.995130062103272 8.036589622497559 -12.200599670410156
-3.825129985809326 7.809589862823486 -12.276599884033203
-3.639130115509033 7.999589920043945 -12.484600067138672
-3.709130048751831 8.184590339660645 -12.490599632263184
-3.649130105972290 7.941589832305908 -12.589599609375000
-3.640130043029785 8.063590049743652 -12.586600303649902
-3.911129951477051 8.206600189208984 -12.254599571228027
-3.790129899978638 8.225589752197266 -12.328599929809570
-3.659130096435547 7.949600219726563 -12.317600250244141
-3.622129917144775 8.050589561462402 -12.374600410461426
-3.991130113601685 7.923590183258057 -12.146599769592285
-3.670130014419556 8.172590255737305 -12.330599784851074
-3.730129957199097 7.864590167999268 -12.215600013732910
-3.949130058288574 8.143600463867188 -12.147600173950195
-3.870130062103272 7.816589832305908 -12.150600433349609
-4.002130031585693 8.038590431213379 -12.073599815368652
-4.010129928588867 7.926589965820313 -11.970600128173828
-4.013130187988281 8.060600280761719 -11.947600364685059
-3.943130016326904 8.153590202331543 -12.023599624633789
-3.960129976272583 7.841589927673340 -12.048600196838379
-3.819129943847656 8.203590393066406 -12.042599678039551
-3.753129959106445 7.861589908599854 -12.079600334167480
-3.871129989624023 8.163590431213379 -11.909600257873535
-3.854130029678345 7.800590038299561 -11.963600158691406
-3.894129991531372 8.258589744567871 -12.134599685668945
-3.971129894256592 7.838600158691406 -11.880599975585938
-3.977129936218262 8.135589599609375 -11.855600357055664
-3.704129934310913 7.947589874267578 -11.980600357055664
-3.669130086898804 7.959589958190918 -12.106599807739258
-4.030129909515381 8.039600372314453 -11.801600456237793
-3.762130022048950 7.862589836120606 -11.909600257873535
-4.027130126953125 7.918590068817139 -11.794599533081055
-3.651129961013794 8.070590019226074 -11.995599746704102
-3.698129892349243 8.033590316772461 -11.886599540710449
-3.764130115509033 8.142589569091797 -11.857600212097168
-3.626130104064941 8.012599945068359 -12.211600303649902
-3.783129930496216 8.304590225219727 -12.168600082397461
-3.705130100250244 8.228590011596680 -12.226599693298340
-3.602129936218262 8.067600250244141 -12.107600212097168
-3.793129920959473 7.854589939117432 -11.787599563598633
-3.888129949569702 7.780590057373047 -11.794599533081055
-3.719130039215088 7.959589958190918 -11.790599822998047
-3.901129961013794 8.152589797973633 -11.734600067138672
-3.608129978179932 8.141590118408203 -12.220600128173828
-4.008130073547363 8.105589866638184 -11.680600166320801
-4.033130168914795 7.921599864959717 -11.647600173950195
-4.049129962921143 8.025600433349609 -11.573599815368652
-3.925129890441895 8.159589767456055 -11.607600212097168
-3.975130081176758 7.813590049743652 -11.700599670410156
-4.046130180358887 7.917590141296387 -11.514599800109863
-4.017129898071289 8.115590095520020 -11.487600326538086
-3.800129890441895 7.889589786529541 -11.644599914550781
-3.762130022048950 8.128589630126953 -11.707599639892578
-3.762130022048950 8.056590080261231 -11.585599899291992
-3.807130098342896 8.174590110778809 -11.587599754333496
-4.004129886627197 7.816589832305908 -11.566599845886230
-3.883130073547363 7.802589893341065 -11.620599746704102
-3.911129951477051 8.183589935302734 -11.484600067138672
-3.778130054473877 7.977600097656250 -11.496600151062012
-3.820130109786987 7.860589981079102 -11.519599914550781
-4.057129859924316 8.000590324401856 -11.406599998474121
-3.801130056381226 8.132590293884277 -11.444600105285645
-3.992130041122437 8.156590461730957 -11.377599716186523
-4.088129997253418 7.872590065002441 -11.386599540710449
-3.785130023956299 7.893599987030029 -11.389599800109863
-3.878129959106445 8.192600250244141 -11.347599983215332
-4.082129955291748 8.007590293884277 -11.269599914550781
-4.037129878997803 8.119589805603027 -11.264599800109863
-4.063129901885986 8.042590141296387 -11.117600440979004
-4.170129776000977 7.930590152740479 -11.299599647521973
-4.121129989624023 7.918590068817139 -11.186599731445313
-3.943130016326904 8.198590278625488 -11.239600181579590
-4.015130043029785 8.157600402832031 -11.141599655151367
-3.796129941940308 8.068590164184570 -11.312600135803223
-3.827130079269409 8.167590141296387 -11.233599662780762
-4.073130130767822 7.924590110778809 -11.059599876403809
-3.797130107879639 8.015589714050293 -11.144599914550781
-3.914129972457886 8.230589866638184 -11.120599746704102
-3.754129886627197 7.927589893341065 -11.263600349426270
-4.222129821777344 7.836589813232422 -11.212599754333496
-3.799129962921143 8.133589744567871 -11.114600181579590
-4.078129768371582 8.027589797973633 -10.997599601745605
-4.045129776000977 8.146590232849121 -10.966600418090820
-3.810129880905151 7.951590061187744 -11.014599800109863
-3.808130025863648 8.138589859008789 -10.993599891662598
-3.890130043029785 8.231590270996094 -10.992600440979004
-4.094130039215088 8.058589935302734 -10.853599548339844
-4.050129890441895 7.921599864959717 -10.882599830627441
-4.068130016326904 7.934589862823486 -10.761599540710449
-4.101130008697510 8.052590370178223 -10.730600357055664
-4.056129932403565 8.156590461730957 -10.783599853515625
-3.976130008697510 8.218589782714844 -10.877599716186523
-3.826129913330078 8.060600280761719 -10.895600318908691
-4.020130157470703 7.810599803924561 -10.769599914550781
-3.906130075454712 7.845600128173828 -10.801600456237793
-3.825129985809326 7.932590007781982 -10.879599571228027
-3.885129928588867 7.948589801788330 -10.720600128173828
-3.847130060195923 8.118590354919434 -10.789600372314453
-4.077129840850830 8.158590316772461 -10.656599998474121
-3.986129999160767 7.865590095520020 -10.663599967956543
-3.870130062103272 8.062589645385742 -10.685600280761719
-3.844130039215088 7.816589832305908 -10.905599594116211
-4.080130100250244 7.933589935302734 -10.603599548339844
-3.978130102157593 8.239589691162109 -10.706600189208984
-3.880130052566528 8.243590354919434 -10.799599647521973
-4.109129905700684 8.051589965820313 -10.584600448608398
-3.923130035400391 7.968589782714844 -10.598600387573242
-3.883130073547363 8.079589843750000 -10.562600135803223
-3.987129926681519 7.889589786529541 -10.534600257873535
-3.820130109786987 7.728590011596680 -10.789600372314453
-4.127130031585693 8.084589958190918 -10.442600250244141
-4.097129821777344 7.931590080261231 -10.482600212097168
-4.082129955291748 8.196590423583984 -10.455599784851074
-4.035130023956299 7.893599987030029 -10.374600410461426
-3.909130096435547 7.999589920043945 -10.456600189208984
-4.115129947662354 7.929590225219727 -10.290599822998047
-4.082129955291748 8.209589958190918 -10.332599639892578
-4.009130001068115 8.241600036621094 -10.558600425720215
-3.877130031585693 8.128589630126953 -10.451600074768066
-4.181129932403565 8.036589622497559 -10.222599983215332
-3.938129901885986 7.951590061187744 -10.282600402832031
-4.157129764556885 8.157600402832031 -10.230600357055664
-3.913130044937134 8.256589889526367 -10.470600128173828
-4.016129970550537 7.883590221405029 -10.220600128173828
-3.909130096435547 8.235589981079102 -10.343600273132324
-3.887130022048950 8.251589775085449 -10.588600158691406
-3.897130012512207 8.152589797973633 -10.249600410461426
-3.904129981994629 8.038590431213379 -10.203599929809570
-4.097129821777344 7.927589893341065 -10.137599945068359
-3.984129905700684 8.265589714050293 -10.251600265502930
-4.260129928588867 8.151599884033203 -10.161600112915039
-4.085130214691162 8.241600036621094 -10.163599967956543
-4.369130134582520 8.123600006103516 -10.110600471496582
-3.889130115509033 8.117589950561523 -10.091600418090820
-3.912130117416382 8.228590011596680 -10.133600234985352
-3.910130023956299 7.891590118408203 -10.132599830627441
-4.270130157470703 8.176589965820313 -9.884559631347656
-4.200129985809326 8.067600250244141 -9.902560234069824
-3.842129945755005 7.978590011596680 -9.893549919128418
-4.359129905700684 8.245590209960938 -9.945549964904785
-4.102129936218262 7.934589862823486 -9.942560195922852
-3.982130050659180 7.932590007781982 -9.936559677124023
-4.447130203247070 8.348589897155762 -9.981559753417969
-3.762130022048950 8.100589752197266 -9.926560401916504
-3.897130012512207 8.269599914550781 -9.954560279846191
-4.245130062103272 8.174590110778809 -10.004599571228027
-3.750129938125610 7.945590019226074 -9.972559928894043
-4.104129791259766 8.281590461730957 -10.004599571228027
-3.848129987716675 8.163590431213379 -9.988559722900391
-4.428130149841309 8.217590332031250 -10.051600456237793
-3.868129968643189 7.922589778900147 -10.006600379943848
-3.985130071640015 8.293589591979981 -10.033599853515625
-4.304130077362061 8.272589683532715 -10.060600280761719
-3.813129901885986 8.048589706420898 -10.027600288391113
-4.018129825592041 7.888589859008789 -10.054599761962891
-4.185130119323731 8.239589691162109 -10.086600303649902
-4.205130100250244 8.069589614868164 -10.088600158691406
-3.727129936218262 7.696589946746826 -10.863599777221680
-3.692130088806152 8.256589889526367 -13.135600090026855
-3.590130090713501 8.085590362548828 -13.136599540710449
-3.561130046844482 7.955589771270752 -13.143600463867188
-3.627130031585693 8.183589935302734 -13.209600448608398
-3.610130071640015 8.168589591979981 -13.395600318908691
-3.506129980087280 7.913589954376221 -13.386599540710449
-3.704129934310913 8.239589691162109 -13.454600334167480
-3.564130067825317 7.806590080261231 -13.447600364685059
-3.556129932403565 8.087590217590332 -13.470600128173828
-3.519129991531372 7.891590118408203 -13.525600433349609
-3.620130062103272 8.189590454101563 -13.540599822998047
-3.513129949569702 8.011590003967285 -13.556599617004395
-3.548130035400391 8.122590065002441 -13.635600090026855
-3.615129947662354 8.247590065002441 -13.646599769592285
-3.475130081176758 7.917590141296387 -13.665599822998047
-3.713129997253418 8.282600402832031 -13.717599868774414
-3.499130010604858 7.796599864959717 -13.696599960327148
-3.475130081176758 8.198590278625488 -13.698599815368652
-3.484129905700684 8.050589561462402 -13.713600158691406
-3.389130115509033 7.928599834442139 -13.748600006103516
