ply
format ascii 1.0
element vertex 202
property double x
property double y
property double z
end_header
-3.717129945755005 8.193590164184570 -11.978599548339844
-3.801130056381226 8.327589988708496 -12.022600173950195
-3.904129981994629 8.383589744567871 -12.075599670410156
-3.839129924774170 8.436590194702148 -11.842599868774414
-3.699130058288574 8.409589767456055 -11.868599891662598
-3.640130043029785 8.321590423583984 -11.930600166320801
-3.875129938125610 8.404589653015137 -11.953599929809570
-3.764130115509033 8.466589927673340 -11.956600189208984
-3.652129888534546 8.430589675903320 -11.980600357055664
-3.538130044937134 8.371589660644531 -11.973600387573242
-3.568130016326904 8.227600097656250 -11.980600357055664
-3.695130109786987 8.341589927673340 -12.088600158691406
-3.594130039215088 8.233590126037598 -12.113599777221680
-3.114130020141602 10.193599700927734 -11.368599891662598
-3.455130100250244 9.210590362548828 -11.295599937438965
-3.461129903793335 9.512599945068359 -11.325599670410156
-2.867130041122437 9.645589828491211 -11.287599563598633
-3.047130107879639 10.101599693298340 -11.312600135803223
-3.358129978179932 9.300589561462402 -11.337599754333496
-3.222130060195923 9.975589752197266 -11.332599639892578
-3.196130037307739 9.780590057373047 -11.338600158691406
-3.117130041122437 9.885589599609375 -11.334600448608398
-3.300129890441895 9.434590339660645 -11.349599838256836
-3.477129936218262 9.362589836120606 -11.366600036621094
-3.288130044937134 9.857589721679688 -11.355600357055664
-3.166130065917969 10.079600334167480 -11.361599922180176
-3.032130002975464 9.985589981079102 -11.352600097656250
-2.934129953384399 9.533590316772461 -11.342599868774414
-2.955130100250244 9.729590415954590 -11.348600387573242
-3.275130033493042 9.628589630126953 -11.374600410461426
-3.025130033493042 9.615590095520020 -11.356599807739258
-3.114130020141602 10.193599700927734 -11.368599891662598
-3.399130105972290 9.623600006103516 -11.388600349426270
-2.798130035400391 9.727600097656250 -11.342599868774414
-3.150130033493042 9.629590034484863 -11.372599601745605
-3.443130016326904 9.132590293884277 -11.393600463867188
-3.511130094528198 9.240590095520020 -11.400600433349609
-3.074130058288574 9.762599945068359 -11.368599891662598
-3.336129903793335 9.750590324401856 -11.390600204467773
-3.198129892349243 9.506589889526367 -11.379599571228027
-2.958129882812500 10.173600196838379 -11.374600410461426
-3.328130006790161 9.168589591979981 -11.400600433349609
-2.864130020141602 9.841589927673340 -11.367600440979004
-3.061130046844482 9.465589523315430 -11.381600379943848
-3.567130088806152 9.130599975585938 -11.421600341796875
-3.118129968643189 9.059590339660645 -11.393600463867188
-3.203130006790161 9.165590286254883 -11.403599739074707
-3.404129981994629 9.453590393066406 -11.422599792480469
-2.976130008697510 9.879590034484863 -11.393600463867188
-3.163130044937134 9.379590034484863 -11.410599708557129
-3.117130041122437 9.249589920043945 -11.411600112915039
-3.245130062103272 9.285590171813965 -11.422599792480469
-2.874130010604858 9.969590187072754 -11.409600257873535
-2.760129928588867 9.922590255737305 -11.402600288391113
-2.980129957199097 9.351590156555176 -11.417599678039551
-3.262130022048950 9.062589645385742 -11.440600395202637
-3.205130100250244 9.846590042114258 -11.444600105285645
-2.951129913330078 10.441599845886230 -11.429599761962891
-3.329129934310913 9.546600341796875 -11.455599784851074
-3.156130075454712 9.982589721679688 -11.446599960327148
-3.000129938125610 9.204589843750000 -11.428600311279297
-3.183130025863648 8.947589874267578 -11.442600250244141
-3.504129886627197 9.043589591979981 -11.476599693298340
-3.234129905700684 9.716589927673340 -11.459600448608398
-2.881129980087280 10.251600265502930 -11.435600280761719
-2.987129926681519 10.328599929809570 -11.452599525451660
-3.419130086898804 9.297590255737305 -11.485600471496582
-3.090130090713501 10.102600097656250 -11.466600418090820
-3.379129886627197 9.069589614868164 -11.483599662780762
-2.867130041122437 10.124600410461426 -11.452599525451660
-2.895129919052124 9.605589866638184 -11.453599929809570
-3.036129951477051 10.216600418090820 -11.469599723815918
-3.217129945755005 9.578590393066406 -11.485600471496582
-2.737129926681519 10.084600448608398 -11.450599670410156
-3.302129983901978 9.417590141296387 -11.495599746704102
-2.969130039215088 9.510589599609375 -11.469599723815918
-3.486129999160767 9.159589767456055 -11.510600090026855
-3.093130111694336 9.797590255737305 -11.483599662780762
-2.856129884719849 9.744589805603027 -11.465600013732910
-3.614130020141602 9.055589675903320 -11.523599624633789
-3.127130031585693 9.661589622497559 -11.491600036621094
-3.053129911422730 9.930589675903320 -11.492600440979004
-3.299129962921143 8.946590423583984 -11.507599830627441
-3.087130069732666 9.540590286254883 -11.495599746704102
-2.997129917144775 9.678600311279297 -11.491600036621094
-3.064130067825317 9.103590011596680 -11.493599891662598
-2.962130069732666 9.800589561462402 -11.492600440979004
-3.049129962921143 9.296600341796875 -11.500599861145020
-3.182130098342896 9.451589584350586 -11.515600204467773
-3.063129901885986 9.420590400695801 -11.505599975585938
-2.768130064010620 10.261599540710449 -11.492600440979004
-3.420130014419556 8.958589553833008 -11.539600372314453
-2.850130081176758 9.886590003967285 -11.500599861145020
-2.939130067825317 9.975589752197266 -11.513600349426270
-2.981129884719849 10.095600128173828 -11.518600463867188
-2.819129943847656 10.425600051879883 -11.508600234985352
-3.360130071640015 9.210590362548828 -11.546600341796875
-2.916130065917969 10.515600204467773 -11.520600318908691
-3.538130044937134 8.939590454101563 -11.565600395202637
-2.770129919052124 9.984600067138672 -11.512599945068359
-3.243129968643189 9.299590110778809 -11.547599792480469
-3.132129907608032 9.196590423583984 -11.542599678039551
-2.941129922866821 10.244600296020508 -11.539600372314453
-3.219130039215088 8.832590103149414 -11.556599617004395
-2.923130035400391 10.378600120544434 -11.549599647521973
-3.652129888534546 8.967590332031250 -11.600600242614746
-2.711129903793335 10.365599632263184 -11.535599708557129
-3.346129894256592 8.846590042114258 -11.580599784851074
-3.484129905700684 9.053600311279297 -11.594599723815918
-3.189130067825317 9.022589683532715 -11.575599670410156
-3.259130001068115 9.140589714050293 -11.583600044250488
-2.824130058288574 10.164600372314453 -11.563599586486816
-2.562129974365234 10.405599594116211 -11.550600051879883
-3.727129936218262 8.771590232849121 -11.639599800109863
-3.366130113601685 9.054590225219727 -11.616600036621094
-3.441129922866821 8.776599884033203 -11.625599861145020
-2.838129997253418 10.290599822998047 -11.589599609375000
-2.706130027770996 10.203599929809570 -11.578599929809570
-3.639130115509033 8.856590270996094 -11.657600402832031
-3.291130065917969 8.948590278625488 -11.632599830627441
-2.877130031585693 10.592599868774414 -11.610600471496582
-3.568130016326904 8.721590042114258 -11.655599594116211
-3.351130008697510 8.667590141296387 -11.647600173950195
-3.447129964828491 8.915590286254883 -11.660599708557129
-2.722130060195923 10.500599861145020 -11.612600326538086
-3.747129917144775 8.618590354919434 -11.685600280761719
-3.691129922866821 8.511590003967285 -11.689599990844727
-2.602129936218262 10.495599746704102 -11.619600296020508
-3.289129972457886 8.775600433349609 -11.665599822998047
-3.600130081176758 8.600589752197266 -11.693599700927734
-2.634130001068115 10.341600418090820 -11.627599716186523
-3.461129903793335 8.612589836120606 -11.686599731445312
-2.835129976272583 10.477600097656250 -11.649600028991699
-2.771130084991455 10.638600349426270 -11.649600028991699
-3.353130102157593 8.543589591979981 -11.683600425720215
-3.522130012512207 8.825590133666992 -11.699600219726563
-2.752130031585693 10.385600090026855 -11.652600288391113
-3.670130014419556 8.711589813232422 -11.727600097656250
-2.866130113601685 10.766599655151367 -11.682600021362305
-3.528130054473877 8.502590179443359 -11.733599662780762
-2.664129972457886 10.580599784851074 -11.685600280761719
-3.443130016326904 8.724590301513672 -11.737600326538086
-3.481129884719849 8.373600006103516 -11.757599830627441
-3.754129886627197 8.534589767456055 -11.793600082397461
-2.778130054473877 10.546600341796875 -11.734600067138672
-2.681129932403565 10.464599609375000 -11.728599548339844
-3.603130102157593 8.424590110778809 -11.790599822998047
-3.404129981994629 8.521590232849121 -11.795599937438965
-3.513129949569702 8.599590301513672 -11.811599731445313
-3.649130105972290 8.585590362548828 -11.823599815368652
-2.797130107879639 10.654600143432617 -11.787599563598633
-2.844130039215088 10.835599899291992 -11.806599617004395
-2.570130109786987 10.550600051879883 -11.787599563598633
-3.543129920959473 8.337590217590332 -11.858599662780762
-2.691129922866821 10.593600273132324 -11.804599761962891
-2.528130054473877 10.663599967956543 -11.809599876403809
-3.475130081176758 8.462590217590332 -11.878600120544434
-3.591130018234253 8.501589775085449 -11.897600173950195
-2.741130113601685 10.732600212097168 -11.878600120544434
-2.553129911422730 10.772600173950195 -11.876600265502930
-2.853130102157593 10.938599586486816 -11.904600143432617
-2.627130031585693 10.668600082397461 -11.885600090026855
-2.781130075454712 10.843600273132324 -11.919599533081055
-2.463129997253418 10.807600021362305 -11.950599670410156
-2.661129951477051 10.795599937438965 -11.975600242614746
-2.563129901885986 10.871600151062012 -11.996600151062012
-2.800129890441895 11.032600402832031 -12.024600028991699
-2.453130006790161 10.922599792480469 -12.003600120544434
-2.742130041122437 10.905599594116211 -12.032600402832031
-2.638129949569702 10.881600379943848 -12.093600273132324
-2.525130033493042 10.966600418090820 -12.092599868774414
-2.726130008697510 10.978599548339844 -12.128600120544434
-2.798130035400391 11.088600158691406 -12.157600402832031
-2.589129924774170 10.944600105285645 -12.197600364685059
-2.669130086898804 11.036600112915039 -12.218600273132324
-2.491130113601685 11.074600219726563 -12.208600044250488
-2.768130064010620 11.081600189208984 -12.281599998474121
-2.570130109786987 11.044599533081055 -12.294599533081055
-2.466130018234253 11.125599861145020 -12.340600013732910
-2.670130014419556 11.054599761962891 -12.360600471496582
-2.738130092620850 11.132599830627441 -12.459600448608398
-2.571130037307739 11.055600166320801 -12.467599868774414
-2.464129924774170 11.121600151062012 -12.463600158691406
-2.639130115509033 11.129599571228027 -12.544599533081055
-2.700129985809326 11.241600036621094 -12.565600395202637
-2.510129928588867 11.134599685668945 -12.576600074768066
-2.405129909515381 11.075599670410156 -12.587599754333496
-2.589129924774170 11.159600257873535 -12.672599792480469
-2.479130029678345 11.120599746704102 -12.706600189208984
-2.650130033493042 11.250599861145020 -12.727600097656250
-2.558130025863648 11.175600051879883 -12.806599617004395
-2.430130004882813 11.182600021362305 -12.821599960327148
-2.623130083084106 11.266599655151367 -12.853599548339844
-2.508130073547363 11.192600250244141 -12.927599906921387
-2.590130090713501 11.273599624633789 -12.980600357055664
-2.487129926681519 11.271599769592285 -13.043600082397461
-2.548130035400391 11.217599868774414 -13.132599830627441
-2.604130029678345 11.235600471496582 -13.244600296020508
-2.478130102157593 11.222599983215332 -13.234600067138672
-2.539129972457886 11.147600173950195 -13.316599845886230
-2.601130008697510 11.137599945068359 -13.428600311279297
-2.623130083084106 11.096599578857422 -13.545599937438965
