ply
format ascii 1.0
element vertex 626
property double x
property double y
property double z
end_header
-85.689102172851562 34.029098510742188 -80.254203796386719
-83.477798461914062 33.703774452209473 -81.076398849487305
-81.139396667480469 33.424598693847656 -80.394500732421875
-79.594902038574219 33.833801269531250 -80.295799255371094
-85.734050750732422 33.943450927734375 -78.018951416015625
-83.650199890136719 33.155165354410805 -77.741533915201828
-81.625900268554688 32.943066914876304 -78.180600484212235
-79.763298034667969 33.076799392700195 -77.902999877929687
-75.164497375488281 34.138198852539063 -77.221900939941406
-87.980598449707031 36.124801635742188 -77.364097595214844
-87.142599105834961 34.867774963378906 -78.018875122070312
-75.863621520996091 35.536579895019528 -78.132080078125000
-78.627899169921875 38.068566640218101 -77.244534810384110
-86.339797973632812 39.790401458740234 -77.394001007080078
-83.443702697753906 39.998350143432617 -77.268947601318359
-80.760498046875000 39.317100524902344 -77.144500732421875
-85.805603027343750 33.858699798583984 -75.775802612304688
-83.354701995849609 32.755500793457031 -75.724697113037109
-81.198249816894531 32.220849990844727 -75.084552764892578
-79.178232828776046 32.509867350260414 -75.268867492675781
-76.001750946044922 33.136951446533203 -75.833549499511719
-86.972351074218750 35.048650741577148 -75.756649017333984
-76.783996582031250 35.530899047851563 -75.758796691894531
-87.564300537109375 36.917198181152344 -75.665802001953125
-80.874099731445313 39.140499114990234 -75.645797729492188
-78.705202738444015 37.980233510335289 -75.778999328613281
-77.264602661132812 36.686401367187500 -75.770896911621094
-85.811801910400391 39.398899078369141 -75.701648712158203
-83.449350357055664 39.577074050903320 -75.165599822998047
-81.102302551269531 31.663499832153320 -72.620399475097656
-85.692298889160156 33.580800374348961 -73.241798400878906
-83.445575714111328 32.434326171875000 -73.536874771118164
-78.925098419189453 32.106449127197266 -73.449199676513672
-76.339202880859375 34.169498443603516 -74.265899658203125
-86.914951324462891 35.047876358032227 -73.505300521850586
-76.742801666259766 35.534450531005859 -73.508750915527344
-86.467900594075516 37.779266357421875 -73.560066223144531
-84.116500854492188 39.037899017333984 -72.569702148437500
-81.571599324544266 38.881234486897789 -73.133333841959640
-78.856550216674805 37.800150871276855 -73.525951385498047
-81.812749862670898 31.431550025939941 -70.435298919677734
-79.192731221516922 31.303199768066406 -70.197998046875000
-85.606275558471680 33.444450378417969 -70.490200042724609
-84.268249511718750 32.387699127197266 -70.527549743652344
-78.319099426269531 31.707700729370117 -71.089202880859375
-76.588401794433594 32.458801269531250 -69.790000915527344
-86.640701293945313 34.922434488932289 -70.286000569661454
-76.625099182128906 35.608499526977539 -70.504600524902344
-85.600646972656250 38.119899749755859 -70.638298034667969
-83.445323944091797 38.318149566650391 -70.580575942993164
-81.300201416015625 38.125450134277344 -70.618198394775391
-78.850524902343750 37.263324737548828 -70.442874908447266
-82.608596801757813 31.249300003051758 -68.225303649902344
-81.190101623535156 30.911500930786133 -68.290100097656250
-78.900051116943359 30.754899978637695 -67.572151184082031
-76.886497497558594 31.600599288940430 -68.121498107910156
-85.574398040771484 33.491350173950195 -68.241100311279297
-84.081699371337891 32.011751174926758 -68.222000122070313
-76.034067789713546 32.644900639851890 -67.867800394694015
-78.013648986816406 36.429401397705078 -67.499198913574219
-76.705001831054687 35.529800415039063 -68.257698059082031
-83.415149688720703 37.907899856567383 -68.396102905273437
-81.018402099609375 37.675701141357422 -68.152000427246094
-78.973651885986328 37.013849258422852 -68.265048980712891
-83.253601074218750 31.319149494171143 -65.982851028442383
-81.270702362060547 30.503799438476562 -66.087146759033203
-78.963150024414063 30.220549583435059 -65.118850708007813
-76.754150390625000 31.201100349426270 -65.955699920654297
-85.730075836181641 33.264649391174316 -66.028850555419922
-84.501651763916016 32.110799789428711 -66.045047760009766
-75.497550964355469 33.857349395751953 -65.997150421142578
-74.957500457763672 32.674549102783203 -66.018699645996094
-86.488499959309891 35.017467498779297 -65.682634989420578
-78.036031087239579 36.228466033935547 -65.754768371582031
-76.416074752807617 35.063324928283691 -66.005075454711914
-81.792999267578125 37.482950210571289 -65.907148361206055
-79.720100402832031 36.892950057983398 -66.045150756835938
-83.320501327514648 31.124274730682373 -63.004549980163574
-81.475967407226563 30.022699991861980 -62.685999552408852
-78.924900054931641 29.729199886322021 -62.971924781799316
-76.141525268554688 30.743999958038330 -62.886525154113770
-85.720901489257813 33.260150909423828 -63.848100662231445
-84.521701812744141 32.229249954223633 -62.992698669433594
-75.373433430989579 33.916933695475258 -63.252400716145836
-74.788434346516922 33.104034423828125 -62.307999928792320
-81.261596679687500 36.585800170898438 -62.385898590087891
-78.855173110961914 36.088125228881836 -62.987774848937988
-76.539377212524414 34.948124885559082 -63.009075164794922
-82.765296936035156 36.840900421142578 -62.343601226806641
-81.224998474121094 36.842899322509766 -63.826000213623047
-78.970851898193359 28.957949638366699 -59.384899139404297
-83.446849822998047 30.961900711059570 -60.786451339721680
-81.732997894287109 29.875750541687012 -60.712650299072266
-78.938201904296875 29.282600402832031 -60.812700271606445
-76.138267517089844 29.997833887736004 -60.281599680582680
-74.775901794433594 30.781099319458008 -59.395999908447266
-85.978202819824219 32.572799682617187 -60.786399841308594
-84.887100219726563 33.855098724365234 -60.615501403808594
-75.443397521972656 33.783699035644531 -60.773200988769531
-74.624702453613281 32.517200469970703 -60.848049163818359
-81.118400573730469 36.104000091552734 -60.648799896240234
-78.894599914550781 35.708749771118164 -60.725549697875977
-76.685001373291016 34.762050628662109 -60.774950027465820
-78.850399017333984 28.584300041198730 -57.648651123046875
-76.764396667480469 28.694700241088867 -57.623199462890625
-85.891349792480469 31.043199539184570 -58.523099899291992
-83.449577331542969 30.969575405120850 -58.520699501037598
-81.802877426147461 29.692149639129639 -58.491099357604980
-75.352550506591797 29.825300216674805 -58.410850524902344
-74.491600036621094 30.578599929809570 -58.063098907470703
-86.083635965983078 33.041000366210938 -58.791665395100914
-84.545532226562500 33.502867380777992 -58.726198832194008
-75.545551300048828 33.619901657104492 -58.567899703979492
-74.711466471354171 32.571567535400391 -58.232733408610024
-82.666297912597656 35.529899597167969 -57.763698577880859
-81.136348724365234 35.759599685668945 -58.463800430297852
-78.758940124511724 35.257399749755862 -58.360799407958986
-76.536849975585937 34.296600341796875 -58.467300415039062
-81.077133178710938 28.812866210937500 -55.208799997965492
-79.126599629720047 28.227966308593750 -55.226965586344399
-76.222366333007812 28.271266937255859 -55.207300821940102
-74.816001892089844 29.015899658203125 -54.926898956298828
-83.577775955200195 30.921700000762939 -55.517275810241699
-82.131932576497391 29.552100499471027 -55.764766693115234
-73.798439025878906 30.188960266113281 -55.690180206298827
-84.653400421142578 32.273200988769531 -55.546600341796875
-76.353965759277344 33.798165639241539 -55.802266438802086
-74.602724075317383 32.414324760437012 -55.506699562072754
-83.402900695800781 35.026750564575195 -56.462299346923828
-81.206001281738281 35.098999023437500 -55.626548767089844
-78.821550369262695 34.679999351501465 -55.453975677490234
-81.308151245117188 28.678700447082520 -53.262548446655273
-78.946998596191406 27.838399887084961 -53.307950973510742
-75.135902404785156 27.832099914550781 -53.314300537109375
-75.086601257324219 27.592599868774414 -51.858299255371094
-83.588298797607422 30.971599578857422 -53.277999877929687
-82.578796386718750 29.653900146484375 -53.248001098632813
-73.660499572753906 31.078399658203125 -53.255199432373047
-78.157402038574219 34.102798461914063 -53.248600006103516
-76.311566670735672 33.261700948079429 -52.812666575113930
-82.696350097656250 34.265050888061523 -53.212850570678711
-81.144599914550781 34.446899414062500 -53.167598724365234
-79.615196228027344 34.422100067138672 -53.180301666259766
-81.293299357096359 28.411000569661457 -51.266066233317055
-78.969573974609375 27.388400077819824 -50.980400085449219
-76.198733011881515 27.096800486246746 -50.632766723632812
-73.920700073242188 28.433850288391113 -50.869348526000977
-83.289059448242185 30.445140075683593 -51.160639953613284
-73.398300170898438 30.475650310516357 -51.018674850463867
-83.254749298095703 33.247501373291016 -51.052749633789063
-81.770915985107422 33.553750356038414 -50.984950383504234
-78.976148605346680 33.845474243164062 -51.051350593566895
-75.854249954223633 32.717825889587402 -50.978123664855957
-74.630897521972656 31.771299362182617 -50.163501739501953
-76.165568033854171 26.444966634114582 -47.787033081054688
-81.337224960327148 27.918175220489502 -47.605300903320313
-79.072397867838546 26.814933141072590 -48.206966400146484
-75.185798645019531 26.753299713134766 -48.717300415039063
-73.618398030598954 27.554899215698242 -47.770534515380859
-72.107696533203125 28.100099563598633 -47.257900238037109
-83.119174957275391 30.259900093078613 -48.016050338745117
-73.762820434570315 30.699919509887696 -47.841040039062499
-72.566703796386719 29.269500732421875 -47.247898101806641
-83.707496643066406 32.694801330566406 -48.814899444580078
-81.234733581542969 33.200431823730469 -48.222732543945313
-78.852975845336914 33.211725234985352 -47.956600189208984
-76.026649475097656 32.375174522399902 -48.035075187683105
-74.702102661132813 31.708099365234375 -48.672901153564453
-78.977600097656250 26.368599891662598 -45.801200866699219
-75.915847778320312 26.039499282836914 -45.878198623657227
-81.400733947753906 27.841199874877930 -45.740534464518227
-73.430850982666016 27.109999656677246 -45.843549728393555
-82.954765319824219 30.573066711425781 -45.688765207926430
-74.016034444173172 30.748099644978840 -45.732133229573570
-72.534103393554687 29.278499603271484 -45.742900848388672
-81.127031962076828 32.475866953531899 -45.287667592366539
-78.901447296142578 32.779550552368164 -45.708999633789063
-76.166599273681641 32.105198860168457 -45.830049514770508
-78.911449432373047 26.004299640655518 -43.454174041748047
-75.912900924682617 25.448500156402588 -43.417424201965332
-73.662231445312500 26.134599685668945 -43.239034016927086
-81.478998819986984 27.737233479817707 -43.494166056315102
-72.109460449218744 27.933239364624022 -43.337960052490232
-82.877597808837891 30.231249809265137 -43.495950698852539
-75.109397888183594 31.185899734497070 -42.738601684570313
-73.891401290893555 30.493500232696533 -43.873649597167969
-72.126775741577148 29.376849651336670 -43.557225227355957
-81.067901611328125 32.019500732421875 -42.923000335693359
-78.922050476074219 32.347049713134766 -43.553975105285645
-76.875400543212891 32.069549560546875 -43.579399108886719
-79.177333831787109 25.600799878438313 -40.498233159383140
-75.955648422241211 24.751424789428711 -40.579825401306152
-73.360050201416016 25.570499897003174 -40.487423896789551
-72.098300933837891 26.510199546813965 -40.533100128173828
-81.348201751708984 27.467725276947021 -40.870100021362305
-71.361600240071610 27.696233113606770 -40.169567108154297
-82.001176834106445 30.409975051879883 -40.533750534057617
-78.876998901367188 31.558050155639648 -39.652549743652344
-75.902626037597656 31.166424751281738 -40.488349914550781
-73.506301879882813 29.811300277709961 -39.730201721191406
-78.920650482177734 31.939999580383301 -41.402599334716797
-80.142601013183594 25.947799682617188 -38.351200103759766
-78.703999837239579 24.897699991861980 -37.791866302490234
-76.789596557617188 24.371400833129883 -38.376998901367188
-73.572303771972656 24.820299148559570 -38.324199676513672
-71.972248077392578 25.692649841308594 -38.342599868774414
-81.308700561523438 27.280050277709961 -38.253248214721680
-70.544647216796875 27.166249275207520 -38.307199478149414
-81.075698852539062 30.705450057983398 -37.617700576782227
-78.917850494384766 31.211400032043457 -38.219150543212891
-75.783068339029953 30.750600179036457 -37.816467285156250
-73.671096801757813 29.566400527954102 -38.256599426269531
-76.631698608398438 23.837099075317383 -35.198299407958984
-80.682098388671875 26.298350334167480 -36.791049957275391
-79.170532226562500 24.947366714477539 -35.794532775878906
-81.373100280761719 27.478967030843098 -35.747567494710289
-81.473197937011719 29.518600463867188 -36.701400756835937
-78.921825408935547 30.754550457000732 -36.092876434326172
-76.768547058105469 30.689450263977051 -36.092800140380859
-78.093448638916016 23.784950256347656 -32.951999664306641
-75.927450180053711 23.373050212860107 -33.043574333190918
-79.760051727294922 24.999000549316406 -33.012901306152344
-70.946197509765625 25.105300903320312 -33.500099182128906
-81.070062255859369 27.760940170288087 -32.865039062500003
-73.295898437500000 28.630599975585937 -32.888500213623047
-71.699922180175776 27.401099777221681 -33.101840209960940
-81.043998718261719 29.326700210571289 -33.833301544189453
-79.150299072265625 29.795583724975586 -32.948716481526695
-76.101264953613281 29.797000249226887 -32.698467254638672
-74.465000152587891 29.479599952697754 -33.111448287963867
-78.225601196289063 23.466100692749023 -30.771999359130859
-75.982299804687500 22.938250541687012 -30.890000343322754
-73.570396423339844 23.209100723266602 -30.851400375366211
-79.892601013183594 24.912000656127930 -30.761800765991211
-71.131500244140625 26.134000778198242 -30.780599594116211
-80.709049224853516 27.424250602722168 -30.826350212097168
-79.532150268554687 28.967350006103516 -30.195300102233887
-76.736198425292969 29.160800933837891 -29.352899551391602
-73.064502716064453 27.926050186157227 -30.766699790954590
-71.888496398925781 26.870000839233398 -30.729299545288086
-78.150699615478516 29.343850135803223 -30.064499855041504
-76.005901336669922 29.391650199890137 -30.785999298095703
-78.559701538085932 23.463159942626952 -28.327220153808593
-75.868076324462891 22.344949245452881 -28.445549964904785
-73.758998870849609 22.504099845886230 -28.400500297546387
-71.279998779296875 23.628600120544434 -28.506999969482422
-79.920352935791016 24.888750076293945 -28.512499809265137
-71.174125671386719 25.714950084686279 -28.509874820709229
-80.885452270507813 27.269299507141113 -28.558950424194336
-78.976051330566406 28.547149658203125 -27.618599891662598
-76.606697082519531 28.674100875854492 -27.567800521850586
-73.782850901285812 27.992116928100586 -28.503666559855144
-71.972602844238281 26.781000137329102 -29.232500076293945
-75.207298278808594 21.631399154663086 -24.871900558471680
-73.574798583984375 21.654699325561523 -24.875400543212891
-78.571983337402344 23.168083190917969 -25.494983355204266
-76.176699320475265 22.002899805704754 -25.773733139038086
-73.655502319335938 22.007400512695313 -26.272499084472656
-71.537467956542969 22.824733098347981 -25.227066675821941
-80.361503601074219 26.276699066162109 -24.698699951171875
-79.902202606201172 24.939800262451172 -25.500349998474121
-71.470639038085935 25.790019607543947 -25.346580505371094
-78.886449813842773 28.006774902343750 -25.526375293731689
-75.917476654052734 28.190575122833252 -25.475399971008301
-73.561450958251953 27.521949768066406 -25.486499786376953
-76.977096557617188 21.475700378417969 -21.849700927734375
-74.409999847412109 21.113699913024902 -23.110549926757813
-71.929603576660156 21.500099182128906 -21.957399368286133
-78.647234598795578 23.075000127156574 -23.258900324503582
-76.832199096679688 21.726100921630859 -23.325700759887695
-71.101947784423828 22.893199920654297 -23.300350189208984
-80.095199584960937 26.451099395751953 -23.229000091552734
-79.895599365234375 24.946500778198242 -23.261100769042969
-71.533252716064453 25.696599960327148 -23.267100334167480
-78.116996765136719 27.677099227905273 -23.366800308227539
-75.969425201416016 27.631249904632568 -22.607450008392334
-73.383399963378906 27.085199356079102 -23.180599212646484
-75.609133402506515 20.727233250935871 -20.719466527303059
-73.680049896240234 20.615900039672852 -20.998600006103516
-72.234901428222656 20.797500610351563 -20.194700241088867
-78.709431966145829 23.028183301289875 -21.005099932352703
-70.458976745605469 23.034249782562256 -20.982500076293945
-69.729103088378906 23.204299926757813 -20.248300552368164
-79.665534973144531 25.418633143107098 -20.793200174967449
-73.613998413085938 26.681400299072266 -20.239000320434570
-71.641783396403000 25.598999977111816 -21.006316820780437
-78.230350494384766 26.986550331115723 -20.896550178527832
-76.656997680664063 27.073699951171875 -20.142799377441406
-74.300800323486328 26.953700065612793 -20.939200401306152
-76.006401062011719 20.330574989318848 -18.056849956512451
-73.665550231933594 19.821149826049805 -18.002350807189941
-72.087348937988281 20.275650024414063 -18.094699859619141
-78.742017110188797 23.016383488972981 -18.013167063395183
-70.290667215983078 23.229300181070965 -18.291000366210937
-69.481300354003906 22.616724967956543 -18.007450103759766
-78.701051712036133 25.924249649047852 -18.481874465942383
-76.172065734863281 26.402699788411457 -17.798899968465168
-73.406969706217453 26.124833424886067 -17.834433237711590
-71.638998413085943 25.274520492553712 -18.163079833984376
-75.141700744628906 26.705600738525391 -18.733299255371094
-76.775596618652344 20.427700042724609 -15.776700019836426
-74.324748992919922 19.383000373840332 -15.681199550628662
-71.063631693522140 20.009466171264648 -15.292099952697754
-68.499099731445312 20.910800933837891 -15.819800376892090
-78.286201477050781 21.984199523925781 -15.761699676513672
-70.337097167968750 23.979600906372070 -15.718199729919434
-69.342300415039063 22.653850555419922 -15.763099670410156
-77.959602355957031 24.697000503540039 -14.361900329589844
-75.913951873779297 25.990699768066406 -15.914849758148193
-73.494796752929688 25.636400222778320 -15.645299911499023
-71.567752838134766 24.894499778747559 -15.765550136566162
-75.193199157714844 19.011499404907227 -12.767000198364258
-73.712799072265625 18.839349746704102 -13.555100440979004
-72.150302886962891 19.014100074768066 -13.525599956512451
-77.623950958251953 20.995399475097656 -13.493500232696533
-76.313420104980466 19.809759902954102 -13.619899940490722
-70.824947357177734 19.414600372314453 -13.395849704742432
-69.229198455810547 20.636799812316895 -13.472300052642822
-78.476000467936203 23.101683298746746 -13.463033199310303
-70.412700653076172 23.844349861145020 -13.485800266265869
-69.332950592041016 22.647425174713135 -13.522074699401855
-78.077548980712891 24.820250511169434 -13.577199935913086
-75.937526702880859 25.374599933624268 -13.427274942398071
-73.634250640869141 25.246250152587891 -13.467150211334229
-71.742275238037109 24.614675045013428 -13.556049823760986
-75.297996520996094 18.804599761962891 -11.306099891662598
-73.730701446533203 18.198450088500977 -10.523625373840332
-71.302799224853516 18.398224830627441 -10.596949815750122
-69.153701782226562 19.051200866699219 -9.764019966125488
-77.624946594238281 20.920050621032715 -10.491889953613281
-76.746152877807617 19.799699783325195 -10.503430128097534
-68.333847045898437 20.359100341796875 -10.567670345306396
-78.412651062011719 22.362400054931641 -10.414254665374756
-76.792800903320313 24.044500350952148 -9.633990287780762
-71.135932922363281 23.665732701619465 -10.234270095825195
-69.380773544311523 22.596924781799316 -10.517724990844727
-77.963401794433594 24.346599578857422 -11.453800201416016
-75.622767130533859 24.754766464233398 -10.835416793823242
-73.677700042724609 24.728250503540039 -10.572374820709229
-72.109649658203125 24.370149612426758 -11.264150142669678
-75.662349700927734 18.442749977111816 -7.633354902267456
-74.249149322509766 17.979650497436523 -8.195994853973389
-71.610898335774735 17.360666275024414 -7.819326718648274
-69.041501363118485 18.453666687011719 -7.839669863382976
-77.668098449707031 20.884300231933594 -8.243379592895508
-76.851650238037109 19.710800170898438 -8.255249977111816
-68.068798065185547 21.004849433898926 -8.254075050354004
-78.187999725341797 22.776324748992920 -7.885949850082398
-76.713150024414063 23.755499839782715 -8.208825111389160
-72.112197875976562 24.017900466918945 -8.167699813842773
-69.392398834228516 22.600000381469727 -8.271005153656006
-75.202903747558594 24.208599090576172 -8.113010406494141
-73.707901000976563 24.258699417114258 -8.085490226745606
-72.472900390625000 13.255999565124512 -5.635869979858398
-72.098999023437500 14.529399871826172 -5.146279811859131
-75.829099019368485 18.385766347249348 -5.295423507690430
-74.354202270507813 17.622950553894043 -6.757669925689697
-70.571800231933594 17.241300582885742 -6.086169958114624
-69.213851928710938 17.694350242614746 -5.969860076904297
-78.232597351074219 21.015649795532227 -5.165930032730103
-77.018567403157547 19.876266479492187 -6.257600148518880
-68.076225280761719 20.946599960327148 -5.985697388648987
-66.982200622558594 19.669700622558594 -5.234310150146484
-78.121147155761719 22.071999549865723 -6.001849889755249
-76.256385803222656 23.074899945940292 -5.916201455252511
-73.723949432373047 23.867199897766113 -5.925745010375977
-72.163002014160156 23.858999252319336 -6.679339885711670
-69.302332560221359 22.501899719238281 -6.251503308614095
-74.338052749633789 15.344350099563599 -3.009562551975250
-71.414073944091797 16.151899576187134 -2.977082490921021
-69.230903625488281 16.451200485229492 -2.156039953231812
-76.218438720703119 18.067119979858397 -2.882106065750122
-68.478351593017578 16.944449424743652 -2.950454950332642
-66.313667297363281 18.196433385213215 -2.740466674168905
-78.181440734863287 20.960400009155272 -2.880566024780273
-77.439300537109375 19.591400146484375 -2.122139930725098
-68.176225662231445 20.853999614715576 -2.972597479820252
-67.027999877929688 19.715900421142578 -2.967229962348938
-78.251701354980469 22.042200088500977 -3.761879920959473
-76.300765991210937 22.460999806722004 -2.681963364283244
-75.045501708984375 23.110000610351563 -3.836339950561523
-70.137702941894531 22.661100387573242 -2.007780075073242
-69.188850402832031 22.062899589538574 -3.011789917945862
-75.365097045898437 16.035299301147461 -0.812745988368988
-71.408874511718750 15.661375045776367 -0.105218261480331
-68.669400533040360 16.006633122762043 -0.269975999991099
-76.970934549967453 18.324566523234051 -0.333205660184224
-65.992767333984375 18.161266962687176 -0.780802309513092
-65.031997680664063 17.283300399780273 -0.733498990535736
-78.147176742553711 20.405524730682373 -0.412643492221832
-76.263000488281250 21.565000534057617 -0.910627007484436
-68.696998596191406 21.024166742960613 -0.767338673273722
-67.097396850585937 19.728399276733398 -0.716356992721558
-75.298202514648438 22.488399505615234 -0.679521977901459
-73.659301757812500 22.656400680541992 -0.637049973011017
-70.528396606445313 22.272499084472656 -0.689314007759094
-75.636550903320313 15.749424934387207 1.488666519522667
-71.333400726318359 15.132349967956543 2.422659993171692
-68.222897847493485 15.448166847229004 1.853733638922374
-64.218101501464844 16.421199798583984 2.245800018310547
-65.936124801635742 18.534100055694580 1.493716791272163
-64.018402099609375 16.757200241088867 0.795121014118195
-68.781299591064453 20.882083574930828 1.481824318567912
-67.146301269531250 19.673449516296387 1.507565051317215
-73.662952423095703 22.255850791931152 1.525114983320236
-71.413024902343750 22.108874797821045 1.500660523772240
-73.844348907470703 15.905350208282471 4.471294879913330
-71.385772705078125 14.671049833297729 4.529017508029938
-68.424823760986328 14.611175060272217 4.504525005817413
-66.245502471923828 14.990350246429443 4.630290031433106
-64.312599182128906 16.128700065612794 4.436041975021363
-65.967073440551758 18.515250205993652 4.499412536621094
-64.920497894287109 17.347399711608887 4.495615124702454
-68.437376022338867 20.576574802398682 4.499894917011261
-67.174900054931641 19.629149436950684 4.499364972114563
-75.138603210449219 21.983100891113281 3.732850074768066
-73.764160156250000 22.507680130004882 4.965136051177979
-71.652702331542969 22.716866175333660 4.237703323364258
-66.824748992919922 14.016200065612793 7.327765226364136
-74.004399617513016 15.709166526794434 6.751383463541667
-72.254798889160156 14.273099899291992 6.663700103759766
-66.131896972656250 14.341199874877930 6.672770023345947
-64.237201690673828 15.697333335876465 6.791246732076009
-74.949302673339844 17.654100418090820 6.720550060272217
-65.972297668457031 18.515549659729004 6.742870092391968
-64.851600646972656 17.392200469970703 6.750730037689209
-74.826450347900391 21.564349174499512 6.735640048980713
-68.439250946044922 20.588049888610840 6.753170013427734
-67.138397216796875 19.637199401855469 6.734879970550537
-71.331600189208984 13.342649936676025 9.072014808654785
-68.447124481201172 13.221100091934204 9.044522523880005
-66.218696594238281 13.356599807739258 9.826390266418457
-64.779296875000000 13.655799865722656 9.950249671936035
-74.175140380859375 15.517739868164062 8.850127983093262
-63.747671399797710 15.532642773219518 9.116081510271345
-75.253997802734375 17.541500091552734 8.237959861755371
-75.041801452636719 17.614500045776367 9.738260269165039
-65.932973861694336 18.554850101470947 8.983917713165283
-64.828201293945313 17.414000511169434 8.998819828033447
-70.445850372314453 21.248600006103516 9.015170097351074
-68.465826034545898 20.560524940490723 9.001644849777222
-67.102096557617188 19.650400161743164 8.221130371093750
-73.143798828125000 13.480799674987793 12.805199623107910
-71.440900802612305 12.670700311660767 11.984074831008911
-68.685333251953125 12.180399894714355 12.282800038655600
-66.601033528645829 12.725766817728678 11.634800275166830
-64.188933054606125 13.114766756693522 12.272833506266275
-61.476001739501953 13.204999923706055 12.734399795532227
-73.995100021362305 15.202774763107300 12.002750158309937
-63.352513449532644 15.591842787606376 11.860299927847725
-62.246799468994141 14.191800117492676 12.775600433349609
-65.858875274658203 18.605974674224854 11.976875305175781
-64.791900634765625 17.460700035095215 11.998250007629395
-71.400449752807617 20.811475276947021 12.025725126266479
-68.512048721313477 20.425050258636475 12.007325172424316
-67.037849426269531 19.770650863647461 11.951949596405029
-68.407800674438477 11.350200176239014 14.922824859619141
-73.214500427246094 13.333000183105469 14.271599769592285
-71.649533589680985 12.165466626485189 14.270600001017252
-66.223800659179688 11.889599800109863 14.361200332641602
-64.738502502441406 12.109999656677246 14.417699813842773
-61.557899475097656 13.139599800109863 14.238300323486328
-74.027950286865234 15.218299865722656 14.254300117492676
-63.337332407633461 15.844733238220215 14.220699946085611
-62.145099639892578 14.235699653625488 14.283900260925293
-74.338699340820313 17.496900558471680 14.296500205993652
-66.142097473144531 19.096799850463867 14.240500450134277
-64.719703674316406 17.528900146484375 14.247900009155273
-71.406650543212891 20.518599510192871 14.235050201416016
-68.522247314453125 20.310750007629395 14.230649948120117
-70.832649230957031 11.189549922943115 16.392900466918945
-68.438503265380859 10.491700172424316 17.395899772644043
-66.088848114013672 11.227000236511230 16.372300148010254
-64.147033691406250 11.470766703287760 16.710099856058758
-73.063076019287109 12.945374965667725 16.480899810791016
-72.001049041748047 11.775200366973877 16.554699897766113
-63.246700286865234 11.944399833679199 15.870100021362305
-61.413351058959961 13.231250286102295 16.472299575805664
-74.049875259399414 15.205274820327759 16.504575014114380
-63.073132832845054 15.644566535949707 16.240566571553547
-62.212732950846352 14.550699869791666 16.745399792989094
-74.290298461914062 17.521900177001953 15.785900115966797
-66.113201141357422 19.146450042724609 16.492450237274170
-64.591049194335937 17.628250122070312 16.486700534820557
-70.595298767089844 20.087749481201172 16.412399768829346
-68.487724304199219 20.154450416564941 16.460575103759766
-71.545761108398438 10.732279968261718 19.657480239868164
-68.427875518798828 9.846287488937378 19.420000076293945
-66.174697875976563 10.096474647521973 19.506449699401855
-63.942100524902344 10.563775062561035 19.540524959564209
-61.367424964904785 11.301675081253052 19.932025432586670
-73.284566243489579 12.773233413696289 19.756532669067383
-61.017524719238281 13.031649589538574 19.505174636840820
-74.112400054931641 15.186874866485596 19.490224838256836
-63.099100112915039 16.115600585937500 19.486800193786621
-62.094200134277344 14.625566482543945 19.238399505615234
-64.374832153320312 17.899449984232586 19.526150067647297
-70.730796813964844 19.358400344848633 20.298000335693359
-68.683967590332031 19.827067057291668 19.215466817220051
-66.502733866373703 19.512367248535156 19.767100016276043
-68.386150360107422 9.000225067138672 21.873700141906738
-66.291297912597656 9.129590034484863 21.974300384521484
-71.346562194824216 10.033154296875001 22.040999984741212
-63.600365956624351 9.733666737874350 22.127533594767254
-61.337833404541016 10.290230115254721 22.437100092569988
-59.955333709716797 11.081666628519693 22.180966059366863
-73.259799957275391 12.540050029754639 21.759599685668945
-60.936298370361328 13.224066734313965 22.212232589721680
-73.830167134602860 15.514033317565918 22.225400288899738
-62.877101898193359 16.246500015258789 21.694000244140625
-61.797000885009766 14.484499931335449 21.759199142456055
-64.159574508666992 18.074275016784668 22.098199844360352
-70.704803466796875 19.303600311279297 21.776500701904297
-68.416301727294922 19.640000343322754 21.803699493408203
-66.082000732421875 19.304700851440430 21.764799118041992
-70.460350036621094 8.951339721679688 24.094349861145020
-68.449474334716797 8.369707584381104 23.924250602722168
-66.126651763916016 8.424080371856690 23.929499626159668
-64.217933654785156 8.774030049641928 24.319900512695313
-61.738998413085937 9.111889839172363 24.914199829101563
-72.727748870849609 11.224750041961670 23.923449516296387
-71.743268330891922 9.941073099772135 24.221700668334961
-60.224201202392578 10.221799850463867 23.319200515747070
-59.420132954915367 10.294086774190268 24.740099589029949
-73.466300964355469 12.681266784667969 23.759166717529297
-60.510801315307617 12.839600086212158 24.030099868774414
-59.874650955200195 11.758950233459473 23.961000442504883
-73.962650299072266 14.490949630737305 23.985449790954590
-62.712299346923828 16.330099105834961 23.164800643920898
-62.027399444580077 15.448499870300292 24.157959747314454
-71.172597249348954 18.560132980346680 24.243165969848633
-64.084539794921881 18.159000015258790 24.153879928588868
-68.424776077270508 19.417849540710449 24.032350063323975
-66.127597808837891 19.300250053405762 24.014549255371094
-70.999598185221359 8.732676823933920 27.273933410644531
-68.562841796875006 7.435339927673340 26.860779953002929
-66.177753448486328 7.168355226516724 27.051700592041016
-64.035359191894528 7.864118099212647 26.809260177612305
-60.932349205017090 8.592017650604248 27.006774902343750
-58.667499542236328 8.573430061340332 27.744899749755859
-72.248298645019531 10.012715339660645 26.988750457763672
-58.888424873352051 10.683975219726563 27.020850658416748
-73.575950622558594 12.379174947738647 26.997750282287598
-60.226848602294922 13.033499717712402 27.001000404357910
-59.617801666259766 11.921000003814697 26.934249877929687
-74.075199127197266 14.457249641418457 26.985750198364258
-72.574897766113281 16.671300888061523 27.853700637817383
-61.352180480957031 15.171459960937501 27.139419937133788
-71.422948837280273 17.661449909210205 26.998850345611572
-69.158248901367188 19.001650810241699 26.987150192260742
-62.998649597167969 17.766100883483887 26.974850654602051
-67.662349700927734 19.260250091552734 27.010999679565430
-66.145103454589844 19.226200103759766 26.254199981689453
-66.563135782877609 6.224376678466797 29.282499949137371
-63.037300109863281 6.652200222015381 30.545999526977539
-70.930498758951828 8.320026556650797 29.287766774495442
-69.189796447753906 7.037789821624756 29.235500335693359
-63.901401519775391 7.164099931716919 29.259300231933594
-61.734600067138672 7.634930133819580 29.431999206542969
-59.357799530029297 8.046784877777100 29.066450119018555
-73.494598388671875 11.664099693298340 29.261100769042969
-72.423797607421875 9.890629768371582 29.214700698852539
-58.686698913574219 10.810549736022949 29.249799728393555
-73.977096557617187 12.951600074768066 29.224800109863281
-59.842851638793945 13.217700004577637 29.923100471496582
-72.626403808593750 14.805000305175781 29.333299636840820
-72.348503112792969 16.277599334716797 29.298700332641602
-61.017601013183594 15.297650337219238 29.265149116516113
-70.729301452636719 17.678400039672852 29.260400772094727
-68.358551025390625 18.823200225830078 29.210650444030762
-63.885250091552734 18.276700019836426 29.231399536132813
-68.696998596191406 6.049569924672444 32.244632720947266
-66.838302612304688 5.804039955139160 30.822800636291504
-64.007925033569336 5.770977497100830 31.603125572204590
-61.695699691772461 6.289079904556274 32.238148689270020
-71.140752156575516 8.095006704330444 31.496632893880207
-69.315200805664063 6.836770057678223 30.681400299072266
-60.658034006754555 7.064929962158203 31.238400777180988
-57.679698944091797 7.326109886169434 32.472198486328125
-73.265518188476563 10.735999870300294 31.655699157714842
-72.540397644042969 9.787759780883789 30.687000274658203
-58.270432790120445 10.514775117238363 31.508867263793945
-73.653099060058594 13.485750198364258 31.387850761413574
-59.315650939941406 13.126349925994873 32.213300704956055
-72.000939941406244 15.611140060424805 31.681340026855469
-60.853540039062501 15.780979919433594 31.369559860229494
-60.027400970458984 14.641400337219238 32.211299896240234
-70.769635518391922 17.134066899617512 31.265800476074219
-68.519224166870117 18.440999984741211 31.509000301361084
-66.188350677490234 18.869250297546387 31.481698989868164
-63.880100250244141 18.285200119018555 31.493049621582031
-61.908800125122070 17.234099388122559 31.517949104309082
-66.233596801757813 3.871249914169312 35.174301147460938
-64.671699523925781 3.986840009689331 35.207099914550781
-69.216540527343753 5.773233890533447 34.319799804687499
-67.004765828450516 4.454416751861572 34.400232950846352
-64.064366658528641 4.921519915262858 33.688398996988930
-60.976348876953125 5.795344829559326 33.845001220703125
-58.714599609375000 5.648059844970703 33.800899505615234
-71.401082356770829 7.828283309936523 34.492149988810219
-56.663266499837242 8.100306669871012 34.746166229248047
-73.369333902994796 10.430653413136801 34.471817016601563
-58.415401458740234 11.666600227355957 33.695701599121094
-57.485000610351563 9.919634819030762 34.555398941040039
-73.569252014160156 12.649899959564209 35.336750030517578
-72.332901000976563 13.086899757385254 33.791198730468750
-58.530199686686196 12.617333412170410 34.716967264811196
-71.519833882649735 15.492866675059000 34.479299545288086
-60.238199234008789 15.996900081634521 34.503101348876953
-59.469632466634117 14.729933420817057 34.710666656494141
-70.253700256347656 17.078550338745117 34.413450241088867
-68.690366109212235 18.017533620198567 34.241333007812500
-66.650599161783859 18.648399988810223 34.719498952229820
-63.867049217224121 18.279325485229492 34.484449386596680
-61.577332814534508 17.167066574096680 34.232500712076821
-72.473999023437500 11.662199974060059 36.879600524902344
-74.487800598144531 11.997200012207031 36.700099945068359
-72.245300292968750 13.220000267028809 36.785900115966797
-70.969253540039063 15.540749549865723 36.819450378417969
-60.124298095703125 16.116899490356445 36.738399505615234
-58.819599151611328 14.458900451660156 36.776599884033203
-68.921669006347656 17.491299947102863 36.799166361490883
-66.176200866699219 18.599800109863281 36.715599060058594
-63.854251861572266 18.260799407958984 36.741098403930664
-61.756301879882813 17.443300247192383 36.749698638916016
-71.395299275716141 13.246500015258789 38.774733225504555
