ply
format ascii 1.0
element vertex 350
property double x
property double y
property double z
end_header
-86.625553131103516 33.429651260375977 -54.651750564575195
-86.819933573404953 35.141067504882813 -55.694199879964195
-86.873500823974609 33.417600631713867 -53.187049865722656
-87.690696716308594 35.461399078369141 -51.898200988769531
-87.431800842285156 35.505298614501953 -53.313301086425781
-87.510597229003906 37.016998291015625 -53.337100982666016
-86.951549530029297 31.132550239562988 -50.939149856567383
-87.734298706054688 33.966499328613281 -50.400001525878906
-87.310066223144531 33.047566731770836 -51.299566904703774
-88.178001403808594 35.655200958251953 -50.118801116943359
-85.446002960205078 36.489749908447266 -50.962450027465820
-82.709899902343750 36.339599609375000 -50.544799804687500
-87.349098205566406 37.075500488281250 -51.811698913574219
-84.182250976562500 37.090850830078125 -51.007951736450195
-90.600402832031250 29.905300140380859 -47.445201873779297
-88.662023544311523 30.390700340270996 -48.016050338745117
-88.545125961303711 33.339124679565430 -47.961500167846680
-88.610797882080078 35.576400756835937 -47.987548828125000
-86.189250946044922 36.524950027465820 -47.897100448608398
-85.600402832031250 36.787101745605469 -47.217601776123047
-83.451925277709961 37.166575431823730 -48.000100135803223
-90.549631754557296 30.791166305541992 -45.472166697184242
-89.512865702311203 33.065266927083336 -45.706233978271484
-89.307701110839844 35.572700500488281 -45.949699401855469
-86.951896667480469 36.643901824951172 -45.623298645019531
-85.747348785400391 37.249549865722656 -45.064748764038086
-84.265300750732422 37.421400070190430 -45.091699600219727
-91.528198242187500 30.990650177001953 -43.427301406860352
-90.606374740600586 32.958475112915039 -43.152599334716797
-89.864196777343750 34.043201446533203 -44.166400909423828
-90.286003112792969 35.577301025390625 -42.797298431396484
-88.984199523925781 35.937000274658203 -44.032451629638672
-89.024848937988281 36.788400650024414 -42.540948867797852
-86.676200866699219 37.668474197387695 -43.054574966430664
-93.489400863647461 30.330224990844727 -40.476348876953125
-92.090202331542969 31.311700820922852 -41.409500122070312
-91.413650512695313 33.342824935913086 -40.548748970031738
-91.089347839355469 35.572250366210937 -40.563449859619141
-89.716602325439453 36.500049591064453 -40.183950424194336
-88.312023162841797 37.493549346923828 -40.520674705505371
-86.853731791178390 38.738900502522789 -40.854399363199867
-85.760002136230469 40.102899551391602 -40.551851272583008
-93.751467386881515 30.603200276692707 -37.791300455729164
-92.638000488281250 32.390899658203125 -38.068401336669922
-92.197551727294922 33.461149215698242 -38.447349548339844
-92.082000732421875 35.620500564575195 -37.663850784301758
-90.248748779296875 37.150800704956055 -37.543399810791016
-88.720298767089844 38.615550994873047 -37.527601242065430
-87.918701171875000 39.607299804687500 -37.906398773193359
-94.294180297851568 30.420800018310548 -35.827439880371095
-93.146001815795898 33.326100349426270 -36.004450798034668
-92.897499084472656 35.524898529052734 -35.132400512695313
-91.256896972656250 36.580299377441406 -36.475700378417969
-91.084449768066406 37.190601348876953 -35.319200515747070
-89.655400594075516 38.528700510660805 -35.725566864013672
-88.506131490071610 40.485000610351563 -35.680900573730469
-96.390296936035156 28.192899703979492 -32.359298706054688
-95.410900115966797 29.601400375366211 -32.980350494384766
-94.777648925781250 31.100250244140625 -33.053300857543945
-94.412475585937500 33.295801162719727 -32.903074264526367
-93.893249511718750 35.570501327514648 -32.995700836181641
-92.562500000000000 36.428100585937500 -33.435600280761719
-92.949302673339844 36.826698303222656 -32.097801208496094
-91.167750040690109 38.089249928792320 -33.011266708374023
-89.364421081542972 40.541100311279294 -33.061440277099607
-96.166834513346359 30.085233052571613 -30.251466751098633
-95.216449737548828 33.379549026489258 -30.984799385070801
-95.060203552246094 35.613098144531250 -30.928600311279297
-93.751731872558594 37.254300435384117 -30.323766708374023
-91.608901977539063 38.512401580810547 -30.730800628662109
-90.386150360107422 40.235750198364258 -30.084050178527832
-89.624801635742187 41.190399169921875 -30.537300109863281
-98.035896301269531 28.210899353027344 -27.952499389648438
-97.653900146484375 29.567100524902344 -27.749399185180664
-96.839624404907227 30.663800239562988 -28.468474864959717
-96.295598983764648 33.329850196838379 -28.556974887847900
-96.140750885009766 35.564701080322266 -28.500000000000000
-95.835597991943359 37.012699127197266 -28.358900070190430
-93.445302327473954 37.833198547363281 -28.649500528971355
-91.956401824951172 38.905649185180664 -28.623299598693848
-90.888574600219727 40.374149322509766 -28.105250358581543
-89.786697387695313 41.253898620605469 -29.094499588012695
-99.480598449707031 28.227399826049805 -24.897699356079102
-98.132850646972656 30.342700481414795 -25.542624950408936
-97.914848327636719 33.330400466918945 -24.863499641418457
-97.358398437500000 33.304248809814453 -26.126749992370605
-97.874000549316406 35.576099395751953 -24.864799499511719
-97.270698547363281 35.550098419189453 -26.074300765991211
-97.722900390625000 37.080299377441406 -24.784000396728516
-96.419499715169266 37.522434234619141 -25.640033086140949
-93.871450424194336 38.446224212646484 -25.470174789428711
-92.727996826171875 39.527301788330078 -24.558000564575195
-91.551966349283859 40.463799794514976 -25.229600270589192
-89.902496337890625 41.031700134277344 -24.683200836181641
-90.672798156738281 41.875000000000000 -26.420000076293945
-99.440101623535156 28.148500442504883 -23.350400924682617
-98.882900238037109 30.302300453186035 -23.159500122070313
-98.916831970214844 33.581300099690758 -22.646532694498699
-99.099746704101563 35.566150665283203 -22.477399826049805
-98.455951690673828 37.082651138305664 -23.279850006103516
-96.572750091552734 38.042449951171875 -23.010550498962402
-94.109550476074219 38.868301391601563 -23.338399887084961
-92.869003295898437 39.646099090576172 -23.147399902343750
-91.726699829101563 40.907350540161133 -23.260099411010742
-99.529701232910156 28.061800003051758 -20.343599319458008
-99.448850631713867 30.334675312042236 -21.111599922180176
-100.335998535156250 34.170501708984375 -20.074499130249023
-99.623532613118485 32.592533111572266 -20.731232961018879
-100.457000732421870 35.587200164794922 -20.125400543212891
-100.342002868652340 37.014400482177734 -20.061300277709961
-99.162250518798828 37.783599853515625 -20.992400169372559
-96.834499359130859 38.364000320434570 -20.931774616241455
-94.778747558593750 38.872949600219727 -21.059549331665039
-93.079299926757812 39.937398910522461 -20.972500801086426
-91.233703613281250 40.941699981689453 -21.691200256347656
-100.521499633789060 30.338950157165527 -17.943999767303467
-101.195199584960930 33.210900115966794 -17.813859939575195
-101.601000467936200 35.559300740559898 -18.223533630371094
-101.123202514648440 37.611859130859372 -18.056100082397460
-98.486900329589844 38.755374908447266 -18.078074932098389
-96.219699859619141 38.904699325561523 -18.066499710083008
-93.868076324462891 39.884075164794922 -17.964600563049316
-101.581001281738280 30.588033040364582 -15.705066998799643
-102.630996704101560 32.370201110839844 -14.503100395202637
-102.299499511718750 33.268800735473633 -15.825600147247314
-103.280248641967770 35.245050430297852 -15.374674797058105
-103.330499649047850 37.409324645996094 -15.362099885940552
-101.813001632690430 38.720575332641602 -15.817950248718262
-99.271202087402344 39.107799530029297 -15.919599533081055
-100.406997680664060 39.454299926757813 -15.414600372314453
-97.598899841308594 39.433300018310547 -15.564100265502930
-96.104202270507813 39.562801361083984 -15.591099739074707
-94.222666422526046 40.252234141031899 -15.314966519673666
-102.993000030517580 31.061350822448730 -12.784300327301025
-102.109001159667970 30.348799705505371 -14.231249809265137
-103.662750244140620 33.309525489807129 -13.517075061798096
-105.698001861572270 35.625900268554687 -12.531050205230713
-104.775997161865230 34.968549728393555 -13.184899806976318
-105.761000061035160 38.058520507812503 -12.493680000305176
-104.261749267578120 38.219775199890137 -13.765500068664551
-104.204502105712890 39.693851470947266 -12.399700164794922
-101.355249404907230 39.904649734497070 -13.408950090408325
-98.428825378417969 40.132149696350098 -13.546925306320190
-96.236450195312500 40.435400009155273 -13.686549663543701
-105.117996215820310 31.112300872802734 -9.707679748535156
-104.232997894287110 30.648824691772461 -10.614220142364502
-106.055749893188480 33.207774162292480 -10.257434844970703
-104.598003387451170 32.479999542236328 -11.347149848937988
-108.048000335693360 34.919698715209961 -9.643595218658447
-107.028501510620120 35.192150115966797 -10.870674848556519
-108.562666575113940 37.821467717488609 -10.135740121205648
-106.870498657226560 37.822151184082031 -11.460299968719482
-108.086997985839840 39.984901428222656 -9.616999626159668
-105.898333231608080 40.570617039998375 -10.238376617431641
-103.664332071940110 41.029033660888672 -10.718280156453451
-101.431749343872070 40.985025405883789 -11.352599859237671
-99.165496826171875 41.564601898193359 -11.248299598693848
-101.455001831054690 42.475900650024414 -9.884555101394653
-98.649098714192704 42.486633300781250 -10.645266532897949
-99.266998291015625 44.658401489257813 -10.005599975585937
-106.240001678466800 31.418800354003906 -8.589674949645996
-108.710498809814450 33.196249961853027 -7.675742506980896
-106.958000183105470 32.312500000000000 -8.545299530029297
-110.776667277018230 35.483566284179688 -7.357803344726563
-109.291252136230470 35.205699920654297 -8.621002316474915
-110.893999735514330 37.791533152262367 -8.003254969914755
-111.108997344970700 40.078550338745117 -7.441679954528809
-108.986801147460940 40.603799438476564 -8.446945953369141
-109.077003479003910 41.953001022338867 -7.099300146102905
-106.146600341796870 42.620399475097656 -7.811820030212402
-104.074999491373700 42.848032633463539 -8.535713195800781
-102.447998046875000 43.484500885009766 -8.808770179748535
-103.801748275756840 45.371300697326660 -7.665804862976074
-101.723668416341140 45.006734212239586 -8.759339968363443
-107.773002624511720 31.507200241088867 -6.427730083465576
-111.252250671386720 33.167675018310547 -5.347195029258728
-109.516998291015620 32.688400268554687 -6.607490062713623
-113.205001831054690 35.708700180053711 -5.023794889450073
-111.784334818522140 34.816432952880859 -5.887663364410400
-113.781797790527350 37.977200317382810 -5.460467910766601
-112.471000671386720 37.164199829101563 -6.521180152893066
-115.183998107910160 40.137298583984375 -4.655920028686523
-113.819000244140620 40.555366516113281 -5.419260025024414
-111.967666625976560 40.896834055582680 -6.417099952697754
-113.572502136230470 41.850950241088867 -4.891045093536377
-111.655334472656250 42.522266387939453 -5.223659992218018
-109.003799438476560 43.229679870605466 -5.720139980316162
-106.403999328613280 44.084899902343750 -6.197110176086426
-108.052001953125000 44.368400573730469 -5.021349906921387
-106.177665710449220 45.108500162760414 -5.787403265635173
-105.041000366210940 46.028198242187500 -6.607850074768066
-106.247001647949220 47.269298553466797 -4.690340042114258
-105.072998046875000 47.560501098632813 -6.655310153961182
-115.511001586914060 34.164199829101563 -2.075809955596924
-113.919334411621090 33.429733276367188 -2.989016612370809
-112.582000732421870 32.626598358154297 -3.676429986953735
-115.508499145507810 35.671699523925781 -2.847949981689453
-114.081501007080080 34.877449035644531 -3.664005041122437
-118.541000366210940 38.630500793457031 -2.049570083618164
-116.472499847412110 37.789083480834961 -3.078888297080994
-114.655998229980470 36.839000701904297 -4.234000205993652
-118.314000447591140 40.567265828450523 -2.433686653772990
-116.571332295735670 40.539299011230469 -3.596176703770956
-118.626998901367190 42.942901611328125 -2.105679988861084
-116.326571873256140 42.802642277308870 -2.877865706171308
-113.726000467936200 43.278799692789711 -3.437036673227946
-111.890499114990230 43.724050521850586 -3.685769915580750
-113.399997711181640 44.477350234985352 -2.177235007286072
-111.112665812174480 44.949765523274742 -2.650203267733256
-109.232499440511060 45.418832778930664 -3.365998347600301
-108.590000152587890 47.281450271606445 -2.591024994850159
-117.097999572753910 34.130599975585938 -0.666738986968994
-120.380996704101560 35.416099548339844 0.363878995180130
-118.920331319173170 35.296999613444008 -0.311854672928651
-117.173999786376950 35.576351165771484 -1.533949971199036
-121.367750167846680 38.162224769592285 -0.100639495998621
-119.059664408365890 37.134801228841148 -1.101347684860230
-123.304496765136720 40.777301788330078 0.499057009816170
-121.018001556396480 40.819900512695313 -0.919113501906395
-119.834503173828120 40.910449981689453 -1.689659953117371
-123.036003112792970 43.068151473999023 0.186453994363546
-120.885997772216800 43.122549057006836 -0.707446992397308
-118.824996948242190 43.580799102783203 -1.414829969406128
-117.088996887207030 44.021198272705078 -1.694779992103577
-121.011997222900390 44.894599914550781 0.368116512894630
-119.188667297363280 44.734600067138672 -0.366945674022039
-116.410247802734370 45.135925292968750 -0.620043229311705
-113.478000640869140 45.788500467936196 -0.427610486745834
-111.304000854492190 46.322700500488281 -1.001469969749451
-111.169502258300780 47.562149047851563 -0.021211996674538
-109.773002624511720 47.711601257324219 -0.886788010597229
-123.936500549316410 35.566699981689453 2.230255007743835
-121.417999267578130 35.028598785400391 1.178534537553787
-120.019996643066410 34.215801239013672 0.982547998428345
-126.075332641601560 38.122833251953125 2.878599961598714
-123.856666564941410 37.862583160400391 1.583358168601990
-126.164997100830080 40.826049804687500 2.246140003204346
-124.601331075032550 40.573800404866539 1.357879956563314
-128.104003906250000 42.960800170898437 3.040349960327148
-127.037333170572920 42.632499694824219 2.455636660257975
-124.530998229980470 43.057598114013672 1.010789990425110
-126.853248596191410 45.288874626159668 2.416882574558258
-123.900001525878910 45.308382670084633 1.545054674148560
-120.934251785278320 46.165425300598145 1.419278994202614
-118.671001434326170 46.321550369262695 1.338407009840012
-116.416500091552730 46.069749832153320 0.745143502950668
-126.085998535156250 46.905998229980469 2.922669887542725
-123.870498657226560 47.048351287841797 2.737715005874634
-120.881500244140620 47.164899826049805 2.582424998283386
-118.660003662109370 47.253398895263672 2.490689992904663
-116.322001647949220 47.305139160156251 2.268208026885986
-113.773752212524410 47.793450355529785 1.978392481803894
-112.561996459960940 47.240100860595703 1.021770000457764
-112.834999084472660 49.251201629638672 1.913579940795898
-125.761001586914060 35.778701782226563 4.021820068359375
-130.687995910644530 37.837200164794922 5.209369897842407
-128.672835032145170 37.835065841674805 4.249294956525167
-126.456001281738280 36.981998443603516 3.295710086822510
-130.731498718261720 40.796600341796875 5.152714967727661
-128.659800720214830 40.631359863281247 3.889351987838745
-131.133666992187500 43.088200887044273 4.822353204091390
-129.207992553710940 43.062599182128906 3.674139976501465
-133.581001281738280 45.394300460815430 5.406069993972778
-131.540197753906260 45.482719421386719 4.419127845764161
-129.291000366210940 45.295900344848633 3.477030038833618
-134.393749237060550 48.331174850463867 5.267412424087524
-131.349002838134770 48.221649169921875 4.458002567291260
-128.434499740600590 48.068150520324707 4.035794973373413
-126.182998657226560 48.066650390625000 3.993100047111511
-123.920499165852860 48.445583343505859 4.347184975941976
-121.070401000976560 48.355519866943361 4.134658002853394
-118.665000915527340 48.302900314331055 3.768415093421936
-116.690330505371090 48.681799570719399 3.640486637751261
-133.673995971679690 50.388900756835938 5.650390148162842
-131.188659667968750 49.915899912516274 5.423176606496175
-128.395000457763670 49.308750152587891 5.012974977493286
-126.155998229980470 49.214698791503906 5.109920024871826
-120.179000854492190 49.278099060058594 5.025969982147217
-118.700996398925780 49.412601470947266 4.858870029449463
-117.370002746582030 49.647399902343750 4.579579830169678
-114.341003417968750 49.434200286865234 3.269340038299561
-132.145004272460940 38.583900451660156 6.775629997253418
-135.351997375488280 40.770401000976562 7.997740030288696
-133.601493835449220 40.845399856567383 6.845530033111572
-132.264333089192720 40.526733398437500 6.081240018208821
-135.531997680664060 42.794399261474609 7.719870090484619
-134.173248291015620 42.856399536132813 6.754537463188171
-131.902999877929690 41.710498809814453 5.671339988708496
-138.077499389648440 46.144750595092773 7.662635087966919
-136.103201293945320 45.137540435791017 6.978168010711670
-134.470001220703120 45.279350280761719 5.922749996185303
-141.350997924804690 48.926898956298828 7.896249771118164
-139.014401245117200 48.225180053710936 7.181914138793945
-136.877998352050780 48.272199630737305 6.259239912033081
-142.738006591796870 50.518699645996094 7.980720043182373
-140.912506103515620 49.940450668334961 7.385440111160278
-138.879493713378910 50.553949356079102 6.888114929199219
-135.998001098632810 50.762048721313477 6.251205205917358
-134.320503234863280 50.704898834228516 5.908824920654297
-131.333000183105470 50.998849868774414 6.223885059356690
-128.430500030517580 50.459850311279297 6.100865006446838
-126.232668558756520 50.743768056233726 6.597236633300781
-123.931666056315110 50.718133290608726 6.619886716206868
-121.300001144409180 50.561374664306641 6.366585016250610
-118.592002868652340 50.104099273681641 5.685140132904053
-143.447502136230470 52.084100723266602 8.024050235748291
-141.221000671386720 52.941549301147461 7.821989774703980
-138.925750732421870 52.909026145935059 7.375105023384094
-135.919169108072910 53.042350769042969 7.244086583455403
-133.695668538411470 52.972633361816406 7.360100110371907
-131.684336344401030 52.517534891764321 7.292510032653809
-128.670331319173190 52.026266733805336 7.280066649119060
-126.865501403808590 52.430500030517578 7.719265222549439
-150.223999023437500 54.952499389648438 7.924970149993897
-138.931503295898440 55.134649276733398 8.087800025939941
-135.173004150390630 55.140800476074219 8.070110321044922
-136.962005615234370 41.421901702880859 9.411080360412598
-138.481994628906250 42.842498779296875 9.153360366821289
-136.757334391276030 42.942899068196617 8.726220130920410
-141.687500000000000 46.432249069213867 10.055200099945068
-139.059399414062510 45.186479187011720 9.170118141174317
-146.183003743489590 48.539066314697266 10.173336664835611
-143.452499389648440 48.273598670959473 9.297509908676148
-141.385749816894530 47.392225265502930 8.881392478942871
-150.825500488281250 50.820199966430664 10.081920146942139
-148.692001342773440 50.499599456787109 9.613699913024902
-146.453250885009770 50.166749954223633 9.265700101852417
-144.038993835449220 49.972150802612305 8.584475040435791
-150.675333658854160 52.489899953206383 9.146560033162436
-148.729499816894530 52.786649703979492 8.849090099334717
-146.374500274658200 52.843324661254883 8.549915075302124
-143.426498413085940 53.581748962402344 8.176684856414795
-130.667007446289060 53.574298858642578 8.241869926452637
-128.484001159667970 53.226449966430664 8.536045074462891
-126.177001953125000 53.079498291015625 8.755479812622070
-124.667999267578120 52.136600494384766 8.186249732971191
-150.264999389648440 54.608001708984375 10.410200119018555
-148.654006958007810 55.032299041748047 8.593319892883301
-146.395004272460940 55.025199890136719 8.569234848022461
-143.407997131347660 55.047750473022461 8.329265117645264
-141.633331298828120 55.904965718587242 8.632973035176596
-138.935501098632810 56.238599777221680 8.865785121917725
-136.669006347656250 55.828800201416016 8.252629756927490
-133.792999267578130 54.506500244140625 8.750189781188965
-143.379997253417970 46.159700393676758 11.327950000762939
-141.115997314453120 44.626899719238281 11.301799774169922
-150.251007080078120 48.858898162841797 10.919699668884277
-148.787002563476560 48.772399902343750 10.857000350952148
-146.046330769856780 47.286265055338539 11.402899742126465
-144.414993286132810 47.085899353027344 10.782899856567383
