ply
format ascii 1.0
element vertex 105
property double x
property double y
property double z
end_header
-58.675899505615234 3.986020088195801 65.219497680664063
-60.213500976562500 3.987479925155640 66.727798461914063
-58.773550033569336 3.461354970932007 67.326751708984375
-57.183498382568359 3.544100046157837 66.604400634765625
-60.359451293945313 3.737924933433533 68.950851440429687
-59.166900634765625 3.059104919433594 69.822700500488281
-56.688332875569664 2.971853415171305 69.390800476074219
-61.086799621582031 4.596819877624512 69.786399841308594
-56.349500656127930 1.607439994812012 72.907600402832031
-60.518199920654297 3.812560081481934 72.715599060058594
-59.308599472045898 2.705295026302338 72.012975692749023
-56.459951400756836 2.307399988174439 71.159896850585938
-61.092601776123047 4.544400215148926 71.275497436523438
-58.391601562500000 1.474589943885803 74.336997985839844
-56.517875671386719 0.829396724700928 74.929800033569336
-60.554698944091797 3.797840118408203 74.209503173828125
-59.511850357055664 2.409489989280701 74.208049774169922
-58.287400563557945 0.879582315683365 76.720331827799484
-56.275299072265625 -0.070765499025583 77.317550659179687
-60.540300369262695 3.911025047302246 76.493099212646484
-59.767698923746742 2.443719983100891 76.224266052246094
-60.651199340820313 5.509900093078613 75.750396728515625
-56.069749832153320 -1.448124945163727 80.339897155761719
-58.585199991861977 0.646639332175255 79.752601623535156
-56.769666035970054 -0.545234670241674 79.221900939941406
-60.323501586914063 4.032730102539063 78.746597290039063
-59.996065775553383 3.155830065409342 79.747502644856766
-59.890998840332031 5.519139766693115 80.215103149414063
-57.792301177978516 -0.891679495573044 82.413146972656250
-56.433649063110352 -1.959460020065308 81.735450744628906
-58.948167165120445 0.735569347937902 81.760767618815109
-59.969099044799805 3.374930024147034 81.745647430419922
-59.802200317382813 5.534999847412109 81.711502075195313
-56.733432769775391 -2.009760022163391 83.736732482910156
-59.135699680873323 0.743895571146693 84.105185372488833
-59.951675415039063 2.990577518939972 83.996425628662109
-57.861900329589844 -1.899200022220612 87.752250671386719
-57.188301086425781 -2.672474980354309 86.994701385498047
-59.204662799835205 0.702937263995409 86.993451118469238
-59.746179962158202 2.928292036056519 86.841081237792963
-57.211299896240234 -3.452460050582886 89.240402221679688
-58.008649826049805 -1.980285048484802 89.226848602294922
-59.202400207519531 0.407408028841019 89.260299682617187
-59.408500671386719 3.417630076408386 89.237651824951172
-57.440200805664062 -3.567090034484863 91.475650787353516
-58.371450424194336 -1.775925040245056 91.516399383544922
-59.280674934387207 0.356404736638069 91.496774673461914
-59.205825805664062 3.373620033264160 91.509475708007813
-58.345798492431641 5.432459831237793 92.227996826171875
-57.532600402832031 -3.670799970626831 95.226196289062500
-58.406133015950523 -2.284373323122660 94.764233907063797
-59.281749725341797 0.302450254559517 94.498550415039063
-59.141749382019043 3.394347548484802 94.468950271606445
-58.440549850463867 5.489870071411133 94.508602142333984
-58.490299224853516 7.070779800415039 93.791099548339844
-56.606800079345703 -4.326700210571289 96.779502868652344
-58.373449325561523 -2.521165013313294 96.762851715087891
-59.334150314331055 0.281148999929428 96.747200012207031
-59.328800201416016 3.360535025596619 96.746299743652344
-58.582901000976562 5.545939922332764 96.742301940917969
-57.784448623657227 -3.773390054702759 98.975902557373047
-56.881198883056641 -4.718619823455811 98.253997802734375
-58.465199470520020 -2.571867525577545 98.998123168945313
-59.398750305175781 0.224638760089874 98.977226257324219
-59.555301666259766 2.563359975814819 99.748497009277344
-57.717300415039063 -3.796490073204041 101.970500946044920
-56.264600753784180 -4.794870138168335 102.000499725341800
-58.511025428771973 -2.585160076618195 102.004999160766600
-59.575640106201170 0.485624814033508 101.852799987792960
-59.657267252604164 3.063510020573934 102.230333964029950
-57.797401428222656 -3.852060079574585 104.206501007080080
-56.997798919677734 -4.797080039978027 104.261001586914060
-58.551849365234375 -2.590549945831299 104.259002685546870
-59.454000473022461 0.252003014087677 104.239498138427730
-59.495601654052734 2.592289924621582 104.304000854492190
-57.792350769042969 -3.901054978370667 106.458499908447270
-56.808424949645996 -4.967702507972717 106.860750198364260
-58.711559295654297 -2.539728021621704 106.343798828125000
-59.452439880371095 0.164169996976852 106.351800537109370
-57.879398345947266 -3.943949937820435 108.712997436523440
-57.152750015258789 -4.915655136108398 109.495502471923830
-58.732016245524086 -2.706689953804016 109.492000579833980
-59.780725479125977 0.065063759684563 109.501501083374020
-57.225498199462891 -4.971749782562256 111.742996215820310
-58.982200622558594 -2.332259972890218 111.743667602539060
-60.018299102783203 -0.354148000478745 111.755996704101560
-55.686698913574219 -6.445710182189941 113.244003295898440
-58.576198577880859 -3.359450101852417 114.750000000000000
-57.258800506591797 -4.998465061187744 113.987499237060550
-59.249060058593749 -2.237311959266663 113.835000610351560
-60.222499847412109 -0.460202991962433 113.238998413085940
-55.943766276041664 -6.141013304392497 117.235000610351560
-58.471460723876952 -3.829775905609131 117.163200378417970
-56.980339050292969 -5.350920009613037 117.160400390625000
-60.138500213623047 -1.900079965591431 116.249000549316410
-59.644401550292969 -2.853169918060303 117.816001892089840
-55.505001068115234 -6.195360183715820 119.249000549316410
-58.625467936197914 -3.876206636428833 119.252001444498700
-57.310400009155273 -5.103065013885498 119.251003265380860
-59.510398864746094 -2.801709890365601 119.274002075195310
-55.648149490356445 -6.405225038528442 120.742500305175780
-58.136901855468750 -4.272309780120850 120.728996276855470
-57.270475387573242 -5.067545056343079 121.497999191284180
-55.520801544189453 -6.243080139160156 123.751998901367190
-57.117198944091797 -4.885159969329834 123.736999511718750
