ply
format ascii 1.0
element vertex 171
property double x
property double y
property double z
end_header
-75.321548461914063 165.517997741699220 -174.205993652343750
-78.464599609375000 158.070999145507810 -169.335006713867190
-78.055799865722662 161.344500732421860 -169.847201538085930
-76.844526811079547 165.113456032492910 -170.734451293945310
-74.941701253255204 169.655665079752590 -171.766337076822910
-91.225402832031250 148.910003662109370 -164.195007324218750
-85.367603302001953 152.423500061035160 -164.468498229980470
-84.141899108886719 152.158996582031250 -165.229995727539060
-85.033876419067383 155.203998565673830 -164.018249511718750
-82.817027844880755 155.825261166221220 -166.569471660413230
-85.245399475097656 158.130004882812500 -164.233993530273440
-81.560553995768231 159.543534342447910 -166.637132771809890
-79.472366333007812 159.618667602539060 -168.535664876302090
-81.154467264811203 164.107335408528660 -166.941335042317720
-77.548161433293274 165.091847346379210 -166.136461698091950
-75.339233398437500 169.522997538248690 -166.249333699544280
-74.620002746582031 172.117004394531250 -167.735000610351560
-101.096000671386720 144.496994018554690 -159.688995361328120
-97.260920715332034 147.086801147460930 -160.556997680664070
-93.717048645019531 147.915000915527340 -163.713500976562500
-94.899047851562500 148.339004516601560 -160.860504150390620
-91.810028076171875 150.446092085404840 -160.719725175337350
-87.930111885070801 152.009874343872070 -162.739000320434570
-90.185302734375000 153.570999145507810 -159.356994628906250
-87.098843044704864 154.791888766818570 -161.731555514865450
-84.758052825927734 155.138000488281250 -163.792999267578130
-84.823898315429687 158.423995971679690 -159.652999877929690
-82.306281349875704 159.935637040571720 -161.534274014559660
-78.356777191162109 162.321998596191410 -162.222499847412110
-76.796768188476562 164.172999064127590 -163.134668986002590
-105.224998474121090 140.615005493164060 -153.914001464843750
-103.307003021240230 142.177997589111330 -155.818000793457030
-100.762517293294270 144.500500996907560 -156.082000732421870
-98.303725242614746 146.675624847412110 -156.581249237060550
-96.112686157226563 148.941569737025670 -156.168714250837040
-92.736809539794919 151.569699096679700 -156.660299682617190
-90.384633382161454 153.506332397460940 -155.847000122070310
-87.070550537109369 155.530101013183580 -156.449299621582040
-83.859200613839292 156.741570608956470 -155.789997645786830
-80.784400939941406 158.195007324218750 -157.764007568359370
-114.795997619628910 134.251998901367190 -149.878005981445310
-108.071498870849610 137.371994018554690 -151.086502075195310
-106.901117661420030 140.606294519761040 -150.703764971564790
-104.110000610351560 142.165664672851560 -153.171000162760410
-105.553501129150390 143.912506103515620 -149.589004516601560
-102.074928283691410 145.508784702845990 -151.874571663992750
-98.652297973632812 147.959495544433590 -151.754005432128910
-96.775740814208987 149.590499877929690 -151.552799987792980
-92.451037406921387 151.660625457763670 -151.048748016357420
-90.328701019287109 153.528999328613280 -150.700996398925780
-87.155934651692704 154.953498840332030 -150.905670166015620
-83.738952636718750 155.691505432128910 -151.874000549316410
-126.723335266113280 135.369328816731780 -144.421335856119780
-122.202374458312990 135.863500595092770 -146.606500625610350
-117.742373466491700 136.051124572753910 -146.661874771118160
-113.282999674479170 136.634668986002590 -147.334665934244780
-120.789001464843750 138.207992553710940 -143.852005004882810
-116.831334431966140 139.003000895182280 -144.677663167317720
-111.812635941938920 140.122547496448870 -146.743818803267030
-108.880498886108400 140.755001068115230 -147.937500000000000
-110.552001953125000 143.384002685546870 -145.893005371093750
-107.215332878960510 144.167000664605040 -145.488666110568570
-102.043500264485670 146.178415934244780 -146.686002095540370
-98.116712570190430 147.205125808715820 -145.597251892089840
-96.374011569552948 149.095777723524290 -146.467112223307280
-93.560557774135049 150.876427786690840 -146.959856305803580
-136.690668741861970 132.453999837239590 -140.195999145507810
-142.752502441406250 133.861503601074220 -139.495994567871090
-137.839500427246090 133.742500305175780 -139.384498596191410
-131.347000122070310 134.178799438476570 -140.672799682617180
-127.501669141981340 136.468443128797730 -141.431445651584200
-123.849998474121090 137.627665201822910 -142.805002848307280
-126.071665445963550 138.734664916992190 -139.753331502278660
-122.206285749162940 139.593715122767860 -140.966714041573650
-117.249142238071980 141.168145315987720 -141.670144217354900
-112.400180469859730 142.334272904829530 -141.180819424715910
-107.063751220703120 141.600502014160160 -140.405374526977540
-102.875999450683590 142.404332478841160 -139.598002115885410
-110.919998168945310 143.294006347656250 -142.352005004882810
-106.823997497558590 143.681999206542970 -143.150993347167970
-102.089286804199220 144.154571533203120 -141.677712576729900
-97.860233306884766 146.597333272298190 -142.451833089192720
-95.351196289062500 148.798995971679690 -143.787994384765620
-94.443298339843750 149.824005126953120 -143.785003662109370
-151.154006958007810 132.513000488281250 -134.511993408203120
-147.325908314098000 135.308180375532660 -135.848908857865780
-142.451000213623050 136.821372985839840 -136.529123306274410
-137.168698120117200 136.178599548339830 -137.065600585937490
-132.857598876953120 136.209597778320300 -137.931600952148440
-104.716003417968750 137.919998168945310 -135.996994018554690
-144.802993774414060 138.302993774414060 -133.921997070312500
-141.806503295898440 138.652496337890630 -134.163505554199220
-136.833002726236970 138.623331705729160 -134.935663859049470
-131.673714773995530 139.114286150251100 -135.685143607003340
-127.291874885559080 139.688873291015620 -137.079002380371090
-121.999200439453120 141.048397827148450 -136.181799316406260
-116.518000602722170 141.762125015258790 -136.061752319335940
-111.528666178385420 140.802164713541660 -136.567331949869780
-107.540000915527340 139.431500752766940 -137.455665588378910
-102.684999465942380 140.907001495361330 -138.015495300292970
-161.184005737304690 137.494003295898440 -132.968002319335940
-157.147601318359360 136.952996826171870 -131.765005493164070
-152.453669230143220 136.141001383463530 -132.464500427246090
-147.577499389648440 137.857505798339840 -133.361000061035160
-161.965250015258790 140.989374160766600 -131.194124221801760
-157.492830912272130 140.911000569661470 -129.854334513346340
-151.675832112630220 139.784329732259120 -130.719497680664060
-147.840667724609370 139.633666992187500 -131.331499735514310
-142.473876953125000 140.079126358032230 -131.442125320434570
-137.312284197126100 140.070430210658490 -131.696570260184160
-132.753428867885050 139.955858503069210 -131.488429478236610
-126.786443074544270 140.153001573350710 -131.820002237955720
-121.421199035644530 141.625598144531240 -131.328997802734360
-117.478501637776690 142.101000467936190 -131.501497904459630
-176.173329671223970 147.179667154947910 -129.669998168945310
-172.300399780273440 146.499600219726570 -131.085202026367200
-166.896715436662960 144.680999755859370 -130.533139910016730
-162.977996826171870 143.621002197265620 -129.384994506835940
-156.700998942057280 142.527333577473970 -126.713666280110670
-152.489000592912960 142.047284807477670 -125.257571629115520
-147.446166992187500 141.826001485188810 -125.821333567301440
-142.526126861572270 141.920997619628910 -126.105123519897460
-137.958599853515640 141.554598999023430 -126.256600952148430
-133.427167256673190 140.093167622884120 -126.535668690999340
-125.727001190185550 139.929496765136720 -127.831501007080080
-121.514503479003910 141.322502136230470 -127.920501708984370
-118.857002258300780 142.669006347656250 -127.853996276855470
-180.783996582031250 147.321998596191410 -127.932998657226560
-176.779663085937500 148.016331990559910 -127.711334228515620
-171.463002522786470 147.343338012695310 -127.713333129882810
-166.665600585937510 146.552398681640620 -125.613800048828130
-161.986749649047850 144.484502792358400 -125.929124832153320
-158.204831441243500 143.450665791829440 -125.541500091552730
-184.807006835937500 152.235000610351560 -126.265998840332030
-181.499600219726570 151.213397216796860 -125.391400146484370
-177.396621704101560 150.269376754760740 -125.412874221801760
-172.675666809082030 149.133501688639310 -125.321166992187500
-190.860000610351560 157.115997314453120 -125.506500244140620
-187.812399291992190 155.512701416015630 -125.455999755859380
-182.707992553710940 154.281005859375000 -124.009002685546870
-191.873498535156240 160.385699462890610 -125.301699829101570
-195.083000183105470 166.952003479003910 -125.498497009277340
-193.375000000000000 164.197331746419280 -125.192667643229170
-200.100997924804690 172.350006103515620 -128.154998779296870
-198.110998535156260 171.108401489257800 -125.924200439453130
-194.557006835937500 168.307998657226560 -123.944000244140620
-200.971664428710940 175.404663085937500 -127.083333333333330
-199.423995971679690 173.811004638671870 -125.473999023437500
-166.222000122070310 142.867004394531250 -118.908996582031250
-161.994915008544920 141.981665293375640 -120.325749715169270
-156.958502197265630 141.632998657226550 -122.251900482177730
-153.214248657226560 141.037502288818360 -120.722249984741210
-147.148829142252590 142.278668721516940 -121.530000050862630
-136.779006958007810 142.106994628906250 -123.790000915527340
-169.832000732421870 146.843002319335940 -119.061996459960940
-167.277954101562500 145.874635869806470 -121.055818731134590
-162.814123153686520 144.024372100830080 -122.417500495910640
-176.121285574776780 152.270424979073650 -121.833142961774560
-171.805126190185550 149.834249496459960 -120.996001243591310
-182.034197998046860 156.293797302246110 -121.255399322509760
-178.514140537806920 154.297145298549110 -120.984142848423550
-190.388000488281250 162.418502807617190 -123.005500793457030
-187.529400634765640 160.552999877929690 -121.832800292968760
-184.466003417968750 158.695007324218750 -119.943000793457030
-193.026992797851560 165.983001708984370 -123.599998474121090
-193.796005249023440 168.658004760742190 -122.226997375488280
-158.647994995117190 140.662002563476560 -117.698997497558590
-170.859003702799470 147.421330769856780 -117.884666442871090
-168.560999552408840 145.165003458658840 -118.297335306803390
-172.941400146484370 150.828198242187510 -117.465000915527340
-177.903666178385410 155.075002034505220 -117.824999491373700
