ply
format ascii 1.0
element vertex 361
property double x
property double y
property double z
end_header
62.734125137329102 84.648826599121094 -301.800758361816410
65.985799153645829 82.931434631347656 -296.406331380208310
63.117149353027344 83.913150787353516 -294.821502685546880
67.175003051757813 83.111297607421875 -297.743011474609370
64.133000691731766 82.554931640625000 -290.403330485026060
66.585899353027344 82.579366048177079 -293.015004475911440
62.135634104410805 84.337832132975265 -291.089996337890620
69.033401489257813 77.698799133300781 -284.083007812500000
64.133873939514160 81.894975662231445 -286.917999267578120
66.887172154017861 80.079814365931924 -286.435289655412930
61.414759826660159 84.741322326660153 -286.983795166015620
65.083702087402344 77.991798400878906 -279.872985839843750
66.522647857666016 76.379447937011719 -279.631484985351560
63.345333099365234 80.318135579427079 -281.072336832682310
66.198366800944015 78.551666259765625 -282.772003173828120
64.516724109649658 76.016513824462891 -275.442501068115230
66.169979858398435 74.992558288574216 -277.304003906249990
62.453959655761722 80.087139892578122 -276.604998779296860
61.213734944661461 84.685333251953125 -275.829335530598940
62.865165710449219 71.616099039713546 -270.604329427083310
63.383700284090907 75.636080655184657 -271.897641268643440
61.785933176676430 81.168314615885421 -271.113001505533870
61.609933217366539 84.120165506998703 -271.818328857421870
57.269649505615234 67.651050567626953 -266.636489868164060
58.997200647989906 68.847766876220703 -265.714330037434880
61.130879974365236 71.485598754882815 -265.838000488281240
61.957716623942055 76.073300679524735 -266.765833536783870
62.991481018066409 81.298899841308597 -266.139202880859390
53.242401123046875 68.078102111816406 -261.770996093750000
55.455699920654297 67.655296325683594 -263.669006347656250
54.584766387939453 68.614532470703125 -260.532663981119810
58.841214316231863 70.099228995186948 -261.209429059709810
60.639301300048828 72.505500793457031 -261.885009765625000
61.622262477874756 75.482438087463379 -261.566371917724610
63.685889816284181 80.210250091552737 -261.364697265625010
51.816665649414062 69.650566101074219 -255.130335489908840
58.373466067843964 70.593522813585068 -256.225663926866330
60.189098358154297 73.372001647949219 -255.735000610351560
62.424272710626774 75.909154718572438 -256.035362937233690
64.810501098632812 79.398700714111328 -256.654998779296870
65.879501342773438 80.211934407552079 -255.146336873372410
49.267632802327476 69.195101420084640 -251.813003540039060
52.837733586629234 69.162868499755859 -251.117670694986970
57.373143332345144 70.323557172502788 -251.775144304547980
60.547000885009766 73.041000366210937 -249.686996459960940
63.108044942220054 75.398511250813797 -251.102890014648440
66.536768595377609 77.594734191894531 -250.410339355468750
65.067001342773438 78.296798706054687 -253.699005126953120
67.044300079345703 79.394496917724609 -252.639495849609370
49.362400054931641 66.916698455810547 -245.928497314453120
52.324249267578125 67.910198211669922 -244.857498168945310
53.544178771972653 68.521340942382807 -246.968402099609360
58.068757193429128 70.879285539899556 -246.373428344726560
60.785850524902344 72.813148498535156 -246.646499633789060
63.504608472188316 74.438734690348312 -246.018250783284510
67.078645185990766 75.011400396173656 -245.825180053710940
48.534900665283203 62.741100311279297 -239.457992553710940
48.920833587646484 64.454668680826828 -241.571334838867190
52.010614667619976 66.517970493861611 -240.859715053013390
54.929431915283203 68.521334330240890 -241.789667765299470
57.216262340545654 70.200662612915039 -241.547122955322270
62.982636928558350 72.083376884460449 -241.292247772216800
67.263900756835937 72.289299011230469 -241.716003417968750
65.224601745605469 73.109901428222656 -243.270996093750000
48.913759613037108 61.333119201660153 -236.185397338867180
49.984298706054688 63.559501647949219 -238.061996459960940
52.355370330810544 65.838319396972651 -236.189897155761710
54.877232869466148 68.588033040364579 -235.865666707356780
57.353442600795198 70.013329642159604 -236.069139753069210
62.888532638549805 70.623484293619796 -235.746498107910160
66.165876388549805 70.729475021362305 -236.753501892089840
49.123600006103516 59.412680053710936 -231.361596679687490
50.361799875895180 62.458033243815102 -231.776336669921870
52.236288706461586 66.057900322808166 -231.558442857530390
54.201732635498047 68.737299601236984 -230.532002766927090
57.588343484061106 69.976456778390073 -231.222715105329230
61.654725074768066 70.545450210571289 -231.863502502441410
48.448799133300781 56.515201568603516 -227.606994628906250
49.652233759562172 60.080732981363930 -226.754664103190090
49.888900756835938 64.052001953125000 -225.582000732421870
51.116480255126952 66.523281860351560 -227.004800415039060
52.968625068664551 69.013950347900391 -225.448246002197270
57.383154782381922 71.094045465642751 -226.026454578746440
58.841175079345703 73.992698669433594 -224.698501586914060
61.760533650716148 74.882733662923172 -226.549997965494780
49.026840209960938 56.606520843505862 -221.015798950195320
49.024420166015624 59.912720108032225 -221.852697753906260
49.036039733886717 66.086239624023435 -221.516598510742200
50.001399993896484 69.164802551269531 -219.361999511718750
52.670799948952414 70.446026888760656 -221.206633134321720
56.594599405924477 72.051567077636719 -222.459996541341160
54.923749923706055 76.050148010253906 -220.079498291015620
57.059970855712891 74.833128792898989 -221.990570068359370
53.567298889160156 78.430297851562500 -219.337005615234370
49.277539825439455 57.335219573974612 -216.623602294921880
47.570035761052914 60.643181887539953 -215.845366044477970
44.291400909423828 63.684101104736328 -214.208999633789060
46.812429155622212 65.429557255336221 -216.437715802873900
48.538000318739151 69.480765448676209 -215.787999471028660
51.778014046805247 71.838813781738281 -216.910001482282350
49.557498931884766 74.119796752929688 -215.498001098632810
51.953720092773437 75.518970489501953 -216.694502258300790
44.401649475097656 56.977499008178711 -210.531997680664060
46.669500350952148 56.895599365234375 -212.237503051757810
43.698614120483398 60.982899802071707 -210.218643188476560
46.336038135346911 60.060475848969958 -211.824237641834090
43.360999767596908 65.179030491755555 -210.570922851562500
45.516674995422363 65.634826660156250 -213.667499542236330
44.110924720764160 68.721174240112305 -210.351501464843750
47.112045288085937 70.801091974431813 -211.391909512606530
48.502422332763672 75.457789103190109 -211.684002346462680
47.814465840657554 79.808148701985672 -210.982666015625000
35.214298248291016 56.143100738525391 -203.822006225585940
37.523233201768662 56.790033128526474 -205.880109998914920
41.655998229980469 58.032199859619141 -207.085998535156250
34.909000396728516 58.293201446533203 -204.188995361328120
38.066691658713601 60.380563909357242 -205.708815141157660
42.117026519775393 60.332753753662111 -207.645532226562490
39.090880584716800 64.870641326904291 -204.774401855468740
41.654800068248399 65.570016340775922 -207.337635387073870
43.181913248697917 70.033899943033859 -206.455198160807300
45.364200592041016 72.101997375488281 -207.725006103515620
44.897949218750000 74.217647552490234 -204.888999938964840
45.918132781982422 76.095649719238281 -206.571001688639310
46.229575157165527 79.574800491333008 -206.428249359130860
33.599633534749351 56.761966705322266 -202.709330240885410
33.285100555419923 60.214080047607425 -200.739299011230460
35.911332448323570 61.463766733805336 -203.128000895182280
37.302492141723633 65.551841417948410 -201.319667816162110
39.391499519348145 68.900600433349609 -200.673248291015620
42.052750015258788 70.887830352783197 -201.588198852539050
44.417959594726561 74.515840148925776 -200.569400024414050
45.600199699401855 77.016099929809570 -201.822502136230470
29.342300415039063 58.745033264160156 -195.063659667968750
31.566130256652833 61.134540176391603 -196.547599792480470
33.557826649058946 65.426963806152344 -195.659907947887060
35.833924293518066 67.096300125122070 -197.262748718261720
34.812599182128906 68.573898315429687 -194.233993530273440
38.145230102539060 69.799710083007810 -196.248698425292960
41.572083155314125 72.201301574707031 -196.577000935872410
44.134157453264507 74.910557338169639 -195.822429112025670
45.682199478149414 76.867050170898437 -196.777000427246090
47.009100596110024 78.876266479492188 -197.071665445963530
27.328499794006348 57.129051208496094 -189.809997558593750
29.140418312766336 60.987745111638851 -190.695820201527000
30.984766642252605 62.254133860270180 -192.615666707356780
29.718425035476685 65.496762275695801 -189.940376281738280
31.502459716796874 65.726274363199863 -192.077800496419260
30.025299072265625 69.665397644042969 -188.992004394531250
32.409299638536240 69.115322536892364 -190.386778089735230
37.626842498779297 70.986184256417417 -191.721714564732140
40.944700241088867 72.642051696777344 -190.846496582031250
43.610666486952042 74.801511128743485 -191.075780232747410
46.373275756835937 77.571849822998047 -191.790500640869140
47.111698150634766 78.287597656250000 -193.768005371093750
26.838433583577473 57.001733144124351 -187.299001057942720
25.042200088500977 60.122899373372398 -183.968668619791660
27.213464832305910 60.051834487915038 -186.463251495361330
24.820199966430664 65.134952545166016 -184.174499511718750
26.913422478569878 65.887301127115890 -186.554224650065090
25.034900665283203 68.189201354980469 -183.990005493164060
28.231449921925861 69.638517379760742 -186.132334391276030
32.356583277384438 70.414532979329422 -187.351331075032560
37.935132980346680 71.888167063395187 -186.090166727701810
40.860833485921226 72.885965983072921 -185.881337483723970
43.121049880981445 74.504416147867843 -187.069997151692720
46.137298583984375 76.385047912597656 -186.818000793457030
18.272633234659832 60.120382308959961 -179.717666625976560
22.652537584304810 60.415299892425537 -182.061248779296870
19.059650421142578 65.503774642944336 -179.312000274658200
22.408659744262696 65.709190368652344 -181.832398986816400
23.026808998801492 70.654516740278765 -180.527274391867910
27.577971594674246 71.689183916364399 -181.702141898018970
32.987262725830078 71.893473625183105 -181.517625808715820
37.577282587687172 71.907232920328781 -181.796000162760410
41.014949798583984 72.761402130126953 -180.732498168945310
43.247098922729492 74.124050140380859 -182.801506042480470
8.963359832763672 62.299701690673828 -174.182998657226560
12.708660030364991 61.420179748535155 -176.603500366210940
16.380249500274658 60.726349830627441 -178.376247406005860
12.648557118007115 65.572728838239399 -175.225287301199780
16.892383416493733 65.784200032552079 -177.769167582194000
14.306133588155111 70.342966715494796 -174.226333618164060
17.605800021778453 70.326900135387078 -176.354363181374280
22.184700012207031 72.207260131835938 -177.823797607421880
29.346000671386719 72.924896240234375 -177.925994873046880
33.276314871651785 72.283086504255024 -176.432856968470990
38.221175193786621 71.533050537109375 -176.878501892089840
40.930900573730469 72.767097473144531 -177.735000610351560
19.355799674987793 73.899898529052734 -174.601997375488280
22.141059875488281 73.997279357910159 -175.247799682617200
26.866383234659832 73.897181193033859 -175.415166219075530
2.940254245485579 66.141828264508931 -169.676143101283490
7.940771511622837 65.779072352818076 -172.126002720424110
11.432399749755859 68.018302917480469 -173.490005493164060
5.213829994201660 68.153396606445312 -169.845993041992190
7.961824953556061 70.394499778747559 -170.562751770019530
12.057399885995048 70.726628984723774 -172.711290631975460
35.450298309326172 72.817199707031250 -172.184005737304690
8.693946838378906 74.662033081054687 -169.429331461588530
13.046622382269966 75.365178426106766 -170.558446248372410
17.284645427357066 75.984717629172579 -171.101181030273440
22.664028712681361 76.805999755859375 -170.724999564034590
27.800345680930398 76.318137428977266 -171.046453302556810
32.618836836381391 75.072436246004969 -171.176452636718750
-9.157859802246094 72.546600341796875 -166.554992675781250
-1.355737308661143 71.708033243815109 -168.418996175130220
2.717025995254517 71.517359924316409 -168.388198852539060
-10.753849983215332 74.100700378417969 -164.766502380371090
-7.282199919223785 75.663450241088867 -165.833374023437500
-2.578937243331562 76.027027476917610 -166.653635198419750
2.844540071487427 74.936302185058594 -167.361398315429680
7.170991420745850 76.763514927455361 -167.937142508370530
11.129650115966797 77.556701660156250 -168.195503234863280
-6.910762310028076 79.300323486328125 -164.152500152587890
-1.638552597590855 81.229984828404014 -164.376998901367190
2.795695556534661 80.138223436143662 -165.516888088650180
8.462824153900147 80.222000122070313 -165.321002197265610
13.212271417890276 79.785343715122764 -165.626998901367190
17.906477928161621 79.924056159125428 -166.440443250868040
22.660849889119465 80.819258371988937 -166.636999766031890
27.267137527465820 80.372324943542480 -167.544498443603520
31.910099029541016 78.904932657877609 -167.961995442708340
-0.851970970630646 84.172096252441406 -164.261001586914060
25.414100646972656 83.270500183105469 -164.919006347656250
-54.332599639892578 122.108001708984370 -163.910003662109370
-56.333150863647461 127.640499114990230 -166.601501464843750
-54.373539733886716 125.442799377441400 -165.434802246093740
-57.560834248860679 130.034667968750000 -165.014333089192720
-53.934434254964195 145.284001668294280 -164.785669962565090
-11.502885954720634 76.396284920828677 -162.518574305943080
-17.606200218200684 82.188098907470703 -158.901496887207030
-12.741349887847900 80.546970367431641 -160.726899719238280
-8.185316562652588 81.449963887532547 -163.219329833984370
-3.436966737111410 82.018099466959640 -163.601333618164060
5.201360225677490 82.037498474121094 -163.748992919921870
7.830702849796841 82.179200308663511 -161.795427594866080
12.834499740600586 82.010020446777347 -160.543600463867190
17.795842715672084 82.182185581752236 -161.773426600864950
20.848899841308594 83.075698852539063 -162.319000244140620
-27.859900474548340 86.227951049804688 -159.368499755859370
-17.107480239868163 85.378739929199213 -159.181201171874990
-11.803455564710829 85.655822753906250 -160.852110120985230
-7.966737065996442 85.628700256347656 -161.957857404436400
-2.692759382724762 85.036740112304685 -162.963198852539050
4.441196521123250 83.803833007812500 -160.336669921875000
21.496800422668457 83.587699890136719 -162.444999694824220
-30.882200241088867 92.076202392578125 -161.576004028320310
-27.032225370407104 89.876163482666016 -159.664999008178710
-20.736900329589844 88.191398620605469 -158.807998657226560
-17.693949699401855 90.123182932535812 -159.070002237955720
-14.019379997253418 89.751400756835935 -159.945196533203130
-34.866500854492188 97.930496215820313 -161.397994995117190
-31.256975173950195 95.593248367309570 -160.741500854492190
-28.503425121307373 95.496850967407227 -159.332500457763670
-16.644699096679687 94.102500915527344 -159.141998291015630
-37.175940704345706 101.288800048828120 -159.661798095703120
-32.484882990519203 99.751449584960938 -159.698832194010410
-53.134966532389321 121.427668253580730 -160.953999837239590
-55.114898681640625 127.955997467041020 -162.708999633789060
-53.623874664306641 125.049999237060550 -160.410499572753910
-56.771156855991912 131.064141409737720 -161.361426217215410
-54.365898132324219 128.292999267578130 -160.054992675781250
-56.210300445556641 136.949335734049470 -161.557332356770840
-56.506919860839844 139.214999389648430 -162.883401489257810
-53.837220001220700 141.853604125976570 -161.550000000000010
-53.978984196980797 144.921999613444000 -161.938664754231780
-18.223932902018230 80.752667744954422 -158.535669962565090
13.283039855957032 82.799160766601560 -156.706201171874990
15.904166539510092 82.887499491373703 -155.919001261393220
-4.903389930725098 87.828750610351563 -154.960502624511720
-1.651997235086229 86.627766927083329 -155.808998955620670
2.705132335424423 85.041324615478516 -155.304874420166020
6.992353963851929 83.873949432373053 -156.016499328613290
11.358200073242188 83.096099853515625 -155.973007202148440
16.975599288940430 83.100700378417969 -155.998001098632810
-22.466516176859539 90.866765340169266 -158.577501932779940
-10.818833351135254 92.090684254964188 -154.825665791829440
-7.856374127524240 89.984055655343198 -155.483714512416300
-4.636940002441406 88.422833760579422 -156.363998413085940
-26.600500106811523 96.282699584960937 -158.408004760742190
-22.792783101399738 95.190031687418625 -158.253166198730470
-17.056266678704155 96.360289679633240 -156.629555596245670
-13.297524929046631 94.145151138305664 -154.874244689941410
-40.973400115966797 102.412002563476560 -158.679992675781250
-31.229733784993488 101.743001302083330 -158.327000935872410
-27.319143022809708 100.422015598842080 -157.700716291155150
-22.189874807993572 100.083684285481770 -156.582831064860020
-18.778249740600586 99.077503204345703 -154.790000915527340
-42.192137718200684 105.612250328063960 -157.535001754760740
-37.068637847900391 106.380000114440920 -157.742498397827150
-32.420640182495120 104.892198181152340 -157.538000488281260
-26.706799825032551 104.257334391276050 -156.412668863932280
-24.098150253295898 103.780498504638670 -154.707496643066410
-46.578844706217446 110.178888956705730 -155.767554389105900
-41.786800384521484 111.096250534057620 -156.894748687744140
-37.825050354003906 111.093750000000000 -156.824748992919920
-32.871619796752931 110.149198913574220 -155.101797485351570
-50.743124961853027 115.112249374389650 -156.913749694824220
-46.816677517361114 116.061665852864580 -156.335664537217890
-42.141499837239586 114.807334899902340 -156.725997924804690
-38.732898712158203 114.123001098632810 -156.632995605468750
-50.899332682291664 120.142000834147140 -157.544001261393220
-46.830416361490883 121.199000040690110 -156.979003906250000
-42.539732615152992 121.813334147135420 -154.039337158203120
-52.266439819335936 125.740800476074210 -157.097598266601550
-47.169928959437776 125.800142560686380 -156.298141479492190
-44.070751190185547 123.796001434326170 -154.594497680664060
-51.953839492797854 130.593301391601560 -156.760899353027360
-48.664824485778809 128.786003112792970 -155.987499237060550
-55.138500213623047 135.600997924804690 -155.518997192382810
-52.579180145263670 134.223599243164070 -156.376800537109370
-0.624216511845589 82.429653167724609 -149.603004455566410
2.221128565924508 82.438442775181358 -150.740428379603800
6.266634941101074 82.277103424072266 -151.695999145507810
-6.455061435699463 86.186213902064736 -150.636284964425220
-2.545294389128685 85.142791112263993 -151.543752034505220
2.218337506055832 84.123512268066406 -152.836122512817380
11.079000473022461 83.263900756835938 -153.751007080078130
-11.295531213283539 91.250555992126465 -151.859062194824220
-8.724860032399496 88.863165961371521 -152.074890136718750
-16.074749946594238 96.799182891845703 -151.489499409993500
-14.006425142288208 94.329751968383789 -151.801494598388670
-21.033820343017577 101.885600280761720 -151.884600830078110
-18.321099962506974 99.732571193150108 -150.892854963030150
-26.511957168579102 106.302430289132260 -151.709283011300220
-23.211316744486492 104.027665456136060 -151.061668395996090
-32.124757494245259 111.335999625069760 -151.828855242047980
-29.066166559855144 108.560335795084640 -150.435668945312500
-36.330166710747612 116.431889851888020 -151.635886298285580
-34.185966491699219 114.074668884277340 -150.429997762044280
-41.049340057373044 121.869000244140620 -152.006802368164070
-38.284544203016495 120.203777737087680 -150.700554741753480
-45.972583134969078 126.874333699544270 -152.023165384928380
-42.623154958089195 124.737223307291670 -150.853332519531250
-39.228199005126953 123.660003662109370 -149.154998779296870
-48.511817296346031 129.803667704264310 -151.152163187662750
-51.599033355712891 134.929166158040370 -151.647832234700530
-6.024085044860840 84.663799285888672 -148.084503173828120
-10.734699964523315 91.165925979614258 -146.820503234863280
-8.955983479817709 88.686464945475265 -146.399668375651030
-14.830499649047852 98.085502624511719 -145.789001464843750
-13.047966957092285 95.352316538492843 -146.000330607096340
-20.407233556111652 102.838999430338550 -145.931996663411470
-17.320788595411514 100.473077562120220 -146.068442450629330
-26.458828789847239 106.389285496303020 -146.372142246791300
-23.353966395060223 104.229499816894530 -146.452334086100250
-30.794066747029621 111.020834604899090 -147.283332824707030
-29.235580062866212 109.450801086425780 -146.321395874023440
-32.101100228049539 115.743272261186080 -146.154090187766340
-35.648799896240234 121.207500457763670 -147.952499389648440
-33.301574707031250 119.583499908447270 -146.305500030517580
-44.807899475097656 128.054000854492190 -147.757003784179690
-41.280117670694985 126.674833933512370 -147.389834086100250
-38.168317159016929 125.652500152587890 -146.690834045410160
-50.582500457763672 132.268997192382810 -147.822998046875000
-47.140560150146484 129.754602050781240 -147.004202270507820
-43.282100677490234 128.563339233398440 -145.284001668294280
-51.619300842285156 135.960006713867190 -147.785995483398440
-26.489049911499023 106.538497924804690 -143.752502441406250
-22.857500076293945 103.916000366210940 -142.802001953125000
