ply
format ascii 1.0
element vertex 747
property double x
property double y
property double z
end_header
-10.489528119564056 -154.481624603271480 -365.252498626708980
-12.163498648281756 -153.741069925242470 -358.433516929889550
-18.292083422342937 -143.789004007975250 -354.822336832682310
-14.225983142852783 -145.367465209960930 -359.132899983723970
-18.579679870605467 -139.094396972656260 -354.720996093749990
-12.968012951038501 -136.670778062608520 -358.189739086009870
-12.450242859976631 -127.477762494768410 -357.623334612165190
-12.588971274239677 -119.904715401785710 -355.967716761997790
-10.680943489074707 -150.200998942057280 -353.485677083333310
-19.012700080871582 -142.652124404907230 -351.008499145507810
-13.731111526489258 -145.513108389718180 -350.543857029506110
-21.264387007682554 -136.654129520539330 -349.247999621975790
-14.500683611089533 -138.008544921875000 -347.440723765980120
-22.253429356743307 -127.581028882194970 -348.093851426068450
-13.421722610791525 -127.342373847961430 -351.066832224528010
-19.997738764836239 -118.844229478102460 -346.694152832031250
-14.562740921974182 -117.920780897140500 -348.809747695922850
-20.404219945271809 -111.991000366210940 -348.122932942708360
-3.109403339773416 -152.111301422119140 -341.038699340820300
3.483122527599335 -156.199249267578130 -343.508491516113280
-9.514612317085266 -142.499628067016600 -339.442375183105470
-6.349116506783859 -146.068783303965690 -340.861304241678000
-21.469370673684512 -134.104881735409010 -343.002292408662700
-12.141744182955835 -135.819613056798150 -340.668547599546340
-28.734308090209961 -125.841639404296870 -340.691920166015620
-22.716766611735025 -128.411834208170570 -338.854434204101550
-14.027310521979080 -128.902157833701690 -338.389368960731930
-31.302167558670043 -118.310274505615240 -339.368724822998050
-23.360340023040770 -117.666550445556640 -343.196498107910140
-30.177522023518879 -110.104222050419570 -337.080738208912010
-23.847669308002178 -109.971845773550190 -340.881190373347350
-28.432175159454346 -101.676326115926100 -336.765749613444030
-25.007712020874024 -101.879908447265620 -340.055521240234380
-28.372099963101473 -92.928818442604765 -337.425911643288370
-26.389549255371094 -94.813449859619141 -339.888000488281250
-9.822586695353190 -142.426666259765620 -333.967000325520810
-7.954080104827881 -147.475006103515620 -335.877990722656250
-10.085746031541090 -135.868847186748810 -332.324462890625000
-28.329799652099609 -123.111000061035160 -334.925994873046870
-22.093654632568359 -123.694364374334160 -334.843916459517060
-12.582828241236070 -126.777117785285500 -331.390529856962300
-36.495980072021482 -115.033201599121100 -333.511798095703110
-31.667421613420760 -118.182428632463730 -332.246358598981600
-22.844163841671413 -119.181221856011290 -330.694944593641480
-38.177088344798371 -110.034088359159580 -331.130734611960010
-31.910525783415764 -109.244031844600560 -332.597388482862930
-39.436969872676968 -100.586687723795580 -329.056818181818190
-32.812328556605749 -101.150788443429140 -332.618314906529010
-37.066216786702476 -93.029349644978836 -327.794497172037780
-32.919149935245514 -92.154706239700317 -332.510530471801760
-35.893767038981117 -82.690933227539062 -327.348337809244810
-33.853152827212682 -83.222678736636510 -330.209686279296870
-38.843399047851562 -72.235702514648437 -326.924987792968750
-34.593601226806641 -77.841201782226562 -328.005004882812500
-13.286734020008760 -124.689117431640620 -323.472882439108450
-21.374420969109785 -117.824684544613490 -322.167502152292340
-16.767416795094807 -122.406500498453780 -322.692998250325500
-38.608500003814697 -107.244812011718750 -324.779748916625980
-30.817403232350070 -109.186676922966460 -322.818792904124560
-26.149833679199219 -112.804668426513670 -322.326329549153630
-46.187849862234934 -98.691079820905415 -322.904429844447520
-40.835451965332034 -100.737998657226570 -322.008140258789070
-34.236214229038787 -103.814570835658490 -319.679574148995530
-48.707900016538559 -91.789386872322325 -320.913097750756040
-41.402830538542375 -91.174122188402265 -324.067608377207880
-47.422424997602192 -83.266417912074502 -319.274141584123870
-40.964984090704668 -82.396084701805790 -323.203737493146950
-34.807498931884766 -79.850196838378906 -326.511993408203120
-48.034844230203070 -72.558920691995056 -321.378588508157180
-41.144267912833918 -75.374793268019147 -324.623613911290310
-34.704399108886719 -76.050796508789063 -326.743011474609380
-57.353566372033320 -63.345578742749765 -320.196363969282690
-51.968410110473634 -66.839600372314450 -323.162600708007800
-65.907360076904297 -57.379059600830075 -318.971499633789050
-62.456800460815430 -59.591598510742187 -319.780990600585940
-17.030650138854980 -123.501502990722660 -316.835998535156250
-27.101299921671551 -114.914001464843750 -312.114339192708310
-23.436394691467285 -117.630611419677730 -315.135001288519960
-30.940302877715141 -109.522425102465080 -313.362512761896310
-26.202549934387207 -113.536998748779300 -316.830490112304690
-38.393064362662180 -99.293296541486470 -313.546251569475430
-34.980383555094399 -103.740666707356770 -314.333999633789060
-54.143867492675781 -87.411198933919266 -314.262003580729190
-48.683986227852955 -90.466977146693637 -314.047600446428590
-42.459981100899832 -93.890195574079243 -313.375286283947160
-56.813319719754730 -81.997423025277939 -312.548193124624390
-50.181267738342285 -82.064328602382119 -315.390823364257810
-57.068505036203483 -73.338505192806849 -311.511843229595000
-51.592315554618835 -74.888178110122681 -315.050309181213380
-63.024150848388672 -60.304550170898437 -312.897499084472660
-58.857440076555527 -64.708125850132532 -313.567114257812480
-53.668800354003906 -68.918197631835938 -317.507995605468750
-67.124180209252145 -56.003658294677734 -313.102839316091210
-72.410301208496094 -44.247579956054686 -311.099401855468730
-71.097799028669087 -49.199542999267578 -312.471003941127210
-72.726033528645829 -41.211967468261719 -310.637990315755190
-493.177001953125000 56.345699310302734 -309.860992431640620
-491.568870544433590 62.129463672637939 -311.671623229980470
-489.451887342664920 68.831033494737412 -312.364780002170160
-484.505004882812500 73.870165506998703 -310.595336914062500
-482.327992757161440 77.178833007812500 -310.568003336588560
-474.526000976562500 84.120300292968750 -309.950988769531250
-28.508800506591797 -114.824001312255860 -307.876495361328120
-35.794399261474609 -105.439002990722660 -301.822998046875000
-32.931800056906305 -108.445882460650280 -305.949825511259180
-39.481067021687828 -100.094222386678060 -304.188279045952700
-48.016174193351496 -90.770558264947709 -303.583515782510060
-43.880579757690427 -94.582429504394526 -305.544201660156260
-56.128277345137164 -80.293600255792796 -304.616048639470880
-51.793384742736819 -84.006950378417969 -304.703698730468770
-65.153910255432123 -71.507875442504883 -304.437748718261730
-59.692393366495772 -74.859472656250006 -303.808200073242180
-72.861450195312500 -61.002250671386719 -300.106506347656250
-66.840371039605913 -63.903748296922252 -303.333192886844760
-61.334550094604495 -65.180180358886716 -306.593151855468760
-73.409301757812500 -58.106098175048828 -300.549987792968750
-67.340398120880124 -56.114640331268312 -303.872699737548830
-72.844437232384308 -45.054184840275688 -303.647306002103390
-70.962461090087885 -48.961730194091800 -304.753298950195300
-74.571745092218578 -37.673327012495562 -303.822952270507810
-74.832731882731125 -29.813399950663250 -302.415171305338560
-494.544998168945310 56.148199081420898 -302.977508544921870
-491.530574253627210 62.298857007707866 -303.750249590192540
-487.582271229137060 68.793472983620390 -304.336042924360810
-484.182464599609370 73.136526489257818 -303.805867513020810
-480.030241867591600 78.802720694706352 -304.084000159954200
-475.477996826171870 83.207982381184891 -303.125165303548160
-471.310764088350200 86.182047226849718 -303.009824865004590
-466.048492431640620 89.186300277709961 -300.958992004394530
-41.244466781616211 -98.384866714477539 -297.599088033040350
-56.337235859462190 -88.772063664027627 -294.471930367606030
-50.012853769155647 -92.137161841759308 -296.072460467998780
-44.433700561523438 -95.693267822265625 -295.965677897135440
-59.013709306716919 -82.845203161239624 -295.608564376831050
-63.667380142211911 -72.237549591064450 -293.217102050781250
-60.863860918127969 -73.787708116614297 -296.225523575492500
-72.458515167236328 -62.042816162109375 -297.033828735351560
-67.041405995686844 -64.783207787407775 -295.469779120551210
-62.715198516845703 -67.939102172851562 -295.985992431640620
-81.326499938964844 -51.708150863647461 -291.847000122070310
-75.450772672086146 -56.174059275034310 -294.846570813978020
-69.970049540201828 -56.457934061686196 -297.026336669921880
-82.267848968505859 -47.082298278808594 -291.335998535156250
-75.942030164930557 -46.139307657877602 -295.325996681495950
-78.033365602846501 -37.887492144549334 -294.412408899377910
-81.218218994140628 -24.798399734497071 -292.320800781250000
-77.990733393916372 -28.609148096155238 -295.312332718460650
-92.022124608357743 -16.556400060653687 -292.121164957682310
-85.394580688476566 -20.772999954223632 -292.722081298828130
-79.331637295809657 -22.281863646073774 -295.134277343750000
-100.782997131347660 -12.203300476074219 -292.118988037109380
-95.895950317382813 -13.990762591362000 -292.577507019042970
-491.188495635986330 64.032337665557861 -296.974994659423830
-487.595738461143070 68.851478978207240 -295.133683054070730
-484.028501238141760 73.344671521868023 -295.367575509207600
-479.744918823242190 78.348450024922684 -294.941916147867860
-475.291000366210940 82.878843307495117 -294.926752726237000
-470.657647174337630 87.012234895125673 -294.786172618036690
-464.847202555338530 91.375559997558597 -294.772599283854160
-460.858365145596570 94.588435086337000 -293.621820623224440
-456.518070765904040 98.120235988071983 -293.744644165039060
-451.654001871744810 103.915667215983080 -291.871337890625000
-63.166999816894531 -87.816596984863281 -288.192993164062500
-60.838799476623535 -89.075876235961914 -290.274490356445310
-64.067355871200562 -81.160631179809570 -286.003248214721680
-62.644067128499351 -83.855901082356766 -289.984670003255190
-67.010628400530138 -73.598168727329792 -286.029200090680830
-69.205034190210796 -64.422603738719019 -286.440930596713370
-81.832901000976562 -51.234600067138672 -290.079010009765620
-75.134916067123413 -53.752853155136108 -287.067313194274900
-70.687114170619424 -58.227213723318918 -288.211281912667400
-84.267157636369973 -45.682291303362163 -286.503856549944200
-78.220658246208643 -48.839175953584558 -284.922291475183840
-91.394325892130539 -37.617258389790855 -283.199498494466130
-85.219996890506224 -37.146356737291491 -287.098838187552810
-80.740249633789063 -39.836448669433594 -290.266494750976560
-91.247193336486816 -28.739762544631958 -282.954690933227540
-85.784865960842225 -27.872619721947647 -287.896634729897130
-100.724227905273440 -15.704685756138392 -284.463570731026780
-94.216172093930453 -19.495406503262728 -286.923980712890620
-88.204848289489746 -22.539512634277344 -289.918498992919920
-118.728601074218740 -6.293900012969971 -286.316192626953120
-111.535030018199580 -9.105228828661369 -286.241697369199810
-104.036214828491210 -12.668607200895037 -286.913394383021740
-98.171567281087235 -14.403133392333984 -290.273671468098940
-128.381001790364590 -1.592798319955667 -282.064666748046870
-121.728727860884230 -5.242612730373036 -285.052179509943190
-486.319335937500000 71.260398864746094 -289.381327311197940
-484.197858537946440 73.766712733677451 -288.542707170758940
-480.244893391927060 78.519507514105896 -286.476667616102420
-475.401163736979190 83.009117762247726 -286.617416381835940
-470.755967663180460 87.124461512411798 -285.831257481728810
-465.868135579427080 91.487786356608069 -285.955460611979160
-461.759879150390650 95.328148193359368 -285.975319824218730
-457.038101196289060 99.715110015869143 -286.280751037597670
-452.071960449218750 104.903840026855460 -285.962720947265610
-448.291814630681810 109.620363408868970 -285.957369717684680
-445.280590820312510 113.699800109863280 -283.160797119140620
-66.920166015625000 -79.222799936930343 -280.009165445963560
-72.378314426967080 -71.551871163504458 -276.481144496372790
-69.895378112792969 -75.236208402193512 -280.160456730769230
-72.162282943725586 -64.858716964721680 -275.903912862141910
-71.421249389648437 -64.778824806213379 -280.026992797851560
-73.236772363836110 -55.885941245339133 -277.388229370117190
-82.750016530354813 -42.929816881815590 -278.981501261393250
-77.570596548227158 -47.103726607102615 -277.229539137620180
-92.785715637207034 -35.597840118408200 -277.953322753906260
-86.834084730881912 -38.999314968402572 -277.124691302959720
-101.288061875563400 -28.158415280855618 -275.132232666015620
-95.812009026022523 -29.239132320179660 -277.938735064338230
-101.884713606400920 -17.866390921852805 -276.788406372070310
-97.042050497872495 -21.888956887381418 -279.503572736467620
-117.803249359130860 -6.305452346801758 -279.824501037597660
-111.853576366718000 -8.784775348810049 -276.929422231820920
-105.258416493733720 -13.255800088246664 -277.286501566569030
-128.180451202392590 0.588038561539724 -278.496250915527360
-121.906928198678160 -2.736620765711580 -276.585606166294670
-116.369499206542970 -5.562994956970215 -275.083496093750000
-135.299001057942720 10.052293141682943 -277.166005452473940
-131.848463603428430 6.574856800692422 -276.330106462751130
-136.628797912597660 16.091600131988525 -274.690496826171850
-134.149002075195310 12.395099639892578 -274.200988769531250
-139.020004272460940 21.954200744628906 -273.786987304687500
-480.043229323167050 79.744653555063095 -279.823460505558900
-475.976753234863280 83.513799667358398 -278.332252502441410
-471.962962223933290 87.225434523362381 -276.963768592247620
-465.987500508626280 91.646442413330078 -276.952163696289060
-461.354810714721680 95.223487377166748 -276.797811508178710
-455.582047895951690 99.720850164240062 -277.145907315340930
-451.611529541015610 103.722667439778650 -277.645129394531240
-447.233306884765620 108.135154430682850 -276.797421968900270
-442.947391675866190 114.571608170219090 -278.014611285665750
-438.293467203776060 118.109466552734370 -275.840663655598970
-434.812377929687500 120.831874847412110 -278.409999847412110
-427.703281947544670 121.420571463448670 -275.036281040736580
-420.575012207031250 122.429000854492190 -274.014007568359370
-72.789788818359369 -63.749149322509766 -270.030200195312490
-72.931851926057234 -55.867964703103773 -268.286651611328120
-81.440723419189453 -42.426424980163574 -270.379501342773440
-76.836256663004562 -46.109293492635089 -268.142032877604150
-91.696882808909692 -34.544976402731500 -268.009941549862110
-86.221429330331304 -38.992218300148295 -268.386813693576410
-80.495796203613281 -41.748901367187500 -263.976989746093750
-101.080817512843920 -25.946243617845617 -268.668261984120250
-96.130392619541709 -29.854050091334752 -268.817141941615490
-110.278142656598770 -17.919449976512364 -267.788715907505600
-105.143666585286450 -21.199612259864807 -268.134999593098940
-118.208571297781800 -10.071927070617676 -265.135280064174080
-112.482226978648800 -9.945114135742188 -268.889724731445310
-106.974998474121090 -13.113699913024902 -272.166000366210940
-125.941001892089840 2.790420055389404 -272.334014892578120
-120.793677299253400 -0.237475054759172 -268.573254985194070
-115.448545976118610 -4.609781828793612 -269.175731312144880
-128.535632578531900 8.135035411516826 -268.483999633789040
-124.499301147460940 4.377171039581299 -266.647406005859350
-135.816461416391230 18.867753835824821 -268.736459585336550
-132.931600952148440 14.853935003280640 -267.224696350097640
-139.555517262425920 25.793372384433088 -268.107068292025870
-145.088846059945920 34.985384867741509 -267.082458496093750
-142.840443929036470 31.644978205362957 -267.248660617404540
-148.026166280110690 42.419050852457680 -264.265833536783870
-470.409844649465470 89.265088533100325 -269.419210333573180
-466.307495117187500 92.582448959350586 -270.557495117187500
-462.530334472656250 95.165583292643234 -268.206874847412110
-453.980792999267580 99.732945760091141 -268.068833669026670
-450.345998128255190 102.583669026692700 -271.392333984375000
-444.818432782147400 106.134972855851460 -268.518326218063750
-438.815818093039750 109.318182511763140 -265.612185391512810
-441.641006469726560 112.139499664306640 -271.966995239257810
-435.838698577880850 115.392500305175790 -268.444248199462890
-429.952111138237850 118.858555263943150 -265.888451470269100
-426.846285138811370 121.012999943324500 -269.077501569475430
-418.838429042271230 123.992144993373330 -266.071001325334810
-411.860198974609370 127.587200927734370 -265.127001953124990
-407.497009277343750 131.074501037597660 -263.953994750976560
-72.747500101725265 -52.539866129557289 -262.583994547526060
-75.593676847570080 -44.898952484130859 -260.976826387293220
-100.320999145507810 -33.440601348876953 -255.794998168945310
-93.912856038411462 -35.584133275349934 -259.568331909179680
-85.377416676488423 -38.895545038683665 -258.841415931438580
-79.522683461507157 -40.661966641743980 -258.464083353678400
-109.556334177653000 -25.817991733551025 -256.598079681396480
-103.361541948820420 -28.608428754304583 -259.655050980417340
-98.029748916625977 -31.822625160217285 -261.907249450683590
-117.908996582031250 -15.786499977111816 -255.016006469726560
-112.278409090909090 -19.411115949804131 -257.717932267622530
-105.747333102756070 -21.301044252183701 -262.706339518229190
-119.172903878348210 -8.220779509771438 -259.800522577194950
-114.182874997456860 -11.981810371081034 -260.265708287556950
-128.229999835674590 0.465414381944216 -257.274380023662840
-123.254037710336530 -2.675708425446199 -259.344961313100950
-129.429541587829590 8.236862132946650 -259.089207331339540
-124.470800781250010 4.313034009933472 -262.130200195312510
-135.925922100360570 18.920969229478104 -257.911388690655030
-132.688053331877060 14.647363110592490 -259.604632728978230
-139.225332189489310 25.391485072948313 -258.901110613787640
-145.165152916541470 36.763238466702973 -258.671385544997010
-142.887928553989950 32.623657499040874 -259.331140790666840
-148.224420647872110 43.046652944464434 -258.895474885639370
-153.154998779296870 52.102401733398437 -259.967987060546870
-150.811283656529010 49.595727648053852 -257.652426583426350
-461.875005086263000 96.493549346923828 -260.653172810872380
-454.235399169921890 99.675327453613278 -259.394719848632800
-448.481994628906250 101.915000915527340 -256.016998291015620
-444.717087455417810 104.034000230872110 -259.561650815217380
-436.313431803385410 108.316966501871750 -259.138032531738300
-430.795338948567690 110.517000834147140 -257.738337198893250
-434.839856828962070 113.951572963169640 -259.913288661411850
-427.156206179887820 115.385538736979170 -259.572614229642450
-421.310127258300780 118.236875534057620 -256.391000747680660
-424.735003662109360 120.727400207519540 -262.614599609374980
-418.077499389648440 123.416264477898100 -259.178295808679930
-411.053812026977540 127.692813396453860 -259.168812751770020
-406.696845421424260 130.771922184870790 -259.337693434495180
-402.757284981863850 133.805143083844850 -256.493857247488850
-102.838949203491210 -33.994990348815918 -250.345851135253890
-94.613536487926140 -35.787604938853868 -251.194591869007470
-85.447892870221821 -37.761185237339568 -253.097714015415730
-130.516006469726560 -25.831800460815430 -245.906997680664060
-120.379333496093750 -26.221744537353516 -249.323556405526630
-112.599173338516910 -28.545467459637187 -251.005281863005250
-105.256000518798830 -31.610980033874512 -253.042401123046890
-128.001300048828110 -19.828563340504964 -247.956867472330740
-121.309697006687970 -19.305222699136444 -251.778529311671410
-115.728124618530270 -22.260562658309937 -253.761375427246090
-126.945312976837160 -11.118551105260849 -247.330939292907710
-121.799020080566410 -10.803996210098267 -251.519899291992170
-127.501955778702450 0.102913838041865 -249.924131310504410
-123.382349777221680 -3.436740554124117 -251.664448547363290
-137.216091502796530 9.856765530326150 -250.229453346946030
-132.090270409217250 5.519028085928697 -249.748886695274930
-146.412072317940840 18.028742926461355 -247.629571097237720
-140.068407058715820 15.921362549066544 -251.075781345367430
-154.511993408203120 26.193399429321289 -245.921997070312500
-147.359734927906710 25.620500115787280 -248.282735039206100
-141.800858997163320 24.665237880888441 -252.960904075985870
-148.618775659677940 33.750526350371693 -249.089122538663900
-153.050328572591160 42.650466918945313 -246.870666503906250
-150.802333407931850 42.760638766818573 -250.918833414713530
-153.810900878906240 52.144210052490237 -247.266799926757810
-152.001616257887630 51.853592212383560 -251.627461360051090
-153.881502787272130 58.807750066121422 -247.576499938964840
-183.199999128069210 73.656871250697549 -246.707144601004470
-177.148428780691970 72.727798461914062 -247.386572701590410
-192.148876190185550 80.588187217712402 -247.022876739501950
-187.197999742296020 76.251424153645829 -247.604556613498260
-194.634002685546870 84.097396850585937 -247.964996337890620
-453.239166259765620 98.979716618855790 -252.611331939697270
-446.886537992037230 100.673623891977160 -249.583154531625610
-443.562751770019530 102.989082972208660 -251.404833475748690
-436.312384972205510 106.071923182560850 -250.512884873610290
-428.350499471028630 109.590555826822920 -249.378723144531250
-432.635986328125000 113.917999267578120 -253.854995727539060
-425.900195312499990 112.122398376464840 -252.225598144531260
-418.500442859738370 115.828232521234550 -250.195326339366830
-411.589404296874990 118.207500457763670 -247.930297851562500
-415.160161336263000 121.808333079020190 -253.316998799641940
-409.088667127821170 124.838066609700520 -250.040645345052070
-403.729665120442690 127.128331502278640 -246.817499796549470
-405.634405517578100 130.005197143554680 -252.451199340820320
-400.508605957031250 133.875736437345810 -250.014710677297500
-396.635757446289060 138.712253570556640 -249.957500457763670
-394.936863490513420 140.447714669363850 -248.213718959263390
-108.206497192382810 -33.072500228881836 -244.878997802734380
-120.354000091552730 -29.432149887084961 -244.743499755859370
-113.794334411621090 -31.562333424886067 -245.098668416341160
-131.822823917164530 -18.455717647776883 -243.419237024643850
-130.765042622884120 -10.617909570535025 -241.796958923339840
-136.232995605468740 2.196838021278381 -237.966802978515630
-130.917969212387560 -0.978756488498413 -241.831696943803280
-138.643289666426800 8.053109708585238 -240.473421197188510
-133.108890109592010 4.931891070471870 -243.909888373480900
-146.357000497671270 18.169507723588211 -241.022154587965760
-141.447264018811670 14.065757952238384 -242.444738287674770
-156.223537738506620 27.012734559866097 -240.876461322491000
-151.042053222656250 23.818957780536852 -241.840631585372110
-165.178416570027680 34.937479178110756 -239.624666849772130
-156.410913218622620 34.617971669072688 -243.127672610075560
-151.713537362905640 33.565215771014877 -245.599153958834140
-172.177001953125000 46.300201416015625 -237.255004882812500
-166.321901321411130 43.538479900360109 -239.273075866699230
-157.343471527099610 43.214657889472115 -242.776333702935120
-152.471496582031250 40.281700134277344 -245.161003112792970
-173.952955072576340 53.108776959505946 -237.903226679021660
-166.419600762261300 51.853037685818144 -240.073822021484370
-158.024723973767520 51.829517364501953 -242.515999629579740
-183.853524459035780 63.955168071546055 -238.269422832288230
-176.322899627685560 60.557094955444335 -239.361100006103530
-166.480042139689120 61.869449933369957 -242.299957275390620
-158.271747589111330 59.501358350118004 -242.740832010904940
-192.280605516935650 71.454328838147617 -239.585973639237270
-185.701727780428800 70.136449640447438 -241.992954600941060
-176.531336466471340 69.640299479166671 -244.452336629231780
-198.966600036621090 80.435369873046881 -238.779299926757800
-194.798038189227750 78.719372969407303 -242.721114525428190
-200.480285644531250 87.921262105305985 -239.919476463681180
-196.404499053955080 85.275199890136719 -244.823997497558590
-435.492507934570310 101.063499450683590 -241.966499328613280
-429.861007690429690 100.443500518798830 -239.435997009277340
-204.573493957519530 95.132297515869141 -238.004997253417970
-434.193252563476560 104.572624206542970 -244.555374145507810
-427.274072919573090 106.212893077305380 -241.680677686418820
-420.253622055053710 109.175061225891110 -239.211936950683590
-416.962934494018550 112.503249645233150 -242.410688400268550
-409.108724659886830 116.210482630236400 -241.918068721376610
-401.933131917317720 118.487865702311200 -239.772865804036460
-290.331444634331600 118.600222269694020 -239.496775309244780
-283.418904622395810 117.115665980747760 -239.905904134114590
-274.852900695800770 116.486751174926750 -239.638450622558590
-264.859339396158870 116.487834930419920 -238.528167724609370
-256.540217081705750 117.071333991156680 -238.408330281575530
-248.548665364583340 116.767000834147140 -237.442672729492190
-410.868269486860810 122.152364557439630 -243.148818969726560
-400.022648166965780 124.410675873627540 -242.233919298326640
-392.605091441761370 125.271408774636010 -238.958954551003190
-306.623992919921870 128.074996948242190 -237.904006958007810
-302.401702880859370 125.239699554443360 -237.972898864746100
-295.304010009765650 121.443400573730470 -238.738000488281240
-397.598933919270850 132.068266805013020 -244.264265950520840
-391.405783653259280 133.942936897277830 -240.480969905853270
-386.233662923177060 134.177998860677090 -237.157663981119780
-308.863006591796870 129.861999511718750 -237.662002563476560
-390.600974273681630 141.075149917602540 -241.204025268554690
-386.691670735677060 144.164332071940090 -237.745330810546870
-372.570510864257810 146.727500915527340 -237.215003967285160
-373.490493774414060 147.635993957519530 -238.369003295898440
-134.243747711181640 -16.849575281143188 -234.927001953125000
-135.358375549316410 -9.566407382488251 -229.636001586914060
-133.734542846679690 -10.577896334908225 -234.115181662819590
-145.310666402181000 1.397825504342715 -229.725667317708340
-139.076924896240230 -0.611121000815183 -232.335425567626940
-133.551222059461790 -4.269273334079319 -234.328665839301210
-146.985655159785840 7.879995165200069 -231.685758919551460
-142.063924936147830 5.625730661245493 -235.465692373422480
-153.535999298095700 18.662700176239014 -228.432250976562500
-149.311605280095880 16.193633426319469 -233.002514925870030
-156.088373661041260 26.434784531593323 -232.414437770843510
-151.840140206473220 22.599557331630162 -234.874712262834830
-166.227943202427470 35.601325879778180 -232.361113630022320
-160.586698913574220 31.085040283203124 -231.954998779296890
-181.267429896763390 47.072656903948101 -231.393428257533490
-174.928115489871000 43.526800377424372 -232.860603864802870
-169.205001831054690 41.652999877929688 -236.875000000000000
-192.304000854492190 54.934866587320961 -229.967666625976560
-184.014437675476070 52.781351884206138 -232.321229616800930
-177.051373799641940 51.332500139872231 -235.753791809082030
-199.878140040806360 63.256607055664063 -228.758143833705360
-192.988254952938010 62.200999807804187 -231.594383402073650
-185.683656964983270 60.293571363176618 -234.977172415597100
-178.983993530273440 57.815700531005859 -236.779998779296870
-208.593668619791660 71.518234252929687 -228.277002970377590
-201.548075262105700 71.354775482753539 -230.958132186025950
-195.184279547797300 68.308778127034500 -234.203833685980900
-209.469738504161000 79.818983326787531 -229.134478361710250
-203.692024594261540 79.014266422816689 -232.956309727260050
-209.936318580140470 88.269432717181260 -230.657020406520100
-204.854773087935000 88.068223779851735 -234.805589155717340
-432.080993652343750 101.959999084472660 -231.641998291015620
-210.221427917480470 96.497956957135884 -230.835105895996090
-205.391832987467440 95.473365783691406 -235.490501403808590
-429.984512329101560 103.467502593994140 -233.107994079589840
-417.105738589638180 107.366893567537010 -234.550894486276720
-410.737681995738630 108.628045515580610 -230.933771306818190
-255.040881886201760 109.890940497903260 -228.926824233111200
-247.228570120675220 109.271190098353800 -229.953237624395460
-239.215709563224550 108.126806197627900 -229.976161833732360
-230.191547740589500 105.418454950506030 -228.670998313210220
-223.485333760579440 107.039834340413410 -228.275497436523440
-211.936670939127590 102.822001139322920 -228.690333048502590
-413.997985839843750 111.251998901367190 -236.494995117187500
-408.549432754516600 112.673624992370610 -233.707001686096190
-400.286104474748870 116.169106892177040 -232.272108350481320
-392.173065185546870 119.064999716622490 -231.050715855189740
-385.489501953125000 119.891498565673830 -228.095497131347660
-290.227809906005860 118.570187568664550 -232.082814216613770
-283.332901727585580 115.782095409574960 -232.442094348725820
-275.383646372202290 114.570864497004320 -232.129811879750830
-265.414164225260440 113.505666097005200 -231.151500956217460
-256.925334121241690 113.344849326393830 -232.607242468631630
-247.498761858258920 113.679571969168520 -233.953000023251490
-240.723273537375720 113.158181623979050 -233.339091907848000
-398.459014892578120 126.168998718261720 -236.065002441406250
-389.988800048828120 122.750899505615240 -234.441450500488290
-382.719569614955330 124.395571681431360 -232.612227521623880
-373.324099731445300 126.081850433349620 -229.737501525878910
-367.789998372395810 127.398499806722000 -228.517499287923190
-306.154998779296870 128.638000488281250 -236.164001464843750
-301.041431930829900 125.825924567456510 -232.129415548072670
-294.950900268554680 121.485500335693360 -231.559399414062510
-396.132995605468750 129.893005371093750 -234.453994750976560
-391.792989095052060 132.734339396158840 -233.661666870117190
-381.723200683593750 132.705360717773430 -234.294761352539070
-373.755925105168270 132.745768620417660 -231.485653803898740
-365.548206197804400 133.286792097420520 -229.051965647730330
-358.460998535156250 137.081504821777340 -228.252998352050780
-315.578664143880190 137.707336425781250 -228.251007080078120
-309.869624159071180 133.569757080078120 -231.402711656358520
-304.693108452690980 129.779222276475710 -232.337003919813360
-382.405455155806120 141.362134760076340 -235.309363625266340
-373.288359375000030 141.934080200195330 -234.100360717773440
-364.543602643694210 142.793228149414060 -232.407228306361620
-356.531057918773000 143.316175573012400 -229.193941004136040
-317.473091819069620 140.118637084960940 -230.077908602627840
-314.131998697916690 138.522003173828120 -231.824000040690090
-362.154711042131680 148.585861206054690 -234.211286272321420
-355.261127471923830 149.146375656127930 -229.549745559692380
-350.540985107421870 152.141006469726560 -227.983001708984370
-152.947006225585940 2.084219932556152 -220.173995971679690
-147.938286917550220 -0.282092147107635 -225.029381888253340
-140.428666856553830 -4.347642236285740 -226.492889404296870
-153.798080444335940 8.467262466748556 -221.817584991455080
-151.141786847795770 6.312584979193551 -225.732500348772330
-155.764125823974610 16.737262368202209 -223.276208877563480
-152.327000935872410 12.896766662597656 -227.116002400716160
-158.645915985107420 25.916229168574016 -223.816666285196930
-173.065301513671870 37.872179794311521 -221.892602539062490
-166.257812500000000 34.074546754360199 -223.311093807220460
-160.485992431640620 30.221799850463867 -225.932998657226560
-190.453002929687500 47.358449935913086 -219.856498718261720
-183.586031595865880 45.144659805297849 -222.707934570312490
-176.227455139160160 41.029986294833094 -224.551954789595160
-199.235785348074780 55.155863898141043 -219.989929199218750
-193.266577251886930 52.452815104339081 -222.245406587245100
-186.874267578125000 50.078047434488930 -225.283665974934910
-208.070713588169640 65.398585728236611 -223.056145804268970
-202.155627228492900 60.955548929613691 -222.864372785701310
-196.146166483561190 58.206850687662758 -225.004000345865880
-219.477999732607880 72.867291405087428 -222.468762352353050
-211.254243432021720 70.313431902629574 -224.541195753144050
-205.446250915527340 68.509284337361649 -227.153834025065090
-235.983858380998900 82.151757376534604 -220.785428728376100
-228.800610012478300 79.712710486518006 -221.857443067762570
-220.460146648127850 78.986778259277344 -224.339195809713230
-213.014698791503920 78.756159591674802 -226.757949829101560
-253.334999084472660 91.502101898193359 -219.945503234863280
-245.554496765136720 89.814416249593094 -220.135999043782560
-237.968037358036750 89.526503386320897 -222.019926283094610
-229.547311305999760 88.460865974426270 -223.812843799591060
-220.244978863260030 88.493747877038047 -225.522478186565910
-214.021247863769530 87.315116882324219 -227.322418212890620
-262.565002441406250 96.113296508789063 -219.945999145507810
-255.776690779061140 99.550685751027075 -220.808689512055510
-247.304529077866500 97.326580047607422 -222.322442447437960
-238.512083053588870 97.581697622934982 -224.561874707539890
-229.677323285271140 97.418070849250341 -225.463705623851100
-220.702625656127940 97.577592277526861 -225.751026535034190
-213.948539147010220 98.267392085148742 -226.930002065805300
-418.566986083984370 102.152999877929690 -225.929000854492190
-406.472306471604550 107.149000901442310 -226.161846454326930
-401.671531168619770 108.997466023763020 -222.561333211263020
-280.259002685546870 110.938003540039060 -219.317001342773440
-273.437919215152140 109.136500509161690 -221.113158376593330
-265.251223717206810 107.450567739981200 -223.168888421706210
-257.387685139973940 105.848901935652190 -224.695588055778960
-247.141855512346550 105.399857112339560 -226.689143589564740
-239.149770883413450 103.182462252103360 -226.824460543118990
-229.950142996651780 102.601140703473770 -227.298998151506710
-220.451349639892580 104.262500000000000 -226.865449523925780
-214.621332804361970 102.781000773111980 -225.819666544596340
-398.557247161865230 113.582541465759280 -224.417542139689120
-391.831159089740940 116.845578645405010 -223.418420892012730
-382.752264725534530 118.593421132940990 -222.794315538908310
-374.090111626519100 119.247111850314670 -221.108445909288210
-366.494333902994810 119.642667134602860 -220.179000854492190
-297.823797607421850 119.303198242187510 -220.248196411132820
-292.360490701966340 117.577457621946170 -222.457169096348650
-283.522199249267600 113.742799949646000 -222.975424194335940
-274.858750479561930 112.111785888671870 -224.989464351109090
-268.141998291015620 111.680000305175780 -226.786247253417970
-380.150001525878910 120.598749160766600 -227.247749328613280
-372.105616642878600 121.942538334773130 -225.583615816556490
-364.297161254882840 123.940440063476560 -224.883540344238270
-355.662334300853620 124.383925261320900 -222.823369344075530
-346.932459904597350 125.389576251690200 -221.629576462965760
-338.079884248621340 125.664058909696690 -220.321883257697610
-328.987568446568100 127.202000209263390 -220.011284964425220
-318.890353932100200 127.367410996380970 -219.944236306583180
-309.655825805664050 126.457449722290040 -221.875774765014650
-301.095098776895500 123.418081690053470 -223.756279617059420
-295.896453857421870 120.893909107555050 -225.307819713245750
-361.265441894531250 131.315889146592890 -227.511889987521700
-355.601036376953120 132.495639038085930 -226.430200805664070
-346.549098205566390 133.150948333740250 -224.530049896240230
-337.091860684481560 133.126681934703470 -222.726226806640620
-328.422661521218060 133.384931044145080 -221.914636438543140
-319.358769343449520 133.539051544971950 -223.403332832532040
-311.281714303152910 131.833536965506430 -225.931321280343180
-353.036005655924500 141.563669840494780 -227.475336710611970
-346.341710408528630 142.073999404907230 -225.462081909179690
-337.586399841308610 142.142450714111330 -223.516648864746090
-329.275291196761600 142.017355149792080 -224.259321643460170
-321.018144880022310 139.359569004603800 -226.632856096540170
-350.809997558593750 149.127502441406250 -227.201995849609370
-346.682833353678400 149.607081095377590 -225.285583496093750
-337.383398437499980 148.522000122070320 -223.218603515625010
-332.545989990234370 148.164993286132810 -223.798004150390620
-155.494000244140640 9.314879894256592 -216.379000854492180
-157.908499823676210 16.786316765679253 -215.098111470540370
-162.994430541992190 29.134685243879044 -212.564998081752240
-160.371448516845700 25.133085060119630 -214.559251403808590
-182.104100036621110 38.275589370727538 -212.503601074218750
-175.175583521525060 36.225358327229820 -214.479207992553710
-167.030088341754410 32.548352448836617 -214.718697589376690
-201.220032230500270 46.038777259088334 -212.037646385931200
-193.118151457413380 45.017285139664359 -214.335413393766970
-185.640482409247030 41.429044920822669 -215.090310984644390
-178.880004882812500 39.522899627685547 -218.343002319335940
-208.767479858398450 54.118188323974607 -211.690521240234370
-202.815724248471470 52.056586998096414 -215.417056982068060
-195.727571759905150 49.036671774727957 -218.003858293805790
-216.742004394531250 66.027000427246094 -210.078002929687500
-210.982044474283870 61.316395653618706 -213.760220675998260
-205.092357090541300 58.929164341517854 -217.523214067731570
-225.935997009277340 74.982349395751953 -212.786499023437500
-220.053297712996200 71.354569718644427 -214.122838200749580
-214.289443969726560 67.499610053168396 -216.164889865451390
-242.977996826171870 83.355697631835938 -210.199005126953120
-237.635137037797420 81.797479282725945 -212.947158119895250
-229.621175878188180 77.621455473058361 -213.993058597340310
-224.353500366210940 75.480651855468750 -217.816993713378910
-255.233688880657330 90.985296841325436 -212.721067757442090
-247.247841921719640 86.944063706831500 -212.920068220658750
-241.648570469447550 84.821998596191406 -215.071143014090410
-280.644012451171870 101.967002868652340 -210.171005249023440
-273.515141078404040 99.987993730817522 -212.008228846958700
-265.267157814719440 97.436833988536492 -214.392704356800440
-258.818937174479170 94.557652791341141 -215.632001749674490
-405.005004882812500 104.690002441406250 -217.027999877929690
-398.532863270152690 108.552363655783910 -214.569727117365060
-394.747996012369810 110.380332946777340 -211.830668131510410
-291.904723068763470 109.105069653741240 -213.493965412008350
-282.781657191685270 105.910399736676890 -213.753743198939730
-275.634511548419310 105.872953015704480 -216.550395876862270
-267.949603271484360 104.209800720214840 -218.252398681640610
-396.940490722656250 111.512001037597660 -218.311996459960940
-391.816242086476280 113.745793572787580 -214.601448848329740
-382.464041748046900 116.684920349121100 -213.364840087890630
-373.871598307291660 117.112466430664060 -213.529600016276050
-364.168192545572940 117.577095031738280 -214.245809645879830
-355.483212119654580 118.137210645173720 -214.447422228361430
-347.308618454706110 118.119476681663880 -213.223237537202380
-337.074601236979160 118.698200480143230 -212.947065226236990
-328.678035191127210 118.813463756016320 -214.545144217354900
-319.060935974121090 117.347312927246090 -213.230999469757080
-310.501857212611580 115.883257620675220 -214.097426932198660
-300.835060119628910 114.535812616348270 -215.546625137329100
-292.374431355794290 114.430299123128250 -217.393567403157560
-285.552001953125000 112.363427298409600 -218.132428850446420
-353.567001342773440 120.241001129150390 -217.880500793457030
-346.377635609019880 121.110090775923300 -217.537637883966620
-336.650166829427060 121.489555782741970 -216.898721483018680
-329.656585693359380 121.821171727673760 -217.477998404667290
-318.951101684570290 123.158100128173830 -217.942498779296870
-311.700380325317380 122.006561756134030 -217.981564521789550
-304.576995849609370 120.082000732421870 -218.037002563476560
-159.931495666503910 20.301099777221680 -208.878005981445310
-164.624312400817870 28.388443827629089 -206.534438133239750
-160.819000244140620 23.088250160217285 -207.980003356933590
-201.066996256510410 38.665098826090492 -204.195999145507810
-192.525470509248630 37.477264628690833 -204.862352259018850
-184.988048008510050 36.421142759777254 -206.611190069289420
-174.538546475497160 33.533399842002176 -206.658273176713440
-169.130692702073300 31.860646174504208 -206.874383779672480
-209.012499237060550 44.601125144958495 -204.299000549316420
-202.532577916195520 41.893889577765215 -207.294842368678050
-193.358314915707240 40.757473192716901 -208.104314703690390
-188.552993774414060 40.137599945068359 -207.960006713867190
-216.235000610351560 55.643900553385414 -202.435663859049470
-212.161381889792040 52.230344435747931 -206.194499745088480
-206.376998901367190 48.265598297119141 -209.746994018554690
-217.965880126953120 62.161508026123045 -204.884281005859380
-214.856571742466510 59.852285657610210 -208.490572248186400
-225.926463200495790 73.862615732046280 -204.978462806114780
-221.633393423897870 69.582139151436948 -205.852928161621090
-252.675003051757810 83.819099426269531 -202.192001342773440
-246.659762427920380 83.185642787388389 -203.989190237862720
-238.040454748905060 80.871530937426016 -205.813635623816280
-230.201770019531240 77.461834498814170 -205.732656860351570
-284.403145926339280 92.630642482212608 -201.522428240094850
-275.095995221819180 92.564829145159038 -201.720142909458700
-263.979946621981530 91.075779446688571 -204.261490977894170
-256.343211025661900 87.974251217312286 -205.488977389865450
-248.573763797157680 85.386144537674753 -206.834947284899270
-290.989821297781820 98.229167393275674 -202.915749141148150
-283.191016094501210 97.092744915301978 -205.335016103891230
-274.500980845668830 96.533162970291940 -206.788210684793030
-266.499394008091540 94.584507805960513 -207.835144042968750
-392.893005371093750 110.580001831054690 -209.746002197265620
-299.482650756835940 107.837924076960630 -203.807347224308900
-292.517409887069330 105.405153714693510 -206.651154738206120
-285.282598876953100 103.080999755859380 -208.981098937988290
-389.972330729166690 112.311332702636720 -208.572331746419280
-380.698092373934680 115.724091269753200 -206.901091142134220
-373.213202843299260 114.960025689540770 -205.965152838291260
-365.456309351427820 113.784034729003910 -205.187655218716320
-355.378821877872270 113.718646778779870 -204.723117603975200
-346.553632234272190 115.073104456851350 -206.050158048930910
-337.887927246093740 115.873132324218740 -205.407397460937490
-328.318457031249980 115.858057294573100 -206.142656162806930
-319.789363954125410 114.890219525593080 -204.728268507050300
-311.327678135463150 113.710285731724330 -204.804393768310550
-303.461599731445290 111.931400299072270 -206.603800964355460
-212.409332275390620 45.875233968098961 -200.252329508463530
-217.801296997070320 54.443159866333005 -198.465901184082040
-215.108993530273440 50.842201232910156 -200.275001525878910
-225.095993041992190 65.901702880859375 -192.156997680664060
-221.452852602358210 61.773137127911603 -196.624369303385410
-227.009347182053770 71.642007974477920 -195.822922926682680
-223.719875335693360 67.698650360107422 -198.163873672485350
-255.395153339092560 83.384661747859070 -195.908232468825130
-247.511144002278660 82.190058390299484 -196.536523001534590
-237.844460707444400 80.375723031850967 -196.250729487492490
-231.480227383700280 77.451745119961828 -197.168909246271310
-299.453002929687500 91.698398590087891 -194.752254486083980
-291.768337249755860 91.451558748881027 -197.912293116251620
-283.722320556640620 90.287781455300077 -198.001408663663000
-274.091003417968750 90.161849237257428 -197.165323072864170
-265.160053045099460 87.702440019087362 -198.152727161754260
-258.071714855375720 85.146158127557669 -198.623237973167790
-306.723673502604190 100.081232706705730 -192.147669474283840
-301.190405845642090 98.063968420028687 -196.227593421936040
-293.729055304276300 95.247678656327096 -199.471577694541540
-286.865997314453120 93.401000976562500 -200.565994262695310
-347.530250549316410 110.157499313354490 -193.510749816894530
-308.133789062500000 108.114749908447270 -194.866207758585600
-303.039044466885630 105.120319019664420 -198.161363775079910
-370.545013427734370 112.171997070312500 -199.942993164062500
-363.532752990722660 111.625999450683590 -200.185501098632810
-355.148328993055540 111.850999620225690 -198.759557088216160
-346.110299682617210 112.692250823974600 -196.423251342773430
-337.215562820434570 114.692625522613530 -196.318062782287600
-327.568454626834750 115.054454687869910 -195.958212187795940
-319.651079101562520 114.458699951171880 -196.274499816894520
-312.387818769975130 112.817454251376060 -197.577589555220160
-229.783748626708980 72.410825729370117 -189.987997055053710
-254.865664164225250 82.514850616455078 -188.928585052490230
-247.148100280761720 82.023100280761724 -188.173200988769540
-239.566496276855470 80.976560211181635 -188.350299072265610
-232.234796142578120 76.470201110839838 -189.966799926757800
-308.721008300781250 100.815999984741210 -190.173500061035160
-338.747009277343750 110.533996582031250 -189.701004028320310
-315.570999145507810 110.180500030517580 -188.005500793457030
-311.256177116842820 106.677413042853860 -190.095764160156250
-342.877014160156250 111.135002136230470 -191.272994995117190
-337.166002546037930 112.943286350795200 -190.689429146902910
-328.158534749348970 114.566866048177090 -190.163668823242180
-318.973210384971200 113.395263270327920 -189.032633731239710
