ply
format ascii 1.0
element vertex 391
property double x
property double y
property double z
end_header
-4.065130233764648 -0.529407024383545 -13.553600311279297
-4.163129806518555 -0.529407024383545 -13.576600074768066
-4.010129928588867 -0.570406973361969 -13.478599548339844
-3.958129882812500 -0.608407020568848 -13.568599700927734
-4.185130119323731 -0.557407021522522 -13.433600425720215
-4.235129833221436 -0.588406980037689 -13.524600028991699
-4.114130020141602 -0.513405978679657 -13.362600326538086
-3.991130113601685 -0.578405976295471 -13.372599601745605
-3.955130100250244 -0.657406985759735 -13.429599761962891
-3.933130025863648 -0.703405976295471 -13.523599624633789
-4.280129909515381 -0.610405981540680 -13.635600090026855
-3.891129970550537 -0.689406991004944 -13.643600463867187
-4.265130043029785 -0.646407008171082 -13.434599876403809
-4.277130126953125 -0.681406974792480 -13.555600166320801
-4.212130069732666 -0.575406014919281 -13.328599929809570
-3.960129976272583 -0.652405977249146 -13.308600425720215
-4.155129909515381 -0.508406996726990 -13.252599716186523
-4.308129787445068 -0.691404998302460 -13.687600135803223
-3.945130109786987 -0.771407008171082 -13.370599746704102
-4.288129806518555 -0.752406001091003 -13.455599784851074
-3.941129922866821 -0.832405984401703 -13.489600181579590
-3.911129951477051 -0.819405972957611 -13.626600265502930
-3.990129947662354 -0.567407011985779 -13.201600074768066
-4.091129779815674 -0.520406007766724 -13.115599632263184
-4.201129913330078 -0.541405975818634 -13.123600006103516
-4.237130165100098 -0.580407023429871 -13.215600013732910
-3.982130050659180 -0.610405981540680 -13.094599723815918
-3.959130048751831 -0.690406024456024 -13.154600143432617
-4.058129787445068 -0.528406977653503 -13.020600318908691
-4.281129837036133 -0.642405986785889 -13.141599655151367
-4.271130084991455 -0.663406014442444 -13.310600280761719
-4.162129878997803 -0.525407016277313 -12.984600067138672
-3.970129966735840 -0.793407022953033 -13.262599945068359
-4.303130149841309 -0.729405999183655 -13.213600158691406
-3.981129884719849 -0.794405996799469 -13.113599777221680
-4.288129806518555 -0.631406009197235 -13.025600433349609
-3.972130060195923 -0.650407016277313 -12.975600242614746
-4.243130207061768 -0.572405993938446 -12.946599960327148
-4.292129993438721 -0.760406017303467 -13.354599952697754
-4.094130039215088 -0.522406995296478 -12.896599769592285
-4.309130191802979 -0.754406988620758 -13.089599609375000
-4.017129898071289 -0.868404984474182 -13.177599906921387
-4.284130096435547 -0.819405972957611 -13.264599800109863
-4.116129875183106 -0.886407017707825 -13.214599609375000
-4.268129825592041 -0.832405984401703 -13.143600463867188
-4.180130004882813 -0.536406993865967 -12.844599723815918
-4.052130222320557 -0.523406028747559 -12.797599792480469
-3.995130062103272 -0.566404998302460 -12.872599601745605
-4.136129856109619 -0.518406987190247 -12.738599777221680
-4.280129909515381 -0.611405014991760 -12.861599922180176
-4.230130195617676 -0.560406982898712 -12.740599632263184
-3.972130060195923 -0.689406991004944 -12.871600151062012
-3.965130090713501 -0.628405988216400 -12.779600143432617
-4.310130119323731 -0.684405028820038 -12.934599876403809
-4.308129787445068 -0.654407024383545 -12.775600433349609
-4.078129768371582 -0.510406017303467 -12.638600349426270
-3.989130020141602 -0.789407014846802 -12.956600189208984
-4.002130031585693 -0.807407021522522 -12.832599639892578
-4.270130157470703 -0.578405976295471 -12.646599769592285
-4.333129882812500 -0.749405980110168 -12.859600067138672
-3.977129936218262 -0.575406014919281 -12.636599540710449
-4.171130180358887 -0.508406996726990 -12.596599578857422
-3.980129957199097 -0.737407028675079 -12.670599937438965
-4.025129795074463 -0.819405972957611 -12.735600471496582
-4.320129871368408 -0.786406993865967 -12.964599609375000
-4.079130172729492 -0.873407006263733 -12.851599693298340
-4.341129779815674 -0.740406990051270 -12.733599662780762
-4.257130146026611 -0.862407028675079 -12.918600082397461
-4.052130222320557 -0.871406018733978 -12.979599952697754
-4.274129867553711 -0.852406978607178 -12.808600425720215
-4.180130004882813 -0.891405999660492 -12.835599899291992
-4.112130165100098 -0.878405988216400 -12.751600265502930
-4.169129848480225 -0.895406007766724 -12.953599929809570
-4.135129928588867 -0.508406996726990 -12.493599891662598
-4.247129917144775 -0.520406007766724 -12.530599594116211
-4.119130134582520 -0.524406015872955 -12.393600463867188
-3.998130083084106 -0.588406980037689 -12.457599639892578
-4.225130081176758 -0.511407017707825 -12.382599830627441
-3.980129957199097 -0.701406002044678 -12.476599693298340
-4.361130237579346 -0.591407001018524 -12.519599914550781
-4.343130111694336 -0.668407022953033 -12.611599922180176
-4.007130146026611 -0.770406007766724 -12.550600051879883
-4.016129970550537 -0.581407010555267 -12.335599899291992
-4.045129776000977 -0.796406984329224 -12.458600044250488
-4.142129898071289 -0.844407021999359 -12.460599899291992
-4.000130176544190 -0.749405980110168 -12.374600410461426
-4.170129776000977 -0.863406002521515 -12.564599990844727
-4.396130084991455 -0.726406991481781 -12.545599937438965
-4.160130023956299 -0.549407005310059 -12.256600379943848
-4.077129840850830 -0.850405991077423 -12.636599540710449
-4.246129989624023 -0.847406029701233 -12.459600448608398
-4.286129951477051 -0.849406003952026 -12.590600013732910
-4.370130062103272 -0.763405978679657 -12.636599540710449
-4.301129817962647 -0.814406991004944 -12.382599830627441
-4.169129848480225 -0.849406003952026 -12.360600471496582
-4.283130168914795 -0.553407013416290 -12.257599830627441
-4.308129787445068 -0.833405971527100 -12.699600219726563
-4.366129875183106 -0.837406992912292 -12.485600471496582
-3.994129896163940 -0.644406020641327 -12.243599891662598
-4.080130100250244 -0.832405984401703 -12.312600135803223
-4.210130214691162 -0.881406009197235 -12.698599815368652
-4.200129985809326 -0.576406002044678 -12.155599594116211
-4.105130195617676 -0.576406002044678 -12.115599632263184
-4.055130004882813 -0.569405972957611 -12.206600189208984
-4.284130096435547 -0.621406018733978 -12.100600242614746
-4.183129787445068 -0.581407010555267 -12.046600341796875
-4.344130039215088 -0.622407019138336 -12.204600334167480
-4.000130176544190 -0.622407019138336 -12.140600204467773
-4.348130226135254 -0.714406013488770 -12.139599800109863
-4.018129825592041 -0.586405992507935 -12.045599937438965
-4.284130096435547 -0.801406025886536 -12.182600021362305
-4.313129901885986 -0.700406014919281 -12.038599967956543
-4.323130130767822 -0.763405978679657 -12.287599563598633
-4.035130023956299 -0.796406984329224 -12.230600357055664
-4.249129772186279 -0.607406020164490 -11.970600128173828
-4.123129844665527 -0.848406970500946 -12.197600364685059
-4.004129886627197 -0.716407001018524 -12.053600311279297
-4.397130012512207 -0.707405984401703 -12.234600067138672
-4.280129909515381 -0.797406017780304 -12.073599815368652
-4.058129787445068 -0.818405985832214 -12.111599922180176
-4.214129924774170 -0.856405973434448 -12.123600006103516
-4.237130165100098 -0.851406991481781 -12.276599884033203
-4.108129978179932 -0.575406014919281 -11.944600105285645
-4.142129898071289 -0.844407021999359 -12.032600402832031
-4.038129806518555 -0.807407021522522 -12.004599571228027
-4.295129776000977 -0.732406020164490 -11.944600105285645
-4.006130218505859 -0.572405993938446 -11.936599731445313
-4.407129764556885 -0.755406022071838 -12.359600067138672
-4.234129905700684 -0.835406005382538 -11.971599578857422
-4.215129852294922 -0.583405971527100 -11.825599670410156
-4.278130054473877 -0.670405983924866 -11.861599922180176
-4.103129863739014 -0.528406977653503 -11.853599548339844
-4.203129768371582 -0.569405972957611 -11.708600044250488
-4.174129962921143 -0.474406003952026 -11.733599662780762
-4.267129898071289 -0.797406017780304 -11.868599891662598
-4.313129901885986 -0.724406003952026 -11.744600296020508
-4.265130043029785 -0.643406987190247 -11.666600227355957
-3.998130083084106 -0.525407016277313 -11.826600074768066
-4.164130210876465 -0.850405991077423 -11.836600303649902
-4.115129947662354 -0.514406979084015 -11.658599853515625
-4.074130058288574 -0.444406002759933 -11.733599662780762
-4.105130195617676 -0.838406980037689 -11.918600082397461
-3.989130020141602 -0.736405014991760 -11.925600051879883
-4.176129817962647 -0.589406013488770 -11.610600471496582
-3.944129943847656 -0.642405986785889 -11.866600036621094
-4.257130146026611 -0.808405995368958 -11.695599555969238
-4.043129920959473 -0.833405971527100 -11.832599639892578
-4.135129928588867 -0.825406014919281 -11.693599700927734
-4.334129810333252 -0.726406991481781 -11.634599685668945
-3.917129993438721 -0.588406980037689 -11.775600433349609
-3.954129934310913 -0.779407024383545 -11.826600074768066
-4.035130023956299 -0.826406002044678 -11.720600128173828
-3.965130090713501 -0.466407001018524 -11.706600189208984
-4.089129924774170 -0.567407011985779 -11.564599990844727
-4.293129920959473 -0.673406004905701 -11.553600311279297
-3.899130105972290 -0.710406005382538 -11.766599655151367
-4.180130004882813 -0.824406981468201 -11.602600097656250
-4.043129920959473 -0.463407009840012 -11.606599807739258
-4.219130039215088 -0.618404984474182 -11.508600234985352
-4.128129959106445 -0.574406981468201 -11.457599639892578
-4.210130214691162 -0.601406991481781 -11.404600143432617
-4.292129993438721 -0.668407022953033 -11.449600219726562
-4.032129764556885 -0.547406017780304 -11.442600250244141
-4.172130107879639 -0.562406003475189 -11.318599700927734
-4.336130142211914 -0.754406988620758 -11.501600265502930
-4.292129993438721 -0.645406007766724 -11.325599670410156
-4.105130195617676 -0.813407003879547 -11.513600349426270
-4.209129810333252 -0.830407023429871 -11.495599746704102
-4.276130199432373 -0.814406991004944 -11.568599700927734
-4.329130172729492 -0.731405973434448 -11.379599571228027
-4.061130046844482 -0.785407006740570 -11.599599838256836
-3.982130050659180 -0.480406999588013 -11.522600173950195
-4.268129825592041 -0.807407021522522 -11.407600402832031
-3.987129926681519 -0.755406022071838 -11.523599624633789
-4.074130058288574 -0.504406988620758 -11.310600280761719
-4.099130153656006 -0.808405995368958 -11.385600090026855
-3.996129989624023 -0.384406000375748 -11.547599792480469
-4.207129955291748 -0.796406984329224 -11.292599678039551
-4.214129924774170 -0.582405984401703 -11.220600128173828
-3.986129999160767 -0.789407014846802 -11.373600006103516
-3.994129896163940 -0.413406014442444 -11.355600357055664
-4.364130020141602 -0.716407001018524 -11.271599769592285
-4.096129894256592 -0.797406017780304 -11.279600143432617
-3.962130069732666 -0.776405990123749 -11.673600196838379
-3.929130077362061 -0.434404999017715 -11.614600181579590
-4.306129932403565 -0.649406015872955 -11.213600158691406
-4.126130104064941 -0.513405978679657 -11.205599784851074
-3.901129961013794 -0.760406017303467 -11.584600448608398
-4.186130046844482 -0.568405985832214 -11.087599754333496
-4.272130012512207 -0.628405988216400 -11.081600189208984
-4.066130161285400 -0.477407008409500 -11.130599975585937
-4.113130092620850 -0.777405977249146 -11.158599853515625
-4.140130043029785 -0.594407021999359 -10.990599632263184
-4.214129924774170 -0.805405974388123 -11.161600112915039
-4.242129802703857 -0.620405972003937 -10.978599548339844
-4.334129810333252 -0.760406017303467 -11.143600463867188
-4.344130039215088 -0.697405993938446 -11.058600425720215
-4.046130180358887 -0.566404998302460 -11.018600463867188
-4.064129829406738 -0.737407028675079 -11.058600425720215
-4.298130035400391 -0.794405996799469 -11.233599662780762
-4.041130065917969 -0.429405987262726 -11.227600097656250
-4.169129848480225 -0.793407022953033 -11.006600379943848
-4.266129970550537 -0.813407003879547 -11.036600112915039
-3.993129968643189 -0.655405998229980 -11.000599861145020
-3.968130111694336 -0.758406996726990 -11.201600074768066
-4.320129871368408 -0.667406976222992 -10.933600425720215
-3.935129880905151 -0.566404998302460 -11.061599731445313
-4.089129924774170 -0.754406988620758 -10.948599815368652
-4.345129966735840 -0.759405970573425 -10.972599983215332
-3.957129955291748 -0.427404999732971 -11.116600036621094
-3.924129962921143 -0.708405971527100 -11.092599868774414
-4.219130039215088 -0.597406029701233 -10.875599861145020
-4.110129833221436 -0.585406005382538 -10.883600234985352
-4.236130237579346 -0.818405985832214 -10.929599761962891
-3.967129945755005 -0.359407007694244 -11.213600158691406
-4.159130096435547 -0.566404998302460 -10.769599914550781
-4.312129974365234 -0.614405989646912 -10.815600395202637
-4.233129978179932 -0.540405988693237 -10.703599929809570
-4.057129859924316 -0.658406019210815 -10.764599800109863
-4.030129909515381 -0.652405977249146 -10.883600234985352
-4.337130069732666 -0.570406973361969 -10.714599609375000
-4.359129905700684 -0.708405971527100 -10.844599723815918
-4.080130100250244 -0.579406023025513 -10.667599678039551
-4.141129970550537 -0.795405983924866 -10.846599578857422
-4.381130218505859 -0.687406003475189 -10.748600006103516
-4.317130088806152 -0.794405996799469 -10.875599861145020
-4.076129913330078 -0.784406006336212 -10.763600349426270
-4.291130065917969 -0.517405986785889 -10.623600006103516
-4.239130020141602 -0.830407023429871 -10.791600227355957
-4.344130039215088 -0.798406004905701 -10.746600151062012
-4.157129764556885 -0.841407001018524 -10.721599578857422
-4.046130180358887 -0.743404984474182 -10.657600402832031
-4.410130023956299 -0.627406001091003 -10.657600402832031
-4.109129905700684 -0.567407011985779 -10.568599700927734
-4.257130146026611 -0.852406978607178 -10.685600280761719
-4.051129817962647 -0.681406974792480 -10.569600105285645
-4.431129932403565 -0.728406012058258 -10.663599967956543
-4.395130157470703 -0.498407006263733 -10.589599609375000
-4.207129955291748 -0.525407016277313 -10.502599716186523
-4.306129932403565 -0.488406002521515 -10.515600204467773
-4.275129795074463 -0.478406012058258 -10.396599769592285
-4.096129894256592 -0.568405985832214 -10.392600059509277
-4.370130062103272 -0.455406993627548 -10.433600425720215
-4.081130027770996 -0.739405989646912 -10.481599807739258
-4.079130172729492 -0.680405974388123 -10.370599746704102
-4.233129978179932 -0.476406991481781 -10.302599906921387
-4.201129913330078 -0.817407011985779 -10.471599578857422
-4.124129772186279 -0.771407008171082 -10.382599830627441
-4.457129955291748 -0.455406993627548 -10.516599655151367
-4.479129791259766 -0.583405971527100 -10.571599960327148
-4.352129936218262 -0.451406002044678 -10.305600166320801
-4.277130126953125 -0.817407011985779 -10.398599624633789
-4.074130058288574 -0.787406027317047 -10.571599960327148
-4.470129966735840 -0.688407003879547 -10.574600219726563
-4.198130130767822 -0.795405983924866 -10.317600250244141
-4.375130176544190 -0.823405027389526 -10.464599609375000
-4.223130226135254 -0.860405981540680 -10.579600334167480
-4.175129890441895 -0.508406996726990 -10.205599784851074
-4.087130069732666 -0.578405976295471 -10.226599693298340
-4.484129905700684 -0.432406991720200 -10.405599594116211
-4.531129837036133 -0.513405978679657 -10.457599639892578
-4.350130081176758 -0.806406974792480 -10.319600105285645
-4.270130157470703 -0.460406005382538 -10.208600044250488
-4.539130210876465 -0.617406010627747 -10.432600021362305
-4.319129943847656 -0.883406996726990 -10.596599578857422
-4.387129783630371 -0.826406002044678 -10.656599998474121
-4.113130092620850 -0.738406002521515 -10.230600357055664
-4.250130176544190 -0.483406990766525 -10.105600357055664
-4.360129833221436 -0.453406006097794 -10.148599624633789
-4.118130207061768 -0.575406014919281 -10.120599746704102
-4.324130058288574 -0.462406992912292 -10.038599967956543
-4.138130187988281 -0.571406006813049 -10.002599716186523
-4.087130069732666 -0.663406014442444 -10.157600402832031
-4.266129970550537 -0.492406010627747 -9.958559989929199
-4.446129798889160 -0.456407010555267 -10.236599922180176
-4.462130069732666 -0.447405993938446 -10.134599685668945
-4.178130149841309 -0.785407006740570 -10.162599563598633
-4.122129917144775 -0.744406998157501 -10.069600105285645
-4.407129764556885 -0.459407001733780 -9.962550163269043
-4.285130023956299 -0.815406024456024 -10.119600296020508
-4.384130001068115 -0.796406984329224 -10.179599761962891
-4.286129951477051 -0.814406991004944 -10.242600440979004
-4.194129943847656 -0.527405977249146 -9.895560264587402
-4.202129840850830 -0.802404999732971 -10.038599967956543
-4.498129844665527 -0.440405994653702 -10.031599998474121
-4.445129871368408 -0.770406007766724 -10.094599723815918
-4.356130123138428 -0.803407013416290 -10.045599937438965
-4.335130214691162 -0.482405990362167 -9.875550270080566
-4.112130165100098 -0.632404983043671 -9.909560203552246
-4.547130107879639 -0.465406000614166 -10.247599601745605
-4.116129875183106 -0.729405999183655 -9.956560134887695
-4.535130023956299 -0.704406023025513 -10.099599838256836
-4.568130016326904 -0.441404998302460 -10.138600349426270
-4.493130207061768 -0.718406021595001 -10.009599685668945
-4.278130054473877 -0.823405027389526 -9.966560363769531
-4.267129898071289 -0.488406002521515 -9.781559944152832
-4.429130077362061 -0.522406995296478 -9.785550117492676
-4.362130165100098 -0.479405999183655 -9.699560165405273
-4.126130104064941 -0.572405993938446 -9.828559875488281
-4.505129814147949 -0.491407006978989 -9.865550041198731
-4.123129844665527 -0.566404998302460 -9.675559997558594
-4.491129875183106 -0.616406977176666 -9.767560005187988
-4.153130054473877 -0.766405999660492 -9.816550254821777
-4.118130207061768 -0.729405999183655 -9.728560447692871
-4.500130176544190 -0.713406980037689 -9.860560417175293
-4.266129970550537 -0.816404998302460 -9.798560142517090
-4.583129882812500 -0.571406006813049 -9.828559875488281
-4.462130069732666 -0.759405970573425 -9.777560234069824
-4.456130027770996 -0.720407009124756 -9.677559852600098
-4.374129772186279 -0.810406982898712 -9.810560226440430
-4.394130229949951 -0.790405988693237 -9.946559906005859
-4.184130191802979 -0.807407021522522 -9.924550056457520
-4.204130172729492 -0.807407021522522 -9.710559844970703
-4.576129913330078 -0.438407003879547 -9.964559555053711
-4.102129936218262 -0.572405993938446 -9.510560035705566
-4.227129936218262 -0.466407001018524 -9.553560256958008
-4.425129890441895 -0.714406013488770 -9.575559616088867
-4.167129993438721 -0.787406027317047 -9.601550102233887
-4.436130046844482 -0.468405991792679 -9.620559692382813
-4.099130153656006 -0.709406971931458 -9.620559692382813
-4.288129806518555 -0.861405014991760 -9.631560325622559
-4.442130088806152 -0.588406980037689 -9.651559829711914
-4.276130199432373 -0.467406004667282 -9.646550178527832
-4.448130130767822 -0.827407002449036 -9.666560173034668
-4.356130123138428 -0.834406971931458 -9.706560134887695
-4.683129787445068 -0.607406020164490 -9.826560020446777
-4.597129821777344 -0.676406025886536 -9.838560104370117
-4.644130229949951 -0.447405993938446 -9.874560356140137
-4.756130218505859 -0.432406991720200 -9.898559570312500
-4.582129955291748 -0.671406984329224 -9.950559616088867
-4.681129932403565 -0.433405995368958 -9.966560363769531
-4.600130081176758 -0.638405978679657 -10.050600051879883
-4.637129783630371 -0.732406020164490 -10.053600311279297
-4.634130001068115 -0.442407011985779 -10.062600135803223
-4.694129943847656 -0.494406998157501 -10.129599571228027
-4.715129852294922 -0.588406980037689 -10.159600257873535
-4.636129856109619 -0.507404983043671 -10.219599723815918
-4.626130104064941 -0.605406999588013 -10.250599861145020
-4.570129871368408 -0.474406003952026 -10.344599723815918
-4.578129768371582 -0.581407010555267 -10.347599983215332
-4.540130138397217 -0.780405998229980 -10.480600357055664
-4.505129814147949 -0.889406979084015 -10.528599739074707
-4.417129993438721 -0.933405995368958 -10.569600105285645
-4.476130008697510 -0.808405995368958 -10.579600334167480
-4.135129928588867 -0.892405986785889 -10.627599716186523
-3.884130001068115 -0.393406987190247 -11.036600112915039
-3.855129957199097 -0.507404983043671 -11.082599639892578
-3.837130069732666 -0.633406996726990 -11.080599784851074
-3.922130107879639 -0.319406002759933 -11.114600181579590
-3.840130090713501 -0.760406017303467 -11.213600158691406
-3.799129962921143 -0.681406974792480 -11.265600204467773
-3.773129940032959 -0.573405027389526 -11.299599647521973
-3.913130044937134 -0.774406015872955 -11.305600166320801
-3.773129940032959 -0.475405991077423 -11.345600128173828
-3.825129985809326 -0.721405982971191 -11.366600036621094
-3.821130037307739 -0.591407001018524 -11.389599800109863
-3.834130048751831 -0.418406993150711 -11.406599998474121
-3.934129953384399 -0.369406998157501 -11.434599876403809
-3.879129886627197 -0.755406022071838 -11.465600013732910
-3.839129924774170 -0.647406995296478 -11.471599578857422
-3.819129943847656 -0.530405998229980 -11.475600242614746
-3.870130062103272 -0.447405993938446 -11.526599884033203
-3.845129966735840 -0.569405972957611 -11.579600334167480
-3.832129955291748 -0.755406022071838 -11.660599708557129
-3.874130010604858 -0.598406970500946 -11.672599792480469
-3.884130001068115 -0.846405982971191 -11.707599639892578
-4.494130134582520 -0.806406974792480 -12.321599960327148
-4.427130222320557 -0.862407028675079 -12.379599571228027
-4.440130233764648 -0.764406979084015 -12.460599899291992
-4.233129978179932 -0.869406998157501 -13.029600143432617
-4.080130100250244 -0.901405990123749 -13.098600387573242
-4.175129890441895 -0.882404983043671 -13.132599830627441
-4.208129882812500 -0.882404983043671 -13.285599708557129
-4.052130222320557 -0.884405970573425 -13.309599876403809
-4.256130218505859 -0.868404984474182 -13.378600120544434
-4.120130062103272 -0.891405999660492 -13.382599830627441
-3.987129926681519 -0.863406002521515 -13.395600318908691
-4.171130180358887 -0.884405970573425 -13.478599548339844
-4.266129970550537 -0.845407009124756 -13.488599777221680
-4.067130088806152 -0.885406017303467 -13.483599662780762
-4.322130203247070 -0.807407021522522 -13.571599960327148
-4.003129959106445 -0.887405991554260 -13.565600395202637
-4.106130123138428 -0.906405985355377 -13.596599578857422
-4.379129886627197 -0.783406019210815 -13.657600402832031
-4.194129943847656 -0.900407016277313 -13.647600173950195
-4.307129859924316 -0.862407028675079 -13.657600402832031
-4.774129867553711 -0.665405988693237 -10.115599632263184
-4.742129802703857 -0.778406977653503 -10.143600463867187
-4.703129768371582 -0.690406024456024 -10.201600074768066
-4.631130218505859 -0.735405981540680 -10.290599822998047
-4.574130058288574 -0.742406010627747 -10.385600090026855
