ply
format ascii 1.0
element vertex 714
property double x
property double y
property double z
end_header
67.838401794433594 -28.297000885009766 34.587600708007813
63.683498382568359 -30.313899993896484 33.386798858642578
68.586997985839844 -28.026599884033203 33.828701019287109
69.518699645996094 -28.062999725341797 33.717300415039062
68.049301147460938 -29.497999191284180 34.752799987792969
68.958602905273437 -29.660699844360352 34.676601409912109
69.393501281738281 -29.246299743652344 34.084300994873047
69.333000183105469 -28.387300491333008 31.077699661254883
66.540100097656250 -31.038799285888672 33.746601104736328
69.934303283691406 -29.180799484252930 33.465900421142578
68.576599121093750 -29.079599380493164 31.280399322509766
71.959602355957031 -27.104999542236328 30.581100463867187
70.513603210449219 -27.570100784301758 29.728799819946289
72.580299377441406 -26.508600234985352 29.811199188232422
69.954498291015625 -29.236900329589844 32.178798675537109
70.163398742675781 -29.864900588989258 33.892898559570313
69.904197692871094 -30.290300369262695 34.585800170898438
67.450599670410156 -30.694299697875977 32.152099609375000
71.044799804687500 -29.494199752807617 33.741500854492188
68.997802734375000 -29.546499252319336 30.707199096679688
67.617401123046875 -31.392200469970703 33.326499938964844
69.723999023437500 -29.143100738525391 30.448499679565430
71.041801452636719 -28.054599761962891 29.247499465942383
70.597297668457031 -28.574300765991211 29.795999526977539
71.348098754882812 -29.341999053955078 32.575401306152344
68.452201843261719 -30.632499694824219 31.664899826049805
68.114196777343750 -31.877500534057617 33.810501098632813
74.083702087402344 -27.069900512695313 29.829700469970703
72.873100280761719 -28.050199508666992 30.451299667358398
72.451599121093750 -28.613100051879883 31.104799270629883
71.895401000976563 -29.830600738525391 33.157199859619141
70.055297851562500 -29.544300079345703 29.761800765991211
72.147903442382813 -30.417900085449219 34.319900512695313
69.033302307128906 -31.057800292968750 31.241399765014648
68.836502075195312 -31.912799835205078 33.070098876953125
75.062797546386719 -27.071500778198242 29.300199508666992
72.370300292968750 -29.804500579833984 32.092899322509766
68.945098876953125 -31.679500579833984 32.161201477050781
73.522102355957031 -28.042400360107422 29.216400146484375
69.062896728515625 -32.508800506591797 33.761901855468750
74.475402832031250 -28.062000274658203 29.632200241088867
73.926300048828125 -28.609100341796875 30.065399169921875
73.400497436523438 -29.124300003051758 30.537799835205078
70.728500366210937 -30.069299697875977 28.937900543212891
69.844398498535156 -31.271699905395508 30.569299697875977
74.540496826171875 -28.095800399780273 28.767900466918945
72.807601928710937 -30.805799484252930 33.095699310302734
76.958297729492187 -26.566799163818359 28.102899551391602
68.269500732421875 -32.865299224853516 31.856199264526367
73.067901611328125 -30.517299652099609 32.262599945068359
74.501602172851563 -29.081600189208984 29.687299728393555
70.372398376464844 -31.304899215698242 29.566099166870117
70.011299133300781 -32.586399078369141 32.220298767089844
68.718803405761719 -32.855701446533203 30.869100570678711
73.785202026367188 -30.271299362182617 30.979299545288086
73.316001892089844 -31.760599136352539 33.594898223876953
70.463302612304688 -32.109600067138672 30.683900833129883
69.835296630859375 -33.898300170898438 34.144100189208984
73.984001159667969 -29.042400360107422 27.664699554443359
77.026298522949219 -27.637300491333008 27.815000534057617
73.686996459960937 -31.381200790405273 32.337100982666016
75.401100158691406 -29.182800292968750 28.993799209594727
75.087600708007813 -28.556499481201172 26.878099441528320
69.705497741699219 -32.358501434326172 28.962499618530273
68.972702026367188 -34.978599548339844 34.213901519775391
70.679496765136719 -32.908798217773438 31.348600387573242
70.986701965332031 -32.099399566650391 29.695899963378906
64.028503417968750 -37.539398193359375 33.730201721191406
69.569297790527344 -34.621299743652344 33.752998352050781
70.098999023437500 -34.150798797607422 33.266498565673828
67.865501403808594 -35.826499938964844 34.166698455810547
78.528503417968750 -27.547199249267578 27.713899612426758
74.080398559570313 -32.007801055908203 32.771499633789063
74.248199462890625 -31.223699569702148 30.995100021362305
68.482597351074219 -35.493900299072266 33.717300415039062
66.646598815917969 -36.749198913574219 34.283798217773437
77.529701232910156 -28.132900238037109 27.330200195312500
65.017501831054688 -37.479400634765625 33.715900421142578
79.983596801757813 -26.966899871826172 27.464899063110352
69.095802307128906 -35.159400939941406 33.266101837158203
67.399597167968750 -36.363601684570313 33.678699493408203
71.070701599121094 -33.037399291992188 30.269699096679688
66.087699890136719 -37.180400848388672 33.760398864746094
71.563499450683594 -33.659198760986328 32.254901885986328
72.060798645019531 -32.033901214599609 28.775499343872070
77.031196594238281 -28.567399978637695 26.748600006103516
75.020698547363281 -31.065500259399414 30.224000930786133
68.008201599121094 -36.031200408935547 33.226898193359375
75.469100952148438 -30.599399566650391 29.636699676513672
75.815902709960937 -30.170000076293945 28.902399063110352
70.666702270507812 -34.160198211669922 31.836299896240234
70.102500915527344 -34.651798248291016 32.273700714111328
76.927597045898437 -29.200300216674805 27.616199493408203
70.216796875000000 -33.515499114990234 29.367000579833984
66.908599853515625 -36.842998504638672 33.183101654052734
71.178100585937500 -33.638500213623047 30.844800949096680
79.051200866699219 -28.101400375366211 27.350999832153320
70.580398559570312 -33.029899597167969 28.293100357055664
76.005996704101563 -29.549800872802734 26.697200775146484
69.013198852539063 -35.539798736572266 32.228401184082031
65.551803588867188 -37.621498107910156 32.753200531005859
73.019096374511719 -33.047698974609375 31.231000900268555
64.969200134277344 -37.891601562500000 32.195400238037109
69.662597656250000 -35.242900848388672 31.813400268554688
67.930603027343750 -36.427799224853516 32.176998138427734
80.024497985839844 -28.056800842285156 27.219699859619141
72.515899658203125 -33.544498443603516 30.729099273681641
66.433296203613281 -37.379798889160156 32.182300567626953
78.544601440429688 -28.568799972534180 26.386499404907227
68.550003051757813 -36.088600158691406 31.749900817871094
72.887001037597656 -32.589900970458984 28.617500305175781
77.976600646972656 -29.568700790405273 27.646299362182617
69.201301574707031 -35.789901733398438 31.342800140380859
77.008796691894531 -29.544900894165039 26.172000885009766
70.691902160644531 -34.015899658203125 28.851999282836914
67.468399047851562 -36.963298797607422 31.695400238037109
71.738601684570313 -34.219200134277344 30.400499343872070
70.529098510742187 -35.061798095703125 30.737300872802734
72.608398437500000 -33.630199432373047 29.797500610351563
65.974700927734375 -37.980800628662109 31.702600479125977
72.125297546386719 -33.035301208496094 27.344100952148437
77.318000793457031 -30.550399780273438 27.937900543212891
76.825302124023438 -31.031400680541992 28.453500747680664
76.052398681640625 -30.561500549316406 26.284700393676758
79.464401245117188 -28.930500030517578 26.502099990844727
65.424102783203125 -38.385501861572266 31.160600662231445
69.873397827148438 -35.851100921630859 30.562500000000000
80.527496337890625 -28.714300155639648 26.963600158691406
78.043800354003906 -29.566900253295898 25.789499282836914
66.836799621582031 -37.811000823974609 31.063800811767578
67.698097229003906 -37.286998748779297 30.871799468994141
68.361602783203125 -36.887901306152344 30.590200424194336
66.173698425292969 -38.272499084472656 30.841199874877930
69.034698486328125 -36.567901611328125 30.242300033569336
71.542900085449219 -35.074199676513672 29.750900268554688
73.041397094726563 -33.060199737548828 26.751800537109375
77.047203063964844 -30.571699142456055 25.789100646972656
72.153198242187500 -34.676399230957031 29.333299636840820
70.054100036621094 -36.088699340820313 29.763399124145508
70.817398071289062 -35.759799957275391 29.507900238037109
74.085098266601563 -32.549198150634766 25.812799453735352
81.535896301269531 -28.975799560546875 26.590299606323242
72.590698242187500 -34.068599700927734 27.298799514770508
77.997200012207031 -30.532300949096680 25.644199371337891
79.027297973632812 -30.055900573730469 25.727600097656250
71.747802734375000 -35.250301361083984 28.877599716186523
69.365699768066406 -36.889701843261719 29.543399810791016
76.525901794433594 -31.558599472045898 25.729999542236328
67.900901794433594 -37.949199676513672 30.107999801635742
68.540496826171875 -37.570999145507813 29.749399185180664
67.064002990722656 -38.604499816894531 30.274499893188477
80.549102783203125 -29.635599136352539 25.886999130249023
73.667503356933594 -33.575801849365234 26.395000457763672
70.410202026367188 -36.454601287841797 29.101699829101563
71.089897155761719 -36.079299926757813 28.795999526977539
82.497497558593750 -29.127899169921875 26.391300201416016
77.387397766113281 -31.512100219726563 25.530000686645508
81.525100708007813 -29.621400833129883 25.945999145507812
73.089103698730469 -34.580200195312500 26.792699813842773
72.535797119140625 -35.063098907470703 27.243099212646484
79.955398559570312 -30.444900512695313 25.454299926757813
69.800796508789063 -37.341800689697266 28.930400848388672
75.015998840332031 -33.062400817871094 25.220500946044922
83.500701904296875 -29.120300292968750 26.395599365234375
67.753997802734375 -38.867198944091797 29.471300125122070
73.796302795410156 -35.054401397705078 27.997999191284180
74.162101745605469 -34.114799499511719 25.882099151611328
78.483398437500000 -31.512899398803711 25.127799987792969
71.452003479003906 -36.537399291992188 28.151500701904297
67.027999877929688 -39.560798645019531 29.736799240112305
68.527297973632813 -38.560699462890625 29.235300064086914
69.164398193359375 -38.132999420166016 28.906400680541992
70.676101684570313 -37.177200317382813 28.453100204467773
85.054901123046875 -29.033300399780273 27.134700775146484
72.168800354003906 -36.086799621582031 27.366800308227539
72.923599243164062 -35.532600402832031 26.644899368286133
79.486801147460938 -31.500499725341797 25.063800811767578
77.585700988769531 -32.591499328613281 24.873699188232422
73.710098266601563 -35.107498168945313 25.911800384521484
83.551101684570313 -30.041099548339844 26.132200241088867
74.913696289062500 -35.064399719238281 27.118000030517578
74.364501953125000 -35.541698455810547 27.557500839233398
74.623497009277344 -34.600799560546875 25.347400665283203
70.445297241210937 -37.965099334716797 28.092300415039063
82.544403076171875 -30.546100616455078 25.634599685668945
68.388099670410156 -39.497898101806641 29.057300567626953
69.001296997070312 -39.046798706054688 28.700000762939453
69.616302490234375 -38.605300903320313 28.356399536132813
80.517997741699219 -31.509199142456055 25.019199371337891
81.530403137207031 -31.055999755859375 25.222999572753906
78.518699645996094 -32.548198699951172 24.684700012207031
72.639198303222656 -36.563201904296875 26.838699340820312
72.113800048828125 -37.069698333740234 27.329700469970703
71.522102355957031 -37.558898925781250 27.728099822998047
73.952400207519531 -36.498798370361328 27.638900756835938
85.507598876953125 -30.075700759887695 26.820800781250000
74.154701232910156 -35.580398559570312 25.376100540161133
73.589897155761719 -36.067901611328125 25.799800872802734
77.567199707031250 -33.571899414062500 24.839799880981445
74.919799804687500 -36.011600494384766 27.115600585937500
79.527397155761719 -32.539699554443359 24.593700408935547
75.094299316406250 -35.085601806640625 24.820699691772461
70.921302795410156 -38.434501647949219 27.548200607299805
86.533798217773438 -30.062299728393555 27.230100631713867
70.073402404785156 -39.079898834228516 27.804899215698242
84.015403747558594 -31.051300048828125 26.317800521850586
69.515800476074219 -39.555698394775391 28.219800949096680
82.520401000976562 -31.566400527954102 25.269699096679688
78.477897644042969 -33.559501647949219 24.595800399780273
80.527801513671875 -32.559299468994141 24.681400299072266
76.089500427246094 -35.062698364257812 24.879699707031250
77.127700805664063 -34.575698852539063 24.953699111938477
84.994499206542969 -31.031400680541992 26.447700500488281
72.342498779296875 -38.013999938964844 27.021099090576172
72.869796752929687 -37.555599212646484 26.558500289916992
83.539703369140625 -31.569099426269531 25.688499450683594
74.663398742675781 -36.074699401855469 24.909599304199219
74.105598449707031 -36.560501098632812 25.325799942016602
73.630500793457031 -37.050598144531250 25.843399047851563
81.515403747558594 -32.548000335693359 24.897199630737305
85.980796813964844 -31.044200897216797 26.831899642944336
71.677101135253906 -38.720600128173828 26.953699111938477
74.906501770019531 -36.954399108886719 26.582500457763672
87.115699768066406 -31.045799255371094 27.509700775146484
76.896301269531250 -35.499801635742188 24.974500656127930
70.355201721191406 -39.944301605224609 27.002199172973633
79.518997192382812 -34.071098327636719 24.486900329589844
71.005302429199219 -39.526100158691406 26.689300537109375
69.881103515625000 -40.507801055908203 27.568700790405273
86.540496826171875 -31.564399719238281 27.212499618530273
74.164802551269531 -37.547298431396484 25.387899398803711
85.519302368164063 -32.061298370361328 26.757699966430664
87.606597900390625 -31.531999588012695 28.077999114990234
73.655296325683594 -38.088500976562500 25.884099960327148
81.500396728515625 -33.547298431396484 24.920400619506836
74.822303771972656 -37.119701385498047 24.947999954223633
72.154701232910156 -39.200099945068359 26.427000045776367
80.541397094726563 -34.063701629638672 24.638000488281250
84.559402465820313 -32.558799743652344 26.155799865722656
77.981300354003906 -35.534500122070313 24.533399581909180
88.340599060058594 -31.690000534057617 28.531099319458008
79.014602661132812 -35.065101623535156 24.534999847412109
83.606697082519531 -33.075000762939453 25.524099349975586
75.576797485351562 -37.060699462890625 24.329999923706055
73.113098144531250 -39.135601043701172 25.874300003051758
86.594299316406250 -32.545501708984375 27.114999771118164
80.031799316406250 -35.075099945068359 24.544399261474609
74.726501464843750 -38.077999114990234 24.971300125122070
76.574096679687500 -37.076999664306641 24.815399169921875
77.447097778320313 -36.553199768066406 24.555099487304688
82.556800842285156 -34.069099426269531 25.129299163818359
73.873001098632813 -38.940601348876953 25.507999420166016
87.541000366210938 -32.563301086425781 27.711200714111328
86.029899597167969 -33.061298370361328 26.735099792480469
84.486503601074219 -33.560501098632813 25.866699218750000
72.145103454589844 -40.183898925781250 25.920900344848633
71.219398498535156 -40.759498596191406 25.968399047851563
81.034400939941406 -35.063301086425781 24.687799453735352
83.489303588867188 -34.051498413085938 25.402799606323242
88.573501586914063 -32.542598724365234 28.150600433349609
78.483703613281250 -36.517700195312500 24.459800720214844
72.897796630859375 -39.928199768066406 25.512300491333008
85.477401733398438 -33.589099884033203 26.369699478149414
75.588600158691406 -38.060798645019531 24.322500228881836
82.087699890136719 -35.044799804687500 24.985700607299805
74.651000976562500 -39.120300292968750 24.905700683593750
87.066703796386719 -33.534599304199219 27.158199310302734
79.526802062988281 -36.517398834228516 24.429500579833984
80.542800903320312 -36.051998138427734 24.585100173950195
83.033203125000000 -35.061500549316406 25.216499328613281
88.074996948242188 -33.516899108886719 27.665300369262695
73.923103332519531 -40.002300262451172 25.060499191284180
77.063003540039062 -38.068298339843750 24.327800750732422
75.340797424316406 -39.029998779296875 24.420600891113281
86.496398925781250 -34.078899383544922 26.802700042724609
81.525901794433594 -36.062099456787109 24.760000228881836
89.186897277832031 -33.513801574707031 28.487400054931641
83.992500305175781 -35.070201873779297 25.460500717163086
76.432701110839844 -38.546398162841797 24.017400741577148
78.014297485351562 -38.056198120117187 24.162700653076172
84.999603271484375 -35.066799163818359 25.825500488281250
82.574996948242188 -36.055801391601563 25.040500640869141
73.433898925781250 -41.006401062011719 25.074100494384766
75.144599914550781 -40.092098236083984 24.425100326538086
86.009803771972656 -35.069499969482422 26.280399322509766
74.508003234863281 -40.555198669433594 24.699699401855469
75.921501159667969 -39.538200378417969 24.054500579833984
89.001998901367188 -34.092201232910156 27.764299392700195
81.054397583007813 -37.051101684570313 24.587600708007813
83.527702331542969 -36.061798095703125 25.243600845336914
80.021896362304688 -37.566200256347656 24.298599243164062
79.027099609375000 -38.053001403808594 24.113000869750977
77.111000061035156 -39.083099365234375 23.995500564575195
87.012603759765625 -35.070098876953125 26.780599594116211
90.508102416992188 -34.094501495361328 28.794500350952148
82.017601013183594 -37.062099456787109 24.794700622558594
84.583297729492187 -36.065700531005859 25.540700912475586
78.000099182128906 -39.055599212646484 24.051399230957031
88.111297607421875 -34.996101379394531 27.048799514770508
83.056503295898438 -37.065498352050781 25.111400604248047
91.435897827148438 -34.178699493408203 28.958000183105469
85.518600463867188 -36.062599182128906 25.770700454711914
75.105201721191406 -41.080001831054687 24.373199462890625
74.500701904296875 -41.554500579833984 24.683300018310547
89.581001281738281 -35.009700775146484 28.097700119018555
88.907402038574219 -35.163101196289063 27.449100494384766
80.035598754882812 -38.559799194335938 24.194499969482422
79.024902343750000 -39.055801391601563 24.042900085449219
76.061302185058594 -40.571899414062500 23.828599929809570
76.995796203613281 -40.036399841308594 23.628999710083008
86.536300659179688 -36.059200286865234 26.219499588012695
82.013099670410156 -38.057701110839844 24.802600860595703
80.975700378417969 -38.562000274658203 24.466400146484375
90.531303405761719 -35.058498382568359 28.230499267578125
87.547798156738281 -36.055400848388672 26.631500244140625
78.027198791503906 -40.051399230957031 23.687700271606445
85.074096679687500 -37.076999664306641 25.569099426269531
84.010299682617188 -37.552700042724609 25.330299377441406
75.693099975585938 -41.626701354980469 24.004899978637695
92.125999450683594 -34.945999145507813 28.996200561523438
88.493301391601563 -36.058898925781250 26.918600082397461
91.400199890136719 -35.278198242187500 28.588899612426758
85.999397277832031 -37.057899475097656 25.843399047851563
80.049003601074219 -39.555301666259766 24.114999771118164
77.012298583984375 -41.052200317382812 23.595699310302734
79.025802612304688 -40.083499908447266 23.834800720214844
83.030899047851562 -38.563201904296875 25.230600357055664
81.979301452636719 -39.044700622558594 24.884000778198242
80.971298217773438 -39.565498352050781 24.448600769042969
95.026397705078125 -34.570400238037109 30.246299743652344
85.032600402832031 -38.064899444580078 25.725799560546875
77.980300903320313 -41.000400543212891 23.572399139404297
93.528099060058594 -35.063098907470703 29.239500045776367
84.082298278808594 -38.620998382568359 25.597700119018555
90.038398742675781 -36.554698944091797 27.665000915527344
94.529602050781250 -35.060199737548828 29.735399246215820
82.929901123046875 -39.488098144531250 25.453500747680664
88.529098510742188 -37.061599731445312 26.735599517822266
86.504203796386719 -38.031700134277344 26.311500549316406
79.034103393554688 -41.042198181152344 23.673099517822266
81.950202941894531 -40.038398742675781 24.942899703979492
92.014602661132812 -36.090198516845703 28.285499572753906
85.577697753906250 -38.632701873779297 26.091699600219727
83.955299377441406 -39.483600616455078 25.925899505615234
90.984802246093750 -36.594200134277344 27.933399200439453
81.008499145507813 -40.576999664306641 24.306699752807617
80.064796447753906 -41.024501800537109 24.012399673461914
93.039703369140625 -36.042301177978516 28.692699432373047
95.524200439453125 -35.241401672363281 29.872499465942383
78.029800415039063 -42.063499450683594 23.565000534057617
84.993499755859375 -39.498699188232422 26.340000152587891
89.532897949218750 -37.559398651123047 27.217500686645508
81.449096679687500 -41.054298400878906 24.899499893188477
85.960800170898437 -39.406501770019531 26.520399093627930
83.071800231933594 -40.589000701904297 25.593999862670898
94.021202087402344 -36.085300445556641 28.787200927734375
90.484802246093750 -37.589199066162109 27.489599227905273
87.046600341796875 -39.092399597167969 26.666500091552734
83.999801635742188 -40.532100677490234 25.857099533081055
95.008903503417969 -35.982799530029297 29.029800415039062
96.512001037597656 -35.418598175048828 29.577299118041992
92.553199768066406 -37.025398254394531 28.088399887084961
82.002700805664063 -41.555198669433594 25.285800933837891
91.540000915527344 -37.547599792480469 27.670099258422852
83.000396728515625 -41.531398773193359 25.844699859619141
95.995300292968750 -35.971401214599609 29.129400253295898
86.529701232910156 -40.063899993896484 26.730800628662109
93.532402038574219 -37.044200897216797 28.195400238037109
90.050697326660156 -38.541000366210937 27.084199905395508
84.557899475097656 -41.117801666259766 26.129400253295898
95.041496276855469 -36.856399536132813 28.440000534057617
87.544403076171875 -40.108200073242188 26.509799957275391
91.030799865722656 -38.556900024414063 27.217199325561523
96.445602416992188 -36.361301422119141 28.559900283813477
84.027397155761719 -42.059501647949219 26.242799758911133
94.528297424316406 -37.414398193359375 27.995300292968750
92.016799926757812 -38.479099273681641 27.058900833129883
93.006698608398438 -38.189601898193359 27.461599349975586
95.987998962402344 -36.984901428222656 28.171600341796875
94.021896362304687 -38.011699676513672 27.648799896240234
96.940200805664063 -36.456001281738281 27.605100631713867
87.521499633789063 -41.090499877929687 26.611999511718750
95.520103454589844 -37.543098449707031 27.722900390625000
91.044898986816406 -39.517398834228516 26.647699356079102
93.022598266601563 -38.991901397705078 27.159400939941406
96.636398315429687 -37.210201263427734 27.380800247192383
95.066299438476562 -38.127300262451172 27.285800933837891
92.029701232910156 -39.534698486328125 26.698499679565430
93.998298645019531 -38.947601318359375 27.141099929809570
96.126998901367188 -37.798999786376953 26.895799636840820
93.519401550292969 -39.473300933837891 26.665300369262695
94.905899047851563 -38.857200622558594 26.575000762939453
92.530899047851563 -40.101699829101563 26.278999328613281
96.905899047851563 -37.965301513671875 26.605800628662109
95.911903381347656 -38.396198272705078 26.120599746704102
91.527099609375000 -41.057899475097656 26.226100921630859
95.129997253417969 -39.177299499511719 25.842699050903320
93.543197631835938 -40.102298736572266 25.763200759887695
93.031700134277344 -40.575000762939453 25.245700836181641
94.478797912597656 -39.977699279785156 25.667900085449219
56.015899658203125 -35.259700775146484 58.712501525878906
55.529800415039062 -35.040100097656250 57.236499786376953
56.531299591064453 -35.556701660156250 59.739700317382812
56.555500030517578 -36.513198852539062 61.274101257324219
56.535701751708984 -35.209201812744141 57.708599090576172
57.065898895263672 -35.392799377441406 58.810298919677734
57.030700683593750 -36.057098388671875 60.240100860595703
56.050998687744141 -35.197601318359375 56.230701446533203
57.039398193359375 -37.047500610351563 61.750198364257813
57.521999359130859 -35.007598876953125 57.252799987792969
57.994400024414063 -35.772499084472656 59.568698883056641
58.041099548339844 -35.452800750732422 58.797401428222656
57.008598327636719 -34.983898162841797 56.247100830078125
56.623600006103516 -37.895999908447266 62.847099304199219
56.002201080322266 -34.944801330566406 54.743499755859375
57.522300720214844 -36.583198547363281 60.719501495361328
58.041900634765625 -34.672698974609375 56.706199645996094
57.554199218750000 -34.664501190185547 55.720199584960938
58.527198791503906 -35.029899597167969 57.749698638916016
58.488800048828125 -34.318401336669922 55.795200347900391
57.077201843261719 -34.708999633789063 54.722499847412109
57.959098815917969 -34.298900604248047 54.794101715087891
59.028400421142578 -34.546199798583984 56.742298126220703
59.010398864746094 -35.347801208496094 58.575000762939453
57.052398681640625 -38.516799926757813 63.757999420166016
58.503700256347656 -33.984401702880859 54.255298614501953
59.532199859619141 -34.090801239013672 55.726898193359375
59.538299560546875 -33.701999664306641 54.704898834228516
57.458599090576172 -34.425098419189453 53.748100280761719
59.528499603271484 -34.987201690673828 57.773899078369141
58.493698120117188 -36.708801269531250 60.592300415039063
58.988098144531250 -36.259101867675781 60.060199737548828
59.047901153564453 -33.643001556396484 53.719898223876953
58.006401062011719 -34.018001556396484 53.244300842285156
57.473499298095703 -38.166301727294922 62.670600891113281
60.027500152587891 -34.646701812744141 57.202701568603516
58.548000335693359 -33.611999511718750 52.729000091552734
59.562801361083984 -33.284900665283203 53.169601440429688
57.997798919677734 -37.641700744628906 61.659400939941406
59.544898986816406 -35.899101257324219 59.339298248291016
60.532398223876953 -33.714599609375000 55.195098876953125
57.040699005126953 -34.578998565673828 52.735698699951172
59.526798248291016 -33.053699493408203 52.239398956298828
60.525299072265625 -33.407398223876953 54.269199371337891
57.078300476074219 -39.558300018310547 64.771400451660156
57.595401763916016 -34.165901184082031 52.236598968505859
58.502101898193359 -33.500499725341797 51.745800018310547
60.527900695800781 -34.256099700927734 56.167701721191406
60.027999877929687 -35.585201263427734 58.723800659179688
60.530200958251953 -33.103199005126953 53.226398468017578
59.477001190185547 -32.881500244140625 51.271900177001953
58.554698944091797 -33.148899078369141 50.719699859619141
60.524200439453125 -32.731998443603516 52.187000274658203
59.512798309326172 -36.749099731445313 60.575000762939453
59.008098602294922 -37.245899200439453 61.051498413085938
60.030899047851563 -36.357299804687500 60.008098602294922
60.514301300048828 -35.315299987792969 58.085998535156250
57.955101013183594 -33.929901123046875 51.242900848388672
57.120098114013672 -34.698799133300781 51.755699157714844
60.527900695800781 -36.004199981689453 59.266700744628906
58.488201141357422 -38.269001007080078 62.014198303222656
58.067798614501953 -38.812400817871094 62.558998107910156
61.021900177001953 -35.701400756835938 58.667999267578125
57.186698913574219 -40.492000579833984 65.304801940917969
60.510501861572266 -36.913600921630859 60.836200714111328
60.015800476074219 -37.421798706054688 61.351799011230469
61.022701263427734 -36.457901000976563 60.296501159667969
59.517200469970703 -37.977401733398438 61.821601867675781
61.524898529052734 -36.016399383544922 59.256698608398438
61.578201293945313 -36.785701751708984 61.116500854492188
61.094001770019531 -37.261199951171875 61.597999572753906
62.073101043701172 -36.229499816894531 60.176200866699219
60.614498138427734 -37.794200897216797 62.033199310302734
62.028999328613281 -35.506301879882812 58.258399963378906
58.993598937988281 -38.885700225830078 62.483699798583984
62.526599884033203 -36.554599761962891 61.240100860595703
59.985599517822266 -38.400600433349609 62.411098480224609
63.515399932861328 -35.462898254394531 59.755798339843750
63.002700805664062 -34.513599395751953 56.724201202392578
63.004199981689453 -35.973098754882813 60.286201477050781
61.534000396728516 -37.574501037597656 62.226398468017578
57.674701690673828 -40.505699157714844 64.297996520996094
63.091800689697266 -36.738201141357422 62.099998474121094
63.547000885009766 -36.134300231933594 61.203399658203125
63.013099670410156 -35.454700469970703 58.758998870849609
58.517700195312500 -39.515598297119141 62.806701660156250
63.030200958251953 -35.067501068115234 57.736598968505859
62.442798614501953 -37.343601226806641 62.420200347900391
61.080600738525391 -38.179199218750000 62.616901397705078
64.025703430175781 -35.044399261474609 58.740001678466797
59.611400604248047 -39.258998870849609 62.966899871826172
61.990798950195313 -37.984100341796875 62.819599151611328
64.029296875000000 -34.032600402832031 55.768299102783203
60.463401794433594 -38.894798278808594 62.964698791503906
63.630001068115234 -34.861900329589844 57.159301757812500
61.560501098632813 -38.617298126220703 63.168300628662109
63.448898315429688 -34.414600372314453 55.259101867675781
59.026100158691406 -40.055000305175781 63.250598907470703
62.412101745605469 -38.365001678466797 63.469600677490234
60.952400207519531 -39.401298522949219 63.472499847412109
64.003997802734375 -34.287700653076172 54.614299774169922
64.024497985839844 -34.002101898193359 53.735698699951172
61.924900054931641 -39.425598144531250 63.925300598144531
63.977001190185547 -33.798599243164063 52.693698883056641
65.012397766113281 -33.438098907470703 52.743801116943359
65.045600891113281 -34.979801177978516 56.349998474121094
61.351699829101563 -38.697399139404297 59.787601470947266
61.806701660156250 -39.196201324462891 60.267501831054688
62.287300109863281 -39.583499908447266 61.662300109863281
60.525299072265625 -39.583198547363281 57.241600036621094
62.017601013183594 -40.066200256347656 59.738201141357422
62.420398712158203 -40.547599792480469 61.206901550292969
61.842800140380859 -40.137298583984375 58.707801818847656
61.489700317382812 -39.752101898193359 57.306701660156250
62.076900482177734 -41.044998168945313 59.240001678466797
62.271400451660156 -42.459400177001953 60.155399322509766
62.058399200439453 -43.069099426269531 60.746898651123047
61.586898803710938 -29.476699829101562 39.713600158691406
62.045200347900391 -30.030199050903320 39.230800628662109
62.464298248291016 -30.662000656127930 38.248298645019531
67.040901184082031 -29.305500030517578 39.858100891113281
63.094299316406250 -30.970500946044922 38.718399047851563
66.541702270507813 -29.450700759887695 39.192401885986328
63.640201568603516 -31.443399429321289 39.228500366210937
63.040199279785156 -31.045600891113281 37.239898681640625
63.583400726318359 -31.481700897216797 37.737201690673828
63.487499237060547 -31.129100799560547 36.237400054931641
65.099899291992188 -31.474500656127930 38.259799957275391
65.211700439453125 -31.275400161743164 37.290901184082031
65.147903442382812 -30.840599060058594 35.776401519775391
67.508102416992188 -29.599000930786133 35.722301483154297
65.043601989746094 -30.525100708007813 34.745300292968750
64.599998474121094 -32.504600524902344 38.757801055908203
65.529899597167969 -32.060398101806641 38.738300323486328
64.681701660156250 -32.425201416015625 37.755199432373047
65.650001525878906 -31.333299636840820 36.288200378417969
66.008903503417969 -31.592399597167969 37.226898193359375
68.360397338867188 -29.741800308227539 35.634700775146484
66.014999389648437 -31.082500457763672 34.729598999023438
66.518203735351563 -32.076999664306641 37.729598999023437
61.014099121093750 -36.713901519775391 41.737800598144531
65.189201354980469 -33.407600402832031 38.794300079345703
66.609596252441406 -31.849300384521484 36.298801422119141
66.536598205566406 -31.547500610351562 35.242500305175781
60.992801666259766 -36.774501800537109 40.726001739501953
62.020500183105469 -36.800098419189453 41.242099761962891
67.098701477050781 -32.960700988769531 38.293598175048828
67.143203735351563 -32.359001159667969 36.816101074218750
61.040000915527344 -36.413299560546875 38.762901306152344
67.091796875000000 -31.419300079345703 34.285499572753906
66.458702087402344 -34.466800689697266 40.710098266601563
61.515201568603516 -36.784698486328125 39.714698791503906
67.489700317382813 -32.157901763916016 35.705398559570313
63.053600311279297 -36.734298706054687 40.733398437500000
67.609199523925781 -31.883800506591797 34.792301177978516
64.950103759765625 -35.937999725341797 41.224201202392578
64.001502990722656 -36.452598571777344 41.236801147460938
62.030300140380859 -36.532501220703125 38.741798400878906
67.554901123046875 -33.028499603271484 37.255100250244141
62.534500122070313 -36.733501434326172 39.715900421142578
62.040901184082031 -36.376598358154297 37.754501342773437
65.916397094726563 -35.325698852539063 40.216701507568359
65.194099426269531 -35.860500335693359 40.267101287841797
63.539199829101563 -36.630001068115234 39.733200073242188
66.935501098632813 -34.456298828125000 38.673900604248047
63.029098510742188 -36.565101623535156 38.736900329589844
64.625999450683594 -36.300201416015625 39.749599456787109
68.166603088378906 -32.874298095703125 35.838600158691406
63.038600921630859 -36.448001861572266 37.734600067138672
66.143997192382812 -35.284000396728516 38.800598144531250
62.549098968505859 -36.402801513671875 36.727298736572266
64.024696350097656 -36.499599456787109 38.736698150634766
68.528800964355469 -32.563201904296875 34.736698150634766
67.797302246093750 -34.272499084472656 37.582698822021484
65.546699523925781 -36.093299865722656 38.744300842285156
64.029296875000000 -36.605201721191406 37.740898132324219
66.659400939941406 -35.305400848388672 37.812198638916016
65.018302917480469 -36.476699829101563 38.228199005126953
67.449798583984375 -34.921298980712891 37.189201354980469
67.930297851562500 -34.455600738525391 36.670898437500000
68.493301391601562 -34.021301269531250 36.212001800537109
65.987396240234375 -35.978000640869141 37.713798522949219
64.101097106933594 -36.410099029541016 35.774501800537109
64.567703247070312 -36.787700653076172 36.776798248291016
65.501602172851562 -36.486598968505859 37.220199584960937
66.656898498535156 -35.803798675537109 36.804100036621094
67.430297851562500 -35.422401428222656 36.188098907470703
68.087799072265625 -35.144401550292969 35.766300201416016
65.602897644042969 -36.739898681640625 36.277698516845703
69.250999450683594 -34.227001190185547 34.849399566650391
66.372497558593750 -36.354099273681641 36.166500091552734
68.706497192382813 -34.808498382568359 35.337200164794922
65.027496337890625 -37.054901123046875 35.735801696777344
66.999298095703125 -36.019199371337891 35.723499298095703
67.626197814941406 -35.699699401855469 35.275398254394531
64.516700744628906 -37.391899108886719 34.701499938964844
66.150703430175781 -36.767299652099609 35.293800354003906
68.375396728515625 -35.336700439453125 34.674701690673828
67.142799377441406 -36.225601196289063 34.777999877929688
65.564796447753906 -37.155498504638672 34.763599395751953
57.371200561523438 -42.123199462890625 66.092300415039063
57.597499847412109 -43.024299621582031 66.319900512695313
57.971401214599609 -44.104400634765625 66.620903015136719
58.414600372314453 -43.676601409912109 66.042503356933594
58.101501464843750 -45.000198364257813 66.879203796386719
59.123500823974609 -44.396701812744141 66.019798278808594
61.655799865722656 -43.661701202392578 66.585296630859375
60.845798492431641 -43.925598144531250 65.996803283691406
58.972900390625000 -45.159099578857422 66.563697814941406
59.993198394775391 -44.466201782226563 65.898399353027344
61.091701507568359 -44.615699768066406 66.655899047851563
61.474899291992187 -45.023101806640625 67.296501159667969
59.516601562500000 -46.014801025390625 66.827102661132813
60.655998229980469 -45.686798095703125 67.042503356933594
58.497600555419922 -32.928398132324219 49.761600494384766
59.547100067138672 -32.670799255371094 50.216598510742187
60.028999328613281 -32.060100555419922 49.237701416015625
59.034400939941406 -32.603698730468750 49.224201202392578
61.653099060058594 -32.784599304199219 49.787799835205078
58.091098785400391 -31.378999710083008 47.360000610351562
58.091098785400391 -31.378999710083008 47.360000610351562
58.520500183105469 -32.164199829101562 48.206199645996094
59.080299377441406 -31.384899139404297 46.856601715087891
59.520801544189453 -32.179199218750000 48.203800201416016
61.017299652099609 -30.160400390625000 45.152000427246094
61.522098541259766 -29.680900573730469 44.628299713134766
60.052398681640625 -30.966100692749023 45.783100128173828
60.488800048828125 -31.762399673461914 48.182098388671875
59.543498992919922 -31.939699172973633 47.289901733398437
60.554798126220703 -31.445899963378906 47.272098541259766
61.025699615478516 -32.075500488281250 48.733100891113281
61.872100830078125 -29.184299468994141 42.243801116943359
61.466499328613281 -31.827100753784180 47.653999328613281
61.550998687744141 -31.461099624633789 46.780300140380859
61.972099304199219 -32.213500976562500 48.184398651123047
62.504199981689453 -31.636999130249023 46.698600769042969
62.181701660156250 -32.807800292968750 48.840301513671875
62.706001281738281 -32.287498474121094 47.359600067138672
63.229000091552734 -31.818599700927734 45.937000274658203
63.679100036621094 -30.981300354003906 44.380001068115234
63.126098632812500 -32.930698394775391 47.805400848388672
63.065101623535156 -30.533899307250977 41.742401123046875
63.893798828125000 -32.673999786376953 46.658199310302734
63.807201385498047 -32.306499481201172 45.480998992919922
63.740501403808594 -33.342700958251953 47.364101409912109
66.002098083496094 -32.799800872802734 47.705898284912109
60.528701782226563 -32.472499847412109 51.258800506591797
60.529598236083984 -32.181999206542969 50.211498260498047
61.506999969482422 -32.723999023437500 50.703800201416016
59.967098236083984 -39.932399749755859 63.472000122070312
58.254398345947266 -41.379600524902344 64.565803527832031
58.084598541259766 -42.033901214599609 65.294700622558594
59.030498504638672 -41.002899169921875 63.871101379394531
60.094100952148438 -40.696399688720703 63.955101013183594
60.930698394775391 -40.385700225830078 64.049003601074219
64.530899047851562 -33.602401733398437 51.742698669433594
61.894901275634766 -40.375099182128906 64.461700439453125
59.533699035644531 -41.574001312255859 64.208900451660156
58.959300994873047 -42.152301788330078 64.548896789550781
61.108898162841797 -41.160198211669922 64.595703125000000
58.643798828125000 -42.987701416015625 65.391700744628906
60.056701660156250 -42.111999511718750 64.631401062011719
61.801700592041016 -41.859100341796875 65.477996826171875
61.094100952148437 -42.122001647949219 65.136100769042969
59.512798309326172 -42.954200744628906 64.939102172851563
60.500999450683594 -43.023700714111328 65.302803039550781
59.502799987792969 -43.718700408935547 65.468498229980469
61.384399414062500 -42.956901550292969 65.925003051757813
61.966999053955078 -42.064800262451172 63.215599060058594
61.907100677490234 -43.066299438476563 63.702701568603516
62.277000427246094 -42.535198211669922 62.271800994873047
61.853900909423828 -44.073600769042969 64.196197509765625
62.196399688720703 -43.562801361083984 62.776901245117188
61.965900421142578 -44.555000305175781 63.226898193359375
61.941001892089844 -29.168199539184570 40.773300170898437
62.674198150634766 -29.950199127197266 42.258899688720703
62.390201568603516 -29.773000717163086 41.366901397705078
62.541198730468750 -30.047899246215820 40.233501434326172
63.270301818847656 -31.458999633789062 43.364799499511719
63.139099121093750 -30.464199066162109 40.725898742675781
63.453701019287109 -31.101499557495117 42.211101531982422
64.797599792480469 -29.729400634765625 40.210201263427734
63.011199951171875 -30.581699371337891 39.742099761962891
63.564399719238281 -31.037900924682617 41.239398956298828
65.160202026367188 -30.519599914550781 41.756500244140625
63.502300262451172 -31.081199645996094 40.241901397705078
65.233398437500000 -30.667100906372070 40.656501770019531
66.019096374511719 -33.024200439453125 46.729000091552734
66.929199218750000 -32.842899322509766 47.176200866699219
64.109497070312500 -31.984899520874023 39.742000579833984
65.562698364257813 -31.548500061035156 40.250701904296875
64.013000488281250 -35.565601348876953 47.734699249267578
62.496101379394531 -36.495399475097656 46.220001220703125
64.770698547363281 -32.933200836181641 40.339900970458984
64.690101623535156 -35.319400787353516 45.296501159667969
63.949298858642578 -35.944400787353516 45.711601257324219
62.540901184082031 -36.597000122070313 45.244998931884766
63.405799865722656 -36.355098724365234 45.158401489257813
64.220298767089844 -35.874599456787109 44.814498901367188
65.144096374511719 -35.218799591064453 44.264801025390625
62.029201507568359 -36.598400115966797 43.239299774169922
63.016300201416016 -36.479999542236328 44.223098754882813
64.683898925781250 -35.720199584960938 43.797599792480469
63.949401855468750 -36.316600799560547 43.703098297119141
65.397796630859375 -35.361698150634766 43.219799041748047
62.034801483154297 -36.795501708984375 42.240898132324219
63.053798675537109 -36.698398590087891 43.251499176025391
66.518402099609375 -34.545101165771484 42.236698150634766
66.009002685546875 -35.031200408935547 42.735198974609375
64.866302490234375 -35.834598541259766 42.712600708007812
63.055999755859375 -36.722698211669922 42.237201690673828
65.463203430175781 -35.464900970458984 42.229400634765625
64.125396728515625 -36.243499755859375 42.237701416015625
65.658798217773438 -35.339199066162109 41.255798339843750
