ply
format ascii 1.0
element vertex 403
property double x
property double y
property double z
end_header
4.300720214843750 -541.487976074218750 -203.427993774414060
-1.681939959526062 -543.559997558593750 -194.835998535156250
12.358300209045410 -548.505004882812500 -204.841003417968750
12.347599983215332 -534.453002929687500 -205.059005737304690
-2.653840065002441 -532.502014160156250 -202.324005126953120
6.335800170898438 -525.927001953125000 -202.541000366210940
-10.682299613952637 -539.070983886718750 -199.110000610351560
17.695800781250000 -524.987976074218750 -206.016998291015620
-5.175829887390137 -522.026977539062500 -202.768997192382810
-17.717800140380859 -543.593017578125000 -207.337005615234370
0.830148994922638 -512.437011718750000 -197.494995117187500
10.406800270080566 -516.021972656250000 -200.699996948242190
-12.168899536132812 -513.528991699218750 -201.279006958007810
4.320980072021484 -502.467010498046870 -195.425994873046870
14.443599700927734 -506.493988037109370 -202.214004516601560
-12.662699699401855 -526.935974121093750 -195.083999633789060
-7.646520137786865 -505.489990234375000 -194.341003417968750
19.336999893188477 -514.499023437500000 -207.835998535156250
-3.187410116195679 -494.957000732421870 -190.970993041992190
11.223899841308594 -493.963989257812500 -197.975006103515620
-3.209199905395508 -483.972991943359370 -188.522994995117190
-14.693499565124512 -493.548004150390620 -190.169998168945310
4.321469783782959 -476.488006591796870 -189.876998901367190
-17.818700790405273 -504.769989013671870 -198.509002685546870
-1.238319993019104 -467.437988281250000 -185.589996337890620
-10.654399871826172 -472.463989257812500 -184.473999023437500
-14.683799743652344 -482.537994384765620 -187.156997680664060
4.365499973297119 -457.993011474609380 -188.304000854492190
-5.197229862213135 -456.951995849609370 -182.005004882812500
-14.673500061035156 -462.087005615234370 -182.082992553710940
9.326399803161621 -464.006011962890620 -205.317993164062500
-23.049499511718750 -476.979003906250000 -190.408004760742190
2.557739973068237 -448.022003173828120 -185.680999755859370
-5.691390037536621 -445.963012695312500 -179.479995727539060
-16.677799224853516 -451.553985595703120 -179.634002685546870
-1.297230005264282 -436.015991210937500 -181.014007568359370
6.069149971008301 -451.101989746093750 -200.850997924804690
-19.109199523925781 -440.433013916015620 -177.014999389648440
2.660890102386475 -435.548004150390620 -199.738998413085940
-24.745500564575195 -456.036987304687500 -184.718002319335940
-1.795009970664978 -423.975006103515620 -179.477005004882810
-12.684599876403809 -429.428985595703120 -174.044006347656250
0.036614999175072 -419.984985351562500 -193.902999877929690
-7.154640197753906 -415.497009277343750 -172.830001831054690
-16.658899307250977 -419.442993164062500 -171.007003784179690
-3.548599958419800 -423.464996337890620 -203.904998779296870
-10.763400077819824 -404.408996582031250 -168.632003784179690
-4.306819915771484 -395.937011718750000 -171.565002441406250
-5.146220207214356 -397.039001464843750 -189.324996948242190
-3.395770072937012 -408.061004638671870 -194.195999145507810
-3.360929965972900 -389.476989746093750 -182.126007080078120
-22.218500137329102 -410.593994140625000 -169.020996093750000
-14.723099708557129 -394.912994384765620 -164.570007324218750
-7.199319839477539 -385.967987060546870 -166.936996459960940
-6.660729885101318 -379.494995117187500 -183.320007324218750
-17.754299163818359 -385.075012207031250 -166.893005371093750
-5.225719928741455 -375.341003417968750 -162.574996948242190
-14.746199607849121 -378.967987060546870 -158.908996582031250
-5.754610061645508 -366.920989990234370 -176.755004882812500
-7.752610206604004 -387.018005371093750 -192.235992431640620
-9.226960182189941 -363.473999023437500 -163.906997680664060
-1.390220046043396 -359.416992187500000 -169.641998291015620
-5.213870048522949 -354.024993896484370 -159.231994628906250
-1.194219946861267 -363.335998535156250 -156.576004028320310
-8.225429534912109 -350.838989257812500 -170.011993408203120
-19.207700729370117 -367.471008300781250 -160.880004882812500
0.482183992862701 -357.204986572265620 -180.565002441406250
1.767459988594055 -346.541992187500000 -163.682006835937500
-9.080060005187988 -358.497009277343750 -184.863006591796870
-20.192100524902344 -356.442993164062500 -156.001007080078120
-12.671500205993652 -346.511993408203120 -156.408004760742190
2.334889888763428 -345.971984863281250 -179.093002319335940
-8.178660392761231 -345.000000000000000 -180.804992675781250
-7.078569889068604 -340.532989501953120 -162.921997070312500
-0.653379976749420 -365.493011474609370 -188.824005126953120
-6.659530162811279 -336.488006591796870 -172.813995361328120
-0.668139994144440 -330.959991455078120 -164.772994995117190
-12.730299949645996 -328.980010986328120 -154.949005126953120
-18.690799713134766 -337.960998535156250 -153.576004028320310
-7.619080066680908 -323.497009277343750 -176.839004516601560
-26.199300765991211 -347.524993896484370 -154.651992797851560
-12.299400329589844 -335.031005859375000 -184.632995605468750
-6.018089771270752 -317.506011962890620 -167.264999389648440
-11.066699981689453 -317.524993896484370 -154.210998535156250
-13.646699905395508 -305.998992919921870 -150.319000244140620
-22.151399612426758 -312.507995605468750 -149.257995605468750
-22.172599792480469 -325.950988769531250 -151.570999145507810
-5.769259929656982 -302.505004882812500 -171.261993408203120
-9.039850234985352 -311.986999511718750 -177.416000366210940
-10.152299880981445 -295.497985839843750 -150.328002929687500
-5.509459972381592 -295.027008056640620 -162.257995605468750
-5.187789916992188 -285.997009277343750 -152.371002197265620
-18.652999877929688 -290.489013671875000 -145.869995117187500
-22.183300018310547 -300.549011230468750 -147.128005981445310
-12.753299713134766 -281.460998535156250 -146.048995971679690
-4.078289985656738 -279.514007568359370 -160.796997070312500
-5.637020111083984 -285.497985839843750 -169.326995849609370
-28.879699707031250 -289.184997558593750 -149.350006103515620
-5.209819793701172 -274.493988037109370 -149.880004882812500
-23.097600936889648 -279.490997314453120 -144.472000122070310
-16.655799865722656 -270.467010498046870 -143.024002075195310
-9.114259719848633 -263.010986328125000 -144.266998291015620
-3.994369983673096 -262.705993652343750 -157.361999511718750
-4.119689941406250 -269.997985839843750 -165.333999633789060
-22.106199264526367 -261.467010498046870 -141.514007568359370
-28.256399154663086 -269.997985839843750 -145.143997192382810
-7.181630134582520 -248.490005493164060 -142.369995117187500
-16.672700881958008 -252.462005615234370 -139.537994384765620
-2.682620048522949 -250.994003295898440 -155.332992553710940
-12.674900054931641 -238.477996826171870 -137.944000244140620
-22.667699813842773 -241.505996704101560 -138.751998901367190
-30.723699569702148 -245.481002807617190 -144.223999023437500
-5.260729789733887 -230.462005615234370 -139.983993530273440
-3.340640068054199 -239.503005981445310 -161.697998046875000
-5.282100200653076 -249.503997802734370 -165.718994140625000
-16.669200897216797 -227.830001831054690 -135.615005493164060
-8.703550338745117 -220.962005615234370 -135.975006103515620
-0.985426008701324 -226.936004638671870 -151.242004394531250
-16.650299072265625 -214.501998901367190 -133.792007446289060
-26.762500762939453 -224.005004882812500 -138.658004760742190
-1.266109943389893 -212.934005737304690 -139.033996582031250
-30.173799514770508 -234.994995117187500 -142.785003662109370
-9.104599952697754 -205.522994995117190 -133.164993286132810
-20.114900588989258 -203.485000610351560 -132.916000366210940
-5.203020095825195 -195.475997924804690 -132.927001953125000
-26.633800506591797 -210.988998413085940 -136.850997924804690
-18.670900344848633 -192.505004882812500 -131.251998901367190
-28.090200424194336 -197.498001098632810 -137.386993408203120
1.671409964561462 -203.496002197265620 -148.330001831054690
-32.134399414062500 -205.498992919921870 -144.326995849609370
-10.672699928283691 -185.955001831054690 -129.638000488281250
-0.721261978149414 -210.998001098632810 -155.785003662109370
-21.160699844360352 -180.617004394531250 -129.212005615234370
-18.693000793457031 -175.889007568359370 -138.375000000000000
-3.233380079269409 -176.947998046875000 -130.082992553710940
-11.448399543762207 -170.136001586914060 -133.242004394531250
-27.524000167846680 -187.042999267578120 -134.929000854492190
0.498465001583099 -186.074005126953120 -134.018005371093750
-26.332000732421875 -168.520996093750000 -133.587997436523440
-31.557899475097656 -175.022994995117190 -141.412002563476560
4.108409881591797 -184.639999389648440 -144.481994628906250
0.842203021049500 -167.412994384765620 -128.583999633789060
-7.105669975280762 -159.350006103515620 -134.238998413085940
-25.032800674438477 -153.481994628906250 -130.996002197265620
-1.215939998626709 -156.414001464843750 -126.029998779296880
-20.208000183105469 -145.009002685546870 -127.157997131347660
-31.025600433349609 -158.981994628906250 -139.875000000000000
-30.457199096679688 -148.483993530273440 -138.770996093750000
7.306180000305176 -155.548004150390620 -134.233001708984370
-16.696199417114258 -132.522003173828120 -124.182998657226560
-7.173250198364258 -128.417999267578130 -122.543998718261720
-1.414149999618530 -134.940994262695310 -128.701995849609370
-24.436000823974609 -126.458000183105470 -128.091003417968750
-16.706499099731445 -120.532997131347660 -122.661003112792970
-30.036800384521484 -134.561996459960940 -136.337005615234370
5.374110221862793 -144.951004028320310 -123.464996337890620
7.825520038604736 -139.046005249023440 -133.270996093750000
-22.731399536132813 -111.017997741699220 -125.212997436523440
5.779630184173584 -109.153999328613280 -131.274993896484370
-29.352100372314453 -118.504997253417970 -133.714996337890630
-28.653999328613281 -104.995002746582030 -131.817993164062500
-28.319799423217773 -97.014099121093750 -138.768005371093750
-22.523700714111328 -102.526000976562500 -146.147994995117190
-28.936800003051758 -110.516998291015620 -140.830993652343750
-16.146200180053711 -110.501998901367190 -150.302993774414060
-12.659999847412109 -98.888198852539063 -149.121994018554690
-23.280399322509766 -117.958999633789060 -148.518005371093750
-3.213089942932129 -107.012001037597660 -148.643997192382810
-7.197410106658936 -117.533996582031250 -151.128997802734380
-29.555500030517578 -125.490997314453120 -143.300994873046870
2.287569999694824 -102.333999633789060 -140.173004150390620
7.635540008544922 -87.009696960449219 -136.654998779296870
-24.237600326538086 -87.491500854492188 -142.475006103515620
-14.743200302124023 -88.463699340820312 -147.011001586914060
-5.615099906921387 -87.985198974609375 -152.270004272460940
3.352570056915283 -87.501800537109375 -158.328994750976560
11.348999977111816 -89.003997802734375 -149.826995849609370
16.255199432373047 -87.584098815917969 -160.348007202148440
0.536668002605438 -91.477302551269531 -144.063003540039060
12.309599876403809 -99.301803588867188 -141.139007568359370
4.321979999542236 -98.554000854492188 -151.414993286132810
2.385560035705566 -115.997001647949220 -145.350997924804690
10.838399887084961 -126.011001586914060 -130.307998657226560
9.168250083923340 -124.000000000000000 -144.233001708984370
13.885499954223633 -130.962005615234380 -118.448997497558590
-14.661299705505371 -125.958999633789060 -153.048995971679690
-1.322849988937378 -126.504997253417970 -149.559005737304690
24.473699569702148 -133.151992797851560 -119.691001892089840
-24.224000930786133 -131.483001708984370 -150.423995971679690
13.878399848937988 -132.488998413085940 -139.382003784179690
3.641920089721680 -134.145996093750000 -144.044998168945310
-7.182799816131592 -135.503997802734380 -153.666000366210940
20.375400543212891 -139.507003784179690 -132.822998046875000
15.836700439453125 -141.895996093750000 -121.080001831054690
-29.640800476074219 -140.998992919921870 -146.819000244140620
10.268400192260742 -145.026992797851560 -142.617996215820310
0.646463990211487 -144.998992919921870 -149.117004394531250
-11.212200164794922 -145.070007324218750 -156.009002685546870
16.041599273681641 -149.067001342773440 -134.854003906250000
-22.613100051879883 -147.007995605468750 -154.261001586914060
12.318099975585937 -153.401000976562500 -125.030998229980470
-29.974199295043945 -151.996994018554690 -148.720993041992190
-3.847059965133667 -153.026000976562500 -154.080001831054690
4.409470081329346 -154.986999511718750 -147.389999389648440
-16.653799057006836 -155.494003295898440 -157.860992431640620
-24.348499298095703 -162.414001464843750 -156.078994750976560
-30.962900161743164 -165.975006103515620 -148.815994262695310
7.433740139007568 -166.018005371093750 -144.378005981445310
2.608880043029785 -175.003997802734380 -149.985992431640620
-32.595100402832031 -191.042999267578120 -144.324005126953120
1.443189978599548 -193.005996704101560 -151.865997314453120
-5.275390148162842 -194.516998291015620 -161.154998779296870
-31.870300292968750 -197.001007080078120 -153.345001220703120
-7.260260105133057 -205.014007568359370 -163.660995483398440
-28.308900833129883 -206.470993041992190 -161.970993041992190
-18.692499160766602 -205.432006835937500 -166.561996459960940
-34.144901275634766 -210.552993774414060 -153.822998046875000
-31.972600936889648 -216.492004394531250 -144.402999877929690
-12.597700119018555 -214.483001708984370 -167.473007202148440
-26.338899612426758 -216.942993164062500 -165.582000732421870
-3.935080051422119 -219.501007080078120 -161.608001708984370
-33.180999755859375 -223.949005126953120 -160.380004882812500
-34.164798736572266 -226.932998657226560 -149.285995483398440
-18.670000076293945 -223.458999633789060 -169.621994018554690
-7.732779979705811 -231.001998901367190 -166.716003417968750
-28.232500076293945 -231.972000122070310 -166.929992675781250
-16.653699874877930 -234.005004882812500 -171.261001586914060
-34.910198211669922 -239.115005493164060 -151.656005859375000
-41.663501739501953 -238.613006591796870 -160.464004516601560
-32.601100921630859 -241.472000122070310 -165.246994018554690
-24.198999404907227 -242.466995239257810 -171.475006103515620
-12.761699676513672 -244.520996093750000 -171.578002929687500
-35.649799346923828 -249.496994018554690 -152.819000244140620
-20.148099899291992 -252.526992797851560 -174.145004272460940
-34.023200988769531 -261.562988281250000 -148.871994018554690
-9.210989952087402 -261.505004882812500 -171.255996704101560
-16.722600936889648 -268.027008056640630 -176.050994873046870
-34.323501586914063 -276.600006103515620 -151.615997314453120
-9.691679954528809 -276.002014160156250 -173.270996093750000
-45.463401794433594 -281.502014160156250 -162.675003051757810
-16.715000152587891 -284.549011230468750 -178.595993041992190
-30.810699462890625 -295.934997558593750 -138.860992431640620
-11.054599761962891 -294.984008789062500 -176.929000854492190
-22.153400421142578 -295.984008789062500 -181.427001953125000
-32.088298797607422 -305.457000732421870 -149.091995239257810
-31.722400665283203 -301.964996337890620 -179.466995239257810
-14.774999618530273 -304.048004150390630 -181.067001342773440
-24.212999343872070 -309.957000732421870 -183.619003295898440
-35.249099731445313 -313.480987548828120 -179.466003417968750
-31.618700027465820 -319.493011474609370 -151.391006469726560
-41.655601501464844 -316.997985839843750 -171.826004028320310
-43.607299804687500 -319.627990722656250 -161.841995239257810
-14.723999977111816 -319.515014648437500 -183.699996948242190
-28.196500778198242 -319.989990234375000 -184.582000732421870
-37.840698242187500 -327.526000976562500 -156.598999023437500
-37.000900268554687 -324.979003906250000 -179.673004150390620
-43.071300506591797 -332.485992431640620 -164.869003295898440
-20.175600051879883 -328.542999267578120 -187.100006103515620
-30.167600631713867 -336.511993408203120 -154.244995117187500
-30.173999786376953 -333.420013427734370 -186.164993286132810
-38.900600433349609 -336.548004150390620 -179.597000122070310
-38.158901214599609 -341.001007080078120 -159.809997558593750
-22.159999847412109 -339.526000976562500 -189.593002319335940
-42.266399383544922 -347.035003662109370 -168.276000976562500
-32.736900329589844 -343.972991943359370 -186.938995361328120
-39.960098266601563 -348.014007568359370 -179.727005004882810
-35.272701263427734 -352.493988037109370 -159.634002685546870
-14.729599952697754 -347.520996093750000 -188.690994262695310
-24.217300415039063 -351.868988037109380 -191.983993530273440
-40.088600158691406 -357.992004394531250 -167.348999023437500
-33.985801696777344 -355.014007568359370 -188.128005981445310
-29.114500045776367 -361.994995117187500 -157.891998291015620
-40.463199615478516 -358.533996582031250 -179.738998413085940
-16.732799530029297 -359.535003662109370 -192.121002197265620
-35.881599426269531 -367.555999755859380 -163.639999389648440
-22.148700714111328 -369.997009277343750 -149.822006225585940
-41.158699035644531 -367.000000000000000 -172.817001342773440
-30.232099533081055 -365.440002441406250 -192.490997314453120
-37.798999786376953 -366.989990234375000 -185.406997680664060
-11.027999877929688 -367.976013183593750 -189.432998657226560
-20.170999526977539 -369.019989013671870 -195.177001953125000
-25.144500732421875 -377.497009277343750 -159.835006713867190
-25.684000015258789 -380.041992187500000 -148.912002563476560
-36.908599853515625 -377.484985351562500 -167.466995239257810
-3.909709930419922 -371.365997314453120 -197.001998901367190
-39.193199157714844 -377.501007080078120 -182.326004028320310
-34.011199951171875 -377.550994873046870 -192.197006225585940
-13.153900146484375 -377.505004882812500 -194.307998657226560
-24.207500457763672 -378.928985595703120 -197.559005737304690
-39.437301635742187 -384.976013183593750 -174.889999389648440
-30.168899536132813 -387.006011962890620 -163.274002075195310
-20.158500671386719 -388.571014404296870 -154.201004028320310
-37.819698333740234 -388.532012939453120 -185.341995239257810
-32.231098175048828 -387.486999511718750 -195.417999267578120
-34.649200439453125 -394.498992919921870 -169.319000244140620
-16.707099914550781 -388.553009033203120 -199.141006469726560
-25.586399078369141 -398.424987792968750 -165.533996582031250
-38.103500366210937 -397.489990234375000 -179.830993652343750
-24.184400558471680 -395.950988769531250 -201.035995483398440
-35.936500549316406 -399.480010986328120 -190.250000000000000
-12.019499778747559 -398.411987304687500 -200.042007446289060
-32.021499633789063 -404.433013916015620 -171.477005004882810
-36.731601715087891 -408.042999267578120 -181.270004272460940
-30.134000778198242 -404.501007080078120 -199.804992675781250
-18.655700683593750 -405.937988281250000 -204.578994750976560
-35.077800750732422 -410.494995117187500 -191.320999145507810
-30.839399337768555 -416.093994140625000 -175.106994628906250
-9.105739593505859 -411.467987060546870 -203.389999389648440
-30.683200836181641 -414.998992919921870 -200.350997924804690
-22.200899124145508 -415.954010009765620 -206.436004638671870
-35.321399688720703 -422.569000244140620 -185.169998168945310
-12.675399780273438 -420.019012451171870 -208.223999023437500
-26.307899475097656 -426.600006103515620 -175.572998046875000
-33.592899322509766 -424.990997314453120 -195.802993774414060
-28.197799682617188 -426.988006591796870 -204.869003295898440
-18.694999694824219 -428.963989257812500 -211.423004150390620
-28.664699554443359 -435.506011962890620 -180.802001953125000
-34.145301818847656 -435.471008300781250 -189.833999633789060
-31.248600006103516 -436.500000000000000 -200.350006103515620
-6.102419853210449 -435.467010498046870 -211.414001464843750
-16.690500259399414 -438.945007324218750 -215.031997680664060
-26.323799133300781 -445.587005615234370 -182.604995727539060
-25.629499435424805 -442.000000000000000 -209.802001953125000
0.971265017986298 -442.463989257812500 -207.412002563476560
-31.997900009155273 -446.433990478515620 -191.376998901367190
-29.666799545288086 -448.498992919921870 -202.322998046875000
-7.185929775238037 -446.029998779296870 -216.162994384765620
-21.558799743652344 -451.015014648437500 -215.727005004882810
-30.039600372314453 -458.476013183593750 -194.352996826171870
0.344924986362457 -454.002990722656250 -215.313003540039060
-12.649399757385254 -455.513000488281250 -220.276992797851560
-28.352300643920898 -459.506011962890620 -204.822006225585940
-24.430299758911133 -461.036010742187500 -214.619995117187500
-24.864299774169922 -466.070007324218750 -188.617004394531250
5.421969890594482 -463.459991455078120 -215.367996215820310
-3.213759899139404 -463.071990966796870 -221.636993408203120
-31.715099334716797 -470.097991943359370 -196.080993652343750
-14.693599700927734 -465.464996337890620 -223.026992797851560
-28.010599136352539 -469.989013671875000 -207.776000976562500
-37.789001464843750 -473.997985839843750 -204.514999389648440
-22.511800765991211 -471.515991210937500 -219.182006835937500
10.318099975585937 -473.016998291015630 -215.307998657226560
2.448999881744385 -471.915985107421870 -223.018005371093750
-43.466201782226563 -478.339996337890620 -196.852005004882810
-31.738500595092773 -481.497009277343750 -183.501998901367190
-27.660900115966797 -479.500000000000000 -200.319000244140620
-41.877201080322266 -482.652008056640620 -186.645996093750000
-8.658630371093750 -475.063995361328120 -226.645996093750000
-28.222700119018555 -480.447998046875000 -215.852996826171870
-34.661899566650391 -483.489990234375000 -207.832992553710940
-17.643199920654297 -480.993011474609370 -229.317001342773440
0.817422986030579 -481.545989990234370 -227.606994628906250
10.045900344848633 -482.382995605468750 -222.494003295898440
14.258000373840332 -486.502990722656250 -213.791000366210940
-29.645999908447266 -493.493011474609370 -185.341995239257810
-26.333099365234375 -486.390991210937500 -224.485000610351560
-38.121601104736328 -493.471984863281250 -192.339004516601560
-8.654569625854492 -486.533996582031250 -230.231002807617190
-23.694700241088867 -493.510986328125000 -195.768005371093750
-31.474300384521484 -490.424011230468750 -215.746002197265620
-35.114101409912109 -493.484008789062500 -204.307998657226560
15.183199882507324 -493.630004882812500 -222.776992797851560
1.364609956741333 -493.471008300781250 -231.884002685546880
-20.591299057006836 -494.563995361328120 -232.669006347656250
-21.712900161743164 -498.545989990234370 -213.826995849609370
-29.774700164794922 -496.423004150390620 -226.893005371093750
-33.974098205566406 -502.444000244140620 -196.828994750976560
-26.202800750732422 -504.071014404296870 -188.628997802734370
-9.112110137939453 -497.348999023437500 -234.503005981445310
-30.453699111938477 -504.028991699218750 -210.085006713867190
10.250100135803223 -499.065002441406250 -231.694000244140620
18.826299667358398 -504.506011962890620 -220.315994262695310
-16.843599319458008 -505.513000488281250 -221.830001831054690
0.821129977703094 -503.596984863281250 -236.102996826171870
-29.401100158691406 -513.226989746093750 -196.626998901367190
-15.791299819946289 -505.403991699218750 -238.108993530273440
-26.858200073242187 -513.630004882812500 -207.304000854492190
16.734600067138672 -508.545989990234370 -230.731994628906250
-20.598600387573242 -517.427978515625000 -192.524993896484370
-5.656330108642578 -509.566986083984380 -242.210998535156250
-25.252399444580078 -515.189025878906250 -218.444000244140620
-13.625100135803223 -515.486022949218750 -218.322006225585940
12.015500068664551 -514.302001953125000 -238.130996704101560
-25.292499542236328 -523.103027343750000 -200.714996337890630
-13.541500091552734 -516.213012695312500 -238.654998779296870
2.863320112228394 -515.991027832031250 -243.335998535156250
-22.410999298095703 -523.116027832031250 -210.813995361328120
21.751800537109375 -519.518005371093750 -228.779998779296870
-16.752199172973633 -526.991027832031250 -219.988006591796870
-18.141899108886719 -525.195007324218750 -230.300994873046880
11.751099586486816 -521.156982421875000 -247.783996582031250
18.940999984741211 -522.937011718750000 -238.402999877929690
-5.667160034179688 -522.072998046875000 -247.744995117187500
-19.952299118041992 -532.370971679687500 -200.994995117187500
25.323699951171875 -527.596008300781250 -219.822006225585940
2.328840017318726 -524.466979980468750 -254.319000244140620
-11.142299652099609 -528.046997070312500 -239.328002929687500
11.371999740600586 -524.414001464843750 -259.915008544921870
-10.842200279235840 -532.833984375000000 -229.794998168945310
19.762199401855469 -528.315002441406250 -253.251007080078120
-22.802200317382813 -535.664001464843750 -221.360992431640620
-27.454799652099609 -538.504028320312500 -211.988998413085940
23.208499908447266 -531.268005371093750 -264.260986328125000
