ply
format ascii 1.0
element vertex 683
property double x
property double y
property double z
end_header
-363.243988037109370 310.755004882812500 -141.994003295898440
-369.265991210937500 318.756011962890620 -147.348007202148440
-378.723999023437500 313.778015136718750 -143.121002197265620
-388.156005859375000 314.036010742187500 -149.319000244140620
-357.756011962890620 313.234985351562500 -151.302993774414060
-363.243988037109370 310.755004882812500 -141.994003295898440
-392.201995849609370 309.188995361328120 -140.690994262695310
-397.664001464843750 311.033996582031250 -152.820007324218750
-403.683990478515620 308.704986572265620 -143.251998901367190
-352.653991699218750 309.406005859375000 -141.391006469726560
-409.151000976562500 309.079010009765620 -152.332992553710940
-382.691009521484370 306.684997558593750 -136.167007446289060
-415.618988037109370 306.884002685546870 -144.376998901367190
-371.644012451171870 306.514007568359370 -135.807006835937500
-487.144012451171870 304.989990234375000 -147.255996704101560
-462.661010742187500 306.342010498046870 -150.912994384765620
-447.680999755859370 307.164001464843750 -154.229995727539060
-473.125000000000000 305.343994140625000 -148.871994018554690
-422.165008544921870 307.665008544921870 -153.802993774414060
-428.671997070312500 305.665985107421870 -145.255004882812500
-346.221008300781250 309.266998291015620 -151.822998046875000
-435.648010253906250 306.563995361328130 -154.317001342773440
-309.674987792968750 295.394989013671870 -73.302803039550781
-322.704010009765620 294.584014892578120 -71.915397644042969
-441.653015136718750 303.565002441406250 -144.289001464843750
-399.665985107421870 302.591003417968750 -133.735000610351560
-338.156005859375000 292.756011962890620 -70.400299072265625
-454.158996582031250 302.613006591796870 -144.731002807617190
-411.196990966796870 301.691009521484370 -135.106002807617190
-359.092010498046870 302.697998046875000 -135.076995849609370
-498.095001220703120 300.899993896484370 -148.451004028320310
-422.595001220703120 300.846984863281250 -136.975006103515620
-336.635986328125000 306.717987060546870 -155.311996459960940
-390.194000244140620 300.250000000000000 -129.662002563476560
-385.201995849609370 290.971984863281250 -79.630599975585937
-331.611999511718750 292.528991699218750 -79.874702453613281
-378.697998046875000 299.359008789062500 -127.902999877929690
-342.268005371093750 303.226989746093750 -144.001998901367190
-348.207000732421870 301.346008300781250 -134.925003051757810
-342.158996582031250 291.631011962890620 -80.884101867675781
-348.446014404296880 289.695007324218750 -71.518203735351563
-434.307006835937500 299.066986083984370 -137.242996215820310
-480.177001953125000 298.548004150390630 -142.259002685546880
-367.152008056640620 298.971008300781250 -129.341003417968750
-468.667999267578120 297.635986328125000 -140.598007202148440
-315.639007568359370 291.303009033203120 -81.232398986816406
-325.204010009765620 304.269989013671870 -153.848007202148440
-330.740997314453120 302.303009033203120 -144.966995239257810
-355.739013671875000 289.238006591796870 -79.243896484375000
-445.709991455078120 296.640991210937500 -137.199996948242190
-509.122009277343750 296.821990966796870 -148.554000854492190
-349.653991699218750 290.325988769531250 -89.309097290039063
-491.656005859375000 294.971984863281250 -142.231002807617190
-405.677001953125000 294.761993408203120 -128.113998413085940
-359.664001464843750 289.575012207031250 -92.299102783203125
-303.361999511718750 287.156005859375000 -70.860496520996094
-386.164001464843750 293.639007568359370 -121.247001647949220
-417.178009033203120 294.020996093750000 -129.768005371093750
-336.665008544921870 288.878997802734370 -89.803001403808594
-372.632995605468750 293.561004638671870 -121.290000915527340
-353.717987060546870 295.227996826171870 -128.483993530273440
-336.069000244140620 297.209991455078120 -137.225006103515620
-365.130004882812500 286.463989257812500 -83.331703186035156
-397.661010742187500 292.352996826171880 -121.408996582031250
-307.736999511718750 300.720001220703120 -152.908996582031250
-367.149993896484370 289.182006835937500 -99.819999694824219
-459.152008056640620 293.502990722656250 -138.800994873046870
-325.200012207031250 287.923004150390620 -86.804603576660156
-428.139007568359370 292.979003906250000 -131.382995605468750
-306.055999755859370 287.703002929687500 -83.538101196289063
-317.165008544921870 298.877990722656250 -147.921005249023440
-353.647003173828120 288.971984863281250 -101.316001892089840
-372.656005859375000 289.847991943359370 -109.339996337890620
-361.589996337890620 283.382995605468750 -72.336502075195312
-342.257995605468750 294.130004882812500 -129.003997802734370
-361.621002197265620 292.197998046875000 -121.764999389648440
-384.169006347656250 289.690002441406250 -111.778999328613280
-378.683013916015620 287.654998779296870 -100.768997192382810
-373.613006591796870 285.953002929687500 -90.839698791503906
-342.208007812500000 288.312011718750000 -98.774299621582031
-296.652008056640620 298.973999023437500 -151.828002929687500
-359.669006347656250 289.333007812500000 -110.800003051757810
-519.093994140625000 291.976989746093750 -151.434005737304690
-325.192993164062500 295.286010742187500 -139.404998779296870
-303.149993896484370 296.454986572265630 -143.850006103515620
-396.904998779296870 287.661010742187500 -111.755996704101560
-330.734985351562500 292.203002929687500 -128.914993286132810
-315.584014892578120 285.678009033203120 -90.841300964355469
-501.233001708984370 290.006011962890620 -146.046005249023440
-284.692993164062500 297.390991210937500 -151.423004150390620
-348.196990966796870 289.778991699218750 -121.372001647949220
-438.250000000000000 288.694000244140620 -130.123001098632810
-346.179992675781250 287.768005371093750 -110.266998291015620
-390.209014892578120 285.161987304687500 -103.248001098632810
-328.723999023437500 285.701995849609370 -98.232696533203125
-413.148010253906250 287.506011962890620 -121.819000244140620
-474.643005371093750 287.959991455078120 -136.768997192382810
-296.484985351562500 282.178009033203120 -79.824302673339844
-370.147003173828120 279.502014160156250 -77.324401855468750
-449.722991943359370 287.153991699218750 -133.076004028320310
-335.105010986328120 285.670989990234370 -107.305999755859370
-484.180999755859370 287.527008056640620 -141.720001220703120
-311.691009521484370 291.817993164062500 -138.891006469726560
-384.606994628906250 281.270996093750000 -93.472198486328125
-424.704010009765620 285.171997070312500 -121.723999023437500
-336.623992919921870 287.588989257812500 -121.303001403808590
-528.163024902343750 288.115997314453120 -155.367996215820310
-275.614013671875000 293.615997314453120 -146.210998535156250
-409.191009521484370 283.200012207031250 -112.228996276855470
-296.459991455078120 278.703002929687500 -69.714797973632813
-378.608001708984370 278.964996337890620 -84.862602233886719
-319.243988037109380 288.739013671875000 -131.973999023437500
-292.641998291015630 291.515991210937500 -143.809005737304690
-401.695007324218750 281.110992431640620 -104.674003601074220
-303.243011474609370 281.769989013671870 -92.722503662109375
-510.941986083984380 285.708007812500000 -148.514999389648440
-319.088989257812500 282.143005371093750 -101.319999694824220
-464.841003417968750 284.290008544921870 -138.559005737304690
-325.165008544921870 282.914001464843750 -110.277000427246090
-394.339996337890620 278.257995605468750 -96.525703430175781
-325.201995849609370 284.808013916015620 -121.358001708984370
-419.072998046875000 279.783996582031250 -110.413002014160160
-300.214996337890620 287.819000244140620 -137.468994140625000
-535.768005371093750 284.378997802734370 -161.641998291015620
-265.665985107421870 289.440002441406250 -147.912994384765620
-435.050994873046870 279.382995605468750 -120.987998962402340
-293.187011718750000 277.929992675781250 -90.809501647949219
-307.746002197265620 284.213989257812500 -129.453002929687500
-411.515991210937500 276.434997558593750 -103.950996398925780
-445.747985839843750 279.187011718750000 -125.139999389648440
-308.171997070312500 278.579986572265620 -101.762001037597660
-457.252014160156250 279.656005859375000 -132.162994384765620
-314.720001220703120 281.800994873046870 -121.888999938964840
-493.188995361328120 280.039001464843750 -142.128997802734370
-282.678009033203120 286.420989990234370 -143.414001464843750
-518.703979492187500 280.933013916015620 -155.208999633789060
-255.231994628906250 287.395996093750000 -148.529998779296870
-289.455993652343750 274.182006835937500 -81.785499572753906
-388.170013427734370 272.494995117187500 -88.745697021484375
-428.665985107421870 274.555999755859370 -109.777000427246090
-478.217010498046870 278.446990966796870 -140.100006103515620
-290.700012207031250 283.381011962890620 -136.947006225585940
-315.638000488281250 278.032012939453120 -111.848999023437500
-502.183013916015620 279.011993408203120 -148.235992431640620
-297.654998779296870 279.986999511718750 -129.328994750976560
-290.697998046875000 269.455993652343750 -70.847900390625000
-304.643005371093750 278.011993408203120 -121.318000793457030
-272.197998046875000 282.901000976562500 -142.985992431640620
-541.684020996093750 279.458007812500000 -168.764999389648440
-404.166992187500000 270.555999755859370 -98.240997314453125
-279.212005615234370 280.852996826171880 -134.526000976562500
-527.656982421875000 277.997985839843750 -159.807006835937500
-421.135009765625000 270.471984863281250 -102.363998413085940
-296.756011962890620 274.194000244140620 -102.709999084472660
-469.631011962890620 274.496002197265620 -134.843002319335940
-304.131011962890620 274.537994384765620 -110.857002258300780
-286.802001953125000 272.274993896484380 -98.780097961425781
-246.667999267578120 283.468994140625000 -153.828994750976560
-550.723022460937500 277.880004882812500 -174.613006591796870
-453.559997558593750 270.894012451171870 -124.458000183105470
-261.667999267578120 279.842010498046870 -142.593994140625000
-437.760009765625000 268.606994628906250 -109.705001831054690
-396.164001464843750 266.032989501953120 -90.771301269531250
-283.179992675781250 268.475006103515620 -89.332000732421875
-286.783996582031250 275.295013427734370 -129.947998046875000
-294.213989257812500 273.359008789062500 -121.351997375488280
-413.278991699218750 265.055999755859370 -97.611099243164063
-486.239990234375000 270.641998291015620 -140.675994873046880
-509.131988525390630 270.941986083984370 -150.393005371093750
-445.813995361328130 266.050994873046870 -116.180000305175780
-463.140014648437500 267.498992919921870 -129.335006713867190
-534.017028808593750 272.044006347656250 -165.988998413085940
-292.617004394531250 269.078002929687500 -110.929000854492190
-516.793029785156250 271.079986572265620 -159.083999633789060
-284.177001953125000 261.463989257812500 -68.821098327636719
-268.781005859375000 273.886993408203120 -136.994003295898440
-499.188995361328120 268.566986083984370 -145.710006713867190
-425.207000732421870 261.141998291015630 -97.589202880859375
-436.148010253906250 261.016998291015620 -99.317298889160156
-252.380004882812500 273.835998535156250 -141.979995727539060
-474.626007080078130 266.945007324218750 -140.884994506835940
-280.195007324218750 261.457000732421870 -79.830101013183594
-279.170013427734370 265.472991943359370 -102.824996948242190
-277.200988769531250 270.380004882812500 -129.414993286132810
-284.683990478515620 268.432006835937500 -121.334999084472660
-243.492996215820310 274.122009277343750 -148.703994750976560
-557.242980957031250 270.971008300781250 -183.666000366210940
-526.367004394531250 266.747985839843750 -160.542007446289060
-275.812011718750000 260.820007324218750 -89.384201049804687
-442.156005859375000 259.005004882812500 -107.818000793457030
-260.049011230468750 268.191986083984370 -135.072998046875000
-451.610992431640620 259.653015136718750 -123.032997131347660
-471.045989990234370 260.889007568359370 -133.007995605468750
-491.704010009765630 261.608001708984370 -141.102005004882810
-547.755981445312500 266.686004638671870 -179.776000976562500
-482.105987548828120 260.398010253906250 -136.417999267578120
-281.582000732421870 261.618988037109370 -113.829002380371090
-505.272003173828120 260.140014648437500 -144.606002807617190
-275.615997314453120 253.037994384765620 -68.813598632812500
-514.659973144531250 260.985992431640630 -151.279006958007810
-271.562011718750000 258.096008300781250 -99.305900573730469
-461.768005371093750 257.058013916015620 -125.176002502441410
-271.667999267578120 261.457000732421870 -121.333000183105470
-534.697021484375000 261.476013183593750 -165.270004272460940
-271.542999267578120 253.649002075195310 -79.772300720214844
-271.588989257812500 258.566009521484370 -109.945999145507810
-449.085998535156250 253.981002807617190 -113.878997802734370
-541.750000000000000 260.976989746093750 -173.177993774414060
-262.180999755859370 260.445007324218750 -127.393997192382810
-267.154998779296870 252.988998413085940 -89.323898315429688
-244.750000000000000 261.393005371093750 -137.485992431640620
-266.229003906250000 247.266998291015620 -66.449600219726563
-558.796997070312500 260.520996093750000 -186.664993286132810
-499.156005859375000 253.014999389648440 -139.794006347656250
-522.538024902343750 253.996002197265620 -149.447998046875000
-566.820007324218750 261.052001953125000 -196.136993408203130
-513.671997070312500 253.054000854492190 -143.802001953125000
-235.600997924804690 261.540985107421870 -145.296997070312500
-252.309005737304690 258.264007568359370 -130.082000732421870
-261.755004882812500 248.746994018554690 -80.383598327636719
-261.967987060546870 251.753005981445310 -98.763198852539062
-488.167999267578120 251.578002929687500 -139.873992919921870
-529.715026855468750 253.533004760742190 -157.761001586914060
-478.247985839843750 250.641998291015620 -134.119995117187500
-468.769012451171870 249.970001220703120 -129.067993164062500
-256.183013916015620 248.421997070312500 -90.328002929687500
-256.221984863281250 244.354003906250000 -69.363197326660156
-233.580001831054690 261.539001464843750 -160.320007324218750
-263.739990234375000 251.779006958007810 -112.220001220703120
-257.583007812500000 253.095993041992190 -121.254997253417970
-251.615005493164060 245.628997802734370 -79.807403564453125
-246.386001586914060 242.703994750976560 -65.169601440429688
-538.140991210937500 250.988998413085940 -163.824005126953120
-242.130004882812500 243.572006225585940 -75.822402954101563
-254.272994995117190 248.744995117187500 -108.675003051757810
-555.114013671875000 252.460998535156250 -179.828002929687500
-234.625000000000000 241.615997314453120 -68.762199401855469
-244.682998657226560 244.365997314453120 -87.824600219726563
-250.242996215820310 246.246002197265620 -99.324798583984375
-546.023986816406250 251.158996582031250 -174.483001708984370
-235.166000366210940 253.483001708984370 -137.333999633789060
-242.798004150390620 251.307998657226560 -130.511001586914060
-572.343994140625000 253.973999023437500 -202.093002319335940
-565.156982421875000 252.007003784179690 -190.311004638671870
-229.429992675781250 253.843994140625000 -148.912994384765620
-235.173995971679690 241.421005249023440 -83.810302734375000
-221.175994873046870 238.897994995117190 -67.802696228027344
-248.585998535156250 247.578002929687500 -122.277000427246090
-227.184005737304690 238.893997192382810 -77.296401977539063
-213.712997436523440 237.768997192382810 -76.283203125000000
-206.173995971679690 236.354995727539060 -68.824096679687500
-241.639999389648440 241.516998291015620 -104.319000244140620
-235.171005249023440 239.440002441406250 -95.807403564453125
-229.156005859375000 251.001998901367190 -162.819000244140620
-248.210998535156250 241.358993530273440 -113.711997985839840
-227.270004272460940 237.235992431640620 -89.287803649902344
-227.380996704101560 246.180999755859370 -138.684005737304690
-233.251007080078120 242.384002685546870 -129.468002319335940
-239.326995849609370 239.710006713867190 -121.041000366210940
-218.449005126953120 233.708999633789060 -84.864898681640625
-198.682006835937500 232.796005249023440 -77.172203063964844
-187.643997192382810 232.628005981445310 -76.387603759765625
-224.427001953125000 245.352996826171870 -152.847000122070310
-208.748992919921870 230.167999267578120 -83.130500793457031
-229.391006469726560 233.669998168945310 -105.717002868652340
-221.740005493164060 231.817001342773440 -96.771202087402344
-238.143005371093750 234.007003784179690 -111.824996948242190
-223.805999755859370 235.876007080078120 -131.442993164062500
-220.514007568359370 237.578002929687500 -142.802993774414060
-224.003005981445310 241.052001953125000 -165.348007202148440
-229.746002197265620 231.873992919921870 -120.927001953125000
-192.727005004882810 226.285995483398440 -84.577499389648438
-212.171005249023440 227.455001831054690 -96.299896240234375
-178.546997070312500 224.037002563476560 -73.392700195312500
-202.604995727539060 226.110992431640620 -90.851196289062500
-218.923995971679690 235.813003540039060 -155.792007446289060
-218.703994750976560 226.356002807617190 -105.786003112792970
-182.238998413085940 222.417007446289060 -83.216201782226562
-227.332992553710940 225.201004028320310 -113.175003051757810
-187.225997924804690 222.440994262695310 -93.222999572753906
-216.005004882812500 229.123992919921870 -134.766006469726560
-220.563995361328120 226.115005493164060 -123.758003234863280
-206.130004882812500 221.507003784179690 -103.374000549316410
-214.470001220703120 228.240997314453120 -145.378005981445310
-196.197006225585940 220.429992675781250 -100.267997741699220
-219.746994018554690 230.927001953125000 -165.776000976562500
-176.093002319335940 214.522003173828120 -79.338500976562500
-213.195999145507810 225.979003906250000 -157.802993774414060
-213.817001342773440 218.348007202148440 -120.928001403808590
-210.916000366210940 220.222000122070310 -131.222000122070310
-212.169998168945310 215.958999633789060 -110.764999389648440
-181.503997802734370 212.585998535156250 -88.394699096679688
-189.994003295898440 212.134994506835940 -97.057403564453125
-208.324996948242190 220.869995117187500 -149.811004638671870
-200.617004394531250 212.035003662109370 -105.848999023437500
-204.417999267578120 216.682006835937500 -140.311004638671870
-215.345001220703120 220.386001586914060 -166.658004760742190
-205.277999877929690 212.863998413085940 -124.416999816894530
-171.744003295898440 202.942001342773440 -71.823799133300781
-206.235000610351560 207.858001708984370 -114.240997314453120
-174.145004272460940 203.503997802734380 -85.821601867675781
-181.279006958007810 203.378997802734380 -95.595497131347656
-189.115005493164060 203.529998779296870 -103.339996337890620
-208.423004150390620 212.843994140625000 -161.658004760742190
-196.720993041992190 203.425003051757810 -110.584999084472660
-202.285003662109370 209.880996704101560 -152.768997192382810
-198.231994628906250 203.421005249023440 -120.992996215820310
-168.126998901367190 195.507003784179690 -82.324798583984375
-194.710006713867190 203.434997558593750 -131.337997436523440
-172.440002441406250 195.641998291015620 -92.541702270507812
-169.621994018554690 191.505004882812500 -71.314796447753906
-198.716003417968750 203.451995849609370 -144.794998168945310
-186.057006835937500 195.602005004882810 -109.955001831054690
-179.582992553710940 194.076004028320310 -101.866996765136720
-189.582000732421870 195.259002685546870 -121.113998413085940
-207.201995849609370 202.843002319335940 -168.302993774414060
-201.401000976562500 200.904998779296870 -159.761993408203120
-189.110000610351560 197.029006958007810 -137.832000732421870
-192.738998413085940 195.440002441406250 -148.272994995117190
-165.649993896484370 185.998001098632810 -92.817298889160156
-182.328002929687500 191.813003540039060 -128.776000976562500
-165.867004394531250 182.927993774414060 -79.373497009277344
-171.867004394531250 186.268997192382810 -101.224998474121090
-177.688995361328120 186.455993652343750 -110.648002624511720
-168.546005249023440 178.546005249023440 -69.752799987792969
-194.927001953125000 192.729995727539060 -158.386993408203120
-200.680999755859370 193.955993652343750 -169.820999145507810
-179.574005126953120 184.582992553710940 -121.184997558593750
-183.746002197265620 187.914001464843750 -140.302001953125000
-161.102996826171870 178.024002075195310 -87.313903808593750
-187.266998291015620 186.860000610351560 -151.302993774414060
-164.979995727539060 178.182998657226560 -101.361999511718750
-169.979003906250000 178.664993286132810 -110.623001098632810
-161.442001342773440 172.533996582031250 -77.738403320312500
-175.882003784179690 182.223007202148440 -134.785003662109370
-189.147003173828120 187.287002563476560 -166.886001586914060
-165.175003051757810 168.167007446289060 -67.038696289062500
-181.220993041992190 183.376998901367190 -161.257995605468750
-171.507995605468750 176.177001953125000 -121.065002441406250
-177.694000244140620 180.895996093750000 -150.305999755859370
-157.671997070312500 170.473999023437500 -98.306098937988281
-166.180999755859370 175.421997070312500 -130.328994750976560
-175.147003173828120 182.479003906250000 -170.824005126953120
-162.246994018554690 171.432998657226560 -110.170997619628910
-170.039001464843750 176.720001220703120 -144.324996948242190
-157.164001464843750 166.496994018554690 -87.327003479003906
-169.759002685546870 179.253005981445310 -162.354995727539060
-161.136993408203120 178.888000488281250 -170.335006713867190
-164.126998901367190 175.095001220703120 -152.802001953125000
-158.835006713867190 160.964004516601560 -77.899803161621094
-163.848007202148440 168.436996459960940 -121.059997558593750
-156.621002197265620 175.608993530273440 -161.276000976562500
-160.274002075195310 170.358001708984370 -137.865997314453120
-164.251007080078120 157.442993164062500 -69.363998413085937
-145.645004272460940 174.992996215820310 -168.822006225585940
-155.703002929687500 166.944000244140620 -127.814002990722660
-152.098007202148440 161.014999389648440 -96.807800292968750
-154.684997558593750 169.886993408203120 -147.337005615234370
-147.143997192382810 171.009002685546870 -156.815994262695310
-154.673995971679690 161.947998046875000 -110.744003295898440
-135.141998291015620 171.731002807617190 -165.684005737304690
-153.408004760742190 155.162994384765620 -85.208099365234375
-150.759002685546880 164.805999755859370 -138.416000366210940
-143.563003540039060 164.119995117187500 -147.272003173828120
-157.033004760742190 158.279998779296870 -120.970001220703120
-137.274002075195310 165.253005981445310 -155.988006591796870
-126.166000366210940 166.783996582031250 -162.947006225585940
-147.731994628906250 158.916000366210940 -125.875999450683590
-147.016998291015620 153.595001220703130 -103.777000427246090
-119.133003234863280 163.078002929687500 -154.253005981445310
-143.104003906250000 158.065002441406250 -135.304992675781250
-160.145004272460940 144.477996826171870 -70.225700378417969
-150.826995849609370 152.451995849609370 -114.725997924804690
-135.509994506835940 157.151000976562500 -143.229995727539060
-153.324005126953120 144.466003417968750 -79.419601440429688
-127.746002197265620 157.192001342773440 -150.501007080078120
-118.169998168945310 155.932006835937500 -146.393997192382810
-147.667007446289060 144.339004516601560 -89.301101684570313
-142.352005004882810 145.205993652343750 -98.701698303222656
-110.154998779296870 155.358001708984370 -154.981002807617190
-100.672996520996090 154.151000976562500 -148.652999877929690
-144.352996826171870 145.302001953125000 -121.054000854492190
-133.166000366210940 145.481994628906250 -127.335998535156250
-139.651992797851560 141.996994018554690 -111.814002990722660
-157.182998657226560 133.447006225585940 -72.631896972656250
-125.791000366210940 145.268005371093750 -135.526992797851560
-150.371994018554690 133.945999145507810 -81.460296630859375
-116.167999267578120 145.451004028320310 -142.360000610351560
-95.176101684570313 143.649002075195310 -141.113998413085940
-108.705001831054690 141.807006835937500 -136.009002685546870
-137.490997314453120 134.063003540039060 -98.711303710937500
-104.651000976562500 143.442001342773440 -145.865997314453120
-143.973999023437500 131.509994506835940 -90.124397277832031
-137.466995239257810 137.143997192382810 -121.222999572753910
-85.693901062011719 142.565002441406250 -146.179992675781250
-131.712997436523440 134.453994750976560 -110.725997924804690
-79.728698730468750 140.604003906250000 -137.117004394531250
-125.818000793457030 136.828994750976560 -126.027000427246090
-118.202003479003910 137.434005737304690 -133.382003784179690
-70.287101745605469 135.973007202148440 -132.042007446289060
-153.167007446289060 122.626998901367190 -74.092498779296875
-126.276000976562500 128.408996582031250 -102.054000854492190
-147.253005981445310 122.462997436523440 -83.390899658203125
-101.655998229980470 133.488998413085940 -136.854003906250000
-93.084098815917969 131.664001464843750 -131.113006591796870
-88.643302917480469 133.503997802734370 -140.811004638671870
-130.514999389648440 128.608001708984370 -121.210998535156250
-135.352996826171870 123.887001037597660 -97.492797851562500
-81.702301025390625 131.119995117187500 -132.117996215820310
-118.727996826171870 128.444000244140620 -125.441001892089840
-126.043998718261720 124.597999572753910 -111.974998474121090
-109.110000610351560 128.597000122070310 -131.205001831054690
-66.159599304199219 128.037002563476560 -125.254997253417970
-141.255004882812500 117.444000244140620 -90.362899780273438
-101.073997497558590 124.112998962402340 -125.099998474121090
-76.158203125000000 124.018997192382810 -126.276000976562500
-127.986000061035160 118.116996765136720 -102.646003723144530
-123.931999206542970 120.194999694824220 -121.231002807617190
-93.181900024414063 120.983001708984370 -131.621002197265620
-118.310997009277340 116.374000549316410 -111.095001220703120
-110.642997741699220 119.008003234863280 -125.308998107910160
-85.657096862792969 119.144996643066410 -124.575996398925780
-120.225997924804690 111.897003173828120 -97.938598632812500
-60.738700866699219 117.973999023437500 -124.504997253417970
-133.585998535156250 109.552001953125000 -93.720100402832031
-141.574996948242190 107.061996459960940 -87.215202331542969
-61.242698669433594 117.594001770019530 -134.985992431640620
-76.153503417968750 114.571998596191410 -121.117996215820310
-70.617500305175781 115.992996215820310 -130.205001831054690
-147.113998413085940 104.044998168945310 -78.863296508789063
-117.382003784179690 111.205001831054690 -121.197998046875000
-93.155998229980469 111.956001281738280 -121.393997192382810
-131.690002441406250 101.873001098632810 -83.936096191406250
-112.617996215820310 107.522003173828120 -111.846000671386720
-124.662002563476560 103.476997375488280 -92.847396850585938
-103.222999572753910 109.461997985839840 -125.483001708984370
-114.558998107910160 101.639999389648440 -96.694900512695313
-59.102298736572266 107.972000122070310 -129.233001708984370
-138.692001342773440 95.952598571777344 -76.610496520996094
-107.483001708984370 101.677001953125000 -104.667999267578120
-79.801200866699219 106.654998779296870 -127.589996337890620
-68.492103576660156 105.939002990722660 -123.616996765136720
-100.690002441406250 103.512001037597660 -117.102996826171870
-58.715000152587891 108.530998229980470 -140.406005859375000
-125.667999267578130 94.864700317382813 -77.949203491210938
-120.047996520996090 96.088699340820312 -86.672996520996094
-87.644500732421875 102.486999511718750 -118.884002685546870
-110.944999694824220 102.181999206542970 -121.274002075195310
-108.719001770019530 95.904998779296875 -89.409202575683594
-67.354896545410156 104.037002563476560 -135.039001464843750
-95.220497131347656 99.501098632812500 -125.495002746582030
-76.123596191406250 98.497901916503906 -121.251998901367190
-102.889999389648440 93.264602661132813 -97.704803466796875
-101.583999633789060 94.143203735351562 -109.299003601074220
-114.117996215820310 87.280700683593750 -76.137496948242188
-53.537200927734375 99.962699890136719 -137.225006103515620
-123.657997131347660 85.500602722167969 -71.801002502441406
-76.128799438476562 96.794403076171875 -132.214996337890630
-84.714302062988281 95.122497558593750 -126.260002136230470
-106.786003112792970 86.800102233886719 -84.466300964355469
-104.891998291015620 93.330497741699219 -121.324996948242190
-93.213996887207031 92.528297424316406 -117.057998657226560
-112.616996765136720 82.613098144531250 -66.717201232910156
-54.347999572753906 98.969703674316406 -148.514007568359370
-97.727096557617188 86.406097412109375 -91.433700561523438
-62.611400604248047 96.492202758789063 -141.772994995117190
-104.809997558593750 82.319602966308594 -74.426803588867188
-68.475303649902344 91.505699157714844 -126.666000366210940
-97.988296508789063 80.761398315429688 -82.637496948242188
-91.470901489257813 83.662498474121094 -99.801902770996094
-95.280502319335938 84.913200378417969 -110.162002563476560
-77.328201293945313 86.961799621582031 -121.014999389648440
-100.648002624511720 75.997596740722656 -66.814201354980469
-89.535797119140625 79.638900756835938 -89.795303344726563
-99.133399963378906 84.511100769042969 -121.321998596191410
-87.228797912597656 84.768096923828125 -126.428001403808590
-91.728202819824219 74.838302612304688 -74.891296386718750
-67.286903381347656 87.019897460937500 -138.953994750976560
-75.524597167968750 84.539802551269531 -131.203994750976560
-89.568397521972656 71.200500488281250 -64.746902465820313
-83.833297729492188 73.208099365234375 -82.383399963378906
-59.586700439453125 85.493202209472656 -146.750000000000000
-84.457901000976563 74.697898864746094 -98.792503356933594
-82.083900451660156 68.231796264648437 -72.825103759765625
-91.467102050781250 74.169403076171875 -112.970001220703120
-71.580596923828125 76.539497375488281 -123.752998352050780
-93.075599670410156 75.545700073242187 -123.297996520996090
-82.147697448730469 75.501197814941406 -125.323997497558590
-78.477996826171875 69.165000915527344 -90.842201232910156
-76.125999450683594 64.079200744628906 -64.245498657226563
-74.098602294921875 66.591300964355469 -80.805900573730469
-69.916099548339844 76.434799194335938 -135.018005371093750
-53.390899658203125 80.479202270507813 -155.925994873046870
-68.500198364257813 61.211799621582031 -72.848701477050781
-62.934101104736328 73.530601501464844 -142.686004638671870
-78.266601562500000 65.404602050781250 -102.291999816894530
-84.151901245117188 64.998802185058594 -111.816001892089840
-87.633003234863281 66.511596679687500 -122.819000244140620
-76.082603454589844 67.025596618652344 -126.113998413085940
-57.004699707031250 71.509002685546875 -151.222000122070310
-72.292701721191406 59.917800903320313 -94.771102905273437
-68.565200805664062 57.531398773193359 -84.842796325683594
-66.992698669433594 65.056701660156250 -133.244995117187500
-51.593399047851563 69.568603515625000 -161.800003051757810
-64.682800292968750 51.499298095703125 -75.312599182128906
-60.507900238037109 63.064998626708984 -143.733001708984370
-72.496803283691406 55.590499877929688 -105.877998352050780
-82.140998840332031 57.505798339843750 -123.817001342773440
-80.244499206542969 55.422401428222656 -113.721000671386720
-53.554500579833984 61.526599884033203 -154.251998901367190
-70.155097961425781 55.992801666259766 -126.839996337890630
-68.371200561523438 49.242599487304688 -98.223297119140625
-63.364101409912109 43.455501556396484 -67.812698364257813
-61.961399078369141 55.638900756835937 -135.227996826171870
-65.699897766113281 46.511600494384766 -86.794097900390625
-56.087600708007812 53.541500091552734 -144.277999877929690
-46.276699066162109 55.986598968505859 -160.725006103515620
-62.359401702880859 40.381500244140625 -78.786499023437500
-77.153701782226562 47.998298645019531 -123.320999145507810
-74.215301513671875 45.951301574707031 -113.242996215820310
-63.199600219726563 40.483100891113281 -95.314796447753906
-64.622596740722656 46.012699127197266 -127.234001159667970
-38.646598815917969 51.245498657226563 -154.677993774414060
-47.300399780273438 48.808700561523438 -147.957992553710940
-66.575996398925781 39.048500061035156 -110.952003479003910
-53.088500976562500 44.535598754882812 -139.781005859375000
-57.746898651123047 38.386001586914063 -121.042999267578120
-72.111602783203125 38.520500183105469 -124.315002441406250
-45.160800933837891 40.853298187255859 -132.994995117187500
-52.277099609375000 29.314300537109375 -74.324798583984375
-40.652900695800781 41.906600952148437 -143.434997558593750
-57.667499542236328 39.248699188232422 -131.917007446289060
-53.993999481201172 29.184299468994141 -86.826103210449219
-31.010299682617187 39.971099853515625 -147.686996459960940
-56.971801757812500 29.146999359130859 -97.358703613281250
-43.246700286865234 23.253000259399414 -73.721298217773438
-35.692699432373047 33.968200683593750 -133.481002807617190
-64.599197387695313 29.041400909423828 -113.404998779296870
-67.345397949218750 28.875699996948242 -123.777999877929690
-45.494701385498047 22.694999694824219 -86.458099365234375
-54.914901733398438 25.301099777221680 -108.212997436523440
-56.549900054931641 28.898700714111328 -128.660003662109370
-28.198600769042969 30.993499755859375 -140.373992919921870
-45.429199218750000 29.147199630737305 -134.080993652343750
-21.714399337768555 27.524999618530273 -125.924003601074220
-49.483600616455078 21.186599731445313 -96.455398559570313
-47.141101837158203 25.507400512695313 -123.800003051757810
-35.852500915527344 17.688299179077148 -82.703796386718750
-37.801998138427734 25.941999435424805 -142.072998046875000
-31.458799362182617 27.335599899291992 -150.309005737304690
-40.284198760986328 15.340999603271484 -92.718002319335938
-59.994400024414063 18.565999984741211 -114.500999450683590
-62.743801116943359 18.951099395751953 -125.341003417968750
-50.076900482177734 15.545999526977539 -109.871002197265620
-53.164600372314453 19.006399154663086 -129.964996337890620
-43.514198303222656 18.544300079345703 -134.746002197265620
-30.185600280761719 8.004520416259766 -80.306701660156250
-43.581401824951172 11.556099891662598 -102.348999023437500
-50.686798095703125 13.031800270080566 -120.986999511718750
-33.274700164794922 7.473470211029053 -90.752601623535156
-30.312799453735352 18.662300109863281 -156.194000244140620
-35.505100250244141 16.564100265502930 -146.692993164062500
-58.261901855468750 9.431130409240723 -127.396003723144530
-45.413799285888672 5.847149848937988 -111.524002075195310
-39.138500213623047 9.503780364990234 -139.315002441406250
-47.665199279785156 7.522590160369873 -130.873001098632810
-37.042999267578125 2.050689935684204 -103.871002197265620
-55.832901000976563 3.913929939270020 -117.686996459960940
-34.234600067138672 -4.445499897003174 -81.275901794433594
-45.674598693847656 2.295340061187744 -121.466003417968750
-34.782299041748047 -3.472929954528809 -92.793197631835938
-32.332199096679688 4.946450233459473 -147.373001098632810
-39.761600494384766 -4.116779804229736 -112.151000976562500
-53.720500946044922 -2.013930082321167 -127.837997436523440
-24.642999649047852 -8.901989936828613 -87.408996582031250
-43.181701660156250 -1.985890030860901 -132.576004028320310
-14.806599617004395 -9.402839660644531 -91.022903442382812
-36.203098297119141 -9.985739707946777 -101.804000854492190
-32.255199432373047 0.543107986450195 -159.794006347656250
-20.145200729370117 -11.139100074768066 -100.622001647949220
-35.868198394775391 -13.985500335693359 -87.742698669433594
-40.180900573730469 -8.018910408020020 -123.261001586914060
-34.639400482177734 -5.994090080261231 -137.313003540039060
-28.171100616455078 -15.551500320434570 -95.267501831054687
-35.597301483154297 -7.851779937744141 -149.391998291015620
-9.113100051879883 -16.511299133300781 -98.782402038574219
-49.525001525878906 -13.887800216674805 -121.342002868652340
-39.702499389648438 -16.021200180053711 -115.653999328613280
-33.333499908447266 -19.098199844360352 -106.861000061035160
-18.688100814819336 -20.826700210571289 -96.085998535156250
-47.237499237060547 -15.522899627685547 -131.406005859375000
-34.526699066162109 -9.908650398254395 -160.277999877929690
-22.303800582885742 -20.293300628662109 -106.158996582031250
-1.269189953804016 -19.939399719238281 -106.053001403808590
10.339300155639648 -19.524400711059570 -107.180999755859370
-36.638099670410156 -16.511199951171875 -135.011993408203130
20.867000579833984 -21.007900238037109 -109.813003540039060
-37.134799957275391 -20.993799209594727 -125.361000061035160
-31.798000335693359 -17.503499984741211 -147.343994140625000
-28.508399963378906 -28.865400314331055 -85.829597473144531
-30.129899978637695 -28.986099243164063 -97.318298339843750
-30.086200714111328 -19.472499847412109 -158.802001953125000
-18.660800933837891 -29.901199340820313 -101.972000122070310
-43.036499023437500 -24.982200622558594 -133.195007324218750
-29.467899322509766 -28.962499618530273 -109.848999023437500
-7.170159816741943 -29.972400665283203 -105.372001647949220
14.304499626159668 -29.441200256347656 -109.527999877929690
2.841660022735596 -29.957399368286133 -109.099998474121090
-44.076801300048828 -28.895799636840820 -123.327003479003910
-30.623800277709961 -28.993200302124023 -122.843002319335940
-22.960699081420898 -36.294799804687500 -90.887100219726563
-27.466600418090820 -28.910400390625000 -145.802993774414060
-32.152000427246094 -31.946899414062500 -136.763000488281250
-25.250400543212891 -38.060901641845703 -102.288002014160160
-25.673700332641602 -29.009399414062500 -156.332000732421870
-17.347700119018555 -32.000999450683594 -140.055999755859370
-14.658800125122070 -38.408199310302734 -106.975997924804690
-26.221900939941406 -38.529399871826172 -113.305000305175780
-17.225500106811523 -29.055000305175781 -166.919998168945310
-41.062400817871094 -36.476299285888672 -131.813995361328120
-3.166490077972412 -39.468101501464844 -109.963996887207030
-39.747798919677734 -39.049900054931641 -121.718002319335940
10.338700294494629 -39.485099792480469 -111.370002746582030
-15.225399971008301 -44.152400970458984 -94.731201171875000
-25.785200119018555 -41.096000671386719 -124.220001220703120
-22.931800842285156 -38.153099060058594 -148.376998901367190
-18.584600448608398 -37.435501098632812 -158.264999389648440
-18.791999816894531 -47.654800415039063 -104.205001831054690
-12.654399871826172 -41.545799255371094 -140.378005981445310
-9.719940185546875 -37.196098327636719 -165.479003906250000
-28.218200683593750 -43.083198547363281 -138.615005493164060
-22.490600585937500 -48.408298492431641 -114.415000915527340
4.345520019531250 -48.491600036621094 -111.880996704101560
-7.517690181732178 -52.501201629638672 -94.387901306152344
-11.591799736022949 -49.455699920654297 -112.007003784179690
-38.328998565673828 -49.182701110839844 -125.196998596191410
-1.214130043983460 -43.241100311279297 -164.472000122070310
-20.983999252319336 -47.710800170898438 -144.570999145507810
-30.188499450683594 -53.524398803710938 -120.196998596191410
-36.021598815917969 -51.474998474121094 -135.248001098632810
-12.223699569702148 -56.490798950195313 -104.282997131347660
-4.189599990844727 -47.733699798583984 -152.063003540039060
-14.814299583435059 -48.180198669433594 -153.037002563476560
-3.146709918975830 -56.483898162841797 -111.995002746582030
-8.677669525146484 -51.966899871826172 -140.537994384765620
-17.660600662231445 -58.007301330566406 -113.809997558593750
-19.909099578857422 -56.854698181152344 -124.566001892089840
7.268030166625977 -58.912700653076172 -114.583000183105470
-12.077300071716309 -64.526000976562500 -94.335899353027344
-35.094501495361328 -59.609500885009766 -127.336997985839840
-17.496999740600586 -57.449699401855469 -142.733001708984370
-28.174999237060547 -58.490100860595703 -139.432006835937500
0.731548011302948 -57.531700134277344 -140.087005615234370
-9.734270095825195 -57.128101348876953 -150.535995483398440
0.796284973621368 -55.998500823974609 -156.876007080078120
-15.609399795532227 -66.505897521972656 -105.330001831054690
-9.112380027770996 -64.987197875976562 -113.944999694824220
-12.686300277709961 -70.990997314453125 -85.806701660156250
-28.226400375366211 -65.529098510742187 -121.665000915527340
8.195980072021484 -63.012100219726563 -134.682998657226560
-18.974899291992188 -68.978103637695313 -117.496002197265620
0.788106977939606 -69.469398498535156 -114.597999572753910
-32.497299194335938 -66.967201232910156 -134.819000244140620
-14.461700439453125 -74.468299865722656 -97.344596862792969
-3.203569889068604 -67.044601440429688 -142.559997558593750
10.392000198364258 -71.020301818847656 -118.771003723144530
-14.067299842834473 -67.517097473144531 -143.716995239257810
-4.865029811859131 -65.642303466796875 -156.164001464843750
-24.189100265502930 -69.514099121093750 -140.979995727539060
-16.516300201416016 -76.501899719238281 -109.852996826171870
-20.573600769042969 -73.478698730468750 -127.930000305175780
-7.993859767913818 -80.351997375488281 -88.916000366210938
-31.013900756835938 -74.447700500488281 -127.416999816894530
-7.167840003967285 -77.017700195312500 -115.174003601074220
-1.225909948348999 -68.488403320312500 -166.365997314453120
5.205480098724365 -75.103897094726563 -138.705001831054690
-10.459199905395508 -73.667602539062500 -152.242004394531250
2.389219999313355 -81.015800476074219 -117.223999023437500
-29.589300155639648 -78.482498168945313 -137.304000854492190
-16.674699783325195 -78.485298156738281 -144.367004394531250
-3.627899885177612 -78.489799499511719 -144.382995605468750
5.272339820861816 -76.664001464843750 -167.949996948242190
-3.731610059738159 -78.569702148437500 -159.908996582031250
