ply
format ascii 1.0
element vertex 787
property double x
property double y
property double z
end_header
-391.166992187500000 575.060974121093750 -111.801002502441410
-393.673004150390630 580.403015136718750 -121.838996887207030
-371.183013916015620 579.078002929687500 -111.778999328613280
-381.657989501953120 578.992004394531250 -113.793998718261720
-404.114990234375000 579.307983398437500 -123.880996704101560
-391.166992187500000 575.060974121093750 -111.801002502441410
-361.622985839843750 574.937011718750000 -106.401000976562500
-378.661010742187500 572.116027832031250 -104.221000671386720
-413.282989501953120 574.190002441406250 -122.746002197265620
-344.242004394531250 572.242004394531250 -104.984001159667970
-399.664001464843750 570.127990722656250 -106.751998901367190
-407.197998046875000 571.161987304687500 -114.716003417968750
-421.257995605468750 573.166992187500000 -130.738998413085940
-390.164001464843750 568.145019531250000 -101.204002380371090
-369.144989013671870 568.518981933593750 -100.804000854492190
-353.747985839843750 568.796997070312500 -101.574996948242190
-409.510009765625000 565.791992187500000 -104.902000427246090
-399.734985351562500 564.192016601562500 -97.143699645996094
-380.653015136718750 564.231018066406250 -96.588096618652344
-419.119995117187500 565.466003417968750 -111.839996337890620
-429.248992919921870 569.973999023437500 -138.309997558593750
-422.888000488281250 566.771972656250000 -121.711997985839840
-336.696014404296880 564.784973144531250 -101.598999023437500
-361.158996582031250 562.968994140625000 -96.358001708984375
-413.477996826171870 559.760986328125000 -96.479896545410156
-371.174011230468750 560.379028320312500 -93.456398010253906
-395.167999267578120 558.754028320312500 -89.166000366210937
-346.720001220703130 561.354003906250000 -98.587898254394531
-384.598999023437500 558.247985839843750 -88.700698852539062
-423.528015136718750 559.810974121093750 -103.906997680664060
-405.661010742187500 557.645019531250000 -89.234901428222656
-430.579010009765630 562.924987792968750 -127.839996337890620
-327.130004882812500 560.083007812500000 -99.670997619628906
-316.583007812500000 560.732971191406250 -102.749000549316410
-419.154998779296870 554.023010253906250 -88.807296752929688
-430.575988769531250 557.414001464843750 -111.834999084472660
-410.151000976562500 552.065979003906250 -81.286499023437500
-428.153991699218750 554.012023925781250 -95.816802978515625
-388.639007568359370 552.057006835937500 -79.801399230957031
-399.654998779296870 550.343017578125000 -76.395103454589844
-378.143005371093750 552.036010742187500 -82.808296203613281
-436.316986083984370 560.078979492187500 -137.253005981445310
-430.377990722656250 550.809020996093750 -85.897300720214844
-367.671997070312500 551.909973144531250 -87.353897094726563
-421.665008544921870 548.716003417968750 -78.729797363281250
-356.135009765625000 552.036987304687500 -89.295700073242188
-435.204010009765630 552.083007812500000 -103.322998046875000
-440.153991699218750 559.507019042968750 -147.320007324218750
-384.183990478515620 546.692016601562500 -69.433502197265625
-436.263000488281250 554.604980468750000 -121.300003051757810
-345.669006347656250 551.978027343750000 -92.846496582031250
-374.708007812500000 546.835998535156250 -74.373100280761719
-412.627990722656250 545.340026855468750 -73.453002929687500
-321.635009765625000 552.080017089843750 -95.720001220703125
-363.200988769531250 547.293029785156250 -79.000602722167969
-334.675994873046870 550.833984375000000 -93.998703002929688
-300.651000976562500 551.969970703125000 -95.342399597167969
-392.235992431640620 543.242004394531250 -63.118000030517578
-438.558013916015620 546.864013671875000 -92.871803283691406
-375.119995117187500 543.098022460937500 -63.792198181152344
-403.180999755859380 542.562988281250000 -67.292602539062500
-385.104003906250000 540.401000976562500 -55.845600128173828
-375.153991699218750 539.478027343750000 -49.820201873779297
-445.609008789062500 546.440002441406250 -101.815002441406250
-440.803985595703120 548.202026367187500 -111.323997497558590
-440.428009033203120 551.734985351562500 -130.761001586914060
-311.710998535156250 548.380004882812500 -94.596397399902344
-365.273010253906250 541.729003906250000 -70.402801513671875
-443.983001708984370 546.367980957031250 -121.319999694824220
-443.983001708984370 549.914978027343750 -140.858001708984370
-338.618011474609370 543.103027343750000 -87.233100891113281
-288.649993896484370 546.999023437500000 -100.821998596191410
-355.746002197265620 540.278015136718750 -75.909797668457031
-365.493988037109370 534.700988769531250 -47.275001525878906
-445.868011474609370 551.151977539062500 -152.253997802734380
-348.209991455078120 541.392028808593750 -83.369201660156250
-327.135009765625000 543.056030273437500 -90.229301452636719
-360.122009277343750 536.549987792968750 -62.802398681640625
-304.652008056640620 542.028991699218750 -89.157997131347656
-450.140991210937500 540.997985839843750 -110.320999145507810
-317.653991699218750 539.914001464843750 -86.939903259277344
-356.519989013671870 530.174987792968750 -42.861499786376953
-447.824005126953120 543.598022460937500 -132.794006347656250
-294.252990722656250 540.958007812500000 -94.038597106933594
-355.796997070312500 531.216979980468750 -53.422401428222656
-449.946990966796870 547.471984863281250 -161.218002319335940
-344.562988281250000 534.713989257812500 -75.671203613281250
-350.225006103515620 532.844970703125000 -66.869102478027344
-330.772003173828120 535.749023437500000 -83.055198669433594
-451.998992919921870 538.804992675781250 -121.307998657226560
-449.231994628906250 542.549987792968750 -147.309997558593750
-281.656005859375000 538.494995117187500 -100.823997497558590
-348.200012207031250 524.916992187500000 -47.851001739501953
-309.718994140625000 532.872009277343750 -87.608596801757813
-341.098999023437500 527.091003417968750 -62.793201446533203
-335.177001953125000 528.937988281250000 -73.851997375488281
-321.213989257812500 530.851989746093750 -82.899497985839844
-298.240997314453120 532.293029785156250 -89.082901000976563
-453.013000488281250 536.880981445312500 -139.305999755859380
-288.264007568359370 532.375000000000000 -93.011596679687500
-457.299011230468750 533.757019042968750 -130.152999877929690
-339.239013671875000 521.375976562500000 -52.877601623535156
-451.894012451171870 536.909973144531250 -157.824996948242190
-325.214996337890620 524.814025878906250 -74.436897277832031
-452.753997802734370 538.010986328125000 -168.785995483398440
-331.307006835937500 522.239013671875000 -64.463600158691406
-342.838012695312500 517.357971191406250 -40.873901367187500
-273.496002197265620 531.143981933593750 -105.845001220703120
-302.567993164062500 525.153015136718750 -81.114700317382812
-278.545989990234370 528.583007812500000 -96.691101074218750
-290.708007812500000 525.419982910156250 -84.989402770996094
-313.040008544921870 523.166015625000000 -79.637901306152344
-455.484985351562500 530.885009765625000 -149.300003051757810
-461.066009521484370 528.413024902343750 -138.792007446289060
-317.238006591796870 517.841979980468750 -71.464302062988281
-332.121002197265620 513.531005859375000 -50.799499511718750
-323.236999511718750 515.361022949218750 -62.895000457763672
-265.803009033203120 523.825012207031250 -107.404998779296870
-283.074005126953120 519.583984375000000 -89.666801452636719
-336.235992431640620 507.957000732421870 -41.912399291992188
-465.205993652343750 523.124023437500000 -146.843002319335940
-271.537994384765620 519.604980468750000 -96.186401367187500
-455.450988769531250 526.960998535156250 -166.324005126953120
-296.236999511718750 515.911010742187500 -82.549499511718750
-307.760009765625000 513.833984375000000 -73.467903137207031
-459.600006103515620 523.473999023437500 -156.307998657226560
-314.346008300781250 507.778991699218750 -62.543899536132812
-318.257995605468750 505.902008056640620 -52.966999053955078
-457.160003662109370 524.005981445312500 -176.817993164062500
-327.074005126953120 503.558990478515620 -47.733798980712891
-298.343994140625000 508.268005371093750 -73.883201599121094
-286.829986572265620 510.273986816406250 -83.058197021484375
-260.044006347656250 514.565979003906250 -103.247001647949220
-275.269012451171870 511.419006347656250 -90.089897155761719
-304.644989013671870 503.635986328125000 -63.506099700927734
-254.276992797851560 513.943969726562500 -112.358001708984370
-265.247985839843750 509.447998046875000 -94.944999694824219
-459.247009277343750 516.578979492187500 -169.352996826171870
-466.174987792968750 514.093017578125000 -161.856002807617190
-294.087005615234370 501.596008300781250 -66.096801757812500
-289.855987548828120 502.174987792968750 -75.825798034667969
-267.638000488281250 504.524993896484380 -85.797302246093750
-279.205993652343750 502.920013427734370 -82.917701721191406
-460.644989013671870 515.494995117187500 -183.320999145507810
-326.658996582031250 493.497985839843750 -44.830799102783203
-256.244995117187500 504.946014404296870 -99.367401123046875
-317.334014892578120 493.872009277343750 -50.552799224853516
-250.597000122070310 504.029998779296870 -108.297996520996090
-300.783996582031250 493.847991943359370 -62.509899139404297
-465.657989501953130 508.031005859375000 -170.820007324218750
-286.760986328125000 493.855010986328120 -68.577598571777344
-279.220001220703120 493.904998779296870 -76.338203430175781
-277.028015136718750 490.722991943359370 -66.367897033691406
-266.687011718750000 493.980987548828120 -84.401000976562500
-249.194000244140620 499.421997070312500 -118.809997558593750
-320.018005371093750 484.019989013671870 -46.052799224853516
-310.709014892578120 484.950012207031250 -50.897899627685547
-254.257003784179690 493.890991210937500 -92.932502746582031
-463.483001708984370 503.562011718750000 -181.162994384765620
-292.782012939453130 486.796997070312500 -62.574600219726562
-247.524002075195310 493.083007812500000 -101.248001098632810
-462.197998046875000 502.992004394531250 -192.804992675781250
-270.496002197265620 486.704986572265630 -76.328498840332031
-244.757995605468750 493.434997558593750 -111.356002807617190
-282.674011230468750 482.390991210937500 -62.962600708007813
-258.167999267578120 486.484985351562500 -84.845397949218750
-264.709991455078120 482.877990722656250 -66.941101074218750
-311.670989990234370 476.536987304687500 -44.236000061035156
-302.204986572265630 477.946990966796870 -52.406101226806641
-245.154006958007810 489.497985839843750 -121.319000244140620
-282.713989257812500 475.296997070312500 -55.085700988769531
-272.645996093750000 477.005004882812500 -62.815700531005859
-261.933013916015620 479.736999511718750 -76.763900756835938
-292.643005371093750 474.009002685546870 -50.807800292968750
-248.576995849609370 482.074005126953120 -89.752899169921875
-242.710006713867190 482.960998535156250 -98.842697143554688
-303.582000732421870 469.644012451171870 -45.329898834228516
-462.153015136718750 491.667999267578120 -191.837005615234370
-252.419006347656250 477.230010986328120 -81.141197204589844
-239.345001220703120 482.881011962890620 -110.331001281738280
-273.194000244140620 470.308990478515620 -53.543800354003906
-465.223999023437500 491.984008789062500 -203.744003295898440
-261.808013916015620 471.725006103515620 -62.581100463867188
-254.300003051757810 472.856994628906250 -70.416999816894531
-284.731994628906250 467.217987060546870 -48.642601013183594
-295.132995605468750 464.016998291015620 -42.850101470947266
-240.341003417968750 480.279998779296870 -123.750999450683590
-242.742996215820310 471.838012695312500 -85.949203491210938
-265.696990966796870 463.838012695312500 -49.478599548339844
-238.384002685546870 473.118011474609370 -96.751502990722656
-251.777999877929690 465.790008544921870 -62.425098419189453
-472.657012939453120 484.634002685546880 -205.524993896484370
-247.917999267578120 467.709991455078120 -77.616203308105469
-234.848007202148440 473.406005859375000 -106.900001525878910
-276.153015136718750 460.462005615234370 -47.359298706054688
-286.597991943359370 457.614990234375000 -44.113201141357422
-258.166992187500000 457.908996582031250 -44.923000335693359
-250.177993774414060 459.055999755859370 -52.887001037597656
-242.802001953125000 460.273986816406250 -64.430900573730469
-234.595993041992190 471.535003662109370 -126.323997497558590
-267.739990234375000 454.489990234375000 -41.145999908447266
-235.457992553710940 463.746002197265620 -87.150100708007812
-278.183013916015620 452.183013916015620 -39.154499053955078
-240.641006469726560 460.006988525390620 -76.820602416992188
-245.723999023437500 453.820007324218750 -44.945598602294922
-232.378997802734370 463.865997314453120 -98.928703308105469
-254.669998168945310 450.881988525390620 -37.911701202392578
-229.361999511718750 464.372009277343750 -109.383003234863280
-241.151992797851560 453.996002197265620 -54.823898315429687
-478.115997314453120 474.970001220703120 -209.817001342773440
-228.192001342773440 463.477996826171870 -121.323997497558590
-264.229003906250000 446.118011474609370 -34.595401763916016
-233.811996459960940 452.321014404296880 -63.807899475097656
-244.520004272460940 446.638000488281250 -35.310798645019531
-238.061996459960940 446.644012451171870 -45.153598785400391
-228.391998291015620 454.298004150390620 -87.376602172851562
-232.802993774414060 452.290985107421870 -77.801002502441406
-254.218994140625000 442.680999755859370 -29.645599365234375
-230.720993041992190 446.411987304687500 -53.880401611328125
-226.436004638671870 454.101989746093750 -97.808898925781250
-225.600006103515620 447.558013916015620 -69.791496276855469
-224.591003417968750 458.048004150390620 -130.826995849609370
-224.078994750976560 454.050994873046870 -109.317001342773440
-222.466995239257810 442.791992187500000 -59.262901306152344
-222.522994995117190 454.105987548828120 -121.308998107910160
-240.205993652343750 435.884002685546870 -28.672100067138672
-221.766006469726560 446.907989501953120 -90.849197387695313
-223.669998168945310 444.847991943359370 -80.190597534179688
-228.145004272460940 435.507995605468750 -37.316600799560547
-220.106002807617190 446.527008056640620 -102.813003540039060
-220.893997192382810 435.281005859375000 -45.488201141357422
-217.414001464843750 449.725006103515620 -130.326004028320310
-215.414993286132810 435.807006835937500 -54.516498565673828
-231.251007080078120 429.843994140625000 -28.677000045776367
-216.587997436523440 430.580993652343750 -36.816200256347656
-213.750000000000000 435.875000000000000 -66.310401916503906
-214.460998535156250 444.285003662109370 -121.343002319335940
-216.386001586914060 435.774993896484370 -79.861602783203125
-212.059005737304690 429.197998046875000 -46.220699310302734
-207.001007080078120 431.178985595703120 -59.812801361083984
-221.727996826171870 424.320007324218750 -28.371599197387695
-211.960998535156250 435.682006835937500 -91.303298950195313
-208.559997558593750 442.631988525390620 -130.266998291015620
-209.820999145507810 435.799011230468750 -102.301002502441410
-206.552993774414060 423.653991699218750 -37.797401428222656
-206.270004272460940 429.381988525390620 -70.818702697753906
-202.656997680664060 425.486999511718750 -51.325901031494141
-212.720001220703120 419.850006103515620 -24.892599105834961
-206.272003173828120 435.842987060546870 -112.880996704101560
-200.763000488281250 435.833007812500000 -121.883003234863280
-208.356994628906250 427.805999755859370 -81.602302551269531
-204.559997558593750 429.075012207031250 -94.792999267578125
-197.727996826171870 418.428009033203120 -35.762599945068359
-202.177001953125000 416.338989257812500 -26.039499282836914
-194.031005859375000 419.665008544921870 -50.310001373291016
-195.727996826171870 434.930999755859370 -134.740997314453120
-200.651992797851560 429.493988037109370 -105.820999145507810
-199.022003173828120 421.626007080078120 -71.332199096679688
-188.742004394531250 413.930999755859370 -38.763599395751953
-192.962997436523440 418.229003906250000 -63.383399963378906
-187.160003662109370 430.472991943359370 -130.328002929687500
-192.628005981445310 427.843994140625000 -121.405998229980470
-193.574996948242190 410.139007568359370 -25.905300140380859
-201.671005249023440 419.479003906250000 -81.839797973632812
-186.608001708984370 414.023986816406250 -55.815898895263672
-196.893005371093750 419.716003417968750 -92.792503356933594
-193.563995361328120 421.589996337890620 -102.799003601074220
-183.593002319335940 408.125000000000000 -28.732500076293945
-181.485000610351560 410.242004394531250 -45.811599731445313
-177.692001342773440 426.351989746093750 -134.296005249023440
-183.291000366210940 421.835998535156250 -121.452003479003910
-190.048995971679690 412.080993652343750 -71.328102111816406
-186.205001831054690 418.933990478515620 -110.348999023437500
-174.531005859375000 405.209991455078120 -35.320999145507812
-194.216995239257810 411.898010253906250 -81.253799438476563
-175.597000122070310 402.128997802734370 -25.317899703979492
-177.703002929687500 405.958007812500000 -54.784099578857422
-183.401992797851560 407.337005615234370 -63.502799987792969
-189.188995361328120 412.894989013671870 -94.872100830078125
-173.746994018554690 417.393005371093750 -122.400001525878910
-168.860992431640620 419.058990478515620 -131.520996093750000
-172.067001342773440 403.156005859375000 -45.885398864746094
-166.057006835937500 398.154998779296870 -27.748699188232422
-177.697998046875000 412.467010498046870 -112.361999511718750
-164.289993286132810 399.278991699218750 -39.277198791503906
-181.830993652343750 410.246002197265620 -102.666000366210940
-183.453002929687500 404.191009521484370 -73.854598999023438
-165.863006591796870 398.786010742187500 -53.208400726318359
-187.613998413085940 402.533996582031250 -83.318801879882813
-182.867996215820310 404.207000732421870 -93.273498535156250
-166.195007324218750 409.476989746093750 -121.847000122070310
-176.580001831054690 398.572998046875000 -67.355300903320312
-154.680999755859370 393.430999755859370 -38.306400299072266
-157.195007324218750 390.851989746093750 -28.198900222778320
-163.156005859375000 409.498992919921870 -132.320999145507810
-173.871002197265620 402.713989257812500 -103.620002746582030
-158.688995361328120 392.944000244140620 -48.300800323486328
-168.263000488281250 404.368011474609370 -112.892997741699220
-168.115997314453120 393.010009765625000 -63.338798522949219
-175.725006103515620 396.429992675781250 -94.853202819824219
-181.289993286132810 394.454010009765620 -85.483901977539063
-146.011001586914060 386.238006591796870 -40.999298095703125
-171.669006347656250 390.981994628906250 -73.316101074218750
-150.813995361328120 386.229003906250000 -51.201000213623047
-163.093994140625000 398.514007568359370 -121.307998657226560
-162.307998657226560 401.493011474609370 -139.832000732421870
-168.406997680664060 393.851989746093750 -102.040000915527340
-153.591995239257810 385.554992675781250 -62.816501617431641
-163.160995483398440 393.001007080078120 -112.320999145507810
-174.279998779296870 386.985992431640620 -83.162498474121094
-162.544006347656250 383.097991943359370 -68.888397216796875
-169.981002807617190 387.111999511718750 -92.757400512695313
-128.134002685546880 376.520996093750000 -35.312999725341797
-133.514007568359370 377.766998291015620 -44.876701354980469
-141.003005981445310 377.626007080078120 -54.437000274658203
-161.731002807617190 388.485992431640620 -124.319000244140620
-160.451995849609370 384.606994628906250 -106.236999511718750
-154.716003417968750 375.903991699218750 -67.804702758789063
-162.164001464843750 377.484985351562500 -77.803298950195313
-161.632003784179690 389.506988525390620 -143.824996948242190
-123.771003723144530 372.264007568359370 -45.235198974609375
-169.429000854492190 377.524993896484380 -85.785697937011719
-130.707000732421870 371.903015136718750 -53.772998809814453
-145.164993286132810 371.829010009765620 -62.466201782226563
-161.992996215820310 377.580993652343750 -96.790298461914063
-133.548995971679690 372.029998779296870 -63.890300750732422
-119.098999023437500 370.572998046875000 -54.880199432373047
-114.653999328613280 367.981994628906250 -41.814899444580078
-157.955001831054690 377.576995849609370 -115.359001159667970
-159.354003906250000 377.382995605468750 -125.744003295898440
-163.304000854492190 369.748992919921870 -89.144500732421875
-149.078994750976560 366.066009521484370 -71.368301391601563
-159.083999633789060 366.671997070312500 -78.648902893066406
-105.119003295898440 362.066986083984370 -44.859901428222656
-139.651000976562500 363.997009277343750 -66.813598632812500
-156.617004394531250 369.522003173828120 -100.819999694824220
-114.157997131347660 361.485992431640620 -52.808200836181641
-118.174003601074220 362.955993652343750 -62.778198242187500
-159.917007446289060 376.483001708984370 -145.197006225585940
-102.794998168945310 361.278991699218750 -55.195201873779297
-152.785995483398440 369.446014404296870 -111.308998107910160
-129.544998168945310 360.609985351562500 -62.432098388671875
-157.798995971679690 371.458007812500000 -135.317993164062500
-154.160003662109370 367.993988037109370 -125.316001892089840
-157.432998657226560 360.221008300781250 -88.841499328613281
-150.891006469726560 361.397003173828120 -104.429000854492190
-143.214996337890620 355.946990966796870 -75.269996643066406
-134.151000976562500 354.497985839843750 -69.813102722167969
-112.184997558593750 354.433013916015620 -66.223999023437500
-152.089004516601560 355.299987792968750 -80.783096313476562
-97.231300354003906 350.346008300781250 -47.187099456787109
-122.593002319335940 352.561004638671870 -63.902801513671875
-107.122001647949220 351.533996582031250 -57.377300262451172
-157.869003295898440 366.091003417968750 -147.979003906250000
-148.686996459960940 360.481994628906250 -116.310997009277340
-154.108001708984370 362.022003173828120 -138.326995849609370
-95.266502380371094 349.313995361328130 -62.606899261474609
-150.125000000000000 358.513000488281250 -127.827003479003910
-146.123001098632810 352.522003173828120 -100.815002441406250
-151.027999877929690 350.559997558593750 -91.266403198242188
-136.736999511718750 348.904998779296870 -81.225402832031250
-127.750000000000000 345.884002685546870 -71.626998901367188
-104.750000000000000 345.421997070312500 -67.602996826171875
-143.500000000000000 350.622009277343750 -113.818000793457030
-116.290000915527340 342.342987060546870 -67.076400756835937
-93.105697631835938 341.014007568359370 -56.396301269531250
-145.649002075195310 343.084991455078120 -80.804000854492188
-84.020103454589844 339.075012207031250 -50.491798400878906
-120.113998413085940 341.023986816406250 -76.875999450683594
-156.130996704101560 352.998992919921870 -148.828002929687500
-145.757995605468750 348.946014404296870 -128.296005249023440
-150.134994506835940 350.002990722656250 -140.326995849609370
-145.427993774414060 341.161010742187500 -91.304702758789063
-133.072006225585940 339.049987792968750 -79.399398803710937
-140.427993774414060 343.128997802734370 -103.324996948242190
-99.152397155761719 336.498992919921870 -68.310897827148438
-109.546997070312500 334.625000000000000 -64.860900878906250
-89.574600219726563 334.010986328125000 -63.421901702880859
-140.628997802734370 343.003997802734370 -121.327003479003910
-140.656997680664060 332.953002929687500 -84.299400329589844
-125.112998962402340 331.528015136718750 -77.369201660156250
-139.169006347656250 333.488006591796870 -94.837997436523438
-119.147003173828120 328.502014160156250 -66.820899963378906
-79.644699096679688 326.020996093750000 -47.342399597167969
-88.858001708984375 326.980010986328120 -55.539501190185547
-114.309997558593750 329.944000244140620 -78.078002929687500
-155.442993164062500 341.540985107421870 -148.878997802734370
-104.777999877929690 328.916992187500000 -73.112701416015625
-136.027999877929690 335.544006347656250 -115.356002807617190
-145.654006958007810 338.186004638671870 -131.835998535156250
-133.513000488281250 332.661987304687500 -103.846000671386720
-149.341003417968750 336.980010986328120 -141.714996337890620
-131.727005004882810 325.414001464843750 -85.153503417968750
-101.605003356933590 322.019012451171870 -65.873397827148438
-86.592697143554688 317.878997802734370 -50.792598724365234
-139.350006103515620 330.074005126953120 -127.526000976562500
-87.473503112792969 319.510986328125000 -64.028099060058594
-110.578002929687500 319.528991699218750 -71.972297668457031
-136.652999877929690 319.479003906250000 -77.222198486328125
-120.738998413085940 317.414001464843750 -66.154502868652344
-119.206001281738280 319.467010498046870 -79.236999511718750
-111.074996948242190 315.493988037109370 -61.947498321533203
-153.330001831054690 329.397003173828120 -149.227996826171880
-131.746994018554690 319.437011718750000 -94.319000244140625
-95.608200073242188 312.523986816406250 -63.874900817871094
-124.422996520996090 318.089996337890620 -102.373001098632810
-128.475006103515620 319.549987792968750 -111.926002502441410
-79.170196533203125 309.001007080078120 -46.809700012207031
-127.610000610351560 314.507995605468750 -84.962600708007813
-134.496994018554690 319.481994628906250 -121.391998291015620
-85.706001281738281 308.996002197265620 -56.254901885986328
-104.811996459960940 309.904998779296870 -71.531196594238281
-139.550994873046880 319.522003173828120 -130.873001098632810
-113.640998840332030 310.506988525390620 -79.327201843261719
-145.126998901367190 319.010009765625000 -141.330993652343750
-150.162994384765620 319.486999511718750 -150.805999755859370
-125.932998657226560 309.614990234375000 -95.785202026367188
-88.059097290039063 304.572998046875000 -65.854103088378906
-77.775398254394531 299.019989013671870 -40.771400451660156
-122.132003784179690 305.522003173828120 -85.037902832031250
-125.366996765136720 309.225006103515620 -109.311996459960940
-112.311996459960940 304.881011962890620 -88.686798095703125
-98.080200195312500 301.217987060546870 -67.496299743652344
-82.628799438476563 299.005004882812500 -54.340000152587891
-130.651992797851560 308.497985839843750 -122.818000793457030
-108.185997009277340 300.976013183593750 -79.296699523925781
-142.192001342773440 312.420989990234370 -152.794998168945310
-139.158004760742190 310.489990234375000 -142.319000244140620
-134.615005493164060 308.523986816406250 -132.835006713867190
-120.232002258300780 299.933990478515620 -95.292098999023437
-78.408096313476562 291.460998535156250 -48.416500091552734
-90.144599914550781 293.002990722656250 -65.823402404785156
-133.552001953125000 306.678009033203120 -151.300003051757810
-122.722000122070310 293.424011230468750 -80.540000915527344
-119.545997619628910 299.080993652343750 -111.856002807617190
-123.477996826171870 300.675994873046870 -121.427001953125000
-77.291397094726562 285.985992431640620 -34.463901519775391
-114.339996337890620 294.385009765625000 -88.545997619628906
-101.574996948242190 291.305999755859380 -73.248497009277344
-127.144996643066410 301.003997802734370 -131.820999145507810
-85.629798889160156 288.006011962890620 -56.338401794433594
-129.794998168945310 302.330993652343750 -142.320999145507810
-91.491798400878906 290.558990478515620 -75.983100891113281
-105.454002380371090 291.278991699218750 -83.081001281738281
-125.699996948242190 302.372985839843750 -157.296997070312500
-114.970001220703120 291.131988525390620 -98.728500366210937
-122.099998474121090 295.300994873046870 -140.014007568359370
-112.525001525878910 290.110992431640620 -110.375000000000000
-78.185096740722656 278.561004638671870 -44.324298858642578
-118.946998596191410 292.739013671875000 -129.830993652343750
-87.803199768066406 281.453002929687500 -67.702301025390625
-78.107696533203125 275.415985107421870 -33.342201232910156
-118.921997070312500 295.734008789062500 -151.996002197265620
-110.482002258300780 284.669006347656250 -90.914299011230469
-81.338600158691406 277.959014892578120 -56.188201904296875
-95.734596252441406 280.989013671875000 -75.154098510742188
-100.995002746582030 281.596008300781250 -84.926101684570313
-112.549003601074220 287.579010009765620 -121.838996887207030
-111.203002929687500 293.437988281250000 -159.832000732421870
-107.703002929687500 282.104003906250000 -100.789001464843750
-113.805000305175780 288.932006835937500 -141.828002929687500
-105.331001281738280 281.880004882812500 -113.726997375488280
-110.414001464843750 283.782012939453120 -131.375000000000000
-83.686798095703125 271.992004394531250 -65.803298950195313
-108.625000000000000 286.526000976562500 -150.809005737304690
-105.456001281738280 274.247009277343750 -92.889099121093750
-102.656997680664060 286.531005859375000 -160.279006958007810
-96.966903686523438 272.128997802734370 -86.991096496582031
-91.895301818847656 270.410003662109370 -77.212699890136719
-104.824996948242190 278.388000488281250 -124.280998229980470
-106.447998046875000 281.273986816406250 -140.858993530273440
-79.589698791503906 266.507995605468750 -56.347000122070312
-100.947998046875000 273.476013183593750 -102.744003295898440
-78.157203674316406 261.527008056640620 -45.302501678466797
-99.781501770019531 279.821014404296870 -150.434005737304690
-82.525299072265625 257.458007812500000 -31.767200469970703
-99.544898986816406 272.069000244140620 -116.833999633789060
-80.678298950195313 261.011993408203120 -65.816299438476563
-99.330497741699219 273.760986328125000 -138.925994873046870
-91.595001220703125 273.114013671875000 -147.272994995117190
-90.097702026367188 261.526000976562500 -84.847900390625000
-85.746902465820313 259.477996826171880 -75.237098693847656
-102.393997192382810 268.410003662109370 -126.949996948242190
-98.645301818847656 261.503997802734370 -92.823402404785156
-78.079101562500000 255.005004882812500 -56.835899353027344
-83.084297180175781 272.575012207031250 -154.764999389648440
-78.565101623535156 250.610992431640620 -40.198799133300781
-94.947502136230469 261.098999023437500 -103.155998229980470
-77.675201416015625 247.481994628906250 -29.843000411987305
-92.542297363281250 261.579986572265620 -121.319000244140620
-89.529197692871094 256.591003417968750 -95.402603149414063
-74.228500366210937 268.378997802734370 -159.839996337890620
-78.084503173828125 250.026000976562500 -66.832000732421875
-89.068298339843750 260.592010498046870 -131.283996582031250
-88.980003356933594 256.429992675781250 -111.814002990722660
-81.795700073242187 261.317993164062500 -140.462005615234370
-86.011802673339844 251.134002685546880 -86.938003540039062
-75.620796203613281 261.531005859375000 -151.298004150390620
-76.898498535156250 244.041000366210940 -57.295200347900391
-82.280403137207031 246.958999633789060 -77.276000976562500
-78.787498474121094 236.578002929687500 -29.406400680541992
-85.957496643066406 252.680999755859380 -121.251998901367190
-67.202400207519531 259.372985839843750 -160.253005981445310
-78.187500000000000 238.550003051757810 -48.299098968505859
-80.442001342773438 253.145004272460940 -131.197998046875000
-94.659896850585938 244.531005859375000 -92.346298217773437
-88.801300048828125 247.220993041992190 -106.228996276855470
-81.040802001953125 241.550003051757810 -86.858901977539063
-68.737297058105469 252.938003540039060 -150.365997314453120
-74.684303283691406 250.529006958007810 -141.311996459960940
-78.596199035644531 245.054000854492190 -121.792999267578120
-78.095397949218750 235.524993896484370 -78.823402404785156
-73.130500793457031 244.513000488281250 -131.311004638671870
-87.683502197265625 236.953994750976560 -95.313301086425781
-77.634002685546875 231.485000610351560 -64.335403442382813
-77.725303649902344 228.022003173828120 -47.777900695800781
-60.594299316406250 246.619995117187500 -152.708999633789060
-83.227203369140625 235.970993041992190 -104.894996643066410
-56.275299072265625 243.292999267578130 -143.132003784179690
-78.235298156738281 222.259994506835940 -31.917999267578125
-77.996597290039063 236.432006835937500 -114.224998474121090
-67.374099731445313 241.358993530273440 -140.979995727539060
-79.700500488281250 230.970001220703120 -91.207397460937500
-50.487098693847656 242.772003173828120 -154.322006225585940
-43.627998352050781 239.686004638671870 -146.654006958007810
-71.618896484375000 230.016006469726560 -108.301002502441410
-74.239601135253906 224.479995727539060 -78.817901611328125
-68.171096801757813 233.968994140625000 -131.852996826171870
-73.237396240234375 231.283004760742190 -122.291999816894530
-53.096401214599609 234.208999633789060 -148.130004882812500
-76.545898437500000 217.229995727539060 -62.671398162841797
-60.794799804687500 231.798004150390620 -140.016006469726560
-76.725601196289062 213.436004638671870 -43.910999298095703
-79.675796508789063 222.992004394531250 -106.867996215820310
-82.604301452636719 220.531997680664060 -95.368698120117187
-38.208099365234375 231.889999389648440 -152.498001098632810
-71.397796630859375 214.498992919921870 -71.808097839355469
-73.648803710937500 210.557006835937500 -53.812698364257812
-66.199501037597656 222.466995239257810 -121.342002868652340
-60.937599182128906 224.197006225585940 -131.179000854492190
-71.097099304199219 214.518997192382810 -83.325302124023437
-45.235198974609375 225.895004272460940 -147.608993530273440
-53.358699798583984 224.279998779296870 -141.080001831054690
-74.142799377441406 203.457992553710940 -31.324600219726563
-70.464302062988281 216.589004516601560 -110.723999023437500
-39.669601440429688 222.429992675781250 -138.444000244140620
-74.216796875000000 212.957000732421870 -93.703498840332031
-32.621498107910156 223.960006713867190 -148.317993164062500
-71.771202087402344 202.960006713867190 -43.328701019287109
-69.131202697753906 203.513000488281250 -63.817600250244141
-60.656299591064453 210.996002197265620 -110.829002380371090
-60.854499816894531 212.664993286132810 -121.147003173828120
-67.571998596191406 203.554992675781250 -74.307296752929688
-68.514701843261719 199.166000366210940 -53.303199768066406
-54.866100311279297 213.401992797851560 -130.889007568359370
-48.521099090576172 214.675994873046880 -139.154998779296870
-68.568298339843750 193.613998413085940 -32.056800842285156
-31.684900283813477 213.567001342773440 -135.572006225585940
-66.022499084472656 203.093002319335940 -84.815498352050781
-28.184200286865234 214.414001464843750 -145.981002807617190
-64.712699890136719 193.910003662109370 -42.333999633789063
-72.761703491210938 203.007995605468750 -97.141601562500000
-39.211498260498047 211.350006103515620 -142.598999023437500
-71.549896240234375 203.514007568359370 -108.125999450683590
-63.334098815917969 195.417007446289060 -67.825401306152344
-61.279098510742188 201.419998168945310 -104.473999023437500
-61.957298278808594 191.179992675781250 -56.783500671386719
-55.744899749755859 202.477005004882810 -121.828002929687500
-60.705699920654297 196.983001708984370 -93.294601440429688
-60.133998870849609 186.026992797851560 -33.304298400878906
-61.985401153564453 193.072006225585940 -78.830200195312500
-44.226898193359375 203.382003784179690 -135.447998046875000
-57.105201721191406 186.052001953125000 -44.820999145507813
-14.043199539184570 202.673004150390620 -134.559997558593750
-21.666400909423828 203.472000122070310 -141.876007080078120
-35.687801361083984 200.432006835937500 -128.925994873046870
-68.842102050781250 193.376998901367190 -99.159103393554688
-24.180000305175781 200.358001708984370 -131.041000366210940
-32.619400024414063 201.555999755859370 -139.188003540039060
-58.869400024414063 195.404998779296870 -112.953002929687500
-57.652999877929688 185.998001098632810 -64.819602966308594
-49.153499603271484 197.498992919921870 -128.328994750976560
-54.936100006103516 182.738998413085940 -54.769599914550781
-52.607200622558594 178.069000244140620 -33.245300292968750
-56.905601501464844 190.136993408203120 -104.004997253417970
-63.811698913574219 186.858993530273440 -89.786003112792969
-49.242401123046875 178.908996582031250 -46.803901672363281
-49.344501495361328 190.861999511718750 -113.975997924804690
-57.013000488281250 184.093994140625000 -80.811996459960937
-18.679399490356445 193.429992675781250 -137.520996093750000
-43.660099029541016 173.985992431640620 -38.323898315429688
-16.656999588012695 190.960998535156250 -127.410003662109370
-39.748100280761719 190.438003540039060 -130.986999511718750
-65.139701843261719 185.498001098632810 -109.294998168945310
-30.127500534057617 191.046005249023440 -135.246002197265620
-52.373699188232422 178.337997436523440 -73.271202087402344
-36.108600616455078 187.029998779296870 -121.708999633789060
-47.609199523925781 187.020004272460940 -123.785003662109370
-49.343799591064453 175.830993652343750 -63.272201538085937
-26.190999984741211 186.923995971679690 -125.075996398925780
-56.319000244140625 179.942993164062500 -92.634597778320312
-5.218920230865479 186.901992797851560 -126.543998718261720
-64.032897949218750 179.970001220703120 -99.896598815917969
-10.663499832153320 186.917007446289060 -135.501007080078120
-55.015598297119141 181.095001220703120 -113.095001220703120
-43.594200134277344 170.546997070312500 -54.849300384521484
-37.768501281738281 168.352005004882810 -45.295398712158203
-44.215000152587891 180.457992553710940 -113.889999389648440
-51.873001098632813 174.436004638671870 -84.323997497558594
-12.661199569702148 180.117996215820310 -123.070999145507810
-46.422199249267578 168.833999633789060 -71.276298522949219
-30.181999206542969 162.957992553710940 -39.808700561523438
-41.628398895263672 177.513000488281250 -124.294998168945310
-22.150899887084961 179.466995239257810 -131.981002807617190
-49.779499053955078 173.966003417968750 -106.444999694824220
-32.116600036621094 178.035995483398440 -128.684005737304690
-23.678300857543945 176.440002441406250 -120.966003417968750
-58.887401580810547 170.882003784179690 -98.567596435546875
0.823513984680176 176.654998779296870 -121.065002441406250
-35.836799621582031 162.725006103515620 -54.111900329589844
-60.510601043701172 171.182006835937500 -110.045997619628910
-40.119499206542969 163.050003051757810 -63.863399505615234
-5.170979976654053 175.945007324218750 -130.272994995117190
-47.429000854492188 165.119995117187500 -81.871101379394531
-37.786701202392578 171.419006347656250 -115.054000854492190
-50.270401000976562 166.947006225585940 -92.744598388671875
-9.149140357971191 171.001007080078120 -119.319999694824220
-14.661399841308594 171.554000854492190 -129.647994995117190
-47.217998504638672 166.488998413085940 -114.939002990722660
-41.641998291015625 159.003997802734370 -75.322799682617188
-28.188499450683594 168.451004028320310 -126.505996704101560
-22.136100769042969 166.526992797851560 -117.724998474121090
-45.804298400878906 162.442993164062500 -104.524002075195310
-55.843101501464844 160.876998901367190 -100.746002197265620
2.892869949340820 165.001007080078120 -116.950996398925780
2.848589897155762 166.524002075195310 -127.713996887207030
-33.632999420166016 151.992996215820310 -56.328098297119141
-36.744400024414063 162.455993652343750 -120.924003601074220
-43.560298919677734 156.050003051757810 -87.853599548339844
-35.676399230957031 152.485992431640620 -69.311203002929688
-7.149050235748291 163.485992431640620 -126.894996643066410
-54.173999786376953 157.994995117187500 -111.875000000000000
-18.661100387573242 160.960006713867190 -125.976997375488280
-28.529499053955078 145.921005249023440 -48.308898925781250
4.340290069580078 157.561004638671870 -108.334999084472660
-49.308200836181641 153.436004638671870 -96.563301086425781
-27.593200683593750 156.182998657226560 -112.899002075195310
10.304699897766113 159.233001708984370 -129.531997680664060
-16.666200637817383 155.460998535156250 -115.083000183105470
-28.161399841308594 156.485000610351560 -123.369003295898440
-39.704101562500000 151.473999023437500 -106.942001342773440
-35.192100524902344 145.477005004882810 -77.300399780273437
-29.667999267578125 138.479995727539060 -40.809799194335938
-31.716400146484375 140.509994506835940 -56.800098419189453
-10.670900344848633 152.951004028320310 -124.524002075195310
-38.842899322509766 144.889007568359370 -88.700500488281250
-32.916198730468750 140.972000122070310 -67.845703125000000
-46.646198272705078 148.988006591796870 -114.430999755859370
-36.226001739501953 149.436996459960940 -118.015998840332030
-14.587400436401367 145.018997192382810 -91.335296630859375
0.794061005115509 151.641006469726560 -126.633003234863280
-50.661201477050781 143.977996826171870 -102.819000244140620
-31.682300567626953 143.983993530273440 -108.983001708984370
-20.656099319458008 143.936004638671870 -112.041000366210940
-27.189199447631836 144.964004516601560 -120.941001892089840
-43.600200653076172 139.014007568359370 -96.909500122070313
-15.178799629211426 143.572998046875000 -122.168998718261720
-34.603000640869141 136.011001586914060 -84.320297241210937
7.886260032653809 145.985992431640620 -134.313003540039060
-31.943500518798828 127.917999267578120 -42.051601409912109
-33.307201385498047 130.998001098632810 -64.297203063964844
-5.238269805908203 142.005996704101560 -125.083999633789060
-13.703599929809570 136.966995239257810 -99.307403564453125
-39.706001281738281 137.315002441406250 -106.582000732421870
-34.240699768066406 131.541000366210940 -74.816902160644531
-47.679698944091797 137.962997436523440 -113.438003540039060
-32.395000457763672 126.458000183105470 -54.785900115966797
-35.758701324462891 135.955001831054690 -116.573997497558590
-26.179399490356445 134.466003417968750 -109.480003356933590
-36.357799530029297 129.904998779296870 -94.648399353027344
-21.201400756835937 134.013000488281250 -120.957000732421870
-47.160800933837891 128.098007202148440 -99.823799133300781
-30.305799484252930 118.924003601074220 -47.827301025390625
-10.689900398254395 133.031005859375000 -124.913002014160160
-16.650999069213867 130.001007080078120 -112.345001220703120
-35.673599243164063 127.513999938964840 -107.044998168945310
-32.735298156738281 122.488998413085940 -79.818397521972656
-31.523300170898438 120.549003601074220 -69.334197998046875
-43.675598144531250 128.027999877929690 -114.416999816894530
-33.615100860595703 124.511001586914060 -117.152000427246090
-23.807199478149414 110.809997558593750 -44.814201354980469
-24.198099136352539 122.486000061035160 -110.045997619628910
-25.959100723266602 113.214996337890620 -62.786701202392578
-35.786899566650391 118.763000488281250 -95.859001159667969
-43.044998168945312 118.428001403808590 -104.388999938964840
-22.189699172973633 122.004997253417970 -120.931999206542970
-28.266099929809570 113.363998413085940 -76.771202087402344
-29.583999633789063 114.505996704101560 -87.305297851562500
-12.788700103759766 121.563003540039060 -126.578002929687500
-20.604000091552734 108.057998657226560 -54.832401275634766
-33.137699127197266 116.003997802734370 -108.140998840332030
-19.020200729370117 105.625999450683590 -65.850303649902344
-18.655500411987305 114.027000427246090 -112.844001770019530
-12.579600334167480 102.102996826171870 -50.351299285888672
-32.543498992919922 109.055000305175780 -98.523498535156250
-38.011901855468750 111.996002197265620 -116.537002563476560
-22.118499755859375 104.018997192382810 -75.838798522949219
-11.138899803161621 111.419998168945310 -119.706001281738280
-26.354600906372070 104.427001953125000 -85.819900512695313
-39.724300384521484 106.208000183105470 -105.848999023437500
-21.665199279785156 109.500000000000000 -121.846000671386720
-11.028699874877930 97.109703063964844 -62.840198516845703
-14.366900444030762 109.092002868652340 -129.524993896484370
-28.113000869750977 104.108001708984370 -109.961997985839840
-14.900400161743164 95.825103759765625 -73.579902648925781
-25.278099060058594 97.957000732421875 -96.230796813964844
-36.661998748779297 101.009002685546870 -117.422996520996090
-34.179500579833984 97.990097045898438 -102.271003723144530
-8.069729804992676 94.497001647949219 -84.913696289062500
-26.063600540161133 99.891296386718750 -120.945999145507810
-17.681900024414063 96.009803771972656 -115.369003295898440
-3.039089918136597 87.099700927734375 -65.855003356933594
-9.065290451049805 87.096496582031250 -75.417503356933594
-25.613300323486328 92.521102905273437 -108.866996765136720
-16.818599700927734 87.379798889160156 -82.690101623535156
2.851739883422852 87.024902343750000 -83.391899108886719
-20.445699691772461 87.350898742675781 -93.744796752929688
13.346599578857422 86.506896972656250 -87.335700988769531
-34.736301422119141 86.959297180175781 -106.702003479003910
3.985739946365356 78.649299621582031 -67.884597778320313
-26.194700241088867 83.467903137207031 -101.676002502441410
23.377599716186523 82.526298522949219 -88.908699035644531
-2.035880088806152 78.649902343750000 -77.414100646972656
-28.686800003051758 84.994796752929687 -120.912002563476560
-11.471899986267090 78.647903442382812 -85.037300109863281
5.879489898681641 76.968498229980469 -87.240402221679688
-16.922800064086914 76.898101806640625 -94.701400756835938
15.834300041198730 75.072601318359375 -91.580299377441406
-32.227401733398438 75.950897216796875 -108.247001647949220
5.999969959259033 71.168701171875000 -77.432098388671875
-3.187849998474121 70.459602355957031 -84.238601684570313
-22.527500152587891 72.639602661132813 -102.450996398925780
-29.238700866699219 73.051200866699219 -120.950996398925780
-11.077400207519531 67.065299987792969 -90.894996643066406
8.267450332641602 67.601303100585937 -92.125900268554687
25.852800369262695 67.499900817871094 -91.900901794433594
11.978199958801270 62.625900268554687 -81.459503173828125
-15.697699546813965 64.980697631835938 -100.269996643066410
-29.826999664306641 65.354499816894531 -109.166000366210940
-20.165599822998047 67.510498046875000 -123.986000061035160
2.385699987411499 61.046100616455078 -86.411499023437500
17.797300338745117 60.417400360107422 -94.239303588867188
-28.745199203491211 62.017200469970703 -120.960998535156250
-7.161920070648193 57.488601684570313 -92.803001403808594
7.339980125427246 57.628898620605469 -96.055000305175781
-22.184299468994141 57.962200164794922 -105.166999816894530
-12.936900138854980 54.593601226806641 -101.560997009277340
-14.689800262451172 58.035301208496094 -125.934997558593750
25.373500823974609 52.990699768066406 -95.747497558593750
-28.203699111938477 51.933898925781250 -111.273002624511720
15.333100318908691 49.996398925781250 -96.618797302246094
6.310860157012940 48.588298797607422 -90.518600463867188
35.224601745605469 50.181999206542969 -100.712997436523440
-23.251399993896484 52.080398559570313 -124.620002746582030
-3.296900033950806 46.891799926757813 -95.096298217773438
-18.682899475097656 45.984199523925781 -106.171997070312500
-9.189020156860352 41.984699249267578 -102.263999938964840
11.968000411987305 38.633098602294922 -93.551101684570313
30.829799652099609 39.560798645019531 -103.902000427246090
-25.525100708007812 39.157398223876953 -111.930999755859370
-1.194679975509644 36.472400665283203 -97.219398498535156
-22.216499328613281 38.973999023437500 -125.507003784179690
-16.634399414062500 35.498401641845703 -107.375000000000000
21.722499847412109 35.133098602294922 -99.577697753906250
-12.668100357055664 35.032199859619141 -127.976997375488280
12.308099746704102 28.109199523925781 -94.270698547363281
-5.217070102691650 28.434099197387695 -102.696998596191410
-23.989599227905273 28.125400543212891 -113.055999755859370
-14.701000213623047 24.977600097656250 -108.165000915527340
4.315730094909668 22.978500366210937 -99.245399475097656
-5.824540138244629 16.949899673461914 -106.055000305175780
-22.666999816894531 17.486900329589844 -114.293998718261720
2.339900016784668 11.493700027465820 -102.286003112792970
-14.723400115966797 11.962900161743164 -110.112998962402340
-5.138050079345703 6.002590179443359 -107.336997985839840
-21.202199935913086 4.988289833068848 -116.269996643066410
-14.621700286865234 0.010703999549150 -109.303001403808590
