ply
format ascii 1.0
element vertex 816
property double x
property double y
property double z
end_header
245.781005859375000 544.172973632812500 103.718002319335940
261.337005615234380 544.747985839843750 106.088996887207030
245.781005859375000 544.172973632812500 103.718002319335940
251.850006103515620 542.562011718750000 112.206001281738280
245.811004638671870 532.473022460937500 162.348999023437500
241.583999633789060 543.947021484375000 93.599403381347656
251.832000732421870 538.758972167968750 123.621002197265620
239.953994750976560 540.234985351562500 112.120002746582030
245.811004638671870 536.203979492187500 134.634994506835940
268.802001953125000 540.710998535156250 113.045997619628910
240.300003051757810 537.721984863281250 124.210998535156250
238.343002319335940 534.151977539062500 142.231994628906250
263.364013671875000 538.585998535156250 121.719001770019530
230.354995727539060 531.971984863281250 149.171005249023440
232.320999145507810 534.630004882812500 132.699996948242190
218.899993896484370 530.421020507812500 151.634002685546870
259.304992675781250 535.237976074218750 131.544006347656250
245.341995239257810 530.927978515625000 150.151992797851560
253.365005493164060 532.573974609375000 141.710998535156250
234.373992919921870 538.953979492187500 102.671997070312500
224.386993408203120 531.859008789062500 139.701004028320310
230.367004394531250 534.973999023437500 121.171997070312500
274.893005371093750 536.137023925781250 120.250999450683590
236.343994140625000 528.202026367187500 156.876998901367190
228.345001220703120 534.916992187500000 110.454002380371090
270.756011962890620 532.257019042968750 131.039001464843750
222.272003173828120 531.263000488281250 127.216003417968750
264.855987548828120 529.010009765625000 141.184005737304690
258.394012451171870 527.080017089843750 150.216995239257810
228.852005004882810 536.502014160156250 92.679199218750000
215.759994506835940 527.135986328125000 134.675003051757810
253.345001220703120 522.992980957031250 159.660995483398440
222.705001831054690 532.257995605468750 100.188003540039060
281.865997314453120 529.026000976562500 127.199996948242190
212.841995239257810 523.507995605468750 145.180999755859370
219.033996582031250 529.267028808593750 112.632003784179690
274.428985595703120 525.101989746093750 138.244995117187500
213.246994018554690 525.145019531250000 121.212997436523440
268.744995117187500 521.354003906250000 148.557006835937500
263.325988769531250 519.460998535156250 157.647003173828120
223.828002929687500 530.557006835937500 82.163299560546875
214.251998901367190 526.151000976562500 103.675003051757810
208.244995117187500 519.622985839843750 135.182006835937500
216.992996215820310 527.796997070312500 90.216697692871094
209.289993286132810 521.564025878906250 112.211997985839840
287.221008300781250 519.348999023437500 133.024002075195310
295.520996093750000 520.223022460937500 125.934997558593750
205.763000488281250 517.601989746093750 121.694000244140620
281.549987792968750 516.193969726562500 141.367996215820310
209.358993530273440 513.504028320312500 144.167007446289060
212.020004272460940 525.325012207031250 79.589103698730469
270.736999511718750 512.314025878906250 159.434005737304690
276.376007080078120 514.031982421875000 150.197998046875000
198.912002563476560 527.953979492187500 59.024200439453125
208.328994750976560 521.593994140625000 94.559402465820313
203.255996704101560 517.601013183593750 103.711997985839840
202.710006713867190 510.085998535156250 135.259002685546880
204.216995239257810 517.643981933593750 84.194000244140625
279.795013427734370 505.940002441406250 159.041000366210940
198.953994750976560 511.937988281250000 112.624000549316410
199.712005615234370 509.597991943359370 124.713996887207030
284.661010742187500 507.812988281250000 148.065994262695310
289.990997314453120 509.609985351562500 138.839996337890620
199.774993896484370 513.578002929687500 93.664901733398438
298.421997070312500 509.555999755859370 131.261001586914060
201.477005004882810 515.853027343750000 74.152801513671875
195.481002807617190 509.893005371093750 102.633003234863280
197.225997924804690 501.036987304687500 138.279006958007810
195.904006958007810 509.450988769531250 82.668899536132812
195.992996215820310 512.809997558593750 64.178001403808594
194.470001220703120 500.436004638671870 127.649002075195310
192.240005493164060 506.069000244140620 92.722900390625000
192.475997924804690 502.403991699218750 112.644996643066410
188.216995239257810 501.617004394531250 102.209999084472660
305.201995849609370 499.884002685546870 130.417999267578120
290.294006347656250 493.975006103515620 155.625000000000000
190.712005615234380 506.165985107421880 72.230796813964844
295.192993164062500 493.910003662109370 146.100006103515620
188.216003417968750 502.239013671875000 83.102302551269531
187.718002319335940 506.166992187500000 61.229000091552734
191.313995361328120 492.516998291015620 135.231002807617190
183.378005981445310 498.480987548828120 93.175102233886719
185.102005004882810 495.157012939453120 110.302001953125000
187.723007202148440 493.111999511718750 121.762001037597660
301.321014404296880 492.984985351562500 137.643997192382810
181.865005493164060 502.486999511718750 53.178199768066406
183.352996826171870 504.451995849609370 42.605201721191406
183.843002319335940 498.510986328125000 74.181900024414063
179.723999023437500 492.118988037109370 100.728996276855470
183.957992553710940 486.924011230468750 129.589996337890630
180.608001708984370 497.817993164062500 62.557800292968750
309.837005615234380 488.489990234375000 133.152999877929690
297.303985595703120 484.460998535156250 151.630004882812500
178.388000488281250 492.967987060546870 85.675201416015625
178.227996826171870 487.134002685546880 112.232002258300780
174.753997802734370 496.611999511718750 47.683399200439453
303.285003662109370 482.954986572265620 142.128005981445310
176.768005371093750 491.578002929687500 70.204399108886719
173.703994750976560 487.152008056640620 93.193000793457031
176.889007568359370 481.479003906250000 123.657997131347660
170.714996337890630 483.166992187500000 104.725997924804690
172.177001953125000 487.160003662109370 78.679801940917969
172.339996337890630 489.018005371093750 60.680801391601563
168.910003662109370 492.951995849609370 37.660800933837891
301.847991943359370 474.997985839843750 149.166000366210940
166.091003417968750 492.713989257812500 27.255399703979492
310.157012939453120 476.921997070312500 136.942001342773440
167.141006469726560 480.730987548828120 87.655197143554688
168.483993530273440 486.907989501953120 51.151699066162109
162.789993286132810 477.579986572265620 100.700996398925780
166.335006713867190 475.515991210937500 112.192001342773440
170.973007202148440 472.937011718750000 121.919998168945310
167.994003295898440 481.380004882812500 70.169998168945313
164.227996826171870 483.533996582031250 41.780498504638672
157.703002929687500 473.718994140625000 87.168899536132812
161.330001831054690 475.527008056640620 77.172096252441406
154.772003173828120 471.585998535156250 97.207702636718750
157.617004394531250 469.742004394531250 107.516998291015620
161.160003662109370 483.592987060546870 30.758300781250000
306.588012695312500 466.096984863281250 144.421997070312500
314.688995361328120 467.407989501953120 135.970001220703120
163.317001342773440 466.000000000000000 117.731002807617190
163.802993774414060 477.540008544921870 54.185901641845703
157.121994018554690 481.781005859375000 20.609699249267578
162.667999267578120 473.649993896484370 64.154098510742187
147.998001098632810 466.835998535156250 90.187797546386719
148.865997314453120 463.985992431640620 102.669998168945310
151.822006225585940 467.553985595703120 80.157203674316406
153.001998901367190 460.449005126953120 112.453002929687500
318.804992675781250 463.970001220703120 119.087997436523440
160.111999511718750 472.535003662109370 45.339199066162109
155.742996215820310 467.667999267578120 70.080299377441406
321.871002197265620 460.011993408203120 133.235000610351560
157.451995849609370 473.973999023437500 28.155899047851563
311.820007324218750 457.734008789062500 138.964996337890620
141.050003051757810 460.223999023437500 95.176597595214844
153.313995361328120 468.044006347656250 54.155200958251953
142.733993530273440 462.158996582031250 81.119598388671875
155.643997192382810 476.062011718750000 6.240670204162598
154.707000732421870 472.050994873046870 17.203699111938477
144.440994262695310 455.026000976562500 108.435997009277340
134.701004028320310 457.210998535156250 85.664901733398438
156.546005249023440 465.915985107421870 37.619800567626953
149.897003173828120 460.255004882812500 64.792602539062500
154.453002929687500 472.510009765625000 -4.361360073089600
136.501998901367190 452.343994140625000 101.538002014160160
145.524002075195310 460.372985839843750 54.290599822998047
321.226989746093750 453.298004150390620 119.380996704101560
318.367004394531250 450.006988525390620 136.225997924804690
141.707000732421870 456.287994384765620 70.006599426269531
128.852005004882810 451.502014160156250 93.679298400878906
154.406997680664060 463.986999511718750 26.667299270629883
149.947006225585940 459.872009277343750 44.801101684570313
132.690994262695310 453.243988037109370 75.521400451660156
328.334014892578120 447.993988037109370 133.569000244140620
124.335998535156250 450.526000976562500 83.175102233886719
152.869003295898440 462.994995117187500 12.177900314331055
120.393997192382810 444.958007812500000 93.128303527832031
143.177001953125000 450.726013183593750 58.424499511718750
141.546005249023440 452.799011230468750 45.738300323486328
134.244003295898440 448.657012939453120 66.044502258300781
116.230003356933590 445.207000732421870 79.152999877929688
125.301002502441410 446.670013427734370 71.099700927734375
151.283996582031250 455.739990234375000 20.160499572753906
329.408996582031250 443.040985107421870 118.537002563476560
111.581001281738280 441.705993652343750 87.949996948242188
151.259994506835940 452.541992187500000 30.212499618530273
132.526992797851560 446.734985351562500 47.907001495361328
149.382003784179690 454.078002929687500 5.150000095367432
331.346984863281250 435.483001708984370 135.020996093750000
102.246002197265620 437.753997802734370 83.175598144531250
108.228996276855470 439.179992675781250 74.057701110839844
117.390998840332030 440.408996582031250 68.253501892089844
126.849998474121090 441.006988525390620 62.175098419189453
142.354995727539060 442.968994140625000 50.724800109863281
148.738998413085940 454.566986083984370 -12.293199539184570
146.679000854492190 444.645996093750000 37.716701507568359
144.001998901367190 445.787994384765620 25.655500411987305
148.063003540039060 444.889007568359370 15.659299850463867
145.347000122070310 448.299011230468750 -4.305280208587647
94.341697692871094 432.088012695312500 76.121696472167969
137.871002197265620 440.981994628906250 32.692199707031250
339.381011962890620 427.109008789062500 137.977005004882810
112.406997680664060 433.351013183593750 62.302700042724609
103.323997497558590 431.626007080078120 68.051101684570313
128.852996826171870 434.001007080078120 54.179199218750000
136.848999023437500 434.950988769531250 45.745899200439453
128.279006958007810 434.597991943359370 38.141300201416016
145.205993652343750 441.016998291015620 5.705170154571533
119.337997436523440 429.536010742187500 54.146099090576172
88.442497253417969 425.341003417968750 70.709396362304688
96.297096252441406 425.242004394531250 63.034400939941406
141.311996459960940 439.036987304687500 -8.314080238342285
142.320999145507810 432.532989501953120 24.177900314331055
109.832000732421870 425.089996337890620 54.090000152587891
137.270004272460940 429.582000732421870 33.129398345947266
142.231002807617190 433.132995605468750 13.653800010681152
119.304000854492190 427.131988525390620 35.001399993896484
82.419296264648438 419.846984863281250 64.011398315429687
140.354003906250000 433.000000000000000 0.678031980991364
129.388000488281250 427.890014648437500 24.754199981689453
124.408996582031250 423.944000244140620 44.714199066162109
138.455993652343750 435.812988281250000 -20.946899414062500
98.360702514648438 419.977996826171870 54.192600250244141
130.998992919921870 421.755004882812500 36.815700531005859
114.898002624511720 418.925994873046870 46.288600921630859
135.901992797851560 429.471984863281250 -9.328749656677246
138.429992675781250 424.421997070312500 18.650199890136719
110.389999389648440 419.875000000000000 31.352300643920898
80.262298583984375 414.209991455078120 54.545200347900391
94.352096557617188 417.437011718750000 35.733100891113281
90.318000793457031 414.128997802734370 50.592098236083984
136.175994873046870 423.699005126953120 4.664559841156006
129.660003662109370 421.278015136718750 13.523300170898438
105.261001586914060 414.145996093750000 45.049098968505859
132.401000976562500 425.462005615234370 -20.840499877929688
118.625999450683590 414.221984863281250 37.412998199462891
70.821296691894531 409.579010009765620 53.142700195312500
121.851997375488280 416.492004394531250 18.715400695800781
125.541000366210940 413.859008789062500 29.238199234008789
131.567993164062500 419.845001220703120 -5.847740173339844
101.869003295898440 412.488006591796870 28.719200134277344
96.283897399902344 408.647003173828120 43.567199707031250
112.823997497558590 412.597991943359370 24.095600128173828
85.361396789550781 409.838012695312500 30.350900650024414
84.837501525878906 407.082000732421870 44.101898193359375
109.846000671386720 408.018005371093750 37.660900115966797
64.854301452636719 403.490997314453120 45.685199737548828
126.869003295898440 412.238006591796870 6.699369907379150
75.301902770996094 402.721008300781250 41.959701538085938
94.351898193359375 405.558990478515620 26.520900726318359
133.496002197265620 416.037994384765620 -25.794599533081055
117.338996887207030 407.544006347656250 14.630000114440918
119.341003417968750 404.933013916015620 28.282400131225586
75.876800537109375 403.414001464843750 26.232900619506836
130.132003784179690 412.562011718750000 -15.386199951171875
127.045997619628910 409.876007080078120 -4.254129886627197
106.804000854492190 404.600006103515620 20.062799453735352
131.697998046875000 416.075988769531250 -39.898399353027344
99.950599670410156 400.736999511718750 35.507301330566406
58.325599670410156 397.277008056640620 37.530700683593750
88.831901550292969 398.203002929687500 36.430301666259766
109.688003540039060 399.714996337890620 28.967699050903320
65.456901550292969 398.313995361328120 21.980800628662109
120.180999755859370 403.187988281250000 4.108449935913086
98.320602416992188 398.553009033203120 18.133600234985352
78.348999023437500 395.039001464843750 33.619098663330078
67.837196350097656 393.924011230468750 33.271598815917969
79.895797729492187 396.135009765625000 19.538900375366211
111.380996704101560 398.447998046875000 10.741200447082520
52.837699890136719 391.695007324218750 30.063699722290039
117.403999328613280 394.927001953125000 22.224399566650391
123.748001098632810 400.542999267578120 -7.844130039215088
131.152999877929690 404.000000000000000 -28.376699447631836
55.318298339843750 393.481994628906250 16.743799209594727
127.179000854492190 401.989013671875000 -18.856599807739258
94.348999023437500 392.015014648437500 29.664400100708008
89.304100036621094 393.130004882812500 16.079200744628906
104.339996337890620 391.032012939453120 24.148399353027344
71.355201721191406 391.069000244140620 15.109000205993652
126.987998962402340 399.985992431640620 -38.197799682617188
130.261993408203120 402.093994140625000 -49.437099456787109
73.334800720214844 386.407989501953120 26.296400070190430
61.833301544189453 385.884002685546870 25.336399078369141
102.263000488281250 390.140014648437500 8.486510276794434
84.811599731445312 385.617004394531250 26.560400009155273
47.819099426269531 385.276000976562500 22.409500122070313
61.871101379394531 387.118988037109370 11.573900222778320
81.298103332519531 386.101989746093750 12.532699584960938
119.402999877929690 390.480987548828120 -6.309669971466065
111.399002075195310 385.351013183593750 18.382200241088867
123.116996765136720 391.834991455078120 -16.125900268554687
127.269996643066410 393.515991210937500 -25.858900070190430
96.794998168945313 383.622009277343750 22.047000885009766
92.818603515625000 384.605987548828120 9.017629623413086
49.886001586914063 383.588012695312500 6.527460098266602
115.367996215820310 385.490997314453120 6.687079906463623
70.844596862792969 381.993988037109370 7.197080135345459
110.692001342773440 384.149993896484370 -4.367539882659912
56.910900115966797 377.695007324218750 18.407699584960938
124.717002868652340 390.579986572265620 -42.392700195312500
119.039001464843750 388.369995117187500 -31.237699508666992
88.361602783203125 377.812011718750000 19.962999343872070
46.781501770019531 377.348999023437500 14.389499664306641
73.320297241210937 376.903015136718750 19.305400848388672
128.822998046875000 391.175994873046870 -53.353199005126953
100.327003479003910 380.071990966796870 2.095170021057129
117.438003540039060 382.953002929687500 -13.785099983215332
104.333999633789060 377.143005371093750 13.945699691772461
60.256801605224609 376.977996826171870 4.867690086364746
79.346702575683594 375.911010742187500 4.267020225524902
109.575996398925780 375.812011718750000 4.798270225524902
90.290100097656250 375.165008544921880 2.983370065689087
39.301101684570313 372.438995361328120 7.797190189361572
64.871696472167969 371.625000000000000 14.478400230407715
50.305500030517578 373.957000732421870 -0.681924998760223
94.349998474121094 371.505004882812500 13.676799774169922
120.567001342773440 378.884002685546870 -23.107999801635742
69.444396972656250 372.632995605468750 1.935299992561340
81.320899963378906 370.496002197265620 15.437899589538574
54.298801422119141 368.833007812500000 11.360600471496582
112.310997009277340 374.028015136718750 -11.344599723815918
103.322998046875000 372.074005126953120 -3.957230091094971
110.344001770019530 375.506011962890620 -23.824600219726562
115.013000488281250 377.394989013671870 -33.759601593017578
31.358800888061523 365.490997314453120 6.749320030212402
102.338996887207030 366.191009521484370 8.878680229187012
73.316802978515625 364.846008300781250 11.378399848937988
125.009002685546870 374.393005371093750 -35.692600250244141
92.775497436523438 367.653015136718750 -4.039040088653565
44.811401367187500 363.936004638671870 4.825310230255127
53.577499389648438 365.161010742187500 -6.090720176696777
86.843101501464844 362.555999755859370 10.506999969482422
127.705001831054690 376.574005126953120 -60.458698272705078
103.952003479003910 366.932006835937500 -13.752699851989746
72.321899414062500 363.414001464843750 -4.138490200042725
63.814300537109375 360.869995117187500 7.381599903106690
128.697998046875000 372.053985595703120 -46.929199218750000
117.333999633789060 368.014007568359370 -27.341299057006836
118.832000732421870 370.519989013671870 -43.835899353027344
82.887603759765625 361.933990478515620 -4.210820198059082
106.722999572753910 366.450988769531250 -27.915199279785156
103.385002136230470 360.473999023437500 -2.797029972076416
53.917400360107422 357.651000976562500 3.418380022048950
94.844299316406250 358.550994873046870 4.576550006866455
61.906299591064453 359.048004150390620 -7.941040039062500
37.852298736572266 356.002014160156250 0.676114022731781
79.321502685546875 354.890991210937500 5.843959808349609
111.583000183105470 363.906005859375000 -39.161598205566406
98.220901489257813 358.152008056640620 -11.967599868774414
121.189002990722660 366.118011474609370 -53.418098449707031
50.936100006103516 359.903015136718750 -31.143600463867188
49.339000701904297 355.993011474609370 -10.933799743652344
68.901603698730469 351.631988525390620 2.898659944534302
75.847900390625000 353.610992431640630 -8.464810371398926
86.760101318359375 354.164001464843750 -10.421799659729004
125.075996398925780 364.924987792968750 -63.195800781250000
105.865997314453120 355.989990234375000 -19.312099456787109
88.262901306152344 351.053009033203120 1.004369974136353
31.813999176025391 348.018005371093750 8.152790069580078
112.987998962402340 356.932006835937500 -29.725000381469727
46.832401275634766 349.558990478515620 -0.911210000514984
102.928001403808590 354.945007324218750 -31.769399642944336
58.265399932861328 349.885986328125000 -12.577199935913086
59.855400085449219 347.505004882812500 -0.330240011215210
115.419998168945310 357.970001220703130 -48.769599914550781
119.024002075195310 355.351989746093750 -39.248001098632812
44.359199523925781 350.993011474609370 -32.855998992919922
79.342002868652344 345.631011962890620 0.445066988468170
68.347900390625000 347.042999267578120 -12.448599815368652
108.516998291015620 353.433990478515620 -41.216201782226563
125.238998413085940 355.036010742187500 -50.931900024414063
93.310203552246094 347.095001220703120 -16.370000839233398
95.245796203613281 344.523986816406250 -6.344870090484619
82.856101989746094 345.531005859375000 -14.868100166320801
34.257198333740234 341.410003662109370 -9.898110389709473
102.217002868652340 345.578002929687500 -22.021200180053711
30.066999435424805 337.346984863281250 8.939990043640137
110.105003356933590 347.046997070312500 -31.942199707031250
61.325698852539063 347.023986816406250 -41.380298614501953
43.751098632812500 339.627990722656250 -4.038219928741455
120.584999084472660 351.916992187500000 -62.659301757812500
54.352401733398437 339.001007080078120 -4.820069789886475
51.352001190185547 341.002990722656250 -16.826999664306641
100.086997985839840 345.430999755859370 -35.194900512695313
112.760002136230470 348.032012939453120 -51.898200988769531
51.430198669433594 343.433013916015620 -38.124000549316406
39.360298156738281 341.989013671875000 -35.296501159667969
65.861701965332031 337.023986816406250 -4.375619888305664
73.798500061035156 338.889007568359370 -16.163400650024414
93.639099121093750 341.311004638671870 -26.660400390625000
61.811401367187500 338.485992431640620 -17.668600082397461
86.839302062988281 336.928009033203120 -6.148029804229736
76.328598022460938 335.549011230468750 -4.895440101623535
105.902999877929690 343.476013183593750 -43.786899566650391
123.086997985839840 344.924987792968750 -52.640598297119141
126.926002502441410 347.372009277343750 -70.029701232910156
86.798103332519531 335.322998046875000 -21.028799057006836
115.990997314453120 340.460998535156250 -45.210899353027344
103.975997924804690 336.930999755859370 -29.673200607299805
38.489799499511719 329.928985595703120 -4.136690139770508
30.643199920654297 325.890014648437500 8.215929985046387
96.281600952148438 335.566986083984370 -36.875301361083984
59.852001190185547 329.000000000000000 -8.309249877929688
48.378398895263672 328.459014892578120 -8.229749679565430
46.328098297119141 334.066009521484370 -39.513099670410156
117.253997802734370 340.537994384765620 -63.907100677490234
57.305599212646484 334.049987792968750 -44.449298858642578
55.845798492431641 329.678985595703120 -21.042600631713867
67.364303588867188 329.588989257812500 -19.996500015258789
109.696998596191410 334.071990966796870 -38.937801361083984
81.344398498535156 327.640014648437500 -10.610899925231934
109.154998779296870 336.101989746093750 -53.494499206542969
127.291000366210940 337.088012695312500 -59.046100616455078
77.295097351074219 328.641998291015620 -23.573799133300781
45.804401397705078 326.561004638671870 -20.487600326538086
69.802696228027344 325.141998291015620 -9.089400291442871
123.669998168945310 337.582000732421870 -72.036300659179687
94.510002136230469 327.433013916015620 -23.662500381469727
89.379096984863281 328.485992431640620 -32.795299530029297
100.693000793457030 330.670013427734370 -45.008899688720703
119.251998901367190 332.552001953125000 -53.928199768066406
38.856498718261719 326.506988525390620 -41.481098175048828
35.118099212646484 318.562011718750000 -4.030900001525879
100.258003234863280 325.058013916015620 -32.421699523925781
50.291099548339844 325.519989013671870 -44.455299377441406
44.315200805664062 319.041992187500000 -10.450200080871582
113.575996398925780 330.386993408203120 -62.689601898193359
29.781999588012695 314.308013916015620 6.737070083618164
86.681396484375000 320.558013916015620 -19.482599258422852
112.697998046875000 326.042999267578120 -46.957298278808594
77.313301086425781 318.648010253906250 -14.591600418090820
56.341098785400391 317.453002929687500 -13.163000106811523
54.342800140380859 319.407989501953120 -25.110099792480469
67.790000915527344 319.101013183593750 -25.599100112915039
119.071998596191410 327.903991699218750 -72.111297607421875
81.297401428222656 318.015991210937500 -28.110099792480469
67.360298156738281 314.489013671875000 -14.297200202941895
104.212997436523440 322.545013427734370 -52.991500854492187
96.080200195312500 319.638000488281250 -45.532199859619141
44.396999359130859 313.933013916015620 -24.261299133300781
35.382801055908203 317.055999755859370 -44.470699310302734
30.353500366210937 310.545989990234370 -13.359900474548340
85.787002563476563 316.515991210937500 -37.457199096679688
91.280899047851563 314.059997558593750 -28.018600463867188
106.731002807617190 316.532012939453120 -42.918201446533203
33.647399902343750 307.071990966796870 -3.913640022277832
98.608703613281250 314.634002685546870 -35.588199615478516
46.452499389648438 314.501007080078120 -46.415298461914063
50.296600341796875 309.135986328125000 -16.604299545288086
31.759300231933594 302.821014404296870 12.122500419616699
59.864299774169922 310.984008789062500 -28.063199996948242
73.342597961425781 311.572998046875000 -31.431800842285156
25.814800262451172 312.597991943359370 -45.426399230957031
40.516399383544922 306.917999267578120 -12.593199729919434
121.184997558593750 318.178985595703120 -62.585300445556641
113.424003601074220 314.485992431640620 -52.777500152587891
110.324996948242190 316.007995605468750 -63.844200134277344
73.341003417968750 306.613006591796870 -19.999200820922852
61.833599090576172 304.958007812500000 -17.695899963378906
82.865600585937500 306.993011474609380 -25.807100296020508
117.352996826171870 317.001007080078130 -75.820899963378906
49.324699401855469 306.126007080078120 -30.607299804687500
102.262001037597660 312.019012451171870 -54.408100128173828
33.664501190185547 303.220001220703120 -20.481800079345703
94.129798889160156 309.076995849609370 -48.058399200439453
40.828300476074219 305.565002441406250 -48.051300048828125
92.465797424316406 303.928985595703120 -33.698299407958984
80.018699645996094 304.455993652343750 -39.614200592041016
20.830600738525391 304.266998291015620 -50.036499023437500
33.482898712158203 295.985992431640620 -3.914119958877564
103.946998596191410 304.946014404296870 -43.223400115966797
44.732200622558594 298.601989746093750 -19.026300430297852
69.324096679687500 302.058990478515620 -35.400699615478516
58.292198181152344 300.907012939453120 -32.115501403808594
117.419998168945310 307.468994140625000 -63.771598815917969
67.781303405761719 298.186004638671870 -23.137399673461914
31.324499130249023 290.412994384765620 10.606499671936035
109.683998107910160 304.074005126953120 -51.978500366210937
31.320199966430664 301.457000732421870 -50.687599182128906
122.690002441406250 309.634002685546870 -83.578399658203125
56.330799102783203 296.113006591796870 -21.524700164794922
78.103996276855469 297.132995605468750 -27.467100143432617
114.498001098632810 306.957000732421870 -76.247596740722656
32.480400085449219 292.927001953125000 -15.291399955749512
44.322898864746094 296.046997070312500 -32.352298736572266
88.775802612304688 299.544006347656250 -46.957298278808594
108.129997253417970 302.566009521484370 -66.012802124023438
100.216003417968750 299.585998535156250 -55.477500915527344
86.775901794433594 295.117004394531250 -33.527301788330078
98.194503784179688 296.578002929687500 -40.524101257324219
44.816898345947266 296.367004394531250 -51.025798797607422
77.151199340820313 295.147003173828120 -43.411201477050781
17.821500778198242 294.606994628906250 -54.891399383544922
41.148101806640625 288.095001220703130 -19.454099655151367
54.317298889160156 291.438995361328120 -36.168399810791016
119.419998168945310 299.454010009765620 -70.250000000000000
31.345399856567383 283.424987792968750 2.659509897232056
65.343498229980469 291.536010742187500 -39.377700805664062
71.361396789550781 289.013000488281250 -26.851499557495117
117.488998413085940 298.971008300781250 -84.767097473144531
33.667598724365234 283.098999023437500 -11.703599929809570
93.222099304199219 291.680999755859370 -55.015998840332031
50.307300567626953 285.208007812500000 -26.643699645996094
27.375600814819336 289.518005371093750 -55.457599639892578
60.803398132324219 285.117004394531250 -28.041799545288086
78.841903686523438 286.019989013671870 -35.345100402832031
92.431602478027344 287.427001953125000 -42.695999145507813
37.862998962402344 287.574005126953120 -54.465099334716797
82.866500854492187 287.980010986328120 -50.267299652099609
105.232002258300780 291.536987304687500 -66.392799377441406
50.892601013183594 287.976013183593750 -55.757900238037109
107.752998352050780 289.059997558593750 -54.883998870849609
72.835296630859375 285.513000488281250 -44.323898315429688
34.722000122070312 273.989013671875000 6.194670200347900
35.580799102783203 278.937011718750000 -22.116199493408203
115.439002990722660 289.480987548828120 -68.709999084472656
47.840999603271484 282.010986328125000 -39.858501434326172
102.010002136230470 284.927001953125000 -47.087501525878906
58.327999114990234 282.601013183593750 -42.115600585937500
111.986000061035160 290.467987060546870 -79.718597412109375
33.341201782226563 273.557006835937500 -6.807300090789795
84.817596435546875 280.015014648437500 -41.944099426269531
67.801200866699219 277.486999511718750 -31.204200744628906
42.847499847412109 275.519012451171870 -29.345100402832031
88.758102416992188 281.592010498046870 -57.021400451660156
54.301799774169922 275.638000488281250 -31.545600891113281
100.589996337890620 282.489990234375000 -62.591899871826172
43.874900817871094 279.041992187500000 -56.486698150634766
75.233497619628906 276.674011230468750 -39.086700439453125
32.836898803710938 278.454010009765630 -57.942100524902344
106.736999511718750 283.501007080078120 -73.923797607421875
75.271499633789063 277.993988037109370 -52.501098632812500
120.345001220703120 285.078002929687500 -85.603500366210938
66.364501953125000 276.019989013671870 -44.917499542236328
38.339698791503906 269.005004882812500 -20.326999664306641
119.314002990722660 278.468994140625000 -69.398498535156250
56.256301879882812 272.151000976562500 -46.076400756835938
109.689002990722660 276.464996337890620 -62.545799255371094
35.590801239013672 261.458007812500000 6.696350097656250
90.852996826171875 272.001007080078120 -46.818599700927734
62.333599090576172 268.430999755859370 -32.351501464843750
100.094001770019530 272.916992187500000 -52.171901702880859
46.324298858642578 269.135986328125000 -43.455398559570313
48.358898162841797 266.986999511718750 -32.294998168945313
114.732002258300780 277.502990722656250 -79.454002380371094
82.864997863769531 271.993988037109370 -57.281501770019531
35.234500885009766 261.084014892578120 -12.318200111389160
81.244400024414063 268.170989990234370 -44.579200744628906
103.971000671386720 273.020996093750000 -70.631896972656250
96.469497680664063 270.923004150390620 -63.138198852539063
36.108501434326172 268.467010498046870 -60.538700103759766
46.802700042724609 267.561004638671870 -60.460300445556641
69.687698364257813 266.700988769531250 -53.979598999023437
40.691200256347656 261.046997070312500 -27.951400756835938
56.307498931884766 261.617004394531250 -37.575599670410156
117.339996337890620 268.500000000000000 -66.345703125000000
71.347602844238281 261.522003173828120 -43.898998260498047
35.340400695800781 259.459991455078120 -45.726299285888672
56.365200042724609 260.980987548828120 -50.732200622558594
36.443298339843750 251.529998779296870 -4.301740169525147
111.639999389648440 266.692993164062500 -77.513000488281250
90.379096984863281 260.959991455078120 -50.747898101806641
36.930801391601562 253.046005249023440 -20.812900543212891
100.308998107910160 261.070007324218750 -56.419998168945313
46.306800842285156 255.557998657226560 -35.446998596191406
117.461997985839840 266.813995361328130 -87.288803100585938
84.779098510742187 261.092010498046870 -62.461898803710938
109.719001770019530 261.618011474609370 -62.999000549316406
94.343399047851562 261.515991210937500 -67.343902587890625
80.842597961425781 257.028015136718750 -48.848899841308594
46.497001647949219 255.384994506835940 -48.620601654052734
32.878200531005859 244.229003906250000 7.760260105133057
65.932701110839844 256.960998535156250 -56.732700347900391
65.315101623535156 253.548995971679690 -39.367198944091797
42.324199676513672 257.045989990234370 -62.451900482177734
35.489398956298828 250.483993530273440 -31.731899261474609
54.380699157714844 251.464996337890620 -41.229000091552734
100.389999389648440 258.933013916015620 -75.757797241210937
107.580001831054690 260.804992675781250 -85.285202026367188
71.361297607421875 251.453002929687500 -48.670398712158203
113.841003417968750 261.049987792968750 -95.339996337890625
35.852699279785156 243.731994628906250 -13.816100120544434
75.288902282714844 253.628005981445310 -62.522201538085938
54.350601196289063 251.005996704101560 -54.331100463867188
102.050003051757810 253.707000732421870 -65.538597106933594
88.234497070312500 253.175003051757810 -71.994903564453125
25.854099273681641 235.990997314453120 5.189139842987061
44.264701843261719 244.026000976562500 -37.413898468017578
27.907699584960938 237.432006835937500 -7.755670070648193
63.293701171875000 245.136993408203120 -46.413299560546875
105.855003356933590 255.990997314453120 -100.316001892089840
66.187400817871094 247.707000732421870 -62.462799072265625
45.893699645996094 244.947998046875000 -52.279899597167969
36.929199218750000 239.477005004882810 -25.808500289916992
95.707397460937500 251.285995483398440 -81.532096862792969
88.780502319335937 247.125000000000000 -62.901401519775391
78.799201965332031 247.580001831054690 -70.366600036621094
52.198501586914063 241.600006103515620 -44.614398956298828
96.278099060058594 246.164001464843750 -71.482803344726563
35.462501525878906 237.520004272460940 -36.352001190185547
86.331001281738281 245.514999389648440 -79.865898132324219
34.326198577880859 232.589004516601560 -17.778999328613281
100.471000671386720 247.902999877929690 -91.270896911621094
69.205596923828125 240.188995361328120 -54.598800659179688
19.817199707031250 227.684997558593750 -0.014104000292718
99.795097351074219 249.248992919921870 -106.504997253417970
78.964797973632813 239.863006591796870 -62.684700012207031
71.344902038574219 240.013000488281250 -69.839302062988281
30.751399993896484 226.634994506835940 -6.965069770812988
46.780899047851563 235.776992797851560 -57.573299407958984
61.949699401855469 236.949005126953120 -64.725402832031250
59.904201507568359 234.490005493164060 -52.781600952148437
86.533302307128906 237.863998413085940 -70.029098510742187
78.045303344726563 237.893997192382810 -77.592697143554688
33.827899932861328 227.475006103515620 -29.334999084472656
94.399902343750000 236.962997436523440 -78.275703430175781
40.739799499511719 228.009994506835940 -38.881900787353516
46.696300506591797 229.639007568359370 -47.610000610351562
88.624702453613281 238.162002563476560 -87.480499267578125
96.304801940917969 239.531005859375000 -97.820800781250000
11.281800270080566 219.768997192382810 -6.526770114898682
21.800600051879883 219.705001831054690 -6.593090057373047
73.302299499511719 231.033004760742190 -63.394500732421875
92.490798950195313 238.936996459960940 -110.369003295898440
33.081501007080078 220.164001464843750 -17.402399063110352
58.214401245117187 224.667999267578120 -48.985099792480469
50.353698730468750 226.033004760742190 -62.422798156738281
67.380699157714844 228.475006103515620 -73.758697509765625
37.835201263427734 221.505996704101560 -47.842399597167969
83.009300231933594 227.315994262695310 -74.216300964355469
38.850601196289063 223.000000000000000 -58.199298858642578
58.326599121093750 224.520004272460940 -69.343399047851562
5.760809898376465 212.858001708984370 -14.110699653625488
36.181198120117188 216.949005126953120 -31.641000747680664
82.243797302246094 228.602996826171870 -89.867301940917969
75.187599182128906 226.658996582031250 -81.934600830078125
91.396400451660156 229.985000610351560 -98.840301513671875
66.718597412109375 222.591003417968750 -62.577701568603516
85.582199096679688 232.281005859375000 -119.894996643066410
17.843599319458008 210.639999389648440 -12.579500198364258
75.188102722167969 222.132995605468750 -69.487800598144531
27.293100357055664 210.548995971679690 -17.878499984741211
88.565498352050781 228.897003173828120 -109.930000305175780
26.254800796508789 212.218994140625000 -29.459299087524414
52.258998870849609 216.460006713867190 -51.618198394775391
39.702301025390625 213.039001464843750 -41.367099761962891
45.843101501464844 217.007995605468750 -65.281997680664063
42.702800750732422 212.102005004882810 -52.496898651123047
77.248802185058594 220.098007202148440 -96.858703613281250
72.139099121093750 218.216003417968750 -87.412498474121094
58.777400970458984 213.063003540039060 -62.429698944091797
9.875069618225098 203.557006835937500 -18.408800125122070
-0.074179001152515 203.216003417968750 -23.526399612426758
58.167198181152344 214.145996093750000 -75.045097351074219
82.853797912597656 222.501998901367190 -116.820999145507810
67.818901062011719 213.029998779296870 -68.354400634765625
76.216796875000000 221.479995727539060 -125.117996215820310
29.269500732421875 202.061996459960940 -26.877899169921875
7.350940227508545 201.983993530273440 -32.794498443603516
34.786701202392578 203.524002075195310 -37.358100891113281
19.648099899291992 199.251007080078130 -22.085800170898438
65.099296569824219 211.251007080078120 -82.577499389648438
38.294799804687500 203.457000732421870 -47.831901550292969
-4.193089962005615 196.386001586914060 -30.710699081420898
0.850362002849579 197.475006103515620 -39.800498962402344
53.549701690673828 203.026000976562500 -63.742401123046875
8.255089759826660 194.337997436523440 -24.616500854492188
62.395401000976562 203.444000244140620 -71.232696533203125
77.794799804687500 212.529006958007810 -119.283996582031250
45.198398590087891 201.544998168945310 -70.067901611328125
25.368400573730469 192.975997924804690 -30.306800842285156
39.493499755859375 197.912994384765620 -56.616298675537109
69.552299499511719 211.929992675781250 -128.490997314453120
30.834400177001953 192.016006469726560 -39.334300994873047
63.262199401855469 201.542999267578120 -89.877098083496094
-8.167269706726074 188.947006225585940 -38.290500640869141
2.391550064086914 187.535995483398440 -31.380500793457031
35.826099395751953 191.509002685546870 -48.832801818847656
15.795800209045410 187.128005981445310 -29.991500854492188
64.954200744628906 196.964996337890620 -79.732002258300781
48.357200622558594 192.514999389648440 -58.370899200439453
55.332000732421875 194.509994506835940 -72.345703125000000
64.770500183105469 202.537002563476560 -129.238006591796870
23.405799865722656 184.445999145507810 -37.271598815917969
54.364101409912109 193.992996215820310 -85.308403015136719
70.208396911621094 198.569000244140620 -119.267997741699220
-2.492959976196289 180.063003540039060 -39.027301788330078
10.333200454711914 179.190002441406250 -34.577400207519531
40.826400756835938 185.093994140625000 -62.587299346923828
-12.149499893188477 180.486999511718750 -46.809398651123047
49.744598388671875 185.548995971679690 -70.463600158691406
33.782398223876953 181.998992919921870 -53.866500854492187
9.810830116271973 179.059997558593750 -46.956798553466797
57.379199981689453 196.011001586914060 -132.878005981445310
27.290399551391602 178.063995361328120 -45.892398834228516
56.320098876953125 184.537994384765620 -78.875801086425781
63.798999786376953 192.020004272460940 -125.275001525878910
17.835500717163086 174.518005371093750 -40.340198516845703
4.322740077972412 171.912002563476560 -39.668998718261719
-13.704000473022461 173.339996337890620 -54.658298492431641
-5.259479999542236 171.434005737304690 -46.206100463867188
35.212398529052734 175.550994873046870 -62.472198486328125
50.266300201416016 188.083999633789060 -136.253005981445310
-13.123399734497070 173.518997192382810 -66.851097106933594
46.298999786376953 173.089004516601560 -64.082496643066406
48.108501434326172 174.882003784179690 -75.167198181152344
21.678800582885742 169.214004516601560 -48.599300384521484
0.286868989467621 168.955993652343750 -54.727298736572266
57.935100555419922 183.464996337890630 -127.405998229980470
54.157501220703125 175.225006103515620 -83.811897277832031
12.168600082397461 164.748992919921870 -44.586700439453125
0.793223977088928 162.414001464843750 -46.175399780273438
42.348499298095703 179.000000000000000 -137.809005737304690
-9.081609725952148 162.031005859375000 -55.370098114013672
-16.010000228881836 163.240005493164060 -64.507698059082031
30.148599624633789 164.039001464843750 -62.417800903320312
40.778900146484375 164.466995239257810 -67.151199340820313
50.356601715087891 176.000000000000000 -131.326004028320310
47.071201324462891 165.341003417968750 -79.697402954101563
18.253999710083008 159.162994384765620 -54.067100524902344
56.445999145507812 172.947998046875000 -123.385002136230470
8.820030212402344 155.557998657226560 -50.891700744628906
-3.094000101089478 157.117996215820310 -62.418201446533203
-1.678050041198731 153.473007202148440 -52.261600494384766
35.827899932861328 169.986999511718750 -138.759994506835940
33.261901855468750 157.083999633789060 -70.042297363281250
50.344799041748047 160.503997802734370 -88.826301574707031
26.211000442504883 153.654998779296870 -62.492298126220703
44.560501098632812 166.434005737304690 -133.067993164062500
51.569099426269531 163.134994506835940 -123.171997070312500
29.374200820922852 161.414993286132810 -139.531997680664060
-5.275889873504639 145.001007080078120 -58.607200622558594
6.287290096282959 144.707992553710940 -57.100399017333984
44.527000427246094 150.811996459960940 -86.204803466796875
-11.912799835205078 145.429000854492190 -67.685699462890625
19.755500793457031 145.134002685546880 -62.554500579833984
38.782398223876953 158.026992797851560 -135.699005126953120
45.291099548339844 155.541000366210940 -127.277999877929690
31.295499801635742 145.108001708984370 -73.572502136230469
40.798099517822266 140.688003540039060 -73.579803466796875
23.356899261474609 151.996002197265620 -139.854995727539060
23.459499359130859 138.942993164062500 -70.230499267578125
44.841999053955078 146.518997192382810 -111.316001892089840
13.247900009155273 136.649993896484370 -64.086898803710938
2.831419944763184 135.742004394531250 -62.564300537109375
41.960098266601562 140.447006225585940 -88.742797851562500
41.133598327636719 146.250000000000000 -121.763000488281250
-12.645400047302246 135.500000000000000 -74.823196411132812
-7.760970115661621 133.966003417968750 -65.713996887207031
34.287700653076172 148.016998291015620 -136.735000610351560
31.351400375366211 133.500000000000000 -76.816398620605469
17.365600585937500 142.496994018554690 -138.667007446289060
17.750099182128906 128.608993530273440 -70.004302978515625
40.011299133300781 136.479003906250000 -115.380996704101560
34.650798797607422 138.604995727539060 -130.220993041992190
7.495840072631836 139.453994750976560 -142.772003173828120
27.337299346923828 139.011001586914060 -138.259994506835940
2.442229986190796 136.994003295898440 -133.240997314453120
6.323190212249756 125.196998596191410 -70.092002868652344
-5.165599822998047 124.388000488281250 -69.139503479003906
-11.659700393676758 124.531997680664060 -77.807296752929688
23.823099136352539 125.019996643066410 -77.873397827148438
11.401800155639648 131.533996582031250 -136.149993896484370
34.871601104736328 123.984001159667970 -97.338798522949219
13.880999565124512 118.948997497558590 -73.739303588867188
35.955398559570313 127.494003295898440 -121.358001708984370
21.850500106811523 130.005004882812500 -138.270004272460940
-3.308870077133179 127.539001464843750 -130.565994262695310
32.359600067138672 119.010002136230470 -79.356399536132812
3.894700050354004 128.975997924804690 -143.311004638671870
2.383249998092651 115.961997985839840 -73.203498840332031
31.108499526977539 127.072998046875000 -130.686004638671870
-7.485040187835693 113.105003356933590 -75.529998779296875
21.752799987792969 114.078002929687500 -81.076698303222656
16.351999282836914 120.501998901367190 -137.322006225585940
5.763169765472412 118.899002075195310 -132.550994873046880
8.324819564819336 108.526000976562500 -77.895301818847656
32.735298156738281 113.517997741699220 -101.792999267578120
-0.498609989881516 119.444999694824220 -142.731994628906250
31.517599105834961 116.969001770019530 -125.902000427246090
-5.969779968261719 117.065002441406250 -133.214004516601560
-10.939900398254395 106.016998291015620 -83.462196350097656
25.387899398803711 115.987998962402340 -134.358001708984370
-2.605509996414185 103.555999755859370 -77.391700744628906
27.294000625610352 104.470001220703120 -83.646797180175781
15.805899620056152 103.067001342773440 -83.067100524902344
6.331200122833252 113.952003479003910 -148.447998046875000
10.765700340270996 110.010002136230470 -135.535003662109370
30.163700103759766 103.476997375488280 -105.277000427246090
6.278649806976318 98.081001281738281 -80.045799255371094
28.475000381469727 106.472000122070310 -126.898002624511720
-3.145800113677979 107.988998413085940 -142.311996459960940
20.889299392700195 105.985000610351560 -134.889007568359370
13.815199851989746 105.676002502441410 -144.593002319335940
28.955499649047852 99.979797363281250 -115.327003479003910
21.830499649047852 93.460197448730469 -87.117897033691406
5.308030128479004 100.003997802734370 -141.123001098632810
-9.157830238342285 99.013496398925781 -138.330993652343750
32.867698669433594 90.497001647949219 -87.288101196289062
31.628200531005859 91.619903564453125 -100.218002319335940
25.089799880981445 96.559600830078125 -129.110000610351560
14.352399826049805 97.001296997070313 -135.320007324218750
27.365800857543945 86.998703002929688 -108.829002380371090
0.337249010801315 90.525703430175781 -140.701995849609370
25.448400497436523 86.990997314453125 -124.862998962402340
-9.182589530944824 85.497001647949219 -136.871002197265620
8.877630233764648 84.988998413085938 -137.382003784179690
19.818899154663086 81.564903259277344 -132.210998535156250
25.315099716186523 77.006401062011719 -111.806999206542970
-0.171963006258011 78.520301818847656 -138.757003784179690
22.444700241088867 73.496803283691406 -121.323997497558590
11.369199752807617 73.493797302246094 -134.852005004882810
2.397490024566650 68.471298217773438 -137.041000366210940
22.291799545288086 64.693496704101563 -113.353996276855470
15.974699974060059 63.997798919677734 -130.524002075195310
-5.652919769287109 62.000999450683594 -135.332000732421870
23.993900299072266 57.423400878906250 -121.466003417968750
8.254039764404297 57.545398712158203 -134.078994750976560
24.115200042724609 52.573200225830078 -111.652000427246090
-7.821929931640625 51.991298675537109 -131.535995483398440
16.194099426269531 52.034301757812500 -128.647003173828120
2.371789932250977 48.497798919677734 -134.951995849609370
21.621500015258789 46.169700622558594 -120.642997741699220
11.693400382995605 42.522701263427734 -131.100006103515620
-5.168169975280762 41.500701904296875 -131.852996826171870
17.729499816894531 35.506500244140625 -123.596000671386720
4.318140029907227 34.994499206542969 -134.164001464843750
12.026700019836426 27.965000152587891 -129.016998291015620
-3.249170064926148 26.999900817871094 -132.052993774414060
-12.666199684143066 21.521799087524414 -129.458999633789060
-21.784599304199219 16.959100723266602 -126.608001708984370
-4.106770038604736 14.497599601745605 -131.720993041992190
-14.675200462341309 10.010800361633301 -130.408996582031250
-20.179199218750000 0.486113011837006 -128.363006591796870
-19.951099395751953 -7.364630222320557 -117.050003051757810
