ply
format ascii 1.0
element vertex 180
property double x
property double y
property double z
end_header
-11.742799758911133 5.521649837493897 -17.699199676513672
-10.869799613952637 5.560659885406494 -17.631200790405273
-11.135800361633301 5.509659767150879 -17.663200378417969
-11.825799942016602 4.989659786224365 -17.662200927734375
-11.520799636840820 5.528649806976318 -17.667200088500977
-10.604800224304199 5.551660060882568 -17.675199508666992
-11.742799758911133 5.521649837493897 -17.699199676513672
-11.572799682617188 4.879660129547119 -17.711200714111328
-12.021800041198730 5.060659885406494 -17.717199325561523
-11.354800224304199 4.872660160064697 -17.723199844360352
-10.665800094604492 5.351659774780273 -17.733200073242187
-11.664799690246582 5.314660072326660 -17.738199234008789
-11.419799804687500 5.352660179138184 -17.740200042724609
-11.321800231933594 5.527659893035889 -17.742200851440430
-10.871800422668457 5.325660228729248 -17.757200241088867
-11.082799911499023 5.325660228729248 -17.764200210571289
-10.143799781799316 4.816659927368164 -17.779199600219727
-10.429800033569336 5.618659973144531 -17.784200668334961
-11.546799659729004 5.158659934997559 -17.780199050903320
-11.268799781799316 5.088659763336182 -17.788200378417969
-10.773799896240234 5.508659839630127 -17.799200057983398
-10.991800308227539 5.509659767150879 -17.803199768066406
-11.825799942016602 5.187660217285156 -17.797199249267578
-11.903800010681152 5.461659908294678 -17.815200805664063
-10.485799789428711 5.266660213470459 -17.842199325561523
-10.356800079345703 5.421659946441650 -17.845199584960938
-11.192799568176270 4.901659965515137 -17.843200683593750
-12.185799598693848 5.069660186767578 -17.838199615478516
-12.042799949645996 5.607659816741943 -17.842199325561523
-10.915800094604492 5.049650192260742 -17.859199523925781
-11.546799659729004 5.454659938812256 -17.859199523925781
-11.429800033569336 4.998660087585449 -17.867200851440430
-11.669799804687500 4.995659828186035 -17.868200302124023
-11.240799903869629 5.382659912109375 -17.874200820922852
-10.562800407409668 5.499660015106201 -17.880199432373047
-10.304800033569336 4.757659912109375 -17.884199142456055
-9.814769744873047 4.852660179138184 -17.890199661254883
-11.878800392150879 5.002659797668457 -17.878200531005859
-10.462800025939941 4.883659839630127 -17.891199111938477
-10.143799781799316 5.031660079956055 -17.909200668334961
-11.363800048828125 5.225659847259522 -17.921199798583984
-10.000800132751465 4.786660194396973 -17.930200576782227
-10.822799682617188 4.880660057067871 -17.925199508666992
-11.121800422668457 5.104660034179688 -17.929199218750000
-10.729800224304199 5.357659816741943 -17.933200836181641
-10.331800460815430 5.188650131225586 -17.944200515747070
-11.973799705505371 5.204659938812256 -17.934200286865234
-10.981800079345703 5.260660171508789 -17.942199707031250
-9.942770004272461 5.038660049438477 -17.951200485229492
-10.645799636840820 4.783659934997559 -17.949199676513672
-11.729800224304199 5.438650131225586 -17.943199157714844
-12.358799934387207 5.031660079956055 -17.939199447631836
-11.595800399780273 5.252659797668457 -17.951200485229492
-10.772800445556641 5.164659976959229 -17.976200103759766
-10.652799606323242 4.995659828186035 -17.991199493408203
-12.054800033569336 5.024660110473633 -17.985200881958008
-12.179800033569336 5.653649806976318 -17.994199752807617
-11.776800155639648 5.158659934997559 -17.996200561523438
-11.934800148010254 5.511660099029541 -18.007200241088867
-10.424799919128418 5.351659774780273 -18.020200729370117
-10.575799942016602 5.183660030364990 -18.026199340820313
-10.254799842834473 5.458660125732422 -18.030199050903320
-12.162799835205078 5.194660186767578 -18.029199600219727
-10.166799545288086 4.881659984588623 -18.043199539184570
-10.444800376892090 5.024660110473633 -18.042200088500977
-9.764769554138184 5.038660049438477 -18.050199508666992
-9.991769790649414 5.273660182952881 -18.050199508666992
-11.866800308227539 5.328660011291504 -18.057199478149414
-12.075799942016602 5.380660057067871 -18.070199966430664
-10.252799987792969 5.069660186767578 -18.090200424194336
-12.507800102233887 5.020659923553467 -18.090200424194336
-9.944769859313965 4.881659984588623 -18.110200881958008
-10.185799598693848 5.284659862518311 -18.113199234008789
-12.247799873352051 5.488659858703613 -18.099199295043945
-12.353799819946289 5.669660091400147 -18.109199523925781
-12.663800239562988 5.683660030364990 -18.107200622558594
-10.077799797058105 5.466650009155273 -18.128200531005859
-12.499799728393555 5.528649806976318 -18.124200820922852
-9.542770385742188 4.846660137176514 -18.148199081420898
-10.055800437927246 5.110660076141357 -18.161199569702148
-9.725769996643066 5.243659973144531 -18.164199829101563
-12.302800178527832 5.097660064697266 -18.155199050903320
-9.743769645690918 4.867660045623779 -18.174200057983398
-12.848799705505371 5.638659954071045 -18.186199188232422
-12.447799682617188 5.244659900665283 -18.188199996948242
-12.228799819946289 5.285649776458740 -18.198200225830078
-9.913769721984863 5.334650039672852 -18.231199264526367
-9.854769706726074 5.089660167694092 -18.231199264526367
-9.744770050048828 5.475659847259522 -18.244199752807617
-12.656800270080566 4.994659900665283 -18.223199844360352
-9.235770225524902 4.726659774780273 -18.262199401855469
-12.373800277709961 5.418660163879395 -18.259199142456055
-12.631799697875977 5.206659793853760 -18.259199142456055
-9.358770370483398 5.028649806976318 -18.290199279785156
-12.670800209045410 5.562660217285156 -18.272199630737305
-9.431770324707031 4.826660156250000 -18.314199447631836
-9.443770408630371 5.459650039672852 -18.357200622558594
-9.229769706726074 5.571660041809082 -18.359199523925781
-9.590769767761231 5.312660217285156 -18.356199264526367
-9.552769660949707 5.058660030364990 -18.357200622558594
-9.098770141601563 5.413660049438477 -18.363199234008789
-8.852769851684570 4.829659938812256 -18.366199493408203
-9.071769714355469 5.039659976959229 -18.371200561523438
-8.826769828796387 5.379660129547119 -18.384199142456055
-12.578800201416016 5.397659778594971 -18.358200073242188
-12.966799736022949 5.566659927368164 -18.361200332641602
-12.805800437927246 5.427659988403320 -18.366199493408203
-8.940770149230957 5.215660095214844 -18.396200180053711
-12.776800155639648 5.067659854888916 -18.369199752807617
-8.771769523620606 5.071660041809082 -18.403200149536133
-9.259770393371582 4.874660015106201 -18.423200607299805
-9.413769721984863 5.200660228729248 -18.424200057983398
-12.952799797058105 5.277659893035889 -18.401199340820312
-8.671770095825195 4.881659984588623 -18.447200775146484
-9.277770042419434 5.378660202026367 -18.448200225830078
-9.073769569396973 4.788660049438477 -18.450199127197266
-13.128800392150879 5.184659957885742 -18.423200607299805
-12.968799591064453 5.064660072326660 -18.428199768066406
-12.728799819946289 5.254660129547119 -18.434200286865234
-8.566769599914551 5.057660102844238 -18.492200851440430
-9.232769966125488 5.090660095214844 -18.497200012207031
-8.733770370483398 5.245659828186035 -18.507200241088867
-13.081800460815430 5.659659862518311 -18.499200820922852
-9.112770080566406 5.291659832000732 -18.535200119018555
-8.953769683837891 5.413660049438477 -18.542200088500977
-13.315799713134766 5.154660224914551 -18.510200500488281
-8.755769729614258 5.480649948120117 -18.561199188232422
-12.929800033569336 5.499660015106201 -18.546199798583984
-8.903770446777344 4.870659828186035 -18.574199676513672
-9.065770149230957 5.004660129547119 -18.576200485229492
-13.093799591064453 5.370659828186035 -18.563199996948242
-13.220800399780273 5.763659954071045 -18.622200012207031
-8.419770240783691 5.050660133361816 -18.671199798583984
-8.620770454406738 5.164659976959229 -18.671199798583984
-8.929770469665527 5.153649806976318 -18.672199249267578
-13.197799682617188 5.555659770965576 -18.644199371337891
-8.708769798278809 4.884659767150879 -18.685199737548828
-13.181799888610840 5.218659877777100 -18.661199569702148
-13.428799629211426 5.228660106658936 -18.665199279785156
-8.808770179748535 5.343659877777100 -18.703199386596680
-8.507769584655762 4.858660221099854 -18.732200622558594
-13.297800064086914 5.386660099029541 -18.709199905395508
-8.786769866943359 5.050660133361816 -18.788200378417969
-8.641770362854004 5.415659904479981 -18.794200897216797
-13.341799736022949 5.626659870147705 -18.773199081420898
-8.494770050048828 5.171659946441650 -18.838199615478516
-8.701769828796387 5.227660179138184 -18.860200881958008
-13.551799774169922 5.190659999847412 -18.837200164794922
-8.383769989013672 4.874660015106201 -18.896200180053711
-13.435799598693848 5.445650100708008 -18.876199722290039
-8.324769973754883 5.092659950256348 -18.920200347900391
-8.624770164489746 5.041659832000732 -18.925199508666992
-13.484800338745117 5.658659934997559 -18.910200119018555
-13.591799736022949 5.349659919738770 -18.960199356079102
-8.566769599914551 5.298659801483154 -18.997200012207031
-8.210769653320313 4.856659889221191 -19.023199081420898
-13.582799911499023 5.815659999847412 -19.019199371337891
-8.478770256042481 5.119659900665283 -19.074199676513672
-13.618800163269043 5.558660030364990 -19.044200897216797
-13.751799583435059 5.716650009155273 -19.075199127197266
-13.696800231933594 5.225659847259522 -19.080200195312500
-8.445770263671875 5.406660079956055 -19.124200820922852
-8.298769950866699 5.034659862518311 -19.148199081420898
-13.749799728393555 5.420660018920898 -19.160200119018555
-13.924799919128418 5.821660041809082 -19.161199569702148
-8.313770294189453 5.284659862518311 -19.218200683593750
-13.861800193786621 5.611660003662109 -19.223199844360352
-13.877799987792969 5.263659954071045 -19.248199462890625
-14.061800003051758 5.756659984588623 -19.298200607299805
-13.848799705505371 5.449659824371338 -19.358200073242188
-14.009799957275391 5.574659824371338 -19.369199752807617
-14.027799606323242 5.349659919738770 -19.377199172973633
-14.207799911499023 5.717659950256348 -19.467199325561523
-14.157799720764160 5.466650009155273 -19.494199752807617
-14.069800376892090 5.621660232543945 -19.612199783325195
-14.252799987792969 5.779660224914551 -19.654199600219727
-14.257800102233887 5.510660171508789 -19.662200927734375
-14.301799774169922 5.629660129547119 -19.827199935913086
-14.356800079345703 5.631659984588623 -20.033199310302734
-14.407799720764160 5.798659801483154 -20.135200500488281
