ply
format ascii 1.0
element vertex 395
property double x
property double y
property double z
end_header
-7.310770034790039 9.795660018920898 -13.851200103759766
-7.310770034790039 9.795660018920898 -13.851200103759766
-7.738029956817627 11.032199859619141 -13.906999588012695
-7.708000183105469 10.823300361633301 -13.916399955749512
-7.418769836425781 9.644659996032715 -13.932200431823730
-7.405769824981690 9.997659683227539 -13.945199966430664
-7.704500198364258 10.627300262451172 -13.962699890136719
-7.127769947052002 9.826660156250000 -13.966199874877930
-6.766769886016846 10.088700294494629 -13.972200393676758
-7.495769977569580 9.822660446166992 -13.988200187683105
-7.230770111083984 9.546660423278809 -13.996199607849121
-7.599770069122315 10.007699966430664 -14.005200386047363
-7.709770202636719 10.198699951171875 -14.007200241088867
-7.702199935913086 10.430199623107910 -14.010999679565430
-6.830770015716553 10.289699554443359 -14.038200378417969
-7.173769950866699 10.008700370788574 -14.036199569702148
-6.949769973754883 10.019700050354004 -14.045200347900391
-7.322770118713379 9.354660034179688 -14.043199539184570
-7.612639904022217 10.953800201416016 -14.046699523925781
-6.669769763946533 9.890660285949707 -14.061200141906738
-6.767769813537598 10.480699539184570 -14.062199592590332
-6.639770030975342 10.216699600219727 -14.067199707031250
-7.470769882202148 9.498660087585449 -14.065199851989746
-7.695509910583496 11.149600028991699 -14.073100090026855
-7.578660011291504 10.740799903869629 -14.074999809265137
-6.864769935607910 9.829660415649414 -14.086199760437012
-7.003769874572754 9.683659553527832 -14.090200424194336
-7.018770217895508 10.216699600219727 -14.092200279235840
-6.869770050048828 10.652700424194336 -14.111200332641602
-7.309770107269287 10.141699790954590 -14.112199783325195
-7.576769828796387 10.325699806213379 -14.129199981689453
-7.507770061492920 10.521699905395508 -14.148200035095215
-7.823770046234131 11.305700302124023 -14.149200439453125
-7.182769775390625 10.334699630737305 -14.155200004577637
-7.108769893646240 9.524660110473633 -14.155200004577637
-7.521770000457764 10.132699966430664 -14.158200263977051
-7.339769840240479 9.169659614562988 -14.159199714660645
-6.717770099639893 9.679659843444824 -14.171199798583984
-7.072770118713379 10.505700111389160 -14.180199623107910
-6.677770137786865 10.631699562072754 -14.189200401306152
-7.435770034790039 9.931650161743164 -14.182200431823730
-7.194769859313965 9.318659782409668 -14.193200111389160
-7.405769824981690 9.679659843444824 -14.197199821472168
-6.809770107269287 10.865699768066406 -14.212200164794922
-6.873770236968994 9.546660423278809 -14.210200309753418
-7.448770046234131 9.347660064697266 -14.208200454711914
-7.016769886016846 10.705699920654297 -14.241200447082520
-6.596769809722900 10.079700469970703 -14.243200302124023
-7.400770187377930 10.285699844360352 -14.255200386047363
-7.083769798278809 11.566699981689453 -14.264200210571289
-7.511769771575928 9.128660202026367 -14.260199546813965
-6.649769783020020 10.283699989318848 -14.286199569702148
-6.596769809722900 9.830659866333008 -14.291199684143066
-7.704770088195801 11.201700210571289 -14.287199974060059
-6.958769798278809 11.029700279235840 -14.293199539184570
-7.341770172119141 10.516699790954590 -14.291199684143066
-6.606770038604736 9.500659942626953 -14.300200462341309
-7.306769847869873 10.071700096130371 -14.302200317382813
-7.942770004272461 11.361700057983398 -14.306200027465820
-7.370769977569580 9.514650344848633 -14.311200141906738
-6.866769790649414 11.247699737548828 -14.320199966430664
-7.142769813537598 10.879699707031250 -14.321200370788574
-6.944769859313965 9.390660285949707 -14.319199562072754
-8.076769828796387 11.511699676513672 -14.318200111389160
-7.315770149230957 12.103699684143066 -14.326199531555176
-7.228769779205322 9.051659584045410 -14.320199966430664
-7.550449848175049 11.079600334167480 -14.323399543762207
-7.298769950866699 9.817660331726074 -14.323200225830078
-7.316770076751709 10.735699653625488 -14.328200340270996
-7.149769783020020 11.096699714660645 -14.336199760437012
-7.406079769134522 10.928700447082520 -14.334600448608398
-7.411769866943359 8.967659950256348 -14.331199645996094
-6.780769824981690 10.527700424194336 -14.340200424194336
-7.243770122528076 11.437700271606445 -14.341199874877930
-7.083769798278809 9.234660148620606 -14.339200019836426
-7.065770149230957 11.339699745178223 -14.346199989318848
-7.219769954681397 10.251700401306152 -14.343199729919434
-7.225769996643066 11.702699661254883 -14.354200363159180
-7.875770092010498 11.550700187683105 -14.355199813842773
-6.727769851684570 9.293660163879395 -14.359199523925781
-7.324769973754883 11.220700263977051 -14.371199607849121
-7.157770156860352 10.555700302124023 -14.380200386047363
-6.378769874572754 9.486660003662109 -14.391200065612793
-6.880770206451416 10.725700378417969 -14.391200065612793
-6.486770153045654 9.666660308837891 -14.400199890136719
-6.863770008087158 10.308699607849121 -14.404199600219727
-6.531770229339600 9.309659957885742 -14.407199859619141
-6.973770141601563 10.479700088500977 -14.408200263977051
-7.035769939422607 10.205699920654297 -14.409199714660645
-6.896770000457764 9.194660186767578 -14.409199714660645
-7.453770160675049 11.361700057983398 -14.431200027465820
-6.334770202636719 9.285650253295898 -14.434200286865234
-6.784770011901856 10.125699996948242 -14.434200286865234
-7.377769947052002 11.591699600219727 -14.440199851989746
-6.638770103454590 9.968660354614258 -14.444199562072754
-7.016769886016846 9.968660354614258 -14.473199844360352
-7.139770030975342 9.714659690856934 -14.474200248718262
-6.610770225524902 9.137660026550293 -14.477199554443359
-6.998770236968994 10.865699768066406 -14.480199813842773
-7.249770164489746 9.486660003662109 -14.475199699401855
-7.795770168304443 11.312700271606445 -14.479200363159180
-7.976769924163818 11.701700210571289 -14.479200363159180
-7.443769931793213 9.139650344848633 -14.478199958801270
-6.926770210266113 8.973649978637695 -14.482199668884277
-6.530769824981690 8.324660301208496 -14.484199523925781
-6.392769813537598 9.083660125732422 -14.488200187683105
-7.196770191192627 12.172699928283691 -14.491200447082520
-7.425769805908203 11.062700271606445 -14.487199783325195
-7.244770050048828 10.944700241088867 -14.489199638366699
-7.627769947052002 11.508700370788574 -14.491200447082520
-7.162769794464111 8.881660461425781 -14.493200302124023
-7.539770126342773 8.958660125732422 -14.491200447082520
-6.426770210266113 8.019659996032715 -14.497200012207031
-7.609769821166992 11.204700469970703 -14.501199722290039
-7.775770187377930 11.666700363159180 -14.502200126647949
-7.379769802093506 8.787659645080566 -14.501199722290039
-7.318769931793213 9.293660163879395 -14.509200096130371
-6.894770145416260 11.060700416564941 -14.519200325012207
-8.132769584655762 11.547699928283691 -14.512200355529785
-7.970769882202148 11.419699668884277 -14.521200180053711
-7.546770095825195 11.693699836730957 -14.528200149536133
-7.424769878387451 11.868700027465820 -14.532199859619141
-6.825769901275635 9.916660308837891 -14.533200263977051
-7.406770229339600 12.151700019836426 -14.551199913024902
-8.257769584655762 11.699700355529785 -14.549200057983398
-6.369770050048828 8.436659812927246 -14.555199623107910
-6.760769844055176 8.886659622192383 -14.557200431823730
-6.545770168304443 8.551659584045410 -14.558199882507324
-6.624770164489746 7.989659786224365 -14.563199996948242
-6.428770065307617 8.780659675598145 -14.568200111389160
-6.363770008087158 8.225660324096680 -14.567199707031250
-6.979770183563232 8.776659965515137 -14.564200401306152
-6.955770015716553 9.726659774780273 -14.571200370788574
-7.206769943237305 8.668660163879395 -14.567199707031250
-6.566770076751709 8.973649978637695 -14.585200309753418
-7.077770233154297 11.020700454711914 -14.592200279235840
-7.057769775390625 9.545660018920898 -14.599200248718262
-6.633769989013672 8.732660293579102 -14.603199958801270
-7.571770191192627 12.039699554443359 -14.605199813842773
-6.666769981384277 8.242659568786621 -14.609199523925781
-6.821770191192627 8.647660255432129 -14.613200187683105
-7.020770072937012 8.565660476684570 -14.615200042724609
-8.074769973754883 11.871700286865234 -14.620200157165527
-7.261769771575928 11.106699943542480 -14.626199722290039
-7.147769927978516 9.357660293579102 -14.625200271606445
-6.717770099639893 8.450659751892090 -14.635199546813965
-7.559770107269287 8.821660041809082 -14.638199806213379
-7.702770233154297 11.805700302124023 -14.645199775695801
-7.667769908905029 11.332699775695801 -14.647199630737305
-7.878769874572754 11.917699813842773 -14.649200439453125
-6.280769824981690 8.941659927368164 -14.658200263977051
-7.416769981384277 8.965660095214844 -14.651200294494629
-7.269770145416260 9.136659622192383 -14.660200119018555
-6.503769874572754 7.824659824371338 -14.663200378417969
-7.599770069122315 12.230699539184570 -14.668199539184570
-7.416769981384277 8.642660140991211 -14.664199829101562
-7.469769954681397 11.243700027465820 -14.672200202941895
-6.325769901275635 7.964660167694092 -14.678199768066406
-8.270770072937012 11.908699989318848 -14.699199676513672
-6.885769844055176 9.529660224914551 -14.707200050354004
-6.889770030975342 8.358659744262695 -14.709199905395508
-7.287769794464111 8.490659713745117 -14.707200050354004
-7.102769851684570 8.349659919738770 -14.709199905395508
-7.811769962310791 11.473699569702148 -14.714200019836426
-7.735770225524902 12.059700012207031 -14.719200134277344
-6.762770175933838 8.099659919738770 -14.723199844360352
-8.147769927978516 11.698699951171875 -14.732199668884277
-8.058770179748535 12.093700408935547 -14.736200332641602
-6.367770195007324 8.583660125732422 -14.740200042724609
-6.678770065307617 7.904660224914551 -14.744199752807617
-6.982769966125488 9.337659835815430 -14.747200012207031
-7.971769809722900 11.604700088500977 -14.756199836730957
-6.354770183563232 8.783659934997559 -14.765199661254883
-7.520770072937012 7.549650192260742 -14.771200180053711
-7.219769954681397 8.159660339355469 -14.776200294494629
-7.314770221710205 7.522659778594971 -14.774200439453125
-7.108769893646240 9.154660224914551 -14.785200119018555
-6.999770164489746 8.195650100708008 -14.785200119018555
-7.310770034790039 7.902659893035889 -14.782199859619141
-7.407770156860352 8.082659721374512 -14.784199714660645
-6.341770172119141 7.776659965515137 -14.798199653625488
-7.711770057678223 12.345700263977051 -14.804200172424316
-7.398769855499268 12.238699913024902 -14.808199882507324
-7.569769859313965 7.939660072326660 -14.797200202941895
-8.108770370483398 12.285699844360352 -14.807200431823730
-8.275770187377930 12.153699874877930 -14.806200027465820
-7.377769947052002 8.309659957885742 -14.806200027465820
-7.221769809722900 8.970660209655762 -14.809200286865234
-7.879769802093506 12.189700126647949 -14.822199821472168
-7.514770030975342 11.388699531555176 -14.823200225830078
-7.360770225524902 8.807660102844238 -14.818200111389160
-7.460770130157471 7.338659763336182 -14.818200111389160
-8.400770187377930 12.320699691772461 -14.831199645996094
-6.583769798278809 7.742660045623779 -14.833200454711914
-8.239769935607910 12.440699577331543 -14.834199905395508
-7.209770202636719 7.729660034179688 -14.832200050354004
-7.255770206451416 7.287660121917725 -14.833200454711914
-7.524769783020020 8.664660453796387 -14.836199760437012
-6.910769939422607 8.024660110473633 -14.846199989318848
-7.574769973754883 12.491700172424316 -14.856200218200684
-7.128769874572754 7.992660045623779 -14.848199844360352
-7.495769977569580 7.744659900665283 -14.850199699401855
-7.676770210266113 11.536700248718262 -14.865200042724609
-8.164770126342773 11.959699630737305 -14.864199638366699
-6.879769802093506 9.190660476684570 -14.866200447082520
-6.358769893646240 8.190660476684570 -14.869199752807617
-7.598770141601563 8.132659912109375 -14.867199897766113
-7.841770172119141 11.700699806213379 -14.886199951171875
-6.484769821166992 8.649660110473633 -14.890199661254883
-7.020770072937012 8.966650009155273 -14.887200355529785
-6.796770095825195 7.821660041809082 -14.887200355529785
-7.148769855499268 7.450660228729248 -14.888199806213379
-7.942770004272461 12.364700317382812 -14.896200180053711
-8.253769874572754 12.644700050354004 -14.901200294494629
-8.435770034790039 12.539699554443359 -14.902199745178223
-7.773769855499268 12.521699905395508 -14.919199943542480
-7.985770225524902 11.871700286865234 -14.916199684143066
-6.444769859313965 8.398659706115723 -14.919199943542480
-7.552770137786865 8.325659751892090 -14.912199974060059
-7.005770206451416 7.812660217285156 -14.919199943542480
-7.141769886016846 8.761659622192383 -14.931200027465820
-6.619770050048828 8.802659988403320 -14.935199737548828
-7.431769847869873 7.158659934997559 -14.928199768066406
-6.958769798278809 7.608660221099854 -14.937199592590332
-8.087770462036133 12.527700424194336 -14.946200370788574
-6.875770092010498 8.814660072326660 -14.946200370788574
-8.455769538879395 12.770700454711914 -14.946200370788574
-7.431769847869873 7.583660125732422 -14.950200080871582
-7.262770175933838 8.592659950256348 -14.963199615478516
-7.433770179748535 8.485659599304199 -14.962200164794922
-7.444769859313965 7.931650161743164 -14.969200134277344
-8.048769950866699 12.095700263977051 -14.984199523925781
-6.757770061492920 8.658659934997559 -14.989199638366699
-7.494770050048828 12.269700050354004 -14.994199752807617
-6.982769966125488 8.644659996032715 -14.989199638366699
-7.433770179748535 8.139650344848633 -14.987199783325195
-7.301770210266113 12.191699981689453 -14.999199867248535
-6.631770133972168 8.476659774780273 -15.005200386047363
-8.193770408630371 12.274700164794922 -15.007200241088867
-8.368769645690918 12.948699951171875 -15.011199951171875
-7.860770225524902 12.008700370788574 -15.014200210571289
-7.123770236968994 7.221660137176514 -15.014200210571289
-7.671770095825195 11.695699691772461 -15.025199890136719
-7.395770072937012 7.382659912109375 -15.016200065612793
-6.589769840240479 7.613659858703613 -15.023200035095215
-7.906770229339600 12.625699996948242 -15.027199745178223
-6.318769931793213 7.882659912109375 -15.026200294494629
-7.109769821166992 8.456660270690918 -15.024200439453125
-8.311770439147949 12.441699981689453 -15.028200149536133
-7.630770206451416 12.418700218200684 -15.035200119018555
-7.317770004272461 8.301659584045410 -15.030200004577637
-6.382770061492920 7.583660125732422 -15.036199569702148
-6.866769790649414 8.481659889221191 -15.045200347900391
-7.283770084381104 7.065659999847412 -15.040200233459473
-6.569769859313965 8.242659568786621 -15.053199768066406
-7.012770175933838 7.398660182952881 -15.050200462341309
-6.412769794464111 8.083660125732422 -15.062199592590332
-6.791769981384277 7.546659946441650 -15.058199882507324
-7.902770042419434 12.213700294494629 -15.064200401306152
-7.703770160675049 12.171699523925781 -15.075200080871582
-7.346769809722900 7.786660194396973 -15.066200256347656
-7.686769962310791 11.907699584960937 -15.076199531555176
-8.181770324707031 12.732700347900391 -15.075200080871582
-7.267769813537598 8.020660400390625 -15.098199844360352
-6.972770214080811 8.311659812927246 -15.105199813842773
-8.039770126342773 12.356699943542480 -15.108200073242188
-7.293769836425781 7.572659969329834 -15.105199813842773
-7.158770084381104 8.202650070190430 -15.109199523925781
-7.538770198822022 12.066699981689453 -15.118200302124023
-7.481770038604736 7.043660163879395 -15.114199638366699
-7.825769901275635 12.421699523925781 -15.129199981689453
-6.769770145416260 8.229660034179688 -15.127200126647949
-8.527770042419434 12.911700248718262 -15.127200126647949
-8.394769668579102 12.674699783325195 -15.138199806213379
-8.179770469665527 12.509699821472168 -15.177200317382813
-6.459770202636719 7.444660186767578 -15.182200431823730
-6.682769775390625 8.039660453796387 -15.188199996948242
-6.364769935607910 7.746660232543945 -15.190199851989746
-7.183770179748535 7.788660049438477 -15.190199851989746
-7.091770172119141 7.976659774780273 -15.192199707031250
-6.517769813537598 7.923659801483154 -15.197199821472168
-7.274769783020020 7.329659938812256 -15.190199851989746
-6.946770191192627 8.115659713745117 -15.195199966430664
-6.667769908905029 7.430659770965576 -15.196200370788574
-8.253769874572754 12.883700370788574 -15.199199676513672
-8.038769721984863 12.788700103759766 -15.207200050354004
-6.858769893646240 7.357659816741943 -15.217200279235840
-7.963769912719727 12.576700210571289 -15.227199554443359
-7.035769939422607 7.160649776458740 -15.236200332641602
-8.623769760131836 13.071700096130371 -15.244199752807617
-7.138770103454590 7.601659774780273 -15.253199577331543
-6.872769832611084 7.932660102844238 -15.257200241088867
-7.362770080566406 7.119659900665283 -15.260199546813965
-7.188769817352295 7.018660068511963 -15.283200263977051
-8.398770332336426 13.008700370788574 -15.294199943542480
-7.010769844055176 7.768660068511963 -15.292200088500977
-8.432769775390625 12.806699752807617 -15.302200317382813
-8.275770187377930 12.677700042724609 -15.304200172424316
-6.693769931793213 7.810659885406494 -15.316200256347656
-6.381770133972168 7.589660167694092 -15.327199935913086
-7.539770126342773 6.937660217285156 -15.340200424194336
-7.143770217895508 7.299650192260742 -15.352199554443359
-6.572770118713379 7.296659946441650 -15.369199752807617
-7.035769939422607 7.480649948120117 -15.380200386047363
-6.933770179748535 7.260660171508789 -15.381199836730957
-8.108770370483398 12.741700172424316 -15.395199775695801
-8.729769706726074 13.255700111389160 -15.409199714660645
-7.007770061492920 7.032660007476807 -15.410200119018555
-6.706769943237305 7.608660221099854 -15.425200462341309
-8.502770423889160 12.943699836730957 -15.452199935913086
-8.295769691467285 12.834699630737305 -15.454199790954590
-7.255770206451416 7.115660190582275 -15.451199531555176
-6.757770061492920 7.187660217285156 -15.459199905395508
-7.249770164489746 6.852660179138184 -15.459199905395508
-8.659770011901856 13.069700241088867 -15.474200248718262
-7.497769832611084 6.741660118103027 -15.472200393676758
-6.551770210266113 7.493659973144531 -15.484199523925781
-8.333769798278809 13.060700416564941 -15.496199607849121
-7.399769783020020 6.980649948120117 -15.493200302124023
-6.852769851684570 7.448659896850586 -15.502200126647949
-7.054769992828369 6.861660003662109 -15.504199981689453
-8.141770362854004 13.000699996948242 -15.531200408935547
-7.083769798278809 7.187660217285156 -15.524200439453125
-6.426770210266113 7.281660079956055 -15.537199974060059
-7.451769828796387 6.550660133361816 -15.551199913024902
-6.881770133972168 6.959650039672852 -15.568200111389160
-8.861769676208496 13.302700042724609 -15.577199935913086
-7.163770198822022 6.711659908294678 -15.580200195312500
-6.696770191192627 7.334650039672852 -15.594200134277344
-6.897769927978516 7.208660125732422 -15.616200447082520
-7.246769905090332 6.999660015106201 -15.626199722290039
-8.523770332336426 13.067700386047363 -15.643199920654297
-7.364769935607910 6.795660018920898 -15.652199745178223
-6.559770107269287 7.202650070190430 -15.666199684143066
-6.729770183563232 7.094659805297852 -15.715200424194336
-8.436770439147949 13.230699539184570 -15.727199554443359
-8.702770233154297 13.185700416564941 -15.771200180053711
-7.015769958496094 6.978660106658936 -15.768199920654297
-6.892769813537598 6.651659965515137 -15.769200325012207
-7.191770076751709 6.869659900665283 -15.768199920654297
-8.916769981384277 13.261699676513672 -15.773200035095215
-7.247769832611084 6.675660133361816 -15.768199920654297
-6.624770164489746 6.622660160064697 -15.782199859619141
-6.600769996643066 6.909659862518311 -15.805199623107910
-7.021770000457764 6.501659870147705 -15.805199623107910
-6.815770149230957 6.935659885406494 -15.813199996948242
-8.728770256042481 13.376700401306152 -15.826199531555176
-6.794769763946533 6.498660087585449 -15.868200302124023
-6.563769817352295 6.419660091400147 -15.877200126647949
-8.553770065307617 13.282699584960938 -15.881199836730957
-9.034770011901856 13.404700279235840 -15.878199577331543
-7.124770164489746 6.247660160064697 -15.904199600219727
-6.949769973754883 6.820650100708008 -15.912199974060059
-7.189770221710205 6.465660095214844 -15.928199768066406
-7.108769893646240 6.685659885406494 -15.930199623107910
-6.707769870758057 6.728660106658936 -15.954199790954590
-6.961770057678223 6.366660118103027 -15.962200164794922
-8.866769790649414 13.310700416564941 -15.973199844360352
-6.562769889831543 6.248660087585449 -16.002199172973633
-6.761769771575928 6.208660125732422 -16.013200759887695
-7.301770210266113 6.208660125732422 -16.013200759887695
-6.632770061492920 6.018660068511963 -16.034200668334961
-6.898769855499268 6.667650222778320 -16.040199279785156
-8.735770225524902 13.453700065612793 -16.047199249267578
-6.678770065307617 6.544660091400147 -16.052200317382812
-9.141770362854004 13.454700469970703 -16.065200805664062
-7.005770206451416 6.153649806976318 -16.075199127197266
-8.941769599914551 13.464699745178223 -16.095199584960937
-6.824769973754883 6.015659809112549 -16.124200820922852
-7.129769802093506 6.402659893035889 -16.133199691772461
-7.037769794464111 6.582660198211670 -16.158199310302734
-6.839769840240479 6.494659900665283 -16.162200927734375
-6.729770183563232 6.238659858703613 -16.213199615478516
-7.064770221710205 5.995659828186035 -16.211200714111328
-7.344769954681397 6.128660202026367 -16.221200942993164
-9.054770469665527 13.375699996948242 -16.246200561523437
-9.230770111083984 13.503700256347656 -16.248199462890625
-6.882770061492920 5.863659858703613 -16.251199722290039
-7.175769805908203 6.232659816741943 -16.253200531005859
-7.000770092010498 6.402659893035889 -16.296199798583984
-6.784770011901856 5.702650070190430 -16.337200164794922
-6.840769767761231 6.126659870147705 -16.354200363159180
-7.255770206451416 6.116660118103027 -16.414199829101563
-9.361769676208496 13.497699737548828 -16.419200897216797
-9.182769775390625 13.399700164794922 -16.434200286865234
-6.983769893646240 6.238659858703613 -16.439199447631836
-7.442770004272461 6.048659801483154 -16.444200515747070
-6.943769931793213 6.045660018920898 -16.526199340820312
-9.489769935607910 13.494700431823730 -16.592199325561523
-7.118770122528076 6.169660091400147 -16.594200134277344
-6.915770053863525 5.781660079956055 -16.601200103759766
-7.023769855499268 5.909659862518311 -16.712200164794922
-9.590769767761231 13.459699630737305 -16.764200210571289
-7.182769775390625 6.013659954071045 -16.790199279785156
-9.707770347595215 13.545700073242188 -16.919200897216797
