ply
format ascii 1.0
element vertex 827
property double x
property double y
property double z
end_header
-0.930769026279449 9.539660453796387 -4.559189796447754
-1.990769982337952 9.518659591674805 -4.471189975738525
-1.788769960403442 9.570650100708008 -4.486189842224121
-1.283769965171814 9.617659568786621 -4.507190227508545
-2.324769973754883 9.369660377502441 -4.510190010070801
-1.435770034790039 9.478659629821777 -4.521190166473389
-1.124770045280457 9.493659973144531 -4.535190105438232
-1.645769953727722 9.441659927368164 -4.546189785003662
-0.930769026279449 9.539660453796387 -4.559189796447754
-2.098769903182983 9.359660148620606 -4.554190158843994
-1.607769966125488 9.652660369873047 -4.576189994812012
-0.570767998695374 9.590660095214844 -4.599190235137940
-2.165770053863525 9.556650161743164 -4.605189800262451
-0.214769005775452 9.710659980773926 -4.627190113067627
-1.831769943237305 9.392660140991211 -4.628190040588379
-2.559770107269287 9.216650009155273 -4.635190010070801
-1.944769978523254 9.639650344848633 -4.643189907073975
-0.738767027854919 9.489660263061523 -4.653190135955811
0.066233098506927 9.801659584045410 -4.662189960479736
-2.311769962310791 9.216650009155273 -4.649189949035645
-0.422769010066986 9.713660240173340 -4.673190116882324
-2.452769994735718 9.397660255432129 -4.666190147399902
-1.391770005226135 9.686659812927246 -4.694190025329590
-0.794767022132874 9.707659721374512 -4.699190139770508
-1.533769965171814 9.394659996032715 -4.705190181732178
-0.997766017913818 9.710659980773926 -4.715189933776856
-1.996770024299622 9.324660301208496 -4.723189830780029
-1.284770011901856 9.424650192260742 -4.730189800262451
-0.424768000841141 9.515660285949707 -4.753190040588379
-0.597768008708954 9.761659622192383 -4.767189979553223
-1.777770042419434 9.683659553527832 -4.762189865112305
-0.960766971111298 9.455659866333008 -4.769189834594727
-0.098767898976803 9.775659561157227 -4.777190208435059
-1.189769983291626 9.688650131225586 -4.773190021514893
-2.522769927978516 9.058659553527832 -4.773190021514893
-2.295769929885864 9.543660163879395 -4.778190135955811
0.400233000516891 9.753660202026367 -4.802189826965332
-2.698770046234131 9.162659645080566 -4.782189846038818
-1.573770046234131 9.660650253295898 -4.799190044403076
-2.607769966125488 9.342659950256348 -4.796189785003662
0.087232999503613 9.640660285949707 -4.818190097808838
-2.115770101547241 9.624659538269043 -4.814189910888672
0.213231995701790 9.821660041809082 -4.834189891815186
-0.716768026351929 9.911660194396973 -4.834189891815186
-2.160769939422607 9.233659744262695 -4.828189849853516
-2.709769964218140 8.955659866333008 -4.824190139770508
-0.612767994403839 9.493659973144531 -4.843190193176270
-0.249769002199173 9.550660133361816 -4.851190090179443
-2.914769887924194 8.878660202026367 -4.834189891815186
-0.914770007133484 9.851659774780273 -4.860189914703369
-1.137770056724548 9.437660217285156 -4.865190029144287
-3.113770008087158 8.935660362243652 -4.856190204620361
-2.349770069122315 9.124659538269043 -4.867189884185791
0.460229992866516 9.945650100708008 -4.896190166473389
-0.301766991615295 9.805660247802734 -4.891190052032471
-1.845770001411438 9.353659629821777 -4.892189979553223
-1.935770034790039 10.307700157165527 -4.898190021514893
-0.501767992973328 9.915659904479981 -4.909190177917481
-3.316770076751709 8.873660087585449 -4.886189937591553
-0.805769026279449 9.488659858703613 -4.913189888000488
-1.955770015716553 9.754659652709961 -4.909190177917481
-1.354769945144653 9.696660041809082 -4.918190002441406
0.654229998588562 9.969659805297852 -4.946189880371094
-1.382769942283630 9.423660278320313 -4.931190013885498
-0.068769097328186 9.563650131225586 -4.942190170288086
-2.842770099639893 9.165659904479981 -4.922190189361572
-1.723770022392273 9.779660224914551 -4.939189910888672
0.713231980800629 9.732660293579102 -4.958189964294434
0.907232999801636 9.815660476684570 -4.964190006256104
-0.158768996596336 9.937660217285156 -4.957190036773682
-2.154769897460938 10.284700393676758 -4.951189994812012
0.271230995655060 9.963660240173340 -4.973189830780029
-1.653769969940186 9.386659622192383 -4.963190078735352
-2.373769998550415 9.604660034179688 -4.962190151214600
-0.631769001483917 10.056699752807617 -4.977190017700195
-1.762770056724548 10.215700149536133 -4.971189975738525
-1.511770009994507 9.823659896850586 -4.973189830780029
-1.172770023345947 9.834650039672852 -4.977190017700195
-3.516769886016846 8.882659912109375 -4.959189891815186
0.519231975078583 9.654660224914551 -4.993189811706543
-2.044770002365112 10.100700378417969 -4.977190017700195
-2.742769956588745 9.354660034179688 -4.973189830780029
0.322234004735947 9.601659774780273 -4.997189998626709
-2.562769889831543 9.522660255432129 -4.979189872741699
0.041231501847506 9.944660186767578 -5.001190185546875
-2.350769996643066 10.321700096130371 -4.994190216064453
-0.326768010854721 10.038700103759766 -5.010190010070801
-0.986768007278442 9.492659568786621 -5.007190227508545
-3.045769929885864 8.800660133361816 -4.991189956665039
-0.403768002986908 9.530659675598145 -5.014190196990967
-1.572769999504089 10.276700019836426 -5.009190082550049
-1.643769979476929 9.968660354614258 -5.014190196990967
-2.195770025253296 9.766659736633301 -5.017189979553223
-2.812769889831543 8.875659942626953 -5.012189865112305
-1.850769996643066 9.963660240173340 -5.022190093994141
-1.440770030021668 10.102700233459473 -5.028190135955811
-3.137769937515259 9.068659782409668 -5.014190196990967
-2.170769929885864 9.206660270690918 -5.028190135955811
-3.707770109176636 8.807660102844238 -5.016190052032471
0.133230999112129 9.534660339355469 -5.048190116882324
-2.585769891738892 8.981659889221191 -5.027190208435059
-0.839769005775452 10.039699554443359 -5.044189929962158
-1.985769987106323 9.308659553527832 -5.034190177917481
-0.458768010139465 10.186699867248535 -5.048190116882324
-1.359770059585571 10.290699958801270 -5.049190044403076
-1.220770001411438 10.067700386047363 -5.053190231323242
-2.225769996643066 10.036700248718262 -5.048190116882324
-0.987767994403839 9.868659973144531 -5.058189868927002
-1.185770034790039 9.490659713745117 -5.061190128326416
-0.659768998622894 10.252699851989746 -5.067190170288086
-1.024770021438599 10.116700172424316 -5.073190212249756
-3.357769966125488 9.000659942626953 -5.055190086364746
-3.017770051956177 9.223649978637695 -5.059189796447754
-0.615765988826752 9.540659904479981 -5.078189849853516
-1.347769975662231 9.871660232543945 -5.079189777374268
-2.033770084381104 9.886659622192383 -5.078189849853516
-3.440769910812378 8.732660293579102 -5.070189952850342
-2.410769939422607 9.073659896850586 -5.087190151214600
0.843232989311218 9.934659957885742 -5.113190174102783
-1.491770029067993 9.457659721374512 -5.097189903259277
-2.437769889831543 10.098699569702148 -5.094190120697022
0.405234009027481 10.019700050354004 -5.115190029144287
-1.115769982337952 10.315699577331543 -5.105189800262451
1.047230005264282 9.725660324096680 -5.122189998626709
1.219230055809021 9.852660179138184 -5.124189853668213
-0.859768986701965 10.287699699401855 -5.111189842224121
0.142232999205589 10.077699661254883 -5.129189968109131
-0.235769003629684 9.558659553527832 -5.125189781188965
0.846231997013092 9.635660171508789 -5.137189865112305
-0.179768994450569 10.122699737548828 -5.132190227508545
-2.501770019531250 9.660650253295898 -5.115190029144287
-2.528769969940186 10.277700424194336 -5.117189884185791
-0.314767003059387 10.321700096130371 -5.134190082550049
-0.520769000053406 10.417699813842773 -5.151189804077148
-2.694770097732544 9.497659683227539 -5.134190082550049
-3.875770092010498 8.857660293579102 -5.125189781188965
-2.876770019531250 9.383660316467285 -5.139190196990967
-0.035768099129200 9.552659988403320 -5.161190032958984
-2.324769973754883 9.835659980773926 -5.159190177917481
-3.210769891738892 8.730649948120117 -5.150189876556397
-3.656769990921021 8.947660446166992 -5.150189876556397
-0.793767988681793 9.597660064697266 -5.176189899444580
0.589232027530670 10.007699966430664 -5.196189880371094
0.405234009027481 9.561659812927246 -5.206190109252930
-1.880769968032837 9.402660369873047 -5.194190025329590
-1.313770055770874 9.570650100708008 -5.199190139770508
-2.517770051956177 9.891659736633301 -5.194190025329590
1.413229942321777 9.827650070190430 -5.224190235137940
-3.601769924163818 8.688650131225586 -5.187190055847168
-2.919770002365112 8.818659782409668 -5.196189880371094
-3.236769914627075 9.151659965515137 -5.196189880371094
-2.642770051956177 10.110699653625488 -5.204189777374268
-2.085769891738892 9.262660026550293 -5.207190036773682
1.045230031013489 9.903650283813477 -5.241189956665039
-0.410768002271652 9.627659797668457 -5.237189769744873
-1.117769956588745 9.638660430908203 -5.234189987182617
0.650232970714569 9.575659751892090 -5.247189998626709
-2.272769927978516 9.149660110473633 -5.225190162658691
-2.712769985198975 8.905659675598145 -5.224190235137940
-1.702769994735718 9.498660087585449 -5.235189914703369
-3.483769893646240 9.069660186767578 -5.222189903259277
0.307229995727539 10.129699707031250 -5.255189895629883
-0.006768799852580 10.198699951171875 -5.259190082550049
1.294229984283447 9.669659614562988 -5.280189990997315
-2.724770069122315 9.893659591674805 -5.257190227508545
0.128233000636101 9.582659721374512 -5.281189918518066
-0.615765988826752 9.653650283813477 -5.280189990997315
-4.016769886016846 8.790659904479981 -5.253190040588379
-2.497770071029663 9.020660400390625 -5.265190124511719
-3.088769912719727 9.316659927368164 -5.263189792633057
0.765231013298035 9.986660003662109 -5.296189785003662
-0.922769010066986 9.731659889221191 -5.287189960479736
-2.815769910812378 9.571660041809082 -5.278190135955811
-3.398770093917847 8.662659645080566 -5.273190021514893
-1.514770030975342 9.574660301208496 -5.290190219879150
-2.625770092010498 9.713660240173340 -5.285190105438232
-3.799770116806030 8.664660453796387 -5.281189918518066
0.925230026245117 9.592659950256348 -5.318190097808838
-3.553770065307617 10.123700141906738 -5.287189960479736
-2.826770067214966 10.079700469970703 -5.293190002441406
-1.079769968986511 9.854660034179688 -5.324190139770508
-2.913769960403442 9.834650039672852 -5.312190055847168
-2.725769996643066 10.301699638366699 -5.323190212249756
-3.021770000457764 9.522660255432129 -5.324190139770508
-3.300770044326782 9.673660278320313 -5.346189975738525
1.161229968070984 9.812660217285156 -5.381189823150635
-1.310770034790039 9.859660148620606 -5.364190101623535
-3.067770004272461 10.055700302124023 -5.356190204620361
-3.203769922256470 9.908659934997559 -5.355189800262451
-1.183769941329956 10.029700279235840 -5.372189998626709
-0.962765991687775 10.133700370788574 -5.375189781188965
-3.254770040512085 9.470660209655762 -5.366189956665039
1.479230046272278 9.528650283813477 -5.407189846038818
-3.107769966125488 9.724659919738770 -5.376190185546875
-2.924770116806030 10.257699966430664 -5.379189968109131
-1.410770058631897 10.087699890136719 -5.393189907073975
1.125229954719544 9.562660217285156 -5.414189815521240
0.603232026100159 10.105699539184570 -5.412189960479736
1.934229969978333 9.485659599304199 -5.421189785003662
-3.400769948959351 9.985659599304199 -5.385190010070801
1.565230011940002 9.717659950256348 -5.423190116882324
-0.765767991542816 9.978659629821777 -5.407189846038818
-0.050767499953508 9.647660255432129 -5.412189960479736
0.265231013298035 9.646650314331055 -5.415190219879150
-0.042768098413944 10.326700210571289 -5.417190074920654
-0.262769013643265 9.690660476684570 -5.414189815521240
-0.642767012119293 9.818659782409668 -5.412189960479736
-1.475769996643066 9.734660148620606 -5.408189773559570
-1.988770008087158 9.322660446166992 -5.407189846038818
2.118230104446411 9.377659797668457 -5.444190025329590
-3.710769891738892 10.080699920654297 -5.404190063476563
-3.594769954681397 9.911660194396973 -5.405189990997315
0.172232002019882 10.273699760437012 -5.435190200805664
0.748232007026672 9.620659828186035 -5.440189838409424
-3.236769914627075 10.164699554443359 -5.413189888000488
0.505231976509094 9.655659675598145 -5.439189910888672
-3.753770112991333 8.966650009155273 -5.409190177917481
-1.803769946098328 9.530659675598145 -5.427189826965332
-2.953769922256470 8.782659530639648 -5.420189857482910
-3.950769901275635 8.607660293579102 -5.417190074920654
-3.342770099639893 9.242659568786621 -5.425189971923828
0.977231979370117 9.889650344848633 -5.459189891815186
-3.500770092010498 9.113659858703613 -5.425189971923828
-4.122769832611084 8.812660217285156 -5.428190231323242
0.393233001232147 10.200699806213379 -5.465189933776856
1.750229954719544 9.596659660339356 -5.475190162658691
-3.555769920349121 8.624659538269043 -5.436190128326416
1.357229948043823 9.704660415649414 -5.480189800262451
-2.634769916534424 8.939660072326660 -5.458189964294434
-3.478770017623901 9.686659812927246 -5.454189777374268
-0.455765992403030 9.809659957885742 -5.484189987182617
-1.537770032882690 9.940660476684570 -5.479189872741699
-2.271770000457764 9.121660232543945 -5.473189830780029
-3.249769926071167 8.683659553527832 -5.466189861297607
-2.458770036697388 9.032659530639648 -5.480189800262451
-0.561769008636475 9.980649948120117 -5.506189823150635
2.317229986190796 9.402660369873047 -5.526189804077148
1.803230047225952 9.306650161743164 -5.523190021514893
-3.441770076751709 9.447660446166992 -5.490190029144287
0.952230989933014 9.623660087585449 -5.524189949035645
1.634230017662048 9.413660049438477 -5.529190063476563
-1.662770032882690 9.673660278320313 -5.515190124511719
-3.960769891738892 8.929659843444824 -5.500189781188965
0.752233982086182 10.010700225830078 -5.539189815521240
2.003230094909668 9.235659599304199 -5.552189826965332
0.031233200803399 10.180700302124023 -5.546189785003662
1.287230014801025 9.484660148620606 -5.556190013885498
-3.740770101547241 8.583660125732422 -5.518189907073975
0.339231997728348 9.784660339355469 -5.555190086364746
0.816232979297638 9.765660285949707 -5.563189983367920
-4.114769935607910 8.551659584045410 -5.524189949035645
0.587233006954193 9.803660392761231 -5.566189765930176
1.128229975700378 9.741660118103027 -5.573190212249756
2.204230070114136 9.235659599304199 -5.585189819335938
2.434230089187622 9.216650009155273 -5.588190078735352
0.123231999576092 9.725660324096680 -5.573190212249756
0.467229992151260 9.990659713745117 -5.578189849853516
0.249231994152069 10.066699981689453 -5.578189849853516
-3.664769887924194 9.784660339355469 -5.550189971923828
-3.592770099639893 10.249699592590332 -5.560190200805664
-3.652770042419434 9.068659782409668 -5.559189796447754
-4.236770153045654 8.704660415649414 -5.573190212249756
-3.407769918441773 8.633660316467285 -5.592189788818359
-3.607769966125488 9.575659751892090 -5.595190048217773
-4.302770137786865 8.465660095214844 -5.607190132141113
-3.606770038604736 9.373660087585449 -5.615190029144287
-3.825769901275635 9.968660354614258 -5.638189792633057
-4.132770061492920 8.868659973144531 -5.648190021514893
-3.930769920349121 8.503660202026367 -5.668190002441406
-3.706769943237305 9.217659950256348 -5.702189922332764
-3.618769884109497 8.567660331726074 -5.702189922332764
-4.125770092010498 8.444660186767578 -5.700190067291260
-3.687769889831543 10.149700164794922 -5.710189819335938
-3.832770109176636 8.954660415649414 -5.709189891815186
-3.782769918441773 9.675660133361816 -5.761189937591553
-3.695770025253296 9.488659858703613 -5.764190196990967
-4.287769794464111 8.607660293579102 -5.772190093994141
-4.342770099639893 8.408659934997559 -5.807189941406250
-3.876770019531250 9.898659706115723 -5.819190025329590
-4.009769916534424 8.959650039672852 -5.838190078735352
-3.753770112991333 8.475660324096680 -5.845190048217773
-3.857769966125488 9.150659561157227 -5.851190090179443
-3.946769952774048 8.391659736633301 -5.851190090179443
-4.225769996643066 8.802659988403320 -5.858190059661865
-3.745769977569580 10.042699813842773 -5.884190082550049
-3.623769998550415 10.211700439453125 -5.903190135955811
-4.171770095825195 8.310660362243652 -5.904190063476563
-3.849770069122315 9.555660247802734 -5.911190032958984
-3.934770107269287 9.738659858703613 -5.945189952850342
-3.757770061492920 9.292650222778320 -5.964190006256104
-4.350769996643066 8.356659889221191 -6.003190040588379
-3.959769964218140 9.075659751892090 -6.014190196990967
-4.328770160675049 8.689660072326660 -6.019189834594727
-3.916769981384277 9.409660339355469 -6.034190177917481
-4.105770111083984 8.934659957885742 -6.041190147399902
-4.042769908905029 8.250659942626953 -6.047190189361572
-3.888770103454590 9.930660247802734 -6.067190170288086
-4.036769866943359 9.582659721374512 -6.076189994812012
-3.688770055770874 10.006699562072754 -6.103189945220947
-4.413770198822022 8.540659904479981 -6.122189998626709
-4.231770038604736 8.822660446166992 -6.157189846038818
-4.007770061492920 9.757659912109375 -6.178190231323242
-4.262770175933838 8.179659843444824 -6.195189952850342
-4.057769775390625 9.417650222778320 -6.202189922332764
-4.431769847869873 8.310660362243652 -6.204189777374268
-3.771770000457764 9.857660293579102 -6.285190105438232
-4.100769996643066 9.186659812927246 -6.282189846038818
-3.571769952774048 9.932660102844238 -6.291190147399902
-4.085770130157471 9.599659919738770 -6.290190219879150
-4.095769882202148 8.156660079956055 -6.335189819335938
-4.418769836425781 8.623660087585449 -6.338190078735352
-4.308770179748535 8.801659584045410 -6.357190132141113
-4.480770111083984 8.432660102844238 -6.363190174102783
-4.159770011901856 8.971659660339356 -6.374189853668213
-3.969769954681397 9.786660194396973 -6.396190166473389
-4.414770126342773 8.180660247802734 -6.403190135955811
-4.237770080566406 9.241660118103027 -6.418190002441406
-4.164770126342773 9.445650100708008 -6.438189983367920
-4.093770027160645 9.642660140991211 -6.489190101623535
-4.211770057678223 8.101659774780273 -6.491189956665039
-3.738770008087158 9.735659599304199 -6.513189792633057
-4.475769996643066 8.687660217285156 -6.524189949035645
-4.004769802093506 8.123660087585449 -6.539189815521240
-4.339769840240479 9.114660263061523 -6.543190002441406
-4.563769817352295 8.436659812927246 -6.555190086364746
-4.375770092010498 8.866660118103027 -6.558189868927002
-4.509769916534424 8.221659660339356 -6.582190036773682
-3.923769950866699 9.710659980773926 -6.592189788818359
-4.265769958496094 9.353659629821777 -6.600190162658691
-4.608769893646240 8.612660408020020 -6.674190044403076
-4.426770210266113 9.221659660339356 -6.691189765930176
-4.184770107269287 9.618659973144531 -6.702189922332764
-4.241769790649414 8.039660453796387 -6.701189994812012
-3.761770009994507 9.626660346984863 -6.711190223693848
-4.696770191192627 8.406660079956055 -6.715189933776856
-4.024769783020020 8.067660331726074 -6.730189800262451
-4.507770061492920 8.897660255432129 -6.736189842224121
-3.996769905090332 9.638660430908203 -6.778190135955811
-4.349770069122315 9.484660148620606 -6.787189960479736
-4.608769893646240 8.199660301208496 -6.794189929962158
-4.420770168304443 8.058659553527832 -6.795189857482910
-4.776770114898682 8.570650100708008 -6.816189765930176
-4.500770092010498 9.360659599304199 -6.832190036773682
-4.551770210266113 9.090660095214844 -6.833189964294434
-4.589769840240479 8.727660179138184 -6.840189933776856
-4.692770004272461 8.896650314331055 -6.890190124511719
-4.146770000457764 7.984660148620606 -6.909190177917481
-4.807769775390625 8.395660400390625 -6.911190032958984
-4.225769996643066 9.566659927368164 -6.949190139770508
-4.561769962310791 8.058659553527832 -6.945189952850342
-4.012770175933838 9.535650253295898 -6.963190078735352
-4.347770214080811 7.982659816741943 -6.966189861297607
-4.717770099639893 8.185660362243652 -6.969190120697022
-4.786769866943359 8.710659980773926 -6.972189903259277
-4.648769855499268 9.317660331726074 -6.977190017700195
-4.729770183563232 9.096659660339356 -6.979189872741699
-4.537769794464111 9.500659942626953 -7.000189781188965
-4.862770080566406 8.919659614562988 -7.021190166473389
-4.952770233154297 9.122659683227539 -7.031189918518066
-4.902770042419434 8.540659904479981 -7.034190177917481
-4.969769954681397 8.741660118103027 -7.078189849853516
-4.367770195007324 9.579660415649414 -7.112189769744873
-5.146770000457764 8.955659866333008 -7.107190132141113
-4.721769809722900 9.451660156250000 -7.112189769744873
-4.888770103454590 9.322660446166992 -7.111189842224121
-4.168769836425781 7.985660076141357 -7.118189811706543
-5.141769886016846 9.181650161743164 -7.122189998626709
-4.467770099639893 7.990660190582275 -7.131189823150635
-4.671770095825195 8.070650100708008 -7.134190082550049
-4.945769786834717 8.370659828186035 -7.141190052032471
-4.866769790649414 8.182660102844238 -7.172190189361572
-5.041769981384277 8.573659896850586 -7.176189899444580
-5.203770160675049 8.781660079956055 -7.192190170288086
-4.489769935607910 9.449660301208496 -7.214190006256104
-5.312769889831543 9.176659584045410 -7.235189914703369
-5.333769798278809 8.974659919738770 -7.235189914703369
-5.041769981384277 9.353659629821777 -7.248189926147461
-4.867770195007324 9.460659980773926 -7.263189792633057
-4.287769794464111 7.953660011291504 -7.277190208435059
-5.536769866943359 9.146650314331055 -7.274189949035645
-4.046770095825195 8.042650222778320 -7.283189773559570
-5.396770000457764 8.784660339355469 -7.298190116882324
-5.140769958496094 8.456660270690918 -7.308189868927002
-4.995769977569580 8.250659942626953 -7.310190200805664
-5.303770065307617 8.605649948120117 -7.310190200805664
-5.538770198822022 8.947660446166992 -7.313189983367920
-4.552770137786865 7.966650009155273 -7.334189891815186
-4.684770107269287 9.411660194396973 -7.342189788818359
-4.809770107269287 8.084650039672852 -7.360189914703369
-5.228769779205322 9.315660476684570 -7.363190174102783
-5.583769798278809 8.709650039672852 -7.380189895629883
-5.463769912719727 8.519659996032715 -7.416190147399902
-5.695769786834717 8.882659912109375 -7.427189826965332
-4.779769897460938 9.557660102844238 -7.448190212249756
-5.420770168304443 9.216650009155273 -7.449190139770508
-5.142769813537598 8.278650283813477 -7.449190139770508
-4.399769783020020 7.925660133361816 -7.462190151214600
-4.999770164489746 8.082659721374512 -7.465189933776856
-4.164770126342773 8.022660255432129 -7.471189975738525
-5.350769996643066 8.359660148620606 -7.474190235137940
-5.556769847869873 9.069660186767578 -7.480189800262451
-4.712769985198975 7.924650192260742 -7.501190185546875
-5.095769882202148 9.407659530639648 -7.503190040588379
-5.707769870758057 8.577650070190430 -7.503190040588379
-4.962769985198975 9.564660072326660 -7.532189846038818
-5.541769981384277 8.364660263061523 -7.544189929962158
-5.886769771575928 8.674650192260742 -7.564189910888672
-5.280769824981690 9.272660255432129 -7.589190006256104
-5.224770069122315 8.159660339355469 -7.589190006256104
-4.550769805908203 7.795660018920898 -7.605189800262451
-5.085770130157471 7.968659877777100 -7.618189811706543
-5.741769790649414 8.804659843444824 -7.619190216064453
-4.044769763946533 8.086660385131836 -7.637189865112305
-4.876770019531250 7.857659816741943 -7.633190155029297
-5.426770210266113 8.206660270690918 -7.630189895629883
-5.424769878387451 9.138660430908203 -7.637189865112305
-5.772769927978516 8.435660362243652 -7.634190082550049
-5.597770214080811 8.932660102844238 -7.677189826965332
-4.245769977569580 7.965660095214844 -7.696189880371094
-4.730770111083984 7.738659858703613 -7.712190151214600
-5.660769939422607 8.262660026550293 -7.709189891815186
-5.046770095825195 9.451660156250000 -7.721189975738525
-4.407770156860352 7.777659893035889 -7.745190143585205
-5.818769931793213 8.609660148620606 -7.743189811706543
-5.361770153045654 8.002659797668457 -7.770189762115479
-5.178770065307617 9.287659645080566 -7.781189918518066
-5.186769962310791 7.862659931182861 -7.807189941406250
-4.990769863128662 7.764649868011475 -7.817190170288086
-5.456769943237305 8.997659683227539 -7.818190097808838
-5.542769908905029 8.111660003662109 -7.818190097808838
-5.309770107269287 9.135660171508789 -7.829189777374268
-5.668769836425781 8.764650344848633 -7.827189922332764
-5.850769996643066 8.401659965515137 -7.828189849853516
-4.568769931793213 7.655660152435303 -7.858190059661865
-6.084770202636719 8.414660453796387 -7.871190071105957
-5.754769802093506 8.192660331726074 -7.893189907073975
-5.422770023345947 7.850659847259522 -7.928190231323242
-5.255770206451416 7.745659828186035 -7.980189800262451
-5.054769992828369 7.672659873962402 -7.987189769744873
-5.731770038604736 8.610659599304199 -7.995190143585205
-5.462769985198975 8.877659797668457 -8.008190155029297
-5.946770191192627 8.257659912109375 -8.010190010070801
-4.704770088195801 7.667650222778320 -8.020190238952637
-5.586770057678223 7.917650222778320 -8.025190353393555
-5.895770072937012 8.472660064697266 -8.042189598083496
-5.577770233154297 8.718660354614258 -8.070190429687500
-6.150770187377930 8.397660255432129 -8.066189765930176
-5.843770027160645 8.014650344848633 -8.074190139770508
-5.527770042419434 7.731659889221191 -8.104189872741699
-5.176770210266113 7.606659889221191 -8.151189804077148
-4.895770072937012 7.613659858703613 -8.155190467834473
-5.723770141601563 7.822659969329834 -8.168190002441406
-6.059770107269287 8.219659805297852 -8.175189971923828
-5.741769790649414 8.544659614562988 -8.192190170288086
-6.001770019531250 8.444660186767578 -8.217189788818359
-5.383769989013672 7.604660034179688 -8.223190307617188
-5.976769924163818 8.058659553527832 -8.263190269470215
-6.178770065307617 8.341650009155273 -8.292189598083496
-5.633769989013672 7.613659858703613 -8.295189857482910
-5.903769969940186 7.872660160064697 -8.299189567565918
-5.051770210266113 7.520659923553467 -8.311189651489258
-5.813769817352295 8.458660125732422 -8.364190101623535
-5.482769966125488 7.514649868011475 -8.395190238952637
-6.117770195007324 8.143659591674805 -8.409190177917481
-5.259769916534424 7.451660156250000 -8.451189994812012
-5.812769889831543 7.572659969329834 -8.452190399169922
-6.041769981384277 7.942659854888916 -8.461190223693848
-5.969769954681397 7.750659942626953 -8.486189842224121
-6.035769939422607 8.358659744262695 -8.495189666748047
-5.641769886016846 7.414659976959229 -8.509189605712891
-6.203770160675049 8.254659652709961 -8.557189941406250
-5.417769908905029 7.399660110473633 -8.563190460205078
-5.971769809722900 7.572659969329834 -8.595190048217773
-5.125770092010498 7.462659835815430 -8.618189811706543
-5.841770172119141 8.298660278320313 -8.616189956665039
-6.151770114898682 7.853660106658936 -8.650190353393555
-5.828770160675049 7.371660232543945 -8.656189918518066
-6.167769908905029 8.058659553527832 -8.656189918518066
-6.040770053863525 8.259659767150879 -8.677189826965332
-5.584770202636719 7.312660217285156 -8.681189537048340
-5.672770023345947 8.227660179138184 -8.696189880371094
-6.229770183563232 7.605649948120117 -8.729189872741699
-6.095769882202148 7.435659885406494 -8.745189666748047
-5.865769863128662 8.151659965515137 -8.761190414428711
-6.322770118713379 7.783659934997559 -8.761190414428711
-5.208769798278809 7.589660167694092 -8.792189598083496
-5.961770057678223 7.298659801483154 -8.805190086364746
-5.504769802093506 7.987659931182861 -8.812190055847168
-5.372769832611084 7.472660064697266 -8.813190460205078
-6.492770195007324 7.882659912109375 -8.823189735412598
-6.034770011901856 8.068659782409668 -8.833189964294434
-5.725769996643066 7.964660167694092 -8.835189819335938
-5.725769996643066 7.184659957885742 -8.834190368652344
-6.248770236968994 7.986660003662109 -8.834190368652344
-6.400770187377930 7.606659889221191 -8.834190368652344
-5.405769824981690 7.802659988403320 -8.849189758300781
-6.266769886016846 7.434659957885742 -8.860190391540527
-5.627769947052002 7.797659873962402 -8.896189689636231
-5.527770042419434 7.356659889221191 -8.899189949035645
-5.563769817352295 7.603660106658936 -8.915189743041992
-5.883769989013672 7.853660106658936 -8.915189743041992
-6.095769882202148 7.888659954071045 -8.937190055847168
-6.565770149230957 7.558660030364990 -8.937190055847168
-5.912769794464111 7.107659816741943 -8.948189735412598
-6.336770057678223 7.859660148620606 -8.974189758300781
-6.127769947052002 7.221660137176514 -8.979189872741699
-6.577770233154297 7.769659996032715 -8.978190422058106
-5.767769813537598 7.588659763336182 -9.001190185546875
-5.688769817352295 7.333660125732422 -9.016189575195313
-6.480770111083984 7.336659908294678 -9.017189979553223
-5.687769889831543 6.947659969329834 -9.036190032958984
-6.182769775390625 7.727660179138184 -9.042189598083496
-5.962769985198975 7.608660221099854 -9.055190086364746
-6.304769992828369 7.255660057067871 -9.067190170288086
-5.882770061492920 6.959650039672852 -9.084190368652344
-6.415770053863525 7.710659980773926 -9.083189964294434
-6.739769935607910 7.433660030364990 -9.089189529418945
-5.874770164489746 7.422659873962402 -9.106189727783203
-6.645770072937012 7.239659786224365 -9.103190422058106
-5.788770198822022 7.134659767150879 -9.117190361022949
-6.630770206451416 7.600659847259522 -9.122190475463867
-6.578770160675049 6.982659816741943 -9.126190185546875
-6.079770088195801 6.984660148620606 -9.150190353393555
-6.439770221710205 7.128660202026367 -9.162190437316895
-6.267769813537598 7.567659854888916 -9.165189743041992
-6.075769901275635 7.469659805297852 -9.168190002441406
-6.835770130157471 7.209650039672852 -9.172189712524414
-5.963769912719727 7.247660160064697 -9.206190109252930
-6.463769912719727 7.512660026550293 -9.226189613342285
-6.268770217895508 7.012660026550293 -9.244190216064453
-6.334770202636719 6.823659896850586 -9.291190147399902
-5.934770107269287 6.889649868011475 -9.295189857482910
-6.275770187377930 6.608660221099854 -9.294190406799316
-6.939770221710205 7.329659938812256 -9.296190261840820
-6.173769950866699 7.281660079956055 -9.304189682006836
-6.123770236968994 6.795660018920898 -9.319190025329590
-6.750770092010498 7.399660110473633 -9.320190429687500
-6.104770183563232 7.089660167694092 -9.346190452575684
-6.555769920349121 7.340660095214844 -9.378190040588379
-6.361770153045654 7.259659767150879 -9.390190124511719
-7.010769844055176 7.230649948120117 -9.459190368652344
-6.275770187377930 7.070650100708008 -9.470190048217773
-6.651770114898682 7.225659847259522 -9.539190292358398
-6.192770004272461 6.830659866333008 -9.550189971923828
-6.484769821166992 7.113659858703613 -9.552189826965332
-6.848770141601563 7.294660091400147 -9.565190315246582
-6.353769779205322 6.926660060882568 -9.665189743041992
-7.023769855499268 7.258659839630127 -9.673190116882324
-6.285769939422607 6.737659931182861 -9.709190368652344
-6.978769779205322 7.057660102844238 -9.716190338134766
-6.754769802093506 7.209650039672852 -9.725190162658691
-6.597770214080811 7.070650100708008 -9.734189987182617
-6.967770099639893 6.823659896850586 -9.786190032958984
-6.472770214080811 6.894659996032715 -9.823189735412598
-6.902770042419434 7.282660007476807 -9.862190246582031
-6.393770217895508 6.701660156250000 -9.897190093994141
-6.712769985198975 7.128660202026367 -9.906189918518066
-6.610770225524902 6.931650161743164 -9.996190071105957
-6.352769851684570 6.536660194396973 -10.005200386047363
-7.060770034790039 7.187660217285156 -10.006199836730957
-6.862770080566406 7.172659873962402 -10.071200370788574
-7.024769783020020 6.984660148620606 -10.077199935913086
-6.500770092010498 6.700660228729248 -10.110199928283691
-6.740769863128662 6.967659950256348 -10.147199630737305
-7.197770118713379 6.872660160064697 -10.178199768066406
-6.430769920349121 6.492660045623779 -10.187199592590332
-6.635769844055176 6.784659862518311 -10.232199668884277
-7.156770229339600 7.060659885406494 -10.242199897766113
-6.907770156860352 7.014649868011475 -10.247200012207031
-7.347770214080811 6.993659973144531 -10.258199691772461
-6.556769847869873 6.614659786224365 -10.316200256347656
-7.332769870758057 6.804659843444824 -10.328200340270996
-6.825769901275635 6.834650039672852 -10.354200363159180
-7.056769847869873 6.918660163879395 -10.374199867248535
-7.405769824981690 6.635660171508789 -10.417200088500977
-6.723770141601563 6.679659843444824 -10.441200256347656
-7.178770065307617 6.778649806976318 -10.474200248718262
-7.415770053863525 6.405660152435303 -10.473199844360352
-6.947770118713379 6.710659980773926 -10.497200012207031
-6.633769989013672 6.514649868011475 -10.529199600219727
-7.360770225524902 6.215660095214844 -10.523200035095215
-6.830770015716553 6.553659915924072 -10.585200309753418
-7.255770206451416 6.604660034179688 -10.596199989318848
-7.450769901275635 6.541659832000732 -10.616200447082520
-7.055769920349121 6.563650131225586 -10.621199607849121
-7.372769832611084 6.019659996032715 -10.643199920654297
-7.514770030975342 6.215660095214844 -10.659199714660645
-6.725769996643066 6.399660110473633 -10.668199539184570
-7.582769870758057 6.404660224914551 -10.678199768066406
-6.944769859313965 6.391660213470459 -10.723199844360352
-7.181769847869873 6.416659832000732 -10.735199928283691
-7.383769989013672 6.404660224914551 -10.758199691772461
-7.522769927978516 5.991660118103027 -10.784199714660645
-7.655769824981690 6.212659835815430 -10.807200431823730
-7.374770164489746 6.238659858703613 -10.893199920654297
-7.564770221710205 5.825660228729248 -10.894200325012207
-7.546770095825195 6.114659786224365 -10.976200103759766
-7.676770210266113 5.966650009155273 -11.018199920654297
-7.853769779205322 5.877659797668457 -11.104200363159180
-7.856770038604736 5.894659996032715 -11.306200027465820
-7.703770160675049 6.032660007476807 -11.341199874877930
-7.890769958496094 6.060659885406494 -11.434200286865234
-7.838769912719727 5.882659912109375 -11.532199859619141
-7.849770069122315 6.108660221099854 -11.633199691772461
-7.652770042419434 6.042650222778320 -11.669199943542480
-7.784770011901856 5.737659931182861 -11.683199882507324
-7.829770088195801 5.989659786224365 -11.883199691772461
-7.786769866943359 5.782660007476807 -11.890199661254883
-7.741769790649414 5.745659828186035 -12.127200126647949
-6.128769874572754 6.242660045623779 -9.536190032958984
-6.147769927978516 6.394659996032715 -9.680190086364746
-6.067770004272461 6.096660137176514 -9.716190338134766
-6.072770118713379 5.799650192260742 -9.790189743041992
-6.238770008087158 6.539659976959229 -9.794190406799316
-6.129769802093506 6.235660076141357 -9.872190475463867
-6.180769920349121 5.670660018920898 -9.993189811706543
-6.095769882202148 6.049650192260742 -10.020199775695801
-6.217770099639893 6.220660209655762 -10.066200256347656
-6.370769977569580 5.560659885406494 -10.095199584960937
-6.010769844055176 5.884659767150879 -10.169199943542480
-6.071770191192627 5.690659999847412 -10.186200141906738
-6.193769931793213 6.075660228729248 -10.205200195312500
-6.338769912719727 6.236660003662109 -10.225199699401855
-6.238770008087158 5.554659843444824 -10.267200469970703
-6.782770156860352 5.447659969329834 -10.282199859619141
-6.430769920349121 5.480649948120117 -10.300200462341309
-6.107769966125488 5.886660099029541 -10.348199844360352
-6.331769943237305 6.098649978637695 -10.386199951171875
-6.473770141601563 6.247660160064697 -10.417200088500977
-6.608769893646240 5.415659904479981 -10.418199539184570
-6.172770023345947 5.655660152435303 -10.447199821472168
-6.846769809722900 5.361660003662109 -10.462200164794922
-6.250770092010498 5.857659816741943 -10.507200241088867
-6.297770023345947 5.561659812927246 -10.588199615478516
-6.461770057678223 6.071660041809082 -10.597200393676758
-6.584770202636719 6.231659889221191 -10.609199523925781
-6.565770149230957 5.341650009155273 -10.612199783325195
-6.973770141601563 5.277659893035889 -10.621199607849121
-7.088769912719727 5.099659919738770 -10.623200416564941
-6.765769958496094 5.316659927368164 -10.641200065612793
-6.367770195007324 5.779660224914551 -10.650199890136719
-7.244770050048828 4.959650039672852 -10.657199859619141
-6.439770221710205 5.459650039672852 -10.725199699401855
-6.554769992828369 5.952650070190430 -10.769200325012207
-6.511769771575928 5.695650100708008 -10.789199829101563
-6.651770114898682 5.240660190582275 -10.787199974060059
-7.401770114898682 4.926660060882568 -10.787199974060059
-6.677770137786865 6.165659904479981 -10.796199798583984
-6.860770225524902 5.207660198211670 -10.793199539184570
-7.012770175933838 5.059659957885742 -10.812199592590332
-6.851769924163818 6.245659828186035 -10.857199668884277
-7.214769840240479 4.963659763336182 -10.872200012207031
-6.596769809722900 5.462659835815430 -10.889200210571289
-7.054769992828369 6.193659782409668 -10.901200294494629
-6.647769927978516 5.804659843444824 -10.904199600219727
-7.562769889831543 4.964660167694092 -10.959199905395508
-6.699769973754883 5.627659797668457 -10.987199783325195
-7.229770183563232 6.129660129547119 -11.002200126647949
-6.863770008087158 5.025660037994385 -11.011199951171875
-7.360770225524902 4.981659889221191 -11.008199691772461
-7.062769889831543 4.982659816741943 -11.013199806213379
-6.746769905090332 5.996660232543945 -11.018199920654297
-6.757770061492920 5.206659793853760 -11.028200149536133
-6.732769966125488 5.434659957885742 -11.034199714660645
-6.863770008087158 6.162660121917725 -11.042200088500977
-6.781770229339600 5.796659946441650 -11.080200195312500
-7.715769767761231 5.010660171508789 -11.090200424194336
-7.054769992828369 6.096660137176514 -11.108200073242188
-7.395770072937012 6.010660171508789 -11.113200187683105
-6.832769870758057 5.578660011291504 -11.164199829101563
-7.219769954681397 4.989659786224365 -11.171199798583984
-7.461770057678223 5.037660121917725 -11.188199996948242
-6.948770046234131 4.926660060882568 -11.194199562072754
-6.816770076751709 5.299650192260742 -11.200200080871582
-7.573770046234131 5.952650070190430 -11.204199790954590
-7.217770099639893 6.006659984588623 -11.217200279235840
-6.850769996643066 5.884659767150879 -11.270199775695801
-7.862770080566406 5.036660194396973 -11.280200004577637
-7.002769947052002 6.043660163879395 -11.312199592590332
-7.644770145416260 5.048659801483154 -11.306200027465820
-7.408770084381104 5.953660011291504 -11.318200111389160
-6.877769947052002 5.456659793853760 -11.321200370788574
-6.727769851684570 5.147659778594971 -11.329199790954590
-6.785769939422607 4.953660011291504 -11.329199790954590
-6.888770103454590 5.660649776458740 -11.341199874877930
-7.088769912719727 4.958660125732422 -11.338199615478516
-7.979770183563232 5.220660209655762 -11.341199874877930
-7.307769775390625 5.041659832000732 -11.353199958801270
-7.838769912719727 5.362659931182861 -11.389200210571289
-7.157770156860352 5.958660125732422 -11.418199539184570
-6.771770000457764 5.325660228729248 -11.443200111389160
-7.522769927978516 5.082660198211670 -11.462200164794922
-7.773769855499268 5.068659782409668 -11.468199729919434
-6.910769939422607 5.962659835815430 -11.480199813842773
-6.948770046234131 4.934659957885742 -11.485199928283691
-7.535769939422607 5.972660064697266 -11.509200096130371
-7.335770130157471 5.906660079956055 -11.517200469970703
-6.670770168304443 5.170660018920898 -11.523200035095215
-6.904769897460938 5.703660011291504 -11.541199684143066
-7.183770179748535 5.034659862518311 -11.544199943542480
-6.848770141601563 5.494659900665283 -11.550200462341309
-7.924769878387451 5.182660102844238 -11.547200202941895
-7.366769790649414 5.103660106658936 -11.596199989318848
-7.067770004272461 5.937660217285156 -11.616200447082520
-7.644770145416260 5.099659919738770 -11.620200157165527
-7.875770092010498 5.342659950256348 -11.669199943542480
-6.751770019531250 5.340660095214844 -11.688199996948242
-6.630770206451416 5.078660011291504 -11.698200225830078
-7.247769832611084 5.874660015106201 -11.706199645996094
-7.037769794464111 5.010660171508789 -11.710200309753418
-7.459770202636719 5.921659946441650 -11.711199760437012
-6.821770191192627 4.962659835815430 -11.717200279235840
-7.815770149230957 5.138659954071045 -11.719200134277344
-6.968770027160645 5.748660087585449 -11.737199783325195
-7.487770080566406 5.141660213470459 -11.751199722290039
-6.924769878387451 5.512660026550293 -11.805199623107910
-7.094769954681397 5.838659763336182 -11.880200386047363
-7.095769882202148 5.088659763336182 -11.886199951171875
-7.318769931793213 5.846660137176514 -11.897199630737305
-6.561769962310791 5.117660045623779 -11.902199745178223
-7.845769882202148 5.235660076141357 -11.893199920654297
-7.502769947052002 5.971660137176514 -11.900199890136719
-7.673769950866699 5.119659900665283 -11.897199630737305
-6.819769859313965 5.352660179138184 -11.906200408935547
-7.659770011901856 6.101659774780273 -11.911199569702148
-6.870769977569580 4.990660190582275 -11.916199684143066
-7.779769897460938 5.435659885406494 -11.912199974060059
-7.300769805908203 5.142660140991211 -11.950200080871582
-7.023769855499268 5.666659832000732 -11.988200187683105
-7.835770130157471 6.179659843444824 -11.985199928283691
-6.972770214080811 5.460659980773926 -12.001199722290039
-6.681769847869873 4.964660167694092 -12.009200096130371
-6.665770053863525 5.264649868011475 -12.024200439453125
-7.491769790649414 5.128660202026367 -12.033200263977051
-7.002769947052002 5.040659904479981 -12.063199996948242
-7.429769992828369 5.885660171508789 -12.076199531555176
-7.247769832611084 5.785649776458740 -12.081199645996094
-7.829770088195801 5.257659912109375 -12.098199844360352
-7.651770114898682 6.121660232543945 -12.111200332641602
-7.685770034790039 5.117660045623779 -12.117199897766113
-6.850769996643066 5.329659938812256 -12.124199867248535
-7.795770168304443 5.955659866333008 -12.130200386047363
-7.156770229339600 5.137660026550293 -12.157199859619141
-7.741769790649414 5.436659812927246 -12.170200347900391
-7.071770191192627 5.648660182952881 -12.183199882507324
-7.833769798278809 6.154660224914551 -12.189200401306152
-7.002769947052002 5.430659770965576 -12.208200454711914
-6.738770008087158 4.882659912109375 -12.209199905395508
-7.550769805908203 5.976659774780273 -12.216199874877930
-7.356770038604736 5.113659858703613 -12.231200218200684
-6.622769832611084 5.161660194396973 -12.242199897766113
-7.368770122528076 5.817659854888916 -12.268199920654297
-6.798769950866699 5.241660118103027 -12.304200172424316
-7.051770210266113 5.052659988403320 -12.305199623107910
-7.553770065307617 5.107659816741943 -12.306200027465820
-7.797770023345947 5.244659900665283 -12.307200431823730
-7.707769870758057 5.866660118103027 -12.334199905395508
-7.176770210266113 5.725659847259522 -12.347200393676758
-7.705770015716553 6.137660026550293 -12.348199844360352
-7.087769985198975 5.514649868011475 -12.372200012207031
-7.710770130157471 5.456659793853760 -12.369199752807617
-6.673769950866699 5.018660068511963 -12.376199722290039
-7.909770011901856 6.188650131225586 -12.376199722290039
-7.697770118713379 5.665659904479981 -12.379199981689453
-6.911769866943359 4.869659900665283 -12.390199661254883
-6.988770008087158 5.303659915924072 -12.406200408935547
-7.215769767761231 5.036660194396973 -12.442199707031250
-7.476769924163818 5.880660057067871 -12.444199562072754
-7.423769950866699 5.035649776458740 -12.462200164794922
-7.847770214080811 5.958660125732422 -12.473199844360352
-7.112770080566406 4.860660076141357 -12.485199928283691
-7.665770053863525 5.121660232543945 -12.482199668884277
-7.317770004272461 5.750659942626953 -12.492199897766113
-7.152770042419434 5.616660118103027 -12.532199859619141
-6.783770084381104 4.963659763336182 -12.535200119018555
-8.039770126342773 6.093659877777100 -12.533200263977051
-6.908770084381104 5.132659912109375 -12.543199539184570
-7.642769813537598 5.970660209655762 -12.545200347900391
-7.763770103454590 5.763659954071045 -12.550200462341309
-7.782770156860352 5.274660110473633 -12.555199623107910
-6.980770111083984 4.695650100708008 -12.560199737548828
-7.738770008087158 5.527659893035889 -12.565199851989746
-7.296770095825195 4.810659885406494 -12.582200050354004
-7.064770221710205 5.255660057067871 -12.605199813842773
-7.519770145416260 5.119659900665283 -12.619199752807617
-7.475769996643066 5.760660171508789 -12.622200012207031
-7.978769779205322 5.860660076141357 -12.621199607849121
-7.140769958496094 5.441659927368164 -12.645199775695801
-8.152770042419434 5.972660064697266 -12.646200180053711
-7.148769855499268 4.658659934997559 -12.665200233459473
-6.882770061492920 4.845660209655762 -12.671199798583984
-7.822770118713379 5.976659774780273 -12.678199768066406
-7.266769886016846 5.665659904479981 -12.689200401306152
-7.877769947052002 5.663660049438477 -12.702199935913086
-7.697770118713379 5.114659786224365 -12.715200424194336
-7.654769897460938 5.814660072326660 -12.718199729919434
-7.410769939422607 4.843659877777100 -12.743200302124023
-8.230770111083984 5.823659896850586 -12.763199806213379
-6.984769821166992 5.127659797668457 -12.784199714660645
-8.065770149230957 5.675660133361816 -12.778200149536133
-7.288770198822022 4.571660041809082 -12.785200119018555
-7.505770206451416 5.049650192260742 -12.810199737548828
-7.810770034790039 5.252659797668457 -12.809200286865234
-7.544769763946533 5.654660224914551 -12.820199966430664
-7.008769989013672 4.882659912109375 -12.827199935913086
-7.066770076751709 5.306650161743164 -12.832200050354004
-7.833769798278809 5.845660209655762 -12.835200309753418
-8.037770271301270 5.885660171508789 -12.835200309753418
-7.172770023345947 5.506659984588623 -12.847200393676758
-7.834770202636719 5.468659877777100 -12.851200103759766
-7.457769870758057 4.667650222778320 -12.852199554443359
-8.042770385742188 5.471660137176514 -12.864199638366699
-7.351769924163818 5.629660129547119 -12.873200416564941
-8.296770095825195 5.644659996032715 -12.880200386047363
-7.144770145416260 4.699659824371338 -12.902199745178223
-7.482769966125488 4.868659973144531 -12.932200431823730
-8.233770370483398 5.462659835815430 -12.949199676513672
-7.627769947052002 5.040659904479981 -12.972200393676758
-8.120770454406738 5.659659862518311 -12.977199554443359
-7.616769790649414 4.708660125732422 -12.984199523925781
-7.109769821166992 4.879660129547119 -13.003199577331543
-7.853769779205322 5.116660118103027 -13.027199745178223
-7.418769836425781 4.647659778594971 -13.049200057983398
-7.699769973754883 4.880660057067871 -13.071200370788574
-7.251770019531250 4.752659797668457 -13.096199989318848
-7.313769817352295 4.849659919738770 -13.273200035095215
-7.485770225524902 4.729660034179688 -13.275199890136719
