ply
format ascii 1.0
element vertex 430
property double x
property double y
property double z
end_header
-3.850769996643066 1.400660037994385 -0.283185988664627
-3.850769996643066 1.400660037994385 -0.283185988664627
-3.908770084381104 1.639660000801086 -0.288186997175217
-4.050769805908203 1.842659950256348 -0.332186013460159
-4.238770008087158 1.934659957885742 -0.357187002897263
-4.046770095825195 2.087660074234009 -0.374184995889664
-4.084770202636719 1.616659998893738 -0.385187000036240
-4.256770133972168 2.143660068511963 -0.388184994459152
-4.436769962310791 2.025660037994385 -0.407186001539230
-4.549769878387451 1.832659959793091 -0.428185999393463
-4.360770225524902 1.731660008430481 -0.430184990167618
-4.305769920349121 2.343660116195679 -0.471186012029648
-4.628769874572754 2.077660083770752 -0.501187980175018
-4.164770126342773 1.768659949302673 -0.513185024261475
-4.088769912719727 2.354660034179688 -0.523187994956970
-4.621769905090332 2.276659965515137 -0.558187007904053
-4.224770069122315 2.494659900665283 -0.580187022686005
-4.454770088195801 2.487659931182861 -0.592188000679016
-4.712769985198975 1.885660052299500 -0.596185982227325
-4.430769920349121 1.841660022735596 -0.600187003612518
-4.250770092010498 1.961660027503967 -0.644186019897461
-4.124770164489746 2.127660036087036 -0.654187977313995
-4.820769786834717 2.306659936904907 -0.663187026977539
-4.839769840240479 2.068660020828247 -0.671185970306396
-4.334770202636719 2.639650106430054 -0.702188014984131
-4.717770099639893 2.511660099029541 -0.706185996532440
-4.559770107269287 1.985659956932068 -0.713186025619507
-4.534770011901856 2.639650106430054 -0.760186970233917
-5.009769916534424 2.130660057067871 -0.763185024261475
-4.968770027160645 2.374660015106201 -0.783186018466949
-4.461770057678223 2.139659881591797 -0.795186996459961
-4.198770046234131 2.491660118103027 -0.810186028480530
-4.693769931793213 2.129659891128540 -0.823186993598938
-5.175769805908203 2.239660024642944 -0.822187006473541
-4.318769931793213 2.330660104751587 -0.847185015678406
-4.842770099639893 2.548660039901733 -0.867186009883881
-4.417769908905029 2.820650100708008 -0.875189006328583
-4.688769817352295 2.682660102844238 -0.881184995174408
-4.227769851684570 2.721659898757935 -0.910188972949982
-4.600769996643066 2.866660118103027 -0.942185997962952
-4.637770175933838 2.291660070419312 -0.962186992168427
-5.057769775390625 2.485660076141357 -0.968186974525452
-4.477769851684570 2.423660039901733 -0.979184985160828
-4.926770210266113 2.268660068511963 -0.986189007759094
-4.369770050048828 2.592659950256348 -0.994188010692596
-5.290770053863525 2.427659988403320 -0.992186009883881
-4.541769981384277 3.066659927368164 -1.018190026283264
-4.363770008087158 2.965660095214844 -1.024189949035645
-5.129769802093506 2.305660009384155 -1.038190007209778
-4.774769783020020 2.855649948120117 -1.043190002441406
-4.899769783020020 2.685659885406494 -1.064190030097961
-5.182769775390625 2.623660087585449 -1.073189973831177
-4.455770015716553 3.260659933090210 -1.102190017700195
-4.762770175933838 2.403650045394898 -1.099189996719360
-4.417769908905029 2.755660057067871 -1.103189945220947
-4.656770229339600 3.211659908294678 -1.117190003395081
-4.608769893646240 2.547660112380981 -1.135190010070801
-5.509769916534424 2.523659944534302 -1.133190035820007
-5.407770156860352 2.707659959793091 -1.139189958572388
-4.977769851684570 2.383660078048706 -1.154189944267273
-4.829770088195801 3.099659919738770 -1.177189946174622
-5.049769878387451 2.764650106430054 -1.177189946174622
-5.339769840240479 2.428659915924072 -1.198189973831177
-4.452770233154297 3.038660049438477 -1.209190011024475
-4.745769977569580 3.416660070419312 -1.230190038681030
-5.613770008087158 2.664659976959229 -1.232190012931824
-4.568769931793213 2.827650070190430 -1.248190045356751
-5.241769790649414 2.830660104751587 -1.254189968109131
-4.867770195007324 2.512660026550293 -1.272189974784851
-4.950769901275635 2.914659976959229 -1.277189970016480
-5.498770236968994 2.824660062789917 -1.288190007209778
-4.722770214080811 2.708659887313843 -1.311190009117127
-4.570769786834717 3.297660112380981 -1.341189980506897
-5.201769828796387 2.510659933090210 -1.341189980506897
-4.960770130157471 3.152659893035889 -1.352190017700195
-4.598770141601563 3.081660032272339 -1.357190012931824
-5.121769905090332 2.976660013198853 -1.373190045356751
-4.917769908905029 3.480649948120117 -1.380190014839172
-4.860770225524902 3.687659978866577 -1.383190035820007
-5.689770221710205 2.799649953842163 -1.376189947128296
-5.367770195007324 2.947659969329834 -1.397189974784851
-5.465769767761231 2.592659950256348 -1.402189970016480
-5.014770030975342 2.589659929275513 -1.415189981460571
-5.585770130157471 2.970659971237183 -1.429190039634705
-4.747769832611084 2.945650100708008 -1.453189969062805
-4.679769992828369 3.424649953842163 -1.460190057754517
-4.879769802093506 2.770659923553467 -1.470190048217773
-4.724770069122315 3.217659950256348 -1.505190014839172
-5.040770053863525 3.379659891128540 -1.520190000534058
-5.114769935607910 3.145659923553467 -1.521190047264099
-4.834770202636719 3.850660085678101 -1.528190016746521
-5.366769790649414 3.104660034179688 -1.537189960479736
-5.252769947052002 2.652659893035889 -1.544190049171448
-5.004769802093506 3.644659996032715 -1.550189971923828
-5.060770034790039 2.729660034179688 -1.558189988136292
-4.802770137786865 3.659660100936890 -1.578189969062805
-4.845769882202148 3.073659896850586 -1.589190006256104
-5.871769905090332 2.982660055160523 -1.600190043449402
-5.513770103454590 2.719660043716431 -1.603189945220947
-5.702770233154297 2.805660009384155 -1.603189945220947
-5.671770095825195 3.091650009155273 -1.609189987182617
-5.013770103454590 3.828660011291504 -1.637189984321594
-4.992770195007324 2.908659934997559 -1.644189953804016
-4.840769767761231 3.367660045623779 -1.650189995765686
-5.257770061492920 3.243659973144531 -1.650189995765686
-5.509769916534424 3.195650100708008 -1.666190028190613
-5.149769783020020 3.441659927368164 -1.709190011024475
-5.336770057678223 2.762660026550293 -1.713189959526062
-5.105770111083984 3.672660112380981 -1.729189991950989
-4.972770214080811 3.219660043716431 -1.743190050125122
-5.826769828796387 3.160650014877319 -1.740190029144287
-5.172770023345947 2.878659963607788 -1.751189947128296
-4.954770088195801 4.055659770965576 -1.766190052032471
-5.350769996643066 3.369659900665283 -1.790189981460571
-5.998770236968994 3.032660007476807 -1.786190032958984
-4.951769828796387 3.476660013198853 -1.796190023422241
-5.124770164489746 3.856659889221191 -1.824190020561218
-5.694769859313965 3.294660091400147 -1.821189999580383
-5.126770019531250 3.063649892807007 -1.825189948081970
-5.561769962310791 2.863660097122192 -1.846189975738525
-5.228769779205322 3.607660055160523 -1.879189968109131
-5.522769927978516 3.401659965515137 -1.891190052032471
-5.352769851684570 2.928659915924072 -1.896190047264099
-5.078770160675049 3.321660041809082 -1.901190042495728
-5.946770191192627 3.254659891128540 -1.916190028190613
-5.081769943237305 4.066659927368164 -1.929190039634705
-6.087769985198975 3.090660095214844 -1.960190057754517
-5.228769779205322 3.137660026550293 -1.986189961433411
-5.071770191192627 3.504659891128540 -1.989189982414246
-5.378769874572754 3.516659975051880 -1.987190008163452
-5.221769809722900 3.893660068511963 -2.008189916610718
-5.805769920349121 3.415659904479981 -2.006190061569214
-4.926770210266113 4.128660202026367 -2.044189929962158
-5.520770072937012 2.969660043716431 -2.045190095901489
-5.612770080566406 3.514650106430054 -2.049190044403076
-6.226769924163818 3.223649978637695 -2.055190086364746
-5.337769985198975 3.698659896850586 -2.069190025329590
-5.200769901275635 3.380660057067871 -2.086189985275269
-5.087769985198975 3.703660011291504 -2.112190008163452
-6.079770088195801 3.360660076141357 -2.104190111160278
-5.057769775390625 3.933660030364990 -2.116189956665039
-5.220769882202148 4.055659770965576 -2.127190113067627
-5.380770206451416 3.092659950256348 -2.126189947128296
-5.952770233154297 3.495660066604614 -2.194190025329590
-5.351769924163818 3.894659996032715 -2.208189964294434
-5.476769924163818 3.667649984359741 -2.213190078735352
-5.166769981384277 4.228660106658936 -2.226190090179443
-6.297770023345947 3.315659999847412 -2.222189903259277
-5.224770069122315 3.576659917831421 -2.231189966201782
-4.935770034790039 4.037660121917725 -2.251189947128296
-5.334770202636719 3.343660116195679 -2.256190061569214
-5.684770107269287 3.638659954071045 -2.257189989089966
-6.172770023345947 3.156660079956055 -2.269190073013306
-5.487770080566406 3.148659944534302 -2.290189981460571
-5.162769794464111 3.755660057067871 -2.297189950942993
-6.195769786834717 3.495660066604614 -2.301189899444580
-5.324769973754883 4.084650039672852 -2.332190036773682
-5.862770080566406 3.623660087585449 -2.365190029144287
-6.372769832611084 3.418659925460815 -2.383189916610718
-5.565770149230957 3.785650014877319 -2.410190105438232
-6.057769775390625 3.596659898757935 -2.407190084457398
-5.445769786834717 3.949660062789917 -2.421190023422241
-5.219769954681397 4.325660228729248 -2.447190046310425
-6.265769958496094 3.232660055160523 -2.445189952850342
-6.349770069122315 3.608659982681274 -2.470190048217773
-5.748770236968994 3.807660102844238 -2.490190029144287
-6.520770072937012 3.505660057067871 -2.486190080642700
-5.449769973754883 4.130660057067871 -2.539190053939819
-6.177770137786865 3.709650039672852 -2.539190053939819
-6.444769859313965 3.296659946441650 -2.555190086364746
-5.957769870758057 3.828660011291504 -2.576189994812012
-5.347770214080811 4.292650222778320 -2.612190008163452
-5.588769912719727 3.925659894943237 -2.615190029144287
-6.486770153045654 3.672660112380981 -2.633189916610718
-5.798769950866699 3.927659988403320 -2.655189990997315
-5.190770149230957 4.401659965515137 -2.677190065383911
-6.138770103454590 3.851660013198853 -2.675189971923828
-6.328770160675049 3.781660079956055 -2.699189901351929
-5.566770076751709 4.106659889221191 -2.708189964294434
-6.491769790649414 3.479660034179688 -2.732189893722534
-6.501770019531250 3.760659933090210 -2.821190118789673
-5.743770122528076 4.029660224914551 -2.835190057754517
-6.004769802093506 3.994659900665283 -2.839190006256104
-5.453770160675049 4.301660060882568 -2.855190038681030
-6.240769863128662 3.984659910202026 -2.887190103530884
-5.612770080566406 4.179659843444824 -2.895190000534058
-6.442770004272461 3.918659925460815 -2.933190107345581
-6.557769775390625 3.507659912109375 -2.945189952850342
-5.315770149230957 4.416659832000732 -2.958189964294434
-5.887770175933838 4.114659786224365 -2.965189933776856
-6.650770187377930 3.769659996032715 -2.987190008163452
-6.122769832611084 4.099659919738770 -3.028189897537231
-6.341770172119141 4.086659908294678 -3.056190013885498
-5.562769889831543 4.333660125732422 -3.076189994812012
-6.597770214080811 3.986660003662109 -3.072190046310425
-5.717770099639893 4.201660156250000 -3.079190015792847
-6.016769886016846 4.208660125732422 -3.165189981460571
-6.528769969940186 4.161660194396973 -3.170190095901489
-5.423769950866699 4.458660125732422 -3.181190013885498
-6.684770107269287 3.686660051345825 -3.172189950942993
-6.719769954681397 3.882659912109375 -3.197190046310425
-6.715769767761231 4.091650009155273 -3.212189912796021
-6.210770130157471 4.245659828186035 -3.246190071105957
-5.654769897460938 4.369659900665283 -3.281189918518066
-6.787769794464111 4.352660179138184 -3.279190063476563
-5.834770202636719 4.272659778594971 -3.288189888000488
-6.420770168304443 4.296659946441650 -3.318190097808838
-6.892769813537598 4.181650161743164 -3.315190076828003
-6.854770183563232 3.869659900665283 -3.355190038681030
-5.525770187377930 4.493659973144531 -3.374190092086792
-6.609769821166992 4.371660232543945 -3.372189998626709
-6.015769958496094 4.334650039672852 -3.381190061569214
-7.085770130157471 4.256659984588623 -3.380189895629883
-7.000770092010498 3.998660087585449 -3.432189941406250
-6.276770114898682 4.391660213470459 -3.440190076828003
-5.753769874572754 4.416659832000732 -3.461189985275269
-6.473770141601563 4.482659816741943 -3.495189905166626
-5.429769992828369 4.638659954071045 -3.505189895629883
-7.177770137786865 4.110660076141357 -3.495189905166626
-7.331769943237305 4.253660202026367 -3.506190061569214
-5.635769844055176 4.553659915924072 -3.563189983367920
-6.129769802093506 4.424650192260742 -3.579190015792847
-5.917769908905029 4.419660091400147 -3.613189935684204
-6.325769901275635 4.489659786224365 -3.635190010070801
-6.585770130157471 4.640659809112549 -3.709189891815186
-5.765769958496094 4.591650009155273 -3.715189933776856
-5.545770168304443 4.666659832000732 -3.735189914703369
-6.016769886016846 4.493659973144531 -3.793190002441406
-6.223770141601563 4.528649806976318 -3.807189941406250
-5.413770198822022 4.825660228729248 -3.863189935684204
-6.419769763946533 4.618659973144531 -3.864190101623535
-5.705770015716553 4.723649978637695 -3.888190031051636
-5.899769783020020 4.617660045623779 -3.918190002441406
-6.602769851684570 4.721660137176514 -3.929189920425415
-6.106770038604736 4.579659938812256 -3.978189945220947
-5.560770034790039 4.844659805297852 -3.998189926147461
-6.297770023345947 4.643660068511963 -4.028190135955811
-5.727769851684570 4.812660217285156 -4.109189987182617
-5.960770130157471 4.696660041809082 -4.123189926147461
-6.506770133972168 4.739659786224365 -4.127190113067627
-5.647769927978516 4.988659858703613 -4.195189952850342
-6.152770042419434 4.645659923553467 -4.195189952850342
-6.666769981384277 4.878660202026367 -4.195189952850342
-6.339769840240479 4.715660095214844 -4.236189842224121
-5.868770122528076 4.870659828186035 -4.246190071105957
-5.498770236968994 5.198659896850586 -4.304190158843994
-6.519770145416260 4.807660102844238 -4.329189777374268
-5.782770156860352 5.008659839630127 -4.376190185546875
-6.012770175933838 4.852660179138184 -4.402190208435059
-5.455770015716553 5.374660015106201 -4.428190231323242
-6.192770004272461 4.746660232543945 -4.439189910888672
-5.654769897460938 5.239659786224365 -4.460189819335938
-6.397769927978516 4.817659854888916 -4.488190174102783
-5.925769805908203 5.025660037994385 -4.542190074920654
-6.588769912719727 4.884659767150879 -4.551189899444580
-6.094769954681397 4.893660068511963 -4.588190078735352
-5.561769962310791 5.518660068511963 -4.596189975738525
-5.818769931793213 5.191659927368164 -4.610189914703369
-5.724770069122315 5.374660015106201 -4.643189907073975
-6.260769844055176 4.831659793853760 -4.695189952850342
-6.473770141601563 4.870659828186035 -4.728189945220947
-5.997769832611084 5.124660015106201 -4.752190113067627
-6.145770072937012 4.969659805297852 -4.792190074920654
-5.699769973754883 5.664659976959229 -4.805190086364746
-5.806769847869873 5.489659786224365 -4.815189838409424
-5.908770084381104 5.305659770965576 -4.826189994812012
-6.750770092010498 5.042650222778320 -4.860189914703369
-6.301770210266113 4.884659767150879 -4.886189937591553
-5.596769809722900 5.410649776458740 -4.895189762115479
-6.100769996643066 5.176660060882568 -4.941189765930176
-5.661769866943359 5.228660106658936 -4.953189849853516
-5.777770042419434 5.825660228729248 -4.957190036773682
-6.593770027160645 4.957660198211670 -4.961190223693848
-5.898769855499268 5.659659862518311 -4.976190090179443
-5.977769851684570 5.413660049438477 -4.984189987182617
-5.698770046234131 5.611660003662109 -5.008190155029297
-5.806769847869873 4.855649948120117 -5.018189907073975
-5.743770122528076 5.395659923553467 -5.037189960479736
-5.769770145416260 5.057660102844238 -5.039189815521240
-6.241769790649414 5.097660064697266 -5.060190200805664
-6.041769981384277 4.538660049438477 -5.069190025329590
-6.365769863128662 4.922659873962402 -5.074190139770508
-6.806769847869873 5.097660064697266 -5.076189994812012
-5.952770233154297 4.722660064697266 -5.088190078735352
-6.160769939422607 5.286660194396973 -5.108190059661865
-5.845769882202148 5.237659931182861 -5.120190143585205
-6.031770229339600 5.695650100708008 -5.121190071105957
-6.082769870758057 5.488659858703613 -5.138189792633057
-5.878769874572754 5.495659828186035 -5.152190208435059
-5.837769985198975 5.742660045623779 -5.156189918518066
-5.952770233154297 5.935659885406494 -5.171189785003662
-5.919769763946533 4.990660190582275 -5.172190189361572
-6.665770053863525 5.006659984588623 -5.192190170288086
-6.151770114898682 4.618659973144531 -5.224190235137940
-6.057769775390625 4.806650161743164 -5.245190143585205
-5.978769779205322 5.330659866333008 -5.251190185546875
-6.185770034790039 5.676660060882568 -5.254189968109131
-6.466770172119141 4.985660076141357 -5.255189895629883
-6.141769886016846 5.893660068511963 -5.268189907073975
-6.265769958496094 5.362659931182861 -5.275189876556397
-6.332769870758057 5.139649868011475 -5.274189949035645
-5.977769851684570 5.781660079956055 -5.304190158843994
-6.843770027160645 5.088659763336182 -5.317190170288086
-6.062769889831543 5.050660133361816 -5.344190120697022
-6.216770172119141 4.746660232543945 -5.371190071105957
-6.349770069122315 5.513659954071045 -5.382190227508545
-6.099770069122315 5.246660232543945 -5.393189907073975
-6.121769905090332 5.464660167694092 -5.395189762115479
-6.335770130157471 5.828660011291504 -5.407189846038818
-6.591770172119141 5.062660217285156 -5.404190063476563
-6.478769779205322 5.686659812927246 -5.444190025329590
-6.121769905090332 5.665659904479981 -5.450190067291260
-6.216770172119141 4.987659931182861 -5.469190120697022
-6.285769939422607 6.088659763336182 -5.476190090179443
-6.783770084381104 5.741660118103027 -5.472189903259277
-6.112770080566406 5.973649978637695 -5.479189872741699
-6.409770011901856 5.156660079956055 -5.478189945220947
-6.590769767761231 5.856659889221191 -5.479189872741699
-6.475769996643066 6.029660224914551 -5.500189781188965
-6.628769874572754 5.555659770965576 -5.498189926147461
-6.745769977569580 6.006659984588623 -5.499189853668213
-6.481770038604736 5.407660007476807 -5.500189781188965
-6.843770027160645 5.518660068511963 -5.519189834594727
-6.885769844055176 5.110660076141357 -5.518189907073975
-6.231770038604736 5.247660160064697 -5.553190231323242
-6.239769935607910 5.490660190582275 -5.564189910888672
-6.749770164489746 5.330659866333008 -5.567190170288086
-6.689770221710205 5.078660011291504 -5.578189849853516
-6.337769985198975 4.867660045623779 -5.585189819335938
-6.406770229339600 6.231659889221191 -5.606190204620361
-6.598770141601563 6.163660049438477 -5.610189914703369
-6.565770149230957 5.232659816741943 -5.628190040588379
-6.875770092010498 6.178659915924072 -5.632190227508545
-6.228769779205322 5.711659908294678 -5.649189949035645
-6.346769809722900 5.094659805297852 -5.665190219879150
-6.230770111083984 5.946660041809082 -5.684189796447754
-6.325769901275635 5.288660049438477 -5.730189800262451
-6.308770179748535 5.535649776458740 -5.750189781188965
-6.744770050048828 6.231659889221191 -5.783189773559570
-7.034770011901856 6.202650070190430 -5.802189826965332
-6.443769931793213 5.018660068511963 -5.833189964294434
-6.317770004272461 5.853660106658936 -5.843190193176270
-6.350769996643066 6.062660217285156 -5.859189987182617
-7.230770111083984 6.186659812927246 -5.870190143585205
-6.382770061492920 5.417650222778320 -5.910190105438232
-6.449769973754883 6.238659858703613 -5.925189971923828
-6.445769786834717 5.210659980773926 -5.925189971923828
-6.367770195007324 5.672659873962402 -5.939189910888672
-6.897769927978516 6.223649978637695 -5.953189849853516
-6.588769912719727 4.861660003662109 -6.030189990997315
-6.530769824981690 5.063650131225586 -6.043190002441406
-7.379769802093506 6.117660045623779 -6.047190189361572
-7.141769886016846 6.139649868011475 -6.058189868927002
-7.594769954681397 6.136660099029541 -6.063189983367920
-6.444769859313965 5.933660030364990 -6.074190139770508
-6.576769828796387 6.246660232543945 -6.082190036773682
-6.431769847869873 5.532660007476807 -6.085189819335938
-6.767769813537598 6.306650161743164 -6.094190120697022
-6.739769935607910 4.664659976959229 -6.120190143585205
-6.440770149230957 5.735660076141357 -6.152190208435059
-6.968770027160645 6.226659774780273 -6.150189876556397
-6.485770225524902 5.356659889221191 -6.198190212249756
-6.551770210266113 6.076660156250000 -6.203189849853516
-7.244770050048828 6.093659877777100 -6.229189872741699
-7.691770076751709 6.036660194396973 -6.228189945220947
-7.495769977569580 6.088659763336182 -6.232190132141113
-6.566770076751709 5.182660102844238 -6.261189937591553
-6.738770008087158 4.786660194396973 -6.283189773559570
-6.889770030975342 6.341650009155273 -6.297190189361572
-6.864769935607910 4.621660232543945 -6.295189857482910
-6.638770103454590 4.995659828186035 -6.304190158843994
-6.693769931793213 6.239659786224365 -6.308189868927002
-6.502769947052002 5.846660137176514 -6.311190128326416
-6.480770111083984 5.592659950256348 -6.314189910888672
-7.065770149230957 6.221660137176514 -6.333189964294434
-7.872769832611084 6.006659984588623 -6.335189819335938
-6.530769824981690 5.393660068511963 -6.398190021514893
-7.396770000457764 6.045660018920898 -6.411190032958984
-6.604770183563232 5.995659828186035 -6.426189899444580
-6.616769790649414 5.193659782409668 -6.470190048217773
-7.212769985198975 6.147659778594971 -6.485189914703369
-6.704770088195801 4.985660076141357 -6.493189811706543
-7.597770214080811 6.044660091400147 -6.490190029144287
-6.805769920349121 6.230649948120117 -6.512189865112305
-7.005770206451416 6.300660133361816 -6.516190052032471
-6.541769981384277 5.695650100708008 -6.553190231323242
-7.802770137786865 6.012660026550293 -6.549190044403076
-6.706769943237305 6.069660186767578 -6.587190151214600
-6.590769767761231 5.356659889221191 -6.588190078735352
-7.423769950866699 6.047659873962402 -6.624189853668213
-6.623770236968994 5.891660213470459 -6.630189895629883
-7.103769779205322 6.246660232543945 -6.704189777374268
-6.871769905090332 6.153649806976318 -6.712190151214600
-7.606770038604736 6.046659946441650 -6.714190006256104
-7.276770114898682 6.125659942626953 -6.749189853668213
-7.803770065307617 5.980649948120117 -6.756189823150635
-6.616769790649414 5.619659900665283 -6.765190124511719
-6.640769958496094 5.415659904479981 -6.779190063476563
-6.764770030975342 6.023660182952881 -6.822189807891846
-6.654769897460938 5.810659885406494 -6.826189994812012
-7.436769962310791 6.033659934997559 -6.858190059661865
-6.990769863128662 6.170660018920898 -6.877190113067627
-7.697770118713379 6.008659839630127 -6.935190200805664
-7.199769973754883 6.184659957885742 -6.968190193176270
-7.834770202636719 5.848649978637695 -6.972189903259277
-6.738770008087158 5.903649806976318 -6.994190216064453
-6.709770202636719 5.657660007476807 -7.005189895629883
-6.875770092010498 6.061659812927246 -7.018189907073975
-7.346769809722900 6.079659938812256 -7.066189765930176
-7.031770229339600 6.167650222778320 -7.095190048217773
-7.549769878387451 6.001659870147705 -7.107190132141113
-7.915770053863525 5.725659847259522 -7.139190196990967
-6.814770221710205 5.874660015106201 -7.181190013885498
-7.209770202636719 6.159659862518311 -7.192190170288086
-7.729770183563232 5.955659866333008 -7.193190097808838
-6.948770046234131 6.039659976959229 -7.245190143585205
-7.522769927978516 6.022659778594971 -7.306190013885498
-7.311769962310791 6.093659877777100 -7.367189884185791
-6.869770050048828 5.834650039672852 -7.375189781188965
-7.108769893646240 6.061659812927246 -7.376190185546875
-7.819769859313965 6.080659866333008 -7.388189792633057
-8.021769523620606 6.053659915924072 -7.414189815521240
-7.614769935607910 6.024660110473633 -7.488190174102783
-7.011769771575928 5.922659873962402 -7.500189781188965
-7.203770160675049 6.006659984588623 -7.563189983367920
-7.406770229339600 6.024660110473633 -7.613190174102783
-7.903769969940186 6.028649806976318 -7.616189956665039
-7.733769893646240 6.121660232543945 -7.714190006256104
-7.543769836425781 6.070650100708008 -7.755189895629883
-7.511769771575928 6.056650161743164 -8.008190155029297
