ply
format ascii 1.0
element vertex 209
property double x
property double y
property double z
end_header
6.516280174255371 -0.682033002376556 -14.215999603271484
6.516280174255371 -0.682033002376556 -14.215999603271484
6.666279792785645 -0.766034007072449 -14.251000404357910
5.070280075073242 -0.692032992839813 -14.281999588012695
6.884280204772949 -0.812034010887146 -14.322999954223633
6.412280082702637 -0.796033024787903 -14.324000358581543
6.576280117034912 -0.889033019542694 -14.333999633789063
6.285280227661133 -0.658034026622772 -14.343999862670898
6.455279827117920 -0.626033008098602 -14.369000434875488
6.182280063629150 -1.069030046463013 -14.376000404357910
6.292280197143555 -1.194030046463013 -14.378000259399414
6.120279788970947 -0.630033016204834 -14.390999794006348
6.267280101776123 -0.925032973289490 -14.388999938964844
6.734280109405518 -0.811034023761749 -14.402999877929688
5.237279891967773 -0.633032977581024 -14.383000373840332
4.914279937744141 -0.654033005237579 -14.385999679565430
6.096280097961426 -0.813032984733582 -14.404000282287598
6.025279998779297 -0.971033990383148 -14.402999877929688
5.947279930114746 -0.669034004211426 -14.411999702453613
6.083280086517334 -0.448033004999161 -14.421999931335449
5.775279998779297 -0.663034021854401 -14.420000076293945
5.843279838562012 -0.486034005880356 -14.425999641418457
5.428279876708984 -0.640033006668091 -14.416999816894531
6.691279888153076 -0.971033990383148 -14.432999610900879
6.447279930114746 -1.043030023574829 -14.428000450134277
5.265279769897461 -0.843034029006958 -14.416000366210938
5.595280170440674 -0.644034981727600 -14.428999900817871
5.421279907226563 -0.903033018112183 -14.423000335693359
6.234280109405518 -0.518033027648926 -14.446999549865723
5.902279853820801 -0.836033999919891 -14.435999870300293
5.126279830932617 -0.750033020973206 -14.428999900817871
4.963280200958252 -0.493034005165100 -14.437999725341797
5.129280090332031 -0.479034006595612 -14.444000244140625
5.681280136108398 -0.439033001661301 -14.454999923706055
5.669280052185059 -0.811034023761749 -14.449000358581543
6.856279850006104 -0.950034022331238 -14.468000411987305
6.060279846191406 -1.147029995918274 -14.458000183105469
6.498280048370361 -0.830033004283905 -14.477999687194824
5.520279884338379 -0.502034008502960 -14.472000122070313
5.460279941558838 -0.340034008026123 -14.484000205993652
6.229279994964600 -0.735033988952637 -14.496000289916992
5.356279850006104 -0.012032600119710 -14.512999534606934
5.292280197143555 -0.401033997535706 -14.503999710083008
5.929279804229736 -0.375032991170883 -14.517000198364258
5.187280178070068 -0.034033898264170 -14.515000343322754
6.300280094146729 -1.075029969215393 -14.510999679565430
5.277279853820801 -0.224033996462822 -14.512999534606934
5.582280158996582 -0.976032972335815 -14.501999855041504
4.772280216217041 -0.643033027648926 -14.496999740600586
6.161280155181885 -0.973033010959625 -14.513999938964844
5.915279865264893 -1.067029953002930 -14.508000373840332
5.760280132293701 -0.978034019470215 -14.508999824523926
6.426280021667481 -1.194030046463013 -14.515999794006348
6.363279819488525 -0.910032987594604 -14.534000396728516
5.046279907226563 -0.360033988952637 -14.526000022888184
5.448279857635498 -0.151033997535706 -14.541000366210938
6.990280151367188 -0.892033994197845 -14.552000045776367
5.351280212402344 -0.752034008502960 -14.527000427246094
6.015279769897461 -0.769034981727600 -14.541999816894531
5.008279800415039 -0.628033995628357 -14.527999877929688
5.510280132293701 -0.810033023357391 -14.536000251770020
4.797279834747315 -0.429033994674683 -14.536000251770020
6.012279987335205 -0.513033986091614 -14.560999870300293
5.726280212402344 -0.319034010171890 -14.562000274658203
5.120279788970947 -0.192032992839813 -14.559000015258789
6.603280067443848 -0.923034012317657 -14.576000213623047
5.803279876708984 -0.788034021854401 -14.565999984741211
6.515279769897461 -1.065029978752136 -14.578000068664551
6.932280063629150 -1.064030051231384 -14.588000297546387
5.886280059814453 -0.627034008502960 -14.579999923706055
5.230279922485352 -0.626033008098602 -14.572999954223633
5.662280082702637 -0.670033991336823 -14.579999923706055
6.568280220031738 -1.273030042648315 -14.583999633789063
4.886280059814453 -0.292032986879349 -14.581999778747559
7.158279895782471 -0.853034019470215 -14.609999656677246
5.461279869079590 -0.640033006668091 -14.585000038146973
5.819280147552490 -0.467034012079239 -14.607000350952148
4.986279964447022 -0.107033997774124 -14.612999916076660
6.783279895782471 -0.960034012794495 -14.626999855041504
6.965280055999756 -1.229030013084412 -14.626999855041504
5.615280151367188 -0.427033990621567 -14.623000144958496
5.441279888153076 -0.461033999919891 -14.619999885559082
5.550280094146729 -0.262032985687256 -14.630999565124512
5.080279827117920 0.050967101007700 -14.630000114440918
5.119279861450195 -0.473033010959625 -14.625000000000000
6.670279979705811 -1.137030005455017 -14.637999534606934
5.386280059814453 -0.287034004926682 -14.637999534606934
5.216279983520508 -0.332033991813660 -14.640000343322754
4.917280197143555 -0.502034008502960 -14.631999969482422
4.660280227661133 -0.425033003091812 -14.633999824523926
5.245279788970947 -0.128033995628357 -14.652000427246094
7.128280162811279 -1.175029993057251 -14.661999702453613
6.723279953002930 -1.302029967308044 -14.659000396728516
4.714280128479004 -0.254032999277115 -14.652000427246094
4.830279827117920 -0.091033101081848 -14.670000076293945
7.197279930114746 -1.026029944419861 -14.692999839782715
6.830279827117920 -1.148030042648315 -14.694000244140625
7.041279792785645 -1.384029984474182 -14.696000099182129
7.052279949188232 -0.941033005714417 -14.708000183105469
7.284279823303223 -0.866033017635345 -14.725999832153320
6.874279975891113 -1.359030008316040 -14.708000183105469
4.999279975891113 -0.338032990694046 -14.701000213623047
7.276279926300049 -1.223029971122742 -14.730999946594238
6.999279975891113 -1.100029945373535 -14.739999771118164
4.563280105590820 -0.259034007787704 -14.725000381469727
7.208280086517334 -1.416030049324036 -14.751999855041504
4.627280235290527 -0.087033398449421 -14.741000175476074
4.803279876708984 -0.392033994197845 -14.739000320434570
4.576280117034912 -0.539032995700836 -14.732999801635742
4.868279933929443 -0.236034005880356 -14.762999534606934
4.810279846191406 0.084965601563454 -14.770000457763672
4.940279960632324 -0.039033100008965 -14.786999702453613
7.118279933929443 -1.276029944419861 -14.798999786376953
4.984280109405518 0.125965997576714 -14.800999641418457
7.428279876708984 -1.226029992103577 -14.822999954223633
4.638279914855957 -0.393032997846603 -14.798999786376953
4.401279926300049 -0.151033997535706 -14.814000129699707
4.505280017852783 -0.008032900281250 -14.824999809265137
4.703279972076416 -0.236034005880356 -14.824000358581543
4.004280090332031 -0.242034003138542 -14.812000274658203
4.431280136108398 -0.487033009529114 -14.826000213623047
4.767280101776123 -0.081032902002335 -14.842000007629395
7.315279960632324 -0.967033982276917 -14.868000030517578
7.220280170440674 -1.108029961585999 -14.868000030517578
7.353280067443848 -1.446030020713806 -14.869000434875488
4.749279975891113 0.215966001152992 -14.862000465393066
7.268280029296875 -1.301030039787293 -14.885000228881836
4.361279964447022 0.391966998577118 -14.878000259399414
4.500279903411865 -0.334033012390137 -14.873000144958496
4.691279888153076 0.058966498821974 -14.888999938964844
4.113279819488525 -0.088032796978951 -14.880000114440918
4.296279907226563 -0.386032998561859 -14.880000114440918
3.889280080795288 -0.133033007383347 -14.880000114440918
4.594279766082764 0.271966010332108 -14.904000282287598
4.560279846191406 -0.163034006953239 -14.899999618530273
4.140279769897461 -0.302033990621567 -14.892999649047852
4.276279926300049 -0.038033600896597 -14.907999992370605
4.354279994964600 0.108966000378132 -14.913999557495117
7.351280212402344 -1.157029986381531 -14.961000442504883
7.465280055999756 -0.968034029006958 -14.968000411987305
4.540279865264893 0.101966001093388 -14.947999954223633
4.263279914855957 0.278966009616852 -14.954999923706055
4.354279994964600 -0.231033995747566 -14.954999923706055
3.993279933929443 -0.003033800050616 -14.968000411987305
7.404280185699463 -1.320029973983765 -14.998000144958496
4.448279857635498 0.263965994119644 -14.986000061035156
4.422279834747315 -0.075034298002720 -14.984000205993652
4.011280059814453 -0.187033995985985 -14.987999916076660
4.199279785156250 -0.184034004807472 -14.996999740600586
7.513279914855957 -1.455029964447022 -15.043000221252441
4.186279773712158 0.082966700196266 -15.020999908447266
7.491280078887940 -1.109030008316040 -15.057999610900879
7.625279903411865 -1.010030031204224 -15.071000099182129
3.803280115127564 -0.076033696532249 -15.038000106811523
4.258279800415039 0.439967006444931 -15.060999870300293
4.327280044555664 0.168966993689537 -15.067000389099121
4.156280040740967 0.301966995000839 -15.081000328063965
7.550280094146729 -1.260030031204224 -15.116999626159668
4.112279891967773 -0.072034001350403 -15.092000007629395
7.757279872894287 -1.066030025482178 -15.156000137329102
4.060279846191406 0.118965998291969 -15.126000404357910
7.634280204772949 -1.409029960632324 -15.161999702453613
3.950279951095581 -0.068034298717976 -15.137999534606934
7.933279991149902 -1.104030013084412 -15.190999984741211
3.827280044555664 0.043967101722956 -15.156999588012695
3.689280033111572 -0.049033299088478 -15.161999702453613
7.680280208587647 -1.207030057907105 -15.208000183105469
4.030280113220215 0.272967010736465 -15.201999664306641
7.769279956817627 -1.376029968261719 -15.274000167846680
3.893280029296875 0.181966006755829 -15.250000000000000
7.827280044555664 -1.183030009269714 -15.300000190734863
4.091279983520508 0.428966999053955 -15.272999763488770
3.553280115127564 -0.016034200787544 -15.258999824523926
3.748280048370361 0.035965800285339 -15.303999900817871
3.452280044555664 0.103967003524303 -15.314999580383301
3.624279975891113 0.158967003226280 -15.324000358581543
3.778280019760132 0.254965990781784 -15.345999717712402
7.882279872894287 -1.323029994964600 -15.406999588012695
7.944280147552490 -1.166030049324036 -15.420000076293945
8.019280433654785 -1.418030023574829 -15.423000335693359
3.983279943466187 0.270965993404388 -15.394000053405762
3.972280025482178 0.448965996503830 -15.446000099182129
3.509279966354370 0.196967005729675 -15.460000038146973
3.372279882431030 0.289965987205505 -15.477999687194824
3.828279972076416 0.292966008186340 -15.508000373840332
7.971280097961426 -1.298030018806458 -15.545999526977539
3.714279890060425 0.425967007875443 -15.513999938964844
8.034279823303223 -1.143030047416687 -15.569999694824219
3.649280071258545 0.265967011451721 -15.531000137329102
3.857280015945435 0.483965992927551 -15.578000068664551
8.085280418395996 -1.394029974937439 -15.635999679565430
3.491280078887940 0.299966007471085 -15.595000267028809
3.670279979705811 0.588967025279999 -15.619999885559082
3.570280075073242 0.448965996503830 -15.618000030517578
3.208280086517334 0.336966007947922 -15.668999671936035
3.506279945373535 0.581966996192932 -15.711999893188477
8.104280471801758 -1.301030039787293 -15.810000419616699
8.196279525756836 -1.445029973983765 -15.828000068664551
3.343280076980591 0.546965003013611 -15.795000076293945
3.492280006408691 0.412966996431351 -15.803000450134277
3.151279926300049 0.426966995000839 -15.814999580383301
3.329279899597168 0.383967012166977 -15.824000358581543
3.293279886245728 0.685967028141022 -15.906000137329102
8.164279937744141 -1.325029969215393 -15.972999572753906
8.257280349731445 -1.458029985427856 -16.041999816894531
8.206279754638672 -1.334030032157898 -16.142999649047852
8.240280151367188 -1.374029994010925 -16.308000564575195
8.243280410766602 -1.461030006408691 -16.454000473022461
8.258279800415039 -1.532029986381531 -16.636999130249023
