ply
format ascii 1.0
element vertex 311
property double x
property double y
property double z
end_header
5.454279899597168 -0.303032994270325 -0.903002023696899
5.454279899597168 -0.303032994270325 -0.903002023696899
5.358280181884766 -0.203034996986389 -1.004999995231628
5.344279766082764 -0.373032987117767 -1.085000038146973
5.253280162811279 -0.241033002734184 -1.154999971389771
5.176280021667481 -0.098033100366592 -1.205000042915344
5.230279922485352 -0.412034004926682 -1.243000030517578
5.133279800415039 -0.258033007383347 -1.294999957084656
5.067279815673828 -0.088032796978951 -1.358000040054321
5.041279792785645 -0.348033010959625 -1.442999958992004
4.970280170440674 0.004965700209141 -1.473000049591065
4.989280223846436 -0.174033001065254 -1.476999998092651
4.913280010223389 -0.313033014535904 -1.574000000953674
4.884280204772949 0.096966601908207 -1.595999956130981
4.882279872894287 -0.126032993197441 -1.598999977111816
4.776279926300049 -0.314033001661301 -1.707999944686890
4.793280124664307 -0.126032993197441 -1.766000032424927
4.809279918670654 0.045965999364853 -1.771999955177307
4.670279979705811 -0.291034013032913 -1.842000007629395
4.706280231475830 -0.118033997714520 -1.911000013351440
4.839280128479004 0.145965993404388 -1.921000003814697
4.695280075073242 0.055966299027205 -1.991000056266785
4.708280086517334 0.242966994643211 -2.003999948501587
4.578279972076416 -0.226033002138138 -2.028000116348267
4.715280055999756 -0.110033996403217 -2.125999927520752
4.625279903411865 0.070965699851513 -2.141000032424927
4.446280002593994 -0.240033000707626 -2.131999969482422
4.630280017852783 0.264966011047363 -2.173000097274780
4.522280216217041 -0.060033001005650 -2.237999916076660
4.311279773712158 -0.242034003138542 -2.260999917984009
4.656280040740967 -0.177034005522728 -2.269999980926514
4.558279991149902 0.141966998577118 -2.292999982833862
4.404280185699463 -0.050032701343298 -2.367000102996826
4.615280151367188 -0.016034200787544 -2.372999906539917
4.185279846191406 -0.216032996773720 -2.368000030517578
4.535280227661133 0.277965992689133 -2.394000053405762
4.460279941558838 0.113967001438141 -2.453000068664551
4.268280029296875 -0.086033903062344 -2.480000019073486
4.462279796600342 0.501967012882233 -2.552999973297119
4.470280170440674 0.282965987920761 -2.549000024795532
4.106279850006104 -0.162034004926682 -2.535000085830689
4.337279796600342 0.033966898918152 -2.588999986648560
4.482279777526856 0.100965999066830 -2.648000001907349
4.556280136108398 0.388965994119644 -2.657000064849854
4.187280178070068 -0.035033300518990 -2.674000024795532
3.983279943466187 -0.167033001780510 -2.667999982833862
4.374279975891113 0.234966993331909 -2.687000036239624
4.417280197143555 0.505967020988464 -2.720000028610230
4.278279781341553 0.097966097295284 -2.734999895095825
4.118279933929443 -0.153033003211021 -2.773999929428101
4.360280036926270 0.602967023849487 -2.855999946594238
4.503280162811279 0.387966990470886 -2.858999967575073
4.118279933929443 0.000966000021435 -2.851999998092651
3.947279930114746 -0.111033998429775 -2.851999998092651
4.300280094146729 0.441965997219086 -2.920000076293945
4.270279884338379 0.274966001510620 -2.924000024795532
4.321280002593994 0.097966097295284 -2.924000024795532
4.470280170440674 0.513966023921967 -2.970000028610230
4.161280155181885 0.138965994119644 -2.967999935150147
4.004280090332031 0.020966399461031 -2.979000091552734
4.419280052185059 0.357966005802155 -3.009999990463257
4.281280040740967 0.627967000007629 -3.016999959945679
3.820280075073242 -0.110033996403217 -3.002000093460083
4.224279880523682 0.467967003583908 -3.078000068664551
4.316279888153076 0.198965996503830 -3.073999881744385
3.956279993057251 -0.097033597528934 -3.099999904632568
4.183279991149902 0.297966986894608 -3.118999958038330
4.120279788970947 0.001967299962416 -3.117000102996826
4.379280090332031 0.542966008186340 -3.158999919891357
4.069280147552490 0.158967003226280 -3.161000013351440
4.215280055999756 0.664965987205505 -3.178999900817871
3.760279893875122 -0.090033598244190 -3.167999982833862
4.328279972076416 0.368966013193130 -3.203000068664551
3.877279996871948 0.045965999364853 -3.194999933242798
4.153279781341553 0.419966995716095 -3.234999895095825
4.301280021667481 0.503965973854065 -3.308000087738037
4.161280155181885 0.179967001080513 -3.313999891281128
4.107279777526856 0.640967011451721 -3.325999975204468
3.983279943466187 0.186967000365257 -3.313999891281128
3.681279897689819 -0.086033903062344 -3.318000078201294
4.248280048370361 0.325967013835907 -3.349999904632568
4.169280052185059 0.796965003013611 -3.362999916076660
3.939280033111572 0.012966999784112 -3.345999956130981
3.789279937744141 0.083966098725796 -3.359999895095825
4.076280117034912 0.499967008829117 -3.440000057220459
4.239280223846436 0.567966997623444 -3.453000068664551
4.057280063629150 0.302965998649597 -3.447000026702881
3.585279941558838 -0.021033400669694 -3.438999891281128
3.933279991149902 0.193966999650002 -3.477999925613403
4.059279918670654 0.745966970920563 -3.493999958038330
3.677279949188232 0.111965999007225 -3.487999916076660
4.182280063629150 0.393965989351273 -3.526999950408936
3.841279983520508 0.065966501832008 -3.532000064849854
4.189280033111572 0.681966006755829 -3.582999944686890
4.018280029296875 0.433966994285584 -3.585000038146973
4.030280113220215 0.620966970920563 -3.599999904632568
3.468280076980591 0.027966400608420 -3.586999893188477
3.772279977798462 0.207966998219490 -3.615999937057495
3.938280105590820 0.277965992689133 -3.622999906539917
4.024280071258545 0.802965998649597 -3.645999908447266
3.594280004501343 0.168966993689537 -3.653000116348267
4.137279987335205 0.507965981960297 -3.684000015258789
3.948280096054077 0.528966009616852 -3.713000059127808
3.947279930114746 0.882965981960297 -3.772000074386597
3.500279903411865 0.064966998994350 -3.763999938964844
3.716279983520508 0.198965996503830 -3.776999950408936
3.312279939651489 0.103967003524303 -3.773999929428101
4.053279876708984 0.755967020988464 -3.815999984741211
3.886280059814453 0.223966002464294 -3.808000087738037
3.554280042648315 0.217967003583908 -3.809999942779541
4.062280178070068 0.524966001510620 -3.835000038146973
3.993279933929443 0.358965992927551 -3.846999883651733
3.835279941558838 0.795966029167175 -3.872999906539917
3.908279895782471 0.581966996192932 -3.877000093460083
3.226279973983765 0.163966000080109 -3.904000043869019
3.672280073165894 0.285966008901596 -3.917000055313110
3.904279947280884 0.935967028141022 -3.937000036239624
3.428280115127564 0.121965996921062 -3.918999910354614
3.862279891967773 0.432967007160187 -3.944000005722046
3.968280076980591 0.729965984821320 -3.990999937057495
3.513279914855957 0.280966997146606 -3.990000009536743
3.346280097961426 0.248967006802559 -3.987999916076660
3.817280054092407 0.281966000795364 -4.013000011444092
3.778280019760132 0.795966029167175 -4.031000137329102
3.819279909133911 0.619966983795166 -4.030000209808350
3.136280059814453 0.239966005086899 -4.064000129699707
3.852279901504517 0.997965991497040 -4.104000091552734
3.945280075073242 0.853967010974884 -4.103000164031982
3.634279966354370 0.267966002225876 -4.112999916076660
3.794280052185059 0.486966013908386 -4.129000186920166
3.908279895782471 0.700967013835907 -4.171999931335449
3.290280103683472 0.240966007113457 -4.159999847412109
3.689280033111572 0.798965990543365 -4.190999984741211
3.453279972076416 0.266966998577118 -4.177000045776367
3.751280069351196 0.632965981960297 -4.195000171661377
3.676280021667481 0.391966998577118 -4.216000080108643
3.755280017852783 0.971966981887817 -4.236999988555908
3.097280025482178 0.301966995000839 -4.223000049591065
3.815279960632324 0.443967014551163 -4.296999931335449
3.881279945373535 0.780966997146606 -4.315999984741211
3.795279979705811 1.162969946861267 -4.349999904632568
3.538280010223389 0.304966986179352 -4.326000213623047
3.247279882431030 0.299966007471085 -4.333000183105469
3.660279989242554 0.569966018199921 -4.355999946594238
3.674279928207398 0.895965993404388 -4.368999958038330
3.841279983520508 0.623966991901398 -4.382999897003174
3.690279960632324 0.356967002153397 -4.388999938964844
3.574280023574829 0.729965984821320 -4.410999774932861
3.041280031204224 0.385966002941132 -4.401999950408936
3.715280055999756 1.060969948768616 -4.455999851226807
3.851279973983765 0.965965986251831 -4.461999893188477
3.551280021667481 0.490965992212296 -4.453999996185303
3.360280036926270 0.344965994358063 -4.480999946594238
3.814280033111572 0.756965994834900 -4.526999950408936
3.612279891967773 0.854965984821320 -4.533999919891357
3.782279968261719 0.570966005325317 -4.551000118255615
2.955280065536499 0.473966002464294 -4.534999847412109
3.513279914855957 0.651966989040375 -4.550000190734863
3.696280002593994 0.418967008590698 -4.547999858856201
3.677279949188232 1.184970021247864 -4.579999923706055
3.130280017852783 0.378966003656387 -4.556000232696533
3.497279882431030 0.381965994834900 -4.578000068664551
3.644279956817627 1.011970043182373 -4.600999832153320
3.284280061721802 0.373966991901398 -4.625999927520752
3.803280115127564 0.985966980457306 -4.650000095367432
3.412280082702637 0.523967027664185 -4.647999763488770
3.778280019760132 0.805966019630432 -4.684999942779541
3.477279901504517 0.761965990066528 -4.683000087738037
3.699280023574829 0.505967020988464 -4.697000026702881
3.594280004501343 0.884967029094696 -4.725999832153320
2.943279981613159 0.520965993404388 -4.706999778747559
3.085279941558838 0.425967007875443 -4.709000110626221
3.604279994964600 1.118970036506653 -4.738999843597412
3.262279987335205 0.512966990470886 -4.731999874114990
3.551280021667481 0.432967007160187 -4.739999771118164
3.392280101776123 0.634967029094696 -4.774000167846680
3.751280069351196 1.068969964981079 -4.807000160217285
3.707279920578003 0.707966983318329 -4.810999870300293
2.854279994964600 0.624966979026794 -4.815999984741211
3.374279975891113 0.418967008590698 -4.828000068664551
3.435280084609985 0.789965987205505 -4.862999916076660
3.565279960632324 1.042969942092896 -4.886000156402588
3.546279907226563 1.231969952583313 -4.894999980926514
3.036279916763306 0.514966011047363 -4.874000072479248
3.645279884338379 0.535965979099274 -4.900000095367432
3.194279909133911 0.444965988397598 -4.893000125885010
3.307280063629150 0.564966976642609 -4.915999889373779
3.731280088424683 0.915966987609863 -4.938000202178955
3.541280031204224 0.899966001510620 -4.973000049591065
3.679280042648315 1.115970015525818 -4.982999801635742
2.832279920578003 0.711965978145599 -4.967999935150147
3.330280065536499 0.743965983390808 -4.984000205993652
3.485280036926270 0.470966994762421 -4.981999874114990
3.679280042648315 0.765967011451721 -4.994999885559082
3.493279933929443 1.122969985008240 -5.030000209808350
2.966279983520508 0.583966016769409 -5.019000053405762
3.492280006408691 1.287969946861267 -5.072999954223633
3.319279909133911 0.453967005014420 -5.058000087738037
3.151279926300049 0.493966013193130 -5.077000141143799
3.236279964447022 0.636965990066528 -5.090000152587891
3.439280033111572 0.927965998649597 -5.111999988555908
3.639280080795288 0.652966022491455 -5.110000133514404
3.670279979705811 0.982966005802155 -5.144999980926514
3.381279945373535 1.165969967842102 -5.150000095367432
3.551280021667481 0.500966012477875 -5.138999938964844
3.289279937744141 0.811967015266418 -5.149000167846680
3.603280067443848 1.154970049858093 -5.165999889373779
2.858279943466187 0.702965974807739 -5.164000034332275
3.040280103683472 0.557967007160187 -5.184000015258789
3.395279884338379 0.469965994358063 -5.219999790191650
3.655280113220215 0.773967027664185 -5.235000133514404
3.313280105590820 1.031970024108887 -5.245999813079834
3.223279953002930 0.501967012882233 -5.262000083923340
3.112279891967773 0.689966976642609 -5.264999866485596
3.513279914855957 1.228970050811768 -5.284999847412109
3.572279930114746 0.615966022014618 -5.271999835968018
2.785279989242554 0.834966003894806 -5.272999763488770
3.628279924392700 1.048969984054565 -5.295000076293945
3.320280075073242 1.227970004081726 -5.306000232696533
3.203279972076416 0.845966994762421 -5.311999797821045
2.935280084609985 0.662967026233673 -5.320000171661377
3.613280057907105 0.762966990470886 -5.402999877929688
3.240279912948608 1.044970035552979 -5.416999816894531
3.111279964447022 0.554966986179352 -5.403999805450440
3.011280059814453 0.795966029167175 -5.408999919891357
3.452280044555664 0.546965003013611 -5.412000179290772
3.289279937744141 0.513966023921967 -5.428999900817871
2.769279956817627 0.928966999053955 -5.436999797821045
3.491280078887940 1.222970008850098 -5.460000038146973
2.846280097961426 0.760966002941132 -5.439000129699707
3.579279899597168 1.069970011711121 -5.461999893188477
3.250279903411865 1.233970046043396 -5.475999832153320
3.108279943466187 0.939966976642609 -5.474999904632568
2.988280057907105 0.640967011451721 -5.489999771118164
2.941279888153076 0.914965987205505 -5.515999794006348
3.562279939651489 0.608965992927551 -5.521999835968018
3.181279897689819 1.055969953536987 -5.572999954223633
3.191279888153076 0.530966997146606 -5.564000129699707
3.510279893875122 1.161970019340515 -5.618000030517578
3.725280046463013 0.751967012882233 -5.619999885559082
3.360280036926270 0.581966996192932 -5.617000102996826
2.745280027389526 1.045969963073731 -5.630000114440918
3.191279888153076 1.206969976425171 -5.642000198364258
2.811280012130737 0.846966981887817 -5.630000114440918
3.670279979705811 0.910965979099274 -5.651000022888184
2.932280063629150 0.702965974807739 -5.636000156402588
3.073280096054077 0.602967023849487 -5.660999774932861
2.932280063629150 0.998966991901398 -5.670000076293945
3.840280055999756 0.876967012882233 -5.684999942779541
3.567280054092407 1.026970028877258 -5.711999893188477
3.919280052185059 1.043969988822937 -5.718999862670898
3.068279981613159 1.107969999313355 -5.709000110626221
3.225280046463013 0.555966019630432 -5.729000091552734
3.762279987335205 1.123970031738281 -5.765999794006348
3.437279939651489 1.228970050811768 -5.770999908447266
2.771280050277710 0.947965979576111 -5.763999938964844
2.767280101776123 1.114969968795776 -5.781000137329102
3.599280118942261 1.173969984054565 -5.806000232696533
2.846280097961426 0.789965987205505 -5.794000148773193
2.930279970169067 1.114969968795776 -5.818999767303467
3.141279935836792 1.257969975471497 -5.854000091552734
2.995280027389526 0.675966978073120 -5.850999832153320
3.138279914855957 0.596966981887817 -5.888999938964844
3.516279935836792 1.295969963073731 -5.923999786376953
2.801280021667481 1.004969954490662 -5.919000148773193
3.321280002593994 1.265969991683960 -5.938000202178955
3.032279968261719 1.154970049858093 -5.943999767303467
2.825279951095581 1.174970030784607 -5.958000183105469
3.437279939651489 1.423969984054565 -5.994999885559082
2.862279891967773 0.856966972351074 -5.988999843597412
2.961280107498169 0.721966981887817 -6.019000053405762
3.216279983520508 1.288969993591309 -6.066999912261963
3.097280025482178 0.624966979026794 -6.059000015258789
2.945280075073242 1.186969995498657 -6.085000038146973
3.321280002593994 1.468969941139221 -6.116000175476074
2.782279968261719 1.091969966888428 -6.098999977111816
3.086280107498169 1.245970010757446 -6.164000034332275
2.911279916763306 0.795966029167175 -6.164999961853027
2.833280086517334 0.960967004299164 -6.198999881744385
2.802279949188232 1.228970050811768 -6.205999851226807
3.199280023574829 1.409970045089722 -6.236999988555908
3.022279977798462 0.682967007160187 -6.242000102996826
3.227279901504517 1.572970032691956 -6.293000221252441
2.889280080795288 1.334969997406006 -6.321000099182129
3.027280092239380 1.222970008850098 -6.343999862670898
2.819279909133911 1.144970059394836 -6.349999904632568
2.898279905319214 0.801967024803162 -6.343999862670898
2.829279899597168 0.953966975212097 -6.375000000000000
3.047280073165894 1.385969996452332 -6.389999866485596
3.123280048370361 1.542969942092896 -6.422999858856201
2.861279964447022 0.831966996192932 -6.534999847412109
2.994280099868774 1.468969941139221 -6.553999900817871
2.904279947280884 1.305969953536987 -6.557000160217285
2.839279890060425 1.002969980239868 -6.554999828338623
3.118279933929443 1.614969968795776 -6.580999851226807
2.854279994964600 1.144970059394836 -6.660999774932861
2.869280099868774 0.934966027736664 -6.708000183105469
3.201280117034912 1.586969971656799 -6.743000030517578
3.034280061721802 1.586969971656799 -6.761000156402588
2.938280105590820 1.412969946861267 -6.777999877929688
2.852279901504517 1.045969963073731 -6.834000110626221
2.868279933929443 1.269970059394836 -6.860000133514404
2.912280082702637 1.611969947814941 -6.882999897003174
2.892280101776123 1.460970044136047 -6.949999809265137
2.820280075073242 1.189970016479492 -7.017000198364258
2.836280107498169 1.671970009803772 -7.032000064849854
2.826280117034912 1.414970040321350 -7.107999801635742
2.763279914855957 1.582970023155212 -7.177000045776367
2.803280115127564 1.221969962120056 -7.189000129699707
2.729279994964600 1.443969964981079 -7.276999950408936
2.689280033111572 1.639969944953919 -7.324999809265137
