ply
format ascii 1.0
element vertex 263
property double x
property double y
property double z
end_header
-2.735340118408203 8.030079841613770 49.342399597167969
-2.735340118408203 8.030079841613770 49.342399597167969
-4.181550025939941 8.615909576416016 47.313800811767578
-5.745800018310547 8.175550460815430 45.855598449707031
-3.751430034637451 7.978330135345459 45.336700439453125
-7.224380016326904 8.000470161437988 43.335399627685547
-5.270919799804688 8.232080459594727 42.813999176025391
-7.286580085754395 8.213569641113281 41.403999328613281
-9.197930335998535 7.462649822235107 41.304901123046875
-5.850619792938232 7.857120037078857 39.853000640869141
-7.733709812164307 8.491020202636719 38.837898254394531
-9.704799652099609 8.318090438842773 38.831501007080078
-8.725090026855469 8.463370323181152 36.836898803710938
-10.952899932861328 7.296889781951904 37.434200286865234
-6.772170066833496 8.371259689331055 36.331901550292969
-8.247750282287598 8.744440078735352 34.853401184082031
-10.254099845886230 8.075380325317383 35.347801208496094
-12.221599578857422 7.009990215301514 35.841598510742188
-11.138899803161621 7.872320175170898 33.316101074218750
-9.629349708557129 8.810230255126953 32.290199279785156
-12.609299659729004 6.422739982604981 33.295299530029297
-11.934900283813477 7.807030200958252 31.434499740600586
-10.715800285339355 8.838870048522949 30.310800552368164
-13.885000228881836 5.652070045471191 31.918699264526367
-13.508799552917480 6.843979835510254 30.210800170898438
-12.361499786376953 8.228659629821777 29.416799545288086
-10.179300308227539 9.329730033874512 28.288999557495117
-14.820400238037109 5.580490112304688 29.387300491333008
-14.049300193786621 7.365039825439453 28.248699188232422
-12.210900306701660 8.980030059814453 27.322299957275391
-13.600700378417969 8.846229553222656 25.750000000000000
-15.690799713134766 5.504960060119629 27.322700500488281
-15.041799545288086 7.354939937591553 26.232799530029297
-12.660400390625000 9.783129692077637 24.246700286865234
-14.893199920654297 8.714870452880859 23.938800811767578
-16.694499969482422 5.017910003662109 25.322399139404297
-16.235200881958008 7.035339832305908 24.343000411987305
-13.861399650573730 10.223099708557129 22.470699310302734
-16.043300628662109 8.849329948425293 21.709699630737305
-15.192700386047363 10.480600357055664 20.793100357055664
-17.649900436401367 5.007110118865967 23.297700881958008
-17.187299728393555 7.009250164031982 22.319999694824219
-16.460399627685547 10.693099975585937 19.029399871826172
-17.142999649047852 8.967229843139648 19.776399612426758
-18.370399475097656 5.067820072174072 21.411699295043945
-18.125799179077148 6.990630149841309 20.298400878906250
-17.632200241088867 10.987099647521973 17.278799057006836
-18.253400802612305 9.041509628295898 17.853099822998047
-19.052000045776367 5.013999938964844 19.282199859619141
-18.771999359130859 7.049210071563721 18.357200622558594
-18.581499099731445 10.933500289916992 15.271699905395508
-19.114900588989258 8.999939918518066 15.792499542236328
-19.425199508666992 7.081429958343506 16.427299499511719
-19.857999801635742 4.550749778747559 17.404899597167969
-19.909700393676758 7.543179988861084 14.393099784851074
-19.371700286865234 3.516570091247559 15.824500083923340
-19.865400314331055 9.547450065612793 13.389699935913086
-19.855100631713867 5.538109779357910 14.864600181579590
-20.915599822998047 11.504400253295898 11.383799552917480
-19.436199188232422 3.917720079421997 13.845299720764160
-20.349199295043945 7.530600070953369 12.362400054931641
-20.571699142456055 9.548669815063477 11.283599853515625
-20.164100646972656 5.548439979553223 12.830499649047852
-21.759399414062500 11.529299736022949 9.353240013122559
-20.796400070190430 7.522900104522705 10.361499786376953
-21.300300598144531 9.526610374450684 9.370320320129395
-19.320600509643555 3.972800016403198 11.343899726867676
-20.300199508666992 5.505310058593750 10.348500251770020
-17.947999954223633 2.299499988555908 11.270400047302246
-22.566099166870117 11.075499534606934 7.262060165405273
-21.358600616455078 7.504740238189697 8.377240180969238
-19.323600769042969 3.949650049209595 9.341750144958496
-22.177299499511719 9.045069694519043 7.320290088653565
-20.499000549316406 5.414959907531738 8.370209693908691
-17.842500686645508 2.900429964065552 8.314959526062012
-23.637899398803711 11.078300476074219 5.310490131378174
-19.219400405883789 4.050539970397949 7.344110012054443
-22.760200500488281 9.023690223693848 5.349390029907227
-20.762199401855469 5.508979797363281 6.343239784240723
-17.224100112915039 3.051170110702515 6.347869873046875
-24.105300903320313 11.557399749755859 3.290169954299927
-19.368299484252930 4.306779861450195 5.291090011596680
-22.121700286865234 7.093530178070068 4.317379951477051
-23.556800842285156 9.614709854125977 3.282390117645264
-15.757300376892090 2.993769884109497 4.825369834899902
-20.734699249267578 5.532629966735840 4.342150211334229
-17.788900375366211 3.842540025711060 4.283289909362793
-24.717100143432617 11.039999961853027 1.335960030555725
-22.786600112915039 7.501349925994873 2.351089954376221
-16.687500000000000 4.190239906311035 2.403019905090332
-23.833999633789063 8.977149963378906 1.375020027160645
-20.768499374389648 5.487669944763184 2.340939998626709
-18.741300582885742 4.509749889373779 2.337670087814331
-25.413000106811523 10.992699623107910 -0.602240025997162
-22.245899200439453 6.519259929656982 0.342353999614716
-17.233900070190430 4.663129806518555 0.382669985294342
-15.296600341796875 4.289450168609619 0.236968994140625
-20.296199798583984 5.407549858093262 0.332141995429993
-24.568199157714844 9.146100044250488 -0.705591976642609
-23.377799987792969 7.397850036621094 -1.125769972801209
-18.727699279785156 5.085629940032959 -1.148370027542114
-26.414800643920898 10.965999603271484 -2.599709987640381
-16.690200805664063 5.375579833984375 -1.724779963493347
-25.149200439453125 9.107609748840332 -2.677500009536743
-14.801600456237793 5.381279945373535 -2.727190017700195
-20.287300109863281 5.443210124969482 -2.654609918594360
-22.225999832153320 6.045100212097168 -2.657919883728027
-23.803300857543945 7.467750072479248 -3.146919965744019
-18.228599548339844 5.417739868164063 -3.179739952087402
-27.100299835205078 11.113400459289551 -4.668200016021729
-15.268199920654297 6.217229843139648 -4.627160072326660
-25.899099349975586 9.382450103759766 -4.628300189971924
-19.735700607299805 5.518780231475830 -4.658979892730713
-17.198499679565430 5.903399944305420 -5.190070152282715
-24.479900360107422 7.807650089263916 -5.111989974975586
-26.847600936889648 12.034700393676758 -6.683899879455566
-26.533599853515625 10.096699714660645 -6.650360107421875
-22.856199264526367 6.293200016021729 -5.619689941406250
-18.714799880981445 5.851560115814209 -6.674139976501465
-16.245000839233398 6.161739826202393 -7.156429767608643
-20.715299606323242 5.797019958496094 -6.628729820251465
-25.344100952148437 8.443900108337402 -7.150169849395752
-26.471399307250977 11.031200408935547 -8.648400306701660
-23.916799545288086 6.814179897308350 -7.631410121917725
-17.730699539184570 5.987780094146729 -8.650409698486328
-22.277000427246094 5.917570114135742 -8.165129661560059
-15.701999664306641 6.292280197143555 -9.181520462036133
-26.002000808715820 9.135029792785645 -9.156060218811035
-19.733900070190430 5.769309997558594 -8.660670280456543
-24.869300842285156 7.423470020294190 -9.639749526977539
-21.224599838256836 5.688099861145020 -10.159999847412109
-15.798800468444824 6.268390178680420 -11.159799575805664
-26.357299804687500 10.523699760437012 -11.661000251770020
-26.505300521850586 12.498600006103516 -12.682399749755859
-17.710899353027344 5.845419883728027 -11.153800010681152
-23.237199783325195 6.025489807128906 -10.657099723815918
-19.739299774169922 5.655000209808350 -11.663599967956543
-24.764099121093750 7.004250049591065 -11.653699874877930
-25.775699615478516 8.515170097351074 -12.657699584960937
-21.732099533081055 5.554629802703857 -12.159399986267090
-26.250600814819336 10.532999992370605 -13.659199714660645
-16.240299224853516 6.548039913177490 -13.654800415039063
-14.290100097656250 6.844419956207275 -14.134599685668945
-26.050899505615234 12.520600318908691 -15.151700019836426
-20.233900070190430 5.516190052032471 -13.656700134277344
-18.242000579833984 5.649320125579834 -14.166399955749512
-22.735799789428711 5.522739887237549 -14.157400131225586
-16.714199066162109 6.494810104370117 -15.666299819946289
-25.964799880981445 13.042900085449219 -17.153799057006836
-25.409500122070313 7.423339843750000 -15.140199661254883
-15.257800102233887 7.622029781341553 -16.617500305175781
-26.165399551391602 11.036999702453613 -16.656400680541992
-25.870399475097656 9.006950378417969 -16.156099319458008
-21.242500305175781 5.340690135955811 -15.645700454711914
-19.242599487304687 5.591899871826172 -16.160100936889648
-15.406100273132324 9.020299911499023 -18.100200653076172
-23.254800796508789 5.430910110473633 -16.153799057006836
-26.162300109863281 13.059000015258789 -19.153699874877930
-17.938999176025391 6.344419956207275 -17.557600021362305
-16.884700775146484 7.721039772033691 -18.551799774169922
-26.026100158691406 9.561860084533691 -18.170299530029297
-16.455200195312500 9.900340080261231 -19.655000686645508
-25.589700698852539 7.572529792785645 -17.664400100708008
-19.731700897216797 5.526179790496826 -18.159400939941406
-17.718900680541992 11.051500320434570 -21.149700164794922
-23.763999938964844 5.441470146179199 -18.149700164794922
-15.451399803161621 8.386590003967285 -20.664199829101563
-26.282300949096680 10.534700393676758 -20.154699325561523
-18.325799942016602 6.675089836120606 -19.624300003051758
-21.715200424194336 5.213630199432373 -18.667699813842773
-25.786199569702148 12.554200172424316 -21.159799575805664
-25.835899353027344 8.007559776306152 -19.646699905395508
-15.762000083923340 9.988550186157227 -22.183200836181641
-20.271299362182617 5.633409976959229 -20.145799636840820
-25.238599777221680 4.534739971160889 -19.092800140380859
-23.300800323486328 5.202670097351074 -20.111999511718750
-18.528400421142578 12.254500389099121 -23.670200347900391
-19.355199813842773 6.654520034790039 -21.624900817871094
-16.879699707031250 10.843299865722656 -23.687599182128906
-26.628999710083008 10.039299964904785 -22.176399230957031
-26.163000106811523 8.051139831542969 -21.668800354003906
-18.597499847412109 8.419790267944336 -23.165899276733398
-21.748199462890625 5.134729862213135 -21.665300369262695
-24.733400344848633 5.534150123596191 -21.657899856567383
-19.272300720214844 12.487500190734863 -25.647199630737305
-18.182800292968750 10.524600028991699 -25.168300628662109
-20.523399353027344 5.802000045776367 -23.194400787353516
-26.891700744628906 10.038399696350098 -24.148700714111328
-26.524400711059570 8.086159706115723 -23.704900741577148
-18.713899612426758 8.525429725646973 -25.162700653076172
-23.249500274658203 4.920929908752441 -23.153099060058594
-25.238700866699219 5.528920173645020 -23.656600952148438
-20.310400009155273 12.392100334167480 -27.627700805664063
-20.408199310302734 6.147649765014648 -25.162000656127930
-18.995100021362305 10.577199935913086 -27.272100448608398
-27.225700378417969 10.033399581909180 -26.158599853515625
-26.233100891113281 12.039299964904785 -27.158100128173828
-26.948200225830078 7.965660095214844 -25.608999252319336
-22.271200180053711 5.154469966888428 -25.152299880981445
-19.642999649047852 7.480020046234131 -26.664699554443359
-24.177799224853516 4.715819835662842 -25.178499221801758
-21.853000640869141 12.754699707031250 -29.118600845336914
-25.788000106811523 5.479030132293701 -26.145200729370117
-25.715200424194336 12.063599586486816 -29.156000137329102
-21.247299194335938 5.544290065765381 -27.158700942993164
-27.419200897216797 8.511409759521484 -27.628999710083008
-19.787399291992188 9.537289619445801 -29.139099121093750
-26.981100082397461 10.156499862670898 -28.659599304199219
-20.713899612426758 11.546400070190430 -30.169099807739258
-20.181400299072266 7.029540061950684 -28.669399261474609
-24.312400817871094 10.933199882507324 -30.146499633789063
-22.354099273681641 12.342800140380859 -31.071300506591797
-26.274900436401367 5.498859882354736 -28.147499084472656
-26.315200805664063 10.638799667358398 -30.644100189208984
-27.797399520874023 8.528909683227539 -29.648700714111328
-22.437099456787109 4.174379825592041 -28.683000564575195
-20.409799575805664 8.053649902343750 -30.593999862670898
-21.522499084472656 5.680180072784424 -29.603599548339844
-23.882499694824219 12.883099555969238 -32.521400451660156
-21.669700622558594 10.573800086975098 -32.191200256347656
-26.817699432373047 5.487319946289063 -30.148799896240234
-25.090400695800781 11.014499664306641 -32.674499511718750
-23.705299377441406 3.922410011291504 -30.156700134277344
-21.195499420166016 6.523469924926758 -31.672000885009766
-21.150199890136719 8.542420387268066 -32.693099975585938
-25.768100738525391 3.762820005416870 -30.194900512695313
-27.879100799560547 8.017970085144043 -31.661399841308594
-23.080699920654297 11.203700065612793 -33.753299713134766
-22.045700073242188 9.630709648132324 -34.244998931884766
-22.490999221801758 4.721479892730713 -32.657699584960938
-24.180200576782227 3.874639987945557 -32.151000976562500
-25.289499282836914 11.307200431823730 -35.079101562500000
-21.706399917602539 6.531290054321289 -33.664600372314453
-23.540399551391602 10.271400451660156 -35.796001434326172
-22.564699172973633 8.608690261840820 -36.236801147460938
-21.964099884033203 6.491179943084717 -35.635501861572266
-25.769399642944336 10.421199798583984 -37.105998992919922
-23.874500274658203 9.361129760742188 -37.562500000000000
-22.292400360107422 6.997739791870117 -37.644298553466797
-25.107900619506836 9.237330436706543 -39.253501892089844
-27.233499526977539 9.539759635925293 -39.159099578857422
-23.361400604248047 7.920569896697998 -39.121299743652344
-23.146099090576172 5.515359878540039 -39.197299957275391
-24.579500198364258 3.877720117568970 -39.149501800537109
-26.297500610351563 8.864680290222168 -41.088901519775391
-24.286800384521484 8.293410301208496 -41.188701629638672
-23.826900482177734 5.541769981384277 -41.131000518798828
-25.890699386596680 2.732189893722534 -40.187698364257812
-25.488100051879883 8.419509887695313 -42.795501708984375
-27.656600952148438 7.445489883422852 -42.662399291992188
-24.607900619506836 4.476870059967041 -42.713298797607422
-25.525600433349609 2.865430116653442 -42.126499176025391
-24.851200103759766 6.990270137786865 -44.123798370361328
-26.509099960327148 8.704589843750000 -44.785198211669922
-25.059999465942383 4.470990180969238 -44.698898315429688
-25.868499755859375 2.663089990615845 -44.159999847412109
-25.803100585937500 6.993259906768799 -46.131198883056641
-25.519300460815430 5.021870136260986 -46.558700561523438
-27.177600860595703 1.438040018081665 -45.147098541259766
-25.034799575805664 2.867769956588745 -46.112598419189453
-28.761299133300781 0.703890025615692 -46.182998657226563
-25.796899795532227 1.770499944686890 -47.732601165771484
-27.675300598144531 0.898703992366791 -48.108501434326172
