ply
format ascii 1.0
element vertex 388
property double x
property double y
property double z
end_header
-176.872505187988280 154.519500732421870 -83.584899902343750
-175.488998413085940 154.378997802734370 -84.406452178955078
-177.321750640869140 154.184997558593750 -81.859577178955078
-175.650001525878910 153.534996032714840 -81.742050170898438
-176.925994873046870 152.772003173828120 -79.192703247070313
-175.630500793457030 152.472999572753910 -79.330146789550781
-177.082000732421870 153.484334309895840 -79.819366455078125
-175.010335286458340 152.838663736979160 -80.131268819173172
-173.115005493164060 153.182998657226560 -78.899902343750000
-177.702801513671890 152.065200805664060 -76.670080566406256
-174.805498758951810 151.343162536621090 -77.148933410644531
-172.695007324218750 152.649002075195310 -77.719200134277344
-178.149497985839840 153.903999328613280 -76.990951538085938
-171.037994384765620 153.652999877929690 -77.992996215820313
-176.769500732421870 156.107501983642580 -77.068325042724609
-174.742335001627590 149.267333984375000 -74.419235229492187
-177.563003540039060 151.376998901367190 -74.649196624755859
-175.865005493164060 150.570999145507810 -75.026496887207031
-172.880996704101560 151.357498168945310 -75.242248535156250
-171.113998413085940 152.483001708984370 -74.814399719238281
-176.639007568359370 153.942001342773440 -74.865798950195313
-177.017664591471340 149.980672200520840 -72.303967793782547
-174.979499816894530 148.585667928059910 -72.515000661214188
-172.556499481201170 149.573001861572270 -71.874748229980469
-180.108505249023440 150.798004150390630 -72.646400451660156
-178.207202148437490 151.036398315429690 -72.699420166015628
-171.473999023437500 151.391006469726560 -73.053398132324219
-171.061004638671870 150.910003662109370 -71.857902526855469
-174.953501383463530 146.863502502441410 -69.635982513427734
-179.119995117187500 150.203002929687500 -69.135398864746094
-177.508710588727670 149.223713466099330 -69.382142203194761
-175.692001342773440 147.824005126953120 -70.412696838378906
-172.073005676269530 149.015998840332030 -70.092300415039062
-178.729995727539060 150.783004760742190 -70.399597167968750
-177.044998168945310 147.306503295898440 -66.540649414062500
-175.047003173828130 145.834002685546860 -66.714620971679693
-172.293996175130220 146.648335774739590 -66.672465006510421
-170.753005981445310 147.565002441406250 -66.127098083496094
-177.753326416015620 148.813334147135410 -67.416366577148438
-171.304000854492190 148.130004882812500 -67.156501770019531
-170.333999633789060 148.656005859375000 -66.747001647949219
-176.744995117187500 145.164001464843750 -64.174697875976563
-174.863334655761720 144.529833475748690 -64.785233815511063
-172.790000915527340 144.499000549316410 -64.092147827148438
-177.362998962402340 147.081748962402340 -64.816251754760742
-171.868001302083340 145.829996744791660 -65.035401662190750
-169.984664916992190 146.830668131510410 -64.441899617513016
-178.018005371093750 148.158004760742190 -64.141899108886719
-169.934997558593750 148.250000000000000 -65.582603454589844
-176.686996459960940 142.347000122070310 -61.010398864746094
-174.542994181315090 142.250000000000000 -61.484133402506508
-172.768005371093750 142.285003662109370 -61.074298858642578
-177.462200927734390 144.294598388671890 -61.990760803222656
-175.216664632161470 143.240336100260410 -62.480866750081383
-172.178752899169920 143.731750488281250 -62.532400131225586
-170.176599121093740 144.321997070312510 -61.957960510253905
-167.994995117187500 144.602996826171870 -61.698001861572266
-177.800994873046880 146.087997436523440 -63.201499938964844
-169.324005126953120 145.880996704101560 -63.330101013183594
-168.106498718261720 145.786994934082030 -62.722249984741211
-174.877502441406250 140.116500854492190 -58.642150878906250
-177.409252166748050 141.629497528076170 -59.439125061035156
-174.908500671386720 141.039501190185550 -59.955925941467285
-172.667999267578120 141.321502685546870 -59.740949630737305
-170.406201171875010 141.990402221679690 -59.454161071777342
-168.184005737304690 142.419006347656250 -59.383499145507812
-181.673004150390620 143.270996093750000 -58.539501190185547
-179.617398071289070 143.921798706054690 -59.367739868164065
-178.106664021809910 143.390996297200530 -60.387166341145836
-169.427001953125000 142.975997924804690 -60.194999694824219
-168.297500610351560 143.809997558593750 -60.249549865722656
-179.785995483398440 139.589004516601560 -56.139598846435547
-177.512429373604900 139.172716413225460 -56.847271510532927
-174.851834615071620 138.662834167480470 -57.155383427937828
-172.764999389648440 139.308998107910160 -57.279499053955078
-170.348003387451170 139.694248199462890 -56.851650238037109
-168.100502014160160 139.567001342773440 -56.971448898315430
-181.473495483398440 141.412002563476560 -57.333049774169922
-180.113998413085940 141.393000284830720 -57.405133565266929
-178.021667480468750 141.032999674479160 -58.254700978597008
-172.535995483398440 140.341003417968750 -58.427398681640625
-170.411499023437500 140.760498046875000 -58.077299118041992
-168.154998779296870 140.921005249023440 -57.883998870849609
-181.616004943847660 136.622497558593750 -53.932100296020508
-180.123992919921870 137.190994262695310 -54.088100433349609
-177.858998616536470 136.910499572753910 -54.365217208862305
-174.791165669759120 136.685666402181000 -54.597817103068031
-172.628997802734370 136.977330525716160 -54.305966695149742
-170.343002319335940 137.057495117187500 -54.163400650024414
-168.106664021809910 136.815994262695310 -54.437966664632164
-181.493995666503910 138.487998962402340 -55.030200958251953
-180.047500610351560 138.412498474121090 -55.126050949096680
-178.723007202148440 138.600006103515620 -55.684101104736328
-172.438003540039060 138.339004516601560 -55.854999542236328
-170.344253540039060 138.208499908447270 -55.331174850463867
-168.158004760742190 138.365997314453120 -55.917499542236328
-183.044998168945310 132.787002563476560 -50.993301391601563
-181.571502685546870 134.374496459960940 -51.641000747680664
-180.066993713378910 134.458999633789060 -51.595798492431641
-177.848503112792970 134.365753173828120 -51.647475242614746
-174.793502807617190 134.261497497558590 -51.771174430847168
-172.640502929687500 134.634002685546870 -51.439599990844727
-170.394004821777340 135.137496948242190 -51.778450012207031
-168.152503967285160 134.398994445800780 -51.657150268554688
-181.580993652343750 135.494995117187500 -52.836601257324219
-180.076995849609370 135.998001098632810 -53.030248641967773
-177.998497009277340 135.446998596191410 -52.791450500488281
-173.917007446289060 135.386993408203120 -52.799301147460938
-172.505004882812500 135.619995117187500 -52.610801696777344
-170.345005035400390 136.105503082275390 -52.955200195312500
-168.214004516601560 135.401000976562500 -52.804500579833984
-181.562995910644530 132.119995117187500 -49.442701339721680
-180.093002319335940 132.336502075195310 -49.227149963378906
-177.843502044677730 132.229751586914060 -49.336998939514160
-174.841251373291020 132.131252288818360 -49.392100334167480
-172.375000000000000 132.235992431640620 -48.470500946044922
-168.248992919921870 132.490997314453120 -49.629699707031250
-181.606002807617190 133.186996459960940 -50.626098632812500
-180.117996215820310 133.335998535156250 -50.499000549316406
-177.768501281738280 133.261001586914060 -50.547601699829102
-174.917503356933590 133.221000671386720 -50.610948562622070
-172.675994873046870 133.248001098632810 -49.843250274658203
-170.475399780273450 133.789999389648440 -49.990080261230467
-167.981002807617190 133.276000976562500 -50.584598541259766
-181.583999633789060 130.003005981445310 -46.304500579833984
-180.074005126953120 130.082992553710940 -46.239601135253906
-177.885498046875000 129.852493286132810 -46.420301437377930
-175.203746795654300 129.586250305175780 -46.681849479675293
-172.660995483398440 130.104003906250000 -46.203098297119141
-168.039001464843750 130.242996215820310 -46.112701416015625
-182.542999267578120 130.901336669921870 -47.400867462158203
-180.072998046875000 131.300003051757810 -47.952899932861328
-177.771999359130860 130.843250274658200 -47.719075202941895
-174.629002888997410 130.883331298828120 -47.871766408284508
-172.503997802734370 131.179496765136720 -47.309398651123047
-170.329999287923190 131.746002197265620 -47.495749155680336
-167.714330037434910 131.028330485026030 -47.687468210856117
-177.163497924804690 127.560501098632810 -44.235799789428711
-174.862751007080080 127.062000274658200 -43.970425605773926
-173.184997558593750 127.662002563476560 -44.094699859619141
-182.323497772216800 129.079498291015620 -44.888825416564941
-179.587002563476570 128.783999633789050 -44.443080139160159
-177.482666015625000 128.645665486653660 -45.181433359781899
-174.669998168945310 128.459665934244780 -45.325867970784508
-172.197750091552730 128.812000274658200 -44.475074768066406
-170.088668823242190 129.552998860677090 -44.748299916585289
-168.142333984375000 128.792666117350250 -44.420266469319664
-171.300003051757810 130.479003906250000 -45.886001586914063
-169.541000366210940 130.414001464843750 -45.945899963378906
-176.690002441406250 124.330001831054690 -41.383800506591797
-175.173334757486970 124.535331726074220 -41.707332611083984
-181.432998657226560 127.383003234863280 -41.521900177001953
-179.887001037597660 127.347499847412110 -42.243749618530273
-177.712997436523440 126.307428632463730 -42.481000627790181
-174.630666097005220 125.615666707356770 -42.666299184163414
-172.346832275390620 126.500665028889970 -42.273949940999351
-170.364501953125000 127.109001159667970 -41.676198959350586
-168.076004028320310 126.983001708984370 -41.798900604248047
-182.254997253417970 128.601501464843750 -43.226749420166016
-170.309749603271480 128.137001037597660 -42.858973503112793
-177.251998901367190 122.280498504638670 -38.988075256347656
-174.916333516438810 121.882499694824220 -39.397466659545898
-172.667999267578120 122.503997802734370 -38.755199432373047
-179.703498840332030 125.012500762939450 -39.222549438476562
-178.030334472656250 124.249165852864580 -40.031766891479492
-174.827003479003910 123.685501098632810 -40.684200286865234
-172.216747283935550 124.330499649047850 -39.938824653625488
-170.419667561848970 124.640668233235670 -39.179500579833984
-181.817749023437500 126.402999877929690 -39.798400878906250
-180.113494873046880 126.100997924804690 -40.412549972534180
-170.352752685546870 126.032999038696290 -40.515850067138672
-168.156005859375000 125.905998229980470 -39.952201843261719
-175.707992553710940 117.666000366210940 -36.220401763916016
-176.927332560221340 119.054000854492190 -36.622066497802734
-175.026713779994420 119.103143964494980 -37.218072073800222
-172.658996582031250 119.499500274658200 -36.519550323486328
-179.011001586914060 121.441001892089840 -36.129049301147461
-178.046666463216160 121.449333190917970 -37.353466033935547
-173.852005004882810 120.518997192382810 -37.881801605224609
-172.245199584960940 121.196800231933590 -37.390799713134768
-170.317999267578130 121.983200073242190 -36.622239685058595
-181.606498718261720 124.548000335693360 -37.432149887084961
-179.925837198893220 123.822999318440750 -37.450066884358726
-171.488006591796870 122.864997863769530 -38.313899993896484
-169.962997436523440 123.714998881022140 -38.093166351318359
-168.380004882812500 124.483001708984370 -38.116001129150391
-182.792007446289060 125.977996826171870 -38.446498870849609
-176.824996948242190 114.458999633789060 -33.929349899291992
-174.917251586914060 114.351749420166020 -34.061924934387207
-172.882995605468750 115.232002258300780 -33.865299224853516
-177.375000000000000 116.521334330240890 -34.717231750488281
-174.868495941162110 116.347000122070310 -35.240175247192383
-172.105667114257810 116.925333658854170 -34.347733815511070
-170.479995727539060 117.667999267578130 -33.501201629638672
-179.119499206542970 119.566497802734370 -34.188400268554688
-177.910664876302090 118.513666788736980 -35.245033264160156
-171.978998819986970 118.682998657226560 -35.427167256673179
-170.473247528076170 118.757247924804690 -34.209650039672852
-181.606994628906250 122.421997070312500 -34.363899230957031
-180.041664123535160 121.485832214355470 -34.810333887736000
-169.627502441406250 120.982498168945310 -35.057600021362305
-181.589004516601560 123.938003540039060 -35.845199584960937
-180.963500976562500 123.504001617431640 -34.756250381469727
-174.861000061035160 109.685499191284180 -31.343550205230713
-177.362402343750010 111.378199768066410 -31.882300186157227
-175.110331217447910 111.597999572753910 -32.569699605305992
-172.649337768554690 111.461001078287770 -31.752266565958660
-170.627665201822910 111.508333841959640 -31.224633534749348
-178.841995239257810 114.912002563476560 -31.436700820922852
-178.017202758789070 114.014601135253910 -32.590800476074222
-174.833000183105470 113.206996917724610 -33.288450241088867
-172.110997517903660 113.967999776204420 -32.761999766031899
-170.102600097656250 114.273799133300780 -32.156880569458011
-168.172500610351560 114.258998870849610 -31.834949493408203
-179.149002075195310 116.310997009277340 -31.559900283813477
-178.636993408203120 116.428001403808590 -32.863700866699219
-170.236503601074220 116.375499725341800 -32.988649368286133
-168.436996459960940 116.599998474121090 -32.131599426269531
-180.046600341796870 118.875801086425780 -31.911760330200195
-169.395004272460940 118.597499847412110 -33.028501510620117
-181.550003051757810 120.975997924804690 -32.810100555419922
-180.483993530273440 120.680000305175780 -33.085601806640625
-175.554000854492190 104.365997314453120 -28.501100540161133
-177.377498626708980 106.692249298095700 -29.438775062561035
-174.822166442871090 106.409165700276690 -29.376766840616863
-172.494499206542970 107.329998016357420 -29.240449905395508
-170.955001831054690 107.271003723144530 -28.590400695800781
-179.093002319335940 108.865997314453120 -28.617300033569336
-177.558664957682280 108.972999572753910 -30.323567072550457
-173.792007446289060 108.539001464843750 -30.525800704956055
-172.225001017252590 108.645665486653640 -29.997332890828449
-170.061602783203110 109.348999023437500 -29.825000381469728
-168.052337646484370 109.314000447591140 -29.538666407267254
-179.147499084472660 111.098499298095700 -29.360699653625488
-178.444999694824220 110.518497467041020 -30.445899963378906
-169.925003051757810 110.861000061035160 -30.679399490356445
-168.289001464843750 112.166999816894530 -30.834999084472656
-179.186996459960940 114.129997253417970 -30.018549919128418
-180.138000488281250 117.113002777099610 -29.902100563049316
-180.391006469726560 119.435997009277340 -29.975599288940430
-177.350667317708340 99.671602884928390 -26.278466542561848
-174.976501464843750 100.162502288818360 -26.386549949645996
-177.597666422526030 101.868331909179690 -26.999633789062500
-174.929602050781260 101.985801696777340 -27.216620254516602
-172.514503479003910 102.170501708984370 -26.131150245666504
-179.210998535156250 104.473499298095700 -26.751850128173828
-177.711502075195310 103.794000625610350 -27.759575366973877
-174.710667928059910 103.606999715169270 -27.971366246541340
-172.336750030517580 103.812749862670900 -27.053650379180908
-170.480995178222660 104.628498077392580 -26.632100105285645
-179.613337198893220 106.428667704264330 -26.877400080362957
-178.611000061035160 106.680999755859370 -28.359700202941895
-172.548995971679690 105.896003723144530 -28.409299850463867
-169.983164469401030 106.104834238688160 -27.446383476257324
-168.094001770019530 106.706497192382810 -27.574500083923340
-179.793502807617190 109.006500244140620 -27.432650566101074
-179.718753814697270 111.595249176025390 -27.820925235748291
-179.947502136230470 113.444999694824220 -27.554949760437012
-177.759002685546880 92.537799835205078 -23.588950157165527
-175.649993896484370 92.531898498535156 -23.626600265502930
-177.861503601074220 93.884250640869141 -24.000899314880371
-175.051666259765620 94.378565470377609 -23.981466929117840
-179.592666625976560 96.404032389322921 -23.925266265869141
-177.904998779296870 96.131838989257815 -24.798120117187501
-174.861499786376950 96.276575088500977 -24.754900455474854
-173.027664184570310 96.404866536458329 -23.935099919637043
-179.971336364746090 99.477001190185547 -24.469716707865398
-177.914497375488280 98.371097564697266 -25.577449798583984
-174.505335489908840 98.830998738606766 -25.616400400797527
-172.591751098632810 99.194923400878906 -24.583024978637695
-171.052993774414060 99.924797058105469 -23.882799148559570
-181.320999145507810 101.472999572753910 -23.610099792480469
-179.860336303710940 101.387667338053390 -25.123933156331379
-171.972503662109370 101.505001068115230 -25.204750061035156
-169.879669189453120 101.774332682291670 -24.115299860636394
-181.414993286132810 104.472000122070310 -23.737199783325195
-180.508666992187500 103.439999898274730 -24.804000218709309
-170.082005818684910 103.424667358398440 -25.348066329956055
-181.856994628906250 105.902000427246090 -24.078199386596680
-180.803497314453120 106.954500834147140 -25.318633715311687
-180.714996337890630 108.832000732421870 -25.688549995422363
-177.147994995117190 81.908401489257813 -21.016300201416016
-175.571502685546870 81.170001983642578 -20.984849929809570
-177.608998616536470 84.430234273274735 -21.363099416097004
-174.773998260498050 84.175949096679688 -21.369600296020508
-172.546997070312500 84.913200378417969 -20.963499069213867
-178.904998779296870 86.308601379394531 -21.542299270629883
-177.715003967285160 86.547946929931641 -21.964900016784668
-174.592997233072910 86.487167358398438 -21.791700363159180
-172.481994628906250 86.402099609375000 -21.125200271606445
-180.057003021240230 88.730323791503906 -21.538374900817871
-177.860252380371090 88.652374267578125 -22.440949916839600
-174.850498199462890 88.692276000976563 -22.351549625396729
-172.578498840332030 88.681598663330078 -21.626700401306152
-170.992996215820310 88.638248443603516 -21.107500076293945
-181.744995117187500 92.407096862792969 -21.014099121093750
-179.916501363118500 91.651566823323563 -22.267883300781250
-177.644996643066410 91.137451171875000 -23.239749908447266
-174.555328369140620 91.408401489257813 -22.991566975911457
-172.546504974365230 91.684926986694336 -22.372924804687500
-170.315002441406250 92.441299438476562 -21.587400436401367
-181.917007446289060 93.853500366210937 -21.183700561523438
-180.337000528971340 94.020301818847656 -22.550433476765949
-172.549001057942720 94.437833150227860 -22.961933135986328
-170.472503662109370 94.000652313232422 -22.034700393676758
-181.828746795654300 96.119775772094727 -21.803150177001953
-180.501998901367190 95.324203491210938 -22.802799224853516
-171.518005371093750 97.038696289062500 -23.134899139404297
-170.308246612548830 96.170324325561523 -22.427299499511719
-168.166000366210940 95.531303405761719 -21.975700378417969
-182.026336669921870 99.435831705729171 -22.291033426920574
-181.037994384765620 98.593399047851563 -23.389400482177734
-171.388000488281250 98.563697814941406 -23.418399810791016
-170.057502746582030 98.280399322509766 -22.909250259399414
-182.262992858886720 101.483001708984370 -22.272500038146973
-182.912002563476560 103.011001586914060 -22.215000152587891
-174.402333577473970 58.926466623942055 -19.643400192260742
-173.019004821777340 58.697898864746094 -18.868050575256348
-177.532999674479160 61.936467488606773 -19.718133290608723
-174.876003265380860 61.684101104736328 -19.381774902343750
-172.958496093750000 61.670200347900391 -18.780799865722656
-177.876495361328120 63.957000732421875 -19.625699996948242
-174.878997802734380 63.941051483154297 -19.267799377441406
-172.908004760742190 63.943599700927734 -18.815700531005859
-179.924499511718750 66.191951751708984 -18.902999877929688
-177.819499969482420 66.187150955200195 -19.319324970245361
-174.855747222900390 66.194950103759766 -19.296200275421143
-172.751998901367190 66.251201629638672 -18.895750045776367
-170.387001037597660 66.284151077270508 -19.014250278472900
-179.818000793457030 69.208549499511719 -18.797699928283691
-177.794502258300780 69.195951461791992 -19.245625019073486
-174.833499908447270 69.190198898315430 -19.368475437164307
-172.631996154785160 69.206699371337891 -19.138299942016602
-170.341999053955080 69.185222625732422 -19.408524990081787
-179.837005615234370 71.479797363281250 -18.766799926757813
-177.826499938964840 71.437149047851563 -19.345350265502930
-174.779998779296870 71.431652069091797 -19.523750305175781
-172.613998413085940 71.454902648925781 -19.178300857543945
-170.380996704101560 71.428146362304688 -19.065099716186523
-179.836997985839840 73.735801696777344 -18.860650062561035
-177.853748321533200 73.693376541137695 -19.541075229644775
-174.775249481201170 73.649299621582031 -19.709275722503662
-172.191670735677090 73.461835225423172 -19.111066818237305
-171.285003662109370 74.457000732421875 -18.863199234008789
-179.879493713378910 76.744350433349609 -18.984849929809570
-177.873245239257810 76.681600570678711 -19.865550041198730
-174.954400634765620 76.508218383789057 -20.255420303344728
-172.575332641601560 76.965799967447921 -19.844533284505207
-170.419502258300780 76.721750259399414 -19.169775009155273
-179.420501708984370 78.928997039794922 -19.494499206542969
-177.635002136230470 79.044551849365234 -20.352099418640137
-174.897003173828120 78.977149963378906 -20.554599761962891
-172.804992675781250 79.022300720214844 -20.251300811767578
-170.285499572753910 78.796001434326172 -19.830900192260742
-181.631996154785160 81.196849822998047 -18.732449531555176
-180.050204467773430 81.064160156249997 -19.592779922485352
-177.976999918619780 80.988398234049484 -20.609833399454754
-174.100502014160160 81.199150085449219 -20.783549308776855
-172.754005432128910 81.247501373291016 -20.450099945068359
-170.324752807617190 81.232151031494141 -20.318950176239014
-168.090003967285160 81.242149353027344 -20.686650276184082
-181.959665934244780 84.470331827799484 -19.240067164103191
-180.339752197265620 84.250125885009766 -20.263700008392334
-178.598999023437500 83.431999206542969 -20.875200271606445
-172.643997192382810 83.463401794433594 -20.633699417114258
-170.379753112792970 84.228324890136719 -20.561399936676025
-168.135002136230470 84.199649810791016 -20.598750114440918
-182.380666097005220 86.862566630045578 -19.692532857259113
-180.628501892089840 86.487300872802734 -20.587399482727051
-170.346000671386720 86.443599700927734 -20.791700363159180
-182.343502044677730 89.068023681640625 -19.717074871063232
-181.227005004882810 87.996902465820313 -20.443300247192383
-169.684005737304690 87.961898803710938 -20.616600036621094
-182.400749206542970 91.707550048828125 -20.131049633026123
-183.010498046875000 94.018051147460938 -19.994150161743164
-183.210502624511720 95.412452697753906 -20.197099685668945
-182.746002197265620 98.477798461914063 -20.633399963378906
-171.866001129150390 58.699899673461914 -17.862800121307373
-171.975331624348970 61.465966542561851 -18.052666982014973
-170.542503356933590 62.522199630737305 -17.490249633789063
-172.227005004882810 63.993801116943359 -18.352899551391602
-171.050003051757810 63.932701110839844 -17.908700942993164
-181.453994750976560 71.444099426269531 -17.680700302124023
-181.580497741699220 73.691402435302734 -17.849049568176270
-181.694000244140620 77.436500549316406 -18.013200759887695
-181.792999267578120 78.884002685546875 -18.197099685668945
-183.166000366210940 81.172199249267578 -17.970999717712402
-183.283004760742190 83.364799499511719 -18.083400726318359
