ply
format ascii 1.0
element vertex 155
property double x
property double y
property double z
end_header
4.019919872283936 -1.107910037040710 -23.938600540161133
4.093920230865479 -1.042909979820252 -23.887599945068359
3.991919994354248 -1.185909986495972 -23.847600936889648
4.085919857025147 -1.058910012245178 -24.035600662231445
3.982919931411743 -1.212910056114197 -24.001600265502930
3.989919900894165 -1.240910053253174 -23.848600387573242
3.994920015335083 -1.175909996032715 -23.785600662231445
4.172920227050781 -1.016909956932068 -23.928600311279297
4.213920116424561 -1.205909967422485 -23.876600265502930
4.229919910430908 -1.075909972190857 -24.027599334716797
4.203919887542725 -1.237910032272339 -23.889600753784180
4.010920047760010 -1.126909971237183 -23.687599182128906
3.999919891357422 -1.161910057067871 -23.656600952148438
4.194920063018799 -0.984908998012543 -23.733600616455078
4.008920192718506 -1.135910034179688 -23.634599685668945
4.227920055389404 -1.177909970283508 -23.709600448608398
4.098919868469238 -1.317909955978394 -23.699600219726562
3.983920097351074 -1.285910010337830 -23.651599884033203
4.156919956207275 -1.285910010337830 -23.678600311279297
4.067920207977295 -1.051910042762756 -23.585599899291992
4.238920211791992 -1.046910047531128 -23.632600784301758
4.241919994354248 -1.104910016059876 -23.628599166870117
4.090919971466065 -1.021909952163696 -23.556600570678711
4.142920017242432 -1.283910036087036 -23.552600860595703
4.008920192718506 -1.132910013198853 -23.433599472045898
4.048920154571533 -1.073909997940064 -23.302600860595703
3.987920045852661 -1.205909967422485 -23.309600830078125
4.115920066833496 -1.291910052299500 -23.416599273681641
4.110919952392578 -1.295910000801086 -23.424600601196289
4.241919994354248 -1.139909982681274 -23.374599456787109
3.989919900894165 -1.256909966468811 -23.216600418090820
4.278920173645020 -1.031909942626953 -23.344600677490234
4.256919860839844 -0.944912016391754 -23.335599899291992
4.282919883728027 -1.009909987449646 -23.303600311279297
4.287919998168945 -1.043910026550293 -23.284599304199219
4.217919826507568 -1.144909977912903 -23.184600830078125
4.000919818878174 -1.193910002708435 -23.084600448608398
4.093920230865479 -1.292909979820252 -23.132600784301758
4.306920051574707 -1.017910003662109 -23.220600128173828
4.066919803619385 -1.308910012245178 -23.103599548339844
4.231919765472412 -0.909909009933472 -23.152599334716797
4.227920055389404 -1.029909968376160 -23.075599670410156
3.991919994354248 -1.183910012245178 -22.866600036621094
4.002920150756836 -1.125910043716431 -22.813600540161133
3.992919921875000 -1.161910057067871 -22.820600509643555
4.031919956207275 -1.057909965515137 -22.779600143432617
4.203919887542725 -1.040910005569458 -22.862600326538086
4.030920028686523 -1.308910012245178 -22.852600097656250
3.987920045852661 -1.293910026550293 -22.807600021362305
4.174920082092285 -1.191910028457642 -22.781600952148438
3.995919942855835 -1.147909998893738 -22.690599441528320
4.201920032501221 -1.049909949302673 -22.763599395751953
4.028920173645020 -1.306910037994385 -22.767599105834961
4.029920101165772 -1.305909991264343 -22.752599716186523
4.031919956207275 -1.299909949302673 -22.666599273681641
3.986920118331909 -1.138910055160523 -22.589599609375000
4.284920215606690 -0.912910997867584 -23.050600051879883
4.051919937133789 -1.288910031318665 -22.609600067138672
4.256919860839844 -0.776908993721008 -22.869600296020508
3.980920076370239 -1.152909994125366 -22.529600143432617
4.314919948577881 -0.818908989429474 -22.845600128173828
4.128920078277588 -0.997910022735596 -22.540599822998047
3.971920013427734 -1.251909971237183 -22.517599105834961
4.370920181274414 -0.813911974430084 -22.896600723266602
3.986920118331909 -1.092910051345825 -22.365600585937500
3.954920053482056 -1.211910009384155 -22.335599899291992
4.168920040130615 -1.185909986495972 -22.447599411010742
4.198919773101807 -1.125910043716431 -22.410600662231445
3.989919900894165 -1.314910054206848 -22.420600891113281
3.965919971466065 -1.319910049438477 -22.448600769042969
3.987920045852661 -1.075909972190857 -22.189599990844727
4.099919795989990 -0.999908983707428 -22.220600128173828
3.955919981002808 -1.296910047531128 -22.237600326538086
4.108920097351074 -1.266909956932068 -22.224599838256836
3.990920066833496 -1.080909967422485 -22.075599670410156
3.940920114517212 -1.242910027503967 -22.055599212646484
4.175920009613037 -0.989910006523132 -22.056600570678711
4.026919841766357 -1.030910015106201 -21.834600448608398
4.173920154571533 -1.139909982681274 -21.863599777221680
4.181920051574707 -1.024909973144531 -21.920600891113281
4.105919837951660 -1.294909954071045 -21.928600311279297
4.172920227050781 -1.047909975051880 -21.658599853515625
4.159920215606690 -1.112910032272339 -21.606599807739258
4.013919830322266 -1.307909965515137 -21.587600708007813
3.916919946670532 -1.218909978866577 -21.450599670410156
4.001920223236084 -1.012910008430481 -21.408599853515625
3.883919954299927 -1.187909960746765 -21.320600509643555
3.914920091629028 -1.300909996032715 -21.373600006103516
3.783920049667358 -1.257910013198853 -21.440599441528320
4.105919837951660 -0.926910996437073 -21.319599151611328
4.160920143127441 -1.215909957885742 -21.405599594116211
4.175920009613037 -1.205909967422485 -21.383600234985352
4.067920207977295 -1.295910000801086 -21.328599929809570
4.195919990539551 -1.083909988403320 -21.332599639892578
4.181920051574707 -1.199910044670105 -21.373600006103516
4.171919822692871 -0.959912002086639 -21.344600677490234
4.185919761657715 -1.027909994125366 -21.310600280761719
4.145919799804688 -1.277909994125366 -21.367599487304687
3.846920013427734 -1.350909948348999 -21.431600570678711
4.064919948577881 -0.922909021377563 -21.209600448608398
4.114920139312744 -0.913909971714020 -21.252599716186523
4.171919822692871 -0.940910995006561 -21.271600723266602
3.961920022964478 -1.399909973144531 -21.455600738525391
3.910919904708862 -1.402909994125366 -21.435600280761719
3.789920091629028 -1.367910027503967 -21.449600219726563
3.958920001983643 -1.444910049438477 -21.432600021362305
4.213920116424561 -1.074910044670105 -21.166599273681641
4.000919818878174 -0.918910980224609 -21.080600738525391
4.191919803619385 -0.981911003589630 -21.140600204467773
4.026919841766357 -1.452909946441650 -21.543600082397461
4.075920104980469 -1.480909943580627 -21.445600509643555
4.110919952392578 -0.874908983707428 -21.059600830078125
4.254920005798340 -1.234910011291504 -21.121599197387695
4.040919780731201 -0.888908982276917 -21.008600234985352
3.916919946670532 -1.225909948348999 -20.973600387573242
3.906919956207275 -1.198909997940064 -20.960599899291992
4.196919918060303 -0.944912016391754 -21.032600402832031
3.909919977188110 -0.918910980224609 -20.968599319458008
3.835920095443726 -1.024909973144531 -20.850599288940430
3.803920030593872 -0.963908970355988 -20.881599426269531
3.944920063018799 -0.889912009239197 -20.876600265502930
3.840919971466065 -1.038910031318665 -20.695600509643555
4.188920021057129 -1.140910029411316 -20.811599731445313
4.070919990539551 -0.836911022663116 -20.761600494384766
4.257919788360596 -1.067909955978394 -20.955600738525391
4.259920120239258 -1.173910021781921 -20.942600250244141
4.231919765472412 -1.222910046577454 -21.040599822998047
4.167920112609863 -1.181910037994385 -20.667600631713867
4.268919944763184 -1.204910039901733 -20.994600296020508
4.264920234680176 -1.010910034179688 -20.782600402832031
3.982919931411743 -1.347910046577454 -20.660600662231445
4.248919963836670 -0.981911003589630 -20.708599090576172
3.892920017242432 -1.379909992218018 -20.658599853515625
3.892920017242432 -1.373909950256348 -20.644599914550781
4.240920066833496 -0.964909017086029 -20.672599792480469
4.295919895172119 -1.104910016059876 -20.639600753784180
4.282919883728027 -0.941910028457642 -20.288600921630859
3.972919940948486 -0.825909018516541 -20.303600311279297
3.858920097351074 -1.138910055160523 -20.344600677490234
4.299920082092285 -1.022909998893738 -20.336599349975586
3.870919942855835 -0.942910015583038 -20.346599578857422
3.860919952392578 -1.278910040855408 -20.362600326538086
3.866919994354248 -1.079910039901733 -20.375600814819336
3.958920001983643 -0.832908987998962 -20.375600814819336
4.225920200347900 -0.827911972999573 -20.378599166870117
4.270919799804688 -1.079910039901733 -20.402599334716797
3.857919931411743 -0.955910027027130 -20.422599792480469
3.866919994354248 -1.060909986495972 -20.426599502563477
3.913919925689697 -0.854911983013153 -20.474599838256836
4.250919818878174 -1.110910058021545 -20.482599258422852
3.869920015335083 -1.145910024642944 -20.539600372314453
4.089920043945313 -1.289909958839417 -20.546600341796875
3.887919902801514 -1.304909944534302 -20.555599212646484
3.865920066833496 -1.128909945487976 -20.589599609375000
3.843919992446899 -1.025910019874573 -20.597600936889648
