ply
format ascii 1.0
element vertex 770
property double x
property double y
property double z
end_header
1.458920001983643 -5.215909957885742 -14.914600372314453
1.032920002937317 -4.611909866333008 -14.912599563598633
0.834919989109039 -4.818910121917725 -14.927599906921387
1.543920040130615 -5.093910217285156 -14.912599563598633
1.458920001983643 -5.215909957885742 -14.914600372314453
1.435920000076294 -5.321909904479981 -14.923600196838379
0.830918014049530 -4.860909938812256 -14.941599845886230
1.463919997215271 -5.335909843444824 -14.927599906921387
0.950920999050140 -4.658909797668457 -14.945599555969238
1.376919984817505 -5.444910049438477 -14.946599960327148
0.868920028209686 -4.708909988403320 -14.970600128173828
0.498921006917953 -5.182909965515137 -14.978599548339844
0.476918011903763 -5.463910102844238 -14.979599952697754
1.301920056343079 -5.473909854888916 -14.970600128173828
0.718918979167938 -4.874909877777100 -14.992600440979004
0.698917984962463 -4.985909938812256 -14.995599746704102
1.498919963836670 -5.313910007476807 -14.979599952697754
1.505920052528381 -5.037909984588623 -14.995599746704102
1.664919972419739 -4.922910213470459 -14.995599746704102
0.804920971393585 -5.079909801483154 -15.015600204467773
1.309919953346252 -5.258910179138184 -15.004599571228027
1.486919999122620 -5.048910140991211 -15.002599716186523
0.569920003414154 -5.052909851074219 -15.022600173950195
1.182919979095459 -4.365910053253174 -15.014599800109863
0.701919972896576 -5.250909805297852 -15.022600173950195
1.317919969558716 -5.549910068511963 -15.019599914550781
0.804920971393585 -5.156909942626953 -15.033599853515625
1.741919994354248 -5.036910057067871 -15.015600204467773
1.592919945716858 -4.928909778594971 -15.020600318908691
1.529919981956482 -5.234910011291504 -15.023599624633789
0.438919991254807 -5.314909934997559 -15.050600051879883
1.114920020103455 -4.428909778594971 -15.045599937438965
1.660920023918152 -5.092909812927246 -15.031599998474121
0.805921018123627 -5.327909946441650 -15.053600311279297
1.118919968605042 -5.599909782409668 -15.047599792480469
1.247920036315918 -5.628910064697266 -15.046600341796875
0.531917989253998 -5.180910110473633 -15.065600395202637
1.099920034408569 -5.653910160064697 -15.054599761962891
1.694919943809509 -4.857910156250000 -15.047599792480469
1.177919983863831 -5.323910236358643 -15.063599586486816
1.425920009613037 -5.333909988403320 -15.060600280761719
0.988919019699097 -5.171909809112549 -15.070599555969238
0.914921998977661 -5.404910087585449 -15.074600219726563
0.891919016838074 -5.850910186767578 -15.079600334167480
0.125919997692108 -5.747910022735596 -15.096599578857422
0.864919006824493 -5.627910137176514 -15.083600044250488
0.945919990539551 -5.873909950256348 -15.080599784851074
1.668920040130615 -4.827909946441650 -15.074600219726563
0.849919021129608 -4.866909980773926 -15.093600273132324
1.045920014381409 -4.555910110473633 -15.092599868774414
0.926918983459473 -5.914909839630127 -15.089599609375000
0.772920012474060 -5.853909969329834 -15.099599838256836
0.845920979976654 -6.046909809112549 -15.097599983215332
0.487919986248016 -5.712910175323486 -15.109600067138672
0.752919018268585 -5.859910011291504 -15.105600357055664
1.187919974327087 -4.888909816741943 -15.102600097656250
1.358919978141785 -5.345910072326660 -15.101599693298340
1.398920059204102 -5.294909954071045 -15.102600097656250
1.301920056343079 -4.367909908294678 -15.111599922180176
1.265920042991638 -5.029910087585449 -15.110600471496582
0.702920019626617 -5.872910022735596 -15.118599891662598
0.372918009757996 -5.519909858703613 -15.127599716186523
0.068920999765396 -5.881909847259522 -15.137599945068359
1.325919985771179 -4.582910060882568 -15.121600151062012
1.835919976234436 -4.817910194396973 -15.113599777221680
1.277920007705689 -4.765910148620606 -15.126600265502930
1.396919965744019 -4.921909809112549 -15.123600006103516
1.812919974327087 -4.962910175323486 -15.117600440979004
1.341920018196106 -4.553909778594971 -15.130599975585937
1.109920024871826 -5.667910099029541 -15.131600379943848
1.364920020103455 -4.488910198211670 -15.135600090026855
1.864920020103455 -4.913909912109375 -15.123600006103516
1.144919991493225 -5.537909984588623 -15.134599685668945
1.714920043945313 -5.011909961700440 -15.127599716186523
0.570919990539551 -5.856910228729248 -15.148599624633789
0.095921002328396 -5.784910202026367 -15.158599853515625
0.632920026779175 -6.036910057067871 -15.147600173950195
0.274919003248215 -5.634910106658936 -15.158599853515625
1.019919991493225 -5.753910064697266 -15.145600318908691
1.351920008659363 -5.196909904479981 -15.142600059509277
1.298920035362244 -4.817910194396973 -15.146599769592285
0.981918990612030 -4.853909969329834 -15.153599739074707
0.632920026779175 -6.104909896850586 -15.155599594116211
1.108919978141785 -5.503910064697266 -15.152600288391113
0.831921994686127 -5.192910194396973 -15.161600112915039
0.674920022487640 -5.356910228729248 -15.164600372314453
1.112920045852661 -4.581910133361816 -15.162599563598633
0.305920988321304 -5.639910221099854 -15.175600051879883
1.165920019149780 -5.325910091400147 -15.165599822998047
1.010920047760010 -5.525909900665283 -15.169599533081055
1.382920026779175 -4.323910236358643 -15.169599533081055
0.913918018341064 -5.137909889221191 -15.176600456237793
0.447919011116028 -5.917910099029541 -15.182600021362305
0.940918982028961 -5.064909934997559 -15.177599906921387
0.575920999050140 -6.374909877777100 -15.178600311279297
1.313920021057129 -4.254909992218018 -15.177599906921387
0.904919981956482 -5.791910171508789 -15.177599906921387
0.983918011188507 -5.394909858703613 -15.179599761962891
0.200920999050140 -5.909910202026367 -15.192600250244141
0.917919993400574 -5.438910007476807 -15.183600425720215
0.951919972896576 -5.180910110473633 -15.184599876403809
1.475919961929321 -4.752910137176514 -15.176600456237793
0.907922029495239 -5.459909915924072 -15.184599876403809
1.106920003890991 -4.685910224914551 -15.187600135803223
0.989919006824493 -5.036910057067871 -15.188599586486816
0.474918991327286 -6.377910137176514 -15.193599700927734
1.415920019149780 -4.751910209655762 -15.185600280761719
1.395920038223267 -4.693910121917725 -15.187600135803223
1.345919966697693 -5.093910217285156 -15.187600135803223
1.213919997215271 -4.251910209655762 -15.198599815368652
1.420920014381409 -4.728909969329834 -15.192600250244141
1.161919951438904 -5.166910171508789 -15.195599555969238
1.056920051574707 -4.995910167694092 -15.200599670410156
1.726920008659363 -4.638909816741943 -15.190600395202637
1.746919989585877 -4.620910167694092 -15.196599960327148
1.118919968605042 -4.780910015106201 -15.208600044250488
1.851920008659363 -4.694910049438477 -15.200599670410156
0.425920009613037 -6.401909828186035 -15.219599723815918
0.639919996261597 -5.722909927368164 -15.220600128173828
0.301919013261795 -5.991909980773926 -15.226599693298340
0.410919994115829 -5.726910114288330 -15.228599548339844
0.521920025348663 -5.727910041809082 -15.226599693298340
1.436920046806335 -5.014910221099854 -15.212599754333496
0.495918989181519 -5.733910083770752 -15.228599548339844
0.013921000063419 -6.078909873962402 -15.246600151062012
0.660920023918152 -5.953909873962402 -15.234600067138672
0.570919990539551 -5.806910037994385 -15.243599891662598
0.610921025276184 -5.969910144805908 -15.246600151062012
1.929919958114624 -4.732910156250000 -15.230600357055664
0.458920001983643 -6.484910011291504 -15.251600265502930
0.515919983386993 -5.865910053253174 -15.258600234985352
1.327919960021973 -4.911910057067871 -15.253600120544434
0.075920999050140 -6.074910163879395 -15.288599967956543
1.955919981002808 -4.778910160064697 -15.266599655151367
1.281919956207275 -4.185910224914551 -15.284600257873535
0.488918989896774 -6.019909858703613 -15.291600227355957
0.456921994686127 -6.441909790039063 -15.290599822998047
1.947919964790344 -4.684909820556641 -15.272600173950195
1.380920052528381 -4.151909828186035 -15.287599563598633
1.612920045852661 -4.337910175323486 -15.293600082397461
0.319920986890793 -5.974909782409668 -15.316599845886230
1.626919984817505 -4.310910224914551 -15.305600166320801
1.616919994354248 -4.271910190582275 -15.308600425720215
1.321920037269592 -4.300909996032715 -15.316599845886230
1.802919983863831 -4.441909790039063 -15.308600425720215
1.418920040130615 -4.117909908294678 -15.321599960327148
1.329920053482056 -4.291910171508789 -15.323599815368652
0.298920989036560 -6.385910034179688 -15.336600303649902
0.290921002626419 -6.336909770965576 -15.338600158691406
0.245919004082680 -6.219910144805908 -15.345600128173828
0.227920994162560 -6.193910121917725 -15.346599578857422
0.285919994115829 -6.405910015106201 -15.345600128173828
0.209920004010201 -6.018909931182861 -15.353599548339844
1.821920037269592 -4.400909900665283 -15.332599639892578
1.683920025825501 -4.782909870147705 -15.333600044250488
1.918920040130615 -4.831910133361816 -15.328599929809570
1.428920030593872 -4.538909912109375 -15.340600013732910
0.403919994831085 -6.378910064697266 -15.354599952697754
1.448920011520386 -4.513909816741943 -15.350600242614746
0.117921002209187 -6.043910026550293 -15.373600006103516
-0.015079000033438 -6.182909965515137 -15.376600265502930
0.168919995427132 -6.052909851074219 -15.377599716186523
-0.158079996705055 -6.216909885406494 -15.389599800109863
1.404919981956482 -4.240910053253174 -15.377599716186523
1.405920028686523 -4.216909885406494 -15.383600234985352
2.022919893264771 -4.609910011291504 -15.377599716186523
1.548920035362244 -4.503910064697266 -15.394599914550781
0.214920997619629 -6.426909923553467 -15.415599822998047
0.274919003248215 -6.210909843444824 -15.418600082397461
0.119920000433922 -6.210909843444824 -15.423600196838379
1.526919960975647 -3.946909904479981 -15.410599708557129
1.470919966697693 -3.893909931182861 -15.426600456237793
2.049920082092285 -4.625909805297852 -15.414600372314453
2.051919937133789 -4.596909999847412 -15.422599792480469
1.678920030593872 -3.707910060882568 -15.435600280761719
1.571920037269592 -3.813910007476807 -15.437600135803223
1.479920029640198 -4.110909938812256 -15.441599845886230
1.442919969558716 -3.905910015106201 -15.445599555969238
1.754920005798340 -4.563910007476807 -15.435600280761719
1.732920050621033 -3.596909999847412 -15.443599700927734
1.959920048713684 -4.726910114288330 -15.443599700927734
1.861919999122620 -4.183909893035889 -15.452599525451660
1.734920024871826 -3.867909908294678 -15.458600044250488
1.483919978141785 -3.936909914016724 -15.465600013732910
0.178921997547150 -6.276909828186035 -15.479599952697754
1.768919944763184 -3.869910001754761 -15.468600273132324
1.756919980049133 -4.478909969329834 -15.467599868774414
1.529919981956482 -3.822910070419312 -15.477600097656250
0.060922000557184 -6.213910102844238 -15.498600006103516
1.847919940948486 -3.652909994125366 -15.477600097656250
1.817919969558716 -4.517910003662109 -15.476599693298340
-0.203078001737595 -6.273910045623779 -15.508600234985352
2.098920106887817 -4.639910221099854 -15.477600097656250
-0.211081996560097 -6.246910095214844 -15.518600463867188
0.099918998777866 -6.418910026550293 -15.512599945068359
2.054919958114624 -4.276909828186035 -15.499600410461426
1.749920010566711 -4.296909809112549 -15.507599830627441
1.909919977188110 -3.431910037994385 -15.513600349426270
1.919919967651367 -3.955909967422485 -15.516599655151367
2.047919988632202 -4.198910236358643 -15.514599800109863
1.808920025825501 -4.354909896850586 -15.519599914550781
-0.084078997373581 -6.241909980773926 -15.548600196838379
2.133919954299927 -4.484910011291504 -15.515600204467773
1.922919988632202 -3.712909936904907 -15.525600433349609
2.066920042037964 -4.192910194396973 -15.525600433349609
2.074919939041138 -3.308909893035889 -15.532600402832031
1.961920022964478 -4.003910064697266 -15.532600402832031
2.137919902801514 -4.372910022735596 -15.530599594116211
1.867920041084290 -4.348909854888916 -15.540599822998047
1.864920020103455 -3.537909984588623 -15.550600051879883
1.967919945716858 -3.744910001754761 -15.549599647521973
2.044919967651367 -4.559909820556641 -15.547599792480469
1.978919982910156 -3.750910043716431 -15.555600166320801
1.774919986724854 -4.033909797668457 -15.566599845886230
2.117919921875000 -4.145909786224365 -15.564599990844727
1.760920047760010 -3.841909885406494 -15.573599815368652
1.762920022010803 -3.883909940719605 -15.577599525451660
2.037919998168945 -3.582910060882568 -15.576600074768066
1.809919953346252 -3.736910104751587 -15.584600448608398
2.243920087814331 -3.174910068511963 -15.582599639892578
2.010920047760010 -4.377910137176514 -15.582599639892578
-0.040079999715090 -6.323910236358643 -15.618599891662598
1.849920034408569 -3.700910091400147 -15.600600242614746
2.212919950485230 -4.538909912109375 -15.591600418090820
2.148920059204102 -3.285909891128540 -15.604599952697754
0.115918003022671 -6.573910236358643 -15.630599975585938
1.934919953346252 -4.158909797668457 -15.610600471496582
2.272919893264771 -3.204910039901733 -15.609600067138672
0.057918999344110 -6.546909809112549 -15.638600349426270
2.254920005798340 -4.417910099029541 -15.612600326538086
2.123919963836670 -3.965909957885742 -15.626600265502930
2.012919902801514 -4.195909976959229 -15.627599716186523
2.120919942855835 -3.548909902572632 -15.629599571228027
2.090919971466065 -3.688910007476807 -15.630599975585938
2.084919929504395 -4.287909984588623 -15.628600120544434
-0.194078996777534 -6.337910175323486 -15.669599533081055
1.924919962882996 -3.930910110473633 -15.641599655151367
2.185920000076294 -3.991909980773926 -15.639599800109863
1.971920013427734 -3.593909978866577 -15.651599884033203
2.252919912338257 -4.465909957885742 -15.645600318908691
-0.105079002678394 -6.369909763336182 -15.683600425720215
2.258919954299927 -3.286910057067871 -15.663599967956543
2.212919950485230 -3.393909931182861 -15.668600082397461
1.970919966697693 -3.790910005569458 -15.672599792480469
2.071919918060303 -3.485909938812256 -15.673600196838379
2.241919994354248 -3.227910041809082 -15.678600311279297
-0.347079008817673 -6.425909996032715 -15.715600013732910
2.266920089721680 -4.342909812927246 -15.677599906921387
2.183919906616211 -3.368910074234009 -15.691599845886230
2.326920032501221 -4.396910190582275 -15.683600425720215
2.407919883728027 -4.114910125732422 -15.689599990844727
2.266920089721680 -3.903909921646118 -15.698599815368652
2.139919996261597 -3.461910009384155 -15.707599639892578
2.208920001983643 -4.140910148620606 -15.707599639892578
2.375920057296753 -3.104909896850586 -15.718600273132324
-0.376078993082047 -6.448910236358643 -15.756600379943848
2.486920118331909 -4.024909973144531 -15.713600158691406
2.223920106887817 -3.801909923553467 -15.728599548339844
2.117919921875000 -3.918910026550293 -15.731599807739258
2.240920066833496 -3.412909984588623 -15.734600067138672
2.496920108795166 -4.147910118103027 -15.725600242614746
-0.216078996658325 -6.475910186767578 -15.767600059509277
-0.092078000307083 -6.518909931182861 -15.769599914550781
-0.064078003168106 -6.464910030364990 -15.770600318908691
2.207920074462891 -3.635910034179688 -15.745599746704102
0.029920000582933 -6.680910110473633 -15.773599624633789
2.187920093536377 -3.937910079956055 -15.749600410461426
-0.097079001367092 -6.529910087585449 -15.781599998474121
2.199919939041138 -3.951910018920898 -15.750599861145020
2.451920032501221 -3.872910022735596 -15.746600151062012
-0.321078002452850 -6.448910236358643 -15.791600227355957
2.130919933319092 -3.620909929275513 -15.766599655151367
2.569920063018799 -3.846909999847412 -15.769599914550781
-0.233080998063087 -6.469910144805908 -15.812600135803223
2.343919992446899 -3.101910114288330 -15.783599853515625
2.180919885635376 -3.614909887313843 -15.786600112915039
-0.007079000119120 -6.652910232543945 -15.815600395202637
-0.095080003142357 -6.502910137176514 -15.823599815368652
2.270920038223267 -3.518909931182861 -15.793600082397461
2.537919998168945 -3.776910066604614 -15.787599563598633
2.617919921875000 -3.782910108566284 -15.790599822998047
2.304919958114624 -3.365910053253174 -15.805600166320801
2.702919960021973 -3.833909988403320 -15.796600341796875
-0.009081999771297 -6.739910125732422 -15.845600128173828
2.354919910430908 -3.069910049438477 -15.820599555969238
-0.053080998361111 -6.708909988403320 -15.850600242614746
2.351919889450073 -3.085910081863403 -15.825599670410156
2.781919956207275 -3.820909976959229 -15.819600105285645
2.640919923782349 -3.687910079956055 -15.826600074768066
2.579920053482056 -3.972909927368164 -15.826600074768066
2.223920106887817 -3.741909980773926 -15.836600303649902
2.391920089721680 -3.178910017013550 -15.839599609375000
-0.040079999715090 -6.670909881591797 -15.869600296020508
-0.087081000208855 -6.589910030364990 -15.873600006103516
2.598920106887817 -3.928910017013550 -15.841600418090820
2.338920116424561 -3.394910097122192 -15.859600067138672
-0.385080993175507 -6.499909877777100 -15.902600288391113
2.572920083999634 -3.885910034179688 -15.860600471496582
2.830919981002808 -3.565910100936890 -15.863599777221680
2.424920082092285 -3.084909915924072 -15.879599571228027
2.260920047760010 -3.640909910202026 -15.886599540710449
2.469919919967651 -3.810909986495972 -15.888600349426270
2.360919952392578 -3.440910100936890 -15.895600318908691
2.844919919967651 -3.512909889221191 -15.890600204467773
2.373919963836670 -2.957910060882568 -15.903599739074707
2.402920007705689 -2.862910032272339 -15.907600402832031
2.364919900894165 -3.535909891128540 -15.907600402832031
2.361920118331909 -3.505909919738770 -15.910599708557129
-0.400081008672714 -6.555910110473633 -15.949600219726563
2.502919912338257 -3.770910024642944 -15.908599853515625
2.425920009613037 -3.728909969329834 -15.916600227355957
2.606920003890991 -3.561909914016724 -15.915599822998047
-0.269080013036728 -6.575910091400147 -15.962599754333496
-0.273081988096237 -6.578909873962402 -15.966600418090820
2.413919925689697 -3.277909994125366 -15.932600021362305
2.408920049667358 -3.517910003662109 -15.937600135803223
2.406919956207275 -3.349910020828247 -15.940600395202637
2.398920059204102 -3.431910037994385 -15.942600250244141
2.878920078277588 -3.428910017013550 -15.934599876403809
2.369920015335083 -3.524909973144531 -15.944600105285645
2.707920074462891 -3.501909971237183 -15.939599990844727
-0.089079998433590 -6.715909957885742 -15.978599548339844
3.061919927597046 -3.298909902572632 -15.947600364685059
-0.435081005096436 -6.518909931182861 -16.003599166870117
2.383919954299927 -3.139909982681274 -15.966600418090820
2.369920015335083 -2.923909902572632 -15.969599723815918
2.403919935226440 -3.201910018920898 -15.970600128173828
2.468919992446899 -2.867909908294678 -15.989600181579590
2.565920114517212 -3.628910064697266 -15.996600151062012
3.051919937133789 -3.274909973144531 -15.994600296020508
2.681920051574707 -3.636909961700440 -16.004600524902344
-0.331079989671707 -6.628910064697266 -16.051599502563477
-0.176082000136375 -6.770909786224365 -16.058599472045898
-0.139079004526138 -6.736909866333008 -16.060600280761719
2.474920034408569 -3.246910095214844 -16.033599853515625
2.622920036315918 -3.589910030364990 -16.030599594116211
2.370919942855835 -2.901910066604614 -16.050600051879883
3.156919956207275 -3.244910001754761 -16.037599563598633
2.488919973373413 -3.284909963607788 -16.052600860595703
2.627919912338257 -3.374910116195679 -16.066600799560547
2.502919912338257 -3.292910099029541 -16.069599151611328
2.768919944763184 -3.522910118103027 -16.078599929809570
-0.177081003785133 -6.811910152435303 -16.123600006103516
-0.203078001737595 -6.807909965515137 -16.148599624633789
2.542920112609863 -3.231909990310669 -16.120599746704102
-0.342078000307083 -6.670909881591797 -16.161600112915039
2.735919952392578 -3.484910011291504 -16.120599746704102
2.483920097351074 -2.786910057067871 -16.133600234985352
2.547919988632202 -3.094909906387329 -16.130599975585938
-0.421081006526947 -6.638909816741943 -16.175600051879883
2.388920068740845 -2.852910041809082 -16.152599334716797
2.564919948577881 -3.091909885406494 -16.155599594116211
2.589920043945313 -3.405910015106201 -16.157600402832031
-0.458079010248184 -6.669909954071045 -16.202600479125977
-0.242080003023148 -6.725910186767578 -16.199600219726562
2.879920005798340 -3.204910039901733 -16.158599853515625
2.509919881820679 -3.299910068511963 -16.165599822998047
2.434920072555542 -3.001909971237183 -16.170600891113281
3.106920003890991 -3.185909986495972 -16.161600112915039
2.741919994354248 -3.240910053253174 -16.176599502563477
2.412919998168945 -2.669909954071045 -16.187599182128906
3.128920078277588 -3.186909914016724 -16.171600341796875
2.598920106887817 -3.139909982681274 -16.201599121093750
-0.225080996751785 -6.851910114288330 -16.245599746704102
2.990920066833496 -3.348910093307495 -16.203599929809570
3.009919881820679 -3.334909915924072 -16.217599868774414
-0.339080005884171 -6.753910064697266 -16.266599655151367
2.752919912338257 -3.355910062789917 -16.231599807739258
-0.464080005884171 -6.721909999847412 -16.277599334716797
-0.268081009387970 -6.735909938812256 -16.273599624633789
2.543920040130615 -3.192909955978394 -16.245599746704102
2.635920047760010 -3.296910047531128 -16.245599746704102
2.931920051574707 -3.143909931182861 -16.244600296020508
2.702919960021973 -3.184910058975220 -16.251600265502930
-0.350080996751785 -6.767910003662109 -16.304599761962891
3.181920051574707 -3.166909933090210 -16.254600524902344
3.208920001983643 -3.277909994125366 -16.255599975585937
2.426919937133789 -2.748909950256348 -16.274599075317383
3.240920066833496 -3.264909982681274 -16.258600234985352
3.227920055389404 -3.184910058975220 -16.263599395751953
3.155920028686523 -3.141910076141357 -16.282600402832031
2.548919916152954 -2.742909908294678 -16.317600250244141
2.458920001983643 -2.733910083770752 -16.321599960327148
2.896919965744019 -3.285909891128540 -16.310600280761719
2.539920091629028 -2.957910060882568 -16.322599411010742
2.725919961929321 -3.118910074234009 -16.320600509643555
2.790920019149780 -3.263910055160523 -16.319599151611328
2.750920057296753 -3.112910032272339 -16.323600769042969
2.671920061111450 -2.942909955978394 -16.331600189208984
2.843919992446899 -3.096909999847412 -16.330600738525391
2.492919921875000 -2.768909931182861 -16.345600128173828
2.817919969558716 -3.094909906387329 -16.339599609375000
3.295919895172119 -3.228909969329834 -16.330600738525391
2.756920099258423 -3.226910114288330 -16.343599319458008
2.765919923782349 -3.091909885406494 -16.346599578857422
2.787919998168945 -3.082910060882568 -16.358600616455078
2.478919982910156 -2.523910045623779 -16.371599197387695
2.652920007705689 -3.077909946441650 -16.370599746704102
3.350919961929321 -3.139909982681274 -16.370599746704102
2.617919921875000 -2.744910001754761 -16.389600753784180
-0.451079010963440 -6.783909797668457 -16.431600570678711
2.627919912338257 -2.734910011291504 -16.403600692749023
2.510920047760010 -2.608910083770752 -16.410600662231445
2.532919883728027 -2.660909891128540 -16.420600891113281
-0.576079010963440 -6.718910217285156 -16.465599060058594
2.604919910430908 -2.502909898757935 -16.433599472045898
2.541919946670532 -2.565910100936890 -16.438600540161133
-0.272078990936279 -6.856910228729248 -16.478599548339844
-0.395080000162125 -6.835909843444824 -16.493600845336914
2.591919898986816 -2.454910039901733 -16.459600448608398
2.820919990539551 -3.001909971237183 -16.455600738525391
2.646919965744019 -2.877909898757935 -16.461599349975586
2.676919937133789 -2.676909923553467 -16.465599060058594
3.398920059204102 -3.071909904479981 -16.454599380493164
2.705919981002808 -2.945909976959229 -16.474599838256836
3.183919906616211 -2.992909908294678 -16.491600036621094
2.951920032501221 -3.078910112380981 -16.509599685668945
2.802920103073120 -2.865910053253174 -16.518600463867188
2.698920011520386 -2.811909914016724 -16.522600173950195
2.722919940948486 -2.496910095214844 -16.531600952148438
3.148920059204102 -3.085910081863403 -16.521600723266602
2.754920005798340 -2.704910039901733 -16.533599853515625
3.371920108795166 -2.915910005569458 -16.523599624633789
3.099920034408569 -3.079910039901733 -16.528600692749023
3.295919895172119 -2.948909997940064 -16.526599884033203
3.330919981002808 -2.918910026550293 -16.535600662231445
3.475919961929321 -2.825910091400147 -16.544599533081055
2.708920001983643 -2.575910091400147 -16.565599441528320
2.951920032501221 -2.909909963607788 -16.566600799560547
3.271919965744019 -3.036910057067871 -16.559600830078125
3.431920051574707 -2.952909946441650 -16.560600280761719
2.818919897079468 -2.753910064697266 -16.578599929809570
3.084919929504395 -2.912909984588623 -16.573600769042969
2.994920015335083 -3.020910024642944 -16.576599121093750
3.482919931411743 -2.776910066604614 -16.574600219726562
2.890919923782349 -2.963910102844238 -16.590599060058594
2.946919918060303 -2.996910095214844 -16.591600418090820
3.096920013427734 -3.025909900665283 -16.588600158691406
2.863919973373413 -2.792910099029541 -16.615600585937500
2.806920051574707 -2.694910049438477 -16.626600265502930
-0.347079008817673 -6.856910228729248 -16.666599273681641
2.910919904708862 -2.844909906387329 -16.636600494384766
3.203919887542725 -2.980910062789917 -16.630599975585938
2.868920087814331 -2.264909982681274 -16.658599853515625
2.900919914245606 -2.239909887313843 -16.659599304199219
2.851919889450073 -2.440910100936890 -16.662599563598633
3.345920085906982 -2.913909912109375 -16.654600143432617
3.223920106887817 -2.825910091400147 -16.667600631713867
3.225919961929321 -2.944910049438477 -16.668600082397461
3.483920097351074 -2.818909883499146 -16.665599822998047
3.056920051574707 -2.936909914016724 -16.676599502563477
3.015919923782349 -2.926909923553467 -16.678600311279297
2.897919893264771 -2.227910041809082 -16.687599182128906
3.334919929504395 -2.897910118103027 -16.680599212646484
2.865920066833496 -2.622910022735596 -16.699600219726563
3.203919887542725 -2.804909944534302 -16.699600219726563
2.921920061111450 -2.192909955978394 -16.712600708007812
-0.342078000307083 -6.966909885406494 -16.753599166870117
2.901920080184937 -2.418910026550293 -16.739599227905273
3.586920022964478 -2.574909925460815 -16.730600357055664
3.392920017242432 -2.825910091400147 -16.734600067138672
3.245919942855835 -2.881910085678101 -16.744600296020508
3.137919902801514 -2.792910099029541 -16.748600006103516
3.305919885635376 -2.705909967422485 -16.756599426269531
3.532919883728027 -2.546910047531128 -16.770599365234375
3.007920026779175 -2.731909990310669 -16.781600952148437
2.969919919967651 -2.207910060882568 -16.798599243164062
2.944920063018799 -2.510910034179688 -16.802600860595703
3.010920047760010 -2.108910083770752 -16.806600570678711
3.314919948577881 -2.818909883499146 -16.797599792480469
3.358920097351074 -2.640909910202026 -16.799600601196289
3.039920091629028 -2.077909946441650 -16.817600250244141
2.950920104980469 -2.349910020828247 -16.827600479125977
-0.398081988096237 -6.834909915924072 -16.870599746704102
3.393919944763184 -2.751909971237183 -16.826599121093750
3.432919979095459 -2.719909906387329 -16.834600448608398
3.066920042037964 -2.074909925460815 -16.864599227905273
-0.409079998731613 -6.826910018920898 -16.920600891113281
3.537919998168945 -2.470910072326660 -16.866600036621094
3.038919925689697 -2.654910087585449 -16.882600784301758
3.090919971466065 -2.662909984588623 -16.884599685668945
3.014919996261597 -2.625910043716431 -16.887599945068359
3.020920038223267 -2.604909896850586 -16.903600692749023
-0.358081012964249 -6.988910198211670 -16.947599411010742
3.014919996261597 -2.605910062789917 -16.911600112915039
3.071919918060303 -2.099910020828247 -16.913600921630859
3.428920030593872 -2.513910055160523 -16.912599563598633
3.490920066833496 -2.473910093307495 -16.911600112915039
3.508919954299927 -2.573909997940064 -16.915599822998047
-0.393081009387970 -6.848909854888916 -16.971599578857422
3.021919965744019 -2.429909944534302 -16.931600570678711
3.067919969558716 -2.155910015106201 -16.937599182128906
3.646919965744019 -2.395910024642944 -16.952600479125977
3.548919916152954 -2.414910078048706 -16.954599380493164
-0.462080985307693 -6.806910037994385 -17.020599365234375
3.087919950485230 -2.590909957885742 -16.976600646972656
-0.486079007387161 -6.816909790039063 -17.033599853515625
3.567919969558716 -2.451910018920898 -16.981599807739258
3.436919927597046 -2.581909894943237 -16.988599777221680
3.082920074462891 -2.135910034179688 -16.999599456787109
3.467920064926148 -2.547909975051880 -16.991600036621094
3.122920036315918 -2.722909927368164 -16.997600555419922
3.495919942855835 -2.429909944534302 -16.995599746704102
3.379920005798340 -2.611910104751587 -17.013599395751953
3.085920095443726 -2.186909914016724 -17.024599075317383
3.336920022964478 -2.509910106658936 -17.024599075317383
3.073920011520386 -2.366909980773926 -17.031600952148437
3.179919958114624 -2.561909914016724 -17.029600143432617
3.185920000076294 -2.675909996032715 -17.033599853515625
-0.342078000307083 -6.950910091400147 -17.085599899291992
3.105920076370239 -2.206909894943237 -17.050600051879883
3.242919921875000 -2.640909910202026 -17.055599212646484
3.115920066833496 -2.590909957885742 -17.093599319458008
3.168920040130615 -2.606909990310669 -17.109600067138672
3.154920101165772 -1.973909974098206 -17.123600006103516
3.147919893264771 -2.070909976959229 -17.126600265502930
3.278919935226440 -2.483910083770752 -17.121599197387695
3.301919937133789 -2.545909881591797 -17.156600952148438
3.768919944763184 -2.297909975051880 -17.163600921630859
3.156919956207275 -2.123909950256348 -17.181600570678711
3.146919965744019 -2.388910055160523 -17.187599182128906
3.161920070648193 -2.011909961700440 -17.192600250244141
3.164920091629028 -2.005909919738770 -17.202600479125977
3.203919887542725 -2.446909904479981 -17.203599929809570
3.163919925689697 -2.177910089492798 -17.208599090576172
3.748919963836670 -2.313910007476807 -17.213600158691406
3.166919946670532 -2.167910099029541 -17.228599548339844
3.567919969558716 -2.353909969329834 -17.250600814819336
3.189919948577881 -2.025909900665283 -17.271600723266602
3.169919967651367 -1.852910041809082 -17.308599472045898
-0.386081010103226 -6.938910007476807 -17.357599258422852
3.759919881820679 -2.282910108566284 -17.339599609375000
3.336920022964478 -2.361910104751587 -17.350599288940430
3.202919960021973 -1.933910012245178 -17.373600006103516
3.351919889450073 -2.347909927368164 -17.372600555419922
3.226919889450073 -2.218909978866577 -17.385599136352539
3.213920116424561 -2.042910099029541 -17.398599624633789
3.215919971466065 -1.951910018920898 -17.400600433349609
3.215919971466065 -2.033910036087036 -17.405599594116211
3.455919981002808 -2.305910110473633 -17.411600112915039
3.761919975280762 -2.282910108566284 -17.431600570678711
-0.357080996036530 -6.890910148620606 -17.496599197387695
3.472919940948486 -2.290910005569458 -17.448600769042969
3.885920047760010 -2.303910017013550 -17.454599380493164
3.722919940948486 -2.271909952163696 -17.466600418090820
3.231920003890991 -1.915910005569458 -17.478599548339844
3.694920063018799 -2.262909889221191 -17.501600265502930
3.548919916152954 -2.269910097122192 -17.518600463867188
3.752919912338257 -2.254909992218018 -17.553600311279297
3.213920116424561 -1.763910055160523 -17.607599258422852
3.210920095443726 -1.720909953117371 -17.623600006103516
3.393919944763184 -2.221909999847412 -17.625600814819336
3.892920017242432 -2.233910083770752 -17.642599105834961
3.551919937133789 -2.192909955978394 -17.689599990844727
-0.369078993797302 -6.836909770965576 -17.742599487304688
3.836920022964478 -2.207910060882568 -17.686599731445313
3.329920053482056 -1.925909996032715 -17.730600357055664
3.261919975280762 -1.734910011291504 -17.739599227905273
3.263920068740845 -1.641909956932068 -17.750600814819336
3.352920055389404 -2.024909973144531 -17.757600784301758
3.404920101165772 -2.151910066604614 -17.759599685668945
-0.334078997373581 -6.882909774780273 -17.810600280761719
3.932919979095459 -2.154910087585449 -17.753599166870117
3.421920061111450 -2.149909973144531 -17.769599914550781
3.385920047760010 -2.124910116195679 -17.778600692749023
3.826920032501221 -2.150909900665283 -17.769599914550781
3.335920095443726 -1.936910033226013 -17.781600952148437
3.974920034408569 -2.138910055160523 -17.771600723266602
3.925920009613037 -2.125910043716431 -17.781600952148437
3.537919998168945 -2.143909931182861 -17.790599822998047
3.311919927597046 -1.801910042762756 -17.799600601196289
3.384919881820679 -2.073909997940064 -17.801599502563477
3.592920064926148 -2.134910106658936 -17.807600021362305
3.987920045852661 -2.107909917831421 -17.821599960327148
3.377919912338257 -1.983909964561462 -17.841600418090820
3.396919965744019 -2.033910036087036 -17.846599578857422
3.348920106887817 -1.751909971237183 -17.894599914550781
-0.272078990936279 -6.854909896850586 -17.940599441528320
3.408920049667358 -1.982910037040710 -17.900600433349609
3.392920017242432 -1.924909949302673 -17.917600631713867
4.023920059204102 -1.976909995079041 -17.924600601196289
3.392920017242432 -1.612910032272339 -17.944599151611328
3.494920015335083 -2.084909915924072 -17.942600250244141
3.421920061111450 -1.533910036087036 -17.969600677490234
3.517920017242432 -2.045909881591797 -17.998600006103516
3.415920019149780 -1.692909955978394 -18.007600784301758
3.885920047760010 -1.971909999847412 -18.006599426269531
3.946919918060303 -1.830909967422485 -18.014600753784180
3.460920095443726 -1.935909986495972 -18.032600402832031
3.896919965744019 -1.820909976959229 -18.028600692749023
3.831919908523560 -1.787909984588623 -18.050600051879883
3.948920011520386 -1.932909965515137 -18.047599792480469
4.035920143127441 -1.879909992218018 -18.052600860595703
3.811919927597046 -1.928910017013550 -18.058599472045898
3.818919897079468 -1.815909981727600 -18.063600540161133
-0.205081000924110 -6.802909851074219 -18.126600265502930
3.473920106887817 -1.850909948348999 -18.092599868774414
3.508919954299927 -1.691910028457642 -18.098600387573242
3.487920045852661 -1.552909970283508 -18.133600234985352
3.957920074462891 -1.889909982681274 -18.123600006103516
3.560920000076294 -1.535910010337830 -18.145599365234375
3.875920057296753 -1.913910031318665 -18.139600753784180
3.515919923782349 -1.894909977912903 -18.159599304199219
3.568919897079468 -1.397909998893738 -18.177600860595703
3.512919902801514 -1.961910009384155 -18.204599380493164
-0.219080999493599 -6.842909812927246 -18.256599426269531
3.543920040130615 -1.403910040855408 -18.214599609375000
3.513920068740845 -1.902909994125366 -18.224599838256836
3.850919961929321 -1.891909956932068 -18.219600677490234
3.512919902801514 -1.685909986495972 -18.244600296020508
3.555919885635376 -1.396909952163696 -18.255599975585938
4.117919921875000 -1.746909976005554 -18.242599487304687
4.036920070648193 -1.803910017013550 -18.262599945068359
-0.227080002427101 -6.866909980773926 -18.319599151611328
3.658920049667358 -1.369910001754761 -18.273599624633789
3.528919935226440 -1.897909998893738 -18.274599075317383
-0.171081006526947 -6.806910037994385 -18.322599411010742
3.589920043945313 -1.340909957885742 -18.287599563598633
3.549920082092285 -1.475909948348999 -18.293600082397461
3.685920000076294 -1.903910040855408 -18.292600631713867
3.904920101165772 -1.845909953117371 -18.291599273681641
4.043920040130615 -1.618909955024719 -18.294599533081055
3.985919952392578 -1.495910048484802 -18.308599472045898
4.113920211791992 -1.748909950256348 -18.316600799560547
4.034920215606690 -1.586910009384155 -18.336599349975586
3.973920106887817 -1.479910016059876 -18.357599258422852
3.949919939041138 -1.806910037994385 -18.383600234985352
3.844919919967651 -1.408910036087036 -18.388599395751953
3.893919944763184 -1.824910044670105 -18.394599914550781
3.559920072555542 -1.868909955024719 -18.405599594116211
-0.149081006646156 -6.846909999847412 -18.452600479125977
3.834919929504395 -1.378909945487976 -18.410600662231445
-0.143080994486809 -6.851910114288330 -18.469600677490234
3.568919897079468 -1.616909980773926 -18.442600250244141
3.746920108795166 -1.850909948348999 -18.440599441528320
3.614919900894165 -1.378909945487976 -18.452600479125977
3.979919910430908 -1.418910026550293 -18.446599960327148
3.831919908523560 -1.335909962654114 -18.472600936889648
3.576920032501221 -1.763910055160523 -18.477600097656250
3.607919931411743 -1.415910005569458 -18.480600357055664
-0.124080002307892 -6.882909774780273 -18.532600402832031
4.032919883728027 -1.516909956932068 -18.504600524902344
4.196919918060303 -1.682909965515137 -18.511600494384766
4.001920223236084 -1.379909992218018 -18.524599075317383
4.137919902801514 -1.750910043716431 -18.532600402832031
4.121920108795166 -1.614910006523132 -18.537599563598633
3.596920013427734 -1.738909959793091 -18.562599182128906
3.613919973373413 -1.448909997940064 -18.579599380493164
4.016920089721680 -1.351909995079041 -18.577600479125977
3.604919910430908 -1.484910011291504 -18.594600677490234
4.022920131683350 -1.347910046577454 -18.587600708007813
3.653919935226440 -1.263910055160523 -18.615600585937500
4.060919761657715 -1.768910050392151 -18.640600204467773
3.652920007705689 -1.268910050392151 -18.664600372314453
3.612920045852661 -1.635910034179688 -18.679599761962891
4.116919994354248 -1.768910050392151 -18.671600341796875
3.674920082092285 -1.204910039901733 -18.699600219726562
3.626919984817505 -1.438910007476807 -18.716600418090820
3.778919935226440 -1.778910040855408 -18.715599060058594
4.188920021057129 -1.768910050392151 -18.720600128173828
4.026919841766357 -1.438910007476807 -18.735599517822266
3.648920059204102 -1.284909963607788 -18.784599304199219
3.858920097351074 -1.761909961700440 -18.789600372314453
3.624919891357422 -1.490910053253174 -18.800600051879883
3.686919927597046 -1.199910044670105 -18.807600021362305
4.157919883728027 -1.761909961700440 -18.811599731445313
3.769920110702515 -1.191910028457642 -18.839599609375000
4.161920070648193 -1.586910009384155 -18.829599380493164
4.099919795989990 -1.304909944534302 -18.839599609375000
3.686919927597046 -1.182909965515137 -18.861600875854492
4.049920082092285 -1.229910016059876 -18.857599258422852
3.864919900894165 -1.173910021781921 -18.867599487304687
4.119919776916504 -1.741909980773926 -18.868600845336914
4.054920196533203 -1.379909992218018 -18.889600753784180
4.143919944763184 -1.151909947395325 -18.891599655151367
3.808919906616211 -1.172909975051880 -18.899599075317383
4.051919937133789 -1.134909987449646 -18.903600692749023
3.986920118331909 -1.171910047531128 -18.908599853515625
3.707920074462891 -1.142910003662109 -18.923599243164062
4.101920127868652 -1.695909976959229 -18.956600189208984
4.104919910430908 -1.241909980773926 -18.965599060058594
4.206920146942139 -1.217910051345825 -18.966600418090820
4.252920150756836 -1.617910027503967 -18.965599060058594
4.398920059204102 -1.176910042762756 -18.970600128173828
3.668920040130615 -1.112910032272339 -18.997600555419922
4.106919765472412 -1.681910037994385 -18.985599517822266
4.389920234680176 -1.134909987449646 -18.994600296020508
4.384920120239258 -1.229910016059876 -18.998600006103516
3.698920011520386 -0.943908989429474 -19.021600723266602
4.236919879913330 -1.261909961700440 -19.027599334716797
3.651920080184937 -1.103909969329834 -19.043600082397461
3.650919914245606 -1.271909952163696 -19.050600051879883
3.773920059204102 -0.996909976005554 -19.051599502563477
4.129920005798340 -1.485910058021545 -19.042600631713867
3.658920049667358 -1.343909978866577 -19.069599151611328
4.234920024871826 -1.515910029411316 -19.062599182128906
3.696919918060303 -0.899909973144531 -19.079599380493164
3.691920042037964 -1.027909994125366 -19.084600448608398
3.799920082092285 -0.846908986568451 -19.100599288940430
3.650919914245606 -1.197909951210022 -19.106599807739258
4.250919818878174 -1.329910039901733 -19.099599838256836
3.713920116424561 -0.907909989356995 -19.120599746704102
4.108920097351074 -1.607910037040710 -19.114599227905273
4.056920051574707 -1.346909999847412 -19.144599914550781
3.685920000076294 -1.460909962654114 -19.157600402832031
3.661920070648193 -1.286910057067871 -19.164600372314453
4.083920001983643 -1.590909957885742 -19.162599563598633
3.663919925689697 -1.294909954071045 -19.177600860595703
4.007919788360596 -1.602910041809082 -19.198600769042969
4.115920066833496 -1.379909992218018 -19.207599639892578
3.725919961929321 -1.662909984588623 -19.215599060058594
3.676919937133789 -1.314910054206848 -19.245599746704102
3.736920118331909 -0.959912002086639 -19.270599365234375
4.017920017242432 -1.585909962654114 -19.265600204467773
3.875920057296753 -0.867909014225006 -19.287599563598633
4.264920234680176 -1.385910034179688 -19.300600051879883
3.733920097351074 -1.581910014152527 -19.337600708007813
4.317920207977295 -1.049909949302673 -19.333599090576172
4.071919918060303 -1.522909998893738 -19.354600906372070
3.735919952392578 -1.586910009384155 -19.362600326538086
3.893919944763184 -1.582909941673279 -19.373600006103516
4.291920185089111 -0.890910983085632 -19.369600296020508
3.738919973373413 -1.615910053253174 -19.385599136352539
3.742919921875000 -1.616909980773926 -19.393600463867188
4.025919914245606 -1.528910040855408 -19.408599853515625
4.244919776916504 -1.310909986495972 -19.416599273681641
4.125919818878174 -1.463909983634949 -19.439599990844727
3.755919933319092 -1.566910028457642 -19.461599349975586
3.799920082092285 -0.971908986568451 -19.476600646972656
4.288919925689697 -1.127910017967224 -19.473600387573242
3.758919954299927 -1.530910015106201 -19.489599227905273
3.754920005798340 -1.474910020828247 -19.497600555419922
3.747920036315918 -1.423910021781921 -19.508600234985352
3.743920087814331 -1.400910019874573 -19.515600204467773
3.718919992446899 -1.161910057067871 -19.523599624633789
4.145919799804688 -1.430909991264343 -19.516599655151367
3.759919881820679 -1.465909957885742 -19.553600311279297
4.085919857025147 -1.456910014152527 -19.553600311279297
3.852920055389404 -1.545910000801086 -19.565599441528320
4.120920181274414 -1.434910058975220 -19.564599990844727
4.114920139312744 -1.436910033226013 -19.565599441528320
3.858920097351074 -1.541910052299500 -19.572599411010742
4.279920101165772 -1.099910020828247 -19.581600189208984
3.784919977188110 -0.998908996582031 -19.594600677490234
3.833920001983643 -0.959912002086639 -19.595600128173828
4.084919929504395 -1.448909997940064 -19.589599609375000
3.843919992446899 -1.542909979820252 -19.602600097656250
3.837919950485230 -1.541910052299500 -19.622600555419922
3.949919939041138 -1.498909950256348 -19.621599197387695
3.923919916152954 -1.508909940719605 -19.622600555419922
3.884919881820679 -1.506909966468811 -19.707599639892578
3.794919967651367 -1.535910010337830 -19.723600387573242
3.942919969558716 -1.472910046577454 -19.781600952148438
3.785919904708862 -1.370910048484802 -19.798599243164063
4.233920097351074 -1.216910004615784 -19.794599533081055
4.256919860839844 -1.238909959793091 -19.858600616455078
3.822920083999634 -1.518910050392151 -19.870599746704102
4.132919788360596 -1.378909945487976 -19.888599395751953
3.810920000076294 -1.512910008430481 -19.910600662231445
4.107920169830322 -1.371909976005554 -20.000600814819336
3.812920093536377 -1.318910002708435 -20.009599685668945
4.186920166015625 -1.324910044670105 -20.018600463867188
4.299920082092285 -1.196910023689270 -20.047599792480469
3.820919990539551 -1.127910017967224 -20.076599121093750
4.201920032501221 -1.273910045623779 -20.126600265502930
4.212920188903809 -1.249909996986389 -20.158599853515625
4.232920169830322 -1.209910035133362 -20.196599960327148
4.175920009613037 -1.273910045623779 -20.215599060058594
4.191919803619385 -1.240910053253174 -20.253599166870117
4.111919879913330 -1.304909944534302 -20.321599960327148
