ply
format ascii 1.0
element vertex 479
property double x
property double y
property double z
end_header
4.773920059204102 2.002089977264404 -15.634599685668945
4.759920120239258 2.175090074539185 -15.633600234985352
4.773920059204102 2.002089977264404 -15.634599685668945
4.774919986724854 2.286089897155762 -15.645600318908691
4.705920219421387 2.173089981079102 -15.648599624633789
4.729919910430908 1.951089978218079 -15.653599739074707
4.769919872283936 1.848090052604675 -15.652600288391113
4.845920085906982 2.367089986801148 -15.661600112915039
4.699920177459717 2.289089918136597 -15.664600372314453
4.863920211791992 2.306090116500855 -15.665599822998047
4.626920223236084 2.138089895248413 -15.670599937438965
4.320919990539551 2.002089977264404 -15.677599906921387
4.632919788360596 2.106090068817139 -15.672599792480469
4.356919765472412 2.040090084075928 -15.681599617004395
4.262919902801514 1.914090037345886 -15.685600280761719
4.331920146942139 2.105089902877808 -15.686599731445313
4.714920043945313 1.644090056419373 -15.680600166320801
4.384920120239258 2.016089916229248 -15.689599990844727
4.572919845581055 2.321089982986450 -15.688599586486816
4.674920082092285 2.360090017318726 -15.690600395202637
4.653920173645020 2.401089906692505 -15.698599815368652
4.446919918060303 1.978090047836304 -15.702599525451660
4.434919834136963 2.371089935302734 -15.705599784851074
4.551919937133789 2.398089885711670 -15.704600334167480
4.721920013427734 1.846089959144592 -15.700599670410156
4.265920162200928 2.020090103149414 -15.714599609375000
4.718920230865479 1.962090015411377 -15.707599639892578
4.361919879913330 2.231090068817139 -15.716600418090820
4.701920032501221 1.465090036392212 -15.705599784851074
4.628920078277588 1.750090003013611 -15.709600448608398
4.717919826507568 1.632089972496033 -15.707599639892578
4.764920234680176 2.148089885711670 -15.710599899291992
4.729919910430908 2.048089981079102 -15.712599754333496
4.569920063018799 2.473089933395386 -15.728599548339844
4.376920223236084 2.219089984893799 -15.732600212097168
4.180920124053955 1.678089976310730 -15.733599662780762
4.887919902801514 2.393090009689331 -15.724599838256836
4.328919887542725 1.996090054512024 -15.737600326538086
4.679920196533203 2.055089950561523 -15.733599662780762
4.440919876098633 2.498090028762817 -15.741600036621094
4.519919872283936 1.835090041160584 -15.738599777221680
4.441919803619385 2.169090032577515 -15.742600440979004
4.321919918060303 1.943089962005615 -15.746600151062012
4.565919876098633 2.034090042114258 -15.747599601745605
4.584919929504395 2.070090055465698 -15.750599861145020
4.716919898986816 1.329089999198914 -15.746600151062012
4.908919811248779 2.466089963912964 -15.750599861145020
4.513919830322266 1.972090005874634 -15.756600379943848
4.294919967651367 1.689090013504028 -15.761599540710449
4.447919845581055 2.367089986801148 -15.762599945068359
4.484920024871826 1.970090031623840 -15.761599540710449
4.462920188903809 2.319089889526367 -15.766599655151367
4.468920230865479 2.307090044021606 -15.768600463867187
4.677919864654541 1.443089962005615 -15.761599540710449
4.675920009613037 1.417090058326721 -15.766599655151367
4.146920204162598 1.452090024948120 -15.781599998474121
4.538919925689697 1.713089942932129 -15.775600433349609
4.464920043945313 1.749089956283569 -15.782600402832031
4.609920024871826 2.282089948654175 -15.783599853515625
4.244919776916504 1.685089945793152 -15.787599563598633
4.386919975280762 1.667090058326721 -15.786600112915039
4.534920215606690 2.312089920043945 -15.792599678039551
4.524919986724854 1.638090014457703 -15.790599822998047
4.697919845581055 1.302090048789978 -15.785599708557129
4.861919879913330 2.597090005874634 -15.797599792480469
4.491919994354248 2.613090038299561 -15.810600280761719
4.473919868469238 2.595089912414551 -15.814599990844727
4.130919933319092 1.338089942932129 -15.825599670410156
4.869919776916504 2.621089935302734 -15.820599555969238
4.936920166015625 2.636090040206909 -15.834600448608398
4.336919784545898 1.503090023994446 -15.854599952697754
4.947919845581055 2.654089927673340 -15.856599807739258
4.579919815063477 2.677089929580689 -15.870599746704102
4.347919940948486 1.463089942932129 -15.873600006103516
4.352920055389404 1.449090003967285 -15.874600410461426
4.561920166015625 2.704090118408203 -15.892600059509277
4.757919788360596 2.532089948654175 -15.888600349426270
4.557919979095459 2.645090103149414 -15.893600463867188
4.719920158386231 2.532089948654175 -15.892600059509277
4.297920227050781 1.384089946746826 -15.901599884033203
4.841919898986816 2.687089920043945 -15.902600288391113
4.694920063018799 0.986091017723084 -15.900600433349609
4.582920074462891 2.726089954376221 -15.913599967956543
4.757919788360596 2.568089962005615 -15.917599678039551
4.878920078277588 2.587090015411377 -15.917599678039551
4.585919857025147 1.080090045928955 -15.920599937438965
4.740920066833496 2.706089973449707 -15.927599906921387
4.341919898986816 1.324090003967285 -15.935600280761719
4.695919990539551 2.625089883804321 -15.941599845886230
4.605919837951660 2.695090055465698 -15.944600105285645
4.625919818878174 0.968089997768402 -15.943599700927734
4.275919914245606 1.242089986801148 -15.961600303649902
4.684919834136963 1.007089972496033 -15.952599525451660
4.273920059204102 1.243090033531189 -15.966600418090820
4.649919986724854 0.915087997913361 -15.957599639892578
4.588920116424561 2.753089904785156 -15.971599578857422
4.954919815063477 2.683089971542358 -15.967599868774414
4.690919876098633 0.865088999271393 -15.968600273132324
4.041920185089111 1.008090019226074 -15.983599662780762
4.564919948577881 0.995090007781982 -15.975600242614746
4.307919979095459 1.218090057373047 -15.986599922180176
4.882919788360596 2.754090070724487 -16.000600814819336
4.605919837951660 0.902087986469269 -15.998600006103516
4.799920082092285 2.753089904785156 -16.006599426269531
4.882919788360596 2.757090091705322 -16.008600234985352
3.999919891357422 0.918090999126434 -16.023599624633789
4.226920127868652 1.095090031623840 -16.021600723266602
4.585919857025147 1.002089977264404 -16.017599105834961
4.003920078277588 0.913088977336884 -16.030599594116211
4.789919853210449 2.764090061187744 -16.025600433349609
4.761919975280762 2.733089923858643 -16.037599563598633
4.602920055389404 0.972091019153595 -16.031600952148437
4.222919940948486 1.090090036392212 -16.045600891113281
4.540919780731201 0.999087989330292 -16.040599822998047
4.283919811248779 1.102090001106262 -16.048599243164062
4.792920112609863 2.740089893341065 -16.050600051879883
4.059919834136963 0.875091016292572 -16.076599121093750
5.003920078277588 2.781090021133423 -16.074600219726563
4.845920085906982 2.792089939117432 -16.085599899291992
4.933919906616211 2.791090011596680 -16.084600448608398
4.516920089721680 0.852088987827301 -16.086599349975586
4.514920234680176 0.850090026855469 -16.087600708007813
4.679920196533203 0.718089997768402 -16.090599060058594
4.938920021057129 2.797090053558350 -16.102600097656250
4.413919925689697 0.952090978622437 -16.106599807739258
4.606919765472412 0.877089977264404 -16.103599548339844
4.488920211791992 0.814090013504028 -16.121599197387695
4.153920173645020 0.863089978694916 -16.133600234985352
4.908919811248779 2.812089920043945 -16.146600723266602
4.004920005798340 0.818087995052338 -16.162599563598633
4.370920181274414 0.868090987205505 -16.156600952148438
4.468920230865479 0.893088996410370 -16.156600952148438
4.943920135498047 2.805089950561523 -16.173599243164063
4.834919929504395 2.821089982986450 -16.196599960327148
3.977920055389404 0.611091017723084 -16.209600448608398
3.937920093536377 0.631088018417358 -16.216600418090820
4.013919830322266 0.744090974330902 -16.219600677490234
4.172920227050781 0.765091001987457 -16.216600418090820
4.673920154571533 0.579089999198914 -16.210599899291992
4.359920024871826 0.833091020584106 -16.227600097656250
4.230919837951660 0.825088024139404 -16.234600067138672
5.016920089721680 2.845089912414551 -16.234600067138672
4.082920074462891 0.764091014862061 -16.241600036621094
4.373919963836670 0.797088027000427 -16.251600265502930
4.204919815063477 0.734089016914368 -16.256599426269531
4.358920097351074 0.744090974330902 -16.259599685668945
4.087920188903809 0.617088019847870 -16.269599914550781
4.122920036315918 0.754088997840881 -16.270599365234375
4.542920112609863 0.726089000701904 -16.263599395751953
4.874919891357422 2.846090078353882 -16.269599914550781
4.727920055389404 2.900089979171753 -16.277599334716797
4.945919990539551 2.850090026855469 -16.282600402832031
4.138919830322266 0.730090975761414 -16.294599533081055
4.810919761657715 2.858089923858643 -16.297599792480469
4.447919845581055 0.647090971469879 -16.294599533081055
4.254920005798340 0.730090975761414 -16.314599990844727
3.964920043945313 0.450087994337082 -16.319599151611328
4.400919914245606 0.722091019153595 -16.317600250244141
4.921919822692871 2.855089902877808 -16.319599151611328
4.954919815063477 2.856090068817139 -16.319599151611328
3.947920083999634 0.440090000629425 -16.327600479125977
4.535920143127441 0.565090000629425 -16.316600799560547
3.969919919967651 0.564090013504028 -16.338600158691406
4.615920066833496 0.496089994907379 -16.334600448608398
4.524919986724854 0.655089974403381 -16.340599060058594
4.155920028686523 0.671088993549347 -16.350599288940430
4.124919891357422 0.653091013431549 -16.352600097656250
4.653920173645020 0.552088975906372 -16.343599319458008
4.010920047760010 0.406089007854462 -16.364599227905273
4.358920097351074 0.631088018417358 -16.359600067138672
4.679920196533203 0.435088992118835 -16.360599517822266
4.102920055389404 0.482089996337891 -16.380599975585937
4.658919811248779 0.440090000629425 -16.370599746704102
4.743919849395752 2.917089939117432 -16.391599655151367
4.094920158386231 0.583091020584106 -16.394599914550781
4.848919868469238 2.870090007781982 -16.392599105834961
4.866919994354248 2.868089914321899 -16.393600463867188
4.257919788360596 0.612091004848480 -16.394599914550781
4.041920185089111 0.524089992046356 -16.412599563598633
4.147920131683350 0.493090987205505 -16.410600662231445
4.774919986724854 2.863090038299561 -16.420600891113281
4.424920082092285 0.536091029644012 -16.414600372314453
4.155920028686523 0.567089021205902 -16.436599731445313
4.880919933319092 2.871089935302734 -16.435600280761719
4.942920207977295 2.868089914321899 -16.438600540161133
5.003920078277588 2.874089956283569 -16.441600799560547
4.319920063018799 0.556091010570526 -16.445600509643555
5.037919998168945 2.879090070724487 -16.462600708007813
4.802919864654541 2.874089956283569 -16.477600097656250
4.352920055389404 0.498088985681534 -16.475599288940430
4.950920104980469 2.867089986801148 -16.479600906372070
4.662919998168945 0.345088988542557 -16.480600357055664
4.094920158386231 0.460090011358261 -16.494600296020508
4.294919967651367 0.482089996337891 -16.536600112915039
4.129920005798340 0.305088013410568 -16.549600601196289
4.866919994354248 2.865089893341065 -16.552600860595703
3.991919994354248 0.259090006351471 -16.557600021362305
5.001920223236084 2.881089925765991 -16.553600311279297
3.968919992446899 0.086089998483658 -16.563600540161133
4.148920059204102 0.410091012716293 -16.562599182128906
5.043920040130615 2.895090103149414 -16.563600540161133
4.917920112609863 2.871089935302734 -16.568599700927734
4.502920150756836 0.370090007781982 -16.562599182128906
4.326920032501221 0.477088987827301 -16.567600250244141
4.358920097351074 0.475089997053146 -16.569599151611328
4.336919784545898 0.473091006278992 -16.572599411010742
4.575920104980469 0.329089999198914 -16.570600509643555
4.495920181274414 0.356090009212494 -16.580600738525391
4.302919864654541 0.455089002847672 -16.587600708007813
4.554920196533203 0.406089007854462 -16.594600677490234
4.060919761657715 0.289088994264603 -16.604600906372070
4.302919864654541 0.422087997198105 -16.604600906372070
4.946919918060303 2.875089883804321 -16.611600875854492
3.938920021057129 0.020088000223041 -16.619600296020508
4.726920127868652 0.270087987184525 -16.608600616455078
4.121920108795166 0.226089000701904 -16.623600006103516
4.456920146942139 0.340090990066528 -16.617599487304688
4.016920089721680 0.063091002404690 -16.630599975585938
4.404920101165772 0.424091011285782 -16.628599166870117
4.582920074462891 0.276087999343872 -16.625600814819336
4.577919960021973 0.355091005563736 -16.648599624633789
4.238920211791992 0.365088999271393 -16.656600952148438
4.008920192718506 0.137088000774384 -16.662599563598633
4.195919990539551 0.326088011264801 -16.671600341796875
4.308919906616211 0.367087990045547 -16.687599182128906
4.542920112609863 0.334091007709503 -16.697599411010742
4.001920223236084 0.014090999960899 -16.708599090576172
4.257919788360596 0.320091009140015 -16.711599349975586
4.986919879913330 2.885090112686157 -16.712600708007812
4.392920017242432 0.299091011285782 -16.711599349975586
4.410920143127441 0.283087998628616 -16.719600677490234
4.954919815063477 2.871089935302734 -16.725599288940430
5.058919906616211 2.926090002059937 -16.725599288940430
3.905920028686523 -0.109908998012543 -16.739599227905273
4.082920074462891 0.068088002502918 -16.751600265502930
4.304920196533203 0.301090002059937 -16.769599914550781
4.991919994354248 2.878089904785156 -16.779600143432617
4.663919925689697 0.231089994311333 -16.771600723266602
4.640920162200928 0.243091002106667 -16.775600433349609
5.116919994354248 2.965090036392212 -16.789600372314453
4.716919898986816 0.105090998113155 -16.796600341796875
4.211919784545898 0.159088000655174 -16.810600280761719
4.288919925689697 0.227089002728462 -16.814599990844727
4.383920192718506 0.297087997198105 -16.813600540161133
4.348919868469238 0.275088995695114 -16.833599090576172
3.888920068740845 -0.179909005761147 -16.840599060058594
4.125919818878174 0.109089002013206 -16.838600158691406
5.133920192718506 2.979089975357056 -16.842599868774414
4.010920047760010 -0.029911000281572 -16.855600357055664
4.068920135498047 0.032088998705149 -16.857599258422852
4.215919971466065 0.131088003516197 -16.860599517822266
4.331920146942139 0.243091002106667 -16.864599227905273
3.919919967651367 -0.137908995151520 -16.889600753784180
3.972919940948486 -0.153911992907524 -16.898599624633789
4.672920227050781 0.172087997198105 -16.886600494384766
5.133920192718506 2.946089982986450 -16.897600173950195
4.766920089721680 0.055087998509407 -16.900600433349609
4.547920227050781 0.205089002847672 -16.913600921630859
4.464920043945313 0.226089000701904 -16.924600601196289
5.169919967651367 2.984090089797974 -16.928600311279297
3.968919992446899 -0.125911995768547 -16.936599731445313
4.472919940948486 0.108088999986649 -16.930599212646484
3.985919952392578 -0.190910995006561 -16.949600219726563
4.380919933319092 0.119090996682644 -16.948600769042969
5.154920101165772 2.991090059280396 -16.951599121093750
4.541920185089111 0.179087996482849 -16.955600738525391
4.696919918060303 0.052088998258114 -16.952600479125977
3.904920101165772 -0.305911988019943 -16.984600067138672
4.508920192718506 0.078089997172356 -16.981599807739258
3.946919918060303 -0.309909999370575 -17.006599426269531
4.797920227050781 0.060088999569416 -16.995599746704102
5.160920143127441 2.978090047836304 -17.005599975585938
4.141920089721680 -0.047908999025822 -17.011600494384766
5.178919792175293 2.971090078353882 -17.011600494384766
3.914920091629028 -0.347912013530731 -17.020599365234375
3.960920095443726 -0.219909995794296 -17.029600143432617
4.002920150756836 -0.260910004377365 -17.029600143432617
5.163919925689697 2.946089982986450 -17.027599334716797
4.671919822692871 0.025088999420404 -17.025600433349609
4.091919898986816 -0.127911001443863 -17.044599533081055
4.324920177459717 0.097090996801853 -17.057600021362305
5.196919918060303 3.003089904785156 -17.061599731445313
3.969919919967651 -0.368912011384964 -17.082599639892578
3.941920042037964 -0.313912004232407 -17.093599319458008
4.800920009613037 0.010089999996126 -17.078599929809570
4.292920112609863 0.045088998973370 -17.108600616455078
4.027919769287109 -0.312911987304688 -17.129600524902344
3.965919971466065 -0.434909999370575 -17.130599975585938
4.757919788360596 -0.036910999566317 -17.127599716186523
4.423920154571533 0.082088001072407 -17.135599136352539
5.213920116424561 2.977089881896973 -17.140600204467773
4.742919921875000 0.020088000223041 -17.134599685668945
4.192920207977295 -0.095908999443054 -17.161600112915039
4.730919837951660 -0.053909998387098 -17.154600143432617
4.556920051574707 0.042091000825167 -17.181600570678711
4.561920166015625 0.036090999841690 -17.187599182128906
3.998919963836670 -0.424912005662918 -17.212600708007813
4.169919967651367 -0.125911995768547 -17.214599609375000
4.439919948577881 0.032088998705149 -17.216600418090820
4.579919815063477 -0.093910999596119 -17.234600067138672
3.961920022964478 -0.418911010026932 -17.246599197387695
4.131919860839844 -0.216912001371384 -17.251600265502930
4.762919902801514 -0.099910996854305 -17.240600585937500
5.249919891357422 2.989089965820313 -17.250600814819336
4.331920146942139 -0.033909000456333 -17.259599685668945
4.198919773101807 -0.132911995053291 -17.267599105834961
4.297920227050781 -0.065911002457142 -17.266599655151367
4.566919803619385 -0.114909999072552 -17.262599945068359
4.203919887542725 -0.146911993622780 -17.277599334716797
4.546919822692871 -0.138908997178078 -17.293600082397461
4.379920005798340 -0.108910001814365 -17.314599990844727
4.618919849395752 -0.077912002801895 -17.316600799560547
4.725920200347900 -0.147910997271538 -17.314599990844727
3.982919931411743 -0.584912002086639 -17.344600677490234
4.544919967651367 -0.065911002457142 -17.339599609375000
4.353919982910156 -0.121909998357296 -17.343599319458008
4.246920108795166 -0.152908995747566 -17.361600875854492
4.542920112609863 -0.078910999000072 -17.358600616455078
4.475920200347900 -0.172909006476402 -17.366600036621094
3.998919963836670 -0.545910000801086 -17.374599456787109
4.672920227050781 -0.157910004258156 -17.369600296020508
4.085919857025147 -0.354912012815475 -17.382600784301758
4.341919898986816 -0.141911000013351 -17.385599136352539
4.139920234680176 -0.282909989356995 -17.389600753784180
4.215919971466065 -0.195912003517151 -17.390600204467773
4.120920181274414 -0.289909988641739 -17.423599243164063
4.620920181274414 -0.166908994317055 -17.416599273681641
4.696919918060303 -0.318908989429474 -17.417600631713867
4.349919795989990 -0.136910006403923 -17.435600280761719
3.945919990539551 -0.616909027099609 -17.448600769042969
4.052919864654541 -0.442909985780716 -17.449600219726562
4.154920101165772 -0.319911986589432 -17.479600906372070
4.220920085906982 -0.236911997199059 -17.479600906372070
4.279920101165772 -0.190910995006561 -17.481599807739258
4.604919910430908 -0.330909997224808 -17.480600357055664
4.606919765472412 -0.217911005020142 -17.490600585937500
3.976919889450073 -0.548911988735199 -17.507600784301758
4.005919933319092 -0.605912029743195 -17.520599365234375
4.620920181274414 -0.371910005807877 -17.516599655151367
4.107920169830322 -0.361912012100220 -17.542600631713867
4.054920196533203 -0.464908987283707 -17.551599502563477
4.035920143127441 -0.512908995151520 -17.557600021362305
4.675920009613037 -0.443908989429474 -17.554599761962891
4.486919879913330 -0.206909000873566 -17.563600540161133
4.180920124053955 -0.332908987998962 -17.573600769042969
4.623919963836670 -0.420910000801086 -17.568599700927734
3.989919900894165 -0.681912004947662 -17.590599060058594
3.956919908523560 -0.650910019874573 -17.601600646972656
4.716919898986816 -0.519909024238586 -17.588600158691406
4.318920135498047 -0.253910005092621 -17.603599548339844
4.419919967651367 -0.216912001371384 -17.608600616455078
4.043920040130615 -0.530911028385162 -17.623600006103516
4.037919998168945 -0.492909014225006 -17.639600753784180
3.989919900894165 -0.701911985874176 -17.648599624633789
3.933919906616211 -0.738910973072052 -17.650600433349609
4.003920078277588 -0.554908990859985 -17.651599884033203
4.483920097351074 -0.388909012079239 -17.655599594116211
4.439919948577881 -0.260910004377365 -17.671600341796875
4.472919940948486 -0.395909011363983 -17.680599212646484
4.345920085906982 -0.275909990072250 -17.691600799560547
3.971920013427734 -0.751910984516144 -17.699600219726562
4.477920055389404 -0.412910997867584 -17.705600738525391
4.272920131683350 -0.293911010026932 -17.714599609375000
4.593920230865479 -0.522911012172699 -17.712600708007813
4.256919860839844 -0.313912004232407 -17.733600616455078
4.058919906616211 -0.484908998012543 -17.738599777221680
3.946919918060303 -0.789910018444061 -17.776599884033203
3.963920116424561 -0.639912009239197 -17.777599334716797
4.633920192718506 -0.641910970211029 -17.780599594116211
4.375919818878174 -0.324910014867783 -17.791599273681641
4.451920032501221 -0.437911987304688 -17.794599533081055
4.261919975280762 -0.344909995794296 -17.816600799560547
4.561920166015625 -0.501910984516144 -17.823600769042969
4.504920005798340 -0.479912012815475 -17.829599380493164
4.381919860839844 -0.405910998582840 -17.841600418090820
4.218920230865479 -0.384911000728607 -17.862600326538086
4.147920131683350 -0.489910006523132 -17.864599227905273
3.952919960021973 -0.766910970211029 -17.872600555419922
4.310919761657715 -0.363911002874374 -17.879600524902344
4.303919792175293 -0.366908997297287 -17.891599655151367
4.131919860839844 -0.516910970211029 -17.896600723266602
3.931920051574707 -0.719910025596619 -17.901599884033203
4.349919795989990 -0.413910001516342 -17.913600921630859
4.568920135498047 -0.674911975860596 -17.934600830078125
4.190919876098633 -0.461910992860794 -17.952600479125977
4.643919944763184 -0.746909976005554 -17.944599151611328
4.434919834136963 -0.452912002801895 -17.956600189208984
3.933919906616211 -0.734908998012543 -17.968599319458008
4.292920112609863 -0.411911010742188 -17.977600097656250
4.381919860839844 -0.445912003517151 -18.011600494384766
4.355919837951660 -0.432911008596420 -18.014600753784180
4.417920112609863 -0.470908999443054 -18.024599075317383
4.296919822692871 -0.442909985780716 -18.027599334716797
3.887919902801514 -0.801910996437073 -18.047599792480469
4.159920215606690 -0.494910985231400 -18.050600051879883
4.100920200347900 -0.543910980224609 -18.065599441528320
4.291920185089111 -0.435909986495972 -18.070600509643555
4.560919761657715 -0.651908993721008 -18.103599548339844
4.260920047760010 -0.471908986568451 -18.129600524902344
3.859920024871826 -0.837909996509552 -18.155599594116211
4.368919849395752 -0.570912003517151 -18.164600372314453
3.856920003890991 -0.889912009239197 -18.194599151611328
4.130919933319092 -0.580910027027130 -18.201599121093750
3.988919973373413 -0.740909993648529 -18.203599929809570
4.092919826507568 -0.581909000873566 -18.209600448608398
3.910919904708862 -0.830910027027130 -18.217599868774414
4.360919952392578 -0.589909017086029 -18.217599868774414
4.551919937133789 -0.745911002159119 -18.258600234985352
4.304920196533203 -0.557910978794098 -18.268600463867188
4.116919994354248 -0.614910006523132 -18.277599334716797
4.481919765472412 -0.792912006378174 -18.270599365234375
4.564919948577881 -0.796909987926483 -18.286600112915039
4.262919902801514 -0.523910999298096 -18.296600341796875
4.306920051574707 -0.569912016391754 -18.314599990844727
3.825920104980469 -0.907909989356995 -18.337600708007813
4.020919799804688 -0.663909971714020 -18.337600708007813
3.962919950485230 -0.790908992290497 -18.343599319458008
4.384920120239258 -0.610908985137939 -18.371599197387695
4.446919918060303 -0.803910017013550 -18.386600494384766
4.535920143127441 -0.924911975860596 -18.391599655151367
4.067920207977295 -0.702911972999573 -18.407600402832031
3.870919942855835 -0.807910978794098 -18.434600830078125
4.092919826507568 -0.683911025524139 -18.434600830078125
4.416920185089111 -0.652908980846405 -18.432600021362305
4.552919864654541 -0.991909027099609 -18.443599700927734
4.068920135498047 -0.651908993721008 -18.456600189208984
4.561920166015625 -0.922909021377563 -18.449600219726562
4.301919937133789 -0.599910974502563 -18.461599349975586
4.559919834136963 -0.932910978794098 -18.464599609375000
3.936919927597046 -0.753910005092621 -18.485599517822266
3.970920085906982 -0.789910018444061 -18.489599227905273
4.429920196533203 -0.683911025524139 -18.482599258422852
3.851919889450073 -0.866909027099609 -18.504600524902344
4.420919895172119 -0.686909019947052 -18.508600234985352
4.479919910430908 -0.942910015583038 -18.511600494384766
4.038919925689697 -0.682910978794098 -18.526599884033203
4.467919826507568 -0.932910978794098 -18.522600173950195
4.211919784545898 -0.589909017086029 -18.531600952148438
3.911920070648193 -0.826911985874176 -18.542600631713867
3.996920108795166 -0.714909017086029 -18.553600311279297
4.161920070648193 -0.643909990787506 -18.564599990844727
4.024919986724854 -0.698909997940063 -18.575599670410156
3.860919952392578 -0.806912004947662 -18.579599380493164
3.945919990539551 -0.806912004947662 -18.594600677490234
4.539919853210449 -1.107910037040710 -18.610599517822266
4.138919830322266 -0.644909024238586 -18.625600814819336
4.210919857025147 -0.617909014225006 -18.625600814819336
4.408919811248779 -0.916908979415894 -18.628599166870117
4.267920017242432 -0.642910003662109 -18.641599655151367
4.497920036315918 -0.929908990859985 -18.641599655151367
4.359920024871826 -0.774909973144531 -18.656600952148438
4.397920131683350 -0.949909985065460 -18.667600631713867
4.048920154571533 -0.727909028530121 -18.688600540161133
3.982919931411743 -0.802909970283508 -18.710599899291992
4.401919841766357 -1.066910028457642 -18.715599060058594
3.818919897079468 -0.875912010669708 -18.765600204467773
4.469920158386231 -0.990909993648529 -18.757600784301758
4.027919769287109 -0.824909985065460 -18.781600952148438
4.335919857025147 -1.102910041809082 -18.788600921630859
3.971920013427734 -0.758911013603210 -18.814599990844727
3.852920055389404 -0.800911009311676 -18.823600769042969
3.622920036315918 -0.865909993648529 -18.837600708007812
4.086919784545898 -0.731911003589630 -18.837600708007812
4.041920185089111 -0.926910996437073 -18.844600677490234
4.359920024871826 -0.778912007808685 -18.860599517822266
4.108920097351074 -1.026909947395325 -18.864599227905273
3.760920047760010 -0.827911972999573 -18.892599105834961
3.916919946670532 -0.780911028385162 -18.925600051879883
4.409920215606690 -0.963908970355988 -18.915599822998047
4.396920204162598 -0.943908989429474 -18.937599182128906
4.393919944763184 -0.981911003589630 -18.974599838256836
4.082920074462891 -0.735908985137939 -18.982599258422852
4.133920192718506 -0.721908986568451 -18.990600585937500
4.346920013427734 -0.829910993576050 -18.989599227905273
4.118919849395752 -0.728909015655518 -19.005599975585938
4.220920085906982 -0.735908985137939 -19.036600112915039
4.376920223236084 -1.015910029411316 -19.090599060058594
4.375919818878174 -1.020910024642944 -19.094600677490234
4.145919799804688 -0.744911015033722 -19.112600326538086
