ply
format ascii 1.0
element vertex 807
property double x
property double y
property double z
end_header
-5.646070003509522 22.091199874877930 117.944999694824220
-5.072619915008545 21.789899826049805 117.870002746582030
-6.098790168762207 22.200899124145508 117.383003234863280
-5.095320224761963 22.056200027465820 118.497001647949220
-5.555620193481445 22.404399871826172 118.807998657226560
-6.103859901428223 22.718399047851563 118.903999328613280
-5.585070133209229 22.736900329589844 119.399002075195310
-4.620969772338867 22.506099700927734 119.217002868652340
-4.061699867248535 22.210899353027344 118.934997558593750
-7.083730220794678 23.302600860595703 117.359001159667970
-5.079380035400391 22.865699768066406 119.823997497558590
-7.415510177612305 23.327400207519531 118.460998535156250
-6.090630054473877 23.216999053955078 119.902999877929690
-7.266260147094727 23.747499465942383 117.771003723144530
-4.184160232543945 23.033800125122070 119.680999755859370
-5.572470188140869 23.261600494384766 120.386001586914060
-7.617320060729981 23.797100067138672 118.831001281738280
-7.795509815216065 23.267599105834961 119.208000183105470
-4.588870048522949 23.335800170898438 120.337997436523440
-5.108059883117676 23.457300186157227 120.764999389648440
-3.723540067672730 23.872999191284180 119.777999877929690
-4.096119880676270 23.821800231933594 120.345001220703120
-6.704339981079102 24.029399871826172 120.461997985839840
-6.078999996185303 23.750099182128906 120.891998291015620
-4.544710159301758 23.760499954223633 120.893997192382810
-3.754650115966797 24.374900817871094 120.274002075195310
-5.082149982452393 23.836399078369141 121.341003417968750
-3.524610042572022 24.790599822998047 119.883003234863280
-6.156449794769287 24.136800765991211 121.466003417968750
-3.387969970703125 25.300300598144531 119.416999816894530
-5.599679946899414 24.034099578857422 121.717002868652340
-4.222169876098633 24.433900833129883 121.258003234863280
-2.598589897155762 24.977399826049805 118.969001770019530
-3.794110059738159 24.869800567626953 120.779998779296870
-6.636000156402588 24.729499816894531 121.389999389648440
-2.585710048675537 25.370300292968750 118.405998229980470
-3.591749906539917 25.302900314331055 120.358001708984370
-4.631100177764893 24.385700225830078 121.805999755859370
-3.018450021743774 25.903099060058594 118.444000244140620
-3.484479904174805 25.802299499511719 119.887001037597660
-7.075729846954346 26.385099411010742 119.291000366210940
-3.579329967498779 26.298200607299805 118.863998413085940
-6.090690135955811 26.638500213623047 119.462997436523440
-5.115029811859131 24.446100234985352 122.271003723144530
-4.061379909515381 26.795299530029297 117.863998413085940
-4.186079978942871 24.908399581909180 121.785003662109370
-6.115590095520020 24.662399291992188 122.435997009277340
-7.072140216827393 26.808000564575195 119.857002258300780
-3.554539918899536 26.300699234008789 120.367996215820310
-4.590410232543945 24.821899414062500 122.348999023437500
-3.725409984588623 25.821599960327148 121.321998596191410
-3.723200082778931 26.769300460815430 119.829002380371090
-6.809460163116455 25.697900772094727 121.917999267578120
-6.637320041656494 25.225000381469727 122.398002624511720
-3.860359907150269 27.285800933837891 118.944999694824220
-5.568190097808838 24.764400482177734 122.886001586914060
-4.181230068206787 25.364500045776367 122.313003540039060
-4.219230175018311 27.249000549316406 119.769996643066410
-6.572370052337647 27.299100875854492 120.364997863769530
-6.148280143737793 24.985300064086914 123.023002624511720
-3.607350111007690 26.798299789428711 120.857002258300780
-4.905479907989502 25.049999237060547 123.023002624511720
-3.762739896774292 26.322500228881836 121.816001892089840
-7.079319953918457 27.411300659179688 120.805000305175780
-4.609169960021973 27.788400650024414 120.345001220703120
-7.103700160980225 26.291799545288086 122.372001647949220
-5.551489830017090 25.133800506591797 123.462997436523440
-6.804409980773926 25.881599426269531 122.853996276855470
-4.155509948730469 25.843599319458008 122.829002380371090
-3.923579931259155 26.242099761962891 122.418998718261720
-6.421319961547852 25.508100509643555 123.276000976562500
-4.211420059204102 28.244199752807617 119.277999877929690
-3.736320018768311 27.289499282836914 121.331001281738280
-7.574279785156250 27.454099655151367 121.295997619628910
-6.555890083312988 27.644199371337891 121.425003051757810
-4.486670017242432 25.715499877929687 123.422996520996090
-5.121890068054199 25.432199478149414 123.778999328613280
-4.796860218048096 28.216800689697266 120.767997741699220
-4.714139938354492 28.708700180053711 119.777999877929690
-6.126599788665772 25.565700531005859 123.994003295898440
-6.855120182037354 26.371900558471680 123.348999023437500
-7.057720184326172 27.696100234985352 121.907997131347660
-3.927489995956421 26.746299743652344 122.914001464843750
-3.783220052719116 27.302200317382813 122.317001342773440
-5.035120010375977 28.310699462890625 121.375999450683590
-3.779459953308106 27.780799865722656 121.823997497558590
-4.953609943389893 28.820499420166016 120.390998840332030
-6.688759803771973 26.149499893188477 123.954002380371090
-4.209179878234863 26.409000396728516 123.788002014160160
-5.564899921417236 25.742700576782227 124.400001525878910
-7.564380168914795 27.737400054931641 122.394996643066410
-4.742509841918945 26.004699707031250 124.224998474121090
-3.921920061111450 27.256500244140625 123.405998229980470
-5.263120174407959 28.788999557495117 121.821998596191410
-3.838099956512451 27.775499343872070 122.916999816894530
-5.126440048217773 29.290199279785156 120.849998474121090
-3.850549936294556 28.310400009155273 122.404998779296870
-6.928339958190918 26.840400695800781 124.339996337890620
-6.665860176086426 26.704999923706055 124.919998168945310
-6.104290008544922 26.165899276733398 124.943000793457030
-6.925660133361816 27.344499588012695 124.844001770019530
-5.584080219268799 26.373899459838867 125.317001342773440
-6.145470142364502 26.564399719238281 125.500000000000000
-5.048069953918457 26.251100540161133 124.896003723144530
-6.727970123291016 27.158100128173828 125.450996398925780
-4.386569976806641 26.657800674438477 124.466003417968750
-4.672220230102539 26.899999618530273 125.295997619628910
-5.109910011291504 26.872999191284180 125.814002990722660
-7.070310115814209 28.277799606323242 123.402999877929690
-5.607409954071045 26.964199066162109 126.255996704101560
-6.958799839019775 27.831699371337891 125.856002807617190
-4.070650100708008 27.299200057983398 124.364997863769530
-4.320240020751953 27.415899276733398 125.269996643066410
-7.093510150909424 28.295600891113281 125.363998413085940
-6.485330104827881 27.393800735473633 126.306999206542970
-4.622350215911865 27.343999862670898 125.832000732421870
-7.534190177917481 27.951900482177734 123.110000610351560
-4.053060054779053 27.792499542236328 124.870002746582030
-5.073659896850586 27.301200866699219 126.362998962402340
-3.909679889678955 27.751399993896484 123.904998779296870
-5.734139919281006 28.921499252319336 123.206001281738280
-4.979660034179688 28.884300231933594 124.944999694824220
-4.544310092926025 28.824399948120117 124.383003234863280
-7.580070018768311 28.797899246215820 123.791999816894530
-4.284820079803467 27.889200210571289 125.785003662109370
-8.072210311889648 28.300600051879883 123.363998413085940
-4.064990043640137 28.297599792480469 125.366996765136720
-7.071169853210449 29.301200866699219 123.871002197265620
-7.069779872894287 28.300500869750977 126.363998413085940
-7.140319824218750 28.789800643920898 125.861999511718750
-4.789050102233887 29.218299865722656 123.800003051757810
-6.103409767150879 27.527999877929688 127.033996582031250
-4.414239883422852 28.900199890136719 123.405998229980470
-5.490170001983643 27.558700561523438 127.027999877929690
-3.816469907760620 28.329399108886719 123.310997009277340
-3.896569967269898 28.773399353027344 124.416000366210940
-4.373499870300293 28.761499404907227 122.806999206542970
-5.323480129241943 29.496000289916992 123.188003540039060
-4.713960170745850 27.940299987792969 126.762001037597660
-4.272429943084717 28.369699478149414 126.294998168945310
-6.570549964904785 29.804599761962891 123.370002746582030
-4.060860157012940 28.796899795532227 125.867996215820310
-4.030930042266846 29.297800064086914 124.875999450683590
-7.583740234375000 29.776100158691406 123.802001953125000
-6.016109943389893 29.922399520874023 122.953002929687500
-7.140100002288818 28.782400131225586 126.871002197265620
-7.238969802856445 29.288499832153320 126.348999023437500
-6.872369766235352 28.396699905395508 127.309997558593750
-7.091259956359863 29.802499771118164 125.861000061035160
-5.634729862213135 29.710599899291992 122.295997619628910
-4.976610183715820 28.175300598144531 127.453002929687500
-5.599939823150635 30.336099624633789 124.843002319335940
-5.625740051269531 28.007799148559570 127.721000671386720
-4.388979911804199 28.675199508666992 126.958999633789060
-7.129240036010742 30.168100357055664 123.189002990722660
-6.118070125579834 30.355800628662109 125.325996398925780
-6.590720176696777 30.239700317382813 122.817001342773440
-3.981650114059448 29.794099807739258 125.387001037597660
-6.562399864196777 28.318700790405273 127.851997375488280
-5.273119926452637 29.583999633789063 121.682998657226560
-6.697800159454346 30.367099761962891 125.810997009277340
-6.085249900817871 30.270599365234375 122.345001220703120
-4.157279968261719 29.322500228881836 126.841003417968750
-7.232059955596924 29.256900787353516 127.380996704101560
-7.292079925537109 29.789899826049805 126.838996887207030
-5.572219848632813 30.799699783325195 125.364997863769530
-5.087669849395752 30.820999145507812 124.849998474121090
-4.023159980773926 29.794599533081055 126.375999450683590
-6.992090225219727 28.847200393676758 127.835998535156250
-7.092679977416992 30.302999496459961 126.359001159667970
-5.733660221099854 30.131799697875977 121.754997253417970
-6.072989940643311 28.389499664306641 128.302993774414060
-6.092899799346924 30.819000244140625 125.850997924804690
-4.646450042724609 28.860300064086914 127.818000793457030
-4.043869972229004 30.298799514770508 125.869003295898440
-6.620160102844238 30.599599838256836 122.260002136230470
-5.195650100708008 28.556400299072266 128.188003540039060
-6.503930091857910 30.768100738525391 126.392997741699220
-6.613989830017090 28.731899261474609 128.406997680664060
-5.407149791717529 30.078800201416016 121.171997070312500
-4.342080116271973 29.389299392700195 127.775001525878910
-4.168570041656494 29.821899414062500 127.338996887207030
-4.055250167846680 30.299100875854492 126.867996215820310
-7.384759902954102 30.314800262451172 127.380996704101560
-7.397970199584961 29.816200256347656 127.878997802734370
-7.204130172729492 30.795900344848633 126.832000732421870
-7.088840007781982 29.289199829101562 128.369995117187500
-4.093269824981690 30.799999237060547 126.361999511718750
-4.894989967346191 29.095500946044922 128.514999389648440
-5.591259956359863 28.847600936889648 128.830993652343750
-5.678070068359375 31.408300399780273 126.292999267578120
-6.537419795989990 31.285600662231445 126.884002685546870
-4.464990139007568 29.734100341796875 128.417999267578130
-4.166850090026856 30.314599990844727 127.839996337890620
-6.077390193939209 29.002199172973633 129.216995239257810
-7.077070236206055 31.286500930786133 127.379997253417970
-7.470590114593506 30.806400299072266 127.873001098632810
-7.474199771881104 30.311100006103516 128.367996215820310
-7.307909965515137 29.882099151611328 128.832992553710940
-6.895790100097656 29.473899841308594 129.263000488281250
-5.163839817047119 29.402999877929688 129.285995483398440
-4.194869995117188 31.283100128173828 127.346000671386720
-4.268750190734863 31.777500152587891 126.833000183105470
-6.174359798431397 31.870300292968750 127.263999938964840
-4.358079910278320 30.365699768066406 128.774993896484370
-4.198170185089111 30.809900283813477 128.333999633789060
-4.710700035095215 29.905799865722656 129.276992797851560
-6.078670024871826 29.420900344848633 129.776000976562500
-6.765399932861328 31.938199996948242 127.732002258300780
-7.540880203247070 31.301000595092773 128.367004394531250
-7.543419837951660 30.803400039672852 128.865005493164060
-7.440499782562256 30.337499618530273 129.348007202148440
-4.316239833831787 31.760799407958984 127.824996948242190
-6.626820087432861 29.662300109863281 129.960998535156250
-5.518789768218994 29.685100555419922 129.949996948242190
-7.202320098876953 31.856700897216797 128.317001342773440
-4.262030124664307 31.307800292968750 128.824996948242190
-4.439929962158203 30.746599197387695 129.419998168945310
-7.216129779815674 30.186300277709961 129.936004638671870
-4.929080009460449 30.187000274658203 129.964004516601560
-6.077889919281006 29.850000381469727 130.328002929687500
-6.715670108795166 32.384998321533203 128.287994384765620
-7.506130218505859 31.799200057983398 128.869003295898440
-7.635660171508789 31.292999267578125 129.363006591796870
-7.546110153198242 30.807800292968750 129.861999511718750
-5.486589908599854 30.150600433349609 130.475997924804690
-6.667530059814453 30.072500228881836 130.529998779296870
-4.235909938812256 32.295700073242188 128.343002319335940
-7.190879821777344 32.374099731445312 128.807998657226560
-4.306930065155029 31.806800842285156 129.315994262695310
-4.447589874267578 31.260999679565430 129.910003662109370
-7.269740104675293 30.625400543212891 130.464004516601560
-4.905849933624268 30.674999237060547 130.470001220703120
-6.064229965209961 30.248600006103516 130.899002075195310
-6.603519916534424 32.827999114990234 128.845001220703120
-7.495339870452881 32.290100097656250 129.378997802734380
-7.662280082702637 31.796699523925781 129.854003906250000
-7.652029991149902 31.272600173950195 130.373001098632810
-5.418570041656494 30.597999572753906 131.014007568359370
-6.026140213012695 33.213699340820313 128.921997070312500
-7.393099784851074 31.028099060058594 131.225997924804690
-6.596439838409424 30.640199661254883 131.457000732421870
-7.700930118560791 31.739700317382813 131.386001586914060
-7.826019763946533 32.282600402832031 130.839996337890630
-7.159319877624512 31.123899459838867 131.953994750976560
-6.578670024871826 30.949100494384766 132.069000244140620
-5.652999877929688 30.961200714111328 131.746994018554690
-7.688210010528565 32.817501068115234 130.330001831054690
-5.035809993743897 31.269599914550781 131.389999389648440
-7.805749893188477 32.205699920654297 131.902999877929690
-6.050940036773682 31.238599777221680 132.406997680664060
-7.111579895019531 32.826099395751953 129.343994140625000
-7.870289802551270 32.804599761962891 131.380004882812500
-7.551660060882568 31.823799133300781 132.352996826171870
-4.693590164184570 31.345300674438477 130.813003540039060
-7.354189872741699 33.222400665283203 129.957992553710940
-5.295989990234375 31.573699951171875 132.130996704101560
-4.749529838562012 31.840799331665039 131.296005249023440
-7.684219837188721 33.336200714111328 130.820999145507810
-6.581830024719238 31.409900665283203 132.792999267578120
-4.513810157775879 31.789199829101563 130.382995605468750
-6.540550231933594 33.264801025390625 129.391006469726560
-4.595170021057129 32.301799774169922 130.856994628906250
-4.835559844970703 32.340499877929687 131.768997192382810
-7.042019844055176 33.773998260498047 130.386001586914060
-7.125060081481934 31.670200347900391 132.938995361328120
-6.508470058441162 33.725700378417969 129.921997070312500
-5.609960079193115 31.846700668334961 132.826004028320310
-4.395699977874756 32.293899536132812 129.908004760742190
-5.021800041198731 32.271701812744141 132.395004272460940
-7.919340133666992 32.812500000000000 132.369995117187500
-7.923449993133545 33.306400299072266 131.873001098632810
-7.632770061492920 32.250198364257813 132.889999389648440
-7.261940002441406 34.115501403808594 131.024993896484370
-6.109899997711182 31.878200531005859 133.307006835937500
-4.696849822998047 33.305999755859375 131.335006713867190
-4.576809883117676 33.299598693847656 130.363998413085940
-6.082260131835938 34.317199707031250 130.350997924804690
-7.811019897460938 33.901500701904297 131.770004272460940
-4.376440048217773 32.806198120117188 129.401992797851560
-6.633910179138184 34.391101837158203 130.807998657226560
-7.197179794311523 32.055400848388672 133.503005981445310
-5.346640110015869 32.495498657226563 133.171005249023440
-4.850419998168945 33.317199707031250 132.298004150390630
-4.632639884948731 33.806198120117187 130.852005004882810
-6.599100112915039 32.021701812744141 133.716003417968750
-7.969230175018311 33.309501647949219 132.867004394531250
-7.960539817810059 33.794300079345703 132.373992919921870
-4.754650115966797 33.815101623535156 131.828002929687500
-7.865379810333252 32.862201690673828 133.341003417968750
-6.969099998474121 34.672698974609375 131.462997436523440
-6.046559810638428 34.736698150634766 130.904006958007810
-4.972300052642822 33.271900177001953 132.901992797851560
-5.764389991760254 32.463901519775391 133.718002319335940
-7.404210090637207 34.678501129150391 131.970993041992190
-4.556069850921631 34.295799255371094 131.367996215820310
-5.389639854431152 32.945598602294922 133.699996948242190
-7.640250205993652 32.735698699951172 133.902999877929690
-6.410830020904541 35.040699005126953 131.546005249023440
-6.158269882202148 32.529899597167969 134.195007324218750
-7.956180095672607 34.292900085449219 132.876007080078120
-8.032549858093262 33.802398681640625 133.365997314453120
-6.905739784240723 35.113300323486328 132.009994506835940
-7.921959877014160 33.343399047851563 133.848999023437500
-5.030300140380859 33.790699005126953 133.378997802734370
-5.718530178070068 32.950698852539062 134.238006591796870
-4.883619785308838 34.277301788330078 132.914993286132810
-7.111979961395264 32.585098266601562 134.509002685546870
-7.698919773101807 34.887798309326172 132.792999267578120
-4.777740001678467 34.818099975585938 132.320999145507810
-7.747439861297607 33.159999847412109 134.432998657226560
-6.148940086364746 32.967300415039063 134.738006591796870
-7.912529945373535 34.791801452636719 133.393005371093750
-7.195809841156006 35.419998168945313 132.764007568359370
-8.084429740905762 34.298801422119141 133.863006591796870
-5.302889823913574 33.863700866699219 134.274002075195310
-5.087739944458008 34.301898956298828 133.860000610351560
-8.027850151062012 33.809501647949219 134.363006591796870
-4.930520057678223 34.785800933837891 133.401992797851560
-5.715909957885742 33.425998687744141 134.755004882812500
-7.092470169067383 33.028198242187500 135.041000366210940
-4.887690067291260 35.296699523925781 132.904998779296870
-7.690470218658447 35.393600463867188 133.283004760742190
-6.657350063323975 35.914699554443359 132.791000366210940
-4.983960151672363 35.812801361083984 132.382995605468750
-6.557290077209473 33.260200500488281 135.393997192382810
-7.964610099792481 35.290599822998047 133.889007568359370
-7.180180072784424 35.916099548339844 133.272003173828120
-8.159110069274902 34.796699523925781 134.354003906250000
-5.448900222778320 34.245800018310547 134.929992675781250
-6.013609886169434 36.182399749755859 132.932998657226560
-8.123220443725586 34.292400360107422 134.863006591796870
-5.991889953613281 33.721900939941406 135.434997558593750
-7.699769973754883 33.597698211669922 135.488998413085940
-4.799489974975586 35.845100402832031 133.311996459960940
-7.641220092773438 35.834201812744141 133.828994750976560
-7.103350162506104 33.439098358154297 135.764007568359370
-5.257909774780273 34.826400756835938 134.804000854492190
-5.083690166473389 35.300598144531250 134.361999511718750
-6.635469913482666 36.384300231933594 133.302993774414060
-6.530330181121826 33.722301483154297 135.927001953125000
-7.159299850463867 36.381099700927734 133.798004150390630
-5.738580226898193 34.374298095703125 135.764999389648440
-7.675330162048340 33.862300872802734 136.134994506835940
-8.025770187377930 34.318901062011719 135.856994628906250
-7.083350181579590 33.845901489257813 136.330001831054690
-5.261109828948975 35.306499481201172 135.302993774414060
-5.148930072784424 35.805500030517578 134.841003417968750
-8.166390419006348 35.810398101806641 134.845001220703120
-6.078849792480469 36.811298370361328 133.856994628906250
-8.283209800720215 35.283199310302734 135.347000122070310
-6.135290145874023 34.357700347900391 136.307006835937500
-7.389460086822510 36.704601287841797 134.445007324218750
-7.853680133819580 36.430801391601563 134.740997314453120
-6.745369911193848 37.004299163818359 134.210006713867190
-5.737740039825440 34.896499633789063 136.248992919921870
-8.123069763183594 34.770500183105469 136.373992919921870
-6.623189926147461 34.380100250244141 136.794998168945310
-7.572140216827393 34.315700531005859 136.854995727539060
-5.427000045776367 35.769599914550781 135.923995971679690
-8.185999870300293 36.330501556396484 135.333999633789060
-4.986879825592041 36.272701263427734 135.395996093750000
-8.377639770507813 35.821498870849609 135.884994506835940
-6.136240005493164 34.849498748779297 136.811996459960940
-8.367099761962891 35.340400695800781 136.367996215820310
-7.033500194549561 37.259300231933594 134.895004272460940
-5.790460109710693 35.380001068115234 136.746994018554690
-7.050439834594727 34.737400054931641 137.412994384765620
-7.824940204620361 37.080600738525391 135.557006835937500
-8.409420013427734 36.311798095703125 136.384994506835940
-6.430709838867188 35.154201507568359 137.498001098632810
-8.449520111083984 35.824501037597656 136.865005493164060
-8.160530090332031 35.086799621582031 137.477996826171870
-7.325530052185059 37.570899963378906 135.649993896484370
-5.990839958190918 35.747100830078125 137.421997070312500
-6.743519783020020 35.476600646972656 138.201004028320310
-7.590099811553955 34.929199218750000 137.766998291015620
-6.282499790191650 35.977500915527344 138.186996459960940
-8.556039810180664 36.799800872802734 136.867004394531250
-8.550649642944336 36.306098937988281 137.863006591796870
-8.319950103759766 36.909099578857422 136.266006469726560
-7.579160213470459 35.529300689697266 138.559997558593750
-5.598169803619385 36.305599212646484 136.854003906250000
-8.330039978027344 35.918498992919922 138.326995849609370
-5.903220176696777 36.740898132324219 137.957000732421870
-5.649390220642090 36.814701080322266 137.333999633789060
-7.095520019531250 35.841400146484375 138.828994750976560
-7.817729949951172 37.525299072265625 136.100997924804690
-6.586190223693848 36.310398101806641 138.852996826171870
-8.111769676208496 37.820800781250000 136.847000122070310
-5.412489891052246 36.769500732421875 136.417007446289060
-8.660209655761719 36.777900695800781 138.371002197265620
-8.706740379333496 37.292198181152344 137.856002807617190
-7.249949932098389 38.017299652099609 136.190002441406250
-8.503140449523926 37.788398742675781 137.380996704101560
-6.222050189971924 36.863201141357422 138.781005859375000
-8.451049804687500 36.358600616455078 138.839004516601560
-5.873010158538818 37.353801727294922 138.248001098632810
-7.607530117034912 38.333400726318359 136.839004516601560
-7.077209949493408 36.306098937988281 139.358993530273440
-6.692540168762207 37.999198913574219 135.735000610351560
-8.110919952392578 38.320499420166016 137.347000122070310
-5.720349788665772 37.813499450683594 137.817993164062500
-5.521299839019775 37.795799255371094 136.878997802734380
-6.913149833679199 38.505199432373047 136.595993041992190
-6.595560073852539 36.815101623535156 139.348007202148440
-8.082770347595215 36.240200042724609 139.404006958007810
-8.739990234375000 37.800201416015625 138.345001220703120
-8.704150199890137 37.270599365234375 138.869995117187500
-8.462880134582520 38.281398773193359 137.893997192382810
-5.207779884338379 37.325000762939453 135.822006225585940
-6.266719818115234 37.371799468994141 139.268005371093750
-8.535679817199707 36.820598602294922 139.354995727539060
-7.597290039062500 38.822799682617187 137.347000122070310
-6.014470100402832 37.785999298095703 138.888000488281250
-5.516280174255371 38.294101715087891 137.378005981445310
-7.062419891357422 36.785499572753906 139.876998901367190
-5.801859855651856 38.321498870849609 138.304992675781250
-8.065600395202637 38.794998168945312 137.869003295898440
-6.932290077209473 39.068901062011719 137.070999145507810
-8.089940071105957 36.656101226806641 139.968002319335940
-6.608479976654053 37.320800781250000 139.841003417968750
-8.753540039062500 38.308101654052734 138.835006713867190
-8.481160163879395 38.770099639892578 138.399002075195310
-8.800470352172852 37.757198333740234 139.371002197265620
-5.530439853668213 38.790901184082031 137.873001098632810
-7.572269916534424 39.299900054931641 137.863998413085940
-8.654979705810547 37.258701324462891 139.880996704101560
-8.038029670715332 39.272701263427734 138.389999389648440
-7.053229808807373 37.277599334716797 140.384994506835940
-6.218659877777100 38.329200744628906 139.809005737304690
-8.057350158691406 37.050800323486328 140.548995971679690
-6.619810104370117 37.826301574707031 140.335006713867190
-6.013470172882080 38.792701721191406 139.382995605468750
-8.473970413208008 39.251701354980469 138.914993286132810
-7.534239768981934 39.757598876953125 138.401000976562500
-8.856760025024414 38.800899505615234 139.384994506835940
-8.874640464782715 38.313098907470703 139.880004882812500
-5.811719894409180 39.265998840332031 138.934997558593750
-7.586090087890625 37.331699371337891 140.837997436523440
-8.025320053100586 39.754901885986328 138.906997680664060
-7.044509887695313 37.772499084472656 140.891006469726560
-8.569660186767578 37.344398498535156 140.832000732421870
-7.006619930267334 40.209598541259766 138.447998046875000
-6.631869792938232 38.330699920654297 140.828994750976560
-5.384160041809082 39.733001708984375 138.925994873046870
-8.472330093383789 39.741901397705078 139.425994873046880
-8.888699531555176 39.295501708984375 139.893005371093750
-8.965319633483887 38.806301116943359 140.376007080078120
-7.566070079803467 37.788700103759766 141.373992919921870
-6.228010177612305 39.308399200439453 140.317001342773440
-8.917369842529297 38.319698333740234 140.876007080078120
-6.031290054321289 39.795101165771484 139.876007080078120
-7.635709762573242 40.379600524902344 139.294006347656250
-8.573789596557617 37.713699340820313 141.425994873046870
-7.042709827423096 38.274200439453125 141.389007568359370
-6.949979782104492 40.630901336669922 139.018997192382810
-6.659500122070313 38.840000152587891 141.315994262695310
-8.114709854125977 37.924499511718750 141.766998291015620
-8.164489746093750 40.390598297119141 139.779006958007810
-8.922209739685059 39.793598175048828 140.393997192382810
-9.039739608764648 39.301399230957031 140.869003295898440
-7.542429924011231 38.259498596191406 141.899993896484370
-6.278679847717285 39.811599731445313 140.811996459960940
-9.021659851074219 38.804298400878906 141.369003295898440
-7.591400146484375 40.829399108886719 139.841003417968750
-7.046370029449463 38.779598236083984 141.884994506835940
-8.657440185546875 40.368999481201172 140.298004150390620
-6.441349983215332 39.763198852539063 141.417007446289060
-6.260399818420410 40.804500579833984 140.311996459960940
-8.138759613037109 40.878700256347656 140.294998168945310
-7.035590171813965 41.220401763916016 139.925994873046870
-8.580479621887207 38.333499908447266 142.339004516601560
-9.006939888000488 40.292598724365234 140.878997802734380
-9.124549865722656 39.799800872802734 141.358001708984370
-7.967909812927246 38.572700500488281 142.544998168945310
-9.110679626464844 39.296398162841797 141.861999511718750
-6.867400169372559 39.421798706054687 142.210998535156250
-7.553860187530518 41.266498565673828 140.389007568359370
-8.655209541320801 40.868099212646484 140.800994873046880
-7.348199844360352 39.048198699951172 142.585006713867190
-6.461959838867188 40.268398284912109 141.906005859375000
-6.280960083007813 40.852100372314453 141.330001831054690
-8.118100166320801 41.354301452636719 140.817001342773440
-6.995540142059326 41.641498565673828 140.492996215820310
-8.569020271301270 38.781799316406250 142.878997802734370
-8.998120307922363 40.783901214599609 141.384002685546870
-9.191690444946289 40.303398132324219 141.847000122070310
-7.901949882507324 39.043300628662109 143.085998535156250
-9.223360061645508 39.791698455810547 142.348007202148440
-7.497630119323731 41.633499145507813 140.970993041992190
-9.141320228576660 39.259799957275391 142.863998413085940
-8.625240325927734 41.335899353027344 141.332992553710940
-7.337039947509766 39.541301727294922 143.095001220703120
-6.470369815826416 40.768001556396484 142.401000976562500
-6.757830142974854 40.358100891113281 142.787994384765620
-6.322770118713379 41.252899169921875 141.942001342773440
-8.078289985656738 41.806198120117188 141.358993530273440
-8.554180145263672 39.227001190185547 143.421005249023440
-9.009739875793457 41.278598785400391 141.889999389648440
-9.233369827270508 40.812999725341797 142.326995849609370
-7.762639999389648 39.591201782226563 143.593002319335940
-9.284669876098633 40.321098327636719 142.899993896484370
-8.619020462036133 41.831298828125000 141.832000732421870
-7.311069965362549 40.043201446533203 143.615997314453120
-9.076129913330078 39.501899719238281 143.731002807617190
-6.139540195465088 41.815898895263672 142.339996337890630
-8.531889915466309 39.633800506591797 143.988998413085940
-6.898379802703857 40.705501556396484 143.475006103515620
-7.322790145874023 40.527500152587891 144.130004882812500
-7.773620128631592 40.041099548339844 144.128997802734370
-7.738339900970459 40.540401458740234 144.645996093750000
-6.916530132293701 41.213901519775391 143.966003417968750
-7.314960002899170 41.036598205566406 144.634994506835940
-6.646759986877441 41.326000213623047 143.335006713867190
-9.385060310363770 40.807399749755859 143.380996704101560
-8.577619552612305 40.312301635742187 144.854995727539060
-9.314220428466797 41.347198486328125 142.777999877929690
-9.076569557189941 39.875198364257813 144.313995361328120
-6.668540000915527 41.823001861572266 143.822006225585940
-6.945710182189941 41.745098114013672 144.434005737304690
-9.610770225524902 41.300098419189453 143.858001708984370
-9.010330200195313 41.774299621582031 142.395004272460940
-9.467900276184082 41.788101196289063 143.391006469726560
-8.112350463867188 40.868198394775391 145.307006835937500
-6.366069793701172 41.732498168945313 142.945999145507810
-7.615769863128662 41.340900421142578 145.324005126953120
-8.767439842224121 42.455299377441406 142.718002319335940
-9.209650039672852 42.375400543212891 143.283004760742190
-8.253829956054688 42.433601379394531 142.184005737304690
-6.763410091400147 42.319801330566406 144.276000976562500
-9.502400398254395 42.283500671386719 143.886993408203130
-7.241159915924072 41.887100219726562 145.259002685546870
-9.060879707336426 40.722999572753906 145.419006347656250
-9.577050209045410 40.566101074218750 145.020004272460940
-8.211460113525391 42.923000335693359 142.740997314453120
-8.766590118408203 42.936199188232422 143.220001220703120
-6.059820175170898 42.296501159667969 142.869003295898440
-9.199810028076172 42.878101348876953 143.772003173828120
-6.347249984741211 42.753200531005859 143.455993652343750
-8.533470153808594 41.204299926757813 145.938003540039060
-7.610579967498779 41.833198547363281 145.832000732421870
-9.734210014343262 42.328399658203125 144.804000854492190
-9.569499969482422 42.798900604248047 144.365997314453120
-6.769149780273438 43.294300079345703 143.763000488281250
-8.366109848022461 43.546100616455078 143.602005004882810
-7.275259971618652 42.392601013183594 145.746002197265620
-6.910439968109131 42.904300689697266 145.199996948242190
-9.572170257568359 41.180198669433594 145.942993164062500
-8.853440284729004 43.584899902343750 144.065994262695310
-8.074020385742188 41.802799224853516 146.361999511718750
-9.085269927978516 41.365600585937500 146.317993164062500
-7.610849857330322 42.331798553466797 146.333999633789060
-9.626119613647461 43.321899414062500 144.835006713867190
-7.955739974975586 44.147399902343750 144.000000000000000
-9.926449775695801 42.792499542236328 145.399993896484370
-9.982009887695313 42.303398132324219 145.884002685546870
-8.847390174865723 44.022300720214844 144.617004394531250
-8.599160194396973 41.856899261474609 146.817993164062500
-7.013740062713623 43.269001007080078 145.895996093750000
-10.054699897766113 41.861499786376953 146.330001831054690
-8.062979698181152 42.288600921630859 146.873992919921870
-6.641160011291504 43.825801849365234 145.337005615234380
-9.574999809265137 41.847801208496094 146.832000732421870
-9.350310325622559 44.048801422119141 145.085006713867190
-7.337339878082275 43.136398315429688 146.537994384765620
-10.011500358581543 43.294399261474609 145.876998901367190
-9.104539871215820 42.000499725341797 147.199005126953120
-10.085300445556641 42.799999237060547 146.361999511718750
-8.761159896850586 44.501201629638672 145.167007446289060
-8.587019920349121 42.326198577880859 147.341995239257810
-9.813929557800293 43.920898437500000 145.729995727539060
-6.848589897155762 43.930000305175781 146.222000122070310
-7.761219978332520 42.982299804687500 147.195999145507810
-9.328280448913574 44.527599334716797 145.639007568359370
-7.134240150451660 43.839401245117188 146.828994750976560
-10.055000305175781 42.409198760986328 147.296005249023440
-10.069899559020996 43.799499511718750 146.365005493164060
-10.158200263977051 43.297599792480469 146.852005004882810
-8.219449996948242 42.953300476074219 147.723999023437500
-9.589039802551270 42.428298950195313 147.763000488281250
-9.035820007324219 42.665298461914063 147.966003417968750
-7.769879817962647 43.490100860595703 147.688995361328130
-6.797369956970215 44.412899017333984 146.740005493164060
-6.716650009155273 44.859901428222656 146.287002563476560
-8.929920196533203 45.104999542236328 146.072998046875000
-9.665900230407715 44.859001159667969 146.298995971679690
-7.180620193481445 44.350898742675781 147.309005737304690
-10.136300086975098 44.307498931884766 146.847000122070310
-10.253399848937988 43.800201416015625 147.333999633789060
-10.136199951171875 43.221500396728516 147.904006958007810
-9.583129882812500 42.893398284912109 148.296997070312500
-8.538089752197266 43.252799987792969 148.404998779296870
-7.517340183258057 44.270301818847656 147.893005371093750
-8.041620254516602 43.774398803710938 148.388000488281250
-9.285380363464356 45.498798370361328 146.680999755859370
-9.800330162048340 45.189701080322266 146.985992431640620
-10.188199996948242 44.833698272705078 147.322006225585940
-7.095540046691895 45.306800842285156 147.356994628906250
-8.678110122680664 45.945701599121094 146.716003417968750
-10.383899688720703 44.309299468994141 147.899993896484370
-10.273099899291992 43.683101654052734 148.393997192382810
-8.947600364685059 43.567501068115234 149.054992675781250
-7.840169906616211 44.442798614501953 148.718002319335940
-9.592029571533203 43.539600372314453 149.037002563476560
-8.342350006103516 44.070400238037109 149.078994750976560
-9.583419799804688 45.808300018310547 147.356994628906250
-6.829050064086914 45.640701293945313 147.949996948242190
-10.222999572753906 45.360500335693359 147.805999755859380
-10.213299751281738 44.001201629638672 148.998992919921870
-8.641810417175293 46.388999938964844 147.292999267578120
-7.518229961395264 45.270099639892578 148.893005371093750
-9.158040046691895 43.998298645019531 149.705001831054690
-10.437700271606445 45.293399810791016 148.389007568359370
-8.032259941101074 44.769199371337891 149.395004272460940
-6.522260189056397 46.270599365234375 147.882003784179690
-10.511099815368652 44.812801361083984 148.867004394531250
-9.873590469360352 46.146800994873047 147.996002197265620
-8.656979560852051 44.403900146484375 149.772994995117190
-10.064000129699707 43.991298675537109 149.740005493164060
-6.889609813690186 46.211498260498047 148.438003540039060
-9.353980064392090 46.599998474121094 148.031005859375000
-10.548700332641602 44.363601684570313 149.828994750976560
-7.849349975585938 45.494701385498047 149.673004150390620
-9.146309852600098 44.459300994873047 150.238006591796870
-10.445099830627441 45.791698455810547 148.889999389648440
-8.321310043334961 45.050498962402344 150.074005126953120
-8.801250457763672 45.047298431396484 150.654998779296870
-8.326160430908203 45.519298553466797 150.660995483398440
-7.888090133666992 46.164398193359375 150.473999023437500
-9.581370353698731 44.829101562500000 150.843002319335940
-9.115909576416016 45.374900817871094 151.304992675781250
-7.513939857482910 46.268901824951172 149.899002075195310
-8.598070144653320 45.828098297119141 151.341003417968750
-10.083299636840820 44.573101043701172 150.507995605468750
-8.159620285034180 46.368801116943359 151.305999755859370
-7.214920043945313 46.369998931884766 149.270004272460940
-10.602100372314453 45.296901702880859 149.361999511718750
-10.068599700927734 45.222801208496094 151.417007446289060
-9.098500251770020 45.841598510742188 151.830001831054690
-7.718289852142334 46.871898651123047 150.787002563476560
-9.613459587097168 45.481098175048828 151.729003906250000
-10.734700202941895 45.794101715087891 149.841995239257810
-10.227499961853027 46.406700134277344 148.766006469726560
-10.577300071716309 46.300300598144531 149.363006591796870
-10.594300270080566 45.107101440429688 150.977005004882810
-7.172329902648926 46.866901397705078 149.804000854492190
-9.758150100708008 46.966899871826172 148.723999023437500
-10.286899566650391 46.914299011230469 149.240997314453120
-10.800000190734863 46.344600677490234 150.373992919921870
-10.828900337219238 45.868198394775391 150.869003295898440
-10.615799903869629 46.809501647949219 149.848999023437500
-9.169139862060547 47.425899505615234 148.763000488281250
-9.711549758911133 47.431198120117188 149.235992431640620
-8.746689796447754 46.466300964355469 152.207000732421870
-10.279100418090820 47.399200439453125 149.738998413085940
-7.050270080566406 47.284900665283203 150.376007080078120
-9.132140159606934 47.875000000000000 149.300003051757810
-7.708220005035400 47.376300811767578 151.304000854492190
-9.706359863281250 47.924598693847656 149.735000610351560
-10.077699661254883 45.871101379394531 152.313003540039060
-10.917400360107422 46.814601898193359 150.878997802734380
-10.909299850463867 46.358100891113281 151.365005493164060
-10.681099891662598 47.333000183105469 150.320999145507810
-9.508370399475098 46.138401031494141 152.492996215820310
-8.362739562988281 46.971099853515625 152.188003540039060
-10.206199645996094 47.886901855468750 150.272003173828120
-9.074179649353027 48.303001403808594 149.863006591796870
-10.694999694824219 45.893199920654297 152.100997924804690
-9.641900062561035 48.376098632812500 150.302001953125000
-10.703700065612793 47.854099273681641 150.798004150390630
-7.684979915618897 47.858501434326172 151.813003540039060
-9.060669898986816 46.784099578857422 152.878005981445310
-10.997400283813477 47.301898956298828 151.376998901367190
-10.999899864196777 46.812400817871094 151.865997314453120
-10.072899818420410 46.304500579833984 152.860992431640620
-10.235500335693359 48.420398712158203 150.751007080078120
-8.577119827270508 47.304199218750000 152.860992431640620
-9.580360412597656 48.809200286865234 150.856002807617190
-9.580920219421387 46.823200225830078 153.345993041992190
-10.619799613952637 46.544898986816406 153.042999267578120
-10.692399978637695 48.371398925781250 151.289993286132810
-8.185139656066895 47.881698608398438 152.800994873046870
-9.023189544677734 47.238998413085938 153.414993286132810
-10.186300277709961 48.898799896240234 151.272003173828120
-7.370079994201660 48.685199737548828 151.964004516601560
-11.010600090026855 48.288398742675781 151.882995605468750
-11.148599624633789 47.797901153564453 152.358001708984370
-8.543379783630371 47.775398254394531 153.382995605468750
-11.067000389099121 47.300899505615234 152.863998413085940
-7.818270206451416 48.430198669433594 152.755004882812500
-9.591970443725586 49.320800781250000 151.345001220703120
-10.111000061035156 46.987899780273438 153.722000122070310
-10.708700180053711 48.869400024414063 151.792999267578120
-9.566800117492676 47.287498474121094 153.873992919921870
-8.164199829101563 48.364398956298828 153.315994262695310
-8.999939918518066 47.716701507568359 153.936004638671870
-10.173100471496582 49.389301300048828 151.781997680664060
-11.040399551391602 48.792701721191406 152.373001098632810
-11.188799858093262 48.298301696777344 152.854995727539060
-11.229399681091309 47.748500823974609 153.380004882812500
-8.550990104675293 48.283401489257813 153.878997802734380
-11.072299957275391 47.303298950195312 153.861999511718750
-10.695300102233887 49.368198394775391 152.296005249023440
-10.582200050354004 47.407398223876953 154.285003662109370
-8.157919883728027 48.855800628662109 153.820007324218750
-10.013999938964844 47.619300842285156 154.511001586914060
-10.136699676513672 49.863800048828125 152.304992675781250
-7.774469852447510 49.365200042724609 153.281997680664060
-11.070199966430664 49.299198150634766 152.865005493164060
-9.235910415649414 48.096900939941406 154.608001708984370
-11.245200157165527 48.807701110839844 153.330001831054690
-9.573450088500977 50.300800323486328 152.363998413085940
-8.786100387573242 48.578399658203125 154.625000000000000
-10.697299957275391 49.874599456787109 152.787994384765620
-10.577599525451660 47.838298797607422 154.835998535156250
-11.158300399780273 47.944198608398438 154.552001953125000
-10.112799644470215 50.342098236083984 152.824996948242190
-9.982319831848145 48.079700469970703 155.046005249023440
-8.396289825439453 49.160999298095703 154.473007202148440
-7.875000000000000 49.671798706054687 153.983001708984370
-11.122400283813477 49.810798645019531 153.350006103515620
-9.240469932556152 48.574600219726563 155.121994018554690
-11.323300361633301 49.317600250244141 153.878997802734380
-11.357600212097168 48.833801269531250 154.363006591796870
-10.677800178527832 50.364799499511719 153.300003051757810
-8.779669761657715 49.042598724365234 155.149993896484370
-10.560600280761719 48.249801635742188 155.404006958007810
-10.083399772644043 50.812599182128906 153.352005004882810
-9.930509567260742 48.547901153564453 155.582000732421870
-8.174200057983398 49.870601654052734 154.809005737304690
-11.126299858093262 50.320499420166016 153.843994140625000
-9.234189987182617 49.037899017333984 155.651992797851560
-11.407099723815918 49.807899475097656 154.380996704101560
-11.467300415039063 49.323501586914063 154.869003295898440
-10.615200042724609 50.824001312255859 153.837005615234380
-11.286600112915039 48.907199859619141 155.369995117187500
-8.527709960937500 49.767101287841797 155.393005371093750
-7.853099822998047 50.469001770019531 154.729995727539060
-10.540200233459473 48.678001403808594 155.962005615234370
-10.063400268554687 51.289398193359375 153.873001098632810
-8.129480361938477 50.337898254394531 155.335006713867190
-8.923979759216309 49.660099029541016 155.988006591796870
-11.338899612426758 50.764099121093750 154.425994873046870
-11.564800262451172 50.299598693847656 154.865997314453120
-11.570300102233887 49.800098419189453 155.365005493164060
-9.605380058288574 49.353000640869141 156.320007324218750
-11.089599609375000 48.907501220703125 156.283004760742190
-10.892999649047852 51.224098205566406 154.440994262695310
-8.506990432739258 50.244899749755859 155.908004760742190
-10.517600059509277 49.128398895263672 156.503997802734380
-9.227649688720703 49.975601196289063 156.716003417968750
-9.684160232543945 50.024898529052734 157.182998657226560
-8.771120071411133 50.495800018310547 156.697998046875000
-9.198439598083496 50.448600769042969 157.242996215820310
-10.487899780273437 49.564498901367188 157.054000854492190
-8.749469757080078 50.963500976562500 157.238006591796870
-8.211170196533203 50.915699005126953 156.276992797851560
-10.092100143432617 50.340999603271484 157.832000732421870
-11.075099945068359 49.312599182128906 156.854003906250000
-9.518790245056152 50.729301452636719 157.923004150390630
-11.063199996948242 49.741100311279297 157.408996582031250
-11.538999557495117 49.807300567626953 156.365997314453120
-8.190670013427734 51.400501251220703 156.787002563476560
-9.008740425109863 51.234001159667969 157.917007446289060
-11.645099639892578 50.289001464843750 155.856994628906250
-7.818570137023926 51.469699859619141 156.205001831054690
-10.621700286865234 50.455600738525391 158.248001098632810
-10.068300247192383 50.791599273681641 158.371002197265620
-11.793800354003906 50.848800659179688 156.404006958007810
-11.580300331115723 50.065601348876953 157.701995849609370
-11.652600288391113 50.805801391601563 155.350997924804690
-8.142250061035156 51.866298675537109 157.320007324218750
-11.659799575805664 51.305698394775391 155.841995239257810
-10.780699729919434 51.934501647949219 155.281005859375000
-8.540140151977539 51.774299621582031 157.886001586914060
-10.388099670410156 51.674400329589844 154.473999023437500
-7.746789932250977 51.920398712158203 156.744995117187500
-11.488900184631348 51.286098480224609 154.882003784179690
-10.686800003051758 52.421001434326172 155.800003051757810
-11.435899734497070 51.784900665283203 155.401000976562500
-11.909600257873535 51.317798614501953 156.873992919921870
-11.723999977111816 51.808498382568359 156.311996459960940
-11.267999649047852 51.901798248291016 154.787002563476560
-11.564999580383301 50.636901855468750 158.464004516601560
-11.518300056457520 52.290500640869141 155.882995605468750
-7.799940109252930 52.425800323486328 157.218994140625000
-11.874400138854980 51.363201141357422 157.895996093750000
-12.000200271606445 51.805801391601562 157.371994018554690
-11.828300476074219 52.353199005126953 156.794998168945310
-11.474599838256836 52.774700164794922 156.401000976562500
-7.671639919281006 52.985500335693359 159.298995971679690
-8.465909957885742 52.600601196289063 159.434005737304690
-9.031290054321289 52.233398437500000 159.399993896484370
-11.532299995422363 51.162601470947266 159.438995361328120
-12.162500381469727 52.280998229980469 158.345001220703120
-8.082010269165039 52.810398101806641 158.358001708984370
-9.470800399780273 51.636001586914063 158.970001220703120
-10.487299919128418 51.102199554443359 159.011993408203120
-12.080499649047852 51.039501190185547 158.740997314453120
-8.518130302429199 52.250900268554687 158.401992797851560
-11.927800178527832 52.803199768066406 157.401992797851560
-11.081299781799316 50.833999633789062 158.841995239257810
-8.975850105285645 51.694801330566406 158.442001342773440
-11.462100028991699 53.259998321533203 156.906005859375000
-9.493140220642090 51.198799133300781 158.444000244140620
-8.178799629211426 52.369800567626953 157.802001953125000
