ply
format ascii 1.0
element vertex 467
property double x
property double y
property double z
end_header
-11.572400093078613 92.848899841308594 218.414993286132810
-12.109600067138672 92.673301696777344 218.722000122070310
-12.605199813842773 93.116500854492187 218.158996582031250
-11.572400093078613 92.848899841308594 218.414993286132810
-10.582099914550781 92.266700744628906 218.824996948242190
-11.143699645996094 92.931701660156250 217.856002807617190
-11.186200141906738 93.390403747558594 217.207992553710940
-11.645899772644043 92.829101562500000 217.300003051757810
-11.311599731445313 92.825401306152344 216.688003540039060
-11.480400085449219 92.280502319335937 216.936004638671870
-11.088600158691406 92.303100585937500 216.352005004882810
-11.161000251770020 91.298202514648437 216.294998168945310
-10.972100257873535 91.802597045898438 215.929992675781250
-11.465600013732910 90.811401367187500 215.815994262695310
-11.220700263977051 91.343101501464844 215.319000244140620
-11.646400451660156 90.763496398925781 214.981994628906250
-11.076700210571289 91.302200317382813 213.863006591796870
-11.509200096130371 89.815803527832031 214.815002441406250
-11.821100234985352 90.309997558593750 214.291000366210940
-11.296999931335449 90.741699218750000 213.960998535156250
-10.643899917602539 91.322402954101563 212.828994750976560
-11.250000000000000 90.379898071289063 213.343002319335940
-10.884799957275391 90.697502136230469 212.897003173828120
-11.513699531555176 89.790000915527344 213.375000000000000
-9.054530143737793 89.213897705078125 213.944000244140620
-10.646499633789063 90.815498352050781 212.322006225585940
-9.572480201721191 88.912300109863281 213.770996093750000
-11.064700126647949 90.296302795410156 212.367004394531250
-11.548199653625488 89.295898437500000 212.867996215820310
-10.737799644470215 88.622596740722656 213.395996093750000
-11.403699874877930 89.756202697753906 212.389999389648440
-10.059499740600586 88.334098815917969 213.352005004882810
-10.702899932861328 90.351196289062500 211.817001342773440
-9.072239875793457 88.298301696777344 213.365005493164060
-11.177900314331055 89.853500366210937 211.815002441406250
-11.629099845886230 88.804100036621094 212.354003906250000
-11.483699798583984 89.273803710937500 211.878997802734380
-9.586569786071777 88.112701416015625 212.983993530273440
-8.561280250549316 88.228797912597656 212.912002563476560
-10.672599792480469 89.868499755859375 211.356994628906250
-10.548600196838379 88.341697692871094 212.358001708984370
-11.115300178527832 89.314598083496094 211.350997924804690
-11.490400314331055 88.299201965332031 211.882995605468750
-10.050999641418457 87.929603576660156 212.298995971679690
-11.784999847412109 88.848297119140625 211.322998046875000
-8.575940132141113 87.910202026367188 212.294998168945310
-11.332900047302246 88.880302429199219 210.777999877929690
-9.077179908752441 87.667701721191406 211.945999145507810
-11.613699913024902 87.797401428222656 211.354995727539060
-10.833900451660156 89.183799743652344 210.468994140625000
-10.077799797058105 87.521499633789063 211.733001708984370
-10.597700119018555 87.742401123046875 211.412994384765620
-11.346899986267090 88.281600952148438 210.897003173828120
-9.572369575500488 87.283599853515625 211.373992919921870
-8.572139739990234 87.304702758789063 211.360992431640620
-10.846599578857422 88.959197998046875 209.804000854492190
-10.104999542236328 87.138999938964844 210.940002441406250
-9.103779792785645 87.048103332519531 210.998001098632810
-10.560999870300293 87.326797485351563 210.354003906250000
-10.773799896240234 88.637603759765625 208.888000488281250
-9.567600250244141 86.825897216796875 210.350997924804690
-8.581850051879883 86.726196289062500 210.402999877929690
-10.060400009155273 86.833198547363281 209.848999023437500
-10.413499832153320 88.735000610351563 208.371994018554690
-10.715399742126465 87.085403442382813 209.500000000000000
-11.130399703979492 87.802101135253906 208.863998413085940
-10.821599960327148 88.189598083496094 208.384002685546870
-9.049610137939453 86.544197082519531 209.740005493164060
-8.092659950256348 86.553901672363281 209.727996826171870
-10.759300231933594 87.099197387695312 208.852996826171870
-9.547089576721191 86.415000915527344 209.311004638671870
-10.200099945068359 86.586700439453125 208.938003540039060
-8.572230339050293 86.284202575683594 209.371994018554690
-7.602859973907471 86.451499938964844 209.300003051757810
-10.519000053405762 88.268203735351563 207.380996704101560
-10.647000312805176 86.684799194335938 208.386993408203120
-9.102410316467285 86.130599975585938 208.938003540039060
-11.002200126647949 87.759002685546875 207.389999389648440
-7.151400089263916 86.489097595214844 208.768005371093750
-10.906499862670898 86.860900878906250 207.843994140625000
-8.115550041198731 86.035598754882813 208.736999511718750
-9.632749557495117 86.158500671386719 208.408996582031250
-10.649600028991699 87.841903686523438 206.837005615234370
-10.119999885559082 86.214302062988281 207.891006469726560
-8.572899818420410 85.788299560546875 208.369995117187500
-7.599070072174072 85.978302001953125 208.274002075195310
-10.810899734497070 86.366798400878906 207.320999145507810
-11.170399665832520 86.802597045898437 206.865005493164060
-9.111180305480957 85.659202575683594 207.925994873046870
-10.822600364685059 87.250602722167969 206.416000366210940
-8.554610252380371 85.441001892089844 207.807998657226560
-9.602720260620117 85.732200622558594 207.402999877929690
-7.582550048828125 85.422401428222656 207.807998657226560
-10.345299720764160 85.898498535156250 206.800994873046870
-9.059129714965820 85.357101440429687 207.335998535156250
-8.070480346679688 85.248497009277344 207.389999389648440
-7.105120182037354 85.504997253417969 207.270004272460940
-10.741299629211426 85.844299316406250 206.307998657226560
-9.584879875183106 85.265502929687500 206.884002685546870
-10.409899711608887 87.229896545410156 205.363998413085940
-11.103500366210937 86.299896240234375 205.865997314453120
-10.985600471496582 86.777999877929688 205.367004394531250
-10.046099662780762 85.333702087402344 206.341995239257810
-8.570810317993164 84.893699645996094 206.811996459960940
-7.594960212707520 84.990402221679688 206.772003173828120
-9.947070121765137 87.151100158691406 204.873992919921870
-10.642000198364258 86.853202819824219 204.852005004882810
-10.325200080871582 85.424102783203125 205.792007446289060
-9.099920272827148 84.640602111816406 206.453994750976560
-7.102829933166504 85.810897827148438 205.858001708984370
-9.567890167236328 87.293296813964844 204.367004394531250
-7.094910144805908 84.875396728515625 206.345001220703120
-10.167200088500977 86.884399414062500 204.324005126953120
-9.658309936523438 84.647796630859375 205.940994262695310
-11.147999763488770 85.817802429199219 204.826995849609370
-8.075429916381836 84.698501586914062 205.917007446289060
-10.784000396728516 86.402702331542969 204.287002563476560
-10.123900413513184 84.715499877929688 205.412002563476560
-7.337810039520264 85.378601074218750 205.313003540039060
-8.569009780883789 84.315002441406250 205.858993530273440
-9.548219680786133 86.762603759765625 203.876998901367190
-10.582799911499023 84.785102844238281 204.873992919921870
-9.141070365905762 84.068603515625000 205.460006713867190
-9.969679832458496 86.609901428222656 203.447998046875000
-9.062840461730957 86.780296325683594 203.369995117187500
-10.897800445556641 84.977699279785156 204.261001586914060
-10.485099792480469 86.239997863769531 203.404998779296870
-9.623339653015137 84.224197387695313 204.908996582031250
-11.197099685668945 85.309196472167969 203.835998535156250
-10.824399948120117 85.732696533203125 203.434005737304690
-9.482910156250000 86.535102844238281 202.936004638671870
-10.153400421142578 84.184700012207031 204.434997558593750
-10.056699752807617 86.280899047851563 202.873001098632810
-10.574899673461914 85.801498413085938 202.863006591796870
-10.556900024414062 84.320800781250000 203.854995727539060
-9.212750434875488 83.536903381347656 204.522003173828120
-7.186130046844482 83.997802734375000 204.257003784179690
-8.579580307006836 83.258300781250000 204.386001586914060
-9.737640380859375 83.525497436523438 204.020996093750000
-11.024800300598145 84.810501098632813 202.882995605468750
-7.757559776306152 83.509803771972656 204.214004516601560
-9.474069595336914 86.189201354980469 201.917007446289060
-9.156479835510254 83.137298583984375 203.953994750976560
-10.190999984741211 83.656799316406250 203.412994384765620
-10.051199913024902 85.775398254394531 201.875000000000000
-10.648300170898437 84.246597290039063 202.860000610351560
-10.738900184631348 84.739601135253906 202.313995361328120
-10.581600189208984 85.310096740722656 201.860992431640620
-8.534790039062500 82.964996337890625 203.800003051757810
-9.638010025024414 85.874298095703125 201.326004028320310
-9.062410354614258 82.820999145507812 203.354003906250000
-10.985799789428711 83.905998229980469 202.287002563476560
-10.170100212097168 85.413696289062500 201.313995361328120
-9.758919715881348 83.071502685546875 202.964004516601560
-10.353899955749512 83.562103271484375 202.496002197265620
-8.078940391540527 82.755599975585937 203.384994506835940
-9.155480384826660 85.919799804687500 200.802993774414060
-10.627400398254395 84.845802307128906 201.343002319335940
-9.733940124511719 85.511100769042969 200.761993408203120
-8.624850273132324 82.570800781250000 202.994995117187500
-10.285400390625000 85.022003173828125 200.746994018554690
-10.861000061035156 83.500297546386719 201.701004028320310
-10.181500434875488 83.198196411132813 201.949996948242190
-9.245550155639648 82.516502380371094 202.520004272460940
-7.532330036163330 82.622596740722656 202.492996215820310
-9.334280014038086 85.612098693847656 200.009994506835940
-9.643079757690430 82.721702575683594 201.927993774414060
-11.028699874877930 83.801300048828125 200.884994506835940
-8.071160316467285 82.307403564453125 202.360000610351560
-10.524999618530273 84.259696960449219 200.386001586914060
-10.190400123596191 82.694396972656250 201.470993041992190
-6.960619926452637 82.583702087402344 202.009994506835940
-8.617059707641602 82.052200317382813 202.011001586914060
-9.769089698791504 84.951599121093750 199.759994506835940
-9.084980010986328 85.308799743652344 199.358001708984370
-10.178799629211426 84.380096435546875 199.815002441406250
-10.608699798583984 82.770896911621094 200.888000488281250
-9.241909980773926 82.070396423339844 201.548004150390620
-10.955599784851074 83.316902160644531 200.371994018554690
-8.058440208435059 82.014297485351563 201.718002319335940
-7.455949783325195 82.107803344726563 201.498992919921870
-6.700409889221191 82.520599365234375 201.201004028320310
-9.717430114746094 82.121299743652344 201.014999389648440
-8.589630126953125 81.726303100585937 201.412002563476560
-8.565349578857422 85.292098999023438 198.867004394531250
-9.173190116882324 84.897300720214844 198.809997558593750
-10.511500358581543 83.761596679687500 199.382003784179690
-10.213199615478516 82.189697265625000 200.475006103515620
-9.188779830932617 81.600997924804688 201.011993408203120
-9.657039642333984 84.382202148437500 198.822998046875000
-7.992370128631592 81.549797058105469 201.046997070312500
-7.133699893951416 81.913200378417969 200.785003662109370
-10.822199821472168 82.355102539062500 199.845001220703120
-8.741539955139160 84.971298217773438 198.292007446289060
-9.685520172119141 81.679199218750000 200.477996826171870
-10.163599967956543 83.872703552246094 198.824996948242190
-8.575460433959961 81.279701232910156 200.878005981445310
-10.857000350952148 82.823799133300781 199.375000000000000
-9.276989936828613 84.482902526855469 198.259994506835940
-10.564800262451172 83.295997619628906 198.867004394531250
-10.191900253295898 81.696998596191406 199.953002929687500
-9.162599563598633 81.141197204589844 200.472000122070310
-9.767840385437012 83.964202880859375 198.264999389648440
-7.566880226135254 81.264602661132812 200.388000488281250
-10.274499893188477 83.435096740722656 198.274002075195310
-9.671339988708496 81.162101745605469 199.970993041992190
-10.548999786376953 81.811500549316406 199.358001708984370
-8.075039863586426 80.904899597167969 200.296005249023440
-10.908200263977051 82.310997009277344 198.873001098632810
-10.691599845886230 82.863700866699219 198.319000244140620
-10.145000457763672 81.221397399902344 199.421997070312500
-8.614640235900879 80.646697998046875 199.964996337890620
-9.197299957275391 83.899398803710938 197.285995483398440
-10.320300102233887 82.964599609375000 197.757995605468750
-9.182909965515137 80.565002441406250 199.548004150390620
-8.056099891662598 80.509201049804687 199.740997314453120
-10.848699569702148 81.826599121093750 198.360992431640620
-9.691699981689453 83.385597229003906 197.285995483398440
-10.678999900817871 82.352500915527344 197.830001831054690
-9.763230323791504 80.535797119140625 199.059005737304690
-10.656100273132324 81.246299743652344 198.406997680664060
-8.574179649353027 80.285301208496094 199.373001098632810
-7.097149848937988 80.563499450683594 199.201004028320310
-9.200690269470215 83.430297851562500 196.768997192382810
-10.241299629211426 80.621597290039063 198.490005493164060
-9.140319824218750 80.107002258300781 198.996002197265620
-10.939599990844727 81.314796447753906 197.856994628906250
-10.019800186157227 82.759498596191406 196.889007568359370
-10.839900016784668 81.763000488281250 197.369003295898440
-7.597449779510498 80.355102539062500 198.824996948242190
-10.448599815368652 82.216201782226562 196.912994384765620
-10.621100425720215 80.770103454589844 197.889999389648440
-8.564089775085449 79.953903198242188 198.768005371093750
-9.722900390625000 80.037902832031250 198.531997680664060
-6.642960071563721 80.904197692871094 198.285003662109370
-9.577380180358887 82.804603576660156 196.360992431640620
-7.183410167694092 80.454498291015625 198.231002807617190
-10.261300086975098 80.104202270507813 197.992004394531250
-9.082900047302246 79.752296447753906 198.391998291015620
-10.885199546813965 80.819198608398438 197.343002319335940
-10.101699829101562 82.322402954101563 196.348999023437500
-8.078889846801758 79.830101013183594 198.345001220703120
-10.861200332641602 81.273002624511719 196.873992919921870
-9.047249794006348 82.759696960449219 195.899002075195310
-10.508099555969238 81.759597778320313 196.389999389648440
-9.652899742126465 79.622802734375000 197.955993652343750
-9.621899604797363 82.357597351074219 195.817001342773440
-7.581870079040527 79.819198608398438 197.850997924804690
-9.054080009460449 79.383201599121094 197.815994262695310
-10.200799942016602 79.627899169921875 197.462997436523440
-10.894900321960449 80.335502624511719 196.847000122070310
-10.176300048828125 81.884201049804687 195.796997070312500
-8.503049850463867 82.666000366210938 195.479003906250000
-8.114500045776367 79.477798461914062 197.751998901367190
-10.897199630737305 80.808296203613281 196.365005493164060
-10.527000427246094 81.275802612304688 195.880996704101560
-9.077360153198242 82.307899475097656 195.358001708984370
-10.630399703979492 79.763099670410156 196.895996093750000
-9.599889755249023 79.229797363281250 197.404006958007810
-8.563249588012695 79.149902343750000 197.447998046875000
-6.907330036163330 80.205902099609375 196.940994262695310
-9.647689819335938 81.889297485351563 195.285995483398440
-7.597680091857910 79.373199462890625 197.326004028320310
-10.144499778747559 79.213996887207031 196.934997558593750
-10.886099815368652 79.852302551269531 196.347000122070310
-10.180100440979004 81.377899169921875 195.287994384765620
-10.973500251770020 80.313301086425781 195.865005493164060
-6.532909870147705 79.592597961425781 196.902999877929690
-8.015919685363770 79.098999023437500 196.977996826171870
-10.594099998474121 80.810501098632813 195.354995727539060
-9.087260246276856 81.823997497558594 194.843002319335940
-7.133269786834717 79.418502807617188 196.807998657226560
-10.570699691772461 79.302902221679688 196.363006591796870
-9.559590339660645 78.827003479003906 196.847000122070310
-8.574069976806641 78.821098327636719 196.852005004882810
-9.686200141906738 81.430702209472656 194.738998413085940
-10.116900444030762 78.730598449707031 196.414993286132810
-10.236800193786621 80.913696289062500 194.770996093750000
-9.123559951782227 78.545303344726563 196.524993896484370
-7.580949783325195 78.821998596191406 196.352005004882810
-9.126790046691895 81.372596740722656 194.296005249023440
-10.537799835205078 78.835899353027344 195.835006713867190
-10.720999717712402 79.267799377441406 195.391998291015620
-8.130399703979492 78.533897399902344 196.214996337890630
-10.821299552917480 79.843803405761719 194.813995361328120
-10.494899749755859 80.263702392578125 194.397994995117190
-9.616209983825684 78.161796569824219 195.958999633789060
-7.078400135040283 78.813903808593750 195.856994628906250
-9.583709716796875 80.808898925781250 193.856002807617190
-10.215499877929687 78.096298217773437 195.511001586914060
-9.047920227050781 77.973999023437500 195.764007568359370
-10.093400001525879 80.313499450683594 193.850006103515620
-6.562699794769287 78.781303405761719 195.376007080078120
-7.989749908447266 78.122901916503906 195.488006591796870
-7.131380081176758 78.454200744628906 195.279006958007810
-10.590700149536133 78.285896301269531 194.873992919921870
-9.583820343017578 77.750801086425781 195.397003173828120
-10.850700378417969 78.815002441406250 194.354003906250000
-8.584010124206543 77.848800659179688 195.330001831054690
-10.811499595642090 79.282203674316406 193.869003295898440
-9.275580406188965 80.500099182128906 193.205001831054690
-10.168800354003906 77.681503295898438 194.949005126953120
-10.408200263977051 79.706398010253906 193.434997558593750
-9.817150115966797 80.021102905273437 193.167999267578120
-7.206099987030029 78.108100891113281 194.675994873046870
-10.573599815368652 77.798797607421875 194.365005493164060
-9.559989929199219 77.361297607421875 194.824005126953120
-8.593150138854981 77.469100952148438 194.748001098632810
-6.510459899902344 78.155799865722656 194.444000244140620
-9.295260429382324 80.018898010253906 192.684005737304690
-7.968460083007813 77.581596374511719 194.520996093750000
-10.119799613952637 77.212997436523438 194.412994384765620
-10.190600395202637 79.395500183105469 192.796997070312500
-10.958900451660156 78.307403564453125 193.358001708984370
-10.701800346374512 78.867103576660156 192.822998046875000
-9.545160293579102 76.963996887207031 194.259002685546870
-10.511799812316895 77.350700378417969 193.835998535156250
-10.785200119018555 77.699897766113281 193.406005859375000
-7.036900043487549 77.733497619628906 193.908004760742190
-9.702650070190430 79.455398559570313 192.253005981445310
-8.489950180053711 77.068496704101563 194.042007446289060
-10.058099746704102 76.833602905273438 193.843994140625000
-7.602600097656250 77.364700317382813 193.822006225585940
-10.281900405883789 78.988800048828125 192.225006103515620
-9.071980476379395 76.774299621582031 193.882003784179690
-10.765299797058105 78.424003601074219 192.277999877929690
-9.178019523620606 79.431503295898438 191.750000000000000
-10.476400375366211 76.884399414062500 193.315002441406250
-10.847999572753906 77.351699829101563 192.843994140625000
-7.115739822387695 77.373199462890625 193.311004638671870
-9.631279945373535 76.539901733398437 193.520996093750000
-11.008000373840332 77.806098937988281 192.365997314453120
-8.521490097045898 76.637496948242188 193.475006103515620
-9.077980041503906 76.417198181152344 193.292999267578120
-9.587240219116211 78.820098876953125 191.348999023437500
-10.836400032043457 77.940597534179688 191.766006469726560
-7.980080127716065 76.604400634765625 193.007003784179690
-10.122300148010254 76.212402343750000 192.916000366210940
-10.206199645996094 78.416900634765625 191.272003173828120
-10.760700225830078 76.705101013183594 192.404998779296870
-10.965499877929688 77.318901062011719 191.869995117187500
-8.566590309143066 76.278297424316406 192.878997802734370
-9.103139877319336 78.838401794433594 190.832000732421870
-9.534339904785156 75.997802734375000 192.729995727539060
-7.475759983062744 76.652496337890625 192.483993530273440
-9.651359558105469 78.402099609375000 190.785003662109370
-8.041649818420410 76.230003356933594 192.414993286132810
-10.048000335693359 75.835403442382813 192.345993041992190
-10.271499633789062 77.977699279785156 190.707992553710940
-10.944800376892090 76.818298339843750 191.365005493164060
-9.074040412902832 75.820198059082031 192.350997924804690
-10.702199935913086 77.358398437500000 190.802001953125000
-9.139989852905273 78.387603759765625 190.289993286132810
-10.507800102233887 75.862998962402344 191.837997436523440
-7.492690086364746 76.161399841308594 191.973999023437500
-10.814900398254395 76.197196960449219 191.384994506835940
-9.702119827270508 77.969703674316406 190.235992431640620
-8.547650337219238 75.693298339843750 191.944000244140620
-10.024600028991699 75.440803527832031 191.783004760742190
-9.086370468139648 75.464500427246094 191.748992919921870
-9.181650161743164 77.927398681640625 189.722000122070310
-10.404100418090820 75.457199096679687 191.296005249023440
-7.983510017395020 75.598999023437500 191.511001586914060
-10.763699531555176 75.848701477050781 190.873001098632810
-10.156700134277344 77.365798950195312 189.807998657226560
-10.846400260925293 76.307098388671875 190.380004882812500
-10.656599998474121 76.827102661132813 189.835006713867190
-9.555919647216797 75.017700195312500 191.212997436523440
-8.589289665222168 75.046096801757812 191.175994873046870
-9.610469818115234 77.342399597167969 189.326004028320310
-10.010499954223633 74.870300292968750 190.830993652343750
-10.597399711608887 75.292701721191406 190.367004394531250
-10.227499961853027 76.909797668457031 189.261993408203130
-10.781700134277344 75.797996520996094 189.848999023437500
-10.620800018310547 76.313598632812500 189.350997924804690
-9.149829864501953 74.589599609375000 190.518005371093750
-9.650509834289551 76.896102905273437 188.772003173828120
-10.007399559020996 74.421501159667969 190.285003662109370
-10.298299789428711 76.443801879882813 188.735992431640620
-9.155309677124023 76.925903320312500 188.259002685546870
-10.416899681091309 74.381401062011719 189.800003051757810
-10.670800209045410 74.780502319335938 189.388000488281250
-9.730380058288574 76.487701416015625 188.216995239257810
-10.822099685668945 75.298400878906250 188.858993530273440
-10.566399574279785 75.795700073242188 188.367996215820310
-9.968819618225098 73.967697143554688 189.740997314453120
-9.302410125732422 73.704101562500000 189.503005981445310
-10.706899642944336 74.259696960449219 188.899002075195310
-10.163700103759766 75.895500183105469 187.794006347656250
-10.839599609375000 74.804298400878906 188.350006103515620
-10.323699951171875 73.656402587890625 188.986999511718750
-9.611370086669922 75.850303649902344 187.326004028320310
-9.694510459899902 73.210899353027344 188.955001831054690
-10.659899711608887 73.761802673339844 188.389007568359370
-10.225999832153320 75.428199768066406 187.261001586914060
-10.906900405883789 74.301803588867188 187.856002807617190
-10.715100288391113 74.868896484375000 187.304992675781250
-10.264399528503418 73.194099426269531 188.475006103515620
-9.150030136108398 72.774101257324219 188.917999267578120
-9.211689949035645 75.489601135253906 186.742996215820310
-8.622159957885742 75.347602844238281 186.850006103515620
-9.643139839172363 72.766700744628906 188.417007446289060
-10.611000061035156 73.285598754882813 187.876007080078130
-9.832380294799805 75.110099792480469 186.611999511718750
-10.882900238037109 73.801101684570313 187.361999511718750
-10.818099975585938 74.280197143554688 186.875000000000000
-9.287119865417481 72.244201660156250 188.492004394531250
-10.203700065612793 72.745399475097656 187.942993164062500
-10.346599578857422 74.684501647949219 186.434997558593750
-9.711520195007324 72.244499206542969 187.958999633789060
-10.620599746704102 72.786697387695313 187.382003784179690
-10.779800415039063 73.254402160644531 186.914993286132810
-9.606419563293457 74.840301513671875 185.826004028320310
-10.824700355529785 73.791801452636719 186.378997802734380
-10.169799804687500 72.266098022460938 187.427001953125000
-10.447500228881836 74.231399536132813 185.919998168945310
-9.790390014648438 71.722198486328125 187.496002197265620
-9.023859977722168 74.751403808593750 185.410995483398440
-10.586400032043457 72.295501708984375 186.871994018554690
-10.862899780273437 72.823699951171875 186.354995727539060
-10.010499954223633 74.231498718261719 185.410995483398440
-10.778599739074707 73.321197509765625 185.815994262695310
-10.217100143432617 71.750099182128906 186.945999145507810
-10.475999832153320 73.766700744628906 185.397994995117190
-9.391670227050781 74.105598449707031 184.985992431640620
-10.581199645996094 71.797096252441406 186.369003295898440
-10.798600196838379 72.334503173828125 185.850997924804690
-10.005399703979492 73.742401123046875 184.910995483398440
-10.732500076293945 72.815696716308594 185.335998535156250
-10.249699592590332 71.245002746582031 186.436996459960940
-10.535599708557129 73.286399841308594 184.878005981445310
-10.499799728393555 71.319297790527344 185.843002319335940
-10.704899787902832 71.779602050781250 185.378005981445310
-10.732299804687500 72.310798645019531 184.852996826171870
-10.216500282287598 70.748298645019531 185.930999755859370
-10.476799964904785 70.827201843261719 185.341995239257810
-10.666799545288086 71.285202026367188 184.876007080078120
-10.732299804687500 71.804901123046875 184.358993530273440
-10.181300163269043 70.262496948242188 185.404998779296870
-10.421799659729004 70.338500976562500 184.826995849609370
-10.692899703979492 70.781600952148438 184.384002685546870
-10.692899703979492 71.301597595214844 183.865005493164060
-10.161100387573242 69.767097473144531 184.893997192382810
-9.982780456542969 68.760101318359375 185.386993408203120
-10.399200439453125 69.846603393554688 184.315994262695310
-10.755499839782715 70.273399353027344 183.901992797851560
-10.801600456237793 70.784301757812500 183.345001220703120
-10.774000167846680 67.951103210449219 185.276000976562500
-10.306500434875488 68.159400939941406 184.917007446289060
-10.368800163269043 69.363700866699219 183.815002441406250
-10.857999801635742 69.797401428222656 183.341003417968750
-10.877099990844727 70.284698486328125 182.852996826171870
-9.769000053405762 68.475402832031250 184.227005004882810
-10.295299530029297 67.993698120117188 184.255004882812500
-10.787199974060059 67.484001159667969 184.268005371093750
-10.393600463867187 68.862297058105469 183.330993652343750
-10.746600151062012 69.240501403808594 182.891998291015620
-10.979200363159180 69.790199279785156 182.363998413085940
-10.691399574279785 68.756599426269531 182.386001586914060
-11.006299972534180 69.297500610351563 181.860000610351560
-10.343500137329102 68.154403686523438 182.399993896484370
-10.633500099182129 68.278999328613281 181.878005981445310
-10.987700462341309 68.801803588867187 181.356002807617190
-10.958600044250488 68.308700561523438 180.854995727539060
-10.902600288391113 67.820396423339844 180.352005004882810
-10.860400199890137 67.323196411132813 179.847000122070310
-10.844099998474121 66.828002929687500 179.347000122070310
