ply
format ascii 1.0
element vertex 327
property double x
property double y
property double z
end_header
33.707401275634766 12.397700309753418 109.897003173828120
31.705499649047852 18.994499206542969 113.890998840332030
31.206600189208984 18.882499694824219 112.889999389648440
29.211099624633789 19.124599456787109 112.402000427246090
30.214000701904297 18.933300018310547 112.393997192382810
33.133399963378906 18.266199111938477 112.363998413085940
32.194599151611328 18.775299072265625 111.905998229980470
29.201900482177734 18.951499938964844 111.378997802734380
27.344600677490234 18.186899185180664 111.930000305175780
34.099498748779297 17.713300704956055 112.376998901367190
31.193199157714844 18.780099868774414 111.421997070312500
28.137399673461914 18.592599868774414 111.332000732421870
30.186800003051758 18.725999832153320 110.935997009277340
33.619598388671875 18.226200103759766 111.400001525878910
32.694301605224609 18.304800033569336 110.928001403808590
27.190999984741211 17.928400039672852 110.877998352050780
34.803901672363281 17.490100860595703 111.310997009277340
31.731700897216797 18.125299453735352 110.623001098632810
26.175899505615234 17.463300704956055 110.861999511718750
28.686100006103516 18.090599060058594 110.234001159667970
33.808998107910156 17.549400329589844 110.666000366210940
35.624099731445313 16.778999328613281 111.069999694824220
29.705799102783203 17.826099395751953 110.021003723144530
25.173999786376953 16.964899063110352 110.342002868652340
27.695600509643555 17.509599685668945 109.762001037597660
32.199001312255859 17.364700317382812 109.958999633789060
30.708400726318359 17.394100189208984 109.894996643066410
28.680999755859375 17.314399719238281 109.564002990722660
33.197200775146484 16.878599166870117 109.928001403808590
36.116199493408203 15.857299804687500 110.566001892089840
34.637699127197266 16.315500259399414 110.113998413085940
29.696899414062500 16.853399276733398 109.516998291015620
26.701599121093750 16.921100616455078 109.362998962402340
25.700599670410156 16.411899566650391 109.377998352050780
31.198999404907227 16.374500274658203 109.496002197265620
33.768501281738281 15.960700035095215 109.702003479003910
28.664499282836914 16.341899871826172 109.096000671386720
32.701999664306641 15.887800216674805 109.463996887207030
35.213901519775391 15.398599624633789 109.875000000000000
36.727199554443359 14.903499603271484 110.309997558593750
30.226499557495117 15.923399925231934 109.259002685546870
24.712799072265625 15.891599655151367 108.902999877929690
31.709899902343750 15.397100448608398 109.373001098632810
36.225799560546875 6.836589813232422 116.352996826171870
35.621101379394531 6.035970211029053 116.983001708984380
34.282600402832031 14.919699668884277 109.644996643066410
27.644800186157227 15.832300186157227 108.638000488281250
25.716699600219727 15.861900329589844 108.492996215820310
33.201198577880859 14.894499778747559 109.452003479003910
35.697898864746094 14.395700454711914 109.916999816894530
29.197000503540039 15.386300086975098 108.942001342773440
34.630001068115234 4.981900215148926 117.447998046875000
30.748399734497070 14.912400245666504 109.179000854492190
36.254299163818359 7.292459964752197 115.323997497558590
34.705699920654297 5.902339935302734 116.398002624511720
35.294601440429688 6.675970077514648 115.712997436523440
33.893699645996094 4.217949867248535 117.678001403808590
26.718700408935547 15.412899971008301 108.319000244140620
36.286499023437500 13.365699768066406 110.184997558593750
33.766399383544922 13.865699768066406 109.653999328613280
33.843399047851563 3.318569898605347 118.250000000000000
33.691501617431641 4.918970108032227 116.918998718261720
35.205398559570313 7.406879901885986 114.901000976562500
34.231998443603516 6.822050094604492 115.325996398925780
33.666500091552734 5.980579853057861 115.976997375488280
28.166099548339844 14.870599746704102 108.555000305175780
31.710500717163086 13.894700050354004 109.376998901367190
35.777801513671875 8.121020317077637 114.172996520996090
34.724800109863281 13.386500358581543 109.837997436523440
33.804298400878906 2.363149881362915 118.813003540039060
29.711999893188477 14.396599769592285 108.876998901367190
36.711799621582031 8.382109642028809 113.879997253417970
34.177200317382813 7.513410091400147 114.494003295898440
35.714000701904297 8.871430397033691 113.371002197265620
34.731201171875000 8.287110328674316 113.795997619628910
25.227699279785156 14.902400016784668 108.121002197265620
33.225498199462891 6.860010147094727 114.859001159667970
32.843200683593750 5.215290069580078 116.186996459960940
32.703601837158203 13.405599594116211 109.475997924804690
35.724201202392578 12.380800247192383 110.341003417968750
37.230300903320313 11.847900390625000 110.810997009277340
33.090198516845703 3.477560043334961 117.527000427246090
32.777301788330078 4.329569816589356 116.796997070312500
32.667900085449219 5.954289913177490 115.458000183105470
34.693401336669922 8.999859809875488 112.987998962402340
36.724498748779297 9.284580230712891 112.791000366210940
35.688499450683594 9.544090270996094 112.533996582031250
33.709701538085938 8.391460418701172 113.388000488281250
36.196098327636719 11.437600135803223 110.953002929687500
33.141498565673828 7.549349784851074 114.041999816894530
34.725498199462891 9.737779617309570 112.241996765136720
30.769800186157227 13.368499755859375 109.168998718261720
34.703098297119141 11.907999992370605 110.413002014160160
35.731700897216797 10.255499839782715 111.737998962402340
36.684799194335938 10.522999763488770 111.522003173828120
33.712699890136719 9.379770278930664 112.375999450683590
33.707401275634766 12.397700309753418 109.897003173828120
33.089599609375000 2.439130067825317 118.002998352050780
35.183498382568359 11.015800476074219 111.032997131347660
26.209899902343750 14.400600433349609 107.985000610351560
24.204099655151367 13.338700294494629 108.779998779296870
34.207199096679688 10.402199745178223 111.398002624511720
32.776100158691406 8.707960128784180 112.713996887207030
32.119499206542969 7.031189918518066 114.040000915527340
32.062801361083984 4.534029960632324 116.078002929687500
33.473499298095703 1.378829956054688 118.678001403808590
29.244899749755859 13.374400138854980 108.749000549316410
31.863599777221680 6.191130161285400 114.652000427246090
32.252399444580078 12.302100181579590 109.661003112792970
32.245098114013672 7.824029922485352 113.319999694824220
33.702701568603516 11.411999702453613 110.416000366210940
24.598199844360352 9.350419998168945 111.815002441406250
32.233600616455078 3.383529901504517 116.864997863769530
31.804199218750000 5.307720184326172 115.266998291015620
27.187099456787109 13.923100471496582 108.096000671386720
31.200099945068359 12.406000137329102 109.430999755859370
25.218099594116211 13.423899650573730 108.450996398925780
24.194000244140625 10.373299598693848 110.863998413085940
33.924301147460937 0.400555014610291 119.222000122070310
28.191699981689453 13.399399757385254 108.455001831054690
32.776699066162109 10.189000129699707 111.176002502441410
23.738899230957031 11.202199935913086 110.111000061035160
32.226799011230469 9.343150138854981 111.836997985839840
24.207899093627930 11.938699722290039 109.454002380371090
32.688098907470703 10.955400466918945 110.464996337890620
31.678300857543945 8.456040382385254 112.458000183105470
24.563499450683594 8.369210243225098 112.309997558593750
31.695100784301758 11.433600425720215 109.950996398925780
25.216199874877930 12.420900344848633 108.932998657226560
31.730899810791016 10.316499710083008 110.800003051757810
29.782300949096680 12.289899826049805 109.119003295898440
32.335098266601562 2.366070032119751 117.278999328613280
31.182100296020508 6.423230171203613 113.926002502441410
31.128900527954102 7.495269775390625 113.011001586914060
31.194200515747070 9.427149772644043 111.429000854492190
25.167299270629883 11.260999679565430 109.703002929687500
31.099300384521484 5.490560054779053 114.529998779296870
26.196199417114258 12.882300376892090 108.356002807617190
32.724700927734375 1.394610047340393 117.878997802734370
31.236999511718750 4.380300045013428 115.362998962402340
30.699699401855469 10.413900375366211 110.416000366210940
28.747100830078125 12.362700462341309 108.771003723144530
25.044700622558594 9.825059890747070 110.752998352050780
30.277099609375000 11.277000427246094 109.692001342773440
31.512199401855469 3.476959943771362 116.072998046875000
24.425500869750977 7.340509891510010 112.718002319335940
24.631799697875977 6.378940105438232 113.369003295898440
30.529800415039063 8.066980361938477 112.122001647949220
27.699499130249023 12.404600143432617 108.430000305175780
33.236999511718750 0.397615998983383 118.369003295898440
29.242900848388672 11.355699539184570 109.300003051757810
26.168500900268555 11.859700202941895 108.792999267578120
30.052099227905273 9.044890403747559 111.115997314453120
29.679899215698242 10.432499885559082 109.950996398925780
25.659599304199219 10.376600265502930 109.841003417968750
30.353000640869141 6.303180217742920 113.252998352050780
31.635000228881836 2.406470060348511 116.453002929687500
33.740398406982422 -0.599193990230560 118.869003295898440
25.066499710083008 8.367340087890625 111.303001403808590
30.085300445556641 6.993259906768799 112.531997680664060
28.215000152587891 11.390199661254883 108.875999450683590
30.531099319458008 4.493999958038330 114.557998657226560
30.293699264526367 5.349130153656006 113.815002441406250
25.798000335693359 4.411920070648193 114.394996643066410
32.061199188232422 1.398550033569336 117.005996704101560
30.812299728393555 3.367310047149658 115.303001403808590
29.233499526977539 9.372329711914063 110.350997924804690
28.678499221801758 10.425399780273437 109.453002929687500
29.638599395751953 7.954229831695557 111.484001159667970
27.192100524902344 11.446599960327148 108.569000244140620
25.060499191284180 5.342549800872803 113.369003295898440
26.369800567626953 10.447500228881836 109.082000732421870
30.966199874877930 2.371570110321045 115.666999816894530
32.342998504638672 0.407281994819641 117.291999816894530
27.685499191284180 10.427200317382812 108.981002807617190
24.985799789428711 6.881770133972168 111.781997680664060
28.871500015258789 8.287899971008301 110.670997619628910
26.020200729370117 9.342049598693848 109.702003479003910
29.635400772094727 5.432579994201660 112.959999084472660
29.832700729370117 4.346879959106445 113.787002563476560
31.419700622558594 1.403149962425232 116.217002868652340
26.336000442504883 2.908099889755249 114.848999023437500
30.101200103759766 3.424989938735962 114.485000610351560
24.999700546264648 5.841030120849609 112.333999633789060
32.904300689697266 -0.559351980686188 117.745002746582030
29.172700881958008 6.417870044708252 111.931999206542970
25.382099151611328 7.417339801788330 111.004997253417970
27.988599777221680 9.063460350036621 109.711997985839840
33.173698425292969 -2.104619979858398 118.893997192382810
27.180999755859375 9.482390403747559 109.136001586914060
28.561700820922852 6.985889911651611 111.070999145507810
28.013700485229492 8.034449577331543 110.184997558593750
30.263799667358398 2.389250040054321 114.843002319335940
25.897600173950195 3.418090105056763 113.862998962402340
31.693399429321289 0.394190013408661 116.403999328613280
28.850000381469727 5.314700126647949 112.234001159667970
29.169500350952148 4.414330005645752 112.930999755859370
30.714300155639648 1.395990014076233 115.387001037597660
33.236801147460937 -1.597710013389587 117.878997802734370
27.196100234985352 8.438879966735840 109.508003234863280
32.224700927734375 -0.600871026515961 116.878997802734370
26.136499404907227 7.871970176696777 109.802001953125000
25.441400527954102 4.474959850311279 112.419998168945310
29.209600448608398 3.395469903945923 113.390998840332030
25.546199798583984 6.384180068969727 110.776000976562500
27.191099166870117 7.415309906005859 109.947998046875000
26.387500762939453 1.394739985466003 114.817001342773440
29.560600280761719 2.424050092697144 114.031997680664060
28.115499496459961 5.450409889221191 111.504997253417970
26.074300765991211 2.389719963073731 113.939002990722660
25.313800811767578 5.412809848785400 111.420997619628910
27.614099502563477 6.465849876403809 110.549003601074220
30.978799819946289 0.360164999961853 115.578002929687500
28.312400817871094 4.329450130462647 112.258003234863280
30.019399642944336 1.390220046043396 114.564002990722660
32.604801177978516 -1.635849952697754 116.972999572753910
31.342599868774414 -0.579351007938385 115.785003662109370
28.538200378417969 2.506360054016113 113.191001892089840
25.642900466918945 3.387870073318481 112.398002624511720
26.278699874877930 6.404139995574951 109.946998596191410
27.597799301147461 4.459330081939697 111.517997741699220
27.044300079345703 5.475810050964356 110.580001831054690
30.331199645996094 0.412324994802475 114.787002563476560
25.692100524902344 4.390629768371582 111.386001586914060
27.797300338745117 3.343509912490845 112.274002075195310
25.878900527954102 5.414549827575684 110.531997680664060
29.241199493408203 1.394140005111694 113.849998474121090
25.738199234008789 2.396310091018677 112.888000488281250
31.921300888061523 -1.551190018653870 116.218002319335940
26.067399978637695 0.898576974868774 113.957000732421870
26.715200424194336 4.395770072937012 110.883003234863280
27.068799972534180 3.482599973678589 111.556999206542970
27.731100082397461 1.885740041732788 112.856002807617190
30.642799377441406 -0.617886006832123 114.941001892089840
33.090599060058594 -3.132359981536865 116.941001892089840
29.621299743652344 0.376307010650635 113.978996276855470
32.356399536132813 -2.554059982299805 116.288002014160160
27.071199417114258 2.468460083007813 112.050003051757810
28.262500762939453 0.897001028060913 113.272003173828120
31.243999481201172 -1.595479965209961 115.364997863769530
25.677200317382813 0.897729992866516 112.900001525878910
25.956199645996094 -0.122115999460220 113.710998535156250
26.102399826049805 3.011610031127930 111.128997802734370
25.602500915527344 1.895990014076233 111.897003173828120
30.010700225830078 -0.659745991230011 114.060997009277340
27.072099685668945 0.930171012878418 112.632003784179690
28.738700866699219 -0.094801001250744 113.314002990722660
31.631500244140625 -2.629400014877319 115.456001281738280
30.579900741577148 -1.634799957275391 114.482002258300780
27.651199340820313 -0.084532998502254 113.097999572753910
32.587100982666016 -3.633490085601807 115.956001281738280
26.732200622558594 -0.649825990200043 113.235000610351560
26.356300354003906 -2.133620023727417 114.263000488281250
25.729299545288086 -1.105759978294373 113.379997253417970
25.510700225830078 -0.095522001385689 112.435997009277340
29.244800567626953 -1.094050049781799 113.320999145507810
28.187299728393555 -1.102579951286316 113.185997009277340
25.551900863647461 0.897897005081177 111.390998840332030
27.205499649047852 -1.624050021171570 113.222999572753910
31.024499893188477 -3.153100013732910 114.518997192382810
31.930400848388672 -4.011360168457031 115.180000305175780
30.076700210571289 -2.137789964675903 113.598999023437500
26.130399703979492 -3.574059963226318 114.458000183105470
32.877899169921875 -5.053150177001953 115.771003723144530
28.210100173950195 -2.114979982376099 113.120002746582030
25.518100738525391 -2.086400032043457 112.977996826171870
25.435699462890625 -0.112851001322269 111.359001159667970
24.939399719238281 -1.093989968299866 112.018997192382810
27.176099777221680 -2.638360023498535 113.172996520996090
25.584299087524414 -3.081059932708740 113.457000732421870
29.184900283813477 -2.614589929580689 113.069999694824220
33.268501281738281 -6.101130008697510 115.889999389648440
30.469400405883789 -3.539910078048706 113.660003662109370
31.294700622558594 -4.574319839477539 114.304000854492190
32.589599609375000 -5.653309822082520 115.007003784179690
26.679599761962891 -3.644449949264526 113.205001831054690
25.216499328613281 -2.103369951248169 111.888999938964840
25.627000808715820 -4.586110115051270 113.925003051757810
28.709999084472656 -3.603830099105835 112.935997009277340
25.318500518798828 -3.109179973602295 112.357002258300780
31.741300582885742 -5.588719844818115 114.352996826171870
30.632299423217773 -4.621920108795166 113.492996215820310
29.689800262451172 -4.106979846954346 112.995002746582030
27.186599731445313 -4.631149768829346 113.228996276855470
28.218700408935547 -4.601719856262207 112.958999633789060
25.377799987792969 -4.592669963836670 112.856002807617190
30.995700836181641 -5.667970180511475 113.565002441406250
30.264400482177734 -6.084799766540527 112.797996520996090
28.210899353027344 -13.604800224304199 112.392997741699220
28.893899917602539 -12.642999649047852 112.068000793457030
28.182300567626953 -12.603400230407715 112.861000061035160
28.541400909423828 -11.571800231933594 112.693000793457030
29.303199768066406 -11.629899978637695 112.009002685546870
27.048000335693359 -12.654399871826172 113.679000854492190
30.199199676513672 -11.096199989318848 111.823997497558590
27.634099960327148 -11.618800163269043 113.255996704101560
29.189300537109375 -10.600899696350098 112.360000610351560
30.669799804687500 -10.125300407409668 112.003997802734380
26.621200561523437 -11.635700225830078 114.279998779296870
28.082399368286133 -10.617300033569336 113.097999572753910
27.090999603271484 -10.635600090026855 113.670997619628910
29.651500701904297 -9.595939636230469 112.236000061035160
30.760499954223633 -9.083290100097656 112.305999755859370
28.680299758911133 -9.603759765625000 112.839996337890620
31.184799194335938 -8.113439559936523 112.921997070312500
30.753700256347656 -7.088880062103272 112.832000732421870
26.672800064086914 -9.625900268554688 113.810997009277340
27.680299758911133 -9.118009567260742 113.291000366210940
30.234699249267578 -8.094260215759277 112.303001403808590
26.092199325561523 -10.648900032043457 114.222999572753910
29.245399475097656 -8.602580070495606 112.488998413085940
25.863500595092773 -5.155759811401367 114.803001403808590
25.837099075317383 -6.128240108489990 115.333000183105470
25.412900924682617 -6.145579814910889 114.363998413085940
26.704500198364258 -5.607960224151611 113.355003356933590
27.754199981689453 -5.590209960937500 113.069999694824220
29.207099914550781 -5.600409984588623 112.787002563476560
25.715900421142578 -6.602600097656250 113.420997619628910
26.702199935913086 -7.107820034027100 113.338996887207030
25.633600234985352 -7.648479938507080 113.670997619628910
25.231000900268555 -8.587209701538086 114.421997070312500
28.678699493408203 -6.608220100402832 112.764999389648440
27.774099349975586 -7.083779811859131 113.065002441406250
26.174400329589844 -8.633549690246582 113.832000732421870
27.194400787353516 -8.113129615783691 113.306999206542970
29.705999374389648 -7.115940093994141 112.499000549316410
28.243999481201172 -8.095689773559570 112.978996276855470
