ply
format ascii 1.0
element vertex 828
property double x
property double y
property double z
end_header
87.178100585937500 4.043829917907715 68.026496887207031
86.569503784179687 3.204360008239746 67.790199279785156
86.155799865722656 3.976039886474609 68.573501586914062
86.579696655273438 4.653150081634522 68.855102539062500
85.622802734375000 3.357870101928711 68.175796508789062
87.164802551269531 5.568079948425293 68.985801696777344
85.634597778320313 4.422110080718994 69.130897521972656
86.120903015136719 5.086390018463135 69.444602966308594
85.044097900390625 3.855770111083984 68.679000854492188
86.775100708007813 5.912759780883789 69.691001892089844
84.520301818847656 3.488290071487427 68.031799316406250
87.277198791503906 6.720240116119385 68.507499694824219
85.096801757812500 4.946350097656250 69.609298706054687
84.561096191406250 4.480169773101807 69.047897338867188
85.625099182128906 5.524740219116211 70.023597717285156
87.809600830078125 6.762159824371338 66.996200561523437
84.132003784179688 4.122719764709473 68.406700134277344
87.350601196289063 7.266630172729492 67.486602783203125
86.094200134277344 6.142409801483154 70.363197326660156
84.094703674316406 5.065179824829102 69.462303161621094
87.095497131347656 7.591289997100830 68.421302795410156
84.592597961425781 5.508790016174316 70.033897399902344
83.434501647949219 4.463469982147217 68.021202087402344
85.113197326660156 6.077579975128174 70.456802368164062
84.626602172851562 4.497439861297607 70.863800048828125
83.389602661132813 3.958019971847534 66.990600585937500
87.097099304199219 7.080379962921143 65.435699462890625
86.709396362304688 7.613239765167236 70.011703491210938
83.287002563476563 5.232699871063232 68.828002929687500
85.602096557617187 6.646669864654541 70.855796813964844
86.538299560546875 7.201789855957031 70.739799499511719
83.615501403808594 4.058279991149902 70.422698974609375
86.738403320312500 7.745999813079834 65.870002746582031
86.716003417968750 8.183320045471191 66.867897033691406
86.879501342773438 8.270640373229981 68.955802917480469
82.893699645996094 4.965600013732910 67.490501403808594
83.538101196289063 5.975900173187256 70.052101135253906
82.894401550292969 4.660560131072998 66.459602355957031
82.769500732421875 5.689320087432861 68.378196716308594
84.034202575683594 6.399479866027832 70.648399353027344
83.067703247070313 4.595320224761963 65.416099548339844
82.638900756835938 5.607309818267822 66.926803588867188
85.914398193359375 8.014690399169922 70.750297546386719
85.115600585937500 7.190450191497803 71.307098388671875
86.376403808593750 8.502429962158203 70.231201171875000
82.793601989746094 5.600780010223389 65.974502563476563
85.606498718261719 7.872290134429932 65.009498596191406
85.629203796386719 8.492159843444824 65.987098693847656
82.673500061035156 6.159110069274902 69.387001037597656
86.384498596191406 8.986889839172363 69.378601074218750
84.555198669433594 6.701620101928711 64.338500976562500
82.345298767089844 6.224959850311279 67.903099060058594
86.376701354980469 9.292480468750000 68.406997680664063
83.442901611328125 6.701720237731934 65.302398681640625
84.661903381347656 8.341500282287598 66.074401855468750
84.093696594238281 7.120429992675781 64.905403137207031
83.105300903320312 6.586349964141846 70.440200805664062
82.879501342773438 6.569900035858154 66.018402099609375
82.538696289062500 6.603509902954102 66.905197143554688
84.540199279785156 7.888949871063232 65.245101928710938
85.145401000976563 8.872329711914063 66.565498352050781
84.129501342773438 7.207439899444580 71.303596496582031
83.619102478027344 7.589869976043701 65.432800292968750
81.584297180175781 5.011429786682129 67.423301696777344
83.061302185058594 7.667369842529297 66.370002746582031
82.115600585937500 6.603089809417725 68.925300598144531
85.603500366210938 8.146340370178223 71.863197326660156
84.036399841308594 8.845170021057129 66.719398498535156
83.538002014160156 8.340290069580078 66.255996704101563
82.380798339843750 6.841989994049072 70.133201599121094
82.103302001953125 7.102220058441162 67.421302795410156
84.605499267578125 9.387280464172363 67.169097900390625
83.603401184082031 6.275169849395752 63.609500885009766
86.007896423339844 9.573160171508789 70.353202819824219
85.778503417968750 9.138750076293945 71.099998474121094
86.044799804687500 10.055899620056152 68.939796447753906
84.613197326660156 8.026800155639648 72.013397216796875
82.972297668457031 7.372159957885742 71.151000976562500
83.082603454589844 8.688770294189453 66.858596801757812
81.681396484375000 7.137730121612549 68.421501159667969
83.636001586914062 7.778480052947998 71.733497619628906
85.111999511718750 10.094300270080566 67.932296752929688
83.537597656250000 9.252639770507813 67.284896850585937
81.765800476074219 7.213689804077148 69.385200500488281
82.155799865722656 8.027090072631836 66.993400573730469
82.632003784179688 8.349399566650391 66.284896850585937
85.113098144531250 8.714790344238281 72.285102844238281
82.022399902343750 7.516369819641113 70.496002197265625
84.092300415039063 10.174599647521973 67.844802856445312
85.357498168945313 9.618410110473633 71.674499511718750
82.517898559570313 9.195099830627441 67.830200195312500
85.807899475097656 10.714900016784668 69.414802551269531
85.203697204589844 10.689800262451172 68.870903015136719
81.406997680664063 8.013990402221680 68.420501708984375
84.107597351074219 8.555170059204102 72.472099304199219
83.197402954101563 9.990159988403320 68.058502197265625
84.598197937011719 10.730099678039551 68.285003662109375
85.860099792480469 10.660400390625000 70.520103454589844
81.444702148437500 7.985499858856201 69.989402770996094
83.013999938964844 8.368579864501953 72.141296386718750
81.713500976562500 8.848569869995117 67.623703002929688
82.168296813964844 8.167929649353027 71.361602783203125
81.772003173828125 8.976039886474609 68.568298339843750
84.609703063964844 9.066699981689453 72.958297729492187
85.514503479003906 10.586799621582031 71.366500854492188
82.322402954101563 9.911760330200195 68.651397705078125
81.026397705078125 8.550849914550781 69.443099975585938
81.508499145507813 8.507470130920410 70.991798400878906
85.144500732421875 10.600500106811523 72.448501586914063
84.726898193359375 11.096599578857422 73.011299133300781
85.459899902343750 11.576499938964844 71.358100891113281
85.188102722167969 12.110600471496582 71.958999633789063
84.054298400878906 9.823329925537109 73.712699890136719
84.844902038574219 12.075400352478027 72.791603088378906
83.574600219726563 9.350819587707520 73.167198181152344
84.310699462890625 11.597299575805664 73.647903442382812
83.062896728515625 9.902050018310547 73.635398864746094
83.554603576660156 10.352299690246582 74.180496215820313
84.743202209472656 12.253299713134766 70.310798645019531
82.548698425292969 9.412630081176758 73.114997863769531
84.658798217773438 12.597000122070313 73.460601806640625
85.688102722167969 11.627799987792969 69.936203002929687
84.934501647949219 11.410499572753906 69.573997497558594
85.126098632812500 13.103400230407715 71.930000305175781
84.884803771972656 13.080200195312500 72.828300476074219
83.913002014160156 12.189399719238281 74.172698974609375
82.576599121093750 10.510000228881836 74.050498962402344
82.079696655273438 10.043899536132812 73.494796752929688
81.956596374511719 8.862409591674805 72.099502563476562
84.335899353027344 13.062299728393555 74.096397399902344
84.799003601074219 13.699299812316895 71.405700683593750
84.606796264648438 12.250499725341797 69.236198425292969
81.502296447753906 9.460639953613281 72.534500122070312
84.557701110839844 13.471599578857422 70.532600402832031
84.704002380371094 13.602700233459473 73.481498718261719
81.672698974609375 10.694000244140625 73.813499450683594
82.144401550292969 11.156499862670898 74.363403320312500
84.023803710937500 11.332500457763672 68.651100158691406
83.168403625488281 11.532500267028809 69.027496337890625
82.949996948242188 11.301199913024902 75.159797668457031
83.462898254394531 12.803899765014648 69.656700134277344
82.771697998046875 12.399800300598145 69.682701110839844
83.486801147460938 12.671600341796875 74.751701354980469
82.454803466796875 11.207500457763672 69.225196838378906
84.875801086425781 14.079400062561035 72.813796997070313
82.940597534179687 10.746000289916992 68.711402893066406
81.635696411132813 11.095700263977051 69.941001892089844
81.150001525878906 9.136340141296387 71.404998779296875
83.586898803710937 13.684300422668457 70.338996887207031
80.966201782226562 10.437199592590332 73.083396911621094
84.113601684570312 14.157400131225586 70.869903564453125
80.754997253417969 9.730469703674316 71.854202270507813
82.487998962402344 13.223899841308594 70.263801574707031
81.831100463867187 10.391799926757812 69.192001342773438
81.172698974609375 11.570699691772461 70.468696594238281
83.862701416015625 13.512299537658691 74.700401306152344
84.396301269531250 14.140700340270996 74.202697753906250
80.644996643066406 11.085499763488770 70.948799133300781
80.409599304199219 10.383299827575684 72.249603271484375
80.915397644042969 8.947730064392090 70.504699707031250
81.988700866699219 11.900400161743164 75.120597839355469
80.595100402832031 9.587889671325684 70.931396484375000
81.000297546386719 11.456700325012207 74.072196960449219
80.785598754882813 10.422800064086914 70.078598022460938
83.028602600097656 14.254099845886230 70.761199951171875
82.034400939941406 13.666399955749512 70.840301513671875
81.373298645019531 13.191699981689453 71.246902465820313
80.787101745605469 12.521400451660156 71.547096252441406
83.028701782226562 13.166199684143066 75.273498535156250
80.311599731445312 11.303500175476074 73.249496459960938
81.245796203613281 9.492110252380371 69.053596496582031
84.619796752929688 15.107299804687500 72.425796508789063
80.070297241210938 10.575400352478027 71.437103271484375
83.565399169921875 14.888699531555176 71.155799865722656
83.987701416015625 15.100399971008301 71.877098083496094
81.179298400878906 12.195099830627441 74.823501586914062
82.206398010253906 12.241600036621094 75.827003479003906
84.616600036621094 15.102399826049805 73.426803588867188
81.620101928710938 14.097200393676758 71.431396484375000
81.049598693847656 13.619700431823730 71.882202148437500
82.520599365234375 14.731900215148926 71.290000915527344
80.577697753906250 13.106200218200684 72.403900146484375
82.139503479003906 13.008600234985352 75.541801452636719
79.763603210449219 11.227000236511230 72.343597412109375
83.541496276855469 14.146400451660156 75.322799682617188
80.104896545410156 12.091500282287598 73.934600830078125
83.639602661132813 15.625100135803223 72.917297363281250
81.267799377441406 14.532699584960938 72.042701721191406
79.440803527832031 11.463700294494629 71.474502563476562
80.722396850585938 14.074000358581543 72.494697570800781
82.044502258300781 15.174900054931641 71.844703674316406
79.489700317382813 11.981399536132813 73.003601074218750
81.440902709960938 12.512200355529785 76.091201782226562
80.163597106933594 13.588399887084961 72.960800170898437
82.991401672363281 15.800800323486328 71.723098754882812
82.600799560546875 14.116600036621094 75.901000976562500
84.192001342773437 15.603500366210937 74.482398986816406
83.977699279785156 15.132900238037109 75.276199340820312
80.941703796386719 12.984499931335449 75.619400024414063
84.503303527832031 16.075899124145508 73.377098083496094
79.052497863769531 12.043800354003906 71.948501586914063
79.924697875976562 12.831999778747559 74.607101440429687
80.255798339843750 13.236800193786621 75.244796752929688
79.244102478027344 12.740200042724609 73.848098754882813
80.703903198242188 15.068799972534180 72.982902526855469
81.718597412109375 13.207300186157227 76.856300354003906
82.105400085449219 16.112400054931641 72.413497924804688
81.394203186035156 15.772500038146973 72.713996887207031
84.058296203613281 16.582599639892578 73.906402587890625
83.599296569824219 16.731599807739258 72.809600830078125
78.724998474121094 12.713500022888184 72.864501953125000
81.086502075195313 13.577400207519531 76.443199157714844
83.561096191406250 15.614500045776367 75.866798400878906
80.111503601074219 14.601900100708008 73.924797058105469
82.982398986816406 15.179699897766113 76.232696533203125
83.924400329589844 16.096000671386719 75.283996582031250
82.485496520996094 16.792999267578125 72.706901550292969
80.506698608398438 14.002499580383301 76.047996520996094
82.206703186035156 14.980799674987793 76.622100830078125
81.648200988769531 16.556999206542969 72.976501464843750
80.981903076171875 16.181600570678711 73.312599182128906
80.445602416992188 15.667599678039551 73.803100585937500
79.121101379394531 13.611599922180176 74.919601440429688
81.239196777343750 13.785200119018555 77.378898620605469
79.559600830078125 14.014900207519531 75.513999938964844
78.528701782226562 13.512999534606934 73.969802856445313
83.854598999023437 17.076299667358398 74.780998229980469
80.706001281738281 14.183600425720215 76.860900878906250
83.471397399902344 16.569299697875977 75.858100891113281
83.168998718261719 16.076599121093750 76.504997253417969
83.082298278808594 17.673999786376953 73.351898193359375
83.736999511718750 17.706300735473633 73.858596801757813
80.644302368164063 16.586000442504883 73.949600219726563
81.571998596191406 15.165499687194824 77.220100402832031
80.065597534179688 16.114299774169922 74.392402648925781
82.483802795410156 16.243799209594727 77.179298400878906
83.625198364257813 17.099199295043945 76.438102722167969
82.983299255371094 17.179700851440430 77.259597778320313
82.044700622558594 16.684099197387695 77.764396667480469
83.692199707031250 18.112699508666992 75.951896667480469
83.041702270507813 18.121200561523438 77.360702514648438
83.403503417968750 17.986700057983398 74.971603393554687
82.210601806640625 17.523399353027344 78.092002868652344
81.108398437500000 16.198499679565430 77.761299133300781
81.098197937011719 17.206600189208984 78.257400512695312
82.707397460937500 18.572599411010742 78.012397766113281
80.521896362304688 15.513899803161621 77.571701049804687
83.249603271484375 19.171499252319336 75.916900634765625
83.320297241210938 19.127300262451172 77.031097412109375
83.071701049804688 19.020799636840820 74.973999023437500
80.901199340820313 17.785400390625000 74.221900939941406
81.220199584960938 18.495700836181641 74.535499572753906
81.625198364257813 18.089099884033203 73.939399719238281
81.388603210449219 17.308799743652344 73.674797058105469
80.246597290039063 17.045099258422852 74.528800964355469
80.511802673339844 18.183700561523438 74.841598510742187
81.990501403808594 18.236000061035156 78.681602478027344
82.121902465820313 17.590099334716797 73.438598632812500
82.006500244140625 18.779600143432617 74.245903015136719
79.911201477050781 17.668100357055664 75.266899108886719
82.675003051757812 19.656000137329102 76.406501770019531
79.748596191406250 15.756299972534180 77.252998352050781
79.557800292968750 16.613399505615234 75.387496948242187
80.059799194335938 16.972200393676758 78.111503601074219
82.765098571777344 18.440700531005859 73.639602661132812
79.887603759765625 14.880599975585938 76.621299743652344
79.723098754882813 15.601200103759766 74.987602233886719
80.961799621582031 19.264099121093750 75.189300537109375
79.522300720214844 16.489099502563477 77.607498168945313
82.104698181152344 19.618600845336914 74.905998229980469
80.604301452636719 17.731899261474609 78.739700317382813
79.287803649902344 17.555299758911133 76.050102233886719
82.316497802734375 18.996000289916992 78.732696533203125
83.138198852539062 19.590799331665039 77.946601867675781
80.187202453613281 19.060400009155273 75.476799011230469
79.670196533203125 18.582000732421875 75.964897155761719
83.641998291015625 19.512699127197266 74.512199401855469
81.158096313476562 18.426200866699219 79.160598754882812
79.007896423339844 15.435299873352051 76.608901977539063
79.622001647949219 17.618099212646484 78.403800964355469
81.589797973632812 20.155000686645508 75.365997314453125
80.810600280761719 19.911100387573242 75.648002624511719
82.579498291015625 20.270000457763672 75.251098632812500
83.640800476074219 20.093099594116211 77.445899963378906
78.884902954101563 17.370000839233398 77.608200073242188
79.108596801757813 14.592499732971191 75.935501098632812
81.561996459960938 19.177099227905273 79.296699523925781
79.020301818847656 18.616100311279297 76.883399963378906
78.513397216796875 16.431600570678711 77.164001464843750
82.775299072265625 20.033500671386719 78.605903625488281
82.065902709960937 20.781400680541992 75.739501953125000
81.119400024414063 20.592599868774414 75.935997009277344
80.055198669433594 18.366199493408203 79.207801818847656
80.052597045898437 20.142499923706055 76.363403320312500
83.286598205566406 20.551799774169922 78.071403503417969
78.231399536132813 15.710700035095215 76.278900146484375
79.423400878906250 19.661300659179688 76.779899597167969
79.183700561523438 18.242000579833984 78.738601684570312
80.647697448730469 18.942100524902344 79.658798217773437
78.732803344726563 18.614099502563477 77.958999633789063
82.644500732421875 21.142299652099609 77.402603149414062
78.640998840332031 14.142999649047852 75.405700683593750
78.233200073242188 14.765299797058105 75.839698791503906
82.660697937011719 21.323499679565430 76.210296630859375
81.569297790527344 21.239500045776367 76.277801513671875
82.143898010253906 20.071399688720703 79.473800659179687
83.585700988769531 21.102800369262695 77.410400390625000
81.100303649902344 19.625200271606445 79.891502380371094
78.785598754882813 19.600799560546875 77.508201599121094
79.575302124023438 18.986400604248047 79.568298339843750
80.493400573730469 21.253099441528320 76.733802795410156
78.825698852539062 18.960500717163086 78.867599487304688
83.153701782226563 21.767999649047852 76.792900085449219
77.579200744628906 15.060000419616699 75.437599182128906
82.077598571777344 21.850099563598633 76.706001281738281
82.853500366210938 21.037399291992188 79.128303527832031
79.750503540039063 21.016599655151367 77.060302734375000
80.130203247070312 19.494499206542969 80.084999084472656
78.105499267578125 14.092800140380859 74.429199218750000
82.585502624511719 21.579200744628906 78.425796508789063
79.069198608398438 20.619100570678711 77.388198852539062
78.430900573730469 19.562599182128906 78.378997802734375
81.696403503417969 20.512399673461914 80.081703186035156
80.617996215820313 20.093799591064453 80.438301086425781
82.576202392578125 22.325199127197266 77.253799438476563
79.118202209472656 19.616399765014648 79.910598754882813
81.058799743652344 22.247400283813477 77.278800964355469
82.279899597167969 21.665399551391602 79.489997863769531
79.315696716308594 21.505100250244141 77.615097045898437
78.718200683593750 21.070199966430664 78.007102966308594
78.296096801757812 19.683399200439453 79.438201904296875
83.092597961425781 22.522399902343750 77.988800048828125
79.604400634765625 20.028600692749023 80.527801513671875
78.260902404785156 20.584100723266602 78.510803222656250
81.258201599121094 20.967399597167969 80.676101684570313
79.991699218750000 22.295499801635742 77.691802978515625
82.107398986816406 21.606700897216797 80.416000366210938
80.129600524902344 20.556900024414063 81.001296997070312
82.112396240234375 22.985300064086914 78.047096252441406
78.068397521972656 20.580499649047852 79.431800842285156
78.866996765136719 22.009500503540039 78.149696350097656
81.114196777343750 23.095199584960938 77.930000305175781
78.600402832031250 20.582500457763672 80.446098327636719
82.683998107910156 22.564399719238281 80.009803771972656
78.342597961425781 21.658700942993164 78.753997802734375
80.540397644042969 21.213100433349609 81.217903137207031
79.487503051757813 22.714399337768555 78.234001159667969
82.587898254394531 23.524999618530273 78.495101928710938
81.327903747558594 21.894599914550781 81.286598205566406
79.032501220703125 20.952999114990234 81.106597900390625
81.606796264648437 23.715099334716797 78.285400390625000
77.930603027343750 21.253299713134766 79.889396667480469
82.027603149414063 22.643100738525391 80.838996887207031
80.556396484375000 23.698400497436523 78.294502258300781
78.573600769042969 22.631399154663086 78.880500793457031
78.327598571777344 21.322700500488281 80.630599975585937
79.604202270507813 21.495000839233398 81.587303161621094
80.569602966308594 22.158300399780273 81.815696716308594
81.707702636718750 23.043699264526367 81.568199157714844
80.993202209472656 23.223100662231445 82.158401489257813
80.082901000976562 22.699699401855469 82.266899108886719
82.125503540039063 23.598100662231445 80.936401367187500
81.755798339843750 24.084699630737305 81.551200866699219
81.332702636718750 24.816200256347656 80.523200988769531
80.067001342773438 24.157600402832031 78.832000732421875
79.128799438476563 23.584800720214844 78.957000732421875
82.181701660156250 24.134300231933594 79.930496215820313
79.087303161621094 22.419900894165039 82.166801452636719
79.549499511718750 24.682899475097656 79.274002075195312
80.484199523925781 23.717500686645508 82.697799682617188
79.606903076171875 23.259599685668945 82.690101623535156
78.626502990722656 24.092500686645508 79.443298339843750
82.081901550292969 24.028900146484375 78.988197326660156
78.521697998046875 21.903900146484375 81.639198303222656
81.190597534179687 24.073699951171875 82.524299621582031
80.572601318359375 25.200500488281250 79.280296325683594
78.095703125000000 23.109100341796875 79.410202026367188
81.047698974609375 24.762100219726563 78.717300415039063
81.615303039550781 25.070899963378906 79.455200195312500
81.848098754882813 25.164899826049805 81.027900695800781
77.891197204589844 21.857599258422852 81.114997863769531
77.734001159667969 23.562400817871094 80.021598815917969
77.665298461914063 22.601499557495117 79.949600219726563
77.923500061035156 22.133499145507813 79.307998657226563
78.639701843261719 23.272300720214844 82.688697814941406
78.177001953125000 24.572399139404297 79.990501403808594
77.596801757812500 22.596500396728516 80.921997070312500
82.063903808593750 25.368799209594727 80.142601013183594
77.985702514648437 22.885799407958984 82.085502624511719
79.571601867675781 25.668199539184570 79.823997497558594
81.527099609375000 25.120300292968750 82.341499328613281
78.721702575683594 25.503900527954102 80.087997436523438
79.573402404785156 24.165800094604492 83.299896240234375
80.488296508789063 24.732299804687500 83.166702270507812
80.597396850585938 26.150499343872070 79.855499267578125
77.237800598144531 23.100999832153320 81.446197509765625
77.306396484375000 24.099500656127930 80.977302551269531
78.573196411132813 23.896999359130859 83.189697265625000
79.685096740722656 26.402599334716797 80.217102050781250
81.150199890136719 25.588499069213867 82.965896606445313
81.809898376464844 26.089199066162109 82.063301086425781
77.915603637695312 25.711500167846680 80.722099304199219
77.476303100585938 23.879199981689453 82.708999633789063
77.316200256347656 25.081100463867188 81.016700744628906
81.600997924804688 26.647800445556641 79.858299255371094
80.024803161621094 25.212600708007813 83.683296203613281
79.089202880859375 24.700700759887695 83.753402709960937
77.024101257324219 24.591800689697266 81.923400878906250
80.129096984863281 27.039899826049805 80.511703491210937
78.092697143554687 24.538299560546875 83.500396728515625
81.147598266601562 27.041400909423828 80.533798217773437
78.952201843261719 26.802499771118164 80.659698486328125
80.723899841308594 26.053300857543945 83.562400817871094
78.113601684570313 26.601499557495117 80.925598144531250
81.365898132324219 26.629999160766602 82.717796325683594
80.692298889160156 27.264699935913086 81.307403564453125
77.414001464843750 26.166700363159180 81.282203674316406
81.839103698730469 27.104000091552734 82.069198608398438
76.794898986816406 25.564899444580078 82.000701904296875
79.617202758789063 27.588100433349609 80.944000244140625
76.942497253417969 24.916299819946289 83.119697570800781
79.078697204589844 25.685899734497070 84.272903442382813
79.988899230957031 26.232500076293945 84.179100036621094
78.093597412109375 25.460399627685547 84.116699218750000
77.363502502441406 25.311899185180664 83.678497314453125
81.056297302246094 27.108600616455078 83.379096984863281
77.657897949218750 27.082300186157227 81.466300964355469
80.798599243164063 27.773300170898437 82.347198486328125
78.524803161621094 27.694999694824219 81.256500244140625
77.053199768066406 26.613300323486328 81.893203735351563
80.105499267578125 28.167999267578125 81.339996337890625
76.337799072265625 25.701499938964844 82.770599365234375
80.366897583007813 27.015199661254883 84.181900024414063
76.955802917480469 26.002300262451172 83.495002746582031
78.587097167968750 26.240200042724609 84.678901672363281
76.804199218750000 26.586999893188477 82.806900024414063
79.550201416015625 26.714099884033203 84.716102600097656
77.605499267578125 26.037099838256836 84.510498046875000
79.109397888183594 28.607299804687500 81.416198730468750
80.488403320312500 28.528600692749023 82.432197570800781
80.918701171875000 28.128499984741211 83.755302429199219
77.315696716308594 28.040100097656250 82.091598510742188
76.794700622558594 27.594100952148437 82.512702941894531
81.400802612304688 28.633199691772461 83.045501708984375
78.097396850585938 28.613100051879883 81.899101257324219
76.178298950195313 26.204799652099609 83.819297790527344
76.492698669433594 27.104099273681641 83.373100280761719
79.674697875976563 27.549600601196289 85.042900085449219
76.688301086425781 26.373199462890625 84.625701904296875
80.316802978515625 28.036399841308594 84.648101806640625
78.592796325683594 27.168899536132812 85.299102783203125
77.609703063964844 26.903999328613281 85.223701477050781
76.822998046875000 27.323400497436523 84.329498291015625
80.044799804687500 29.416500091552734 83.123001098632813
79.611198425292969 29.660600662231445 82.346099853515625
77.568901062011719 29.127199172973633 82.365501403808594
76.823799133300781 28.675600051879883 82.704299926757813
76.435897827148438 28.117700576782227 83.336898803710938
78.574203491210937 29.673299789428711 82.310096740722656
80.723297119140625 29.084899902343750 84.524200439453125
80.842201232910156 29.577800750732422 83.812896728515625
78.084297180175781 27.755699157714844 85.671401977539063
76.624702453613281 27.215200424194336 85.270896911621094
80.050796508789063 28.642900466918945 85.307403564453125
79.041603088378906 28.208299636840820 85.707000732421875
79.069801330566406 30.223199844360352 82.753898620605469
79.542503356933594 29.148000717163086 85.791702270507813
78.521301269531250 28.752899169921875 86.150596618652344
77.652099609375000 28.436100006103516 86.188301086425781
80.383697509765625 29.625999450683594 85.165603637695312
79.104896545410156 30.107599258422852 86.408500671386719
79.999496459960938 30.126300811767578 85.778800964355469
78.089797973632813 29.656700134277344 86.820899963378906
77.109100341796875 27.682600021362305 85.790802001953125
77.112998962402344 28.978599548339844 86.597198486328125
78.038803100585937 30.185600280761719 82.785003662109375
80.762496948242187 30.110799789428711 84.525703430175781
80.512100219726563 30.626899719238281 85.294700622558594
76.439697265625000 28.823400497436523 86.106101989746094
76.504699707031250 29.118200302124023 83.363998413085938
76.116996765136719 29.600900650024414 84.427200317382812
78.208000183105469 30.978300094604492 83.109901428222656
76.187400817871094 28.599199295043945 83.951599121093750
76.615898132324219 30.100500106811523 83.427597045898438
76.974601745605469 29.647600173950195 82.810401916503906
78.650901794433594 30.543399810791016 87.029998779296875
79.133102416992188 31.027000427246094 83.053001403808594
77.229698181152344 30.540899276733398 83.009399414062500
79.597702026367188 31.110500335693359 86.397499084472656
79.648902893066406 31.626600265502930 84.420600891113281
76.230903625488281 30.575799942016602 84.477996826171875
75.807197570800781 28.630599975585937 84.795898437500000
78.609497070312500 31.618700027465820 83.394096374511719
75.861900329589844 30.055400848388672 85.047996520996094
80.879302978515625 30.582599639892578 83.846496582031250
77.578300476074219 30.164600372314453 87.305496215820313
76.610496520996094 31.102800369262695 83.923599243164063
75.545898437500000 29.116899490356445 85.396797180175781
79.582603454589844 31.676200866699219 83.268898010253906
80.161300659179687 31.576700210571289 86.001701354980469
77.488403320312500 31.683399200439453 83.316596984863281
76.009696960449219 29.394300460815430 86.643203735351563
76.628196716308594 29.743700027465820 87.242500305175781
76.436500549316406 31.696599960327148 84.816101074218750
78.143302917480469 31.074899673461914 87.502601623535156
75.898200988769531 31.185499191284180 85.288597106933594
77.826499938964844 32.346401214599609 83.707397460937500
80.996498107910156 31.644899368286133 85.295700073242188
77.007698059082031 32.153999328613281 83.855697631835938
75.485000610351563 30.633800506591797 85.850700378417969
79.471702575683594 31.742099761962891 87.137496948242188
77.082397460937500 30.664800643920898 87.824798583984375
75.203498840332031 29.717699050903320 86.309303283691406
76.073303222656250 30.457399368286133 87.621398925781250
78.639099121093750 32.092098236083984 87.498100280761719
76.546302795410156 32.640701293945312 85.368400573730469
77.657798767089844 31.569099426269531 88.006797790527344
75.201599121093750 30.604099273681641 86.957397460937500
75.714302062988281 32.052501678466797 86.008499145507813
79.611602783203125 32.596599578857422 87.410301208496094
75.246398925781250 31.557600021362305 86.520698547363281
76.596801757812500 31.194799423217773 88.242897033691406
75.643096923828125 31.128700256347656 87.857299804687500
78.161201477050781 32.581901550292969 88.003700256347656
76.186096191406250 33.062801361083984 85.992698669433594
78.742996215820312 33.065399169921875 87.604499816894531
77.172599792480469 32.058300018310547 88.531997680664063
80.102302551269531 33.232398986816406 87.143600463867188
79.578598022460937 33.771301269531250 86.605201721191406
74.954200744628906 31.617300033569336 87.366302490234375
75.355003356933594 32.716499328613281 86.728599548339844
76.106796264648438 31.651500701904297 88.763900756835938
75.832000732421875 33.488998413085937 86.629997253417969
77.730903625488281 33.041900634765625 88.603103637695313
75.133796691894531 31.645599365234375 88.373199462890625
78.319602966308594 33.550201416015625 88.186599731445313
76.481300354003906 34.171699523925781 86.296897888183594
74.855903625488281 32.586299896240234 87.545501708984375
80.558700561523438 34.156200408935547 86.995101928710938
76.994003295898438 33.217201232910156 89.190902709960938
75.099296569824219 33.606601715087891 87.413803100585937
76.096900939941406 32.659999847412109 89.327003479003906
78.653198242187500 34.598201751708984 87.963500976562500
75.098396301269531 32.561500549316406 88.973602294921875
74.619499206542969 33.102001190185547 88.429100036621094
76.194900512695312 35.055698394775391 87.015403747558594
75.534500122070313 34.636299133300781 87.348701477050781
77.481002807617188 34.156299591064453 89.259597778320313
78.074699401855469 34.610500335693359 88.883903503417969
74.752799987792969 34.057399749755859 88.042503356933594
76.556800842285156 33.666000366210937 89.812103271484375
75.592697143554688 33.187801361083984 89.791297912597656
78.342201232910156 35.589599609375000 88.615699768066406
75.731300354003906 35.539299011230469 87.554702758789063
74.094200134277344 33.574199676513672 88.958396911621094
75.119102478027344 35.099399566650391 87.930496215820312
77.621803283691406 35.098999023437500 89.434799194335938
77.062500000000000 34.634601593017578 89.850997924804688
76.543601989746094 36.164600372314453 87.318199157714844
77.193496704101563 35.568401336669922 90.021102905273438
76.591598510742187 35.118000030517578 90.392898559570313
77.968597412109375 36.125099182128906 89.283302307128906
76.795402526855469 36.000999450683594 90.655601501464844
77.592399597167969 36.605499267578125 89.903396606445313
75.453002929687500 36.195800781250000 88.245300292968750
76.052902221679688 34.200599670410156 90.242202758789063
76.066703796386719 36.633300781250000 87.869102478027344
75.536102294921875 34.772899627685547 90.650398254394531
74.744598388671875 35.545898437500000 88.543098449707031
75.659400939941406 37.077999114990234 88.475799560546875
75.013298034667969 36.649600982666016 88.819198608398438
76.025497436523438 35.736000061035156 91.195602416992188
77.203796386718750 37.083000183105469 90.530799865722656
76.308601379394531 37.469600677490234 88.188003540039063
75.083999633789063 34.224601745605469 90.237098693847656
74.426803588867188 36.180698394775391 89.237297058105469
74.425903320312500 34.645500183105469 88.806503295898438
76.547599792480469 36.627498626708984 91.339302062988281
75.204399108886719 37.552799224853516 89.028198242187500
74.105796813964844 35.104301452636719 89.419898986816406
75.046897888183594 35.284500122070313 91.184898376464844
74.490097045898437 33.965900421142578 89.576202392578125
75.877700805664063 37.951301574707031 88.726997375488281
74.588401794433594 37.113098144531250 89.399101257324219
74.263801574707031 34.805599212646484 90.222999572753906
77.219100952148438 38.185398101806641 89.949096679687500
75.533096313476563 36.193099975585937 91.695396423339844
76.893096923828125 37.659400939941406 91.213897705078125
74.016197204589844 36.615501403808594 89.866096496582031
74.102600097656250 35.585899353027344 90.945899963378906
76.041198730468750 37.139301300048828 91.813499450683594
73.719001770019531 36.122699737548828 90.443702697753906
74.588203430175781 36.193099975585937 91.725502014160156
75.505203247070313 38.670398712158203 89.279602050781250
74.522697448730469 38.147098541259766 89.829902648925781
76.170898437500000 39.049701690673828 89.024696350097656
77.185501098632813 38.584499359130859 90.998298645019531
75.535797119140625 38.447299957275391 90.950897216796875
73.903999328613281 37.670799255371094 90.262702941894531
76.498298645019531 38.149398803710938 91.792098999023438
75.058502197265625 37.229801177978516 92.219902038574219
73.568801879882813 37.102199554443359 90.906700134277344
75.010101318359375 39.153598785400391 89.805297851562500
74.108001708984375 37.051200866699219 91.991897583007813
75.666900634765625 39.571701049804688 89.494300842285156
74.139198303222656 38.592201232910156 90.448898315429688
75.656303405761719 38.067401885986328 92.496597290039063
76.823699951171875 39.075801849365234 91.616302490234375
73.574798583984375 38.110298156738281 90.900199890136719
77.239303588867188 39.602199554443359 91.019500732421875
76.494598388671875 39.931999206542969 90.460998535156250
73.280197143554688 37.612800598144531 91.482398986816406
74.576301574707031 37.761901855468750 92.672897338867188
74.549797058105469 39.621799468994141 90.360496520996094
75.205299377441406 40.063201904296875 90.027297973632813
76.141098022460938 39.090099334716797 92.458396911621094
73.678199768066406 39.086601257324219 90.981002807617188
75.170600891113281 38.535999298095703 93.045097351074219
76.105201721191406 40.611598968505859 89.909500122070313
76.882301330566406 40.139999389648438 91.568901062011719
73.545097351074219 37.998699188232422 92.541297912597656
76.094001770019531 40.562698364257813 90.940299987792969
73.040397644042969 38.600299835205078 91.890296936035156
74.086601257324219 40.109298706054688 90.898498535156250
74.084297180175781 38.444499969482422 93.153198242187500
74.731101989746094 40.552501678466797 90.553100585937500
76.516403198242188 40.130798339843750 92.323898315429687
75.724998474121094 39.551101684570313 93.067100524902344
73.256797790527344 39.573600769042969 91.543998718261719
76.784103393554688 41.215900421142578 90.917800903320312
73.193099975585937 38.670700073242187 92.862602233886719
74.508796691894531 39.263801574707031 93.606300354003906
72.685203552246094 39.134101867675781 92.417900085449219
74.273498535156250 41.029800415039062 91.097702026367188
76.365196228027344 41.179298400878906 92.028701782226563
75.226898193359375 41.537700653076172 90.550903320312500
73.638999938964844 40.593799591064453 91.448997497558594
76.164596557617188 40.585300445556641 92.980003356933594
73.601501464843750 39.071800231933594 93.463600158691406
76.080802917480469 41.724300384521484 90.769302368164062
74.675399780273437 40.061199188232422 94.026298522949219
75.441200256347656 40.683898925781250 93.715698242187500
76.515701293945313 41.658100128173828 92.651702880859375
74.793403625488281 42.034400939941406 91.102897644042969
72.914596557617188 40.649200439453125 92.287803649902344
76.202903747558594 42.145698547363281 91.944900512695312
73.981300354003906 41.660900115966797 91.776901245117188
72.479301452636719 40.056598663330078 92.928703308105469
75.638298034667969 42.422000885009766 91.148200988769531
72.873703002929687 39.821998596191406 93.679000854492188
73.588401794433594 39.965198516845703 94.110603332519531
75.902496337890625 41.666900634765625 93.692802429199219
75.245697021484375 42.308799743652344 92.893203735351563
75.032203674316406 41.147800445556641 94.318000793457031
75.482696533203125 42.145500183105469 94.281402587890625
74.557296752929688 41.650001525878906 94.829399108886719
76.243400573730469 42.577201843261719 93.546798706054687
75.560600280761719 43.055400848388672 92.923599243164063
75.078002929687500 42.616798400878906 94.883003234863281
74.135398864746094 40.572700500488281 94.476997375488281
75.935798645019531 43.173801422119141 94.221496582031250
73.579002380371094 42.615501403808594 92.386802673339844
74.480903625488281 42.704898834228516 91.741096496582031
74.686203002929688 43.702499389648438 93.909797668457031
73.644500732421875 41.508800506591797 95.065803527832031
73.127502441406250 41.597198486328125 92.438903808593750
76.131797790527344 43.179698944091797 92.360099792480469
76.145896911621094 43.604900360107422 93.451698303222656
74.119598388671875 42.095100402832031 95.437698364257813
73.173896789550781 43.081901550292969 92.988296508789063
74.106697082519531 43.607799530029297 92.415496826171875
72.717002868652344 42.072299957275391 93.020599365234375
75.572502136230469 43.265399932861328 91.733299255371094
75.030296325683594 43.779499053955078 92.210899353027344
73.053001403808594 40.931999206542969 94.648597717285156
75.570800781250000 43.616699218750000 94.874801635742188
74.682800292968750 43.065898895263672 95.515296936035156
72.578300476074219 41.104801177978516 92.904701232910156
75.280899047851562 44.272998809814453 93.935203552246094
76.537498474121094 42.893398284912109 91.659103393554688
72.247802734375000 41.594299316406250 93.509803771972656
72.541603088378906 40.550899505615234 93.954902648925781
73.115997314453125 42.077598571777344 95.460296630859375
73.618301391601563 44.098201751708984 92.931701660156250
76.118598937988281 44.100399017333984 94.431396484375000
74.232696533203125 44.263900756835938 94.397903442382813
72.581001281738281 41.544399261474609 94.995300292968750
72.241401672363281 41.196399688720703 94.357398986816406
74.667297363281250 44.519901275634766 92.543502807617188
73.607803344726563 42.611000061035156 95.910202026367188
75.629203796386719 44.532600402832031 92.514099121093750
75.116302490234375 44.100898742675781 95.428802490234375
76.554397583007812 44.423301696777344 93.104797363281250
72.010299682617188 42.615501403808594 93.868896484375000
72.758796691894531 44.049499511718750 93.576400756835938
74.226501464843750 43.540000915527344 96.086898803710937
71.829498291015625 41.944801330566406 94.536300659179688
72.185203552246094 43.583198547363281 93.986297607421875
72.161300659179687 42.189899444580078 95.310096740722656
74.170600891113281 45.034198760986328 93.025497436523438
75.455902099609375 45.015201568603516 94.355697631835938
75.097396850585937 45.147300720214844 92.867599487304688
72.630500793457031 42.678798675537109 95.816497802734375
74.677803039550781 45.315299987792969 93.807296752929688
71.828498840332031 43.091499328613281 94.544799804687500
73.105300903320313 43.189399719238281 96.294296264648438
76.134399414062500 45.283000946044922 93.245101928710938
74.674102783203125 44.584598541259766 95.999099731445313
75.457397460937500 45.118099212646484 95.244300842285156
73.103202819824219 45.109401702880859 93.912597656250000
73.739799499511719 45.490299224853516 93.600700378417969
72.422798156738281 44.705299377441406 94.224800109863281
73.729400634765625 44.006999969482422 96.660003662109375
71.584197998046875 43.077701568603516 95.446403503417969
74.946098327636719 45.858001708984375 94.474601745605469
71.682098388671875 44.085800170898437 94.971496582031250
72.004699707031250 43.409198760986328 96.156196594238281
74.559097290039063 46.214599609375000 93.788803100585938
75.005599975585938 45.625701904296875 95.801498413085938
72.607200622558594 43.945400238037109 96.672096252441406
72.674301147460938 45.560600280761719 94.498596191406250
74.257797241210937 45.049900054931641 96.611900329589844
72.050003051757812 45.128601074218750 94.864402770996094
73.511001586914063 46.195098876953125 94.282600402832031
75.512802124023437 46.124401092529297 95.310203552246094
73.208297729492188 44.501499176025391 97.136497497558594
71.261901855468750 44.133899688720703 95.914100646972656
74.713996887207031 46.948299407958984 94.153396606445313
74.712097167968750 46.068901062011719 96.535202026367188
72.244102478027344 46.034198760986328 95.063400268554688
72.098197937011719 44.531799316406250 97.031898498535156
73.771400451660156 45.518699645996094 97.161102294921875
74.803703308105469 46.825801849365234 95.402099609375000
73.045402526855469 46.660999298095703 94.833801269531250
71.656196594238281 45.586498260498047 95.463500976562500
71.190101623535156 45.093399047851562 95.967796325683594
73.971801757812500 47.258098602294922 94.674896240234375
72.659896850585937 45.036201477050781 97.563400268554688
71.179100036621094 44.666900634765625 96.851600646972656
74.279502868652344 46.553798675537109 97.099899291992188
71.780700683593750 46.515701293945313 95.596801757812500
74.777397155761719 47.068698883056641 96.577903747558594
72.565200805664063 47.142501831054688 95.357200622558594
71.210502624511719 46.064701080322266 96.016403198242188
73.509002685546875 46.152400970458984 97.776603698730469
73.483001708984375 47.746398925781250 95.193000793457031
74.670097351074219 48.003898620605469 95.062400817871094
72.112503051757813 45.610298156738281 97.911300659179688
74.205802917480469 47.696300506591797 96.416297912597656
71.254699707031250 45.719299316406250 97.769599914550781
73.918098449707031 47.153499603271484 97.720397949218750
72.557403564453125 46.196800231933594 98.255798339843750
74.421600341796875 47.642601013183594 97.242797851562500
71.749397277832031 47.527900695800781 96.073097229003906
74.953399658203125 48.140399932861328 96.771400451660156
71.128097534179687 47.094299316406250 96.440002441406250
72.547401428222656 48.154701232910156 95.824996948242188
70.568901062011719 46.068801879882813 97.468498229980469
73.664398193359375 48.163398742675781 96.915000915527344
73.511596679687500 48.740501403808594 95.709503173828125
74.611297607421875 49.106998443603516 95.418197631835938
73.535400390625000 47.626201629638672 98.339698791503906
74.028900146484375 48.122100830078125 97.846298217773438
73.165199279785156 48.665500640869141 97.417396545410156
72.866798400878906 47.211498260498047 98.625503540039063
73.525497436523438 48.644599914550781 98.816001892089844
72.905403137207031 48.204700469970703 99.170501708984375
72.155296325683594 47.485698699951172 99.098503112792969
74.035697937011719 49.129398345947266 98.339401245117188
72.076202392578125 46.802600860595703 98.674102783203125
74.551002502441406 48.617500305175781 97.365798950195313
74.042098999023438 49.073600769042969 96.901603698730469
71.722297668457031 48.558898925781250 96.540397644042969
72.509498596191406 49.209400177001953 96.260803222656250
71.582000732421875 47.976799011230469 99.549499511718750
73.075103759765625 49.621799468994141 99.351501464843750
71.045303344726563 48.117000579833984 96.865097045898437
72.575103759765625 49.031501770019531 99.894302368164063
71.136802673339844 46.636699676513672 98.380798339843750
71.029098510742187 47.432098388671875 99.093803405761719
71.972000122070312 49.762001037597656 96.666297912597656
73.681800842285156 50.077201843261719 99.022201538085937
74.078399658203125 50.044200897216797 96.949798583984375
70.575996398925781 47.602600097656250 97.398696899414063
74.949600219726563 49.657901763916016 97.270698547363281
74.376701354980469 50.177501678466797 98.172798156738281
70.593696594238281 48.599998474121094 97.412200927734375
70.955902099609375 49.107799530029297 96.804702758789063
74.117401123046875 49.595699310302734 95.934402465820312
73.571296691894531 50.211299896240234 96.272499084472656
75.405700683593750 49.174098968505859 96.718902587890625
70.223197937011719 47.642700195312500 98.386596679687500
71.266098022460937 50.048999786376953 97.070396423339844
70.575798034667969 48.062198638916016 99.471702575683594
71.916000366210938 49.309700012207031 100.274002075195310
73.869697570800781 50.863399505615234 97.945800781250000
73.060699462890625 50.754798889160156 96.736297607421875
70.567100524902344 49.598201751708984 97.395500183105469
72.626403808593750 48.634601593017578 100.934997558593750
70.174102783203125 49.105300903320313 97.967903137207031
72.073600769042969 50.787498474121094 96.730300903320313
74.905700683593750 50.684799194335938 97.686996459960938
70.764801025390625 48.825401306152344 100.222999572753910
73.566802978515625 51.233100891113281 97.266098022460938
72.544197082519531 51.283699035644531 97.211601257324219
69.644798278808594 48.635601043701172 98.891502380371094
70.165298461914063 50.103599548339844 97.964797973632812
69.936302185058594 48.894298553466797 99.610900878906250
71.555801391601563 51.299198150634766 97.212997436523438
74.257698059082031 51.345500946044922 96.732200622558594
69.733299255371094 49.606498718261719 98.522300720214844
71.067398071289063 50.971500396728516 96.490402221679688
70.499198913574219 51.101799011230469 97.344703674316406
69.084197998046875 49.024799346923828 99.485198974609375
70.031097412109375 51.598201751708984 97.880500793457031
69.182601928710937 50.091300964355469 99.474403381347656
69.521797180175781 50.602500915527344 98.847999572753906
71.051200866699219 51.815898895263672 97.650802612304688
70.351898193359375 49.373798370361328 100.672996520996090
72.084098815917969 51.665000915527344 97.849502563476562
73.162200927734375 52.025699615478516 97.535697937011719
72.019203186035156 48.935199737548828 101.387001037597660
72.540199279785156 50.144798278808594 99.769203186035156
80.161399841308594 34.567001342773438 86.378402709960937
78.614303588867188 35.105899810791016 86.421401977539062
79.917900085449219 35.182300567626953 85.681198120117188
80.577697753906250 35.612499237060547 86.451202392578125
76.770797729492187 36.985698699951172 87.624099731445313
