ply
format ascii 1.0
element vertex 539
property double x
property double y
property double z
end_header
92.222099304199219 58.460201263427734 79.372596740722656
92.973396301269531 59.236000061035156 82.358497619628906
93.896202087402344 59.818298339843750 81.405998229980469
92.032798767089844 58.170299530029297 82.905403137207031
95.480796813964844 60.789100646972656 79.921302795410156
94.828399658203125 59.866901397705078 80.938796997070313
93.325500488281250 58.924301147460937 80.931297302246094
92.277496337890625 57.930698394775391 81.945297241210938
92.809501647949219 58.402500152587891 81.463699340820313
94.896301269531250 59.976501464843750 79.970001220703125
95.980903625488281 60.749401092529297 78.937301635742188
91.012199401855469 56.676700592041016 82.902297973632813
91.557403564453125 57.152000427246094 82.419998168945313
90.516403198242188 56.158298492431641 83.388397216796875
90.016998291015625 55.650798797607422 83.864196777343750
94.194900512695312 59.462699890136719 79.896598815917969
89.217002868652344 55.078300476074219 84.052398681640625
88.611503601074219 54.600700378417969 84.420700073242187
95.131401062011719 60.056301116943359 78.915901184082031
91.772796630859375 57.421398162841797 81.401496887207031
92.248100280761719 57.900199890136719 80.887496948242188
93.033401489257813 58.735500335693359 79.961402893066406
93.566703796386719 59.188098907470703 79.453002929687500
94.748001098632813 65.986198425292969 69.920898437500000
94.104499816894531 59.621299743652344 78.931503295898438
95.645599365234375 60.531299591064453 77.917098999023438
87.599403381347656 53.554199218750000 84.804496765136719
92.691703796386719 58.965599060058594 78.875900268554688
94.604896545410156 60.129199981689453 77.932800292968750
93.193801879882813 59.435298919677734 78.369598388671875
92.222099304199219 58.460201263427734 79.372596740722656
94.918197631835938 66.685600280761719 68.418296813964844
80.999900817871094 53.663101196289063 81.884597778320312
82.462997436523438 54.729999542236328 80.896896362304688
81.564201354980469 54.129100799560547 81.408203125000000
93.701103210449219 59.842899322509766 77.849899291992188
91.795196533203125 57.916000366210937 79.855598449707031
80.580001831054688 53.112300872802734 82.417503356933594
90.897300720214844 56.227298736572266 81.936798095703125
91.265602111816406 56.957000732421875 80.883399963378906
94.392898559570313 65.242401123046875 69.963798522949219
90.540100097656250 55.645000457763672 82.421798706054687
89.194801330566406 54.117801666259766 84.072898864746094
94.757400512695313 65.990798950195313 68.935600280761719
94.061401367187500 60.247501373291016 76.967498779296875
90.154098510742187 55.079498291015625 82.934898376464844
96.063201904296875 60.768501281738281 76.948997497558594
95.130302429199219 60.532600402832031 76.912300109863281
89.702598571777344 54.556800842285156 83.462097167968750
92.695899963378906 59.478698730468750 77.392997741699219
97.143997192382813 60.989601135253906 76.911697387695313
93.188201904296875 59.928298950195313 76.878898620605469
92.221603393554688 58.966598510742188 77.886398315429687
91.789100646972656 58.415000915527344 78.365097045898438
87.576896667480469 52.520401000976562 85.260696411132812
79.877197265625000 51.691699981689453 83.373802185058594
87.026901245117187 52.033298492431641 85.688301086425781
91.419097900390625 57.774898529052734 78.995903015136719
90.854499816894531 56.268398284912109 80.961799621582031
91.173202514648438 57.055500030517578 79.905197143554688
94.385696411132813 64.441398620605469 70.367797851562500
82.007202148437500 54.184799194335938 80.397903442382812
82.564102172851562 54.654598236083984 79.920997619628906
94.129096984863281 63.590499877929688 71.421897888183594
94.611396789550781 60.614498138427734 75.928100585937500
93.526603698730469 60.293899536132812 75.961898803710937
94.290496826171875 65.286903381347656 68.974998474121094
86.221199035644531 59.019298553466797 74.919097900390625
88.659202575683594 53.077201843261719 84.451797485351563
95.578796386718750 60.771499633789063 75.945198059082031
90.555397033691406 55.633399963378906 81.429702758789063
96.625099182128906 61.046699523925781 75.918701171875000
97.577301025390625 61.285701751708984 75.940696716308594
83.163299560546875 54.996799468994141 79.403503417968750
86.442802429199219 51.135898590087891 86.309196472167969
80.462898254394531 52.161598205566406 82.401603698730469
86.290000915527344 50.534999847412109 87.016899108886719
93.975898742675781 64.672996520996094 69.440399169921875
92.786499023437500 59.884899139404297 75.879898071289063
86.357902526855469 59.458099365234375 73.946601867675781
92.295501708984375 59.387100219726563 76.372703552246094
90.262901306152344 55.023601531982422 81.924301147460938
79.370201110839844 50.696399688720703 83.852996826171875
91.830902099609375 58.849998474121094 76.852798461914063
84.132499694824219 55.017799377441406 79.396797180175781
94.073997497558594 60.723598480224609 74.952598571777344
91.441596984863281 58.269500732421875 77.468399047851562
81.124000549316406 53.097499847412109 80.929000854492187
85.665603637695313 58.034301757812500 75.400299072265625
80.754096984863281 52.545200347900391 81.451400756835938
84.625602722167969 55.379299163818359 78.812202453613281
84.566902160644531 55.878299713134766 78.060600280761719
94.007499694824219 63.664299011230469 70.429702758789063
91.024299621582031 57.686500549316406 77.955703735351563
85.052497863769531 56.726299285888672 76.996299743652344
90.768203735351563 56.971298217773438 78.859596252441406
94.333396911621094 65.438201904296875 67.915199279785156
83.081497192382813 55.147598266601563 78.434700012207031
89.848098754882813 54.241298675537109 82.409301757812500
85.211402893066406 57.467300415039063 75.875000000000000
83.605796813964844 55.618801116943359 77.931602478027344
84.122001647949219 56.081199645996094 77.417503356933594
90.605201721191406 56.107601165771484 79.929199218750000
78.836700439453125 50.075801849365234 84.078201293945313
96.128196716308594 61.029701232910156 74.914299011230469
82.610702514648438 54.604900360107422 78.925796508789063
87.043403625488281 51.076000213623047 85.778198242187500
93.853500366210937 64.767501831054687 68.472702026367188
85.765800476074219 58.486598968505859 74.423202514648438
82.152397155761719 54.070999145507813 79.431701660156250
89.492202758789063 53.670501708984375 82.908699035644531
95.122703552246094 61.028198242187500 74.406097412109375
93.718101501464844 63.032600402832031 70.913803100585937
97.105400085449219 61.187900543212891 74.937400817871094
86.549499511718750 60.062099456787109 72.361000061035156
81.701698303222656 53.543399810791016 79.948799133300781
92.708198547363281 59.968200683593750 74.898002624511719
92.207496643066406 59.479301452636719 75.398002624511719
89.081703186035156 53.123199462890625 83.419296264648438
93.228500366210938 60.422401428222656 74.379997253417969
91.728401184082031 58.955398559570312 75.886398315429688
94.007102966308594 60.865398406982422 73.992996215820313
84.177299499511719 56.521198272705078 76.405601501464844
91.265296936035156 58.415000915527344 76.364402770996094
90.261398315429687 55.008800506591797 80.877700805664062
87.513603210449219 51.356899261474609 85.115798950195313
96.091598510742188 61.267299652099609 73.968498229980469
85.086196899414063 57.627498626708984 74.928398132324219
94.592903137207031 61.203498840332031 73.458198547363281
85.868202209472656 49.462001800537109 87.119903564453125
90.802803039550781 57.854099273681641 76.828102111816406
90.445999145507812 57.269001007080078 77.490898132324219
83.476997375488281 55.750198364257812 76.943801879882813
90.168800354003906 56.549301147460938 78.396102905273438
93.508201599121094 62.188598632812500 71.480102539062500
84.636001586914063 57.078300476074219 75.421798706054688
93.591400146484375 61.155700683593750 72.959999084472656
93.827400207519531 64.015899658203125 68.873298645019531
83.024299621582031 55.205699920654297 77.438499450683594
88.428398132324219 52.234600067138672 83.893997192382812
90.017898559570313 55.681900024414062 79.484397888183594
93.995002746582031 61.833900451660156 72.081497192382812
93.087600708007812 60.647399902343750 73.444099426269531
97.117698669433594 61.349201202392578 73.968902587890625
89.910499572753906 54.241401672363281 81.456298828125000
92.596900939941406 60.128601074218750 73.935501098632813
82.555496215820312 54.659999847412109 77.927696228027344
88.003700256347656 51.675399780273438 84.403198242187500
87.634696960449219 61.135101318359375 70.469001770019531
92.103698730468750 59.617298126220703 74.430702209472656
80.416099548339844 51.672599792480469 81.388298034667969
95.127700805664063 61.468399047851563 72.890502929687500
91.605201721191406 59.114299774169922 74.929298400878906
93.636703491210938 63.088100433349609 69.924003601074219
91.112602233886719 58.603199005126953 75.426200866699219
93.155799865722656 61.557598114013672 71.901802062988281
80.070701599121094 51.122798919677734 81.921600341796875
90.623703002929688 58.085800170898438 75.919502258300781
78.285003662109375 49.121101379394531 84.094398498535156
89.574699401855469 53.627700805664062 81.928901672363281
82.211898803710937 54.026401519775391 78.437301635742188
90.142898559570313 57.558601379394531 76.406402587890625
96.115402221679688 61.567600250244141 72.917701721191406
86.710601806640625 50.067199707031250 85.954498291015625
89.787498474121094 56.847999572753906 77.284896850585938
79.697898864746094 50.559299468994141 82.442100524902344
79.356597900390625 50.035499572753906 83.063301086425781
85.073600769042969 48.670501708984375 87.284896850585938
89.713500976562500 55.012901306152344 79.857002258300781
81.848999023437500 53.479198455810547 78.986900329589844
93.311401367187500 62.463600158691406 70.398803710937500
88.631599426269531 61.126098632812500 70.491798400878906
86.809501647949219 59.177101135253906 72.590797424316406
92.435699462890625 60.388301849365234 73.044097900390625
93.482696533203125 64.156600952148438 67.959701538085937
98.138000488281250 61.286598205566406 73.952903747558594
89.535003662109375 56.191398620605469 77.983398437500000
87.156402587890625 59.655998229980469 71.992202758789063
92.779098510742187 60.921501159667969 72.356597900390625
89.206199645996094 53.036399841308594 82.423797607421875
81.289703369140625 52.505901336669922 80.073097229003906
91.961601257324219 59.846298217773438 73.517097473144531
87.602302551269531 60.082199096679688 71.401702880859375
88.769599914550781 52.482898712158203 82.935798645019531
91.466300964355469 59.327201843261719 73.997596740722656
90.981399536132812 58.823001861572266 74.500801086425781
94.617500305175781 61.961601257324219 71.353302001953125
90.465599060058594 58.338699340820313 74.993103027343750
89.962600708007812 57.840599060058594 75.505897521972656
95.110000610351563 61.661800384521484 71.941299438476562
89.290603637695313 55.390098571777344 78.777496337890625
89.109001159667969 56.608600616455078 76.929603576660156
89.473098754882813 57.319198608398437 76.016502380371094
88.064903259277344 60.510200500488281 70.795501708984375
97.103698730468750 61.500000000000000 72.906501770019531
77.843803405761719 48.203899383544922 84.667999267578125
87.213203430175781 50.545700073242187 84.935302734375000
89.434402465820313 54.336101531982422 80.228797912597656
86.484298706054688 58.375900268554688 73.165000915527344
95.076499938964844 62.333000183105469 70.775100708007813
89.421401977539062 53.763301849365234 81.000396728515625
84.067001342773438 56.136001586914063 75.423400878906250
84.867301940917969 56.971698760986328 74.494796752929688
83.582099914550781 55.628299713134766 75.925399780273438
96.107101440429688 61.731998443603516 71.949699401855469
88.674400329589844 56.006801605224609 77.356796264648438
89.071701049804688 54.644599914550781 79.460098266601563
86.193298339843750 49.065498352050781 86.453201293945313
92.650901794433594 61.067798614501953 71.413200378417969
77.101699829101563 47.593101501464844 84.896896362304688
92.907501220703125 61.752899169921875 70.489501953125000
86.187599182128906 57.775600433349609 73.616798400878906
83.236099243164063 55.016498565673828 76.435897827148438
88.616096496582031 55.097999572753906 78.422698974609375
88.760498046875000 56.884998321533203 75.865699768066406
93.413497924804688 62.932899475097656 68.872901916503906
79.040802001953125 49.087200164794922 83.350097656250000
88.231903076171875 55.407699584960938 77.760398864746094
82.605102539062500 53.082401275634766 78.891502380371094
88.276802062988281 56.360099792480469 76.342697143554687
89.530502319335938 60.942600250244141 70.150497436523438
87.548599243164063 58.946601867675781 72.246200561523438
92.235603332519531 60.462100982666016 71.882301330566406
98.066497802734375 61.347599029541016 72.887298583984375
82.096298217773437 52.571601867675781 79.372299194335938
88.036399841308594 59.424999237060547 71.717102050781250
88.529197692871094 59.905101776123047 71.178497314453125
96.710700988769531 62.842700958251953 70.120002746582031
91.750900268554688 59.927898406982422 72.383300781250000
97.120399475097656 61.636100769042969 71.930801391601562
87.607498168945313 55.611598968505859 76.930801391601563
86.076698303222656 56.993400573730469 74.311996459960938
87.530899047851563 54.786098480224609 78.077598571777344
93.018203735351563 62.186000823974609 69.455001831054687
91.295303344726563 59.372898101806641 72.873001098632813
89.172798156738281 60.303001403808594 70.672698974609375
88.123199462890625 51.593601226806641 82.925300598144531
88.223396301269531 54.448299407958984 78.798202514648437
88.830703735351563 52.893100738525391 81.295501708984375
89.763496398925781 57.873001098632812 74.390800476074219
88.710800170898437 53.498298645019531 80.344596862792969
87.133399963378906 55.066200256347656 77.404502868652344
90.785400390625000 58.835800170898437 73.350097656250000
90.279098510742188 58.336299896240234 73.866401672363281
80.790100097656250 50.752399444580078 81.170196533203125
85.516799926757813 48.201499938964844 86.746597290039063
88.409400939941406 53.849899291992187 79.636398315429687
87.682296752929688 51.048301696777344 83.425903320312500
85.152496337890625 55.752998352050781 75.567100524902344
93.076301574707031 63.126800537109375 67.941703796386719
89.025901794433594 57.223499298095703 74.943901062011719
81.203002929687500 51.214000701904297 80.593597412109375
96.086303710937500 61.908401489257813 70.859298706054688
81.656898498535156 51.671100616455078 80.032501220703125
87.081596374511719 54.181198120117187 78.504402160644531
83.546302795410156 53.437000274658203 78.185096740722656
78.650703430175781 48.122001647949219 83.979797363281250
87.277999877929687 50.484100341796875 83.930496215820312
87.073196411132813 57.418098449707031 73.725402832031250
87.573799133300781 57.892700195312500 73.217300415039062
86.442596435546875 49.185001373291016 85.422698974609375
85.625999450683594 56.139099121093750 74.964401245117188
88.065902709960938 58.355201721191406 72.682098388671875
88.184303283691406 56.495899200439453 75.398300170898437
92.103103637695312 60.614398956298828 70.931602478027344
80.042297363281250 49.534900665283203 82.317901611328125
80.525497436523437 50.010601043701172 81.776901245117188
88.666397094726563 58.815799713134766 72.116798400878906
87.538398742675781 53.739601135253906 79.062400817871094
87.708602905273437 55.957099914550781 75.877700805664063
84.580497741699219 54.469898223876953 76.794700622558594
84.341102600097656 55.977500915527344 74.494003295898437
97.049301147460938 61.907100677490234 70.849601745605469
92.276901245117188 61.350898742675781 69.774101257324219
91.642402648925781 60.058300018310547 71.406799316406250
88.046798706054688 53.184398651123047 79.995697021484375
90.607597351074219 61.525798797607422 68.849197387695312
88.265899658203125 51.956901550292969 81.863296508789063
89.147102355957031 59.250701904296875 71.571296691894531
86.082397460937500 53.666099548339844 78.480003356933594
90.612800598144531 60.695098876953125 70.021400451660156
86.826797485351563 49.776798248291016 84.431098937988281
87.001197814941406 55.265098571777344 76.492202758789063
77.266998291015625 46.657100677490234 85.197700500488281
89.631896972656250 59.714099884033203 71.041702270507812
90.124900817871094 60.198699951171875 70.528503417968750
84.157402038574219 53.739898681640625 77.576499938964844
98.161796569824219 61.367500305175781 71.968101501464844
92.799797058105469 62.395900726318359 68.349899291992188
88.178298950195313 52.530799865722656 80.873397827148437
91.108398437500000 61.140098571777344 69.461097717285156
91.179100036621094 59.494499206542969 71.879203796386719
86.535499572753906 54.727901458740234 76.987503051757813
92.441596984863281 61.793498992919922 69.011199951171875
91.609901428222656 61.617698669433594 68.938102722167969
85.098999023437500 54.854598999023437 76.219497680664063
91.107498168945313 61.922599792480469 68.276802062988281
86.552902221679688 53.259700775146484 79.099800109863281
88.989799499511719 57.389499664306641 74.040901184082031
88.615997314453125 57.845401763916016 73.224098205566406
88.116798400878906 57.359500885009766 73.724998474121094
84.120697021484375 47.029399871826172 87.189598083496094
87.113800048828125 56.592399597167969 74.417098999023438
79.686500549316406 48.659698486328125 83.045997619628906
86.069000244140625 54.193801879882812 77.481300354003906
76.682197570800781 46.114200592041016 85.541999816894531
89.139900207519531 58.286098480224609 72.704696655273438
91.563102722167969 60.759399414062500 70.051002502441406
90.691596984863281 58.928199768066406 72.338996887207031
89.674301147460938 57.940498352050781 73.356498718261719
92.493103027343750 62.713600158691406 67.510101318359375
83.600898742675781 52.524700164794922 78.833297729492187
90.192703247070312 58.416400909423828 72.844299316406250
88.094902038574219 56.707099914550781 74.501098632812500
91.081199645996094 60.235198974609375 70.535797119140625
85.209396362304688 53.352001190185547 78.238296508789063
83.102302551269531 52.028400421142578 79.331199645996094
89.629798889160156 58.771499633789063 72.072402954101563
90.595596313476563 59.730800628662109 71.036102294921875
82.595802307128906 51.520900726318359 79.817596435546875
86.614196777343750 56.015399932861328 74.847000122070313
85.542701721191406 52.797401428222656 79.104896545410156
92.064399719238281 62.202301025390625 67.970802307128906
87.576896667480469 56.184200286865234 74.967796325683594
90.107803344726563 59.226600646972656 71.528900146484375
87.640197753906250 51.078201293945313 82.418296813964844
86.113800048828125 55.488498687744141 75.331596374511719
87.087501525878906 55.658298492431641 75.454597473144531
84.610496520996094 52.790798187255859 78.602600097656250
85.108901977539063 53.685798645019531 77.488098144531250
87.130302429199219 52.574901580810547 79.898902893066406
87.519096374511719 52.219600677490234 80.529197692871094
85.087600708007812 52.203498840332031 79.539001464843750
87.257202148437500 50.483798980712891 82.897697448730469
86.096099853515625 54.830501556396484 76.098999023437500
85.591201782226563 54.338001251220703 76.589599609375000
86.202400207519531 52.383098602294922 79.665298461914062
84.998596191406250 47.192901611328125 86.746498107910156
87.646598815917969 51.566398620605469 81.402198791503906
85.861801147460938 47.971298217773437 85.936302185058594
78.572402954101563 47.082000732421875 84.343498229980469
84.101402282714844 51.767299652099609 79.615798950195312
82.057098388671875 50.450698852539063 80.715400695800781
81.512298583984375 49.953498840332031 81.197303771972656
86.879203796386719 49.894401550292969 83.389999389648438
97.541496276855469 62.029098510742187 69.907600402832031
78.020202636718750 46.571300506591797 84.728797912597656
83.607101440429688 51.222301483154297 80.077400207519531
86.731300354003906 51.916801452636719 80.232002258300781
85.591598510742188 51.690799713134766 80.047401428222656
79.488800048828125 47.515300750732422 83.703498840332031
84.110198974609375 46.123401641845703 87.501197814941406
83.113403320312500 50.652900695800781 80.496803283691406
86.475898742675781 49.188899993896484 83.946998596191406
84.594596862792969 51.271800994873047 80.161399841308594
80.632400512695313 48.619800567626953 82.461402893066406
81.118103027343750 49.106399536132813 81.934196472167969
86.986198425292969 51.248401641845703 81.043701171875000
87.075103759765625 50.638999938964844 81.946701049804688
84.107398986816406 50.689800262451172 80.559097290039063
85.974296569824219 48.172100067138672 84.935897827148438
97.958000183105469 61.390800476074219 70.397003173828125
86.078399658203125 51.176799774169922 80.520500183105469
80.255401611328125 47.724700927734375 83.175102233886719
86.729499816894531 49.995300292968750 82.370697021484375
98.593399047851563 61.059398651123047 70.921401977539063
85.098800659179688 50.722801208496094 80.616500854492187
85.497596740722656 47.158599853515625 85.925300598144531
82.586402893066406 49.497501373291016 81.232200622558594
86.374603271484375 49.284000396728516 83.006896972656250
86.469200134277344 50.257499694824219 81.552299499511719
83.610298156738281 49.697799682617188 81.115303039550781
85.572799682617188 50.186599731445313 81.042900085449219
86.059501647949219 48.638900756835938 83.441299438476562
84.594703674316406 49.726001739501953 81.136596679687500
82.088897705078125 48.557498931884766 81.836303710937500
84.992202758789063 46.167900085449219 86.424499511718750
81.553001403808594 48.035800933837891 82.287200927734375
81.047500610351563 47.541999816894531 82.795700073242188
85.783599853515625 47.992198944091797 83.876701354980469
85.956199645996094 49.265098571777344 82.057502746582031
85.501800537109375 47.158500671386719 84.940299987792969
85.073997497558594 49.178100585937500 81.533699035644531
83.101501464843750 48.489601135253906 81.710502624511719
84.103897094726563 48.706199645996094 81.635200500488281
85.582298278808594 48.127399444580078 82.945503234863281
85.002098083496094 46.163799285888672 85.435897827148438
85.268699645996094 48.424400329589844 82.233802795410156
85.312896728515625 47.440799713134766 83.294601440429687
85.109298706054688 46.604301452636719 84.426902770996094
82.125000000000000 47.121398925781250 82.469100952148438
83.109001159667969 47.487499237060547 82.198097229003906
84.977699279785156 47.733001708984375 82.563796997070312
84.080497741699219 47.732700347900391 82.160202026367188
84.649200439453125 47.060501098632812 82.880699157714844
83.580802917480469 46.705898284912109 82.604896545410156
77.447898864746094 33.900699615478516 85.080200195312500
76.539497375488281 33.770301818847656 84.499603271484375
79.041000366210938 34.268901824951172 85.580101013183594
78.253501892089844 34.340599060058594 85.139396667480469
76.387603759765625 33.805599212646484 83.512100219726563
76.981002807617188 34.237899780273438 84.003501892089844
77.609100341796875 34.606098175048828 84.430198669433594
78.654701232910156 35.057899475097656 84.827499389648438
76.728599548339844 34.551998138427734 82.869697570800781
77.282402038574219 34.949100494384766 86.163299560546875
77.122802734375000 35.098098754882813 83.418998718261719
79.525398254394531 35.657901763916016 85.120399475097656
77.936302185058594 35.681999206542969 84.138801574707031
78.095100402832031 35.778198242187500 86.729400634765625
78.562896728515625 36.130500793457031 84.509101867675781
77.046501159667969 35.678600311279297 86.803497314453125
78.884002685546875 35.670600891113281 87.588897705078125
80.232299804687500 36.061298370361328 85.825401306152344
77.508697509765625 36.137500762939453 83.542602539062500
80.865097045898438 35.527698516845703 87.308898925781250
78.053100585937500 35.980899810791016 87.507797241210938
76.574096679687500 36.104801177978516 82.984298706054687
78.100898742675781 36.606899261474609 83.945602416992188
79.599800109863281 36.609600067138672 84.950202941894531
78.067398071289063 37.106998443603516 89.378402709960938
77.580497741699219 36.673999786376953 87.329696655273437
77.662200927734375 37.653999328613281 88.930999755859375
77.074203491210938 38.168300628662109 88.320198059082031
77.136299133300781 39.633098602294922 89.914901733398437
80.901603698730469 36.706001281738281 88.430099487304688
76.586196899414063 40.124801635742187 89.374702453613281
81.053001403808594 36.623901367187500 87.436401367187500
80.698097229003906 36.573600769042969 86.372497558593750
81.417602539062500 37.673400878906250 88.445198059082031
79.034698486328125 37.150901794433594 84.574302673339844
80.431800842285156 37.189998626708984 85.602897644042969
81.187103271484375 37.575500488281250 86.900497436523438
76.046401977539062 38.150001525878906 84.177803039550781
81.502899169921875 38.140998840332031 87.451202392578125
81.535202026367188 38.624801635742188 88.928703308105469
80.101699829101563 37.608600616455078 84.943603515625000
76.561500549316406 37.081199645996094 83.572402954101563
78.559402465820312 37.631099700927734 84.044097900390625
77.548797607421875 37.106601715087891 83.589302062988281
80.826202392578125 38.016899108886719 85.803298950195313
76.763603210449219 38.540000915527344 84.148597717285156
76.175498962402344 39.083099365234375 84.527099609375000
79.574501037597656 38.131401062011719 84.521697998046875
77.640403747558594 38.086200714111328 83.665298461914062
78.646598815917969 38.587501525878906 83.837600708007813
80.573997497558594 38.625801086425781 84.974700927734375
76.995597839355469 39.659698486328125 84.198600769042969
81.940299987792969 39.179698944091797 87.959503173828125
81.680603027343750 39.073200225830078 86.901802062988281
77.605499267578125 39.101299285888672 83.802200317382813
81.242301940917969 39.043998718261719 85.855499267578125
81.995796203613281 39.643798828125000 88.935699462890625
76.488601684570312 40.649398803710938 84.735397338867187
80.111602783203125 39.103401184082031 84.431297302246094
77.632797241210938 40.096900939941406 83.972801208496094
78.644599914550781 39.586498260498047 83.742401123046875
79.565498352050781 39.633399963378906 84.066200256347656
81.053596496582031 39.631801605224609 84.961601257324219
77.139297485351562 41.092998504638672 84.465202331542969
82.226997375488281 40.048801422119141 87.394302368164063
76.618698120117187 41.599498748779297 84.933296203613281
81.992500305175781 40.167301177978516 86.475303649902344
81.530403137207031 40.142501831054687 85.470901489257813
78.619499206542969 40.596599578857422 83.793601989746094
80.656303405761719 40.067901611328125 84.339103698730469
76.060203552246094 42.117298126220703 85.333702087402344
76.199096679687500 43.086601257324219 85.557502746582031
76.712600708007813 42.575500488281250 85.085098266601563
77.262901306152344 42.047500610351563 84.652198791503906
82.612098693847656 40.602298736572266 87.926101684570313
77.763900756835938 41.546501159667969 84.155799865722656
78.606796264648438 41.604900360107422 83.894699096679688
82.019302368164063 41.159099578857422 85.478103637695313
81.294097900390625 40.498699188232422 84.764900207519531
79.621398925781250 40.595600128173828 83.884201049804688
82.593101501464844 45.522499084472656 87.703102111816406
83.575202941894531 45.538299560546875 87.744903564453125
76.634201049804688 45.101600646972656 85.466903686523438
77.646400451660156 45.605300903320313 84.992103576660156
78.629203796386719 46.104598999023438 84.460197448730469
80.007499694824219 46.551101684570313 83.723503112792969
79.473800659179687 46.060699462890625 84.123802185058594
83.583503723144531 44.592201232910156 87.842903137207031
76.142196655273438 44.093898773193359 85.486000061035156
82.666999816894531 44.089199066162109 88.040000915527344
77.636398315429688 44.598800659179688 84.970497131347656
78.643501281738281 45.100101470947266 84.495399475097656
84.455299377441406 44.942901611328125 86.923400878906250
76.980598449707031 44.111900329589844 85.153297424316406
80.653198242187500 46.122898101806641 83.511001586914062
84.690803527832031 45.560100555419922 85.921203613281250
80.078002929687500 45.590999603271484 83.841003417968750
81.609298706054688 46.597099304199219 82.914497375488281
83.503601074218750 43.631401062011719 87.705398559570313
82.114196777343750 42.600799560546875 88.426803588867187
84.633300781250000 45.590301513671875 84.921600341796875
84.310997009277344 44.764499664306641 85.944702148437500
79.493499755859375 44.611198425292969 84.133903503417969
84.625999450683594 46.092201232910156 83.919601440429688
84.028602600097656 44.143501281738281 86.434196472167969
82.603202819824219 46.044700622558594 82.796203613281250
83.761802673339844 43.529201507568359 86.898002624511719
84.033897399902344 46.207199096679688 83.074401855468750
81.138397216796875 45.116901397705078 83.491699218750000
78.146499633789063 43.589801788330078 84.486999511718750
83.031997680664063 42.600898742675781 87.851196289062500
77.514503479003906 43.135601043701172 84.748596191406250
84.156600952148438 45.071800231933594 84.406501770019531
83.956703186035156 44.200698852539063 85.468200683593750
83.858703613281250 45.349399566650391 83.675102233886719
79.012397766113281 43.640800476074219 84.180397033691406
80.100700378417969 44.099700927734375 83.865798950195313
82.075401306152344 45.037998199462891 83.217597961425781
83.060501098632812 45.248798370361328 83.225502014160156
83.676300048828125 43.563598632812500 85.910003662109375
83.350303649902344 42.756000518798828 86.499198913574219
81.064201354980469 44.064800262451172 83.671501159667969
83.544998168945313 44.156200408935547 84.466300964355469
83.233703613281250 44.463699340820312 83.750099182128906
78.047401428222656 42.625701904296875 84.310302734375000
83.103897094726563 42.106899261474609 86.928100585937500
82.139198303222656 44.011600494384766 83.726898193359375
83.252998352050781 43.493198394775391 84.844902038574219
82.833900451660156 41.490699768066406 87.376197814941406
82.929397583007813 43.760200500488281 84.063201904296875
80.106201171875000 43.102500915527344 83.794097900390625
82.995903015136719 42.684600830078125 85.484001159667969
79.108100891113281 42.604598999023438 83.901802062988281
82.637496948242188 43.081100463867188 84.404403686523438
81.107002258300781 43.075000762939453 83.761703491210937
82.737998962402344 42.020401000976563 85.871299743652344
82.477203369140625 41.178699493408203 86.478202819824219
81.998100280761719 42.699501037597656 84.040496826171875
82.198898315429688 42.041000366210938 84.869102478027344
80.617996215820313 42.092498779296875 83.857398986816406
79.622299194335937 41.594501495361328 83.776000976562500
81.324302673339844 41.451000213623047 84.204101562500000
80.593597412109375 41.125099182128906 84.044502258300781
