ply
format ascii 1.0
element vertex 206
property double x
property double y
property double z
end_header
-44.198633829752602 -168.541997273763030 -643.926676432291630
-48.011474609375000 -163.346748352050780 -642.483505249023440
-46.547934214274086 -164.521331787109370 -644.001668294270870
-57.082928248814177 -162.612570626395100 -634.343418666294610
-53.382144080268013 -162.220555623372410 -634.734110514322880
-57.683106831141878 -163.433927263532350 -627.779929024832540
-54.150634765625000 -164.858662923177090 -627.114990234375000
-57.544338519756607 -169.846691425030060 -619.835392878605720
-61.845199584960938 -161.243998209635410 -621.147989908854130
-58.889021192278179 -163.610642569405680 -621.187002999441920
-63.473248481750488 -174.290752410888670 -612.716995239257810
-61.787874221801758 -173.006999969482420 -612.453491210937500
-60.025781458074398 -169.873637806285500 -613.042724609375000
-62.792641775948660 -162.172997610909590 -613.460571289062500
-59.398333549499512 -164.916834513346340 -614.524586995442750
-62.966174761454262 -170.653583526611330 -606.503585815429690
-60.814701080322266 -168.972000122070310 -609.416015625000000
-62.364324887593590 -162.600001017252590 -606.685999552408820
-60.838525772094727 -164.691501617431640 -607.707244873046870
-64.269599914550781 -159.121994018554690 -605.197998046875000
-69.941123962402344 -168.357997894287110 -597.987762451171870
-64.446040649414059 -169.720519409179700 -599.737841796875050
-68.582199096679688 -166.582992553710940 -597.171997070312500
-63.250553717980019 -163.600000234750610 -599.576308030348510
-62.991500854492188 -159.162002563476560 -601.044006347656250
-70.755996704101563 -174.401000976562500 -595.442993164062500
-69.642756870814736 -170.614425659179690 -593.770996093750000
-64.825999704996747 -169.400066121419260 -592.899796549479220
-64.171934000651035 -164.405600992838540 -592.597599283854150
-59.992114748273579 -162.089785984584270 -592.034785679408510
-61.919399261474609 -159.483001708984370 -589.377990722656250
-57.668324470520020 -158.844001770019530 -592.713500976562500
-71.323100619845917 -171.207110934787320 -585.165669759114620
-64.248782779859454 -168.985783452573030 -586.668868355129120
-62.411998748779297 -163.744499206542970 -587.464019775390620
-58.278052375430150 -163.885191417875750 -585.634710402715770
-54.206523895263672 -162.583747863769530 -584.694488525390620
-71.699228559221538 -169.821001325334830 -579.535723005022310
-64.429371152605327 -169.590001787458140 -578.808637346540190
-59.001378377278648 -167.647552490234370 -577.692220052083370
-53.230400085449219 -167.932495117187500 -577.196502685546870
-57.338910844590927 -165.940890842013890 -580.164001464843750
-54.158699035644531 -166.595993041992190 -578.931030273437500
-70.323385511125835 -168.595143999372200 -571.750706263950860
-64.232144673665360 -170.580556233723970 -571.159335666232660
-58.617473255504258 -169.271091807972310 -571.370716441761370
-52.663027329878375 -168.438544533469470 -572.273726029829500
-70.795461214505707 -168.936154879056490 -564.759934645432740
-65.496270106388977 -171.602232712965760 -564.906461275540890
-57.811618804931641 -170.162937164306640 -564.955181121826170
-53.170239257812497 -167.553598022460930 -565.527600097656200
-51.610420989990232 -165.856201171875000 -563.241003417968730
-70.903933207194015 -174.718663533528660 -555.516337076822880
-64.575276888333832 -175.101540198692900 -556.567227877103390
-60.631583531697594 -175.101000467936190 -556.350341796875000
-70.979445023970172 -172.252362337979410 -558.816456187855120
-64.772471836635049 -172.583284650530150 -559.787135532924140
-57.888472239176430 -170.778944227430540 -557.915442572699700
-54.089649200439453 -167.276000976562500 -560.158508300781250
-56.616800308227539 -165.883499145507810 -559.309997558593750
-52.221666971842446 -164.531005859375000 -559.876017252604130
-71.007338523864746 -182.857749938964840 -549.447624206542970
-67.367101033528641 -181.527669270833340 -548.218994140625000
-71.329663957868306 -178.471429007393970 -552.078504289899570
-65.240709877014154 -178.458850097656240 -551.016406250000050
-59.899499893188477 -177.124000549316410 -551.087059020996090
-57.735942840576172 -170.829786028180790 -551.622855050223170
-55.546501159667969 -164.950500488281250 -553.285522460937500
-70.979732937282989 -185.006000094943570 -544.261664496527830
-65.382622824774842 -183.279166327582460 -543.854227701822880
-59.980580902099611 -181.748199462890620 -542.668615722656230
-62.390701293945313 -180.649002075195310 -546.890014648437500
-58.862661801851715 -177.418998131385220 -544.267456054687500
-58.713454026442307 -170.658000065730160 -544.777146559495240
-71.037620544433594 -184.817800903320320 -537.611791992187480
-65.235953110914963 -185.348923903245180 -536.883225661057740
-58.028793970743813 -184.410111321343320 -536.289337158203120
-58.769450187683105 -176.768999735514310 -537.062917073567750
-60.426333745320640 -171.828000386556000 -537.899332682291630
-62.205724716186523 -188.458499908447270 -529.127487182617190
-57.097480410621280 -190.093999953497020 -529.213338216145870
-53.714550018310547 -189.680252075195310 -527.236495971679690
-70.141098022460938 -184.557001749674470 -531.186319986979130
-65.571799142020083 -186.324070521763390 -530.492579868861640
-55.468590545654294 -184.119801330566420 -531.583996582031200
-53.269532839457192 -184.339664459228520 -528.190002441406250
-56.157217892733485 -176.777274391867910 -530.800004438920500
-53.207000096639000 -178.418828328450530 -527.915171305338500
-58.595600128173828 -173.309497833251950 -532.070999145507810
-57.458351135253906 -195.541999816894530 -519.569000244140630
-52.067674636840820 -195.883750915527340 -520.009490966796870
-63.771385737827849 -190.163857596261150 -522.075849260602690
-58.966818376020953 -193.082090897993600 -522.824551669034120
-50.767583211263023 -191.299748738606780 -522.872085571289060
-44.366331736246742 -189.037999471028660 -520.870340983072880
-64.653297424316406 -187.712005615234370 -525.328002929687500
-49.954464231218608 -184.292713710239950 -524.670144217354960
-45.572550455729164 -185.203168233235690 -522.034678141276000
-50.216499328613281 -179.123001098632810 -525.247009277343750
-51.200599670410156 -202.626502990722660 -512.850753784179690
-63.417226473490395 -198.077418009440090 -514.967910766601560
-57.807932959662544 -198.767388237847230 -515.980004204644050
-50.486975097656249 -199.185750579833980 -515.902099609375000
-44.165552641216074 -197.729052091899660 -514.800630268297710
-40.266651153564453 -197.504997253417970 -514.347991943359380
-63.577574729919434 -193.694000244140620 -518.202239990234370
-60.101600646972656 -194.770996093750000 -518.849975585937500
-48.487800598144531 -194.841003417968750 -518.880004882812500
-45.067466735839844 -192.837336222330720 -518.190327962239620
-43.388999938964844 -210.036499023437500 -506.046508789062500
-63.283748626708984 -201.968498229980470 -507.401000976562500
-56.070362567901611 -203.013248443603520 -508.207744598388670
-50.627894008860871 -205.493235868566190 -508.625531364889700
-43.734604922207922 -205.265454378995030 -508.316409024325310
-39.836966196695961 -203.796333312988280 -505.943339029947940
-62.754024505615234 -201.224246978759770 -509.734489440917970
-59.840224266052246 -201.700748443603520 -509.810249328613280
-42.927779388427737 -201.329000854492190 -511.074194335937480
-38.620670318603516 -200.372499084472650 -508.463903808593730
-38.654866536458336 -226.452331542968750 -498.862345377604190
-50.071900685628258 -216.747665405273440 -498.766998291015620
-43.570200443267822 -218.655376434326170 -499.917373657226560
-38.195614406040740 -217.676140921456470 -499.250283377511150
-55.463971819196431 -210.328571864536830 -499.307861328125000
-51.122729142506920 -212.081832249959320 -501.045955657958980
-43.654682795206703 -211.288503011067720 -503.869166056315120
-38.051249694824222 -212.345650482177750 -500.210899353027340
-56.789964675903320 -205.049216134207600 -501.607572283063630
-52.515299987792972 -206.932901000976560 -503.289102172851590
-40.534301757812500 -207.031005859375000 -504.981994628906250
-37.713705623851105 -205.101882036994480 -502.206530402688430
-36.171166737874351 -201.117665608723970 -503.240336100260440
-7.996853510538737 -290.444000244140620 -494.480000813802060
-4.698890066146850 -290.073797607421850 -493.744409179687520
-36.762687683105469 -231.900251388549800 -493.587131500244140
-31.884316126505535 -233.486994425455720 -491.942331949869810
-42.977918386459351 -225.129751205444340 -493.549377441406250
-36.445779927571614 -225.895135498046870 -495.386600748697900
-31.469778605869838 -226.516571044921870 -493.120498657226560
-54.473201751708984 -217.447006225585940 -495.489990234375000
-50.619476542753333 -219.443055994370410 -495.196470372817090
-44.746410793728302 -221.231555514865450 -496.591111924913210
-35.115372975667320 -219.240731811523430 -496.612137858072910
-31.632809829711913 -218.680101013183590 -494.743395996093740
-57.114183425903320 -211.616500854492190 -497.597666422526060
-52.739700317382813 -215.785995483398440 -498.166992187500000
-34.871764591761995 -212.571427481515060 -496.738141741071440
-31.599599838256836 -214.483835856119780 -495.312169392903630
-13.808209991455078 -288.515301513671890 -487.132598876953120
-9.106569290161133 -289.082695594200740 -487.975923978365360
-15.309549967447916 -282.263168334960940 -487.138000488281250
-8.053874284029007 -282.148557662963870 -486.522249221801760
-4.485892415046692 -282.593254089355470 -489.266242980957030
-19.829380035400391 -273.769604492187510 -486.603796386718730
-15.314707682682918 -275.507692777193480 -486.298309326171870
-10.307283560434977 -276.955998738606750 -485.507003784179690
-21.311174869537354 -269.264125823974610 -485.162246704101560
-16.600850025812786 -267.893168131510440 -485.501162211100280
-23.389869880676269 -260.894500732421870 -485.316503906249980
-17.793621910942925 -261.600446912977420 -485.082444932725710
-28.199174880981445 -254.117252349853520 -485.167121887207030
-21.567266464233398 -253.896332634819880 -485.588112725151920
-18.191225051879883 -255.765754699707030 -484.507743835449220
-33.870149612426758 -245.951995849609370 -484.880493164062500
-30.684649785359699 -247.703749338785800 -486.791249593098940
-23.781803894042969 -247.217678833007820 -486.132718505859370
-18.222400665283203 -245.000000000000000 -484.514007568359370
-35.031676659217247 -239.899999765249390 -487.197695218599730
-29.286958694458008 -239.666294771082250 -489.032294778262890
-24.217192614520037 -240.386482521339700 -486.498035572193260
-41.099399566650391 -229.953002929687500 -485.239013671875000
-38.122210820515953 -233.283388773600250 -488.017552693684880
-28.584163063450863 -233.236895109477790 -489.165578741776300
-24.900860595703126 -234.301397705078130 -486.704803466796870
-48.163700103759766 -222.973999023437500 -488.174987792968750
-43.899377476085313 -226.737045981667250 -487.936316750266310
-28.340119934082033 -228.301202392578120 -489.874206542968750
-26.150600433349609 -229.177993774414060 -487.303985595703120
-49.204700469970703 -221.995002746582030 -490.130493164062500
-13.375410175323486 -288.570196533203100 -481.580599975585930
-15.203626759847005 -282.895998128255200 -481.232802327473960
-20.409100055694580 -274.298503875732420 -482.179626464843750
-18.625516573588055 -277.428833007812500 -480.714998881022150
-9.554854393005371 -274.100219726562500 -482.606224907769100
-26.936649799346924 -266.807243347167970 -479.887504577636720
-23.937899971008299 -269.197299194335930 -481.409701538085930
-14.253269268916203 -267.543924184945920 -482.763385479266840
-11.418160057067871 -269.573797607421850 -480.870397949218730
-28.820887446403503 -260.974937438964840 -481.283311843872070
-24.122925281524658 -262.601501464843750 -483.525245666503910
-15.763416528701782 -261.380332946777340 -483.104670206705750
-34.453050613403320 -251.265495300292970 -478.300506591796870
-30.561462283134460 -254.340498924255370 -481.839813232421870
-19.777866363525391 -254.393997192382810 -483.796671549479190
-17.654800121600811 -253.877922644981960 -482.590153620793270
-35.440783182779946 -247.285416920979830 -481.716997782389340
-32.796001434326172 -249.557006835937500 -483.615997314453120
-20.905883789062500 -247.164332071940090 -483.557327270507810
-18.384349822998047 -249.175994873046870 -483.033004760742190
-36.514467027452255 -241.354332817925350 -482.323550754123290
-21.055000623067219 -240.168167114257810 -483.479670206705750
-39.323900222778320 -232.138504028320310 -483.208496093750000
-42.288599967956543 -228.093750000000000 -482.659500122070310
-16.122699737548828 -281.019012451171880 -477.187011718750000
-17.546950340270996 -278.401000976562500 -476.498001098632810
-26.128900527954102 -270.781005859375000 -476.983001708984370
