ply
format ascii 1.0
element vertex 270
property double x
property double y
property double z
end_header
8.259449958801270 -12.436699867248535 -14.578800201416016
7.713449954986572 -12.008700370788574 -14.462800025939941
7.627449989318848 -12.135700225830078 -14.467800140380859
7.479440212249756 -12.409700393676758 -14.462800025939941
7.443449974060059 -12.123700141906738 -14.483799934387207
7.524449825286865 -12.019700050354004 -14.494799613952637
7.616449832916260 -12.351699829101563 -14.482799530029297
7.519450187683106 -12.249699592590332 -14.497799873352051
8.025449752807617 -12.426699638366699 -14.456800460815430
7.826449871063232 -12.161700248718262 -14.487799644470215
7.950449943542481 -12.128700256347656 -14.494799613952637
8.004449844360352 -12.276700019836426 -14.491800308227539
7.383440017700195 -12.512700080871582 -14.523799896240234
8.154439926147461 -12.495699882507324 -14.473799705505371
8.076450347900391 -12.166700363159180 -14.497799873352051
7.751440048217773 -12.314700126647949 -14.512800216674805
7.771440029144287 -11.895700454711914 -14.538800239562988
8.151450157165527 -12.282699584960938 -14.491800308227539
8.346449851989746 -12.415699958801270 -14.474800109863281
7.395450115203857 -12.278699874877930 -14.548800468444824
7.308450222015381 -12.118700027465820 -14.564800262451172
7.860449790954590 -12.012700080871582 -14.534799575805664
8.171449661254883 -12.022700309753418 -14.514800071716309
8.320440292358398 -12.020700454711914 -14.511799812316895
8.539449691772461 -11.899700164794922 -14.503800392150879
8.773449897766113 -11.770700454711914 -14.497799873352051
8.420450210571289 -12.112700462341309 -14.509799957275391
7.397439956665039 -12.007699966430664 -14.586799621582031
8.279439926147461 -12.214699745178223 -14.515800476074219
8.477450370788574 -12.370699882507324 -14.494799613952637
7.998449802398682 -12.016699790954590 -14.554800033569336
8.544449806213379 -12.057700157165527 -14.516799926757813
7.913449764251709 -12.353699684143066 -14.546799659729004
8.568449974060059 -12.251700401306152 -14.516799926757813
8.408450126647949 -11.839699745178223 -14.552800178527832
8.288450241088867 -11.896699905395508 -14.559800148010254
8.912449836730957 -11.819700241088867 -14.521800041198730
8.861439704895020 -11.658699989318848 -14.534799575805664
8.691450119018555 -12.034700393676758 -14.528800010681152
8.707449913024902 -11.669699668884277 -14.548800468444824
8.592439651489258 -11.767700195312500 -14.552800178527832
7.252449989318848 -12.246700286865234 -14.626799583435059
7.230440139770508 -12.009699821472168 -14.642800331115723
9.039449691772461 -11.770700454711914 -14.539799690246582
7.172450065612793 -12.134699821472168 -14.646800041198730
8.129449844360352 -12.394700050354004 -14.569800376892090
7.652450084686279 -12.341699600219727 -14.610799789428711
8.817449569702148 -11.993700027465820 -14.557800292968750
8.703439712524414 -12.211700439453125 -14.556799888610840
8.432439804077148 -12.474699974060059 -14.560799598693848
8.636449813842773 -12.379699707031250 -14.553799629211426
8.259449958801270 -12.436699867248535 -14.578800201416016
7.345449924468994 -12.464699745178223 -14.639800071716309
8.982449531555176 -11.619700431823730 -14.575799942016602
8.187450408935547 -11.843700408935547 -14.619799613952637
7.550439834594727 -11.950699806213379 -14.657799720764160
7.684450149536133 -11.908699989318848 -14.655799865722656
7.792439937591553 -12.255700111389160 -14.630800247192383
7.883440017700195 -11.893699645996094 -14.651800155639648
8.015439987182617 -12.311699867248535 -14.620800018310547
8.823450088500977 -12.261699676513672 -14.574799537658691
8.980440139770508 -11.923700332641602 -14.584799766540527
9.169449806213379 -11.738699913024902 -14.586799621582031
8.036439895629883 -11.864700317382812 -14.656800270080566
8.835439682006836 -12.129699707031250 -14.589799880981445
7.464449882507324 -12.405699729919434 -14.667799949645996
8.484450340270996 -11.719699859619141 -14.637800216674805
8.312450408935547 -11.795700073242187 -14.651800155639648
8.948450088500977 -12.066699981689453 -14.603799819946289
7.174439907073975 -12.359700202941895 -14.710800170898438
8.205450057983398 -12.309700012207031 -14.643799781799316
8.832449913024902 -12.397700309753418 -14.602800369262695
7.064439773559570 -12.112700462341309 -14.740799903869629
7.339449882507324 -11.970700263977051 -14.734800338745117
7.543439865112305 -12.303700447082520 -14.704799652099609
7.927450180053711 -12.213700294494629 -14.686800003051758
8.083439826965332 -12.217700004577637 -14.677800178527832
8.384449958801270 -12.390700340270996 -14.647800445556641
8.964449882507324 -12.257699966430664 -14.623800277709961
9.126440048217773 -11.614700317382813 -14.650799751281738
7.630449771881104 -12.205699920654297 -14.719799995422363
8.533450126647949 -12.438699722290039 -14.647800445556641
7.170450210571289 -11.964699745178223 -14.769800186157227
9.145449638366699 -11.897700309753418 -14.639800071716309
7.811450004577637 -12.100700378417969 -14.722800254821777
9.055450439453125 -12.156700134277344 -14.639800071716309
7.663449764251709 -12.060700416564941 -14.741800308227539
7.947450160980225 -12.021699905395508 -14.724800109863281
8.205450057983398 -12.182700157165527 -14.700799942016602
7.048449993133545 -12.265700340270996 -14.774800300598145
9.153440475463867 -12.030699729919434 -14.652799606323242
7.531449794769287 -12.063699722290039 -14.762800216674805
8.161439895629883 -11.952699661254883 -14.731800079345703
8.103449821472168 -12.091699600219727 -14.737799644470215
8.343449592590332 -12.239700317382813 -14.713800430297852
7.224440097808838 -12.534700393676758 -14.773799896240234
8.920450210571289 -11.645700454711914 -14.707799911499023
7.438439846038818 -12.273699760437012 -14.773799896240234
8.722439765930176 -12.423700332641602 -14.682800292968750
8.639439582824707 -11.760700225830078 -14.726799964904785
8.287449836730957 -11.928700447082520 -14.743800163269043
8.490449905395508 -12.330699920654297 -14.712800025939941
9.288450241088867 -11.695699691772461 -14.695799827575684
9.239450454711914 -12.142700195312500 -14.674799919128418
7.325449943542481 -12.420700073242188 -14.789799690246582
9.268449783325195 -11.859700202941895 -14.690799713134766
8.529439926147461 -11.836700439453125 -14.746800422668457
7.406449794769287 -12.125699996948242 -14.808799743652344
8.284449577331543 -12.059700012207031 -14.754799842834473
8.771439552307129 -11.703700065612793 -14.744799613952637
8.415450096130371 -11.895700454711914 -14.762800216674805
7.005449771881104 -12.161700248718262 -14.844799995422363
9.062450408935547 -12.301699638366699 -14.703800201416016
7.288449764251709 -12.039699554443359 -14.839799880981445
9.363439559936523 -12.177700042724609 -14.695799827575684
7.095449924468994 -12.504699707031250 -14.833800315856934
9.329449653625488 -12.044699668884277 -14.708800315856934
8.648449897766113 -12.326700210571289 -14.740799903869629
8.416449546813965 -12.035699844360352 -14.772800445556641
8.492449760437012 -12.167699813842773 -14.764800071716309
6.933450222015381 -12.273699760437012 -14.866800308227539
8.933449745178223 -12.332699775695801 -14.727800369262695
7.000440120697022 -12.398699760437012 -14.858799934387207
7.105440139770508 -12.017700195312500 -14.876799583435059
9.400449752807617 -11.931699752807617 -14.734800338745117
7.289450168609619 -12.264699935913086 -14.862799644470215
8.570440292358398 -12.030699729919434 -14.789799690246582
8.653440475463867 -11.884699821472168 -14.793800354003906
9.214449882507324 -11.588700294494629 -14.773799896240234
8.807439804077148 -12.280699729919434 -14.765800476074219
8.682439804077148 -12.205699920654297 -14.780799865722656
9.381449699401856 -11.616700172424316 -14.768799781799316
9.179450035095215 -12.224699974060059 -14.757800102233887
8.702440261840820 -12.019700050354004 -14.805800437927246
8.849439620971680 -11.787699699401855 -14.813799858093262
9.488439559936523 -11.790699958801270 -14.771800041198730
7.196440219879150 -12.127699851989746 -14.910799980163574
9.824449539184570 -12.019700050354004 -14.738800048828125
7.008440017700195 -12.702699661254883 -14.892800331115723
7.219449996948242 -12.367699623107910 -14.900799751281738
6.888450145721436 -12.379699707031250 -14.923800468444824
9.898449897766113 -11.892700195312500 -14.747799873352051
8.819450378417969 -12.137700080871582 -14.808799743652344
10.013400077819824 -11.970700263977051 -14.739800453186035
9.428449630737305 -12.101699829101562 -14.777799606323242
9.597439765930176 -11.707699775695801 -14.789799690246582
8.822449684143066 -11.923700332641602 -14.838800430297852
6.925439834594727 -12.507699966430664 -14.935799598693848
9.004449844360352 -11.728699684143066 -14.838800430297852
9.117449760437012 -11.645700454711914 -14.836799621582031
9.532449722290039 -11.589699745178223 -14.817799568176270
8.901450157165527 -12.026700019836426 -14.836799621582031
9.019450187683106 -12.136699676513672 -14.824799537658691
9.533450126647949 -11.993700027465820 -14.799799919128418
7.063439846038818 -12.134699821472168 -14.968799591064453
6.916450023651123 -12.196700096130371 -14.976799964904785
6.895450115203857 -12.632699966430664 -14.956800460815430
7.168439865112305 -12.247699737548828 -14.960800170898438
7.084440231323242 -12.599699974060059 -14.947799682617187
9.664449691772461 -11.556699752807617 -14.836799621582031
9.235449790954590 -12.082699775695801 -14.840800285339355
8.998450279235840 -11.935700416564941 -14.865799903869629
10.165399551391602 -11.930700302124023 -14.787799835205078
9.712450027465820 -11.956700325012207 -14.821800231933594
9.306440353393555 -11.589699745178223 -14.872799873352051
9.693449974060059 -11.803700447082520 -14.834799766540527
9.828439712524414 -11.811699867248535 -14.826800346374512
9.111439704895020 -12.026700019836426 -14.865799903869629
9.763449668884277 -11.645700454711914 -14.845800399780273
6.812449932098389 -12.543700218200684 -14.997799873352051
9.352450370788574 -12.028699874877930 -14.854800224304199
7.090439796447754 -12.388699531555176 -15.000800132751465
6.817450046539307 -12.262700080871582 -15.026800155639648
6.759449958801270 -12.403699874877930 -15.023799896240234
9.794449806213379 -11.495699882507324 -14.872799873352051
9.134449958801270 -11.863699913024902 -14.897800445556641
6.954450130462647 -12.756699562072754 -14.999799728393555
9.240449905395508 -11.750699996948242 -14.914799690246582
9.279439926147461 -11.917699813842773 -14.904800415039063
9.579449653625488 -11.473699569702148 -14.909799575805664
10.057399749755859 -11.941699981689453 -14.857799530029297
10.023400306701660 -11.776700019836426 -14.869799613952637
9.448450088500977 -11.915699958801270 -14.909799575805664
9.431440353393555 -11.568699836730957 -14.930800437927246
6.989449977874756 -12.565699577331543 -15.042799949645996
6.818449974060059 -12.773699760437012 -15.044799804687500
6.719449996948242 -12.631699562072754 -15.062800407409668
7.017449855804443 -12.223699569702148 -15.065799713134766
9.845450401306152 -11.946700096130371 -14.890800476074219
9.586449623107910 -11.897700309753418 -14.913800239562988
9.915450096130371 -11.619700431823730 -14.917799949645996
9.386449813842773 -11.728699684143066 -14.947799682617187
6.655449867248535 -12.479700088500977 -15.093799591064453
6.708439826965332 -12.303700447082520 -15.114800453186035
9.701450347900391 -11.434700012207031 -14.960800170898438
9.925439834594727 -11.406700134277344 -14.948800086975098
6.986440181732178 -12.350700378417969 -15.096799850463867
9.511449813842773 -11.730699539184570 -14.977800369262695
9.562450408935547 -11.585700035095215 -14.992799758911133
9.689439773559570 -11.833700180053711 -14.973799705505371
6.693449974060059 -12.756699562072754 -15.128800392150879
6.873449802398682 -12.233699798583984 -15.155799865722656
6.591440200805664 -12.659700393676758 -15.154800415039063
6.851449966430664 -12.557700157165527 -15.142800331115723
6.553450107574463 -12.520700454711914 -15.165800094604492
6.602449893951416 -12.354700088500977 -15.172800064086914
10.026399612426758 -11.626700401306152 -14.992799758911133
9.959440231323242 -11.874699592590332 -14.994799613952637
9.627449989318848 -11.697699546813965 -15.029800415039063
6.868440151214600 -12.387700080871582 -15.180800437927246
10.081399917602539 -11.832699775695801 -15.000800132751465
10.008399963378906 -11.465700149536133 -15.035799980163574
9.828439712524414 -11.463700294494629 -15.051799774169922
9.740449905395508 -11.557700157165527 -15.053799629211426
9.839449882507324 -11.818699836730957 -15.032799720764160
6.668439865112305 -12.230699539184570 -15.226799964904785
6.450449943542481 -12.423700332641602 -15.247799873352051
6.711450099945068 -12.622699737548828 -15.219799995422363
6.772439956665039 -12.466699600219727 -15.225799560546875
6.472439765930176 -12.648699760437012 -15.244799613952637
9.773449897766113 -11.701700210571289 -15.074799537658691
6.327439785003662 -12.433699607849121 -15.285799980163574
10.087400436401367 -11.701700210571289 -15.080800056457520
10.117400169372559 -11.559700012207031 -15.086799621582031
6.419449806213379 -12.301699638366699 -15.307800292968750
9.968449592590332 -11.762700080871582 -15.097800254821777
6.716440200805664 -12.350700378417969 -15.296799659729004
9.927450180053711 -11.505700111389160 -15.136799812316895
6.650450229644775 -12.493700027465820 -15.306799888610840
6.583439826965332 -12.617699623107910 -15.307800292968750
6.198450088500977 -12.364700317382812 -15.368800163269043
6.559450149536133 -12.260700225830078 -15.365799903869629
6.290450096130371 -12.588700294494629 -15.366800308227539
6.375440120697022 -12.691699981689453 -15.355799674987793
6.330450057983398 -12.266699790954590 -15.405799865722656
6.251440048217773 -12.742699623107910 -15.386799812316895
9.956450462341309 -11.615699768066406 -15.211799621582031
10.189399719238281 -11.474699974060059 -15.203800201416016
6.551449775695801 -12.456700325012207 -15.405799865722656
10.024399757385254 -11.502699851989746 -15.229800224304199
6.110449790954590 -12.401700019836426 -15.456800460815430
6.179450035095215 -12.547699928283691 -15.454799652099609
6.439439773559570 -12.605699539184570 -15.447799682617188
10.073399543762207 -11.632699966430664 -15.270799636840820
10.209400177001953 -11.710700035095215 -15.261799812316895
6.468450069427490 -12.364700317382812 -15.484800338745117
10.302399635314941 -11.597700119018555 -15.271800041198730
6.233449935913086 -12.276700019836426 -15.537799835205078
6.081449985504150 -12.503700256347656 -15.551799774169922
10.124400138854980 -11.530699729919434 -15.333800315856934
6.357450008392334 -12.319700241088867 -15.553799629211426
6.164450168609619 -12.759699821472168 -15.560799598693848
6.368440151214600 -12.559700012207031 -15.567799568176270
6.316450119018555 -12.680700302124023 -15.566800117492676
6.135449886322022 -12.621700286865234 -15.589799880981445
6.028439998626709 -12.445699691772461 -15.655799865722656
6.196440219879150 -12.330699920654297 -15.670800209045410
6.279439926147461 -12.441699981689453 -15.685799598693848
6.074450016021729 -12.578700065612793 -15.707799911499023
6.216440200805664 -12.703700065612793 -15.696800231933594
5.998449802398682 -12.489700317382813 -15.799799919128418
6.216440200805664 -12.495699882507324 -15.803799629211426
6.112440109252930 -12.719699859619141 -15.807800292968750
6.085440158843994 -12.400699615478516 -15.838800430297852
6.045450210571289 -12.620699882507324 -15.876799583435059
6.184450149536133 -12.599699974060059 -15.873800277709961
5.979440212249756 -12.468700408935547 -15.948800086975098
6.113440036773682 -12.461700439453125 -15.948800086975098
6.020450115203857 -12.577699661254883 -16.004800796508789
5.965439796447754 -12.463700294494629 -16.092800140380859
