ply
format ascii 1.0
element vertex 739
property double x
property double y
property double z
end_header
-64.112197875976562 -854.479980468750000 -362.881011962890620
-60.566699981689453 -853.023010253906250 -366.873992919921870
-58.451400756835938 -854.541015625000000 -362.641998291015620
-67.952499389648438 -850.398010253906250 -365.177001953125000
-65.606796264648437 -848.375000000000000 -361.173004150390620
-63.536899566650391 -852.419982910156250 -356.671997070312500
-60.743400573730469 -856.989013671875000 -356.919006347656250
-64.397598266601563 -852.533996582031250 -370.639007568359370
-70.222602844238281 -853.023010253906250 -370.523986816406250
-69.066802978515625 -844.895996093750000 -363.916992187500000
-72.401298522949219 -848.601989746093750 -366.750000000000000
-54.446701049804687 -856.961975097656250 -356.946990966796870
-64.912300109863281 -844.692016601562500 -356.559997558593750
-64.861396789550781 -852.672973632812500 -350.882995605468750
-64.327697753906250 -858.604003906250000 -350.605987548828120
-62.358699798583984 -852.578002929687500 -376.699005126953120
-76.415603637695313 -854.466003417968750 -370.653015136718750
-78.300697326660156 -850.710998535156250 -366.415008544921880
-67.204002380371094 -836.796997070312500 -358.285003662109370
-70.338096618652344 -838.603027343750000 -362.777008056640620
-65.244003295898438 -840.666015625000000 -350.738006591796870
-65.720497131347656 -834.604003906250000 -350.690002441406250
-69.761100769042969 -830.411010742187500 -359.255004882812500
-67.228401184082031 -828.812988281250000 -354.299987792968750
-76.389396667480469 -838.789978027343750 -364.131988525390620
-66.627197265625000 -844.656982421875000 -346.764007568359370
-67.370903015136719 -838.565002441406250 -345.250000000000000
-76.344001770019531 -844.841003417968750 -365.778991699218750
-74.279800415039062 -828.396972656250000 -361.376007080078120
-71.275802612304688 -822.838989257812500 -357.882995605468750
-66.691802978515625 -822.650024414062500 -348.656005859375000
-69.343696594238281 -818.895996093750000 -353.958007812500000
-66.768501281738281 -828.668029785156250 -346.753997802734370
-74.491401672363281 -818.736999511718750 -358.378997802734370
-68.577102661132812 -814.672973632812500 -350.591003417968750
-67.945602416992188 -822.661987304687500 -342.407989501953120
-78.594100952148438 -822.427001953125000 -359.304992675781250
-72.297302246093750 -812.585021972656250 -354.786987304687500
-69.289901733398437 -832.588012695312500 -341.343994140625000
-82.853401184082031 -824.486999511718750 -357.078002929687500
-80.471900939941406 -830.593017578125000 -360.803009033203120
-78.532302856445313 -814.500000000000000 -357.136993408203120
-70.186096191406250 -824.698974609375000 -338.459991455078120
-82.225601196289063 -818.679992675781250 -356.415985107421870
-69.317703247070313 -818.659973144531250 -339.157989501953120
-70.093902587890625 -806.539001464843750 -348.833007812500000
-73.585403442382813 -806.317993164062500 -353.523010253906250
-68.270698547363281 -812.622009277343750 -342.615997314453120
-68.681800842285156 -806.627990722656250 -342.742004394531250
-72.841201782226562 -800.773986816406250 -350.428009033203120
-80.638900756835938 -810.437988281250000 -355.217987060546870
-80.140403747558594 -804.846008300781250 -353.954010009765620
-70.913902282714844 -812.549011230468750 -335.119995117187500
-85.110702514648438 -808.523010253906250 -351.247985839843750
-71.004699707031250 -806.635986328125000 -334.946014404296870
-84.724296569824219 -814.591003417968750 -352.898010253906250
-72.148101806640625 -796.560974121093750 -346.791992187500000
-87.153396606445313 -812.627990722656250 -349.006011962890620
-72.807800292968750 -790.713989257812500 -344.515991210937500
-70.108497619628906 -798.581970214843750 -338.432006835937500
-76.792297363281250 -794.913024902343750 -351.894989013671870
-76.211303710937500 -788.534973144531250 -348.855010986328120
-82.363197326660156 -794.672973632812500 -350.536987304687500
-72.059997558593750 -790.588989257812500 -334.576995849609370
-71.920799255371094 -786.565002441406250 -338.740997314453120
-74.532096862792969 -784.661987304687500 -344.615997314453120
-82.481597900390625 -788.596008300781250 -348.808013916015620
-84.356002807617188 -800.658996582031250 -350.563995361328120
-72.297096252441406 -794.661010742187500 -330.539001464843750
-87.465499877929688 -796.745971679687500 -346.032989501953120
-73.888099670410156 -800.788024902343750 -330.072998046875000
-87.272300720214844 -790.494018554687500 -345.401000976562500
-80.275497436523438 -782.758972167968750 -348.135009765625000
-74.642303466796875 -776.677978515625000 -340.555999755859370
-72.934700012207031 -782.726013183593750 -334.763000488281250
-77.561500549316406 -778.202026367187500 -345.522003173828120
-73.802497863769531 -778.552978515625000 -330.554992675781250
-72.844802856445312 -786.703979492187500 -330.816009521484370
-85.924400329589844 -778.797973632812500 -343.980987548828120
-82.541702270507813 -774.556030273437500 -345.010009765625000
-76.970199584960937 -770.736022949218750 -342.191986083984370
-86.559097290039063 -784.594970703125000 -344.794006347656250
-74.281997680664062 -770.603027343750000 -332.700988769531250
-90.410598754882813 -780.637023925781250 -338.654998779296870
-74.906097412109375 -780.533020019531250 -325.161010742187500
-74.488197326660156 -774.638000488281250 -326.679992675781250
-89.316101074218750 -774.421020507812500 -339.276000976562500
-90.661796569824219 -786.598022460937500 -338.712005615234370
-86.320396423339844 -770.653991699218750 -342.475006103515620
-75.623497009277344 -766.474975585937500 -339.046997070312500
-75.876899719238281 -762.471984863281250 -332.786987304687500
-75.073699951171875 -766.741027832031250 -328.792999267578120
-80.561096191406250 -766.632995605468750 -344.429992675781250
-89.129501342773438 -764.383972167968750 -337.303009033203120
-75.906196594238281 -760.588989257812500 -324.544006347656250
-76.325698852539063 -756.606994628906250 -328.686004638671870
-86.137802124023438 -758.799011230468750 -338.190002441406250
-76.164100646972656 -772.690979003906250 -322.401000976562500
-76.602699279785156 -766.616027832031250 -320.820007324218750
-91.778297424316406 -770.632995605468750 -334.324005126953120
-91.508201599121094 -760.744995117187500 -333.907989501953120
-80.610603332519531 -750.702026367187500 -332.516998291015620
-81.046203613281250 -744.931030273437500 -330.101013183593750
-76.849296569824219 -748.705993652343750 -322.670989990234370
-76.616500854492187 -756.656005859375000 -320.739990234375000
-86.235900878906250 -752.755004882812500 -336.420989990234370
-86.548797607421875 -746.804992675781250 -334.223999023437500
-77.836799621582031 -742.481994628906250 -322.782989501953120
-91.096496582031250 -754.512023925781250 -333.114990234375000
-78.167503356933594 -754.669006347656250 -316.446990966796870
-91.126502990722656 -744.439025878906250 -331.244995117187500
-79.833999633789063 -738.473022460937500 -324.971984863281250
-84.723999023437500 -738.806030273437500 -330.244995117187500
-93.889396667480469 -748.606018066406250 -328.420989990234370
-78.577796936035156 -748.627990722656250 -314.769012451171870
-78.954101562500000 -762.380004882812500 -317.382995605468750
-94.851097106933594 -754.650024414062500 -326.716003417968750
-80.474800109863281 -732.653991699218750 -322.640014648437500
-78.596496582031250 -736.650024414062500 -318.679992675781250
-83.651802062988281 -730.234985351562500 -325.605987548828120
-78.287300109863281 -742.624023437500000 -316.613006591796870
-88.333900451660156 -732.478027343750000 -329.174987792968750
-79.322799682617188 -732.771972656250000 -314.868011474609370
-79.980003356933594 -728.487976074218750 -318.821014404296880
-90.452598571777344 -738.614990234375000 -330.723999023437500
-93.903198242187500 -738.695983886718750 -326.316986083984370
-79.647598266601563 -740.715026855468750 -312.084014892578120
-92.847396850585938 -732.502990722656250 -327.108001708984370
-82.928802490234375 -724.778991699218750 -322.317993164062500
-81.282402038574219 -736.489013671875000 -309.468994140625000
-88.553298950195313 -724.755004882812500 -326.333007812500000
-96.012802124023437 -732.661010742187500 -322.484985351562500
-96.176399230957031 -742.627014160156250 -322.605010986328120
-80.155700683593750 -724.572998046875000 -314.669006347656250
-85.087501525878906 -718.992004394531250 -321.864013671875000
-80.742599487304688 -718.672973632812500 -312.665008544921880
-82.711898803710937 -714.685974121093750 -316.566986083984370
-80.697601318359375 -722.648986816406250 -308.811004638671870
-79.987998962402344 -728.612976074218750 -310.412994384765620
-90.577400207519531 -716.963012695312500 -323.813995361328130
-86.640502929687500 -712.758972167968750 -320.388000488281250
-94.648498535156250 -720.567993164062500 -322.868011474609380
-93.292701721191406 -726.482971191406250 -325.494995117187500
-96.547302246093750 -724.637023925781250 -320.731994628906250
-82.027603149414063 -716.596008300781250 -306.437988281250000
-82.437202453613281 -710.638977050781250 -312.657989501953120
-84.177597045898437 -726.702026367187500 -304.365997314453120
-83.571403503417969 -720.767028808593750 -303.946990966796870
-98.619499206542969 -720.638977050781250 -316.704986572265620
-98.023399353027344 -728.612976074218750 -316.653015136718750
-94.775703430175781 -712.539978027343750 -321.177001953125000
-83.962799072265625 -732.838989257812500 -306.067993164062500
-98.662902832031250 -724.687011718750000 -312.626007080078130
-83.259696960449219 -704.791992187500000 -310.494995117187500
-82.306198120117187 -710.625000000000000 -306.619995117187500
-87.861503601074219 -704.268005371093750 -317.415985107421870
-85.695198059082031 -700.346984863281250 -313.183013916015620
-90.429702758789063 -708.640014648437500 -320.654998779296870
-83.623001098632813 -706.655029296875000 -302.152008056640620
-84.844802856445312 -712.581970214843750 -301.057006835937500
-84.243499755859375 -698.583007812500000 -308.710998535156250
-96.420303344726563 -706.638000488281250 -318.656005859375000
-99.647102355957031 -708.611022949218750 -314.450988769531250
-89.995002746582031 -696.341003417968750 -315.299987792968750
-98.623901367187500 -714.646972656250000 -316.729003906250000
-100.013000488281250 -714.564025878906250 -310.704986572265630
-84.558700561523438 -702.560974121093750 -298.787994384765620
-99.040298461914063 -702.612976074218750 -314.983001708984370
-94.490997314453125 -698.390014648437500 -317.583007812500000
-97.805702209472656 -714.351989746093750 -303.183013916015620
-100.822998046875000 -706.742004394531250 -306.584991455078120
-86.079803466796875 -692.536010742187500 -308.800994873046870
-85.839599609375000 -688.481994628906250 -304.782012939453120
-89.690498352050781 -688.291015625000000 -311.537994384765620
-94.516700744628906 -688.755004882812500 -314.346008300781250
-86.165603637695313 -684.596984863281250 -300.675994873046870
-99.873703002929688 -694.596008300781250 -312.324005126953120
-102.111999511718750 -694.619018554687500 -306.601989746093750
-89.970596313476562 -682.434020996093750 -309.059997558593750
-99.582298278808594 -688.703002929687500 -312.033996582031250
-100.956001281738280 -700.646972656250000 -310.708007812500000
-88.123100280761719 -696.823974609375000 -292.300994873046870
-87.009498596191406 -686.690979003906250 -294.967987060546870
-94.559700012207031 -682.838989257812500 -312.015991210937500
-102.414001464843750 -688.635986328125000 -306.660003662109370
-88.015998840332031 -680.508972167968750 -304.846008300781250
-99.040802001953125 -704.861022949218750 -300.312011718750000
-96.121101379394531 -702.487976074218750 -294.924987792968750
-90.208099365234375 -704.741027832031250 -294.308013916015620
-87.456100463867188 -676.421020507812500 -298.832000732421870
-90.111198425292969 -674.504028320312500 -304.858001708984370
-88.300102233886719 -680.638000488281250 -292.595001220703120
-93.959396362304688 -672.236022949218750 -307.553009033203120
-88.402198791503906 -672.637023925781250 -292.654998779296870
-96.436500549316406 -676.752990722656250 -310.274993896484370
-88.908401489257813 -668.783996582031250 -298.585998535156250
-103.867996215820310 -680.533996582031250 -300.753997802734370
-98.868499755859375 -682.739013671875000 -290.260986328125000
-102.459999084472660 -682.635986328125000 -306.670989990234370
-102.221000671386720 -676.653991699218750 -306.550994873046870
-90.194801330566406 -674.674011230468750 -288.518005371093750
-89.878799438476563 -686.182006835937500 -288.076995849609370
-100.153999328613280 -680.656005859375000 -310.595001220703120
-103.082000732421870 -676.806030273437500 -294.411010742187500
-102.916000366210940 -688.624023437500000 -300.601013183593750
-94.395698547363281 -678.702026367187500 -286.454010009765620
-92.847900390625000 -666.854980468750000 -304.244995117187500
-100.064002990722660 -670.822021484375000 -308.003997802734370
-89.177299499511719 -666.729980468750000 -290.885986328125000
-91.379203796386719 -662.937011718750000 -300.226989746093750
-89.936302185058594 -660.505981445312500 -294.838989257812500
-93.822700500488281 -658.375000000000000 -301.196014404296870
-91.094497680664062 -664.533996582031250 -285.101989746093750
-96.389396667480469 -662.599975585937500 -304.739990234375000
-103.236000061035160 -668.867980957031250 -290.282989501953120
-104.973999023437500 -666.723999023437500 -294.540985107421870
-98.473197937011719 -672.666015625000000 -286.592010498046870
-94.453201293945313 -670.747009277343750 -284.230987548828120
-100.067001342773440 -666.463012695312500 -285.084991455078120
-90.516899108886719 -658.645996093750000 -286.687011718750000
-92.317199707031250 -654.603027343750000 -296.721008300781250
-104.721000671386720 -662.708984375000000 -290.541992187500000
-104.830001831054690 -664.640014648437500 -300.761993408203120
-104.475997924804690 -672.642028808593750 -298.657989501953120
-102.579002380371090 -666.642028808593750 -304.764007568359370
-102.001998901367190 -660.666015625000000 -304.247985839843750
-96.742897033691406 -662.945007324218750 -281.884002685546870
-104.168998718261720 -658.560974121093750 -286.804992675781250
-104.516998291015620 -656.632995605468750 -300.704986572265620
-91.805801391601563 -650.484985351562500 -292.933013916015620
-91.171897888183594 -650.721008300781250 -284.783996582031250
-91.271003723144531 -646.801025390625000 -288.557006835937500
-95.141998291015625 -649.077026367187500 -298.000000000000000
-94.363098144531250 -644.611999511718750 -294.700988769531250
-106.183998107910160 -650.583984375000000 -286.743988037109370
-102.080001831054690 -652.474975585937500 -281.028015136718750
-91.741203308105469 -656.703002929687500 -282.113006591796870
-100.629997253417970 -658.763977050781250 -282.363006591796870
-96.560302734375000 -656.359008789062500 -279.325012207031250
-106.433998107910160 -656.637023925781250 -294.661987304687500
-92.916198730468750 -648.544982910156250 -279.108001708984370
-107.053001403808590 -648.638000488281250 -294.815002441406250
-105.155998229980470 -646.918029785156250 -282.220001220703120
-92.607002258300781 -640.671020507812500 -288.589996337890620
-107.276000976562500 -644.823974609375000 -286.450988769531250
-98.329498291015625 -648.486022949218750 -277.075988769531250
-104.416999816894530 -650.637023925781250 -300.657012939453120
-100.483001708984370 -642.684020996093750 -298.536987304687500
-100.370002746582030 -654.523986816406250 -302.933990478515620
-92.098503112792969 -640.625976562500000 -282.656005859375000
-97.932098388671875 -638.301025390625000 -295.299987792968750
-94.395698547363281 -634.627990722656250 -288.678985595703120
-106.917999267578120 -640.781005859375000 -282.513000488281250
-102.358001708984370 -642.599975585937500 -276.740997314453120
-92.936096191406250 -632.690979003906250 -278.721008300781250
-106.666000366210940 -634.726013183593750 -278.515014648437500
-94.043601989746094 -642.687011718750000 -276.375000000000000
-98.671501159667969 -638.987976074218750 -273.716003417968750
-94.279502868652344 -636.653991699218750 -274.562988281250000
-102.143997192382810 -634.370971679687500 -273.281005859375000
-108.832000732421870 -634.648010253906250 -288.717010498046870
-98.172203063964844 -628.518005371093750 -290.921997070312500
-94.715103149414063 -626.703979492187500 -284.561004638671870
-100.518997192382810 -632.721008300781250 -294.458007812500000
-106.808998107910160 -638.609985351562500 -294.843994140625000
-108.539001464843750 -628.671020507812500 -278.614990234375000
-109.849998474121090 -628.528015136718750 -284.679992675781250
-106.824996948242190 -632.671997070312500 -294.770996093750000
-108.364997863769530 -628.638000488281250 -290.636993408203120
-96.432197570800781 -630.629028320312500 -270.683990478515620
-94.289703369140625 -626.624023437500000 -274.614013671875000
-106.794998168945310 -626.789001464843750 -274.346984863281250
-94.086502075195313 -622.580993652343750 -278.731994628906250
-102.190002441406250 -628.489013671875000 -271.040985107421870
-104.713996887207030 -622.841979980468750 -270.217987060546870
-108.813003540039060 -620.744018554687500 -274.470001220703120
-94.618103027343750 -618.643005371093750 -274.714996337890620
-96.570503234863281 -620.684020996093750 -284.595001220703120
-110.318000793457030 -622.617004394531250 -280.675994873046870
-96.405998229980469 -622.640991210937500 -268.641998291015620
-96.303901672363281 -614.606018066406250 -280.734985351562500
-99.824096679687500 -622.351013183593750 -289.394989013671870
-100.486000061035160 -618.786987304687500 -266.358001708984370
-100.968002319335940 -616.981994628906250 -287.890991210937500
-104.943000793457030 -616.898010253906250 -267.936004638671870
-109.977996826171870 -622.637023925781250 -286.516998291015620
-111.242996215820310 -614.778991699218750 -278.575988769531250
-100.045997619628910 -612.447998046875000 -285.028991699218750
-108.597999572753910 -614.705993652343750 -270.557006835937500
-104.681999206542970 -622.901000976562500 -292.009002685546870
-109.800003051757810 -614.632019042968750 -286.432006835937500
-95.821296691894531 -612.585998535156250 -268.509002685546870
-104.639999389648440 -612.918029785156250 -288.028015136718750
-106.570999145507810 -610.739013671875000 -266.447998046875000
-110.688003540039060 -610.700988769531250 -272.596984863281250
-96.260696411132813 -606.635986328125000 -266.602996826171880
-108.886001586914060 -604.825988769531250 -266.065002441406250
-102.369003295898440 -608.544982910156250 -262.960998535156250
-98.052200317382813 -610.789978027343750 -264.022003173828120
-112.474998474121090 -604.643981933593750 -274.657989501953120
-101.953002929687500 -604.427001953125000 -283.227996826171870
-112.015998840332030 -600.637023925781250 -270.736999511718750
-112.004997253417970 -604.614013671875000 -280.536010742187500
-98.912902832031250 -604.361022949218750 -261.509002685546880
-97.077499389648438 -600.703979492187500 -264.872009277343750
-106.432998657226560 -602.645996093750000 -284.639007568359370
-110.466003417968750 -608.640014648437500 -284.674987792968750
-105.969001770019530 -600.369018554687500 -261.346984863281250
-110.032997131347660 -598.484985351562500 -264.916992187500000
-97.596099853515625 -592.494995117187500 -268.611999511718750
-97.900100708007813 -594.590026855468750 -262.545013427734370
-109.674003601074220 -592.354980468750000 -261.338989257812500
-112.438003540039060 -592.638977050781250 -266.657989501953130
-104.569999694824220 -594.763977050781250 -258.303985595703120
-100.519996643066410 -598.530029296875000 -259.039001464843750
-98.214698791503906 -588.606994628906250 -262.644012451171870
-99.023200988769531 -584.729003906250000 -266.584014892578120
-113.877998352050780 -596.393005371093750 -273.989990234375000
-113.103996276855470 -586.784973144531250 -264.475006103515620
-106.445999145507810 -588.651977539062500 -256.628997802734370
-113.097000122070310 -590.658996582031250 -274.750000000000000
-100.366996765136720 -594.586975097656250 -279.000000000000000
-100.126998901367190 -588.755004882812500 -256.325012207031250
-103.569999694824220 -582.171997070312500 -273.450988769531250
-110.583000183105470 -584.715026855468750 -258.523010253906250
-106.453002929687500 -586.651977539062500 -278.868011474609370
-98.866600036621094 -582.713989257812500 -260.709014892578120
-113.447998046875000 -594.453002929687500 -278.519012451171870
-117.920997619628910 -590.330017089843750 -272.039001464843750
-112.421997070312500 -584.637023925781250 -274.658996582031250
-104.722999572753910 -596.861022949218750 -282.049011230468750
-113.875000000000000 -578.471008300781250 -260.867004394531250
-110.059997558593750 -578.463989257812500 -255.041000366210940
-99.930801391601563 -578.484985351562500 -264.808013916015620
-99.849403381347656 -578.596008300781250 -256.546997070312500
-99.912200927734375 -574.583007812500000 -260.739990234375000
-114.583000183105470 -580.655029296875000 -266.657989501953130
-102.290000915527340 -576.581970214843750 -268.744995117187500
-102.547996520996090 -582.471984863281250 -253.257995605468750
-101.730003356933590 -572.375000000000000 -265.015014648437500
-112.259002685546870 -572.575988769531250 -254.781005859375000
-107.902000427246090 -574.242980957031250 -251.481994628906250
-106.356002807617190 -576.580993652343750 -272.785003662109370
-114.780998229980470 -574.658996582031250 -268.743988037109370
-113.491996765136720 -578.692993164062500 -272.266998291015620
-102.442001342773440 -574.624023437500000 -250.727005004882810
-100.612998962402340 -570.655029296875000 -254.682006835937500
-115.772003173828120 -570.557983398437500 -264.584014892578120
-110.800003051757810 -574.848022460937500 -274.108001708984370
-115.269996643066410 -568.905029296875000 -258.406005859375000
-104.662002563476560 -566.700988769531250 -266.506011962890620
-108.495002746582030 -568.689025878906250 -270.548004150390620
-100.955001831054690 -566.755004882812500 -258.605987548828120
-112.751998901367190 -566.752014160156250 -252.397003173828130
-108.886001586914060 -568.968994140625000 -249.929000854492190
-115.084999084472660 -562.838989257812500 -254.341003417968750
-101.274002075195310 -562.713012695312500 -254.641006469726560
-103.877998352050780 -562.374023437500000 -263.020996093750000
-107.974998474121090 -564.254028320312500 -247.537002563476560
-102.728996276855470 -558.726989746093750 -258.562011718750000
-116.710998535156250 -560.685974121093750 -258.658996582031250
-102.484001159667970 -568.596984863281250 -248.802001953125000
-116.441001892089840 -564.637023925781250 -262.662994384765620
-102.000999450683590 -562.715026855468750 -248.386993408203120
-114.418998718261720 -558.633972167968750 -250.667007446289060
-107.890998840332030 -558.239013671875000 -265.436004638671870
-108.751998901367190 -562.872009277343750 -268.109008789062500
-110.417999267578120 -558.632019042968750 -246.673995971679690
-114.789001464843750 -560.622985839843750 -266.907012939453120
-102.198997497558590 -554.580017089843750 -252.703994750976560
-114.522003173828120 -566.643981933593750 -268.716003417968750
-104.597999572753910 -552.692016601562500 -258.579986572265620
-116.757003784179690 -556.659973144531250 -262.759002685546870
-117.013000488281250 -554.726989746093750 -254.535995483398440
-104.415000915527340 -558.543029785156250 -244.936004638671870
-108.952003479003910 -552.903991699218750 -263.916992187500000
-112.796997070312500 -552.791992187500000 -246.201995849609370
-115.578002929687500 -548.356018066406250 -247.231994628906250
-108.207000732421870 -552.408996582031250 -243.358993530273440
-102.759002685546870 -550.656982421875000 -246.707992553710940
-105.167999267578120 -546.848999023437500 -256.260986328125000
-118.304000854492190 -548.629028320312500 -256.656005859375000
-113.757003784179690 -544.335021972656250 -243.410995483398440
-104.096000671386720 -542.570007324218750 -250.729995727539060
-103.947998046875000 -546.689025878906250 -242.481002807617190
-117.938003540039060 -542.531005859375000 -248.792999267578120
-109.949996948242190 -546.281005859375000 -261.406005859375000
-108.433998107910160 -544.645019531250000 -240.641998291015620
-118.972000122070310 -542.744018554687500 -254.675003051757810
-108.888999938964840 -540.882995605468750 -258.128997802734370
-116.491996765136720 -550.635986328125000 -262.687988281250000
-103.985000610351560 -540.585998535156250 -242.578994750976560
-117.611000061035160 -542.755981445312500 -260.191009521484370
-107.319000244140620 -536.903015136718750 -254.132995605468750
-113.017997741699220 -536.966003417968750 -239.807006835937500
-117.251998901367190 -536.991027832031250 -244.031005859375000
-116.288002014160160 -532.578002929687500 -240.785995483398440
-104.663002014160160 -536.689025878906250 -248.604995727539060
-104.573997497558590 -534.655029296875000 -240.675003051757810
-106.410003662109370 -538.754028320312500 -238.311004638671870
-112.084999084472660 -532.317993164062500 -237.408996582031250
-104.763000488281250 -530.682006835937500 -244.582992553710940
-119.610000610351560 -532.513000488281250 -246.837997436523440
-106.458000183105470 -532.767028808593750 -236.231994628906250
-107.947998046875000 -528.460021972656250 -251.027999877929690
-119.625000000000000 -536.538024902343750 -252.552993774414060
-110.014999389648440 -532.387023925781250 -255.089996337890620
-105.225997924804690 -526.721008300781250 -240.660003662109370
-112.426002502441410 -536.635986328125000 -258.662994384765620
-114.290000915527340 -530.505004882812500 -256.973999023437500
-120.733001708984370 -526.642028808593750 -248.669998168945310
-112.764999389648440 -524.804992675781250 -254.160995483398440
-118.065002441406250 -524.510009765625000 -238.912994384765620
-112.505996704101560 -524.697021484375000 -234.522003173828120
-116.586997985839840 -518.724975585937500 -234.434005737304690
-120.998001098632810 -520.867004394531250 -242.434997558593750
-106.901000976562500 -520.773986816406250 -244.498992919921870
-110.622001647949220 -519.081970214843750 -231.679000854492190
-106.459999084472660 -524.435974121093750 -233.382003784179690
-105.866996765136720 -516.570007324218750 -238.800994873046880
-120.811996459960940 -515.333984375000000 -236.063003540039060
-109.741996765136720 -514.619995117187500 -246.815994262695310
-110.714996337890620 -520.747009277343750 -250.432998657226560
-121.575996398925780 -520.705993652343750 -248.287994384765620
-122.419998168945310 -514.638000488281250 -244.662002563476560
-108.438003540039060 -514.356018066406250 -229.391998291015620
-126.413002014160160 -518.663024902343750 -242.645004272460940
-106.028999328613280 -510.579010009765620 -234.707000732421870
-116.505996704101560 -512.739013671875000 -250.300003051757810
-109.008003234863280 -508.596984863281250 -242.632995605468750
-112.875999450683590 -508.932006835937500 -246.369995117187500
-111.258003234863280 -514.281005859375000 -252.220001220703120
-107.945999145507810 -502.660003662109380 -238.697006225585940
-105.717002868652340 -504.536987304687500 -230.893005371093750
-112.042999267578130 -500.470001220703120 -241.020996093750000
-123.181999206542970 -506.786987304687500 -240.582992553710940
-116.704002380371090 -502.908996582031250 -246.078002929687500
-123.616996765136720 -498.296997070312500 -234.824996948242190
-105.968002319335940 -498.613006591796870 -230.856994628906250
-115.939002990722660 -498.278991699218750 -243.535995483398440
-124.117996215820310 -500.584014892578120 -240.677993774414060
-106.886001586914060 -496.455993652343750 -236.820999145507810
-112.414001464843750 -494.631988525390620 -238.671005249023440
-104.557998657226560 -502.380004882812500 -224.990005493164060
-106.308998107910160 -504.764007568359370 -246.554992675781250
-104.801002502441410 -498.153015136718750 -241.134994506835940
-122.426002502441410 -502.636993408203130 -246.658996582031250
-125.132003784179690 -488.865997314453120 -230.505996704101560
-113.988998413085940 -488.433990478515620 -237.087997436523440
-106.301002502441410 -492.622009277343750 -230.686996459960940
-110.510002136230470 -484.670013427734370 -232.546997070312500
-105.624000549316410 -486.885009765625000 -230.294006347656250
-116.950996398925780 -493.080993652343750 -241.970001220703120
-125.458999633789060 -492.408996582031250 -238.720993041992190
-118.703002929687500 -486.842010498046870 -240.229003906250000
-126.582000732421870 -482.653015136718750 -230.634994506835940
-104.421997070312500 -496.549987792968750 -220.813003540039060
-122.397003173828120 -490.548004150390620 -242.938003540039060
-118.030998229980470 -480.430999755859370 -237.141006469726560
-112.689002990722660 -478.768005371093750 -232.195999145507810
-126.742996215820310 -478.714996337890620 -226.632995605468750
-126.515998840332030 -478.644989013671870 -220.662002563476560
-114.873001098632810 -472.886993408203120 -231.789993286132810
-126.837997436523440 -472.667999267578120 -218.626998901367190
-128.212005615234380 -472.584991455078120 -226.727996826171870
-107.842002868652340 -478.515991210937500 -229.162002563476560
-126.609001159667970 -476.665985107421870 -214.677001953125000
-119.125999450683590 -471.006988525390620 -233.742004394531250
-108.415000915527340 -472.635986328125000 -228.677993774414060
-110.407997131347660 -485.019012451171870 -216.031005859375000
-112.637001037597660 -468.796997070312500 -230.033996582031250
-104.339996337890620 -478.653991699218750 -224.634994506835940
-121.788002014160160 -464.584991455078120 -217.225997924804690
-114.380996704101560 -464.558990478515620 -213.007995605468750
-127.084999084472660 -466.688995361328120 -218.597000122070310
-112.415000915527340 -460.007995605468750 -211.399993896484370
-126.508003234863280 -470.623992919921870 -212.658996582031250
-128.893997192382810 -466.777008056640620 -224.488006591796870
-118.310997009277340 -458.535003662109370 -228.985000610351560
-116.583999633789060 -464.783996582031250 -230.231002807617190
-110.328002929687500 -458.528991699218750 -227.061996459960940
-116.210998535156250 -452.605010986328120 -227.554000854492190
-122.873001098632810 -454.908996582031250 -230.007003784179690
-106.547996520996090 -466.649993896484370 -226.533996582031250
-112.978996276855470 -438.790985107421870 -210.430999755859380
-130.664001464843750 -430.756988525390620 -206.457992553710940
-113.647003173828120 -430.444000244140620 -207.220993041992190
-120.293998718261720 -426.510986328125000 -198.942993164062500
-126.558998107910160 -424.843994140625000 -200.294006347656250
-110.963996887207030 -436.894012451171870 -206.186004638671870
-132.722000122070310 -426.727996826171870 -208.600006103515620
-131.328994750976560 -425.141998291015620 -203.873001098632810
-112.425003051757810 -430.536987304687500 -198.893997192382810
-115.818000793457030 -424.571990966796880 -208.884002685546870
-124.178001403808590 -420.278991699218750 -197.326995849609370
-130.169006347656250 -418.401000976562500 -199.057006835937500
-120.485000610351560 -416.707000732421870 -194.505004882812500
-126.310997009277340 -414.419006347656250 -195.033996582031250
-114.295997619628910 -422.420989990234370 -195.227996826171870
-114.226997375488280 -418.584991455078120 -202.748001098632810
-132.141998291015630 -412.430999755859370 -197.035995483398440
-111.822998046875000 -424.477996826171880 -200.975997924804690
-134.804000854492190 -416.723999023437500 -206.610992431640620
-122.503997802734370 -410.838012695312500 -192.220001220703120
-116.314002990722660 -414.621002197265620 -206.708999633789060
-135.055999755859380 -412.817993164062500 -202.509002685546870
-117.047996520996090 -418.730010986328120 -210.406005859375000
-133.985000610351560 -420.591003417968750 -210.593994140625000
-112.430000305175780 -416.618988037109370 -192.695999145507810
-128.427001953125000 -408.638000488281250 -192.660003662109370
-124.581001281738280 -405.152008056640620 -189.781997680664060
-133.108993530273440 -403.230987548828120 -191.751007080078120
-134.764999389648440 -406.803985595703120 -196.401992797851560
-116.469001770019530 -410.730987548828120 -190.472000122070310
-116.209999084472660 -404.303985595703120 -187.376998901367190
-114.568000793457030 -402.639007568359370 -196.595993041992190
-114.096000671386720 -410.579010009765630 -198.807998657226560
-136.554000854492190 -406.657989501953120 -202.649993896484370
-116.393997192382810 -398.585998535156250 -184.759002685546870
-110.611000061035160 -398.500000000000000 -184.977005004882810
-122.384002685546870 -400.447998046875000 -186.979995727539060
-128.533996582031250 -400.967010498046870 -188.177993774414060
-115.097000122070310 -396.675994873046870 -196.567993164062500
-116.135002136230470 -394.619995117187500 -202.798004150390620
-122.206001281738280 -394.477996826171870 -209.106002807617190
-111.167999267578120 -402.766998291015620 -190.274993896484370
-118.075996398925780 -398.548004150390620 -206.895004272460940
-122.359001159667970 -402.570007324218750 -210.822006225585940
-116.619003295898440 -404.636993408203120 -204.608001708984370
-110.706001281738280 -410.641998291015620 -190.613998413085940
-135.462997436523440 -410.546997070312500 -208.539993286132810
-118.489997863769530 -410.648986816406250 -210.619003295898440
-136.479003906250000 -440.656005859375000 -220.639007568359370
-120.623001098632810 -448.704010009765620 -227.792007446289060
-126.667999267578130 -448.764007568359370 -230.363006591796870
-110.480003356933590 -450.609985351562500 -226.432006835937500
-104.377998352050780 -452.640991210937500 -220.680999755859370
-106.150001525878910 -454.593994140625000 -225.089996337890620
-128.729995727539060 -454.863006591796870 -234.080993652343750
-132.274993896484370 -462.589996337890620 -228.738006591796870
-105.735000610351560 -460.592987060546870 -225.115997314453120
-123.972999572753910 -460.416992187500000 -233.151000976562500
-128.729003906250000 -460.858001708984370 -235.964996337890620
-132.643005371093750 -464.696990966796870 -234.643005371093750
-122.458000183105470 -466.654998779296870 -234.613006591796870
-130.692993164062500 -470.733001708984370 -232.615005493164060
-126.181999206542970 -468.415008544921870 -237.367004394531250
-102.057998657226560 -472.782012939453120 -224.466995239257810
-114.304000854492190 -482.700988769531250 -206.621994018554690
-106.357002258300780 -480.575988769531250 -212.785995483398440
-124.389999389648440 -474.613006591796870 -238.729995727539060
-128.720001220703120 -478.687011718750000 -236.619995117187500
-104.296997070312500 -484.627014160156250 -224.729003906250000
-122.462997436523440 -482.665008544921870 -240.582000732421870
-127.114997863769530 -484.755004882812500 -236.628005981445310
-100.501998901367190 -484.411010742187500 -231.024002075195310
-102.199996948242190 -491.246002197265620 -217.761001586914060
-102.059997558593750 -492.661987304687500 -222.845993041992190
-102.221000671386720 -491.239990234375000 -236.009002685546870
-100.224998474121090 -495.138000488281250 -240.169998168945310
-120.353996276855470 -496.523986816406250 -244.916000366210940
-101.696998596191410 -501.484985351562500 -248.328994750976560
-121.594001770019530 -510.523010253906250 -248.236999511718750
-128.402999877929690 -516.664978027343750 -236.641998291015620
-107.782997131347660 -509.105010986328130 -250.539001464843750
-134.427993774414060 -518.786010742187500 -236.505996704101560
-119.497001647949220 -526.651977539062500 -254.296005249023440
-120.747001647949220 -574.659973144531250 -272.933990478515620
-120.152999877929690 -582.606018066406250 -272.186004638671870
-108.861999511718750 -578.893005371093750 -279.609985351562500
-112.192001342773440 -582.502990722656250 -281.321014404296880
-122.291000366210940 -588.541015625000000 -270.415985107421880
-115.111999511718750 -588.924987792968750 -280.729003906250000
-96.444099426269531 -588.607971191406250 -280.597991943359370
-110.591003417968750 -590.744018554687500 -282.328002929687500
-112.011001586914060 -598.515014648437500 -282.600006103515620
-106.712997436523440 -684.770019531250000 -296.571990966796880
-90.433998107910156 -688.262023925781250 -282.953002929687500
-84.671600341796875 -690.023986816406250 -286.989990234375000
-102.886001586914060 -690.843017578125000 -294.131988525390620
-90.039596557617188 -693.049011230468750 -288.123992919921870
-98.255096435546875 -696.510009765625000 -292.804992675781250
-105.490997314453120 -694.525024414062500 -302.425994873046870
-92.594100952148438 -700.486022949218750 -290.903015136718750
-104.406997680664060 -700.596008300781250 -298.733001708984370
-95.296600341796875 -709.081970214843750 -297.794006347656250
-90.327003479003906 -710.716979980468750 -296.394012451171870
-90.373199462890625 -716.794982910156250 -298.369995117187500
-94.551399230957031 -720.692993164062500 -302.494995117187500
-98.063903808593750 -720.518981933593750 -306.850006103515620
-90.198402404785156 -724.393981933593750 -301.174987792968750
-96.125000000000000 -726.539001464843750 -306.920989990234370
-88.577301025390625 -730.427001953125000 -303.283996582031250
-96.927200317382813 -730.767028808593750 -310.444000244140620
-92.359397888183594 -734.596984863281250 -306.753997802734370
-96.819801330566406 -736.711975097656250 -314.557006835937500
-94.517898559570313 -738.668029785156250 -310.583007812500000
-88.333900451660156 -740.541015625000000 -306.888000488281250
-94.205802917480469 -744.547973632812500 -312.833007812500000
-83.996101379394531 -746.867004394531250 -309.816009521484370
-92.826797485351563 -750.814025878906250 -314.303985595703120
-95.820999145507813 -748.596984863281250 -322.606994628906250
-86.432998657226563 -752.411010742187500 -311.113006591796870
-82.693496704101563 -756.414001464843750 -313.286010742187500
-93.282600402832031 -756.961975097656250 -318.055999755859370
-88.232803344726563 -760.494995117187500 -314.989013671875000
-92.763298034667969 -762.757019042968750 -320.524993896484380
-86.387603759765625 -754.560974121093750 -346.579986572265620
-93.673599243164063 -762.648010253906250 -328.589996337890620
-84.440299987792969 -766.705017089843750 -316.410003662109370
-90.425903320312500 -758.638977050781250 -344.713989257812500
-89.730201721191406 -768.232971191406250 -319.466003417968750
-92.616996765136719 -768.681030273437500 -324.597991943359370
-86.317497253417969 -772.551025390625000 -318.876007080078120
-80.702499389648437 -772.442993164062500 -319.252014160156250
-90.537696838378906 -764.559020996093750 -344.553009033203120
-92.564399719238281 -772.669006347656250 -328.643005371093750
-90.126502990722656 -774.523986816406250 -322.927001953125000
-86.936996459960938 -778.953979492187500 -321.847991943359370
-79.963302612304688 -780.823974609375000 -321.881011962890620
-90.314399719238281 -780.590026855468750 -326.726013183593750
-91.826400756835938 -780.604980468750000 -332.717010498046870
-86.741302490234375 -784.812988281250000 -324.253997802734370
-78.166099548339844 -786.718994140625000 -324.191009521484370
-89.936500549316406 -788.507995605468750 -330.851989746093750
-85.576698303222656 -790.216003417968750 -325.647003173828120
-78.557998657226562 -792.473022460937500 -325.218994140625000
-89.984100341796875 -792.573974609375000 -334.718994140625000
-82.437698364257813 -796.659973144531250 -326.610992431640620
-89.602302551269531 -792.627990722656250 -340.449005126953120
-86.953697204589844 -796.835021972656250 -330.265014648437500
-78.581100463867188 -800.408996582031250 -327.403991699218750
-86.517898559570313 -802.674987792968750 -332.572998046875000
-82.096099853515625 -804.392028808593750 -329.261993408203120
-88.968299865722656 -802.697998046875000 -338.578002929687500
-88.549301147460938 -802.622985839843750 -344.691986083984370
-85.244903564453125 -808.882995605468750 -333.740997314453120
-74.707603454589844 -808.523010253906250 -331.144989013671870
-80.371101379394531 -810.570983886718750 -330.881011962890620
-88.273498535156250 -808.664001464843750 -338.743011474609380
-88.319099426269531 -808.625976562500000 -344.648986816406250
-83.061203002929688 -814.926025390625000 -333.861999511718750
-76.258300781250000 -814.791992187500000 -332.075988769531250
-86.345802307128906 -818.619018554687500 -338.701995849609370
-82.159599304199219 -820.494995117187500 -335.088012695312500
-87.669296264648437 -818.463012695312500 -344.641998291015620
-72.637397766113281 -820.568969726562500 -334.980010986328130
-86.635200500488281 -818.630981445312500 -350.769012451171870
-76.425598144531250 -824.638977050781250 -334.654998779296870
-86.368499755859375 -824.617980957031250 -342.674011230468750
-86.523902893066406 -824.630981445312500 -350.687988281250000
-82.489799499511719 -828.661987304687500 -338.579010009765620
-74.569702148437500 -830.567016601562500 -337.035003662109370
-86.531402587890625 -828.648010253906250 -346.660003662109370
-84.441299438476562 -834.640014648437500 -342.652008056640620
-85.521301269531250 -830.640991210937500 -354.242004394531250
-86.216003417968750 -834.586975097656250 -350.694000244140620
-78.197898864746094 -838.377990722656250 -339.442993164062500
-70.690200805664063 -838.568969726562500 -341.058013916015620
-85.267303466796875 -838.646972656250000 -346.382995605468750
-82.988403320312500 -836.534973144531250 -359.152008056640620
-85.346496582031250 -838.630004882812500 -354.915985107421870
-80.622703552246094 -842.794982910156250 -342.277008056640620
-74.494499206542969 -844.549987792968750 -340.950012207031250
-84.326301574707031 -844.585021972656250 -346.738006591796870
-68.354202270507813 -832.653991699218750 -378.699005126953120
-78.313201904296875 -848.565002441406250 -342.924011230468750
-70.741897583007813 -848.442016601562500 -343.303009033203120
-83.546699523925781 -844.731018066406250 -360.148986816406250
-82.448097229003906 -850.643005371093750 -346.640991210937500
-85.003799438476562 -848.729980468750000 -352.654998779296870
-74.360099792480469 -852.487976074218750 -343.152008056640620
-48.765499114990234 -846.489990234375000 -350.467987060546870
-67.957298278808594 -852.693969726562500 -346.156005859375000
-83.554000854492187 -850.656982421875000 -360.415008544921870
-78.831901550292969 -856.270996093750000 -343.927001953125000
-69.071899414062500 -842.778015136718750 -376.855010986328120
-48.238998413085937 -850.643005371093750 -354.854003906250000
-68.089797973632812 -858.557006835937500 -346.171997070312500
-56.439800262451172 -858.500000000000000 -342.507995605468750
-46.558200836181641 -854.599975585937500 -350.611999511718750
-62.394500732421875 -860.034973144531250 -342.075988769531250
-50.595901489257813 -856.671997070312500 -348.532989501953120
-66.387199401855469 -862.588012695312500 -338.558990478515620
-48.432998657226563 -852.721008300781250 -360.700012207031250
-67.835403442382813 -848.622985839843750 -378.869995117187500
-56.379501342773438 -862.716979980468750 -338.772003173828120
-58.382999420166016 -860.544982910156250 -348.688995361328120
-74.396202087402344 -854.815002441406250 -376.653015136718750
-70.407203674316406 -854.692993164062500 -380.657012939453120
-84.495101928710938 -694.638000488281250 -302.669006347656250
-85.766601562500000 -690.586975097656250 -298.440002441406250
-82.481101989746094 -698.456970214843750 -296.901000976562500
-84.291900634765625 -692.778015136718750 -292.449005126953120
-100.556999206542970 -600.719970703125000 -278.959014892578120
-97.200302124023437 -598.559997558593750 -270.639007568359370
-116.608001708984370 -598.843994140625000 -268.976013183593750
-118.252998352050780 -510.346008300781250 -231.132003784179690
-112.421997070312500 -510.630004882812500 -228.680999755859370
-121.559997558593750 -506.382995605468750 -235.102996826171870
-120.681999206542970 -500.766998291015630 -230.481994628906250
-108.441001892089840 -506.738006591796870 -226.438995361328120
-110.530998229980470 -500.786010742187500 -224.277999877929690
-120.241996765136720 -494.449005126953120 -224.835006713867190
-123.078002929687500 -494.899993896484370 -230.458999633789060
-124.000999450683590 -488.312988281250000 -224.822006225585940
-114.364997863769530 -490.705993652343750 -218.591003417968750
-108.184997558593750 -492.304992675781250 -219.307006835937500
-114.932998657226560 -486.342987060546870 -212.820007324218750
-118.398002624511720 -460.614013671875000 -212.751998901367190
-124.085998535156250 -458.410003662109370 -215.287002563476560
-120.820999145507810 -454.944000244140620 -211.934997558593750
-129.833999633789060 -458.432006835937500 -218.807006835937500
-114.375999450683590 -454.432006835937500 -209.220993041992190
-125.960998535156250 -452.243011474609380 -213.401000976562500
-118.339996337890630 -450.559997558593750 -208.826004028320310
-124.337997436523440 -444.549011230468750 -208.848999023437500
-128.710998535156250 -444.766998291015630 -212.438995361328120
-118.857002258300780 -443.098999023437500 -205.748992919921870
-112.383003234863280 -446.916992187500000 -206.005996704101560
-132.852996826171870 -450.820007324218750 -214.973007202148440
-122.216003417968750 -438.391998291015620 -205.132003784179690
-128.451995849609370 -438.649993896484380 -208.636001586914060
-135.940002441406250 -452.506011962890620 -210.315994262695310
-131.375000000000000 -438.891998291015620 -214.406005859375000
-135.225006103515620 -445.191009521484370 -216.789001464843750
-124.510002136230470 -430.766998291015620 -202.401992797851560
-118.071998596191410 -434.157989501953130 -201.498992919921870
-131.802993774414060 -434.341003417968750 -210.957992553710940
-114.428001403808590 -438.691009521484370 -202.537994384765620
-140.277999877929690 -446.446014404296870 -194.770996093750000
-136.819000244140620 -440.778015136718750 -214.944000244140620
-137.763000488281250 -446.300994873046870 -210.195007324218750
-132.451995849609370 -514.796997070312500 -232.520004272460940
-125.949996948242190 -591.838989257812500 -265.872985839843750
-92.445198059082031 -596.653015136718750 -278.591003417968750
-126.546997070312500 -466.907012939453120 -202.378997802734370
-116.928001403808590 -488.440002441406250 -206.878997802734370
-84.381500244140625 -760.224975585937500 -343.890991210937500
