ply
format ascii 1.0
element vertex 362
property double x
property double y
property double z
end_header
-196.158004760742190 -650.521972656250000 -74.594398498535156
-198.173995971679690 -648.557006835937500 -68.606796264648437
-198.804000854492190 -647.051025390625000 -78.756202697753906
-216.419998168945310 -659.020019531250000 -55.627300262451172
-198.729995727539060 -654.455993652343750 -62.810501098632813
-196.158004760742190 -650.521972656250000 -74.594398498535156
-208.897003173828120 -660.367980957031250 -57.321201324462891
-196.947998046875000 -654.632019042968750 -68.857803344726563
-204.207000732421870 -658.846008300781250 -60.401599884033203
-147.733001708984370 -626.447998046875000 -128.518005371093750
-194.356002807617190 -650.601013183593750 -80.637802124023438
-218.651992797851560 -664.684997558593750 -53.212898254394531
-226.572006225585940 -667.054992675781250 -51.162101745605469
-193.188003540039060 -649.335998535156250 -87.008003234863281
-192.100997924804690 -648.263000488281250 -92.508796691894531
-212.139999389648440 -664.716003417968750 -56.295101165771484
-202.382995605468750 -660.668029785156250 -64.633300781250000
-229.055999755859370 -671.421997070312500 -45.591499328613281
-195.664001464843750 -656.796997070312500 -74.328498840332031
-207.906997680664060 -664.801025390625000 -60.183399200439453
-192.184005737304690 -654.630004882812500 -82.564697265625000
-232.063003540039060 -676.560974121093750 -38.372898101806641
-198.682006835937500 -660.546020507812500 -70.828697204589844
-189.677001953125000 -652.312011718750000 -90.325401306152344
-147.246002197265620 -633.814025878906250 -126.839996337890630
-176.619995117187500 -636.697021484375000 -131.005996704101560
-187.220001220703120 -649.468017578125000 -101.002998352050780
-223.774002075195310 -674.239013671875000 -47.868499755859375
-214.516006469726560 -670.648010253906250 -54.806999206542969
-192.421997070312500 -648.580993652343750 -106.671997070312500
-171.065002441406250 -634.898986816406250 -136.964004516601560
-170.567993164062500 -632.697998046875000 -142.684005737304690
-227.813003540039060 -678.518981933593750 -42.058998107910156
-150.272994995117190 -638.726989746093750 -122.705001831054690
-234.613006591796870 -682.609008789062500 -34.816398620605469
-184.348999023437500 -642.538024902343750 -124.510002136230470
-217.932006835937500 -674.356018066406250 -51.867801666259766
-195.600997924804690 -662.551025390625000 -76.078498840332031
-189.524002075195310 -658.236999511718750 -86.048301696777344
-205.121002197265620 -668.814025878906250 -63.353801727294922
-170.457992553710940 -632.648010253906250 -148.667007446289060
-191.671997070312500 -660.431030273437500 -82.125503540039063
-146.606002807617190 -636.174011230468750 -132.843002319335940
-178.567993164062500 -642.875976562500000 -126.904998779296870
-182.697998046875000 -651.025024414062500 -106.824996948242190
-198.462005615234370 -666.656982421875000 -70.701103210449219
-183.057998657226560 -653.450988769531250 -101.070999145507810
-208.583999633789060 -672.747985839843750 -58.884201049804688
-188.423995971679690 -648.603027343750000 -116.654998779296870
-180.421997070312500 -662.552978515625000 -76.643501281738281
-181.055999755859370 -665.989013671875000 -68.252502441406250
-184.369003295898440 -656.581970214843750 -94.620101928710938
-176.113998413085940 -663.833007812500000 -72.553001403808594
-184.509002685546870 -646.901000976562500 -120.904998779296870
-182.546997070312500 -649.447021484375000 -114.824996948242190
-152.710006713867190 -640.473999023437500 -128.552001953125000
-218.850997924804690 -678.989990234375000 -49.395599365234375
-184.380004882812500 -662.825988769531250 -80.724899291992188
-190.386993408203130 -664.426025390625000 -78.537803649902344
-151.869003295898440 -645.101989746093750 -116.910003662109370
-184.697998046875000 -666.148010253906250 -72.387496948242188
-212.277999877929690 -676.497009277343750 -54.390598297119141
-172.559005737304690 -642.742004394531250 -130.832000732421870
-168.345001220703120 -638.599975585937500 -140.630996704101560
-176.934997558593750 -661.543029785156250 -82.830398559570313
-180.440002441406250 -660.877990722656250 -86.668403625488281
-224.358001708984370 -682.609008789062500 -44.551399230957031
-176.666000366210940 -647.148986816406250 -123.002998352050780
-178.212997436523440 -652.093017578125000 -110.432998657226560
-184.074005126953120 -660.356018066406250 -90.403396606445313
-153.057998657226560 -644.349975585937500 -122.478996276855470
-228.830993652343750 -684.622009277343750 -41.236301422119141
-190.542999267578120 -668.052001953125000 -72.316802978515625
-186.104995727539060 -662.327026367187500 -86.323402404785156
-244.014007568359370 -690.976013183593750 -30.033899307250977
-152.699996948242190 -648.309997558593750 -112.508003234863280
-182.662994384765620 -670.392028808593750 -64.436698913574219
-178.065994262695310 -655.765014648437500 -102.239997863769530
-176.337005615234370 -650.327026367187500 -116.540000915527340
-167.781997680664060 -635.926025390625000 -152.317993164062500
-198.449005126953120 -672.739990234375000 -64.756500244140625
-144.593994140625000 -638.034973144531250 -138.828994750976560
-176.277999877929690 -658.242004394531250 -96.512199401855469
-168.869003295898440 -642.882019042968750 -135.016006469726560
-172.031997680664060 -666.002014160156250 -74.490699768066406
-239.205993652343750 -690.255981445312500 -33.480998992919922
-188.313003540039060 -671.138000488281250 -66.989501953125000
-234.649993896484370 -688.543029785156250 -36.901599884033203
-206.552001953125000 -679.280029296875000 -53.042098999023438
-155.994995117187500 -645.176025390625000 -126.833000183105470
-192.414993286132810 -673.078002929687500 -64.959098815917969
-150.649993896484370 -640.088989257812500 -138.845001220703120
-148.432998657226560 -646.650024414062500 -120.615997314453120
-218.391006469726560 -684.044006347656250 -46.110401153564453
-208.410995483398440 -682.068969726562500 -48.333801269531250
-186.544998168945310 -674.138977050781250 -62.310398101806641
-202.302001953125000 -678.364990234375000 -56.489898681640625
-165.802993774414060 -640.023986816406250 -146.388000488281250
-170.244003295898440 -648.091979980468750 -126.400001525878910
-212.555999755859370 -683.656005859375000 -46.143398284912109
-170.552001953125000 -654.921997070312500 -108.819999694824220
-198.410003662109370 -676.583007812500000 -60.613399505615234
-172.606002807617190 -662.810974121093750 -88.727500915527344
-171.809997558593750 -665.882019042968750 -80.464401245117187
-170.768997192382810 -651.315979003906250 -119.023002624511720
-154.455993652343750 -642.607971191406250 -136.673004150390630
-155.925994873046870 -653.198974609375000 -108.973999023437500
-168.457992553710940 -652.783020019531250 -114.736999511718750
-250.373001098632810 -696.687988281250000 -26.616399765014648
-180.378005981445310 -674.760986328125000 -60.987201690673828
-130.050994873046870 -633.155029296875000 -154.841995239257810
-136.561004638671870 -637.849975585937500 -144.708999633789060
-158.462005615234370 -650.547973632812500 -118.614997863769530
-170.598007202148440 -658.919982910156250 -100.777000427246090
-164.983993530273440 -643.265991210937500 -140.990005493164060
-208.410995483398440 -686.505981445312500 -40.583099365234375
-212.574005126953120 -687.971008300781250 -38.290401458740234
-144.240005493164060 -639.439025878906250 -144.496002197265620
-164.466995239257810 -650.369995117187500 -122.588996887207030
-204.263000488281250 -684.122009277343750 -46.316699981689453
-132.466003417968750 -636.531005859375000 -148.638000488281250
-218.714996337890620 -687.674987792968750 -42.041900634765625
-216.126007080078120 -691.596984863281250 -30.956899642944336
-230.166000366210940 -690.236022949218750 -39.926700592041016
-160.117996215820310 -647.307983398437500 -130.712005615234370
-164.427993774414060 -648.659973144531250 -128.666000366210940
-132.393005371093750 -632.669006347656250 -160.675994873046880
-224.337997436523440 -689.281005859375000 -41.303699493408203
-164.406005859375000 -646.593994140625000 -134.643005371093750
-160.490005493164060 -654.375976562500000 -112.524002075195310
-186.600006103515620 -678.161010742187500 -58.043300628662109
-220.264007568359370 -690.947021484375000 -36.802700042724609
-200.809997558593750 -683.130981445312500 -51.018001556396484
-208.375000000000000 -690.343017578125000 -34.472599029541016
-158.550994873046870 -658.434020996093750 -102.541000366210940
-164.470993041992190 -656.859985351562500 -108.802001953125000
-202.397003173828120 -688.111022949218750 -38.531299591064453
-140.270996093750000 -639.184997558593750 -148.565994262695310
-222.352996826171870 -694.741027832031250 -28.694599151611328
-158.634002685546870 -646.189025878906250 -136.686996459960940
-150.003005981445310 -641.473022460937500 -146.399002075195310
-192.451995849609370 -680.103027343750000 -57.969299316406250
-162.182998657226560 -640.284973144531250 -154.518997192382810
-154.861999511718750 -643.807983398437500 -142.891998291015620
-168.027999877929690 -663.885986328125000 -94.244201660156250
-236.841995239257810 -694.877990722656250 -35.647800445556641
-160.466995239257810 -642.770019531250000 -148.694000244140620
-168.289993286132810 -666.452026367187500 -88.580398559570313
-188.817001342773440 -681.995971679687500 -54.259300231933594
-256.253997802734370 -700.744995117187500 -27.759599685668945
-158.811996459960940 -661.870971679687500 -98.088096618652344
-164.332992553710940 -661.877990722656250 -100.185997009277340
-133.007995605468750 -632.245971679687500 -168.643997192382810
-159.850006103515620 -645.661010742187500 -142.167007446289060
-244.852996826171870 -698.486022949218750 -31.522600173950195
-138.423004150390620 -638.642028808593750 -154.662994384765620
-226.158996582031250 -695.083007812500000 -34.926300048828125
-198.712005615234370 -687.057983398437500 -46.932701110839844
-130.733001708984370 -630.447998046875000 -174.671997070312500
-136.570999145507810 -636.468994140625000 -160.707992553710940
-130.863006591796870 -628.575012207031250 -180.630004882812500
-226.770996093750000 -698.234985351562500 -28.487899780273438
-158.516006469726560 -640.807006835937500 -158.720993041992190
-156.513000488281250 -642.814025878906250 -152.712005615234370
-194.641006469726560 -685.081970214843750 -53.083900451660156
-150.477996826171870 -642.520019531250000 -152.673004150390620
-240.156005859375000 -698.596008300781250 -33.992000579833984
-162.453002929687500 -666.750000000000000 -92.737602233886719
-232.326004028320310 -697.447021484375000 -35.437698364257813
-160.589004516601560 -637.598022460937500 -170.927993774414060
-124.694999694824220 -626.127014160156250 -189.212997436523440
-250.600997924804690 -702.570007324218750 -29.065700531005859
-130.283996582031250 -628.684020996093750 -186.587005615234370
-156.386001586914060 -640.494018554687500 -164.638000488281250
-142.263000488281250 -640.926025390625000 -158.656997680664060
-230.488998413085940 -702.539001464843750 -24.628799438476563
-149.839996337890620 -628.560974121093750 -194.520996093750000
-151.272994995117190 -631.158996582031250 -189.091003417968750
-152.458999633789060 -642.763977050781250 -158.695007324218750
-156.632995605468750 -637.276000976562500 -174.893997192382810
-154.550003051757810 -634.882995605468750 -180.813003540039060
-132.792999267578120 -634.419982910156250 -176.794998168945310
-235.065994262695310 -705.918029785156250 -22.492500305175781
-138.360000610351560 -638.690979003906250 -168.682006835937500
-148.380004882812500 -642.387023925781250 -162.660995483398440
-234.748001098632810 -704.187988281250000 -28.469999313354492
-238.733001708984370 -703.913024902343750 -31.716600418090820
-142.289993286132810 -641.166992187500000 -166.636993408203120
-260.493011474609370 -708.638977050781250 -28.329000473022461
-150.604003906250000 -641.213012695312500 -170.757003784179690
-150.850997924804690 -639.278015136718750 -176.938995361328120
-132.057998657226560 -634.794006347656250 -182.559005737304690
-246.401000976562500 -706.601013183593750 -30.496500015258789
-136.598007202148440 -638.494018554687500 -174.712005615234370
-254.386001586914060 -708.640991210937500 -28.443099975585937
-124.553001403808590 -630.419006347656250 -192.951004028320310
-149.716003417968750 -637.942993164062500 -181.949996948242190
-129.932006835937500 -632.848999023437500 -190.343002319335940
-148.580001831054690 -636.745971679687500 -186.725006103515620
-240.710998535156250 -708.163024902343750 -28.378200531005859
-241.757995605468750 -711.416992187500000 -22.863000869750977
-147.477005004882810 -635.888977050781250 -192.544006347656250
-135.263000488281250 -640.054016113281250 -181.072998046875000
-120.319999694824220 -632.869018554687500 -196.410995483398440
-247.996002197265620 -713.460998535156250 -27.535200119018555
-245.807998657226560 -717.294006347656250 -16.948299407958984
-247.001007080078120 -716.013977050781250 -22.410100936889648
-148.358001708984370 -636.567016601562500 -200.686996459960940
-145.804992675781250 -638.033996582031250 -196.705001831054690
-131.139999389648440 -638.497009277343750 -191.013000488281250
-133.218002319335940 -640.382995605468750 -186.785995483398440
-140.481002807617190 -644.593017578125000 -178.697006225585940
-258.467010498046870 -716.651977539062500 -28.313999176025391
-142.777999877929690 -643.119995117187500 -184.723999023437500
-252.658996582031250 -716.148986816406250 -27.842100143432617
-150.121994018554690 -636.450988769531250 -206.723999023437500
-124.249000549316410 -636.911987304687500 -198.296005249023440
-142.272003173828120 -642.463989257812500 -190.619995117187500
-264.824005126953120 -718.520019531250000 -30.063199996948242
-251.360992431640620 -719.885009765625000 -24.022100448608398
-114.734001159667970 -636.101989746093750 -201.320007324218750
-136.251998901367190 -644.765991210937500 -186.552001953125000
-251.699005126953120 -723.304016113281250 -18.945699691772461
-146.057006835937500 -639.973999023437500 -204.972000122070310
-141.875000000000000 -641.931030273437500 -198.667999267578120
-130.727996826171880 -642.515991210937500 -194.832000732421870
-110.386001586914060 -636.693969726562500 -204.623001098632810
-262.411987304687500 -722.640014648437500 -28.708599090576172
-138.449005126953120 -644.666992187500000 -194.664001464843750
-268.368988037109370 -722.638000488281250 -32.715698242187500
-118.824996948242190 -639.872009277343750 -203.305999755859380
-127.891998291015630 -642.828979492187500 -200.276992797851560
-255.110000610351560 -726.081970214843750 -22.277500152587891
-258.834991455078120 -726.385986328125000 -26.032600402832031
-142.826004028320310 -643.281982421875000 -208.434997558593750
-135.080993652343750 -648.114990234375000 -193.031997680664060
-135.953002929687500 -645.867980957031250 -202.679000854492190
-122.139999389648440 -643.478027343750000 -206.156997680664060
-264.432006835937500 -728.635009765625000 -28.650499343872070
-114.791000366210940 -641.929016113281250 -209.065002441406250
-258.411010742187500 -730.645996093750000 -22.672399520874023
-131.207000732421870 -648.203002929687500 -199.141998291015620
-110.485000610351560 -640.564025878906250 -212.679992675781250
-145.037002563476560 -645.281982421875000 -216.438995361328120
-138.494003295898440 -646.750976562500000 -210.621994018554690
-126.121002197265620 -646.818969726562500 -206.438003540039060
-132.251998901367190 -648.301025390625000 -208.705001831054690
-108.241996765136720 -640.794982910156250 -220.570999145507810
-120.442001342773440 -646.609008789062500 -212.679000854492190
-129.863998413085940 -651.015991210937500 -204.291000366210940
-268.673004150390630 -734.635986328125000 -30.272499084472656
-140.242004394531250 -648.203002929687500 -216.850997924804690
-112.638000488281250 -644.416992187500000 -218.746002197265620
-263.389007568359370 -736.244995117187500 -25.908700942993164
-258.776000976562500 -738.559020996093750 -18.411699295043945
-135.839004516601560 -649.760009765625000 -214.751998901367190
-104.367996215820310 -640.685974121093750 -228.604995727539060
-262.680999755859370 -740.554992675781250 -22.479999542236328
-128.432006835937500 -650.645019531250000 -216.662994384765620
-128.014007568359370 -653.077026367187500 -210.257003784179690
-123.636001586914060 -651.120971679687500 -214.106002807617190
-108.429000854492190 -644.633972167968750 -226.664001464843750
-134.727005004882810 -651.479980468750000 -220.345001220703120
-140.345001220703120 -651.963012695312500 -223.123992919921870
-118.642997741699220 -650.460021972656250 -220.832992553710940
-105.500000000000000 -645.257019042968750 -231.832992553710940
-265.821014404296870 -742.767028808593750 -26.986499786376953
-112.317001342773440 -648.708984375000000 -226.550994873046870
-269.901000976562500 -742.562011718750000 -31.422800064086914
-122.509002685546870 -654.588989257812500 -218.723007202148440
-136.432998657226560 -654.456970214843750 -226.738006591796870
-130.421005249023440 -654.593017578125000 -226.679992675781250
-124.279998779296870 -654.431030273437500 -226.675003051757810
-114.167999267578130 -652.968017578125000 -228.298995971679690
-266.959014892578120 -748.658996582031250 -28.476100921630859
-102.643997192382810 -650.474975585937500 -235.421005249023440
-265.101013183593750 -750.591003417968750 -24.246999740600586
-140.212005615234370 -657.215026855468750 -230.434005737304690
-120.078002929687500 -656.898986816406250 -224.378997802734370
-108.374000549316410 -652.653991699218750 -232.608993530273440
-274.151000976562500 -748.440002441406250 -35.238300323486328
-130.414993286132810 -656.315002441406250 -234.692993164062500
-270.007995605468750 -750.419006347656250 -33.131000518798828
-122.555999755859370 -656.974975585937500 -232.598999023437500
-126.569000244140620 -657.255981445312500 -238.630004882812500
-110.400001525878910 -656.734008789062500 -234.591003417968750
-120.580001831054690 -660.359985351562500 -228.839004516601560
-115.702003479003910 -658.906005859375000 -232.149002075195310
-135.608993530273440 -659.338012695312500 -238.440994262695310
-128.425003051757810 -656.625000000000000 -244.660995483398440
-100.627998352050780 -656.286010742187500 -239.011993408203130
-106.038002014160160 -657.273986816406250 -238.332992553710940
-126.610000610351560 -655.138000488281250 -252.867004394531250
-266.940002441406250 -756.700988769531250 -30.493000030517578
-98.428703308105469 -654.630981445312500 -246.660995483398440
-269.587005615234380 -756.127990722656250 -35.429100036621094
-123.940002441406250 -657.966979980468750 -248.505996704101560
-122.550003051757810 -654.726989746093750 -256.729003906250000
-118.310997009277340 -660.348022460937500 -240.692993164062500
-102.544998168945310 -656.539978027343750 -248.688003540039060
-120.877998352050780 -658.981018066406250 -252.802001953125000
-111.976997375488280 -662.797973632812500 -240.384002685546880
-106.388999938964840 -660.697021484375000 -244.623992919921870
-266.790985107421870 -760.762023925781250 -34.474800109863281
-116.593002319335940 -662.932006835937500 -244.727996826171870
-120.083999633789060 -658.458984375000000 -260.734985351562500
-97.787803649902344 -656.916015625000000 -258.045013427734370
-116.082000732421870 -664.182006835937500 -250.759994506835940
-113.628997802734370 -667.314025878906250 -241.960006713867190
-106.950996398925780 -664.315002441406250 -249.044998168945310
-103.317001342773440 -662.283996582031250 -253.227996826171870
-117.003997802734380 -663.023986816406250 -258.609985351562500
-266.976013183593750 -766.716003417968750 -36.606998443603516
-120.172996520996090 -662.521972656250000 -264.830993652343750
-98.702697753906250 -662.565979003906250 -258.988006591796870
-94.050903320312500 -660.960998535156250 -261.736999511718750
-109.906997680664060 -669.051025390625000 -248.229995727539060
-111.851997375488280 -668.044006347656250 -252.815002441406250
-116.676002502441410 -666.921020507812500 -264.398010253906250
-112.617996215820310 -668.799987792968750 -258.618988037109370
-103.189002990722660 -668.247009277343750 -257.286987304687500
-90.487899780273438 -664.392028808593750 -263.436004638671870
-266.514007568359370 -770.620971679687500 -40.681999206542969
-96.002296447753906 -666.758972167968750 -261.989013671875000
-120.336997985839840 -668.528991699218750 -268.800994873046870
-107.790000915527340 -673.156982421875000 -254.037994384765620
-92.473602294921875 -670.559020996093750 -264.790985107421870
-112.281997680664060 -672.440002441406250 -266.805999755859370
-101.797996520996090 -673.008972167968750 -262.109008789062500
-107.333999633789060 -675.189025878906250 -260.639007568359370
-116.516998291015620 -672.789978027343750 -270.532989501953130
-96.296699523925781 -673.484985351562500 -265.925994873046870
-86.288200378417969 -672.245971679687500 -267.339996337890620
-106.684997558593750 -676.827026367187500 -266.648986816406250
-90.473602294921875 -674.453979492187500 -268.812011718750000
-103.163002014160160 -678.171997070312500 -263.289001464843750
-112.291999816894530 -676.356994628906250 -272.786010742187500
-82.453399658203125 -676.768981933593750 -268.406005859375000
-100.410003662109370 -680.643005371093750 -268.648010253906250
-94.401603698730469 -678.695983886718750 -272.605987548828120
-110.724998474121090 -679.161987304687500 -278.546997070312500
-105.040000915527340 -681.263000488281250 -276.438995361328130
-88.346199035644531 -680.484008789062500 -272.852996826171870
-110.278999328613280 -680.419006347656250 -284.683990478515620
-100.156997680664060 -684.908020019531250 -272.350006103515620
-95.739303588867188 -683.189025878906250 -275.821990966796870
-80.463096618652344 -683.099975585937500 -272.365997314453120
-107.986000061035160 -682.117980957031250 -290.660003662109370
-86.494201660156250 -684.836975097656250 -276.515014648437500
-103.013999938964840 -685.133972167968750 -282.449005126953120
-98.494499206542969 -688.568969726562500 -276.739990234375000
-84.418098449707031 -687.211975097656250 -280.380004882812500
-103.966003417968750 -686.291992187500000 -290.748992919921870
-100.995002746582030 -688.999023437500000 -286.541992187500000
-98.542602539062500 -692.315979003906250 -280.903991699218750
-94.066001892089844 -692.788024902343750 -284.355010986328120
-96.289299011230469 -697.041015625000000 -286.337005615234370
-78.355903625488281 -703.927001953125000 -301.183013916015620
-76.480499267578125 -698.591003417968750 -298.799987792968750
-78.174102783203125 -687.015014648437500 -290.458007812500000
-78.801101684570313 -690.362976074218750 -295.036010742187500
-74.403900146484375 -692.646972656250000 -298.089996337890620
