ply
format ascii 1.0
element vertex 608
property double x
property double y
property double z
end_header
-350.428985595703120 -346.647003173828120 -352.665008544921880
-354.273010253906250 -344.191986083984370 -356.720001220703120
-360.437011718750000 -344.753997802734370 -360.536987304687500
-350.428985595703120 -346.647003173828120 -352.665008544921880
-282.335998535156250 -336.774993896484370 -356.891998291015620
-294.329986572265620 -336.717010498046870 -364.752014160156250
-287.915008544921870 -339.016998291015620 -357.381988525390620
-342.522003173828120 -349.144989013671870 -350.763000488281250
-346.309997558593750 -351.000000000000000 -347.149993896484370
-334.454010009765620 -334.571014404296870 -388.584014892578120
-348.678985595703120 -347.282012939453130 -360.416992187500000
-292.789001464843750 -340.286010742187500 -360.214996337890620
-368.463012695312500 -348.501007080078130 -364.717010498046870
-342.365997314453120 -348.477996826171870 -356.679992675781250
-322.424011230468750 -336.444000244140620 -382.549987792968750
-302.147003173828120 -339.101013183593750 -369.130004882812500
-352.817993164062500 -347.604003906250000 -363.988006591796870
-336.312011718750000 -350.141998291015620 -352.605010986328120
-338.503997802734370 -353.217010498046870 -345.190002441406250
-314.602996826171870 -337.716003417968750 -378.324005126953120
-298.355987548828120 -340.714996337890620 -364.739990234375000
-340.485992431640630 -336.565002441406250 -390.592010498046870
-282.391998291015620 -360.453002929687500 -306.736999511718750
-328.497985839843750 -338.394012451171870 -382.471008300781250
-334.335998535156250 -351.959014892578120 -348.382995605468750
-286.739990234375000 -344.274993896484370 -353.893005371093750
-318.631988525390620 -340.115997314453120 -376.161987304687500
-308.358001708984370 -340.828002929687500 -370.803009033203120
-280.429992675781250 -344.570007324218750 -352.558990478515620
-334.761993408203120 -339.963989257812500 -383.964996337890620
-330.528991699218750 -351.201995849609370 -352.671997070312500
-324.164001464843750 -341.273010253906250 -377.256988525390620
-358.532989501953120 -349.348999023437500 -368.188995361328120
-328.516998291015620 -353.351013183593750 -347.125000000000000
-345.044006347656250 -338.031005859375000 -394.135009765625000
-276.074005126953120 -361.760986328125000 -307.040985107421870
-314.277008056640620 -343.071990966796870 -371.088012695312500
-332.415008544921880 -356.296997070312500 -342.354003906250000
-294.433013916015620 -362.563995361328120 -312.639007568359370
-324.411010742187500 -352.546997070312500 -350.635009765625000
-299.785003662109370 -345.424987792968750 -361.420013427734370
-338.398010253906250 -350.102996826171870 -362.666992187500000
-366.385009765625000 -350.825012207031250 -370.566986083984370
-292.070007324218750 -347.024993896484370 -355.274993896484370
-332.416992187500000 -350.445007324218750 -360.635009765625000
-298.644989013671870 -361.921997070312500 -318.545013427734370
-346.403015136718750 -350.079010009765620 -366.791992187500000
-322.381988525390620 -344.734008789062500 -372.755004882812500
-343.002014160156250 -341.821014404296870 -387.736999511718750
-320.412994384765620 -355.127014160156250 -345.071990966796870
-306.617004394531250 -346.334014892578120 -364.247985839843750
-322.437988281250000 -351.200988769531250 -356.783996582031250
-270.967010498046870 -363.540008544921870 -306.162994384765620
-284.285003662109370 -362.153991699218750 -314.730010986328120
-336.540008544921880 -344.410003662109370 -380.454986572265620
-332.734985351562500 -345.729003906250000 -376.045989990234370
-296.944000244140620 -347.942993164062500 -357.786987304687500
-316.415985107421870 -354.071990966796870 -348.440002441406250
-303.920013427734370 -363.596984863281250 -318.777008056640620
-282.122985839843750 -349.333007812500000 -349.407012939453120
-350.255004882812500 -338.938995361328120 -400.776000976562500
-324.476013183593750 -350.027008056640620 -362.493988037109370
-352.423004150390620 -350.773986816406250 -370.625000000000000
-326.457000732421870 -348.242004394531250 -368.503997802734370
-332.190002441406250 -349.636993408203120 -366.854003906250000
-330.619995117187500 -347.671997070312500 -371.794006347656250
-340.450988769531250 -350.174987792968750 -368.682006835937500
-278.713012695312500 -363.315002441406250 -312.420989990234370
-320.433990478515620 -348.485992431640620 -366.578002929687500
-324.430999755859370 -358.712005615234370 -340.731994628906250
-314.425994873046870 -348.523986816406250 -364.591003417968750
-316.381988525390620 -350.966003417968750 -358.750000000000000
-302.582000732421870 -361.984008789062500 -324.561004638671870
-290.342987060546870 -362.007995605468750 -320.665985107421870
-302.141998291015620 -349.180999755859380 -359.180999755859370
-341.897003173828120 -345.341003417968750 -383.223999023437500
-312.476989746093750 -352.959014892578120 -352.713989257812500
-336.420013427734370 -348.665985107421870 -372.674011230468750
-294.480010986328120 -361.256988525390620 -324.726989746093750
-374.584014892578120 -354.414001464843750 -370.757995605468750
-310.415008544921870 -355.066986083984370 -346.821990966796870
-312.494995117187500 -358.028015136718750 -340.338989257812500
-347.621002197265620 -343.490997314453120 -391.398010253906250
-310.430999755859370 -350.932006835937500 -358.778015136718750
-298.424011230468750 -360.674987792968750 -328.667999267578120
-332.127990722656250 -361.023986816406250 -339.589996337890620
-318.403015136718750 -359.502990722656250 -339.529998779296870
-346.412994384765620 -350.735992431640620 -372.653015136718750
-362.471984863281250 -352.114990234375000 -374.824005126953120
-306.450012207031250 -357.750000000000000 -340.391998291015620
-306.561004638671870 -360.138000488281250 -334.444000244140620
-306.527008056640620 -362.360992431640620 -328.585998535156250
-351.692993164062500 -343.433013916015620 -395.088012695312500
-292.785003662109370 -352.061004638671870 -351.990997314453120
-308.205993652343750 -364.981994628906250 -322.829986572265620
-306.436004638671870 -352.981994628906250 -354.766998291015620
-342.382995605468750 -348.710998535156250 -378.707000732421870
-346.558013916015620 -346.471984863281250 -386.532012939453130
-312.173004150390620 -361.346984863281250 -335.157989501953120
-288.238006591796870 -352.997985839843750 -349.229003906250000
-354.493988037109370 -342.572998046875000 -400.609008789062500
-300.488006591796870 -357.257995605468750 -342.832000732421870
-298.574005126953120 -359.311004638671870 -336.812988281250000
-298.252990722656250 -353.174011230468750 -353.096984863281250
-312.273010253906250 -364.997985839843750 -326.796997070312500
-322.427001953125000 -362.630004882812500 -336.654998779296870
-266.528991699218750 -366.753997802734370 -306.550994873046870
-354.518005371093750 -352.026000976562500 -376.712005615234380
-292.735992431640620 -361.500000000000000 -330.628997802734370
-348.403015136718750 -350.736999511718750 -378.678009033203120
-300.322998046875000 -356.049011230468750 -348.459991455078120
-278.527008056640620 -354.229003906250000 -346.040008544921870
-288.497985839843750 -362.842010498046870 -326.626007080078130
-356.864013671875000 -342.065002441406250 -406.483001708984370
-284.078002929687500 -364.002990722656250 -322.834014892578120
-351.851013183593750 -347.316986083984370 -391.229003906250000
-316.149993896484370 -365.312011718750000 -330.953002929687500
-261.106994628906250 -369.161987304687500 -302.286010742187500
-294.486999511718750 -356.255004882812500 -348.399993896484370
-292.403991699218750 -360.454010009765620 -336.605987548828120
-372.778991699218750 -356.015991210937500 -376.868988037109370
-284.661010742187500 -356.243988037109380 -345.967010498046870
-352.166992187500000 -351.291992187500000 -382.796997070312500
-358.352996826171870 -353.078002929687500 -380.627990722656250
-322.363006591796870 -366.776000976562500 -332.773010253906250
-364.472991943359370 -354.290985107421880 -380.776000976562500
-272.946990966796870 -367.481994628906250 -314.273010253906250
-378.438995361328120 -358.614990234375000 -374.665985107421870
-267.744995117187500 -352.088989257812500 -353.966003417968750
-290.424987792968750 -358.772003173828120 -344.744995117187500
-358.101013183593750 -346.928009033203120 -400.825988769531250
-356.523986816406250 -352.394989013671870 -386.608001708984370
-274.498992919921870 -357.907012939453120 -343.747985839843750
-280.200012207031250 -359.100006103515620 -343.273986816406250
-276.973999023437500 -367.329986572265620 -320.385009765625000
-358.010009765625000 -351.244995117187500 -392.955993652343750
-264.023986816406250 -352.182006835937500 -358.221008300781250
-362.408996582031250 -354.691986083984370 -386.652008056640620
-376.324005126953120 -358.871002197265620 -380.651000976562500
-370.424987792968750 -356.640014648437500 -384.661010742187500
-280.576995849609370 -366.868011474609370 -326.604003906250000
-256.688995361328130 -374.854003906250000 -298.673004150390620
-268.622009277343750 -370.877014160156250 -314.529998779296870
-361.826995849609370 -349.188995361328120 -404.889007568359370
-284.204986572265620 -363.055999755859370 -341.412994384765620
-264.925994873046870 -357.158996582031250 -351.040008544921880
-362.618988037109370 -352.401000976562500 -398.563995361328120
-382.279998779296870 -361.135986328125000 -382.725006103515620
-366.516998291015620 -356.376007080078120 -390.648010253906250
-266.069000244140620 -360.066009521484370 -346.226013183593750
-263.243011474609370 -373.335998535156250 -310.075988769531250
-274.992004394531250 -369.585998535156250 -324.700012207031250
-363.746002197265620 -349.162994384765620 -410.842010498046870
-388.319000244140620 -362.976989746093750 -382.713012695312500
-276.411987304687500 -365.721984863281250 -337.669006347656250
-276.359985351562500 -368.555999755859370 -330.674011230468750
-376.286010742187500 -359.212005615234380 -390.566009521484370
-257.838989257812500 -375.881988525390620 -305.106994628906250
-386.178985595703120 -361.438995361328120 -388.675994873046870
-261.108001708984370 -357.229003906250000 -356.889007568359370
-365.601989746093750 -353.516998291015630 -403.009002685546870
-392.220001220703130 -363.200012207031250 -388.738006591796870
-261.484008789062500 -361.774993896484370 -348.209991455078120
-268.800994873046870 -373.199005126953120 -320.630004882812500
-370.739990234375000 -357.981994628906250 -396.601989746093750
-264.837005615234370 -375.179992675781250 -316.445007324218750
-270.138000488281250 -372.078002929687500 -326.582000732421870
-380.286010742187500 -361.075988769531250 -394.545013427734370
-367.769012451171870 -353.450012207031250 -410.846984863281250
-398.459991455078120 -364.397003173828120 -392.652008056640620
-258.993988037109370 -377.277008056640620 -310.341003417968750
-386.496002197265620 -362.397003173828120 -394.726989746093750
-370.946990966796870 -357.654998779296870 -402.635009765625000
-252.328002929687500 -380.566009521484370 -300.688995361328120
-268.393005371093750 -371.615997314453120 -331.279998779296870
-258.210998535156250 -362.404998779296870 -352.500000000000000
-260.403991699218750 -366.609985351562500 -342.643005371093750
-260.782989501953120 -369.048004150390620 -336.822998046875000
-392.522003173828120 -363.903015136718750 -396.859985351562500
-376.510986328125000 -360.454986572265620 -400.652008056640620
-368.415008544921870 -352.670989990234370 -418.661010742187500
-264.126007080078130 -376.115997314453120 -322.596008300781250
-398.333007812500000 -365.110992431640620 -398.532989501953130
-257.555999755859370 -365.756011962890620 -348.170989990234370
-255.796997070312500 -361.821014404296870 -358.183013916015620
-382.464996337890620 -362.514007568359370 -400.674011230468750
-373.933013916015620 -355.459991455078120 -416.984008789062500
-406.342010498046870 -365.523986816406250 -401.908996582031250
-375.001007080078120 -357.670013427734370 -412.407989501953120
-260.511993408203120 -378.744995117187500 -316.640014648437500
-255.320007324218750 -381.498992919921870 -310.119995117187500
-378.368011474609370 -360.760009765625000 -408.682006835937500
-378.513000488281250 -356.476013183593750 -420.582000732421870
-257.125000000000000 -371.598999023437500 -339.000000000000000
-390.265991210937500 -365.230987548828120 -402.519012451171870
-255.766006469726560 -369.937988281250000 -344.170989990234370
-260.162994384765620 -375.864990234375000 -330.239990234375000
-251.677001953125000 -383.940002441406250 -307.062988281250000
-253.201004028320310 -367.480987548828120 -352.986999511718750
-248.570999145507810 -386.735992431640620 -300.667999267578120
-382.811004638671870 -360.069000244140620 -418.394989013671870
-254.664993286132810 -374.859985351562500 -334.701995849609370
-258.914001464843750 -379.402008056640620 -324.701995849609370
-386.131988525390620 -365.210998535156250 -408.657989501953130
-252.285003662109380 -370.437011718750000 -348.588989257812500
-385.717010498046870 -359.518005371093750 -425.100006103515620
-385.114013671875000 -363.783996582031250 -414.360992431640620
-396.609008789062500 -368.136993408203120 -406.838012695312500
-254.610992431640620 -382.851989746093750 -320.669006347656250
-254.527999877929690 -380.855987548828120 -326.774993896484370
-402.502014160156250 -369.983001708984370 -407.156005859375000
-408.325012207031250 -371.476013183593750 -407.714996337890620
-388.140991210937500 -364.919006347656250 -418.772003173828120
-247.910995483398440 -371.738006591796870 -352.260986328125000
-249.983001708984370 -375.842010498046870 -342.084014892578120
-247.130004882812500 -389.036010742187500 -306.584014892578120
-250.270996093750000 -386.424011230468750 -314.651000976562500
-250.160995483398440 -378.269989013671870 -336.536987304687500
-248.253005981445310 -374.376007080078120 -346.544006347656250
-389.872009277343750 -367.333007812500000 -414.722991943359370
-250.600006103515620 -380.898986816406250 -330.802001953125000
-244.276000976562500 -392.528015136718750 -298.608001708984370
-391.367004394531250 -363.779998779296870 -428.063995361328120
-244.404006958007810 -395.239990234375000 -293.404998779296870
-250.184005737304690 -386.329010009765620 -320.704010009765620
-412.589996337890620 -374.304992675781250 -409.114013671875000
-242.404998779296870 -374.348999023437500 -350.542999267578120
-391.822998046875000 -367.253997802734370 -422.894989013671870
-394.404998779296870 -370.682006835937500 -414.648010253906250
-246.300003051757810 -384.407012939453120 -328.585998535156250
-242.755004882812500 -392.959014892578120 -304.726013183593750
-244.371002197265620 -380.497985839843750 -338.579010009765620
-402.095001220703130 -373.464996337890620 -412.111999511718750
-240.354003906250000 -378.279998779296870 -344.444000244140620
-395.360992431640620 -365.790008544921870 -432.209014892578120
-234.272994995117190 -379.231994628906250 -343.132995605468750
-242.544998168945310 -392.757995605468750 -310.644012451171870
-226.272994995117190 -379.354003906250000 -341.162994384765620
-242.449996948242190 -384.669006347656250 -332.671997070312500
-395.792999267578120 -369.268005371093750 -427.013000488281250
-408.441009521484370 -376.605010986328120 -412.686004638671870
-238.470001220703120 -383.003997802734370 -336.924987792968750
-245.889999389648440 -390.052001953125000 -320.735992431640630
-242.212005615234370 -388.223999023437500 -324.516998291015620
-398.790008544921870 -374.109985351562500 -416.787994384765620
-230.464996337890630 -381.996002197265620 -338.307006835937500
-216.199005126953120 -382.907989501953130 -331.019012451171870
-399.266998291015630 -367.695007324218750 -436.096984863281250
-222.350006103515620 -382.763000488281250 -334.785003662109370
-414.281005859375000 -378.927001953125000 -412.334991455078120
-398.071990966796870 -372.990997314453120 -422.768005371093750
-238.723999023437500 -387.498992919921870 -329.071014404296870
-242.578994750976560 -392.792999267578120 -316.645996093750000
-212.235992431640620 -385.001007080078130 -327.123992919921870
-242.929992675781250 -402.835998535156250 -291.186004638671870
-399.576995849609370 -371.326995849609370 -431.009002685546870
-230.389999389648440 -386.803985595703120 -332.807006835937500
-220.095001220703120 -387.278991699218750 -329.285003662109370
-238.580993652343750 -396.829986572265620 -310.709014892578120
-237.087005615234370 -399.261993408203120 -304.889007568359370
-226.225006103515620 -389.303009033203120 -329.242004394531250
-402.807006835937500 -378.145996093750000 -420.829986572265620
-403.183990478515620 -371.733001708984370 -438.194000244140620
-212.442993164062500 -390.588012695312500 -322.605010986328120
-238.180999755859370 -396.316986083984370 -316.606994628906250
-218.628005981445310 -391.703002929687500 -323.808013916015620
-206.438003540039060 -390.661010742187500 -322.730010986328120
-238.527999877929690 -404.700012207031250 -296.772003173828120
-416.860992431640620 -383.804992675781250 -415.342010498046870
-410.627014160156250 -382.338989257812500 -418.859985351562500
-234.263000488281250 -400.446990966796870 -310.609008789062500
-226.333999633789060 -394.967987060546870 -323.041992187500000
-404.687988281250000 -376.485992431640620 -434.631988525390620
-404.778991699218750 -380.401000976562500 -426.596008300781250
-234.072998046875000 -400.069000244140620 -316.634002685546880
-228.436004638671870 -398.658996582031250 -318.691009521484370
-208.136993408203120 -396.040008544921870 -319.763000488281250
-406.483001708984370 -376.575988769531250 -440.661010742187500
-202.492996215820310 -394.661010742187500 -322.787994384765620
-214.587005615234370 -398.044006347656250 -318.024993896484380
-220.339996337890630 -398.854003906250000 -318.908996582031250
-230.667999267578130 -404.954010009765620 -306.924987792968750
-414.484008789062500 -386.571990966796870 -420.704010009765630
-236.714996337890620 -410.825012207031250 -295.009002685546870
-408.230010986328120 -384.846984863281250 -426.559997558593750
-224.382995605468750 -402.378997802734370 -316.371002197265620
-228.389999389648440 -404.007995605468750 -313.833007812500000
-407.708007812500000 -382.994995117187500 -432.877990722656250
-216.498992919921870 -402.389007568359370 -316.177001953125000
-418.972991943359370 -390.230010986328120 -419.042999267578120
-206.445007324218750 -400.648010253906250 -318.691009521484370
-228.464004516601560 -410.696990966796870 -302.723999023437500
-410.096008300781250 -382.781005859375000 -440.803009033203120
-210.537002563476560 -404.799011230468750 -314.979003906250000
-200.509002685546870 -400.661010742187500 -322.773010253906250
-235.863998413085940 -417.872985839843750 -289.917999267578120
-416.042999267578120 -390.958007812500000 -424.385009765625000
-224.350997924804690 -408.179992675781250 -312.161987304687500
-224.145996093750000 -410.290008544921870 -306.648986816406250
-410.584014892578120 -386.562011718750000 -436.619995117187500
-228.796997070312500 -415.363006591796870 -297.204010009765620
-216.451995849609370 -408.710998535156250 -312.821014404296880
-411.381011962890620 -389.915985107421880 -430.928985595703120
-412.207000732421870 -384.777008056640620 -446.653991699218750
-222.798995971679690 -415.376007080078120 -301.292999267578120
-228.505996704101560 -420.958007812500000 -288.820007324218750
-220.264007568359370 -412.080993652343750 -310.084991455078120
-224.436004638671870 -418.665008544921870 -294.675994873046870
-420.710998535156250 -396.473999023437500 -422.738006591796870
-413.114990234375000 -388.290008544921880 -442.381011962890620
-228.238998413085940 -424.014007568359370 -284.171997070312500
-199.628005981445310 -406.371002197265620 -321.882995605468750
-206.130996704101560 -410.411010742187500 -314.257995605468750
-417.579010009765620 -395.450012207031250 -428.127014160156250
-222.408004760742190 -422.575988769531250 -288.632995605468750
-218.287994384765620 -416.506988525390620 -304.597991943359370
-415.589996337890620 -389.049987792968750 -447.058990478515620
-414.713012695312500 -394.398010253906250 -432.778991699218750
-214.339004516601560 -414.946014404296870 -309.195007324218750
-218.417007446289060 -422.601989746093750 -292.665985107421870
-422.911010742187500 -399.712005615234370 -427.346984863281250
-194.302993774414060 -408.592987060546870 -326.540985107421870
-208.645996093750000 -416.963989257812500 -309.199005126953120
-214.119995117187500 -420.255004882812500 -304.540985107421870
-416.105987548828120 -394.769989013671870 -442.782012939453120
-214.000000000000000 -425.963012695312500 -292.524993896484380
-416.802001953125000 -398.371002197265620 -436.734008789062500
-420.351989746093750 -400.703002929687500 -432.627014160156250
-212.393005371093750 -428.592987060546870 -286.648986816406250
-210.227005004882810 -424.493011474609370 -300.608001708984370
-204.503005981445310 -420.740997314453120 -308.798004150390620
-419.157989501953120 -396.373992919921870 -448.326995849609370
-208.802001953125000 -433.182006835937500 -278.700988769531250
-424.042999267578120 -404.960998535156250 -432.485992431640620
-202.011001586914060 -436.023010253906250 -272.953002929687500
-419.009002685546870 -402.386993408203120 -442.596984863281250
-208.445999145507810 -430.682006835937500 -294.653991699218750
-204.451004028320310 -426.786987304687500 -305.076995849609370
-206.524993896484370 -428.764007568359370 -300.647003173828120
-204.468002319335940 -434.687988281250000 -284.648010253906250
-421.462005615234370 -405.394989013671870 -438.351013183593750
-421.763000488281250 -400.800994873046870 -450.930999755859370
-202.945007324218750 -437.319000244140620 -278.497985839843750
-204.473999023437500 -434.686004638671870 -290.683013916015620
-190.860992431640620 -423.252014160156250 -319.300994873046870
-203.136993408203120 -433.420989990234370 -296.833007812500000
-425.367004394531250 -409.756011962890620 -437.210998535156250
-198.738998413085940 -440.927001953125000 -276.419006347656250
-197.981994628906250 -429.795989990234370 -306.151000976562500
-186.356002807617190 -422.421997070312500 -322.486999511718750
-195.914001464843750 -427.915985107421870 -311.778015136718750
-200.509994506835940 -438.709991455078120 -284.648986816406250
-194.591003417968750 -442.798004150390620 -272.596984863281250
-200.807006835937500 -437.532012939453120 -292.627990722656250
-422.984008789062500 -410.364990234375000 -442.851989746093750
-200.158004760742190 -434.148986816406250 -302.250000000000000
-184.388000488281250 -426.450012207031250 -318.527008056640620
-424.108001708984370 -406.641998291015620 -454.763000488281250
-422.006011962890620 -408.700988769531250 -448.774993896484380
-194.022994995117190 -432.253997802734370 -308.325988769531250
-190.339004516601560 -430.412994384765620 -312.450988769531250
-196.651000976562500 -442.795989990234370 -284.664001464843750
-426.399993896484370 -414.648010253906250 -440.645996093750000
-182.386001586914060 -430.423004150390630 -314.442993164062500
-194.634002685546870 -444.834014892578120 -280.628997802734370
-197.608001708984370 -439.802001953125000 -296.832000732421870
-188.479003906250000 -434.850006103515620 -308.911987304687500
-196.238998413085940 -442.356994628906250 -292.605987548828120
-190.201995849609370 -448.481994628906250 -274.739990234375000
-423.885986328125000 -414.872985839843750 -446.532012939453130
-182.425994873046870 -434.632995605468750 -310.657989501953120
-170.414993286132810 -431.895996093750000 -314.079010009765630
-188.434005737304690 -438.588012695312500 -304.630004882812500
-194.871002197265620 -441.108001708984370 -300.912994384765620
-176.447006225585940 -434.950988769531250 -311.010986328125000
-424.109985351562500 -414.618988037109370 -452.785003662109370
-426.161987304687500 -412.661010742187500 -458.787994384765620
-193.473007202148440 -445.959991455078120 -290.529998779296870
-193.917007446289060 -444.295989990234370 -296.713989257812500
-164.367004394531250 -436.368011474609380 -310.433990478515620
-188.843002319335940 -450.963989257812500 -280.679992675781250
-168.501998901367190 -438.252990722656250 -308.115997314453120
-160.606994628906250 -438.128997802734370 -306.063995361328120
-184.414993286132810 -442.457000732421870 -304.381988525390620
-188.376007080078120 -444.600006103515620 -300.472991943359370
-426.161987304687500 -420.722991943359370 -446.563995361328120
-176.432998657226560 -440.834991455078120 -306.957000732421870
-188.904998779296870 -451.140991210937500 -286.746002197265620
-190.264007568359370 -448.486999511718750 -296.687011718750000
-424.610992431640630 -420.614990234375000 -452.669006347656250
-424.390014648437500 -418.639007568359370 -458.674011230468750
-185.895996093750000 -456.307006835937500 -276.714996337890620
-156.455993652343750 -444.638000488281250 -298.592010498046870
-428.321014404296870 -418.666992187500000 -462.699005126953120
-164.416000366210940 -444.670013427734370 -302.717010498046870
-187.582000732421870 -452.024993896484370 -292.708007812500000
-176.466995239257810 -446.893005371093750 -303.046997070312500
-170.382003784179690 -446.812988281250000 -302.937011718750000
-180.921997070312500 -448.877990722656250 -301.188995361328120
-183.764007568359370 -460.272003173828120 -274.385986328125000
-426.615997314453120 -426.589996337890620 -448.751007080078120
-160.386993408203120 -448.714996337890620 -298.835998535156250
-184.434997558593750 -452.493011474609370 -297.962005615234370
-425.315002441406250 -424.582000732421870 -456.502990722656250
-166.563995361328120 -450.298004150390620 -300.122009277343750
-172.432006835937500 -452.235992431640620 -299.970001220703120
-184.563995361328120 -456.662994384765620 -292.588989257812500
-152.809997558593750 -450.787994384765620 -297.529998779296870
-182.746994018554690 -464.709991455078120 -270.731994628906250
-182.468002319335940 -462.649993896484370 -278.677001953125000
-178.429000854492190 -456.648010253906250 -296.701995849609370
-162.436996459960940 -454.618988037109370 -296.619995117187500
-156.371002197265620 -454.576995849609370 -296.242004394531250
-427.675994873046870 -426.548004150390630 -465.147003173828120
-425.996002197265620 -428.593994140625000 -460.779998779296870
-181.304000854492190 -461.144012451171870 -290.707000732421870
-172.425994873046870 -458.635986328125000 -296.661010742187500
-152.063995361328120 -456.705993652343750 -297.921997070312500
-166.345001220703130 -460.747009277343750 -294.963012695312500
-178.419998168945310 -462.743988037109370 -294.903015136718750
-158.559997558593750 -460.639007568359370 -295.032012939453120
-179.158004760742190 -471.165985107421870 -276.786987304687500
-148.110000610351560 -458.826995849609370 -300.171997070312500
-168.505004882812500 -466.494995117187500 -293.781005859375000
-152.330001831054690 -462.652008056640620 -298.532012939453130
-427.592010498046870 -434.552001953125000 -469.165985107421870
-425.489990234375000 -436.414001464843750 -464.977996826171870
-174.417007446289060 -468.488006591796870 -294.093994140625000
-174.576995849609370 -470.691009521484370 -288.679992675781250
-432.446990966796870 -436.694000244140620 -472.559997558593750
-160.158996582031250 -468.570007324218750 -294.144012451171870
-175.848999023437500 -480.321990966796870 -274.320007324218750
-152.613998413085940 -468.618011474609370 -298.932006835937500
-170.425994873046870 -474.638000488281250 -292.665985107421870
-170.822006225585940 -477.014007568359370 -286.679992675781250
-147.968002319335940 -468.627014160156250 -301.983001708984370
-164.378005981445310 -474.572998046875000 -292.049011230468750
-429.001007080078120 -441.154998779296870 -473.842987060546870
-425.917999267578120 -442.687988281250000 -468.930999755859380
-158.544998168945310 -474.666992187500000 -294.869995117187500
-175.602996826171870 -486.303009033203120 -271.989013671875000
-172.708999633789060 -484.773986816406250 -276.821990966796880
-152.417007446289060 -474.631988525390620 -298.647003173828120
-166.475006103515620 -480.842010498046870 -291.308990478515620
-430.696014404296880 -445.204010009765620 -477.989013671875000
-168.449996948242190 -484.654998779296870 -282.694000244140620
-158.248001098632810 -480.494995117187500 -292.428009033203120
-172.072006225585940 -490.490997314453120 -274.375000000000000
-153.945007324218750 -480.191009521484370 -295.868011474609370
-144.860992431640620 -476.833007812500000 -303.441009521484370
-174.065994262695310 -494.511993408203120 -270.356994628906250
-167.936004638671870 -490.269989013671870 -280.019012451171870
-162.425994873046880 -486.621002197265620 -290.501007080078120
-149.936004638671870 -482.309997558593750 -297.872985839843750
-430.432006835937500 -450.485992431640620 -482.842010498046870
-162.598007202148440 -490.755004882812500 -284.714996337890620
-168.365997314453120 -494.605010986328120 -276.580993652343750
-152.147003173828120 -486.476013183593750 -294.312988281250000
-156.322006225585940 -488.533996582031250 -290.289001464843750
-140.477005004882810 -482.786010742187500 -302.868988037109370
-164.315994262695310 -494.541992187500000 -280.479003906250000
-170.363998413085940 -498.618011474609370 -272.591003417968750
-434.442993164062500 -454.611999511718750 -484.695007324218750
-160.472000122070310 -492.666992187500000 -290.463012695312500
-144.684997558593750 -489.109008789062500 -297.540008544921870
-166.024993896484370 -500.239013671875000 -276.014007568359370
-159.507003784179690 -495.852996826171870 -286.406005859375000
-150.779006958007810 -492.924011230468750 -291.218994140625000
-136.425003051757810 -488.743988037109370 -298.847991943359370
-160.472000122070310 -498.679992675781250 -280.730010986328120
-154.408996582031250 -496.652008056640620 -288.838989257812500
-168.065002441406250 -506.188995361328130 -270.049011230468750
-144.393997192382810 -494.574005126953120 -294.546997070312500
-132.527999877929690 -492.415008544921870 -296.248992919921870
-162.147003173828120 -504.315002441406250 -276.247985839843750
-156.106994628906250 -504.268005371093750 -280.216003417968750
-162.688003540039060 -508.994995117187500 -271.032012939453120
-148.509002685546870 -500.744995117187500 -288.858001708984370
-138.361999511718750 -498.304992675781250 -294.066009521484370
-158.205993652343750 -508.298004150390630 -276.225006103515620
-152.324005126953120 -504.467987060546870 -287.837005615234370
-160.852996826171870 -513.463989257812500 -267.492004394531250
-128.343994140625000 -500.700988769531250 -290.826995849609370
-142.475006103515620 -502.717010498046870 -290.807006835937500
-134.455001831054690 -502.300994873046870 -291.993988037109370
-154.011001586914060 -510.260986328125000 -278.071990966796870
-124.160003662109370 -504.812011718750000 -287.240997314453120
-146.436004638671870 -508.648010253906250 -286.811004638671870
-130.253005981445310 -506.865997314453120 -289.148986816406250
-136.425003051757810 -508.796997070312500 -289.197998046875000
-140.647994995117190 -511.019989013671880 -287.330993652343750
-152.707992553710940 -518.893005371093750 -270.791992187500000
-121.736000061035160 -510.924987792968750 -283.578002929687500
-152.311996459960940 -522.533996582031250 -264.625000000000000
-126.662002563476560 -512.476013183593750 -286.247985839843750
-148.807006835937500 -518.900024414062500 -276.898010253906250
-146.319000244140620 -516.427001953125000 -286.156005859375000
-140.369003295898440 -516.674987792968750 -285.144989013671870
-148.458999633789060 -522.661010742187500 -272.678009033203120
-120.294998168945310 -516.729980468750000 -280.904998779296870
-124.750000000000000 -516.445983886718750 -283.979003906250000
-132.395004272460940 -516.580017089843750 -286.276000976562500
-146.751007080078130 -520.875976562500000 -282.466003417968750
-149.746994018554690 -528.343017578125000 -264.371002197265620
-114.500999450683590 -520.723999023437500 -278.269012451171870
-144.535003662109370 -526.757019042968750 -274.766998291015620
-142.520004272460940 -522.869995117187500 -285.372009277343750
-120.611999511718750 -522.510009765625000 -280.042999267578120
-146.350997924804690 -530.614013671875000 -268.609008789062500
-136.522994995117190 -524.552001953125000 -284.062988281250000
-126.572998046875000 -524.523986816406250 -282.352996826171870
-143.330993652343750 -527.132995605468750 -282.454986572265620
-149.677001953125000 -536.598022460937500 -262.187011718750000
-141.134994506835940 -530.987976074218750 -275.441009521484370
-116.626998901367190 -526.484985351562500 -279.207000732421870
-146.110000610351560 -536.578979492187500 -266.420989990234370
-132.395996093750000 -528.677978515625000 -282.908996582031250
-143.393997192382810 -534.968994140625000 -271.365997314453120
-138.490005493164060 -530.500976562500000 -284.217010498046870
-122.430000305175780 -530.638000488281250 -280.270996093750000
-128.238998413085940 -532.653015136718750 -281.231994628906250
-114.042999267578120 -530.848999023437500 -281.776000976562500
-139.054992675781250 -534.963012695312500 -280.394989013671870
-146.729003906250000 -542.687011718750000 -265.036010742187500
-142.921997070312500 -540.882995605468750 -269.218994140625000
-134.011001586914060 -534.442993164062500 -283.505004882812500
-138.367004394531250 -538.604003906250000 -274.593994140625000
-122.510002136230470 -536.562011718750000 -281.035003662109370
-112.002998352050780 -534.851013183593750 -283.873992919921870
-138.593994140625000 -538.736022949218750 -284.576995849609370
-130.580993652343750 -538.661987304687500 -282.375000000000000
-143.067993164062500 -546.815002441406250 -267.548004150390620
-138.266006469726560 -544.533996582031250 -272.385986328125000
-116.564002990722660 -538.572998046875000 -283.035003662109370
-135.378005981445310 -543.067016601562500 -280.438995361328120
-126.402000427246090 -542.625976562500000 -280.828002929687500
-108.184997558593750 -538.681030273437500 -286.430999755859370
-120.208999633789060 -542.570007324218750 -281.967010498046870
-134.643005371093750 -548.768005371093750 -272.920989990234370
-138.927001953125000 -550.955993652343750 -269.479003906250000
-142.889999389648440 -553.111999511718750 -265.354003906250000
-112.196998596191410 -542.604003906250000 -284.178009033203120
-130.455001831054690 -546.513000488281250 -282.444000244140620
-116.337997436523440 -546.578979492187500 -282.352996826171870
-131.013000488281250 -550.851989746093750 -276.549987792968750
-108.394996643066410 -544.645996093750000 -286.621002197265620
-134.423995971679690 -554.635009765625000 -270.657989501953120
-138.113998413085940 -558.172973632812500 -264.315002441406250
-122.427001953125000 -550.632019042968750 -280.621002197265620
-140.386993408203120 -560.536010742187500 -260.544006347656250
-112.148002624511720 -548.643005371093750 -284.316986083984370
-129.024002075195310 -556.976989746093750 -273.074005126953120
-130.255004882812500 -554.575012207031250 -280.690002441406250
-133.119995117187500 -561.372009277343750 -265.171997070312500
-118.384002685546870 -554.593994140625000 -280.381988525390620
-107.233001708984370 -550.333007812500000 -289.351013183593750
-124.632003784179690 -556.682983398437500 -282.282012939453120
-132.805999755859370 -566.718994140625000 -259.156005859375000
-128.253005981445310 -562.494018554687500 -270.476013183593750
-129.343994140625000 -565.187988281250000 -265.316009521484380
-104.161003112792970 -552.749023437500000 -292.479003906250000
-114.228996276855470 -558.604003906250000 -282.522003173828120
-125.964996337890620 -562.484985351562500 -276.727996826171880
-124.258003234863280 -562.416015625000000 -282.151000976562500
-118.444999694824220 -562.668029785156250 -280.497985839843750
-108.682998657226560 -558.661987304687500 -288.833007812500000
-128.391998291015620 -570.643981933593750 -264.635009765625000
-132.298004150390630 -572.715026855468750 -260.516998291015620
-104.832000732421870 -558.732971191406250 -293.046997070312500
-124.801002502441410 -570.619995117187500 -269.050994873046870
-123.192001342773440 -568.934997558593750 -274.704010009765620
-118.291000366210940 -568.580993652343750 -281.104003906250000
-108.246002197265620 -566.538024902343750 -286.533996582031250
-128.485000610351560 -576.606018066406250 -266.721984863281250
-111.236999511718750 -568.981994628906250 -281.447998046875000
-104.700996398925780 -564.794006347656250 -291.095001220703130
-122.202003479003910 -572.541992187500000 -280.697998046875000
-132.324005126953120 -580.666015625000000 -264.552001953125000
-124.202003479003910 -578.659973144531250 -270.246002197265620
-116.239997863769530 -574.568969726562500 -281.121002197265620
-105.009002685546870 -571.051025390625000 -287.246002197265620
-107.831001281738280 -574.263000488281250 -282.036010742187500
-128.143005371093750 -582.612976074218750 -268.243011474609370
-96.425300598144531 -570.632019042968750 -290.653991699218750
-119.606002807617190 -578.247009277343750 -280.730987548828120
-100.318000793457030 -574.388000488281250 -288.292999267578120
-94.602897644042969 -574.510986328125000 -286.433990478515620
-90.093299865722656 -576.627014160156250 -281.032989501953120
-132.464996337890630 -588.669982910156250 -264.729003906250000
-117.821998596191410 -582.424011230468750 -278.669006347656250
-102.526000976562500 -578.731018066406250 -284.792999267578120
-96.408599853515625 -580.661987304687500 -284.696990966796870
-92.337997436523438 -582.708007812500000 -280.803009033203120
-86.595901489257813 -584.567993164062500 -276.381988525390620
-100.320999145507810 -584.508972167968750 -282.468994140625000
-84.567298889160156 -588.622009277343750 -274.403015136718750
-92.925598144531250 -611.278991699218750 -275.584014892578120
-96.563102722167969 -606.872009277343750 -276.971008300781250
-94.429000854492188 -602.642028808593750 -278.718994140625000
-88.336402893066406 -608.622985839843750 -276.846008300781250
-117.125999450683590 -603.351013183593750 -265.346008300781250
-128.453994750976560 -598.593994140625000 -262.462005615234370
-120.433998107910160 -596.640014648437500 -266.669006347656250
-122.415000915527340 -602.362976074218750 -260.148010253906250
-88.404197692871094 -602.643981933593750 -276.694000244140620
-84.474296569824219 -604.630981445312500 -272.622985839843750
-88.523300170898437 -592.640014648437500 -276.480010986328120
-84.641998291015625 -596.541992187500000 -274.053985595703120
