ply
format ascii 1.0
element vertex 366
property double x
property double y
property double z
end_header
-192.257995605468750 43.455600738525391 -60.869701385498047
-192.257995605468750 43.455600738525391 -60.869701385498047
-188.667999267578120 39.169498443603516 -60.160400390625000
-188.755004882812500 33.204399108886719 -62.242198944091797
-192.770996093750000 31.236200332641602 -66.288299560546875
-188.604003906250000 27.264400482177734 -64.426399230957031
-184.453002929687500 23.116100311279297 -64.166000366210937
-191.789001464843750 23.573999404907227 -69.169998168945313
-188.134002685546870 19.536100387573242 -67.058601379394531
-189.126007080078120 15.061400413513184 -70.026000976562500
-184.602996826171870 11.235199928283691 -68.249099731445313
-188.602005004882810 9.292969703674316 -72.563400268554688
-180.447998046875000 7.378759860992432 -68.583297729492188
-184.764999389648440 5.234529972076416 -70.181098937988281
-188.382995605468750 5.375170230865479 -76.669502258300781
-180.529998779296870 -0.684183001518250 -70.128303527832031
-186.429000854492190 1.363999962806702 -80.662200927734375
-185.138000488281250 -4.821330070495606 -74.219902038574219
-180.341995239257810 -6.566820144653320 -71.160102844238281
-184.977005004882810 -6.723559856414795 -83.042396545410156
-180.529998779296870 -12.703599929809570 -72.461097717285156
-184.175994873046870 -12.569399833679199 -76.761497497558594
-183.740005493164060 -14.645500183105469 -82.582702636718750
-180.550994873046880 -12.648400306701660 -88.812599182128906
-178.397003173828120 -18.544000625610352 -73.126296997070313
-183.067001342773440 -18.868600845336914 -78.387001037597656
-180.311004638671870 -18.611400604248047 -88.549003601074219
-176.442001342773440 -24.724399566650391 -74.087799072265625
-181.776000976562500 -24.481899261474609 -78.846099853515625
-181.783996582031250 -24.507999420166016 -84.554298400878906
-174.225997924804690 -20.751499176025391 -92.272300720214844
-179.167007446289060 -28.859300613403320 -75.982597351074219
-178.009994506835940 -24.625000000000000 -90.176399230957031
-174.513000488281250 -32.492698669433594 -75.417900085449219
-180.272003173828120 -32.585899353027344 -82.663002014160156
-177.007003784179690 -30.728300094604492 -91.393501281738281
-178.522994995117190 -36.660198211669922 -78.595901489257813
-170.024993896484370 -30.676700592041016 -96.217102050781250
-179.414993286132810 -36.738098144531250 -86.695701599121094
-174.410003662109370 -40.609100341796875 -76.826400756835938
-173.813003540039060 -34.694900512695313 -94.109802246093750
-178.636001586914060 -40.688098907470703 -82.632598876953125
-176.889999389648440 -38.634498596191406 -90.992897033691406
-176.998001098632810 -44.864299774169922 -80.231597900390625
-177.736999511718750 -44.499599456787109 -86.592498779296875
-172.919998168945310 -40.618499755859375 -95.564300537109375
-172.475006103515620 -48.701000213623047 -78.112701416015625
-168.167007446289060 -40.708499908447266 -98.205398559570313
-175.813995361328120 -44.737300872802734 -92.171096801757813
-176.675003051757810 -50.672199249267578 -82.564300537109375
-172.264999389648440 -54.495601654052734 -79.212402343750000
-164.408004760742190 -46.638801574707031 -100.621002197265620
-177.020996093750000 -54.620098114013672 -86.681198120117187
-170.296997070312500 -50.643299102783203 -98.424301147460938
-174.354003906250000 -52.623600006103516 -94.581398010253906
-174.615997314453120 -58.695800781250000 -82.504699707031250
-164.544998168945310 -52.549900054931641 -101.157997131347660
-175.617996215820310 -58.562400817871094 -90.444702148437500
-170.582000732421870 -62.711200714111328 -80.370697021484375
-171.292007446289060 -56.584598541259766 -97.643203735351563
-158.774002075195310 -54.838901519775391 -105.150001525878910
-174.983001708984370 -64.736701965332031 -86.561096191406250
-174.106994628906250 -62.566299438476562 -94.488197326660156
-164.164001464843750 -58.672401428222656 -101.971000671386720
-168.285995483398440 -70.557998657226562 -81.153099060058594
-158.285995483398440 -60.619998931884766 -104.271003723144530
-172.833999633789060 -70.745201110839844 -84.329696655273438
-168.149993896484370 -64.539703369140625 -100.183998107910160
-174.100997924804690 -68.603897094726563 -92.634399414062500
-162.559997558593750 -64.590797424316406 -103.193000793457030
-171.292999267578120 -68.704200744628906 -97.573699951171875
-165.958999633789060 -68.696899414062500 -101.983001708984370
-168.399002075195310 -78.615303039550781 -82.741203308105469
-169.123992919921870 -72.786697387695313 -99.513000488281250
-154.371994018554690 -68.686996459960937 -106.130996704101560
-172.298995971679690 -78.597900390625000 -86.757202148437500
-172.770004272460940 -76.691101074218750 -92.708602905273437
-160.554000854492190 -72.578796386718750 -105.018997192382810
-164.738998413085940 -74.553901672363281 -103.226997375488280
-164.397994995117190 -84.593399047851562 -82.923698425292969
-171.570007324218750 -80.612899780273438 -96.393096923828125
-168.623001098632810 -78.611297607421875 -100.863998413085940
-150.425994873046870 -74.580902099609375 -106.845001220703120
-156.492996215820310 -76.559898376464844 -107.083000183105470
-172.147994995117190 -84.592597961425781 -92.694900512695313
-170.397003173828120 -86.624603271484375 -86.692398071289063
-166.453002929687500 -90.647003173828125 -84.611000061035156
-167.819000244140620 -84.688598632812500 -101.977996826171870
-162.167007446289060 -82.726501464843750 -106.279998779296870
-148.473007202148440 -80.660301208496094 -108.999000549316410
-171.723999023437500 -92.371200561523438 -90.922798156738281
-170.722000122070310 -90.697799682617188 -96.731399536132813
-162.427993774414060 -94.690200805664063 -84.295501708984375
-152.432998657226560 -84.443099975585937 -109.311996459960940
-164.740997314453120 -88.623100280761719 -105.001998901367190
-158.468994140625000 -86.598800659179687 -108.813003540039060
-166.875000000000000 -96.763397216796875 -86.186996459960937
-146.369003295898440 -86.728302001953125 -109.875999450683590
-169.860000610351560 -98.519798278808594 -90.935798645019531
-170.423004150390620 -96.635803222656250 -96.660400390625000
-168.110992431640620 -94.695899963378906 -102.393997192382810
-162.360992431640620 -100.623001098632810 -84.861801147460938
-154.410003662109370 -90.691703796386719 -110.495002746582030
-162.126007080078120 -92.692497253417969 -108.236000061035160
-144.453994750976560 -92.692497253417969 -111.280998229980470
-170.546997070312500 -102.654998779296870 -94.663803100585938
-168.772003173828120 -100.697998046875000 -100.734001159667970
-168.453002929687500 -104.642997741699220 -90.646102905273437
-150.354995727539060 -94.734497070312500 -112.087997436523440
-164.365997314453120 -106.598999023437500 -86.793800354003906
-158.623992919921870 -98.547302246093750 -111.152000427246090
-163.623992919921870 -100.747001647949220 -107.905998229980470
-156.447006225585940 -106.589996337890620 -90.826400756835938
-168.958999633789060 -108.762001037597660 -94.416900634765625
-168.057998657226560 -106.668998718261720 -100.525001525878910
-166.748992919921870 -110.735000610351560 -90.386100769042969
-152.410003662109370 -100.553001403808590 -112.952003479003910
-144.630004882812500 -100.721000671386720 -112.081001281738280
-160.473007202148440 -112.668998718261720 -86.405601501464844
-165.697998046875000 -106.603996276855470 -106.123001098632810
-160.574996948242190 -104.624000549316410 -110.842002868652340
-168.386001586914060 -112.629997253417970 -98.655601501464844
-164.063995361328120 -116.522003173828120 -89.158096313476562
-154.169998168945310 -106.737998962402340 -114.040000915527340
-154.352005004882810 -114.723999023437500 -94.470199584960938
-144.141006469726560 -106.448997497558590 -113.325996398925780
-156.606994628906250 -118.916000366210940 -85.925102233886719
-166.669006347656250 -118.668998718261720 -94.569297790527344
-157.970001220703120 -118.667999267578120 -92.339698791503906
-160.720001220703130 -120.802001953125000 -88.003501892089844
-161.233993530273440 -112.416999816894530 -111.513000488281250
-148.339004516601560 -110.492996215820310 -115.151000976562500
-140.451004028320310 -110.651000976562500 -112.621002197265620
-156.429992675781250 -112.635002136230470 -114.677001953125000
-165.076004028320310 -116.601997375488280 -107.093002319335940
-166.593994140625000 -118.629997253417970 -102.685997009277340
-162.753005981445310 -124.758003234863280 -90.215698242187500
-167.067993164062500 -122.719001770019530 -98.652801513671875
-136.341995239257810 -114.564002990722660 -110.789001464843750
-165.113998413085940 -126.813003540039060 -94.226501464843750
-148.386993408203120 -116.553001403808590 -116.926002502441410
-158.481994628906250 -128.666000366210940 -88.379501342773438
-163.652999877929690 -122.369003295898440 -108.514999389648440
-156.531997680664060 -126.632003784179690 -94.728599548339844
-154.333999633789060 -118.681999206542970 -116.426002502441410
-140.052993774414060 -118.453002929687500 -115.260002136230470
-158.557006835937500 -122.616996765136720 -114.866996765136720
-152.880996704101560 -128.320999145507810 -99.464302062988281
-160.563003540039060 -132.675003051757810 -90.496803283691406
-164.960998535156250 -128.684005737304690 -104.755996704101560
-150.356002807617190 -122.769996643066410 -118.197998046875000
-155.339996337890630 -132.634994506835940 -97.201202392578125
-164.207992553710940 -134.597000122070310 -96.745597839355469
-132.309005737304690 -124.608001708984370 -112.836997985839840
-144.462005615234370 -124.664001464843750 -118.561996459960940
-138.481002807617190 -124.666999816894530 -116.555999755859370
-159.847000122070310 -128.621994018554690 -114.221000671386720
-154.143005371093750 -126.732002258300780 -118.148002624511720
-156.201995849609370 -138.561996459960940 -89.117202758789063
-160.703994750976560 -138.720993041992190 -92.385200500488281
-163.960006713867190 -136.561004638671870 -104.526000976562500
-156.947006225585940 -132.667007446289060 -117.185997009277340
-155.373992919921870 -140.625000000000000 -96.982597351074219
-134.751998901367190 -130.798995971679690 -116.176002502441410
-144.505996704101560 -130.733001708984370 -120.288002014160160
-152.177993774414060 -138.686996459960940 -102.377998352050780
-152.240997314453120 -132.634994506835940 -120.123001098632810
-157.951004028320310 -144.468994140625000 -91.202301025390625
-160.302993774414060 -136.738998413085940 -114.605003356933590
-162.623001098632810 -144.686004638671870 -98.569000244140625
-153.261001586914060 -148.723999023437500 -88.056198120117187
-153.876007080078130 -144.623992919921870 -100.344001770019530
-148.427993774414060 -136.815002441406250 -122.009002685546870
-159.134994506835940 -148.792007446289060 -94.108001708984375
-142.182998657226560 -136.427993774414060 -121.440002441406250
-130.330001831054690 -138.632995605468750 -114.848999023437500
-136.882003784179690 -138.942001342773440 -119.731002807617190
-155.811996459960940 -152.464004516601560 -91.456298828125000
-161.057006835937500 -150.776992797851560 -98.368797302246094
-146.507995605468750 -146.815994262695310 -106.327003479003910
-151.014007568359370 -148.544006347656250 -105.169998168945310
-152.276000976562500 -142.714996337890620 -122.261001586914060
-154.886993408203130 -152.591995239257810 -98.866302490234375
-146.449005126953120 -142.852996826171870 -123.723999023437500
-140.384994506835940 -142.606994628906250 -122.751998901367190
-131.026000976562500 -144.729995727539060 -116.178001403808590
-134.833999633789060 -144.820999145507810 -120.124000549316410
-148.192993164062500 -152.720001220703120 -108.335998535156250
-161.307998657226560 -156.871994018554690 -102.283996582031250
-158.380004882812500 -158.623992919921870 -96.695198059082031
-153.904006958007810 -160.559005737304690 -91.138298034667969
-154.354995727539060 -158.636993408203120 -100.638000488281250
-128.664993286132810 -150.656005859375000 -114.416999816894530
-140.462005615234370 -148.673004150390620 -124.538002014160160
-150.373992919921870 -150.671005249023440 -124.480003356933590
-132.910003662109370 -150.766006469726560 -120.192001342773440
-150.785995483398440 -158.582992553710940 -106.941001892089840
-159.167007446289060 -162.837005615234370 -100.373001098632810
-153.787002563476560 -164.388000488281250 -102.626998901367190
-146.777999877929690 -160.462997436523440 -111.236999511718750
-146.518005371093750 -154.578994750976560 -126.997001647949220
-153.533996582031250 -168.296005249023440 -93.293197631835938
-138.076004028320310 -154.429992675781250 -125.333999633789060
-129.136993408203120 -156.755004882812500 -116.286003112792970
-151.126007080078120 -164.615005493164060 -107.069000244140620
-134.100006103515620 -156.546997070312500 -123.014999389648440
-156.617996215820310 -168.695007324218750 -98.537300109863281
-150.544998168945310 -172.703994750976560 -90.616897583007812
-140.154006958007810 -158.442993164062500 -127.373001098632810
-158.718002319335940 -170.707992553710940 -104.529998779296870
-146.358993530273440 -160.712005615234370 -128.324996948242190
-152.261001586914060 -170.626998901367190 -104.612998962402340
-149.886001586914060 -168.750000000000000 -110.227996826171870
-126.602996826171870 -164.660995483398440 -114.480003356933590
-154.580993652343750 -174.692993164062500 -98.557998657226563
-136.279998779296870 -162.576995849609370 -126.901000976562500
-150.199005126953120 -176.492004394531250 -94.879699707031250
-146.029998779296870 -168.824005126953120 -114.052001953125000
-130.298004150390620 -164.615997314453120 -120.739997863769530
-142.434005737304690 -164.813995361328130 -130.011993408203120
-151.210998535156250 -176.908004760742190 -102.541999816894530
-150.878997802734380 -174.630996704101560 -108.841003417968750
-126.536003112792970 -170.649993896484370 -114.559997558593750
-146.742004394531250 -180.878997802734380 -94.311096191406250
-156.705993652343750 -178.710006713867190 -104.531997680664060
-150.720001220703130 -180.893997192382810 -98.200500488281250
-145.796005249023440 -174.824996948242190 -115.968002319335940
-148.167007446289060 -170.735992431640620 -130.190002441406250
-128.934997558593750 -172.688995361328120 -120.421997070312500
-134.630004882812500 -170.718994140625000 -128.347000122070310
-150.759994506835940 -180.680999755859370 -108.714996337890620
-127.008003234863280 -176.613006591796870 -114.302001953125000
-147.979995727539060 -186.272003173828120 -99.316299438476563
-140.867004394531250 -179.005004882812500 -117.853996276855470
-152.337005615234380 -186.583999633789060 -102.750999450683590
-146.361999511718750 -180.652999877929690 -116.600997924804690
-142.391006469726560 -174.684005737304690 -132.352005004882810
-130.445999145507810 -176.639999389648440 -124.652000427246090
-127.857002258300780 -178.630996704101560 -118.836997985839840
-156.322998046875000 -186.608993530273440 -108.718002319335940
-133.850997924804690 -176.337005615234370 -129.345993041992190
-144.067993164062500 -190.341995239257810 -99.144599914550781
-148.899002075195310 -186.619995117187500 -112.772003173828130
-148.270996093750000 -192.485992431640620 -102.955001831054690
-149.080001831054690 -190.727005004882810 -108.663002014160160
-144.302993774414060 -180.824005126953120 -133.824005126953120
-135.031005859375000 -180.962997436523440 -131.731994628906250
-130.261993408203120 -182.608993530273440 -126.748001098632810
-147.279998779296870 -188.462005615234370 -117.112998962402340
-154.371002197265620 -192.617996215820310 -108.693000793457030
-142.595993041992190 -186.442001342773440 -121.289001464843750
-128.322006225585940 -186.643005371093750 -118.662002563476560
-144.057006835937500 -196.147003173828120 -103.403999328613280
-140.425003051757810 -184.546005249023440 -135.001007080078120
-128.020996093750000 -190.664993286132810 -114.721000671386720
-148.768997192382810 -197.080993652343750 -105.899002075195310
-132.048995971679690 -186.524002075195310 -131.044006347656250
-152.988998413085940 -198.863998413085940 -110.336997985839840
-129.848007202148440 -190.531005859375000 -128.882995605468750
-127.874000549316410 -192.563003540039060 -122.882003784179690
-143.162002563476560 -194.360000610351560 -123.632003784179690
-142.589004516601560 -200.983993530273440 -106.124000549316410
-142.434997558593750 -190.604995727539060 -136.759002685546870
-128.287994384765620 -196.636001586914060 -118.650001525878910
-136.393005371093750 -192.589996337890620 -136.835006713867190
-146.352996826171880 -204.550994873046870 -108.839996337890620
-138.332000732421870 -204.445007324218750 -106.954002380371090
-152.261001586914060 -204.557998657226560 -112.785003662109370
-130.889999389648440 -194.751998901367190 -132.304992675781250
-128.296005249023440 -198.626998901367190 -126.688003540039060
-128.970001220703120 -202.582000732421870 -116.773002624511720
-136.427001953125000 -198.636993408203120 -138.660995483398440
-144.281997680664060 -210.356994628906250 -111.181999206542970
-130.886993408203130 -200.759002685546870 -134.305999755859370
-136.410003662109370 -210.541000366210940 -110.797996520996090
-127.985000610351560 -204.615997314453120 -126.723999023437500
-129.878005981445310 -208.746994018554690 -116.509002685546870
-150.865997314453120 -212.893005371093750 -116.185997009277340
-128.350997924804690 -208.628005981445310 -122.634002685546870
-128.304992675781250 -206.600006103515620 -132.738006591796870
-134.675003051757810 -204.791000366210940 -139.783004760742190
-144.481002807617190 -216.839996337890620 -114.205001831054690
-131.050994873046880 -214.473007202148440 -117.001998901367190
-138.302001953125000 -216.813003540039060 -114.280998229980470
-152.673004150390620 -216.744995117187500 -120.475997924804690
-131.218994140625000 -208.839996337890620 -138.171997070312500
-138.518005371093750 -208.744003295898440 -142.423004150390630
-129.337005615234370 -216.496002197265620 -121.202003479003910
-128.115005493164060 -214.628997802734370 -126.613998413085940
-140.339004516601560 -221.085006713867190 -115.859001159667970
-128.947998046875000 -212.738998413085940 -134.548995971679690
-148.102996826171870 -222.416000366210940 -119.054000854492190
-151.835006713867190 -222.408996582031250 -122.968002319335940
-128.255996704101560 -220.651000976562500 -126.621002197265620
-134.714004516601560 -224.356994628906250 -119.214996337890620
-129.917999267578130 -222.744995117187500 -122.341003417968750
-142.447998046875000 -226.902999877929690 -118.188003540039060
-148.996002197265620 -226.947006225585940 -121.917999267578120
-128.132003784179690 -220.591003417968750 -134.740997314453120
-130.285003662109370 -220.604995727539060 -140.744995117187500
-151.117004394531250 -228.884002685546870 -126.279998779296870
-136.514007568359370 -230.537994384765620 -120.858001708984370
-128.171997070312500 -226.641006469726560 -128.582000732421870
-148.569000244140620 -232.727996826171870 -124.489997863769530
-130.666000366210940 -232.565002441406250 -124.869003295898440
-144.009002685546870 -236.218002319335940 -123.410003662109370
-127.515998840332030 -230.675003051757810 -132.542999267578130
-151.940994262695310 -234.447006225585940 -131.026000976562500
-127.888000488281250 -230.615997314453120 -138.699005126953120
-133.744995117187500 -237.018997192382810 -123.775001525878910
-148.699996948242190 -238.740997314453120 -128.483993530273440
-129.136993408203120 -236.479995727539060 -129.089004516601560
-138.434005737304690 -240.729995727539060 -124.117996215820310
-144.705993652343750 -240.910995483398440 -126.081001281738280
-127.821998596191410 -236.563995361328120 -140.714996337890630
-133.947006225585940 -242.901992797851560 -126.018997192382810
-150.199005126953120 -242.548995971679690 -132.845001220703120
-140.606002807617190 -244.854995727539060 -126.087997436523440
-127.766998291015620 -240.720001220703120 -134.496002197265620
-129.863998413085940 -242.794998168945310 -130.222000122070310
-145.919006347656250 -246.279006958007810 -129.328002929687500
-136.591003417968750 -248.438995361328120 -127.116996765136720
-149.861999511718750 -248.315994262695310 -135.231994628906250
-128.270996093750000 -246.654006958007810 -134.572998046875000
-131.977996826171870 -248.869995117187500 -130.158996582031250
-142.789001464843750 -251.005004882812500 -129.826004028320310
-146.802001953125000 -252.817001342773440 -134.347000122070310
-138.466003417968750 -254.360992431640620 -129.317993164062500
-132.968002319335940 -254.320007324218750 -131.492996215820310
-129.110992431640630 -252.468002319335940 -135.138000488281250
-149.065994262695310 -254.886001586914060 -138.242004394531250
-136.162994384765620 -258.959991455078120 -131.792007446289060
-142.430999755859370 -260.665985107421870 -132.608001708984370
-128.207000732421870 -256.665008544921870 -138.561004638671870
-148.283996582031250 -260.583007812500000 -140.764007568359370
-134.171997070312500 -262.785003662109370 -134.261993408203120
-129.742004394531250 -262.803009033203120 -138.085998535156250
-144.490997314453120 -266.714996337890620 -136.513000488281250
-127.883003234863280 -264.708007812500000 -142.429000854492190
-138.449996948242190 -269.054992675781250 -135.854003906250000
-132.832992553710940 -268.388000488281250 -137.285003662109370
-125.960998535156250 -266.661010742187500 -148.673995971679690
-144.735992431640630 -272.868011474609370 -140.179992675781250
-138.436004638671870 -274.744995117187500 -138.440002441406250
-129.673004150390630 -272.904998779296870 -142.117004394531250
-126.202003479003910 -272.644012451171870 -146.585006713867190
-146.988006591796870 -277.135009765625000 -144.106994628906250
-142.110992431640620 -278.365997314453120 -141.233001708984370
-126.000000000000000 -272.614013671875000 -154.654006958007810
-136.481002807617190 -280.468994140625000 -141.042999267578130
-130.175994873046870 -280.729003906250000 -144.425003051757810
-144.139007568359370 -282.549987792968750 -144.919998168945310
-125.802001953125000 -276.546997070312500 -158.744003295898440
-126.432998657226560 -280.635986328125000 -148.667999267578120
-125.380996704101560 -280.674987792968750 -154.660003662109370
-140.468002319335940 -286.707000732421870 -144.520004272460940
-132.485992431640620 -286.608001708984370 -144.746994018554690
-128.238006591796870 -286.647003173828120 -148.440002441406250
-136.462997436523440 -290.358001708984370 -145.376007080078130
-125.194999694824220 -286.630004882812500 -154.748001098632810
-131.190994262695310 -292.296997070312500 -147.585998535156250
-126.291999816894530 -290.656005859375000 -150.606994628906250
-124.763999938964840 -290.666992187500000 -160.649993896484370
-126.226997375488280 -296.661010742187500 -152.587005615234370
-124.708999633789060 -296.649993896484380 -158.716995239257810
-125.559997558593750 -302.731994628906250 -156.389999389648440
