ply
format ascii 1.0
element vertex 188
property double x
property double y
property double z
end_header
109.319999694824220 244.339004516601560 -331.696014404296880
109.222000122070310 246.169006347656250 -331.907012939453120
111.656500498453780 248.066668192545560 -333.419331868489560
112.350498199462890 250.114501953125000 -334.892501831054690
103.529332478841140 241.071665445963530 -328.895334879557310
106.534200286865230 242.177699279785140 -328.271902465820290
109.975000381469730 243.409748077392580 -327.569503784179690
109.075996398925780 244.414001464843750 -329.850006103515620
111.418334960937500 246.001001993815090 -330.075337727864560
103.238667805989580 236.739003499348970 -322.691335042317690
105.759400939941400 238.804202270507800 -322.530999755859400
103.586997985839840 239.576004028320310 -326.330993652343750
107.019601440429680 240.379498291015640 -324.254595947265610
110.714599609375000 242.055194091796860 -323.852996826171880
98.869499206542969 232.722000122070310 -318.217987060546870
100.654500325520830 234.026997884114590 -318.756988525390620
102.859664916992190 235.737335205078120 -318.770996093750000
106.626800537109370 238.303598022460930 -319.288391113281250
109.392997741699220 239.947998046875000 -320.087005615234370
93.570098876953125 229.666000366210940 -312.063995361328130
96.211129324776792 231.452285766601560 -313.559143066406250
99.994798660278320 233.768497467041020 -314.606498718261720
102.242751121521000 235.287624359130860 -313.860248565673830
106.144373893737790 237.428625106811520 -314.368373870849610
93.084098815917969 228.177001953125000 -308.135009765625000
93.811550140380859 229.508499145507810 -309.018508911132810
96.806469726562497 232.113099670410150 -308.720300292968770
99.446800231933594 233.863998413085940 -310.105010986328120
102.303833007812500 235.768503824869780 -308.831166585286440
106.606502532958980 237.447502136230470 -310.123001098632810
92.259732564290360 227.610331217447910 -305.519663492838560
93.401915232340500 230.362665812174470 -303.305664062500000
95.863687515258789 232.686876296997070 -304.356128692626950
98.166180419921872 235.172000122070300 -303.307397460937520
100.659350077311200 236.556831359863280 -303.979665120442690
88.577899932861328 229.896499633789060 -297.007492065429690
91.720382690429688 231.939414978027340 -298.606252034505190
95.117996215820313 234.276000976562500 -300.298004150390620
93.044700622558594 234.582992553710940 -296.372009277343750
96.784757341657368 235.986572265625000 -299.035714285714280
100.122166951497390 237.866999308268220 -299.446675618489560
76.438251495361328 225.811996459960940 -291.947509765625000
81.329999923706055 226.982498168945310 -292.779495239257810
85.053703308105469 227.986999511718750 -294.589996337890620
83.154926300048828 230.200500488281250 -292.281753540039060
86.984449659075054 231.650500706263950 -293.827571323939710
90.155948638916016 233.095504760742190 -295.381004333496090
92.148614065987729 235.279139927455360 -293.388000488281250
96.624687194824219 236.919143676757810 -295.042428152901780
72.284600830078119 228.151800537109380 -288.836401367187480
76.976341247558594 228.422998046874990 -289.854193115234350
79.788299560546875 227.503005981445310 -291.270996093750000
73.449050903320312 229.814498901367190 -287.013000488281250
77.230548858642578 230.911168416341160 -287.817825317382810
81.497631072998047 231.946501159667970 -289.205801391601540
85.761740112304693 233.608200073242190 -290.135003662109400
83.178100585937500 234.490997314453120 -286.464996337890620
87.032897949218750 235.117335001627590 -288.490000406901060
90.871080017089838 236.245404052734390 -289.412799072265610
60.527551651000977 229.919502258300780 -281.940002441406250
68.404598236083984 231.914497375488280 -282.116500854492190
71.651233037312821 231.908915201822910 -283.601666768391910
76.649974822998047 233.211750030517580 -284.656871795654300
80.502151489257813 233.742500305175780 -286.013000488281250
76.780034383138016 235.081670125325530 -282.023996988932310
81.713612556457520 235.500623703002930 -283.519245147705080
86.642533620198563 236.284001668294280 -284.869496663411440
9.943880081176758 313.847991943359370 -282.171997070312500
53.441398620605469 234.009002685546870 -278.368988037109370
57.103628976004465 232.337855747767860 -279.005859375000000
61.188299655914307 232.621496200561520 -279.539249420166020
67.019238281249997 233.516201782226570 -280.539404296874980
47.454351425170898 238.213005065917970 -277.445007324218750
51.161262989044189 237.110622406005860 -277.544754028320310
56.447949409484863 235.930000305175780 -277.166503906250000
61.655457632882253 235.892857142857140 -277.604435511997790
66.725639343261719 235.855798339843740 -278.460198974609400
71.417470659528462 235.769143240792400 -279.285282679966540
76.428724288940430 236.031002044677730 -279.126754760742190
80.909140014648443 236.470999145507820 -279.405200195312490
9.623579978942871 307.881011962890620 -278.102996826171880
8.439287948608399 311.989398193359360 -278.763397216796870
9.711222410202026 311.929000854492190 -279.009254455566410
53.359800338745117 238.715499877929690 -275.861999511718750
56.766267140706383 238.045003255208340 -275.649007161458310
61.448933283487953 238.170171101888030 -275.330505371093750
66.593155997140073 238.497573852539060 -274.087288992745530
71.159063339233398 237.402626037597660 -274.351627349853520
77.111567179361984 236.379000345865880 -274.767328898112000
79.410400390625000 236.305999755859370 -274.076995849609370
41.922017877752133 241.830184936523440 -273.555272882634940
46.413549900054932 241.618499755859370 -274.362876892089840
51.419961195725662 241.652077308067900 -273.726769080528870
56.277228764125276 241.313568115234370 -272.942430768694180
61.156712532043457 240.351377487182620 -272.826499938964840
65.379501342773438 239.781997680664060 -272.084014892578120
42.489099502563477 245.625999450683590 -271.457489013671870
46.395799636840820 245.507003784179690 -271.500503540039060
29.036899566650391 251.669998168945310 -273.610992431640630
31.077100753784180 249.850997924804690 -271.571990966796870
23.464199066162109 258.180999755859380 -272.872985839843750
27.373916943868000 257.244338989257810 -272.411493937174500
22.754667282104492 260.493001302083310 -271.934010823567690
26.229700088500977 259.633499145507810 -271.673004150390630
11.792443752288818 282.428749084472660 -273.459506988525390
9.001219749450684 287.575012207031250 -275.333007812500000
11.178363919258118 286.935878753662110 -273.168750762939450
9.123654842376709 289.808502197265620 -274.651504516601560
12.626300017038981 291.645828247070310 -272.670664469401060
12.293477694193522 296.857106526692690 -273.909335666232660
9.121140003204346 303.340003967285160 -273.610748291015620
10.732020060221354 300.527333577473940 -274.163340250651060
8.009376287460327 307.207366943359370 -273.501125335693360
9.443320274353027 305.899993896484370 -276.105987548828120
69.608703613281250 238.266998291015620 -270.121002197265620
57.433424949645996 243.452999114990230 -270.226753234863280
61.898989359537758 242.897888183593750 -268.643442789713560
66.314138412475586 241.255624771118160 -268.535881042480470
38.335599899291992 247.027999877929690 -270.583496093750000
41.404366811116539 247.977996826171870 -270.332997639973940
47.936532974243164 247.156168619791660 -269.831339518229190
51.898480606079104 246.154597473144520 -269.421505737304700
56.516599927629741 245.475854056222090 -267.982857840401780
61.714401245117188 244.701004028320310 -266.786010742187500
32.463427110151812 252.120451493696720 -270.615461869673310
36.276043210710796 252.193287440708700 -269.448569161551350
41.508754730224609 250.819110446506070 -269.229665120442690
45.818824768066406 250.285999298095700 -268.454498291015620
28.894399642944336 257.492004394531250 -271.317993164062500
32.014140129089355 257.288800048828140 -269.711398315429680
36.254191398620605 256.723748524983710 -268.021746317545590
22.256940078735351 263.179803466796900 -270.778002929687490
27.083912372589111 262.068374633789060 -270.205249786376950
31.805162549018860 261.415063858032230 -268.198125839233400
35.110300064086914 260.518997192382810 -266.691513061523440
22.060366630554199 266.843505859375000 -269.862828572591130
26.859399795532227 266.964107937282960 -268.274108886718750
30.468750000000000 265.956008911132810 -267.020004272460940
17.422425031661987 273.368492126464840 -270.192253112792970
21.364281741055574 270.914639559659070 -269.622730601917620
24.815999984741211 273.467010498046870 -268.261993408203120
17.598612427711487 276.976001739501950 -270.235755920410160
22.510624885559082 276.016754150390630 -268.447494506835940
17.319554762406781 281.650643088600870 -269.927001953125000
19.875400066375732 280.383003234863280 -268.582000732421870
14.045800209045410 286.044006347656250 -271.057006835937500
16.273933410644531 287.379323323567690 -268.686676025390620
12.920283158620199 292.660334269205750 -269.096165974934880
14.964350223541260 289.611495971679690 -269.184494018554690
11.505624771118164 296.817504882812500 -268.691246032714840
10.985462188720703 300.274401855468740 -268.516400146484390
65.458602905273437 244.027999877929690 -266.252014160156250
69.539100646972656 240.223007202148440 -266.248992919921870
52.429716746012367 248.351669311523440 -264.161000569661440
57.046499888102211 247.455663045247410 -264.392669677734370
60.829043252127512 246.460285731724330 -264.658002580915190
42.850969314575195 253.343002319335940 -264.119198608398450
46.542711370131549 250.873469633214630 -264.230237175436570
49.359298706054688 249.764999389648440 -263.099990844726560
37.844771521432058 257.482498168945310 -264.630639212472090
40.214709195223719 256.289904507723750 -264.179995450106560
32.866728373936247 263.298291887555820 -264.963431222098220
36.263272718949750 261.151862404563190 -263.284820556640620
28.675212383270264 268.649997711181640 -264.304119110107420
31.396321160452707 266.607713971819180 -263.797426496233240
34.678699493408203 265.013000488281250 -261.713989257812500
23.419099807739258 273.469828287760440 -263.324834187825500
26.402099833768958 270.872181611902590 -264.379766127642480
21.946212768554688 276.663753509521480 -264.365749359130860
18.858550071716309 283.783671061197940 -264.075159708658870
20.089799669053818 281.010118272569460 -264.120883517795160
16.498556954520090 287.147286551339280 -264.485142299107170
12.613054535605691 291.658724698153430 -264.291268088600870
14.793499946594238 289.414001464843750 -266.135986328125000
11.504349708557129 296.919998168945310 -266.047500610351560
51.190101623535156 249.186004638671870 -260.028991699218750
42.562333424886070 253.740000406901030 -260.167999267578120
46.765940856933597 250.774801635742190 -259.800402832031240
49.494400024414063 250.173995971679690 -260.152008056640620
40.299974441528320 257.309005737304690 -260.106750488281250
37.591307957967125 261.923919677734370 -259.951586405436220
39.606300354003906 259.968994140625000 -260.162994384765620
28.435050010681152 268.842498779296870 -260.125000000000000
32.073221842447914 266.768222384982660 -259.456444634331600
35.311766306559242 265.006337483723940 -259.546335856119810
22.461367289225262 273.079335530598940 -260.163330078125000
25.973733266194660 270.436004638671870 -260.144002278645810
20.806667327880859 276.415334065755190 -259.591664632161440
