ply
format ascii 1.0
element vertex 693
property double x
property double y
property double z
end_header
-5.607250213623047 0.882007002830505 -16.438100814819336
-5.676249980926514 1.042009949684143 -16.345100402832031
-5.598249912261963 0.693005025386810 -16.324100494384766
-5.737249851226807 1.069000005722046 -16.513099670410156
-5.601250171661377 0.876006007194519 -16.193099975585938
-5.580249786376953 0.579005002975464 -16.457099914550781
-5.614250183105469 0.677007019519806 -16.163099288940430
-5.666250228881836 1.113999962806702 -16.184099197387695
-5.870250225067139 1.130010008811951 -16.428100585937500
-5.802249908447266 1.158010005950928 -16.270099639892578
-5.681250095367432 0.521005988121033 -16.325099945068359
-5.867249965667725 0.550005972385406 -16.389099121093750
-5.621250152587891 0.813005983829498 -15.981100082397461
-5.674250125885010 1.069000005722046 -15.974100112915039
-5.671249866485596 0.833005011081696 -15.764100074768066
-5.693250179290772 0.684006989002228 -15.870100021362305
-5.716249942779541 0.633005976676941 -16.031099319458008
-5.791250228881836 1.132009983062744 -15.869099617004395
-5.783249855041504 1.172009944915772 -16.039100646972656
-5.694250106811523 0.956005990505219 -15.656100273132324
-5.732250213623047 0.681006014347076 -15.710100173950195
-5.853250026702881 0.594006001949310 -15.911100387573242
-5.929249763488770 1.170009970664978 -15.975099563598633
-5.860249996185303 0.547006011009216 -16.067100524902344
-5.727250099182129 0.836004972457886 -15.555100440979004
-5.732250213623047 0.954005002975464 -15.430100440979004
-5.740250110626221 0.776005983352661 -15.397100448608398
-5.796249866485596 1.125010013580322 -15.622099876403809
-5.821249961853027 0.644006013870239 -15.443099975585938
-5.730249881744385 0.908006012439728 -15.278100013732910
-5.761250019073486 1.104009985923767 -15.379099845886230
-5.857250213623047 0.614005029201508 -15.629099845886230
-5.892250061035156 1.172009944915772 -15.456100463867188
-5.903250217437744 1.148010015487671 -15.741100311279297
-5.829249858856201 0.656005024909973 -15.279100418090820
-6.024250030517578 0.639006972312927 -15.583100318908691
-5.736249923706055 0.784004986286163 -15.162099838256836
-5.727250099182129 0.966005980968475 -14.986100196838379
-5.771249771118164 1.102010011672974 -15.161100387573242
-5.823249816894531 0.661005973815918 -15.100099563598633
-5.734250068664551 0.833005011081696 -14.865099906921387
-5.798250198364258 0.686004996299744 -14.939100265502930
-5.784249782562256 1.127009987831116 -14.959099769592285
-5.988249778747559 0.640006005764008 -15.182100296020508
-5.947249889373779 0.636005997657776 -14.968099594116211
-5.897250175476074 1.190009951591492 -15.281100273132324
-5.889249801635742 1.215000033378601 -15.041099548339844
-5.754250049591065 0.845005989074707 -14.699099540710449
-5.771249771118164 1.109009981155396 -14.697099685668945
-5.839250087738037 0.708005011081696 -14.761099815368652
-5.753250122070313 1.027009963989258 -14.521100044250488
-5.868249893188477 0.720005989074707 -14.574099540710449
-5.759250164031982 0.859005987644196 -14.438099861145020
-6.002250194549561 0.675005972385406 -14.727100372314453
-5.820250034332275 1.174010038375855 -14.516099929809570
-5.883250236511231 1.231009960174561 -14.690099716186523
-5.852250099182129 1.218009948730469 -14.846099853515625
-5.870250225067139 0.757007002830505 -14.380100250244141
-5.779250144958496 1.079010009765625 -14.370100021362305
-5.998250007629395 0.699006021022797 -14.473099708557129
-5.801249980926514 0.833005011081696 -14.218099594116211
-5.773250102996826 0.990006029605865 -14.095100402832031
-5.922249794006348 0.754006028175354 -14.146100044250488
-6.009250164031982 0.727006018161774 -14.278100013732910
-5.866250038146973 0.804005980491638 -13.976099967956543
-5.857250213623047 1.221009969711304 -14.176099777221680
-5.806250095367432 1.136010050773621 -14.021100044250488
-5.874249935150147 1.233010053634644 -14.375100135803223
-6.135250091552734 0.767005026340485 -14.417099952697754
-6.101250171661377 0.743007004261017 -14.092100143432617
-6.170249938964844 0.792006015777588 -14.245100021362305
-5.851250171661377 0.856006026268005 -13.760100364685059
-5.779250144958496 1.097000002861023 -13.865099906921387
-5.806250095367432 0.969006001949310 -13.624099731445312
-5.957250118255615 0.731006026268005 -13.745100021362305
-6.001249790191650 0.723006010055542 -13.941100120544434
-5.915249824523926 0.760004997253418 -13.562100410461426
-5.765250205993652 1.237010002136231 -13.778100013732910
-6.108250141143799 0.739005029201508 -13.804100036621094
-5.827250003814697 1.164010047912598 -13.590100288391113
-6.169250011444092 0.794004976749420 -13.943099975585938
-5.885250091552734 1.293009996414185 -13.877099990844727
-5.841249942779541 0.837005972862244 -13.440099716186523
-5.794250011444092 0.993007004261017 -13.422100067138672
-5.812250137329102 0.939005970954895 -13.241100311279297
-5.879250049591065 0.794004976749420 -13.245100021362305
-5.964250087738037 0.725004971027374 -13.386099815368652
-5.744249820709229 1.152009963989258 -13.324099540710449
-5.788249969482422 1.089010000228882 -13.184100151062012
-5.859250068664551 0.853004992008209 -13.096099853515625
-6.070250034332275 0.706005990505219 -13.550100326538086
-6.109250068664551 0.706005990505219 -13.276100158691406
-6.011250019073486 0.713006019592285 -13.143099784851074
-5.780250072479248 1.293009996414185 -13.421099662780762
-6.221250057220459 0.800005972385406 -13.428099632263184
-5.835249900817871 0.981006026268005 -12.983099937438965
-5.906250000000000 0.787005007266998 -12.958100318908691
-5.864250183105469 0.834006011486053 -12.810099601745605
-5.978250026702881 0.719006001949310 -12.831100463867188
-5.823249816894531 1.085010051727295 -12.778100013732910
-5.786250114440918 0.947004973888397 -12.691100120544434
-6.087250232696533 0.693005025386810 -12.976099967956543
-5.853250026702881 1.219009995460510 -13.087100028991699
-5.896249771118164 1.222000002861023 -12.888099670410156
-6.177249908447266 0.767005026340485 -13.141099929809570
-6.223249912261963 0.790005981922150 -12.865099906921387
-5.835249900817871 0.830006003379822 -12.581100463867188
-6.134250164031982 0.704005002975464 -12.753100395202637
-6.272250175476074 0.883005976676941 -12.988100051879883
-5.858250141143799 0.929005980491638 -12.432100296020508
-5.933249950408936 0.728004992008209 -12.497099876403809
-5.868249893188477 1.082010030746460 -12.521100044250488
-5.775249958038330 0.795006990432739 -12.385100364685059
-5.649250030517578 0.890006005764008 -12.512100219726563
-6.039249897003174 0.678005993366241 -12.624099731445312
-5.871250152587891 0.988005995750427 -12.280099868774414
-5.897250175476074 1.129009962081909 -12.371100425720215
-5.978250026702881 0.684006989002228 -12.339099884033203
-5.916250228881836 1.197010040283203 -12.633099555969238
-6.191249847412109 0.727006018161774 -12.599100112915039
-5.834249973297119 0.676005005836487 -12.264100074768066
-6.138249874114990 0.664005994796753 -12.420100212097168
-5.854249954223633 0.816007018089294 -12.188099861145020
-5.996250152587891 1.248010039329529 -12.446100234985352
-6.088250160217285 1.241009950637817 -12.598099708557129
-6.250249862670898 0.779006004333496 -12.397100448608398
-6.298250198364258 0.846005022525787 -12.573100090026855
-5.879250049591065 1.046010017395020 -12.097100257873535
-5.854249954223633 0.881004989147186 -11.943099975585938
-5.822249889373779 0.732005000114441 -12.008099555969238
-5.900249958038330 0.625006973743439 -12.110099792480469
-5.897250175476074 1.078009963035584 -11.936100006103516
-5.945250034332275 1.192010045051575 -12.059100151062012
-6.060249805450440 0.617004990577698 -12.214099884033203
-5.946249961853027 1.200009942054749 -12.223099708557129
-5.885250091552734 0.796006023883820 -11.790100097656250
-5.908249855041504 0.585005998611450 -11.937100410461426
-6.052249908447266 0.575004994869232 -12.034099578857422
-5.892250061035156 1.005010008811951 -11.776100158691406
-6.201250076293945 0.700004994869232 -12.261099815368652
-5.724249839782715 0.565005004405975 -12.236100196838379
-6.188250064849854 0.620005011558533 -12.118100166320801
-5.786250114440918 0.514006972312927 -12.062100410461426
-6.278250217437744 0.765006005764008 -12.131099700927734
-5.712250232696533 0.585005998611450 -11.937100410461426
-6.225249767303467 0.729007005691528 -11.943099975585938
-6.313250064849854 0.938005983829498 -12.168100357055664
-6.067249774932861 1.279010057449341 -12.117099761962891
-5.884250164031982 0.990006029605865 -11.570099830627441
-5.826250076293945 0.705006003379822 -11.670100212097168
-5.838250160217285 0.847005009651184 -11.450099945068359
-5.772250175476074 0.710005998611450 -11.517100334167480
-5.921249866485596 1.146010041236877 -11.629099845886230
-5.974249839782715 0.578006029129028 -11.733099937438965
-5.870250225067139 0.569005012512207 -11.592100143432617
-5.799250125885010 0.565005004405975 -11.750100135803223
-5.899250030517578 1.070009946823120 -11.431099891662598
-5.707250118255615 0.592006027698517 -11.605099678039551
-5.956250190734863 1.218009948730469 -11.785099983215332
-5.873250007629395 0.817005991935730 -11.296099662780762
-6.030250072479248 0.509005010128021 -11.547100067138672
-6.274250030517578 0.712005972862244 -11.770099639892578
-6.272250175476074 0.888005018234253 -11.514100074768066
-5.940249919891357 1.220010042190552 -11.469099998474121
-5.929249763488770 0.542006015777588 -11.421099662780762
-5.869249820709229 0.977006018161774 -11.274100303649902
-5.893249988555908 0.884005010128021 -11.136099815368652
-6.004250049591065 0.748005986213684 -11.152099609375000
-5.834249973297119 0.647005975246429 -11.327099800109863
-5.843249797821045 1.039010047912598 -11.126099586486816
-6.141250133514404 0.770004987716675 -11.251099586486816
-5.987249851226807 0.542006015777588 -11.216099739074707
-5.906250000000000 1.182010054588318 -11.282099723815918
-6.055250167846680 0.825004994869232 -10.966099739074707
-6.230249881744385 0.871004998683929 -11.130100250244141
-6.109250068664551 0.565005004405975 -11.321100234985352
-6.252250194549561 0.887005984783173 -11.340100288391113
-5.921249866485596 0.888005018234253 -10.898099899291992
-6.229249954223633 0.710005998611450 -11.399100303649902
-6.085249900817871 0.846005022525787 -10.783100128173828
-5.979249954223633 0.901005983352661 -10.644100189208984
-6.186250209808350 0.890006005764008 -10.664099693298340
-6.221250057220459 0.881004989147186 -10.954099655151367
-5.944250106811523 0.945006012916565 -10.488100051879883
-6.084249973297119 0.837005972862244 -10.528100013732910
-5.915249824523926 1.013010025024414 -10.330100059509277
-6.021249771118164 0.872005999088287 -10.328100204467773
-6.183249950408936 0.891004979610443 -10.387100219726562
-5.896249771118164 1.162009954452515 -10.201100349426270
-6.028250217437744 0.875006973743439 -10.113100051879883
-6.157249927520752 0.891004979610443 -10.210100173950195
-5.925250053405762 1.009999990463257 -10.051099777221680
-6.255249977111816 0.966005980968475 -10.513099670410156
-5.867249965667725 1.316009998321533 -10.328100204467773
-6.264249801635742 1.002009987831116 -10.263099670410156
-5.999249935150147 0.907006025314331 -9.926110267639160
-5.920249938964844 1.041010022163391 -9.846110343933106
-5.995250225067139 0.907006025314331 -9.764109611511231
-6.152249813079834 0.891004979610443 -10.000100135803223
-5.896249771118164 1.227010011672974 -10.003100395202637
-6.158249855041504 0.888005018234253 -9.836110115051270
-6.264249801635742 1.034010052680969 -10.002099990844727
-6.137249946594238 0.884005010128021 -9.669110298156738
-5.906250000000000 1.320009946823120 -10.138099670410156
-5.922249794006348 1.151010036468506 -9.620109558105469
-6.240250110626221 1.000010013580322 -9.729109764099121
-5.951250076293945 1.368010044097900 -9.938110351562500
-5.940249919891357 1.332999944686890 -9.780110359191895
-6.290249824523926 1.182010054588318 -9.921110153198242
-6.293250083923340 1.126009941101074 -10.139100074768066
-5.958250045776367 1.006010055541992 -9.528109550476074
-6.081250190734863 0.887005984783173 -9.518110275268555
-5.932250022888184 1.103010058403015 -9.385109901428223
-6.019249916076660 0.907006025314331 -9.347109794616699
-6.230249881744385 0.995005011558533 -9.559109687805176
-5.914249897003174 1.278010010719299 -9.388110160827637
-5.951250076293945 0.983006000518799 -9.208109855651856
-5.917250156402588 1.356009960174561 -9.555109977722168
-6.284249782562256 1.132009983062744 -9.432109832763672
-6.292250156402588 1.169010043144226 -9.590109825134277
-6.159249782562256 0.891004979610443 -9.252109527587891
-6.297249794006348 1.148010015487671 -9.751110076904297
-5.882249832153320 1.073009967803955 -9.078109741210938
-5.954249858856201 0.946006000041962 -9.000109672546387
-6.050250053405762 0.881004989147186 -9.109109878540039
-5.837250232696533 1.089010000228882 -8.916110038757324
-5.782249927520752 1.188009977340698 -9.142109870910645
-6.191249847412109 0.892005026340485 -8.993109703063965
-5.914249897003174 1.315009951591492 -9.068110466003418
-6.291250228881836 1.029010057449341 -9.035110473632813
-6.087250232696533 0.865006029605865 -8.863109588623047
-5.872250080108643 1.321009993553162 -9.225110054016113
-5.904250144958496 0.977006018161774 -8.804109573364258
-6.295249938964844 1.095010042190552 -9.244110107421875
-6.028250217437744 1.368010044097900 -9.206110000610352
-5.868249893188477 1.276010036468506 -8.884110450744629
-5.751249790191650 1.284010052680969 -8.992110252380371
-6.111249923706055 1.373010039329529 -9.058110237121582
-6.323249816894531 1.193009972572327 -9.108110427856445
-6.278250217437744 1.022009968757629 -8.873109817504883
-6.229249954223633 1.325999975204468 -9.161109924316406
-6.037250041961670 1.372009992599487 -8.916110038757324
-6.258250236511231 1.294010043144226 -8.951109886169434
-5.663249969482422 1.297999978065491 -9.180109977722168
-6.268249988555908 1.259999990463257 -9.322110176086426
-6.002250194549561 0.881004989147186 -8.721110343933106
-5.741250038146973 1.325009942054749 -9.320110321044922
-5.860249996185303 1.179010033607483 -8.712109565734863
-5.879250049591065 0.954005002975464 -8.580109596252441
-5.788249969482422 1.131010055541992 -8.565110206604004
-5.980249881744385 1.318009972572327 -8.719109535217285
-5.926249980926514 1.122009992599487 -8.463109970092773
-5.983250141143799 1.287009954452515 -8.556110382080078
-6.010250091552734 0.853004992008209 -8.561109542846680
-6.201250076293945 0.892005026340485 -8.743109703063965
-6.277249813079834 0.996004998683929 -8.578109741210938
-6.132249832153320 1.381010055541992 -8.787110328674316
-5.941249847412109 0.890006005764008 -8.403109550476074
-6.286250114440918 1.191009998321533 -8.545109748840332
-6.174250125885010 0.820006012916565 -8.572110176086426
-6.270249843597412 1.286010026931763 -8.775110244750977
-6.211249828338623 1.334010004997253 -8.528109550476074
-6.074250221252441 1.378000020980835 -8.458109855651856
-5.885250091552734 1.064010024070740 -8.317110061645508
-6.364250183105469 1.149000048637390 -8.762109756469727
-6.090250015258789 0.781005024909973 -8.434109687805176
-6.248250007629395 0.885004997253418 -8.429109573364258
-5.964250087738037 1.207999944686890 -8.269109725952148
-5.949250221252441 1.018010020256043 -8.079110145568848
-5.989250183105469 1.200009942054749 -8.063110351562500
-6.026249885559082 1.356009960174561 -8.281109809875488
-6.279250144958496 1.101009964942932 -8.277110099792481
-6.017250061035156 0.788004994392395 -8.281109809875488
-6.268249988555908 1.256010055541992 -8.194109916687012
-5.998250007629395 1.046010017395020 -7.926109790802002
-6.088250160217285 1.404010057449341 -8.122110366821289
-6.183249950408936 1.380010008811951 -8.262109756469727
-6.252250194549561 1.278010010719299 -8.385109901428223
-6.019249916076660 1.306010007858276 -7.945109844207764
-6.292250156402588 0.955006003379822 -8.180109977722168
-6.292250156402588 1.145009994506836 -8.074110031127930
-6.233250141143799 1.342010021209717 -8.049110412597656
-5.931250095367432 0.881004989147186 -7.924109935760498
-6.229249954223633 0.784004986286163 -8.283109664916992
-6.004250049591065 1.131010055541992 -7.772109985351563
-6.021249771118164 1.040009975433350 -7.624110221862793
-6.028250217437744 1.314010024070740 -7.772109985351563
-5.953249931335449 0.892005026340485 -7.724110126495361
-6.307250022888184 1.152009963989258 -7.767109870910645
-6.008250236511231 1.141999959945679 -7.493110179901123
-6.308249950408936 1.089010000228882 -7.925109863281250
-6.280250072479248 1.266010046005249 -7.916110038757324
-5.862249851226807 0.886005997657776 -7.582109928131104
-6.156250000000000 1.404010057449341 -7.914110183715820
-6.125249862670898 1.426010012626648 -7.715109825134277
-6.290249824523926 1.086009979248047 -7.614109992980957
-5.793250083923340 0.784004986286163 -7.751110076904297
-5.932250022888184 0.969006001949310 -7.462110042572022
-6.285250186920166 1.303009986877441 -7.636109828948975
-5.930250167846680 1.104009985923767 -7.354109764099121
-6.005249977111816 1.259009957313538 -7.372109889984131
-5.888249874114990 1.185009956359863 -7.176109790802002
-6.026249885559082 1.367009997367859 -7.249110221862793
-6.032249927520752 1.391999959945679 -7.478109836578369
-5.919250011444092 1.040009975433350 -7.116109848022461
-6.303249835968018 1.192010045051575 -7.494110107421875
-5.976250171661377 1.311010003089905 -7.107110023498535
-5.980249881744385 0.889006972312927 -7.158110141754150
-6.132249832153320 1.443009972572327 -7.363110065460205
-6.338250160217285 1.104009985923767 -7.357110023498535
-6.272250175476074 1.337010025978088 -7.422110080718994
-6.314249992370606 1.231009960174561 -7.242109775543213
-6.270249843597412 0.929005980491638 -7.519110202789307
-6.249249935150147 1.380010008811951 -7.270110130310059
-6.194250106811523 1.408010005950928 -7.555109977722168
-5.802249908447266 0.882007002830505 -7.188109874725342
-5.747250080108643 1.056010007858276 -7.115109920501709
-6.127250194549561 0.817005991935730 -7.217110157012940
-6.273250102996826 0.867004990577698 -7.268109798431397
-6.289249897003174 0.966005980968475 -7.129109859466553
-6.396249771118164 0.963006019592285 -7.411109924316406
-5.968249797821045 1.057010054588318 -6.922110080718994
-6.083250045776367 0.948006987571716 -6.891109943389893
-6.024250030517578 1.037009954452515 -6.766109943389893
-5.992249965667725 1.210010051727295 -6.701109886169434
-6.154250144958496 0.920006990432739 -7.042109966278076
-6.061250209808350 1.443009972572327 -6.976109981536865
-6.282249927520752 0.955006003379822 -6.954110145568848
-6.211249828338623 0.920006990432739 -6.801109790802002
-6.115250110626221 0.944005012512207 -6.659110069274902
-6.321249961853027 1.297999978065491 -6.910109996795654
-6.029250144958496 1.101009964942932 -6.582109928131104
-6.275249958038330 1.344009995460510 -7.113110065460205
-6.216249942779541 1.466009974479675 -6.950109958648682
-6.154250144958496 1.453009963035584 -7.144110202789307
-6.119249820709229 1.514009952545166 -6.826109886169434
-6.019249916076660 1.278010010719299 -6.468110084533691
-6.046249866485596 1.037999987602234 -6.425109863281250
-5.899250030517578 1.337010025978088 -6.574110031127930
-5.995250225067139 1.266999959945679 -6.297110080718994
-5.913249969482422 1.384999990463257 -6.407110214233398
-6.143249988555908 0.916005015373230 -6.469110012054443
-6.003250122070313 1.025009989738464 -6.254109859466553
-5.978250026702881 1.158010005950928 -6.148109912872315
-6.368249893188477 1.250010013580322 -6.584109783172607
-6.341249942779541 1.323009967803955 -6.442110061645508
-6.274250030517578 0.930005013942719 -6.648109912872315
-6.300250053405762 1.416010022163391 -6.565110206604004
-5.966249942779541 1.537009954452515 -6.695109844207764
-6.251249790191650 0.930005013942719 -6.338109970092773
-6.321249961853027 1.317010045051575 -6.739109992980957
-5.953249931335449 1.348009943962097 -6.142109870910645
-6.375249862670898 0.994005978107452 -6.519110202789307
-5.968249797821045 1.138010025024414 -5.986110210418701
-5.927249908447266 1.297009944915772 -5.981110095977783
-6.000249862670898 1.003000020980835 -6.078110218048096
-5.933249950408936 1.130010008811951 -5.814109802246094
-6.040249824523926 0.986006975173950 -5.879109859466553
-6.065249919891357 0.890006005764008 -6.175109863281250
-6.127250194549561 0.895004987716675 -5.986110210418701
-6.223249912261963 0.892005026340485 -6.132110118865967
-6.395249843597412 1.252009987831116 -6.054110050201416
-6.389249801635742 1.160009980201721 -6.197110176086426
-6.378250122070313 1.098009943962097 -6.006110191345215
-6.034249782562256 0.973006010055542 -5.684110164642334
-5.936250209808350 0.977006018161774 -5.551109790802002
-5.875249862670898 1.543009996414185 -5.784110069274902
-6.061250209808350 0.865006029605865 -5.511109828948975
-6.147250175476074 0.882007002830505 -5.757110118865967
-6.039249897003174 1.293009996414185 -5.044109821319580
-6.116250038146973 1.384009957313538 -5.152110099792481
-5.954249858856201 1.141999959945679 -4.953110218048096
-6.138249874114990 1.547999978065491 -5.393109798431397
-6.201250076293945 1.441009998321533 -5.026110172271729
-5.999249935150147 1.244009971618652 -4.829110145568848
-5.930250167846680 1.100010037422180 -4.779109954833984
-5.937250137329102 1.269009947776794 -4.646110057830811
-6.066249847412109 1.349009990692139 -4.713109970092773
-5.864250183105469 1.108010053634644 -4.617109775543213
-6.114250183105469 1.363010048866272 -4.866109848022461
-6.027249813079834 1.395009994506836 -4.551109790802002
-5.825250148773193 0.982005000114441 -4.505109786987305
-6.233250141143799 1.457010030746460 -4.708109855651856
-6.248250007629395 1.468009948730469 -4.867109775543213
-5.893249988555908 0.835005998611450 -4.585110187530518
-5.808249950408936 0.964004993438721 -4.316110134124756
-5.921249866485596 0.869005978107452 -4.403110027313232
-6.172249794006348 1.468009948730469 -4.435110092163086
-6.332250118255615 1.532009959220886 -4.465109825134277
-5.873250007629395 1.222000002861023 -4.502110004425049
-6.046249866485596 0.806006014347076 -4.497109889984131
-6.480249881744385 1.542009949684143 -4.544109821319580
-6.180250167846680 0.689005970954895 -4.524109840393066
-6.463250160217285 1.427010059356690 -4.684110164642334
-6.439249992370606 1.251009941101074 -4.718110084533691
-6.393249988555908 1.547009944915772 -4.764110088348389
-6.436250209808350 1.422999978065491 -4.857110023498535
-6.362249851226807 1.503000020980835 -4.978109836578369
-6.407249927520752 1.324010014533997 -4.991109848022461
-6.394249916076660 1.373010039329529 -5.152110099792481
-6.272250175476074 1.472000002861023 -5.202109813690186
-6.541250228881836 1.323009967803955 -5.219110012054443
-6.453249931335449 1.443009972572327 -5.318109989166260
-6.291250228881836 1.505010008811951 -5.373109817504883
-6.095250129699707 0.826004981994629 -5.360109806060791
-6.010250091552734 1.658010005950928 -5.492109775543213
-6.341249942779541 0.891004979610443 -5.540110111236572
-6.194250106811523 0.835005998611450 -5.595109939575195
-6.365250110626221 1.028010010719299 -5.635109901428223
-6.299250125885010 0.888005018234253 -5.704110145568848
-5.793250083923340 1.689010024070740 -5.761109828948975
-6.401249885559082 1.184010028839111 -5.810110092163086
-6.362249851226807 1.023010015487671 -5.823110103607178
-5.912250041961670 1.698009967803955 -5.868110179901123
-6.432250022888184 1.322010040283203 -5.907110214233398
-6.259250164031982 0.882007002830505 -5.893109798431397
-6.028250217437744 1.700999975204468 -6.012110233306885
-5.961249828338623 1.682010054588318 -6.163109779357910
-6.328249931335449 1.422999978065491 -6.309110164642334
-5.993249893188477 1.742009997367859 -6.319109916687012
-6.451250076293945 1.297999978065491 -6.314109802246094
-6.284249782562256 1.570009946823120 -6.352109909057617
-6.396249771118164 1.021010041236877 -6.358109951019287
-6.145249843597412 1.700999975204468 -6.390110015869141
-6.013249874114990 1.672999978065491 -6.475110054016113
-6.450250148773193 1.141999959945679 -6.469110012054443
-6.242249965667725 1.566009998321533 -6.523109912872315
-6.120250225067139 1.599009990692139 -6.623109817504883
-6.480249881744385 1.149000048637390 -6.635109901428223
-6.417250156402588 0.994005978107452 -6.694109916687012
-6.257249832153320 1.467010021209717 -6.721109867095947
-6.413249969482422 1.194000005722046 -6.783110141754150
-6.415249824523926 1.001009941101074 -6.880109786987305
-6.430250167846680 1.138010025024414 -6.989109992980957
-6.391250133514404 1.113999962806702 -7.151110172271729
-6.401249885559082 0.777005016803741 -7.203110218048096
-5.873250007629395 0.738005995750427 -7.195109844207764
-6.015250205993652 0.660005986690521 -7.208109855651856
-6.457250118255615 0.997005999088287 -7.268109798431397
-6.420249938964844 0.867004990577698 -7.549109935760498
-5.723249912261963 0.785005986690521 -7.604109764099121
-5.888249874114990 0.611006975173950 -7.759109973907471
-6.489250183105469 0.924005985260010 -7.913109779357910
-6.524250030517578 0.765006005764008 -7.910109996795654
-5.952250003814697 0.644006013870239 -7.912109851837158
-6.119249820709229 0.593005001544952 -7.950109958648682
-6.350249767303467 0.942005991935730 -7.988110065460205
-6.206250190734863 0.637005984783173 -8.087109565734863
-6.012249946594238 0.644006013870239 -8.086110115051270
-6.288249969482422 0.778006017208099 -8.097109794616699
-6.442249774932861 0.801005005836487 -8.162110328674316
-6.114250183105469 0.658006012439728 -8.219109535217285
-6.361249923706055 0.887005984783173 -8.307109832763672
-6.374249935150147 1.066009998321533 -8.447110176086426
-6.544250011444092 1.190009951591492 -8.565110206604004
-6.408249855041504 1.111009955406189 -8.611109733581543
-6.510250091552734 1.209010004997253 -8.723110198974609
-6.363249778747559 1.145009994506836 -8.932109832763672
-5.980249881744385 1.438009977340698 -9.351110458374023
-5.838250160217285 1.469009995460510 -9.456110000610352
-5.944250106811523 1.542009949684143 -9.555109977722168
-6.270249843597412 1.330010056495667 -9.564109802246094
-5.994249820709229 1.445009946823120 -9.672109603881836
-6.234250068664551 1.301010012626648 -9.823109626770020
-6.019249916076660 1.513010025024414 -9.869110107421875
-5.908249855041504 1.509999990463257 -10.021100044250488
-5.858250141143799 1.651010036468506 -10.082099914550781
-6.023250102996826 1.667009949684143 -10.093099594116211
-5.806250095367432 1.807010054588318 -10.098099708557129
-6.209249973297119 1.550009965896606 -10.096099853515625
-6.249249935150147 1.280009984970093 -10.098099708557129
-6.350249767303467 1.481009960174561 -10.161100387573242
-5.864250183105469 1.511010050773621 -10.178099632263184
-6.118249893188477 1.605010032653809 -10.216099739074707
-5.919250011444092 1.733010053634644 -10.225099563598633
-6.298250198364258 1.352010011672974 -10.283100128173828
-6.383250236511231 1.481009960174561 -10.326100349426270
-6.191249847412109 1.509999990463257 -10.335100173950195
-6.293250083923340 1.153010010719299 -10.330100059509277
-5.861249923706055 1.537009954452515 -10.340100288391113
-5.974249839782715 1.649000048637390 -10.361100196838379
-6.064249992370606 1.539010047912598 -10.437100410461426
-6.367249965667725 1.287009954452515 -10.456100463867187
-6.281250000000000 1.488010048866272 -10.471099853515625
-6.295249938964844 1.127009987831116 -10.488100051879883
-6.436250209808350 1.426010012626648 -10.515099525451660
-5.935249805450440 1.581009984016419 -10.539099693298340
-6.478250026702881 1.579010009765625 -10.566100120544434
-6.146249771118164 1.449010014533997 -10.556099891662598
-6.173250198364258 1.363999962806702 -10.705100059509277
-6.075250148773193 1.384999990463257 -10.830100059509277
-6.185249805450440 1.300009965896606 -10.957099914550781
-5.962250232696533 0.454005002975464 -11.079099655151367
-5.982250213623047 1.304999947547913 -11.145099639892578
-6.243249893188477 1.192010045051575 -11.150099754333496
-6.291250228881836 1.034010052680969 -11.151100158691406
-6.142250061035156 1.309010028839111 -11.202099800109863
-6.272250175476074 1.136010050773621 -11.296099662780762
-5.996250152587891 1.319000005722046 -11.323100090026855
-6.198249816894531 0.426005005836487 -11.305100440979004
-6.181250095367432 1.272009968757629 -11.363100051879883
-6.297249794006348 1.032009959220886 -11.450099945068359
-6.072249889373779 1.331009984016419 -11.472100257873535
-6.126249790191650 0.402004987001419 -11.460100173950195
-6.246250152587891 1.166010022163391 -11.521100044250488
-6.241250038146973 0.329005002975464 -11.556099891662598
-6.410250186920166 0.875006973743439 -11.600099563598633
-6.296249866485596 0.491005986928940 -11.584099769592285
-6.003250122070313 1.286010026931763 -11.631099700927734
-6.160250186920166 1.259009957313538 -11.637100219726563
-6.376249790191650 0.719006001949310 -11.638099670410156
-6.141250133514404 0.421005994081497 -11.639100074768066
-6.318250179290772 1.005010008811951 -11.690099716186523
-6.244249820709229 1.145009994506836 -11.743100166320801
-6.246250152587891 0.501006007194519 -11.739100456237793
-6.129250049591065 1.265009999275208 -11.805100440979004
-6.384250164031982 0.891004979610443 -11.815099716186523
-6.107250213623047 0.506004989147186 -11.832099914550781
-6.031250000000000 1.280009984970093 -11.939100265502930
-6.281250000000000 1.082010030746460 -11.936100006103516
-6.207250118255615 0.571006000041962 -11.945099830627441
-6.352250099182129 0.821006000041962 -12.001099586486816
-6.395249843597412 0.975004971027374 -12.010100364685059
-6.532249927520752 0.874005019664764 -12.012100219726563
-6.181250095367432 1.207999944686890 -12.030099868774414
-6.285250186920166 1.085010051727295 -12.098099708557129
-6.434249877929688 0.822004973888397 -12.146100044250488
-6.587250232696533 0.863005995750427 -12.164099693298340
-6.204249858856201 1.189010024070740 -12.199099540710449
-6.285250186920166 1.063009977340698 -12.273099899291992
-6.368249893188477 0.831005990505219 -12.302100181579590
-6.120250225067139 1.233010053634644 -12.343099594116211
-6.554249763488770 0.851005971431732 -12.361100196838379
-6.242249965667725 1.144009947776794 -12.412099838256836
-6.291250228881836 0.989005029201508 -12.419099807739258
-6.430250167846680 0.892005026340485 -12.458100318908691
-6.227250099182129 1.159010052680969 -12.586099624633789
-6.308249950408936 1.000010013580322 -12.629099845886230
-6.278250217437744 0.883005976676941 -12.743100166320801
-6.249249935150147 1.143010020256043 -12.756099700927734
-6.020249843597412 1.250010013580322 -12.764100074768066
-6.289249897003174 1.023010015487671 -12.866100311279297
-6.038249969482422 1.362010002136231 -12.919099807739258
-5.939249992370606 1.509009957313538 -12.942099571228027
-6.251249790191650 1.164010047912598 -12.944100379943848
-6.177249908447266 1.433009982109070 -12.959099769592285
-6.013249874114990 1.678009986877441 -12.997099876403809
-5.782249927520752 1.481009960174561 -12.988100051879883
-5.921249866485596 1.366009950637817 -13.033100128173828
-6.112249851226807 1.575009942054749 -13.072099685668945
-6.290249824523926 1.324010014533997 -13.075099945068359
-6.292250156402588 1.013010025024414 -13.086099624633789
-6.165249824523926 1.406000018119812 -13.129099845886230
-5.767250061035156 1.358010053634644 -13.128100395202637
-5.977250099182129 1.499009966850281 -13.194100379943848
-6.247250080108643 1.133010029792786 -13.201100349426270
-6.274250030517578 0.892005026340485 -13.212100028991699
-6.338250160217285 1.357010006904602 -13.265099525451660
-6.106249809265137 1.457010030746460 -13.286100387573242
-5.864250183105469 1.344009995460510 -13.294099807739258
-6.286250114440918 0.997005999088287 -13.364100456237793
-5.971250057220459 1.444000005722046 -13.389100074768066
-6.232250213623047 1.150009989738464 -13.393099784851074
-6.203249931335449 1.384999990463257 -13.402099609375000
-6.369249820709229 1.383010029792786 -13.419099807739258
-6.214250087738037 1.319000005722046 -13.556099891662598
-6.408249855041504 1.350010037422180 -13.579099655151367
-6.247250080108643 0.891004979610443 -13.564100265502930
-5.908249855041504 1.332999944686890 -13.580100059509277
-6.074250221252441 1.388010025024414 -13.599100112915039
-6.195250034332275 1.168009996414185 -13.602100372314453
-5.723249912261963 1.284010052680969 -13.599100112915039
-6.259250164031982 1.035009980201721 -13.667099952697754
-6.173250198364258 0.786005973815918 -13.663100242614746
-6.310249805450440 1.279010057449341 -13.688099861145020
-6.146249771118164 1.303009986877441 -13.749099731445312
-5.994249820709229 1.362010002136231 -13.765099525451660
-6.231249809265137 1.159010052680969 -13.770099639892578
-6.230249881744385 0.881004989147186 -13.783100128173828
-6.077250003814697 1.325009942054749 -13.925100326538086
-6.254250049591065 1.057010054588318 -13.929100036621094
-6.186250209808350 1.211009979248047 -13.963100433349609
-5.938250064849854 1.309010028839111 -14.026100158691406
-6.224249839782715 0.890006005764008 -14.058099746704102
-6.124249935150147 1.274000048637390 -14.100099563598633
-6.213250160217285 1.138010025024414 -14.141099929809570
-5.995250225067139 1.319000005722046 -14.185099601745605
-6.252250194549561 0.989005029201508 -14.189100265502930
-6.169250011444092 1.195009946823120 -14.355099678039551
-6.227250099182129 0.886005997657776 -14.363100051879883
-6.025249958038330 1.282009959220886 -14.383099555969238
-6.243249893188477 1.046010017395020 -14.417099952697754
-6.120250225067139 1.222000002861023 -14.514100074768066
-6.230249881744385 0.867004990577698 -14.522100448608398
-5.949250221252441 1.265009999275208 -14.542099952697754
-6.245250225067139 1.027009963989258 -14.581100463867188
-6.181250095367432 1.150009989738464 -14.661100387573242
-6.143249988555908 0.749005019664764 -14.647100448608398
-6.240250110626221 0.888005018234253 -14.708100318908691
-6.052249908447266 1.236009955406189 -14.721099853515625
-6.236249923706055 1.021010041236877 -14.797100067138672
-6.166250228881836 0.727006018161774 -14.805100440979004
-6.150249958038330 1.156000018119812 -14.897100448608398
-6.248250007629395 0.876006007194519 -14.907099723815918
-6.015250205993652 1.241009950637817 -14.920100212097168
-6.104249954223633 0.661005973815918 -14.965100288391113
-6.236249923706055 1.019009947776794 -14.999099731445313
-6.211249828338623 0.764006972312927 -15.029100418090820
-6.027249813079834 1.197010040283203 -15.164099693298340
-6.196249961853027 1.021010041236877 -15.160099983215332
-6.211249828338623 0.852006018161774 -15.182100296020508
-6.138249874114990 0.713006019592285 -15.241100311279297
-6.182250022888184 0.987006008625031 -15.315099716186523
-6.088250160217285 1.120010018348694 -15.346099853515625
-6.197249889373779 0.836004972457886 -15.371100425720215
-5.990250110626221 0.648005008697510 -15.390099525451660
-6.128250122070313 0.703006029129028 -15.451100349426270
-6.148250102996826 1.029010057449341 -15.466099739074707
-6.186250209808350 0.886005997657776 -15.524100303649902
-6.019249916076660 1.141010046005249 -15.554100036621094
-6.147250175476074 0.742004990577698 -15.621100425720215
-6.136250019073486 1.014009952545166 -15.654100418090820
-6.178249835968018 0.873005986213684 -15.723099708557129
-5.971250057220459 0.597005009651184 -15.773099899291992
-6.042250156402588 1.102010011672974 -15.807100296020508
-6.112249851226807 0.692005991935730 -15.794099807739258
-6.145249843597412 0.986006975173950 -15.853099822998047
-6.182250022888184 0.835005998611450 -15.892100334167480
-6.077250003814697 1.093009948730469 -15.967100143432617
-6.147250175476074 0.717006027698517 -15.999099731445313
-6.021249771118164 0.607005000114441 -16.004100799560547
-6.784249782562256 0.520004987716675 -16.016099929809570
-6.172249794006348 0.978004992008209 -16.055099487304688
-6.063250064849854 1.162009954452515 -16.116100311279297
-6.196249961853027 0.829005002975464 -16.115100860595703
-5.911250114440918 1.203009963035584 -16.138099670410156
-6.670249938964844 0.517005026340485 -16.138099670410156
-6.130249977111816 0.678005993366241 -16.160100936889648
-5.917250156402588 0.423005014657974 -16.169099807739258
-6.138249874114990 1.044010043144226 -16.199100494384766
-5.770249843597412 0.506004989147186 -16.193099975585938
-6.559249877929688 0.489004999399185 -16.252099990844727
-6.014249801635742 1.139009952545166 -16.276100158691406
-6.002250194549561 0.594006001949310 -16.256099700927734
-6.155250072479248 0.831005990505219 -16.271099090576172
-6.055250167846680 0.401006013154984 -16.338100433349609
-5.854249954223633 0.385004997253418 -16.344100952148437
-6.418250083923340 0.465005010366440 -16.359100341796875
-6.075250148773193 1.036010026931763 -16.397100448608398
-6.108250141143799 0.724005997180939 -16.391099929809570
-6.129250049591065 0.887005984783173 -16.430099487304687
-5.616250038146973 0.424005985260010 -16.444099426269531
-5.967249870300293 0.458005011081696 -16.478099822998047
-6.080249786376953 0.589004993438721 -16.490100860595703
-5.821249961853027 0.397006005048752 -16.500099182128906
-6.159249782562256 0.437005013227463 -16.514099121093750
-5.989250183105469 1.066009998321533 -16.545099258422852
-6.115250110626221 0.812004983425140 -16.596099853515625
-6.095250129699707 0.975004971027374 -16.622100830078125
-6.145249843597412 0.579005002975464 -16.645099639892578
-6.270249843597412 0.558004975318909 -16.742099761962891
-5.757249832153320 0.923004984855652 -10.987099647521973
-5.634250164031982 1.016010046005249 -11.039099693298340
-5.869249820709229 1.192010045051575 -11.073100090026855
-5.836249828338623 1.065009951591492 -10.870100021362305
-5.893249988555908 1.028010010719299 -10.686100006103516
-5.743249893188477 1.139009952545166 -10.763099670410156
-5.727250099182129 1.144009947776794 -10.983099937438965
-5.860249996185303 1.241009950637817 -10.900099754333496
-5.806250095367432 1.185009956359863 -10.609100341796875
-5.599249839782715 1.122009992599487 -10.884099960327148
-6.293250083923340 1.016999959945679 -10.802100181579590
-5.879250049591065 1.126009941101074 -10.479100227355957
-5.813250064849854 1.422999978065491 -10.457099914550781
-6.464250087738037 1.293009996414185 -10.599100112915039
-5.734250068664551 1.358010053634644 -10.606100082397461
-6.312250137329102 1.339010000228882 -10.629099845886230
-6.008250236511231 1.444000005722046 -10.654100418090820
-5.840250015258789 1.497009992599487 -10.655099868774414
-6.353250026702881 1.147009968757629 -10.651100158691406
-6.546249866485596 1.452010035514832 -10.679100036621094
-6.586249828338623 1.303009986877441 -10.760100364685059
-6.406250000000000 1.265009999275208 -10.761099815368652
-6.512249946594238 1.145009994506836 -10.767100334167480
-5.927249908447266 1.363010048866272 -10.773099899291992
-5.625249862670898 1.259009957313538 -10.772100448608398
-5.766250133514404 1.341009974479675 -10.796099662780762
-6.264249801635742 1.220010042190552 -10.842100143432617
-6.641250133514404 1.186010003089905 -10.864100456237793
-6.392250061035156 1.113999962806702 -10.920100212097168
-6.593249797821045 1.032009959220886 -10.934100151062012
-5.994249820709229 1.330010056495667 -10.965100288391113
-6.458250045776367 0.959006011486053 -10.976099967956543
