ply
format ascii 1.0
element vertex 659
property double x
property double y
property double z
end_header
-6.185249805450440 1.531000018119812 3.870889902114868
-6.501249790191650 1.498010039329529 3.894890069961548
-6.344250202178955 1.575999975204468 3.892889976501465
-6.512249946594238 1.698009967803955 3.860889911651611
-6.185249805450440 1.531000018119812 3.870889902114868
-6.238249778747559 1.319000005722046 3.863889932632446
-6.075250148773193 1.325009942054749 3.864890098571777
-6.154250144958496 1.154010057449341 3.868890047073364
-6.058249950408936 1.020009994506836 3.858890056610107
-6.229249954223633 1.695009946823120 3.828890085220337
-6.068250179290772 1.653010010719299 3.822890043258667
-6.026249885559082 1.488010048866272 3.827889919281006
-6.332250118255615 1.440009951591492 3.808890104293823
-5.938250064849854 1.162009954452515 3.825890064239502
-6.156250000000000 1.828009963035584 3.777889966964722
-5.917250156402588 1.334010004997253 3.800889968872070
-6.584249973297119 1.813009977340698 3.762890100479126
-6.440249919891357 1.595010042190552 3.763890027999878
-5.884250164031982 0.922006011009216 3.796890020370483
-6.414249897003174 1.854009985923767 3.745889902114868
-5.988249778747559 1.847000002861023 3.747889995574951
-5.988249778747559 0.805005013942719 3.768889904022217
-6.064249992370606 1.230010032653809 3.736890077590942
-5.933249950408936 1.697010040283203 3.712889909744263
-6.139249801635742 1.381010055541992 3.717890024185181
-6.138249874114990 1.983010053634644 3.686889886856079
-6.252250194549561 1.523010015487671 3.697890043258667
-6.303249835968018 1.976009964942932 3.667890071868897
-5.978250026702881 1.029010057449341 3.705889940261841
-5.973249912261963 1.425009965896606 3.680890083312988
-6.568250179290772 1.914010047912598 3.640889883041382
-5.763249874114990 0.702005982398987 3.695889949798584
-5.923250198364258 0.659004986286163 3.683890104293823
-5.972249984741211 1.953009963035584 3.623889923095703
-6.376249790191650 1.700009942054749 3.612890005111694
-6.067249774932861 1.582010030746460 3.619889974594116
-5.879250049591065 0.852006018161774 3.626889944076538
-6.219250202178955 1.651010036468506 3.588890075683594
-6.021249771118164 1.762009978294373 3.570889949798584
-5.852250099182129 0.537005007266998 3.610889911651611
-6.499249935150147 2.030009984970093 3.541889905929565
-6.187250137329102 2.103009939193726 3.542890071868897
-6.346250057220459 2.082010030746460 3.533890008926392
-6.483250141143799 1.825009942054749 3.524889945983887
-5.782249927520752 0.388004988431931 3.569890022277832
-6.652249813079834 1.947010040283203 3.494889974594116
-6.308249950408936 1.772009968757629 3.482889890670776
-6.012249946594238 2.119009971618652 3.461889982223511
-6.139249801635742 1.782009959220886 3.455889940261841
-6.040249824523926 1.920009970664978 3.425889968872070
-6.361249923706055 2.136009931564331 3.364890098571777
-6.183249950408936 2.148999929428101 3.366889953613281
-6.528250217437744 1.922009944915772 3.363889932632446
-6.682250022888184 2.063009977340698 3.351890087127686
-6.519249916076660 2.084009885787964 3.352890014648438
-6.351250171661377 1.870010018348694 3.362890005111694
-6.183249950408936 1.894009947776794 3.347889900207520
-6.828249931335449 2.040009975433350 3.292890071868897
-6.071249961853027 2.078010082244873 3.276890039443970
-6.597249984741211 1.994009971618652 3.230890035629273
-6.272250175476074 1.978010058403015 3.230890035629273
-6.437250137329102 1.975010037422180 3.211889982223511
-6.461249828338623 2.132009983062744 3.202889919281006
-6.320250034332275 2.209009885787964 3.188889980316162
-6.761250019073486 2.123009920120239 3.166889905929565
-6.151249885559082 2.275010108947754 3.157890081405640
-6.173250198364258 2.109009981155396 3.142889976501465
-6.606249809265137 2.155999898910523 3.111890077590942
-6.006249904632568 2.335010051727295 3.103889942169190
-6.318250179290772 2.052010059356690 3.095890045166016
-6.425250053405762 2.213010072708130 3.061889886856079
-6.486249923706055 2.034009933471680 3.063889980316162
-6.276249885559082 2.308010101318359 3.047889947891235
-6.825250148773193 2.079010009765625 3.016890048980713
-6.670249938964844 2.034009933471680 3.018889904022217
-6.021249771118164 2.440010070800781 2.965889930725098
-6.559249877929688 2.223010063171387 2.961889982223511
-6.261250019073486 2.183010101318359 2.945889949798584
-6.108250141143799 2.270009994506836 2.936889886856079
-6.713250160217285 2.172009944915772 2.918889999389648
-6.577250003814697 2.075010061264038 2.894890069961548
-6.342249870300293 2.312000036239624 2.884890079498291
-6.859250068664551 2.111010074615479 2.863889932632446
-6.169250011444092 2.419009923934937 2.854890108108521
-6.425250053405762 2.133009910583496 2.834889888763428
-5.970250129699707 2.461999893188477 2.785890102386475
-6.453249931335449 2.293009996414185 2.763890027999878
-6.625249862670898 2.220010042190552 2.756890058517456
-6.276249885559082 2.381010055541992 2.720890045166016
-6.917250156402588 2.106009960174561 2.709889888763428
-6.774250030517578 2.186009883880615 2.705889940261841
-6.116250038146973 2.336009979248047 2.700890064239502
-6.498250007629395 2.152009963989258 2.674890041351318
-6.143249988555908 2.490000009536743 2.643889904022217
-6.661250114440918 2.203010082244873 2.565890073776245
-6.313250064849854 2.266010046005249 2.567889928817749
-6.929249763488770 2.154010057449341 2.558890104293823
-6.184249877929688 2.354010105133057 2.531889915466309
-6.049250125885010 2.503000020980835 2.510890007019043
-6.510250091552734 2.161010026931763 2.515889883041382
-6.453249931335449 2.325999975204468 2.492889881134033
-6.803249835968018 2.167010068893433 2.457890033721924
-6.327250003814697 2.424010038375855 2.413889884948731
-6.582250118255615 2.259999990463257 2.412889957427979
-6.970250129699707 2.129009962081909 2.404890060424805
-6.124249935150147 2.439009904861450 2.344890117645264
-6.707250118255615 2.193010091781616 2.329890012741089
-6.442249774932861 2.168009996414185 2.321890115737915
-6.868249893188477 2.192009925842285 2.288889884948731
-6.394249916076660 2.373009920120239 2.271889925003052
-6.583250045776367 2.089010000228882 2.249890089035034
-6.259250164031982 2.458009958267212 2.232889890670776
-7.019249916076660 2.143009901046753 2.228889942169190
-6.110249996185303 2.537009954452515 2.218889951705933
-6.548250198364258 2.289010047912598 2.209889888763428
-6.736249923706055 2.106009960174561 2.192889928817749
-6.889249801635742 2.095010042190552 2.139889955520630
-6.334249973297119 2.363009929656982 2.123889923095703
-6.482250213623047 2.138010025024414 2.113889932632446
-6.638249874114990 2.202009916305542 2.097889900207520
-6.179249763488770 2.490000009536743 2.074889898300171
-6.798250198364258 2.228009939193726 2.072890043258667
-7.140250205993652 2.124010086059570 2.053889989852905
-6.965250015258789 2.212009906768799 2.024889945983887
-6.509250164031982 2.303009986877441 2.019890069961548
-6.362249851226807 2.238009929656982 2.018889904022217
-6.230249881744385 2.358010053634644 1.993890047073364
-6.814249992370606 2.069000005722046 1.983890056610107
-6.977250099182129 2.068010091781616 1.952890038490295
-6.530250072479248 2.146009922027588 1.943889975547791
-6.383250236511231 2.380000114440918 1.933889985084534
-6.854249954223633 2.282010078430176 1.917889952659607
-7.078249931335449 2.192009925842285 1.901890039443970
-7.210249900817871 2.078010082244873 1.892889976501465
-6.682250022888184 2.061009883880615 1.895889997482300
-6.286250114440918 2.273999929428101 1.864889979362488
-6.685249805450440 2.338010072708130 1.851889967918396
-6.528250217437744 2.387010097503662 1.836889982223511
-6.821249961853027 2.037009954452515 1.820889949798584
-6.382249832153320 2.459009885787964 1.760890007019043
-6.860249996185303 2.331010103225708 1.754889965057373
-6.993249893188477 2.029010057449341 1.762889981269836
-6.450250148773193 2.183010101318359 1.756890058517456
-7.131249904632568 2.170010089874268 1.728889942169190
-6.184249877929688 2.372009992599487 1.723889946937561
-6.579249858856201 2.096009969711304 1.714890003204346
-7.228250026702881 2.038000106811523 1.698889970779419
-6.282249927520752 2.234009981155396 1.698889970779419
-6.728250026702881 2.384999990463257 1.681890010833740
-7.013249874114990 2.276010036468506 1.680889964103699
-6.535250186920166 2.438009977340698 1.681890010833740
-6.871250152587891 1.999009966850281 1.663890004158020
-6.713250160217285 2.007009983062744 1.649889945983887
-6.310249805450440 2.509999990463257 1.627889990806580
-7.107250213623047 1.991009950637817 1.603889942169190
-6.368249893188477 2.178009986877441 1.575889945030212
-7.108250141143799 2.178009986877441 1.554890036582947
-6.226250171661377 2.272010087966919 1.552889943122864
-6.657249927520752 2.414000034332275 1.520889997482300
-6.967249870300293 1.961009979248047 1.532889962196350
-7.256249904632568 2.026010036468506 1.523890018463135
-6.431250095367432 2.486010074615479 1.518890023231506
-6.970250129699707 2.277009963989258 1.517889976501465
-6.510250091552734 2.118010044097900 1.530889987945557
-6.815249919891357 2.363009929656982 1.500890016555786
-6.191249847412109 2.497999906539917 1.456889986991882
-6.623250007629395 2.016010046005249 1.455890059471130
-7.164249897003174 1.929999947547913 1.435889959335327
-6.764249801635742 1.935009956359863 1.421890020370483
-7.070250034332275 2.188009977340698 1.389889955520630
-6.537250041961670 2.444010019302368 1.385890007019043
-6.896249771118164 2.284009933471680 1.371889948844910
-6.461249828338623 2.062000036239624 1.384889960289002
-7.303249835968018 1.937000036239624 1.357890009880066
-6.280250072479248 2.171010017395020 1.363890051841736
-6.310249805450440 2.506010055541992 1.348889946937561
-7.045249938964844 1.865010023117065 1.351889967918396
-6.757249832153320 2.354010105133057 1.328889966011047
-6.877250194549561 1.836009979248047 1.332890033721924
-7.203249931335449 2.061009883880615 1.298889994621277
-6.192249774932861 2.301009893417358 1.295889973640442
-6.441249847412109 2.473010063171387 1.259889960289002
-6.705249786376953 1.886010050773621 1.272889971733093
-6.603250026702881 2.025010108947754 1.265890002250671
-6.968249797821045 2.217010021209717 1.237890005111694
-6.641250133514404 2.394010066986084 1.218889951705933
-7.184249877929688 1.829010009765625 1.229889988899231
-6.332250118255615 2.115010023117065 1.221889972686768
-6.998250007629395 1.778010010719299 1.210890054702759
-7.095250129699707 2.122009992599487 1.193889975547791
-7.306250095367432 1.920009970664978 1.184890031814575
-6.458250045776367 2.006010055541992 1.186890006065369
-6.212250232696533 2.402009963989258 1.159890055656433
-6.845250129699707 2.275010108947754 1.144889950752258
-6.336249828338623 2.496999979019165 1.124889969825745
-6.786250114440918 1.842010021209717 1.142889976501465
-6.621250152587891 1.932010054588318 1.137889981269836
-7.194250106811523 2.015010118484497 1.111889958381653
-7.147250175476074 1.738999962806702 1.101889967918396
-6.496250152587891 2.453010082244873 1.083889961242676
-7.307250022888184 1.757009983062744 1.089890003204346
-6.253250122070313 2.183010101318359 1.076889991760254
-6.965250015258789 2.184010028839111 1.049890041351318
-6.721250057220459 2.334009885787964 1.044890046119690
-6.951250076293945 1.723009943962097 1.046890020370483
-6.656250000000000 1.868010044097900 0.996885001659393
-6.266250133514404 2.476000070571899 0.951887011528015
-7.243249893188477 1.896010041236877 0.956888020038605
-7.105249881744385 2.044009923934937 0.943888008594513
-7.191249847412109 1.676010012626648 0.952886998653412
-6.331250190734863 2.062000036239624 0.944886982440948
-6.799250125885010 1.766999959945679 0.947885990142822
-6.216249942779541 2.278009891510010 0.927888989448547
-6.442249774932861 1.945009946823120 0.936887979507446
-6.490250110626221 2.434000015258789 0.905885994434357
-7.023250102996826 1.655009984970093 0.915888011455536
-6.634250164031982 2.359009981155396 0.874888002872467
-6.909249782562256 2.184010028839111 0.875886976718903
-6.775249958038330 2.266999959945679 0.849886000156403
-6.667250156402588 1.824010014533997 0.835886001586914
-7.294250011444092 1.691009998321533 0.830888986587524
-6.244249820709229 2.150010108947754 0.825887978076935
-6.886250019073486 1.650009989738464 0.829886019229889
-6.333250045776367 2.485009908676148 0.805886983871460
-7.024250030517578 2.081010103225708 0.808885991573334
-6.500249862670898 1.841009974479675 0.820887029170990
-7.142250061035156 1.963009953498840 0.798887014389038
-7.145249843597412 1.624009966850281 0.805886983871460
-6.367249965667725 1.973009943962097 0.795889019966125
-6.208250045776367 2.294009923934937 0.748888015747070
-6.545249938964844 2.387010097503662 0.730886995792389
-6.195250034332275 2.478009939193726 0.721888005733490
-7.238249778747559 1.795009970664978 0.724886000156403
-6.751249790191650 1.726009964942932 0.728887975215912
-6.715250015258789 2.272010087966919 0.691888988018036
-6.952250003814697 2.106009960174561 0.663888990879059
-7.306250095367432 1.646010041236877 0.669885993003845
-6.989250183105469 1.630010008811951 0.663888990879059
-6.285250186920166 2.050009965896606 0.652886986732483
-7.151249885559082 1.914010047912598 0.643889009952545
-6.409249782562256 2.447010040283203 0.629889011383057
-6.471250057220459 1.850010037422180 0.651888012886047
-6.228250026702881 2.210010051727295 0.613885998725891
-7.140250205993652 1.575009942054749 0.618887007236481
-6.823249816894531 2.180000066757202 0.594888985157013
-6.594250202178955 2.330009937286377 0.590887010097504
-6.599249839782715 1.766010046005249 0.608888983726501
-6.259250164031982 2.483999967575073 0.574887990951538
-7.041250228881836 1.997009992599487 0.564885973930359
-6.361249923706055 1.929999947547913 0.555886983871460
-6.868249893188477 1.645009994506836 0.552888989448547
-7.277249813079834 1.566009998321533 0.529886007308960
-7.201250076293945 1.775009989738464 0.494886010885239
-6.722249984741211 1.679999947547913 0.500886976718903
-6.716249942779541 2.225009918212891 0.475885003805161
-6.368249893188477 2.421000003814697 0.469888985157013
-7.022250175476074 1.581009984016419 0.490889012813568
-6.508250236511231 1.769009947776794 0.472887009382248
-6.248250007629395 2.176009893417358 0.455888986587524
-6.511250019073486 2.332999944686890 0.431887000799179
-6.900249958038330 2.089999914169312 0.432886004447937
-6.301249980926514 2.013010025024414 0.424887001514435
-7.117249965667725 1.909010052680969 0.397886008024216
-7.237249851226807 1.655009984970093 0.396887004375458
-6.814249992370606 1.621000051498413 0.374888002872467
-6.618249893188477 1.695009946823120 0.370885998010635
-6.387249946594238 1.878000020980835 0.365889012813568
-6.776249885559082 2.155009984970093 0.336885988712311
-6.634250164031982 2.239000082015991 0.316888988018036
-6.999249935150147 1.984009981155396 0.316888988018036
-7.183249950408936 1.786010026931763 0.309888988733292
-6.426249980926514 2.339010000228882 0.296887993812561
-6.253250122070313 2.431010007858276 0.294885993003845
-7.101250171661377 1.565009951591492 0.288888990879059
-6.471250057220459 1.761010050773621 0.275889009237289
-6.248250007629395 2.209009885787964 0.258886009454727
-6.321249961853027 2.034009933471680 0.245885998010635
-6.700250148773193 1.626009941101074 0.242888003587723
-6.888249874114990 2.050009965896606 0.211886003613472
-6.918250083923340 1.574010014533997 0.227888002991676
-6.738249778747559 2.129009962081909 0.147885993123055
-6.269249916076660 2.367010116577148 0.129888996481895
-7.169250011444092 1.602010011672974 0.137887999415398
-6.429249763488770 2.279010057449341 0.120885998010635
-6.997250080108643 1.959010004997253 0.114885002374649
-6.529250144958496 1.676010012626648 0.129888996481895
-7.293250083923340 1.700009942054749 0.104887001216412
-7.184249877929688 1.832010030746460 0.097887098789215
-6.275249958038330 2.119009971618652 0.097887098789215
-6.341249942779541 1.972000002861023 0.099886000156403
-6.785250186920166 1.589010000228882 0.104887001216412
-6.577250003814697 2.191009998321533 0.073888897895813
-7.008250236511231 1.554010033607483 0.062887303531170
-6.838250160217285 2.023010015487671 0.036886300891638
-6.640250205993652 1.608010053634644 0.024885300546885
-6.415249824523926 1.786010026931763 0.020887499675155
-6.203249931335449 2.334009885787964 -0.031114500015974
-6.366250038146973 2.252010107040405 -0.031114500015974
-7.090250015258789 1.866009950637817 -0.043111700564623
-6.659249782562256 2.092010021209717 -0.057111699134111
-7.232250213623047 1.693009972572327 -0.063112199306488
-6.189249992370606 2.136009931564331 -0.065111100673676
-6.490250110626221 1.668009996414185 -0.059114400297403
-6.841249942779541 1.530009984970093 -0.060113798826933
-7.110249996185303 1.591009974479675 -0.076112702488899
-6.881249904632568 1.948009967803955 -0.098112002015114
-6.278250217437744 1.984009981155396 -0.091112099587917
-6.507249832153320 2.143009901046753 -0.113110996782780
-6.360249996185303 1.848009943962097 -0.138113006949425
-6.104249954223633 2.293009996414185 -0.162110999226570
-6.278250217437744 2.227010011672974 -0.163113996386528
-6.977250099182129 1.540009975433350 -0.151113003492355
-6.740250110626221 1.983010053634644 -0.187113001942635
-6.993249893188477 1.850010037422180 -0.187113001942635
-6.721250057220459 1.530009984970093 -0.172113001346588
-7.160250186920166 1.794010043144226 -0.194113001227379
-6.594250202178955 2.047009944915772 -0.216112002730370
-6.560249805450440 1.568009972572327 -0.198113992810249
-6.125249862670898 2.059010028839111 -0.219114005565643
-6.232250213623047 1.905009984970093 -0.230112001299858
-6.438250064849854 1.685009956359863 -0.226114004850388
-6.397250175476074 2.127010107040405 -0.272112011909485
-6.829249858856201 1.883010029792786 -0.274114996194839
-6.213250160217285 2.200010061264038 -0.306111991405487
-6.316249847412109 1.780009984970093 -0.296113997697830
-6.992249965667725 1.750010013580322 -0.329111009836197
-6.862249851226807 1.522009968757629 -0.323114007711411
-7.063250064849854 1.606009960174561 -0.331113994121552
-6.046249866485596 2.161010026931763 -0.349110990762711
-7.201250076293945 1.689010024070740 -0.351114004850388
-6.677249908447266 1.516999959945679 -0.336111009120941
-6.494249820709229 2.027009963989258 -0.374112993478775
-6.700250148773193 1.900009989738464 -0.391110986471176
-6.150249958038330 1.863010048866272 -0.385114997625351
-6.498250007629395 1.564010024070740 -0.383112013339996
-6.320250034332275 2.118010044097900 -0.417111992835999
-6.858250141143799 1.782009959220886 -0.413114011287689
-6.332250118255615 1.698009967803955 -0.444112986326218
-6.060249805450440 1.997009992599487 -0.463113993406296
-6.186250209808350 2.207999944686890 -0.476114004850388
-6.987249851226807 1.566009998321533 -0.469114005565643
-6.569250106811523 1.934010028839111 -0.486113011837006
-6.815249919891357 1.506010055541992 -0.477113991975784
-7.122250080108643 1.666010022163391 -0.516111016273499
-6.418250083923340 2.038000106811523 -0.520112991333008
-6.739250183105469 1.822010040283203 -0.525113999843597
-6.220250129699707 1.785009980201721 -0.523110985755920
-6.423250198364258 1.569000005722046 -0.530111014842987
-6.855249881744385 1.695009946823120 -0.561112999916077
-6.583250045776367 1.528010010719299 -0.553113996982574
-6.148250102996826 1.929010033607483 -0.580114006996155
-7.279250144958496 1.688009977340698 -0.598111987113953
-6.079249858856201 2.137010097503662 -0.615113973617554
-6.207250118255615 2.246000051498413 -0.669111013412476
-7.020249843597412 1.630010008811951 -0.658113002777100
-6.863249778747559 1.480010032653809 -0.657114028930664
-6.644249916076660 1.896010041236877 -0.671114027500153
-6.428249835968018 2.072010040283203 -0.676110982894897
-6.652249813079834 1.488010048866272 -0.691114008426666
-7.264249801635742 1.569000005722046 -0.704110980033875
-6.337250232696533 1.656000018119812 -0.693113029003143
-6.233250141143799 1.830010056495667 -0.699114024639130
-6.187250137329102 2.039010047912598 -0.743112027645111
-6.880249977111816 1.699010014533997 -0.741114020347595
-6.334249973297119 2.194000005722046 -0.753114998340607
-6.552249908447266 1.997009992599487 -0.755114018917084
-6.765250205993652 1.838009953498840 -0.769113004207611
-7.135250091552734 1.694000005722046 -0.785112023353577
-7.384250164031982 1.633010029792786 -0.791113018989563
-6.514249801635742 1.512009978294373 -0.774115025997162
-7.134250164031982 1.495010018348694 -0.784112989902496
-6.770249843597412 1.454010009765625 -0.814112007617950
-6.982250213623047 1.450009942054749 -0.827112019062042
-6.960249900817871 1.787009954452515 -0.850115001201630
-6.400249958038330 1.605010032653809 -0.844114005565643
-6.249249935150147 2.138010025024414 -0.877111017704010
-7.199250221252441 1.807010054588318 -0.881112992763519
-7.275249958038330 1.495010018348694 -0.871115028858185
-6.479249954223633 2.115010023117065 -0.889111995697021
-6.302249908447266 1.821009993553162 -0.883112013339996
-6.372250080108643 2.239000082015991 -0.902113020420074
-6.681250095367432 1.976009964942932 -0.910112023353577
-6.274250030517578 1.984009981155396 -0.910112023353577
-6.834249973297119 1.896010041236877 -0.923112988471985
-7.073249816894531 1.879009962081909 -0.961111009120941
-7.102250099182129 1.397009968757629 -0.951112985610962
-6.842249870300293 1.410009980201721 -0.951112985610962
-6.638249874114990 1.484009981155396 -0.952112019062042
-6.361249923706055 1.696009993553162 -0.971113026142120
-6.482250213623047 1.539010047912598 -0.999113023281097
-7.254250049591065 1.363010048866272 -1.012109994888306
-6.583250045776367 2.072010040283203 -1.031110048294067
-6.942249774932861 1.942010045051575 -1.063109993934631
-6.358250141143799 1.849009990692139 -1.060109972953796
-6.432250022888184 2.176009893417358 -1.076110005378723
-6.959249973297119 1.354009985923767 -1.057109951972961
-6.781250000000000 1.983010053634644 -1.080109953880310
-6.320250034332275 2.030999898910523 -1.095110058784485
-6.726250171661377 1.412009954452515 -1.094110012054443
-7.089250087738037 1.973009943962097 -1.133110046386719
-6.396249771118164 1.689010024070740 -1.133110046386719
-7.164249897003174 1.252009987831116 -1.137109994888306
-6.659249782562256 2.055000066757202 -1.198109984397888
-6.572249889373779 1.469009995460510 -1.175109982490540
-6.895249843597412 1.997009992599487 -1.216109991073608
-6.851250171661377 1.310009956359863 -1.193109989166260
-7.018249988555908 1.244009971618652 -1.202110052108765
-6.391250133514404 1.843009948730469 -1.220110058784485
-6.394249916076660 2.181010007858276 -1.234109997749329
-6.441249847412109 1.563009977340698 -1.230110049247742
-6.342249870300293 1.998010039329529 -1.261109948158264
-7.294250011444092 1.177010059356690 -1.245110034942627
-7.048250198364258 2.014009952545166 -1.286110043525696
-6.681250095367432 1.383010029792786 -1.276110053062439
-6.533249855041504 2.120009899139404 -1.308109998703003
-7.124249935150147 1.111009955406189 -1.288110017776489
-6.776249885559082 2.045010089874268 -1.321110010147095
-6.911250114440918 1.169010043144226 -1.305109977722168
-6.764249801635742 1.241009950637817 -1.316110014915466
-6.400249958038330 1.687000036239624 -1.330109953880310
-6.284249782562256 2.214999914169312 -1.359109997749329
-6.534249782562256 1.414010047912598 -1.332110047340393
-7.261250019073486 1.041010022163391 -1.333109974861145
-6.995250225067139 1.030009984970093 -1.351109981536865
-7.038249969482422 2.040009975433350 -1.461109995841980
-6.180250167846680 2.140010118484497 -1.462110042572022
-6.662250041961670 2.122009992599487 -1.470110058784485
-6.315249919891357 1.953009963035584 -1.463109970092773
-6.373250007629395 1.793009996414185 -1.460109949111939
-7.192249774932861 2.091010093688965 -1.496109962463379
-6.839250087738037 2.070009946823120 -1.491109967231751
-6.801249980926514 0.979007005691528 -1.460109949111939
-6.880249977111816 0.827005982398987 -1.460109949111939
-6.425250053405762 2.211009979248047 -1.509109973907471
-6.466249942779541 1.357010006904602 -1.483109951019287
-6.402249813079834 1.567010045051575 -1.491109967231751
-6.569250106811523 2.189009904861450 -1.582110047340393
-6.281250000000000 2.233010053634644 -1.592110037803650
-7.260250091552734 1.993010044097900 -1.604110002517700
-6.704249858856201 0.877004981040955 -1.565109968185425
-6.723249912261963 2.144010066986084 -1.618109941482544
-6.944250106811523 2.058010101318359 -1.628110051155090
-6.331250190734863 1.817010045051575 -1.620110034942627
-6.222249984741211 1.961009979248047 -1.630110025405884
-7.116250038146973 2.067009925842285 -1.658110022544861
-6.368249893188477 1.657009959220886 -1.633110046386719
-6.418250083923340 1.391999959945679 -1.642109990119934
-6.155250072479248 2.173000097274780 -1.685109972953796
-6.459249973297119 2.297009944915772 -1.707110047340393
-6.058249950408936 2.006010055541992 -1.701110005378723
-6.836249828338623 2.139009952545166 -1.735110044479370
-7.196249961853027 1.953009963035584 -1.745110034942627
-6.269249916076660 2.273010015487671 -1.750110030174255
-6.608250141143799 2.278009891510010 -1.760110020637512
-6.993249893188477 2.075010061264038 -1.782109975814819
-6.385250091552734 1.513010025024414 -1.756109952926636
-6.779250144958496 2.299010038375855 -1.826110005378723
-6.194250106811523 1.862010002136231 -1.812109947204590
-5.980249881744385 1.919010043144226 -1.825109958648682
-6.311250209808350 1.725010037422180 -1.836109995841980
-6.093249797821045 2.116009950637817 -1.858109951019287
-6.491250038146973 2.380000114440918 -1.885110020637512
-6.323249816894531 2.383009910583496 -1.883110046386719
-6.646249771118164 2.299010038375855 -1.918110013008118
-6.918250083923340 2.200999975204468 -1.926110029220581
-6.351250171661377 1.578009963035584 -1.898110032081604
-6.404250144958496 1.394009947776794 -1.892109990119934
-6.239250183105469 2.227010011672974 -1.929110050201416
-6.391250133514404 2.258009910583496 -1.982110023498535
-6.013249874114990 1.827010035514832 -1.964110016822815
-7.027249813079834 2.111010074615479 -2.003109931945801
-6.004250049591065 2.051009893417358 -1.987110018730164
-6.782249927520752 2.191009998321533 -2.017110109329224
-6.123250007629395 2.154010057449341 -2.013109922409058
-6.154250144958496 1.763010025024414 -2.010109901428223
-6.558249950408936 2.206010103225708 -2.050110101699829
-6.302249908447266 1.467010021209717 -2.026109933853149
-6.282249927520752 1.636010050773621 -2.040110111236572
-6.294250011444092 2.189009904861450 -2.096110105514526
-5.861249923706055 1.754009962081909 -2.085109949111939
-5.938250064849854 1.966009974479675 -2.106110095977783
-6.689249992370606 2.122009992599487 -2.128109931945801
-6.879250049591065 2.070009946823120 -2.138109922409058
-6.021249771118164 1.724009990692139 -2.115109920501709
-6.015250205993652 2.108010053634644 -2.145109891891480
-6.446249961853027 2.111010074615479 -2.158109903335571
-7.031250000000000 2.004009962081909 -2.184109926223755
-6.160250186920166 1.659010052680969 -2.172110080718994
-6.580249786376953 2.003000020980835 -2.268110036849976
-5.904250144958496 1.886010050773621 -2.254110097885132
-7.040249824523926 1.877009987831116 -2.280109882354736
-6.171249866485596 2.103009939193726 -2.278110027313232
-6.413249969482422 2.013010025024414 -2.287110090255737
-6.049250125885010 2.205009937286377 -2.294110059738159
-5.865250110626221 1.643010020256043 -2.272109985351563
-6.190249919891357 1.507009983062744 -2.272109985351563
-6.892250061035156 1.950009942054749 -2.315109968185425
-5.966249942779541 2.063009977340698 -2.312109947204590
-6.733250141143799 1.959010004997253 -2.325109958648682
-6.058249950408936 1.601009964942932 -2.302109956741333
-7.063250064849854 1.700009942054749 -2.387109994888306
-6.282249927520752 2.037009954452515 -2.391109943389893
-5.929249763488770 1.936010003089905 -2.408109903335571
-5.919250011444092 1.547999978065491 -2.401109933853149
-6.985249996185303 1.886010050773621 -2.439110040664673
-6.930250167846680 1.623010039329529 -2.437109947204590
-5.920249938964844 1.776010036468506 -2.428109884262085
-6.816249847412109 1.909010052680969 -2.451109886169434
-6.140250205993652 2.184010028839111 -2.459110021591187
-6.485249996185303 1.959010004997253 -2.457109928131104
-6.643249988555908 1.906000018119812 -2.470109939575195
-6.000249862670898 2.189009904861450 -2.536109924316406
-6.008250236511231 1.449010014533997 -2.518110036849976
-6.364250183105469 2.016010046005249 -2.548110008239746
-7.032249927520752 1.696009993553162 -2.557110071182251
-6.939249992370606 1.825999975204468 -2.586110115051270
-5.905250072479248 1.690009951591492 -2.569109916687012
-6.239250183105469 2.111010074615479 -2.594110012054443
-5.910250186920166 1.886010050773621 -2.597110033035278
-5.941249847412109 2.051009893417358 -2.604110002517700
-5.840250015258789 1.471009969711304 -2.581110000610352
-6.119249820709229 2.235009908676148 -2.631109952926636
-6.523250102996826 1.915009975433350 -2.632110118865967
-6.793250083923340 1.858010053634644 -2.657109975814819
-6.921249866485596 1.606009960174561 -2.654109954833984
-6.331250190734863 2.048000097274780 -2.715110063552856
-5.987249851226807 2.161010026931763 -2.717109918594360
-5.796249866485596 1.557010054588318 -2.712110042572022
-5.862249851226807 1.732010006904602 -2.733109951019287
-7.021249771118164 1.700009942054749 -2.757110118865967
-5.976250171661377 1.386010050773621 -2.729110002517700
-6.033249855041504 1.213009953498840 -2.724109888076782
-6.648250102996826 1.850010037422180 -2.761110067367554
-5.918250083923340 2.008009910583496 -2.756109952926636
-6.452250003814697 1.948009967803955 -2.812109947204590
-5.819250106811523 1.330010056495667 -2.784110069274902
-6.870250225067139 1.599009990692139 -2.814110040664673
-6.083250045776367 2.245009899139404 -2.828109979629517
-6.216249942779541 2.143009901046753 -2.831110000610352
-6.867249965667725 1.784010052680969 -2.838109970092773
-5.886250019073486 1.871000051498413 -2.875109910964966
-6.348249912261963 2.043009996414185 -2.892110109329224
-5.952250003814697 2.114000082015991 -2.903110027313232
-6.719250202178955 1.812000036239624 -2.909110069274902
-5.944250106811523 1.209010004997253 -2.876110076904297
-5.850249767303467 1.688009977340698 -2.895109891891480
-6.994249820709229 1.679010033607483 -2.916110038757324
-6.558249950408936 1.868010044097900 -2.926110029220581
-6.046249866485596 1.051010012626648 -2.902110099792481
-5.774250030517578 1.228010058403015 -2.921109914779663
-6.094250202178955 2.148010015487671 -2.970109939575195
-5.766250133514404 1.383010029792786 -2.982110023498535
-5.838250160217285 1.529010057449341 -3.001110076904297
-5.829249858856201 1.836009979248047 -3.024110078811646
-5.924250125885010 1.684010028839111 -3.041110038757324
-6.551249980926514 1.818009972572327 -3.079109907150269
-6.351250171661377 1.950009942054749 -3.082109928131104
-6.145249843597412 2.048000097274780 -3.092109918594360
-5.945250034332275 2.003000020980835 -3.088109970092773
-5.995250225067139 1.054999947547913 -3.075109958648682
-5.833250045776367 1.029010057449341 -3.077110052108765
-5.740250110626221 1.192010045051575 -3.109110116958618
-5.934249877929688 1.547009944915772 -3.141109943389893
-5.796249866485596 1.351009964942932 -3.140110015869141
-5.887249946594238 1.807010054588318 -3.171109914779663
-6.678249835968018 1.740010023117065 -3.189110040664673
-6.195250034332275 1.929010033607483 -3.191109895706177
-6.411250114440918 1.835010051727295 -3.193109989166260
-6.030250072479248 1.937000036239624 -3.205110073089600
-6.020249843597412 1.682010054588318 -3.228110074996948
-6.523250102996826 1.745010018348694 -3.266109943389893
-5.887249946594238 1.429010033607483 -3.246109962463379
-6.126249790191650 1.813009977340698 -3.298110008239746
-5.788249969482422 1.322010040283203 -3.309109926223755
-5.987249851226807 1.543009996414185 -3.321110010147095
-6.319250106811523 1.779010057449341 -3.336110115051270
-5.977250099182129 1.857010006904602 -3.346110105514526
-6.039249897003174 1.694000005722046 -3.405109882354736
-5.864250183105469 1.431010007858276 -3.404109954833984
-6.576250076293945 1.687000036239624 -3.432110071182251
-6.332250118255615 1.697010040283203 -3.476109981536865
-5.877250194549561 1.908010005950928 -3.484110116958618
-5.911250114440918 1.575009942054749 -3.477109909057617
-5.780250072479248 1.309010028839111 -3.467109918594360
-6.711249828338623 1.595010042190552 -3.498110055923462
-5.884250164031982 1.737010002136231 -3.507110118865967
-6.738249778747559 1.435009956359863 -3.513109922409058
-6.042250156402588 1.820009946823120 -3.517110109329224
-5.749249935150147 1.145009994506836 -3.495110034942627
-6.475249767303467 1.656000018119812 -3.559109926223755
-6.173250198364258 1.737010002136231 -3.579109907150269
-5.816249847412109 1.470010042190552 -3.564110040664673
-5.925250053405762 1.836009979248047 -3.639110088348389
-6.344250202178955 1.659010052680969 -3.650110006332398
-5.766250133514404 1.302010059356690 -3.645109891891480
-6.687250137329102 1.585010051727295 -3.677109956741333
-6.807250022888184 1.463009953498840 -3.682110071182251
-6.090250015258789 1.783010005950928 -3.710109949111939
-6.545249938964844 1.645009994506836 -3.731110095977783
-5.777249813079834 1.149000048637390 -3.704109907150269
-5.819250106811523 1.685009956359863 -3.727109909057617
-6.224249839782715 1.700999975204468 -3.769109964370728
-5.976250171661377 1.724009990692139 -3.804110050201416
-5.743249893188477 1.506010055541992 -3.826109886169434
-6.318250179290772 1.633010029792786 -3.882110118865967
-6.670249938964844 1.421010017395020 -3.885109901428223
-6.118249893188477 1.690009951591492 -3.892110109329224
-5.874249935150147 1.611009955406189 -3.887109994888306
-5.797249794006348 1.191009998321533 -3.884109973907471
-6.617249965667725 1.600010037422180 -3.917109966278076
-5.932250022888184 0.972005009651184 -3.889110088348389
-5.723249912261963 1.346009969711304 -3.904109954833984
-6.106249809265137 0.914005994796753 -3.904109954833984
-6.796249866485596 1.330010056495667 -3.937109947204590
-5.802249908447266 1.469009995460510 -3.982110023498535
-5.796249866485596 0.983006000518799 -3.974109888076782
-6.240250110626221 0.838006019592285 -3.978110074996948
-6.462250232696533 1.603010058403015 -4.017109870910645
-6.222249984741211 1.606009960174561 -4.022109985351563
-5.981249809265137 1.605010032653809 -4.023109912872315
-5.743249893188477 1.127009987831116 -4.021110057830811
-6.594250202178955 1.532009959220886 -4.080110073089600
-6.657249927520752 1.330010056495667 -4.080110073089600
-6.020249843597412 0.930005013942719 -4.083109855651856
-5.897250175476074 1.506010055541992 -4.124110221862793
-6.346250057220459 1.561010003089905 -4.145110130310059
-5.773250102996826 1.256010055541992 -4.126110076904297
-6.352250099182129 0.808004975318909 -4.120110034942627
-6.503250122070313 0.740006029605865 -4.121109962463379
-6.727250099182129 1.190009951591492 -4.143109798431397
-6.132249832153320 1.552010059356690 -4.151110172271729
-6.174250125885010 0.883005976676941 -4.152110099792481
-5.885250091552734 0.973006010055542 -4.167109966278076
-6.543250083923340 0.883005976676941 -4.180109977722168
-6.597249984741211 1.258010029792786 -4.228109836578369
-6.559249877929688 1.527009963989258 -4.243110179901123
-5.850249767303467 1.370010018348694 -4.229109764099121
-6.678249835968018 1.071009993553162 -4.250110149383545
-6.019249916076660 0.923004984855652 -4.245110034942627
-5.815249919891357 1.124009966850281 -4.257110118865967
-6.034249782562256 1.498010039329529 -4.280109882354736
-6.286250114440918 0.849005997180939 -4.276110172271729
-6.256249904632568 1.514009952545166 -4.302110195159912
-6.425250053405762 1.573009967803955 -4.326109886169434
-6.568250179290772 0.957005023956299 -4.320109844207764
-5.840250015258789 1.261010050773621 -4.347109794616699
-6.416250228881836 0.871004998683929 -4.366109848022461
-5.902249813079834 1.407009959220886 -4.381110191345215
-6.112249851226807 0.865006029605865 -4.364109992980957
-6.593249797821045 1.103010058403015 -4.384109973907471
-6.534249782562256 1.477010011672974 -4.400109767913818
-6.519249916076660 1.249009966850281 -4.401110172271729
-6.271249771118164 0.827005982398987 -4.441110134124756
-6.521249771118164 1.041010022163391 -4.522109985351563
-6.478250026702881 1.211009979248047 -4.566110134124756
-6.461249828338623 1.077010035514832 -4.687109947204590
-6.419250011444092 1.124009966850281 -4.834109783172607
-6.387249946594238 1.128000020980835 -4.992109775543213
-6.450250148773193 1.164010047912598 -5.140110015869141
