ply
format ascii 1.0
element vertex 744
property double x
property double y
property double z
end_header
-5.634250164031982 1.187000036239624 -8.921110153198242
-5.717249870300293 1.206009984016419 -8.776109695434570
-5.684249877929688 1.012009978294373 -8.619110107421875
-5.664249897003174 1.042009949684143 -8.450110435485840
-5.574250221252441 1.147009968757629 -8.582110404968262
-5.796249866485596 0.823006987571716 -8.409110069274902
-5.561250209808350 1.157009959220886 -8.751110076904297
-5.742249965667725 0.987006008625031 -8.316109657287598
-5.813250064849854 0.855005979537964 -8.044110298156738
-5.678249835968018 0.874005019664764 -8.151109695434570
-5.872250080108643 0.710005998611450 -8.186109542846680
-5.564249992370606 0.612006008625031 -7.381110191345215
-5.633250236511231 0.556006014347076 -7.528110027313232
-5.767250061035156 0.595005989074707 -7.611110210418701
-5.540249824523926 0.645004987716675 -7.624110221862793
-5.654250144958496 0.570006012916565 -7.727109909057617
-5.526249885559082 0.497005999088287 -7.859109878540039
-5.745250225067139 0.759005010128021 -7.909110069274902
-5.688250064849854 0.606006026268005 -7.914110183715820
-5.527249813079834 0.653006017208099 -7.940110206604004
-5.814249992370606 0.637005984783173 -8.017109870910645
-5.622250080108643 0.735005021095276 -8.054109573364258
-5.592249870300293 0.552007019519806 -8.048110008239746
-5.695250034332275 0.626006007194519 -8.168109893798828
-5.547249794006348 0.577005982398987 -8.245109558105469
-5.551249980926514 0.847005009651184 -8.260109901428223
-5.754250049591065 0.715004980564117 -8.298110008239746
-5.602250099182129 0.712005972862244 -8.357110023498535
-5.502250194549561 0.847005009651184 -8.447110176086426
-5.655250072479248 0.874005019664764 -8.494110107421875
-5.521249771118164 0.979007005691528 -8.556110382080078
-5.539249897003174 1.301010012626648 -8.846110343933106
-5.591249942779541 1.308009982109070 -9.020110130310059
-5.450250148773193 1.215000033378601 -9.016110420227051
-5.498250007629395 1.272009968757629 -9.175109863281250
-7.295249938964844 -3.377990007400513 -2.364109992980957
-7.839749813079834 -4.777130126953125 -2.284100055694580
-7.894249916076660 -5.136000156402588 -2.299109935760498
-7.649250030517578 -5.306000232696533 -2.290110111236572
-7.793250083923340 -4.932990074157715 -2.307110071182251
-7.987249851226807 -5.270989894866943 -2.300110101699829
-7.295249938964844 -3.377990007400513 -2.364109992980957
-7.281250000000000 -3.209990024566650 -2.375109910964966
-7.221250057220459 -3.040990114212036 -2.381109952926636
-7.792739868164063 -4.622399806976318 -2.329329967498779
-7.477250099182129 -5.132989883422852 -2.314110040664673
-7.872250080108643 -5.422989845275879 -2.319109916687012
-7.603250026702881 -5.506989955902100 -2.315109968185425
-7.743249893188477 -5.598989963531494 -2.319109916687012
-7.678249835968018 -4.824989795684815 -2.361109972000122
-7.686200141906738 -4.510859966278076 -2.377929925918579
-7.502250194549561 -5.366990089416504 -2.345109939575195
-7.489250183105469 -4.649990081787109 -2.374109983444214
-8.044249534606934 -5.436989784240723 -2.360110044479370
-7.773250102996826 -5.221990108489990 -2.366110086441040
-7.715250015258789 -5.054989814758301 -2.373110055923462
-7.376249790191650 -4.507989883422852 -2.394109964370728
-7.213250160217285 -3.531990051269531 -2.434109926223755
-7.535389900207520 -4.468080043792725 -2.407310009002686
-7.574250221252441 -4.147990226745606 -2.423110008239746
-7.858250141143799 -5.704989910125732 -2.370110034942627
-7.728250026702881 -5.434989929199219 -2.391109943389893
-7.973249912261963 -5.591989994049072 -2.393110036849976
-7.320250034332275 -4.302989959716797 -2.441109895706177
-7.114250183105469 -3.662990093231201 -2.463109970092773
-7.051249980926514 -3.825989961624146 -2.460109949111939
-7.814750194549561 -4.418139934539795 -2.449340105056763
-7.660799980163574 -4.369090080261231 -2.451400041580200
-7.142250061035156 -2.945990085601807 -2.508110046386719
-7.608250141143799 -5.155990123748779 -2.439110040664673
-7.408249855041504 -4.168990135192871 -2.480109930038452
-7.532249927520752 -4.806990146636963 -2.459110021591187
-7.212250232696533 -2.727989912033081 -2.538110017776489
-7.518370151519775 -4.300710201263428 -2.484910011291504
-7.717249870300293 -4.223989963531494 -2.491110086441040
-7.585249900817871 -4.962989807128906 -2.464109897613525
-7.215250015258789 -3.292000055313110 -2.526109933853149
-7.982250213623047 -5.775990009307861 -2.445110082626343
-7.444250106811523 -5.238989830017090 -2.462110042572022
-8.107250213623047 -5.663990020751953 -2.470109939575195
-7.370250225067139 -4.631989955902100 -2.502110004425049
-6.941249847412109 -3.977989912033081 -2.538110017776489
-6.965839862823486 -4.144440174102783 -2.534559965133667
-7.035250186920166 -2.738990068435669 -2.598109960556030
-7.146249771118164 -3.436990022659302 -2.573110103607178
-7.012249946594238 -3.587990045547485 -2.567110061645508
-7.124249935150147 -3.167000055313110 -2.589109897613525
-6.848249912261963 -4.258989810943604 -2.544110059738159
-7.088840007781982 -4.040669918060303 -2.557790040969849
-7.283249855041504 -4.499989986419678 -2.544110059738159
-7.189929962158203 -3.738670110702515 -2.582000017166138
-6.948249816894531 -3.782989978790283 -2.579109907150269
-8.045249938964844 -5.975999832153320 -2.511110067367554
-7.315249919891357 -5.132989883422852 -2.533109903335571
-7.480249881744385 -5.088990211486816 -2.538110017776489
-7.036640167236328 -4.287209987640381 -2.562809944152832
-7.042250156402588 -2.469000101089478 -2.635109901428223
-6.927249908447266 -4.405089855194092 -2.562989950180054
-7.075160026550293 -4.874839782714844 -2.547559976577759
-7.406250000000000 -4.785990238189697 -2.557110071182251
-7.042250156402588 -3.028000116348267 -2.622109889984131
-7.537250041961670 -4.176990032196045 -2.585109949111939
-7.121759891510010 -3.882590055465698 -2.591249942779541
-6.976689815521240 -4.560569763183594 -2.569030046463013
-7.450250148773193 -3.270989894866943 -2.628109931945801
-7.818250179290772 -4.323989868164063 -2.593110084533691
-6.809249877929688 -4.047989845275879 -2.592109918594360
-7.025469779968262 -4.714769840240479 -2.569469928741455
-7.185719966888428 -4.990310192108154 -2.564079999923706
-7.233270168304443 -4.104899883270264 -2.602149963378906
-7.401730060577393 -4.950749874114990 -2.572340011596680
-6.938250064849854 -2.591989994049072 -2.666110038757324
-8.119250297546387 -5.806000232696533 -2.566109895706177
-7.252580165863037 -3.542239904403687 -2.641639947891235
-7.079790115356445 -4.443170070648193 -2.609080076217651
-7.260250091552734 -4.269989967346191 -2.621109962463379
-7.130249977111816 -2.634989976882935 -2.693109989166260
-7.266019821166992 -4.643579959869385 -2.623330116271973
-6.937250137329102 -2.922990083694458 -2.686110019683838
-6.807250022888184 -3.822989940643311 -2.649110078811646
-7.679249763488770 -4.261990070343018 -2.646110057830811
-7.350130081176758 -3.926239967346191 -2.654589891433716
-7.447299957275391 -4.053239822387695 -2.653630018234253
-7.068250179290772 -3.323990106582642 -2.682110071182251
-6.892250061035156 -3.628999948501587 -2.668109893798828
-6.706250190734863 -4.154990196228027 -2.650110006332398
-6.958250045776367 -3.446990013122559 -2.682110071182251
-7.113969802856445 -4.598340034484863 -2.641959905624390
-8.205249786376953 -5.938000202178955 -2.608109951019287
-6.985249996185303 -3.185990095138550 -2.697109937667847
-7.333300113677979 -3.687680006027222 -2.691400051116943
-7.275310039520264 -4.876029968261719 -2.645970106124878
-7.159520149230957 -4.767220020294190 -2.648570060729981
-7.549250125885010 -3.435990095138550 -2.710109949111939
-6.687250137329102 -3.985990047454834 -2.683109998703003
-7.119249820709229 -2.360990047454834 -2.758110046386719
-7.394249916076660 -4.197989940643311 -2.693109989166260
-6.868249893188477 -2.714989900588989 -2.743109941482544
-7.408249855041504 -2.999989986419678 -2.766109943389893
-7.414249897003174 -3.176990032196045 -2.761110067367554
-6.714250087738037 -3.672990083694458 -2.731110095977783
-6.802249908447266 -3.498990058898926 -2.744110107421875
-8.080249786376953 -6.021989822387695 -2.667109966278076
-6.892250061035156 -3.061990022659302 -2.766109943389893
-7.671249866485596 -3.747989892959595 -2.753109931945801
-7.415520191192627 -3.810909986495972 -2.750220060348511
-7.247250080108643 -2.693989992141724 -2.792109966278076
-7.626249790191650 -3.594990015029907 -2.765110015869141
-7.786920070648193 -4.083559989929199 -2.749209880828857
-6.865250110626221 -2.505990028381348 -2.802109956741333
-6.880249977111816 -3.310990095138550 -2.771110057830811
-6.614250183105469 -3.852989912033081 -2.747109889984131
-7.338819980621338 -3.539230108261108 -2.775290012359619
-7.500090122222900 -3.946949958801270 -2.768899917602539
-7.743249893188477 -3.898989915847778 -2.781110048294067
-8.188249588012695 -6.133989810943604 -2.706110000610352
-6.650249958038330 -3.537990093231201 -2.786109924316406
-7.156350135803223 -3.241349935531616 -2.807509899139404
-7.641419887542725 -4.030210018157959 -2.790369987487793
-7.025249958038330 -2.457989931106567 -2.842109918594360
-7.277770042419434 -3.365459918975830 -2.823570013046265
-7.053249835968018 -2.694999933242798 -2.850110054016113
-7.434249877929688 -3.407989978790283 -2.833110094070435
-6.835249900817871 -2.930999994277954 -2.844110012054443
-6.783249855041504 -2.647989988327026 -2.862109899520874
-7.428820133209229 -3.660880088806152 -2.837090015411377
-6.562250137329102 -3.703989982604981 -2.826109886169434
-6.739250183105469 -3.328989982604981 -2.849109888076782
-7.024849891662598 -3.152440071105957 -2.867239952087402
-7.373250007629395 -2.750989913940430 -2.897109985351563
-6.904250144958496 -2.377990007400513 -2.909110069274902
-7.609570026397705 -3.867449998855591 -2.868330001831055
-6.833250045776367 -3.186990022659302 -2.883110046386719
-7.578249931335449 -3.706990003585815 -2.877110004425049
-7.389249801635742 -3.267990112304688 -2.894109964370728
-7.113249778747559 -2.351000070571899 -2.927109956741333
-6.515250205993652 -3.559989929199219 -2.876110076904297
-7.385250091552734 -3.085989952087402 -2.910109996795654
-7.543250083923340 -3.552989959716797 -2.901109933853149
-7.407249927520752 -2.908989906311035 -2.926110029220581
-6.945250034332275 -2.562999963760376 -2.936110019683838
-7.194250106811523 -2.736989974975586 -2.937109947204590
-6.594250202178955 -3.412990093231201 -2.902110099792481
-6.920249938964844 -2.726000070571899 -2.944109916687012
-8.162249565124512 -6.231989860534668 -2.831110000610352
-6.748250007629395 -2.776989936828613 -2.955110073089600
-7.190249919891357 -2.211999893188477 -2.990109920501709
-7.222720146179199 -3.224750041961670 -2.958139896392822
-6.796249866485596 -3.028000116348267 -2.972110033035278
-6.686250209808350 -3.228990077972412 -2.970109939575195
-7.378250122070313 -3.469990015029907 -2.981110095977783
-6.938250064849854 -3.118060111999512 -3.002419948577881
-7.104909896850586 -3.128979921340942 -3.007750034332275
-8.147250175476074 -6.364999771118164 -2.918109893798828
-7.351250171661377 -3.174000024795532 -3.045109987258911
-6.657249927520752 -3.066989898681641 -3.042109966278076
-7.387249946594238 -3.013989925384522 -3.056109905242920
-6.922249794006348 -2.504990100860596 -3.082109928131104
-6.798250198364258 -2.361989974975586 -3.087110042572022
-6.861249923706055 -2.669990062713623 -3.082109928131104
-6.702250003814697 -2.913990020751953 -3.078109979629517
-7.266250133514404 -2.153990030288696 -3.117110013961792
-6.712250232696533 -2.498990058898926 -3.096110105514526
-6.957250118255615 -2.832989931106567 -3.097110033035278
-7.007249832153320 -2.349989891052246 -3.117110013961792
-6.519249916076660 -3.191989898681641 -3.081110000610352
-6.451250076293945 -3.421989917755127 -3.074110031127930
-7.432250022888184 -2.835989952087402 -3.114109992980957
-7.261250019073486 -2.800990104675293 -3.119110107421875
-6.508250236511231 -3.000989913940430 -3.118109941482544
-7.139249801635742 -2.240989923477173 -3.159110069274902
-6.976250171661377 -2.195990085601807 -3.161109924316406
-7.021130084991455 -3.079060077667236 -3.133029937744141
-6.722249984741211 -2.724989891052246 -3.165110111236572
-6.573249816894531 -2.834990024566650 -3.174109935760498
-7.116250038146973 -2.847990036010742 -3.187109947204590
-6.380249977111816 -3.102989912033081 -3.166110038757324
-6.383250236511231 -3.300990104675293 -3.163110017776489
-6.865159988403320 -3.093489885330200 -3.190239906311035
-6.623250007629395 -2.595989942550659 -3.209110021591187
-6.402249813079834 -2.891989946365356 -3.204109907150269
-6.679249763488770 -2.349989891052246 -3.235110044479370
-6.844250202178955 -2.510999917984009 -3.233109951019287
-7.316249847412109 -2.088989973068237 -3.268110036849976
-6.918250083923340 -2.358989953994751 -3.259109973907471
-6.505249977111816 -2.705990076065064 -3.246109962463379
-7.026249885559082 -2.108989953994751 -3.295109987258911
-6.274250030517578 -2.996999979019165 -3.251110076904297
-7.196249961853027 -2.188990116119385 -3.302109956741333
-6.981249809265137 -2.869990110397339 -3.272109985351563
-6.678339958190918 -3.085459947586060 -3.263880014419556
-6.841249942779541 -2.790990114212036 -3.289109945297241
-6.323249816894531 -2.748990058898926 -3.286109924316406
-6.533999919891357 -3.013279914855957 -3.280810117721558
-6.497250080108643 -2.485990047454834 -3.317110061645508
-6.386250019073486 -2.605989933013916 -3.324110031127930
-7.153250217437744 -2.028990030288696 -3.366110086441040
-6.807250022888184 -2.356990098953247 -3.375109910964966
-6.320250034332275 -3.184989929199219 -3.336110115051270
-6.901249885559082 -2.168989896774292 -3.386110067367554
-6.775249958038330 -2.552989959716797 -3.371109962463379
-6.401249885559082 -2.374989986419678 -3.393110036849976
-6.591249942779541 -2.359989881515503 -3.398109912872315
-6.240250110626221 -2.580990076065064 -3.386110067367554
-6.200250148773193 -2.920989990234375 -3.387109994888306
-6.756249904632568 -2.879990100860596 -3.398109912872315
-7.053249835968018 -2.258990049362183 -3.431109905242920
-7.345250129699707 -2.054990053176880 -3.444109916687012
-6.732250213623047 -2.696990013122559 -3.423110008239746
-6.249249935150147 -2.419990062713623 -3.430109977722168
-7.027249813079834 -2.017990112304688 -3.462110042572022
-7.239250183105469 -2.180999994277954 -3.470109939575195
-6.701250076293945 -2.263989925384522 -3.467109918594360
-6.495250225067139 -2.984989881515503 -3.438110113143921
-6.349249839782715 -2.919990062713623 -3.446110010147095
-6.602250099182129 -2.837990045547485 -3.455110073089600
-6.119249820709229 -2.510999917984009 -3.476109981536865
-6.123250007629395 -2.351989984512329 -3.501110076904297
-6.821249961853027 -2.424989938735962 -3.519109964370728
-6.344250202178955 -2.258990049362183 -3.519109964370728
-6.815249919891357 -2.142990112304688 -3.536109924316406
-6.555250167846680 -2.219000101089478 -3.529109954833984
-6.271249771118164 -2.760999917984009 -3.516109943389893
-7.211249828338623 -1.962990045547485 -3.565109968185425
-6.443250179290772 -2.754990100860596 -3.522109985351563
-6.582250118255615 -2.672990083694458 -3.537110090255737
-6.205249786376953 -2.180999994277954 -3.556109905242920
-6.697249889373779 -2.546989917755127 -3.554110050201416
-6.904250144958496 -2.000989913940430 -3.586110115051270
-7.131249904632568 -2.251990079879761 -3.584110021591187
-5.984250068664551 -2.278990030288696 -3.568109989166260
-6.200250148773193 -2.622989892959595 -3.562109947204590
-7.057250022888184 -1.942989945411682 -3.607110023498535
-6.080249786376953 -2.082989931106567 -3.589109897613525
-6.015250205993652 -1.808990001678467 -3.605109930038452
-6.313250064849854 -2.061990022659302 -3.606110095977783
-6.486249923706055 -2.089989900588989 -3.608109951019287
-6.666250228881836 -2.112989902496338 -3.611109972000122
-6.379250049591065 -2.623990058898926 -3.588109970092773
-5.948249816894531 -1.968999981880188 -3.608109951019287
-6.929249763488770 -2.347990036010742 -3.618109941482544
-7.339250087738037 -2.073990106582642 -3.639110088348389
-6.175250053405762 -1.924990057945252 -3.634109973907471
-6.503250122070313 -2.521990060806274 -3.653110027313232
-6.142250061035156 -1.750990033149719 -3.687109947204590
-6.413249969482422 -1.957990050315857 -3.688110113143921
-6.726250171661377 -2.443989992141724 -3.679110050201416
-6.165249824523926 -2.388989925384522 -3.673110008239746
-6.317249774932861 -2.466989994049072 -3.677109956741333
-6.607250213623047 -1.992990016937256 -3.711110115051270
-7.220250129699707 -2.185990095138550 -3.716109991073608
-6.293250083923340 -1.821990013122559 -3.724109888076782
-6.063250064849854 -2.246999979019165 -3.705110073089600
-7.132249832153320 -1.877990007400513 -3.741110086441040
-6.952250003814697 -1.877990007400513 -3.742110013961792
-7.277249813079834 -1.946990013122559 -3.745110034942627
-6.795249938964844 -1.967990040779114 -3.742110013961792
-5.965250015258789 -2.079989910125732 -3.730109930038452
-5.985249996185303 -1.675989985466003 -3.765110015869141
-7.072249889373779 -2.275990009307861 -3.760109901428223
-6.851250171661377 -2.349989891052246 -3.757110118865967
-6.578249931335449 -2.401989936828613 -3.766109943389893
-6.419250011444092 -2.377990007400513 -3.767110109329224
-6.234250068664551 -2.287990093231201 -3.786109924316406
-6.537250041961670 -1.889989972114563 -3.819109916687012
-6.412250041961670 -1.761989951133728 -3.853110074996948
-6.104249954223633 -2.127990007400513 -3.843110084533691
-7.209249973297119 -2.154989957809448 -3.878109931945801
-7.325250148773193 -2.026989936828613 -3.891109943389893
-6.970250129699707 -1.780990004539490 -3.897109985351563
-6.663249969482422 -1.827990055084229 -3.895109891891480
-6.005249977111816 -2.002990007400513 -3.878109931945801
-5.819250106811523 -1.706990003585815 -3.892110109329224
-6.462250232696533 -2.269989967346191 -3.884109973907471
-6.674250125885010 -2.292000055313110 -3.887109994888306
-7.242249965667725 -1.828989982604981 -3.916110038757324
-6.945250034332275 -2.248990058898926 -3.898109912872315
-6.265250205993652 -1.684990048408508 -3.917109966278076
-6.084249973297119 -1.646989941596985 -3.916110038757324
-6.811250209808350 -1.773990035057068 -3.926110029220581
-6.250249862670898 -2.160989999771118 -3.906110048294067
-5.906250000000000 -1.870990037918091 -3.912110090255737
-6.525249958038330 -1.764989972114563 -3.965110063552856
-7.120250225067139 -1.743989944458008 -3.980109930038452
-5.938250064849854 -1.630990028381348 -3.986109972000122
-6.804249763488770 -2.219990015029907 -3.978110074996948
-7.082250118255615 -2.172990083694458 -3.986109972000122
-6.395249843597412 -2.139990091323853 -3.986109972000122
-6.135250091552734 -2.007989883422852 -3.990109920501709
-6.560249805450440 -2.186990022659302 -3.990109920501709
-6.409249782562256 -1.649989962577820 -4.009109973907471
-6.684249877929688 -1.729990005493164 -4.019110202789307
-6.213250160217285 -1.550989985466003 -4.021110057830811
-7.347249984741211 -1.899989962577820 -4.026110172271729
-6.944250106811523 -1.685989975929260 -4.030109882354736
-5.978250026702881 -1.858000040054321 -4.056109905242920
-7.184249877929688 -2.028990030288696 -4.080110073089600
-6.920249938964844 -2.120990037918091 -4.073110103607178
-6.275249958038330 -2.016989946365356 -4.070109844207764
-5.842249870300293 -1.763990044593811 -4.074110031127930
-7.255249977111816 -1.750990033149719 -4.110109806060791
-6.558249950408936 -1.667989969253540 -4.104109764099121
-6.699250221252441 -2.124989986419678 -4.097109794616699
-6.518249988555908 -2.070990085601807 -4.105110168457031
-6.816249847412109 -1.615000009536743 -4.129109859466553
-6.163249969482422 -1.914989948272705 -4.124110221862793
-6.333250045776367 -1.552989959716797 -4.146110057830811
-6.028250217437744 -1.537989974021912 -4.153110027313232
-7.269249916076660 -1.913990020751953 -4.164110183715820
-7.052249908447266 -1.624989986419678 -4.176109790802002
-7.039249897003174 -2.000989913940430 -4.171110153198242
-6.380249977111816 -1.955989956855774 -4.178110122680664
-6.804249763488770 -2.030989885330200 -4.186110019683838
-6.054249763488770 -1.820989966392517 -4.192110061645508
-6.669250011444092 -1.561990022659302 -4.214109897613525
-7.206250190734863 -1.648990035057068 -4.225110054016113
-6.488249778747559 -1.544989943504334 -4.233109951019287
-6.595250129699707 -1.971989989280701 -4.227109909057617
-6.940249919891357 -1.538990020751953 -4.254109859466553
-7.340250015258789 -1.761989951133728 -4.258110046386719
-6.273250102996826 -1.862990021705627 -4.253109931945801
-6.201250076293945 -1.468999981880188 -4.270110130310059
-7.138249874114990 -1.869989991188049 -4.272109985351563
-6.369249820709229 -1.448989987373352 -4.278110027313232
-6.922249794006348 -1.920989990234375 -4.277110099792481
-5.933249950408936 -1.728989958763123 -4.275109767913818
-6.730249881744385 -1.908990025520325 -4.291110038757324
-6.461249828338623 -1.865990042686462 -4.299109935760498
-7.130249977111816 -1.546990036964417 -4.324110031127930
-5.976250171661377 -1.538990020751953 -4.311110019683838
-6.804249763488770 -1.453989982604981 -4.348110198974609
-6.161250114440918 -1.770990014076233 -4.328110218048096
-7.321249961853027 -1.639989972114563 -4.366109848022461
-7.208250045776367 -1.752990007400513 -4.367109775543213
-6.637249946594238 -1.422989964485169 -4.376110076904297
-6.345250129699707 -1.766989946365356 -4.370110034942627
-6.873250007629395 -1.809990048408508 -4.383110046386719
-6.093249797821045 -1.459990024566650 -4.388110160827637
-6.484250068664551 -1.366989970207214 -4.399109840393066
-7.037250041961670 -1.781990051269531 -4.393109798431397
-6.960249900817871 -1.407989978790283 -4.408110141754150
-6.708250045776367 -1.780990004539490 -4.399109840393066
-6.034249782562256 -1.688989996910095 -4.393109798431397
-6.321249961853027 -1.366989970207214 -4.414110183715820
-6.538249969482422 -1.755990028381348 -4.413109779357910
-5.859250068664551 -1.674000024795532 -4.407110214233398
-7.119249820709229 -1.409999966621399 -4.448110103607178
-5.819250106811523 -1.515990018844605 -4.430109977722168
-6.213250160217285 -1.670989990234375 -4.449110031127930
-7.100249767303467 -1.637989997863770 -4.469110012054443
-6.838250160217285 -1.674000024795532 -4.467110157012940
-7.241250038146973 -1.556990027427673 -4.479109764099121
-6.731249809265137 -1.347990036010742 -4.490109920501709
-6.416250228881836 -1.668990015983582 -4.480110168457031
-6.894249916076660 -1.309990048408508 -4.514110088348389
-6.006249904632568 -1.365000009536743 -4.499110221862793
-6.962250232696533 -1.570000052452087 -4.516109943389893
-6.653250217437744 -1.625990033149719 -4.511109828948975
-6.195250034332275 -1.334990024566650 -4.526110172271729
-5.844250202178955 -1.386000037193298 -4.519110202789307
-7.290249824523926 -1.403990030288696 -4.544109821319580
-7.167250156402588 -1.274989962577820 -4.548110008239746
-5.957250118255615 -1.573989987373352 -4.524109840393066
-6.588250160217285 -1.304990053176880 -4.550109863281250
-6.802249908447266 -1.538990020751953 -4.551109790802002
-6.137249946594238 -1.564990043640137 -4.544109821319580
-7.021249771118164 -1.392989993095398 -4.580110073089600
-6.043250083923340 -1.226989984512329 -4.580110073089600
-7.304249763488770 -1.184990048408508 -4.605110168457031
-6.426249980926514 -1.247990012168884 -4.591110229492188
-6.512249946594238 -1.546990036964417 -4.581110000610352
-6.319250106811523 -1.540989995002747 -4.585110187530518
-6.270249843597412 -1.209990024566650 -4.606110095977783
-5.876249790191650 -1.242990016937256 -4.600110054016113
-7.301249980926514 -0.980993986129761 -4.641109943389893
-7.034249782562256 -1.213989973068237 -4.629109859466553
-7.159249782562256 -1.088989973068237 -4.644110202789307
-5.950250148773193 -1.452990055084229 -4.629109859466553
-7.119900226593018 -0.928790986537933 -4.686359882354736
-7.244249820709229 -0.812995016574860 -4.702109813690186
-6.813250064849854 -1.216989994049072 -4.684110164642334
-6.688250064849854 -1.332990050315857 -4.687109947204590
-6.253250122070313 -1.412989974021912 -4.677110195159912
-6.107250213623047 -1.113989949226379 -4.689109802246094
-5.792250156402588 -1.370990037918091 -4.675109863281250
-6.869709968566895 -1.065449953079224 -4.705480098724365
-6.088250160217285 -1.386989951133728 -4.686110019683838
-6.508250236511231 -1.380990028381348 -4.708109855651856
-6.915540218353272 -0.914655983448029 -4.755420207977295
-6.272250175476074 -1.121999979019165 -4.740109920501709
-5.789249897003174 -1.157989978790283 -4.734109878540039
-6.452250003814697 -1.152999997138977 -4.746109962463379
-5.951250076293945 -1.285989999771118 -4.735109806060791
-6.686250209808350 -1.147989988327026 -4.757110118865967
-7.041240215301514 -0.815662980079651 -4.777979850769043
-5.947249889373779 -1.084990024566650 -4.752110004425049
-5.800250053405762 -0.986994981765747 -4.757110118865967
-6.202250003814697 -1.294989943504334 -4.772109985351563
-6.377250194549561 -1.303990006446838 -4.782110214233398
-6.567249774932861 -1.254989981651306 -4.792109966278076
-6.758729934692383 -1.006250023841858 -4.807670116424561
-7.173250198364258 -0.737994015216827 -4.845109939575195
-5.923250198364258 -0.893993973731995 -4.825109958648682
-6.071249961853027 -1.199990034103394 -4.822110176086426
-6.166250228881836 -1.021989941596985 -4.846109867095947
-6.614250183105469 -1.049990057945252 -4.865109920501709
-6.919620037078857 -0.795642971992493 -4.887020111083984
-5.832250118255615 -0.774995028972626 -4.880109786987305
-6.372250080108643 -1.185989975929260 -4.898109912872315
-6.016250133514404 -0.982994973659515 -4.932109832763672
-6.349249839782715 -0.975995004177094 -4.938109874725342
-7.071249961853027 -0.733995020389557 -4.967110157012940
-6.493249893188477 -1.104990005493164 -4.970109939575195
-6.107250213623047 -0.840995013713837 -4.986110210418701
-6.634250164031982 -0.912994027137756 -5.002110004425049
-6.768320083618164 -0.803633987903595 -5.024819850921631
-6.466249942779541 -0.898994028568268 -5.018109798431397
-5.946249961853027 -0.849994003772736 -5.027110099792481
-6.922029972076416 -0.766771018505096 -5.046979904174805
-7.219250202178955 -0.754994988441467 -5.057109832763672
-6.218249797821045 -1.001989960670471 -5.032110214233398
-6.255249977111816 -0.842993974685669 -5.048110008239746
-7.054249763488770 -0.729995012283325 -5.130109786987305
-5.811250209808350 -0.817993998527527 -5.111110210418701
-6.395249843597412 -0.799995005130768 -5.128109931945801
-6.336249828338623 -0.952993988990784 -5.129109859466553
-6.567249774932861 -0.916994988918304 -5.155109882354736
-6.222249984741211 -0.727994024753571 -5.159110069274902
-6.798250198364258 -0.743995010852814 -5.173110008239746
-5.938250064849854 -0.729995012283325 -5.168109893798828
-6.081250190734863 -0.809994995594025 -5.172110080718994
-7.241250038146973 -0.761994004249573 -5.216110229492188
-6.953249931335449 -0.792994976043701 -5.258110046386719
-6.661250114440918 -0.798995018005371 -5.264110088348389
-6.490250110626221 -0.734993994235992 -5.264110088348389
-6.443250179290772 -0.890994012355804 -5.263110160827637
-6.073249816894531 -0.655993998050690 -5.289110183715820
-6.180250167846680 -0.779994010925293 -5.305109977722168
-7.125249862670898 -0.786993980407715 -5.327109813690186
-5.994249820709229 -0.788995027542114 -5.327109813690186
-6.803249835968018 -0.769994020462036 -5.347109794616699
-6.329249858856201 -0.817993998527527 -5.350110054016113
-6.377250194549561 -0.642994999885559 -5.361110210418701
-5.802249908447266 -0.820994019508362 -5.349110126495361
-6.212250232696533 -0.627994000911713 -5.364109992980957
-5.920249938964844 -0.647993981838226 -5.392109870910645
-6.657249927520752 -0.732994973659515 -5.421110153198242
-6.879250049591065 -0.766993999481201 -5.491109848022461
-7.186250209808350 -0.761994004249573 -5.501110076904297
-6.699250221252441 -0.554993987083435 -5.503109931945801
-6.966249942779541 -0.631992995738983 -5.510109901428223
-6.056250095367432 -0.731993973255157 -5.493110179901123
-6.509250164031982 -0.738994002342224 -5.506110191345215
-6.306250095367432 -0.732994973659515 -5.503109931945801
-6.330249786376953 -0.530993998050690 -5.518109798431397
-5.826250076293945 -0.801993012428284 -5.514110088348389
-5.981249809265137 -0.580995023250580 -5.531109809875488
-6.509250164031982 -0.556994974613190 -5.545110225677490
-6.175250053405762 -0.492992997169495 -5.543109893798828
-7.031250000000000 -0.794993996620178 -5.568109989166260
-6.708250045776367 -0.710994005203247 -5.574110031127930
-6.803249835968018 -0.529994010925293 -5.624110221862793
-5.929249763488770 -0.728994011878967 -5.612110137939453
-6.643249988555908 -0.488994002342224 -5.641109943389893
-6.168250083923340 -0.636994004249573 -5.631110191345215
-6.349249839782715 -0.660995006561279 -5.644110202789307
-7.158249855041504 -0.757995009422302 -5.665110111236572
-6.067249774932861 -0.500994980335236 -5.666110038757324
-6.842249870300293 -0.741994023323059 -5.676109790802002
-6.357250213623047 -0.475995004177094 -5.680109977722168
-6.219250202178955 -0.394993990659714 -5.686110019683838
-7.033249855041504 -0.648994028568268 -5.691110134124756
-6.641250133514404 -0.644994020462036 -5.713109970092773
-6.481249809265137 -0.596993982791901 -5.717110157012940
-6.905250072479248 -0.556994974613190 -5.751110076904297
-6.976250171661377 -0.787994027137756 -5.749110221862793
-6.714250087738037 -0.427994996309280 -5.771110057830811
-6.265250205993652 -0.580995023250580 -5.776110172271729
-5.915249824523926 -0.744993984699249 -5.772109985351563
-6.548250198364258 -0.395992994308472 -5.806109905242920
-6.080249786376953 -0.631992995738983 -5.799109935760498
-6.107250213623047 -0.425994008779526 -5.811110019683838
-6.389249801635742 -0.384994000196457 -5.824110031127930
-7.115250110626221 -0.774995028972626 -5.833109855651856
-7.008250236511231 -0.652994990348816 -5.857110023498535
-6.405250072479248 -0.548995018005371 -5.855110168457031
-6.554249763488770 -0.612994015216827 -5.885109901428223
-6.818250179290772 -0.470993995666504 -5.896110057830811
-6.888249874114990 -0.760994970798492 -5.889110088348389
-6.735249996185303 -0.695994019508362 -5.893109798431397
-6.255249977111816 -0.343995004892349 -5.902110099792481
-5.956250190734863 -0.562995016574860 -5.909110069274902
-6.685249805450440 -0.350995004177094 -5.943109989166260
-5.965250015258789 -0.734993994235992 -5.927110195159912
-6.517250061035156 -0.296994000673294 -5.953110218048096
-6.177249908447266 -0.573994994163513 -5.943109989166260
-6.013249874114990 -0.420994997024536 -5.966110229492188
-6.913249969482422 -0.572992980480194 -5.983109951019287
-7.026249885559082 -0.775994002819061 -5.984109878540039
-6.122250080108643 -0.317993998527527 -6.018109798431397
-6.350249767303467 -0.256992995738983 -6.032110214233398
-6.329249858856201 -0.520992994308472 -6.025109767913818
-6.644249916076660 -0.646995007991791 -6.033110141754150
-6.797249794006348 -0.720993995666504 -6.048110008239746
-6.499249935150147 -0.564993977546692 -6.050109863281250
-6.815249919891357 -0.455994993448257 -6.087110042572022
-5.852250099182129 -0.736994981765747 -6.070109844207764
-6.606249809265137 -0.229994997382164 -6.106110095977783
-6.080249786376953 -0.611994981765747 -6.086110115051270
-6.944250106811523 -0.731993973255157 -6.125110149383545
-6.450250148773193 -0.174995005130768 -6.145110130310059
-6.720250129699707 -0.332994014024735 -6.147109985351563
-6.242249965667725 -0.232995003461838 -6.147109985351563
-6.039249897003174 -0.407994002103806 -6.140110015869141
-6.213250160217285 -0.514994978904724 -6.153110027313232
-6.880249977111816 -0.590995013713837 -6.171110153198242
-6.623250007629395 -0.520992994308472 -6.172110080718994
-6.442249774932861 -0.476994991302490 -6.174109935760498
-5.958250045776367 -0.549995005130768 -6.169109821319580
-5.976250171661377 -0.731993973255157 -6.172110080718994
-6.741250038146973 -0.656994998455048 -6.229109764099121
-6.328249931335449 -0.135995000600815 -6.251110076904297
-6.095250129699707 -0.260995000600815 -6.298110008239746
-6.596250057220459 -0.430994987487793 -6.300109863281250
-6.542250156402588 -0.078993901610374 -6.320109844207764
-6.824250221252441 -0.514994978904724 -6.312109947204590
-6.014249801635742 -0.410995006561279 -6.304110050201416
-6.871250152587891 -0.675993978977203 -6.319109916687012
-6.190249919891357 -0.110992997884750 -6.335110187530518
-6.100249767303467 -0.569994986057281 -6.316110134124756
-6.653250217437744 -0.192993998527527 -6.340109825134277
-6.440249919891357 -0.418994009494781 -6.329110145568848
-6.275249958038330 -0.467994004487991 -6.325109958648682
-6.729249954223633 -0.334993988275528 -6.347109794616699
-6.392250061035156 -0.038994900882244 -6.368110179901123
-5.961249828338623 -0.671993970870972 -6.359109878540039
-6.684249877929688 -0.536993980407715 -6.384109973907471
-6.241250038146973 -0.007994799874723 -6.460110187530518
-6.027249813079834 -0.292995005846024 -6.447110176086426
-6.624249935150147 -0.395992994308472 -6.461110115051270
-6.168250083923340 -0.483994990587235 -6.453110218048096
-6.622250080108643 -0.082993596792221 -6.481110095977783
-6.785250186920166 -0.413994997739792 -6.483109951019287
-6.719250202178955 -0.256992995738983 -6.490109920501709
-6.830249786376953 -0.584994018077850 -6.479109764099121
-6.516250133514404 0.038004800677300 -6.500110149383545
-6.333250045776367 -0.380993992090225 -6.487110137939453
-5.950250148773193 -0.432994008064270 -6.480110168457031
-6.056250095367432 -0.610993027687073 -6.477109909057617
-6.084249973297119 -0.075993701815605 -6.510109901428223
-6.477250099182129 -0.313995003700256 -6.514110088348389
-6.360249996185303 0.066006496548653 -6.545110225677490
-5.971250057220459 -0.212994992733002 -6.578110218048096
-6.176249980926514 0.078005701303482 -6.602109909057617
-6.198249816894531 -0.395992994308472 -6.595109939575195
-6.692249774932861 -0.131992995738983 -6.624110221862793
-6.018249988555908 0.023005399852991 -6.627110004425049
-6.472249984741211 0.130006000399590 -6.639110088348389
-6.613249778747559 -0.275994002819061 -6.628109931945801
-6.365250110626221 -0.267994999885559 -6.631110191345215
-6.775249958038330 -0.289994001388550 -6.646110057830811
-6.079249858856201 -0.511994004249573 -6.627110004425049
-6.815249919891357 -0.447993010282516 -6.644110202789307
-6.643249988555908 0.045006599277258 -6.670110225677490
-6.265250205993652 0.154006004333496 -6.714109897613525
-6.217249870300293 -0.264995008707047 -6.705110073089600
-6.495250225067139 -0.192993998527527 -6.715109825134277
-6.098249912261963 0.161006003618240 -6.733109951019287
-6.074250221252441 -0.340995013713837 -6.714109897613525
-5.940249919891357 -0.503995001316071 -6.718110084533691
-6.602250099182129 0.176005005836487 -6.769110202789307
-6.425250053405762 0.216005995869637 -6.773109912872315
-5.903250217437744 -0.285995006561279 -6.752110004425049
-6.756249904632568 -0.028994699940085 -6.776110172271729
-6.350249767303467 -0.150994002819061 -6.768109798431397
-6.867249965667725 -0.371995002031326 -6.779109954833984
-6.818250179290772 -0.208994999527931 -6.788109779357910
-5.920249938964844 0.038004800677300 -6.787109851837158
-6.683249950408936 -0.299995005130768 -6.788109779357910
-6.124249935150147 -0.159995004534721 -6.788109779357910
-5.963250160217285 -0.138992995023727 -6.792109966278076
-6.230249881744385 0.267004996538162 -6.829110145568848
-6.736249923706055 0.129005998373032 -6.860109806060791
-6.207250118255615 -0.020993299782276 -6.848110198974609
-6.597249984741211 -0.145992994308472 -6.856110095977783
-6.459249973297119 -0.062995098531246 -6.863110065460205
-6.544250011444092 0.286006003618240 -6.882110118865967
-6.084249973297119 0.319005012512207 -6.877110004425049
-6.059249877929688 0.032006099820137 -6.880109786987305
-6.358250141143799 0.326005011796951 -6.906109809875488
-6.844250202178955 0.032006099820137 -6.925109863281250
-6.698249816894531 0.267004996538162 -6.939109802246094
-6.904250144958496 -0.132994994521141 -6.936110019683838
-6.322249889373779 0.061005499213934 -6.935110092163086
-6.741250038146973 -0.156994998455048 -6.935110092163086
-6.616250038146973 -0.022994199767709 -6.964109897613525
-6.214250087738037 0.363005995750427 -6.977109909057617
-6.009250164031982 0.212006002664566 -6.976109981536865
-6.477250099182129 0.397006005048752 -6.994110107421875
-6.209249973297119 0.159005001187325 -6.991109848022461
-6.494249820709229 0.082005396485329 -7.003109931945801
-6.849249839782715 0.206006005406380 -7.018109798431397
-6.960249900817871 0.035006400197744 -7.036109924316406
-6.759250164031982 0.373005986213684 -7.062109947204590
-5.627250194549561 0.395004987716675 -7.048110008239746
-6.726250171661377 0.067005999386311 -7.062109947204590
-6.982250213623047 0.185005992650986 -7.107110023498535
-6.537250041961670 0.503005027770996 -7.117109775543213
-6.090250015258789 0.308005005121231 -7.106110095977783
-6.249249935150147 0.460005998611450 -7.116109848022461
-5.726250171661377 0.504006028175354 -7.121109962463379
-6.328249931335449 0.224005997180939 -7.124110221862793
-5.982250213623047 0.463005989789963 -7.128109931945801
-6.509250164031982 0.251006007194519 -7.135109901428223
-6.855249881744385 0.465005010366440 -7.150109767913818
-5.668250083923340 0.666005015373230 -7.154109954833984
-6.704249858856201 0.546006023883820 -7.170110225677490
-6.382249832153320 0.575004994869232 -7.166110038757324
-6.677249908447266 0.245004996657372 -7.161109924316406
-6.978250026702881 0.336005002260208 -7.181109905242920
-6.526249885559082 0.654006004333496 -7.189109802246094
-6.837250232696533 0.263004988431931 -7.188109874725342
-6.239250183105469 0.638005018234253 -7.197110176086426
-6.653250217437744 0.753005027770996 -7.221109867095947
-6.414249897003174 0.360004991292953 -7.207109928131104
-6.114250183105469 0.517005026340485 -7.211110115051270
-6.966249942779541 0.541005015373230 -7.239109992980957
-5.817249774932861 0.592006027698517 -7.226109981536865
-6.577250003814697 0.396005988121033 -7.232110023498535
-6.735249996185303 0.377005010843277 -7.238110065460205
-6.193250179290772 0.315005004405975 -7.229109764099121
-6.532249927520752 0.832005023956299 -7.289110183715820
-6.465250015258789 0.516004979610443 -7.293109893798828
-6.919250011444092 0.693005025386810 -7.309110164642334
-6.794250011444092 0.592006027698517 -7.316110134124756
-6.611249923706055 0.586004972457886 -7.321109771728516
-6.753250122070313 0.759005010128021 -7.347109794616699
-5.936250209808350 0.590004980564117 -7.339109897613525
-6.314249992370606 0.386005997657776 -7.338109970092773
-6.122250080108643 0.434006989002228 -7.349110126495361
-6.499249935150147 0.693005025386810 -7.379109859466553
-6.846250057220459 0.874005019664764 -7.405109882354736
-5.747250080108643 0.616006016731262 -7.384109973907471
-6.367249965667725 0.576004981994629 -7.403110027313232
-6.626249790191650 0.799005985260010 -7.434110164642334
-6.729249954223633 0.965004980564117 -7.465109825134277
-6.041250228881836 0.539005994796753 -7.452109813690186
-6.246250152587891 0.419005006551743 -7.496109962463379
-5.897250175476074 0.604007005691528 -7.505109786987305
-6.313250064849854 0.548004984855652 -7.561110019683838
-6.712250232696533 0.838006019592285 -7.579110145568848
-6.383250236511231 0.710005998611450 -7.590109825134277
-6.549250125885010 0.780004978179932 -7.599110126495361
-6.126249790191650 0.479007005691528 -7.583109855651856
-5.998250007629395 0.564005970954895 -7.649109840393066
-6.838250160217285 0.867004990577698 -7.677110195159912
-6.588250160217285 0.920006990432739 -7.697110176086426
-6.237249851226807 0.501006007194519 -7.700109958648682
-6.426249980926514 0.955006003379822 -7.726109981536865
-6.310249805450440 0.643006026744843 -7.719110012054443
-6.441249847412109 0.737006008625031 -7.746109962463379
-6.630249977111816 0.753005027770996 -7.759109973907471
-6.720250129699707 0.882007002830505 -7.792109966278076
-6.106249809265137 0.542006015777588 -7.786109924316406
-6.811250209808350 0.802007019519806 -7.911109924316406
-6.269249916076660 0.657006025314331 -7.913109779357910
-6.365250110626221 0.781005024909973 -7.950109958648682
-6.666250228881836 0.854007005691528 -7.975110054016113
-6.788249969482422 0.780004978179932 -8.085109710693359
-6.570250034332275 0.879006028175354 -8.099109649658203
-6.664249897003174 0.794004976749420 -8.220109939575195
-6.521249771118164 0.855005979537964 -8.296110153198242
-6.656250000000000 0.938005983829498 -8.334110260009766
-6.774250030517578 0.829005002975464 -8.333109855651856
-6.516250133514404 0.969006001949310 -8.429109573364258
-6.646249771118164 1.069000005722046 -8.435110092163086
-6.738249778747559 0.937004983425140 -8.473110198974609
-6.797249794006348 1.087010025978088 -8.496109962463379
-6.665249824523926 1.088009953498840 -8.592109680175781
-6.789249897003174 1.240010023117065 -8.613109588623047
-6.673250198364258 1.227010011672974 -8.725110054016113
-6.774250030517578 1.370010018348694 -8.766110420227051
-6.615250110626221 1.266010046005249 -8.889109611511231
-6.744249820709229 1.354009985923767 -8.931110382080078
-6.461249828338623 1.274000048637390 -8.934109687805176
-6.578249931335449 1.272009968757629 -9.047109603881836
-6.704249858856201 1.366009950637817 -9.095109939575195
-6.560249805450440 1.377009987831116 -9.177109718322754
-6.416250228881836 1.307010054588318 -9.175109863281250
-6.646249771118164 1.508010029792786 -9.226110458374023
-6.706250190734863 1.649000048637390 -9.268110275268555
-6.487249851226807 1.485010027885437 -9.282110214233398
-6.561250209808350 1.657009959220886 -9.334110260009766
-6.619249820709229 1.508010029792786 -9.392109870910645
-6.553249835968018 1.460010051727295 -9.530110359191895
-6.638249874114990 1.582999944686890 -9.636110305786133
-6.484250068664551 1.525009989738464 -9.667110443115234
-6.602250099182129 1.654010057449341 -9.791110038757324
-6.445250034332275 1.578009963035584 -9.858110427856445
-6.569250106811523 1.661010026931763 -9.952110290527344
-6.444250106811523 1.571009993553162 -10.030099868774414
-6.535250186920166 1.674010038375855 -10.153100013732910
-6.394249916076660 1.627009987831116 -10.212100028991699
-6.482250213623047 1.655009984970093 -10.350099563598633
