ply
format ascii 1.0
element vertex 669
property double x
property double y
property double z
end_header
-10.221300125122070 -2.510999917984009 2.260890007019043
-10.145299911499023 -2.449990034103394 2.396889925003052
-10.158300399780273 -2.261990070343018 2.365890026092529
-9.975250244140625 -2.035000085830689 2.357889890670776
-10.293299674987793 -2.367990016937256 2.362890005111694
-10.522299766540527 -2.584990024566650 2.361890077590942
-10.436300277709961 -2.442990064620972 2.355890035629273
-10.134300231933594 -2.087990045547485 2.339890003204346
-10.345299720764160 -2.580990076065064 2.352890014648438
-10.631299972534180 -2.740000009536743 2.348890066146851
-10.283300399780273 -2.163990020751953 2.311889886856079
-10.661299705505371 -2.513989925384522 2.318890094757080
-10.434300422668457 -2.713989973068237 2.325890064239502
-10.574299812316895 -2.374989986419678 2.303889989852905
-10.762299537658691 -2.646990060806274 2.299890041351318
-10.457300186157227 -2.251990079879761 2.286890029907227
-10.639300346374512 -2.967989921569824 2.302890062332153
-10.105299949645996 -1.920989990234375 2.261889934539795
-10.778300285339355 -2.863990068435669 2.279890060424805
-10.810299873352051 -2.494990110397339 2.261889934539795
-10.251299858093262 -1.981989979743958 2.245889902114868
-10.221300125122070 -2.510999917984009 2.260890007019043
-10.394300460815430 -2.066989898681641 2.233890056610107
-10.726300239562988 -2.351989984512329 2.232889890670776
-10.897299766540527 -2.736989974975586 2.243890047073364
-10.869299888610840 -3.000989913940430 2.253890037536621
-10.956299781799316 -2.567990064620972 2.234889984130859
-10.116299629211426 -2.212990045547485 2.218889951705933
-9.967249870300293 -1.832990050315857 2.204890012741089
-11.073300361633301 -2.708990097045898 2.219890117645264
-10.723299980163574 -3.178989887237549 2.242889881134033
-10.561300277709961 -2.153000116348267 2.204890012741089
-10.883299827575684 -3.170989990234375 2.235889911651611
-10.909299850463867 -2.377990007400513 2.196890115737915
-9.841250419616699 -1.931990027427673 2.195889949798584
-11.020299911499023 -2.874989986419678 2.212889909744263
-10.515299797058105 -2.809989929199219 2.216890096664429
-11.222299575805664 -2.810990095138550 2.203890085220337
-11.192299842834473 -2.567990064620972 2.192889928817749
-11.061300277709961 -2.443989992141724 2.177890062332153
-10.854299545288086 -3.346990108489990 2.213890075683594
-11.374300003051758 -2.863990068435669 2.170890092849731
-10.730299949645996 -3.026989936828613 2.180890083312988
-11.182299613952637 -3.025990009307861 2.166889905929565
-11.024299621582031 -3.109989881515503 2.171890020370483
-10.257300376892090 -2.355989933013916 2.150890111923218
-11.316300392150879 -2.664989948272705 2.145889997482300
-10.667300224304199 -2.839989900588989 2.160890102386475
-10.497300148010254 -2.643990039825440 2.154890060424805
-10.368300437927246 -1.946990013122559 2.127890110015869
-10.697299957275391 -2.178989887237549 2.124890089035034
-10.373299598693848 -2.498990058898926 2.140889883041382
-10.203300476074219 -1.863989949226379 2.115890026092529
-10.520299911499023 -1.993989944458008 2.115890026092529
-10.996299743652344 -3.267990112304688 2.156889915466309
-10.166299819946289 -2.067990064620972 2.120889902114868
-10.864299774169922 -2.236989974975586 2.104890108108521
-9.753250122070313 -1.820989966392517 2.104890108108521
-10.054300308227539 -1.921990036964417 2.096889972686768
-10.248299598693848 -2.206990003585815 2.095890045166016
-10.869299888610840 -2.833990097045898 2.105890035629273
-11.293299674987793 -2.484989881515503 2.079890012741089
-10.746299743652344 -2.711999893188477 2.096889972686768
-10.982299804687500 -3.429990053176880 2.114890098571777
-10.941300392150879 -2.992990016937256 2.097889900207520
-9.892250061035156 -1.754989981651306 2.064889907836914
-11.020299911499023 -2.285000085830689 2.061889886856079
-10.084300041198730 -1.752990007400513 2.055890083312988
-11.172300338745117 -2.376990079879761 2.061889886856079
-10.637299537658691 -2.584990024566650 2.075890064239502
-11.175299644470215 -2.702990055084229 2.069890022277832
-11.219300270080566 -3.164989948272705 2.085890054702759
-11.009300231933594 -2.734989881515503 2.071890115737915
-11.249300003051758 -2.903000116348267 2.065890073776245
-11.084300041198730 -2.922990083694458 2.065890073776245
-10.378299713134766 -2.348989963531494 2.045890092849731
-9.889249801635742 -1.946990013122559 2.035890102386475
-10.331299781799316 -1.813989996910095 2.022890090942383
-10.647299766540527 -2.019989967346191 2.023890018463135
-10.525300025939941 -2.458990097045898 2.041889905929565
-10.795299530029297 -2.108989953994751 2.020889997482300
-11.348299980163574 -3.051990032196045 2.048890113830566
-10.885299682617188 -2.598989963531494 2.034889936447144
-11.115300178527832 -3.355989933013916 2.045890092849731
-11.088299751281738 -2.543989896774292 2.011889934539795
-10.758299827575684 -2.504990100860596 2.009890079498291
-11.053299903869629 -3.178989887237549 2.029890060424805
-10.941300392150879 -2.164989948272705 1.985890030860901
-10.484299659729004 -1.904989957809448 1.981889963150024
-10.263299942016602 -1.978989958763123 1.977890014648438
-9.748250007629395 -1.932989954948425 1.961889982223511
-10.182299613952637 -1.837000012397766 1.949890017509460
-9.827249526977539 -1.667989969253540 1.947890043258667
-11.251299858093262 -3.292000055313110 1.987890005111694
-9.990249633789063 -1.653990030288696 1.943889975547791
-10.931300163269043 -2.443989992141724 1.952890038490295
-11.106300354003906 -3.509989976882935 1.985890030860901
-10.625300407409668 -2.355989933013916 1.944890022277832
-10.034299850463867 -1.902999997138977 1.930889964103699
-9.664250373840332 -1.695989966392517 1.924890041351318
-10.336299896240234 -2.151989936828613 1.930889964103699
-11.360300064086914 -3.181989908218384 1.951889991760254
-10.462300300598145 -2.255990028381348 1.926890015602112
-10.746299743652344 -1.962990045547485 1.906890034675598
-11.072299957275391 -2.358989953994751 1.914890050888062
-10.793299674987793 -2.354990005493164 1.907889962196350
-10.143300056457520 -1.625990033149719 1.886890053749085
-10.279299736022949 -1.721989989280701 1.887889981269836
-10.429300308227539 -1.774989962577820 1.881890058517456
-10.614299774169922 -1.844990015029907 1.876889944076538
-11.066300392150879 -2.203989982604981 1.878890037536621
-10.869299888610840 -2.072989940643311 1.862890005111694
-10.591300010681152 -2.184989929199219 1.828889966011047
-11.369299888610840 -3.322989940643311 1.859889984130859
-11.271300315856934 -3.520989894866943 1.868890047073364
-11.159299850463867 -3.403990030288696 1.865890026092529
-9.795249938964844 -1.572989940643311 1.814890027046204
-9.970250129699707 -1.554990053176880 1.807890057563782
-11.161299705505371 -3.664989948272705 1.867890000343323
-10.525300025939941 -1.734990000724793 1.760890007019043
-10.961299896240234 -2.208990097045898 1.758890032768250
-9.566249847412109 -1.724990010261536 1.758890032768250
-10.724300384521484 -2.133990049362183 1.753890037536621
-10.430299758911133 -2.091989994049072 1.754889965057373
-10.277299880981445 -2.042989969253540 1.753890037536621
-10.755299568176270 -1.947989940643311 1.740890026092529
-9.677249908447266 -1.903990030288696 1.750890016555786
-9.835249900817871 -1.956990003585815 1.746889948844910
-10.009300231933594 -1.983989953994751 1.744889974594116
-10.112299919128418 -1.557989954948425 1.725890040397644
-9.641249656677246 -1.551990032196045 1.723889946937561
-10.405300140380859 -1.629989981651306 1.704890012741089
-11.363300323486328 -3.448990106582642 1.756890058517456
-10.882300376892090 -2.052989959716797 1.703889966011047
-9.845250129699707 -1.470989942550659 1.693889975547791
-10.639300346374512 -1.827990055084229 1.674890041351318
-11.175299644470215 -3.786989927291870 1.739889979362488
-10.594300270080566 -2.068989992141724 1.678889989852905
-10.275300025939941 -1.542000055313110 1.660889983177185
-11.394300460815430 -3.597990036010742 1.705890059471130
-10.160300254821777 -1.998990058898926 1.655889987945557
-9.998250007629395 -1.463989973068237 1.625890016555786
-11.235300064086914 -3.599989891052246 1.685889959335327
-9.691249847412109 -1.437999963760376 1.613890051841736
-10.574299812316895 -1.692989945411682 1.607890009880066
-9.491250038146973 -1.583989977836609 1.615890026092529
-10.439299583435059 -2.009989976882935 1.613890051841736
-10.761300086975098 -2.045989990234375 1.594889998435974
-10.467300415039062 -1.550989985466003 1.579890012741089
-9.925250053405762 -1.946990013122559 1.593889951705933
-9.599249839782715 -1.881989955902100 1.589890003204346
-10.142299652099609 -1.402999997138977 1.552889943122864
-11.285300254821777 -3.764990091323853 1.621889948844910
-10.317299842834473 -1.429990053176880 1.544890046119690
-10.732299804687500 -1.887989997863770 1.544890046119690
-9.771249771118164 -1.917989969253540 1.554890036582947
-10.606300354003906 -1.987990021705627 1.538890004158020
-10.303299903869629 -1.945000052452087 1.532889962196350
-9.788249969482422 -1.368989944458008 1.503890037536621
-9.964249610900879 -1.363989949226379 1.497889995574951
-9.572250366210938 -1.376989960670471 1.485890030860901
-10.055299758911133 -1.897989988327026 1.495890021324158
-10.467300415039062 -1.908990025520325 1.482890009880066
-11.203300476074219 -3.874989986419678 1.534890055656433
-10.248299598693848 -1.293990015983582 1.438889980316162
-10.448300361633301 -1.405990004539490 1.439890027046204
-9.420249938964844 -1.560989975929260 1.461889982223511
-9.506250381469727 -1.783990025520325 1.468889951705933
-10.610300064086914 -1.628999948501587 1.444890022277832
-10.667300224304199 -1.784999966621399 1.441890001296997
-11.374300003051758 -3.701999902725220 1.500890016555786
-10.209300041198730 -1.852990031242371 1.441890001296997
-9.654250144958496 -1.851989984512329 1.441890001296997
-10.079299926757812 -1.272989988327026 1.409890055656433
-9.876250267028809 -1.252990007400513 1.411890029907227
-9.907250404357910 -1.845989942550659 1.424890041351318
-9.689249992370606 -1.280990004539490 1.401890039443970
-10.349300384521484 -1.788990020751953 1.401890039443970
-10.514300346374512 -1.748990058898926 1.394889950752258
-9.512249946594238 -1.240000009536743 1.368890047073364
-10.382300376892090 -1.270990014076233 1.346889972686768
-9.413249969482422 -1.375990033149719 1.365890026092529
-10.585300445556641 -1.382990002632141 1.342890024185181
-11.301300048828125 -3.829989910125732 1.415889978408814
-9.792249679565430 -1.141989946365356 1.333889961242676
-10.398300170898437 -1.644989967346191 1.342890024185181
-10.200300216674805 -1.714990019798279 1.345890045166016
-10.223299980163574 -1.189990043640137 1.319890022277832
-10.043299674987793 -1.745990037918091 1.341889977455139
-10.540300369262695 -1.537989974021912 1.324890017509460
-9.987250328063965 -1.159999966621399 1.313889980316162
-9.755249977111816 -1.780990004539490 1.337890028953552
-9.387249946594238 -1.704990029335022 1.327890038490295
-9.634249687194824 -1.155990004539490 1.296890020370483
-9.530249595642090 -1.771989941596985 1.302889943122864
-9.918250083923340 -1.019989967346191 1.265890002250671
-10.519300460815430 -1.241989970207214 1.264889955520630
-10.289299964904785 -1.543990015983582 1.279889941215515
-9.895250320434570 -1.704990029335022 1.291890025138855
-10.441300392150879 -1.414989948272705 1.266890048980713
-9.318249702453613 -1.553990006446838 1.281890034675598
-10.120300292968750 -1.554990053176880 1.253890037536621
-10.095299720764160 -1.036990046501160 1.229889988899231
-9.699250221252441 -0.991994023323059 1.229889988899231
-9.376250267028809 -1.231989979743958 1.242890000343323
-10.241299629211426 -1.401990056037903 1.220890045166016
-10.388299942016602 -1.094990015029907 1.205890059471130
-9.499250411987305 -1.123990058898926 1.213889956474304
-9.957249641418457 -1.577000021934509 1.220890045166016
-10.324299812316895 -1.240990042686462 1.198889970779419
-9.319250106811523 -1.398990035057068 1.217890024185181
-9.821249961853027 -0.896995007991791 1.189890027046204
-10.084300041198730 -1.405990004539490 1.176890015602112
-11.221300125122070 -3.977989912033081 1.248890042304993
-10.233300209045410 -1.070989966392517 1.146890044212341
-9.623250007629395 -1.681990027427673 1.177889943122864
-10.151300430297852 -1.256989955902100 1.148890018463135
-9.770250320434570 -1.595989942550659 1.162889957427979
-10.028300285339355 -0.915993988513947 1.129889965057373
-9.321249961853027 -1.678990006446838 1.167889952659607
-9.567250251770020 -0.933992981910706 1.129889965057373
-9.713250160217285 -0.802995026111603 1.107890009880066
-9.369250297546387 -1.072989940643311 1.123890042304993
-9.880249977111816 -1.458989977836609 1.129889965057373
-9.926250457763672 -0.798995018005371 1.095890045166016
-9.276249885559082 -1.218999981880188 1.114889979362488
-10.036299705505371 -1.094990015029907 1.091889977455139
-9.967249870300293 -1.280990004539490 1.095890045166016
-9.216250419616699 -1.408990025520325 1.090890049934387
-9.472249984741211 -1.688989996910095 1.095890045166016
-9.228249549865723 -1.578989982604981 1.074890017509460
-9.634249687194824 -1.564990043640137 1.062890052795410
-9.911250114440918 -0.976994991302490 1.029889941215515
-9.899250030517578 -1.150990009307861 1.033890008926392
-9.585249900817871 -0.733995020389557 1.021890044212341
-9.814249992370606 -1.294989943504334 1.027889966964722
-9.732250213623047 -0.459993988275528 0.937887012958527
-9.779250144958496 -1.077990055084229 0.956888020038605
-9.729249954223633 -0.729995012283325 0.943888008594513
-9.540249824523926 -0.580995023250580 0.940886020660400
-9.772250175476074 -0.886994004249573 0.948889017105103
-9.406250000000000 -0.765994012355804 0.948889017105103
-9.200249671936035 -1.111989974975586 0.955888986587524
-9.518250465393066 -1.537989974021912 0.954886019229889
-9.683250427246094 -1.274989962577820 0.939885973930359
-9.313249588012695 -0.920994997024536 0.925885975360870
-9.139249801635742 -1.265990018844605 0.940886020660400
-9.154250144958496 -1.505990028381348 0.949887990951538
-9.566249847412109 -1.370990037918091 0.886888980865479
-9.680250167846680 -0.584994018077850 0.850884974002838
-9.644249916076660 -1.042000055313110 0.861886978149414
-9.267250061035156 -0.738994002342224 0.836885988712311
-9.563249588012695 -1.203989982604981 0.841886997222900
-9.382249832153320 -1.588989973068237 0.858888983726501
-9.640250205993652 -0.768993973731995 0.814885973930359
-9.229249954223633 -1.636000037193298 0.853887975215912
-9.191249847412109 -0.909995019435883 0.823889017105103
-9.665249824523926 -0.413994997739792 0.796887993812561
-9.482250213623047 -0.522993981838226 0.793886005878448
-9.093250274658203 -1.131989955902100 0.816888988018036
-9.056249618530273 -1.318989992141724 0.806886970996857
-9.449250221252441 -1.317989945411682 0.787886023521423
-9.557250022888184 -0.934994995594025 0.770887017250061
-9.337249755859375 -0.590995013713837 0.756887972354889
-9.082249641418457 -1.511000037193298 0.793886005878448
-9.042249679565430 -0.938995003700256 0.749888002872467
-9.335249900817871 -1.458989977836609 0.760885000228882
-9.466250419616699 -1.095989942550659 0.738885998725891
-9.165249824523926 -0.729995012283325 0.709887027740479
-9.608249664306641 -0.546993970870972 0.683885991573334
-9.543250083923340 -0.730993986129761 0.674887001514435
-8.987250328063965 -1.193989992141724 0.688887000083923
-9.207249641418457 -1.549000024795532 0.697885990142822
-9.352250099182129 -1.191990017890930 0.677888989448547
-9.014249801635742 -1.412989974021912 0.682886004447937
-9.452249526977539 -0.890994012355804 0.653886973857880
-9.277250289916992 -0.499992996454239 0.626886010169983
-9.425250053405762 -0.425994008779526 0.618887007236481
-9.258250236511231 -1.337990045547485 0.648886024951935
-9.366250038146973 -1.030990004539490 0.629889011383057
-9.083250045776367 -1.644989967346191 0.654886007308960
-8.952249526977539 -0.891993999481201 0.622888982295990
-9.125249862670898 -0.573994994163513 0.590887010097504
-9.034250259399414 -0.730993986129761 0.597886979579926
-9.579250335693359 -0.448994994163513 0.560887992382050
-9.249250411987305 -1.132990002632141 0.568888008594513
-8.903249740600586 -1.132990002632141 0.567888021469116
-9.120249748229981 -1.466989994049072 0.571886003017426
-9.415249824523926 -0.741994023323059 0.529886007308960
-9.501250267028809 -0.604995012283325 0.520887017250061
-9.321249961853027 -0.899995028972626 0.529886007308960
-9.146249771118164 -1.280990004539490 0.536885976791382
-8.840250015258789 -0.921993970870972 0.511888980865479
-9.276249885559082 -0.396995007991791 0.457888007164001
-9.005249977111816 -0.547994017601013 0.463887989521027
-8.890250205993652 -0.733995020389557 0.456887990236282
-9.150250434875488 -1.057989954948425 0.456887990236282
-9.114250183105469 -0.422993987798691 0.427888989448547
-9.027250289916992 -1.382990002632141 0.464888006448746
-9.509249687194824 -0.477993994951248 0.418886005878448
-8.985250473022461 -1.570989966392517 0.458887010812759
-8.819250106811523 -1.229990005493164 0.444887012243271
-8.758250236511231 -1.037989974021912 0.431887000799179
-9.195249557495117 -0.902994990348816 0.412885993719101
-9.311249732971191 -0.751994013786316 0.404886007308960
-9.033249855041504 -1.205989956855774 0.425886005163193
-8.759249687194824 -0.777994990348816 0.370885998010635
-8.835249900817871 -1.568989992141724 0.389887005090714
-8.903249740600586 -0.510994970798492 0.337888985872269
-9.395250320434570 -0.570994019508362 0.327886998653412
-8.904250144958496 -1.347990036010742 0.364885002374649
-9.377249717712402 -0.379994988441467 0.306887000799179
-9.065250396728516 -0.955995023250580 0.330888986587524
-8.682250022888184 -0.927995026111603 0.331887990236282
-8.969249725341797 -1.094990015029907 0.330888986587524
-9.028249740600586 -0.418994009494781 0.292887002229691
-8.622249603271484 -1.360990047454834 0.326887011528015
-8.752249717712402 -1.452990055084229 0.317887991666794
-9.133250236511231 -0.815993010997772 0.284886986017227
-8.591250419616699 -1.081990003585815 0.289887994527817
-9.250249862670898 -0.661993980407715 0.259885996580124
-8.634980201721191 -0.733074009418488 0.269977003335953
-8.778249740600586 -1.285989999771118 0.284886986017227
-9.222249984741211 -0.392994999885559 0.239885002374649
-8.774250030517578 -0.539994001388550 0.245885998010635
-8.830249786376953 -1.116989970207214 0.251886010169983
-8.654250144958496 -1.217990040779114 0.207888007164001
-8.500249862670898 -1.349990010261536 0.203886002302170
-9.351249694824219 -0.428993999958038 0.149884998798370
-8.601249694824219 -0.894994020462036 0.178887993097305
-9.042249679565430 -0.737994015216827 0.148885995149612
-9.041250228881836 -0.396995007991791 0.133885994553566
-9.234250068664551 -0.558992981910706 0.135885000228882
-8.641249656677246 -0.601994991302490 0.138887003064156
-8.787249565124512 -0.944994986057281 0.145887002348900
-8.531250000000000 -0.732994973659515 0.138887003064156
-8.915249824523926 -0.835994005203247 0.132887005805969
-8.501250267028809 -1.186990022659302 0.147885993123055
-8.619250297546387 -1.049990057945252 0.132887005805969
-8.353249549865723 -1.285989999771118 0.145887002348900
-8.728249549865723 -0.416994988918304 0.091886602342129
-8.443249702453613 -0.985993027687073 0.117888003587723
-8.895250320434570 -0.384994000196457 0.055887300521135
-8.414250373840332 -0.825994014739990 0.078886099159718
-8.586250305175781 -0.480993986129761 0.048887301236391
-9.228249549865723 -0.368995010852814 0.025888500735164
-8.806249618530273 -0.777994990348816 0.023885799571872
-8.666250228881836 -0.880994021892548 0.027887400239706
-9.117250442504883 -0.532993972301483 0.004888600204140
-8.323249816894531 -1.071990013122559 0.033887900412083
-8.501250267028809 -0.623993992805481 0.009885899722576
-9.049249649047852 -0.341993987560272 -0.026113400235772
-8.235250473022461 -1.197989940643311 -0.014112399891019
-8.976249694824219 -0.587994992733002 -0.052114401012659
-8.516249656677246 -0.864995002746582 -0.038114499300718
-8.375249862670898 -0.716993987560272 -0.043111700564623
-8.651249885559082 -0.333995014429092 -0.069112703204155
-8.342249870300293 -0.920994997024536 -0.060113798826933
-8.503250122070313 -0.391993999481201 -0.095113702118397
-8.824250221252441 -0.325994014739990 -0.105112001299858
-8.673250198364258 -0.737994015216827 -0.099111497402191
-8.396249771118164 -0.555994987487793 -0.115114003419876
-9.171250343322754 -0.355993986129761 -0.164113998413086
-8.981249809265137 -0.290993988513947 -0.165113002061844
-9.002249717712402 -0.456993997097015 -0.167111992835999
-8.235030174255371 -1.065000057220459 -0.143607005476952
-8.853249549865723 -0.542994976043701 -0.180113002657890
-8.698249816894531 -0.258994013071060 -0.211110994219780
-8.271249771118164 -0.708994984626770 -0.190110996365547
-8.370249748229981 -0.837994992733002 -0.194113001227379
-8.405249595642090 -0.324993997812271 -0.218110993504524
-8.530249595642090 -0.733995020389557 -0.204110994935036
-8.298250198364258 -0.449993997812271 -0.225115001201630
-8.544249534606934 -0.224994003772736 -0.251112014055252
-8.161729812622070 -1.162709951400757 -0.245104998350143
-9.081250190734863 -0.264995008707047 -0.298112988471985
-8.734250068664551 -0.503995001316071 -0.295114010572433
-8.920249938964844 -0.356994003057480 -0.311112999916077
-8.246250152587891 -0.587994992733002 -0.299111992120743
-8.829250335693359 -0.219995006918907 -0.324113994836807
-8.569250106811523 -0.618995010852814 -0.315111011266708
-8.403249740600586 -0.734993994235992 -0.316114008426666
-8.273249626159668 -0.287993997335434 -0.332112997770309
-8.209250450134277 -0.973994016647339 -0.306111991405487
-8.274250030517578 -0.834994018077850 -0.349110990762711
-8.429249763488770 -0.111994996666908 -0.385114997625351
-8.756250381469727 -0.366993993520737 -0.388112992048264
-8.649250030517578 -0.135995000600815 -0.399114996194839
-8.972249984741211 -0.185993999242783 -0.405111014842987
-8.610250473022461 -0.470993995666504 -0.394113004207611
-8.169249534606934 -0.482995003461838 -0.416112989187241
-8.279250144958496 -0.103993996977806 -0.437112987041473
-8.142250061035156 -0.271995007991791 -0.432112008333206
-8.150489807128906 -1.100020051002502 -0.402105987071991
-8.469249725341797 -0.561994016170502 -0.432112008333206
-8.863249778747559 -0.073994800448418 -0.463113993406296
-8.760250091552734 -0.220993995666504 -0.476114004850388
-8.126250267028809 -0.106994003057480 -0.485112994909287
-8.614250183105469 -0.331993997097015 -0.486113011837006
-8.570249557495117 -0.029994100332260 -0.499112993478775
-8.253250122070313 -0.731993973255157 -0.468111008405685
-8.110250473022461 -0.662994027137756 -0.469114005565643
-8.175250053405762 -0.948994994163513 -0.475115001201630
-8.463250160217285 -0.414994001388550 -0.515111982822418
-8.335249900817871 0.031004799529910 -0.537110984325409
-8.721249580383301 -0.070994496345520 -0.541113018989563
-8.335249900817871 -0.536993980407715 -0.529111981391907
-8.086250305175781 -0.402994990348816 -0.541113018989563
-8.179249763488770 0.081005901098251 -0.570111989974976
-8.018730163574219 -0.202794998884201 -0.560490012168884
-8.548250198364258 -0.164994001388550 -0.580114006996155
-8.256250381469727 -0.436993986368179 -0.629113972187042
-8.480250358581543 0.008005999960005 -0.656114995479584
-8.096249580383301 0.188005998730659 -0.663114011287689
-7.973249912261963 0.022005900740623 -0.658113002777100
-8.303250312805176 -0.277994990348816 -0.657114028930664
-8.378250122070313 -0.124992996454239 -0.666113018989563
-7.960249900817871 -0.317993998527527 -0.662110984325409
-8.462249755859375 0.169005006551743 -0.690110981464386
-7.904250144958496 -0.154993996024132 -0.675112009048462
-8.097249984741211 -0.903994977474213 -0.655111014842987
-8.137249946594238 -0.531994998455048 -0.674112021923065
-8.069250106811523 -0.741994023323059 -0.675112009048462
-8.340250015258789 0.047005500644445 -0.720113992691040
-8.317250251770020 0.211005002260208 -0.745110988616943
-8.227250099182129 -0.067994199693203 -0.738111019134521
-8.146249771118164 -0.281994998455048 -0.735113024711609
-7.854249954223633 0.048004999756813 -0.762112975120544
-8.033249855041504 -0.428993999958038 -0.760115027427673
-8.163249969482422 0.278005987405777 -0.794111013412476
-8.141249656677246 0.065005198121071 -0.790112972259521
-8.083250045776367 -0.127994000911713 -0.784112989902496
-8.009249687194824 -0.586995005607605 -0.771112024784088
-7.921249866485596 0.371004998683929 -0.834111988544464
-8.078249931335449 0.416004985570908 -0.845113992691040
-8.042249679565430 -0.858995020389557 -0.800112009048462
-7.953249931335449 -0.238994002342224 -0.827112019062042
-7.985249996185303 -0.008994200266898 -0.837113976478577
-8.011249542236328 0.236007004976273 -0.858114004135132
-8.052249908447266 -1.025990009307861 -0.826112985610962
-7.903250217437744 -0.502994000911713 -0.855112016201019
-7.968249797821045 0.518006026744843 -0.898110985755920
-7.835249900817871 -0.141993999481201 -0.881112992763519
-7.861249923706055 0.211005002260208 -0.911112010478973
-7.813250064849854 0.454005002975464 -0.921114027500153
-7.727250099182129 0.302006989717484 -0.914113998413086
-7.785250186920166 0.045006599277258 -0.908113002777100
-7.961249828338623 -0.748993992805481 -0.886114001274109
-7.842249870300293 -0.349994003772736 -0.901112973690033
-7.685249805450440 -0.073994800448418 -0.961111009120941
-7.866250038146973 -0.621994972229004 -0.975115001201630
-7.616010189056397 0.278273999691010 -1.025490045547485
-7.890540122985840 -0.860386013984680 -0.987504005432129
-7.644249916076660 0.074005998671055 -1.027109980583191
-7.750249862670898 -0.236994996666908 -1.020110011100769
-7.798250198364258 -0.447993010282516 -1.019109964370728
-7.941249847412109 -1.019989967346191 -1.003110051155090
-7.485249996185303 0.200004994869232 -1.099110007286072
-7.392250061035156 0.624005019664764 -1.127110004425049
-7.784249782562256 -0.733995020389557 -1.083109974861145
-7.704249858856201 -0.360992997884750 -1.121109962463379
-7.410250186920166 0.348006010055542 -1.146110057830811
-7.828249931335449 -0.945994019508362 -1.107110023498535
-7.579249858856201 -0.044993501156569 -1.139109969139099
-7.746250152587891 -0.567993998527527 -1.122110009193420
-7.262249946594238 0.289005994796753 -1.160109996795654
-7.662250041961670 -0.196994006633759 -1.148110032081604
-7.246250152587891 0.506004989147186 -1.180109977722168
-7.576250076293945 -0.742992997169495 -1.140110015869141
-7.457250118255615 0.061005499213934 -1.178110003471375
-7.298250198364258 0.043005801737309 -1.182109951972961
-7.320250034332275 0.746004998683929 -1.211109995841980
-7.112249851226807 0.066006496548653 -1.203109979629517
-7.206250190734863 -0.083994999527931 -1.210109949111939
-7.721250057220459 -0.827993988990784 -1.198109984397888
-7.192249774932861 0.659004986286163 -1.253110051155090
-7.124249935150147 0.409004986286163 -1.246109962463379
-7.387249946594238 0.205006003379822 -1.249109983444214
-7.616250038146973 -0.437994986772537 -1.230110049247742
-7.031250000000000 0.242005005478859 -1.251109957695007
-7.358250141143799 0.446006000041962 -1.278110027313232
-7.574250221252441 -0.270992994308472 -1.258110046386719
-7.605249881744385 -0.599994003772736 -1.247110009193420
-7.201250076293945 0.816007018089294 -1.310109972953796
-7.642250061035156 -0.961995005607605 -1.248110055923462
-7.343249797821045 -0.081994198262691 -1.291110038757324
-7.448249816894531 0.759005010128021 -1.326110005378723
-7.061250209808350 0.554005980491638 -1.324110031127930
-7.513249874114990 -0.060994300991297 -1.309110045433044
-6.982250213623047 0.376006007194519 -1.324110031127930
-7.342249870300293 0.888005018234253 -1.353109955787659
-7.071249961853027 0.716005980968475 -1.346109986305237
-7.560249805450440 -0.788995027542114 -1.299110054969788
-7.055250167846680 0.879006028175354 -1.357110023498535
-7.393249988555908 0.063006296753883 -1.336109995841980
-7.409249782562256 0.598006010055542 -1.364109992980957
-7.434249877929688 -0.897993981838226 -1.311110019683838
-7.318250179290772 0.299005985260010 -1.357110023498535
-7.476250171661377 -0.400994002819061 -1.333109974861145
-7.467249870300293 -0.648994028568268 -1.330109953880310
-7.354249954223633 -0.754994988441467 -1.375110030174255
-7.451250076293945 -0.238994002342224 -1.419109940528870
-7.520249843597412 0.784004986286163 -1.482110023498535
-6.897250175476074 0.633005976676941 -1.469110012054443
-7.458250045776367 -0.083994999527931 -1.464110016822815
-7.281640052795410 -0.497635006904602 -1.461480021476746
-7.295249938964844 0.103004999458790 -1.487110018730164
-7.480249881744385 0.631004989147186 -1.537109971046448
-7.207570075988770 -0.641542017459869 -1.497650027275085
-7.439249992370606 0.910005986690521 -1.572110056877136
-7.318250179290772 0.342005997896194 -1.552109956741333
-6.780250072479248 0.733006000518799 -1.564110040664673
-7.357250213623047 -0.175993993878365 -1.551110029220581
-7.251249790191650 -0.306995004415512 -1.552109956741333
-7.396249771118164 0.478004992008209 -1.586109995841980
-7.373250007629395 -0.011994499713182 -1.585109949111939
-7.615250110626221 0.726005971431732 -1.620110034942627
-7.177750110626221 -0.494486987590790 -1.582960009574890
-7.094250202178955 -0.352993994951248 -1.628110051155090
-6.671249866485596 0.709006011486053 -1.680109977722168
-7.496250152587891 0.578006029129028 -1.692109942436218
-7.494249820709229 0.794004976749420 -1.702110052108765
-7.360249996185303 0.910005986690521 -1.718109965324402
-7.179249763488770 -0.226995006203651 -1.689110040664673
-7.296249866485596 -0.058993499726057 -1.716109991073608
-7.377250194549561 0.419005006551743 -1.740110039710999
-7.269249916076660 0.297006011009216 -1.736109972000122
-7.233250141143799 1.023010015487671 -1.764109969139099
-7.588250160217285 0.678005993366241 -1.808109998703003
-7.253250122070313 0.082005396485329 -1.793110013008118
-7.385250091552734 0.785005986690521 -1.845110058784485
-7.162250041961670 -0.095994099974632 -1.813109993934631
-7.035250186920166 -0.195994004607201 -1.812109947204590
-7.479249954223633 0.551005005836487 -1.871109962463379
-7.245250225067139 0.848006010055542 -1.895110011100769
-7.134250164031982 0.979007005691528 -1.918110013008118
-7.193250179290772 0.309006989002228 -1.898110032081604
-7.347249984741211 0.453005999326706 -1.922109961509705
-7.499249935150147 0.726005971431732 -1.939110040664673
-7.665249824523926 0.693005025386810 -1.960109949111939
-7.060249805450440 -0.050994001328945 -1.934110045433044
-7.224249839782715 0.054005499929190 -1.960109949111939
-7.273250102996826 0.730005979537964 -2.011110067367554
-7.130249977111816 0.192006006836891 -1.991109967231751
-7.044250011444092 1.037009954452515 -2.045109987258911
-7.548250198364258 0.607005000114441 -2.037110090255737
-7.406250000000000 0.528006017208099 -2.052109956741333
-7.239250183105469 0.431006014347076 -2.049109935760498
-7.538559913635254 0.439785003662109 -2.083080053329468
-7.127250194549561 0.763005018234253 -2.094110012054443
-7.428249835968018 0.695006012916565 -2.113110065460205
-7.120250225067139 0.039006099104881 -2.088109970092773
-7.105249881744385 0.339004993438721 -2.109110116958618
-7.035250186920166 0.890006005764008 -2.132110118865967
-7.681250095367432 0.643006026744843 -2.136110067367554
-7.487249851226807 0.563005983829498 -2.184109926223755
-7.310249805450440 0.502004981040955 -2.191109895706177
-6.973249912261963 1.026010036468506 -2.269109964370728
-7.168250083923340 0.675005972385406 -2.267110109329224
-6.909249782562256 1.170009970664978 -2.291110038757324
-7.688250064849854 0.542006015777588 -2.279109954833984
-7.017250061035156 0.732005000114441 -2.279109954833984
-7.381249904632568 0.646005988121033 -2.288110017776489
-7.016250133514404 0.074005998671055 -2.271110057830811
-7.052249908447266 0.234006002545357 -2.279109954833984
-7.171249866485596 0.464004993438721 -2.311110019683838
-6.875249862670898 -0.011994499713182 -2.295109987258911
-7.604459762573242 0.361856013536453 -2.322649955749512
-7.530250072479248 0.580006003379822 -2.339109897613525
-6.940249919891357 0.888005018234253 -2.359110116958618
-7.362249851226807 0.481005996465683 -2.373110055923462
-7.650249958038330 0.476006001234055 -2.423110008239746
-6.949250221252441 0.654006004333496 -2.427109956741333
-6.896249771118164 1.051010012626648 -2.445110082626343
-7.286250114440918 0.621004998683929 -2.437109947204590
-6.934249877929688 0.076004900038242 -2.424109935760498
-7.013249874114990 0.249005004763603 -2.436110019683838
-7.105249881744385 0.646005988121033 -2.459110021591187
-7.486249923706055 0.482005000114441 -2.475110054016113
-6.860249996185303 0.846005022525787 -2.501110076904297
-7.099249839782715 0.422006011009216 -2.490109920501709
-7.355249881744385 0.534004986286163 -2.555109977722168
-6.845250129699707 0.627004981040955 -2.563110113143921
-7.624249935150147 0.389007002115250 -2.577110052108765
-6.840250015258789 0.979007005691528 -2.596110105514526
-7.252250194549561 0.652005016803741 -2.591109991073608
-6.998250007629395 0.666005015373230 -2.599109888076782
-7.217249870300293 0.440005004405975 -2.603110074996948
-6.987249851226807 0.400005996227264 -2.607110023498535
-6.975249767303467 0.220006003975868 -2.614109992980957
-7.471250057220459 0.426005005836487 -2.652110099792481
-7.227250099182129 0.793006002902985 -2.665110111236572
-6.935249805450440 0.865006029605865 -2.689110040664673
-7.103250026702881 0.888005018234253 -2.712110042572022
-7.114250183105469 0.678005993366241 -2.719110012054443
-7.313250064849854 0.401006013154984 -2.725110054016113
-7.157249927520752 0.514006972312927 -2.732110023498535
-7.589250087738037 0.309006989002228 -2.734110116958618
-6.941249847412109 0.320006012916565 -2.739109992980957
-7.148250102996826 1.044010043144226 -2.780109882354736
-6.951250076293945 0.740006029605865 -2.787110090255737
-7.459249973297119 0.370005011558533 -2.803109884262085
-7.052249908447266 0.460005998611450 -2.848109960556030
-6.896249771118164 0.885004997253418 -2.865109920501709
-6.923250198364258 0.593005001544952 -2.855109930038452
-6.788249969482422 0.730005979537964 -2.861109972000122
-7.009250164031982 1.072010040283203 -2.888109922409058
-7.260250091552734 0.442005991935730 -2.877110004425049
-6.901249885559082 1.190009951591492 -2.901109933853149
-7.523250102996826 0.237005993723869 -2.897109985351563
-7.058249950408936 1.218009948730469 -2.960109949111939
-7.369249820709229 0.351006001234055 -2.953109979629517
-6.758250236511231 0.865006029605865 -2.965110063552856
-6.892250061035156 1.004009962081909 -2.977109909057617
-6.715250015258789 0.624005019664764 -2.961110115051270
-7.125249862670898 0.372005999088287 -2.969110012054443
-6.972249984741211 1.287999987602234 -3.076109886169434
-6.915249824523926 1.132009983062744 -3.088109970092773
-6.501249790191650 0.600004971027374 -3.077110052108765
-7.372250080108643 0.232005000114441 -3.080110073089600
-6.799250125885010 0.540005981922150 -3.083110094070435
-6.534249782562256 0.789005994796753 -3.094110012054443
-6.670249938964844 0.890006005764008 -3.107110023498535
-7.272250175476074 0.354007005691528 -3.103110074996948
-7.087250232696533 0.444005012512207 -3.109110116958618
-6.824250221252441 1.008010029792786 -3.131109952926636
-7.219250202178955 0.187004998326302 -3.114109992980957
-7.345250129699707 0.081005901098251 -3.132110118865967
-6.644249916076660 0.531005024909973 -3.139110088348389
-6.346250057220459 0.564005970954895 -3.136110067367554
-6.890250205993652 1.386010050773621 -3.182110071182251
-7.083250045776367 0.252005010843277 -3.174109935760498
-6.399250030517578 0.745005011558533 -3.191109895706177
-6.849249839782715 1.189010024070740 -3.227109909057617
-6.766250133514404 0.486007004976273 -3.231110095977783
-6.664249897003174 0.943005025386810 -3.260109901428223
-7.173250198364258 0.370005011558533 -3.249109983444214
-6.517250061035156 0.884005010128021 -3.271110057830811
-6.781250000000000 1.052010059356690 -3.286109924316406
-6.786250114440918 1.381010055541992 -3.303109884262085
-7.246250152587891 0.232005000114441 -3.283109903335571
-6.977250099182129 0.270004987716675 -3.299109935760498
-7.110249996185303 0.146006003022194 -3.307110071182251
-7.251249790191650 0.071005702018738 -3.309109926223755
-6.767250061035156 1.226009964942932 -3.379110097885132
-7.047249794006348 0.407005995512009 -3.368109941482544
-7.155250072479248 0.295006990432739 -3.400110006332398
-6.628250122070313 0.963006019592285 -3.422110080718994
-6.727250099182129 1.086009979248047 -3.451109886169434
-6.919250011444092 0.209005996584892 -3.450109958648682
-7.178249835968018 0.081005901098251 -3.468110084533691
-6.936250209808350 0.445006012916565 -3.490109920501709
-6.787250041961670 0.312005013227463 -3.519109964370728
-7.010250091552734 0.073006503283978 -3.514110088348389
-7.118249893188477 0.218005001544952 -3.536109924316406
-7.028250217437744 0.341006010770798 -3.586110115051270
-7.101250171661377 0.027005100622773 -3.656110048294067
-7.042250156402588 0.202005997300148 -3.683109998703003
-6.955249786376953 0.329005002975464 -3.743109941482544
-6.990250110626221 -0.036994099617004 -3.760109901428223
-6.837250232696533 0.423005014657974 -3.879110097885132
-6.748250007629395 0.569005012512207 -3.892110109329224
-6.949250221252441 0.169005006551743 -3.885109901428223
-6.918250083923340 -0.022994199767709 -3.909110069274902
-6.899250030517578 0.297006011009216 -3.995110034942627
-7.016250133514404 0.074005998671055 -3.994110107421875
-6.675250053405762 0.649004995822906 -4.018109798431397
-6.792250156402588 0.550005972385406 -4.060110092163086
-6.667250156402588 0.676005005836487 -4.178110122680664
