ply
format ascii 1.0
element vertex 768
property double x
property double y
property double z
end_header
-10.613300323486328 5.968999862670898 3.072890043258667
-11.148300170898437 6.235010147094727 3.214890003204346
-11.101300239562988 5.979010105133057 3.191890001296997
-11.022299766540527 6.131010055541992 3.167890071868897
-10.990300178527832 5.857999801635742 3.178889989852905
-11.130299568176270 6.381010055541992 3.142889976501465
-10.900300025939941 6.028009891510010 3.140889883041382
-10.990300178527832 5.697999954223633 3.151890039443970
-10.789299964904785 5.739999771118164 3.149889945983887
-10.978300094604492 6.280010223388672 3.124890089035034
-10.581299781799316 5.637010097503662 3.152889966964722
-10.766300201416016 5.897009849548340 3.127890110015869
-10.843299865722656 6.195010185241699 3.108890056610107
-10.636300086975098 5.802000045776367 3.107889890670776
-10.457300186157227 5.738009929656982 3.110889911651611
-11.252300262451172 6.724009990692139 3.053889989852905
-10.702300071716309 6.104010105133057 3.081890106201172
-10.449299812316895 5.563010215759277 3.095890045166016
-10.613300323486328 5.968999862670898 3.072890043258667
-11.245300292968750 6.447010040283203 3.037889957427979
-11.115300178527832 5.749010086059570 3.061889886856079
-10.458299636840820 5.923009872436523 3.055890083312988
-10.707300186157227 5.635000228881836 3.051889896392822
-10.902299880981445 5.745009899139404 3.027889966964722
-10.535300254821777 6.122000217437744 3.008889913558960
-11.063300132751465 6.406000137329102 2.973890066146851
-11.191300392150879 7.189010143280029 2.934890031814575
-11.131299972534180 6.556009769439697 2.947890043258667
-11.018300056457520 5.868010044097900 2.974889993667603
-10.362299919128418 5.665009975433350 2.988889932632446
-11.188300132751465 5.961009979248047 2.963890075683594
-10.763299942016602 6.293010234832764 2.955889940261841
-11.263299942016602 6.856009960174561 2.923890113830566
-11.233300209045410 7.036009788513184 2.916889905929565
-10.600299835205078 5.541009902954102 2.949889898300171
-11.280300140380859 6.697999954223633 2.887890100479126
-10.913299560546875 6.348010063171387 2.906889915466309
-11.279299736022949 6.520009994506836 2.890889883041382
-10.810299873352051 5.660009860992432 2.928889989852905
-10.467300415039062 5.438010215759277 2.925889968872070
-10.604299545288086 6.268000125885010 2.890889883041382
-10.488699913024902 5.863870143890381 2.907180070877075
-10.318300247192383 5.523009777069092 2.915889978408814
-11.292300224304199 6.281000137329102 2.835890054702759
-11.190299987792969 6.080999851226807 2.838890075683594
-11.075300216674805 5.954999923706055 2.841890096664429
-10.207300186157227 5.418010234832764 2.861890077590942
-10.508799552917480 5.714009761810303 2.840100049972534
-10.717300415039063 5.570010185241699 2.828890085220337
-11.182299613952637 6.407000064849854 2.787889957427979
-10.443799972534180 5.565320014953613 2.827749967575073
-10.602600097656250 5.839809894561768 2.798460006713867
-10.352299690246582 5.332009792327881 2.817889928817749
-10.910300254821777 5.719999790191650 2.786890029907227
-10.592300415039063 5.468009948730469 2.791889905929565
-10.849300384521484 6.353010177612305 2.748889923095703
-10.201299667358398 5.267000198364258 2.796890020370483
-10.689299583435059 6.322010040283203 2.727890014648438
-11.048299789428711 6.336009979248047 2.713890075683594
-11.290300369262695 6.099009990692139 2.715889930725098
-11.190299987792969 6.239999771118164 2.710890054702759
-10.618399620056152 5.699230194091797 2.723969936370850
-11.197299957275391 5.939010143280029 2.701889991760254
-10.834300041198730 5.593999862670898 2.709889888763428
-10.483300209045410 5.325009822845459 2.722889900207520
-11.036299705505371 5.741000175476074 2.691890001296997
-9.964249610900879 5.312009811401367 2.716890096664429
-10.068300247192383 5.187009811401367 2.712889909744263
-10.708999633789063 5.839439868927002 2.666280031204224
-10.651700019836426 6.171750068664551 2.651429891586304
-10.760299682617188 5.461999893188477 2.650890111923218
-10.638299942016602 5.339009761810303 2.638890027999878
-10.220299720764160 5.170000076293945 2.650890111923218
-10.473999977111816 5.460669994354248 2.635420083999634
-10.595700263977051 5.573420047760010 2.626960039138794
-10.398300170898437 5.204999923706055 2.633889913558960
-10.710499763488770 6.025090217590332 2.581710100173950
-9.940250396728516 5.076010227203369 2.630889892578125
-10.715200424194336 5.693029880523682 2.586780071258545
-11.036299705505371 6.002999782562256 2.568890094757080
-10.932299613952637 6.143000125885010 2.560889959335327
-10.586299896240234 6.316999912261963 2.556890010833740
-10.821299552917480 6.258009910583496 2.554889917373657
-9.824250221252441 5.251009941101074 2.595890045166016
-10.953300476074219 5.568009853363037 2.559890031814575
-11.133299827575684 5.751009941101074 2.544889926910400
-10.564299583435059 5.205999851226807 2.564889907836914
-10.282799720764160 5.288579940795898 2.562979936599731
-10.747799873352051 5.843589782714844 2.512140035629273
-9.886249542236328 4.932010173797607 2.560889959335327
-10.457300186157227 5.076010227203369 2.543889999389648
-10.132300376892090 5.059999942779541 2.545890092849731
-10.838299751281738 5.416009902954102 2.514889955520630
-10.794300079345703 6.120009899139404 2.479890108108521
-10.373399734497070 5.441709995269775 2.512399911880493
-10.893300056457520 5.964009761810303 2.480890035629273
-11.003299713134766 5.819009780883789 2.483890056610107
-10.294300079345703 5.072999954223633 2.521889925003052
-10.690299987792969 6.251009941101074 2.454890012741089
-9.754249572753906 5.136000156402588 2.501889944076538
-9.716250419616699 4.934999942779541 2.507889986038208
-10.127499580383301 5.210360050201416 2.490530014038086
-10.707300186157227 5.252009868621826 2.469890117645264
-11.040300369262695 5.642000198364258 2.444890022277832
-10.693300247192383 5.615819931030273 2.446500062942505
-10.180500030517578 5.366360187530518 2.457829952239990
-9.996250152587891 5.096970081329346 2.461750030517578
-10.744299888610840 5.968999862670898 2.412889957427979
-10.603300094604492 5.092010021209717 2.448889970779419
-9.771249771118164 5.328010082244873 2.443890094757080
-9.643250465393066 4.781000137329102 2.466890096664429
-10.643300056457520 6.093009948730469 2.394890069961548
-10.899299621582031 5.735010147094727 2.396889925003052
-10.022299766540527 4.939010143280029 2.439889907836914
-10.254300117492676 4.940999984741211 2.431890010833740
-9.814249992370606 4.807010173797607 2.436889886856079
-10.493300437927246 4.913000106811523 2.416889905929565
-10.562299728393555 6.263010025024414 2.357889890670776
-10.554800033569336 5.537980079650879 2.377449989318848
-9.850390434265137 4.961790084838867 2.406500101089478
-10.951299667358398 5.537010192871094 2.360889911651611
-9.590250015258789 4.577010154724121 2.414890050888062
-10.365300178527832 4.797009944915772 2.392889976501465
-9.796250343322754 5.528009891510010 2.372889995574951
-10.608300209045410 5.885000228881836 2.336889982223511
-10.251299858093262 4.664000034332275 2.389889955520630
-9.969249725341797 4.795000076293945 2.387890100479126
-10.395299911499023 5.483399868011475 2.352339982986450
-10.706299781799316 5.748000144958496 2.335890054702759
-10.893300056457520 5.388010025024414 2.342890024185181
-10.520299911499023 6.020009994506836 2.315890073776245
-10.142299652099609 4.808010101318359 2.365890026092529
-10.811300277709961 5.627999782562256 2.318890094757080
-9.867090225219727 5.118090152740479 2.343719959259033
-9.718250274658203 4.669010162353516 2.362890005111694
-10.445599555969238 6.171259880065918 2.284699916839600
-10.074299812316895 5.363599777221680 2.319289922714233
-10.784299850463867 5.275000095367432 2.310889959335327
-10.229000091552734 5.426970005035400 2.313240051269531
-9.940609931945801 5.271780014038086 2.313620090484619
-10.542300224304199 5.732009887695313 2.285890102386475
-10.670299530029297 5.144010066986084 2.302890062332153
-10.354299545288086 4.519010066986084 2.321890115737915
-10.424300193786621 5.870999813079834 2.264889955520630
-10.659299850463867 5.594999790191650 2.271889925003052
-9.554249763488770 4.433010101318359 2.329890012741089
-10.777299880981445 5.480010032653809 2.264889955520630
-10.435299873352051 4.664000034332275 2.287889957427979
-9.767609596252441 4.835020065307617 2.285909891128540
-10.347299575805664 5.715010166168213 2.240890026092529
-10.452300071716309 5.593009948730469 2.241889953613281
-9.861249923706055 4.705999851226807 2.278889894485474
-10.286299705505371 5.938010215759277 2.220890045166016
-9.729249954223633 5.103010177612305 2.260890007019043
-10.566300392150879 4.940010070800781 2.249890089035034
-10.017299652099609 4.663000106811523 2.263890027999878
-9.691550254821777 4.361420154571533 2.279469966888428
-9.642250061035156 4.565999984741211 2.264889955520630
-10.537300109863281 5.461009979248047 2.213890075683594
-10.184300422668457 4.627009868621826 2.249890089035034
-10.658300399780273 5.350999832153320 2.211889982223511
-10.307299613952637 5.523009777069092 2.207890033721924
-10.176300048828125 5.623000144958496 2.193890094757080
-9.871250152587891 5.405010223388672 2.205889940261841
-9.841250419616699 5.202010154724121 2.205889940261841
-10.487299919128418 4.805009841918945 2.209889888763428
-10.059300422668457 5.458010196685791 2.186889886856079
-10.058300018310547 5.745999813079834 2.172889947891235
-10.385299682617187 5.375010013580322 2.176889896392822
-9.960249900817871 5.603010177612305 2.168889999389648
-10.590299606323242 5.106009960174561 2.168889999389648
-10.013299942016602 5.300010204315186 2.164890050888062
-10.220299720764160 5.339009761810303 2.159889936447144
-10.514300346374512 5.247000217437744 2.156889915466309
-9.905249595642090 4.552000045776367 2.175889968872070
-10.331299781799316 4.634009838104248 2.162889957427979
-9.733839988708496 4.659850120544434 2.171309947967529
-10.331299781799316 5.212999820709229 2.123889923095703
-9.455249786376953 4.372000217437744 2.168889999389648
-10.142299652099609 5.183010101318359 2.118890047073364
-9.947250366210938 5.110010147094727 2.121890068054199
-9.801250457763672 5.030010223388672 2.126889944076538
-10.042300224304199 4.462999820709229 2.135890007019043
-10.215299606323242 4.526010036468506 2.114890098571777
-10.439299583435059 5.078010082244873 2.088890075683594
-9.749250411987305 4.495009899139404 2.112890005111694
-10.267299652099609 5.077010154724121 2.071890115737915
-10.462300300598145 4.881010055541992 2.071890115737915
-10.049200057983398 5.416240215301514 2.027719974517822
-10.409299850463867 4.728010177612305 2.048890113830566
-9.882249832153320 4.350009918212891 2.071890115737915
-9.577249526977539 4.436009883880615 2.059890031814575
-10.305299758911133 4.924009799957275 2.017889976501465
-10.157299995422363 4.367010116577148 2.036890029907227
-9.829250335693359 4.917009830474854 2.013890027999878
-9.733690261840820 4.768589973449707 2.020649909973145
-9.998250007629395 4.933010101318359 2.007889986038208
-9.358249664306641 4.288000106811523 2.039890050888062
-9.906220436096191 5.487929821014404 1.981729984283447
-9.722249984741211 4.361010074615479 2.022890090942383
-10.327300071716309 4.580999851226807 1.994889974594116
-9.145250320434570 4.049009799957275 2.029890060424805
-10.140299797058105 4.857009887695313 1.978889942169190
-9.670249938964844 4.906000137329102 1.963889956474304
-9.964249610900879 4.247000217437744 1.977890014648438
-9.792249679565430 4.193009853363037 1.975890040397644
-10.275300025939941 4.725999832153320 1.937890052795410
-10.017100334167480 4.029419898986816 1.959509968757629
-10.100000381469727 5.109610080718994 1.915120005607605
-9.921250343322754 4.793010234832764 1.928889989852905
-9.882329940795898 5.350969791412354 1.901749968528748
-9.992830276489258 5.232069969177246 1.903880000114441
-9.596249580383301 4.287010192871094 1.944890022277832
-10.265299797058105 4.455999851226807 1.912889957427979
-10.119299888610840 4.229010105133057 1.921890020370483
-10.053299903869629 4.698999881744385 1.888890027999878
-10.193300247192383 4.598010063171387 1.883890032768250
-9.435250282287598 4.234000205993652 1.899889945983887
-9.232250213623047 4.127999782562256 1.906890034675598
-9.679940223693848 4.594530105590820 1.879480004310608
-9.983519554138184 3.873650074005127 1.894109964370728
-9.895250320434570 4.107999801635742 1.877889990806580
-9.774419784545898 4.357439994812012 1.869009971618652
-10.029399871826172 4.975470066070557 1.839560031890869
-9.718250274658203 4.747000217437744 1.850890040397644
-9.935210227966309 5.107200145721436 1.824190020561218
-9.724249839782715 4.055009841918945 1.867890000343323
-9.809439659118652 5.230569839477539 1.809929966926575
-9.854249954223633 4.636000156402588 1.829890012741089
-9.072250366210938 4.023009777069092 1.865890026092529
-9.895429611206055 3.742810010910034 1.857830047607422
-10.006299972534180 4.559000015258789 1.822890043258667
-9.569250106811523 4.125010013580322 1.844889998435974
-9.602250099182129 4.415699958801270 1.824749946594238
-10.220299720764160 4.293010234832764 1.816890001296997
-10.118300437927246 4.440010070800781 1.811890006065369
-9.872670173645020 4.967879772186279 1.770699977874756
-9.574250221252441 4.729010105133057 1.756890058517456
-8.918250083923340 4.046000003814697 1.791890025138855
-9.757869720458984 5.095190048217773 1.737290024757385
-9.775250434875488 4.482999801635742 1.759889960289002
-10.055299758911133 4.285009860992432 1.757889986038208
-9.915249824523926 4.367010116577148 1.756890058517456
-9.745019912719727 4.870769977569580 1.739860057830811
-10.138299942016602 4.120999813079834 1.756890058517456
-9.355870246887207 4.252699851989746 1.758579969406128
-10.059300422668457 3.959009885787964 1.751889944076538
-9.499250411987305 3.989000082015991 1.758890032768250
-9.630249977111816 4.546000003814697 1.734889984130859
-9.753250122070313 3.838000059127808 1.750890016555786
-9.253250122070313 4.120009899139404 1.745890021324158
-9.934249877929688 4.107009887695313 1.720890045166016
-9.819250106811523 4.227000236511231 1.717890024185181
-9.458250045776367 4.829010009765625 1.695889949798584
-9.979249954223633 3.815999984741211 1.721889972686768
-9.652250289916992 4.328010082244873 1.697890043258667
-9.652250289916992 3.708009958267212 1.720890045166016
-9.866250038146973 3.943010091781616 1.698889970779419
-9.769249916076660 4.072010040283203 1.694890022277832
-9.375309944152832 3.793979883193970 1.711590051651001
-9.546230316162109 3.483230113983154 1.716300010681152
-9.859250068664551 3.683010101318359 1.702890038490295
-9.641469955444336 4.956280231475830 1.650460004806519
-9.532250404357910 3.822999954223633 1.689890027046204
-9.643250465393066 3.975009918212891 1.681890010833740
-9.491250038146973 4.572010040283203 1.660889983177185
-9.746250152587891 3.571010112762451 1.695889949798584
-9.602250099182129 4.127999782562256 1.670889973640442
-9.395790100097656 3.414249897003174 1.693429946899414
-9.197859764099121 3.787839889526367 1.677749991416931
-9.506250381469727 4.269010066986084 1.651890039443970
-9.445249557495117 4.420000076293945 1.643890023231506
-9.106249809265137 4.045000076293945 1.658890008926392
-9.424619674682617 3.574520111083984 1.666509985923767
-9.443249702453613 4.076010227203369 1.637889981269836
-9.288510322570801 3.659100055694580 1.656669974327087
-9.299249649047852 3.993010044097900 1.640890002250671
-9.261529922485352 3.332590103149414 1.652289986610413
-8.945249557495117 4.072010040283203 1.627889990806580
-9.263799667358398 3.503279924392700 1.630579948425293
-9.351249694824219 4.294010162353516 1.591889977455139
-9.469249725341797 4.700009822845459 1.568889975547791
-9.270250320434570 4.125010013580322 1.546890020370483
-9.425250053405762 4.548009872436523 1.506890058517456
-9.176250457763672 3.250010013580322 1.540889978408814
-9.145250320434570 3.438009977340698 1.528890013694763
-9.014249801635742 3.957010030746460 1.506890058517456
-9.190250396728516 3.973010063171387 1.500890016555786
-9.001489639282227 4.149469852447510 1.494400024414063
-9.126250267028809 3.608000040054321 1.492890000343323
-9.139249801635742 3.778009891510010 1.476889967918396
-8.859250068664551 4.018000125885010 1.456889986991882
-9.117400169372559 4.340600013732910 1.434450030326843
-9.357250213623047 4.388010025024414 1.415889978408814
-9.261249542236328 4.248000144958496 1.405889987945557
-9.320249557495117 4.565010070800781 1.387889981269836
-9.520330429077148 4.669000148773193 1.375679969787598
-9.052249908447266 3.226999998092651 1.425889968872070
-9.641730308532715 4.775139808654785 1.351819992065430
-8.889809608459473 4.183430194854736 1.386739969253540
-8.908249855041504 3.847009897232056 1.397889971733093
-9.197890281677246 4.462520122528076 1.364770054817200
-9.207249641418457 3.183010101318359 1.397889971733093
-9.473250389099121 4.495999813079834 1.337890028953552
-9.101249694824219 4.023009777069092 1.343889951705933
-9.059249877929688 3.680010080337524 1.350890040397644
-8.777250289916992 3.917010068893433 1.338889956474304
-9.098250389099121 3.365000009536743 1.351889967918396
-9.052249908447266 4.430009841918945 1.302889943122864
-8.895549774169922 4.328110218048096 1.303779959678650
-8.770199775695801 4.091609954833984 1.313549995422363
-9.640970230102539 4.633930206298828 1.273859977722168
-9.041250228881836 3.871999979019165 1.312890052795410
-9.220250129699707 4.127999782562256 1.293889999389648
-9.388250350952148 4.293010234832764 1.277889966964722
-9.009249687194824 3.503999948501587 1.303889989852905
-8.821249961853027 3.723010063171387 1.278890013694763
-8.961250305175781 3.306010007858276 1.292889952659607
-9.371250152587891 4.445010185241699 1.216889977455139
-9.226249694824219 3.062010049819946 1.257889986038208
-9.208250045776367 4.427999973297119 1.200889945030212
-9.162249565124512 3.208009958267212 1.236889958381653
-8.672249794006348 3.976999998092651 1.213889956474304
-8.978249549865723 3.726000070571899 1.213889956474304
-9.520250320434570 4.407000064849854 1.170889973640442
-8.675640106201172 4.137829780578613 1.192489981651306
-8.720250129699707 3.826009988784790 1.201889991760254
-9.041250228881836 3.302999973297119 1.151890039443970
-8.947250366210938 3.431010007858276 1.146890044212341
-8.732250213623047 3.664000034332275 1.139889955520630
-8.929280281066895 3.830980062484741 1.105010032653809
-9.304249763488770 4.123000144958496 1.085890054702759
-9.166250228881836 4.039000034332275 1.077890038490295
-8.886249542236328 3.605010032653809 1.098889946937561
-9.464249610900879 4.292009830474854 1.054890036582947
-9.191249847412109 4.336009979248047 1.053889989852905
-8.626250267028809 3.990000009536743 1.060889959335327
-9.051250457763672 3.926009893417358 1.052889943122864
-9.120249748229981 3.155999898910523 1.078889966011047
-9.181249618530273 3.005000114440918 1.072890043258667
-8.945249557495117 3.208009958267212 1.059890031814575
-9.291250228881836 4.252009868621826 0.954886019229889
-9.293250083923340 4.059000015258789 0.940886020660400
-8.642250061035156 3.846009969711304 0.954886019229889
-8.886249542236328 3.695009946823120 0.956888020038605
-8.972249984741211 3.829010009765625 0.949887990951538
-8.637249946594238 3.650000095367432 0.947885990142822
-9.164250373840332 3.964010000228882 0.915888011455536
-8.810250282287598 3.490000009536743 0.938887000083923
-8.775250434875488 3.316999912261963 0.943888008594513
-9.437250137329102 4.129000186920166 0.884886026382446
-9.131250381469727 4.210010051727295 0.883885979652405
-8.653249740600586 3.431010007858276 0.918886005878448
-9.062250137329102 3.138010025024414 0.919885993003845
-8.912249565124512 3.191999912261963 0.901888012886047
-9.151249885559082 3.002010107040405 0.904886007308960
-8.997249603271484 2.954010009765625 0.846888005733490
-8.835249900817871 3.625010013580322 0.821886003017426
-8.900250434875488 3.784009933471680 0.808885991573334
-8.585249900817871 3.566999912261963 0.818888008594513
-9.234250068664551 4.113009929656982 0.779886007308960
-8.714249610900879 3.964010000228882 0.788888990879059
-9.052249908447266 3.854010105133057 0.779886007308960
-9.368249893188477 4.017000198364258 0.766885995864868
-9.209250450134277 2.863009929656982 0.808885991573334
-9.217249870300293 3.927000045776367 0.762888014316559
-8.994250297546387 4.107009887695313 0.757887005805969
-8.669249534606934 3.270009994506836 0.790888011455536
-8.744250297546387 3.451009988784790 0.772885978221893
-8.847249984741211 3.999010086059570 0.704886019229889
-9.054249763488770 2.839010000228882 0.744885981082916
-8.767250061035156 3.059999942779541 0.738885998725891
-8.907250404357910 3.183010101318359 0.725884974002838
-8.701250076293945 3.821010112762451 0.691888988018036
-8.873250007629395 2.934999942779541 0.717885971069336
-9.113249778747559 4.022009849548340 0.666886985301971
-9.105250358581543 2.985009908676148 0.697885990142822
-8.769249916076660 3.579010009765625 0.668886005878448
-8.552249908447266 3.302000045776367 0.682886004447937
-8.625249862670898 3.683010101318359 0.658887982368469
-9.015250205993652 3.765010118484497 0.644887983798981
-9.310250282287598 3.924010038375855 0.633885979652405
-9.156250000000000 3.840009927749634 0.636888980865479
-8.750249862670898 3.211999893188477 0.654886007308960
-9.029250144958496 3.119009971618652 0.635885000228882
-8.826250076293945 3.864000082015991 0.602887988090515
-8.992250442504883 3.918009996414185 0.585886001586914
-8.501250267028809 3.445009946823120 0.602887988090515
-9.143250465393066 2.856009960174561 0.612887024879456
-8.720250129699707 2.905999898910523 0.608888983726501
-8.604249954223633 3.059999942779541 0.600884974002838
-8.856249809265137 3.682009935379028 0.569886982440948
-8.969249725341797 2.825010061264038 0.599886000156403
-8.581250190734863 3.576009988784790 0.548887014389038
-8.895250320434570 3.194010019302368 0.556886970996857
-8.508250236511231 3.188009977340698 0.556886970996857
-8.848890304565430 2.973520040512085 0.542388021945953
-9.107250213623047 3.784009933471680 0.485888004302979
-9.068249702453613 2.980010032653809 0.516885995864868
-8.771249771118164 3.301009893417358 0.508885979652405
-8.709250450134277 3.709009885787964 0.489885002374649
-8.722249984741211 3.453010082244873 0.498887985944748
-8.733590126037598 3.146830081939697 0.504791021347046
-9.265250205993652 3.857009887695313 0.459886997938156
-8.812250137329102 2.821010112762451 0.493887007236481
-8.623250007629395 2.927999973297119 0.483889013528824
-8.958250045776367 3.715009927749634 0.429888010025024
-8.831250190734863 3.591010093688965 0.414887994527817
-9.100250244140625 2.818010091781616 0.439886003732681
-8.981249809265137 3.076009988784790 0.416886985301971
-8.491250038146973 3.035010099411011 0.418886005878448
-8.936249732971191 2.764009952545166 0.410887002944946
-8.870249748229981 3.211999893188477 0.391885995864868
-8.739270210266113 3.020790100097656 0.401188999414444
-8.471249580383301 3.277009963989258 0.390886008739471
-8.658249855041504 3.598010063171387 0.364885002374649
-8.546250343322754 3.479010105133057 0.356885999441147
-8.708250045776367 2.811009883880615 0.365889012813568
-9.020250320434570 2.932009935379028 0.352887988090515
-9.180250167846680 3.800009965896606 0.301885992288589
-8.553250312805176 2.877010107040405 0.333887010812759
-8.402469635009766 3.130929946899414 0.326171010732651
-8.754249572753906 3.496000051498413 0.287885993719101
-8.895250320434570 3.090009927749634 0.280885994434357
-8.791250228881836 3.285010099411011 0.266885995864868
-9.030249595642090 2.772010087966919 0.276888012886047
-8.830249786376953 2.739000082015991 0.276888012886047
-8.483249664306641 3.384010076522827 0.241888001561165
-8.736980438232422 2.957210063934326 0.251996994018555
-8.405249595642090 2.978009939193726 0.248888000845909
-8.955249786376953 3.690999984741211 0.147885993123055
-8.806249618530273 3.565010070800781 0.143888995051384
-8.645250320434570 3.584009885787964 0.143888995051384
-8.677020072937012 2.837359905242920 0.161755993962288
-8.837249755859375 3.022010087966919 0.146887004375458
-8.762249946594238 3.165009975433350 0.134885996580124
-8.341250419616699 2.853009939193726 0.147885993123055
-8.396249771118164 3.302999973297119 0.124888002872467
-8.657250404357910 2.676009893417358 0.141885995864868
-8.973250389099121 2.711009979248047 0.128885000944138
-8.368249893188477 3.128999948501587 0.116888001561165
-8.468250274658203 2.708009958267212 0.128885000944138
-8.903249740600586 2.856009960174561 0.110887996852398
-8.504249572753906 3.487010002136231 0.079885601997375
-8.283249855041504 3.002010107040405 0.069887198507786
-8.683250427246094 3.295000076293945 0.048887301236391
-8.814249992370606 2.655999898910523 0.070886701345444
-8.840250015258789 3.657000064849854 0.013887500390410
-8.469169616699219 3.208309888839722 0.015474700368941
-8.741250038146973 2.999010086059570 0.015886399894953
-8.663809776306152 2.781830072402954 0.010288800112903
-8.280249595642090 2.764009952545166 0.015886399894953
-8.712249755859375 3.545000076293945 -0.026113400235772
-8.647250175476074 3.124010086059570 -0.021112399175763
-8.316249847412109 3.259999990463257 -0.025113999843597
-8.819250106811523 2.813009977340698 -0.023111300542951
-8.373959541320801 2.887809991836548 -0.019481999799609
-8.404250144958496 3.434000015258789 -0.050111699849367
-8.608249664306641 3.422009944915772 -0.059114400297403
-8.667249679565430 2.628000020980835 -0.034112900495529
-8.525250434875488 3.557009935379028 -0.076112702488899
-8.920249938964844 2.659009933471680 -0.051111098378897
-8.582249641418457 3.252010107040405 -0.098112002015114
-8.221249580383301 2.954999923706055 -0.081113703548908
-8.357250213623047 2.658010005950928 -0.080114297568798
-8.239250183105469 3.113009929656982 -0.097112603485584
-8.444709777832031 3.081049919128418 -0.100290998816490
-8.519249916076660 2.642999887466431 -0.105112001299858
-8.616250038146973 2.985009908676148 -0.123113997280598
-8.693249702453613 2.842010021209717 -0.136114001274109
-8.642250061035156 3.604010105133057 -0.177113994956017
-8.192250251770020 2.735009908676148 -0.138113006949425
-8.785249710083008 2.689009904861450 -0.154111996293068
-8.556249618530273 3.465009927749634 -0.205114006996155
-8.404840469360352 2.864710092544556 -0.181382998824120
-8.762249946594238 2.501009941101074 -0.187113001942635
-8.511249542236328 3.173010110855103 -0.218110993504524
-8.240249633789063 3.266999959945679 -0.219114005565643
-8.417249679565430 2.581000089645386 -0.216112002730370
-8.162249565124512 3.009010076522827 -0.232115000486374
-8.240249633789063 2.593009948730469 -0.224111005663872
-8.333749771118164 2.721899986267090 -0.234843999147415
-8.548250198364258 2.905999898910523 -0.251112014055252
-8.611249923706055 2.759999990463257 -0.254114001989365
-8.420249938964844 3.503000020980835 -0.283113002777100
-8.554249763488770 2.482009887695313 -0.249112993478775
-8.669249534606934 2.601999998092651 -0.276113003492355
-8.427249908447266 3.296000003814697 -0.304113000631332
-8.535249710083008 3.610009908676148 -0.330114006996155
-8.439249992370606 3.050009965896606 -0.322111010551453
-8.689249992370606 2.408010005950928 -0.305112987756729
-8.116250038146973 2.653009891510010 -0.309114009141922
-8.104249954223633 2.878999948501587 -0.319112986326218
-8.135250091552734 3.217010021209717 -0.348111987113953
-8.334250450134277 2.493010044097900 -0.326112985610962
-8.475250244140625 2.805010080337524 -0.350115001201630
-8.531250000000000 2.653009891510010 -0.349110990762711
-8.341250419616699 3.154010057449341 -0.401113003492355
-8.266249656677246 3.308010101318359 -0.418112009763718
-8.157250404357910 2.496000051498413 -0.387113004922867
-8.564249992370606 2.352010011672974 -0.388112992048264
-8.029250144958496 3.114000082015991 -0.415113002061844
-8.485250473022461 2.496999979019165 -0.411112010478973
-8.317250251770020 2.937010049819946 -0.436112999916077
-7.993249893188477 2.633009910583496 -0.422113001346588
-8.396249771118164 2.648010015487671 -0.433111011981964
-8.486249923706055 2.209009885787964 -0.420114010572433
-8.013250350952148 2.851000070571899 -0.455114006996155
-8.222249984741211 3.072010040283203 -0.484113991260529
-8.397250175476074 2.353009939193726 -0.465113013982773
-8.268250465393066 2.747999906539917 -0.493111997842789
-7.968249797821045 2.487010002136231 -0.484113991260529
-8.137249946594238 3.206000089645386 -0.528111994266510
-7.918250083923340 3.065010070800781 -0.520112991333008
-8.178250312805176 2.897010087966919 -0.523110985755920
-8.094249725341797 2.367010116577148 -0.505114018917084
-8.379249572753906 2.061009883880615 -0.500111997127533
-8.268250465393066 2.463000059127808 -0.517114996910095
-8.077249526977539 3.023010015487671 -0.562112987041473
-8.248250007629395 2.301009893417358 -0.537110984325409
-7.869249820709229 2.634010076522827 -0.548112988471985
-8.144249916076660 2.638010025024414 -0.554112970829010
-8.259249687194824 1.984009981155396 -0.579110980033875
-7.903250217437744 2.273010015487671 -0.587113976478577
-7.912250041961670 2.880000114440918 -0.655111014842987
-7.917250156402588 3.206000089645386 -0.668111979961395
-7.952250003814697 2.710010051727295 -0.661112010478973
-7.873250007629395 3.036010026931763 -0.680113017559052
-7.727250099182129 2.647010087966919 -0.665112972259521
-7.973249912261963 2.396009922027588 -0.660112023353577
-8.148249626159668 2.069000005722046 -0.656114995479584
-8.076250076293945 2.226010084152222 -0.666113018989563
-8.093139648437500 2.958559989929199 -0.712173998355865
-7.822249889373779 2.151010036468506 -0.689112007617950
-8.035249710083008 1.932010054588318 -0.697111010551453
-7.800250053405762 2.446010112762451 -0.734113991260529
-7.779250144958496 2.907000064849854 -0.759110987186432
-7.639249801635742 2.447010040283203 -0.741114020347595
-7.972249984741211 2.116009950637817 -0.734113991260529
-7.870250225067139 2.302010059356690 -0.744112014770508
-7.790249824523926 3.186009883880615 -0.796114027500153
-7.931250095367432 1.811010003089905 -0.745110988616943
-7.855249881744385 2.644010066986084 -0.780111014842987
-7.622250080108643 2.639009952545166 -0.790112972259521
-8.013939857482910 2.865010023117065 -0.824570000171661
-7.783249855041504 1.699010014533997 -0.799112021923065
-7.749249935150147 2.212009906768799 -0.825112998485565
-7.769249916076660 2.054009914398193 -0.825112998485565
-7.613249778747559 1.699010014533997 -0.817113995552063
-7.480249881744385 2.585010051727295 -0.850115001201630
-7.749249935150147 2.738009929656982 -0.867112994194031
-7.482250213623047 1.793009996414185 -0.831113994121552
-7.530250072479248 2.374010086059570 -0.867112994194031
-7.572249889373779 1.961009979248047 -0.857114970684052
-7.732250213623047 3.076009988784790 -0.911112010478973
-7.738249778747559 2.471009969711304 -0.892114996910095
-7.721250057220459 1.848009943962097 -0.870110988616943
-7.669250011444092 2.314009904861450 -0.919111013412476
-7.509250164031982 1.569000005722046 -0.889111995697021
-7.949890136718750 2.768620014190674 -0.943184018135071
-7.682250022888184 2.890010118484497 -0.949114024639130
-7.342249870300293 1.877009987831116 -0.905111014842987
-7.715250015258789 1.588009953498840 -0.908113002777100
-7.653250217437744 2.073009967803955 -0.940110981464386
-7.705249786376953 2.604010105133057 -0.974111020565033
-7.519249916076660 2.503999948501587 -0.988111019134521
-7.463250160217285 2.016010046005249 -0.968110978603363
-7.610249996185303 2.747999906539917 -1.009109973907471
-7.663249969482422 1.728010058403015 -0.970113992691040
-7.421249866485596 1.443009972572327 -0.976113975048065
-7.609250068664551 1.486009955406189 -1.006109952926636
-7.688250064849854 2.458009958267212 -1.053110003471375
-7.597249984741211 2.206010103225708 -1.044109940528870
-7.900469779968262 2.669480085372925 -1.067810058593750
-7.228250026702881 1.938009977340698 -1.029109954833984
-7.632249832153320 1.866009950637817 -1.049110054969788
-7.472249984741211 2.376009941101074 -1.070109963417053
-7.591249942779541 2.936009883880615 -1.113109946250916
-7.703249931335449 1.604009985923767 -1.081110000610352
-7.387249946594238 1.299010038375855 -1.075109958648682
-7.564249992370606 2.037009954452515 -1.110110044479370
-7.355249881744385 2.034009933471680 -1.111109972000122
-7.520249843597412 1.388010025024414 -1.098109960556030
-7.569250106811523 2.582010030746460 -1.148110032081604
-7.604249954223633 2.374010086059570 -1.159109950065613
-7.777820110321045 2.414469957351685 -1.187360048294067
-7.864669799804688 2.567790031433106 -1.198029994964600
-7.511250019073486 2.196010112762451 -1.183109998703003
-7.620250225067139 1.725010037422180 -1.173110008239746
-7.730249881744385 1.491009950637817 -1.191110014915466
-7.430250167846680 2.641010046005249 -1.234109997749329
-7.539249897003174 1.870010018348694 -1.213109970092773
-7.224249839782715 2.030999898910523 -1.226109981536865
-7.457250118255615 2.043009996414185 -1.239109992980957
-7.499249935150147 2.494009971618652 -1.261109948158264
-7.667870044708252 2.178760051727295 -1.283149957656860
-7.475249767303467 1.259009957313538 -1.267109990119934
-7.523250102996826 2.328010082244873 -1.317109942436218
-7.755169868469238 2.310309886932373 -1.322980046272278
-7.839300155639648 2.464139938354492 -1.332520008087158
-7.338250160217285 2.572999954223633 -1.348109960556030
-7.610249996185303 1.359009981155396 -1.305109977722168
-7.641250133514404 1.604009985923767 -1.321110010147095
-7.212250232696533 2.667010068893433 -1.374109983444214
-7.455249786376953 1.860010027885437 -1.348109960556030
-7.387249946594238 2.125010013580322 -1.366109967231751
-7.402249813079834 2.429009914398193 -1.379109978675842
-7.600749969482422 1.922410011291504 -1.362920045852661
-7.751249790191650 1.449010014533997 -1.359109997749329
-7.399250030517578 1.149000048637390 -1.361109972000122
-7.665060043334961 2.060029983520508 -1.441409945487976
-7.740570068359375 2.204639911651611 -1.461899995803833
-7.820499897003174 2.359250068664551 -1.469730019569397
-7.158249855041504 2.534009933471680 -1.467110037803650
-7.245250225067139 2.398999929428101 -1.472110033035278
-7.353250026702881 1.949010014533997 -1.472110033035278
-7.523250102996826 1.684010028839111 -1.470110058784485
-7.422249794006348 2.233010053634644 -1.490110039710999
-7.637249946594238 1.547009944915772 -1.475110054016113
-7.402249813079834 1.793009996414185 -1.494109988212585
-7.727250099182129 1.422999978065491 -1.519109964370728
-7.472249984741211 1.252009987831116 -1.512109994888306
-7.397250175476074 1.074010014533997 -1.507109999656677
-7.671400070190430 1.961269974708557 -1.574440002441406
-7.296249866485596 2.293009996414185 -1.583109974861145
-7.731910228729248 2.108690023422241 -1.588780045509338
-7.138249874114990 2.417010068893433 -1.595110058784485
-7.590250015258789 1.348009943962097 -1.563109993934631
-7.804639816284180 2.253819942474365 -1.608129978179932
-7.331250190734863 2.141999959945679 -1.619109988212585
-7.472249984741211 1.634009957313538 -1.613109946250916
-7.308249950408936 1.779010057449341 -1.629109978675842
-7.328249931335449 1.177010059356690 -1.609109997749329
-7.598249912261963 1.537009954452515 -1.659109950065613
-7.674190044403076 1.828019976615906 -1.677350044250488
-7.189249992370606 2.259999990463257 -1.698109984397888
-7.445250034332275 1.312000036239624 -1.671110033988953
-7.724659919738770 2.001640081405640 -1.730720043182373
-7.788710117340088 2.148390054702759 -1.746510028839111
-7.178249835968018 1.172009944915772 -1.729110002517700
-7.368249893188477 1.675009965896606 -1.756109952926636
-7.561250209808350 1.390009999275208 -1.748110055923462
-7.265250205993652 2.118010044097900 -1.776110053062439
-7.299250125885010 1.327010035514832 -1.774109959602356
-7.694250106811523 1.474009990692139 -1.792109966278076
-7.702620029449463 1.735960006713867 -1.804960012435913
-7.591249942779541 1.602010011672974 -1.845110058784485
-7.093249797821045 1.302010059356690 -1.837110042572022
-7.122250080108643 2.151010036468506 -1.876109957695007
-7.443250179290772 1.426010012626648 -1.853109955787659
-7.769830226898193 2.043529987335205 -1.883679986000061
-7.236249923706055 1.750010013580322 -1.865110039710999
-7.079249858856201 1.139009952545166 -1.861109972000122
-7.186250209808350 2.007009983062744 -1.900110006332398
-7.211249828338623 1.395009994506836 -1.891109943389893
-7.442249774932861 1.682010054588318 -1.919109940528870
-7.728250026702881 1.562000036239624 -1.941110014915466
-7.709479808807373 1.796749949455261 -1.951740026473999
-7.537250041961670 1.507009983062744 -1.961109995841980
-6.990250110626221 1.367009997367859 -1.954110026359558
-7.589250087738037 1.684010028839111 -1.981109976768494
-7.161250114440918 1.809010028839111 -1.995110034942627
-7.745679855346680 1.939650058746338 -2.018680095672607
-7.367249965667725 1.512009978294373 -2.001110076904297
-7.344250202178955 1.756010055541992 -2.031110048294067
-7.128250122070313 1.961009979248047 -2.048110008239746
-7.758250236511231 1.677010059356690 -2.050110101699829
-6.984250068664551 1.189010024070740 -2.019109964370728
-7.209249973297119 1.521010041236877 -2.044110059738159
-7.047249794006348 1.499009966850281 -2.071110010147095
-7.475249767303467 1.605010032653809 -2.083110094070435
-6.769249916076660 1.410009980201721 -2.119110107421875
-7.715209960937500 1.836949944496155 -2.151079893112183
-7.160250186920166 1.638010025024414 -2.142110109329224
-6.882249832153320 1.262009978294373 -2.129110097885132
-7.243249893188477 1.800009965896606 -2.158109903335571
-7.482250213623047 1.778010010719299 -2.165110111236572
-7.330249786376953 1.652009963989258 -2.159110069274902
-7.633250236511231 1.693009972572327 -2.168109893798828
-6.897250175476074 1.509999990463257 -2.160109996795654
-7.348249912261963 1.797999978065491 -2.277110099792481
-7.606249809265137 1.797999978065491 -2.286109924316406
-6.954249858856201 1.610010027885437 -2.276109933853149
-7.747250080108643 1.880010008811951 -2.306109905242920
-6.670249938964844 1.494009971618652 -2.276109933853149
-6.734250068664551 1.310009956359863 -2.278110027313232
-6.795249938964844 1.559010028839111 -2.355109930038452
-7.457250118255615 1.850010037422180 -2.415110111236572
-6.809249877929688 1.227010011672974 -2.401109933853149
-7.242249965667725 1.783010005950928 -2.430109977722168
-6.498250007629395 1.461009979248047 -2.409110069274902
-6.639249801635742 1.539010047912598 -2.434109926223755
-7.590250015258789 1.946009993553162 -2.466109991073608
-6.636250019073486 1.327010035514832 -2.432110071182251
-6.784249782562256 1.582010030746460 -2.515110015869141
-7.357250213623047 1.825009942054749 -2.556109905242920
-7.492249965667725 1.907009959220886 -2.589109897613525
-6.712250232696533 1.265009999275208 -2.561110019683838
-6.818250179290772 1.141010046005249 -2.559109926223755
-6.471250057220459 1.524000048637390 -2.576109886169434
-6.579249858856201 1.362010002136231 -2.576109886169434
-7.612249851226807 1.994009971618652 -2.663110017776489
-7.248250007629395 1.810009956359863 -2.675110101699829
-6.754250049591065 1.570009946823120 -2.679110050201416
-7.457250118255615 1.974009990692139 -2.731110095977783
-6.593249797821045 1.545009970664978 -2.701109886169434
-6.643249988555908 1.284010052680969 -2.707109928131104
-6.744249820709229 1.161010026931763 -2.738110065460205
-6.512249946594238 1.381010055541992 -2.759109973907471
-7.351250171661377 1.844009995460510 -2.808109998703003
-6.835249900817871 1.029010057449341 -2.792109966278076
-7.562250137329102 1.929010033607483 -2.844110012054443
-6.696249961853027 1.551010012626648 -2.827110052108765
-6.600249767303467 1.289010047912598 -2.862109899520874
-7.232250213623047 1.784010052680969 -2.919110059738159
-6.569250106811523 1.498010039329529 -2.908109903335571
-7.432250022888184 1.863010048866272 -2.970109939575195
-6.737249851226807 1.226009964942932 -2.943109989166260
-6.767250061035156 1.526010036468506 -2.969110012054443
-6.506249904632568 1.343009948730469 -2.986109972000122
-7.553249835968018 1.759009957313538 -3.020109891891480
-7.115250110626221 1.792009949684143 -3.033109903335571
-7.403250217437744 1.689010024070740 -3.036109924316406
-6.821249961853027 1.345010042190552 -3.020109891891480
-6.650249958038330 1.393010020256043 -3.032109975814819
-7.275249958038330 1.787009954452515 -3.078109979629517
-6.991250038146973 1.653010010719299 -3.088109970092773
-6.810249805450440 1.723009943962097 -3.091109991073608
-7.527249813079834 1.622009992599487 -3.111109972000122
-7.208250045776367 1.632009983062744 -3.108109951019287
-6.839250087738037 1.566009998321533 -3.111109972000122
-7.353250026702881 1.615010023117065 -3.171109914779663
-7.442249774932861 1.483010053634644 -3.178109884262085
-7.070250034332275 1.619009971618652 -3.230109930038452
-6.901249885559082 1.631010055541992 -3.242110013961792
-7.292250156402588 1.484009981155396 -3.247109889984131
-7.378250122070313 1.296010017395020 -3.298110008239746
-6.760250091552734 1.648010015487671 -3.325109958648682
-7.149250030517578 1.512009978294373 -3.326109886169434
-6.980249881744385 1.526010036468506 -3.333110094070435
-7.243249893188477 1.375010013580322 -3.356110095977783
-7.294250011444092 1.198009967803955 -3.412110090255737
-6.848249912261963 1.512009978294373 -3.426110029220581
-7.065249919891357 1.452010035514832 -3.467109918594360
-7.171249866485596 1.281000018119812 -3.492110013961792
-6.987249851226807 1.280009984970093 -3.491110086441040
-7.205249786376953 1.085010051727295 -3.507110118865967
-6.849249839782715 1.280009984970093 -3.573110103607178
-6.942249774932861 1.140009999275208 -3.597110033035278
-6.955249786376953 1.453009963035584 -3.613110065460205
-7.104249954223633 1.165009975433350 -3.619110107421875
-6.709249973297119 1.217010021209717 -3.627110004425049
-7.045249938964844 1.322010040283203 -3.639110088348389
-6.644249916076660 1.072010040283203 -3.626110076904297
-7.086249828338623 0.996004998683929 -3.643110036849976
-6.822249889373779 1.074010014533997 -3.693109989166260
-7.009250164031982 1.196009993553162 -3.745110034942627
-6.961249828338623 1.033010005950928 -3.764110088348389
-6.914249897003174 1.352010011672974 -3.779109954833984
-6.731249809265137 0.985005021095276 -3.788110017776489
-6.580249786376953 1.046010017395020 -3.793109893798828
-6.913249969482422 1.218009948730469 -3.890110015869141
-6.855249881744385 1.022009968757629 -3.886110067367554
-6.783249855041504 0.855005979537964 -3.887109994888306
-6.547249794006348 0.878005027770996 -3.899110078811646
-6.827250003814697 1.179999947547913 -4.018109798431397
-6.639249801635742 0.876006007194519 -4.032110214233398
-6.755249977111816 1.042009949684143 -4.071109771728516
