ply
format ascii 1.0
element vertex 274
property double x
property double y
property double z
end_header
164.438995361328120 614.669982910156250 -231.074996948242190
158.360000610351560 610.651977539062500 -227.214004516601560
174.634994506835940 609.793029785156250 -226.186004638671870
136.384002685546870 612.317993164062500 -231.410003662109370
130.416000366210940 624.213989257812500 -197.529998779296870
152.537994384765620 622.823974609375000 -195.208999633789060
164.438995361328120 614.669982910156250 -231.074996948242190
152.404998779296870 615.895019531250000 -231.960006713867190
122.447998046875000 618.418029785156250 -235.201004028320310
150.587005615234370 621.166015625000000 -208.923004150390620
114.197998046875000 619.471984863281250 -234.417007446289060
144.647003173828120 624.797973632812500 -196.791000366210940
96.319198608398438 622.096984863281250 -233.832992553710940
122.515998840332030 624.296997070312500 -211.218994140625000
186.225997924804690 610.028991699218750 -254.805999755859370
166.440002441406250 620.551025390625000 -211.134002685546870
160.257003784179690 623.749023437500000 -198.095001220703120
138.348999023437500 623.372009277343750 -210.597000122070310
140.369003295898440 618.492004394531250 -235.218002319335940
130.348007202148440 619.479980468750000 -236.557006835937500
176.373001098632810 616.468994140625000 -231.363998413085940
178.516006469726560 612.530029296875000 -256.289001464843750
130.391006469726560 625.784973144531250 -212.391006469726560
158.289001464843750 623.443969726562500 -212.494995117187500
194.404998779296870 612.195983886718750 -253.692993164062500
184.522994995117190 617.856994628906250 -229.945007324218750
178.343002319335940 622.401977539062500 -211.421005249023440
186.429992675781250 622.130004882812500 -209.684997558593750
148.380004882812500 621.059020996093750 -236.791000366210940
146.440002441406250 626.443969726562500 -213.296997070312500
204.251998901367190 612.572998046875000 -257.873992919921870
192.684997558593750 619.598999023437500 -227.988006591796870
150.438003540039060 628.888000488281250 -200.692993164062500
134.408004760742190 630.280029296875000 -201.531997680664060
102.318000793457030 625.916992187500000 -238.003005981445310
122.232002258300780 631.828979492187500 -200.339004516601560
102.234001159667970 631.806030273437500 -210.320007324218750
156.360992431640620 621.719970703125000 -237.932006835937500
166.382995605468750 621.421997070312500 -238.113006591796870
110.345001220703120 632.007995605468750 -211.841995239257810
116.414001464843750 626.161010742187500 -239.645004272460940
98.526298522949219 636.361022949218750 -197.442993164062500
90.190803527832031 629.963012695312500 -233.869995117187500
168.537994384765620 618.927001953125000 -254.123992919921870
174.423004150390620 621.734008789062500 -237.942001342773440
200.490005493164060 621.934020996093750 -225.714004516601560
136.421997070312500 624.655029296875000 -241.136993408203120
114.573997497558590 634.857971191406250 -200.710006713867190
186.406997680664060 624.176025390625000 -223.697998046875000
126.444999694824220 626.275024414062500 -241.529006958007810
154.807006835937500 626.648010253906250 -227.671997070312500
194.235000610351560 626.861999511718750 -211.160995483398440
134.347000122070310 631.351989746093750 -216.604995727539060
184.414993286132810 620.182006835937500 -251.632003784179690
174.412994384765620 621.708984375000000 -249.324005126953120
212.324005126953120 616.380981445312500 -259.651000976562500
156.332992553710940 629.835998535156250 -217.925994873046870
208.462997436523440 623.966979980468750 -225.671005249023440
192.421005249023440 620.213989257812500 -251.770004272460940
186.449996948242190 628.007995605468750 -215.725006103515620
144.427993774414060 626.252014160156250 -243.567993164062500
172.434005737304690 628.979980468750000 -218.930999755859380
164.412002563476560 630.122985839843750 -219.662994384765620
104.067001342773440 639.547973632812500 -202.378997802734370
98.466903686523438 632.267028808593750 -241.514007568359370
146.464004516601560 632.643005371093750 -219.289993286132810
90.806900024414063 642.640014648437500 -195.255996704101560
184.412002563476560 624.736999511718750 -243.591003417968750
108.432998657226560 632.168029785156250 -241.992996215820310
200.432998657226560 622.080017089843750 -251.261001586914060
194.666000366210940 625.294006347656250 -238.029998779296870
120.509002685546870 636.383972167968750 -217.382003784179690
90.930702209472656 640.713012695312500 -209.104995727539060
218.225006103515620 620.559997558593750 -256.013000488281250
224.425003051757810 625.976013183593750 -227.774002075195310
120.363998413085940 639.757995605468750 -205.972000122070310
88.564399719238281 636.400024414062500 -239.401000976562500
182.526000976562500 631.492980957031250 -222.035995483398440
204.177993774414060 626.981018066406250 -235.350006103515620
222.462005615234370 620.013000488281250 -263.615997314453120
138.421997070312500 636.262023925781250 -221.527999877929690
112.433998107910160 641.809997558593750 -205.958999633789060
210.466003417968750 624.047973632812500 -251.335998535156250
96.473503112792969 644.245971679687500 -201.552993774414060
98.333198547363281 642.072998046875000 -215.764999389648440
130.380004882812500 638.005004882812500 -221.824996948242190
192.313003540039060 632.591979980468750 -221.406997680664060
114.502998352050780 636.408020019531250 -237.781997680664060
242.582992553710940 626.431030273437500 -231.134002685546870
110.610000610351560 641.091979980468750 -218.783996582031250
200.526000976562500 633.205993652343750 -218.197006225585940
218.345993041992190 628.591003417968750 -233.365005493164060
80.628402709960937 640.448974609375000 -237.458999633789060
230.391006469726560 622.252014160156250 -261.670989990234370
204.483001708984370 627.804992675781250 -247.246994018554690
87.109298706054687 649.046997070312500 -199.031997680664060
82.380302429199219 648.132995605468750 -207.658004760742190
226.656005859375000 625.763000488281250 -255.113006591796870
234.470993041992190 629.869018554687500 -231.917999267578130
218.554992675781250 627.898986816406250 -251.179000854492190
120.225997924804690 641.817016601562500 -225.740997314453120
106.575996398925780 646.653015136718750 -209.085006713867190
214.337997436523440 630.544006347656250 -243.641006469726560
99.788696289062500 641.572998046875000 -241.270996093750000
216.401000976562500 635.403015136718750 -220.149002075195310
88.403999328613281 642.148010253906250 -245.643005371093750
240.520996093750000 625.612976074218750 -261.247985839843750
89.072601318359375 648.869995117187500 -214.722000122070310
74.521797180175781 646.244018554687500 -235.593994140625000
222.339996337890620 632.422973632812500 -239.574996948242190
224.393997192382810 636.796020507812500 -221.128005981445310
100.386001586914060 648.124023437500000 -221.686996459960940
78.333000183105469 646.080017089843750 -243.677001953125000
232.682006835937500 631.575012207031250 -252.733993530273440
80.041900634765625 655.828979492187500 -199.940002441406250
224.503005981445310 633.916015625000000 -247.617996215820310
240.684005737304690 631.388000488281250 -254.789993286132810
100.434997558593750 652.206970214843750 -213.615005493164060
250.414993286132810 630.187988281250000 -257.636993408203120
110.586997985839840 648.502014160156250 -229.276992797851560
88.910400390625000 655.039978027343750 -206.949996948242190
232.363998413085940 639.598022460937500 -224.147994995117190
236.393005371093750 636.263000488281250 -239.589004516601560
93.127700805664063 648.765014648437500 -241.899993896484370
246.330001831054690 636.614990234375000 -237.113006591796870
254.397994995117190 636.271972656250000 -235.511993408203120
70.530296325683594 652.306030273437500 -239.591995239257810
90.454597473144531 654.236022949218750 -221.567001342773440
73.806198120117187 661.827026367187500 -197.824996948242190
96.194503784179688 653.807983398437500 -228.130004882812500
236.807998657226560 637.294982910156250 -248.837997436523440
260.424987792968750 633.999023437500000 -255.160995483398440
82.243103027343750 657.836975097656250 -219.960006713867190
87.925498962402344 659.364990234375000 -213.847000122070310
80.814102172851562 661.008972167968750 -209.039001464843750
80.188598632812500 653.656005859375000 -247.302001953125000
242.544006347656250 639.861999511718750 -243.727996826171870
246.376007080078120 638.268981933593750 -251.781997680664060
86.384498596191406 658.098022460937500 -227.720993041992190
84.613098144531250 656.507995605468750 -239.815002441406250
268.352996826171870 638.138977050781250 -254.091995239257810
254.324005126953120 642.523986816406250 -241.285003662109370
68.134498596191406 657.656982421875000 -249.815994262695310
254.296997070312500 640.495971679687500 -252.391998291015630
266.614013671875000 643.596008300781250 -238.473999023437500
66.089302062988281 669.715026855468750 -197.781997680664060
76.334396362304687 660.067016601562500 -241.544998168945310
60.796298980712891 661.051025390625000 -252.996002197265620
78.649696350097656 664.854003906250000 -228.958999633789060
70.645301818847656 670.400024414062500 -209.548995971679690
260.454010009765620 646.122985839843750 -251.498992919921870
74.601898193359375 666.369018554687500 -235.860000610351560
74.445396423339844 670.234008789062500 -217.587997436523440
274.406005859375000 647.976989746093750 -240.123992919921870
278.106994628906250 644.492004394531250 -258.242004394531250
264.673004150390620 649.510986328125000 -244.236999511718750
56.362899780273438 675.992004394531250 -207.701995849609370
268.527008056640620 648.046997070312500 -253.248001098632810
48.259700775146484 677.588012695312500 -207.919998168945310
66.985801696777344 674.937988281250000 -215.285003662109370
69.598503112792969 667.895996093750000 -249.421997070312500
44.816200256347656 670.364013671875000 -257.269012451171870
68.791198730468750 672.489013671875000 -235.966003417968750
68.750000000000000 674.583007812500000 -225.845993041992190
284.390014648437500 650.213012695312500 -257.695007324218750
270.667999267578120 653.791015625000000 -247.675003051757810
280.359008789062500 654.018005371093750 -242.335006713867190
64.013900756835938 675.463989257812500 -241.796997070312500
276.419006347656250 654.171020507812500 -253.617004394531250
62.375701904296875 674.007995605468750 -251.589996337890630
41.010200500488281 682.416992187500000 -221.108001708984370
48.650398254394531 681.054992675781250 -224.770004272460940
50.775199890136719 682.892028808593750 -214.824996948242190
43.162399291992187 684.573974609375000 -210.990005493164060
56.503799438476562 680.317016601562500 -227.511001586914060
54.623798370361328 674.827026367187500 -255.867996215820310
58.805000305175781 682.640991210937500 -219.216995239257810
36.869800567626953 678.385009765625000 -251.182006835937500
56.913398742675781 678.757995605468750 -246.059997558593750
44.549400329589844 678.322998046875000 -255.830993652343750
290.290985107421870 656.375000000000000 -256.221984863281250
293.940002441406250 658.590026855468750 -246.554992675781250
64.277603149414063 681.846008300781250 -234.212997436523440
286.414001464843750 660.072021484375000 -244.100006103515620
282.572998046875000 659.898986816406250 -253.070007324218750
48.482498168945313 682.242980957031250 -249.712005615234370
39.498699188232422 691.801025390625000 -208.154998779296870
52.911998748779297 686.950012207031250 -232.813003540039060
46.921199798583984 690.591003417968750 -219.167999267578130
38.619701385498047 684.260986328125000 -257.527008056640620
43.604099273681641 689.820983886718750 -228.266006469726560
58.178699493408203 689.726013183593750 -224.417007446289060
294.480987548828120 664.143005371093750 -255.371994018554690
292.283996582031250 666.445983886718750 -247.248001098632810
302.414001464843750 664.176025390625000 -257.627990722656250
36.408599853515625 696.171997070312500 -217.626998901367190
40.330799102783203 692.060974121093750 -239.317001342773440
47.079799652099609 690.713989257812500 -244.373001098632810
36.449600219726563 690.205993652343750 -251.694000244140620
38.883701324462891 696.388000488281250 -225.360992431640620
46.749401092529297 694.648010253906250 -235.037002563476560
54.335498809814453 693.992980957031250 -237.878997802734370
304.334014892578120 672.140014648437500 -248.080993652343750
307.867004394531250 670.408996582031250 -260.433990478515620
300.250000000000000 672.249023437500000 -255.953994750976560
37.363998413085938 704.559997558593750 -213.343994140625000
38.596401214599609 698.296997070312500 -247.880996704101560
44.503200531005859 700.229003906250000 -241.716995239257810
32.120700836181641 702.169982910156250 -243.104003906250000
38.699600219726563 706.439025878906250 -221.511993408203120
36.302898406982422 706.119018554687500 -229.692993164062500
27.816600799560547 702.140991210937500 -254.953994750976560
32.294399261474609 711.999023437500000 -217.697998046875000
37.883399963378906 707.609985351562500 -238.324005126953120
26.234699249267578 711.721984863281250 -223.854003906250000
22.481700897216797 713.648010253906250 -216.201995849609370
316.470001220703120 680.413024902343750 -251.039001464843750
32.857101440429687 706.372985839843750 -249.985000610351560
22.652700424194336 706.182983398437500 -261.763000488281250
309.091003417968750 681.580993652343750 -256.975006103515620
314.587005615234370 680.004028320312500 -263.423004150390620
35.094200134277344 712.924011230468750 -225.434997558593750
16.483499526977539 715.901000976562500 -229.906997680664060
27.407199859619141 710.369018554687500 -254.589996337890630
36.174999237060547 712.114013671875000 -245.240997314453120
16.589000701904297 720.413024902343750 -223.203994750976560
26.426900863647461 718.195007324218750 -235.610000610351560
29.598300933837891 719.405029296875000 -228.279006958007810
29.660100936889648 715.859985351562500 -249.076004028320310
318.691986083984370 689.921020507812500 -259.531005859375000
16.285299301147461 721.934997558593750 -235.916000366210940
10.557999610900879 726.168029785156250 -221.473999023437500
22.300600051879883 723.906005859375000 -227.983993530273440
24.694799423217773 718.252014160156250 -255.776000976562500
30.480499267578125 722.310974121093750 -243.354003906250000
30.350599288940430 726.117980957031250 -233.776000976562500
21.568899154663086 722.088012695312500 -263.433990478515620
16.531799316406250 730.169006347656250 -227.505004882812500
21.653999328613281 725.875000000000000 -255.445999145507810
24.294000625610352 728.002990722656250 -243.936996459960940
10.870900154113770 732.057006835937500 -233.179992675781250
17.237499237060547 730.354980468750000 -240.852996826171870
326.023010253906250 698.528991699218750 -263.475006103515620
22.875999450683594 734.625000000000000 -234.871994018554690
15.735400199890137 738.132019042968750 -226.141998291015620
26.301700592041016 732.145019531250000 -257.682006835937500
14.319600105285645 738.158020019531250 -237.673995971679690
24.388099670410156 736.145019531250000 -247.697998046875000
18.163000106811523 736.096984863281250 -253.417999267578120
334.588989257812500 708.028991699218750 -261.872009277343750
16.837400436401367 742.455017089843750 -246.966003417968750
20.590799331665039 744.293029785156250 -239.511001586914060
12.590700149536133 746.206970214843750 -237.630004882812500
16.273899078369141 742.080993652343750 -263.592987060546870
12.685000419616699 750.401000976562500 -247.647994995117190
10.476300239562988 750.208007812500000 -257.652008056640620
11.207799911499023 748.603027343750000 -266.188995361328120
11.095000267028809 754.320983886718750 -239.705001831054690
11.045200347900391 756.322998046875000 -231.906997680664060
4.328939914703369 754.104003906250000 -269.502990722656250
7.666329860687256 759.911987304687500 -247.574996948242190
7.012929916381836 762.718017578125000 -237.697006225585940
10.504699707031250 760.187988281250000 -255.740997314453120
0.438625007867813 762.192016601562500 -267.657989501953120
4.027740001678467 769.697998046875000 -229.858993530273440
3.256289958953857 768.822021484375000 -241.593994140625000
4.142570018768311 770.013000488281250 -251.925003051757810
0.927944004535675 768.401000976562500 -262.039001464843750
-5.536099910736084 768.221984863281250 -267.759002685546870
6.498099803924561 776.223022460937500 -245.531997680664060
-2.248100042343140 779.179016113281250 -238.182006835937500
-2.170769929885864 776.124023437500000 -262.860992431640620
2.469059944152832 780.226013183593750 -255.501007080078120
0.812973022460938 782.507995605468750 -245.132995605468750
