ply
format ascii 1.0
element vertex 665
property double x
property double y
property double z
end_header
-469.617004394531250 36.767700195312500 -248.210006713867190
-469.617004394531250 36.767700195312500 -248.210006713867190
-459.578002929687500 39.045898437500000 -246.483001708984370
-451.518005371093750 41.309898376464844 -244.841995239257810
-469.575012207031250 44.268398284912109 -243.735992431640620
-443.657012939453120 42.516899108886719 -245.740005493164060
-459.604003906250000 45.870498657226562 -241.287002563476560
-439.674011230468750 46.884700775146484 -240.078002929687500
-431.610992431640620 48.320499420166016 -239.716995239257810
-447.516998291015630 50.583301544189453 -236.134994506835940
-437.572998046875000 52.567798614501953 -234.067993164062500
-421.640014648437500 52.369499206542969 -237.753005981445310
-441.618988037109370 58.064399719238281 -229.520004272460940
-431.559997558593750 57.455398559570313 -228.873992919921870
-417.651000976562500 56.499500274658203 -231.800003051757810
-405.570007324218750 55.991699218750000 -237.524002075195310
-421.596984863281250 60.307300567626953 -225.770004272460940
-427.575012207031250 63.209300994873047 -220.947006225585940
-405.528991699218750 59.808601379394531 -229.432006835937500
-391.571990966796870 58.406700134277344 -233.744003295898440
-411.592010498046870 62.373100280761719 -223.772994995117190
-367.630004882812500 57.765399932861328 -227.358001708984370
-383.533996582031250 60.512699127197266 -227.850997924804690
-395.567993164062500 61.809600830078125 -227.466995239257810
-375.545989990234370 60.380699157714844 -225.751998901367190
-419.591003417968750 66.044403076171875 -217.537994384765620
-401.588012695312500 64.453903198242187 -221.789993286132810
-365.496002197265620 62.443500518798828 -219.856994628906250
-423.553985595703120 69.902496337890625 -209.449996948242190
-353.770996093750000 63.646900177001953 -214.942993164062500
-393.592010498046870 66.314498901367188 -219.720993041992190
-385.678009033203120 65.349700927734375 -221.022003173828120
-415.500000000000000 69.921897888183594 -211.511993408203120
-377.618988037109370 65.769500732421875 -219.315002441406250
-403.541992187500000 69.731002807617188 -215.324005126953120
-343.602996826171880 66.125198364257813 -211.492996215820310
-411.618988037109380 73.986999511718750 -205.585006713867190
-371.746002197265620 69.274299621582031 -214.660003662109370
-391.614990234375000 71.935997009277344 -213.380004882812500
-363.709014892578120 69.753700256347656 -212.973999023437500
-335.575012207031250 68.342796325683594 -209.994003295898440
-399.596008300781250 74.313301086425781 -209.764999389648440
-351.493011474609370 70.618698120117188 -210.492996215820310
-327.574005126953120 69.926696777343750 -209.212005615234380
-383.588012695312500 76.030097961425781 -209.440994262695310
-391.546997070312500 77.804702758789063 -207.184997558593750
-395.588012695312500 79.855201721191406 -199.412994384765620
-371.610992431640620 75.811401367187500 -209.167007446289060
-321.635009765625000 72.423500061035156 -204.389007568359370
-345.591003417968750 76.086196899414063 -207.419006347656250
-335.652008056640620 75.969001770019531 -207.059997558593750
-355.597991943359370 77.988502502441406 -207.287002563476560
-379.390991210937500 81.360397338867188 -204.841003417968750
-389.665008544921880 84.468696594238281 -195.858001708984370
-367.584991455078120 81.857002258300781 -205.111999511718750
-327.572998046875000 78.271202087402344 -205.833999633789060
-359.588989257812500 84.239997863769531 -203.746002197265620
-377.490997314453120 87.817802429199219 -199.268005371093750
-319.544006347656250 82.074501037597656 -205.339996337890620
-311.648010253906250 82.363899230957031 -202.121994018554690
-379.584014892578120 92.174697875976563 -183.625000000000000
-345.614013671875000 86.720298767089844 -202.473999023437500
-335.628997802734370 85.976402282714844 -203.098007202148440
-367.528015136718750 89.820999145507813 -199.192001342773440
-327.587005615234370 85.964897155761719 -203.020004272460940
-355.721008300781250 90.745002746582031 -200.369995117187500
-369.576995849609370 96.159599304199219 -185.619995117187500
-369.395996093750000 99.855102539062500 -173.516998291015620
-308.002014160156250 88.555999755859375 -206.496994018554690
-361.640014648437500 96.375198364257813 -193.755996704101560
-323.631011962890620 94.369499206542969 -200.141998291015620
-337.598999023437500 96.358200073242188 -198.057998657226560
-315.524993896484370 94.074897766113281 -201.388000488281250
-362.059997558593750 102.955001831054690 -178.037994384765620
-349.355010986328120 99.263801574707031 -194.649002075195310
-357.791992187500000 102.641998291015620 -188.072006225585940
-296.330993652343750 94.609901428222656 -204.619995117187500
-307.532012939453130 96.132896423339844 -203.526992797851560
-313.541992187500000 100.012001037597660 -195.097000122070310
-353.977996826171870 108.975997924804690 -173.830001831054690
-327.604003906250000 102.247001647949220 -195.796997070312500
-349.842010498046870 107.027999877929690 -186.429000854492190
-299.756988525390620 100.299003601074220 -199.856994628906250
-339.355010986328120 107.417999267578120 -190.630996704101560
-347.139007568359370 111.332000732421870 -177.248992919921870
-319.483001708984370 105.771003723144530 -194.876007080078120
-307.567993164062500 104.152999877929690 -199.585006713867190
-331.401000976562500 109.626998901367190 -190.796997070312500
-339.842010498046870 112.799003601074220 -184.380996704101560
-339.403015136718750 115.864997863769530 -175.514999389648440
-323.493011474609370 111.704002380371090 -190.923004150390620
-299.783996582031250 108.393997192382810 -201.923995971679690
-291.864990234375000 106.422996520996090 -210.044006347656250
-313.360992431640630 111.849998474121090 -192.992996215820310
-290.075988769531250 108.728996276855470 -202.257003784179690
-329.635986328125000 116.305000305175780 -185.723999023437500
-304.087005615234380 112.861999511718750 -196.501007080078130
-293.960998535156250 112.624000549316410 -196.253005981445310
-331.756988525390620 120.511001586914060 -175.722000122070310
-321.789001464843750 118.781997680664060 -186.501007080078130
-327.464996337890620 125.862998962402340 -165.531997680664060
-281.544006347656250 113.891998291015620 -209.223007202148440
-305.545013427734370 120.103996276855470 -191.500000000000000
-311.859985351562500 122.727996826171870 -186.371994018554690
-321.390014648437500 125.866996765136720 -175.363006591796870
-289.519012451171880 118.081001281738280 -201.522003173828120
-269.592010498046870 116.081001281738280 -207.470001220703120
-295.235992431640630 121.707000732421870 -194.966995239257810
-281.639007568359370 120.303001403808590 -203.764007568359370
-313.462005615234370 129.910003662109370 -175.347000122070310
-315.756011962890620 132.440002441406250 -167.675003051757810
-259.821014404296870 120.958000183105470 -204.115005493164060
-299.414001464843750 127.904998779296870 -189.276992797851560
-307.837005615234370 130.647994995117190 -182.311004638671870
-269.833007812500000 123.584999084472660 -202.792007446289060
-289.485992431640630 128.024002075195310 -193.317993164062500
-281.707000732421870 126.463996887207030 -197.944000244140620
-304.921997070312500 135.326995849609370 -175.218002319335940
-251.604003906250000 126.140998840332030 -197.570007324218750
-309.361999511718750 137.824996948242190 -165.552001953125000
-261.584991455078120 130.214004516601560 -197.697006225585940
-295.540008544921870 136.113006591796870 -183.563995361328120
-287.457000732421870 135.912002563476560 -189.218002319335940
-299.729003906250000 140.591003417968750 -171.960998535156250
-269.576995849609370 134.132995605468750 -195.552001953125000
-277.588012695312500 136.190994262695310 -191.649002075195310
-301.529998779296870 144.097000122070310 -163.617004394531250
-253.731002807617190 133.884994506835940 -194.977996826171870
-245.457000732421870 134.300994873046870 -191.917999267578120
-293.618011474609370 142.125000000000000 -177.050994873046870
-271.648986816406250 138.598999023437500 -186.250000000000000
-283.548004150390620 142.076995849609370 -185.492004394531250
-265.752990722656250 140.589004516601560 -192.447006225585940
-283.282012939453120 145.809997558593750 -176.970993041992190
-289.447998046875000 148.054000854492190 -171.619003295898440
-261.539001464843750 144.061004638671870 -185.511001586914060
-253.578994750976560 142.194000244140620 -191.677993774414060
-241.384994506835940 142.294998168945310 -188.210006713867190
-277.502990722656250 147.761993408203130 -183.102005004882810
-269.665008544921870 146.270996093750000 -187.742996215820310
-269.666992187500000 150.320007324218750 -179.830001831054690
-277.552001953125000 152.083999633789060 -175.251007080078130
-283.760986328125000 154.402999877929690 -167.785995483398440
-268.680999755859370 161.473007202148440 -129.731994628906250
-233.421997070312500 148.192993164062500 -183.914993286132810
-255.595993041992190 150.044006347656250 -189.294998168945310
-263.501007080078120 151.986999511718750 -187.152999877929690
-225.688003540039060 150.160003662109370 -179.434997558593750
-243.611999511718750 150.162994384765620 -187.554000854492190
-268.977996826171870 163.608993530273440 -139.835006713867190
-251.483001708984370 153.565002441406250 -182.774002075195310
-219.729003906250000 154.251007080078120 -175.339004516601560
-277.703002929687500 162.317993164062500 -163.712005615234380
-264.976013183593750 167.658996582031250 -133.666000366210940
-275.045989990234370 161.291000366210940 -171.455001831054690
-265.838012695312500 158.404998779296870 -181.947006225585940
-235.397003173828120 156.167999267578120 -184.225997924804690
-245.649002075195310 157.977005004882810 -186.783004760742190
-227.236999511718750 158.169998168945310 -180.205001831054690
-255.582992553710940 160.123992919921870 -185.395004272460940
-270.115997314453120 166.822006225585940 -165.869995117187500
-260.234008789062500 174.447006225585940 -123.758003234863280
-265.652008056640620 166.190994262695310 -173.055999755859370
-259.545989990234370 174.145996093750000 -133.626007080078120
-259.721984863281250 166.649993896484370 -180.095001220703120
-239.619995117187500 164.097000122070310 -185.082000732421870
-260.277008056640620 174.826995849609370 -141.617996215820310
-227.194000244140620 166.011993408203120 -176.360000610351560
-247.643005371093750 166.365005493164060 -184.529998779296870
-257.445007324218750 169.981002807617190 -173.070999145507810
-217.367004394531250 166.100006103515620 -175.996002197265620
-231.744003295898440 166.255996704101560 -183.147994995117190
-209.457000732421870 168.156005859375000 -169.748992919921870
-260.024993896484370 176.507995605468750 -151.585006713867190
-256.334014892578120 180.682006835937500 -129.832000732421870
-260.962005615234370 175.720001220703120 -159.630996704101560
-241.518997192382810 170.305999755859370 -178.388000488281250
-253.160995483398440 171.757995605468750 -180.626007080078120
-254.563003540039060 184.660003662109370 -122.089996337890620
-225.649002075195310 172.203994750976560 -181.505996704101560
-257.625000000000000 178.233001708984370 -167.617004394531250
-254.072006225585940 182.589004516601560 -145.611999511718750
-219.304992675781250 174.052001953125000 -174.149002075195310
-249.576004028320310 178.195999145507810 -171.776992797851560
-251.589996337890630 186.177993774414060 -135.625000000000000
-231.636993408203130 176.169006347656250 -177.279998779296870
-255.796997070312500 182.354995727539060 -159.610992431640620
-239.587997436523440 176.171997070312500 -183.589004516601560
-211.404998779296870 176.119995117187500 -173.893005371093750
-251.611999511718750 190.186004638671870 -127.637001037597660
-204.093002319335940 178.419998168945310 -167.225997924804690
-245.557006835937500 180.128005981445310 -179.570007324218750
-237.587997436523440 182.180999755859370 -175.630996704101560
-225.529006958007810 180.197006225585940 -181.944000244140620
-233.535003662109370 182.162994384765620 -182.996002197265620
-249.895004272460940 186.595001220703120 -169.798004150390620
-246.753997802734370 191.514007568359370 -145.453002929687500
-217.494995117187500 182.136001586914060 -179.744995117187500
-246.917999267578120 193.712005615234370 -137.518005371093750
-249.207992553710940 189.759002685546870 -159.718994140625000
-227.621994018554690 186.160003662109370 -177.024002075195310
-249.167999267578130 198.093994140625000 -127.406997680664060
-203.257995605468750 185.985992431640630 -169.957000732421870
-243.720993041992190 188.382003784179690 -176.167999267578120
-237.529006958007810 190.061004638671870 -171.235992431640620
-235.483001708984370 190.074005126953120 -179.430999755859370
-197.132995605468750 189.889999389648440 -166.067993164062500
-241.811996459960940 198.369003295898440 -143.686996459960940
-250.658004760742190 204.233993530273440 -120.991996765136720
-242.305999755859370 196.723999023437500 -155.498001098632810
-207.563003540039060 190.162994384765620 -175.654998779296870
-243.214996337890630 195.850006103515620 -163.570999145507810
-215.365997314453120 190.070007324218750 -180.373992919921870
-242.899993896484370 201.697006225585940 -135.173004150390630
-223.509994506835940 192.119003295898440 -182.337005615234370
-189.307998657226560 193.628997802734380 -162.391006469726560
-247.582992553710940 206.175003051757810 -129.623992919921870
-237.231002807617190 203.917007446289060 -147.546997070312500
-238.908004760742190 199.595001220703120 -171.527999877929690
-201.492004394531250 196.110000610351560 -173.731994628906250
-237.845993041992190 202.391998291015620 -163.671997070312500
-193.152999877929690 197.712997436523440 -168.238998413085940
-209.333999633789060 197.953002929687500 -174.367004394531250
-236.160995483398440 204.634002685546870 -155.518997192382810
-231.692993164062500 200.276992797851560 -175.848007202148440
-247.755996704101560 212.143997192382810 -123.775001525878910
-215.591003417968750 198.179000854492190 -181.600997924804690
-240.882003784179690 210.106994628906250 -137.218002319335940
-223.983993530273440 200.578994750976560 -180.287002563476560
-223.770004272460940 202.389999389648440 -171.988998413085940
-235.936996459960940 212.371994018554690 -143.929992675781250
-232.675003051757810 207.425003051757810 -169.662002563476560
-245.421005249023440 216.195007324218750 -131.460006713867190
-179.477005004882810 203.804000854492190 -164.007003784179690
-232.807006835937500 209.761993408203120 -161.593994140625000
-231.255996704101560 211.968002319335940 -151.520996093750000
-205.490997314453120 204.102996826171870 -179.802001953125000
-193.766998291015620 204.369995117187500 -173.307006835937500
-186.013000488281250 204.690994262695310 -168.940994262695310
-215.585998535156250 206.186996459960940 -181.727005004882810
-215.597000122070310 208.190002441406250 -173.647994995117190
-201.524993896484370 208.130996704101560 -173.819000244140620
-225.526000976562500 210.164993286132810 -175.093994140625000
-227.059997558593750 213.738006591796870 -167.660003662109370
-235.393005371093750 220.145004272460940 -141.458999633789060
-241.667999267578120 222.169998168945310 -135.720993041992190
-177.712005615234370 210.427993774414060 -169.361999511718750
-227.115005493164060 217.858001708984370 -155.548995971679690
-191.376998901367190 211.930999755859370 -170.192993164062500
-171.647003173828120 212.292999267578130 -161.507995605468750
-229.914001464843750 220.298004150390620 -147.889999389648440
-195.485000610351560 212.106994628906250 -177.815994262695310
-247.567001342773440 226.180999755859370 -131.597000122070310
-211.789993286132810 214.356002807617190 -179.951995849609370
-203.654998779296870 214.225997924804690 -181.307006835937500
-217.477005004882810 218.132003784179690 -175.210998535156250
-220.962005615234370 221.365997314453120 -165.595993041992190
-183.466003417968750 215.979995727539060 -175.921997070312500
-171.535003662109370 216.072006225585940 -171.740005493164060
-211.679000854492190 220.266006469726560 -169.869003295898440
-234.108993530273440 228.214004516601560 -142.227005004882810
-165.380996704101560 217.858001708984370 -164.029998779296870
-227.863998413085940 228.227996826171870 -147.917007446289060
-240.692993164062500 231.925994873046880 -136.671005249023440
-243.729995727539060 234.274002075195310 -127.817001342773440
-222.044006347656250 228.358001708984370 -153.962005615234370
-207.988006591796870 222.468994140625000 -178.291000366210940
-199.598007202148440 222.179000854492190 -181.565002441406250
-163.759002685546870 220.662002563476560 -173.115997314453120
-191.438995361328120 221.994995117187500 -180.216003417968750
-177.582000732421870 224.164993286132810 -171.649993896484370
-238.055999755859370 238.488998413085940 -132.052001953125000
-183.632003784179690 224.281005859375000 -179.169998168945310
-213.464004516601560 228.046997070312500 -174.837997436523440
-203.876998901367190 228.416000366210940 -170.162994384765620
-169.632003784179690 224.358993530273440 -177.296005249023440
-159.585006713867190 226.406005859375000 -169.285995483398440
-189.427001953125000 228.063995361328120 -174.602005004882810
-214.186996459960940 232.550003051757810 -164.052001953125000
-231.162994384765620 239.994003295898440 -137.223007202148440
-221.906997680664060 236.236999511718750 -152.029006958007810
-228.179992675781250 238.326995849609370 -146.317001342773440
-201.781005859375000 230.322998046875000 -177.964004516601560
-193.578002929687500 230.167999267578120 -181.757995605468750
-157.559997558593750 228.035003662109370 -177.854003906250000
-196.141006469726560 232.699005126953120 -172.557006835937500
-175.615005493164060 230.102005004882810 -180.235992431640620
-215.906997680664060 238.253997802734370 -157.923995971679690
-151.585006713867190 230.175003051757810 -171.626998901367190
-208.080001831054690 236.585998535156250 -169.531005859375000
-181.490005493164060 234.022003173828120 -174.539993286132810
-167.546005249023440 231.804000854492190 -180.615997314453120
-217.414001464843750 247.901000976562500 -123.867996215820310
-185.585998535156250 234.177993774414060 -181.610000610351560
-201.511993408203120 238.119995117187500 -175.173995971679690
-173.555999755859370 236.091995239257810 -174.048995971679690
-209.332000732421870 242.035995483398440 -163.132003784179690
-223.082000732421870 247.975997924804690 -141.054992675781250
-221.639999389648440 246.201004028320310 -149.692001342773440
-195.593994140625000 240.184997558593750 -169.643005371093750
-193.498992919921870 238.085998535156250 -179.432998657226560
-215.455001831054690 246.089004516601560 -155.492996215820310
-165.535003662109370 238.272003173828120 -174.966995239257810
-151.634002685546870 235.917007446289060 -182.119003295898440
-215.914001464843750 252.755996704101560 -131.412002563476560
-147.550994873046870 238.272994995117190 -175.369003295898440
-207.677993774414060 254.367004394531250 -123.584999084472660
-177.572998046875000 240.134994506835940 -181.992004394531250
-159.554992675781250 238.436004638671870 -182.964004516601560
-214.001998901367190 250.404998779296870 -148.125000000000000
-155.593994140625000 240.119003295898440 -175.768005371093750
-185.598007202148440 242.173004150390620 -182.035995483398440
-209.076995849609370 249.733993530273440 -159.009994506835940
-199.516998291015620 246.179992675781250 -175.044998168945310
-175.572998046875000 244.190994262695310 -175.367996215820310
-191.328994750976560 245.938995361328120 -177.130996704101560
-208.063995361328120 257.027008056640620 -131.261001586914060
-201.876998901367190 250.352996826171870 -164.061004638671870
-207.177993774414060 253.753005981445310 -151.132995605468750
-183.389999389648440 248.022994995117190 -173.326995849609370
-209.511001586914060 258.027008056640620 -139.667999267578130
-171.574996948242190 246.236999511718750 -182.925994873046870
-163.675003051757810 248.069000244140620 -176.255996704101560
-196.274993896484370 252.626007080078130 -171.307006835937500
-197.276992797851560 261.608001708984370 -127.896003723144530
-139.744003295898440 246.119995117187500 -180.035995483398440
-201.809005737304690 260.773986816406250 -135.276992797851560
-155.641998291015620 248.141006469726560 -177.895996093750000
-147.539001464843750 248.341995239257810 -179.126998901367190
-199.805999755859370 258.411987304687500 -153.839004516601560
-147.559005737304690 248.248001098632810 -187.419006347656250
-161.423995971679690 250.210998535156250 -184.986999511718750
-197.332992553710940 257.957000732421870 -163.283996582031250
-203.839996337890620 262.558990478515620 -143.516006469726560
-181.613006591796870 254.194000244140620 -179.673004150390620
-169.656005859375000 254.126007080078120 -176.231002807617190
-179.845993041992190 256.345001220703120 -172.007995605468750
-173.539993286132810 254.171997070312500 -183.272003173828120
-191.203994750976560 257.893005371093750 -174.675994873046870
-193.277999877929690 261.903991699218750 -157.039993286132810
-194.158004760742190 267.114013671875000 -137.214996337890620
-141.561004638671870 254.225997924804690 -181.498992919921870
-186.054992675781250 268.976013183593750 -129.195999145507810
-189.537002563476560 262.118988037109370 -165.628997802734370
-159.591003417968750 258.175994873046870 -177.658996582031250
-149.419006347656250 258.272003173828120 -181.037002563476560
-193.949996948242190 270.657012939453120 -147.535995483398440
-157.802993774414060 260.117004394531250 -186.311004638671870
-172.093002319335940 262.476989746093750 -182.473007202148440
-187.869995117187500 272.535003662109370 -139.485000610351560
-187.559997558593750 266.157012939453130 -173.634002685546880
-167.679000854492190 264.240997314453120 -175.865005493164060
-135.757995605468750 260.022003173828120 -184.298995971679690
-183.100006103515620 269.539001464843750 -161.171005249023440
-145.401000976562500 260.315002441406250 -191.110000610351560
-137.427001953125000 260.420013427734370 -192.800003051757810
-175.932998657226560 276.721984863281250 -131.298995971679690
-179.684997558593750 268.221008300781250 -176.207992553710940
-159.600006103515620 266.179992675781250 -177.710006713867190
-143.636001586914060 264.115997314453120 -183.826004028320310
-180.882003784179690 277.295989990234370 -138.201995849609370
-186.188995361328120 277.001007080078130 -149.498992919921870
-169.412994384765620 270.082000732421870 -181.395996093750000
-168.125000000000000 280.834014892578120 -129.201995849609370
-168.166000366210940 272.552001953125000 -172.389999389648440
-151.889007568359370 270.166992187500000 -180.326995849609370
-161.486999511718750 270.134002685546870 -185.128997802734380
-178.408996582031250 276.747985839843750 -160.016006469726560
-180.352996826171870 274.786010742187500 -171.274993896484370
-131.546005249023440 268.359008789062500 -187.160995483398440
-177.826004028320310 282.473999023437500 -143.511001586914060
-171.634002685546870 284.242004394531250 -137.574005126953120
-179.718002319335940 282.334014892578120 -151.623001098632810
-149.904006958007810 272.187011718750000 -190.156997680664060
-139.481002807617190 270.277008056640620 -195.261001586914060
-159.865997314453120 286.540985107421880 -127.554000854492190
-145.565002441406250 274.177001953125000 -183.595993041992190
-153.483993530273440 278.160003662109370 -179.363998413085940
-173.703002929687500 284.290985107421870 -157.723007202148440
-169.427001953125000 280.104003906250000 -177.257003784179690
-161.595993041992190 280.182006835937500 -173.639007568359370
-174.486999511718750 282.819000244140620 -171.134002685546870
-162.179000854492190 289.002014160156250 -134.949005126953120
-167.488998413085940 290.040985107421870 -141.692001342773440
-151.298004150390620 291.778015136718750 -127.877998352050780
-171.190994262695310 289.704010009765630 -149.738006591796870
-151.253005981445310 280.132995605468750 -189.022994995117190
-159.548995971679690 282.157012939453120 -183.591003417968750
-129.460998535156250 278.375000000000000 -191.029998779296870
-139.736999511718750 280.183990478515620 -187.791000366210940
-170.203994750976560 288.653991699218750 -165.645004272460940
-140.998992919921870 280.229003906250000 -196.919998168945310
-155.720001220703120 286.250000000000000 -175.742996215820310
-163.587997436523440 288.177001953125000 -177.639999389648440
-171.037994384765620 289.805999755859370 -173.897994995117190
-161.263000488281250 295.688995361328120 -143.852996826171870
-167.464004516601560 294.075012207031250 -157.641998291015620
-150.138000488281250 297.049011230468750 -135.117996215820310
-143.811004638671870 288.226013183593750 -183.876007080078120
-133.783004760742190 286.088989257812500 -191.981994628906250
-153.826004028320310 290.199005126953120 -185.938995361328120
-143.835006713867190 288.190002441406250 -193.902999877929690
-142.281997680664060 300.894989013671870 -131.195007324218750
-165.294006347656250 295.958007812500000 -171.824005126953120
-161.335998535156250 299.917999267578120 -155.669998168945310
-162.220993041992190 298.756011962890620 -163.639007568359370
-147.729995727539060 294.234985351562500 -179.819000244140620
-155.367996215820310 301.813995361328120 -147.800994873046880
-137.912994384765620 292.244995117187500 -188.061004638671870
-135.554000854492190 290.175994873046870 -201.595993041992190
-145.076995849609370 303.571014404296870 -139.990005493164060
-153.460006713867190 298.104003906250000 -171.410995483398440
-147.352005004882810 294.115997314453120 -189.384002685546870
-159.667007446289060 298.195007324218750 -178.162002563476560
-125.795997619628910 291.950988769531250 -196.285995483398440
-132.869995117187500 296.085998535156250 -193.136001586914060
-155.466003417968750 306.040008544921870 -157.697006225585940
-135.333999633789060 310.076995849609370 -129.712997436523440
-157.281005859375000 305.859008789062500 -167.699996948242190
-140.705001831054690 301.888000488281250 -182.729995727539060
-145.296997070312500 304.049987792968750 -175.425003051757810
-143.923004150390620 302.066986083984370 -190.151000976562500
-137.598999023437500 312.182006835937500 -137.621002197265620
-147.697998046875000 310.302001953125000 -153.546997070312500
-141.893005371093750 312.397003173828120 -147.492004394531250
-125.170997619628910 302.286987304687500 -198.927993774414060
-158.031997680664060 310.540008544921870 -177.477996826171870
-151.921997070312500 312.430999755859380 -165.561996459960940
-133.634994506835940 318.182006835937500 -129.611999511718750
-132.589996337890630 305.872985839843750 -190.934997558593750
-137.281005859375000 310.067993164062500 -183.373992919921870
-140.001007080078120 312.365997314453120 -175.789001464843750
-143.561004638671870 318.157989501953120 -157.639007568359370
-151.703994750976560 316.266998291015620 -173.509002685546880
-133.216995239257810 326.123992919921870 -127.636001586914060
-134.800003051757810 324.053009033203120 -139.776992797851560
-124.263000488281250 312.123992919921870 -200.539001464843750
-137.106994628906250 324.024993896484370 -149.815994262695310
-144.841003417968750 321.674987792968750 -165.904998779296870
-135.335998535156250 318.053985595703120 -181.468994140625000
-137.895996093750000 322.341003417968750 -172.367996215820310
-130.100997924804690 318.272003173828120 -189.895004272460940
-140.052993774414060 326.429992675781250 -161.455993652343750
-148.248001098632810 324.636993408203120 -177.283996582031250
-133.701995849609370 332.174987792968750 -135.610992431640620
-126.198997497558590 320.238006591796870 -197.861999511718750
-119.319999694824220 318.217010498046870 -205.343994140625000
-137.177001953125000 326.020996093750000 -180.833999633789060
-134.244003295898440 334.216003417968750 -143.602996826171870
-140.089004516601560 330.558990478515620 -171.408004760742190
-133.406005859375000 340.192993164062500 -127.625000000000000
-136.667999267578130 333.768005371093750 -161.869995117187500
-129.667007446289060 332.225006103515620 -173.757003784179690
-127.862998962402340 326.270996093750000 -203.697998046875000
-125.866996765136720 328.208007812500000 -195.725006103515620
-134.007995605468750 338.260986328125000 -151.598999023437500
-119.199996948242190 326.259002685546870 -207.296997070312500
-127.095001220703120 331.959991455078120 -187.505004882812500
-133.697998046875000 342.182006835937500 -141.621994018554690
-133.177993774414060 348.066009521484370 -123.609001159667970
-139.259002685546870 337.940002441406250 -177.777999877929690
-132.878997802734370 341.942993164062500 -159.690994262695310
-133.992996215820310 340.424011230468750 -169.645996093750000
-132.972000122070310 347.967987060546870 -131.608001708984370
-129.585006713867190 338.174011230468750 -181.617996215820310
-125.559997558593750 340.165008544921870 -173.572998046875000
-131.796005249023440 346.252014160156250 -149.639007568359370
-121.380996704101560 336.139007568359370 -205.550003051757810
-130.164993286132810 352.545013427734370 -141.662994384765620
-131.839004516601560 346.347991943359370 -175.376007080078120
-125.085998535156250 355.524993896484370 -131.690994262695310
-117.741996765136720 344.265014648437500 -185.723007202148440
-119.193000793457030 347.985992431640620 -175.194000244140620
-127.681999206542970 350.240997314453120 -169.647994995117190
-125.879997253417970 356.739013671875000 -147.574996948242190
-123.540000915527340 350.217010498046870 -181.953994750976560
-126.894996643066410 355.704010009765630 -157.462997436523440
-113.893997192382810 346.296997070312500 -199.792007446289060
-115.351997375488280 359.378997802734370 -137.822998046875000
-131.572006225585940 352.166992187500000 -181.628997802734370
-117.595001220703120 360.200012207031250 -145.619995117187500
-123.830001831054690 356.341003417968750 -173.518005371093750
-119.152999877929690 361.484985351562500 -153.858001708984370
-114.503997802734370 354.753997802734370 -188.050003051757810
-111.593002319335940 354.183013916015620 -195.632995605468750
-104.988998413085940 365.385986328125000 -140.048995971679690
-111.884002685546870 364.593994140625000 -149.404998779296870
-105.438003540039060 354.065002441406250 -203.526992797851560
-111.613998413085940 360.195007324218750 -175.667999267578120
-103.792999267578120 356.351989746093750 -191.763000488281250
-89.772300720214844 354.260986328125000 -199.281997680664060
-125.519996643066410 362.139007568359370 -181.641006469726560
-118.620002746582030 365.256988525390620 -165.436004638671870
-118.974998474121090 363.785003662109370 -173.925003051757810
-87.050903320312500 358.023010253906250 -190.425994873046880
-112.455001831054690 369.117004394531250 -159.091003417968750
-111.001998901367190 363.856994628906250 -184.940002441406250
-103.026000976562500 371.666992187500000 -147.895004272460940
-103.002998352050780 363.850006103515620 -187.167007446289060
-101.792999267578120 362.380004882812500 -199.917999267578120
-89.499000549316406 362.398010253906250 -198.046997070312500
-104.792999267578120 367.721984863281250 -179.100006103515620
-95.924003601074219 364.598999023437500 -192.216995239257810
-79.613998413085938 364.164001464843750 -193.572998046875000
-120.324996948242190 370.670989990234370 -181.363998413085940
-114.008003234863280 372.438995361328120 -175.272994995117190
-97.055198669433594 377.989013671875000 -141.796005249023440
-99.881301879882813 378.329010009765620 -151.531005859375000
-101.450996398925780 370.121002197265620 -195.509994506835940
-103.411003112792970 378.023010253906250 -159.714996337890620
-113.697998046875000 373.890991210937500 -185.399002075195310
-75.378402709960938 370.183013916015620 -190.074005126953120
-101.499000549316410 376.136993408203120 -177.520004272460940
-91.494903564453125 372.757995605468750 -192.253997802734380
-106.638999938964840 379.221984863281250 -167.919006347656250
-79.841903686523437 371.936004638671870 -197.026992797851560
-96.322402954101563 376.808013916015620 -184.378997802734370
-110.316001892089840 380.610992431640620 -176.901000976562500
-83.586097717285156 376.178009033203120 -189.630004882812500
-96.341400146484375 386.325012207031250 -147.470001220703120
-93.664100646972656 388.192993164062500 -139.589996337890630
-98.078598022460938 386.252990722656250 -155.514007568359370
-75.656501770019531 378.128997802734370 -188.852005004882810
-113.551002502441410 384.158996582031250 -183.632995605468750
-97.596298217773438 384.180999755859370 -177.643997192382810
-89.589996337890625 382.246002197265620 -185.731994628906250
-105.625000000000000 384.183990478515620 -185.106002807617190
-100.114997863769530 388.312988281250000 -167.557998657226560
-81.555000305175781 384.165008544921870 -187.546005249023440
-95.702003479003906 394.192993164062500 -149.602996826171870
-93.036201477050781 396.080993652343750 -141.957992553710940
-69.599098205566406 384.283996582031250 -191.893005371093750
-107.461997985839840 390.110992431640630 -179.759002685546870
-97.126098632812500 394.096984863281250 -157.699005126953120
-97.793403625488281 390.093994140625000 -186.434005737304690
-95.544197082519531 394.205993652343750 -177.302993774414060
-97.344100952148438 396.085998535156250 -169.630004882812500
-83.801902770996094 392.246002197265620 -183.889007568359370
-95.155998229980469 402.102996826171870 -153.662994384765620
-105.070999145507810 397.890991210937500 -182.026992797851560
-87.706001281738281 398.230987548828120 -179.783004760742190
-96.017601013183594 402.302001953125000 -163.638000488281250
-77.585998535156250 396.178009033203120 -187.634994506835940
-91.779602050781250 398.221008300781250 -187.994003295898440
-92.858596801757813 408.111999511718750 -143.854995727539060
-97.499000549316406 402.122009277343750 -177.705993652343750
-92.408401489257813 410.303009033203120 -135.354003906250000
-83.523498535156250 400.145996093750000 -193.572998046875000
-81.571800231933594 402.169006347656250 -183.613998413085940
-101.556999206542970 406.161010742187500 -183.643005371093750
-92.399101257324219 408.477996826171870 -171.768005371093750
-93.591201782226563 406.087005615234370 -188.115997314453120
-93.248001098632812 414.165985107421870 -149.651992797851560
-87.471603393554688 408.239990234375000 -178.878005981445310
-91.750602722167969 416.164001464843750 -141.574996948242190
-92.687301635742188 413.957000732421870 -159.634002685546870
-75.680297851562500 406.177001953125000 -195.860992431640620
-83.172302246093750 407.941009521484370 -190.957992553710940
-91.318702697753906 420.166992187500000 -133.684997558593750
-94.986396789550781 411.778991699218750 -180.518005371093750
-78.531303405761719 405.714996337890620 -206.266998291015620
-91.035003662109375 416.023010253906250 -167.488998413085940
-81.721603393554687 414.212005615234370 -180.020004272460940
-91.487602233886719 422.152008056640620 -153.617996215820310
-91.786300659179687 424.187988281250000 -145.623992919921870
-75.652603149414062 414.218994140625000 -193.751007080078120
-87.588096618652344 418.135009765625000 -189.934005737304690
-87.855400085449219 420.346008300781250 -179.352996826171870
-87.060203552246094 421.993988037109370 -171.375000000000000
-94.960800170898437 421.845001220703130 -186.048004150390620
-88.379096984863281 426.505004882812500 -161.792999267578120
-89.987396240234375 432.234985351562500 -139.697006225585940
-77.434799194335938 424.169006347656250 -181.063995361328120
-75.736602783203125 422.209991455078120 -192.009002685546880
-84.885597229003906 429.903991699218750 -169.307006835937500
-89.397796630859375 428.059997558593750 -183.876007080078120
-76.652198791503906 424.250000000000000 -199.766006469726560
-88.947097778320313 435.944000244140620 -151.541000366210940
-81.578903198242188 428.261993408203120 -191.085006713867190
-81.168998718261719 431.963012695312500 -179.882003784179690
-85.611396789550781 442.205993652343750 -137.623992919921870
-86.327301025390625 440.739990234375000 -145.531005859375000
-86.166099548339844 440.557006835937500 -159.673004150390620
-89.048698425292969 435.911010742187500 -187.949005126953120
-77.585601806640625 436.088989257812500 -192.179000854492190
-82.605400085449219 441.901000976562500 -166.988998413085940
-77.406402587890625 440.122985839843750 -175.496002197265620
-83.384399414062500 445.994995117187500 -151.710998535156250
-73.595100402832031 440.234008789062500 -183.324005126953120
-74.767501831054687 443.851989746093750 -166.994003295898440
-84.338897705078125 442.649993896484370 -186.707000732421870
-83.029296875000000 447.976013183593750 -161.524002075195310
-65.366699218750000 448.596984863281250 -159.335998535156250
-77.636299133300781 450.662994384765620 -155.382003784179690
-75.065101623535156 447.992004394531250 -175.111999511718750
-75.456802368164063 448.072998046875000 -183.988998413085940
-71.656501770019531 446.085998535156250 -194.082992553710940
-71.443000793457031 452.665985107421880 -163.223007202148440
-59.532798767089844 452.522003173828120 -164.858001708984370
-67.924499511718750 450.243988037109370 -187.380004882812500
-69.828102111816406 454.330993652343750 -177.856994628906250
-79.351402282714844 454.054992675781250 -187.968994140625000
-77.330497741699219 460.225006103515620 -159.361999511718750
-65.613601684570313 458.178985595703120 -166.166000366210940
-71.580596923828125 454.151000976562500 -195.690994262695310
-73.694000244140625 460.325988769531250 -166.942993164062500
-71.564201354980469 458.162994384765620 -185.690994262695310
-51.474899291992188 462.178009033203120 -167.220001220703120
-77.288497924804688 462.029998779296870 -189.945007324218750
-65.592300415039062 466.184997558593750 -167.600006103515620
-57.611999511718750 468.092987060546870 -166.451995849609370
-71.258499145507813 467.890991210937500 -188.440002441406250
-45.642101287841797 470.166992187500000 -169.753997802734370
-51.609100341796875 476.152008056640620 -167.759002685546870
-51.819301605224609 450.102996826171870 -180.481002807617190
-47.622501373291016 472.187988281250000 -185.229003906250000
-56.331001281738281 423.851013183593750 -194.296005249023440
-61.870899200439453 430.082000732421870 -189.811996459960940
-47.142398834228516 428.000000000000000 -200.130004882812500
-56.553699493408203 429.692993164062500 -208.216003417968750
-57.261699676513672 434.256988525390620 -197.382003784179690
-61.049198150634766 440.175994873046870 -193.257003784179690
-43.590999603271484 438.175994873046870 -199.619995117187500
-43.585300445556641 436.190002441406250 -211.455993652343750
-50.865299224853516 438.207000732421870 -207.151000976562500
-54.301898956298828 446.273010253906250 -202.210998535156250
-59.402301788330078 448.173004150390620 -195.505004882812500
-45.477298736572266 446.147003173828120 -203.729995727539060
-42.956901550292969 449.657989501953120 -210.884994506835940
-39.115200042724609 452.053009033203120 -202.843002319335940
-47.750000000000000 454.283996582031250 -205.910003662109370
-53.986400604248047 456.371002197265620 -212.024002075195310
-38.702098846435547 460.363006591796870 -188.757003784179690
-43.345100402832031 459.781005859375000 -201.472000122070310
-35.365699768066406 460.317993164062500 -204.962005615234380
-52.951499938964844 465.924011230468750 -199.102996826171870
-45.441101074218750 464.072998046875000 -215.171005249023440
-40.264701843261719 470.084991455078120 -188.404006958007810
-45.451599121093750 468.082000732421870 -203.162002563476560
-34.427299499511719 470.264007568359370 -194.520996093750000
-33.361698150634766 468.907012939453120 -206.684005737304690
-41.435001373291016 472.084991455078120 -215.195999145507810
-47.704799652099609 476.058990478515620 -212.070999145507810
-39.640201568603516 480.165985107421870 -189.695007324218750
-39.472698211669922 478.083007812500000 -203.283996582031250
-29.639600753784180 484.083007812500000 -177.957992553710940
-41.608100891113281 486.154998779296870 -173.686996459960940
-29.585500717163086 480.231994628906250 -203.755996704101560
-39.523101806640625 481.945007324218750 -213.100997924804690
-47.312599182128906 483.957000732421870 -210.733993530273440
-43.372600555419922 485.932006835937500 -200.770996093750000
-33.633399963378906 487.816009521484370 -200.785003662109370
-27.550699234008789 492.082000732421870 -180.065002441406250
-23.411399841308594 485.863006591796870 -213.091995239257810
-33.591499328613281 488.058013916015620 -211.348007202148440
-25.598699569702148 490.058013916015620 -199.401992797851560
-19.613100051879883 494.209014892578120 -179.296005249023440
-41.584201812744141 490.041992187500000 -211.035003662109370
-17.529600143432617 491.774993896484370 -211.016006469726560
-33.369098663330078 496.325012207031250 -198.214004516601560
-33.405399322509766 496.342010498046870 -208.063003540039060
-72.271598815917969 426.102996826171880 -206.378005981445310
-71.050697326660156 433.963989257812500 -205.061996459960940
-65.125602722167969 439.848999023437500 -208.932998657226560
-39.397300720214844 474.196014404296870 -173.225006103515620
