ply
format ascii 1.0
element vertex 376
property double x
property double y
property double z
end_header
-4.950359821319580 42.844200134277344 -218.453002929687500
-1.508431323700481 41.031749513414169 -217.581777784559450
0.787999343965203 43.738305282592776 -214.004698944091790
-5.813520022800991 51.921799795968191 -211.224142892020100
-1.370701768994331 49.870473225911461 -210.242534383138010
-14.871419906616211 62.249960327148436 -213.140197753906250
-11.056980133056641 59.036179351806638 -212.074798583984370
-16.783992107097919 69.292187910813553 -210.161922748272250
-10.703332314124474 69.835869422325715 -212.918076735276430
-19.022318601608276 78.650530815124512 -210.096875190734860
-21.083700180053711 82.932598114013672 -209.683502197265620
-14.717599868774414 63.639900207519531 -201.167999267578120
-8.906700611114502 60.896339416503906 -202.777756199692250
-0.821758903264999 58.795812072753904 -202.364038696289070
-23.607299804687500 72.422798156738281 -204.014994303385410
-17.549458784215592 69.819589053883277 -202.274648329790890
-8.621851704337381 68.645317077636719 -199.588638305664060
-24.957615601389033 78.145637110659948 -200.618523848684220
-19.565804481506348 77.651194485751063 -202.584000327370380
-25.779957090105331 85.857461838495169 -201.497142246791300
-21.042739868164063 83.370658874511719 -201.857000732421880
-30.400499725341795 93.876577758789068 -199.800799560546860
-6.565585994720459 63.731700134277347 -195.786999511718760
-4.285320103168488 62.107874870300293 -196.258750915527340
-17.281870031356810 70.527490615844727 -195.024700164794920
-10.881421794062076 68.289417100989297 -194.208912061608340
-28.068118008700285 79.313336459073156 -195.376910122958090
-20.195049881935120 77.400525093078613 -193.618749618530270
-33.481781244277954 87.314731121063232 -190.887935638427730
-27.418538316767265 86.964580292397358 -194.032745361328120
-21.938799858093262 83.036251068115234 -194.674751281738280
-33.826009477887837 96.344814482189364 -192.838952200753340
-29.623907676109901 94.592753483698914 -192.359538151667660
-41.350200653076172 104.707000732421870 -189.154998779296870
-36.236654455011539 101.876817876642410 -192.765634710138500
-16.980366706848145 72.621632893880204 -185.121332804361970
-12.817299842834473 69.052200317382813 -188.600997924804690
-25.775873585751182 80.517147264982526 -185.588052850020550
-20.831886551596902 78.338205164129079 -184.232138200239690
-36.060792650495259 89.338663918631411 -185.314643859863280
-27.719469881057741 86.012212562561032 -183.998773574829100
-42.019781632856890 96.950463728471235 -182.131816517223000
-36.027285099029541 96.325610351562503 -184.628924179077160
-30.697415131788986 94.350169842059799 -186.882231492262630
-42.721966425577797 103.220667521158860 -183.897331237792970
-37.966194152832031 102.684293859145210 -184.068881764131450
-23.382650375366211 80.974048614501953 -175.672996520996090
-21.424981897527520 79.423899563876063 -177.335453380237940
-33.908930264986481 89.527153015136719 -177.102154071514430
-26.794541716575623 86.830987453460693 -175.556187311808260
-22.800399780273437 85.076499938964844 -172.643005371093750
-43.534913063049316 97.202386856079102 -176.673627853393550
-37.365521430969238 96.036957604544497 -175.126107352120530
-31.407199859619141 92.179801940917969 -172.091995239257810
-51.168330001831052 104.221199798583980 -172.901499938964830
-44.606902313232425 104.250450325012210 -176.024374771118180
-39.987885611397878 101.900858197893410 -177.708714076450890
-51.275799751281738 110.612749099731450 -173.004253387451170
-46.251800537109375 109.603996276855470 -178.858001708984370
-60.303699493408203 119.500000000000000 -172.391006469726560
-26.337624788284302 89.168244361877441 -169.430750846862790
-41.684820556640624 98.906878662109378 -168.106594848632820
-35.884515762329102 97.353287696838379 -166.948155403137210
-29.622158368428547 94.163075129191085 -166.068916320800780
-52.794000244140626 107.459600830078130 -167.460067749023440
-46.338281804865055 104.738272927024140 -165.956877737334280
-39.574900054931639 103.382600402832030 -165.365798950195310
-60.221338418813851 115.117615332970250 -164.736459585336550
-54.941053612287654 113.301093345464660 -166.618232194767440
-73.019798278808594 123.072998046875000 -167.147003173828120
-60.949973297119143 120.163333638509120 -166.334866333007820
-76.929100036621094 128.820007324218750 -164.550003051757810
-75.376049041748047 128.573249816894530 -163.721748352050780
-33.818500518798828 100.098352432250980 -160.650001525878910
-30.607099533081055 99.461303710937500 -161.072998046875000
-52.127410507202150 108.658100128173830 -158.932199096679680
-45.147373346182015 105.820076282207780 -157.945269071138820
-37.732064383370535 102.551285879952570 -158.010288783482140
-59.946810150146483 116.730699157714840 -156.912898254394520
-55.529414258684433 113.291143362862730 -157.675399344308030
-72.155100042169749 125.077363447709520 -156.341634576970880
-64.096170425415039 120.940450286865230 -157.310248565673820
-52.205001831054687 118.625000000000000 -153.738998413085940
-79.007202148437500 130.757995605468750 -160.520996093750000
-76.774398803710938 129.175003051757810 -160.658004760742190
-284.973510742187500 -17.943499565124512 -144.608001708984370
-280.663749694824220 -17.919750213623047 -147.708248138427730
-284.765014648437500 -14.971599578857422 -144.651992797851560
-279.779663085937500 -13.393134540981716 -145.691333346896700
-284.625000000000000 -2.984450101852417 -144.809005737304690
-281.384506225585940 -5.906185150146484 -144.338493347167970
-45.839949607849121 108.594249725341800 -152.677997589111330
-62.025820541381833 116.549099731445310 -148.917951965332040
-54.975153650556294 113.890249524797710 -148.758285522460940
-47.869866689046226 112.029499053955080 -150.574165344238280
-80.705128261021201 124.234286717006140 -149.299857003348220
-72.213440322875982 123.724924659729000 -148.483150482177730
-64.118241671858158 120.583862304687500 -147.734378156990830
-56.093583106994629 120.145166397094730 -149.171415964762360
-114.966201782226560 135.419000244140620 -145.728402709960930
-108.704312801361080 134.959000587463380 -147.408000946044920
-99.379364013671875 133.350545709783380 -145.823182539506400
-94.838401794433594 133.037002563476560 -146.628997802734380
-79.727254000577062 130.843726418235090 -147.331364024769190
-75.543624877929688 128.233749389648440 -149.670501708984370
-284.834014892578120 -16.955400466918945 -142.626007080078120
-287.341142926897310 -11.241732869829450 -138.078717912946420
-280.473632812500000 -10.759219169616699 -140.647090565074560
-287.720998128255190 -6.253259976704915 -137.165003458658840
-279.420823938706350 -3.178234640289755 -139.632500592400050
-273.105000813802060 -1.563974599043528 -136.287333170572910
-278.488546752929660 4.990777575969696 -139.630349731445310
-272.831500244140610 6.050594878196717 -136.557600402832040
-275.797668457031250 12.869933128356934 -136.986002604166660
-272.079750061035160 12.023075103759766 -135.920001983642580
-264.674001057942690 18.264367421468098 -137.203333536783840
-265.963012695312500 20.715799331665039 -135.671997070312500
-262.371498107910160 24.309225082397461 -137.131252288818360
-258.794504801432310 32.699966748555504 -136.908499399820950
-256.626668294270810 36.931533813476562 -138.489003499348970
-254.865067545572910 41.583146667480470 -138.101464843749990
-253.376228919396030 52.014838878925033 -138.336076002854550
-252.489599609375010 59.031850051879886 -138.597099304199220
-250.862553914388030 68.618531968858505 -137.500003390842010
-61.484732945760094 117.662999471028640 -140.864835103352870
-56.288125038146973 116.890750885009770 -142.961997985839840
-170.766998291015620 120.886001586914060 -136.628997802734380
-160.130996704101560 126.336997985839840 -136.337005615234370
-89.870750427246094 126.909500122070310 -137.537498474121090
-80.371590354225859 125.732091036709870 -139.441092751242910
-72.501595717210037 123.338191986083980 -140.008844815767730
-63.778695106506348 121.909861034817170 -139.437054104275180
-56.554222530788849 120.014333089192700 -141.155110677083340
-159.155006408691410 128.309997558593750 -136.627006530761720
-156.190994262695310 130.557006835937500 -136.313003540039060
-114.586997985839840 135.873992919921870 -138.352996826171870
-109.364142281668520 134.687142508370530 -141.186854771205360
-98.958638704740082 132.084921029897830 -139.738999586838930
-89.918152257015834 130.847579152960520 -137.994840923108540
-83.154990386962893 129.743999481201170 -141.327600097656240
-149.095993041992190 139.414993286132810 -136.406997680664060
-146.395000457763670 140.569499969482420 -136.068248748779300
-115.710429600306920 137.051858084542400 -140.841711861746660
-286.910003662109370 -9.949465274810791 -134.594001770019530
-278.680999755859370 -8.891039848327637 -134.822006225585940
-285.441075251652650 -2.833278949444110 -132.727924053485570
-278.134214459043560 -1.212446799783996 -130.534000281131630
-273.730005900065120 -0.276927858591080 -128.407001495361330
-284.411573137555820 5.582191433225360 -131.788146972656250
-279.832484804350770 5.745932743467134 -128.729413525811570
-271.437381519990820 6.708465022199294 -127.576293496524580
-265.212005615234370 6.967710018157959 -127.567001342773440
-279.765759698275870 13.930448269021921 -128.133965327821930
-270.219026353624140 14.994952864117092 -128.581722047593870
-263.806102551912030 15.952005285965768 -128.458999633789060
-280.241333007812500 21.683499654134113 -126.459332784016920
-268.133532355813430 23.719099942375632 -128.282294329474950
-261.600398763020850 25.387203470865884 -130.141831970214840
-266.444396972656250 30.524880218505860 -127.108801269531260
-261.479986056475580 33.060149179378023 -129.717281825105910
-255.435502188546310 34.194921084812712 -130.837141854422440
-259.083845872145450 40.488884852482720 -130.036193554217990
-255.398898315429680 42.496239852905276 -132.311701965332020
-254.323998812971440 50.847920911065465 -130.406861403892780
-251.182048252650670 59.900804973783949 -130.404954092843180
-249.439000909978690 68.726795890114531 -131.147818478670980
-246.747334798177090 70.277599970499679 -127.454249064127610
-249.074501037597660 76.240762710571289 -131.740999221801760
-246.118875503540040 78.060112953186035 -129.023936748504640
-243.505109998914920 85.054423014322921 -127.653221978081600
-207.518997192382810 113.910667419433590 -126.589332580566410
-199.317714146205360 114.464142935616640 -127.353713989257810
-188.270500183105470 116.617750167846680 -127.873373985290530
-181.738230778620790 117.423462500939000 -129.680922288161070
-177.979287283761150 119.062858581542970 -128.613713945661260
-171.091440429687510 121.380719299316410 -130.231759948730460
-163.515371251989310 125.267444186740450 -130.839927108199500
-91.904399871826172 127.419498443603520 -134.680999755859370
-79.106808749112218 126.782546303488990 -132.737999655983660
-72.196899862850415 124.984059277702780 -130.650882272159350
-65.631973266601562 124.383727333762420 -132.995182384144190
-159.270889282226560 128.544664171006960 -130.638554043240020
-154.022352330824900 132.537030388327200 -130.143059450037330
-145.104536790114200 134.812001154972960 -128.015461261455840
-135.393127441406250 132.418752670288090 -127.192248344421390
-127.638165156046550 132.961582183837890 -129.082832972208650
-114.819000244140630 129.659500122070310 -126.589500427246090
-107.424958864847820 132.671499252319340 -131.150875091552730
-99.103612191336495 130.347314671107710 -131.139229256766190
-91.658813222249350 129.279933675130200 -130.460467274983730
-82.018856525421143 128.328001022338870 -129.547249317169190
-68.715634663899735 128.234995524088530 -127.297999064127610
-150.171666463216160 137.087000528971340 -133.258661905924470
-144.406826516856310 138.594739831012220 -132.387870456861410
-124.523499806722000 139.047831217447910 -130.337833404541020
-117.701500701904290 138.715098571777330 -130.295999145507810
-111.348999023437500 137.470667521158840 -133.111668904622410
-277.023513793945310 8.112820148468018 -125.942001342773440
-270.884002685546870 3.226419925689697 -125.964996337890620
-276.977005004882810 17.942150115966797 -125.975997924804690
-272.802998860677060 14.271367073059082 -125.986333211263020
-277.649999445134940 25.014945290305398 -124.654364845969450
-272.405383770282470 24.589284603412334 -125.117999737079330
-263.407775878906250 26.634288787841797 -124.527554829915360
-276.864694213867210 32.109740066528317 -121.339199829101560
-269.680975777762280 33.326995259239560 -122.353475843157090
-262.959639655219180 33.711066616906059 -122.097610685560440
-276.756988525390620 39.105598449707031 -119.228996276855470
-269.350499471028630 40.896727879842125 -118.570334116617840
-261.725373949323400 41.670869418552947 -120.976142474583210
-255.938803100585940 43.376979827880859 -119.312002563476570
-259.760164896647150 48.296324888865151 -120.709791501363110
-254.216481323242190 52.533252105712890 -121.735120239257810
-249.868251037597640 58.695334815979002 -121.463800811767580
-246.735899353027350 62.061680603027341 -120.600699615478520
-249.937500000000000 68.889712969462082 -122.110666275024410
-243.474976702434250 69.381900136063734 -121.315146283405580
-238.109670003255220 72.352900187174484 -118.653333028157550
-248.778444078233520 77.655366685655380 -123.907334221733950
-243.491926984089190 77.946658250762198 -121.913414559713220
-235.580269446739780 78.402976402869598 -119.648768204909100
-229.115997314453120 81.421203613281250 -118.087997436523440
-248.697998046875000 82.986701965332031 -124.778999328613280
-242.787075042724610 87.016000175476080 -121.301399993896480
-233.915000915527340 86.009386952718103 -121.287399800618490
-226.897733561197920 86.177453613281244 -118.255798848470050
-242.670163472493500 93.681999206542969 -119.043333689371750
-232.864334106445310 94.801922268337677 -118.960778130425350
-228.300669352213530 93.696533203125000 -117.629997253417970
-222.613998413085940 108.179000854492190 -119.307998657226560
-219.803497314453120 108.604501724243160 -118.047252655029300
-221.890995025634770 110.201749801635740 -121.240751266479490
-215.974418004353850 111.313707351684570 -121.299874941507980
-207.596210479736330 112.363833109537770 -120.827415466308590
-198.414750417073580 114.323874791463210 -120.836708386739090
-189.663713727678580 116.834049043201260 -121.032762436639700
-184.507995605468750 118.251998901367190 -118.839996337890620
-180.447522844587040 119.751666477748330 -121.756047203427270
-171.881252288818360 122.548250198364260 -121.618626117706300
-163.220401763916020 125.919499206542970 -121.116699981689450
-154.167327880859370 127.376998901367190 -118.415334065755200
-73.885650634765625 127.413501739501950 -124.952499389648440
-158.881000518798830 128.196498870849610 -122.568000793457030
-153.179636868563560 129.663136915727110 -121.980863050981000
-145.188442654079860 130.011517842610690 -122.008111459237550
-136.521614661583530 130.287155151367190 -122.907000028170070
-128.798750877380370 129.777250289916990 -121.649250030517580
-114.937000274658200 129.564502716064450 -120.592750549316410
-108.701406240463260 131.263186931610110 -120.577843904495240
-99.201780700683599 131.684974670410160 -121.607575035095210
-91.050689110389129 131.670191838191100 -121.832038585956280
-82.019816679113049 130.923060697667750 -121.267293593462780
-73.346381447531954 128.745817011052910 -123.464727921919390
-271.253250122070310 44.099399884541832 -115.713167826334640
-262.030316439541880 43.272150213068180 -115.426318081942470
-267.784378051757810 48.511425495147705 -113.551749229431150
-261.087401471819190 50.574011339460100 -114.603571210588730
-254.274045077237220 53.139982223510742 -112.714954723011360
-258.036499023437500 57.252799987792969 -108.581001281738280
-250.920391627720420 58.919749532427105 -111.914893286568780
-245.762052034076900 62.218200282046666 -111.768263164319490
-249.229665120442720 65.551531473795578 -114.106333414713550
-242.790790357087790 68.314087114836042 -113.162474180522720
-236.833760579427090 71.338361104329422 -111.792380560012090
-241.427738355553660 77.515960361646563 -114.363783131475030
-234.149467976888020 77.249888949924042 -112.171177334255650
-227.976625442504880 80.585728645324707 -111.732082684834790
-239.823447333441830 85.944410536024307 -116.038775973849820
-233.615265826789710 87.138026957609213 -112.995999706034750
-224.614360351562510 87.174476318359382 -112.966040344238280
-218.873177921070780 89.550111658432911 -110.860823687385110
-239.916333516438810 94.998566945393875 -116.452331542968750
-233.992544000799000 95.920739838571265 -113.454425002589370
-225.725067138671870 96.420655822753901 -112.115089077419710
-215.926591096100990 95.259092825430415 -112.332926997432000
-209.236375808715820 98.326018333435059 -110.363749980926510
-232.314998626708980 103.270668029785160 -110.710917790730790
-224.877484721522170 104.311097175844250 -110.516257993636590
-216.904195149739590 105.169472588433170 -111.495166990492080
-206.632765377269070 104.290999693029060 -113.699381660012630
-198.967457362583700 106.836999293736040 -111.419171796526230
-192.830497741699220 109.036998748779300 -109.619499206542970
-223.782501220703120 111.028499603271480 -109.821002960205080
-216.830200195312500 111.803499603271490 -109.919400024414060
-207.703997802734360 111.275801086425790 -111.930999755859370
-197.088667551676420 111.065334320068360 -115.437832514444990
-189.044146369485300 112.834823384004480 -112.860823014203230
-180.758893149239670 116.036213738577700 -111.926285334995810
-174.484752655029300 117.820749282836910 -109.617250442504880
-178.266002655029300 119.404748916625980 -116.204000473022460
-170.753999328613280 120.765766652425130 -113.403633117675780
-162.617896244443700 123.681586166908000 -112.661034945783940
-153.802625656127930 126.570915857950850 -113.137291590372730
-159.402716500418530 131.840999058314740 -111.182284763881140
-152.087500000000010 131.904000854492180 -111.890199279785150
-145.176501187411220 130.184864044189450 -113.553182081742720
-134.127643040248330 131.434285845075320 -113.134857722691120
-127.379376411437990 132.615499496459960 -113.452062129974370
-117.752451496739540 132.760838662424390 -112.408386968797260
-108.823374748229980 132.357167561848970 -113.525208155314130
-99.747134489171643 134.091589534983910 -114.996412838206570
-90.825712203979492 134.526123046875000 -115.866000175476070
-84.863502502441406 133.445999145507810 -116.904998779296870
-144.796997070312500 138.914001464843750 -108.680999755859370
-136.193333943684910 139.763997395833340 -110.489667256673170
-127.288846529447110 139.519539466271030 -112.790846604567310
-116.437667338053390 138.247133382161450 -110.739934285481770
-108.149428776332310 137.742784772600460 -112.178713662283760
-98.809919738769537 136.888400268554680 -112.502600097656260
-251.592506408691410 53.834949493408203 -106.737503051757810
-259.420989990234370 55.739200592041016 -106.516998291015620
-252.075565503991160 60.991586768108867 -104.574521272078800
-244.031907515092340 62.281999761408024 -105.686817515980110
-248.449335734049470 65.336916605631515 -104.424832661946610
-242.906450825352830 68.325752012191273 -103.506354547316020
-236.057832505967890 71.002956390380859 -104.131333669026690
-239.541999816894530 74.686302185058594 -106.677001953125000
-233.340874989827480 76.881446202596024 -102.595828374226880
-228.176902770996090 80.958999633789063 -104.578800201416020
-229.983993530273440 84.287498474121094 -106.987998962402340
-224.741463797433030 85.098803111485068 -103.757571901593890
-218.814070565359940 89.859886714390342 -105.073643275669640
-214.808304496433440 94.490818189538047 -103.574203822923750
-208.846062660217290 98.036706924438477 -104.897438049316410
-228.753005981445310 108.862998962402340 -107.874000549316410
-212.841003417968750 103.041999816894530 -100.591003417968750
-206.191307654747590 105.290384145883410 -104.478999798114490
-198.611111111111110 105.695111592610670 -105.402887980143230
-192.496498107910160 108.781751632690430 -105.261999130249020
-206.644500732421870 110.941501617431640 -101.863998413085940
-198.014266967773440 113.278066507975250 -102.965665690104160
-189.591618855794280 113.052095322381890 -104.400619870140450
-182.034498596191410 114.857300567626950 -105.718299865722660
-175.098999023437500 117.625000000000000 -106.832000732421870
-195.779998779296870 118.902999877929690 -105.024002075195310
-189.504333496093750 122.752110799153640 -102.095043606228300
-180.601691612830540 122.893000089205230 -102.447561997633710
-171.109667096819210 121.535572233654210 -104.363274710518980
-164.833873748779300 125.286375045776370 -103.195261955261230
-155.900505065917970 126.190498352050780 -104.783000946044920
-178.580123901367190 129.398874282836910 -100.815449714660640
-171.542549133300780 131.963500213623040 -101.353744506835940
-162.189939094312250 132.749243071585000 -102.075960563890860
-154.532386192908660 133.801308265099150 -102.865307147686290
-145.141166687011720 135.624501546223970 -103.881167093912770
-133.832668304443360 132.940418243408200 -105.327833811442060
-126.558307941143330 132.896998478816100 -106.883692227877110
-120.725997924804690 135.024002075195310 -108.010002136230470
-161.859497070312500 136.930496215820310 -104.699001312255860
-143.822586059570310 137.834999084472660 -105.831083297729490
-135.673334757486970 137.888584136962890 -106.111333211263020
-126.402385418231670 138.858078002929690 -107.423077509953430
-117.624000549316410 138.967498779296870 -107.929500579833980
-242.417001342773430 69.803601074218747 -98.807478332519537
-233.342799377441390 80.262220001220697 -97.700341033935544
-231.397635719992910 85.056736339222297 -94.708136818625704
-226.771880493164080 88.589584350585937 -96.119075622558597
-223.317062377929690 95.264156341552734 -93.833706378936768
-218.360833485921230 96.731857299804687 -95.472592035929367
-210.610000610351560 96.797897338867188 -94.043800354003906
-222.755004882812500 100.919998168945310 -93.423103332519531
-216.158050537109370 104.949420326634450 -94.351421155427630
-207.729533894856760 106.319932556152340 -94.654539489746099
-199.107798767089830 107.755001068115230 -95.171700286865232
-212.893005371093750 110.844001770019530 -95.204101562500000
-207.370570591517860 111.731427873883930 -95.242914472307476
-198.861848449707030 114.071200561523440 -95.361505126953119
-189.685764985926000 114.266764472512630 -96.291447807760804
-182.876332600911470 117.101999918619800 -96.710767110188797
-197.835250854492190 118.975000381469730 -96.767724990844727
-189.337187767028810 121.797999382019040 -97.483567714691162
-180.292135758833440 122.402863935990770 -97.598754536021843
-171.895767211914060 124.906230046198910 -98.504161541278549
-166.824005126953120 127.088996887207030 -98.418800354003906
-169.826995849609370 128.996498107910160 -98.865001678466797
-164.841334025065090 128.996332804361970 -98.878799438476562
