ply
format ascii 1.0
element vertex 719
property double x
property double y
property double z
end_header
-32.807200431823730 223.009376525878910 -122.028999328613280
-33.805042811802458 228.113571166992190 -119.098857334681920
-35.091612339019775 216.027997970581050 -113.685750007629390
-35.317103155728041 222.210208235115830 -112.949517348717000
-41.393901824951172 242.444000244140620 -111.083000183105470
-35.752399444580078 238.700666639539920 -112.843889024522570
-32.673800468444824 215.380252838134770 -105.816249847412110
-35.489885602678569 221.465502057756710 -102.065743582589290
-42.362533569335938 231.244915008544920 -102.099083582560230
-38.646835872105193 232.989427839006710 -105.594356536865230
-42.298749542236330 238.613198852539060 -100.487220001220710
-38.781979751586917 239.406498718261730 -103.211299133300780
-42.212000274658202 249.725201416015640 -103.846600341796870
-38.535683737860786 247.904277377658420 -104.003743913438580
-35.359779739379881 224.794201660156260 -97.942420959472656
-42.971278871808735 232.647070748465410 -94.511113848005024
-36.447619544135200 230.683500077989380 -93.501764297485352
-45.643793360392252 240.566599527994780 -95.589653269449869
-45.518082346235005 246.716141836983810 -93.799253736223491
-47.161642892020090 257.693856375558030 -94.379271371023989
-50.947601318359375 273.052001953125000 -90.700798034667969
-44.875488281250000 240.537639160156260 -85.783579406738284
-36.531348827273348 239.676953692768900 -86.150439595067226
-51.916614532470703 250.462142217726920 -85.750957670665926
-46.986820856730141 249.111459096272800 -85.034254391988114
-38.787459564208987 245.279199218749990 -82.077758789062500
-52.439174890518188 256.781125068664550 -83.387587547302246
-47.857749700546265 257.239814758300780 -84.309087276458740
-52.648519515991211 267.023995971679710 -85.304489135742187
-47.927450656890869 265.313373565673830 -83.638375282287598
-54.179425716400146 275.557880401611330 -84.507850646972656
-54.060082753499351 282.245829264322940 -83.474132537841797
-27.505633036295574 241.336999257405610 -80.064016342163086
-51.738036762584336 250.788361982865780 -77.859681562943891
-45.152773949407759 250.383387904013350 -77.474038647067161
-36.471149781171015 248.808881871840530 -76.979909111471741
-29.141871876186794 247.379832797580290 -76.170600043402771
-59.352699279785156 261.416992187500000 -76.941497802734375
-53.834192867936757 258.400724213698820 -76.491048352471708
-46.600206920078826 256.316070556640620 -74.814928872244693
-59.804066340128578 268.357335408528630 -73.554916381835938
-54.429692701859906 266.126963667436090 -76.611400396173650
-58.909198760986328 279.020996093750000 -76.657997131347656
-55.719090143839516 275.998900349934900 -75.457190450032556
-60.794825236002602 285.326505025227850 -74.679283142089844
-56.490868495060845 282.123154860276430 -77.373393132136414
-60.063199361165367 294.310668945312500 -72.797332763671875
-36.039887428283691 252.386623382568360 -69.171825408935547
-53.977136611938477 260.193088878284810 -69.841950156471952
-44.914059884207589 258.287857491629440 -67.938394383021759
-39.236000537872314 254.595251083374020 -66.532975196838379
-60.687213389078778 268.588134765625000 -67.349326324462893
-55.519311731511898 266.058908173532190 -66.814763502641156
-48.531979370117185 263.324798583984370 -64.508599853515619
-68.424598693847656 278.638000488281250 -63.970100402832031
-62.948965184828815 276.028619205250440 -66.606670940623559
-57.093711853027344 276.064767276539500 -69.789264454561120
-62.091780621072523 285.110761559527870 -66.028940781303078
-58.293800354003906 281.059753417968750 -68.595199584960938
-61.831047459652552 293.192260742187500 -67.657505637721016
-63.900168100992836 301.457661946614560 -66.300801595052079
-70.354896545410156 309.441009521484370 -64.300399780273438
-42.375741958618164 260.528495788574220 -60.109633763631187
-39.423969650268553 257.887400817871080 -60.048260498046872
-61.644239807128905 270.200799560546900 -62.194139099121095
-54.153239208719008 269.569695514181380 -60.631734433381453
-45.447434632674508 266.391435706097130 -58.033430265343711
-68.595600128173828 278.431755065917970 -56.936249732971191
-63.617665195465086 275.998699188232420 -57.959505271911624
-55.421415328979492 273.307550048828150 -56.641760444641115
-77.001701354980469 289.096984863281250 -54.849601745605469
-70.605671644210815 285.455093383789060 -58.348552823066711
-64.733989314029088 285.973446494654580 -60.700436742682207
-78.852302551269531 291.059997558593750 -54.680198669433594
-70.996232441493447 293.465430123465410 -56.031089510236470
-65.234972979571367 293.748541754645260 -59.295951533961940
-70.115326221172623 302.139309222881590 -57.228330905620865
-66.800255669487854 299.968224419487850 -58.983267042371963
-79.450100708007810 314.024603271484350 -56.211800384521482
-74.244248708089188 310.273173014322940 -58.484100341796875
-82.587303161621094 317.304992675781250 -54.488399505615234
-43.956748962402344 270.835998535156250 -53.455799102783203
-60.730200086321148 279.469573974609380 -52.460000719342915
-54.060213609175250 276.850770430131380 -52.157854600386187
-47.277824878692627 275.644435882568360 -51.752431154251099
-71.011599996815562 286.261306099269690 -50.018391318943188
-64.118427539693897 283.368206155711220 -49.385382816709324
-54.387061013115776 282.908443874782960 -47.904555426703560
-48.794700622558594 281.118011474609370 -48.795898437500000
-78.577035631452290 295.235070364815840 -50.110157285417827
-73.177204677036826 293.853547595796160 -50.188438143048970
-80.005372560941254 302.317767803485590 -47.433865620539741
-73.223395814286903 302.367106985538560 -50.217446996810587
-80.468719991048175 313.735331217447940 -50.464826965332030
-88.055327675559298 321.956997958096570 -48.276027332652696
-84.002249908447268 317.714501953125020 -49.010020065307614
-91.094599405924484 327.692993164062500 -46.566733042399086
-68.390403747558594 289.510009765625000 -45.039699554443359
-63.103531750765711 287.340319546786250 -42.358158805153586
-56.308492513803337 287.297154353215150 -42.506584460918717
-78.717149734497070 296.458129882812500 -43.213613033294678
-72.204278994829224 294.309204884064510 -41.096643398969604
-64.552325010299683 290.896060943603520 -38.264099836349487
-56.618466695149742 290.298833211263000 -37.942132949829102
-87.170525550842285 305.480247497558590 -41.317162513732910
-80.929849836561417 303.092748853895390 -40.440552711486816
-76.023937225341797 301.315753936767580 -39.102337837219238
-89.043833923339847 312.597800699869770 -38.364719899495441
-81.959254290606523 312.003891403610620 -41.076702530319629
-76.758102416992187 309.066986083984370 -44.586601257324219
-87.949435609759703 322.530209628018440 -40.828472946629383
-84.226993560791016 318.541875839233400 -41.222762584686279
-91.177663388459578 329.523499198581870 -40.581997995791227
-95.688824971516922 341.371251424153630 -37.640291213989258
-93.805740865071613 336.485131835937520 -39.665273284912111
-96.887849807739258 345.530494689941410 -37.110500335693359
-70.339994158063618 297.167787824358240 -32.694078309195383
-64.151473999023438 294.400564442510190 -32.309365231057875
-58.192933400472008 292.041666666666690 -34.197600046793617
-80.156195207075640 305.220547762784070 -32.800945281982422
-73.764488220214844 300.084646785960500 -31.068276573629941
-88.649579162597661 313.131040039062500 -31.536423873901366
-83.575628553118023 310.230575561523440 -30.687542915344238
-97.207000096638993 322.104080200195310 -30.017874717712402
-90.336927096048996 321.346916834513370 -32.337481300036110
-84.885900878906256 319.496606445312520 -35.406100463867190
-96.561250305175776 329.260101318359370 -27.954020118713380
-92.120478947957352 329.737290700276670 -31.265216986338299
-96.403519330705919 339.809913853236590 -31.432968575613838
-94.304317474365234 335.469334920247380 -33.673767089843750
-98.508665665336281 347.286698051120940 -31.452108549035113
-99.438378906249994 354.214801025390610 -29.535079956054688
-78.238739776611325 306.118005371093770 -24.085750007629393
-74.095711341271027 302.450962946965150 -22.295980673569900
-66.846199035644531 299.011993408203120 -26.602800369262695
-86.569774627685547 315.752494812011720 -25.152949333190918
-81.224870263076411 311.895489948551810 -22.366641300480541
-76.679901123046875 309.135009765625000 -18.761299133300781
-96.590644836425781 323.387765737680300 -22.848100075354942
-90.411739349365234 320.495865561745400 -22.057004538449373
-84.458371843610493 317.447431291852690 -19.855642863682338
-104.712497711181640 331.546752929687500 -22.072925090789795
-99.297732671101883 329.864999559190550 -23.121161248948837
-93.659299214680985 329.340332031250000 -26.436450004577637
-105.931533304850260 337.750669352213550 -19.601186625162761
-99.416428120930988 339.020350646972640 -22.720831743876140
-104.850249290466310 349.545879364013670 -18.960450649261475
-101.136593485987460 347.779721991960400 -22.297427953675736
-106.673815126772280 357.705294008608230 -21.532403663352685
-102.166933695475270 354.986667887369780 -24.073553339640299
-112.986999511718750 369.005004882812500 -18.660299301147461
-110.919400533040360 365.122200520833360 -21.113020070393880
-113.128997802734370 370.940002441406250 -18.695299148559570
-73.337919616699224 305.443402099609390 -16.934339904785155
-78.436398824055985 314.443832397460940 -17.304433186848957
-75.275857289632157 312.006914774576840 -15.556633392969767
-87.828016427847061 323.890305739182680 -14.875584602355957
-81.458382999195777 320.030704273897070 -14.146547177258659
-75.942698160807296 317.960998535156250 -12.202933311462402
-104.924667358398440 333.514668782552060 -15.176533381144205
-99.071960449218750 331.098688616071460 -14.131785665239606
-92.137400309244796 327.100999620225710 -13.288777881198460
-113.981998443603520 343.178497314453120 -12.789799690246582
-107.608428955078120 339.896498907180050 -14.185072467440651
-102.167635830965910 338.751817183061060 -14.170050360939719
-115.006461510291470 348.591231126051700 -10.775014583881084
-108.298565408457880 348.272302378778870 -13.519221761952275
-102.756999969482420 346.987747192382810 -16.520737648010254
-114.000907204367890 358.496815074573870 -10.712538979270242
-110.265061826122050 356.360775694555170 -13.317517280578613
-116.108580558530750 366.613580519153230 -12.280350685119629
-112.259857177734370 364.060568673270100 -14.682943071637835
-124.424867248535150 377.069065348307280 -11.714283307393393
-118.216652248216720 373.054870605468750 -13.788504351740299
-131.184997558593750 380.279998779296870 -9.197469711303711
-86.798950195312500 325.106994628906250 -6.670289993286133
-83.356730534480164 323.549461951622620 -6.322659680476556
-96.646750313895083 332.680565970284590 -6.131399273872376
-91.073771449497769 328.806685965401810 -4.050245770386288
-112.912002563476560 342.899993896484370 -8.537890434265137
-106.877999678902000 341.663259755010190 -5.647313283837360
-100.349562835693360 337.382065836588540 -4.094844174881776
-116.079416910807300 348.913249969482420 -4.660127631078164
-110.133864316073330 346.445453990589500 -3.358051638372920
-124.298357827322820 358.381075177873870 -2.234352126717567
-117.039072626287290 357.047184059836640 -5.649822996421293
-111.913749694824220 354.597496032714840 -8.135630011558533
-123.471777598063160 366.659830729166690 -2.546931628551748
-118.926083882649730 364.747001647949220 -5.562902112801869
-131.004999796549470 378.185994466145810 -4.705459912618001
-126.823147044462320 373.988293816061570 -5.046346735647497
-141.451499938964840 386.601989746093750 -1.637681484222412
-133.249003092447910 380.562662760416690 -2.561884363492330
-130.477996826171870 379.640991210937500 -8.455019950866699
-144.884599304199210 391.589996337890620 -1.192171370983124
-496.918430873325920 422.334995814732170 -7.297731535775321
-495.465116060697140 429.298540555513800 -3.027546534171471
-492.716369628906250 438.057498931884770 -1.599099770188332
-492.727493286132810 444.045989990234370 -0.603458493947983
-89.364462045522842 331.385692889873780 1.609365150332451
-98.705378482216290 341.182840447676820 2.001188071934800
-92.582558079769740 337.915315326891460 3.309801669497239
-114.880798339843750 351.289398193359370 1.113278964906931
-107.785731388972350 348.802539532001220 2.985452991265517
-99.367782310203268 347.480186179832170 5.024735936412105
-94.324199676513672 346.335006713867190 6.642215013504028
-125.014846214881320 359.575303297776430 4.486918100943933
-117.708947031121510 356.049104389391460 5.089247352590687
-109.152555253770610 354.744608561197940 7.067343870798747
-100.869433932834200 353.983778211805540 7.480443371666802
-133.404888576931430 367.324113633897580 5.440294451183743
-127.815544821999300 365.131548794833120 3.126550113941035
-133.923000833262560 374.444476583729620 6.516981327015420
-128.429428100585940 371.844281877790190 2.442443830626352
-141.393765617819380 386.354648365693950 3.542751164997325
-138.078223334418400 382.728997124565980 6.149754471249050
-143.715461926582520 392.749924097305670 4.178351778250474
-149.237503051757810 405.532501220703130 8.101039886474609
-146.937368292557580 401.949260510896410 4.885074188834743
-149.346572875976560 409.715135846819180 7.901591437203543
-147.923570905412960 408.255571637834810 5.538670028959002
-496.871246337890620 432.996246337890620 0.790520507842302
-495.290855771019320 438.116192045665910 3.428794664996011
-493.690579063013960 446.816578112150470 4.545382135792782
-493.399375915527340 456.076625823974610 6.497447550296783
-492.356715611049080 463.565285818917400 6.486218588692801
-490.414001464843750 468.860992431640620 7.353980064392090
-94.547901153564453 350.147994995117190 9.141035079956055
-122.725997924804690 361.326995849609370 9.142789840698242
-116.410556369357640 360.251668294270810 9.949672275119358
-107.997917811075850 359.616338094075500 10.255343357721964
-101.343050956726070 359.354125976562500 10.256004810333252
-94.858398437500000 353.033996582031250 9.402959823608398
-132.235144478934160 368.667711530412930 11.893220084054130
-126.303750356038410 366.759777492947020 13.302957614262899
-118.343429565429690 365.524618966238850 13.000123932248069
-108.834332784016920 365.972759428478410 12.744509469895135
-102.362501144409180 364.428001403808590 12.164249897003174
-142.609784807477670 378.011784144810290 14.081985677991595
-136.189296581127020 374.306855378327550 14.038827719511810
-124.801000421697440 373.946363969282690 17.054772637107156
-117.640250205993650 374.978468894958500 15.555190652608871
-110.467583338419600 373.157333374023440 14.143466790517172
-144.231321411132830 384.154919433593760 15.197731971740723
-138.053198242187510 382.245605468750000 10.979376220703125
-118.769201660156260 381.783404541015610 17.084060287475587
-112.762001037597660 380.790008544921870 17.824499130249023
-149.050003051757810 396.802001953125000 17.232000350952148
-145.723890177408860 393.138110351562490 13.830308447943793
-150.977941625258500 402.336292940027590 14.464497958912569
-147.925554063585080 400.316219753689210 11.007904370625814
-153.262219312714360 411.196245891291940 13.717300484820109
-154.111832173665360 419.496331787109400 14.828189913431803
-155.760498046875000 425.367752075195310 17.063075065612793
-494.692159799429080 448.348386324369020 11.434952222383940
-493.141796875000010 456.032148742675760 13.377273607254029
-491.586187362670900 463.294500350952150 13.125667989253998
-490.364112006293400 468.007222493489560 13.801463339063856
-488.167352294921900 473.989747619628930 13.693277120590210
-484.498790540193280 482.774473491467920 14.646678974753932
-482.046997070312500 488.630004882812500 16.301449775695801
-481.097790527343760 490.762603759765620 16.625260162353516
-479.131988525390620 497.209991455078120 17.451599121093750
-141.099250793457030 378.896995544433590 19.713150024414063
-135.151178632463740 376.937785557338150 21.768153531210764
-126.834299723307300 376.234465535481770 20.505616823832195
-119.982999801635740 377.903255462646480 19.068837881088257
-151.419909390536220 386.836819735440320 21.375281767411664
-144.820822034563350 383.219642639160160 22.855624948229110
-134.358272205699560 381.051455411044060 25.710518230091441
-125.551212878937420 382.528085911527570 22.975363914002763
-119.316999352496610 383.539128842561130 20.753469467163086
-160.271998478816100 395.018153263972350 25.529923218947189
-153.317650728447490 393.568233046420800 22.214893030565840
-147.737908103249280 392.560186212713060 19.900881853970613
-122.616996765136720 388.846984863281250 25.697799682617188
-159.206667582194000 401.503501892089840 26.233650048573811
-154.233845343956570 402.103692861703730 22.224799926464375
-160.043362704190340 411.415878758286000 23.307430440729316
-156.182234820197610 408.832763671875000 20.284294352811926
-161.728851767147290 420.126384959501370 23.057835242327521
-157.694000244140620 420.897003173828120 18.592140197753906
-161.372228131975450 428.502798897879470 23.430857140677315
-157.153751373291020 427.032249450683590 18.893175125122070
-161.392168680826810 434.430669148763000 25.762216567993164
-493.746594238281260 457.488995361328140 19.697480010986329
-492.043265787760390 463.949932861328140 22.514206695556641
-490.405194091796890 468.482397460937480 21.796899795532227
-488.422876358032230 474.067747116088870 22.377218961715698
-484.518570672898080 482.923569452194950 22.519371396019345
-480.052314758300780 492.084749221801760 22.388937354087830
-475.904000022194620 500.208408702503560 22.827213634144176
-471.571739196777340 504.739006042480470 24.301875114440918
-467.512995402018250 506.674835205078120 24.722783406575520
-463.040008544921870 507.944000244140620 25.323699951171875
-149.274993896484370 388.515991210937500 27.809799194335938
-143.800477905273420 385.844639892578130 30.040499954223634
-135.930730966421270 384.287270179161680 30.169638487008903
-127.962001546223960 386.012801106770840 28.498840077718100
-161.675251007080080 397.157501220703120 29.069650173187256
-153.235938072204590 392.779872894287110 31.339571952819824
-147.683401489257820 389.390600585937480 33.854059600830077
-137.458669026692720 388.861663818359370 35.538066864013672
-127.002428327287940 389.443280901227690 30.950542722429550
-168.144286019461500 403.130070277622790 31.809714181082590
-162.503476824079230 401.826168241954970 30.915580749511719
-156.111999511718750 402.438323974609380 27.630433400472004
-170.509724057953950 411.205411713698820 33.816386255724680
-163.919922266251010 411.028973701672670 29.721651126176884
-170.170714605422230 420.100264049711650 33.122019086565288
-165.566267903645840 419.750134277343760 29.700699996948241
-176.542503356933590 427.987991333007810 35.794149398803711
-171.225761745287030 428.770631209663750 32.531358801800273
-165.589459932767430 429.875539926382200 28.098430926983173
-169.831172777258840 437.158392864724870 34.050591427346937
-164.505499521891270 438.257081349690740 30.633658170700073
-166.942001342773440 443.114013671875000 35.238300323486328
-165.752329508463530 443.671661376953120 34.481666564941406
-491.775329589843750 468.525329589843750 28.653765996297199
-490.669006347656250 468.953002929687500 27.393999099731445
-488.891311645507810 474.608499526977540 30.611556529998779
-484.649434407552060 483.404201253255220 31.245796648661294
-481.886993408203120 488.388000488281250 35.474998474121094
-479.010265096028660 492.457834879557310 31.496869723002117
-474.808097839355470 498.802349853515640 30.793099880218506
-470.826271750710250 503.226183804598750 31.820545716719195
-466.503877639770510 506.855064392089840 31.252331256866455
-459.598808651878700 509.193048386346730 31.293880916777113
-450.824233111213230 511.161884981043220 33.928147372077490
-152.618087768554690 394.962606678838310 39.935778576394789
-145.763200073242190 392.221639404296870 41.102652130126955
-167.223007202148440 406.263000488281250 37.599300384521484
-162.687689419450440 402.599516769935350 40.367841260186559
-155.557144165039060 398.444710867745530 43.185829162597656
-178.831887139214420 413.437559339735230 39.044566684299042
-171.822355208858370 411.530968450730820 40.353616160731164
-194.083999633789060 422.597991943359370 44.822601318359375
-189.063866170247390 421.745469156901040 43.629926554361980
-179.790946558902140 420.165498432360210 39.908415944952715
-172.652068074544270 419.313730875651060 37.370012919108071
-187.033896636962880 429.352801513671860 43.787709999084470
-180.549162753792700 429.078743868095960 39.452785846798918
-187.840046473911830 437.752476283482170 43.522909436907085
-180.444584316677520 437.952888488769530 40.074630631340874
-173.392999921526240 438.855928693498870 36.965064457484651
-187.100500106811520 445.782497406005860 44.099699974060059
-179.905736822831020 446.828944959138600 42.657523606952871
-172.564416885375980 446.045082092285160 39.815174897511802
-187.362997436523440 456.600195312499980 44.552041625976564
-181.352788652692510 454.414069039481030 43.728821345738005
-175.539993286132810 452.523010253906250 42.592399597167969
-488.960998535156250 477.096008300781250 37.348201751708984
-243.805999755859370 477.004753112792970 43.371199607849121
-234.171286446707600 475.674146379743320 42.943541935511995
-225.759122848510740 474.458499908447270 43.298612117767334
-485.717958984375000 483.737241210937500 39.885188140869140
-482.526336669921870 488.825002034505190 41.411500295003258
-478.807961425781230 493.051918945312480 40.426087951660158
-473.985834757487000 498.190083821614560 40.364616711934410
-469.247915516728940 502.659215512483000 40.222069450046703
-465.102005004882810 506.305126190185550 40.369688034057617
-459.301743118851280 510.335295500578700 40.334896370216654
-451.472357613699780 513.490182059151830 40.010685784476145
-442.807502746582030 513.706756591796870 37.304599761962891
-448.355410257975280 515.580657958984380 42.695475260416664
-443.314998626708980 516.417629241943360 41.604274749755859
-149.860496520996090 396.976989746093750 45.378650665283203
-144.154686927795410 395.683313369750980 47.161799669265747
-139.067001342773440 394.660003662109370 47.721298217773437
-162.054002241654840 404.025545987215930 46.836153897372157
-152.983529567718510 401.723249435424800 48.519396781921387
-145.750136635520250 401.209135575728000 50.961127194491297
-176.677497863769530 415.321014404296880 48.428850173950195
-171.256148726851850 412.177298086660870 48.848270416259766
-162.627592863859950 411.218740957754620 50.194777453387225
-153.975958119268000 410.434953772503380 52.337021703305453
-148.166000366210940 407.734670003255190 53.304332733154297
-195.206001281738280 423.932510375976560 45.540798187255859
-189.486995697021480 423.940750122070310 48.971349716186523
-180.057646358714380 418.996910544002730 49.331032248104322
-170.354503631591800 417.536624908447270 53.097812175750732
-162.669229360727170 418.370464618389410 52.861430534949669
-155.889247894287110 418.016746520996090 53.528625488281250
-204.614498138427730 432.902496337890620 50.394701004028320
-197.082499577448910 430.176807110126220 49.172023479755111
-190.455030104693240 428.195824118221480 48.528155719532684
-205.848000420464420 437.799296061197940 52.388251834445526
-198.160530090332030 437.873936653137210 49.596162319183350
-192.215401204427080 437.527534993489610 46.481686655680342
-205.332618350074400 447.740288144066200 52.367366972423739
-198.655211599249580 446.760576750102810 49.196960649992292
-189.838528801413130 447.338411218979790 46.811499763937555
-181.619726007634940 449.060455322265620 45.940127632834695
-212.614602661132810 459.014404296875000 53.349379730224612
-207.529372869753360 457.034020517386640 51.548800150553383
-198.814304775661900 456.020195007324220 48.716341548495819
-190.247261329933450 456.106631808810790 46.697840796576607
-183.198499043782560 453.832667032877620 46.464300155639648
-223.336683574475730 467.996366802014790 52.165047494988691
-216.036475760037770 465.338559510277950 50.625758999683818
-209.178728277033030 462.524910666725870 49.755499579689719
-197.925201416015620 461.125598144531240 47.294580841064452
-191.634002685546870 461.463663736979190 45.421466827392578
-248.967502593994140 478.313507080078130 49.419500350952148
-243.384362654252500 476.298726862127130 49.635045485063031
-234.289518003110540 473.944370976200790 49.403544390643084
-225.938575363159170 471.582801055908190 48.485920238494870
-219.545000712076810 470.606669108072940 46.386250813802086
-484.986999511718750 487.143005371093750 45.327800750732422
-259.204093239524130 484.667818936434680 50.224218195134945
-253.045050811767570 480.697146606445300 49.886299896240232
-483.397853306361580 489.916857038225430 46.755057198660715
-478.721305515455190 494.193957784901500 48.315782795781672
-269.229287283761150 492.366428920200920 52.593971252441406
-264.278717041015620 488.655569893973220 52.361715044294087
-474.285284859793530 498.046643938337070 49.660699571881977
-468.460697058475380 502.720876982717810 49.563418301669032
-464.145996093750000 506.069000244140620 45.358398437500000
-459.510711669921870 508.836612824470760 49.193157811318677
-452.247732062088800 513.031156841077290 49.766852328651829
-448.058124542236330 515.879749298095700 48.227649688720703
-441.689088240913750 518.736131751019000 50.698791006337039
-435.272997174944180 522.228707449776830 52.188299996512278
-430.967336018880190 524.542338053385380 52.740200042724609
-423.055686950683590 528.774127960205080 51.852593898773193
-417.634746551513670 531.359512329101560 50.166424751281738
-413.529000418526780 534.482421875000000 52.519899640764507
-408.348754882812500 538.046997070312500 52.940400123596191
-150.062500000000000 412.855499267578120 54.120500564575195
-145.548334757486970 407.600667317708310 54.265467325846352
-184.942001342773440 422.664001464843750 55.733898162841797
-179.700834486219610 421.579615275065120 56.090760972764755
-171.639097667875750 421.643859863281250 55.892314547584171
-163.419902038574210 422.015097045898410 54.787790298461914
-155.014999389648440 419.587331136067690 54.134466807047524
-195.697726162997160 432.323272705078120 58.818972847678445
-189.706299336751300 428.400769042968760 58.965246709187824
-180.470479550568970 427.266521951426630 60.287752234417461
-170.964630692093460 428.093849464699080 60.014414610686124
-163.438811302185060 427.139871597290040 57.621418952941895
-212.541999816894530 441.302490234375000 55.297399520874023
-207.575999450683580 440.483703613281250 56.455459594726563
-199.113502502441410 435.060831705729190 58.718601226806641
-223.593505859375000 451.098999023437500 60.884099960327148
-215.245077279897830 448.050383347731380 57.610880631666916
-209.783667428152910 446.814335414341540 55.361671266101652
-230.619003295898440 454.550994873046870 61.958400726318359
-224.733608245849610 456.416607448032950 61.256121362958638
-216.024278977338010 456.342014537138080 56.734568876378674
-210.843666924370670 453.342332628038210 54.500688764784073
-232.082736366673520 467.391580682051820 60.283415944952715
-225.632850484645100 464.668529753989390 57.687295873114401
-218.921945359971800 462.274056328667540 55.307377921210396
-249.944374084472660 477.407878875732420 59.343637943267822
-243.193054199218750 474.185633609169430 58.618747108861022
-235.305636319247160 471.081592906605120 57.233186548406429
-259.224105834960940 485.106212071010020 58.760653359549387
-254.034750620524080 480.388165791829410 58.738932609558105
-268.661839599609380 493.927562255859360 58.437388305664065
-263.094775729709230 490.225918240017340 58.619972546895347
-473.923507690429690 499.192001342773440 55.333349227905273
-467.440355573381680 503.268284388950920 57.088914326259065
-462.889999389648440 505.152999877929690 60.398698806762695
-277.058722601996520 501.690500895182310 58.918905258178711
-272.223541259765620 497.819385235126220 59.695715097280647
-459.292279052734390 507.447761230468760 57.778640136718749
-450.206114548903260 511.786918053260190 58.218445851252632
-444.923675537109370 513.886657714843750 60.108434041341148
-281.963005065917970 507.468750000000000 60.920850753784180
-440.786297607421890 516.541201782226610 58.115570068359375
-432.649188006365760 520.379817256221030 58.675422244601776
-425.104570661272310 522.454842703683080 61.367601122174946
-429.184494018554690 524.248245239257810 55.728250503540039
-422.592563883463530 526.560534667968800 58.355813217163089
-415.424199218750000 530.186757812499990 59.808252410888670
-411.994229830228390 534.335768479567260 57.483261695274940
-405.803440767176030 537.672235825482520 60.032876407398895
-367.825500488281250 537.722015380859370 61.689350128173828
-363.835998535156250 537.643005371093750 61.574550628662109
-195.727500915527340 433.194000244140620 63.241350173950195
-189.058553059895840 432.117224799262150 64.090744866265197
-180.671855381556920 432.198065621512280 64.207057135445737
-173.359748840332030 432.673248291015620 63.808625221252441
-204.794998168945310 440.054005940755190 65.890869140625000
-198.192974291349710 438.024604395816200 65.940721612227591
-189.497499465942380 437.513126373291020 68.847581624984741
-181.497624715169280 436.533833821614560 68.377375125885010
-173.771003723144530 433.945510864257810 65.351753234863281
-220.947006225585940 450.837005615234370 69.615097045898437
-215.407334100632450 448.307668050130190 69.800090608142668
-207.110306177383820 446.891025641025640 69.939897390512314
-199.224248886108400 444.396059036254880 70.073487758636475
-193.069000244140620 442.723495483398440 70.849250793457031
-232.334858485630580 458.065434047154040 64.630328587123330
-226.261000061035160 456.313601684570300 67.965300369262692
-216.727001190185550 452.690994262695310 69.899900436401367
-207.865249633789060 453.017250061035160 71.441051483154297
-250.367599487304690 468.289196777343760 69.443299865722651
-243.125143868582600 466.693930489676350 67.803356715611045
-235.413457870483400 464.176624298095700 64.798675060272217
-257.732421875000000 474.936575753348220 71.220384870256694
-251.787000656127930 475.414726257324220 67.578052711486819
-244.130159076891460 472.119839316920210 65.408894990619856
-267.128997802734370 486.456005859375010 70.783020019531250
-260.655310058593730 483.610489230685740 67.144952816433374
-255.046705358168650 479.935352998621340 65.552005992216223
-275.906997680664060 494.969512939453120 71.305648803710938
-270.141587999131960 492.442137824164490 67.454341676500107
-263.801222059461790 489.393561469184020 64.302678002251525
-458.998335096571170 504.864451090494810 66.658222622341583
-453.864013671875000 505.091995239257810 70.392047882080078
-284.308990478515620 505.365997314453120 71.828697204589844
-278.539632657679140 501.733536138767140 67.840836501703023
-273.155003865559880 498.047498067220030 64.566308657328292
-456.891854422433030 506.321568080357170 64.579413277762271
-450.163532511393210 508.632200113932300 66.710256703694668
-441.808256926359950 512.402188901548020 67.971885398582174
-436.585998535156250 514.456970214843750 69.169700622558594
-286.012125015258790 510.823125839233400 69.350143432617188
-282.050352208754590 507.526586196001860 66.048605301800890
-438.899749755859370 515.219497680664060 64.430423736572266
-432.131996486497940 516.662613578464630 67.108190951140031
-423.113218307495120 519.529277801513670 67.043284058570862
-415.824123382568360 519.520256042480470 70.364324569702148
-404.464670817057310 521.274831136067750 71.031050364176437
-398.648010253906250 522.874496459960940 71.543525695800781
-292.868988037109370 519.020996093750000 71.359397888183594
-290.419169108072940 516.133341471354130 70.758566538492843
-413.816828409830750 527.335673014322880 63.642866134643555
-405.078219943576410 528.854329427083370 66.322310977511933
-396.646548184481560 528.044777610085250 69.807733015580610
-387.686148507254470 530.481846400669610 71.374371119907920
-375.519327799479190 531.713989257812500 71.391766866048172
-369.718994140625000 531.421857561383940 70.892927987234927
-362.074855259486580 531.403712681361640 71.396171569824219
-403.322504679362000 535.501505533854130 63.925699234008789
-396.602666219075500 537.496268717447950 66.489300028483072
-386.943548029119310 537.695153438683750 67.636784755822390
-378.749938964843750 535.652304909446000 67.936666893236563
-369.427676293157790 534.767459992439510 66.871041820895286
-360.679498525766230 534.942615215594970 67.733484855064972
-352.838167826334650 535.606994628906250 69.563916524251297
-389.429252624511720 542.336502075195310 65.223775863647461
-187.379997253417970 440.817998250325500 72.874183654785156
-182.595776028103300 440.683553059895810 74.151712205674912
-217.623199462890620 451.090008544921890 72.955340576171878
-207.704716273716510 450.955854143415190 72.676915849958149
-197.570879516601560 448.860440673828120 73.684116210937503
-190.016758311878560 445.870697946259500 75.596408959591031
-184.145996093750000 443.964996337890620 77.806101481119796
-231.892144339425220 458.310647147042400 76.223029000418521
-225.349068728360270 457.140975258567100 75.977603045376867
-216.666856674920950 456.730211530412930 74.772767203194761
-207.431257411411820 456.518855503627210 74.579103088378901
-199.089636600378780 455.449514678030310 75.664372530850500
-192.944000244140620 452.941986083984370 77.660697937011719
-248.887334187825530 468.193664550781250 78.754567464192704
-243.254869543987780 465.454260784646750 76.769878553307578
-234.936435699462890 461.827751159667970 78.578767776489258
-224.747683073344970 462.368262039987660 79.064242312782696
-216.355285644531250 464.183073861258380 78.233846664428711
-207.942817687988280 462.557546442205250 77.544381228360265
-202.774002075195310 461.331497192382810 77.690448760986328
-267.828491210937500 477.073501586914060 73.357749938964844
-260.894385704627380 476.356001633864200 76.041746286245498
-251.994275179776280 471.130365545099440 77.523836309259593
-286.959802246093770 486.175405883789040 78.120690917968744
-279.835334414527550 484.307617187500000 76.952495393298918
-270.737404823303220 482.600970268249510 75.827256202697754
-264.180126190185550 480.236751556396480 74.132299423217773
-304.389398193359400 494.200201416015600 79.804040527343744
-296.653152465820310 492.586199951171860 79.286806106567383
-288.406669980003700 491.923525855654760 77.742138817196803
-279.568856375558030 492.022071838378910 74.945711408342632
-272.090600585937520 488.983197021484390 72.508619689941412
-313.860748291015620 500.585258483886720 80.772798538208008
-306.007084058678690 501.180307139521060 80.244086224099860
-297.543403320312510 500.724879150390620 78.908863220214840
-288.307001450482520 501.397526460535400 75.980897342457496
-281.728459284855770 499.082538311298090 73.253476656400238
-448.586995442708310 507.240661621093750 73.237497965494796
-441.763437271118160 510.539745330810550 75.743031978607178
-434.700332641601560 513.485000610351560 76.885875066121415
-330.049011230468750 513.916015625000000 80.830802917480469
-323.721748352050780 512.569374084472660 80.598838806152344
-314.777374267578120 510.633436203002930 80.217050552368164
-306.768679532137810 509.576955621892750 79.866909373890266
-297.052124023437500 510.213960011800110 78.275221506754562
-289.406808035714280 509.556233723958310 74.257933843703498
-430.084373474121090 515.005500793457030 75.614089012145996
-423.279836018880190 516.161780463324700 76.401043785942932
-414.215653129245940 516.935568104619620 77.146382539168641
-405.034934488932270 518.250065104166650 76.236483510335290
-396.473458426339280 519.383204868861640 75.764505876813615
-387.430708362210170 519.947127803679450 76.893048194146928
-378.671615600585940 520.142728365384640 77.956165900597199
-369.523923433744020 519.907116229717530 78.842138730562652
-360.166965060763910 520.253890426070600 79.266226026746963
-351.672776655717310 520.900496049360750 79.454086650501594
-342.635933430989610 521.017797851562480 79.644993082682291
-333.455582936604800 519.267250061035160 79.938396453857422
-324.698616614708560 519.238112229567260 79.900257990910461
-316.323918660481750 517.210413614908820 80.325649897257492
-304.708820689808250 518.173450816761370 80.463799910111860
-297.247334798177060 518.680029666785000 77.036624330462828
-291.847503662109370 516.013488769531250 73.416725158691406
-393.585011800130190 524.537658691406250 72.323331197102860
-386.381669108072910 526.705533854166670 73.183092753092453
-378.198606218610510 527.757675170898440 73.940604073660708
-369.312038845486090 527.094631618923590 74.586740846987126
-360.361922607421890 527.379482421874970 74.925708007812503
-351.421051025390620 527.061242675781270 76.179179763793940
-342.181499481201170 526.584751129150390 77.392781257629395
-333.390176212086370 527.474289838005460 78.273900649126844
-326.256003243582600 527.761784144810240 79.902457645961221
-302.682998657226560 526.073516845703120 79.602401733398438
-300.372001647949220 525.455749511718750 77.869026184082031
-326.200004577636720 532.981994628906250 79.746398925781250
-250.331461979792660 468.284541203425480 82.148614149827225
-244.182666142781580 467.861668904622380 83.318208058675125
-233.945400565011170 466.596570696149570 83.764914594377785
-225.972120361328140 466.261801757812520 82.437056579589850
-218.854499816894530 468.897743225097660 81.955825805664062
-260.173177446637850 474.581145150320880 85.872496741158628
-252.584049606323250 471.806127166748070 86.118066978454593
-243.553557078043610 471.363111707899290 87.573667314317490
-234.820853738223800 471.450441248276660 87.590741101433252
-226.153472002814790 471.080941592945750 86.259222591624535
-219.656005859375000 470.541503906250000 83.919696807861328
-293.514007568359370 487.326995849609370 85.875049591064453
-288.504872639973940 485.665292104085270 85.573841730753585
-279.223430088588150 482.898426600864980 84.793436322893413
-269.859384390024050 480.286846454326910 85.026053795447723
-265.104003906250000 478.640014648437500 81.344001770019531
-312.861999511718750 495.947006225585940 89.333648681640625
-305.656101989746110 494.101150512695310 86.689704513549799
-297.598801269531240 489.498518066406230 85.346227722167967
-332.063406372070290 504.196798706054660 88.518639373779294
-323.819838985320080 502.269710417716740 86.126906610304303
-315.519486860795440 500.593666770241500 84.236627752130687
-309.361193847656240 498.262799072265640 83.112280273437506
-431.957816384055380 513.118546919389250 82.829226407137782
-423.215304565429680 512.887200927734400 84.025431060791021
-415.936774620643010 513.007084773136970 84.373431279109070
-404.859431675502210 513.561785016741060 85.653935568673276
-396.512550354003910 512.837702941894580 87.436740875244141
-388.169573102678560 513.446642194475430 87.925385611397886
-378.717797851562520 513.863702392578150 88.995269775390625
-369.019081115722660 514.010004679361940 87.955074946085617
-360.116430010114410 513.070750645228830 86.578210830688477
-351.567718505859370 511.932904243469240 86.032334089279175
-342.597211433179440 510.350969719164310 85.456478928074688
-333.774098714192690 508.973266601562500 84.102106730143234
-325.624845805921040 508.840998599403800 82.031005859375000
-317.364494323730470 507.481246948242190 81.217350006103516
-422.804667154947940 514.745646158854130 81.224566141764328
-413.971287318638420 515.098432268415190 81.902555193219868
-406.125330607096370 515.214167277018190 82.654408137003585
-396.382823270909910 515.785533231847470 82.773805057301246
-387.718526739823180 516.135260331003340 83.258609570954974
-378.798039362980770 516.034036489633420 84.070200700026291
-369.291283017113070 515.715474446614620 83.276314145042790
-361.101797485351540 515.086602783203150 82.474950408935541
-351.252001953124990 515.882800292968800 81.494729614257807
-342.847293090820300 516.058197021484370 81.478469848632813
-334.856007893880190 514.995666503906250 81.258132934570313
-314.919334411621090 521.859491984049440 81.829574584960937
-307.659612019856750 519.652001274956550 81.771183861626525
-321.478164672851560 528.724487304687500 81.238150278727218
-315.597375233968080 527.821879069010380 83.105175336201981
-307.313167995876710 527.738555908203120 82.659283108181427
-321.904510498046870 533.041015625000000 81.571247100830078
-317.042999267578120 532.782328287760380 84.529032389322921
-260.318238757905530 477.310619535900290 93.570857456752236
-251.995792783539880 475.925724424164860 93.834072507660963
-244.439550018310540 474.902603149414060 93.972400665283203
-235.105865478515620 474.385066731770850 92.437360127766922
-293.082489013671870 487.107498168945310 91.965801239013672
-288.712138584681900 486.072217668805820 95.530021122523721
-280.097613994891840 483.614154522235590 92.906322772686295
-269.670444064670160 481.110443115234370 94.486872355143234
-263.496416727701840 479.293668111165350 95.903549194335938
-330.844749450683590 495.948249816894530 97.241399765014648
-323.037707160500930 495.558703254250930 96.387641009162451
-314.999827357700890 494.592314801897320 94.786522565569200
-305.956996372767830 491.812785557338150 94.426477977207725
-297.624787983141460 488.740891306023850 94.732694123920638
-341.644349471382500 503.384826660156250 95.700530342433765
-333.622685023716540 500.537599400111620 93.600693620954246
-324.223805354191710 498.051692082331730 92.838750105637772
-317.579199218749980 497.057598876953140 90.857699584960940
-393.544331868489560 510.826334635416690 90.485699971516922
-386.420877456665040 510.782060623168950 91.824187278747559
-378.178943409639260 510.112766041475200 94.599452748018152
-369.797335815429680 511.437198893229150 94.380394490559894
-360.081375122070310 510.730093955993650 94.268887758255005
-351.708691914876280 508.616500854492190 94.413341946072052
-343.440002441406250 506.660736083984370 92.351966349283856
-257.054992675781250 478.136993408203120 99.557899475097656
-251.883998870849610 476.690490722656250 99.360050201416016
-244.787002563476560 475.636993408203120 99.326103210449219
-288.097141810825920 486.550423758370530 102.453285217285160
-278.273642403738850 483.994005475725430 101.811971391950340
-269.392499651227690 481.289505004882810 101.495307377406530
-262.070077749399050 479.673229510967530 100.903692979079030
-256.739013671875000 479.437011718750000 103.151000976562500
-339.487670898437500 495.005335489908870 103.373832702636720
-334.561088562011720 494.834996541341130 100.496424992879230
-314.271743774414060 492.982749938964840 99.510576248168945
-306.808144705636150 491.304574148995530 100.807855878557480
-297.485578264508940 488.872000558035720 101.439429146902900
-380.006402587890650 504.924804687500000 100.488139343261720
-349.399246215820310 503.222064971923830 102.961994647979740
-343.089243164062510 499.523840332031230 101.741744079589850
-336.889999389648440 497.811004638671870 99.272548675537109
-376.284004211425780 506.412498474121090 99.806324005126953
-368.735369230571560 507.840317575555100 101.619263498406670
-361.128528795744220 508.035527279502450 102.380373904579570
-353.335287911551350 506.524998256138420 100.942970275878910
