ply
format ascii 1.0
element vertex 813
property double x
property double y
property double z
end_header
-30.575312495231628 348.416374206542970 -24.588487505912781
-32.558200836181641 352.875000000000000 -18.353599548339844
-29.557177932174117 356.491186071325220 -21.806700106020326
-27.756917953491211 365.939086914062500 -20.260645779696379
-28.856031417846680 375.552936553955080 -22.259618878364563
-29.313944710625542 382.877997504340270 -19.292155583699543
-41.554766337076821 355.828999837239560 -10.113289833068848
-35.570333571661088 356.750405447823650 -13.164401145208450
-30.929242542811803 359.210000174386150 -16.294757161821639
-33.255514417375835 363.869999476841540 -10.282651628766741
-30.144784927368164 366.339653015136720 -13.460599565505982
-28.144804249639098 374.794261103091060 -13.608917568040932
-27.794774889945984 384.275184631347660 -14.049937486648560
-29.041383319430881 392.462444729275150 -12.999866697523329
-28.852483113606770 399.029332478841130 -9.674879868825277
-38.831100040011933 357.884775797526060 -5.889262298742930
-40.973967234293617 365.954671223958310 -2.993724664052328
-36.722351189815640 366.296149976325750 -5.483428431279732
-31.232599258422852 369.243011474609370 -8.955789566040039
-34.121705055236816 373.362103271484390 -2.515671782940626
-30.409520149230957 375.937750244140600 -5.934984505176544
-28.890582789545473 383.930044422978940 -4.562091534552367
-27.100008923074473 392.694304093070630 -4.303545114786728
-27.830738067626953 402.818334670293890 -4.985454017207736
-28.541758817784928 410.851233987247270 -2.484722133945017
-30.941999435424805 416.761993408203120 -0.217074006795883
-40.297500610351563 370.329986572265620 0.233971998095512
-42.370449542999268 376.086620330810550 4.596791267395020
-37.636793645222980 376.373897298177100 2.870018648107847
-42.877248764038086 381.239486694335940 8.303615093231201
-35.177653249104814 383.342866007486980 5.534722576787075
-30.765082995096844 385.846333821614560 1.842546989520391
-33.006520080566403 389.316406250000000 7.538411998748780
-29.529165341303898 393.083578256460330 4.548923107293936
-27.380418658256531 402.083248138427730 4.367778740823269
-25.959414073399135 410.903903052920380 4.443243680078359
-33.851267496744789 421.529998779296870 1.060747212419907
-27.510015945434571 419.670480957031260 3.416545790135861
-36.296890605579726 429.505606911399130 4.291340100042747
-28.946999830358170 427.834415211397070 6.667948231977575
-37.698306783040366 436.399066162109360 7.387963390350341
-42.875825405120850 385.906867980957030 11.725960135459900
-38.287358283996582 385.806335449218750 10.155150810877482
-43.662331104278564 391.927564620971680 15.873862564563751
-36.263597534924017 392.811440072408520 13.670564860832400
-31.136425495147705 396.208747863769530 10.177492380142212
-33.297074794769287 400.018501281738280 16.139500021934509
-29.645056517227836 402.573347008746620 12.426119223884914
-27.637615819131174 410.740678356539830 13.860896725808420
-25.794630146026613 420.023300170898440 13.778720998764038
-25.173516432444256 429.202206929524720 13.492722948392233
-34.999462604522705 439.488626480102540 10.205900728702545
-27.102018497608327 438.201555040147580 13.482229621322066
-22.717949867248535 440.041503906250000 17.405649185180664
-35.845440506935120 446.891156196594240 13.616062432527542
-28.870327737596298 445.455503675672730 16.082161161634659
-37.153191786545975 453.886998103215150 16.836445955129768
-45.028310987684463 395.910332573784730 18.885666741265190
-39.486700693766274 397.030659993489560 18.715299606323242
-51.696714128766743 404.177429199218750 25.106185913085938
-45.380964952356678 401.997646556181050 23.606864592608282
-36.845216914585656 402.561999511718740 21.127457046508788
-31.827100753784180 405.582000732421870 18.625400543212891
-40.947299957275391 407.338012695312500 26.905799865722656
-34.722761017935618 409.949823651994960 24.394164357866561
-30.197131156921387 412.523437500000000 20.418118834495544
-32.138950347900391 417.847991943359370 25.788100242614746
-28.702857085636683 420.118464878627210 22.856010709490096
-25.639599959055584 428.677251180013000 22.837016423543293
-24.140186564127603 437.839402262369790 22.554233423868816
-22.848899841308594 441.048004150390620 19.371200561523437
-25.315241964239824 447.994789525082240 20.604536859612715
-22.268521445138113 447.721860613141760 22.561842782156809
-36.351581096649170 457.734994888305660 19.122356414794922
-27.594949926648820 456.130926949637280 22.129825115203857
-21.743649482727051 454.759668986002620 24.713583310445149
-54.503006617228188 464.429733276367190 24.029200045267739
-45.225021226065500 464.711859566824780 23.435853617531912
-36.487163659298062 464.985696503610310 22.857533310398910
-28.689395141601562 463.609948730468770 25.254249954223631
-47.041900634765625 469.614013671875000 26.473800659179688
-36.006471361432759 471.078853062220960 26.249685287475586
-46.767398834228516 405.364013671875000 27.074699401855469
-53.174899908212517 411.523537269005430 30.363765349754921
-45.387394733918022 411.185359074519230 31.146897536057693
-37.810533099704315 412.650331285264770 29.093410915798611
-60.067115238734651 421.802856445312500 33.498543058122905
-55.570833333333333 418.905934651692690 34.318459955851239
-44.291885375976562 416.689854213169670 35.178642817905974
-35.856355891508215 419.712266809800100 31.778079257291907
-31.299450874328613 423.274505615234370 27.961549758911133
-61.097301483154297 424.727996826171880 35.677398681640625
-33.514853084788605 427.539238424862110 33.744270997888904
-28.873187845403496 430.085638797644440 30.251808917883672
-25.961811285752518 437.854575523963320 32.023157926706169
-23.611858208974201 446.745499928792300 31.781762520472210
-22.636249542236328 451.011001586914060 28.416249275207520
-21.959710572895251 455.882210179379110 31.562979045667145
-55.809598922729492 468.973495483398440 27.446974754333496
-25.364841012393725 466.622589111328120 28.542211869183710
-20.949563633311879 464.986817793412630 32.054772550409488
-61.899747346576895 473.275368138363490 31.737931904039886
-54.518365419827973 473.932462252103390 30.368107648996208
-45.484158776023172 474.260450883345190 28.965436415238813
-36.995536457408555 475.271001642400560 28.782822608947754
-27.034293301900227 474.344132486979160 31.121333249409993
-20.883958339691162 473.707997639973940 34.215950647989906
-60.860174179077148 479.532752990722660 35.300974845886230
-53.666076296851749 481.666710263206820 34.225266411190944
-45.283042498997283 482.805320739746090 33.187146595546174
-36.679502744932435 483.200837831239430 33.045945708816113
-27.851765485910271 482.032002375676090 33.958030920762283
-44.799650192260742 489.377494812011720 35.653900146484375
-36.841800689697266 488.854595947265640 35.705799102783203
-30.867500305175781 488.829986572265620 35.849300384521484
-59.430900573730469 424.143005371093750 36.241901397705078
-53.016467874700375 421.381049416281940 38.328268224542789
-45.108642284686752 420.767539391150820 38.718338306133560
-39.129766464233398 422.346160888671870 36.742199579874672
-55.080886586507162 427.896598307291640 41.863973236083986
-44.847781408400763 426.517095656622020 43.147442772274928
-37.259103101842541 429.456735049977000 39.717776242424463
-34.353081876581363 437.054407293146310 41.755990808660336
-29.469220256805421 439.787696838378910 39.025745010375978
-32.148301124572754 443.581497192382810 44.023599624633789
-26.880654652913410 446.796364524147750 40.989721009225555
-23.687866528828938 454.879417419433590 41.183591842651367
-22.330416679382324 457.644500732421870 38.737916310628258
-21.245690059661865 465.075500488281250 40.369015121459960
-19.449549961090089 474.651150512695320 39.809489822387697
-60.190898895263672 485.722991943359370 37.303133646647133
-56.522717157999672 486.062001546223940 36.563217163085937
-43.606620788574219 486.836206054687520 36.466120147705077
-39.371233622233071 487.205006917317690 36.473033905029297
-24.400269889831542 483.394102478027320 37.186729812622069
-19.606708208719891 482.857665167914490 40.260652754041885
-60.092466990152992 491.730662027994810 38.349066416422524
-54.310010207326791 491.643424586245890 37.678231691059317
-45.356916376062344 492.449702907252970 38.087362031678893
-37.168039623059727 492.582395051655000 38.295731393914473
-26.544431209564209 492.206186294555660 39.508965611457825
-20.923541237326230 491.763883702895210 43.220294054816748
-59.715848922729492 498.994003295898440 39.316598892211914
-54.494500201681383 501.005218505859370 39.866813493811563
-44.817888392958530 501.452697044195130 41.018637013989824
-36.996786161910656 500.710185206213680 41.971732738406160
-26.910875681284313 500.285212336359790 42.828600084459460
-22.315649986267090 498.370010375976560 44.669198989868164
-52.864240982953241 510.569409538717820 43.027117785285498
-46.157573113074669 508.914616511418270 43.466234794029823
-37.457257407052175 507.148856026785720 44.234871455601287
-55.759250640869141 515.111999511718750 44.326250076293945
-52.344124794006348 431.635831197102850 46.625116984049477
-45.488194315057051 431.264948794716300 47.035468252081621
-39.885650634765625 433.041000366210940 45.366149902343750
-55.355072416108229 437.550963303138470 49.317561971730200
-44.873755950927738 437.077762451171850 51.411831817626954
-38.231400416447563 438.608039269080510 47.895069122314453
-35.205388916863335 446.351109822591130 50.133022202385796
-29.800761736356296 449.377845177283630 46.729377159705528
-32.965600585937501 453.636395263671890 52.814980316162107
-27.479699842391476 455.978354177167320 49.471142307404548
-24.216350173950197 463.583599853515640 50.839375114440919
-21.898859977722168 466.990103149414040 47.392340469360349
-22.884899139404297 471.059997558593750 53.357700347900391
-20.643885135650635 474.074496459960930 49.275825119018556
-18.345311058892143 483.042148166232660 49.346648180926287
-16.812545935312908 492.082038879394530 48.805562496185303
-35.781799316406250 505.108993530273440 45.223300933837891
-23.649785450526647 503.425140380859370 46.039471762520925
-18.170570224523544 501.173625469207760 48.750673592090607
-12.967050075531006 504.109008789062500 53.293449401855469
-44.629307047526041 512.526074218749950 45.911113230387372
-36.445155588785809 510.447177463107660 46.839824252658417
-26.920614378792898 509.772569928850430 47.132699966430664
-19.094417105329796 509.723065315408920 51.330647245366521
-13.294199943542480 509.035003662109370 53.625198364257813
-53.001369378505608 519.360947829026490 48.594243269700272
-45.343265942164827 519.342340741838710 49.625523226601736
-37.031675762600372 519.274519178602420 50.816522456981517
-27.409946632385253 518.916800944010450 51.475913492838544
-21.147482254925897 516.868584127987110 52.560370501349951
-52.613633049858940 525.338107638888910 52.890599992540146
-45.307383219401039 525.303500705295160 53.095417234632706
-37.854062557220459 525.286117553710940 53.385937690734863
-50.761299133300781 439.666992187500000 54.672833760579429
-46.249737739562988 440.950500488281250 54.950350284576416
-44.923814661362591 446.521238439223340 58.769876367905560
-38.764077928331162 448.497611151801210 56.144405364990234
-42.072924613952637 452.384742736816410 62.005899429321289
-36.301731327601843 455.731854248046890 58.876382991245812
-30.370924949645996 459.009498596191410 54.463150024414063
-33.249106952122283 463.372717721121660 60.643457412719727
-28.198436332471442 465.617665608723940 57.716360843542851
-25.746253626687185 472.780536106654550 60.299974986485076
-22.292985643659318 475.904283796037930 56.788585662841797
-20.061668090820312 482.825441894531250 58.875172119140622
-16.999687671661377 492.033250808715820 58.362524747848511
-15.039804887771606 501.013252258300780 58.387610054016115
-13.788299560546875 505.226013183593750 54.110900878906250
-15.514839935302735 512.342102050781250 54.960400009155272
-12.987919998168945 510.116064453124980 58.485913594563804
-22.993099212646484 522.807006835937500 54.006401062011719
-17.168069111217154 519.651178533380630 56.773707164417615
-12.176366806030273 518.415474446614550 59.706267038981117
-51.612000392033501 528.450002817007200 55.810684790978065
-45.540236261155869 529.103222317165770 55.878875202602813
-36.433850876828458 528.474384713680140 56.027465982640045
-27.382669448852539 528.035519807235000 56.165060789688773
-18.214181957244872 527.515263671875000 58.961467895507809
-12.260349909464518 525.564839680989620 61.813933690389000
-51.410638369046723 534.581153282752440 59.795677185058594
-45.639237324396767 535.960751851399780 60.402010361353554
-36.746957487979181 536.683015467756830 60.338886260986328
-28.173925018310548 536.648147583007810 60.596530151367190
-19.366323527167825 535.272180893841890 61.145123201258045
-45.928098678588867 451.217498779296870 63.124750137329102
-44.093673871911093 456.363216234290060 66.300547724184781
-39.315028599330354 457.792284284319180 64.055343627929688
-42.953262329101563 462.181247711181640 70.464761734008789
-37.056685284870426 465.385902963033520 67.282124496087789
-34.135974884033203 473.324501037597660 68.879904747009277
-29.333211263020832 475.297003851996520 65.221605300903320
-32.583532969156899 479.489003499348940 70.970499674479171
-26.507085745675223 482.479282924107170 68.312722669328963
-21.488907740666317 484.788461538461550 65.047614757831283
-23.957500457763672 489.132995605468750 71.238048553466797
-19.567111382117638 492.113385714017450 67.539704396174500
-16.222221374511719 500.993962969098790 67.696422031947549
-14.471425056457520 507.419502258300780 69.963626861572266
-12.934437513351440 510.699193954467770 66.717494010925293
-11.034961223602295 518.903043306790890 67.522281059852020
-14.565699577331543 531.083007812500000 63.081298828125000
-9.830652282351540 528.350757417224710 67.178247905912855
-50.607233683268227 538.087666829427120 63.482832590738930
-45.388833787706162 540.241560194227420 63.966089460584854
-36.374000125461151 540.666775173611090 63.900511847601997
-27.674659729003906 540.698608398437500 63.239640045166013
-16.183923272525561 538.609942267922750 64.185682184555958
-9.766808952604022 536.424931117466490 67.777975082397461
-50.764701843261719 542.906982421875000 65.687202453613281
-44.924078794626091 545.858729435847410 68.008492249708908
-36.700351655483246 546.017345428466800 66.459993720054626
-27.904520788858104 546.224906034247850 65.725430333337115
-18.616851394240921 546.604591163429060 66.738737673372839
-11.193218175102682 545.631771312040430 69.962305405560656
-43.659760284423825 551.508801269531200 71.300320434570310
-35.913919210433960 552.894027709960940 70.460734367370605
-27.443390035629271 553.939920043945340 69.775342178344729
-18.923997065600226 553.940935920266500 69.870471056769873
-12.278100013732910 552.316335042317750 71.182999928792313
-42.515500068664551 466.259628295898440 73.337563514709473
-39.949300765991211 469.140502929687500 73.219398498535156
-41.715660095214844 471.860595703125000 77.417539978027349
-38.410204680069633 473.910822329313870 75.210426993992016
-35.240370432535805 482.921769205729160 77.197360229492190
-30.666949907938641 485.555501302083310 73.845382690429688
-33.186589813232423 491.003198242187520 79.051640319824216
-27.215797424316406 492.230500793457050 76.049564743041998
-21.795899868011475 494.015998840332030 72.899850845336914
-25.044449806213379 498.671997070312500 79.280521392822266
-19.846466642437559 501.380576393821000 76.195884935783624
-16.159564056396484 509.726002197265640 77.421679992675777
-13.449950218200684 513.361480712890620 74.146900177001953
-14.569299697875977 514.867004394531250 79.497001647949219
-11.774179983139039 519.385946655273410 76.332125854492190
-8.994618303635541 527.934588264016500 76.562547122730933
-6.774609947204590 537.044448852539060 76.377935028076166
-44.469100952148438 550.323974609375000 72.190200805664062
-6.276933046487661 545.966458834134640 74.980099604679992
-4.355925003687541 547.229990641276000 77.060218811035156
-42.983649826049806 554.382849121093730 74.405140304565435
-37.553834724426267 556.740426635742210 74.078380012512213
-28.393968820571899 558.116191864013670 72.719675064086914
-18.312662482261658 559.011375427246090 72.616676330566406
-9.060243760838228 555.651650821461430 74.387100444120520
-2.951307550072670 554.541755676269530 78.617150306701660
-41.718149662017822 562.793624877929690 79.277848243713379
-35.846603907071625 563.402307363656860 77.920050254234894
-27.543364074994933 564.143622632296570 75.748971615197519
-18.749580515755547 563.765501234266480 74.591363906860352
-8.971074775413230 563.996371799045160 77.143014978479457
-3.313680052757263 562.102404785156300 79.958241271972653
-33.177350044250488 569.371734619140620 80.166151046752930
-26.755070177714028 571.444696044921900 79.193457031250006
-18.825761448253285 572.333476673473000 78.272865295410156
-10.019514048541033 572.302112720630820 79.288507249620224
-19.829150199890137 577.963012695312500 80.465198516845703
-38.360091527303062 484.639165242513000 82.718616485595703
-35.397447025074676 492.636878518497270 83.533235886517687
-31.093200683593750 495.415008544921870 80.913902282714844
-34.590233666556223 500.985763549804690 86.937078748430523
-28.297285919189452 502.269160156250000 83.767548065185551
-21.835849761962891 505.057510375976560 81.344352722167969
-33.653134028116860 507.164667765299500 89.369767506917313
-27.108181416988373 508.764187812805180 87.728459596633911
-20.125360031127929 510.812562255859350 83.934283752441402
-17.167657902366237 518.257418983861040 86.072821366159545
-12.943742752075195 521.548723493303560 82.565770830426899
-15.202400016784669 525.048193359374980 88.986018371582034
-11.327715913454691 528.348828633626340 85.325549761454269
-7.811146766908707 536.949124243951590 85.602544476909017
-5.503981232643127 543.770500183105470 86.662137985229492
-4.084399274417332 547.304997035435240 84.956178392682759
-2.110851960877577 554.872454325358040 85.529970804850265
-37.575755032626063 567.035183993252870 81.756136113947093
-0.287197716999799 564.180527460007400 85.323386056082583
-34.849331071641707 572.977825249565970 84.622606913248703
-28.541615664958954 575.189691543579100 82.864753246307373
-19.806924819946289 577.056732177734370 81.315700531005859
-6.410487174987793 574.435014997209810 81.539643423897886
-1.046941403419741 573.007743589339730 85.475303649902344
-33.267958641052246 579.453908284505250 88.144341786702469
-27.475426289073209 582.025088661595420 86.318035326505964
-18.813090208100110 582.099902641482460 83.134085120224370
-9.280682628804987 581.772311123934630 82.955950303511187
-1.794857929771145 581.808583577474000 86.821512540181473
4.244209766387940 581.174987792968750 89.868499755859375
-25.434039974212645 588.967453002929690 88.573905181884768
-17.993645465735234 590.150484952059630 86.609581918427438
-9.288644552230835 590.889788309733040 86.284770329793290
-2.440279357135296 590.530811309814450 88.327674865722656
-15.488300005594889 597.630676269531250 89.510833740234375
-10.096330035816539 598.101174094460250 89.011118802157313
-3.885854959487915 596.993011474609370 89.484050750732422
-36.245699564615883 502.756663004557310 90.871533711751297
-33.676257484837585 510.050365247224530 92.369288795872734
-28.685576805701622 512.318392240084110 91.331929720365082
-32.786149978637695 516.435989379882810 96.490823745727539
-26.884560933927212 518.745535501619660 94.557114391792112
-20.495979817708335 520.855659993489550 91.745245869954431
-24.933757509504044 525.456996372767890 98.040899004255024
-18.236474937862820 527.977082994249140 94.790344874064132
-13.507599830627441 530.460998535156250 90.958400726318359
-15.413988643222385 534.127997504340330 96.732199774848084
-11.146251349613584 537.942069218076540 94.124575910897093
-7.234420394897461 545.901005859375000 95.092059631347652
-4.497980117797852 548.883972167968750 91.447601318359375
-5.450299978256226 551.419006347656250 98.065849304199219
-2.598271155899221 555.070639870383500 94.267269134521484
0.714311407002456 563.933823529411710 94.559381372788380
3.007190592148725 572.431708840762890 93.917776219985058
4.761856714884440 576.458658854166630 96.762697855631515
-32.873700141906738 582.626502990722660 90.852062225341797
-30.776600201924641 584.848327636718750 91.074633280436203
1.830532670021057 585.110677083333370 90.583969116210938
5.217793077230454 582.027320861816410 94.374766826629639
-32.401699066162109 586.781005859375000 91.846702575683594
-27.910934339250836 591.564482770647370 92.276962716238842
1.728333875536919 591.433468773251430 91.922685169038317
6.526005566120148 590.534866333007810 95.343725681304932
-25.932331952181730 599.862091064453120 94.773313348943532
-19.528930622598399 600.988695227581500 92.927595387334406
-9.865950918197632 601.606097412109420 90.675899505615234
0.253320297709218 600.138741952401570 92.492940832067418
5.463980007171631 600.606396484374950 96.882189941406253
-25.523490905761719 608.102899724786880 97.772863908247515
-18.634048369622999 609.124482185609850 95.883003234863281
-9.409570125433115 608.599346454326910 93.710215055025543
0.130576440581569 608.962926793981520 94.862939905237269
5.440480925820091 608.684270685369370 97.826355674050077
-16.406340026855467 616.080603027343730 98.115800476074213
-9.755927801132202 617.321999289772750 97.438235889781609
-0.960996819867028 617.456668429904540 97.515804714626739
4.640349864959717 614.685974121093750 98.293296813964844
-30.217333475748699 522.474324544270870 99.275398254394531
-26.880959777832032 528.996318359374980 101.881471557617190
-21.638050079345703 530.823486328125000 99.687252044677734
-24.648743987083435 536.421310424804690 105.391749382019040
-19.383576393127441 537.812419690583850 102.597433792917360
-12.929800033569336 541.109985351562500 99.302398681640625
-16.920220891634624 545.127624511718750 105.627916653951000
-11.143288764953613 546.792602539062500 101.709380493164060
-14.521800041198730 550.745971679687500 107.705001831054690
-7.967305455889020 554.278004673549160 104.163243538992750
-3.599470019340515 557.301368713378910 100.608899116516110
-5.729454994201660 560.919006347656250 107.485496520996090
-1.526299209173383 563.843579522494570 103.342600329168920
2.125556986293067 571.622126040251370 104.075895226520050
4.715259909629822 576.504745483398440 102.508337974548340
6.476375716073172 581.966288248697880 103.554357619512640
8.868899638836201 590.896505502554080 103.501011481651890
10.548350016276041 600.159147716703840 103.127005077543710
-26.112099965413410 611.656005859375000 99.355000813802079
-22.834999084472656 607.210998535156250 99.140998840332031
9.836067199707031 609.231716308593720 102.335172424316410
13.768979835510255 610.572998046875000 106.584201049804690
-23.633599599202473 615.932352701822880 100.436368306477860
-18.802231738441868 618.273154810855320 100.401641444156040
-11.843249797821045 621.023498535156250 99.401748657226563
2.550426681836446 620.402994791666630 99.253598531087235
8.902078250358844 618.138450885641190 102.519969282479120
14.561442783900670 617.941990443638360 106.771142142159600
-17.119742356813870 626.581420898437500 104.088269160344050
-10.074927806854248 627.666756294869060 102.254405872241880
-0.437355184036752 626.910992166270380 100.887225607167120
9.014758750796318 626.920158386230470 104.146437168121340
13.322500228881836 623.054992675781250 107.206001281738280
-15.131716410319010 635.010172526041630 106.447832743326830
-9.108963475507849 635.953970516429190 105.448294471291930
-1.085982905781787 636.755341903023120 104.428173894467560
8.473566096761953 635.697427500849130 106.034477897312330
-8.077800017136793 641.967158390925530 107.184384272648740
-0.759084982176622 643.641581217447880 106.795124371846510
6.683284997940064 642.980786132812450 107.184499359130850
-25.006625175476074 540.650741577148440 109.236751556396480
-23.657925128936768 543.303741455078120 110.127498626708980
-20.605544302198624 547.420281304253420 110.144722408718540
-17.329448484605358 554.667773831275210 112.667161510836690
-11.367446243762970 557.214752197265620 109.942812442779540
-15.654433409372965 560.870015462239620 115.522333780924480
-8.968082095637467 563.733903364701750 112.597697402491720
-3.815361928939820 566.342602539062450 110.043400573730470
-6.686354425218370 570.223232693142340 115.488777160644530
-1.052257744595408 573.490025838216180 112.337805853949650
2.090462985138098 579.791805013020850 114.189200846354170
5.491069282804217 583.181357247488790 111.672357831682480
8.888549526532492 590.965248107910160 112.789707819620770
12.088941574096680 598.956085205078120 112.375499725341800
13.404724836349487 602.961242675781250 112.357500076293950
14.809975051879883 609.003851318359350 112.347800827026360
16.787506103515625 618.047561645507810 112.366374492645260
17.587891777356464 626.867919921875000 111.843499819437670
12.698699951171875 636.932006835937500 108.169998168945310
17.445923264821371 636.120996093750020 112.100699361165370
-7.304234981536865 647.139996337890580 109.091200256347660
-1.755204471258017 647.951998197115360 108.809845557579620
10.560280799865723 645.179423014322880 109.179250717163090
17.383635185860300 644.814378893053230 113.117593919908670
-8.300718426704407 653.698165893554690 110.616083145141600
-0.326287640465630 654.006556193033820 110.492638693915470
8.203700746808734 653.881319318498870 110.787177494594030
17.456205117075069 653.769373843544370 114.360736646150290
-5.994804859161377 660.896484375000000 111.833999633789060
-0.107580765735271 662.683561103288530 113.161418826081030
8.437224058877854 663.413312639508940 113.656523386637370
15.956653340657551 662.104597981770780 115.522399393717450
1.725770848137992 671.188999720982110 115.317784990583150
7.754772645455820 671.781555175781250 115.850777237503620
14.000399907430014 669.745992024739620 116.286333719889330
5.208265066146851 677.167510986328120 116.873996734619140
-19.699600219726562 558.903503417968750 117.602497100830080
-16.340316772460937 564.275339762369750 118.219000498453780
-12.828300476074219 567.036010742187500 117.387001037597660
-15.138166745503744 570.605672200520870 121.408166249593090
-10.061698859078543 573.366653878348190 120.031285967145650
-3.963706731796265 576.177001953125000 117.646998087565110
-8.127489566802979 580.436359752308250 124.049182198264380
-1.250060605506102 582.470668538411470 120.359166717529290
4.414859771728516 585.577026367187500 116.992996215820310
1.573704997698466 589.144194103422590 123.495904831659230
6.436280360588660 592.162071814903810 120.237884228046130
9.893429406483968 599.686531575520800 121.876866404215490
13.380200386047363 602.945983886718750 117.428001403808590
12.227650165557861 605.669667561849000 124.738667805989580
15.250896206608525 609.431005407262770 121.313518665455010
18.476084899902343 618.041748046875000 121.387850570678710
20.848579978942873 626.239154052734420 120.766849899292000
22.699499893188477 630.398193359375000 123.863198852539060
21.776233673095703 633.621317545572880 117.918001810709640
23.728247291163395 636.417734246504890 121.832263344212580
21.373174667358398 646.039001464843750 117.146747589111330
25.199227981567383 645.181679687500040 121.437720031738280
21.450025081634521 654.058761596679690 117.084499359130860
25.588087844848634 653.988476562499950 121.274639587402350
19.896085739135742 664.206712995256680 117.878141130719870
26.307360620209664 662.866334857362740 122.103575272993610
3.186990022659302 674.976013183593750 117.450996398925780
11.166089773178101 675.084991455078120 117.248249053955080
18.467447331077175 672.354424727590410 118.866052727950250
26.377941767374676 671.954714457193970 122.913291295369460
3.106220006942749 679.023010253906250 117.524002075195310
9.154231354996965 681.137352195945940 118.712161914722340
16.688688534956711 681.346771240234370 120.380846170278700
26.075179824829103 681.115280761718740 124.074319763183600
9.327022295731764 689.551696777343750 120.810768714317900
17.613864946365357 689.390899658203130 122.737250137329100
24.557454716075551 689.193642356179000 124.757090481844810
11.310899734497070 695.981506347656250 121.252498626708980
16.398505067825319 698.934704589843700 124.367200088500980
24.080450057983398 694.993499755859370 125.513999938964840
17.084300359090168 707.008341471354130 125.449333190917970
-9.804116964340210 582.853002929687480 127.752599334716790
-6.602210044860840 589.301335652669310 130.428832372029630
-1.378434635166611 592.327427455357110 128.267464501517170
0.910601650349175 599.259429931640620 131.791332244873050
6.363389515876770 601.641549682617210 128.863501739501940
3.574820041656494 604.536010742187500 133.880996704101560
9.334782314300536 607.839454868861590 131.215143040248340
14.205262303352356 612.032493591308590 128.894997596740720
12.243450164794922 614.968505859375000 134.468002319335940
16.445359159398961 617.642926251446740 130.775519476996520
20.650518774986267 625.374061584472660 130.635750770568850
22.860071454729354 630.319431849888360 129.906572614397330
25.036694133982937 635.877527573529390 130.426882575539990
28.036774921417237 645.058105468750000 130.375849914550770
30.058745297518644 653.412897283380630 129.366181807084530
31.646960067749024 655.433789062499950 132.543997192382820
30.691299438476562 663.089019775390620 126.867000579833980
32.972636309537023 663.419955166903380 130.341820109974260
30.429899851481121 673.178324381510380 126.035331726074220
34.225027344443582 672.388139204545500 130.119317141446200
30.151520156860350 681.034204101562520 126.303399658203120
35.254050016403198 681.203602600097610 130.680524063110340
29.213546019334061 690.248004619891840 126.951384911170380
36.015682615082838 690.078592234644360 131.250860806169190
21.137100219726562 701.007995605468750 125.986000061035160
27.634120941162109 699.329952842310830 127.807158219186890
36.087922886439735 698.755889020647370 132.018742588588170
19.196787476539612 708.510124206542970 127.552000045776370
26.624606370925903 707.638626098632810 129.216312408447270
35.294222745028407 707.886047363281250 132.730498573996810
20.494360351562499 714.246594238281200 128.772799682617180
27.019485609872000 717.445678710937500 132.182856423514240
35.117615222930908 716.817703247070310 133.757849884033190
28.357150077819824 723.717872619628910 134.051498413085940
31.963400522867840 723.943664550781250 134.680333455403660
-5.350160121917725 595.406005859375000 135.177993774414060
-4.894480228424072 597.086975097656250 135.335998535156250
-1.603972009250096 601.532566615513360 135.768569946289060
2.168720059535083 608.510885799632320 138.864880730124070
6.739159976734834 611.475237678079000 137.062000050264260
3.421629905700684 614.864990234375000 143.563003540039060
9.257580233783257 617.663261599657060 140.077609922827750
14.553849983215333 619.873699951171830 136.562500000000000
12.068050066630045 623.804667154947880 142.615498860677090
17.590378886774968 627.099419844777910 139.421553360788440
20.765677981906467 633.687778049045160 142.055113050672730
23.923427148298785 636.902407559481500 139.160864396528750
27.857073148091633 645.094765218098930 139.562500508626300
30.627266565958660 651.134663899739620 140.044166564941410
32.242182002348059 655.042114257812500 139.719881843118120
35.244460144042968 663.012875976562550 139.368159179687500
38.097799873352052 672.014398193359400 139.348549652099620
39.237530517578122 678.977600097656250 136.636198425292970
41.393576229319855 682.136585908777530 140.503941255457250
39.619150161743164 689.983489990234370 134.974502563476560
43.067063598632814 690.354916992187550 139.171758422851550
44.496581730089687 699.098738820929270 139.400368539910570
39.370401382446289 710.084503173828120 135.005996704101560
45.033559926350911 708.193168131510450 138.965333557128900
49.394233703613281 708.996643066406250 143.208999633789060
38.734333674112953 717.708160400390620 135.515668233235690
45.153554627389617 716.798515551018000 139.163817896987440
50.357160568237305 717.058398437500050 143.106701660156260
30.149950504302979 727.474731445312500 135.559745788574220
35.471255798339847 726.067600097656280 136.002077636718750
45.102770964304604 725.694412231445310 139.646167755126950
50.590928213936941 725.589416503906250 143.000143868582600
30.205199241638184 731.028503417968750 135.330497741699220
36.900594374712774 734.819939108455860 137.491940666647510
45.113530819232651 735.133657602163450 140.270537743201630
50.357649993896487 735.048803710937480 143.021202087402340
38.493520355224611 742.711413574218800 137.682998657226560
43.933176131475541 744.105901808965770 140.286236717587430
50.290675163269043 744.063385009765630 143.100873947143550
45.943682988484703 752.623446994357660 140.657112121582030
50.226729583740237 753.020306396484330 143.286801147460950
51.175590515136719 761.375103759765580 142.366700744628900
3.239719986915588 617.796478271484370 145.595001220703120
6.820257875654432 620.088331434461790 145.780332777235230
10.971094075371237 626.144355325137890 146.888941147748170
14.441544426812065 630.243889702690920 146.843556722005220
18.198063561410613 635.981090198863630 147.995909719756160
22.462900161743164 639.567474365234370 145.884002685546870
21.393200238545734 642.197652180989620 150.217501322428380
25.237253069877625 645.637655258178710 148.452656269073490
29.847125172615051 652.839935302734370 149.112624168396000
32.081971849714009 656.427001953125000 147.956571306501100
35.197292175292972 663.118359374999950 148.337279663085950
38.816550572713219 670.978429158528680 148.362083435058590
40.627824783325195 675.283508300781250 148.390998840332030
42.830254936218260 681.063095092773440 148.365949249267570
45.884168148040771 690.059432983398440 148.382624626159670
48.129300253731863 697.680071149553560 147.699569702148440
50.120699882507324 702.047500610351560 149.151748657226560
51.830300013224281 708.393707275390620 147.787126541137700
54.627869692715734 716.946154045336130 148.185878406871440
55.005588226318359 725.929404296874960 146.837159423828130
59.126167297363281 726.519110785590330 151.259109497070310
55.252642264732948 734.575998159555300 146.275154113769530
60.314400120785365 735.585998535156250 150.648895263671870
54.806229535271143 744.446120318244540 145.751352646771610
61.312243751857594 744.064561926800250 150.356826782226560
55.224619801839189 753.038993326822950 145.928531901041680
62.032738347207349 753.367778162802440 150.122258340158770
55.113573455810545 761.996126302083330 145.548533121744780
62.725459185513586 762.224770285866500 150.039364207874660
56.440689849853513 768.815203857421920 145.280598449707040
62.601336797078453 771.447961425781270 149.377232869466160
67.646978759765631 770.974194335937450 152.697000122070310
64.606629562377933 779.805596923828150 149.750099182128910
67.719299316406250 776.982971191406250 152.473007202148440
65.672599792480469 784.914001464843750 148.998001098632810
68.948711819118927 787.905897352430540 151.871000501844610
16.376319885253906 637.406005859375000 153.757598876953120
20.352827418934215 644.060280539772750 155.376455133611500
23.239875078201294 648.415122985839840 155.612499237060550
26.754372567841500 654.054513642282250 156.962241432883530
29.572680091857912 660.435894775390580 159.968000793457040
33.461246617635091 663.632897949218770 156.781733194986970
37.905387089170262 671.506553912984940 157.850897427262940
40.404800415039062 675.473510742187500 154.328506469726560
42.840946344228890 681.166769174429080 157.526576115534850
47.053196112314858 690.358914693196650 157.790082295735690
48.939901351928711 695.127990722656250 154.416999816894530
50.970623779296872 699.343081054687450 157.842761230468740
54.425727497447618 708.283544367009990 157.269681757146660
56.884755664401581 715.412614610460080 156.232055664062500
59.108972376043148 719.333457253196000 158.881000865589500
61.368917382281758 726.195567255434750 157.561914195185120
64.352948588709680 734.872255386844810 156.788452640656520
67.438251495361328 738.915496826171870 160.359497070312500
65.849024454752609 743.572748819986940 154.982498168945310
69.061124016256898 744.453649184283110 159.236409804400270
66.092959594726565 751.097387695312480 153.676602172851570
70.581605859704922 753.255730706292180 158.048540270006330
71.477817644391735 762.135574776785690 156.880913434709810
76.455200195312500 764.203521728515620 161.813995361328120
72.346579233805343 770.703672281901050 156.530467224121080
77.248522440592453 772.166117350260380 160.826331244574650
72.431424255371098 779.816721191406260 155.603159790039060
77.991714477539062 780.350503104073710 159.983998979840950
73.056580505371087 789.040927734375030 155.155122070312500
78.810756517493203 788.955653978430750 159.552261352539060
75.053998311360672 795.675333658854130 156.238001505533840
80.410309564499627 798.074146089099710 159.653429303850460
82.875708262125656 805.011586507161500 159.490000406901030
86.196697235107422 808.036499023437500 161.329498291015630
210.792999267578130 820.213989257812500 161.539993286132810
215.039662679036470 818.837666829427120 161.565999348958340
227.789001464843750 816.594685872395870 160.483668009440090
233.078669230143220 817.193326822916670 159.956332397460930
241.069496154785160 819.279022216796870 158.172500610351560
207.247501373291020 822.298233032226560 161.445003509521480
235.323669433593750 820.934997558593750 161.080663045247410
26.120200157165527 656.047485351562500 163.353996276855470
29.280537366867065 661.910263061523440 164.089624404907230
31.965100606282551 666.053843180338500 164.994333902994780
35.398231066190277 672.113612248347410 166.077000544621400
38.934011671278213 677.984219021267340 167.232113308376740
42.025034904479980 682.172601318359400 166.233300018310560
46.435209025507390 689.849651834239130 166.487869262695310
51.223079522450767 698.840001424153680 166.372123082478850
55.686340141296384 708.076251220703170 166.376499938964860
58.160301208496094 712.484985351562500 169.251007080078120
57.746766408284508 712.769653320312500 165.287663777669280
60.299685287475583 717.679302978515580 166.682151031494130
63.973037538074308 726.164762951078840 166.403666178385410
66.301981839266688 732.840459650213120 165.356271917169750
68.521207536969868 736.786786760602690 167.401143755231570
70.973516363846628 744.024632504111880 166.350895128752060
74.519622802734375 752.306766285615820 166.180294261259180
76.763879394531244 756.441406250000000 167.389999389648440
75.877651214599609 759.755004882812500 162.942504882812500
78.508450594815343 761.836955677379250 166.477091702547940
81.064487681669348 771.301799100988090 165.995999953326050
82.606927004727453 779.798769864169000 164.918863469904120
86.359543694390197 781.009670681423590 169.307223849826390
83.463775634765625 788.696472167968750 163.540236529181980
87.555140075683596 789.441328125000040 167.781039428710930
84.400979614257807 797.056005859374980 162.921600341796870
89.257689903522362 798.415895659348050 167.005758877458250
84.731498718261719 803.198974609375000 161.951004028320310
90.236123926499317 806.511234059053320 165.574675167308130
95.350767347547745 808.915778266059080 169.418996175130220
92.153806246243988 815.014840932992800 164.843153733473570
96.911210250854495 816.425051879882860 168.625501251220700
216.592698669433590 819.695806884765600 164.604200744628910
224.273557874891480 819.171997070312500 163.878556993272580
229.393997192382810 818.567993164062500 162.020996093750000
99.413341522216797 822.557006835937500 168.659416198730470
104.527000427246090 827.831512451171880 169.988998413085940
190.262222290039060 828.152106391059080 168.261666191948790
197.828186035156250 825.649124145507810 166.797687530517580
206.953051918431330 822.495692202919370 166.359786987304690
215.782689094543460 821.922378540039060 168.638625144958500
223.380874633789060 821.618133544921870 166.749252319335940
229.274002075195310 821.971496582031250 163.714500427246090
107.883003234863280 830.456970214843750 170.671005249023440
170.732000732421880 837.328405761718730 170.105001831054690
180.097570146833140 833.296709333147310 169.189285278320310
186.997857230050220 830.195704868861640 167.516145978655150
163.126502990722660 839.733520507812500 170.065002441406250
169.039993286132810 838.633972167968750 169.126007080078120
39.125898361206055 680.076019287109370 171.376502990722660
41.339616775512695 683.822998046875000 172.009496053059910
45.417087078094482 690.398181915283200 173.481187820434570
48.320700168609619 695.378242492675780 175.116624832153320
51.526503906249999 700.190480957031240 174.743640136718740
55.852233409881592 707.432207743326790 175.531457901000980
58.391823768615723 711.541000366210940 176.426246643066410
61.540234446525574 717.166690826416020 175.437842845916750
65.514109838576545 724.872520810081820 175.001762753441230
67.869400024414063 728.686492919921870 177.028330485026030
70.354229990641272 734.975571695963590 175.373433430989590
73.735622752796516 743.630362770774130 174.980908480557530
76.728103637695313 747.239990234375000 179.438995361328120
75.244199480329243 750.029009137834810 172.389569963727670
78.013012084960934 753.740681152343770 175.729919433593750
81.162403869628903 761.915600585937450 175.376640014648440
83.858355998992920 768.689804077148440 174.393436431884770
86.454044342041016 773.153301239013670 176.488500595092770
89.297978894463895 780.056581694504300 175.582207515321930
91.916814168294266 788.068262170862230 174.354222615559910
95.419954473322093 791.212369051846620 178.031910289417620
93.057950337727860 796.289001464843750 171.849169413248690
97.171154315655045 798.448972261869020 176.119652381310090
99.454666724571808 806.847770495292480 175.061538696289060
104.017333984375000 810.307657877604130 179.240666707356780
101.407527923583980 815.739288330078120 173.228388468424470
105.493789271304480 816.731522409539480 177.341473228053050
102.106998443603520 821.068511962890620 171.442497253417970
107.730999537876670 824.632691882905530 174.849142528715590
114.129221598307300 828.073120117187500 178.421888563368040
181.106498718261720 828.790502929687480 177.361898803710940
188.555955306343410 827.253651494565250 175.487260901409660
197.295801544189460 825.378399658203080 174.454449462890640
206.363065592447920 824.610677083333370 173.786601765950510
212.746200561523440 824.225207519531300 171.805200195312490
110.185249328613280 831.490257263183590 172.083875656127930
117.044833713107640 832.584448920355950 176.372611999511720
122.948000590006520 834.807779947916630 177.776555379231780
137.152669270833340 837.999328613281250 179.142333984375000
143.487141200474330 837.616995675223170 179.298283168247760
153.159777323404940 836.802717420789920 177.804222954644100
162.076072975441260 835.643995496961790 176.047889992042830
170.593571690150670 833.520028250558080 175.274170357840400
178.679106059827290 831.050784462376670 173.861947310598280
136.158004760742190 839.080505371093750 177.398002624511720
144.544845581054690 840.152770996093750 175.875922569861790
151.868728637695310 839.848183371804000 174.404088800603690
160.848836263020840 839.140665690104130 172.114835103352870
56.781799316406250 708.821004231770870 181.333669026692720
58.621601104736328 711.445007324218750 181.414993286132810
62.897212743759155 718.103374481201170 182.837373733520510
66.114843096051899 723.815290178571440 183.881286621093750
68.429993262657746 727.795917217548090 185.053614689753600
71.919771194458008 734.883206685384150 184.631956736246740
75.132127935236156 742.425814541903380 183.712363503196030
77.075889587402344 745.973895263671920 185.017398071289050
79.885019211542044 753.016427176339330 184.409856887090770
83.536683400472000 761.803331163194460 183.928943210177950
85.383350372314453 764.945983886718750 186.327499389648440
87.848327343280502 771.198505108173090 184.455269446739780
91.848344802856445 779.797747802734420 184.143399810791010
94.568248748779297 783.377014160156250 186.569503784179690
93.785034179687500 785.376342773437500 181.836995442708340
96.884177281306336 789.295386681189940 184.624152550330540
100.887408574422200 797.674791971842410 183.842957814534510
103.826667785644530 800.381327311197880 187.387334187825530
102.366001129150390 802.932983398437500 181.225997924804690
105.918345221157740 807.351758233432070 184.319896303374180
109.517640075683590 815.435480957031250 183.332280883789050
113.511998494466140 818.156778971354130 186.496890597873260
111.193000793457030 821.675333658854130 180.671330769856780
116.707649421691900 824.739500427246070 184.032675170898440
123.594445970323350 828.194003634982660 186.732555813259550
172.058455033735780 828.864995783025620 185.904725508256400
179.421572004045770 828.306706019810240 183.630642482212610
187.848108927408840 827.497775607638910 182.640109592013890
194.111999511718750 827.333007812500000 181.206001281738280
120.032400512695320 830.676013183593800 181.007199096679700
125.904998779296880 831.767092618075250 183.547318198464130
134.954349517822270 833.828051757812550 184.983100891113280
143.232784271240230 834.536642892020040 184.085463387625570
152.755949401855470 832.966448974609420 184.077648925781260
161.457260795261560 831.447907820991870 183.619999761166780
169.427625656127930 830.129127502441410 182.644500732421870
69.462898254394531 728.812011718750000 189.322998046875000
73.353442600795205 736.232282366071440 190.252144949776780
75.746119689941409 741.544787597656300 190.885198974609380
77.506699371337888 745.277490234375020 191.176696777343750
81.021454204212532 753.123909690163370 192.625908591530530
84.146136890758171 760.102916370738630 192.831365411931810
86.130208969116211 763.975006103515620 193.509916941324860
89.692532707663148 770.890912224264750 193.416618347167970
92.934617360432938 777.646499633789060 192.011918385823580
95.725935363769537 781.366598510742160 194.285450744628920
99.859566890832156 788.870302142518990 192.915605949633060
103.463497161865230 792.860504150390620 196.281494140625000
102.344198608398440 795.444995117187550 190.201602172851550
105.708884899432850 798.389265794020390 194.091768704927890
109.418199666341150 806.473630777994800 192.545801289876290
113.368286132812500 809.919573102678560 196.237289428710940
111.782501220703120 812.667510986328120 189.992996215820310
116.587189810616640 816.246618361700140 193.331024896530890
122.456199645996090 819.738598632812450 196.456997680664070
119.350286211286270 821.993713378906250 190.290283203125000
125.508999386349250 824.429811219911360 193.106405309728670
132.302498953683030 827.297651018415190 193.501571655273440
143.818225436740450 828.289103190104130 196.102333916558170
152.071727405894880 828.708274147727250 195.281273581764910
161.469000009390020 828.975839468149050 192.135998065655060
169.637831370035800 828.571421305338500 191.515750885009770
134.457667032877590 830.591003417968750 189.508666992187500
143.628537691556490 830.721238356370240 191.140845665564910
152.696334838867190 830.427998860677120 190.188222249348970
160.244499206542970 829.699005126953120 189.567993164062500
89.745399475097656 766.489990234375000 198.921997070312500
91.443498611450195 771.856506347656250 199.267498016357420
93.929100036621094 776.549987792968750 199.207000732421870
96.974387274848084 781.032674153645870 200.236553615993930
101.405555031516330 787.717368386008500 201.189547452059660
104.223571777343750 792.038565499441920 201.038855416434160
108.357825901197340 798.041050123131750 201.955566406250000
111.187666575113940 803.491831461588500 200.555999755859370
114.709199829101560 807.629318847656240 202.096118774414070
119.133077768179090 813.527465820312500 200.924769474909850
123.803770212026750 817.670306865985590 200.730538001427280
127.951199340820310 821.818994140625020 198.902801513671870
131.012496948242190 822.470489501953120 199.797004699707030
142.564000447591160 826.615336100260380 199.126332600911470
