ply
format ascii 1.0
element vertex 312
property double x
property double y
property double z
end_header
-60.875199831449066 429.817232572115360 40.178184215839096
-61.701375961303711 435.161499023437500 43.737600326538086
-60.957130908966064 439.072502136230470 48.235181331634521
-64.339537739753723 446.387279510498050 50.543025016784668
-56.042980957031247 444.729797363281250 53.246980285644533
-69.010133107503250 457.142161051432310 52.673599878946938
-66.897483825683594 453.489496866862000 52.271001180013023
-70.957351684570313 462.026489257812500 53.391000747680664
-63.627265930175781 477.115671793619810 48.503733317057289
-63.964066611395943 482.923889160156250 50.125233756171333
-64.861334482828781 490.104665120442690 53.231450398763023
-62.061662673950195 448.958189010620120 56.219974517822266
-56.286905188309518 447.670002184416090 56.727815929212071
-68.914118957519534 459.262207031250000 55.646040344238280
-64.215521632014088 455.595919222445100 59.173794720623945
-55.920817982066758 455.010728315873560 61.279182087291368
-70.418777812610969 464.677271062677560 58.323554645885118
-67.022099812825516 461.596669514973940 60.834798177083336
-51.867033640543617 462.250000000000000 60.910400390625000
-71.448933919270829 491.761667887369810 54.698000590006508
-63.610558827718101 493.668586730957030 55.493825594584145
-68.684860229492188 501.274200439453130 58.976260375976565
-65.672320048014328 501.127866617838550 59.515406799316409
-66.624000549316406 505.578002929687500 62.410499572753906
-62.087329483032228 458.855902099609350 64.183429336547846
-56.959889602661136 458.151702880859370 64.535019302368170
-69.293990241156678 467.876776801215270 64.837788899739579
-64.110072040557867 464.834272003173850 68.106183433532721
-55.665847778320313 464.980001349198180 68.275462501927421
-70.773686495694250 473.234132246537630 68.574564153497874
-67.015401204427079 470.290334065755190 70.847897847493485
-53.192480468749999 473.234695434570310 70.405329895019534
-73.871240234374994 480.494604492187480 71.084359741210932
-74.937698364257813 495.148986816406250 67.048301696777344
-63.977132797241211 491.851832071940120 66.926200866699219
-74.653450012207031 498.958511352539060 69.500900268554688
-63.407975673675537 498.060501098632810 68.421336174011230
-68.666824340820313 510.163490295410160 64.011249542236328
-64.348558108011886 510.877660115559880 67.037346680959061
-65.092573686079547 516.446455522017000 70.342344804243609
-62.324280548095700 468.568200683593770 73.013519287109375
-56.831832885742188 468.335835774739560 73.074249267578125
-69.666699336125305 476.338078425480770 73.961269085223861
-64.038685417175287 474.199176025390610 76.831958007812503
-56.527447741964586 474.639392355214000 76.266408173934266
-72.401536599183700 483.116999699519230 76.910205352000702
-67.483734130859375 479.269327799479190 79.283065795898437
-53.871572147716172 482.712407892400560 77.080363533713594
-77.425501505533859 492.433329264322940 78.715301513671875
-74.614999135335282 490.732167561848940 77.699150085449219
-52.668920135498048 491.484197998046850 78.658100891113278
-70.739399157072370 501.410477487664480 76.604947140342304
-65.922226206461588 502.093135579427100 75.188800048828128
-52.467201232910156 497.063995361328130 79.564300537109375
-77.042396545410156 506.936004638671870 77.418502807617188
-71.913551330566406 506.232498168945310 80.066848754882813
-64.601572903719813 508.626456520774130 77.740744850852266
-55.388551712036133 507.920501708984370 78.557147979736328
-62.729760874872625 520.068478791610000 75.145848149838656
-64.451571570502381 526.511505126953120 77.959071689181854
-69.690262427696808 485.265843318058900 82.718154907226563
-63.943778682399440 483.112055598078540 84.389819170977617
-57.334558823529413 483.700171975528520 83.676488090963929
-77.641740417480463 495.462396240234400 82.600140380859372
-72.537231275770395 491.668844943576400 85.715037536621097
-63.559090614318848 488.599670410156250 88.983500162760421
-54.671878973642983 492.044832865397150 84.447696050008133
-78.463093925924866 500.351413502412700 86.563299291274120
-75.793883005778000 497.746170043945310 88.032184600830078
-53.524260811183765 500.435476551885190 86.606699404509172
-77.819501241048172 511.848673502604190 83.183733622233078
-72.496206156412754 510.556467692057310 83.695796457926434
-66.771922641330292 510.735894097222230 82.742333306206604
-54.305564655977136 510.781294878791360 85.484364677877991
-78.720498826768662 517.473890516493040 87.446100023057724
-72.685795678032775 517.104000515407960 88.215405358208557
-66.853950500488281 515.104492187500000 86.292900085449219
-55.805387496948242 517.265373229980470 86.186311721801758
-61.738416512807213 528.842501322428350 84.013316154479980
-58.416198730468750 527.161987304687500 88.217399597167969
-64.107922120527789 535.338861638849380 87.362345608797938
-70.103837013244629 494.519622802734370 91.147637367248535
-63.456482459758888 493.064105856007530 92.869259012156519
-57.828185490199495 493.109710693359370 91.916300092424663
-77.795567830403641 503.803329467773440 91.632484436035156
-72.619178408668148 500.794118972051710 94.672068459647036
-63.471109771728514 498.735000610351560 97.373125457763678
-56.594970512390134 502.251048278808580 94.773125076293951
-79.742215270996098 509.167559814453110 94.976843566894530
-75.575241088867188 506.711401367187480 97.760119628906253
-54.938319587707518 509.948147583007820 94.701880645751956
-86.725385393415181 521.045017787388360 94.762641906738281
-83.280331929524735 517.687778049045160 94.037432352701828
-72.896360015869135 521.326293945312500 91.107830047607422
-55.022431373596191 518.537815093994140 94.785561084747314
-79.292757851736880 528.271854945591490 94.722693307059146
-75.493175800030045 527.657691368689940 94.593237656813400
-58.921901702880859 531.023010253906250 91.446701049804687
-56.406337738037109 527.553756713867190 94.864687919616699
-78.788833618164063 532.800659179687500 97.702901204427079
-76.619499206542969 533.549011230468750 98.729598999023438
-61.892121042524067 538.399392264229960 93.640282494681216
-57.753233591715492 534.114166259765630 95.981432596842453
-68.529899597167969 549.239013671875000 96.892898559570313
-65.205649693806961 544.300081888834600 95.811411857604980
-69.819949150085449 503.823131561279300 99.871562957763672
-63.626577801174591 503.118499755859370 101.090194702148440
-58.182567596435547 503.508331298828130 99.485900878906250
-78.395524978637695 512.481872558593750 100.538836479187010
-72.037762664085207 509.536975949309580 103.406893175701770
-63.047623901367189 508.819077148437490 105.615320129394530
-57.203826649983725 511.191471354166650 101.605814107259120
-86.441197713216141 522.543986002604130 99.934931437174484
-81.186117172241211 518.842997233072880 103.833664152357310
-75.337957109723774 515.701006208147310 106.786570957728800
-56.324173534617707 518.919408461626860 103.608700022977940
-87.754123912138098 527.197531307444820 103.971964667825130
-84.460812568664551 525.465263366699220 106.444874763488770
-55.410544967651369 528.019604492187450 103.338724899291990
-78.532737038352266 538.390636097301130 101.641490589488640
-75.785202026367188 534.471496582031250 99.957897186279297
-59.251899719238281 540.885009765625000 99.637397766113281
-56.819980474618767 537.006537804236810 103.263754331148590
-78.700798034667969 543.241027832031250 105.107002258300780
-61.922791312722602 547.343089384191220 102.268885668586280
-57.945550918579102 544.353004455566410 106.065000534057620
-68.732968648274735 552.526000976562500 101.843599955240890
-64.488436092029914 553.219002463600870 105.289363514293330
-69.554080200195315 513.075408935546870 108.518000793457030
-63.999254746870562 512.998543479225870 109.415999672629610
-78.831515630086258 521.495412190755250 109.774751027425130
-72.206853426419769 519.212694999499150 112.399358896108780
-62.795882341338370 518.712338331269050 113.465682425150060
-58.109636826948687 520.884732333096620 110.429545315829190
-87.013675689697266 530.801498413085940 109.739749908447270
-81.562276338276106 527.644107216282920 113.221000069066090
-75.369100570678711 524.479751586914060 115.440250396728520
-60.813682209361680 526.101640181108000 115.595363270152700
-57.005362272262573 528.463317871093750 112.194812774658200
-88.014313697814941 535.319885253906250 114.324500083923340
-85.143798828125000 532.795989990234370 114.576999664306640
-56.333408355712891 536.498442276664380 112.701087288234550
-56.745762586593628 546.073062896728520 112.366812705993650
-61.592426593487076 556.011385404146610 111.183999575101410
-58.012816747029625 552.438995361328120 113.969500223795580
-64.485859527587891 562.828078613281260 114.527040100097650
-69.217798233032227 522.702499389648440 117.677999496459960
-64.849143436976846 522.500575474330390 117.624143327985490
-79.007038996769836 530.485929048978390 119.022460937500000
-72.462607554900345 528.280872834034430 121.132487174792160
-63.174768638610843 528.314669799804730 121.129850769042970
-57.941049575805664 531.119995117187500 117.320999145507810
-87.221466700236007 539.002502441406250 119.833166758219410
-82.248692243527145 536.068154359475220 122.212307269756610
-74.843980407714838 533.408007812500050 125.013400268554690
-60.615959777832032 535.510358886718790 122.961600341796880
-57.659709203810920 538.063900902157680 121.030095418294270
-88.061472211565288 543.244280133928560 124.572284153529580
-56.470379076505964 545.995412726151360 121.394526431435040
-59.027198791503906 558.955017089843750 117.467002868652340
-57.081043701171872 554.870002441406200 121.380039672851570
-61.489286671514094 564.939954674762250 119.467913420304010
-58.229600429534912 563.580001831054690 123.818626403808590
-63.928705735640094 571.864335493608000 122.831151557691170
-69.010902404785156 532.202026367187500 126.231002807617190
-65.741451263427734 532.209472656250000 126.289997100830080
-79.698315048217779 539.521054077148390 128.404349517822250
-72.134232016170728 537.393326703239840 130.151088938993550
-63.592021872780542 538.059849964488650 129.372872647372160
-58.763198852539063 541.013000488281250 127.413002014160160
-87.255678030160752 546.069298377403810 129.846845186673680
-82.327424730573384 544.355392456054690 131.908427102225180
-73.015967051188156 542.262176513671870 134.181167602539060
-62.057627822413586 544.506699070786000 132.802029233990280
-57.641346271221451 546.738844651442260 129.359154334435090
-56.747225379943849 555.064196777343800 130.352898788452140
-57.194206237792969 564.025188446044920 130.387000083923340
-60.753617659859039 574.324521272078750 129.301000843877380
-58.147142682756694 570.504568917410670 132.189573015485480
-62.970527394612631 581.170463053385450 131.762132771809890
-65.035301208496094 588.882019042968750 133.591003417968750
-70.703002929687500 541.286987304687500 134.953002929687500
-88.612449645996094 550.016998291015620 135.280502319335940
-80.490073117342860 548.165591153231500 137.276906793767750
-72.004080609577457 546.470639112519050 138.697025206030870
-64.060900370279953 547.366563063401490 137.471537663386410
-87.752766927083329 553.739798990885450 139.106600952148430
-81.847754160563156 552.899368286132810 141.606500625610350
-72.186768341064450 551.579895019531250 143.059701538085930
-62.587300411490510 553.674510867096610 141.354837461959480
-57.849569467397835 556.433387169471190 137.182923537034240
-57.297994914807774 564.196687397203960 139.152840865285780
-59.202301025390625 576.914978027343750 135.436996459960940
-57.595078945159912 572.868331909179690 139.516916910807280
-60.170947355382580 582.525053136488960 137.881236356847440
-58.419683456420898 580.460835774739620 141.987998962402340
-62.077052222357857 590.750110767505820 140.172630027488420
-65.226402282714844 596.526977539062500 143.302993774414060
-86.713600158691406 558.304473876953120 145.123001098632810
-80.691491500191063 557.168955927309750 146.734566730001690
-72.166737147739951 555.929598563057990 147.462513950892860
-64.798349698384598 556.880167643229130 145.941291173299160
-87.618109893798831 562.288793945312480 149.510299682617190
-81.955426667865950 561.572156404194060 150.757631000719580
-71.838299677922180 561.058072603665890 151.865692138671870
-62.885615539550784 563.776841905381960 149.123489379882810
-58.493900299072266 566.945983886718750 145.518005371093750
-60.211319732666013 569.755395507812520 150.676397705078130
-58.164787038167319 573.821728515624950 147.716266886393240
-58.398321424211773 582.349788120814760 148.688998631068640
-59.965847239774817 592.090357163373140 147.825824513154880
-58.669400215148926 587.567489624023440 149.864250183105470
-62.036436601118609 599.167191938920500 149.772546941583810
-87.253675460815430 566.307006835937500 154.161003112792970
-80.996668382124469 565.985229492187500 155.448773470791910
-72.309792880354252 565.027040678879300 155.504828091325440
-65.713841847011025 566.317500523158510 154.222856794084830
-87.600277709960935 570.036999511718700 158.023596191406260
-81.690310026469987 570.766000848067390 159.982840287057970
-71.871126908522385 570.502809964693480 160.163038400503300
-63.655003479548860 573.475996834891130 157.424536023821160
-60.645066760835192 580.942522321428560 158.830571492513030
-58.689960479736328 583.445410156249980 154.200802612304700
-59.188257126581099 591.618382045200860 157.904762631370910
-58.705549240112305 588.041503906250000 154.385501861572270
-60.358577381480821 600.136546741832380 157.434181906960220
-62.731768557899876 607.220047800164480 158.536631533974090
-86.822265625000000 575.605000813802120 164.104334513346340
-81.086176147460932 575.063322753906280 164.324080200195310
-72.593554088047568 574.432179042271170 164.149285452706470
-66.305198669433594 575.798596191406200 162.609197998046880
-81.677314394996273 579.723813011532680 168.698286510649180
-71.474429981128594 580.457484889674790 168.531864063159840
-64.459722730848526 582.615164862738770 165.916973537868930
-61.547089543835867 590.259066877693950 167.129965946592140
-59.551864399629480 599.996348661534970 166.162588680491720
-60.866692066192627 609.405049641927120 166.080666859944670
-63.422818270596593 616.278181596235750 167.916730013760660
-81.445396423339844 583.873032633463590 173.094734191894530
-72.677042643229171 584.233452074455500 172.433211817885880
-66.865399678548172 585.831013997395870 171.893000284830720
-80.400652433696550 589.256415116159590 177.769026906866770
-72.265603746686665 590.274572099958160 177.167624882289350
-65.351870298385620 592.093477884928350 174.731188138326020
-62.067339579264321 599.620998128255220 176.224633280436190
-59.900156767471977 608.850917650305750 175.188390980596130
-61.287941296895347 618.316337585449220 174.949876149495450
-63.288644366794159 625.108222113715330 177.286278618706600
-79.375447591145829 593.418805803571440 181.604572841099330
-73.396439143589561 593.915466308593750 181.372680119105750
-79.118235778808597 598.785876464843800 185.978200683593740
-72.963891721239278 599.195488424862110 185.489764045266550
-65.678345362345382 600.224540710449220 182.923332214355470
-62.423496377879175 608.648793187634740 184.869965651939650
-60.300093173980713 618.037567138671870 184.391749382019040
-61.741604198109023 627.419871937144880 184.004818309437160
-64.092168172200516 633.744832356770870 185.652669270833340
-79.180572509765625 602.887001731179000 190.437541614879250
-74.436017123135656 603.072537508877870 189.708092429421160
-78.332785470145083 607.172563825334810 193.763715471540170
-72.642411112785339 608.962954521179200 193.803970098495480
-65.505953788757324 610.248883565266960 191.501708348592130
-71.489259338378901 614.388610839843750 197.195999145507810
-63.270349884033202 617.289632161458370 193.829032897949220
-60.916043009076802 626.689287458147310 193.660572052001950
-61.850114610460068 636.311222782841470 193.343480993200250
-63.691649913787842 642.139381408691410 195.801626205444340
-79.040649414062500 612.342987060546870 199.046501159667970
-75.351465861002609 612.706339518229130 198.472335815429690
-78.315579223632810 616.003186035156200 201.965197753906240
-72.722303324732280 618.321516365840470 202.123568830818950
-66.067152114141550 619.737423851376430 200.301855904715410
-70.487266540527344 623.395507812500000 206.047500610351560
-64.134214310418997 626.292239234561070 203.147380283900670
-61.287406444549561 636.064628601074220 202.344374656677250
-62.070354843139647 644.568005371093700 202.553398895263680
-64.071100234985352 650.902496337890620 204.410999298095700
-76.957298278808594 621.346008300781250 207.184997558593750
-71.364086574978302 626.920138888888910 210.449584113226990
-65.694307645161942 629.500378926595090 208.916208267211910
-69.229500770568848 632.893630981445310 214.732374191284180
-64.021788809034561 635.386445787217890 211.635776943630650
-61.872248535156253 645.055317382812520 211.351359863281260
-62.422949981689456 654.009451293945290 211.850299072265610
-63.232416788736977 659.453837076822880 214.389666239420560
-69.658470153808594 636.071389903192880 218.138305000636880
-66.336300189678482 638.261235163761970 218.136460524338930
-68.707248687744141 641.369750976562500 222.559497833251950
-64.692099995083282 644.605940077039920 220.932668050130220
-61.924362659454346 654.028373718261720 220.372559547424320
-62.596293979220917 662.708835177951410 220.797386169433590
-68.841261291503912 645.445605468750050 226.964599609375000
-66.217854817708329 647.774888780381960 226.890111287434910
-64.077051623114230 653.550137223868550 229.487344676050640
-61.801235809326172 663.037155761718740 229.355319824218750
-62.534158370074103 671.826886345358500 230.130060532513800
-63.072650909423828 677.909515380859370 233.354003906250000
-64.946350097656250 656.132507324218750 235.305999755859370
-62.042454806241125 664.187905051491500 236.980635209517030
-61.050306558609009 672.052246093750000 238.383563995361330
-61.824899911880493 679.470375061035160 238.449875831604000
-61.757400512695312 686.927001953125000 241.570999145507810
-60.705649375915527 672.782005310058590 244.604871749877930
-60.029349899291994 681.434201049804640 246.577849578857410
-60.818871634347097 689.292075020926290 248.530570983886720
-61.327600479125977 695.946502685546870 251.485000610351560
-59.512287616729736 691.358634948730470 254.340999603271480
-58.544000625610352 690.103973388671870 255.224502563476560
-60.805186462402347 698.748343912760450 256.429798380533840
-60.777000427246094 705.047973632812500 259.351989746093750
-60.273048400878906 702.184509277343750 261.166992187500000
-60.295362949371338 706.864631652832030 263.509502410888670
