ply
format ascii 1.0
element vertex 802
property double x
property double y
property double z
end_header
-1.484770059585571 5.932660102844238 -0.871186971664429
-1.484770059585571 5.932660102844238 -0.871186971664429
-1.559769988059998 5.422659873962402 -0.947187006473541
-1.472769975662231 5.217659950256348 -0.964186012744904
-1.276769995689392 4.549650192260742 -1.016190052032471
-1.497769951820374 6.344659805297852 -0.917189002037048
-1.542770028114319 5.736660003662109 -0.974188029766083
-1.314769983291626 5.366660118103027 -1.011190056800842
-1.371770024299622 4.763659954071045 -1.055189967155457
-1.649770021438599 6.188650131225586 -0.972185015678406
-1.208770036697388 4.971660137176514 -1.051190018653870
-1.136770009994507 4.748660087585449 -1.069190025329590
-1.373769998550415 6.177659988403320 -0.991186022758484
-1.332769989967346 5.801660060882568 -1.021190047264099
-1.206769943237305 4.214660167694092 -1.121189951896668
-1.434769988059998 4.995659828186035 -1.085190057754517
-1.058769941329956 4.542650222778320 -1.126189947128296
0.407232999801636 3.547660112380981 -1.197190046310425
-1.478770017623901 6.577650070190430 -1.006189942359924
0.411229997873306 3.804660081863403 -1.188189983367920
-1.612769961357117 5.964660167694092 -1.052189946174622
-1.667770028114319 6.455659866333008 -1.023190021514893
0.407232999801636 4.033659934997559 -1.197190046310425
0.300229996442795 3.238660097122192 -1.247189998626709
-1.140769958496094 5.210659980773926 -1.134189963340759
-1.717769980430603 6.678659915924072 -1.057189941406250
-1.464769959449768 5.513659954071045 -1.140190005302429
0.304232001304626 2.865659952163696 -1.312190055847168
-1.535770058631897 6.807660102844238 -1.067190051078796
-0.963769972324371 4.366660118103027 -1.227190017700195
-0.416768997907639 6.430659770965576 -1.111189961433411
-1.321769952774048 4.376659870147705 -1.226189970970154
-1.211770057678223 3.961659908294678 -1.254189968109131
-1.411769986152649 5.240660190582275 -1.183189988136292
0.187231004238129 3.067660093307495 -1.327190041542053
-1.016770005226135 4.112659931182861 -1.258190035820007
-1.759770035743713 6.903649806976318 -1.093189954757690
-1.139770030975342 5.522659778594971 -1.181190013885498
0.175229996442795 3.453660011291504 -1.320189952850342
-1.180770039558411 5.756659984588623 -1.176190018653870
0.415232002735138 4.309659957885742 -1.274189949035645
-1.050770044326782 4.939660072326660 -1.228189945220947
-1.326769948005676 4.612659931182861 -1.246189951896668
-0.980768024921417 4.711659908294678 -1.244189977645874
-1.263769984245300 6.327650070190430 -1.154189944267273
0.242231994867325 3.917649984359741 -1.310189962387085
-1.564769983291626 6.311659812927246 -1.162189960479736
-0.598767995834351 6.276659965515137 -1.175189971923828
-1.330770015716553 4.144659996032715 -1.298189997673035
-1.465770006179810 5.885660171508789 -1.199190020561218
0.139230996370316 3.711659908294678 -1.349189996719360
-1.337769985198975 6.630660057067871 -1.167189955711365
0.206231996417046 4.225659847259522 -1.322190046310425
-0.505769014358521 6.643660068511963 -1.195189952850342
-1.324769973754883 5.020659923553467 -1.284190058708191
-0.977769017219543 5.303659915924072 -1.271190047264099
-0.756769001483917 6.432660102844238 -1.216189980506897
-1.068770051002502 5.945650100708008 -1.249189972877502
-0.530767023563385 6.068659782409668 -1.248190045356751
-1.842769980430603 7.130660057067871 -1.181190013885498
-1.586770057678223 6.562660217285156 -1.217190027236939
-0.839769005775452 6.172659873962402 -1.246189951896668
-0.827768027782440 4.553659915924072 -1.348189949989319
-0.817770004272461 5.936659812927246 -1.268190026283264
-0.900766015052795 3.947659969329834 -1.384189963340759
0.129233002662659 4.438650131225586 -1.367190003395081
-0.870766997337341 5.031660079956055 -1.326189994812012
0.284231990575790 2.671659946441650 -1.474189996719360
0.045233201235533 3.248660087585449 -1.439190030097961
0.131231993436813 2.878659963607788 -1.463189959526062
-0.947767019271851 5.636660099029541 -1.294190049171448
-1.371770024299622 3.901659965515137 -1.396190047264099
-1.065770030021668 6.376659870147705 -1.255190014839172
-1.318770051002502 5.580659866333008 -1.300189971923828
0.340231001377106 4.511660099029541 -1.378190040588379
-1.678769946098328 7.324659824371338 -1.202190041542053
-0.725767016410828 6.690659999847412 -1.248190045356751
-0.823765993118286 4.159659862518311 -1.396190047264099
0.012232200242579 3.545660018920898 -1.444190025329590
-1.501770019531250 7.071660041809082 -1.227190017700195
0.034231599420309 4.057660102844238 -1.418190002441406
-1.414770007133484 6.198659896850586 -1.281190037727356
-1.191769957542419 6.776659965515137 -1.249189972877502
-0.968766987323761 6.663660049438477 -1.263190031051636
-1.146770000457764 3.761660099029541 -1.432189941406250
-0.504765987396240 5.804659843444824 -1.319190025329590
-1.247769951820374 5.355649948120117 -1.344190001487732
0.102232001721859 4.767660140991211 -1.392189979553223
-0.642767012119293 5.557660102844238 -1.342190027236939
0.493230998516083 2.756659984588623 -1.518190026283264
-0.311769008636475 5.694660186767578 -1.341189980506897
-1.279770016670227 6.979660034179688 -1.261190056800842
-0.078767396509647 5.155660152435303 -1.378190040588379
-0.411767989397049 6.274660110473633 -1.314190030097961
-0.781767010688782 5.356659889221191 -1.367190003395081
-0.417768001556396 5.360660076141357 -1.371189951896668
-1.296769976615906 5.968659877777100 -1.329190015792847
-0.054769098758698 4.593659877777100 -1.420189976692200
-0.060769699513912 5.430659770965576 -1.374189972877502
-1.631770014762878 6.891660213470459 -1.276190042495728
-0.048768598586321 3.856659889221191 -1.470190048217773
0.535230994224548 2.520659923553467 -1.555189967155457
-0.311769008636475 5.110660076141357 -1.398190021514893
-1.004770040512085 6.906660079956055 -1.290189981460571
-0.177765995264053 4.905660152435303 -1.414190053939819
-1.428769946098328 6.432660102844238 -1.315189957618713
0.318231999874115 3.657660007476807 -1.501189947128296
-1.216770052909851 4.756659984588623 -1.426190018653870
-1.260769963264465 4.416659832000732 -1.447190046310425
0.283232003450394 3.398659944534302 -1.521190047264099
-0.715767979621887 4.758659839630127 -1.434190034866333
-0.165768995881081 4.282660007476807 -1.468189954757690
-0.595770001411438 5.225659847259522 -1.412189960479736
-0.742769002914429 4.372660160064697 -1.462190032005310
-1.336770057678223 3.669660091400147 -1.499189972877502
-1.906769990921021 7.324659824371338 -1.281190037727356
-0.126767992973328 5.814660072326660 -1.384189963340759
-1.154770016670227 5.115660190582275 -1.427189946174622
-0.790768980979919 6.961659908294678 -1.323189973831177
-1.139770030975342 5.718659877777100 -1.397189974784851
-0.272767990827560 4.681650161743164 -1.469190001487732
-1.224769949913025 6.274660110473633 -1.368190050125122
-1.471770048141480 6.704659938812256 -1.341189980506897
-2.003770112991333 7.555659770965576 -1.290189981460571
-0.592767000198364 6.521649837493897 -1.364189982414246
-1.082769989967346 5.489659786224365 -1.421190023422241
-1.771770000457764 7.564660072326660 -1.298189997673035
0.281233012676239 4.123660087585449 -1.518190026283264
-0.934765994548798 3.646650075912476 -1.537189960479736
0.243230998516083 3.115659952163696 -1.578189969062805
-1.560770034790039 7.495659828186035 -1.308189988136292
-0.532769978046417 5.011660099029541 -1.462190032005310
-1.393769979476929 7.309659957885742 -1.324190020561218
-0.740765988826752 3.897660017013550 -1.533190011978149
0.263231992721558 3.903650045394898 -1.541190028190613
-0.250768005847931 3.974659919738770 -1.533190011978149
-0.324770003557205 5.906660079956055 -1.421190023422241
-0.680769026279449 6.170660018920898 -1.404189944267273
-0.300767987966537 4.456659793853760 -1.515190005302429
-0.657769978046417 5.946660041809082 -1.425189971923828
-1.251770019531250 4.138659954071045 -1.530189990997315
-0.891767024993896 6.341650009155273 -1.406190037727356
-1.694769978523254 7.112659931182861 -1.355190038681030
-1.040770053863525 6.131659984588623 -1.418190002441406
-1.108770012855530 7.150660037994385 -1.363190054893494
-0.063767999410629 3.153650045394898 -1.610190033912659
-0.959767997264862 5.890659809112549 -1.445189952850342
-0.717767000198364 5.735660076141357 -1.463189959526062
0.741231977939606 2.496659994125366 -1.667189955711365
0.227231994271278 4.345660209655762 -1.561190009117127
-0.959767997264862 5.223649978637695 -1.501189947128296
-0.484768986701965 4.695650100708008 -1.537189960479736
-1.045770049095154 6.519659996032715 -1.427189946174622
-0.834767997264862 5.545660018920898 -1.487190008163452
-0.374769002199173 4.211659908294678 -1.569190025329590
-0.293767988681793 3.696660041809082 -1.601189970970154
-0.816766023635864 6.560659885406494 -1.431190013885498
-0.231766998767853 5.511660099029541 -1.498190045356751
-1.257769942283630 6.651659965515137 -1.423189997673035
-0.179768994450569 3.467659950256348 -1.621189951896668
0.114233002066612 5.024660110473633 -1.534190058708191
0.040232099592686 5.278649806976318 -1.519189953804016
0.337233006954193 2.917649984359741 -1.660189986228943
-1.248769998550415 3.879659891128540 -1.591189980506897
-0.504765987396240 3.933660030364990 -1.594190001487732
-0.456770002841949 5.567659854888916 -1.501189947128296
0.161229997873306 2.657660007476807 -1.677189946174622
0.187231004238129 4.662660121917725 -1.566190004348755
-0.001767699955963 2.901659965515137 -1.670189976692200
-0.624768972396851 4.149660110473633 -1.594190001487732
-1.413769960403442 6.912660121917725 -1.427189946174622
-0.620766997337341 3.719660043716431 -1.621189951896668
-2.101769924163818 7.775660037994385 -1.373190045356751
-1.136770009994507 3.519659996032715 -1.634189963340759
-1.050770044326782 4.642660140991211 -1.571189999580383
-0.930769026279449 6.766660213470459 -1.461189985275269
-0.191765993833542 5.261660099029541 -1.557189941406250
-0.658769011497498 5.405660152435303 -1.546190023422241
-1.127769947052002 4.333660125732422 -1.606189966201782
-0.925768017768860 4.960659980773926 -1.572190046310425
-0.754765987396240 3.529659986495972 -1.659190058708191
-0.532769978046417 4.384659767150879 -1.611189961433411
0.317232996225357 2.492660045623779 -1.729189991950989
-1.492769956588745 7.153649806976318 -1.445189952850342
-0.434765994548798 5.223649978637695 -1.568189978599548
0.588231980800629 2.323659896850586 -1.747189998626709
0.015230599790812 4.825660228729248 -1.605190038681030
-0.099767297506332 5.053659915924072 -1.592190027236939
-1.187770009040833 6.891660213470459 -1.480190038681030
-1.670770049095154 7.747660160064697 -1.427189946174622
-1.771770000457764 7.350659847259522 -1.454190015792847
0.187231004238129 3.495660066604614 -1.700189948081970
-0.743767976760864 5.090660095214844 -1.603189945220947
0.091230802237988 4.089660167694092 -1.672189950942993
0.144232004880905 3.779659986495972 -1.692190051078796
-1.406769990921021 7.679659843444824 -1.454190015792847
-0.903768002986908 7.054659843444824 -1.499189972877502
0.481234014034271 2.784660100936890 -1.763190031051636
0.014231099747121 4.554659843444824 -1.657189965248108
0.168229997158051 3.255660057067871 -1.735190033912659
-0.416768997907639 3.554660081863403 -1.717190027236939
0.030233800411224 4.310659885406494 -1.682189941406250
-0.826767981052399 4.758659839630127 -1.650189995765686
-0.927766025066376 3.413660049438477 -1.730190038681030
-0.336766988039017 4.893660068511963 -1.650189995765686
-0.579766988754272 4.877659797668457 -1.650189995765686
-0.879765987396240 4.544660091400147 -1.670189976692200
-1.283769965171814 7.142660140991211 -1.516190052032471
-1.098770022392273 4.075660228729248 -1.709190011024475
-0.195767998695374 4.667650222778320 -1.684190034866333
-1.885769963264465 7.876659870147705 -1.490190029144287
-1.892770051956177 7.536660194396973 -1.517189979553223
-2.175770044326782 7.942659854888916 -1.497189998626709
-0.313767999410629 3.370660066604614 -1.781190037727356
0.014231099747121 2.743659973144531 -1.826189994812012
-0.631769001483917 4.640659809112549 -1.711189985275269
-0.910767972469330 4.306650161743164 -1.730190038681030
-1.128769993782044 7.405660152435303 -1.548189997673035
0.624231994152069 2.135659933090210 -1.876189947128296
0.853232026100159 2.230659961700440 -1.873190045356751
-0.178770005702972 4.398660182952881 -1.741189956665039
0.398234009742737 2.297660112380981 -1.872189998626709
-1.390769958496094 7.357659816741943 -1.564190030097961
-0.386765986680985 4.550660133361816 -1.738190054893494
-0.209767997264862 3.177659988403320 -1.821189999580383
-1.616770029067993 7.462659835815430 -1.565189957618713
-2.111769914627075 8.272660255432129 -1.519189953804016
0.706232011318207 2.507659912109375 -1.895190000534058
-0.681768000125885 4.397659778594971 -1.775189995765686
-0.018766000866890 3.872659921646118 -1.812190055847168
-0.111767999827862 2.947659969329834 -1.873190045356751
0.257230997085571 2.997659921646118 -1.875190019607544
-1.288769960403442 7.556650161743164 -1.596189975738525
-1.891770005226135 8.313650131225586 -1.548189997673035
-1.970770001411438 8.107660293579102 -1.561190009117127
-0.123769000172615 4.070650100708008 -1.818189978599548
-2.038769960403442 7.742660045623779 -1.599189996719360
-0.559765994548798 3.380660057067871 -1.867190003395081
-1.183769941329956 3.459650039672852 -1.866189956665039
-0.308766990900040 4.222660064697266 -1.829190015792847
0.737231016159058 1.895660042762756 -1.974189996719360
-2.326770067214966 8.355649948120117 -1.581189990043640
-0.533769011497498 4.217659950256348 -1.845190048217773
-0.930769026279449 3.946660041809082 -1.861189961433411
-1.603770017623901 7.957660198211670 -1.621189951896668
-0.879765987396240 3.279659986495972 -1.903190016746521
0.106233999133110 3.418659925460815 -1.903190016746521
-1.719769954681397 7.661660194396973 -1.646190047264099
-2.261770009994507 8.115659713745117 -1.624189972877502
-1.472769975662231 7.681650161743164 -1.667189955711365
-1.756770014762878 8.145660400390625 -1.640190005302429
-0.672769010066986 4.049650192260742 -1.889189958572388
0.553233027458191 2.685659885406494 -1.979189991950989
0.451231002807617 2.132659912109375 -2.015189886093140
-1.016770005226135 3.719660043716431 -1.914190053939819
0.143233001232147 2.476660013198853 -2.000190019607544
-0.419766992330551 3.236660003662109 -1.958189964294434
-0.052766401320696 3.684659957885742 -1.942190051078796
-0.449770003557205 4.009659767150879 -1.922189950942993
-0.222767993807793 3.884660005569458 -1.932189941406250
0.907232999801636 1.755660057067871 -2.069190025329590
0.794233977794647 1.479660034179688 -2.087189912796021
0.394232004880905 2.855649948120117 -2.014189958572388
0.154229998588562 3.201659917831421 -1.996189951896668
-2.097769975662231 7.925660133361816 -1.719190001487732
-0.787766993045807 3.817660093307495 -1.979189991950989
-0.663766026496887 3.198659896850586 -2.019190073013306
0.769231975078583 2.193660020828247 -2.090189933776856
-0.261765986680985 3.011660099029541 -2.040189981460571
0.264230996370316 2.311660051345825 -2.086189985275269
-0.002767200116068 2.636660099029541 -2.067189931869507
0.561231970787048 1.878659963607788 -2.116189956665039
-1.869770050048828 7.794660091400147 -1.751189947128296
-2.514770030975342 8.353659629821777 -1.719190001487732
-0.943768978118896 3.128659963607788 -2.053189992904663
0.665232002735138 1.659659981727600 -2.156189918518066
-1.010769963264465 3.519659996032715 -2.037189960479736
-0.569769024848938 3.825659990310669 -2.024189949035645
-0.124769002199173 2.818660020828247 -2.092190027236939
-1.125769972801209 3.299649953842163 -2.065190076828003
-0.369767993688583 3.733659982681274 -2.059190034866333
-0.032769799232483 3.442660093307495 -2.079190015792847
-0.236768007278442 3.536659955978394 -2.115190029144287
0.338232010602951 2.118659973144531 -2.206190109252930
-0.804768979549408 3.545660018920898 -2.121190071105957
-0.766767024993896 3.026659965515137 -2.156189918518066
-0.584767997264862 3.607660055160523 -2.130189895629883
0.874231994152069 1.218659996986389 -2.284189939498901
-0.447766989469528 3.015660047531128 -2.171190023422241
0.639231026172638 2.501660108566284 -2.213190078735352
0.735231995582581 1.402660012245178 -2.285190105438232
-2.251770019531250 8.173660278320313 -1.866189956665039
-1.553769946098328 8.026659965515137 -1.882189989089966
0.256231993436813 2.982660055160523 -2.201189994812012
0.073233000934124 3.148659944534302 -2.198189973831177
0.433234006166458 2.751660108566284 -2.228189945220947
0.834231019020081 1.743659973144531 -2.301189899444580
0.442232996225357 1.923660039901733 -2.308190107345581
-0.118767999112606 3.296659946441650 -2.224189996719360
-0.435770004987717 3.463660001754761 -2.213190078735352
0.737231016159058 1.957659959793091 -2.314189910888672
0.705232977867126 2.200659990310669 -2.303189992904663
-0.978769004344940 3.346659898757935 -2.223190069198608
0.938230991363525 1.505660057067871 -2.349189996719360
-0.287766993045807 2.877660036087036 -2.262190103530884
-1.988770008087158 7.985660076141357 -1.950189948081970
-2.505769968032837 8.308659553527832 -1.938189983367920
0.168229997158051 2.355659961700440 -2.318190097808838
-0.630769014358521 2.890660047531128 -2.281189918518066
1.065230011940002 1.291659951210022 -2.390189886093140
-0.657769978046417 3.395659923553467 -2.260190010070801
-1.741770029067993 7.957660198211670 -1.984189987182617
0.541231989860535 1.734660029411316 -2.369189977645874
-1.065770030021668 3.084650039672852 -2.295190095901489
-0.098767898976803 2.686660051345825 -2.332190036773682
-0.886766016483307 2.925659894943237 -2.323189973831177
0.619230985641479 1.511659979820252 -2.439189910888672
0.233233004808426 2.160660028457642 -2.400190114974976
-0.305768996477127 3.241660118103027 -2.339190006256104
-2.161770105361939 8.082659721374512 -2.056190013885498
-0.807766973972321 3.254659891128540 -2.353189945220947
0.533231973648071 2.585659980773926 -2.407190084457398
0.041231501847506 2.955660104751587 -2.382189989089966
-0.125768005847931 3.105649948120117 -2.381190061569214
0.235231995582581 2.829659938812256 -2.401190042495728
-0.464769005775452 2.736660003662109 -2.405189990997315
0.750231027603149 1.317659974098206 -2.510190010070801
-0.572767019271851 3.242660045623779 -2.396189928054810
1.088230013847351 1.504660010337830 -2.516190052032471
-0.020768700167537 2.336659908294678 -2.471189975738525
0.970232009887695 1.705659985542297 -2.525190114974976
-2.342770099639893 8.205659866333008 -2.119189977645874
0.640231013298035 2.339659929275513 -2.487190008163452
1.180230021476746 1.199659943580627 -2.562190055847168
-0.258767992258072 2.630660057067871 -2.475189924240112
-1.887770056724548 7.993659973144531 -2.150190114974976
0.307229995727539 1.945659995079041 -2.528189897537231
-0.822767019271851 2.784660100936890 -2.480190038681030
0.933233976364136 1.207659959793091 -2.595190048217773
0.352232009172440 2.664659976959229 -2.507189989089966
-0.963769972324371 3.054660081863403 -2.489190101623535
0.517233014106750 1.641659975051880 -2.595190048217773
-0.416768997907639 3.088660001754761 -2.510190010070801
-0.632767975330353 2.676660060882568 -2.537189960479736
0.720232009887695 2.139659881591797 -2.587189912796021
-0.688768029212952 3.100660085678101 -2.525190114974976
-0.231766998767853 2.975660085678101 -2.572190046310425
-0.004766100086272 2.881659984588623 -2.587189912796021
0.105231001973152 2.233659982681274 -2.628190040588379
0.825232028961182 1.940659999847412 -2.652189970016480
-2.522769927978516 8.219659805297852 -2.262190103530884
-2.256769895553589 8.048660278320313 -2.287189960479736
1.384230017662048 1.103659987449646 -2.724189996719360
0.628233015537262 1.462659955024719 -2.708189964294434
0.178232997655869 2.751660108566284 -2.629189968109131
-0.466767996549606 2.531660079956055 -2.641190052032471
1.152230024337769 1.544659972190857 -2.733190059661865
0.763231992721558 1.271659970283508 -2.746190071105957
-1.036769986152649 2.893660068511963 -2.643189907073975
-0.893765985965729 2.679660081863403 -2.660190105438232
-2.043770074844360 7.989659786224365 -2.342190027236939
-0.536768019199371 2.960659980773926 -2.652189970016480
0.335229992866516 1.800660014152527 -2.729190111160278
-0.814767003059387 2.938649892807007 -2.671190023422241
1.030230045318604 1.145660042762756 -2.795190095901489
0.426234006881714 2.350660085678101 -2.752190113067627
0.589232027530670 2.168659925460815 -2.769190073013306
-0.285768002271652 2.348659992218018 -2.758189916610718
-0.071767397224903 2.276659965515137 -2.764189958572388
1.211230039596558 1.028660058975220 -2.856189966201782
0.259234011173248 2.591650009155273 -2.763190031051636
0.198232993483543 2.002660036087036 -2.806190013885498
-0.345770001411438 2.834650039672852 -2.759190082550049
0.893233001232147 1.764660000801086 -2.832190036773682
0.481234014034271 1.570659995079041 -2.842190027236939
-0.792768001556396 2.490659952163696 -2.782190084457398
-0.656767010688782 2.831660032272339 -2.786190032958984
1.438230037689209 1.233659982681274 -2.897190093994141
1.274230003356934 1.401659965515137 -2.901190042495728
-0.142766997218132 2.736660003662109 -2.812190055847168
0.742232024669647 1.958660006523132 -2.869189977645874
-1.040770053863525 2.744659900665283 -2.820189952850342
1.005229949951172 1.586660027503967 -2.906189918518066
0.064230300486088 2.606659889221191 -2.870189905166626
-0.147768005728722 2.107660055160523 -2.905189990997315
0.862231016159058 1.087659955024719 -2.973190069198608
0.351233005523682 1.738659977912903 -2.942189931869507
0.649232983589172 1.311660051345825 -2.976190090179443
-0.630769014358521 2.351660013198853 -2.912189960479736
-0.366768985986710 2.197659969329834 -2.936189889907837
-0.540768980979919 2.689660072326660 -2.911190032958984
-0.805769026279449 2.676660060882568 -2.920190095901489
0.049231000244617 1.990659952163696 -2.969189882278442
0.304232001304626 2.353660106658936 -2.960190057754517
-0.308766990900040 2.652659893035889 -2.938189983367920
0.468232989311218 2.196660041809082 -2.977190017700195
-0.959767997264862 2.513659954071045 -2.948189973831177
1.508229970932007 0.868656992912292 -3.068190097808838
1.262230038642883 0.914656996726990 -3.065190076828003
0.461234003305435 1.459660053253174 -3.055190086364746
1.022230029106140 0.937656998634338 -3.096189975738525
0.799230992794037 1.797659993171692 -3.046190023422241
-0.115765996277332 2.551660060882568 -2.999190092086792
-0.580766022205353 2.155659914016724 -3.049190044403076
0.224233999848366 1.876659989356995 -3.073189973831177
0.602231979370117 1.932659983634949 -3.073189973831177
-0.190767005085945 1.914659976959229 -3.068190097808838
0.689230024814606 1.116659998893738 -3.146189928054810
1.394230008125305 1.136659979820252 -3.154190063476563
0.941232979297638 1.573660016059876 -3.126189947128296
1.147230029106140 1.359660029411316 -3.141190052032471
-0.409768998622894 2.007659912109375 -3.091190099716187
0.011232799850404 1.818660020828247 -3.107189893722534
-0.868767976760864 2.342659950256348 -3.070189952850342
-0.514768004417419 2.510659933090210 -3.066190004348755
1.118229985237122 0.593657016754150 -3.192189931869507
0.774232983589172 0.907657027244568 -3.191190004348755
0.940234005451202 0.728655993938446 -3.203190088272095
1.357229948043823 0.700655996799469 -3.208189964294434
0.050230398774147 2.334660053253174 -3.104190111160278
0.243230998516083 1.544659972190857 -3.169189929962158
0.791231989860535 0.549656987190247 -3.254189968109131
1.583230018615723 0.613655984401703 -3.257189989089966
-0.329766988754272 1.788660049438477 -3.192189931869507
0.211234003305435 2.174659967422485 -3.178189992904663
-0.168768003582954 2.344660043716431 -3.166189908981323
0.527231991291046 0.566657006740570 -3.288189888000488
0.404229998588562 2.071660041809082 -3.202189922332764
0.619230985641479 0.777656972408295 -3.280189990997315
-0.662766993045807 2.354660034179688 -3.181190013885498
0.412234008312225 1.345659971237183 -3.251189947128296
0.724233984947205 1.726660013198853 -3.242189884185791
0.028231000527740 1.536659955978394 -3.249190092086792
-0.199770003557205 1.612660050392151 -3.246190071105957
-0.668767988681793 2.010659933090210 -3.219189882278442
1.217229962348938 1.121659994125366 -3.292190074920654
0.327230989933014 0.422655999660492 -3.330189943313599
-0.822767019271851 2.191659927368164 -3.226190090179443
-0.405766993761063 2.295660018920898 -3.235189914703369
-0.026769300922751 2.185659885406494 -3.249190092086792
0.549230992794037 0.989656984806061 -3.325190067291260
0.028231000527740 0.524657011032104 -3.352190017700195
-0.533769011497498 1.813660025596619 -3.277189970016480
1.762230038642883 0.673657000064850 -3.373189926147461
0.408232003450394 0.808655977249146 -3.366189956665039
0.237231001257896 0.643657028675079 -3.378190040588379
-0.168768003582954 0.647656023502350 -3.377190113067627
0.962233006954193 1.331660032272339 -3.347189903259277
1.573230028152466 0.856656014919281 -3.380189895629883
0.521230995655060 1.900660037994385 -3.314189910888672
0.354230999946594 1.101660013198853 -3.380189895629883
-0.584767997264862 2.194659948348999 -3.315190076828003
-0.055768601596355 1.342659950256348 -3.372189998626709
0.182229995727539 1.370659947395325 -3.373189926147461
0.829234004020691 1.517660021781921 -3.371190071105957
-0.279767990112305 1.425660014152527 -3.372189998626709
0.208231002092361 0.924656987190247 -3.406189918518066
0.027231600135565 0.741656005382538 -3.420190095901489
0.146230995655060 2.018660068511963 -3.359189987182617
1.359230041503906 0.892656981945038 -3.442189931869507
-0.487767994403839 1.539659976959229 -3.396189928054810
-0.126767992973328 0.951656997203827 -3.437190055847168
0.058233600109816 1.084660053253174 -3.433190107345581
0.946229994297028 1.126659989356995 -3.442189931869507
1.894230008125305 0.505656003952026 -3.487190008163452
-0.256769001483917 1.129660010337830 -3.437190055847168
-0.108765996992588 2.026659965515137 -3.392189979553223
-0.342767000198364 2.079659938812256 -3.396189928054810
-0.752767026424408 1.876659989356995 -3.408190011978149
1.105229973793030 0.975656986236572 -3.476190090179443
-0.337765991687775 0.897656023502350 -3.479190111160278
-0.696766972541809 1.628659963607788 -3.451189994812012
0.330233007669449 1.842659950256348 -3.458189964294434
0.660230994224548 1.637660026550293 -3.475189924240112
-0.499769002199173 1.119660019874573 -3.497189998626709
-0.529767990112305 1.918660044670105 -3.476190090179443
0.033232100307941 1.856660008430481 -3.486190080642700
-0.246766999363899 1.849660038948059 -3.489190101623535
-0.722768008708954 1.420660018920898 -3.545190095901489
1.483229994773865 0.769656002521515 -3.607189893722534
1.795230031013489 0.678655982017517 -3.616189956665039
-0.405766993761063 1.706660032272339 -3.547189950942993
0.454234004020691 1.660660028457642 -3.561189889907837
0.196229994297028 1.693660020828247 -3.575190067291260
0.661230027675629 1.405660033226013 -3.603189945220947
-0.119768001139164 1.656659960746765 -3.588190078735352
-0.524766981601715 1.493659973144531 -3.609189987182617
0.836233973503113 1.142660021781921 -3.654190063476563
-0.299768000841141 1.525660037994385 -3.630189895629883
1.994230031967163 0.570657014846802 -3.715189933776856
2.113229990005493 0.369655996561050 -3.730190038681030
1.007230043411255 0.971656024456024 -3.709189891815186
1.221230030059815 0.817655980587006 -3.730190038681030
0.327230989933014 1.495659947395325 -3.690190076828003
0.073233000934124 1.488659977912903 -3.689189910888672
-0.384766995906830 1.295660018920898 -3.703190088272095
-0.166768997907639 1.343659996986389 -3.712189912796021
1.621230006217957 0.699656009674072 -3.772190093994141
-0.510766983032227 1.110659956932068 -3.750190019607544
-0.246766999363899 1.139660000801086 -3.782190084457398
0.541231989860535 1.350659966468811 -3.788189888000488
-0.394769012928009 0.898656010627747 -3.810189962387085
0.249231994152069 1.285660028457642 -3.808190107345581
1.400230050086975 0.728655993938446 -3.866189956665039
0.082231901586056 1.145660042762756 -3.844189882278442
1.832229971885681 0.656656980514526 -3.891190052032471
-0.209767997264862 0.763656020164490 -3.878190040588379
2.113229990005493 0.590656995773315 -3.914190053939819
-0.072766900062561 0.945657014846802 -3.891190052032471
0.866231977939606 1.047659993171692 -3.893189907073975
1.066230058670044 0.870656013488770 -3.951189994812012
-0.068769097328186 0.411655992269516 -3.973190069198608
0.279229998588562 1.057659983634949 -3.955189943313599
0.499231994152069 1.146659970283508 -3.953190088272095
0.004232800099999 0.633656024932861 -3.996190071105957
1.577229976654053 0.660656988620758 -4.015190124511719
0.077230803668499 0.206655994057655 -4.064189910888672
0.173232004046440 0.821655988693237 -4.033189773559570
1.246230006217957 0.784657001495361 -4.057189941406250
2.147229909896851 0.224656000733376 -4.100190162658691
0.693231999874115 1.078660011291504 -4.042190074920654
2.034229993820190 0.722657024860382 -4.090189933776856
0.111230999231339 0.453655987977982 -4.105189800262451
1.140229940414429 -0.109343998134136 -4.148190021514893
1.776229977607727 0.684656977653503 -4.111189842224121
1.995229959487915 0.004656699951738 -4.157189846038818
0.911230027675629 -0.079342998564243 -4.166190147399902
2.107229948043823 0.445657014846802 -4.148190021514893
0.717230021953583 -0.190343007445335 -4.185190200805664
1.364230036735535 -0.092343397438526 -4.190189838409424
0.287234008312225 -0.063344098627567 -4.238190174102783
1.567229986190796 -0.020342899486423 -4.255189895629883
0.264230996370316 0.298657000064850 -4.237189769744873
0.898234009742737 0.985656023025513 -4.211190223693848
0.328229993581772 0.524657011032104 -4.240190029144287
1.842229962348938 0.109655998647213 -4.277190208435059
1.377230048179627 0.671656012535095 -4.244190216064453
1.603229999542236 0.714655995368958 -4.248189926147461
2.171230077743530 0.682655990123749 -4.260190010070801
0.493230998516083 0.752655982971191 -4.245190143585205
0.693231999874115 0.891655981540680 -4.258190155029297
1.901229977607727 0.787656009197235 -4.279190063476563
0.566232979297638 -0.310344010591507 -4.338190078735352
1.976230025291443 0.369655996561050 -4.312190055847168
1.185230016708374 0.874656021595001 -4.280189990997315
1.160230040550232 0.075655803084373 -4.362189769744873
1.379230022430420 0.051655698567629 -4.367189884185791
0.928233027458191 0.040656000375748 -4.384190082550049
0.358233004808426 0.134655997157097 -4.378190040588379
0.712233006954193 -0.147343993186951 -4.404190063476563
0.374231994152069 -0.213343992829323 -4.411190032958984
0.546232998371124 0.586656987667084 -4.387189865112305
0.446229994297028 0.368656992912292 -4.408189773559570
1.788229942321777 0.262656003236771 -4.430190086364746
1.592229962348938 0.158656001091003 -4.443190097808838
1.010229945182800 0.944657027721405 -4.410190105438232
2.046230077743530 0.616656005382538 -4.438189983367920
1.761229991912842 0.744656026363373 -4.451189994812012
2.190229892730713 0.795656979084015 -4.456190109252930
0.867232024669647 0.781656980514526 -4.470190048217773
1.412230014801025 0.710655987262726 -4.484189987182617
1.974230051040649 0.830657005310059 -4.484189987182617
0.520232021808624 -0.356343001127243 -4.556190013885498
1.886229991912842 0.493656992912292 -4.529190063476563
1.213230013847351 0.841656982898712 -4.505189895629883
0.725233018398285 0.582656025886536 -4.531189918518066
0.427233010530472 -0.093342900276184 -4.591189861297607
1.259230017662048 0.152657002210617 -4.584189891815186
0.619230985641479 0.376655995845795 -4.573190212249756
0.857232987880707 -0.079342998564243 -4.609189987182617
1.049229979515076 0.085656099021435 -4.608190059661865
1.472229957580566 0.246656998991966 -4.624189853668213
0.723231017589569 -0.291343003511429 -4.653190135955811
0.544233977794647 0.135656997561455 -4.643189907073975
1.592229962348938 0.691657006740570 -4.619190216064453
1.722229957580566 0.356655985116959 -4.674190044403076
0.345232009887695 -0.351343989372253 -4.719190120697022
2.133229970932007 0.916656970977783 -4.661190032958984
1.837229967117310 0.745656013488770 -4.672190189361572
1.089229941368103 0.737655997276306 -4.680190086364746
0.914233028888702 0.572655975818634 -4.692190170288086
2.032229900360107 0.648656010627747 -4.740190029144287
0.973231017589569 -0.104342997074127 -4.806190013885498
1.292230010032654 0.709657013416290 -4.761189937591553
0.801234006881714 0.322656005620956 -4.783189773559570
0.580232977867126 -0.343342989683151 -4.829189777374268
1.143229961395264 0.115657001733780 -4.812190055847168
0.677232980728149 0.105656996369362 -4.826189994812012
0.541231989860535 -0.076342701911926 -4.844190120697022
1.358229994773865 0.210656002163887 -4.840189933776856
1.567229986190796 0.299656987190247 -4.841189861297607
1.693230032920837 0.639657020568848 -4.828189849853516
1.839229941368103 0.449656009674072 -4.862189769744873
0.842230021953583 -0.258343994617462 -4.900189876556397
2.027230024337769 0.841656982898712 -4.846189975738525
1.064229965209961 0.524657011032104 -4.859189987182617
1.469230055809021 0.598657011985779 -4.890190124511719
0.400233000516891 -0.275344014167786 -4.946189880371094
0.955232977867126 0.309657007455826 -4.948190212249756
0.658231973648071 -0.342343002557755 -5.038189888000488
2.158230066299439 0.723657011985779 -4.988190174102783
0.794233977794647 0.023655800148845 -5.024189949035645
1.096230030059815 -0.095343701541424 -5.049190044403076
1.463230013847351 0.192655995488167 -5.037189960479736
1.247230052947998 0.552657008171082 -5.024189949035645
1.674229979515076 0.282656997442245 -5.058189868927002
1.232229948043823 0.076657198369503 -5.067190170288086
1.905230045318604 0.706655979156494 -5.055190086364746
0.616231977939606 -0.130344003438950 -5.100190162658691
1.733229994773865 0.562656998634338 -5.073190212249756
1.120229959487915 0.307655990123749 -5.115190029144287
1.502230048179627 0.494655996561050 -5.129189968109131
0.469233006238937 -0.281343013048172 -5.183189868927002
2.053230047225952 0.852656006813049 -5.136189937591553
1.006229996681213 -0.252342998981476 -5.198190212249756
0.944230973720551 0.088656298816204 -5.179190158843994
1.833230018615723 0.371657013893127 -5.204189777374268
1.570230007171631 0.140655994415283 -5.225190162658691
0.814230024814606 -0.359344005584717 -5.256189823150635
2.190229892730713 0.647656023502350 -5.234189987182617
1.320230007171631 0.445657014846802 -5.259190082550049
1.316230058670044 0.043656200170517 -5.290190219879150
2.247230052947998 0.878656983375549 -5.252190113067627
1.971230030059815 0.701656997203827 -5.293190002441406
0.618230998516083 -0.351343989372253 -5.371190071105957
1.540230035781860 0.423657000064850 -5.343190193176270
1.216230034828186 -0.139344006776810 -5.423190116882324
1.928230047225952 0.290656000375748 -5.421189785003662
1.524230003356934 0.017657199874520 -5.435190200805664
0.865233004093170 -0.096343196928501 -5.441189765930176
1.124230027198792 0.167657002806664 -5.429190158843994
1.744230031967163 0.125657007098198 -5.445189952850342
0.928233027458191 -0.307343989610672 -5.477190017700195
1.894230008125305 0.553655982017517 -5.439189910888672
2.324229955673218 0.709657013416290 -5.436190128326416
2.437230110168457 0.464655995368958 -5.454189777374268
1.315230011940002 0.317656010389328 -5.476190090179443
2.193229913711548 0.414656996726990 -5.497189998626709
2.105230093002319 0.618656992912292 -5.489190101623535
1.727229952812195 0.436655998229980 -5.527190208435059
1.044229984283447 -0.022343799471855 -5.557189941406250
1.385229945182800 -0.089343197643757 -5.572189807891846
0.516233980655670 -0.289344012737274 -5.577189922332764
0.722230970859528 -0.386343985795975 -5.592189788818359
0.677232980728149 -0.131343007087708 -5.579189777374268
1.522230029106140 0.351657003164291 -5.561190128326416
2.031229972839356 0.171655997633934 -5.611189842224121
1.112229943275452 -0.324344009160995 -5.650189876556397
2.682229995727539 0.363656014204025 -5.628190040588379
1.587229967117310 -0.035344198346138 -5.646190166473389
2.810230016708374 0.173657000064850 -5.652190208435059
1.826230049133301 0.059657000005245 -5.664189815521240
1.186229944229126 0.118657000362873 -5.665190219879150
1.966230034828186 0.437656998634338 -5.655189990997315
0.903231024742126 -0.407344013452530 -5.721189975738525
2.368230104446411 0.394656002521515 -5.716189861297607
2.214230060577393 0.123655997216702 -5.737189769744873
2.899230003356934 -0.016343200579286 -5.753190040588379
1.394230008125305 0.201656997203827 -5.739190101623535
2.680229902267456 0.038657099008560 -5.772190093994141
2.433229923248291 0.055657301098108 -5.773190021514893
1.796229958534241 0.334657013416290 -5.753190040588379
0.457231998443604 -0.399343013763428 -5.792190074920654
0.755231976509094 -0.093342900276184 -5.782189846038818
2.551229953765869 0.266656011343002 -5.780189990997315
2.143229961395264 0.332655996084213 -5.779190063476563
0.672231972217560 -0.484344005584717 -5.817190170288086
1.293230056762695 -0.280342996120453 -5.820189952850342
1.458230018615723 -0.134342998266220 -5.813189983367920
1.736230015754700 -0.069342702627182 -5.820189952850342
0.544233977794647 -0.161344006657600 -5.817190170288086
1.598230004310608 0.249656006693840 -5.810190200805664
1.113229990005493 -0.400344014167786 -5.868189811706543
0.978232026100159 -0.065342999994755 -5.856190204620361
1.216230034828186 0.043656200170517 -5.889190196990967
0.913232982158661 -0.480343997478485 -5.931190013885498
1.964229941368103 0.227656006813049 -5.910190105438232
2.156229972839356 -0.072342999279499 -5.937190055847168
2.724230051040649 -0.096343196928501 -5.947189807891846
2.374229907989502 -0.092343397438526 -5.961190223693848
2.259229898452759 0.130656003952026 -5.959189891815186
1.457229971885681 0.095656298100948 -5.986189842224121
1.742230057716370 0.189656004309654 -5.992189884185791
1.554229974746704 -0.219344004988670 -6.015190124511719
1.923230051994324 -0.185343995690346 -6.019189834594727
1.353229999542236 -0.348343998193741 -6.029190063476563
0.794233977794647 0.009655799716711 -6.047190189361572
1.152230024337769 -0.475342988967896 -6.083189964294434
2.925230026245117 -0.077344097197056 -6.078189849853516
2.061229944229126 0.055657301098108 -6.115190029144287
2.124229907989502 -0.248344004154205 -6.137189865112305
0.568231999874115 0.001656400039792 -6.113190174102783
1.752230048179627 -0.229342997074127 -6.156189918518066
2.762229919433594 -0.203344002366066 -6.164189815521240
2.374229907989502 -0.312343001365662 -6.173190116882324
1.106230020523071 -0.064343601465225 -6.155189990997315
1.368229985237122 -0.070344097912312 -6.176189899444580
1.832229971885681 0.071656100451946 -6.172190189361572
2.551229953765869 -0.147343993186951 -6.208189964294434
2.300230026245117 -0.100342996418476 -6.205190181732178
1.615229964256287 0.044655699282885 -6.202189922332764
1.438230037689209 -0.399343013763428 -6.231190204620361
0.477232009172440 -0.166343003511429 -6.237189769744873
1.199229955673218 -0.154344007372856 -6.345190048217773
1.789229989051819 -0.267343014478683 -6.371190071105957
1.602229952812195 -0.385342985391617 -6.377190113067627
0.618230998516083 0.000656999996863 -6.348189830780029
2.283230066299439 -0.376343995332718 -6.385190010070801
2.673229932785034 -0.063344098627567 -6.371190071105957
2.000230073928833 -0.063344098627567 -6.371190071105957
2.198230028152466 -0.171343997120857 -6.392189979553223
2.045229911804199 -0.358343988656998 -6.402190208435059
1.642230033874512 -0.081343799829483 -6.394189834594727
2.486229896545410 -0.224343001842499 -6.422190189361572
1.421229958534241 -0.145343005657196 -6.425189971923828
0.932229995727539 -0.069342702627182 -6.422190189361572
2.813230037689209 0.101657003164291 -6.428190231323242
2.721230030059815 -0.250344008207321 -6.479189872741699
2.307229995727539 -0.498344004154205 -6.623189926147461
2.588229894638062 -0.362343996763229 -6.625189781188965
2.196229934692383 -0.217343002557755 -6.617189884185791
1.981230020523071 -0.423343002796173 -6.629189968109131
1.896229982376099 -0.103343002498150 -6.619190216064453
1.068230032920837 -0.187343001365662 -6.628190040588379
2.477230072021484 -0.134342998266220 -6.641190052032471
1.676229953765869 -0.155342996120453 -6.644189834594727
1.458230018615723 -0.164343997836113 -6.681190013885498
2.700229883193970 0.123655997216702 -6.682189941406250
2.111229896545410 -0.567344009876251 -6.735189914703369
2.713229894638062 -0.077344097197056 -6.771190166473389
2.035229921340942 -0.191343992948532 -6.780189990997315
2.457230091094971 -0.441343992948532 -6.804190158843994
1.267230033874512 -0.135343000292778 -6.811190128326416
2.286230087280273 -0.210343003273010 -6.830190181732178
1.815230011940002 -0.166343003511429 -6.836190223693848
2.601229906082153 -0.268344014883041 -6.864190101623535
2.278229951858521 -0.553344011306763 -6.882190227508545
2.609230041503906 0.108657002449036 -6.891190052032471
1.515229940414429 -0.183342993259430 -6.902190208435059
2.475229978561401 -0.083342701196671 -6.927189826965332
2.103229999542236 -0.229342997074127 -7.028190135955811
2.558229923248291 -0.384342998266220 -7.054190158843994
1.695230007171631 -0.221342995762825 -7.041190147399902
2.756230115890503 0.167657002806664 -7.047190189361572
1.357229948043823 -0.145343005657196 -7.066189765930176
2.630229949951172 -0.135343000292778 -7.083189964294434
2.325229883193970 -0.219344004988670 -7.119190216064453
1.923230051994324 -0.286343991756439 -7.153190135955811
2.571229934692383 0.090657100081444 -7.191189765930176
1.573230028152466 -0.252342998981476 -7.225190162658691
2.168230056762695 -0.282344013452530 -7.265190124511719
2.676229953765869 -0.087344296276569 -7.298190116882324
2.570230007171631 -0.371342986822128 -7.323190212249756
2.451230049133301 -0.165343001484871 -7.330190181732178
1.762230038642883 -0.358343988656998 -7.343190193176270
1.974230051040649 -0.406343013048172 -7.418190002441406
2.599230051040649 0.235655993223190 -7.420189857482910
2.303230047225952 -0.274343013763428 -7.459189891815186
2.530230045318604 0.014656900428236 -7.452189922332764
1.815230011940002 -0.500343978404999 -7.544189929962158
2.653229951858521 -0.166343003511429 -7.540190219879150
2.559230089187622 -0.375344008207321 -7.558189868927002
2.144229888916016 -0.424344003200531 -7.591189861297607
2.428230047225952 -0.211343005299568 -7.632190227508545
2.648230075836182 0.193655997514725 -7.645189762115479
2.025229930877686 -0.582342982292175 -7.701189994812012
2.559230089187622 -0.009343300014734 -7.677189826965332
1.845229983329773 -0.683342993259430 -7.806190013885498
2.536230087280273 -0.546343982219696 -7.810190200805664
2.233230113983154 -0.565343022346497 -7.827189922332764
2.728229999542236 -0.120342999696732 -7.807189941406250
2.368230104446411 -0.380344003438950 -7.831190109252930
2.665230035781860 -0.355343997478485 -7.832190036773682
2.501230001449585 -0.198344007134438 -7.840189933776856
2.788229942321777 0.112655997276306 -7.829189777374268
2.041229963302612 -0.695343971252441 -7.932189941406250
2.657229900360107 -0.560343980789185 -8.028189659118652
3.127229928970337 -0.166343003511429 -8.031189918518066
2.496229887008667 -0.356343001127243 -8.056189537048340
2.654230117797852 -0.191343992948532 -8.051190376281738
2.798229932785034 -0.362343996763229 -8.067190170288086
2.851229906082153 -0.067343801259995 -8.061189651489258
3.132230043411255 -0.373344004154205 -8.143190383911133
3.299230098724365 -0.230343997478485 -8.164190292358398
2.996229887008667 -0.178343996405602 -8.210189819335938
2.975229978561401 -0.508343994617462 -8.240189552307129
2.637229919433594 -0.344343990087509 -8.232190132141113
2.773230075836182 -0.602343976497650 -8.251190185546875
3.268229961395264 -0.528343975543976 -8.270190238952637
3.102230072021484 -0.685343980789185 -8.295189857482910
2.844229936599731 -0.315342992544174 -8.322190284729004
2.678230047225952 -0.788343012332916 -8.350190162658691
2.534229993820190 -0.498344004154205 -8.356189727783203
3.197230100631714 -0.306344002485275 -8.423190116882324
3.411230087280273 -0.381343007087708 -8.431189537048340
2.993230104446411 -0.382344007492065 -8.472189903259277
2.731230020523071 -0.541342973709106 -8.522190093994141
2.936229944229126 -0.555342972278595 -8.618189811706543
3.226229906082153 -0.431344002485275 -8.615189552307129
3.126230001449585 -0.578343987464905 -8.750189781188965
3.380229949951172 -0.522343993186951 -8.749190330505371
3.270230054855347 -0.633343994617462 -8.923190116882324
