ply
format ascii 1.0
element vertex 607
property double x
property double y
property double z
end_header
2.566230058670044 -5.820340156555176 -0.816187024116516
2.566230058670044 -5.820340156555176 -0.816187024116516
2.485229969024658 -6.020339965820313 -0.875189006328583
2.380229949951172 -5.674339771270752 -0.856187999248505
2.287230014801025 -5.878339767456055 -0.878187000751495
2.383229970932007 -5.369339942932129 -0.852186024188995
2.225229978561401 -5.516339778900147 -0.917189002037048
2.706229925155640 -6.121339797973633 -0.977186024188995
2.258229970932007 -5.199339866638184 -0.921185970306396
2.133229970932007 -5.717339992523193 -0.963186025619507
2.570230007171631 -6.291339874267578 -1.022189974784851
2.383229970932007 -6.133339881896973 -1.037189960479736
2.130229949951172 -5.958340167999268 -1.032189965248108
2.654230117797852 -5.825339794158936 -1.051190018653870
2.114229917526245 -6.206339836120606 -1.070189952850342
2.501230001449585 -5.467339992523193 -1.031190037727356
2.008229970932007 -5.522339820861816 -1.036190032958984
1.727229952812195 -5.409339904785156 -1.033190011978149
2.704230070114136 -6.449339866638184 -1.104189991950989
2.302229881286621 -6.372340202331543 -1.099189996719360
2.242229938507080 -4.921339988708496 -1.015190005302429
1.946230053901672 -5.840340137481690 -1.068189978599548
1.924229979515076 -5.256340026855469 -1.042189955711365
2.063230037689209 -5.082339763641357 -1.036190032958984
1.786229968070984 -6.118340015411377 -1.100190043449402
2.489229917526245 -6.494339942932129 -1.154189944267273
1.811229944229126 -5.607339859008789 -1.122189998626709
2.445230007171631 -5.668340206146240 -1.146190047264099
2.803230047225952 -6.151340007781982 -1.192190051078796
2.868230104446411 -6.555339813232422 -1.217190027236939
2.098229885101318 -6.433340072631836 -1.206189990043640
2.381230115890503 -5.226339817047119 -1.142189979553223
2.654230117797852 -6.632339954376221 -1.234189987182617
1.942229986190796 -6.236340045928955 -1.206189990043640
2.363229990005493 -4.739339828491211 -1.129189968109131
2.140229940414429 -4.752339839935303 -1.129189968109131
2.578229904174805 -5.980340003967285 -1.215190052986145
1.926229953765869 -4.948339939117432 -1.166190028190613
1.752230048179627 -5.173339843750000 -1.191190004348755
1.786229968070984 -5.936339855194092 -1.244189977645874
2.311229944229126 -5.453340053558350 -1.221189975738525
1.640229940414429 -5.719339847564697 -1.233189940452576
2.356230020523071 -5.897339820861816 -1.260190010070801
1.180230021476746 -4.259339809417725 -1.155189990997315
2.241230010986328 -4.559340000152588 -1.185189962387085
2.847229957580566 -6.781340122222900 -1.326189994812012
1.645230054855347 -5.360340118408203 -1.237190008163452
2.147229909896851 -6.134339809417725 -1.291190028190613
2.615230083465576 -6.194340229034424 -1.300189971923828
2.234230041503906 -5.700339794158936 -1.272189974784851
1.992230057716370 -5.866340160369873 -1.291190028190613
2.399230003356934 -6.128339767456055 -1.312190055847168
2.272229909896851 -6.338339805603027 -1.338189959526062
2.316230058670044 -6.560339927673340 -1.354189991950989
2.511229991912842 -6.704339981079102 -1.385190010070801
2.297230005264282 -5.030340194702148 -1.286190032958984
1.962229967117310 -4.662340164184570 -1.270190000534058
2.507230043411255 -6.410339832305908 -1.380190014839172
2.043230056762695 -5.576340198516846 -1.330189943313599
2.300230026245117 -4.351339817047119 -1.261190056800842
2.734230041503906 -6.394340038299561 -1.395190000534058
1.829229950904846 -5.652339935302734 -1.348189949989319
2.664230108261108 -6.881340026855469 -1.427189946174622
1.758229970932007 -4.903339862823486 -1.310189962387085
2.151230096817017 -5.354340076446533 -1.340190052986145
3.024230003356934 -6.860340118408203 -1.443189978599548
1.258229970932007 -4.090340137481690 -1.282189965248108
2.090229988098145 -4.446340084075928 -1.317190051078796
1.564229965209961 -5.537340164184570 -1.382189989089966
3.142230033874512 -6.660339832305908 -1.462190032005310
1.614230036735535 -5.147339820861816 -1.365190029144287
2.704230070114136 -6.601339817047119 -1.473189949989319
2.929229974746704 -6.578340053558350 -1.495190024375916
1.759230017662048 -4.690340042114258 -1.377189993858337
2.125230073928833 -5.088339805603027 -1.418190002441406
2.229229927062988 -4.835340023040772 -1.412189960479736
1.963230013847351 -5.293340206146240 -1.439190030097961
1.882230043411255 -4.483339786529541 -1.391190052032471
3.215229988098145 -6.979340076446533 -1.564190030097961
1.746230006217957 -5.394340038299561 -1.460190057754517
2.844229936599731 -6.828340053558350 -1.574190020561218
1.461230039596558 -4.172339916229248 -1.422189950942993
1.459229946136475 -5.309340000152588 -1.489189982414246
2.911230087280273 -7.066339969635010 -1.614189982414246
1.365229964256287 -3.931339979171753 -1.431190013885498
2.031229972839356 -4.198339939117432 -1.467190027236939
1.518229961395264 -4.975339889526367 -1.515190005302429
1.778229951858521 -4.296339988708496 -1.480190038681030
3.098229885101318 -7.182340145111084 -1.674190044403076
1.584229946136475 -4.729340076446533 -1.521190047264099
1.683230042457581 -4.498340129852295 -1.514189958572388
3.043230056762695 -6.872340202331543 -1.672189950942993
1.662230014801025 -3.981339931488037 -1.500190019607544
1.813230037689209 -5.076340198516846 -1.572190046310425
2.096230030059815 -4.712339878082275 -1.553189992904663
2.173229932785034 -4.427340030670166 -1.550189971923828
1.597229957580566 -5.168340206146240 -1.592190027236939
1.893229961395264 -4.038340091705322 -1.533190011978149
1.956230044364929 -4.901340007781982 -1.587190032005310
1.381229996681213 -5.121339797973633 -1.617190003395081
2.098229885101318 -3.933340072631836 -1.576189994812012
1.590229988098145 -4.320340156555176 -1.619189977645874
1.822229981422424 -3.827339887619019 -1.597190022468567
1.621230006217957 -3.690340042114258 -1.601189970970154
1.468230009078980 -3.863339900970459 -1.620190024375916
1.664229989051819 -4.921339988708496 -1.695189952850342
1.509230017662048 -4.110340118408203 -1.652189970016480
2.318229913711548 -3.881340026855469 -1.647189974784851
1.344230055809021 -4.908339977264404 -1.703189969062805
3.252229928970337 -7.163340091705322 -1.862190008163452
1.477229952812195 -4.600339889526367 -1.701189994812012
3.480230093002319 -7.106339931488037 -1.866189956665039
1.910230040550232 -4.724339962005615 -1.718189954757690
2.216229915618897 -4.100339889526367 -1.703189969062805
2.125230073928833 -4.312339782714844 -1.735190033912659
1.996230006217957 -4.520339965820313 -1.749189972877502
1.999230027198792 -3.755340099334717 -1.721189975738525
1.705229997634888 -3.486340045928955 -1.722190022468567
3.415230035781860 -7.279339790344238 -2.017189979553223
1.458230018615723 -4.761340141296387 -1.864189982414246
1.705229997634888 -4.649340152740479 -1.868190050125122
1.215229988098145 -4.717339992523193 -1.887189984321594
1.467229962348938 -4.399340152740479 -1.885190010070801
2.272229909896851 -3.867340087890625 -1.863190054893494
1.543230056762695 -3.816339969635010 -1.870190024375916
2.431230068206787 -3.690340042114258 -1.884189963340759
1.966230034828186 -4.435339927673340 -1.951189994812012
2.082230091094971 -4.246339797973633 -1.942190051078796
1.831230044364929 -3.306339979171753 -1.901190042495728
1.937229990959168 -3.518340110778809 -1.917189955711365
1.303230047225952 -4.515339851379395 -1.990190029144287
1.620229959487915 -3.451339960098267 -1.946189999580383
1.514230012893677 -4.578340053558350 -2.023190021514893
1.754230022430420 -4.452340126037598 -2.038189888000488
2.146229982376099 -3.999340057373047 -2.036190032958984
1.518229961395264 -4.196340084075928 -2.044189929962158
2.136229991912842 -3.551340103149414 -2.013190031051636
1.549229979515076 -3.661339998245239 -2.032190084457398
1.120229959487915 -4.589340209960938 -2.129189968109131
2.288229942321777 -3.828340053558350 -2.106189966201782
1.696230053901672 -3.268340110778809 -2.075190067291260
1.417230010032654 -4.365340232849121 -2.150190114974976
1.917230010032654 -3.172339916229248 -2.095190048217773
1.862229943275452 -4.298339843750000 -2.171190023422241
2.488229990005493 -3.745340108871460 -2.158190011978149
2.031229972839356 -3.385339975357056 -2.145190000534058
1.636229991912842 -4.377339839935303 -2.211189985275269
2.023230075836182 -4.133339881896973 -2.219189882278442
1.502230048179627 -3.824340105056763 -2.199189901351929
2.277230024337769 -3.431339979171753 -2.195189952850342
2.110229969024658 -3.919339895248413 -2.242189884185791
1.461230039596558 -4.089340209960938 -2.260190010070801
1.786229968070984 -3.073339939117432 -2.244189977645874
1.590229988098145 -3.364340066909790 -2.260190010070801
1.520230054855347 -3.572340011596680 -2.276190042495728
2.007230043411255 -3.001339912414551 -2.248189926147461
1.781229972839356 -4.181340217590332 -2.339190006256104
2.137229919433594 -3.185339927673340 -2.291189908981323
1.474230051040649 -4.320340156555176 -2.359189987182617
1.144230008125305 -4.477340221405029 -2.375190019607544
2.312230110168457 -3.750339984893799 -2.355190038681030
2.445230007171631 -3.360340118408203 -2.381190061569214
1.255229949951172 -4.295340061187744 -2.432189941406250
1.420230031013489 -3.798340082168579 -2.413189888000488
2.521229982376099 -3.696340084075928 -2.427190065383911
2.643229961395264 -3.487339973449707 -2.418190002441406
1.887230038642883 -2.871340036392212 -2.390189886093140
1.662230014801025 -3.158339977264404 -2.414190053939819
1.328230023384094 -4.073339939117432 -2.476190090179443
1.988229990005493 -3.972340106964111 -2.480190038681030
1.627230048179627 -4.119339942932129 -2.493190050125122
2.129230022430420 -2.936340093612671 -2.439189910888672
2.267230033874512 -3.196340084075928 -2.477190017700195
1.455229997634888 -3.571340084075928 -2.502190113067627
1.533229947090149 -3.359339952468872 -2.501189947128296
2.163229942321777 -3.767339944839478 -2.536190032958984
1.748229980468750 -2.962340116500855 -2.535190105438232
2.720230102539063 -3.617340087890625 -2.590189933776856
1.789229989051819 -3.951339960098267 -2.603189945220947
2.009229898452759 -2.721339941024780 -2.534189939498901
1.119230031967163 -4.357339859008789 -2.623189926147461
1.372230052947998 -4.254340171813965 -2.625190019607544
1.330229997634888 -3.858340024948120 -2.624190092086792
1.197229981422424 -4.121339797973633 -2.648190021514893
2.497230052947998 -3.582340002059937 -2.635190010070801
2.260230064392090 -3.012340068817139 -2.600189924240112
2.619230031967163 -3.269340038299561 -2.641190052032471
2.418230056762695 -3.165339946746826 -2.638190031051636
1.531229972839356 -4.047339916229248 -2.690190076828003
1.993229985237122 -3.835340023040772 -2.696190118789673
1.621230006217957 -3.120340108871460 -2.658190011978149
2.260230064392090 -3.611340045928955 -2.711189985275269
2.184230089187622 -2.774339914321899 -2.665189981460571
2.789230108261108 -3.437340021133423 -2.712189912796021
1.843230009078980 -2.775340080261231 -2.689189910888672
1.385229945182800 -3.671339988708496 -2.744189977645874
1.450230002403259 -3.460340023040772 -2.734189987182617
1.310230016708374 -4.178339958190918 -2.831190109252930
2.776230096817017 -3.232340097427368 -2.791189908981323
1.663229942321777 -3.874340057373047 -2.836189985275269
1.224230051040649 -3.886339902877808 -2.835190057754517
2.606230020523071 -3.545340061187744 -2.841190099716187
1.520230054855347 -3.254339933395386 -2.825190067291260
2.559230089187622 -3.084340095520020 -2.825190067291260
1.114230036735535 -4.085340023040772 -2.881190061569214
2.360229969024658 -2.976340055465698 -2.831190109252930
1.702229976654053 -2.895339965820313 -2.821190118789673
1.972229957580566 -2.632339954376221 -2.808190107345581
2.185230016708374 -2.572340011596680 -2.819190025329590
1.429229974746704 -3.990339994430542 -2.900190114974976
2.355230093002319 -3.513339996337891 -2.886189937591553
2.109230041503906 -3.650340080261231 -2.897190093994141
1.865229964256287 -3.765340089797974 -2.907190084457398
2.287230014801025 -2.763339996337891 -2.870189905166626
2.845230102539063 -3.511339902877808 -2.921190023422241
1.309229969978333 -3.699340105056763 -2.949189901351929
1.572229981422424 -3.061340093612671 -2.932189941406250
1.800230026245117 -2.726340055465698 -2.925189971923828
1.242230057716370 -3.980340003967285 -3.050189971923828
1.652230024337769 -3.722340106964111 -3.049190044403076
2.022229909896851 -2.497339963912964 -2.989190101623535
1.930230021476746 -3.622339963912964 -3.067189931869507
1.380229949951172 -3.519340038299561 -3.057189941406250
3.007230043411255 -3.210340023040772 -3.057189941406250
2.800230026245117 -3.067339897155762 -3.047189950942993
2.691230058670044 -3.448339939117432 -3.072190046310425
2.586230039596558 -2.948339939117432 -3.052190065383911
1.433230042457581 -3.290339946746826 -3.064189910888672
2.266230106353760 -3.432339906692505 -3.085190057754517
1.423230051994324 -3.819339990615845 -3.110189914703369
2.320230007171631 -2.586339950561523 -3.053189992904663
2.411230087280273 -2.786339998245239 -3.068190097808838
1.094230055809021 -3.815340042114258 -3.123189926147461
2.919229984283447 -3.436340093612671 -3.128190040588379
1.667230010032654 -2.820339918136597 -3.091190099716187
2.493230104446411 -3.369339942932129 -3.149189949035645
2.170229911804199 -2.359339952468872 -3.108190059661865
1.516229987144470 -3.011339902877808 -3.142189979553223
1.678230047225952 -3.563339948654175 -3.211189985275269
1.861230015754700 -2.518340110778809 -3.166189908981323
1.248229980468750 -3.446340084075928 -3.223190069198608
3.100229978561401 -3.079339981079102 -3.223190069198608
2.087229967117310 -3.437340021133423 -3.242189884185791
2.751230001449585 -2.916340112686157 -3.221189975738525
2.695230007171631 -3.302340030670166 -3.252190113067627
1.264230012893677 -3.705339908599854 -3.268189907073975
1.374230027198792 -3.145339965820313 -3.253190040588379
2.547230005264282 -2.808340072631836 -3.245189905166626
2.298229932785034 -3.307339906692505 -3.285190105438232
1.845229983329773 -3.426340103149414 -3.298190116882324
2.383229970932007 -2.513339996337891 -3.252190113067627
1.707229971885681 -2.665339946746826 -3.256190061569214
1.998229980468750 -2.329339981079102 -3.244189977645874
3.110229969024658 -3.313339948654175 -3.327189922332764
2.224230051040649 -2.192339897155762 -3.256190061569214
2.954230070114136 -2.891340017318726 -3.303189992904663
1.484230041503906 -3.547339916229248 -3.350189924240112
3.174230098724365 -2.879339933395386 -3.326189994812012
1.524230003356934 -2.869339942932129 -3.317189931869507
2.004230022430420 -3.317339897155762 -3.412189960479736
1.150230050086975 -3.372339963912964 -3.414190053939819
2.493230104446411 -3.203340053558350 -3.421190023422241
2.349230051040649 -2.330339908599854 -3.374190092086792
2.730230093002319 -2.779340028762817 -3.404190063476563
1.818230032920837 -2.448339939117432 -3.393189907073975
2.818229913711548 -3.231339931488037 -3.451189994812012
1.221230030059815 -3.155339956283569 -3.434190034866333
1.706230044364929 -3.340339899063110 -3.450190067291260
2.503230094909668 -2.580339908599854 -3.426189899444580
2.206229925155640 -3.219340085983276 -3.469189882278442
3.199229955673218 -3.167340040206909 -3.474189996719360
1.373229980468750 -3.390340089797974 -3.473190069198608
1.613229990005493 -2.680340051651001 -3.459189891815186
3.046230077743530 -2.770339965820313 -3.488189935684204
1.352229952812195 -2.920340061187744 -3.494189977645874
3.004230022430420 -3.344340085983276 -3.536190032958984
3.276230096817017 -2.758339881896973 -3.506190061569214
2.151230096817017 -2.114340066909790 -3.493190050125122
2.662230014801025 -3.144340038299561 -3.580189943313599
1.965229988098145 -2.245340108871460 -3.525190114974976
1.565230011940002 -3.218339920043945 -3.601190090179443
2.420229911804199 -3.108340024948120 -3.609189987182617
2.381230115890503 -2.202339887619019 -3.559190034866333
1.862229943275452 -3.160340070724487 -3.612190008163452
1.709229946136475 -2.525340080261231 -3.589190006256104
1.354230046272278 -3.157340049743652 -3.631190061569214
1.460229992866516 -2.764339923858643 -3.613189935684204
3.318229913711548 -2.925339937210083 -3.645190000534058
2.840229988098145 -2.685339927673340 -3.631190061569214
2.568229913711548 -2.483340024948120 -3.623189926147461
3.244230031967163 -3.144340038299561 -3.689189910888672
2.089230060577393 -3.164340019226074 -3.681190013885498
1.146229982376099 -3.055340051651001 -3.673190116882324
3.071229934692383 -2.652339935302734 -3.678189992904663
3.373229980468750 -2.640340089797974 -3.688189983367920
1.276229977607727 -2.850339889526367 -3.698189973831177
1.843230009078980 -2.364340066909790 -3.686189889907837
3.082230091094971 -3.377340078353882 -3.775190114974976
2.228229999542236 -2.010339975357056 -3.700190067291260
2.781229972839356 -3.129339933395386 -3.774189949035645
1.663229942321777 -3.045340061187744 -3.762190103530884
2.046230077743530 -2.155339956283569 -3.713190078735352
2.271229982376099 -3.062340021133423 -3.771189928054810
2.546230077743530 -3.050339937210083 -3.794189929962158
1.917230010032654 -3.032340049743652 -3.788189888000488
1.434229969978333 -2.987339973449707 -3.802190065383911
2.441230058670044 -2.142339944839478 -3.782190084457398
2.681230068206787 -2.510339975357056 -3.816190004348755
3.201230049133301 -2.545340061187744 -3.827189922332764
2.928230047225952 -2.581340074539185 -3.830189943313599
3.383229970932007 -2.818340063095093 -3.848190069198608
1.585229992866516 -2.588340044021606 -3.823189973831177
1.129230022430420 -2.901340007781982 -3.855190038681030
2.963229894638062 -3.212340116500855 -3.893189907073975
3.470230102539063 -2.505340099334717 -3.856189966201782
3.264230012893677 -3.110340118408203 -3.913189888000488
2.340229988098145 -1.860339999198914 -3.844189882278442
1.775230050086975 -2.428339958190918 -3.914190053939819
3.171230077743530 -3.305340051651001 -3.980190038681030
1.754230022430420 -2.900340080261231 -3.956190109252930
2.176229953765869 -2.966340065002441 -3.964190006256104
2.066230058670044 -2.101340055465698 -3.930190086364746
2.615230083465576 -2.995340108871460 -4.002190113067627
1.377230048179627 -2.634340047836304 -3.993190050125122
1.928230047225952 -2.268340110778809 -3.981189966201782
2.509229898452759 -1.764340043067932 -3.957190036773682
3.347229957580566 -2.933340072631836 -4.033189773559570
3.076230049133301 -2.486340045928955 -4.006189823150635
1.536229968070984 -2.863339900970459 -4.019189834594727
2.800230026245117 -2.490339994430542 -4.012189865112305
1.974230051040649 -2.866339921951294 -4.029190063476563
2.492229938507080 -2.010339975357056 -3.984189987182617
1.301229953765869 -2.880340099334717 -4.027190208435059
2.394229888916016 -2.935339927673340 -4.044189929962158
3.439229965209961 -2.717339992523193 -4.043190002441406
2.842230081558228 -3.056339979171753 -4.067190170288086
1.165230035781860 -2.592339992523193 -4.044189929962158
3.284229993820190 -2.421339988708496 -4.059189796447754
2.638230085372925 -2.184340000152588 -4.046189785003662
2.656229972839356 -1.606340050697327 -4.013189792633057
1.637230038642883 -2.516340017318726 -4.072189807891846
2.191230058670044 -1.932340025901794 -4.045189857482910
3.503230094909668 -2.377340078353882 -4.085189819335938
2.308229923248291 -1.739339947700501 -4.061190128326416
3.258229970932007 -3.178339958190918 -4.234189987182617
2.693229913711548 -2.923340082168579 -4.245190143585205
3.409229993820190 -2.907340049743652 -4.254189968109131
1.988229990005493 -2.752340078353882 -4.240190029144287
2.232229948043823 -2.834340095520020 -4.250189781188965
2.901230096817017 -2.414340019226074 -4.247189998626709
1.917230010032654 -2.202339887619019 -4.234189987182617
1.744230031967163 -2.688339948654175 -4.262189865112305
1.343230009078980 -2.502340078353882 -4.249189853668213
2.453229904174805 -2.831340074539185 -4.289189815521240
3.084229946136475 -3.062340021133423 -4.308189868927002
1.536229968070984 -2.608340024948120 -4.269189834594727
3.121229887008667 -2.402339935302734 -4.277190208435059
2.075229883193970 -2.044339895248413 -4.254189968109131
3.530230045318604 -2.551340103149414 -4.298190116882324
2.770230054855347 -2.219340085983276 -4.282189846038818
3.543230056762695 -2.234339952468872 -4.311190128326416
2.537230014801025 -1.867339968681335 -4.283189773559570
2.341229915618897 -1.728340029716492 -4.289189815521240
2.660229921340942 -1.663339972496033 -4.298190116882324
3.325229883193970 -2.284339904785156 -4.342189788818359
2.925230026245117 -2.915339946746826 -4.406189918518066
1.750229954719544 -2.272340059280396 -4.365190029144287
2.704230070114136 -2.026340007781982 -4.368189811706543
2.225229978561401 -1.923339962959290 -4.364190101623535
1.699229955673218 -2.484339952468872 -4.397190093994141
2.060230016708374 -2.636339902877808 -4.423190116882324
3.490230083465576 -2.738339900970459 -4.450190067291260
3.140229940414429 -2.955339908599854 -4.493189811706543
2.258229970932007 -2.711339950561523 -4.491189956665039
3.679229974746704 -2.142339944839478 -4.483190059661865
3.355230093002319 -2.977339982986450 -4.535190105438232
3.041229963302612 -2.309340000152588 -4.505189895629883
1.919229984283447 -2.487339973449707 -4.508190155029297
2.656229972839356 -1.836339950561523 -4.477190017700195
2.547230005264282 -2.746340036392212 -4.533189773559570
3.456229925155640 -2.151340007781982 -4.513189792633057
2.784229993820190 -2.812340021133423 -4.560190200805664
2.828229904174805 -2.130340099334717 -4.528190135955811
2.780230045318604 -1.633340001106262 -4.511189937591553
2.468230009078980 -1.673339962959290 -4.512189865112305
3.591229915618897 -2.441339969635010 -4.573190212249756
1.984230041503906 -1.996340036392212 -4.537189960479736
3.020230054855347 -2.797339916229248 -4.604189872741699
3.238229990005493 -2.207340002059937 -4.575190067291260
1.857229948043823 -2.163340091705322 -4.604189872741699
2.385230064392090 -2.663340091705322 -4.665190219879150
3.422230005264282 -2.802340030670166 -4.686190128326416
2.180229902267456 -2.516340017318726 -4.670189857482910
2.324229955673218 -1.814339995384216 -4.642189979553223
3.195230007171631 -2.742340087890625 -4.726190090179443
3.535229921340942 -2.603339910507202 -4.722189903259277
3.586230039596558 -2.043339967727661 -4.690189838409424
2.925230026245117 -2.228339910507202 -4.703189849853516
2.113229990005493 -1.876340031623840 -4.678190231323242
2.660229921340942 -2.679339885711670 -4.744190216064453
2.884229898452759 -2.687340021133423 -4.767189979553223
3.393229961395264 -2.139339923858643 -4.750189781188965
2.754230022430420 -1.859339952468872 -4.731190204620361
1.860229969024658 -1.959339976310730 -4.744190216064453
2.892230033874512 -1.658339977264404 -4.741189956665039
3.607229948043823 -2.391340017318726 -4.796189785003662
2.086230039596558 -2.307339906692505 -4.796189785003662
2.432229995727539 -1.655339956283569 -4.801189899444580
3.171230077743530 -2.183340072631836 -4.843190193176270
2.299230098724365 -2.484339952468872 -4.863190174102783
2.903229951858521 -2.055340051651001 -4.846189975738525
3.334229946136475 -2.636339902877808 -4.895189762115479
2.518229961395264 -2.558340072631836 -4.885190010070801
2.029230117797852 -2.103339910507202 -4.858190059661865
3.687230110168457 -1.914340019226074 -4.889190196990967
2.217230081558228 -1.695340037345886 -4.884190082550049
3.092230081558228 -2.561340093612671 -4.958189964294434
2.795229911804199 -2.584340095520020 -4.958189964294434
1.987229943275452 -1.896340012550354 -4.922190189361572
2.852230072021484 -1.856340050697327 -4.929190158843994
3.725229978561401 -2.125339984893799 -4.953189849853516
3.515229940414429 -2.537339925765991 -4.986189842224121
3.495229959487915 -2.032340049743652 -4.971189975738525
3.007230043411255 -1.648339986801148 -4.951189994812012
2.211230039596558 -2.221339941024780 -5.006189823150635
3.649230003356934 -2.327339887619019 -5.046189785003662
3.297230005264282 -2.493340015411377 -5.059189796447754
3.018229961395264 -2.112339973449707 -5.039189815521240
2.372230052947998 -2.406339883804321 -5.061190128326416
2.632230043411255 -2.487339973449707 -5.077189922332764
2.038229942321777 -1.683339953422546 -5.028190135955811
3.124229907989502 -1.476340055465698 -5.029190063476563
3.300230026245117 -2.140340089797974 -5.073190212249756
2.131230115890503 -2.002340078353882 -5.064189910888672
2.928230047225952 -2.488339900970459 -5.106190204620361
2.206229925155640 -1.519340038299561 -5.057189941406250
2.994230031967163 -1.855340003967285 -5.100190162658691
2.405230045318604 -1.425340056419373 -5.082190036773682
3.710230112075806 -2.133339881896973 -5.177189826965332
3.092230081558228 -1.662340044975281 -5.156189918518066
3.599230051040649 -1.849339962005615 -5.178190231323242
3.770230054855347 -1.704339981079102 -5.188189983367920
2.004230022430420 -1.454339981079102 -5.183189868927002
2.292229890823364 -2.127340078353882 -5.225190162658691
3.099230051040649 -2.403340101242065 -5.248189926147461
3.146229982376099 -2.122339963912964 -5.232190132141113
3.553230047225952 -2.297339916229248 -5.249189853668213
3.411230087280273 -1.997339963912964 -5.240190029144287
3.321229934692383 -2.354340076446533 -5.263189792633057
2.468230009078980 -2.349339962005615 -5.269189834594727
2.183229923248291 -1.891340017318726 -5.248189926147461
2.801229953765869 -2.421339988708496 -5.290190219879150
2.107229948043823 -1.655339956283569 -5.251190185546875
3.150229930877686 -1.444339990615845 -5.264190196990967
2.442229986190796 -1.277340054512024 -5.254189968109131
2.209229946136475 -1.320340037345886 -5.294189929962158
3.112230062484741 -1.969339966773987 -5.423190116882324
3.033230066299439 -2.332340002059937 -5.456190109252930
3.175230026245117 -1.711339950561523 -5.425189971923828
3.504230022430420 -1.833340048789978 -5.439189910888672
3.331229925155640 -1.970340013504028 -5.447189807891846
2.593230009078980 -2.328340053558350 -5.465189933776856
3.771229982376099 -1.527340054512024 -5.434189796447754
2.086230039596558 -1.457340002059937 -5.424190044403076
2.213229894638062 -1.783339977264404 -5.447189807891846
2.434230089187622 -2.175339937210083 -5.477190017700195
2.812230110168457 -2.335340023040772 -5.495190143585205
3.122230052947998 -1.289340019226074 -5.445189952850342
2.339230060577393 -1.978340029716492 -5.522190093994141
3.227230072021484 -2.237339973449707 -5.552189826965332
3.623229980468750 -1.641340017318726 -5.552189826965332
2.195230007171631 -1.291339993476868 -5.523190021514893
2.451230049133301 -1.128340005874634 -5.535190105438232
3.299230098724365 -1.515339970588684 -5.576189994812012
2.179229974746704 -1.564339995384216 -5.593190193176270
3.223229885101318 -1.863340020179749 -5.632190227508545
3.008229970932007 -2.262340068817139 -5.672190189361572
3.442229986190796 -1.754340052604675 -5.667190074920654
2.641230106353760 -2.240339994430542 -5.704189777374268
3.354229927062988 -2.148339986801148 -5.718190193176270
2.469229936599731 -2.039340019226074 -5.711190223693848
3.217230081558228 -1.299340009689331 -5.689189910888672
2.583230018615723 -1.028339982032776 -5.681190013885498
2.299230098724365 -1.184340000152588 -5.698190212249756
2.794229984283447 -0.955344021320343 -5.702189922332764
2.293230056762695 -1.712339997291565 -5.763189792633057
2.840229988098145 -2.226340055465698 -5.818190097808838
3.163229942321777 -2.197340011596680 -5.819190025329590
2.265229940414429 -1.440340042114258 -5.789189815521240
3.347229957580566 -1.433339953422546 -5.819190025329590
3.290230035781860 -1.138339996337891 -5.837190151214600
2.429229974746704 -1.882339954376221 -5.877190113067627
2.568229913711548 -2.110340118408203 -5.902190208435059
2.442229986190796 -1.087339997291565 -5.868189811706543
2.633229970932007 -0.984344005584717 -5.912189960479736
2.973229885101318 -2.185339927673340 -6.001190185546875
2.347229957580566 -1.551339983940125 -5.968190193176270
3.442229986190796 -1.294340014457703 -5.980189800262451
3.327229976654053 -2.227339982986450 -6.044189929962158
2.377229928970337 -1.317340016365051 -6.019189834594727
2.421230077743530 -1.735339999198914 -6.068190097808838
2.517230033874512 -1.969339966773987 -6.086190223693848
3.372230052947998 -1.088340044021606 -6.051189899444580
3.520230054855347 -2.270339965820313 -6.143189907073975
2.748229980468750 -2.132339954376221 -6.135190010070801
2.511229991912842 -1.091339945793152 -6.079189777374268
3.654230117797852 -2.095340013504028 -6.180190086364746
2.703229904174805 -0.971342980861664 -6.121190071105957
3.144229888916016 -2.140340089797974 -6.211190223693848
2.426229953765869 -1.538339972496033 -6.195189952850342
3.555229902267456 -1.085340023040772 -6.218190193176270
2.459229946136475 -1.288339972496033 -6.239190101623535
2.533230066299439 -1.838340044021606 -6.294189929962158
3.408230066299439 -2.389339923858643 -6.337190151214600
2.651230096817017 -2.042340040206909 -6.311190128326416
2.931230068206787 -2.083339929580689 -6.366189956665039
3.602230072021484 -2.206340074539185 -6.384190082550049
3.348229885101318 -1.093340039253235 -6.318190097808838
2.585230112075806 -1.117339968681335 -6.333189964294434
3.261229991912842 -2.230340003967285 -6.422190189361572
2.495229959487915 -1.639340043067932 -6.396190166473389
2.773230075836182 -0.969344019889832 -6.404190063476563
3.574229955673218 -1.090340018272400 -6.472189903259277
2.542229890823364 -1.274340033531189 -6.494190216064453
3.411230087280273 -2.483340024948120 -6.615190029144287
3.208230018615723 -2.174340009689331 -6.632190227508545
2.947230100631714 -2.016340017318726 -6.623189926147461
2.707230091094971 -1.956339955329895 -6.651189804077148
3.537230014801025 -2.317339897155762 -6.687190055847168
2.545229911804199 -1.475340008735657 -6.632190227508545
2.678230047225952 -1.107339978218079 -6.613190174102783
3.436229944229126 -1.028339982032776 -6.633190155029297
2.602230072021484 -1.724339962005615 -6.668190002441406
2.860229969024658 -0.963343977928162 -6.631189823150635
3.097229957580566 -2.031339883804321 -6.789189815521240
3.272229909896851 -2.309340000152588 -6.822189807891846
2.625230073928833 -1.293339967727661 -6.759190082550049
3.633229970932007 -2.141340017318726 -6.824190139770508
2.995229959487915 -0.966343998908997 -6.845190048217773
2.689229965209961 -1.833340048789978 -6.894189834594727
2.757230043411255 -1.146340012550354 -6.871190071105957
2.649230003356934 -1.611340045928955 -6.902190208435059
3.443229913711548 -2.327339887619019 -6.980189800262451
2.875230073928833 -1.935340046882629 -6.968190193176270
2.698230028152466 -1.373340010643005 -6.979189872741699
3.199229955673218 -2.254339933395386 -7.035190105438232
3.749229907989502 -1.974339962005615 -7.044189929962158
3.070230007171631 -2.031339883804321 -7.048190116882324
3.604229927062988 -2.139339923858643 -7.092189788818359
2.897229909896851 -1.089339971542358 -7.036190032958984
3.131230115890503 -0.970344007015228 -7.060190200805664
2.728229999542236 -1.554340004920960 -7.113190174102783
2.760230064392090 -1.782340049743652 -7.167190074920654
3.349230051040649 -2.250339984893799 -7.210189819335938
2.801229953765869 -1.277340054512024 -7.172190189361572
3.140229940414429 -2.161339998245239 -7.234189987182617
2.926229953765869 -1.919340014457703 -7.232190132141113
3.815229892730713 -1.865339994430542 -7.246190071105957
3.062230110168457 -1.037340044975281 -7.266190052032471
3.503230094909668 -2.145339965820313 -7.341189861297607
3.685230016708374 -2.004339933395386 -7.359189987182617
2.783230066299439 -1.529340028762817 -7.335189819335938
2.809230089187622 -1.742339968681335 -7.395189762115479
3.276230096817017 -2.141340017318726 -7.423190116882324
3.915230035781860 -1.749340057373047 -7.421189785003662
3.075229883193970 -2.025340080261231 -7.431190013885498
2.945230007171631 -1.175340056419373 -7.395189762115479
2.856230020523071 -1.362339973449707 -7.470190048217773
2.924230098724365 -1.850340008735657 -7.549190044403076
3.639230012893677 -1.984339952468872 -7.578189849853516
3.432229995727539 -2.061340093612671 -7.588190078735352
2.816230058670044 -1.575340032577515 -7.561190128326416
3.808229923248291 -1.845340013504028 -7.612189769744873
3.207230091094971 -2.022340059280396 -7.624189853668213
2.915230035781860 -1.301339983940125 -7.685190200805664
3.592230081558228 -1.937340021133423 -7.801189899444580
3.080229997634888 -1.907340049743652 -7.803190231323242
2.891230106353760 -1.759340047836304 -7.796189785003662
2.862230062484741 -1.516340017318726 -7.800189971923828
3.294229984283447 -1.954339981079102 -7.834189891815186
3.763230085372925 -1.800340056419373 -7.856190204620361
3.006230115890503 -1.128340005874634 -7.826189994812012
3.458230018615723 -1.911339998245239 -7.981190204620361
3.129230022430420 -1.846339941024780 -8.009189605712891
2.925230026245117 -1.287340044975281 -7.977190017700195
3.819230079650879 -1.674340009689331 -8.037190437316895
2.942229986190796 -1.700340032577515 -8.040189743041992
3.644229888916016 -1.813339948654175 -8.057189941406250
2.878230094909668 -1.481340050697327 -8.112190246582031
3.298229932785034 -1.861340045928955 -8.151189804077148
2.966229915618897 -1.125339984893799 -8.132189750671387
3.064229965209961 -1.743340015411377 -8.236189842224121
3.868230104446411 -1.574339985847473 -8.241189956665039
3.681230068206787 -1.706339955329895 -8.268190383911133
3.481230020523071 -1.814339995384216 -8.287190437316895
2.921230077743530 -1.602339982986450 -8.335189819335938
2.871229887008667 -1.165339946746826 -8.332189559936523
3.240230083465576 -1.797340035438538 -8.373189926147461
2.852230072021484 -1.384340047836304 -8.360190391540527
2.913229942321777 -0.897343993186951 -8.339189529418945
3.595230102539063 -1.685340046882629 -8.520190238952637
3.392230033874512 -1.773339986801148 -8.539190292358398
3.786230087280273 -1.556339979171753 -8.558190345764160
3.874229907989502 -1.460340023040772 -8.740189552307129
3.670229911804199 -1.553339958190918 -8.745189666748047
3.999229907989502 -1.314339995384216 -8.853190422058106
3.859230041503906 -1.424340009689331 -9.003190040588379
