ply
format ascii 1.0
element vertex 463
property double x
property double y
property double z
end_header
5.308839797973633 -2.283930063247681 -10.017999649047852
5.336840152740479 -2.225929975509644 -9.979040145874023
5.245840072631836 -2.324929952621460 -10.029000282287598
5.388840198516846 -2.277930021286011 -10.008000373840332
5.242839813232422 -2.244930028915405 -9.985039710998535
5.280839920043945 -2.188930034637451 -9.951040267944336
5.189839839935303 -2.342930078506470 -9.981040000915527
5.207839965820313 -2.287930011749268 -9.922039985656738
5.350840091705322 -2.197930097579956 -9.914039611816406
5.223840236663818 -2.199929952621460 -9.895039558410645
5.207839965820313 -2.256930112838745 -9.859040260314941
5.147840023040772 -2.331929922103882 -9.915040016174316
5.128839969635010 -2.372930049896240 -9.967040061950684
5.172840118408203 -2.311929941177368 -9.819040298461914
5.183839797973633 -2.266930103302002 -9.753040313720703
5.172840118408203 -2.197930097579956 -9.761039733886719
5.131840229034424 -2.344929933547974 -9.768039703369141
5.184840202331543 -2.181930065155029 -9.840040206909180
5.108839988708496 -2.347929954528809 -9.839039802551270
5.150839805603027 -2.313930034637451 -9.686039924621582
5.167850017547607 -2.256930112838745 -9.648039817810059
5.160850048065186 -2.134929895401001 -9.794039726257324
5.198840141296387 -2.132930040359497 -9.886039733886719
5.139850139617920 -2.302930116653442 -9.604040145874023
5.125850200653076 -2.310930013656616 -9.512040138244629
5.146850109100342 -2.183929920196533 -9.615039825439453
5.073840141296387 -2.347929954528809 -9.615039825439453
5.142839908599854 -2.191930055618286 -9.548040390014648
5.147840023040772 -2.239929914474487 -9.473039627075195
5.079840183258057 -2.349930047988892 -9.690039634704590
5.066840171813965 -2.347929954528809 -9.476039886474609
5.145850181579590 -2.150929927825928 -9.688039779663086
5.093840122222900 -2.139930009841919 -9.615039825439453
5.017839908599854 -2.352930068969727 -9.531040191650391
5.082839965820313 -2.151930093765259 -9.538040161132813
4.998839855194092 -2.349930047988892 -9.612039566040039
5.116839885711670 -2.298929929733276 -9.399040222167969
5.120840072631836 -2.278929948806763 -9.311039924621582
5.055850028991699 -2.352930068969727 -9.358039855957031
5.085840225219727 -2.335930109024048 -9.294039726257324
5.116839885711670 -2.188930034637451 -9.434040069580078
5.101840019226074 -2.184930086135864 -9.349040031433106
4.996840000152588 -2.360929965972900 -9.420040130615234
5.024839878082275 -2.364929914474487 -9.275039672851563
5.106840133666992 -2.202929973602295 -9.258040428161621
5.061840057373047 -2.338929891586304 -9.224040031433106
5.053840160369873 -2.165930032730103 -9.428039550781250
4.961840152740479 -2.367929935455322 -9.361040115356445
5.029839992523193 -2.169929981231690 -9.351039886474609
5.107840061187744 -2.276930093765259 -9.177040100097656
5.082839965820313 -2.311929941177368 -9.115039825439453
5.033840179443359 -2.348929882049561 -9.162039756774902
5.002840042114258 -2.364929914474487 -9.103039741516113
4.972849845886231 -2.371929883956909 -9.187040328979492
5.055850028991699 -2.191930055618286 -9.203040122985840
5.042850017547607 -2.219929933547974 -9.096039772033691
5.039840221405029 -2.352930068969727 -9.040040016174316
4.993850231170654 -2.206929922103882 -9.143039703369141
4.958849906921387 -2.373929977416992 -9.261039733886719
5.071839809417725 -2.254930019378662 -9.014039993286133
4.954840183258057 -2.206929922103882 -9.199040412902832
4.930850028991699 -2.380929946899414 -9.096039772033691
5.032839775085449 -2.170929908752441 -9.279040336608887
4.906839847564697 -2.384929895401001 -9.167039871215820
5.029839992523193 -2.354929924011231 -8.960040092468262
5.062849998474121 -2.295929908752441 -8.921039581298828
4.978839874267578 -2.377929925918579 -9.001040458679199
5.006840229034424 -2.367929935455322 -8.884039878845215
4.994840145111084 -2.243930101394653 -8.937040328979492
4.954840183258057 -2.389930009841919 -8.920040130615234
5.039840221405029 -2.325930118560791 -8.831040382385254
5.000850200653076 -2.226929903030396 -9.011039733886719
4.910850048065186 -2.381930112838745 -9.027039527893066
4.919839859008789 -2.237930059432983 -8.989040374755859
4.928840160369873 -2.397929906845093 -8.858039855957031
4.995840072631836 -2.254930019378662 -8.816040039062500
4.924849987030029 -2.256930112838745 -8.874039649963379
4.868850231170654 -2.380929946899414 -8.923040390014648
4.939839839935303 -2.226929903030396 -9.083040237426758
4.965849876403809 -2.388930082321167 -8.783040046691895
5.013840198516846 -2.366930007934570 -8.730039596557617
5.032839775085449 -2.276930093765259 -8.755040168762207
4.977839946746826 -2.389930009841919 -8.672039985656738
4.899839878082275 -2.402930021286011 -8.754039764404297
4.950839996337891 -2.253930091857910 -8.725040435791016
5.026840209960938 -2.326930046081543 -8.626040458679199
4.903850078582764 -2.260930061340332 -8.809040069580078
4.989840030670166 -2.261929988861084 -8.629039764404297
4.879839897155762 -2.270930051803589 -8.738039970397949
4.991839885711670 -2.371929883956909 -8.584039688110352
4.851840019226074 -2.389930009841919 -8.811039924621582
4.903850078582764 -2.421930074691773 -8.629039764404297
4.878839969635010 -2.269929885864258 -8.666040420532227
4.817840099334717 -2.333930015563965 -8.740039825439453
4.838840007781982 -2.402930021286011 -8.642040252685547
4.942840099334717 -2.409929990768433 -8.549039840698242
4.967840194702148 -2.384929895401001 -8.490039825439453
4.895850181579590 -2.428930044174194 -8.486040115356445
4.997839927673340 -2.273930072784424 -8.511039733886719
4.955840110778809 -2.386929988861084 -8.421039581298828
4.958849906921387 -2.248929977416992 -8.564040184020996
4.847849845886231 -2.423929929733276 -8.564040184020996
4.897840023040772 -2.264930009841919 -8.501040458679199
4.948840141296387 -2.274930000305176 -8.441040039062500
4.889850139617920 -2.261929988861084 -8.595040321350098
4.889850139617920 -2.434930086135864 -8.409040451049805
4.824840068817139 -2.308929920196533 -8.572039604187012
4.832839965820313 -2.298929929733276 -8.498040199279785
4.799849987030029 -2.372930049896240 -8.565039634704590
4.814839839935303 -2.426929950714111 -8.471039772033691
4.884840011596680 -2.280930042266846 -8.404040336608887
4.788839817047119 -2.364929914474487 -8.494039535522461
4.924849987030029 -2.413929939270020 -8.348039627075195
4.812849998474121 -2.335930109024048 -8.658040046691895
4.956840038299561 -2.274930000305176 -8.357040405273438
4.964839935302734 -2.370929956436157 -8.299039840698242
4.893839836120606 -2.428930044174194 -8.285039901733398
4.858839988708496 -2.437930107116699 -8.342040061950684
4.975840091705322 -2.378930091857910 -8.226039886474609
4.931849956512451 -2.270930051803589 -8.295040130615234
4.801839828491211 -2.437930107116699 -8.292039871215820
4.861849784851074 -2.444930076599121 -8.198040008544922
4.815839767456055 -2.293930053710938 -8.303039550781250
4.968840122222900 -2.280930042266846 -8.223039627075195
4.806849956512451 -2.324929952621460 -8.401040077209473
4.936840057373047 -2.424930095672607 -8.160039901733398
4.775839805603027 -2.346930027008057 -8.288040161132813
4.758840084075928 -2.389930009841919 -8.351039886474609
4.855840206146240 -2.257930040359497 -8.225040435791016
4.764850139617920 -2.401930093765259 -8.417039871215820
4.918839931488037 -2.243930101394653 -8.197039604187012
4.778850078582764 -2.318929910659790 -8.213040351867676
4.879839897155762 -2.431930065155029 -8.096039772033691
4.926839828491211 -2.409929990768433 -8.037039756774902
4.998839855194092 -2.441930055618286 -8.124039649963379
4.810840129852295 -2.457930088043213 -8.107040405273438
4.855840206146240 -2.448930025100708 -8.032039642333984
5.000850200653076 -2.408930063247681 -8.046039581298828
4.986849784851074 -2.323930025100708 -8.110039710998535
4.793839931488037 -2.458930015563965 -8.179039955139160
4.790840148925781 -2.464930057525635 -8.028039932250977
4.763840198516846 -2.342930078506470 -8.146039962768555
4.817840099334717 -2.281929969787598 -8.167039871215820
4.824840068817139 -2.272929906845093 -8.081040382385254
4.877840042114258 -2.432929992675781 -7.956039905548096
4.885839939117432 -2.246929883956909 -8.105039596557617
4.966839790344238 -2.258929967880249 -8.128040313720703
4.945849895477295 -2.402930021286011 -7.952040195465088
4.734839916229248 -2.384929895401001 -8.085040092468262
4.940839767456055 -2.250930070877075 -8.060040473937988
5.008840084075928 -2.401930093765259 -7.979040145874023
4.731840133666992 -2.437930107116699 -8.146039962768555
4.774839878082275 -2.312930107116699 -8.047039985656738
5.008840084075928 -2.289930105209351 -8.034040451049805
4.736849784851074 -2.408930063247681 -8.225040435791016
4.724840164184570 -2.444930076599121 -8.036040306091309
4.796840190887451 -2.464930057525635 -7.940040111541748
4.723840236663818 -2.366930007934570 -8.005040168762207
4.915840148925781 -2.374929904937744 -7.883039951324463
4.826849937438965 -2.456929922103882 -7.820040225982666
4.877840042114258 -2.399930000305176 -7.776040077209473
4.757850170135498 -2.481930017471314 -7.846039772033691
4.984839916229248 -2.362930059432983 -7.882040023803711
4.735839843750000 -2.453929901123047 -7.970039844512940
4.715849876403809 -2.441930055618286 -7.888040065765381
4.717840194702148 -2.375930070877075 -7.927040100097656
4.831840038299561 -2.441930055618286 -7.741040229797363
4.970839977264404 -2.337929964065552 -7.813039779663086
4.770850181579590 -2.475929975509644 -7.772039890289307
4.710840225219727 -2.383929967880249 -7.852039813995361
4.735839843750000 -2.323930025100708 -7.868040084838867
4.743850231170654 -2.311929941177368 -7.939040184020996
5.013840198516846 -2.311929941177368 -7.943039894104004
4.736849784851074 -2.327929973602295 -7.801040172576904
4.777850151062012 -2.256930112838745 -7.895040035247803
4.786839962005615 -2.265929937362671 -7.980040073394775
4.946839809417725 -2.354929924011231 -7.729040145874023
4.694849967956543 -2.462929964065552 -7.785039901733398
4.842840194702148 -2.420929908752441 -7.664040088653565
4.786839962005615 -2.469929933547974 -7.683040142059326
4.802840232849121 -2.458930015563965 -7.606040000915527
4.897840023040772 -2.366930007934570 -7.662040233612061
4.860839843750000 -2.389930009841919 -7.600039958953857
4.729849815368652 -2.490930080413818 -7.718039989471436
4.718840122222900 -2.498929977416992 -7.647039890289307
4.834839820861816 -2.430929899215698 -7.551040172576904
4.750850200653076 -2.494930028915405 -7.576039791107178
4.707839965820313 -2.363929986953735 -7.654039859771729
4.702849864959717 -2.383929967880249 -7.748040199279785
4.741839885711670 -2.318929910659790 -7.708040237426758
4.669839859008789 -2.450930118560791 -7.691040039062500
4.766839981079102 -2.335930109024048 -7.573040008544922
4.777850151062012 -2.276930093765259 -7.656040191650391
4.926839828491211 -2.338929891586304 -7.572040081024170
4.674849987030029 -2.406929969787598 -7.609039783477783
4.655839920043945 -2.471930027008057 -7.627039909362793
4.783840179443359 -2.269929885864258 -7.771039962768555
4.809840202331543 -2.276930093765259 -7.583040237426758
4.978839874267578 -2.308929920196533 -7.641039848327637
4.706840038299561 -2.363929986953735 -7.553040027618408
4.999839782714844 -2.319930076599121 -7.707039833068848
4.887839794158936 -2.329930067062378 -7.517039775848389
4.797840118408203 -2.231930017471314 -7.704040050506592
4.820849895477295 -2.479929924011231 -7.476039886474609
4.873839855194092 -2.444930076599121 -7.428040027618408
4.869840145111084 -2.397929906845093 -7.480040073394775
4.832839965820313 -2.534929990768433 -7.419040203094482
4.730840206146240 -2.512929916381836 -7.503039836883545
4.750850200653076 -2.530930042266846 -7.425039768218994
4.841839790344238 -2.422930002212524 -7.355040073394775
4.848840236663818 -2.331929922103882 -7.437039852142334
4.747839927673340 -2.332930088043213 -7.497039794921875
4.810840129852295 -2.309930086135864 -7.493040084838867
4.683839797973633 -2.526930093765259 -7.455039978027344
4.765840053558350 -2.315929889678955 -7.432040214538574
4.705840110778809 -2.346930027008057 -7.438039779663086
4.814839839935303 -2.471930027008057 -7.318039894104004
4.662839889526367 -2.396929979324341 -7.453040122985840
4.662839889526367 -2.414930105209351 -7.531040191650391
4.739840030670166 -2.571929931640625 -7.369040012359619
4.821839809417725 -2.313930034637451 -7.368040084838867
4.646850109100342 -2.494930028915405 -7.544040203094482
4.627840042114258 -2.490930080413818 -7.475039958953857
4.789840221405029 -2.557929992675781 -7.319039821624756
4.624839782714844 -2.448930025100708 -7.420040130615234
4.734839916229248 -2.321929931640625 -7.349040031433106
4.648839950561523 -2.555929899215698 -7.393040180206299
4.850840091705322 -2.334929943084717 -7.307040214538574
4.663839817047119 -2.341929912567139 -7.376039981842041
4.833849906921387 -2.408930063247681 -7.268040180206299
4.803840160369873 -2.462929964065552 -7.234039783477783
4.761839866638184 -2.522929906845093 -7.258039951324463
4.824840068817139 -2.423929929733276 -7.171040058135986
4.775839805603027 -2.514930009841919 -7.157040119171143
4.704840183258057 -2.571929931640625 -7.223040103912354
4.709839820861816 -2.342930078506470 -7.262040138244629
4.862840175628662 -2.350929975509644 -7.207039833068848
4.802840232849121 -2.474930047988892 -7.106040000915527
4.724840164184570 -2.562930107116699 -7.143040180206299
4.767839908599854 -2.623929977416992 -7.321040153503418
4.698840141296387 -2.604929924011231 -7.318039894104004
4.787839889526367 -2.309930086135864 -7.296040058135986
4.757850170135498 -2.319930076599121 -7.197040081024170
4.849840164184570 -2.365930080413818 -7.137040138244629
4.706840038299561 -2.338929891586304 -7.151040077209473
4.854849815368652 -2.293930053710938 -7.243040084838867
4.621840000152588 -2.365930080413818 -7.264039993286133
4.629839897155762 -2.364929914474487 -7.195040225982666
4.834839820861816 -2.397929906845093 -7.080039978027344
4.666850090026856 -2.632930040359497 -7.216040134429932
4.618850231170654 -2.382930040359497 -7.347040176391602
4.820849895477295 -2.293930053710938 -7.160039901733398
4.755839824676514 -2.547930002212524 -7.063039779663086
4.792850017547607 -2.519929885864258 -7.007040023803711
4.814839839935303 -2.448930025100708 -7.031040191650391
4.812849998474121 -2.485929965972900 -6.939040184020996
4.749839782714844 -2.580929994583130 -6.969039916992188
4.705840110778809 -2.592930078506470 -7.033040046691895
4.838840007781982 -2.391930103302002 -6.964039802551270
4.681849956512451 -2.596930027008057 -7.103040218353272
4.787839889526367 -2.564929962158203 -6.911039829254150
4.698840141296387 -2.346930027008057 -7.036039829254150
4.745840072631836 -2.326930046081543 -7.087039947509766
4.828839778900147 -2.457930088043213 -6.880040168762207
4.662839889526367 -2.356930017471314 -7.102039813995361
4.812849998474121 -2.310930013656616 -7.052040100097656
4.762839794158936 -2.316930055618286 -6.983039855957031
4.831840038299561 -2.320930004119873 -6.979040145874023
4.730840206146240 -2.606930017471314 -6.901040077209473
4.621840000152588 -2.373929977416992 -7.040040016174316
4.637839794158936 -2.629930019378662 -7.029039859771729
4.677840232849121 -2.346930027008057 -6.936039924621582
4.618850231170654 -2.368930101394653 -6.966040134429932
4.803840160369873 -2.566930055618286 -6.836040019989014
4.832839965820313 -2.527930021286011 -6.784039974212647
4.756840229034424 -2.620929956436157 -6.830039978027344
4.845839977264404 -2.438930034637451 -6.799039840698242
4.824840068817139 -2.590929985046387 -6.727039813995361
4.849840164184570 -2.525929927825928 -6.712039947509766
4.779839992523193 -2.635930061340332 -6.752039909362793
4.689839839935303 -2.640929937362671 -6.782040119171143
4.860839843750000 -2.445930004119873 -6.721039772033691
4.845839977264404 -2.364929914474487 -6.870039939880371
4.639850139617920 -2.637929916381836 -6.838039875030518
4.851840019226074 -2.369930028915405 -6.747039794921875
4.706840038299561 -2.334929943084717 -6.810039997100830
4.641839981079102 -2.629930019378662 -6.907040119171143
4.836840152740479 -2.330929994583130 -6.812039852142334
4.663839817047119 -2.347929954528809 -6.865039825439453
4.730840206146240 -2.321929931640625 -6.895040035247803
4.772840023040772 -2.305929899215698 -6.826039791107178
4.705840110778809 -2.639930009841919 -6.675039768218994
4.739840030670166 -2.318929910659790 -6.751039981842041
4.644839763641357 -2.341929912567139 -6.784039974212647
4.875850200653076 -2.518929958343506 -6.646039962768555
4.834839820861816 -2.616930007934570 -6.655039787292481
4.772840023040772 -2.650929927825928 -6.632040023803711
4.700839996337891 -2.637929916381836 -6.607039928436279
4.815839767456055 -2.647929906845093 -6.569039821624756
4.873839855194092 -2.592930078506470 -6.590040206909180
4.903850078582764 -2.511929988861084 -6.575039863586426
4.901840209960938 -2.583930015563965 -6.528039932250977
4.642839908599854 -2.647929906845093 -6.575039863586426
4.638840198516846 -2.640929937362671 -6.698040008544922
4.922840118408203 -2.461930036544800 -6.531040191650391
4.924849987030029 -2.620929956436157 -6.448040008544922
4.732840061187744 -2.635930061340332 -6.483039855957031
4.869840145111084 -2.653929948806763 -6.477039813995361
4.664840221405029 -2.659929990768433 -6.512040138244629
4.809840202331543 -2.622930049896240 -6.490039825439453
4.945849895477295 -2.450930118560791 -6.462039947509766
4.946839809417725 -2.525929927825928 -6.472040176391602
4.574840068817139 -2.666929960250855 -6.540040016174316
4.897840023040772 -2.366930007934570 -6.480040073394775
4.766839981079102 -2.590929985046387 -6.544040203094482
4.858839988708496 -2.334929943084717 -6.525040149688721
4.792850017547607 -2.295929908752441 -6.533040046691895
4.562849998474121 -2.645930051803589 -6.613039970397949
4.489840030670166 -2.683929920196533 -6.628039836883545
4.829840183258057 -2.309930086135864 -6.595039844512940
4.873839855194092 -2.367929935455322 -6.597040176391602
4.493850231170654 -2.736929893493652 -6.685039997100830
4.532839775085449 -2.667929887771606 -6.698040008544922
4.705840110778809 -2.318929910659790 -6.658040046691895
4.792850017547607 -2.307929992675781 -6.659039974212647
4.609839916229248 -2.344929933547974 -6.689040184020996
4.860839843750000 -2.368930101394653 -6.675039768218994
4.541850090026856 -2.709929943084717 -6.759039878845215
4.670839786529541 -2.337929964065552 -6.719039916992188
4.565839767456055 -2.347929954528809 -6.740039825439453
4.589839935302734 -2.651930093765259 -6.766039848327637
4.804840087890625 -2.309930086135864 -6.728040218353272
4.579840183258057 -2.697930097579956 -6.844039916992188
4.593840122222900 -2.354929924011231 -6.869040012359619
4.507850170135498 -2.369930028915405 -6.890039920806885
4.439839839935303 -2.381930112838745 -6.912040233612061
4.795839786529541 -2.300930023193359 -6.895040035247803
4.607840061187744 -2.638930082321167 -6.964039802551270
4.533840179443359 -2.392930030822754 -6.975039958953857
4.547840118408203 -2.395930051803589 -7.045040130615234
4.600840091705322 -2.679929971694946 -7.067039966583252
4.531839847564697 -2.717930078506470 -7.100039958953857
4.489840030670166 -2.648930072784424 -7.111040115356445
4.589839935302734 -2.381930112838745 -7.105040073394775
4.452849864959717 -2.593930006027222 -7.143040180206299
4.633840084075928 -2.640929937362671 -7.135039806365967
4.573840141296387 -2.753930091857910 -7.162040233612061
4.542850017547607 -2.688930034637451 -7.163040161132813
4.610839843750000 -2.698930025100708 -7.174039840698242
4.505839824676514 -2.612930059432983 -7.193039894104004
4.484839916229248 -2.545929908752441 -7.200039863586426
4.478839874267578 -2.472929954528809 -7.201039791107178
4.500850200653076 -2.399930000305176 -7.212039947509766
4.660850048065186 -2.706929922103882 -7.223040103912354
4.598840236663818 -2.653929948806763 -7.228040218353272
4.564839839935303 -2.366930007934570 -7.219039916992188
4.555850028991699 -2.602930068969727 -7.249040126800537
4.514850139617920 -2.547930002212524 -7.265039920806885
4.527850151062012 -2.475929975509644 -7.268040180206299
4.606840133666992 -2.583930015563965 -7.320040225982666
4.576849937438965 -2.425930023193359 -7.312039852142334
4.561840057373047 -2.500930070877075 -7.330039978027344
4.598840236663818 -2.512929916381836 -7.409039974212647
4.929840087890625 -2.238929986953735 -7.539040088653565
4.916850090026856 -2.161930084228516 -7.540040016174316
4.867839813232422 -2.187930107116699 -7.586040019989014
4.901840209960938 -2.118930101394653 -7.596039772033691
5.043839931488037 -2.269929885864258 -7.636040210723877
4.837840080261231 -2.189929962158203 -7.660039901733398
4.877840042114258 -2.125930070877075 -7.671040058135986
4.822840213775635 -2.216929912567139 -7.845039844512940
5.028850078582764 -2.295929908752441 -7.826039791107178
5.019839763641357 -2.247930049896240 -7.890039920806885
4.966839790344238 -2.209929943084717 -7.926040172576904
4.827849864959717 -2.196929931640625 -7.946040153503418
4.908840179443359 -2.209929943084717 -7.985040187835693
4.982840061187744 -2.244930028915405 -7.990039825439453
4.845839977264404 -2.227930068969727 -8.010040283203125
4.795839786529541 -2.340929985046387 -8.808039665222168
4.731840133666992 -2.354929924011231 -8.855039596557617
4.831840038299561 -2.281929969787598 -8.843040466308594
4.674849987030029 -2.319930076599121 -8.872039794921875
4.649839878082275 -2.381930112838745 -8.884039878845215
4.769839763641357 -2.293930053710938 -8.868040084838867
4.815839767456055 -2.361929893493652 -8.871040344238281
4.760839939117432 -2.415930032730103 -8.884039878845215
4.716839790344238 -2.300930023193359 -8.923040390014648
4.860839843750000 -2.271929979324341 -8.906040191650391
4.668839931488037 -2.348929882049561 -8.941040039062500
4.718840122222900 -2.394929885864258 -8.956040382385254
4.806849956512451 -2.281929969787598 -8.950039863586426
4.787839889526367 -2.405930042266846 -8.966039657592773
4.703839778900147 -2.331929922103882 -9.002039909362793
4.844840049743652 -2.383929967880249 -9.011039733886719
4.849840164184570 -2.258929967880249 -9.006039619445801
4.771850109100342 -2.275929927825928 -9.028039932250977
4.785850048065186 -2.399930000305176 -9.045040130615234
4.727839946746826 -2.362930059432983 -9.061039924621582
4.858839988708496 -2.393929958343506 -9.091039657592773
4.873839855194092 -2.252929925918579 -9.080039978027344
4.809840202331543 -2.273930072784424 -9.093040466308594
4.778850078582764 -2.383929967880249 -9.117039680480957
4.750850200653076 -2.318929910659790 -9.118040084838867
4.795839786529541 -2.286930084228516 -9.165040016174316
4.835840225219727 -2.389930009841919 -9.173040390014648
4.894839763641357 -2.236929893493652 -9.172039985656738
4.780839920043945 -2.347929954528809 -9.218040466308594
4.849840164184570 -2.244930028915405 -9.226039886474609
4.884840011596680 -2.382930040359497 -9.238039970397949
4.801839828491211 -2.286930084228516 -9.252039909362793
4.906839847564697 -2.210930109024048 -9.253040313720703
4.829840183258057 -2.368930101394653 -9.298040390014648
4.899839878082275 -2.370929956436157 -9.317040443420410
4.954840183258057 -2.185930013656616 -9.298040390014648
4.861849784851074 -2.228929996490479 -9.314040184020996
4.808839797973633 -2.312930107116699 -9.340040206909180
4.869840145111084 -2.360929965972900 -9.377039909362793
4.922840118408203 -2.192929983139038 -9.359040260314941
4.839839935302734 -2.255929946899414 -9.384039878845215
4.929840087890625 -2.361929893493652 -9.427040100097656
4.844840049743652 -2.307929992675781 -9.441040039062500
4.957839965820313 -2.186929941177368 -9.418040275573731
4.865839958190918 -2.248929977416992 -9.475040435791016
4.882850170135498 -2.341929912567139 -9.496040344238281
4.949840068817139 -2.361929893493652 -9.499039649963379
4.935840129852295 -2.197930097579956 -9.490039825439453
4.998839855194092 -2.174930095672607 -9.482040405273438
4.857840061187744 -2.295929908752441 -9.539039611816406
4.903850078582764 -2.233930110931397 -9.546039581298828
4.975840091705322 -2.179929971694946 -9.546039581298828
4.930850028991699 -2.351929903030396 -9.576040267944336
4.875850200653076 -2.308929920196533 -9.608039855957031
4.904839992523193 -2.249929904937744 -9.629039764404297
4.940839767456055 -2.192929983139038 -9.629039764404297
5.016839981079102 -2.152930021286011 -9.629039764404297
4.928840160369873 -2.344929933547974 -9.664039611816406
5.068840026855469 -2.130929946899414 -9.680040359497070
5.004839897155762 -2.148930072784424 -9.701040267944336
5.000850200653076 -2.352930068969727 -9.722040176391602
4.912839889526367 -2.254930019378662 -9.729040145874023
4.868850231170654 -2.312930107116699 -9.745039939880371
4.954840183258057 -2.189929962158203 -9.731040000915527
4.920839786529541 -2.354929924011231 -9.773039817810059
5.103839874267578 -2.119930028915405 -9.745039939880371
5.038839817047119 -2.355930089950562 -9.781040191650391
4.899839878082275 -2.272929906845093 -9.794039726257324
4.978839874267578 -2.162930011749268 -9.808039665222168
4.982840061187744 -2.356930017471314 -9.823040008544922
5.034850120544434 -2.122930049896240 -9.800040245056152
4.938849925994873 -2.236929893493652 -9.846039772033691
4.916850090026856 -2.301929950714111 -9.860039710998535
5.039840221405029 -2.357929944992065 -9.867039680480957
5.102839946746826 -2.112930059432983 -9.852040290832520
4.962840080261231 -2.375930070877075 -9.893039703369141
5.009840011596680 -2.147929906845093 -9.887040138244629
4.968840122222900 -2.204930067062378 -9.901040077209473
5.047840118408203 -2.454930067062378 -9.934040069580078
5.063849925994873 -2.371929883956909 -9.929039955139160
4.942840099334717 -2.272929906845093 -9.942040443420410
5.074840068817139 -2.107929944992065 -9.923040390014648
5.020850181579590 -2.149930000305176 -9.955039978027344
4.981840133666992 -2.207930088043213 -9.969039916992188
5.141839981079102 -2.099930047988892 -9.942040443420410
