ply
format ascii 1.0
element vertex 538
property double x
property double y
property double z
end_header
5.393839836120606 0.380068987607956 -5.467040061950684
5.393839836120606 0.380068987607956 -5.467040061950684
5.458849906921387 0.394068986177444 -5.489039897918701
5.401840209960938 0.474068999290466 -5.491040229797363
5.420839786529541 0.293069005012512 -5.513040065765381
5.379839897155762 -0.018931500613689 -5.543039798736572
5.401840209960938 -0.082932598888874 -5.549039840698242
5.486849784851074 0.473066985607147 -5.495039939880371
5.406839847564697 0.223067000508308 -5.527040004730225
5.370840072631836 0.125067993998528 -5.540040016174316
5.415840148925781 0.539066970348358 -5.506040096282959
5.366839885711670 0.413067996501923 -5.523039817810059
5.401840209960938 -0.181932002305985 -5.568039894104004
5.465849876403809 0.591067016124725 -5.503039836883545
5.340849876403809 -0.134932994842529 -5.580039978027344
5.486849784851074 0.288067996501923 -5.531040191650391
5.326849937438965 0.016068300232291 -5.576039791107178
5.350840091705322 0.258067011833191 -5.555039882659912
5.358839988708496 0.346067994832993 -5.552040100097656
5.445849895477295 0.149067997932434 -5.556039810180664
5.338840007781982 -0.063931599259377 -5.587039947509766
5.510839939117432 0.534067988395691 -5.518040180206299
5.428840160369873 0.042067401111126 -5.570040225982666
5.497839927673340 0.671066999435425 -5.515039920806885
5.487840175628662 0.761066973209381 -5.510039806365967
5.443840026855469 -0.029931200668216 -5.577040195465088
5.427840232849121 0.680068016052246 -5.528039932250977
5.367839813232422 0.513068020343781 -5.554039955139160
5.339839935302734 -0.209931001067162 -5.615039825439453
5.385839939117432 0.600067973136902 -5.547039985656738
5.449840068817139 -0.105930998921394 -5.593039989471436
5.532839775085449 0.423067986965179 -5.545040130615234
5.522840023040772 0.239068001508713 -5.562039852142334
5.338840007781982 0.191067993640900 -5.593039989471436
5.442840099334717 0.808067977428436 -5.533040046691895
5.539840221405029 0.352068990468979 -5.559040069580078
5.489840030670166 0.104068003594875 -5.585040092468262
5.337840080261231 0.101066999137402 -5.608039855957031
5.571839809417725 0.653066992759705 -5.536039829254150
5.532839775085449 0.166068002581596 -5.588039875030518
5.551839828491211 0.587067008018494 -5.554039955139160
5.486849784851074 0.038067698478699 -5.606040000915527
5.566840171813965 0.514068007469177 -5.561039924621582
5.610839843750000 0.439069002866745 -5.562039852142334
5.586840152740479 0.264068007469177 -5.579040050506592
5.612840175628662 0.371068000793457 -5.568039894104004
5.635839939117432 0.517068028450012 -5.554039955139160
5.575839996337891 0.722068011760712 -5.547039985656738
5.648839950561523 0.716067016124725 -5.538040161132813
5.396850109100342 0.440068006515503 -5.595039844512940
5.536839962005615 0.795068025588989 -5.549039840698242
5.677840232849121 0.576067984104156 -5.547039985656738
5.385839939117432 0.663067996501923 -5.581039905548096
5.409850120544434 -0.227933004498482 -5.648039817810059
5.392839908599854 0.352068990468979 -5.610040187835693
5.668839931488037 0.326068013906479 -5.576039791107178
5.610839843750000 0.835069000720978 -5.545040130615234
5.331840038299561 -0.085932798683643 -5.655039787292481
5.704840183258057 0.052067600190639 -5.594039916992188
5.681849956512451 -0.033932801336050 -5.604040145874023
5.380839824676514 0.274067997932434 -5.622039794921875
5.628839969635010 0.162067994475365 -5.597040176391602
5.464839935302734 -0.179932996630669 -5.647039890289307
5.655839920043945 0.237066999077797 -5.589039802551270
5.402850151062012 0.757067978382111 -5.584040164947510
5.471839904785156 0.886066973209381 -5.565040111541748
5.579840183258057 0.111068002879620 -5.611040115356445
5.344840049743652 -0.014931799843907 -5.654039859771729
5.390840053558350 -0.289930999279022 -5.669040203094482
5.317840099334717 -0.164930999279022 -5.670040130615234
5.626840114593506 0.035067401826382 -5.616040229797363
5.495840072631836 -0.103932000696659 -5.646039962768555
5.403850078582764 0.547067999839783 -5.611040115356445
5.714839935302734 -0.126930996775627 -5.622039794921875
5.329840183258057 -0.267931997776031 -5.686039924621582
5.379839897155762 0.138068005442619 -5.648039817810059
5.368850231170654 0.061068400740623 -5.661039829254150
5.711840152740479 0.170067995786667 -5.607039928436279
5.631840229034424 0.771067976951599 -5.573040008544922
5.550839900970459 0.041067998856306 -5.641039848327637
5.602839946746826 -0.062932096421719 -5.642039775848389
5.680850028991699 0.479068011045456 -5.590040206909180
5.412839889526367 0.218068003654480 -5.648039817810059
5.559840202331543 0.863067984580994 -5.579040050506592
5.622839927673340 0.674067020416260 -5.586040019989014
5.410850048065186 0.614067971706390 -5.620039939880371
5.693840026855469 0.382068008184433 -5.603040218353272
5.532839775085449 -0.031932000070810 -5.658040046691895
5.624839782714844 0.602069020271301 -5.597040176391602
5.655839920043945 -0.150931000709534 -5.651040077209473
5.458849906921387 0.292066991329193 -5.646039962768555
5.475840091705322 0.474068999290466 -5.630040168762207
5.420839786529541 0.820066988468170 -5.613039970397949
5.571839809417725 -0.126930996775627 -5.669040203094482
5.468840122222900 0.576067984104156 -5.629039764404297
5.447840213775635 -0.267931997776031 -5.697040081024170
5.327849864959717 -0.368932008743286 -5.722040176391602
5.416850090026856 0.918069005012512 -5.611040115356445
5.633840084075928 0.925068974494934 -5.582039833068848
5.644839763641357 0.427067995071411 -5.619040012359619
5.693840026855469 0.280068010091782 -5.624040126800537
5.497839927673340 -0.220930993556976 -5.691040039062500
5.563849925994873 0.940068006515503 -5.593039989471436
5.598840236663818 0.535067021846771 -5.622039794921875
5.507850170135498 0.402067989110947 -5.645040035247803
5.538839817047119 0.326068013906479 -5.647039890289307
5.440839767456055 0.114068001508713 -5.678040027618408
5.476840019226074 0.205068007111549 -5.667039871215820
5.472849845886231 0.653066992759705 -5.634039878845215
5.539840221405029 0.613067984580994 -5.629039764404297
5.523839950561523 0.526068985462189 -5.638040065765381
5.694849967956543 0.101066999137402 -5.648039817810059
5.534850120544434 0.244066998362541 -5.659039974212647
5.570849895477295 0.442066997289658 -5.639039993286133
5.454840183258057 0.728067994117737 -5.634039878845215
5.606840133666992 0.356067985296249 -5.642039775848389
5.500850200653076 0.970068991184235 -5.610040187835693
5.542850017547607 0.688067018985748 -5.627039909362793
5.624839782714844 0.291067987680435 -5.647039890289307
5.296840190887451 -0.231932997703552 -5.733039855957031
5.680850028991699 0.003067899961025 -5.663040161132813
5.348840236663818 -0.112930998206139 -5.719039916992188
5.297840118408203 -0.306932002305985 -5.742040157318115
5.601840019226074 0.221067994832993 -5.661039829254150
5.664840221405029 0.164067000150681 -5.657040119171143
5.546840190887451 0.769069015979767 -5.627039909362793
5.413839817047119 0.030068300664425 -5.702040195465088
5.571839809417725 -0.204932004213333 -5.700039863586426
5.534850120544434 0.153066992759705 -5.679039955139160
5.683839797973633 -0.095931202173233 -5.679039955139160
5.377840042114258 -0.049931600689888 -5.718039989471436
5.516839981079102 -0.284931987524033 -5.719039916992188
5.601840019226074 0.144069001078606 -5.676040172576904
5.514850139617920 0.834066987037659 -5.635039806365967
5.480840206146240 0.906068027019501 -5.640039920806885
5.459839820861816 -0.325933009386063 -5.739039897918701
5.627840042114258 0.055067900568247 -5.688039779663086
5.638840198516846 -0.250932008028030 -5.712039947509766
5.392839908599854 -0.371931999921799 -5.759039878845215
5.336840152740479 -0.175933003425598 -5.753039836883545
5.473840236663818 1.018069982528687 -5.649040222167969
5.591839790344238 -0.297933012247086 -5.735040187835693
5.522840023040772 0.038067698478699 -5.719039916992188
5.629839897155762 -0.046931400895119 -5.714039802551270
5.467840194702148 -0.008931299671531 -5.736040115356445
5.306849956512451 -0.394932985305786 -5.794040203094482
5.563849925994873 -0.017932100221515 -5.733039855957031
5.637839794158936 -0.115932002663612 -5.738039970397949
5.529839992523193 -0.343932002782822 -5.772039890289307
5.283840179443359 -0.332933008670807 -5.806039810180664
5.390840053558350 -0.140930995345116 -5.777040004730225
5.440839767456055 -0.083931997418404 -5.767039775848389
5.663839817047119 -0.322932004928589 -5.759039878845215
5.330840110778809 -0.229931995272636 -5.801040172576904
5.522840023040772 -0.064932897686958 -5.763040065765381
5.455840110778809 -0.380932986736298 -5.798039913177490
5.372839927673340 -0.402931988239288 -5.822040081024170
5.577849864959717 -0.109932996332645 -5.773039817810059
5.654839992523193 -0.216931000351906 -5.772039890289307
5.588840007781982 -0.392931997776031 -5.804039955139160
5.493850231170654 -0.125931993126869 -5.802040100097656
5.643839836120606 -0.569931983947754 -5.816040039062500
5.640840053558350 -0.501931011676788 -5.816040039062500
5.592840194702148 -0.180932000279427 -5.800039768218994
5.278850078582764 -0.379931986331940 -5.858039855957031
5.419839859008789 -0.191931992769241 -5.825039863586426
5.316840171813965 -0.288931995630264 -5.855040073394775
5.526840209960938 -0.178930997848511 -5.827040195465088
5.623839855194092 -0.273932993412018 -5.824039936065674
5.559840202331543 -0.465932011604309 -5.848040103912354
5.648839950561523 -0.411931008100510 -5.835040092468262
5.512839794158936 -0.411931008100510 -5.854040145874023
5.580840110778809 -0.562932014465332 -5.857039928436279
5.471839904785156 -0.222931995987892 -5.854040145874023
5.494840145111084 -0.483931988477707 -5.876039981842041
5.361849784851074 -0.462931990623474 -5.893040180206299
5.428840160369873 -0.469931989908218 -5.887040138244629
5.611849784851074 -0.621932029724121 -5.874040126800537
5.305850028991699 -0.421930998563766 -5.904039859771729
5.614840030670166 -0.339933007955551 -5.856040000915527
5.386839866638184 -0.273932993412018 -5.883039951324463
5.518839836120606 -0.271932005882263 -5.876039981842041
5.323840141296387 -0.358931988477707 -5.920040130615234
5.551839828491211 -0.617932021617889 -5.915040016174316
5.519839763641357 -0.553930997848511 -5.915040016174316
5.447840213775635 -0.290933012962341 -5.905039787292481
5.606840133666992 -0.454932004213333 -5.897039890289307
5.570849895477295 -0.382932007312775 -5.899040222167969
5.458849906921387 -0.517931997776031 -5.929039955139160
5.513840198516846 -0.713931024074554 -5.938039779663086
5.374839782714844 -0.537932991981506 -5.951039791107178
5.511839866638184 -0.345930993556976 -5.921040058135986
5.311840057373047 -0.478931993246078 -5.959040164947510
5.603839874267578 -0.713931024074554 -5.939040184020996
5.441840171813965 -0.706930994987488 -5.962039947509766
5.491839885711670 -0.621932029724121 -5.949039936065674
5.427840232849121 -0.591930985450745 -5.962039947509766
5.635839939117432 -0.634932994842529 -5.941040039062500
5.389850139617920 -0.650931000709534 -5.976039886474609
5.447840213775635 -0.343932002782822 -5.947040081024170
5.384840011596680 -0.363932996988297 -5.958040237426758
5.475840091705322 -0.764931976795197 -5.978040218353272
5.546840190887451 -0.436933010816574 -5.945040225982666
5.314839839935303 -0.570931971073151 -5.990039825439453
5.621840000152588 -0.569931983947754 -5.952040195465088
5.595839977264404 -0.495932996273041 -5.960040092468262
5.557839870452881 -0.743932008743286 -5.989039897918701
5.479849815368652 -0.409931987524033 -5.976039886474609
5.411839962005615 -0.766933023929596 -6.014039993286133
5.334839820861816 -0.433932006359100 -6.003039836883545
5.399839878082275 -0.411931008100510 -6.004039764404297
5.285850048065186 -0.498932987451553 -6.028039932250977
5.505839824676514 -0.818933010101318 -6.025040149688721
5.514850139617920 -0.481932997703552 -6.002039909362793
5.364840030670166 -0.726931989192963 -6.045040130615234
5.630839824676514 -0.767931997776031 -6.014039993286133
5.622839927673340 -0.640931010246277 -6.009039878845215
5.440839767456055 -0.810931026935577 -6.056039810180664
5.284850120544434 -0.639931976795197 -6.068039894104004
5.535850048065186 -0.539930999279022 -6.033040046691895
5.572840213775635 -0.795931994915009 -6.054039955139160
5.579840183258057 -0.598931014537811 -6.041039943695068
5.463840007781982 -0.486932009458542 -6.049039840698242
5.369840145111084 -0.459930986166000 -6.060039997100830
5.286839962005615 -0.535932004451752 -6.086040019989014
5.392839908599854 -0.788932025432587 -6.101039886474609
5.303840160369873 -0.704931974411011 -6.111040115356445
5.441840171813965 -0.860931992530823 -6.115039825439453
5.259840011596680 -0.589932978153229 -6.124040126800537
5.520850181579590 -0.861931979656219 -6.113039970397949
5.406839847564697 -0.496931999921799 -6.102039813995361
5.481840133666992 -0.545931994915009 -6.096039772033691
5.621840000152588 -0.714932978153229 -6.091040134429932
5.587840080261231 -0.833931982517242 -6.116040229797363
5.344840049743652 -0.766933023929596 -6.147039890289307
5.485839843750000 -0.923932015895844 -6.140039920806885
5.540840148925781 -0.619930982589722 -6.114039897918701
5.655839920043945 -0.823931992053986 -6.126039981842041
5.555850028991699 -0.912932991981506 -6.153039932250977
5.428840160369873 -0.546931028366089 -6.143040180206299
5.348840236663818 -0.530933022499084 -6.153039932250977
5.630839824676514 -0.886932015419006 -6.145040035247803
5.430850028991699 -0.918932974338531 -6.180039882659912
5.287839889526367 -0.729932010173798 -6.187039852142334
5.363840103149414 -0.819931983947754 -6.188039779663086
5.298850059509277 -0.581930994987488 -6.181039810180664
5.576849937438965 -0.698931992053986 -6.154039859771729
5.624839782714844 -0.770932018756866 -6.156040191650391
5.269839763641357 -0.648932993412018 -6.203040122985840
5.382850170135498 -0.885932028293610 -6.218039989471436
5.621840000152588 -0.960933029651642 -6.192039966583252
5.308839797973633 -0.796931028366089 -6.223040103912354
5.496840000152588 -0.642931997776031 -6.186039924621582
5.368850231170654 -0.578933000564575 -6.205039978027344
5.552840232849121 -0.996932029724121 -6.220039844512940
5.405839920043945 -0.947932004928589 -6.237040042877197
5.485839843750000 -0.981932997703552 -6.229040145874023
5.531839847564697 -0.700932979583740 -6.207039833068848
5.624839782714844 -0.829931974411011 -6.206039905548096
5.562849998474121 -1.094930052757263 -6.239039897918701
5.494840145111084 -1.090929985046387 -6.249040126800537
5.437849998474121 -1.047930002212524 -6.257040023803711
5.331840038299561 -0.852932989597321 -6.257040023803711
5.420839786529541 -0.617932021617889 -6.228040218353272
5.575839996337891 -0.757932007312775 -6.219039916992188
5.272840023040772 -0.708931982517242 -6.258039951324463
5.327849864959717 -0.629931986331940 -6.255040168762207
5.522840023040772 -1.170930027961731 -6.280039787292481
5.603839874267578 -0.920931994915009 -6.264039993286133
5.521850109100342 -0.750931978225708 -6.263040065765381
5.579840183258057 -0.826932013034821 -6.261040210723877
5.471839904785156 -0.705932021141052 -6.272039890289307
5.317840099334717 -0.913932025432587 -6.311039924621582
5.393839836120606 -1.044929981231690 -6.311039924621582
5.577849864959717 -1.016929984092712 -6.284039974212647
5.291850090026856 -0.824931025505066 -6.309040069580078
5.456840038299561 -1.148929953575134 -6.316040039062500
5.396850109100342 -0.665933012962341 -6.287040233612061
5.375850200653076 -0.961932003498077 -6.319039821624756
5.391839981079102 -1.156929969787598 -6.340040206909180
5.537839889526367 -1.111930012702942 -6.318039894104004
5.395850181579590 -1.232929944992065 -6.359039783477783
5.339839935302734 -1.057929992675781 -6.354040145874023
5.535850048065186 -0.836932003498077 -6.311039924621582
5.329840183258057 -1.135929942131043 -6.364039897918701
5.468840122222900 -1.228929996490479 -6.353040218353272
5.265840053558350 -0.751931011676788 -6.347040176391602
5.363840103149414 -0.700932979583740 -6.337039947509766
5.540840148925781 -0.910932004451752 -6.331039905548096
5.312849998474121 -0.995932996273041 -6.373040199279785
5.433839797973633 -0.736931979656219 -6.337039947509766
5.535850048065186 -1.000929951667786 -6.345039844512940
5.251840114593506 -0.825932979583740 -6.375040054321289
5.484839916229248 -0.805931985378265 -6.342040061950684
5.335840225219727 -1.203930020332336 -6.395040035247803
5.275839805603027 -0.897930979728699 -6.382040023803711
5.515840053558350 -1.187929987907410 -6.382040023803711
5.280839920043945 -1.169929981231690 -6.415040016174316
5.287839889526367 -1.081930041313171 -6.410039901733398
5.426839828491211 -0.794932007789612 -6.375040054321289
5.513840198516846 -1.074929952621460 -6.387040138244629
5.316840171813965 -0.758930981159210 -6.391039848327637
5.439839839935303 -1.286929965019226 -6.418039798736572
5.489840030670166 -0.918932974338531 -6.384039878845215
5.325839996337891 -1.255929946899414 -6.436039924621582
5.284850120544434 -0.953933000564575 -6.421040058135986
5.490839958190918 -1.010929942131043 -6.403039932250977
5.509840011596680 -1.247930049896240 -6.420040130615234
5.370840072631836 -0.815931975841522 -6.406040191650391
5.466839790344238 -0.852932989597321 -6.402040004730225
5.311840057373047 -0.862931013107300 -6.427040100097656
5.435840129852295 -0.957933008670807 -6.423039913177490
5.378839969635010 -1.323930025100708 -6.459040164947510
5.470839977264404 -1.343930006027222 -6.451039791107178
5.498839855194092 -1.140930056571960 -6.433040142059326
5.410850048065186 -0.892931997776031 -6.428040027618408
5.278850078582764 -1.018929958343506 -6.466040134429932
5.256840229034424 -1.191930055618286 -6.487040042877197
5.256840229034424 -1.102929949760437 -6.482039928436279
5.407839775085449 -1.018929958343506 -6.457039833068848
5.466839790344238 -1.070930004119873 -6.455039978027344
5.340849876403809 -0.920931994915009 -6.465040206909180
5.281839847564697 -1.266929984092712 -6.503039836883545
5.522840023040772 -1.306929945945740 -6.481040000915527
5.479849815368652 -1.220929980278015 -6.496039867401123
5.293839931488037 -0.961932003498077 -6.502039909362793
5.201849937438965 -1.239930033683777 -6.536039829254150
5.456840038299561 -1.137930035591126 -6.495039939880371
5.222849845886231 -1.145930051803589 -6.528039932250977
5.396850109100342 -1.329929947853088 -6.525040149688721
5.357840061187744 -1.048930048942566 -6.510039806365967
5.315839767456055 -1.317929983139038 -6.541039943695068
5.139850139617920 -1.194929957389832 -6.565040111541748
5.240839958190918 -1.295930027961731 -6.560039997100830
5.480840206146240 -1.386929988861084 -6.536039829254150
5.163839817047119 -1.335929989814758 -6.577040195465088
5.392839908599854 -1.140930056571960 -6.535039901733398
5.271850109100342 -1.018929958343506 -6.545040130615234
5.475840091705322 -1.274930000305176 -6.538040161132813
5.064839839935303 -1.393929958343506 -6.604040145874023
5.120840072631836 -1.263929963111877 -6.588039875030518
5.095839977264404 -1.326930046081543 -6.603040218353272
5.221839904785156 -1.382930040359497 -6.593039989471436
5.417850017547607 -1.223930001258850 -6.557040214538574
5.316840171813965 -1.099930047988892 -6.562039852142334
5.245840072631836 -1.079929947853088 -6.574039936065674
5.190839767456055 -1.151929974555969 -6.588039875030518
5.364840030670166 -1.354930043220520 -6.580039978027344
5.152850151062012 -1.421929955482483 -6.618040084838867
5.422840118408203 -1.399930000305176 -6.580039978027344
5.337840080261231 -1.174929976463318 -6.577040195465088
5.296840190887451 -1.383929967880249 -6.601039886474609
5.176839828491211 -1.223930001258850 -6.621039867401123
5.488840103149414 -1.447929978370667 -6.596039772033691
5.309840202331543 -1.446930050849915 -6.624040126800537
5.459839820861816 -1.333930015563965 -6.595039844512940
5.263840198516846 -1.174929976463318 -6.610040187835693
5.170839786529541 -1.482929944992065 -6.648039817810059
5.089839935302734 -1.449929952621460 -6.658040046691895
5.236849784851074 -1.454929947853088 -6.641039848327637
5.306849956512451 -1.235929965972900 -6.619040012359619
5.367839813232422 -1.282930016517639 -6.617040157318115
5.162839889526367 -1.288930058479309 -6.646039962768555
5.135839939117432 -1.538930058479309 -6.677040100097656
5.383840084075928 -1.441930055618286 -6.637040138244629
5.231840133666992 -1.254930019378662 -6.647039890289307
5.121840000152588 -1.354930043220520 -6.670040130615234
5.445849895477295 -1.472929954528809 -6.643040180206299
5.471839904785156 -1.390930056571960 -6.634039878845215
5.224840164184570 -1.515930056571960 -6.685039997100830
5.077849864959717 -1.514930009841919 -6.713039875030518
5.354849815368652 -1.340929985046387 -6.663040161132813
5.274839878082275 -1.301929950714111 -6.672039985656738
5.298850059509277 -1.474930047988892 -6.684040069580078
5.409850120544434 -1.382930040359497 -6.674039840698242
5.220839977264404 -1.336930036544800 -6.704040050506592
5.399839878082275 -1.505929946899414 -6.695040225982666
5.109839916229248 -1.434929966926575 -6.732039928436279
5.488840103149414 -1.505929946899414 -6.686039924621582
5.301839828491211 -1.358929991722107 -6.706039905548096
5.172840118408203 -1.385929942131043 -6.730040073394775
5.456840038299561 -1.433930039405823 -6.703040122985840
5.254839897155762 -1.540930032730103 -6.746039867401123
5.251840114593506 -1.382930040359497 -6.746039867401123
5.395850181579590 -1.420930027961731 -6.731040000915527
5.325839996337891 -1.523929953575134 -6.749040126800537
5.200839996337891 -1.572929978370667 -6.771039962768555
5.081840038299561 -1.526929974555969 -6.784039974212647
5.146850109100342 -1.457929968833923 -6.783040046691895
5.137839794158936 -1.585929989814758 -6.805039882659912
5.327849864959717 -1.428930044174194 -6.770040035247803
5.371840000152588 -1.574929952621460 -6.778039932250977
5.221839904785156 -1.427929997444153 -6.795040130615234
5.427840232849121 -1.479930043220520 -6.785039901733398
5.308839797973633 -1.582929968833923 -6.815040111541748
5.067840099334717 -1.576930046081543 -6.848040103912354
5.451849937438965 -1.565930008888245 -6.796040058135986
5.108839988708496 -1.510929942131043 -6.846039772033691
5.269839763641357 -1.466930031776428 -6.825039863586426
5.156839847564697 -1.631929993629456 -6.857039928436279
5.357840061187744 -1.482929944992065 -6.821040153503418
5.195849895477295 -1.473930001258850 -6.845039844512940
5.339839935302734 -1.637930035591126 -6.839039802551270
5.419839859008789 -1.623929977416992 -6.836040019989014
5.263840198516846 -1.617930054664612 -6.861040115356445
5.087840080261231 -1.630929946899414 -6.898039817810059
5.020850181579590 -1.599930047988892 -6.908040046691895
5.379839897155762 -1.696930050849915 -6.869040012359619
5.409850120544434 -1.526929974555969 -6.853040218353272
5.267839908599854 -1.518929958343506 -6.875040054321289
5.295839786529541 -1.671929955482483 -6.888040065765381
5.173850059509277 -1.528929948806763 -6.902040004730225
5.141839981079102 -1.673930048942566 -6.918039798736572
5.461840152740479 -1.663930058479309 -6.874040126800537
5.466839790344238 -1.573930025100708 -6.867040157318115
5.226840019226074 -1.662930011749268 -6.911039829254150
5.339839935302734 -1.755929946899414 -6.907040119171143
5.081840038299561 -1.696930050849915 -6.939040184020996
5.422840118408203 -1.786929965019226 -6.901040077209473
5.103839874267578 -1.571930050849915 -6.928040027618408
5.332839965820313 -1.558930039405823 -6.899040222167969
5.394839763641357 -1.584929943084717 -6.901040077209473
5.018839836120606 -1.691930055618286 -6.967040061950684
5.270850181579590 -1.577929973602295 -6.929039955139160
5.398839950561523 -1.852929949760437 -6.935039997100830
5.284850120544434 -1.744930028915405 -6.944039821624756
5.042850017547607 -1.767930030822754 -6.981040000915527
5.067840099334717 -1.634930014610291 -6.975039958953857
5.454840183258057 -1.728929996490479 -6.931039810180664
5.407839775085449 -1.650930047035217 -6.932040214538574
5.222849845886231 -1.713930010795593 -6.967040061950684
5.333849906921387 -1.629930019378662 -6.951039791107178
5.217840194702148 -1.609930038452148 -6.967040061950684
5.338840007781982 -1.855929970741272 -6.979040145874023
5.146850109100342 -1.763929963111877 -7.004039764404297
5.095839977264404 -1.805930018424988 -7.022039890289307
5.409850120544434 -1.777930021286011 -6.979040145874023
5.286839962005615 -1.659929990768433 -6.988039970397949
5.227839946746826 -1.771929979324341 -7.005040168762207
5.038839817047119 -1.717929959297180 -7.027040004730225
5.171840190887451 -1.643929958343506 -7.004039764404297
5.366839885711670 -1.721930027008057 -6.986040115356445
5.111849784851074 -1.676929950714111 -7.027040004730225
5.001840114593506 -1.790930032730103 -7.053040027618408
5.046840190887451 -1.858929991722107 -7.054039955139160
5.389850139617920 -1.900930047035217 -7.014039993286133
5.273839950561523 -1.846930027008057 -7.032040119171143
5.224840164184570 -1.689929962158203 -7.033040046691895
5.360839843750000 -1.794929981231690 -7.027040004730225
5.169839859008789 -1.820930004119873 -7.055039882659912
5.324840068817139 -1.895930051803589 -7.043039798736572
5.114840030670166 -1.863929986953735 -7.080039978027344
4.971839904785156 -1.859930038452148 -7.103040218353272
5.271850109100342 -1.742930054664612 -7.054039955139160
5.169839859008789 -1.710929989814758 -7.068039894104004
5.109839916229248 -1.742930054664612 -7.103040218353272
5.308839797973633 -1.811929941177368 -7.083040237426758
5.013840198516846 -1.794929981231690 -7.124040126800537
5.296840190887451 -1.916929960250855 -7.103040218353272
5.202849864959717 -1.761929988861084 -7.109039783477783
5.015840053558350 -1.893929958343506 -7.146039962768555
5.228839874267578 -1.891929984092712 -7.131040096282959
5.160850048065186 -1.872930049896240 -7.139039993286133
5.077849864959717 -1.781929969787598 -7.154039859771729
5.084839820861816 -1.914929986000061 -7.167039871215820
5.253839969635010 -1.820930004119873 -7.140039920806885
4.960840225219727 -1.881929993629456 -7.196040153503418
5.150839805603027 -1.790930032730103 -7.165040016174316
5.032839775085449 -1.930930018424988 -7.207039833068848
5.238840103149414 -1.947929978370667 -7.184040069580078
5.308839797973633 -1.966930031776428 -7.182040214538574
5.011839866638184 -1.838930010795593 -7.214039802551270
5.158840179443359 -1.918930053710938 -7.204040050506592
5.190839767456055 -1.837929964065552 -7.203040122985840
5.281839847564697 -1.889930009841919 -7.199039936065674
5.120840072631836 -1.827929973602295 -7.218039989471436
5.109839916229248 -1.956930041313171 -7.237040042877197
5.194849967956543 -1.970929980278015 -7.238039970397949
5.218840122222900 -1.887930035591126 -7.243040084838867
5.264850139617920 -2.013930082321167 -7.247039794921875
5.014850139617920 -1.956930041313171 -7.277040004730225
4.999839782714844 -1.881929993629456 -7.275040149688721
5.063849925994873 -1.854930043220520 -7.265039920806885
5.066840171813965 -1.997930049896240 -7.287040233612061
5.133840084075928 -1.876929998397827 -7.277040004730225
5.261839866638184 -1.942929983139038 -7.274040222167969
5.228839874267578 -2.046930074691773 -7.293039798736572
5.166850090026856 -2.005929946899414 -7.303040027618408
4.983839988708496 -1.926929950714111 -7.333040237426758
5.292850017547607 -2.120929956436157 -7.309040069580078
5.183839797973633 -1.921929955482483 -7.312039852142334
5.041850090026856 -2.003930091857910 -7.351039886474609
5.050839900970459 -1.905930042266846 -7.347040176391602
5.191840171813965 -2.082930088043213 -7.346039772033691
5.203839778900147 -1.971930027008057 -7.352039813995361
5.125850200653076 -2.029930114746094 -7.368040084838867
5.215849876403809 -2.159929990768433 -7.371039867401123
5.262839794158936 -2.108930110931397 -7.375040054321289
5.241839885711670 -2.043930053710938 -7.375040054321289
5.140840053558350 -1.948930025100708 -7.383039951324463
5.151840209960938 -2.100929975509644 -7.399040222167969
5.071839809417725 -1.943930029869080 -7.408040046691895
4.997839927673340 -1.956930041313171 -7.421040058135986
5.089839935302734 -2.058929920196533 -7.418039798736572
5.003839969635010 -2.026930093765259 -7.430039882659912
5.169839859008789 -2.016930103302002 -7.427040100097656
5.206840038299561 -2.133929967880249 -7.432040214538574
5.149839878082275 -2.189929962158203 -7.451039791107178
5.120840072631836 -2.126929998397827 -7.453040122985840
4.949840068817139 -2.029930114746094 -7.475039958953857
5.052840232849121 -2.088929891586304 -7.467040061950684
5.048850059509277 -1.984930038452148 -7.464039802551270
4.994840145111084 -2.126929998397827 -7.497039794921875
5.160850048065186 -2.067929983139038 -7.474040031433106
4.932839870452881 -2.084929943084717 -7.511040210723877
5.114840030670166 -2.014930009841919 -7.482039928436279
5.104849815368652 -2.182929992675781 -7.511040210723877
5.052840232849121 -2.036930084228516 -7.530039787292481
5.031839847564697 -2.187930107116699 -7.545040130615234
4.981840133666992 -2.053930044174194 -7.550039768218994
4.996840000152588 -2.250930070877075 -7.564040184020996
5.110839843750000 -2.080929994583130 -7.537040233612061
5.074840068817139 -2.229929924011231 -7.581039905548096
5.095839977264404 -2.122930049896240 -7.587039947509766
4.959839820861816 -2.084929943084717 -7.610040187835693
5.032839775085449 -2.097929954528809 -7.629039764404297
5.074840068817139 -2.151930093765259 -7.644040107727051
4.954840183258057 -2.106930017471314 -7.675039768218994
5.071839809417725 -2.206929922103882 -7.696040153503418
5.022840023040772 -2.132930040359497 -7.703040122985840
4.919839859008789 -2.131930112838745 -7.729040145874023
4.858839988708496 -2.162930011749268 -7.743040084838867
5.048850059509277 -2.271929979324341 -7.761040210723877
5.055850028991699 -2.196929931640625 -7.764039993286133
4.975840091705322 -2.150929927825928 -7.775040149688721
5.024839878082275 -2.193929910659790 -7.833040237426758
4.947840213775635 -2.180929899215698 -7.859039783477783
4.879839897155762 -2.168930053710938 -7.874040126800537
