ply
format ascii 1.0
element vertex 559
property double x
property double y
property double z
end_header
5.471839904785156 -3.334929943084717 -2.893039941787720
5.533840179443359 -3.307929992675781 -2.875040054321289
5.471839904785156 -3.334929943084717 -2.893039941787720
5.414840221405029 -3.286930084228516 -2.901040077209473
5.414840221405029 -3.368930101394653 -2.929039955139160
5.514850139617920 -3.382930040359497 -2.921040058135986
5.369840145111084 -3.215929985046387 -2.938040018081665
5.516839981079102 -3.191930055618286 -2.919039964675903
5.567840099334717 -3.239929914474487 -2.916039943695068
5.449840068817139 -3.200930118560791 -2.930039882659912
5.367839813232422 -3.318929910659790 -2.961040019989014
5.455840110778809 -3.406929969787598 -2.967040061950684
5.399839878082275 -3.157929897308350 -2.965039968490601
5.323840141296387 -3.226929903030396 -2.993040084838867
5.480840206146240 -3.127929925918579 -2.965039968490601
5.540840148925781 -3.350929975509644 -2.978039979934692
5.371840000152588 -3.359930038452148 -3.016040086746216
5.554840087890625 -3.277930021286011 -2.994040012359619
5.311840057373047 -3.158930063247681 -3.029040098190308
5.427840232849121 -3.399930000305176 -3.035039901733398
5.257850170135498 -3.194930076599121 -3.048039913177490
5.467840194702148 -3.345930099487305 -3.040040016174316
5.309840202331543 -3.308929920196533 -3.060039997100830
5.362840175628662 -3.108930110931397 -3.038039922714233
5.545839786529541 -3.216929912567139 -3.028039932250977
5.427840232849121 -3.075930118560791 -3.035039901733398
5.494840145111084 -3.103929996490479 -3.032040119171143
5.416850090026856 -3.344929933547974 -3.090039968490601
5.510839939117432 -3.262929916381836 -3.072040081024170
5.534850120544434 -3.154930114746094 -3.064039945602417
5.224840164184570 -3.202929973602295 -3.115040063858032
5.263840198516846 -3.274930000305176 -3.121040105819702
5.235839843750000 -3.135930061340332 -3.115040063858032
5.300839900970459 -3.095930099487305 -3.104039907455444
5.375850200653076 -3.033930063247681 -3.091039896011353
5.327849864959717 -3.313930034637451 -3.132040023803711
5.455840110778809 -3.292929887771606 -3.114039897918701
5.499839782714844 -3.191930055618286 -3.109040021896362
5.460840225219727 -3.015929937362671 -3.110039949417114
5.169839859008789 -3.182929992675781 -3.164040088653565
5.323840141296387 -3.012929916381836 -3.134040117263794
5.202849864959717 -3.266930103302002 -3.174040079116821
5.504839897155762 -3.066930055618286 -3.118040084838867
5.255839824676514 -3.027930021286011 -3.157040119171143
5.195849895477295 -3.078929901123047 -3.174040079116821
5.486849784851074 -3.130929946899414 -3.139039993286133
5.409850120544434 -3.261929988861084 -3.165040016174316
5.454840183258057 -3.191930055618286 -3.164040088653565
5.138840198516846 -3.123929977416992 -3.203039884567261
5.447840213775635 -2.961930036544800 -3.156039953231812
5.306849956512451 -2.955929994583130 -3.179039955139160
5.215849876403809 -2.988929986953735 -3.195039987564087
5.380839824676514 -2.954930067062378 -3.173039913177490
5.158840179443359 -3.253930091857910 -3.228039979934692
5.120840072631836 -3.197930097579956 -3.229039907455444
5.155839920043945 -3.021929979324341 -3.211040019989014
5.316840171813965 -3.259929895401001 -3.217040061950684
5.395850181579590 -3.209929943084717 -3.205039978027344
5.455840110778809 -3.089930057525635 -3.190040111541748
5.098840236663818 -3.091929912567139 -3.247040033340454
5.251840114593506 -3.261929988861084 -3.246040105819702
5.257850170135498 -2.934930086135864 -3.221040010452271
5.431849956512451 -2.900929927825928 -3.197040081024170
5.349840164184570 -2.909929990768433 -3.221040010452271
5.062849998474121 -3.143929958343506 -3.281039953231812
5.137839794158936 -2.996929883956909 -3.271039962768555
5.097849845886231 -3.230930089950562 -3.296040058135986
5.189839839935303 -2.935930013656616 -3.262039899826050
5.407839775085449 -3.119930028915405 -3.249039888381958
5.307839870452881 -3.217930078506470 -3.271039962768555
5.087840080261231 -3.038929939270020 -3.292040109634399
5.428840160369873 -3.001929998397827 -3.246040105819702
5.217840194702148 -3.239929914474487 -3.300040006637573
5.353839874267578 -3.155930042266846 -3.283040046691895
5.403850078582764 -2.874929904937744 -3.255039930343628
5.035850048065186 -3.074929952621460 -3.326040029525757
5.048850059509277 -3.184930086135864 -3.336040019989014
5.000850200653076 -3.137929916381836 -3.351039886474609
5.302840232849121 -2.888930082321167 -3.293040037155151
5.149839878082275 -3.224930047988892 -3.343039989471436
5.096839904785156 -2.977930068969727 -3.336040019989014
5.154839992523193 -2.938930034637451 -3.328039884567261
5.273839950561523 -3.183929920196533 -3.333039999008179
5.388840198516846 -2.990930080413818 -3.305039882659912
5.003839969635010 -3.030930042266846 -3.372040033340454
5.364840030670166 -3.061929941177368 -3.326040029525757
5.317840099334717 -3.129930019378662 -3.338040113449097
5.368850231170654 -2.892930030822754 -3.314039945602417
5.231840133666992 -2.886929988861084 -3.334039926528931
5.034850120544434 -2.971930027008057 -3.383039951324463
5.107840061187744 -3.189929962158203 -3.402040004730225
4.963840007781982 -3.066930055618286 -3.413039922714233
5.185840129852295 -3.185930013656616 -3.396039962768555
5.260839939117432 -2.806930065155029 -3.364039897918701
5.248839855194092 -3.152930021286011 -3.393039941787720
5.106840133666992 -2.906929969787598 -3.394040107727051
5.353839874267578 -2.951930046081543 -3.366039991378784
5.172840118408203 -2.867929935455322 -3.387039899826050
5.331840038299561 -2.877929925918579 -3.378040075302124
5.195849895477295 -2.804929971694946 -3.394040107727051
4.958849906921387 -3.124929904937744 -3.451040029525757
5.331840038299561 -3.011929988861084 -3.393039941787720
4.949840068817139 -3.007930040359497 -3.447040081024170
5.041850090026856 -3.168930053710938 -3.447040081024170
5.298850059509277 -3.066930055618286 -3.413039922714233
4.991839885711670 -2.942929983139038 -3.447040081024170
5.153850078582764 -3.164930105209351 -3.454040050506592
5.259840011596680 -2.760930061340332 -3.415040016174316
5.127840042114258 -2.808929920196533 -3.437040090560913
5.050839900970459 -2.879930019378662 -3.457040071487427
5.219840049743652 -3.121929883956909 -3.455039978027344
4.924849987030029 -3.074929952621460 -3.496040105819702
4.951849937438965 -2.948930025100708 -3.505039930343628
5.306849956512451 -2.880929946899414 -3.453039884567261
5.279839992523193 -3.019929885864258 -3.471040010452271
5.074840068817139 -3.161930084228516 -3.516040086746216
4.907839775085449 -3.009929895401001 -3.528039932250977
5.172840118408203 -2.738929986953735 -3.474040031433106
5.001840114593506 -3.155930042266846 -3.534039974212647
5.076849937438965 -2.826930046081543 -3.499039888381958
5.005839824676514 -2.852930068969727 -3.523040056228638
5.112840175628662 -2.764930009841919 -3.503040075302124
4.934840202331543 -3.121929883956909 -3.555039882659912
5.242839813232422 -2.734930038452148 -3.485039949417114
5.192840099334717 -3.096930027008057 -3.520040035247803
5.288839817047119 -2.936929941177368 -3.498039960861206
4.952849864959717 -2.893929958343506 -3.544039964675903
4.896850109100342 -3.063930034637451 -3.571039915084839
5.237840175628662 -3.037930011749268 -3.525039911270142
4.849840164184570 -2.991930007934570 -3.581039905548096
4.895850181579590 -2.923929929733276 -3.583039999008179
5.146850109100342 -2.703929901123047 -3.535039901733398
5.129839897155762 -3.110929965972900 -3.570039987564087
5.258840084075928 -2.786930084228516 -3.529040098190308
5.274839878082275 -2.876929998397827 -3.535039901733398
4.969840049743652 -2.825930118560791 -3.580039978027344
5.022840023040772 -2.784929990768433 -3.570039987564087
5.255839824676514 -2.952929973602295 -3.555039882659912
5.220839977264404 -2.707930088043213 -3.543040037155151
5.058839797973633 -3.130929946899414 -3.598040103912354
5.176839828491211 -3.061929941177368 -3.588040113449097
4.876840114593506 -3.096930027008057 -3.636039972305298
4.986849784851074 -3.130929946899414 -3.624039888381958
4.908840179443359 -2.833930015563965 -3.614039897918701
5.080840110778809 -2.732929944992065 -3.584039926528931
5.214839935302734 -3.004930019378662 -3.592040061950684
4.801839828491211 -2.969929933547974 -3.651040077209473
4.841839790344238 -2.912930011749268 -3.647039890289307
5.096839904785156 -2.662930011749268 -3.597039937973023
5.017839908599854 -2.696929931640625 -3.615040063858032
4.923850059509277 -3.138930082321167 -3.663039922714233
5.237840175628662 -2.781929969787598 -3.594039916992188
4.962840080261231 -2.771929979324341 -3.631040096282959
5.186840057373047 -2.659929990768433 -3.598040103912354
5.113840103149414 -3.079930067062378 -3.645040035247803
4.836840152740479 -3.050930023193359 -3.686039924621582
4.855840206146240 -2.847929954528809 -3.668040037155151
4.898839950561523 -2.785929918289185 -3.667040109634399
4.855840206146240 -3.122930049896240 -3.699039936065674
5.167850017547607 -3.026930093765259 -3.651040077209473
5.229849815368652 -2.897929906845093 -3.633039951324463
5.205840110778809 -2.959929943084717 -3.642040014266968
5.053840160369873 -3.087929964065552 -3.674040079116821
5.062849998474121 -2.619930028915405 -3.646039962768555
5.219840049743652 -2.823930025100708 -3.649039983749390
4.993850231170654 -3.094929933547974 -3.704040050506592
4.798850059509277 -2.872930049896240 -3.714040040969849
4.946839809417725 -2.722929954528809 -3.683039903640747
4.782839775085449 -2.979929924011231 -3.726039886474609
5.130839824676514 -2.637929916381836 -3.657040119171143
5.208849906921387 -2.750930070877075 -3.657040119171143
4.738840103149414 -2.923929929733276 -3.740040063858032
4.840849876403809 -2.805929899215698 -3.718039989471436
5.192840099334717 -2.683929920196533 -3.663039922714233
4.977839946746826 -2.657929897308350 -3.697040081024170
4.906839847564697 -3.127929925918579 -3.744040012359619
5.168839931488037 -2.971930027008057 -3.699039936065674
5.124839782714844 -3.035929918289185 -3.711040019989014
4.842840194702148 -3.143929958343506 -3.763040065765381
4.804840087890625 -3.086930036544800 -3.766040086746216
4.881840229034424 -2.752929925918579 -3.734040021896362
4.791850090026856 -2.800930023193359 -3.765039920806885
5.191840171813965 -2.883929967880249 -3.718039989471436
5.019839763641357 -2.606930017471314 -3.726039886474609
4.725840091705322 -2.869930028915405 -3.793040037155151
4.957839965820313 -3.100929975509644 -3.780040025711060
5.191840171813965 -2.795929908752441 -3.726039886474609
4.767839908599854 -3.029930114746094 -3.806040048599243
4.730840206146240 -2.971930027008057 -3.812040090560913
5.127840042114258 -2.988929986953735 -3.762039899826050
4.832839965820313 -2.738929986953735 -3.783040046691895
5.062849998474121 -3.049930095672607 -3.780040025711060
5.095839977264404 -2.602930068969727 -3.744040012359619
4.883840084075928 -3.120929956436157 -3.814039945602417
4.894839763641357 -2.701930046081543 -3.785039901733398
5.177840232849121 -2.730930089950562 -3.752039909362793
4.782839775085449 -3.111929893493652 -3.840039968490601
4.696839809417725 -2.915930032730103 -3.839040040969849
4.948840141296387 -2.650929927825928 -3.787039995193481
5.147840023040772 -2.671930074691773 -3.765039920806885
4.770850181579590 -2.737930059432983 -3.824039936065674
5.164840221405029 -2.874929904937744 -3.781039953231812
4.997839927673340 -3.067929983139038 -3.826040029525757
5.162839889526367 -2.793930053710938 -3.790040016174316
5.004839897155762 -2.578929901123047 -3.796040058135986
4.691840171813965 -2.821929931640625 -3.861040115356445
5.092840194702148 -2.992929935455322 -3.820039987564087
5.072840213775635 -2.583930015563965 -3.806040048599243
4.793839931488037 -2.680929899215698 -3.852040052413940
4.902850151062012 -2.603929996490479 -3.832040071487427
4.848840236663818 -2.641930103302002 -3.848040103912354
4.713840007781982 -2.978929996490479 -3.895040035247803
4.843840122222900 -3.124929904937744 -3.889039993286133
4.665840148925781 -2.877929925918579 -3.895040035247803
4.718840122222900 -2.708930015563965 -3.875040054321289
4.847849845886231 -2.558929920196533 -3.847039937973023
4.778850078582764 -2.560930013656616 -3.859040021896362
4.692840099334717 -2.586930036544800 -3.873039960861206
4.738840103149414 -3.062930107116699 -3.905040025711060
4.907839775085449 -2.524930000305176 -3.842040061950684
4.635839939117432 -2.548929929733276 -3.881040096282959
5.137839794158936 -2.712929964065552 -3.827039957046509
4.755839824676514 -2.625930070877075 -3.874039888381958
5.110839843750000 -2.647929906845093 -3.828039884567261
5.118850231170654 -2.911930084228516 -3.848040103912354
4.780839920043945 -3.147929906845093 -3.917040109634399
4.856840133666992 -2.479929924011231 -3.856040000915527
5.032839775085449 -3.020930051803589 -3.874039888381958
4.965849876403809 -2.563930034637451 -3.849040031433106
4.666850090026856 -2.753930091857910 -3.906039953231812
4.602839946746826 -2.615930080413818 -3.910039901733398
4.667850017547607 -2.668930053710938 -3.906039953231812
4.973840236663818 -3.052930116653442 -3.894040107727051
4.541850090026856 -2.587929964065552 -3.918040037155151
4.471839904785156 -2.609930038452148 -3.941040039062500
5.123839855194092 -2.830929994583130 -3.872040033340454
4.607840061187744 -2.689929962158203 -3.933039903640747
4.839839935302734 -2.394929885864258 -3.879040002822876
5.071839809417725 -2.959929943084717 -3.894040107727051
5.121840000152588 -2.760930061340332 -3.873039960861206
4.532839775085449 -2.657929897308350 -3.950040102005005
4.901840209960938 -3.070930004119873 -3.935039997100830
4.823840141296387 -2.319930076599121 -3.890039920806885
4.692840099334717 -2.934930086135864 -3.957040071487427
4.841839790344238 -3.099930047988892 -3.956039905548096
5.035850048065186 -2.532929897308350 -3.887039899826050
4.741839885711670 -3.102930068969727 -3.971040010452271
4.419839859008789 -2.645930051803589 -3.980040073394775
4.614840030670166 -2.783930063247681 -3.966039896011353
4.558839797973633 -2.718930006027222 -3.970040082931519
4.719840049743652 -3.038929939270020 -3.974040031433106
4.636839866638184 -2.874929904937744 -3.976039886474609
4.952849864959717 -2.463929891586304 -3.902040004730225
5.099840164184570 -2.705929994583130 -3.905040025711060
4.991839885711670 -3.005929946899414 -3.943039894104004
5.074840068817139 -2.601929903030396 -3.902040004730225
5.083849906921387 -2.899930000305176 -3.924040079116821
4.477839946746826 -2.686929941177368 -3.997040033340454
4.797840118408203 -3.130929946899414 -4.002039909362793
5.092840194702148 -2.766930103302002 -3.934040069580078
4.918839931488037 -2.378930091857910 -3.932039976119995
4.385839939117432 -2.695930004119873 -4.029039859771729
4.522840023040772 -2.783930063247681 -4.019040107727051
4.926839828491211 -3.028929948806763 -3.983040094375610
4.663839817047119 -2.960930109024048 -4.018040180206299
4.874839782714844 -2.323930025100708 -3.944040060043335
4.443840026855469 -2.747930049896240 -4.036039829254150
5.044839859008789 -2.930929899215698 -3.971040010452271
5.011839866638184 -2.499929904937744 -3.943039894104004
4.558839797973633 -2.858930110931397 -4.035039901733398
4.611849784851074 -2.913929939270020 -4.034039974212647
4.684840202331543 -3.063930034637451 -4.036039829254150
4.848840236663818 -3.073930025100708 -4.022039890289307
5.048850059509277 -2.583930015563965 -3.962039947509766
4.299849987030029 -2.675930023193359 -4.073040008544922
5.068840026855469 -2.848929882049561 -3.982039928436279
4.966839790344238 -2.451930046081543 -3.969039916992188
4.725840091705322 -3.131930112838745 -4.057040214538574
4.346839904785156 -2.734930038452148 -4.081039905548096
5.060840129852295 -2.682929992675781 -3.982039928436279
4.633840084075928 -3.006930112838745 -4.067039966583252
4.395850181579590 -2.784929990768433 -4.087039947509766
5.000850200653076 -2.961930036544800 -4.021039962768555
4.573840141296387 -2.941930055618286 -4.083040237426758
4.464839935302734 -2.833930015563965 -4.090040206909180
4.886839866638184 -3.018929958343506 -4.051040172576904
5.055850028991699 -2.761929988861084 -4.009039878845215
5.029839992523193 -2.900929927825928 -4.033040046691895
4.511839866638184 -2.911930084228516 -4.106040000915527
4.649839878082275 -3.070930004119873 -4.101039886474609
5.005839824676514 -2.513930082321167 -4.011040210723877
4.787839889526367 -3.098929882049561 -4.087039947509766
5.035850048065186 -2.632930040359497 -4.025040149688721
4.836840152740479 -3.047930002212524 -4.091040134429932
5.031839847564697 -2.706929922103882 -4.040040016174316
4.906839847564697 -2.321929931640625 -4.030039787292481
5.042850017547607 -2.833930015563965 -4.052040100097656
4.448840141296387 -2.887929916381836 -4.137040138244629
4.353839874267578 -2.802930116653442 -4.145040035247803
4.299849987030029 -2.751929998397827 -4.151040077209473
4.252840042114258 -2.701930046081543 -4.155039787292481
4.719840049743652 -3.135930061340332 -4.134039878845215
4.547840118408203 -2.975929975509644 -4.146039962768555
4.603839874267578 -3.024930000305176 -4.145040035247803
4.944849967956543 -2.968930006027222 -4.097040176391602
5.006840229034424 -2.577929973602295 -4.064040184020996
4.994840145111084 -2.915930032730103 -4.098040103912354
4.928840160369873 -2.375930070877075 -4.066040039062500
5.003839969635010 -2.662930011749268 -4.082039833068848
4.979849815368652 -2.515929937362671 -4.074039936065674
4.658840179443359 -3.096930027008057 -4.171040058135986
4.402850151062012 -2.901930093765259 -4.192039966583252
5.015840053558350 -2.785929918289185 -4.102039813995361
4.309840202331543 -2.817929983139038 -4.201039791107178
4.766839981079102 -3.094929933547974 -4.167039871215820
4.486849784851074 -2.962929964065552 -4.195040225982666
4.872839927673340 -2.995929956436157 -4.148039817810059
4.812849998474121 -3.043930053710938 -4.168039798736572
4.230840206146240 -2.736929893493652 -4.224040031433106
4.345839977264404 -2.873929977416992 -4.220039844512940
4.900839805603027 -2.310930013656616 -4.102039813995361
4.945849895477295 -2.441930055618286 -4.109039783477783
5.003839969635010 -2.845930099487305 -4.139039993286133
4.573840141296387 -3.030930042266846 -4.217040061950684
4.968840122222900 -2.587929964065552 -4.130040168762207
4.977839946746826 -2.693929910659790 -4.142039775848389
4.959839820861816 -2.920929908752441 -4.165040016174316
4.435840129852295 -2.953929901123047 -4.240039825439453
4.248839855194092 -2.795929908752441 -4.259039878845215
4.516839981079102 -3.007930040359497 -4.245039939880371
4.945849895477295 -2.502929925918579 -4.148039817810059
4.911839962005615 -2.367929935455322 -4.143040180206299
4.629839897155762 -3.093930006027222 -4.238039970397949
4.906839847564697 -2.959929943084717 -4.196040153503418
4.985839843750000 -2.785929918289185 -4.172039985656738
4.366839885711670 -2.930929899215698 -4.272039890289307
4.953839778900147 -2.638930082321167 -4.173039913177490
4.739840030670166 -3.080929994583130 -4.241040229797363
4.847849845886231 -2.988929986953735 -4.220039844512940
4.305850028991699 -2.889930009841919 -4.288040161132813
4.971839904785156 -2.854929924011231 -4.202040195465088
4.919839859008789 -2.444930076599121 -4.178040027618408
4.181849956512451 -2.735929965972900 -4.302040100097656
4.790840148925781 -3.032929897308350 -4.246039867401123
4.882850170135498 -2.293930053710938 -4.183040142059326
4.924849987030029 -2.566930055618286 -4.200039863586426
4.957839965820313 -2.741930007934570 -4.219039916992188
4.685840129852295 -3.079930067062378 -4.283040046691895
4.210840225219727 -2.817929983139038 -4.328040122985840
4.900839805603027 -2.927930116653442 -4.261040210723877
4.934840202331543 -2.681930065155029 -4.238039970397949
4.259840011596680 -2.890929937362671 -4.346039772033691
4.310840129852295 -2.944930076599121 -4.352039813995361
4.829840183258057 -2.982929944992065 -4.285039901733398
4.941840171813965 -2.858930110931397 -4.263040065765381
4.169839859008789 -2.772929906845093 -4.362040042877197
4.891839981079102 -2.528929948806763 -4.248040199279785
4.908840179443359 -2.606930017471314 -4.252039909362793
4.523839950561523 -3.037930011749268 -4.346039772033691
4.388840198516846 -2.990930080413818 -4.365039825439453
4.883840084075928 -2.445930004119873 -4.261040210723877
4.863840103149414 -2.285929918289185 -4.253039836883545
4.583849906921387 -3.072930097579956 -4.354040145874023
4.464839935302734 -3.015929937362671 -4.369040012359619
4.222849845886231 -2.913929939270020 -4.400040149688721
4.685840129852295 -3.061929941177368 -4.352039813995361
4.780839920043945 -3.009929895401001 -4.337039947509766
4.869840145111084 -2.364929914474487 -4.276040077209473
4.926839828491211 -2.777930021286011 -4.303040027618408
4.908840179443359 -2.682929992675781 -4.300039768218994
4.262839794158936 -2.968930006027222 -4.413040161132813
4.161839962005615 -2.873929977416992 -4.420040130615234
4.129839897155762 -2.812930107116699 -4.426040172576904
4.877840042114258 -2.915930032730103 -4.337039947509766
4.874839782714844 -2.618930101394653 -4.316040039062500
4.914840221405029 -2.856930017471314 -4.330039978027344
4.323840141296387 -2.996929883956909 -4.425039768218994
4.858839988708496 -2.429929971694946 -4.323040008544922
4.853839874267578 -2.509929895401001 -4.331039905548096
4.734839916229248 -3.031929969787598 -4.389039993286133
4.092840194702148 -2.759929895401001 -4.458040237426758
4.646850109100342 -3.061929941177368 -4.407040119171143
4.405839920043945 -3.011929988861084 -4.436039924621582
4.848840236663818 -2.321929931640625 -4.327040195465088
4.822840213775635 -2.953929901123047 -4.385039806365967
4.893839836120606 -2.711930036544800 -4.361040115356445
4.045839786529541 -2.827929973602295 -4.486040115356445
4.907839775085449 -2.792929887771606 -4.367040157318115
4.493850231170654 -3.026930093765259 -4.443039894104004
4.841839790344238 -2.574929952621460 -4.365039825439453
4.864840030670166 -2.650929927825928 -4.377039909362793
4.595839977264404 -3.063930034637451 -4.453040122985840
4.830840110778809 -2.263930082321167 -4.361040115356445
4.837840080261231 -2.381930112838745 -4.371039867401123
4.776840209960938 -2.983930110931397 -4.428040027618408
4.359839916229248 -3.022929906845093 -4.501039981842041
4.858839988708496 -2.887929916381836 -4.425039768218994
4.236849784851074 -3.017930030822754 -4.521039962768555
4.694849967956543 -3.032929897308350 -4.460040092468262
4.827849864959717 -2.493930101394653 -4.402040004730225
4.816840171813965 -2.193929910659790 -4.385039806365967
4.889850139617920 -2.813930034637451 -4.429039955139160
4.871840000152588 -2.699929952621460 -4.424039840698242
4.493850231170654 -3.056930065155029 -4.505040168762207
4.300839900970459 -3.030930042266846 -4.538040161132813
4.562849998474121 -3.052930116653442 -4.512040138244629
4.810840129852295 -2.928930044174194 -4.471039772033691
4.422840118408203 -3.035929918289185 -4.534039974212647
4.816840171813965 -2.574929952621460 -4.445040225982666
4.842840194702148 -2.641930103302002 -4.448040008544922
4.814839839935303 -2.367929935455322 -4.440040111541748
4.751840114593506 -2.979929924011231 -4.498040199279785
4.633840084075928 -3.026930093765259 -4.529039859771729
4.806849956512451 -2.297930002212524 -4.459040164947510
4.806849956512451 -2.458930015563965 -4.474040031433106
4.854849815368652 -2.743930101394653 -4.492040157318115
4.701849937438965 -3.007930040359497 -4.540040016174316
4.793839931488037 -2.195930004119873 -4.466040134429932
4.833849906921387 -2.864929914474487 -4.514039993286133
4.251840114593506 -3.058929920196533 -4.610040187835693
4.381840229034424 -3.041929960250855 -4.596039772033691
4.796840190887451 -2.538929939270020 -4.501039981842041
4.504839897155762 -3.047930002212524 -4.584040164947510
4.793839931488037 -2.403929948806763 -4.515039920806885
4.761839866638184 -2.941930055618286 -4.563039779663086
4.840849876403809 -2.685930013656616 -4.536039829254150
4.173850059509277 -3.116930007934570 -4.664040088653565
4.656839847564697 -3.002929925918579 -4.592040061950684
4.786839962005615 -2.318929910659790 -4.528039932250977
4.582839965820313 -3.010930061340332 -4.610040187835693
4.807839870452881 -2.610929965972900 -4.550039768218994
4.836840152740479 -2.807929992675781 -4.564040184020996
4.339839935302734 -3.044929981231690 -4.651040077209473
4.781839847564697 -2.477930068969727 -4.549039840698242
4.811840057373047 -2.874929904937744 -4.577040195465088
4.786839962005615 -2.239929914474487 -4.536039829254150
4.770850181579590 -2.550930023193359 -4.568039894104004
4.520850181579590 -3.011929988861084 -4.642039775848389
4.231840133666992 -3.079930067062378 -4.697040081024170
4.830840110778809 -2.719929933547974 -4.598040103912354
4.777850151062012 -2.175930023193359 -4.565040111541748
4.721839904785156 -2.947930097579956 -4.642039775848389
4.463840007781982 -3.024930000305176 -4.686039924621582
4.295839786529541 -3.050930023193359 -4.711040019989014
4.817840099334717 -2.653929948806763 -4.610040187835693
4.776840209960938 -2.900929927825928 -4.638040065765381
4.607840061187744 -2.987930059432983 -4.669040203094482
4.780839920043945 -2.283930063247681 -4.592040061950684
4.393839836120606 -3.035929918289185 -4.704040050506592
4.750850200653076 -2.501929998397827 -4.615039825439453
4.774839878082275 -2.353929996490479 -4.603040218353272
4.756840229034424 -2.576930046081543 -4.629039764404297
4.669839859008789 -2.960930109024048 -4.693039894104004
4.806849956512451 -2.815929889678955 -4.665040016174316
4.769839763641357 -2.188930034637451 -4.635039806365967
4.757850170135498 -2.421930074691773 -4.656040191650391
4.720839977264404 -2.525929927825928 -4.678040027618408
4.454840183258057 -3.004930019378662 -4.752039909362793
4.365839958190918 -3.019929885864258 -4.770040035247803
4.794839859008789 -2.630929946899414 -4.684040069580078
4.772840023040772 -2.284929990768433 -4.665040016174316
4.732840061187744 -2.906929969787598 -4.720039844512940
4.813849925994873 -2.697930097579956 -4.696040153503418
4.766839981079102 -2.354929924011231 -4.687039852142334
4.778850078582764 -2.857929944992065 -4.726039886474609
4.759840011596680 -2.577929973602295 -4.709040164947510
4.737840175628662 -2.468930006027222 -4.709040164947510
4.524839878082275 -2.966929912567139 -4.777040004730225
4.616839885711670 -2.960930109024048 -4.776040077209473
4.677840232849121 -2.930929899215698 -4.772039890289307
4.411839962005615 -2.987930059432983 -4.818039894104004
4.757850170135498 -2.407929897308350 -4.730040073394775
4.468840122222900 -2.951930046081543 -4.818039894104004
4.784850120544434 -2.213929891586304 -4.723040103912354
4.803840160369873 -2.731930017471314 -4.768040180206299
4.786839962005615 -2.816930055618286 -4.787040233612061
4.797840118408203 -2.663929939270020 -4.774040222167969
4.730840206146240 -2.878930091857910 -4.807040214538574
4.561840057373047 -2.956929922103882 -4.842040061950684
4.765840053558350 -2.593930006027222 -4.789040088653565
4.739840030670166 -2.508929967880249 -4.790040016174316
4.427840232849121 -2.950930118560791 -4.874040126800537
4.747839927673340 -2.437930107116699 -4.795040130615234
4.774839878082275 -2.304929971694946 -4.783040046691895
4.638840198516846 -2.925930023193359 -4.854040145874023
4.500850200653076 -2.935930013656616 -4.884039878845215
4.792850017547607 -2.210930109024048 -4.793039798736572
4.785850048065186 -2.742929935455322 -4.840040206909180
4.756840229034424 -2.377929925918579 -4.826039791107178
4.736849784851074 -2.849930047988892 -4.877039909362793
4.584839820861816 -2.936929941177368 -4.905039787292481
4.773839950561523 -2.627929925918579 -4.858039855957031
4.684840202331543 -2.890929937362671 -4.897039890289307
4.735839843750000 -2.490930080413818 -4.868040084838867
4.785850048065186 -2.255929946899414 -4.845039844512940
4.394839763641357 -2.925930023193359 -4.960040092468262
4.777850151062012 -2.690929889678955 -4.894040107727051
4.765840053558350 -2.770930051803589 -4.905039787292481
4.746840000152588 -2.414930105209351 -4.881040096282959
4.480840206146240 -2.918930053710938 -4.959040164947510
4.747839927673340 -2.558929920196533 -4.898039817810059
4.760839939117432 -2.336930036544800 -4.892039775848389
4.552840232849121 -2.923929929733276 -4.983039855957031
4.625850200653076 -2.903929948806763 -4.972040176391602
4.688849925994873 -2.870929956436157 -4.974040031433106
4.759840011596680 -2.619930028915405 -4.950039863586426
4.736849784851074 -2.818929910659790 -4.974040031433106
4.758840084075928 -2.456929922103882 -4.945040225982666
4.427840232849121 -2.887929916381836 -5.026040077209473
4.764850139617920 -2.723929882049561 -4.972040176391602
4.746840000152588 -2.548929929733276 -4.979040145874023
4.495840072631836 -2.900929927825928 -5.047039985656738
4.636839866638184 -2.886929988861084 -5.039040088653565
4.562849998474121 -2.905930042266846 -5.055039882659912
4.709839820861816 -2.841929912567139 -5.038040161132813
4.751840114593506 -2.760930061340332 -5.028039932250977
4.749839782714844 -2.604929924011231 -5.027040004730225
4.762839794158936 -2.484930038452148 -5.018040180206299
4.761839866638184 -2.689929962158203 -5.035039901733398
4.472849845886231 -2.875930070877075 -5.130040168762207
4.751840114593506 -2.549930095672607 -5.067039966583252
4.610839843750000 -2.883929967880249 -5.116040229797363
4.737840175628662 -2.790930032730103 -5.093039989471436
4.754839897155762 -2.643929958343506 -5.086040019989014
4.408840179443359 -2.840929985046387 -5.157040119171143
4.675839900970459 -2.852930068969727 -5.124040126800537
4.555850028991699 -2.885930061340332 -5.158040046691895
4.412839889526367 -2.924930095672607 -5.209040164947510
4.720839977264404 -2.804929971694946 -5.158040046691895
4.764850139617920 -2.588929891586304 -5.136040210723877
4.756840229034424 -2.665930032730103 -5.160039901733398
4.753839969635010 -2.734930038452148 -5.166039943695068
4.629839897155762 -2.860929965972900 -5.197040081024170
4.534850120544434 -2.877929925918579 -5.236040115356445
4.701849937438965 -2.807929992675781 -5.225039958953857
4.776840209960938 -2.581929922103882 -5.205039978027344
4.738840103149414 -2.751929998397827 -5.239039897918701
4.630839824676514 -2.841929912567139 -5.272039890289307
4.791850090026856 -2.513930082321167 -5.236040115356445
4.758840084075928 -2.632930040359497 -5.253039836883545
4.752840042114258 -2.696929931640625 -5.283040046691895
4.675839900970459 -2.811929941177368 -5.314040184020996
4.566840171813965 -2.852930068969727 -5.332039833068848
4.769839763641357 -2.569930076599121 -5.285039901733398
4.725840091705322 -2.759929895401001 -5.322040081024170
4.748839855194092 -2.627929925918579 -5.320040225982666
4.623839855194092 -2.826930046081543 -5.359039783477783
4.747839927673340 -2.696929931640625 -5.354040145874023
4.689839839935303 -2.786930084228516 -5.384039878845215
4.747839927673340 -2.649930000305176 -5.421040058135986
4.668839931488037 -2.787930011749268 -5.448040008544922
4.754839897155762 -2.575930118560791 -5.426040172576904
4.714839935302734 -2.728929996490479 -5.482039928436279
4.742839813232422 -2.627929925918579 -5.495039939880371
4.680850028991699 -2.765929937362671 -5.542039871215820
4.703839778900147 -2.699929952621460 -5.576039791107178
4.715849876403809 -2.628930091857910 -5.577040195465088
4.706840038299561 -2.623929977416992 -5.650040149688721
4.684840202331543 -2.725929975509644 -5.667039871215820
