ply
format ascii 1.0
element vertex 406
property double x
property double y
property double z
end_header
-89.381100972493485 85.989733378092453 -226.586669921875000
-87.636474609375000 85.804449081420898 -226.760749816894530
-85.333774566650391 86.273225784301758 -226.316749572753910
-90.109598795572921 87.847633361816406 -227.703669230143220
-87.380434672037765 87.288734436035156 -228.280670166015620
-84.061665852864579 88.019999186197921 -226.527999877929690
-89.734298706054687 83.532199859619141 -223.448501586914060
-87.270620727539068 82.797457885742190 -223.771401977539060
-85.176666259765625 83.403134663899735 -223.152002970377590
-90.437797546386719 85.043251037597656 -223.793502807617190
-87.321266174316406 84.361300150553390 -225.202662150065090
-84.026227951049805 85.519676208496094 -223.649749755859370
-82.808097839355469 87.113403320312500 -222.457992553710940
-83.158000946044922 88.032199859619141 -224.567001342773440
-82.421333312988281 88.991666158040360 -223.571996053059910
-81.789199829101563 90.250549316406250 -223.048004150390620
-89.723274230957031 80.090724945068359 -220.154747009277340
-87.292584737141922 79.484949747721359 -220.592669169108060
-85.184501647949219 80.421564737955734 -220.147333780924470
-90.552350997924805 82.988225936889648 -220.977752685546870
-87.332097371419266 81.301432291666671 -222.251668294270840
-84.196040344238284 82.624259948730469 -220.953601074218740
-82.744598388671875 84.090202331542969 -219.479003906250000
-90.202903747558594 87.070999145507813 -219.503005981445310
-83.113498687744141 85.005352020263672 -221.534004211425780
-82.426074981689453 86.235200881958008 -220.287750244140620
-90.248359680175781 88.568579101562506 -221.000601196289070
-88.608703613281250 89.986000061035156 -219.610000610351560
-81.726049423217773 88.404499053955078 -220.844753265380860
-90.634300231933594 90.199096679687500 -222.214004516601560
-88.114097595214844 91.125701904296875 -219.979003906250000
-81.655548095703125 90.851551055908203 -221.036499023437500
-89.798701477050784 77.348779296874994 -217.550598144531250
-87.284341430664057 76.755058288574219 -217.814999389648450
-85.173833211263016 77.431432088216141 -217.134002685546870
-91.019050598144531 80.285902023315430 -217.292751312255860
-87.368701934814453 78.343051910400391 -219.218505859375000
-84.254779052734378 79.657379150390625 -217.912799072265610
-82.726501464843750 81.082603454589844 -216.485000610351560
-90.806498209635421 82.935966491699219 -217.134002685546870
-83.254567464192704 81.869964599609375 -218.598999023437500
-82.433265686035156 82.982966105143234 -217.592330932617190
-90.165661621093747 85.511660766601565 -218.058197021484370
-88.500000000000000 86.908599853515625 -216.656005859375000
-81.861801147460938 85.751098632812500 -218.759994506835940
-89.126953125000000 88.040851593017578 -218.513000488281250
-87.817018127441401 89.132962036132810 -217.721600341796890
-87.851402282714844 90.460601806640625 -219.100997924804690
-89.863733927408859 74.234984079996750 -214.327664693196620
-87.275459289550781 73.807298278808588 -214.739199829101550
-85.188175201416016 74.445875167846680 -214.112247467041020
-91.212200164794922 77.268474578857422 -214.320751190185550
-87.327466328938797 75.312100728352860 -216.286331176757810
-84.392234802246094 76.505236307779953 -215.050333658854160
-82.721397399902344 78.082000732421875 -213.492996215820310
-90.688098907470703 80.259498596191406 -214.318504333496090
-83.180950164794922 79.011352539062500 -215.541999816894530
-82.376530965169266 80.010032653808594 -214.554331461588530
-90.036017100016281 82.586132049560547 -214.983998616536470
-88.425003051757813 83.831199645996094 -213.735992431640620
-82.013351440429687 81.872024536132813 -214.215499877929690
-89.172434488932296 84.860234578450516 -215.712661743164060
-87.653924942016602 85.951900482177734 -214.605247497558590
-84.288497924804688 85.597297668457031 -213.470001220703120
-87.769798278808594 87.396400451660156 -216.097000122070310
-89.707550048828125 71.104051589965820 -211.117248535156250
-87.272839355468747 70.898979187011719 -211.669796752929700
-85.175732930501297 71.443000793457031 -211.130335489908840
-91.189275741577148 74.264799118041992 -211.354003906250000
-87.388834635416671 72.424265543619796 -213.175669352213530
-84.202571323939736 73.521898542131694 -212.036429268973220
-82.596099853515625 75.043098449707031 -210.535995483398440
-90.775699615478516 77.284549713134766 -211.312500000000000
-83.117950439453125 76.012348175048828 -212.516006469726560
-82.361834208170578 76.998400370279953 -211.587331136067720
-90.179428100585938 79.427555629185264 -212.144714355468750
-88.426902770996094 80.782699584960938 -210.789993286132810
-81.862075805664062 80.369100570678711 -211.189002990722660
-89.126665751139328 81.861167907714844 -212.720336914062500
-87.240881347656256 82.911839294433591 -211.664999389648440
-85.381977081298828 83.391824722290039 -211.157001495361330
-81.760101318359375 82.594497680664062 -211.914993286132810
-86.851551055908203 85.093051910400391 -213.082496643066410
-84.284049987792969 84.622997283935547 -212.195999145507810
-88.783302307128906 66.114997863769531 -207.449996948242190
-90.033079528808599 68.161119079589838 -208.140399169921860
-87.555316925048828 67.969066619873047 -208.859499613444000
-85.163533528645829 68.420066833496094 -208.154332478841160
-91.166051864624023 71.263900756835938 -208.368751525878910
-87.359967549641922 69.379369099934891 -210.186004638671870
-83.962314605712891 70.575550079345703 -208.993166605631500
-82.497596740722656 72.000198364257813 -207.578994750976560
-90.918401718139648 74.288873672485352 -208.653255462646480
-83.138765970865890 72.791165669759110 -209.761998494466160
-82.496902465820313 73.473602294921875 -209.085006713867190
-90.065184275309250 76.599900563557938 -208.979665120442720
-88.368896484375000 77.764396667480469 -207.815994262695310
-81.743278503417969 76.356021118164065 -208.001000976562490
-89.114931742350265 78.850532531738281 -209.730667114257810
-87.426399230957031 79.758572169712608 -208.801572527204230
-85.769100189208984 80.304550170898437 -208.257995605468750
-82.108924865722656 79.238273620605469 -209.359996795654300
-86.834949493408203 81.572349548339844 -210.010498046875000
-84.613773345947266 81.961526870727539 -209.613246917724610
-88.844501495361328 62.190349578857422 -204.847999572753910
-87.563734690348312 64.598982493082687 -205.773831685384120
-85.269124984741211 65.514099121093750 -205.073745727539060
-86.644050598144531 66.414699554443359 -207.143501281738280
-84.147467295328781 67.372516632080078 -205.929997762044280
-82.405899047851563 68.983497619628906 -204.604995727539060
-90.895999908447266 70.869325637817383 -205.336250305175780
-83.141452789306641 70.057449340820313 -207.243003845214840
-82.195552825927734 70.606775283813477 -205.215751647949220
-90.129572187151226 73.373171125139507 -206.171003069196420
-88.652648925781250 74.203849792480469 -204.611999511718750
-81.769020080566406 73.628579711914057 -205.912399291992190
-89.426597595214844 75.585899353027344 -206.968994140625000
-87.730899386935761 76.558733622233078 -206.021447075737850
-85.271202087402344 77.070299784342453 -204.996994018554690
-82.185699462890625 77.331501007080078 -205.979003906250000
-86.794300079345703 78.480953216552734 -207.118003845214840
-84.289703369140625 78.935901641845703 -206.627998352050780
-87.755228315080913 62.029956817626953 -202.502711704799110
-85.271074295043945 62.443775177001953 -202.144001007080080
-86.731250762939453 63.467700958251953 -204.048500061035160
-84.236367543538407 64.506749471028641 -203.333663940429690
-82.550548553466797 65.251449584960937 -201.579002380371090
-90.340365091959640 68.129333496093750 -201.925664265950530
-83.151248931884766 66.289299011230469 -203.511497497558590
-82.423202514648438 67.435600280761719 -203.113998413085940
-90.087866465250656 70.353218078613281 -203.431498209635410
-88.592498779296875 71.175052642822266 -201.659500122070310
-81.726284027099609 70.613033294677734 -202.224830627441410
-89.381698608398437 72.490997314453125 -204.072998046875000
-87.541338920593262 73.501223564147949 -202.877876281738280
-85.264368693033859 74.055933634440109 -202.013331095377590
-82.333652496337891 73.549098968505859 -202.268005371093750
-86.755249023437500 75.498149871826172 -204.084503173828120
-84.296096801757813 75.164596557617188 -202.912994384765620
-82.790397644042969 75.393402099609375 -202.759002685546870
-87.726128714425229 59.124171665736604 -199.423570905412960
-85.156166076660156 59.365133921305336 -199.199666341145840
-90.413799285888672 62.366500854492187 -198.448501586914060
-87.322799682617188 60.621665954589844 -200.905334472656250
-83.987200419108078 61.350067138671875 -200.208663940429690
-82.568166097005204 62.500666300455727 -199.065999348958340
-90.391298929850265 64.857915878295898 -199.722167968750000
-83.172698974609375 63.375099182128906 -201.145004272460940
-81.911449432373047 65.250751495361328 -199.319000244140620
-89.923233032226563 67.176333109537765 -200.375996907552090
-88.613367716471359 68.465367635091141 -199.126001993815090
-81.626660156249997 67.661099243164060 -199.904196166992190
-89.362800598144531 69.473197937011719 -201.080993652343750
-87.334085736955913 70.690357753208701 -199.893713814871660
-84.665798187255859 70.865100860595703 -198.956748962402340
-82.451251983642578 71.204650878906250 -200.171997070312500
-86.722648620605469 72.418949127197266 -201.205993652343750
-84.285003662109375 72.239799499511719 -199.852005004882810
-88.930603027343750 57.027198791503906 -195.636001586914060
-87.530064900716141 56.248133977254234 -196.571667989095060
-85.146835327148438 56.304365793863930 -196.267664591471340
-90.110659790039065 59.347020721435548 -196.506002807617190
-87.278999328613281 57.587800343831383 -198.009999593098970
-83.968826293945313 58.249074935913086 -197.306251525878910
-82.556399027506515 59.513233184814453 -196.074666341145840
-90.039350509643555 62.274999618530273 -196.300003051757810
-83.250701904296875 60.361900329589844 -198.171997070312500
-81.856066385904953 62.105533599853516 -196.468663533528660
-89.560798645019531 64.651401519775391 -196.934997558593750
-88.552398681640625 65.421033223470047 -196.141672770182280
-81.561957223074771 64.658129555838443 -196.907143729073650
-89.242401123046875 66.442199707031250 -198.147994995117190
-87.315700531005859 67.428922653198242 -196.751251220703120
-85.256467183430985 68.028233846028641 -196.036666870117190
-82.431467692057296 67.999270121256515 -196.554662068684910
-86.688800811767578 69.416549682617188 -198.143997192382810
-84.289703369140625 69.129096984863281 -196.938995361328120
-87.248020935058591 53.164980316162108 -193.416799926757820
-85.739898681640625 53.179100036621094 -193.380500793457030
-90.224934895833329 56.140866597493492 -193.409998575846340
-87.862199401855463 54.750960540771487 -194.810800170898430
-83.955998738606766 55.303600311279297 -194.264663696289060
-82.460433959960937 56.470265706380211 -193.115997314453120
-90.126181030273443 58.831060028076173 -193.146200561523440
-83.180297851562500 57.321899414062500 -195.216995239257810
-81.692951202392578 58.992549896240234 -193.207752227783200
-89.383247375488281 61.572250366210938 -194.005500793457030
-88.131399154663086 62.504275321960449 -193.074497222900390
-81.433498927525108 61.653285435267854 -193.911143711635050
-89.217796325683594 63.330398559570313 -195.182998657226560
-87.221141270228799 64.535343715122764 -194.025571550641730
-85.213101704915360 64.975397745768234 -193.101669311523440
-82.313997904459640 65.077067057291671 -193.488337198893220
-86.039497375488281 66.543601989746094 -195.042007446289060
-84.287349700927734 66.494499206542969 -194.392997741699220
-89.055496215820313 50.864498138427734 -189.679992675781250
-87.284166971842453 50.183367411295571 -190.409667968750000
-85.193699645996091 50.262939453125000 -190.302398681640620
-90.004319763183588 53.159719848632811 -190.388400268554680
-87.304730733235672 51.532666524251304 -191.578338623046880
-83.938249588012695 52.256725311279297 -191.310501098632810
-82.380032857259110 53.433266957600914 -190.144002278645840
-89.939358520507810 55.819659423828128 -190.765600585937510
-83.037399291992188 54.272201538085937 -192.268005371093750
-81.606101989746094 56.032866160074867 -190.048670450846340
-89.331748962402344 58.537601470947266 -191.039001464843750
-88.101168314615890 59.430533091227211 -190.144337972005220
-81.289381408691412 58.907180023193362 -190.358200073242190
-89.091598510742187 60.284301757812500 -192.257003784179690
-87.216751098632813 61.549882253011070 -191.267834981282560
-82.422000885009766 61.962574958801270 -190.230247497558590
-86.024398803710937 63.481800079345703 -192.048995971679690
-84.443397521972656 63.771999359130859 -191.761993408203120
-82.418899536132813 63.685699462890625 -192.067993164062500
-89.108497619628906 47.941001892089844 -186.608993530273440
-87.251164754231766 47.220400492350258 -187.328999837239590
-85.023348490397140 47.113750457763672 -187.188000996907560
-89.872699737548828 50.304676055908203 -187.261997222900390
-87.969449996948242 48.967175483703613 -188.567249298095700
-84.157250722249344 49.003683090209961 -188.313501993815090
-82.527248382568359 50.221900939941406 -187.354003906250000
-89.890800476074219 52.801480102539060 -187.788800048828140
-82.967498779296875 51.258499145507812 -189.328002929687500
-81.596723556518555 52.723474502563477 -187.079498291015620
-89.264701843261719 55.103599548339844 -187.693000793457030
-88.022265116373703 56.376566569010414 -187.190333048502590
-81.349258422851563 55.327579498291016 -187.929403686523440
-89.104202270507813 57.288799285888672 -189.270996093750000
-87.082376480102539 58.399074554443359 -188.167499542236330
-82.309933980305985 59.542999267578125 -188.018666585286470
-87.252868652343750 44.195500691731773 -184.391998291015620
-84.900857107979917 44.196856907435823 -184.366431100027910
-90.076197306315109 47.588534037272133 -183.988337198893220
-87.184633890787765 46.069667816162109 -186.007003784179690
-83.621580505371099 46.232580566406249 -185.337197875976560
-82.402252197265625 47.118400573730469 -184.495994567871090
-89.933901468912765 49.584966023763023 -185.503997802734370
-82.938003540039063 48.215499877929688 -186.365997314453120
-81.481386457170757 49.718528747558594 -184.432713099888390
-89.303133646647140 52.341832478841148 -185.181335449218750
-88.187101364135742 52.784774780273438 -184.020252227783200
-89.042098999023437 54.238601684570313 -186.320999145507810
-87.017400741577148 55.357350349426270 -185.217498779296870
-89.159797668457031 42.008098602294922 -180.561004638671870
-87.351425170898437 41.271675109863281 -181.281749725341800
-85.056067148844406 41.101849873860679 -181.465166727701810
-89.803874969482422 44.293375015258789 -181.286998748779300
-87.744664510091141 42.706466674804688 -182.323003133138030
-84.153277587890628 42.948019409179686 -182.637799072265640
-82.532200622558591 43.799279785156251 -181.177801513671880
-89.963451385498047 46.461050033569336 -181.387496948242190
-82.921302795410156 45.204898834228516 -183.363998413085940
-81.548198699951172 46.780374526977539 -182.178749084472660
-89.350101470947266 49.141901016235352 -182.413497924804690
-88.373034159342453 50.175167083740234 -181.861668904622410
-87.114875793457031 52.421401023864746 -182.194252014160160
-89.000000000000000 39.021701812744141 -177.561004638671870
-87.203066507975265 38.292865753173828 -178.287333170572910
-85.031417846679687 38.094833374023438 -178.463666280110690
-82.648101806640625 39.011001586914063 -177.567001342773440
-89.877001444498703 41.552299499511719 -178.034332275390620
-87.883532206217453 40.096566518147789 -179.498001098632810
-84.168151855468750 39.906624794006348 -179.666000366210940
-82.408866882324219 40.892499287923179 -178.688334147135410
-89.738202412923172 43.887667338053383 -178.722330729166660
-88.675598144531250 45.021099090576172 -177.544998168945310
-81.747021484374997 43.747719573974607 -178.503399658203140
-89.239299774169922 46.102499008178711 -179.438995361328120
-87.575134277343750 46.911000569661461 -178.179997762044280
-85.727401733398438 48.006599426269531 -177.563995361328130
-81.534280395507807 46.328360748291018 -178.956600952148450
-86.398267110188797 49.597400665283203 -178.784001668294280
-88.977401733398438 36.024600982666016 -174.494003295898440
-87.387674331665039 35.268349647521973 -175.317749023437500
-85.049798329671219 35.058433532714844 -175.508669535319000
-82.700202941894531 36.039901733398438 -174.531997680664060
-89.612424850463867 38.267100334167480 -175.317996978759770
-87.333248138427734 36.817001342773438 -176.633499145507810
-84.083801269531250 36.899100494384768 -176.664801025390630
-82.350301106770829 37.846467336018883 -175.746663411458340
-89.873001098632813 40.462200164794922 -176.134002685546870
-88.565299987792969 41.942199707031250 -174.641998291015620
-81.638584136962891 40.458766937255859 -175.348836263020840
-89.134098052978516 43.036748886108398 -176.504493713378910
-87.691270010811948 44.025585174560547 -175.544714791434160
-85.691802978515625 44.972900390625000 -174.600006103515620
-81.631240844726563 43.316400146484376 -175.955996704101550
-86.716800689697266 46.036875724792480 -176.510753631591800
-84.449849446614579 46.977800369262695 -175.845334370931000
-89.066596984863281 33.073898315429688 -171.533004760742190
-87.244499206542969 32.181567509969078 -172.366663614908840
-85.040500640869141 32.069383621215820 -172.524497985839840
-82.507202148437500 32.854301452636719 -171.733993530273440
-89.653401692708329 35.486834208170571 -172.102330525716160
-87.990097045898437 34.020333607991539 -173.529663085937500
-84.073898315429688 33.818850517272949 -173.707252502441410
-82.346698760986328 35.128499984741211 -173.253005981445310
-89.575550079345703 37.630298614501953 -172.930999755859370
-88.661052703857422 38.257749557495117 -171.562500000000000
-81.468601226806641 37.924233118693031 -172.648501078287750
-89.146700541178390 39.753100077311196 -173.785664876302090
-87.619073867797852 40.947999954223633 -172.623748779296870
-85.652000427246094 41.940601348876953 -171.643005371093750
-81.543350219726563 41.333849906921387 -172.237495422363280
-86.656799316406250 42.983932495117188 -173.569330851236970
-84.567949295043945 43.716600418090820 -172.858749389648440
-82.582025527954102 43.768574714660645 -172.814250946044920
-83.705646514892578 45.493349075317383 -174.117004394531250
-87.183268229166671 29.300433476765949 -169.277333577473970
-85.044217427571610 29.055166880289715 -169.541333516438810
-82.533599853515625 29.916099548339844 -168.671005249023440
-89.744800567626953 32.234699249267578 -169.380493164062500
-87.088699340820312 30.684000015258789 -170.964996337890630
-84.046600341796875 30.808949947357178 -170.768249511718750
-81.933301289876297 32.147399902343750 -169.422332763671870
-89.427253723144531 34.583999633789062 -169.997497558593750
-88.582401275634766 35.217498779296875 -168.603500366210940
-81.459170750209267 34.696313040597097 -169.882853916713170
-89.361000061035156 36.359600067138672 -171.190994262695310
-87.807620239257815 37.538520050048831 -169.738003540039070
-85.641700744628906 38.925498962402344 -168.645996093750000
-81.420433044433594 38.094099680582680 -169.478668212890620
-86.626434326171875 39.935900370279946 -170.626998901367190
-84.600551605224609 40.702699661254883 -169.843002319335940
-82.168816884358719 40.606983820597328 -169.681332906087250
-84.320899963378906 42.253299713134766 -171.315002441406250
-82.758499145507813 42.241798400878906 -171.324996948242190
-84.764956883021767 26.047500065394811 -166.521427699497760
-82.606399536132813 26.219300270080566 -165.641006469726560
-89.630149841308594 28.545599937438965 -166.307502746582030
-87.130748748779297 27.499650001525879 -167.287506103515620
-84.101125717163086 27.903275012969971 -168.016498565673830
-82.111600875854492 28.644375324249268 -166.542999267578130
-89.181503295898438 31.760900497436523 -166.761993408203120
-88.559867858886719 32.461533228556313 -166.098663330078120
-81.426999773297993 31.671571731567383 -166.886001586914060
-89.232398986816406 33.288299560546875 -168.240005493164060
-87.453998565673828 34.825675010681152 -166.742500305175780
-85.596900939941406 35.895500183105469 -165.662994384765620
-81.439125061035156 35.322175025939941 -166.245498657226560
-86.579597473144531 36.878433227539063 -167.683003743489590
-84.569799423217773 37.719650268554687 -166.816501617431640
-82.625900268554688 37.778000831604004 -166.811496734619140
-84.333396911621094 39.275699615478516 -168.287994384765620
-82.744102478027344 39.389301300048828 -168.240005493164060
-84.281997680664063 21.038900375366211 -162.570007324218750
-86.725499471028641 22.742166519165039 -162.889999389648440
-84.548549652099609 23.025633176167805 -163.787330627441410
-82.663249969482422 23.122099876403809 -163.590995788574220
-89.706253051757812 25.576799392700195 -163.211494445800780
-87.620435078938797 24.852566401163738 -164.215667724609370
-84.370000203450516 24.524367014567058 -165.002995808919280
-81.581171308244976 25.860342570713588 -163.670857020786830
-89.271503448486328 28.123899459838867 -163.669998168945310
-88.425532023111984 29.355933507283527 -163.188329060872410
-81.327916463216141 28.894566535949707 -163.909337361653660
-89.147697448730469 30.253099441528320 -165.311004638671870
-87.545900980631515 31.334916750590008 -163.490834554036470
-81.412572860717773 32.334124565124512 -163.234748840332030
-86.590499877929688 33.929299672444664 -164.694661458333340
-84.885416666666671 34.621449152628578 -163.680999755859370
-82.401618957519531 34.714360046386716 -163.539202880859360
-83.735198974609375 36.535850524902344 -165.109504699707030
-86.874099731445313 19.580050468444824 -160.916000366210940
-84.920047760009766 19.811399459838867 -162.022003173828120
-82.231697082519531 20.666999816894531 -160.080001831054690
-88.065200805664063 21.921299616495769 -161.539332071940090
-85.753097534179688 21.185600280761719 -162.348999023437500
-81.277725219726563 23.374650001525879 -160.186000823974610
-89.129501342773438 25.831499099731445 -160.792999267578130
-88.149148941040039 26.546950340270996 -159.969749450683590
-81.054126739501953 26.346475124359131 -160.229496002197270
-89.091400146484375 27.259300231933594 -162.296005249023440
-87.485461425781253 28.845040130615235 -161.050598144531250
-85.548698425292969 29.888999938964844 -159.679992675781250
-81.386449813842773 29.326674461364746 -160.234752655029300
-86.320549011230469 31.345099449157715 -161.427001953125000
-84.988533020019531 31.916066805521648 -160.593663533528660
-82.529926300048828 32.029650211334229 -160.544498443603520
-84.424201965332031 33.450298309326172 -162.147003173828120
-82.034450531005859 33.576601028442383 -162.029495239257810
-84.327798461914057 16.866559600830080 -157.420397949218740
-82.209949493408203 17.561775207519531 -157.047496795654300
-81.210180664062506 20.038959884643553 -157.568801879882810
-87.921564737955734 23.800299962361652 -157.207997639973970
-80.836868286132813 23.086833318074543 -157.520996093750000
-89.160400390625000 24.445199966430664 -159.248001098632810
-87.280865987141922 25.395133336385090 -158.099665323893220
-85.588150024414063 26.225250244140625 -156.601005554199220
-81.164939880371094 25.910360336303711 -157.063598632812500
-86.043998718261719 28.773899078369141 -159.276992797851560
-85.000779724121088 28.424139785766602 -157.848602294921870
-82.508451461791992 28.954900264739990 -157.602497100830080
-84.302398681640625 30.666999816894531 -158.869003295898440
-82.660003662109375 30.555500030517578 -158.964004516601560
-87.381301879882813 22.653675079345703 -155.253749847412110
-85.647967020670578 23.512300491333008 -154.046335856119780
-80.896659851074219 22.338859558105469 -154.056198120117190
-84.344515482584640 25.988550186157227 -154.850166320800780
-81.826334635416671 25.722950299580891 -154.593999226888030
-83.701698303222656 27.501250267028809 -156.057998657226560
-86.355697631835938 21.441299438476562 -153.149993896484370
-84.810121154785151 22.537580490112305 -151.728399658203130
-81.616717020670578 22.471500396728516 -151.382166544596340
-84.590301513671875 24.406900405883789 -153.186004638671870
-82.787200927734375 24.136600494384766 -151.936996459960940
