ply
format ascii 1.0
element vertex 237
property double x
property double y
property double z
end_header
-156.298004150390620 21.088600158691406 -222.453994750976560
-154.649002075195310 19.789100646972656 -222.602005004882810
-159.385250091552730 22.826075077056885 -223.492252349853520
-157.081665039062500 21.420799891153973 -223.146331787109370
-162.902496337890630 26.470100402832031 -224.033500671386720
-160.468002319335940 24.374099731445313 -222.742004394531250
-163.596000671386720 28.044099807739258 -222.622001647949220
-153.314570835658490 20.200114113943918 -220.509713309151780
-151.096496582031250 19.423099517822266 -220.169494628906250
-158.584999084472660 23.298274993896484 -221.664997100830080
-156.534751892089840 22.373600006103516 -220.705497741699220
-154.453994750976560 21.561000823974609 -219.835006713867190
-161.571665445963530 26.365066528320313 -221.734995524088530
-159.682573590959830 25.209014347621373 -220.537000383649540
-157.694000244140620 24.232900619506836 -219.559997558593750
-162.329196166992180 28.231480026245116 -220.569396972656250
-160.652999877929690 27.201700210571289 -219.559997558593750
-145.791000366210940 18.094900131225586 -217.957000732421870
-152.158004760742190 20.539800643920898 -218.973999023437500
-150.338999430338530 20.029833475748699 -218.391998291015620
-147.808401489257820 19.485639572143555 -217.504202270507820
-144.949996948242190 19.126249313354492 -216.707000732421870
-142.667999267578130 18.449899673461914 -216.677993774414060
-155.593999226888030 23.193633397420246 -218.674997965494780
-153.259796142578120 22.345879745483398 -217.690197753906260
-151.130671183268220 21.340866088867188 -217.167002360026030
-159.061752319335940 26.210324764251709 -218.607250213623050
-156.908335367838530 25.019900004069012 -217.566167195638030
-154.733001708984370 24.189100265502930 -216.526000976562500
-161.381998697916660 28.527933120727539 -218.434666951497410
-160.011001586914060 27.873800277709961 -217.118001302083340
-141.449996948242190 17.547399520874023 -215.787002563476560
-139.776992797851560 18.122999191284180 -214.983001708984370
-148.223999023437500 20.705499649047852 -216.110504150390620
-144.908398437500010 20.175499725341798 -215.229403686523430
-141.816802978515620 19.461399841308594 -214.469598388671870
-138.661997477213530 18.390000025431316 -214.186665852864590
-152.473002115885410 23.280932744344074 -215.750000000000000
-150.268200683593760 22.644399642944336 -214.962600708007810
-148.179000854492190 21.826533635457356 -214.636001586914060
-144.944000244140620 21.357250213623047 -213.663002014160160
-158.126007080078130 26.701299667358398 -216.279006958007810
-156.300163269042970 26.060749689737957 -214.937665303548190
-153.839996337890630 24.869500160217285 -214.409000396728520
-151.692993164062500 24.294399261474609 -213.578994750976560
-159.300746917724610 28.220050334930420 -214.985500335693360
-157.539993286132810 27.500699996948242 -213.636001586914060
-141.461669921875000 20.736933390299480 -212.625005086263030
-138.944000244140620 19.770980453491212 -212.425198364257820
-136.044254302978520 19.614049434661865 -211.184753417968750
-133.772994995117190 19.646099090576172 -210.529998779296870
-130.772003173828120 18.502399444580078 -210.983993530273440
-149.722503662109370 23.654700279235840 -213.176498413085940
-147.320999145507810 23.107719802856444 -212.502801513671870
-144.280246734619140 22.649475097656250 -211.609497070312500
-141.878201293945320 21.983980178833008 -211.345397949218750
-138.934494018554690 21.363050460815430 -210.725997924804690
-155.725502014160160 26.809949874877930 -212.554496765136720
-153.226596069335930 25.699020004272462 -212.020202636718750
-151.139999389648440 24.968032836914063 -211.625335693359370
-147.933502197265620 24.461299896240234 -210.645500183105470
-156.963500976562500 27.962699890136719 -212.016998291015620
-154.723999023437500 27.205799102783203 -210.522003173828120
-135.397003173828120 20.833299636840820 -210.053334554036470
-132.126007080078120 19.884599685668945 -209.522003173828120
-130.285003662109370 20.110999425252277 -208.949666341145840
-144.399998982747410 23.651466369628906 -210.201334635416660
-141.757334391276030 23.665933609008789 -209.030339558919280
-139.080668131510410 22.897583643595379 -209.281000773111970
-135.867285592215410 22.804485866001674 -208.585998535156250
-133.010335286458340 22.183733622233074 -208.574666341145840
-129.721333821614590 22.252133051554363 -207.805002848307280
-127.050500869750980 21.927350521087646 -207.682003021240230
-152.750000000000000 26.645600318908691 -209.492492675781250
-150.223001098632810 25.722540283203124 -209.331002807617180
-147.632998657226550 25.405020523071290 -208.284799194335930
-144.964500427246090 24.384900093078613 -209.109497070312500
-141.996505737304690 24.506099700927734 -207.647499084472660
-139.027999877929690 24.203049659729004 -207.526496887207030
-153.050498962402340 27.480150222778320 -208.436500549316410
-151.735000610351560 27.204700469970703 -207.520996093750000
-133.058494567871090 23.984950065612793 -207.316497802734370
-130.108497619628910 23.880650520324707 -207.052001953125000
-126.269996643066410 23.893199920654297 -206.970001220703120
-124.744003295898440 23.931800842285156 -207.069000244140620
-121.779998779296870 23.973800659179687 -207.171005249023440
-150.432006835937500 26.754999160766602 -207.272994995117190
-148.085746765136720 26.565674781799316 -205.540500640869140
-145.023498535156250 25.624883651733398 -205.950665791829440
-142.051750183105470 25.430774688720703 -205.156749725341800
-138.885403442382820 25.262220382690430 -205.365798950195310
-136.044331868489590 25.281599998474121 -205.598169962565090
-133.063664754231780 25.461700121561687 -205.743502298990880
-130.038998921712250 25.438733100891113 -205.848999023437500
-127.164399719238280 25.882879638671874 -205.676602172851570
-124.004749298095700 26.257524967193604 -205.867504119873050
-121.033248901367190 26.331150531768799 -205.912998199462890
-118.307668050130200 26.534399668375652 -205.570668538411470
-150.166999816894530 27.441499710083008 -205.328002929687500
-126.322998046875000 27.267400741577148 -204.608001708984370
-124.144496917724610 27.500149726867676 -204.884498596191410
-121.085002899169920 28.173100471496582 -204.922004699707030
-118.036998748779300 28.714349746704102 -204.788002014160160
-115.368331909179690 29.242600123087566 -204.888336181640620
-111.266998291015620 30.066999435424805 -205.914001464843750
-113.644500732421870 30.285699844360352 -204.891502380371090
-111.449748992919920 31.450049877166748 -204.914253234863280
-108.473999023437500 31.930999755859375 -206.257995605468750
-109.097000122070310 33.203699111938477 -204.655494689941410
-103.799003601074220 36.144699096679688 -204.559005737304690
-90.361002604166671 59.985799153645836 -204.848002115885410
-88.817901611328125 58.558601379394531 -204.591995239257810
-92.653350830078125 62.269050598144531 -204.808998107910160
-90.616439819335937 61.870099639892580 -205.179000854492190
-91.930397033691406 64.628799438476562 -204.688995361328120
-90.353797912597656 64.552398681640625 -206.225006103515620
-91.954696655273438 66.203201293945313 -204.742004394531250
-91.048065185546875 67.061602274576828 -206.149668375651030
-147.367996215820310 26.809599876403809 -203.641998291015620
-144.186996459960940 26.155599594116211 -203.055999755859370
-142.005500793457030 25.943700313568115 -202.267002105712890
-139.052753448486330 25.845624923706055 -202.254245758056640
-136.368662516276030 26.043333053588867 -202.548334757486970
-132.726333618164060 26.782499949137371 -202.827336629231780
-130.009498596191410 26.901250839233398 -204.315498352050780
-131.606498718261720 27.387000083923340 -201.500503540039060
-129.260998535156260 27.709380340576171 -202.715197753906240
-126.534332275390620 28.561183293660481 -202.379501342773440
-123.496857779366640 28.996199744088308 -203.166854858398440
-121.742500305175780 29.211449623107910 -203.614501953125000
-117.967502593994140 29.874900817871094 -204.131004333496090
-121.903999328613280 30.403099060058594 -201.524002075195310
-120.258499145507810 30.825974941253662 -202.328502655029300
-117.652999877929690 31.569450060526531 -202.630668640136720
-114.864799499511720 32.147439956665039 -203.497601318359390
-111.910999298095700 32.906099319458008 -204.111495971679690
-115.945999145507810 33.387199401855469 -201.623001098632810
-113.796200561523430 34.187419891357422 -202.236996459960950
-111.259500503540040 34.947574615478516 -202.960746765136720
-108.672332763671870 34.906566619873047 -204.008000691731780
-106.238667805989580 35.509666442871094 -204.269999186197910
-110.688499450683590 37.057998657226563 -201.629005432128910
-108.762666066487630 37.339483261108398 -202.702166239420560
-106.041501998901370 38.375649452209473 -203.070499420166020
-102.991996765136720 37.426599502563477 -203.922492980957030
-107.723999023437500 39.317800521850586 -201.828002929687500
-105.885332743326830 40.618300120035805 -202.017003377278660
-102.737572806222100 40.631028856549946 -203.058140345982140
-104.679500579833980 42.284950256347656 -201.767501831054690
-103.267000834147140 44.065133412679039 -201.864669799804690
-99.739942278180806 43.639156886509490 -203.006430489676350
-97.768997192382812 45.064498901367188 -202.796997070312500
-100.941001892089840 46.745700836181641 -202.136001586914060
-99.258052825927734 47.287900924682617 -202.379493713378910
-97.760799407958984 47.369049072265625 -202.384994506835940
-100.008049011230470 48.854400634765625 -202.019500732421870
-97.271163940429687 50.101732889811196 -202.468332926432280
-96.451851844787598 52.795587539672852 -202.485752105712890
-96.209999084472656 55.554849624633789 -202.776000976562500
-93.951281738281253 55.337580108642577 -202.842999267578140
-94.248202006022140 59.206600189208984 -203.935002644856780
-91.395023345947266 58.376324653625488 -204.010997772216800
-93.845600673130576 61.637699672154021 -203.599997384207600
-91.743896484375000 60.173801422119141 -204.270996093750000
-93.528116861979171 64.650817871093750 -203.410832722981780
-141.769332885742190 26.119966506958008 -199.541666666666660
-139.347330729166660 26.178200403849285 -199.587997436523440
-135.612754821777340 26.600650310516357 -199.943000793457030
-133.766006469726560 27.026399612426758 -199.951004028320310
-132.599996948242190 27.713999938964843 -199.108197021484390
-129.982999801635740 28.387375354766846 -199.206249237060550
-127.015832265218090 29.268450101216633 -199.514500935872410
-124.673667907714840 29.733333587646484 -199.952662150065090
-122.928998311360670 30.448133468627930 -199.888666788736970
-120.090571812220990 31.618756975446427 -199.311000279017860
-117.875832875569660 32.864517211914063 -199.712666829427090
-116.826000976562500 33.907699584960938 -199.070199584960930
-114.872624397277830 34.973824501037598 -199.335500717163090
-112.640998840332030 35.878898620605469 -201.348007202148440
-113.041500091552730 36.392700195312500 -199.284500122070310
-111.305801391601560 37.602680969238278 -199.941403198242200
-109.575000762939450 38.853750228881836 -200.502502441406250
-110.026000976562500 39.339500427246094 -198.563003540039060
-108.231123924255370 40.746449470520020 -199.760875701904300
-106.496498107910160 41.847600936889648 -200.482505798339840
-106.986999511718750 42.319000244140625 -198.514999389648440
-105.666908957741480 43.740582206032492 -199.499818281693900
-103.617996215820310 44.965499877929688 -201.371994018554690
-104.037000020345050 46.285266876220703 -199.532663981119780
-102.691624641418460 47.235574722290039 -199.870372772216800
-102.076284136090960 49.093856811523438 -199.161143711635050
-100.472503662109370 50.886400222778320 -199.112998962402340
-101.063999176025390 51.268501281738281 -199.287994384765620
-99.543849945068359 52.731012821197510 -199.719999313354490
-99.136798858642578 54.826148986816406 -198.509002685546870
-136.173670450846340 26.621566772460938 -197.424331665039060
-132.778666178385410 27.620833714803059 -197.013997395833340
-129.831715175083700 28.126485824584961 -196.397572108677450
-127.352142333984370 28.507599966866628 -196.579140799386150
-124.181401062011720 29.212220001220704 -196.648596191406260
-121.665000915527340 29.861600875854492 -195.569000244140620
-122.701499938964840 30.509049415588379 -198.303001403808590
-120.296501159667970 31.239174842834473 -196.586498260498050
-117.985331217447920 32.783065795898438 -196.556335449218750
-116.803201293945310 34.130938720703128 -196.650000000000010
-115.137500762939450 35.453174591064453 -196.651000976562500
-113.684333801269530 37.237133661905922 -196.449999491373690
-111.789111667209200 38.260832892523872 -196.779332478841160
-110.783000946044920 39.868566513061523 -195.964164733886720
-108.709222581651470 40.989599863688149 -196.777335272894960
-107.569874763488770 42.906912803649902 -196.218750000000000
-105.797667185465500 44.395783106486000 -196.455668131510410
-104.838222079806850 46.097722795274521 -196.466444227430540
-103.687199401855470 47.435059356689450 -196.641397094726560
-102.163799285888670 49.616030120849608 -196.812701416015610
-101.271664937337230 51.379800160725914 -196.626332600911470
-99.880355834960938 53.214656829833984 -196.747283935546880
-99.007347106933594 55.157649993896484 -196.268501281738280
-124.983001708984370 27.783899307250977 -194.891006469726560
-122.635250091552730 28.788924694061279 -194.617252349853520
-121.303001403808590 29.444099426269531 -194.276000976562500
-119.564570835658490 30.707457133701869 -194.352713448660720
-117.752332051595050 32.106100082397461 -193.733334859212250
-116.637332916259770 33.708116531372070 -194.203333536783840
-115.089665730794270 35.146850585937500 -193.267333984375000
-113.687501271565750 36.751983006795250 -193.954165140787750
-111.977874755859370 38.092050075531006 -193.233375549316410
-110.648166656494140 39.976966222127281 -193.461667378743500
-108.801167805989580 41.105549494425453 -193.237500508626310
-107.417399597167970 42.764340209960935 -193.658999633789050
-105.793199157714840 44.511260986328125 -193.102001953125010
-105.341667175292970 45.622500101725258 -192.992996215820310
-103.225502014160160 47.801300048828125 -194.632499694824220
-102.819000244140620 49.461198806762695 -194.685997009277340
-100.615997314453120 54.019599914550781 -195.347000122070310
-112.748001098632810 37.564899444580078 -190.957992553710940
-110.855499267578120 40.228050231933594 -191.113494873046870
