ply
format ascii 1.0
element vertex 757
property double x
property double y
property double z
end_header
-32.702301025390625 -108.393997192382810 115.345001220703120
-30.881500244140625 -104.066001892089840 108.221000671386720
-32.655799865722656 -104.973999023437500 110.008003234863280
-32.165699005126953 -104.961997985839840 109.502998352050780
-30.415300369262695 -104.608001708984370 107.712997436523440
-31.330699920654297 -105.067001342773440 108.805999755859370
-32.453201293945313 -105.670997619628910 110.108001708984370
-30.812000274658203 -105.053001403808590 108.329002380371090
-30.029800415039063 -104.662002563476560 107.125000000000000
-31.772800445556641 -105.532997131347660 109.369003295898440
-32.873901367187500 -106.091003417968750 110.724998474121090
-31.145299911499023 -105.958000183105470 109.019996643066410
-30.287599563598633 -105.541000366210940 107.855003356933590
-33.075199127197266 -106.961997985839840 111.602996826171870
-32.095699310302734 -106.446998596191410 110.099998474121090
-34.121200561523438 -107.405998229980470 112.470001220703120
-30.664699554443359 -105.970001220703120 108.495002746582030
-34.451900482177734 -107.736000061035160 113.252998352050780
-31.633199691772461 -106.462997436523440 109.549003601074220
-32.702301025390625 -108.393997192382810 115.345001220703120
-34.807098388671875 -108.123001098632810 113.807998657226560
-34.699699401855469 -108.387001037597660 114.474998474121090
-32.405601501464844 -107.107002258300780 110.712997436523440
-29.841100692749023 -106.055999755859370 107.781997680664060
-33.355998992919922 -107.560997009277340 111.786003112792970
-29.181600570678711 -106.000000000000000 107.497001647949220
-30.800699234008789 -106.543998718261720 108.844001770019530
-33.943500518798828 -108.232002258300780 113.318000793457030
-31.944700241088867 -107.135002136230470 110.184997558593750
-34.198898315429688 -108.450996398925780 113.930999755859370
-32.863098144531250 -107.580001831054690 111.265998840332030
-33.712799072265625 -107.997001647949220 112.422996520996090
-30.303800582885742 -106.546997070312500 108.336997985839840
-31.470800399780273 -107.148002624511720 109.672996520996090
-34.172298431396484 -108.902000427246090 114.492996215820310
-30.951999664306641 -107.146003723144530 109.184997558593750
-33.191898345947266 -108.940002441406250 114.406997680664060
-29.463899612426758 -106.646003723144530 107.638999938964840
-30.196699142456055 -109.272003173828130 115.844001770019530
-32.959201812744141 -108.199996948242190 111.698997497558590
-30.429800033569336 -107.146003723144530 108.689002990722660
-33.135299682617188 -108.871002197265620 113.421997070312500
-31.224199295043945 -109.379997253417970 115.375999450683590
-32.447200775146484 -108.185997009277340 111.184997558593750
-32.294498443603516 -109.179000854492190 114.401000976562500
-28.961000442504883 -106.724998474121090 107.079002380371090
-29.904800415039062 -107.138000488281250 108.200996398925780
-31.721399307250977 -109.355003356933590 114.867996215820310
-31.543100357055664 -107.893997192382810 110.103996276855470
-28.245599746704102 -109.446998596191410 115.891998291015620
-33.133499145507813 -108.785003662109370 112.446998596191410
-16.757099151611328 -104.072998046875000 100.796997070312500
-28.773700714111328 -109.699996948242190 116.402999877929690
-31.941699981689453 -108.191001892089840 110.693000793457030
-29.268899917602539 -109.640998840332030 115.888000488281250
-29.765399932861328 -109.582000732421870 115.399002075195310
-31.051300048828125 -107.897003173828120 109.605003356933590
-30.257999420166016 -109.542999267578120 114.898002624511720
-28.771400451660156 -109.664001464843750 115.388999938964840
-30.559400558471680 -107.885002136230470 109.123001098632810
-29.143400192260742 -107.364997863769530 107.579002380371090
-19.263500213623047 -104.710998535156250 101.156997680664060
-30.766099929809570 -109.585998535156250 114.405998229980470
-29.270099639892578 -109.643997192382810 114.903999328613280
-17.758399963378906 -104.557998657226560 100.850997924804690
-32.360401153564453 -109.260002136230470 112.849998474121090
-30.067699432373047 -107.819999694824220 108.652000427246090
-20.258699417114258 -104.819000244140620 101.089996337890620
-32.239200592041016 -108.995002746582030 111.905998229980470
-31.953100204467773 -108.766998291015620 111.211997985839840
-27.787799835205078 -109.767997741699220 115.394996643066410
-29.777399063110352 -109.709999084472660 114.426002502441410
-31.289600372314453 -109.670997619628910 113.918998718261720
-29.602100372314453 -107.791000366210940 108.139999389648440
-28.243499755859375 -109.766998291015620 114.878997802734380
-31.766399383544922 -109.561996459960940 113.396003723144530
-21.253700256347656 -105.043998718261720 100.878997802734370
-26.755699157714844 -110.038002014160160 115.889999389648440
-31.540700912475586 -108.841003417968750 110.642997741699220
-28.751199722290039 -109.828002929687500 114.364997863769530
-27.247999191284180 -109.899002075195310 114.904998779296870
-18.266799926757812 -105.115997314453120 101.277999877929690
-28.261100769042969 -107.536003112792970 106.884002685546870
-28.266500473022461 -107.219001770019530 105.820999145507810
-26.255199432373047 -110.041000366210940 115.388999938964840
-21.257600784301758 -105.432998657226560 101.457000732421870
-31.052400588989258 -108.796997070312500 110.166999816894530
-30.240299224853516 -109.896003723144530 113.863998413085940
-27.751800537109375 -109.883003234863280 114.388000488281250
-31.771799087524414 -109.578002929687500 112.394996643066410
-17.254400253295898 -109.025001525878910 113.894996643066410
-27.302099227905273 -107.235000610351560 105.734001159667970
-25.262199401855469 -110.194999694824220 115.850997924804690
-24.756799697875977 -110.049003601074220 115.387001037597660
-25.754199981689453 -109.984001159667970 114.902000427246090
-22.245500564575195 -105.609001159667970 101.359001159667970
-29.253400802612305 -109.945999145507810 113.875999450683590
-26.752599716186523 -109.940002441406250 114.397003173828120
-30.569499969482422 -108.763999938964840 109.679000854492190
-27.763200759887695 -107.555000305175780 106.374000549316410
-28.785100936889648 -108.075996398925780 107.838996887207030
-20.259500503540039 -105.630996704101560 101.797996520996090
-26.264999389648438 -106.870002746582030 104.431999206542970
-24.270500183105469 -110.226997375488280 115.837997436523440
-27.246999740600586 -107.083000183105470 104.878997802734370
-30.740999221801758 -109.961997985839840 113.388999938964840
-31.201599121093750 -109.844001770019530 112.898002624511720
-25.752300262451172 -107.019996643066410 104.900001525878910
-28.256399154663086 -109.958999633789060 113.883003234863280
-15.817000389099121 -108.775001525878910 112.821998596191410
-13.754300117492676 -108.500000000000000 112.379997253417970
-29.774599075317383 -108.551002502441410 108.862998962402340
-19.267400741577148 -105.640998840332030 101.765998840332030
-24.254199981689453 -110.014999389648440 114.896003723144530
-28.247999191284180 -108.009002685546870 107.406997680664060
-19.815500259399414 -109.716003417968750 114.888999938964840
-27.256799697875977 -109.933998107910160 113.887001037597660
-23.762199401855469 -110.150001525878910 115.360000610351560
-26.228799819946289 -107.325996398925780 105.527999877929690
-24.752099990844727 -109.946998596191410 114.407997131347660
-23.755199432373047 -106.513000488281250 103.396003723144530
-24.745100021362305 -106.581001281738280 103.389999389648440
-22.759300231933594 -105.992996215820310 101.903999328613280
-26.779499053955078 -106.890998840332030 103.901000976562500
-24.217699050903320 -106.763999938964840 104.057998657226560
-25.254499435424805 -106.807998657226560 103.957000732421870
-26.255199432373047 -109.926002502441410 113.889999389648440
-22.247499465942383 -106.120002746582030 102.349998474121090
-23.802499771118164 -106.259002685546870 102.430999755859370
-23.749300003051758 -109.931999206542970 114.415000915527340
-23.261899948120117 -106.382003784179690 102.933998107910160
-25.790500640869141 -106.708999633789060 103.411003112792970
-29.757400512695313 -110.054000854492190 113.400001525878910
-24.773799896240234 -107.085998535156250 104.827003479003910
-24.264999389648438 -106.462997436523440 102.902000427246090
-23.274599075317383 -105.939002990722660 101.410003662109370
-25.254899978637695 -109.906997680664060 113.896003723144530
-23.258300781250000 -110.069000244140620 114.877998352050780
-21.258100509643555 -106.103996276855470 102.341003417968750
-23.805900573730469 -105.849998474121090 100.925003051757810
-26.810100555419922 -107.706001281738280 106.236000061035160
-22.755500793457031 -106.549003601074220 103.383003234863280
-18.743600845336914 -109.655998229980470 114.385002136230470
-24.254600524902344 -109.894996643066410 113.902999877929690
-28.754100799560547 -110.059997558593750 113.402999877929690
-14.799200057983398 -108.750999450683590 112.306999206542970
-21.252300262451172 -110.140998840332030 115.361000061035160
-17.781900405883789 -109.300003051757810 113.373001098632810
-31.291700363159180 -109.627998352050780 111.355003356933590
-25.235099792480469 -106.626998901367190 102.897003173828120
-27.754299163818359 -110.028999328613280 113.396003723144530
-22.754100799560547 -109.991996765136720 114.403999328613280
-20.762599945068359 -109.870002746582030 114.429000854492190
-18.254199981689453 -109.530998229980470 113.893997192382810
-20.265100479125977 -106.122001647949220 102.308998107910160
-19.246999740600586 -109.600997924804690 113.887001037597660
-23.252799987792969 -109.889999389648440 113.914001464843750
-17.219299316406250 -109.178001403808590 112.920997619628910
-30.267799377441406 -110.093002319335940 112.899002075195310
-26.755399703979492 -110.004997253417970 113.391998291015620
-30.744699478149414 -109.978996276855470 112.393997192382810
-21.756700515747070 -109.970001220703120 114.412002563476560
-27.719499588012695 -107.168998718261720 103.890998840332030
-25.757099151611328 -109.954002380371090 113.387001037597660
-27.270700454711914 -108.066001892089840 106.858001708984370
-22.257099151611328 -109.883003234863280 113.924003601074220
-20.233400344848633 -109.733001708984370 113.863998413085940
-21.258100509643555 -109.827003479003910 113.931999206542970
-25.246799468994141 -107.498001098632810 105.418998718261720
-21.770999908447266 -106.616996765136720 103.323997497558590
-24.758600234985352 -109.911003112792970 113.384002685546870
-23.760900497436523 -109.864997863769530 113.388000488281250
-24.296899795532227 -106.388000488281250 101.894996643066410
-18.752799987792969 -109.543998718261720 113.393997192382810
-19.275199890136719 -106.166000366210940 102.245002746582030
-23.266899108886719 -107.095001220703120 104.342002868652340
-22.760099411010742 -109.837997436523440 113.402999877929690
-29.786399841308594 -109.086997985839840 109.339996337890620
-19.745800018310547 -109.630996704101560 113.388000488281250
-30.803600311279297 -109.623001098632810 110.830001831054690
-26.296100616455078 -106.872001647949220 102.864997863769530
-21.761800765991211 -109.786003112792970 113.405998229980470
-23.278600692749023 -105.912002563476560 100.399002075195310
-16.720899581909180 -109.148002624511720 112.425003051757810
-20.753900527954102 -106.517997741699220 102.898002624511720
-20.766899108886719 -109.741996765136720 113.408996582031250
-29.262699127197266 -110.210998535156250 112.927001953125000
-29.243499755859375 -108.999000549316410 108.915000915527340
-22.256000518798828 -110.375999450683590 114.960998535156250
-28.246799468994141 -110.177001953125000 112.931999206542970
-25.709999084472656 -107.894996643066410 106.021003723144530
-28.688100814819336 -108.876998901367190 108.527999877929690
-18.258100509643555 -109.494003295898440 112.891998291015620
-27.245000839233398 -110.130996704101560 112.917999267578120
-22.254800796508789 -107.023002624511720 103.893997192382810
-26.251300811767578 -110.070999145507810 112.903999328613280
-14.262000083923340 -108.918998718261720 111.865997314453120
-30.286500930786133 -109.594001770019530 110.353996276855470
-28.136100769042969 -108.765998840332030 108.132003784179690
-25.254499435424805 -110.025001525878910 112.894996643066410
-24.259899139404297 -109.955001831054690 112.884002685546870
-23.262599945068359 -109.886001586914060 112.880996704101560
-30.263599395751953 -110.077003479003910 111.893997192382810
-19.248100280761719 -109.613998413085940 112.897003173828120
-29.778299331665039 -110.203002929687500 112.402000427246090
-23.748899459838867 -107.503997802734370 104.913002014160160
-22.263999938964844 -109.851997375488280 112.880996704101560
-15.739199638366699 -109.112998962402340 111.920997619628910
-21.269100189208984 -109.807998657226560 112.880996704101560
-19.778400421142578 -106.624000549316410 102.792999267578120
-17.767599105834961 -109.434997558593750 112.383003234863280
-20.274200439453125 -109.764999389648440 112.876998901367190
-24.305599212646484 -106.382003784179690 100.878997802734370
-25.162300109863281 -106.777000427246090 101.915000915527340
-29.767400741577148 -109.557998657226560 109.873001098632810
-26.172599792480469 -108.310997009277340 106.596000671386720
-24.713499069213867 -106.642997741699220 101.402000427246090
-28.732900619506836 -110.291999816894530 112.380996704101560
-18.746000289916992 -109.615997314453120 112.402999877929690
-20.751199722290039 -107.010002136230470 103.407997131347660
-19.743700027465820 -109.712997436523440 112.406997680664060
-13.758700370788574 -108.986000061035160 111.383003234863280
-24.748899459838867 -110.083000183105470 112.407997131347660
-29.769699096679688 -110.124000549316410 111.389999389648440
-23.755399703979492 -110.014999389648440 112.392997741699220
-25.741800308227539 -110.167999267578120 112.426002502441410
-21.766399383544922 -109.874000549316410 112.369003295898440
-22.760799407958984 -109.948997497558590 112.380996704101560
-27.745300292968750 -110.295997619628910 112.371002197265620
-29.223899841308594 -110.263999938964840 111.894996643066410
-20.774700164794922 -109.823997497558590 112.363998413085940
-17.267999649047852 -109.430000305175780 111.876998901367190
-26.760099411010742 -110.261001586914060 112.360000610351560
-24.788099288940430 -108.116996765136720 105.796997070312500
-15.229999542236328 -109.199996948242190 111.444999694824220
-22.260499954223633 -107.540000915527340 104.374000549316410
-27.242500305175781 -108.992996215820310 107.919998168945310
-18.244400024414063 -109.605003356933590 111.906997680664060
-28.239599227905273 -110.345001220703120 111.892997741699220
-19.240100860595703 -109.727996826171870 111.916999816894530
-28.785699844360352 -109.619003295898440 109.333999633789060
-26.187099456787109 -107.172996520996090 101.935997009277340
-26.712499618530273 -108.914001464843750 107.490997314453120
-29.271099090576172 -110.133003234863280 110.878997802734370
-23.770099639892578 -108.066001892089840 105.347999572753910
-13.252200126647949 -109.038002014160160 110.900001525878910
-23.252500534057617 -110.050003051757810 111.900001525878910
-28.730899810791016 -110.293998718261720 111.404998779296870
-19.805599212646484 -107.166999816894530 103.224998474121090
-28.246999740600586 -109.500999450683590 108.911003112792970
-21.242399215698242 -107.487998962402340 103.934997558593750
-26.175600051879883 -108.803001403808590 107.078002929687500
-20.272399902343750 -109.857002258300780 111.859001159667970
-22.256000518798828 -110.007003784179690 111.890998840332030
-16.762500762939453 -109.470001220703120 111.382003784179690
-21.263399124145508 -109.940002441406250 111.875999450683590
-24.239299774169922 -110.166000366210940 111.924003601074220
-25.261100769042969 -108.540000915527340 106.377998352050780
-27.698299407958984 -109.372001647949220 108.516998291015620
-27.253099441528320 -110.375999450683590 111.882003784179690
-25.268400192260742 -110.266998291015620 111.875999450683590
-26.261199951171875 -110.351997375488280 111.877998352050780
-22.754400253295898 -108.021003723144530 104.894996643066410
-27.745399475097656 -110.374000549316410 111.403999328613280
-28.235599517822266 -110.280998229980470 110.918998718261720
-28.771299362182617 -110.158996582031250 110.363998413085940
-14.777799606323242 -109.330001831054690 110.838996887207030
-18.779300689697266 -109.803001403808590 111.334999084472660
-12.731300354003906 -109.120002746582030 110.438003540039060
-26.754100799560547 -110.400001525878910 111.393997192382810
-16.256299972534180 -109.512001037597660 110.891998291015620
-19.765600204467773 -109.916999816894530 111.366996765136720
-28.261199951171875 -110.069999694824220 109.877998352050780
-20.303499221801758 -107.635002136230470 103.737998962402340
-21.746999740600586 -110.098999023437500 111.414001464843750
-27.243400573730469 -110.336997985839840 110.915000915527340
-22.742200851440430 -110.186996459960940 111.431999206542970
-24.760900497436523 -110.314002990722660 111.384002685546870
-25.760999679565430 -110.391998291015620 111.388000488281250
-23.762699127197266 -110.245002746582030 111.362998962402340
-27.772100448608398 -110.251998901367190 110.347999572753910
-25.261699676513672 -109.042999267578120 106.876998901367190
-23.783599853515625 -108.613998413085940 105.808998107910160
-27.750600814819336 -110.001998901367190 109.403999328613280
-26.256299972534180 -110.374000549316410 110.902999877929690
-14.270999908447266 -109.390998840332030 110.353996276855470
-26.792900085449219 -109.648002624511720 108.310997009277340
-17.788200378417969 -109.795997619628910 110.821998596191410
-27.222000122070313 -109.888999938964840 108.966003417968750
-26.252700805664062 -109.515998840332030 107.899002075195310
-25.259000778198242 -110.365997314453120 110.892997741699220
-26.749099731445313 -110.328002929687500 110.414001464843750
-21.659700393676758 -108.222999572753910 104.671997070312500
-15.747300148010254 -109.578002929687500 110.410003662109370
-25.708700180053711 -109.387001037597660 107.501998901367190
-24.256299972534180 -110.337997436523440 110.883003234863280
-20.789100646972656 -108.113998413085940 104.285003662109370
-25.755800247192383 -110.336997985839840 110.402000427246090
-21.237499237060547 -110.190002441406250 110.942001342773440
-23.258199691772461 -110.314002990722660 110.871002197265620
-20.246099472045898 -110.119003295898440 110.921997070312500
-24.252099990844727 -109.013999938964840 106.401000976562500
-22.259700775146484 -110.268997192382810 110.847000122070310
-26.251899719238281 -110.297996520996090 109.912002563476560
-24.753900527954102 -110.351997375488280 110.391998291015620
-26.736299514770508 -110.218002319335940 109.434997558593750
-17.283800125122070 -109.864997863769530 110.338996887207030
-22.679300308227539 -108.795997619628910 105.597999572753910
-25.251100540161133 -110.310997009277340 109.899002075195310
-23.752099990844727 -110.360000610351560 110.386001586914060
-19.778600692749023 -108.074996948242190 103.824996948242190
-15.233300209045410 -109.684997558593750 109.945999145507810
-18.747699737548828 -110.077003479003910 110.413002014160160
-25.746999740600586 -110.271003723144530 109.405998229980470
-26.280700683593750 -110.135002136230470 108.839996337890620
-22.752899169921875 -110.370002746582030 110.376998901367190
-24.247900009155273 -110.343002319335940 109.892997741699220
-19.734500885009766 -110.198997497558590 110.447998046875000
-24.783300399780273 -109.612998962402340 107.330001831054690
-23.303899765014648 -109.180999755859370 106.249000549316410
-25.758100509643555 -110.036003112792970 108.387001037597660
-21.755599975585938 -110.375000000000000 110.367996215820310
-24.246299743652344 -109.495002746582030 106.916999816894530
-24.745000839233398 -110.318000793457030 109.394996643066410
-20.760599136352539 -110.343002319335940 110.350997924804690
-23.248300552368164 -110.388000488281250 109.891998291015620
-25.229799270629883 -109.931999206542970 107.949996948242190
-16.771999359130859 -109.925003051757810 109.857002258300780
-25.239999771118164 -110.279998779296870 108.907997131347660
-21.186599731445313 -108.829002380371090 105.077003479003910
-23.746500015258789 -110.372001647949220 109.393997192382810
-18.233100891113281 -110.164001464843750 109.945999145507810
-22.249900817871094 -110.430999755859370 109.888000488281250
-21.815999984741211 -109.210998535156250 105.734001159667970
-24.244800567626953 -110.355003356933590 108.898002624511720
-24.732599258422852 -110.246002197265620 108.414001464843750
-23.294399261474609 -109.658996582031250 106.783996582031250
-21.254299163818359 -110.478996276855470 109.887001037597660
-22.748500823974609 -110.435997009277340 109.393997192382810
-19.266899108886719 -110.363998413085940 109.847999572753910
-16.255399703979492 -110.017997741699220 109.392997741699220
-20.257499694824219 -110.446998596191410 109.875999450683590
-23.247100830078125 -110.397003173828120 108.894996643066410
-24.288000106811523 -110.139999389648440 107.817001342773440
-22.275699615478516 -109.589996337890620 106.341003417968750
-23.755800247192383 -110.027999877929690 107.391998291015620
-20.255599975585938 -109.025001525878910 104.891998291015620
-21.754299163818359 -110.516998291015620 109.393997192382810
-23.742500305175781 -110.352996826171870 108.400001525878910
-17.712699890136719 -110.277000427246090 109.486000061035160
-22.250600814819336 -110.482002258300780 108.894996643066410
-20.756999969482422 -110.583999633789060 109.402000427246090
-19.754699707031250 -110.522003173828120 109.393997192382810
-18.760499954223633 -110.448997497558590 109.375999450683590
-22.747499465942383 -110.430000305175780 108.394996643066410
-23.241300582885742 -110.364997863769530 107.902999877929690
-21.261100769042969 -110.592002868652340 108.896003723144530
-22.263500213623047 -110.061996459960940 106.875999450683590
-21.752899169921875 -110.508003234863280 108.394996643066410
-22.730199813842773 -110.301002502441410 107.420997619628910
-20.806999206542969 -109.666999816894530 105.771003723144530
-20.255899429321289 -109.526000976562500 105.390998840332030
-22.247499465942383 -110.443000793457030 107.897003173828120
-17.271099090576172 -110.389999389648440 108.859001159667970
-20.258899688720703 -110.622001647949220 108.902000427246090
-18.254499435424805 -110.524002075195310 108.894996643066410
-19.252199172973633 -110.617996215820310 108.908996582031250
-20.762199401855469 -110.606002807617190 108.393997192382810
-21.258600234985352 -110.036003112792970 106.386001586914060
-21.742900848388672 -110.405998229980470 107.403999328613280
-21.256700515747070 -110.541000366210940 107.892997741699220
-19.762800216674805 -110.671997070312500 108.399002075195310
-17.750200271606445 -110.580001831054690 108.405998229980470
-18.752399444580078 -110.656997680664060 108.411003112792970
-20.263599395751953 -110.615997314453120 107.891998291015620
-20.755500793457031 -110.528999328613280 107.393997192382810
-19.265600204467773 -110.682998657226560 107.898002624511720
-20.182199478149414 -110.214996337890620 106.009002685546870
-19.766000747680664 -110.629997253417970 107.391998291015620
-18.251600265502930 -110.693000793457030 107.916000366210940
-20.258600234985352 -110.553001403808590 106.891998291015620
-18.768199920654297 -110.718002319335940 107.396003723144530
-19.270200729370117 -110.660003662109370 106.886001586914060
-3.381030082702637 -115.093002319335940 95.703002929687500
-3.946810007095337 -115.113998413085940 96.124496459960938
-4.759530067443848 -112.530998229980470 96.928802490234375
-4.353970050811768 -114.571998596191410 96.274696350097656
-5.254590034484863 -113.022003173828120 96.894302368164063
-4.885049819946289 -114.595001220703120 96.753196716308594
-5.208570003509522 -114.002998352050780 96.949203491210937
-5.815209865570068 -112.004997253417970 97.246803283691406
-5.770820140838623 -114.031997680664060 97.372497558593750
-15.754199981689453 -104.521003723144530 100.899002075195310
-14.325599670410156 -104.589996337890620 100.671997070312500
-17.264999389648438 -105.115997314453120 101.266998291015620
-16.280500411987305 -105.107002258300780 101.226997375488280
-15.251199722290039 -105.016998291015620 100.906997680664060
-18.275800704956055 -105.682998657226560 101.697998046875000
-13.847100257873535 -105.113998413085940 100.622001647949220
-15.767200469970703 -105.554000854492190 101.338996887207030
-14.718600273132324 -105.481002807617190 101.003997802734370
-17.258499145507813 -106.041000366210940 101.866996765136720
-16.280500411987305 -106.101997375488280 101.757003784179690
-13.233099937438965 -105.500999450683590 100.466003417968750
-18.255599975585938 -106.526000976562500 102.389999389648440
-15.256500244140625 -106.025001525878910 101.388000488281250
-14.204600334167480 -105.972000122070310 101.023002624511720
-12.243900299072266 -105.513000488281250 99.914001464843750
-17.277200698852539 -106.607002258300780 102.272003173828120
-18.753499984741211 -107.016998291015620 102.900001525878910
-11.799400329589844 -108.805999755859370 110.269996643066410
-15.768600463867187 -106.552001953125000 101.833999633789060
-12.767200469970703 -106.035003662109370 100.357002258300780
-14.743100166320801 -106.505996704101560 101.427001953125000
-17.806699752807617 -107.127998352050780 102.719001770019530
-11.257200241088867 -109.008003234863280 109.885002136230470
-13.726499557495117 -106.488998413085940 100.963996887207030
-18.799600601196289 -107.621002197265620 103.251998901367190
-11.824899673461914 -106.082000732421870 99.768501281738281
-15.271300315856934 -107.044998168945310 101.845001220703120
-13.759300231933594 -109.484001159667970 109.880996704101560
-17.284099578857422 -107.580001831054690 102.793998718261720
-14.242099761962891 -107.007003784179690 101.426002502441410
-12.287599563598633 -106.552001953125000 100.319000244140620
-10.208200454711914 -106.004997253417970 98.985496520996094
-16.251100540161133 -107.517997741699220 102.404998779296870
-10.785099983215332 -109.316001892089840 109.263000488281250
-12.262000083923340 -109.472000122070310 109.369003295898440
-18.270299911499023 -108.055999755859370 103.345001220703120
-13.217599868774414 -106.980003356933590 100.969001770019530
-13.246100425720215 -109.596000671386720 109.422996520996090
-9.755459785461426 -109.370002746582030 109.315002441406250
-11.341799736022949 -106.588996887207030 99.728996276855469
-19.234699249267578 -108.471000671386720 103.952003479003910
-14.758099555969238 -107.526000976562500 101.885002136230470
-14.774800300598145 -109.863998413085940 109.331001281738280
-16.761100769042969 -108.031997680664060 102.876998901367190
-8.757080078125000 -109.274002075195310 108.708999633789060
-11.739899635314941 -109.637001037597660 108.959999084472660
-13.744999885559082 -107.513999938964840 101.415000915527340
-15.737099647521973 -108.004997253417970 102.436996459960940
-11.831899642944336 -107.083000183105470 100.239997863769530
-18.301300048828125 -108.632003784179690 103.762001037597660
-14.263899803161621 -109.941001892089840 108.860000610351560
-12.767399787902832 -109.837997436523440 108.809997558593750
-15.740699768066406 -110.119003295898440 108.932998657226560
-19.240100860595703 -108.986000061035160 104.431999206542970
-12.729599952697754 -107.504997253417970 100.938003540039060
-10.668000221252441 -106.972000122070310 99.543998718261719
-14.287799835205078 -108.047996520996090 101.813003540039060
-9.257289886474609 -109.768997192382810 108.550003051757810
-13.747900009155273 -110.097999572753910 108.428001403808590
-18.319000244140625 -109.169998168945310 104.236000061035160
-12.254400253295898 -110.027000427246090 108.397003173828120
-17.181800842285156 -108.907997131347660 103.556999206542970
-19.240600585937500 -109.487998962402340 104.928001403808590
-9.693169593811035 -107.004997253417970 99.005798339843750
-11.256199836730957 -110.002998352050780 108.383003234863280
-10.259400367736816 -109.936996459960940 108.343002319335940
-15.277799606323242 -110.289001464843750 108.311996459960940
-13.272199630737305 -108.031997680664060 101.361000061035160
-16.762699127197266 -110.449996948242190 108.375000000000000
-11.200300216674805 -107.491996765136720 99.992797851562500
-8.343750000000000 -107.016998291015620 98.658798217773438
-17.652599334716797 -109.343002319335940 104.097000122070310
-16.178899765014648 -108.928001403808590 103.071998596191410
-12.322299957275391 -108.052001953125000 100.773002624511720
-14.759400367736816 -110.418998718261720 107.855003356933590
-10.240400314331055 -107.517997741699220 99.417701721191406
-19.242900848388672 -109.987998962402340 105.417999267578120
-16.252700805664063 -110.546997070312500 107.901000976562500
-17.246000289916992 -110.637001037597660 107.918998718261720
-13.259499549865723 -110.362998962402340 107.820999145507810
-7.783969879150391 -110.228996276855470 108.499000549316410
-16.652000427246094 -109.383003234863280 103.595001220703120
-11.755399703979492 -110.360000610351560 107.806999206542970
-8.763179779052734 -110.244003295898440 108.024002075195310
-15.330100059509277 -109.096000671386720 102.762001037597660
-17.749200820922852 -110.734001159667970 107.427001953125000
-10.759799957275391 -110.361999511718750 107.801002502441410
-18.246900558471680 -110.004997253417970 104.908996582031250
-14.756400108337402 -109.024002075195310 102.390998840332030
-16.740699768066406 -110.709999084472660 107.436996459960940
-9.760620117187500 -110.325996398925780 107.776000976562500
-15.748200416564941 -110.639999389648440 107.430000305175780
-17.680799484252930 -109.887001037597660 104.527999877929690
-8.819540023803711 -107.540000915527340 98.747596740722656
-19.241899490356445 -110.467002868652340 105.912002563476560
-10.774499893188477 -108.027999877929690 99.870201110839844
-14.253600120544434 -110.589996337890630 107.421997070312500
-17.109899520874023 -109.809997558593750 104.138000488281250
-18.231000900268555 -110.750000000000000 106.880996704101560
-7.691150188446045 -107.536003112792970 98.583297729492188
-15.809300422668457 -109.581001281738280 103.289001464843750
-17.245100021362305 -110.806999206542970 106.872001647949220
-13.784000396728516 -109.039001464843750 101.843002319335940
-11.687800407409668 -108.502998352050780 100.517997741699220
-16.246200561523437 -110.795997619628910 106.852996826171870
-9.602109909057617 -107.975997924804690 99.122802734375000
-17.736700057983398 -110.817001342773440 106.383003234863280
-18.295999526977539 -110.692001342773440 105.837997436523440
-15.242400169372559 -110.817001342773440 106.842002868652340
-8.758090019226074 -110.611999511718750 107.442001342773440
-14.848699569702148 -109.610000610351560 102.739997863769530
-16.281900405883789 -110.058998107910160 103.849998474121090
-16.748600006103516 -110.878997802734370 106.374000549316410
-10.768899917602539 -110.720001220703120 107.213996887207030
-17.798200607299805 -110.643997192382810 105.329002380371090
-12.829199790954590 -109.053001403808590 101.267997741699220
-12.259599685668945 -110.777999877929690 107.023002624511720
-13.741399765014648 -110.870002746582030 106.836997985839840
-14.287500381469727 -109.549003601074220 102.337997436523440
-15.748299598693848 -110.918998718261720 106.374000549316410
-12.221099853515625 -109.011001586914060 100.949996948242190
-17.280300140380859 -110.581001281738280 104.861999511718750
-8.179630279541016 -108.031997680664060 98.597900390625000
-17.244100570678711 -110.920997619628910 105.888000488281250
-16.718900680541992 -110.450996398925780 104.441001892089840
-14.749699592590332 -110.964996337890620 106.377998352050780
-15.312000274658203 -110.075996398925780 103.310997009277340
-7.238770008087158 -110.956001281738280 107.873001098632810
-16.252199172973633 -110.991996765136720 105.889999389648440
-7.724830150604248 -110.888000488281250 107.348999023437500
-13.360099792480469 -109.584999084472660 101.735000610351560
-11.296699523925781 -109.030998229980470 100.324996948242190
-9.756429672241211 -110.944000244140620 106.847000122070310
-15.256699562072754 -111.041000366210940 105.898002624511720
-16.750499725341797 -110.994003295898440 105.392997741699220
-12.758299827575684 -111.083000183105470 106.421997070312500
-15.761199951171875 -110.530998229980470 103.886001586914060
-10.715200424194336 -109.014999389648440 99.961700439453125
-15.763400077819824 -111.084999084472660 105.402999877929690
-11.762700080871582 -111.140998840332030 106.453002929687500
-13.814100265502930 -110.070999145507810 102.294998168945310
-10.119299888610840 -108.989997863769530 99.607803344726563
-16.259899139404297 -111.045997619628910 104.893997192382810
-13.770999908447266 -111.205001831054690 105.958999633789060
-10.749099731445313 -111.189002990722660 106.488998413085940
-11.847999572753906 -109.546997070312500 100.747001647949220
-5.754700183868408 -111.022003173828120 106.893997192382810
-6.767950057983398 -111.152999877929690 106.958999633789060
-14.835599899291992 -110.609001159667970 103.279998779296870
-8.757309913635254 -111.169998168945310 106.488998413085940
-15.766599655151367 -111.055999755859370 104.388000488281250
-9.143730163574219 -109.009002685546870 99.092796325683594
-14.283699989318848 -110.550003051757810 102.850997924804690
-12.933099746704102 -110.114997863769530 101.627998352050780
-9.760720252990723 -111.318000793457030 106.268997192382810
-15.205400466918945 -111.273002624511720 104.851997375488280
-7.790659904479981 -111.266998291015620 106.512001037597660
-15.246299743652344 -111.008003234863280 103.903999328613280
-12.364999771118164 -110.066001892089840 101.230003356933590
-8.341329574584961 -109.019996643066410 98.718299865722656
-11.253800392150879 -111.511001586914060 105.888999938964840
-14.238499641418457 -111.433998107910160 104.875999450683590
-13.371899604797363 -110.625999450683590 102.228996276855470
-7.258480072021484 -109.021003723144530 98.383102416992188
-14.727199554443359 -111.394996643066410 104.377998352050780
-12.259200096130371 -111.557998657226560 105.407997131347660
-11.258399963378906 -110.023002624511720 100.387001037597660
-14.408699989318848 -111.310997009277340 103.778999328613280
-8.256790161132813 -111.599998474121090 105.944000244140620
-13.792300224304199 -111.068000793457030 102.848999023437500
-5.257019996643066 -111.564002990722660 106.415000915527340
-12.769599914550781 -111.647003173828120 104.935997009277340
-6.277249813079834 -109.021003723144530 97.813301086425781
-7.261370182037354 -111.654998779296870 105.966003417968750
-10.308899879455566 -110.031997680664060 99.808197021484375
-10.268699645996094 -111.791999816894530 105.549003601074220
-6.260910034179688 -111.669998168945310 105.968002319335940
-11.753299713134766 -110.522003173828120 100.897003173828120
-13.288599967956543 -111.723999023437500 104.441001892089840
-7.731309890747070 -109.527000427246090 98.450996398925781
-9.272239685058594 -111.830001831054690 105.570999145507810
-9.729260444641113 -110.017997741699220 99.434303283691406
-13.803000450134277 -111.688003540039060 103.898002624511720
-12.927900314331055 -111.220001220703120 102.176002502441410
-9.144709587097168 -110.015998840332030 99.079399108886719
-6.704699993133545 -109.528999328613280 98.047203063964844
-11.248600006103516 -111.989997863769530 104.882003784179690
-10.848999977111816 -110.560997009277340 100.245002746582030
-12.419199943542480 -111.178001403808590 101.675003051757810
-13.312700271606445 -111.612998962402340 102.844001770019530
-8.376449584960938 -110.018997192382810 98.651298522949219
-4.252120018005371 -111.948997497558590 105.861999511718750
-11.756699562072754 -112.031997680664060 104.397003173828120
-10.264900207519531 -112.111000061035160 104.935997009277340
-11.892100334167480 -111.140998840332030 101.200996398925780
-9.269439697265625 -112.199996948242190 104.994003295898440
-12.267700195312500 -112.080001831054690 103.907997131347660
-11.337400436401367 -111.079002380371090 100.768997192382810
-7.181379795074463 -110.037002563476560 98.093696594238281
-8.260310173034668 -112.263999938964840 105.037002563476560
-4.757309913635254 -112.164001464843750 105.457000732421870
-12.777299880981445 -112.101997375488280 103.403999328613280
-10.707500457763672 -112.291000366210940 104.320999145507810
-6.276219844818115 -112.236999511718750 105.000000000000000
-10.240799903869629 -111.015998840332030 99.914596557617188
-12.725999832153320 -111.959999084472660 102.405998229980470
-11.213600158691406 -112.360000610351560 103.850997924804690
-7.256490230560303 -112.404998779296870 104.820999145507810
-7.779079914093018 -110.519996643066410 98.345001220703125
-9.257450103759766 -112.541000366210940 104.401000976562500
-11.719300270080566 -112.407997131347660 103.374000549316410
-5.254069805145264 -112.434997558593750 104.853996276855470
-12.254899978637695 -112.024002075195310 101.894996643066410
-12.182000160217285 -112.321998596191410 102.877998352050780
-4.262080192565918 -112.369003295898440 104.830001831054690
-9.333609580993652 -111.061996459960940 99.283096313476563
-10.736700057983398 -111.510002136230470 100.418998718261720
-8.259289741516113 -112.646003723144530 104.463996887207030
-8.754440307617188 -111.022003173828120 98.894699096679688
-9.775670051574707 -112.639999389648440 103.935997009277340
-6.292860031127930 -110.508003234863280 97.774101257324219
-11.741000175476074 -112.002998352050780 101.405998229980470
-11.198499679565430 -111.962997436523440 100.955001831054690
-9.823960304260254 -111.566001892089840 99.805198669433594
-10.303899765014648 -112.758003234863280 103.464996337890620
-6.760620117187500 -112.823997497558590 104.262001037597660
-5.759669780731201 -112.776000976562500 104.245002746582030
-7.199679851531982 -111.031997680664060 98.029998779296875
-11.321599960327148 -112.671997070312500 102.393997192382810
-10.684900283813477 -112.804000854492190 102.837997436523440
-11.222999572753906 -112.473999023437500 101.414001464843750
-10.325400352478027 -112.083999633789060 100.318000793457030
-7.755000114440918 -113.024002075195310 103.894996643066410
-8.763339996337891 -113.064002990722660 103.411003112792970
-5.723380088806152 -111.053001403808590 97.531303405761719
-10.725899696350098 -112.484001159667970 100.915000915527340
-7.796170234680176 -111.527000427246090 98.322998046875000
-9.286060333251953 -113.158996582031250 102.950996398925780
-9.427920341491699 -112.169998168945310 99.676597595214844
-10.734199523925781 -112.980003356933590 101.892997741699220
-8.886549949645996 -112.071998596191410 99.234001159667969
-9.814270019531250 -113.208000183105470 102.446998596191410
-6.342120170593262 -111.487998962402340 97.623397827148438
-8.357789993286133 -112.056999206542970 98.753997802734375
-9.882180213928223 -112.663002014160160 100.263999938964840
-6.749849796295166 -113.467002868652340 103.365997314453120
-8.238869667053223 -113.443000793457030 102.860000610351560
-5.763800144195557 -113.442001342773440 103.343002319335940
-10.261400222778320 -113.033996582031250 100.891998291015620
-7.428380012512207 -112.073997497558590 98.115196228027344
-8.757579803466797 -113.536003112792970 102.399002075195310
-7.268730163574219 -113.616996765136720 102.939002990722660
-9.270580291748047 -113.571998596191410 101.905998229980470
-9.066889762878418 -112.859001159667970 99.582397460937500
-9.740710258483887 -113.488998413085940 101.390998840332030
-9.467249870300293 -113.265998840332030 100.218002319335940
-6.833710193634033 -112.541999816894530 97.763999938964844
-8.426879882812500 -113.177001953125000 99.197898864746094
-6.245240211486816 -112.521003723144530 97.410003662109375
-6.258840084075928 -114.093002319335940 102.435997009277340
-9.155400276184082 -113.828002929687500 100.874000549316410
-7.766019821166992 -114.056999206542970 101.911003112792970
-7.880249977111816 -113.101997375488280 98.706398010253906
-8.844079971313477 -113.639999389648440 99.838203430175781
-8.279399871826172 -114.085998535156250 101.417999267578120
-7.332900047302246 -113.058998107910160 98.280197143554688
-6.805220127105713 -114.287002563476560 102.037002563476560
-5.754429817199707 -114.503997802734370 101.883003234863280
-8.203760147094727 -113.953002929687500 99.427200317382813
-8.399829864501953 -114.276000976562500 100.378997802734370
-6.704329967498779 -113.487998962402340 97.957496643066406
-7.725379943847656 -113.990997314453120 98.920997619628906
-6.282120227813721 -114.692001342773440 101.487998962402340
-6.163849830627441 -113.469001770019530 97.517402648925781
-7.310599803924561 -114.666000366210940 100.942001342773440
-7.162069797515869 -113.941001892089840 98.497100830078125
-7.791180133819580 -114.597000122070310 100.404998779296870
-5.258500099182129 -114.903999328613280 101.320999145507810
-6.267509937286377 -115.074996948242190 100.919998168945310
-7.359179973602295 -114.679000854492190 99.348800659179688
-6.519710063934326 -114.253997802734380 98.122497558593750
-6.778619766235352 -115.077003479003910 100.411003112792970
-6.903150081634522 -114.674003601074220 98.752502441406250
-6.852039813995361 -115.180999755859370 99.373001098632813
-5.255430221557617 -115.527999877929690 100.397003173828120
-6.105070114135742 -114.912002563476560 98.047401428222656
-6.423840045928955 -115.216003417968750 98.761802673339844
-5.608320236206055 -114.912002563476560 97.549896240234375
-5.797239780426025 -115.664001464843750 99.945701599121094
-6.288380146026611 -115.585998535156250 99.395599365234375
-4.279900074005127 -115.748001098632810 100.037002563476560
-5.686240196228027 -115.458000183105470 97.952796936035156
-5.926159858703613 -115.776000976562500 98.814903259277344
-4.765920162200928 -116.078002929687500 99.420402526855469
-5.231569766998291 -115.500000000000000 97.417900085449219
-5.374310016632080 -116.263000488281250 98.894798278808594
-0.695397973060608 -119.986000061035160 94.958999633789063
-0.105203002691269 -120.265998840332030 96.708801269531250
-1.043439984321594 -119.382003784179690 95.133903503417969
-0.784727990627289 -120.105003356933590 96.458503723144531
-1.461040019989014 -118.341003417968750 95.241500854492188
-1.606359958648682 -118.953002929687500 95.550003051757813
-1.797399997711182 -119.544998168945310 95.833503723144531
-2.115819931030273 -118.440002441406250 95.979301452636719
-2.175420045852661 -118.972000122070310 96.445800781250000
-1.348909974098206 -118.677001953125000 98.036598205566406
-2.204210042953491 -119.491996765136720 96.919799804687500
-2.202589988708496 -116.996002197265620 95.473999023437500
-2.418519973754883 -117.606002807617190 95.750602722167969
-2.609980106353760 -118.416000366210940 96.487197875976563
-2.758460044860840 -117.024002075195310 95.889999389648438
-2.418679952621460 -119.184997558593750 97.864700317382813
-2.889869928359985 -117.611000061035160 96.284797668457031
-2.722340106964111 -118.486000061035160 97.394699096679688
-1.770810008049011 -113.454002380371090 101.836997985839840
-3.169280052185059 -117.925003051757810 96.922897338867188
-3.353919982910156 -117.085998535156250 96.269096374511719
-2.717730045318604 -115.532997131347660 95.461303710937500
-3.149780035018921 -118.404998779296870 97.942001342773438
-3.252559900283814 -116.021003723144530 95.897697448730469
-3.632519960403442 -117.361999511718750 96.954803466796875
-3.558769941329956 -117.800003051757810 97.514198303222656
-3.867120027542114 -116.625999450683590 96.768699645996094
-3.852999925613403 -116.107002258300780 96.232002258300781
-3.617350101470947 -117.857002258300780 98.424499511718750
-1.774459958076477 -115.857002258300780 99.708999633789063
-1.254870057106018 -115.033996582031250 100.406997680664060
-1.258520007133484 -113.999000549316410 101.378997802734370
-1.779680013656616 -114.463996887207030 100.804000854492190
-2.329649925231934 -114.860000610351560 100.663002014160160
-2.285429954528809 -115.430000305175780 100.267997741699220
-2.259789943695068 -114.024002075195310 101.388999938964840
-2.720459938049316 -116.171997070312500 99.582099914550781
-3.281980037689209 -115.373001098632810 100.272003173828120
-2.801860094070435 -113.809997558593750 101.755996704101560
-3.281110048294067 -114.899002075195310 100.804000854492190
-2.250989913940430 -113.703002929687500 102.467002868652340
-3.283329963684082 -114.402000427246090 101.307998657226560
-4.258719921112061 -116.025001525878910 96.887603759765625
-2.792609930038452 -112.913002014160160 102.815002441406250
-3.272749900817871 -113.470001220703120 102.360000610351560
-3.753360033035278 -114.027000427246090 101.898002624511720
-3.780030012130737 -116.236000061035160 99.543403625488281
-4.747889995574951 -115.515998840332030 96.902000427246094
-4.803649902343750 -116.086997985839840 97.342002868652344
-4.365709781646729 -116.759002685546870 98.943199157714844
-4.900139808654785 -116.708000183105470 98.332099914550781
-4.486710071563721 -116.786003112792970 97.759498596191406
-3.306839942932129 -117.128997802734370 98.945701599121094
-4.393070220947266 -117.194000244140620 98.339103698730469
-4.060969829559326 -117.242996215820310 97.476898193359375
-3.754280090332031 -112.527000427246090 104.396003723144530
-2.827009916305542 -112.283996582031250 103.767997741699220
-3.818880081176758 -112.780998229980470 103.742996215820310
-4.771910190582275 -112.924003601074220 103.836997985839840
-3.321609973907471 -112.788002014160160 103.260002136230470
-4.796840190887451 -113.301002502441410 103.258003234863280
-3.812220096588135 -113.333000183105470 102.772003173828120
-5.285140037536621 -113.817001342773440 102.759002685546870
-4.297080039978027 -113.886001586914060 102.295997619628910
-4.772580146789551 -114.425003051757810 101.830001831054690
-4.284420013427734 -114.809997558593750 101.257003784179690
-4.274519920349121 -115.285003662109370 100.733001708984370
-5.260179996490479 -116.027999877929690 97.890800476074219
