ply
format ascii 1.0
element vertex 340
property double x
property double y
property double z
end_header
-2.246550083160400 9.868320465087891 -18.414800643920898
-2.274549961090088 9.754320144653320 -18.312799453735352
-2.144560098648071 9.974320411682129 -18.341800689697266
-2.270560026168823 9.751319885253906 -18.530799865722656
-2.302550077438355 9.833319664001465 -18.204799652099609
-2.234560012817383 9.951319694519043 -18.206800460815430
-2.235559940338135 9.628319740295410 -18.492799758911133
-2.003550052642822 9.989319801330566 -18.349800109863281
-2.113549947738648 9.991319656372070 -18.200799942016602
-2.394560098648071 9.728320121765137 -18.625799179077148
-2.226550102233887 9.659319877624512 -18.192800521850586
-2.287549972534180 9.655320167541504 -18.634799957275391
-2.497550010681152 9.805319786071777 -18.602800369262695
-2.262559890747070 9.771320343017578 -18.105800628662109
-2.232549905776978 9.925319671630859 -18.032800674438477
-2.157560110092163 9.482319831848145 -18.403799057006836
-1.920549988746643 9.962320327758789 -18.198799133300781
-2.117559909820557 9.983320236206055 -18.043800354003906
-2.000550031661987 9.989319801330566 -18.108800888061523
-2.119549989700317 9.515319824218750 -18.226800918579102
-2.174550056457520 9.595319747924805 -18.086799621582031
-1.821550011634827 9.867320060729981 -18.304800033569336
-2.241559982299805 9.425319671630859 -18.481800079345703
-2.024549961090088 9.481320381164551 -18.356800079345703
-2.222549915313721 9.697319984436035 -17.989799499511719
-1.907559990882874 9.556320190429688 -18.362800598144531
-2.227560043334961 9.840319633483887 -17.893800735473633
-2.140549898147583 9.977319717407227 -17.876800537109375
-2.226550102233887 9.766320228576660 -17.760799407958984
-2.197550058364868 9.641320228576660 -17.873800277709961
-2.042550086975098 9.994319915771484 -17.799800872802734
-2.210550069808960 9.890319824218750 -17.677799224853516
-1.985560059547424 9.991319656372070 -17.983800888061523
-2.108550071716309 9.986319541931152 -17.692800521850586
-1.912549972534180 9.965319633483887 -17.862800598144531
-2.211549997329712 9.669320106506348 -17.655799865722656
-2.129559993743897 9.549320220947266 -17.819799423217773
-2.229549884796143 9.782320022583008 -17.591800689697266
-1.876549959182739 9.942319869995117 -18.038799285888672
-2.068559885025024 9.526320457458496 -17.971799850463867
-1.933550000190735 9.612319946289063 -17.976800918579102
-1.873559951782227 9.770319938659668 -17.801799774169922
-1.856549978256226 9.729319572448731 -17.999799728393555
-1.987550020217896 9.569319725036621 -17.817800521850586
-2.203550100326538 9.916319847106934 -17.529800415039062
-1.945549964904785 9.666319847106934 -17.713800430297852
-2.096560001373291 10.000300407409668 -17.560800552368164
-1.884549975395203 9.907320022583008 -17.660800933837891
-1.812549948692322 9.821319580078125 -18.124799728393555
-2.017549991607666 9.515319824218750 -18.136800765991211
-1.961549997329712 10.008299827575684 -17.602800369262695
-2.156549930572510 9.979319572448731 -17.433799743652344
-2.221560001373291 9.864319801330566 -17.379800796508789
-2.229549884796143 9.745320320129395 -17.464799880981445
-2.178560018539429 9.962320327758789 -17.306800842285156
-2.243550062179565 9.795319557189941 -17.256799697875977
-1.967550039291382 10.029299736022949 -17.452800750732422
-2.076550006866455 10.046299934387207 -17.269800186157227
-2.210550069808960 9.636320114135742 -17.337799072265625
-1.872550010681152 9.948320388793945 -17.535800933837891
-1.909559965133667 9.990320205688477 -17.314800262451172
-1.917549967765808 9.698320388793945 -17.428800582885742
-2.142549991607666 9.562319755554199 -17.564800262451172
-1.888560056686401 9.765319824218750 -17.603799819946289
-1.838559985160828 9.838319778442383 -17.475799560546875
-1.876549959182739 9.787320137023926 -17.352800369262695
-2.121550083160400 9.541319847106934 -17.389799118041992
-1.981549978256226 9.576319694519043 -17.486799240112305
-1.933550000190735 9.675319671630859 -17.286800384521484
-2.181550025939941 9.983320236206055 -17.100799560546875
-1.967550039291382 10.059300422668457 -17.186800003051758
-1.892549991607666 9.783320426940918 -17.229799270629883
-2.207560062408447 9.616319656372070 -17.170799255371094
-2.240550041198731 9.861319541931152 -17.064800262451172
-2.000550031661987 9.555319786071777 -17.313800811767578
-2.068559885025024 10.059300422668457 -17.105800628662109
-2.034559965133667 9.535320281982422 -17.667800903320312
-2.244549989700317 9.728320121765137 -17.078800201416016
-2.224550008773804 9.919320106506348 -16.911800384521484
-2.086549997329712 10.057299613952637 -16.949800491333008
-2.243550062179565 9.767319679260254 -16.950799942016602
-2.168550014495850 10.011300086975098 -16.797800064086914
-1.954550027847290 10.072299957275391 -17.033800125122070
-2.245549917221069 9.757320404052734 -16.827800750732422
-1.904549956321716 9.975319862365723 -16.959800720214844
-1.903550028800964 9.835320472717285 -17.046800613403320
-1.918550014495850 9.857319831848145 -16.914800643920898
-1.888560056686401 9.981320381164551 -17.119800567626953
-2.016550064086914 10.100299835205078 -16.836799621582031
-1.911550045013428 9.971320152282715 -16.830799102783203
-1.942559957504273 9.680319786071777 -17.049800872802734
-1.960549950599670 9.736319541931152 -16.810800552368164
-1.968549966812134 9.644319534301758 -16.921800613403320
-2.196549892425537 9.584320068359375 -16.897800445556641
-2.249560117721558 9.795319557189941 -16.690799713134766
-2.083549976348877 10.083299636840820 -16.698799133300781
-1.934550046920776 9.863320350646973 -16.724800109863281
-2.224550008773804 9.935319900512695 -16.646799087524414
-2.000550031661987 9.545319557189941 -17.148799896240234
-2.069550037384033 9.500320434570313 -17.003799438476562
-1.955549955368042 10.092300415039062 -16.692800521850586
-2.001549959182739 9.542320251464844 -16.853799819946289
-2.227560043334961 9.626319885253906 -16.698799133300781
-1.981549978256226 9.809320449829102 -16.619800567626953
-2.154550075531006 10.048299789428711 -16.583799362182617
-2.111550092697144 9.483320236206055 -16.876800537109375
-2.225549936294556 9.934320449829102 -16.492799758911133
-2.184550046920776 10.033300399780273 -16.429800033569336
-1.967550039291382 9.924320220947266 -16.528799057006836
-2.265549898147583 9.813320159912109 -16.566799163818359
-1.990550041198731 10.119299888610840 -16.525800704956055
-1.978559970855713 9.895319938659668 -16.399799346923828
-2.035550117492676 9.735320091247559 -16.502799987792969
-2.260550022125244 9.842320442199707 -16.355800628662109
-2.198549985885620 9.701319694519043 -16.462799072265625
-2.022550106048584 9.776320457458496 -16.330799102783203
-1.951550006866455 9.956319808959961 -16.293800354003906
-2.017549991607666 10.141300201416016 -16.310800552368164
-2.223550081253052 9.735320091247559 -16.299800872802734
-2.211549997329712 9.992320060729981 -16.216800689697266
-1.950559973716736 9.628319740295410 -16.508800506591797
-2.115550041198731 10.121299743652344 -16.224800109863281
-1.977560043334961 9.862319946289063 -16.212799072265625
-2.270560026168823 9.863320350646973 -16.190799713134766
-2.069550037384033 9.555319786071777 -16.440799713134766
-2.169549942016602 9.578319549560547 -16.356800079345703
-2.274549961090088 9.546319961547852 -16.542800903320312
-1.933550000190735 10.025300025939941 -16.187799453735352
-1.967550039291382 9.551320075988770 -16.697799682617188
-2.197550058364868 10.059300422668457 -16.108800888061523
-2.258549928665161 9.954319953918457 -16.061800003051758
-1.969550013542175 9.963319778442383 -16.041799545288086
-2.213560104370117 10.075300216674805 -15.974800109863281
-2.051549911499023 9.801320075988770 -16.021799087524414
-2.112550020217896 10.171299934387207 -16.020799636840820
-1.999559998512268 9.910320281982422 -15.921799659729004
-2.274549961090088 9.961319923400879 -15.919799804687500
-2.249560117721558 9.827320098876953 -15.964799880981445
-2.218549966812134 9.741319656372070 -16.114799499511719
-1.961549997329712 10.029299736022949 -15.904800415039063
-1.937549948692322 10.153300285339355 -16.066799163818359
-2.094549894332886 9.713319778442383 -16.099800109863281
-2.137559890747070 9.737319946289063 -15.921799659729004
-2.162549972534180 10.195300102233887 -15.879799842834473
-2.018559932708740 10.210300445556641 -15.903800010681152
-2.249560117721558 9.860320091247559 -15.822799682617188
-2.274549961090088 10.042300224304199 -15.806799888610840
-2.044549942016602 9.780320167541504 -15.834799766540527
-1.930549979209900 10.152299880981445 -15.821800231933594
-1.917549967765808 9.992320060729981 -15.761799812316895
-2.119549989700317 9.589320182800293 -16.198799133300781
-2.270560026168823 9.945320129394531 -15.718799591064453
-2.050549983978272 10.257300376892090 -15.791799545288086
-2.289560079574585 10.093299865722656 -15.682800292968750
-2.223550081253052 9.808320045471191 -15.678799629211426
-2.256560087203980 10.044300079345703 -15.560799598693848
-2.197550058364868 10.171299934387207 -15.564800262451172
-2.253550052642822 9.862319946289063 -15.534799575805664
-2.273550033569336 9.969320297241211 -15.436800003051758
-2.230550050735474 10.087300300598145 -15.400799751281738
-2.090549945831299 9.750320434570313 -15.660799980163574
-2.148550033569336 10.204299926757812 -15.429800033569336
-1.918550014495850 10.192299842834473 -15.673800468444824
-1.966549992561340 9.796319961547852 -15.690799713134766
-2.301549911499023 10.238300323486328 -15.706800460815430
-1.844550013542175 10.026300430297852 -15.655799865722656
-2.175549983978272 10.300299644470215 -15.730799674987793
-2.035550117492676 10.303299903869629 -15.605799674987793
-1.856549978256226 10.095299720764160 -15.513799667358398
-1.926550030708313 9.805319786071777 -15.542799949645996
-1.856549978256226 9.861319541931152 -15.658800125122070
-2.206559896469116 10.324299812316895 -15.567799568176270
-2.034559965133667 9.770319938659668 -15.450799942016602
-2.171560049057007 9.765319824218750 -15.425800323486328
-1.918550014495850 10.270299911499023 -15.514800071716309
-2.253550052642822 9.847319602966309 -15.325799942016602
-2.259550094604492 10.043299674987793 -15.277799606323242
-2.305550098419190 10.359299659729004 -15.651800155639648
-1.963559985160828 9.818320274353027 -15.353799819946289
-1.798550009727478 9.861319541931152 -15.500800132751465
-1.741559982299805 9.991319656372070 -15.551799774169922
-2.008549928665161 10.346300125122070 -15.432800292968750
-1.815549969673157 10.171299934387207 -15.422800064086914
-2.122550010681152 10.343299865722656 -15.383799552917480
-2.106549978256226 10.235300064086914 -15.267800331115723
-1.822550058364868 9.881319999694824 -15.371800422668457
-2.195549964904785 10.154299736022949 -15.215800285339355
-1.899549961090088 9.883319854736328 -15.257800102233887
-2.040560007095337 9.775320053100586 -15.250800132751465
-2.166559934616089 10.206299781799316 -15.097800254821777
-2.259550094604492 10.116299629211426 -15.035799980163574
-2.282560110092163 9.979319572448731 -15.088800430297852
-2.257550001144409 9.862319946289063 -15.137800216674805
-1.877550005912781 9.958319664001465 -15.115799903869629
-2.000550031661987 9.830320358276367 -15.131799697875977
-2.271549940109253 9.866319656372070 -15.006799697875977
-2.212549924850464 9.776320457458496 -15.216799736022949
-2.116559982299805 9.754320144653320 -15.134799957275391
-1.789559960365295 10.056300163269043 -15.074799537658691
-2.314549922943115 9.975319862365723 -14.899800300598145
-1.941550016403198 9.901320457458496 -14.910799980163574
-2.268559932708740 10.178299903869629 -14.846799850463867
-2.189549922943115 9.793319702148438 -14.945799827575684
-1.822550058364868 10.290300369262695 -15.322799682617188
-1.743549942970276 10.169300079345703 -15.095800399780273
-1.725550055503845 10.066300392150879 -15.186800003051758
-1.802549958229065 10.078300476074219 -14.937800407409668
-1.913550019264221 10.370300292968750 -15.348799705505371
-2.249560117721558 10.417300224304199 -15.346799850463867
-1.742560029029846 10.211299896240234 -15.240799903869629
-1.752550005912781 9.953319549560547 -15.295800209045410
-2.323549985885620 10.061300277709961 -14.807800292968750
-2.251549959182739 9.852319717407227 -14.835800170898438
-2.299550056457520 10.474300384521484 -15.220800399780273
-1.746549963951111 10.208299636840820 -14.974800109863281
-2.028549909591675 9.792320251464844 -14.842800140380859
-1.895560026168823 9.987319946289063 -14.788800239562988
-2.266550064086914 10.257300376892090 -14.602800369262695
-2.331559896469116 10.152299880981445 -14.617799758911133
-2.318559885025024 10.021300315856934 -14.679800033569336
-1.879559993743897 10.199299812316895 -14.648799896240234
-1.968549966812134 10.257300376892090 -14.508799552917480
-1.853559970855713 10.092300415039062 -14.727800369262695
-1.890550017356873 10.070300102233887 -14.587800025939941
-1.927549958229065 9.940320014953613 -14.658800125122070
-2.098550081253052 10.326299667358398 -14.449799537658691
-2.287549972534180 10.300299644470215 -14.483799934387207
-2.249560117721558 9.860320091247559 -14.587800025939941
-1.962550044059753 9.835320472717285 -14.736800193786621
-2.140549898147583 9.799320220947266 -14.733799934387207
-1.758550047874451 10.187299728393555 -14.784799575805664
-2.407560110092163 10.096300125122070 -14.495800018310547
-1.869549989700317 10.082300186157227 -14.450799942016602
-2.035550117492676 9.810319900512695 -14.607799530029297
-2.205549955368042 10.355299949645996 -14.387800216674805
-1.945549964904785 9.890319824218750 -14.493800163269043
-1.919549942016602 10.205300331115723 -14.366800308227539
-2.426549911499023 10.236300468444824 -14.451800346374512
-2.157560110092163 9.798319816589356 -14.517800331115723
-2.258549928665161 9.865320205688477 -14.437800407409668
-2.324559926986694 10.323300361633301 -14.362799644470215
-2.372550010681152 9.962320327758789 -14.408800125122070
-1.990550041198731 10.146300315856934 -14.278800010681152
-2.124560117721558 10.327300071716309 -14.287799835205078
-2.110559940338135 10.223299980163574 -14.198800086975098
-2.211549997329712 10.389300346374512 -14.199799537658691
-2.153549909591675 10.202300071716309 -14.070799827575684
-2.156549930572510 10.352299690246582 -14.077799797058105
-2.040560007095337 10.030300140380859 -14.180800437927246
-2.156549930572510 10.031299591064453 -14.129799842834473
-2.366559982299805 10.295299530029297 -14.211799621582031
-2.302550077438355 10.387299537658691 -14.109800338745117
-2.154550075531006 10.093299865722656 -13.993800163269043
-1.869549989700317 10.089300155639648 -14.196800231933594
-2.409559965133667 10.213299751281738 -14.123800277709961
-2.456559896469116 10.168299674987793 -14.240799903869629
-2.166559934616089 10.269300460815430 -13.928799629211426
-1.814550042152405 10.106300354003906 -14.328800201416016
-2.377549886703491 10.284299850463867 -13.995800018310547
-1.924550056457520 9.973320007324219 -14.102800369262695
-2.467550039291382 10.073300361633301 -14.371800422668457
-2.304559946060181 10.418299674987793 -13.965800285339355
-2.517549991607666 10.194299697875977 -14.362799644470215
-2.240550041198731 9.842320442199707 -14.262800216674805
-2.433549880981445 10.157299995422363 -13.979800224304199
-1.845559954643250 9.943320274353027 -14.355799674987793
-2.074559926986694 9.902319908142090 -13.997799873352051
-2.141550064086914 9.824319839477539 -14.378800392150879
-1.759549975395203 10.020299911499023 -14.254799842834473
-2.189549922943115 10.441300392150879 -13.861800193786621
-2.179559946060181 9.963319778442383 -13.892800331115723
-2.541559934616089 10.082300186157227 -14.120800018310547
-2.355550050735474 9.844320297241211 -14.156800270080566
-1.789559960365295 9.955320358276367 -14.132800102233887
-2.015549898147583 9.801320075988770 -14.371800422668457
-2.160550117492676 10.144300460815430 -13.720800399780273
-2.163549900054932 10.339300155639648 -13.766799926757813
-2.171560049057007 10.016300201416016 -13.751799583435059
-2.170550107955933 10.384300231933594 -13.645799636840820
-2.391550064086914 10.309300422668457 -13.871800422668457
-2.423549890518189 10.285300254821777 -13.734800338745117
-2.341550111770630 10.435299873352051 -13.806799888610840
-2.402559995651245 10.392299652099609 -13.671799659729004
-2.271549940109253 10.515299797058105 -13.719799995422363
-2.479549884796143 10.135299682617187 -13.852800369262695
-2.164560079574585 9.868320465087891 -13.742799758911133
-2.501549959182739 10.160300254821777 -13.732799530029297
-2.082560062408447 9.794320106506348 -13.839799880981445
-2.516550064086914 10.045299530029297 -13.975799560546875
-2.573549985885620 10.049300193786621 -13.824799537658691
-2.152559995651245 9.780320167541504 -13.656800270080566
-2.137559890747070 10.287300109863281 -13.455800056457520
-2.405550003051758 10.494299888610840 -13.497799873352051
-2.228559970855713 9.750320434570313 -13.445799827575684
-2.459549903869629 10.385299682617187 -13.522800445556641
-2.197550058364868 10.489299774169922 -13.553799629211426
-2.200560092926025 9.855319976806641 -13.512800216674805
-2.320549964904785 10.543299674987793 -13.593799591064453
-2.577549934387207 10.104299545288086 -13.557800292968750
-2.516550064086914 10.226300239562988 -13.580800056457520
-2.139549970626831 10.132300376892090 -13.588800430297852
-2.139549970626831 9.947319984436035 -13.571800231933594
-2.123559951782227 9.717320442199707 -13.549799919128418
-2.152559995651245 10.261300086975098 -13.618800163269043
-2.603559970855713 10.048299789428711 -13.676799774169922
-2.013560056686401 9.695320129394531 -13.687800407409668
-2.644560098648071 10.009300231933594 -14.024800300598145
-1.927549958229065 9.867320060729981 -14.013799667358398
-2.767549991607666 9.973320007324219 -14.048800468444824
-2.472549915313721 9.862319946289063 -14.075799942016602
-2.263560056686401 9.781319618225098 -14.092800140380859
-2.719549894332886 10.089300155639648 -14.146800041198730
-2.674550056457520 9.972319602966309 -14.139800071716309
-1.792549967765808 9.803319931030273 -14.112799644470215
-2.606549978256226 10.145299911499023 -14.217800140380859
-2.512559890747070 9.922320365905762 -14.196800231933594
-2.033560037612915 9.753319740295410 -14.178799629211426
-2.579550027847290 10.017299652099609 -14.238800048828125
-1.866559982299805 9.824319839477539 -14.214799880981445
-1.695549964904785 9.954319953918457 -15.416799545288086
-1.714560031890869 10.085300445556641 -15.433799743652344
-2.147550106048584 9.415320396423340 -16.147800445556641
-2.316550016403198 9.462320327758789 -16.193799972534180
-2.209549903869629 9.510319709777832 -16.233800888061523
-2.051549911499023 9.481320381164551 -16.269800186157227
-2.227560043334961 9.390319824218750 -16.320800781250000
-2.116559982299805 9.292320251464844 -16.313800811767578
-1.944550037384033 9.336319923400879 -16.352800369262695
-1.928560018539429 9.521320343017578 -16.395799636840820
-2.231549978256226 9.497320175170898 -16.432800292968750
-2.009550094604492 9.338319778442383 -16.465799331665039
-2.117559909820557 9.388319969177246 -16.526800155639648
-1.937549948692322 9.491319656372070 -16.592800140380859
-2.194550037384033 9.477319717407227 -16.609800338745117
-2.015549898147583 9.395319938659668 -16.610799789428711
-2.166559934616089 9.512319564819336 -16.765800476074219
-2.042550086975098 9.463319778442383 -16.761800765991211
-1.840549945831299 9.676320075988770 -18.129800796508789
-1.898550033569336 9.557319641113281 -18.177799224853516
-1.828549981117249 9.688320159912109 -18.304800033569336
