ply
format ascii 1.0
element vertex 202
property double x
property double y
property double z
end_header
-2.553560018539429 7.331319808959961 -14.818799972534180
-2.553560018539429 7.331319808959961 -14.818799972534180
-2.516550064086914 7.557320117950440 -14.845800399780273
-2.584549903869629 7.175320148468018 -14.812800407409668
-2.393559932708740 7.557320117950440 -14.856800079345703
-2.497550010681152 7.087319850921631 -14.811800003051758
-2.431550025939941 7.356319904327393 -14.844799995422363
-2.448549985885620 7.210319995880127 -14.835800170898438
-2.451550006866455 7.693319797515869 -14.892800331115723
-2.691550016403198 6.772319793701172 -14.805800437927246
-2.615550041198731 6.991320133209229 -14.834799766540527
-2.564549922943115 6.808320045471191 -14.822799682617188
-2.343549966812134 7.436319828033447 -14.920800209045410
-2.460550069808960 6.907320022583008 -14.863800048828125
-2.507550001144409 7.401319980621338 -14.939800262451172
-2.537549972534180 7.247320175170898 -14.933799743652344
-2.285550117492676 7.561319828033447 -14.965800285339355
-2.647550106048584 6.867320060729981 -14.894800186157227
-2.518559932708740 6.636320114135742 -14.867799758911133
-2.567559957504273 7.098320007324219 -14.922800064086914
-2.196549892425537 7.420320034027100 -14.963800430297852
-2.719549894332886 6.615320205688477 -14.883799552917480
-2.345560073852539 6.869319915771484 -14.909799575805664
-2.290560007095337 7.262320041656494 -14.953800201416016
-2.376549959182739 7.045320034027100 -14.933799743652344
-2.104549884796143 7.510320186614990 -14.983799934387207
-2.401560068130493 6.711319923400879 -14.902799606323242
-2.415560007095337 7.934319972991943 -15.042799949645996
-2.654550075531006 6.460319995880127 -14.884799957275391
-2.800549983978272 6.446320056915283 -14.888799667358398
-2.050549983978272 7.306320190429688 -14.972800254821777
-2.350549936294556 7.700319766998291 -15.022800445556641
-2.235559940338135 7.144320011138916 -14.958800315856934
-2.222549915313721 6.829319953918457 -14.928799629211426
-2.252549886703491 6.986320018768311 -14.949799537658691
-2.213560104370117 7.658319950103760 -15.031800270080566
-2.084549903869629 7.175320148468018 -14.975799560546875
-2.460550069808960 8.051320075988770 -15.095800399780273
-2.573549985885620 6.933320045471191 -14.972800254821777
-2.126549959182739 6.942319869995117 -14.967800140380859
-2.415560007095337 6.560319900512695 -14.931799888610840
-2.531549930572510 6.453320026397705 -14.929800033569336
-2.234560012817383 7.790319919586182 -15.078800201416016
-2.430550098419190 7.217319965362549 -15.022800445556641
-2.395560026168823 7.417319774627686 -15.047800064086914
-2.468549966812134 7.096320152282715 -15.015800476074219
-2.707560062408447 6.346320152282715 -14.939800262451172
-2.203550100326538 7.941319942474365 -15.112799644470215
-2.362550020217896 7.591320037841797 -15.082799911499023
-2.510550022125244 8.230319976806641 -15.157799720764160
-2.741559982299805 6.521319866180420 -14.972800254821777
-2.029550075531006 7.708320140838623 -15.094799995422363
-2.096560001373291 7.861320018768311 -15.118800163269043
-2.298549890518189 6.574319839477539 -14.978799819946289
-2.379559993743897 8.169320106506348 -15.165800094604492
-2.034559965133667 7.494319915771484 -15.087800025939941
-2.576550006866455 6.793320178985596 -15.020799636840820
-2.241559982299805 7.291319847106934 -15.076800346374512
-2.156549930572510 7.042319774627686 -15.049799919128418
-2.884550094604492 6.258319854736328 -14.974800109863281
-2.361550092697144 7.791319847106934 -15.140800476074219
-2.174550056457520 7.183320045471191 -15.070799827575684
-2.183549880981445 7.444320201873779 -15.102800369262695
-2.305550098419190 7.071320056915283 -15.067799568176270
-2.531549930572510 6.293320178985596 -14.988800048828125
-2.444550037384033 6.390319824218750 -15.000800132751465
-2.212549924850464 6.914319992065430 -15.057800292968750
-2.811559915542603 6.373320102691650 -15.009799957275391
-2.766550064086914 6.223320007324219 -14.993800163269043
-2.241559982299805 7.595320224761963 -15.139800071716309
-2.116559982299805 7.630320072174072 -15.149800300598145
-2.346560001373291 6.917319774627686 -15.074799537658691
-2.204550027847290 6.643320083618164 -15.052800178527832
-2.266550064086914 8.107319831848145 -15.219799995422363
-2.442559957504273 6.733320236206055 -15.081800460815430
-2.626549959182739 6.191319942474365 -15.025799751281738
-2.306550025939941 6.771319866180420 -15.086799621582031
-2.597549915313721 6.582320213317871 -15.073800086975098
-2.035550117492676 7.792319774627686 -15.203800201416016
-2.187550067901611 7.762320041656494 -15.205800056457520
-2.458549976348877 8.126319885253906 -15.253800392150879
-2.359560012817383 7.959320068359375 -15.234800338745117
-2.533560037612915 8.326319694519043 -15.291799545288086
-2.022550106048584 8.048319816589356 -15.251799583435059
-2.331559896469116 8.232319831848145 -15.284799575805664
-2.352560043334961 6.614319801330566 -15.107799530029297
-2.166559934616089 8.177319526672363 -15.284799575805664
-2.664560079574585 6.405320167541504 -15.097800254821777
-2.479549884796143 6.548319816589356 -15.120800018310547
-2.228559970855713 7.908319950103760 -15.271800041198730
-2.752549886703491 6.305319786071777 -15.101799964904785
-2.092550039291382 7.924320220947266 -15.273799896240234
-2.691550016403198 6.047319889068604 -15.078800201416016
-2.857549905776978 6.183320045471191 -15.098799705505371
-2.359560012817383 8.069319725036621 -15.304800033569336
-2.450560092926025 6.071320056915283 -15.086799621582031
-2.270560026168823 6.476319789886475 -15.132800102233887
-2.325560092926025 6.221320152282715 -15.105799674987793
-2.093549966812134 8.308320045471191 -15.343799591064453
-2.246550083160400 8.304320335388184 -15.347800254821777
-2.153549909591675 8.022319793701172 -15.321800231933594
-2.356549978256226 8.363320350646973 -15.368800163269043
-2.556550025939941 8.442319869995117 -15.383799552917480
-2.391550064086914 6.419320106506348 -15.153800010681152
-2.426549911499023 8.206319808959961 -15.363800048828125
-2.288549900054932 6.334320068359375 -15.158800125122070
-2.056550025939941 8.174320220947266 -15.364800453186035
-2.253550052642822 8.103320121765137 -15.364800453186035
-2.009550094604492 8.600319862365723 -15.420800209045410
-2.190550088882446 8.457320213317871 -15.411800384521484
-2.527559995651245 6.332320213317871 -15.182800292968750
-2.482549905776978 8.321319580078125 -15.412799835205078
-1.978559970855713 8.387319564819336 -15.421799659729004
-2.328550100326538 8.464320182800293 -15.443799972534180
-2.854549884796143 6.008319854736328 -15.178799629211426
-2.414560079574585 6.285319805145264 -15.203800201416016
-2.617559909820557 6.239319801330566 -15.202799797058105
-2.587549924850464 5.807320117950440 -15.158800125122070
-2.743550062179565 6.146319866180420 -15.201800346374512
-2.467550039291382 5.869319915771484 -15.185799598693848
-2.210550069808960 8.589320182800293 -15.496800422668457
-2.749560117721558 5.876319885253906 -15.200799942016602
-2.346560001373291 6.128320217132568 -15.224800109863281
-2.123559951782227 8.336319923400879 -15.481800079345703
-1.952550053596497 8.709320068359375 -15.521800041198730
-2.521549940109253 6.163320064544678 -15.249799728393555
-2.300549983978272 8.331319808959961 -15.501799583435059
-2.415560007095337 8.597319602966309 -15.537799835205078
-2.500550031661987 8.463319778442383 -15.525799751281738
-2.892549991607666 5.902319908142090 -15.257800102233887
-2.067559957504273 8.483320236206055 -15.555800437927246
-2.420550107955933 6.031320095062256 -15.285799980163574
-2.759550094604492 6.009319782257080 -15.294799804687500
-2.188549995422363 8.444319725036621 -15.566800117492676
-1.953549981117249 8.820320129394531 -15.606800079345703
-2.175549983978272 8.724320411682129 -15.604800224304199
-2.303560018539429 8.626319885253906 -15.601799964904785
-2.563549995422363 5.685319900512695 -15.275799751281738
-2.386559963226318 8.478320121765137 -15.588800430297852
-2.767549991607666 5.795320034027100 -15.292799949645996
-2.499560117721558 8.650320053100586 -15.614800453186035
-2.077549934387207 8.816320419311523 -15.636799812316895
-2.685559988021851 5.658319950103760 -15.296799659729004
-2.528549909591675 5.985320091247559 -15.345800399780273
-2.130559921264648 8.567319869995117 -15.632800102233887
-1.931550025939941 8.917320251464844 -15.688799858093262
-2.618550062179565 5.546319961547852 -15.349800109863281
-2.498559951782227 8.799320220947266 -15.717800140380859
-2.410550117492676 8.688320159912109 -15.703800201416016
-2.791559934616089 5.644320011138916 -15.370800018310547
-2.499560117721558 5.749320030212402 -15.386799812316895
-2.193559885025024 8.854319572448731 -15.742799758911133
-2.874560117721558 5.826320171356201 -15.412799835205078
-2.660550117492676 5.906320095062256 -15.422800064086914
-2.046560049057007 8.963319778442383 -15.762800216674805
-2.723550081253052 5.464320182800293 -15.393799781799316
-2.238549947738648 8.688320159912109 -15.749799728393555
-2.908560037612915 5.714320182800293 -15.453800201416016
-2.440550088882446 8.926320075988770 -15.808799743652344
-2.303560018539429 8.799320220947266 -15.806799888610840
-2.615550041198731 5.333320140838623 -15.427800178527832
-2.076550006866455 8.800319671630859 -15.810799598693848
-1.991559982299805 9.090319633483887 -15.849800109863281
-2.613549947738648 5.806320190429688 -15.490799903869629
-2.529550075531006 5.443319797515869 -15.448800086975098
-2.782560110092163 5.809319972991943 -15.497799873352051
-2.147550106048584 9.003319740295410 -15.854800224304199
-2.844549894332886 5.451320171356201 -15.486800193786621
-2.512559890747070 5.599319934844971 -15.510800361633301
-1.977560043334961 8.917320251464844 -15.876799583435059
-2.342550039291382 9.030320167541504 -15.902799606323242
-2.184550046920776 8.870320320129395 -15.888799667358398
-2.062550067901611 9.165320396423340 -15.950799942016602
-2.931550025939941 5.509319782257080 -15.564800262451172
-2.603559970855713 5.702320098876953 -15.586799621582031
-2.938549995422363 5.635320186614990 -15.591799736022949
-2.301549911499023 9.138319969177246 -15.984800338745117
-2.225549936294556 8.980319976806641 -15.970800399780273
-2.917550086975098 5.348320007324219 -15.574799537658691
-2.088560104370117 8.981320381164551 -15.983799934387207
-2.774549961090088 5.694320201873779 -15.626799583435059
-2.142549991607666 9.262319564819336 -16.044799804687500
-1.955549955368042 9.295319557189941 -16.046800613403320
-1.982550024986267 9.049320220947266 -16.035800933837891
-2.544549942016602 5.549320220947266 -15.655799865722656
-2.853559970855713 5.616320133209229 -15.687800407409668
-2.260550022125244 9.255319595336914 -16.088800430297852
-2.709549903869629 5.623320102691650 -15.704799652099609
-2.928560018539429 5.495319843292236 -15.695799827575684
-2.218549966812134 9.122320175170898 -16.095800399780273
-1.896550059318543 9.193320274353027 -16.104799270629883
-2.890549898147583 5.212319850921631 -15.674799919128418
-1.920549988746643 9.418319702148438 -16.160800933837891
-2.106549978256226 9.138319969177246 -16.147800445556641
-2.695549964904785 5.528319835662842 -15.787799835205078
-2.225549936294556 9.304320335388184 -16.211799621582031
-2.864550113677979 5.418320178985596 -15.799799919128418
-2.595560073852539 5.435319900512695 -15.799799919128418
-2.002549886703491 9.207320213317871 -16.216800689697266
-2.874560117721558 5.253320217132568 -15.792799949645996
-2.755559921264648 5.411320209503174 -15.860799789428711
-2.829550027847290 5.288320064544678 -15.906800270080566
