ply
format ascii 1.0
element vertex 566
property double x
property double y
property double z
end_header
-2.040560007095337 10.304300308227539 -15.117799758911133
-2.129559993743897 10.254300117492676 -14.964799880981445
-2.104549884796143 10.398300170898437 -15.266799926757813
-2.049550056457520 10.440299987792969 -15.082799911499023
-2.134550094604492 10.284299850463867 -14.830800056457520
-2.250550031661987 10.455300331115723 -15.098799705505371
-2.025559902191162 10.477299690246582 -15.213800430297852
-2.147550106048584 10.494299888610840 -15.194800376892090
-2.089560031890869 10.411299705505371 -14.908800125122070
-1.857550024986267 10.423299789428711 -15.209799766540527
-1.763560056686401 10.322299957275391 -15.107799530029297
-2.226550102233887 10.260299682617187 -14.739800453186035
-2.155550003051758 10.334300041198730 -14.599800109863281
-2.129559993743897 10.381299972534180 -14.749799728393555
-2.014549970626831 10.351300239562988 -14.629799842834473
-1.838559985160828 10.333299636840820 -14.706800460815430
-2.054559946060181 10.485300064086914 -14.677800178527832
-2.204550027847290 10.490300178527832 -14.815799713134766
-2.174550056457520 10.533300399780273 -14.696800231933594
-1.885550022125244 10.500300407409668 -14.718799591064453
-2.250550031661987 10.488300323486328 -14.930800437927246
-2.130559921264648 10.552300453186035 -14.895799636840820
-1.706560015678406 10.327300071716309 -14.709799766540527
-2.098550081253052 10.614299774169922 -14.753800392150879
-1.711549997329712 10.293299674987793 -14.886799812316895
-1.971560001373291 10.622300148010254 -14.677800178527832
-1.644559979438782 10.393300056457520 -14.814800262451172
-2.006560087203980 10.593299865722656 -14.873800277709961
-1.703549981117249 10.416299819946289 -14.953800201416016
-1.806550025939941 10.512299537658691 -15.078800201416016
-1.945549964904785 10.520299911499023 -15.119799613952637
-1.116559982299805 13.998299598693848 -13.255800247192383
-1.237550020217896 13.918299674987793 -13.240799903869629
-1.116559982299805 13.998299598693848 -13.255800247192383
-1.170549988746643 14.107299804687500 -13.278800010681152
-1.129559993743897 13.815299987792969 -13.261799812316895
-1.489549994468689 13.073300361633301 -13.206800460815430
-1.435559988021851 13.551300048828125 -13.260800361633301
-1.187549948692322 13.685299873352051 -13.272800445556641
-1.274549961090088 13.798299789428711 -13.290800094604492
-1.032559990882874 14.066300392150879 -13.320799827575684
-1.008550047874451 14.202300071716309 -13.338800430297852
-1.436560034751892 13.389300346374512 -13.271800041198730
-1.329550027847290 13.630299568176270 -13.302800178527832
-1.353559970855713 13.193300247192383 -13.255800247192383
-1.456560015678406 13.262299537658691 -13.274800300598145
-1.139549970626831 14.187299728393555 -13.380800247192383
-1.034559965133667 13.858300209045410 -13.343799591064453
-1.253550052642822 13.398300170898438 -13.299799919128418
-1.097550034523010 14.307299613952637 -13.400799751281738
-1.363549947738648 13.042300224304199 -13.272800445556641
-1.086549997329712 13.665300369262695 -13.341799736022949
-1.176550030708313 13.988300323486328 -13.382800102233887
-1.126549959182739 13.506299972534180 -13.329799652099609
-0.961552977561951 13.986300468444824 -13.384799957275391
-0.903554975986481 14.131299972534180 -13.401800155639648
-1.580549955368042 12.997300148010254 -13.289799690246582
-1.207559943199158 13.857299804687500 -13.385800361633301
-1.241559982299805 13.268300056457520 -13.322799682617188
-0.947552978992462 14.343299865722656 -13.441800117492676
-0.472555011510849 13.867300033569336 -13.392800331115723
-1.358549952507019 13.433300018310547 -13.361800193786621
-0.965555012226105 13.714300155639648 -13.387800216674805
-1.487550020217896 13.069299697875977 -13.330800056457520
-0.695554018020630 13.717300415039063 -13.394800186157227
-0.911553978919983 13.843299865722656 -13.413800239562988
-0.789556026458740 13.817299842834473 -13.409799575805664
-0.619553983211517 13.830300331115723 -13.409799575805664
-1.004559993743897 13.502300262451172 -13.379799842834473
-0.831556022167206 13.646300315856934 -13.397800445556641
-1.425549983978272 13.174300193786621 -13.355799674987793
-1.193560004234314 13.690299987792969 -13.410799980163574
-1.258550047874451 13.550299644470215 -13.401800155639648
-0.440553009510040 13.990300178527832 -13.437800407409668
-0.826555013656616 14.028300285339355 -13.450799942016602
-1.472550034523010 12.878299713134766 -13.332799911499023
-0.712553024291992 13.933300018310547 -13.438799858093262
-1.236549973487854 13.093299865722656 -13.353799819946289
-0.529554009437561 13.742300033569336 -13.415800094604492
-1.329550027847290 12.947299957275391 -13.344799995422363
-0.872551977634430 13.447299957275391 -13.393799781799316
-1.127550005912781 13.237299919128418 -13.375800132751465
-0.764554977416992 13.540300369262695 -13.404800415039062
-0.394555985927582 13.760299682617188 -13.423800468444824
-1.055549979209900 14.450300216674805 -13.519800186157227
-0.886556029319763 12.612299919128418 -13.313799858093262
-0.611554980278015 14.018300056457520 -13.468799591064453
-0.851553022861481 12.743300437927246 -13.331800460815430
-0.882555007934570 13.277299880981445 -13.394800186157227
-0.584554016590118 13.627300262451172 -13.431799888610840
-1.106549978256226 13.909299850463867 -13.476799964904785
-1.016549944877625 13.286299705505371 -13.404800415039062
-0.847554981708527 12.896300315856934 -13.362799644470215
-0.724554002285004 12.759300231933594 -13.345800399780273
-0.724554002285004 13.408300399780273 -13.419799804687500
-1.328549981117249 13.283300399780273 -13.420800209045410
-1.255560040473938 13.429300308227539 -13.436800003051758
-0.758553981781006 12.541299819946289 -13.328800201416016
-0.873556017875671 13.113300323486328 -13.396800041198730
-1.018560051918030 13.157299995422363 -13.404800415039062
-1.095559954643250 14.329299926757813 -13.540800094604492
-1.369549989700317 12.818300247192383 -13.375800132751465
-0.978555023670197 13.009300231933594 -13.392800331115723
-0.859556019306183 14.330300331115723 -13.540800094604492
-0.781552970409393 13.023300170898438 -13.395799636840820
-0.759554028511047 13.175299644470215 -13.412799835205078
-0.508553981781006 14.082300186157227 -13.512800216674805
-0.683552980422974 14.108300209045410 -13.520799636840820
-1.078549981117249 14.126299858093262 -13.531800270080566
-1.181550025939941 12.978300094604492 -13.405799865722656
-0.681554019451141 12.931300163269043 -13.392800331115723
-0.914556026458740 14.459300041198730 -13.569800376892090
-0.979555010795593 12.697299957275391 -13.372799873352051
-0.887556016445160 12.432299613952637 -13.342800140380859
-1.621549963951111 12.898300170898438 -13.410799980163574
-1.038550019264221 12.887299537658691 -13.405799865722656
-0.780552983283997 14.218299865722656 -13.553799629211426
-1.087550044059753 13.729299545288086 -13.504799842834473
-1.426550030708313 13.050299644470215 -13.443799972534180
-0.649553000926971 13.105299949645996 -13.437800407409668
-1.048550009727478 13.993300437927246 -13.546799659729004
-1.515550017356873 12.960300445556641 -13.438799858093262
-0.426553010940552 13.867300033569336 -13.524800300598145
-1.330549955368042 13.163299560546875 -13.463800430297852
-1.224550008773804 12.810299873352051 -13.422800064086914
-1.343549966812134 12.694299697875977 -13.413800239562988
-1.476549983024597 12.700300216674805 -13.418800354003906
-1.008550047874451 12.514300346374512 -13.390800476074219
-1.136559963226318 13.497300148010254 -13.504799842834473
-0.469552993774414 13.682299613952637 -13.513799667358398
-0.385553002357483 14.012299537658691 -13.550800323486328
-0.640554010868073 13.227299690246582 -13.470800399780273
-0.594552993774414 14.178299903869629 -13.580800056457520
-1.064550042152405 13.597299575805664 -13.524800300598145
-1.220559954643250 13.250300407409668 -13.488800048828125
-0.522553980350494 13.552300453186035 -13.510800361633301
-1.101549983024597 12.758299827575684 -13.434800148010254
-0.984556019306183 12.381299972534180 -13.403800010681152
-0.965555012226105 14.583299636840820 -13.652799606323242
-0.998556017875671 13.820300102233887 -13.570799827575684
-0.774553000926971 12.408300399780273 -13.410799980163574
-1.679559946060181 12.780300140380859 -13.474800109863281
-1.114549994468689 12.610300064086914 -13.452799797058105
-0.841553986072540 14.516300201416016 -13.663800239562988
-0.515554010868073 13.795299530029297 -13.576800346374512
-0.920553028583527 13.671299934387207 -13.570799827575684
-0.766552984714508 14.381299972534180 -13.649800300598145
-0.993555009365082 13.459300041198730 -13.551799774169922
-0.621553003787994 13.443300247192383 -13.543800354003906
-1.069550037384033 13.287300109863281 -13.535799980163574
-0.674553990364075 13.555299758911133 -13.565799713134766
-1.224550008773804 13.102299690246582 -13.526800155639648
-0.597554981708527 14.298299789428711 -13.653800010681152
-0.666554987430573 12.793299674987793 -13.486800193786621
-1.064550042152405 14.446299552917480 -13.681799888610840
-0.474554002285004 14.210300445556641 -13.644800186157227
-0.885553002357483 13.546299934387207 -13.578800201416016
-1.355550050735474 12.556300163269043 -13.475799560546875
-0.703553974628448 13.305299758911133 -13.550800323486328
-1.318560004234314 13.000300407409668 -13.529800415039063
-1.115550041198731 13.165300369262695 -13.545800209045410
-0.605553984642029 13.695300102233887 -13.596799850463867
-0.649553000926971 12.975299835205078 -13.516799926757813
-0.776556015014648 13.464300155639648 -13.574799537658691
-1.420549988746643 12.911299705505371 -13.529800415039063
-1.232550024986267 12.558300018310547 -13.486800193786621
-0.970556020736694 12.246299743652344 -13.448800086975098
-0.735554993152618 13.690299987792969 -13.608799934387207
-1.480550050735474 12.566300392150879 -13.495800018310547
-0.853555023670197 13.773300170898437 -13.625800132751465
-1.022549986839294 14.311300277709961 -13.690799713134766
-1.078549981117249 14.599300384521484 -13.724800109863281
-0.825555026531219 12.298299789428711 -13.460800170898438
-1.525560021400452 12.821299552917480 -13.534799575805664
-0.901556015014648 13.944299697875977 -13.651800155639648
-0.651556015014648 14.410300254821777 -13.701800346374512
-0.709554016590118 12.635299682617188 -13.503800392150879
-0.915556013584137 13.292300224304199 -13.583800315856934
-0.706556022167206 13.109299659729004 -13.559800148010254
-0.963555991649628 14.710300445556641 -13.747799873352051
-0.822552978992462 13.197299957275391 -13.575799942016602
-0.661553978919983 13.842300415039062 -13.651800155639648
-1.087550044059753 12.281299591064453 -13.489800453186035
-1.160549998283386 12.399299621582031 -13.504799842834473
-0.965555012226105 14.188300132751465 -13.705800056457520
-0.493555009365082 14.001299858093262 -13.677800178527832
-0.828553974628448 14.646300315856934 -13.758799552917480
-0.759554028511047 12.968299865722656 -13.576800346374512
-1.601549983024597 12.630299568176270 -13.553799629211426
-0.479555010795593 14.365300178527832 -13.732799530029297
-0.874554991722107 14.058300018310547 -13.706800460815430
-0.909555017948151 13.093299865722656 -13.601799964904785
-1.041560053825378 13.048299789428711 -13.600799560546875
-0.778554975986481 13.912300109863281 -13.693799972534180
-1.308550000190735 12.874300003051758 -13.586799621582031
-0.720556020736694 14.564299583435059 -13.768799781799316
-0.589555025100708 14.507300376892090 -13.765800476074219
-1.158560037612915 12.947299957275391 -13.599800109863281
-0.607553005218506 13.956299781799316 -13.710800170898438
-1.275560021400452 12.373299598693848 -13.545800209045410
-1.408560037612915 12.787300109863281 -13.596799850463867
-0.771555006504059 12.806300163269043 -13.587800025939941
-0.907555997371674 12.960300445556641 -13.616800308227539
-0.733552992343903 12.467300415039063 -13.567799568176270
-0.997551977634430 12.142299652099609 -13.536800384521484
-0.800553977489471 12.672300338745117 -13.593799591064453
-1.472550034523010 12.410300254821777 -13.576800346374512
-0.407555997371674 14.464300155639648 -13.790800094604492
-0.715555012226105 14.023300170898438 -13.750800132751465
-1.229550004005432 12.256299972534180 -13.560799598693848
-1.020560026168823 12.879300117492676 -13.629799842834473
-1.044549942016602 14.677300453186035 -13.836799621582031
-0.480554014444351 14.613300323486328 -13.821800231933594
-0.866555988788605 14.181300163269043 -13.781800270080566
-0.608552992343903 14.643300056457520 -13.833800315856934
-0.926553010940552 14.299300193786621 -13.800800323486328
-0.925553977489471 12.800299644470215 -13.633799552917480
-1.261559963226318 12.747300148010254 -13.634799957275391
-0.714555025100708 14.705300331115723 -13.853799819946289
-1.567559957504273 12.260299682617188 -13.593799591064453
-1.118549942970276 12.774299621582031 -13.644800186157227
-1.784559965133667 12.116299629211426 -13.584799766540527
-1.007550001144409 14.539299964904785 -13.845800399780273
-0.345555990934372 14.615300178527832 -13.842800140380859
-1.347550034523010 12.270299911499023 -13.597800254821777
-1.513560056686401 12.616299629211426 -13.643799781799316
-0.881555020809174 14.840299606323242 -13.885800361633301
-0.877553999423981 12.130299568176270 -13.579799652099609
-0.945554018020630 14.425299644470215 -13.846799850463867
-0.831556022167206 12.534299850463867 -13.631799697875977
-0.437554985284805 14.715299606323242 -13.876799583435059
-0.517552971839905 14.193300247192383 -13.820799827575684
-1.576550006866455 12.508299827575684 -13.651800155639648
-1.660549998283386 12.132300376892090 -13.613800048828125
-1.888560056686401 11.784299850463867 -13.578800201416016
-0.639554977416992 14.147299766540527 -13.824799537658691
-1.013560056686401 14.782299995422363 -13.903800010681152
-1.009549975395203 12.712300300598145 -13.673800468444824
-1.105550050735474 12.074299812316895 -13.606800079345703
-0.759554028511047 14.205300331115723 -13.849800109863281
-1.852560043334961 12.221300125122070 -13.645799636840820
-0.817556023597717 12.320300102233887 -13.641799926757813
-1.260550022125244 12.603300094604492 -13.683799743652344
-1.703549981117249 11.919300079345703 -13.615799903869629
-0.943554997444153 12.582300186157227 -13.680800437927246
-0.318554997444153 14.472299575805664 -13.883799552917480
-1.404549956321716 12.538299560546875 -13.688799858093262
-1.439550042152405 12.167300224304199 -13.647800445556641
-1.755560040473938 12.334300041198730 -13.672800064086914
-1.107550024986267 12.631299972534180 -13.695799827575684
-0.630555987358093 14.810299873352051 -13.933799743652344
-1.903550028800964 12.021300315856934 -13.645799636840820
-0.760553002357483 14.921299934387207 -13.955800056457520
-1.627550005912781 12.386300086975098 -13.684800148010254
-0.393555998802185 14.819299697875977 -13.937800407409668
-1.304559946060181 12.133299827575684 -13.650799751281738
-1.549550056457520 12.008299827575684 -13.645799636840820
-0.502553999423981 14.305299758911133 -13.889800071716309
-0.811555027961731 14.341300010681152 -13.904800415039063
-0.971554994583130 14.881299972534180 -13.968799591064453
-0.254556000232697 14.831299781799316 -13.950799942016602
-0.630555987358093 14.273300170898438 -13.894800186157227
-1.917549967765808 11.881299972534180 -13.650799751281738
-1.229550004005432 12.019300460815430 -13.660799980163574
-1.488549947738648 12.437299728393555 -13.712800025939941
-0.949555993080139 12.453300476074219 -13.707799911499023
-0.970556020736694 12.040300369262695 -13.662799835205078
-0.823553025722504 15.043299674987793 -14.000800132751465
-1.728559970855713 11.734299659729004 -13.644800186157227
-1.607550024986267 11.843299865722656 -13.660799980163574
-0.518555998802185 14.871299743652344 -13.986800193786621
-0.303555995225906 14.939299583435059 -13.992799758911133
-1.071550011634827 12.481300354003906 -13.731800079345703
-0.856553971767426 12.193300247192383 -13.696800231933594
-1.408560037612915 12.033300399780273 -13.688799858093262
-1.335549950599670 12.427300453186035 -13.733799934387207
-0.913552999496460 14.564299583435059 -13.968799591064453
-0.973554015159607 14.696299552917480 -13.984800338745117
-0.425554007291794 14.443300247192383 -13.949799537658691
-1.887560009956360 11.709300041198730 -13.677800178527832
-0.695554018020630 14.397299766540527 -13.960800170898438
-1.212550044059753 12.434300422668457 -13.749799728393555
-0.344552993774414 14.560299873352051 -13.974800109863281
-0.953553974628448 12.285300254821777 -13.729800224304199
-1.141549944877625 11.926300048828125 -13.693799972534180
-0.296555995941162 14.703300476074219 -13.995800018310547
-1.743549942970276 12.120300292968750 -13.734800338745117
-0.643555998802185 14.919300079345703 -14.038800239562988
-1.617560029029846 11.712300300598145 -13.696800231933594
-1.478559970855713 11.874300003051758 -13.712800025939941
-1.617560029029846 12.220299720764160 -13.754799842834473
-1.290560007095337 11.907299995422363 -13.713800430297852
-1.421560049057007 12.307299613952637 -13.763799667358398
-1.812549948692322 11.993300437927246 -13.737799644470215
-0.570554018020630 14.425299644470215 -13.990799903869629
-1.085549950599670 12.333299636840820 -13.763799667358398
-1.797559976577759 11.622300148010254 -13.700799942016602
-0.441552996635437 14.983300209045410 -14.056799888610840
-0.942556023597717 14.958299636840820 -14.064800262451172
-0.784555017948151 14.542300224304199 -14.035799980163574
-1.294549942016602 12.277299880981445 -13.792799949645996
-0.714555025100708 15.062299728393555 -14.098799705505371
-1.189550042152405 11.806300163269043 -13.739800453186035
-0.919552981853485 11.918299674987793 -13.747799873352051
-0.997551977634430 12.178299903869629 -13.780799865722656
-1.496549963951111 12.191300392150879 -13.792799949645996
-1.379559993743897 11.793299674987793 -13.746800422668457
-0.810555994510651 15.161299705505371 -14.117799758911133
-0.909555017948151 12.078300476074219 -13.771800041198730
-1.166560053825378 12.238300323486328 -13.796799659729004
-0.882555007934570 14.694299697875977 -14.071800231933594
-1.851549983024597 11.803299903869629 -13.764800071716309
-0.576555013656616 14.998299598693848 -14.111800193786621
-0.340555012226105 14.828300476074219 -14.088800430297852
-1.057549953460693 11.817299842834473 -13.762800216674805
-0.284554988145828 14.998299598693848 -14.108799934387207
-0.907555997371674 15.085300445556641 -14.130800247192383
-0.503552973270416 14.588299751281738 -14.067799568176270
-1.500550031661987 11.713299751281738 -13.760800361633301
-1.691550016403198 12.012299537658691 -13.802800178527832
-1.372550010681152 12.163299560546875 -13.821800231933594
-0.360554993152618 15.110300064086914 -14.137800216674805
-0.622551977634430 14.553299903869629 -14.082799911499023
-1.255560040473938 11.691300392150879 -13.773799896240234
-1.123559951782227 11.687299728393555 -13.775799751281738
-1.112550020217896 12.103300094604492 -13.826800346374512
-0.419553011655808 14.710300445556641 -14.114800453186035
-0.511556029319763 15.122300148010254 -14.163800239562988
-0.885553002357483 14.811300277709961 -14.140800476074219
-1.569550037384033 12.026300430297852 -13.839799880981445
-1.858549952507019 11.686300277709961 -13.809800148010254
-1.004559993743897 12.006299972534180 -13.832799911499023
-1.637560009956360 11.587300300598145 -13.797800064086914
-1.757550001144409 11.865300178527832 -13.831800460815430
-0.656552970409393 15.171299934387207 -14.191800117492676
-0.736554980278015 14.668299674987793 -14.137800216674805
-1.469550013542175 11.596300125122070 -13.805800437927246
-1.177549958229065 11.483300209045410 -13.788800239562988
-1.032559990882874 11.567299842834473 -13.797800064086914
-1.400560021400452 12.047300338745117 -13.858799934387207
-0.579553008079529 14.654299736022949 -14.139800071716309
-0.895555019378662 14.952300071716309 -14.181799888610840
-1.276559948921204 12.039299964904785 -13.864800453186035
-1.328549981117249 11.589300155639648 -13.816800117492676
-0.765554010868073 15.246299743652344 -14.232799530029297
-0.322553008794785 15.249300003051758 -14.231800079345703
-0.889554977416992 15.217300415039063 -14.246800422668457
-0.982553005218506 11.813300132751465 -13.863800048828125
-0.437554985284805 14.847299575805664 -14.199799537658691
-1.082559943199158 11.924300193786621 -13.884799957275391
-0.425554007291794 15.306300163269043 -14.270799636840820
-0.543554008007050 14.783300399780273 -14.214799880981445
-1.735560059547424 11.539299964904785 -13.871800422668457
-1.547559976577759 11.904299736022949 -13.912799835205078
-1.552549958229065 11.501299858093262 -13.869799613952637
-1.787549972534180 11.724300384521484 -13.905799865722656
-1.652559995651245 11.823300361633301 -13.915800094604492
-1.001549959182739 11.644300460815430 -13.890800476074219
-0.550553977489471 15.253299713134766 -14.290800094604492
-0.799553990364075 14.851300239562988 -14.251799583435059
-1.328549981117249 11.455300331115723 -13.878800392150879
-1.291560053825378 11.923299789428711 -13.933799743652344
-1.164559960365295 11.311300277709961 -13.863800048828125
-1.872550010681152 11.595299720764160 -13.909799575805664
-1.078549981117249 11.416299819946289 -13.881799697875977
-0.850552976131439 15.050299644470215 -14.291799545288086
-0.411554008722305 14.984299659729004 -14.279800415039063
-1.276559948921204 11.242300033569336 -13.884799957275391
-0.673555016517639 14.841300010681152 -14.285799980163574
-1.414559960365295 11.863300323486328 -13.966799736022949
-1.179559946060181 11.825300216674805 -13.965800285339355
-0.517552971839905 14.897299766540527 -14.304800033569336
-1.433550000190735 11.395299911499023 -13.926799774169922
-0.769555985927582 15.303299903869629 -14.357799530029297
-0.358552992343903 15.413299560546875 -14.365799903869629
-1.671560049057007 11.721300125122070 -13.989800453186035
-1.101549983024597 11.707300186157227 -13.986800193786621
-0.600552976131439 15.332300186157227 -14.393799781799316
-0.765554010868073 14.980299949645996 -14.358799934387207
-0.366555988788605 15.152299880981445 -14.371800422668457
-0.836552977561951 15.139300346374512 -14.383799552917480
-1.839560031890869 11.444299697875977 -13.984800338745117
-1.662549972534180 11.426300048828125 -13.984800338745117
-1.061560034751892 11.560299873352051 -13.989800453186035
-0.643555998802185 14.944299697875977 -14.370800018310547
-0.467554003000259 15.420299530029297 -14.425800323486328
-1.926550030708313 11.535300254821777 -14.016799926757812
-1.507550001144409 11.747300148010254 -14.035799980163574
-1.533560037612915 11.355299949645996 -13.995800018310547
-1.113549947738648 11.318300247192383 -13.987799644470215
-1.259549975395203 11.740300178527832 -14.038800239562988
-0.502553999423981 14.998299598693848 -14.396800041198730
-1.060559988021851 11.428299903869629 -14.010800361633301
-1.236549973487854 11.193300247192383 -13.994799613952637
-0.357553005218506 15.254300117492676 -14.449799537658691
-0.830552995204926 15.304300308227539 -14.465800285339355
-1.349550008773804 11.143300056457520 -14.023799896240234
-0.683552980422974 15.336299896240234 -14.487799644470215
-1.756559967994690 11.600299835205078 -14.089799880981445
-1.361549973487854 11.692299842834473 -14.095800399780273
-0.744553983211517 15.088299751281738 -14.469799995422363
-1.189550042152405 11.611300468444824 -14.085800170898437
-1.613549947738648 11.643300056457520 -14.098799705505371
-0.429556012153625 15.079299926757813 -14.466799736022949
-1.485560059547424 11.241299629211426 -14.061800003051758
-1.967550039291382 11.420299530029297 -14.092800140380859
-1.776559948921204 11.364299774169922 -14.086799621582031
-0.546555995941162 15.391300201416016 -14.532799720764160
-0.394555985927582 15.468299865722656 -14.541799545288086
-1.627550005912781 11.312299728393555 -14.097800254821777
-0.601553022861481 15.082300186157227 -14.523799896240234
-1.122550010681152 11.406299591064453 -14.124799728393555
-1.468549966812134 11.604299545288086 -14.156800270080566
-1.866559982299805 11.503299713134766 -14.163800239562988
-0.776556015014648 15.222299575805664 -14.566800117492676
-0.322553008794785 15.330300331115723 -14.571800231933594
-0.802552998065948 15.361300468444824 -14.585800170898438
-0.406553000211716 15.204299926757813 -14.567799568176270
-0.681554019451141 15.404299736022949 -14.600799560546875
-1.307549953460693 11.527299880981445 -14.180800437927246
-1.305549979209900 11.072299957275391 -14.132800102233887
-1.876549959182739 11.320300102233887 -14.175800323486328
-1.746549963951111 11.525300025939941 -14.198800086975098
-1.431550025939941 11.117300033569336 -14.147800445556641
-1.605550050735474 11.222299575805664 -14.193799972534180
-1.602560043334961 11.522299766540527 -14.227800369262695
-0.509554028511047 15.135299682617188 -14.617799758911133
-1.221560001373291 11.401300430297852 -14.209799766540527
-2.000550031661987 11.357299804687500 -14.221799850463867
-0.675553977489471 15.172300338745117 -14.631799697875977
-0.362554013729095 15.511300086975098 -14.668800354003906
-1.730550050735474 11.231300354003906 -14.221799850463867
-1.173550009727478 11.221300125122070 -14.220800399780273
-0.539556026458740 15.466300010681152 -14.689800262451172
-0.237553998827934 15.533300399780273 -14.696800231933594
-1.851549983024597 11.442299842834473 -14.274800300598145
-0.286554008722305 15.358300209045410 -14.689800262451172
-0.757555007934570 15.374300003051758 -14.702799797058105
-0.674553990364075 15.504300117492676 -14.719799995422363
-1.237550020217896 11.063300132751465 -14.235799789428711
-1.912549972534180 11.241299629211426 -14.279800415039063
-0.433553010225296 15.212300300598145 -14.705800056457520
-1.392549991607666 11.411299705505371 -14.297800064086914
-1.385550022125244 10.999300003051758 -14.256799697875977
-1.493549942970276 11.061300277709961 -14.266799926757813
-1.652559995651245 11.144300460815430 -14.286800384521484
-1.287549972534180 11.330300331115723 -14.307800292968750
-0.552552998065948 15.192299842834473 -14.737799644470215
-0.691552996635437 15.284299850463867 -14.755800247192383
-1.755560040473938 11.396300315856934 -14.337800025939941
-2.045550107955933 11.327300071716309 -14.336799621582031
-0.352555990219116 15.548299789428711 -14.791799545288086
-0.547555983066559 15.540300369262695 -14.804800033569336
-1.240550041198731 11.179300308227539 -14.325799942016602
-1.601549983024597 11.373299598693848 -14.360799789428711
-0.704553008079529 15.567299842834473 -14.821800231933594
-0.719552993774414 15.405300140380859 -14.818799972534180
-1.953549981117249 11.165300369262695 -14.376799583435059
-1.854550004005432 11.328300476074219 -14.398799896240234
-0.234556004405022 15.406299591064453 -14.836799621582031
-1.839560031890869 11.107299804687500 -14.379799842834473
-1.623559951782227 11.026300430297852 -14.366800308227539
-1.355550050735474 11.243300437927246 -14.395799636840820
-1.273550033569336 11.028300285339355 -14.371800422668457
-0.203554004430771 15.547300338745117 -14.866800308227539
-0.370554000139236 15.306300163269043 -14.847800254821777
-0.489553004503250 15.273300170898438 -14.851799964904785
-0.609556019306183 15.325300216674805 -14.863800048828125
-1.977560043334961 11.276300430297852 -14.437800407409668
-0.470555990934372 15.611300468444824 -14.907799720764160
-1.456560015678406 10.897299766540527 -14.394800186157227
-0.328554004430771 15.605299949645996 -14.926799774169922
-2.113549947738648 11.197299957275391 -14.460800170898438
-1.564550042152405 11.249300003051758 -14.461799621582031
-1.699560046195984 11.244299888610840 -14.469799995422363
-0.658555984497070 15.549300193786621 -14.938799858093262
-1.790560007095337 11.003299713134766 -14.447799682617188
-1.573549985885620 10.906299591064453 -14.433799743652344
-1.850550055503845 11.209300041198730 -14.501799583435059
-0.290556013584137 15.380299568176270 -14.949799537658691
-1.459550023078919 11.156299591064453 -14.494799613952637
-2.027559995651245 11.024299621582031 -14.501799583435059
-1.493549942970276 10.786299705505371 -14.473799705505371
-0.612554013729095 15.685299873352051 -15.014800071716309
-0.546555995941162 15.388299942016602 -14.984800338745117
-1.711549997329712 10.923299789428711 -14.503800392150879
-2.007550001144409 11.150300025939941 -14.538800239562988
-1.360560059547424 10.810299873352051 -14.488800048828125
-2.162549972534180 11.010299682617188 -14.533800125122070
-1.376549959182739 11.021300315856934 -14.524800300598145
-1.876549959182739 10.949299812316895 -14.526800155639648
-1.666560053825378 11.141300201416016 -14.548800468444824
-0.417553991079330 15.363300323486328 -15.004799842834473
-1.793550014495850 11.123299598693848 -14.569800376892090
-1.627550005912781 10.797300338745117 -14.536800384521484
-2.142549991607666 10.892299652099609 -14.572799682617188
-0.509554028511047 15.760299682617188 -15.097800254821777
-0.647553980350494 15.592300415039063 -15.088800430297852
-1.529549956321716 11.031299591064453 -14.590800285339355
-0.355554014444351 15.698300361633301 -15.097800254821777
-1.531550049781799 10.666299819946289 -14.555800437927246
-1.908560037612915 11.066300392150879 -14.608799934387207
-0.214554995298386 15.642299652099609 -15.098799705505371
-2.026560068130493 10.963299751281738 -14.618800163269043
-0.207554996013641 15.496299743652344 -15.103799819946289
-1.429559946060181 10.872300148010254 -14.610799789428711
-1.649549961090088 11.014300346374512 -14.635800361633301
-1.795549988746643 10.809300422668457 -14.616800308227539
-1.413550019264221 10.748299598693848 -14.605799674987793
-0.529554009437561 15.502300262451172 -15.144800186157227
-0.596554994583130 15.682299613952637 -15.167799949645996
-1.490550041198731 10.541299819946289 -14.611800193786621
-0.337552994489670 15.440299987792969 -15.148799896240234
-2.036550045013428 10.806300163269043 -14.657799720764160
-1.687549948692322 10.642299652099609 -14.635800361633301
-1.929559946060181 10.743300437927246 -14.656800270080566
-1.893560051918030 10.912300109863281 -14.680800437927246
-1.768560051918030 10.942299842834473 -14.694800376892090
-1.827550053596497 10.645299911499023 -14.668800354003906
-0.462552994489670 15.800299644470215 -15.227800369262695
-1.593549966812134 10.890299797058105 -14.693799972534180
-1.589560031890869 10.459300041198730 -14.646800041198730
-0.277554988861084 15.708299636840820 -15.218799591064453
-0.174554005265236 15.571299552917480 -15.210800170898437
-1.514549970626831 10.764300346374512 -14.702799797058105
-1.730550050735474 10.503299713134766 -14.689800262451172
-0.584554016590118 15.752300262451172 -15.268799781799316
-0.258554011583328 15.486300468444824 -15.250800132751465
-0.445553988218308 15.518300056457520 -15.260800361633301
-1.524549961090088 10.575300216674805 -14.732799530029297
-0.362554013729095 15.789299964904785 -15.310799598693848
-0.188554003834724 15.662300109863281 -15.295800209045410
-1.837550044059753 10.781299591064453 -14.781800270080566
-1.690549969673157 10.808300018310547 -14.785799980163574
-1.944550037384033 10.673299789428711 -14.798800468444824
-0.531552970409393 15.675299644470215 -15.349800109863281
-0.567556023597717 15.828300476074219 -15.377799987792969
-0.240553006529808 15.768300056457520 -15.384799957275391
-1.644559979438782 10.658300399780273 -14.845800399780273
-0.363554000854492 15.845299720764160 -15.430800437927246
-0.311554998159409 15.561300277709961 -15.398799896240234
-0.186554998159409 15.569299697875977 -15.397800445556641
-0.423554986715317 15.614299774169922 -15.420800209045410
-0.155552998185158 15.747300148010254 -15.471799850463867
-0.500554978847504 15.738300323486328 -15.481800079345703
-0.533555984497070 15.892299652099609 -15.509799957275391
-1.689550042152405 10.549300193786621 -14.936800003051758
-0.406553000211716 15.913299560546875 -15.525799751281738
-0.247552007436752 15.842300415039063 -15.521800041198730
-1.838559985160828 10.609299659729004 -14.973799705505371
-1.960549950599670 10.568300247192383 -14.991800308227539
-0.378553003072739 15.653300285339355 -15.538800239562988
-0.244553998112679 15.645299911499023 -15.545800209045410
-0.463555991649628 15.786299705505371 -15.624799728393555
-0.164555996656418 15.781299591064453 -15.634799957275391
-0.471554994583130 15.946299552917480 -15.665800094604492
-0.317555993795395 15.894300460815430 -15.661800384521484
-0.284554988145828 15.698300361633301 -15.662799835205078
-0.198552995920181 15.894300460815430 -15.694800376892090
-0.291554987430573 15.920299530029297 -15.791799545288086
-0.435555994510651 15.874300003051758 -15.792799949645996
-0.381554991006851 15.760299682617188 -15.791799545288086
-0.248556002974510 15.765299797058105 -15.792799949645996
-0.184552997350693 15.895299911499023 -15.872799873352051
-0.349554002285004 15.883299827575684 -15.920800209045410
-0.250555008649826 15.863300323486328 -16.024799346923828
