ply
format ascii 1.0
element vertex 740
property double x
property double y
property double z
end_header
-49.759700775146484 344.403991699218750 21.477600097656250
-45.031200408935547 338.453002929687500 14.794899940490723
-51.237800598144531 333.410003662109370 21.462299346923828
-47.811199188232422 338.427001953125000 -3.541470050811768
-45.470600128173828 324.941009521484370 13.311599731445313
-42.472499847412109 327.997009277343750 -5.715050220489502
-47.755500793457031 314.908996582031250 13.991999626159668
134.076004028320310 964.153991699218750 34.911998748779297
155.871002197265620 966.198974609375000 31.549900054931641
134.076004028320310 964.153991699218750 34.911998748779297
150.664993286132810 967.905029296875000 20.411199569702148
139.641006469726560 965.520996093750000 21.395099639892578
160.223999023437500 965.971984863281250 16.465200424194336
153.162002563476560 968.103027343750000 5.897319793701172
120.130996704101560 958.497009277343750 39.392398834228516
125.641998291015620 959.961975097656250 30.899099349975586
142.186996459960940 965.369018554687500 10.912400245666504
169.679992675781250 962.463012695312500 19.409000396728516
146.621994018554690 966.507995605468750 -2.098269939422607
164.171005249023440 964.950012207031250 6.406119823455811
175.669006347656250 959.443969726562500 27.907199859619141
131.498001098632810 960.690979003906250 16.790100097656250
156.106994628906250 967.218994140625000 -6.071060180664063
111.875000000000000 952.651000976562500 37.024700164794922
136.664993286132810 961.916015625000000 2.416049957275391
105.210998535156250 949.859008789062500 44.462501525878906
123.008003234863280 956.166992187500000 21.370300292968750
147.675003051757810 965.853027343750000 -16.075899124145508
158.712005615234370 966.080993652343750 -16.602500915527344
166.128997802734370 963.367980957031250 -5.089449882507324
139.608993530273440 962.518981933593750 -10.598799705505371
152.166000366210940 966.388000488281250 -25.088199615478516
172.442993164062500 959.171997070312500 5.902480125427246
128.546997070312500 957.140014648437500 6.892270088195801
177.953994750976560 956.182006835937500 15.939700126647949
114.652999877929690 950.435974121093750 20.908500671386719
139.496994018554690 962.171020507812500 -22.632200241088867
131.141998291015620 957.461975097656250 -5.094079971313477
166.854003906250000 963.625976562500000 -25.499399185180664
159.156005859375000 964.872985839843750 -32.569999694824219
120.138999938964840 951.955017089843750 11.906200408935547
170.720993041992190 960.460021972656250 -16.022600173950195
142.647003173828120 963.004028320312500 -33.077701568603516
105.541999816894530 945.549011230468750 30.886999130249023
95.361396789550781 940.239013671875000 48.474498748779297
175.186996459960940 956.452026367187500 -6.090240001678467
186.027999877929690 949.770996093750000 19.460199356079102
98.851699829101563 941.747009277343750 38.445201873779297
180.182998657226560 952.455993652343750 6.407999992370606
131.171997070312500 955.908996582031250 -20.092399597167969
119.255996704101560 949.804992675781250 1.977720022201538
192.619995117187500 945.846984863281250 25.962699890136719
124.710998535156250 952.843017578125000 -11.579500198364258
175.190002441406250 957.469970703125000 -26.610599517822266
109.122001647949220 943.982971191406250 14.901200294494629
88.992401123046875 933.586975097656250 52.757301330566406
134.046997070312500 956.080993652343750 -31.720199584960938
182.473999023437500 949.710998535156250 -3.105230093002319
180.714004516601560 953.469970703125000 -19.073699951171875
111.171997070312500 944.413024902343750 4.916170120239258
91.840797424316406 934.382995605468750 40.604801177978516
116.544998168945310 947.099975585937500 -8.172880172729492
101.742996215820310 938.866027832031250 21.464300155639648
96.896202087402344 936.208984375000000 29.953199386596680
191.707992553710940 942.476013183593750 14.396200180053711
125.644996643066410 950.943969726562500 -28.595600128173828
188.235000610351560 944.023986816406250 4.909930229187012
120.262001037597660 947.781982421875000 -20.145099639892578
188.360000610351560 944.135986328125000 -9.037119865417481
83.944000244140625 925.142028808593750 49.342300415039062
112.044998168945310 942.065002441406250 -15.613599777221680
188.513000488281250 946.781005859375000 -25.068599700927734
199.996002197265620 936.221984863281250 17.996299743652344
107.561996459960940 939.030029296875000 -5.602250099182129
99.120697021484375 933.952026367187500 12.371399879455566
103.613998413085940 935.971008300781250 3.384320020675659
95.259002685546875 930.859008789062500 21.445400238037109
117.235000610351560 944.327026367187500 -30.560300827026367
87.962699890136719 925.059020996093750 38.363899230957031
193.740005493164060 938.521972656250000 -2.072119951248169
197.205993652343750 935.476013183593750 7.396649837493897
194.468002319335940 941.210998535156250 -19.127099990844727
108.626998901367190 938.963012695312500 -27.604299545288086
78.207801818847656 916.882995605468750 53.912300109863281
103.621002197265620 934.468994140625000 -13.604299545288086
205.464996337890620 929.241027832031250 11.986499786376953
97.276603698730469 927.823974609375000 1.931040048599243
200.029998779296870 933.737976074218750 -8.632320404052734
88.773200988769531 922.331970214843750 21.439500808715820
92.612800598144531 924.468017578125000 12.362799644470215
100.680000305175780 933.390014648437500 -24.588600158691406
202.716003417968750 929.984008789062500 0.916809022426605
82.755599975585937 917.392028808593750 33.005500793457031
202.860000610351560 934.158996582031250 -19.573299407958984
79.509498596191406 914.002990722656250 43.777000427246094
96.122703552246094 926.955993652343750 -8.085189819335938
101.193000793457030 933.846984863281250 -36.102298736572266
73.332702636718750 908.318969726562500 56.902900695800781
212.699005126953120 921.963012695312500 13.883199691772461
92.050697326660156 925.046020507812500 -17.555200576782227
93.770599365234375 927.810974121093750 -30.085199356079102
90.411796569824219 919.682006835937500 0.497049987316132
85.851196289062500 916.786987304687500 9.899720191955566
82.841796875000000 914.296020507812500 19.397100448608398
209.684005737304690 921.947021484375000 3.408720016479492
211.003005981445310 927.216003417968750 -17.995899200439453
73.003700256347656 906.007019042968750 46.757701873779297
75.971298217773438 908.556030273437500 35.746700286865234
68.790603637695313 900.406982421875000 61.909599304199219
217.080993652343750 921.908020019531250 -11.978099822998047
88.037101745605469 922.676025390625000 -36.529998779296875
85.734100341796875 916.857971191406250 -16.094699859619141
86.404800415039063 919.635009765625000 -27.058200836181641
216.513000488281250 914.802978515625000 7.476580142974854
84.348297119140625 913.226013183593750 -4.526289939880371
79.394401550292969 908.666992187500000 10.351599693298340
76.112197875976562 905.469970703125000 20.413000106811523
66.941703796386719 897.539001464843750 50.382099151611328
63.994598388671875 892.059020996093750 65.363098144531250
70.866600036621094 900.312988281250000 30.980199813842773
68.378402709960938 897.731994628906250 40.434898376464844
77.649299621582031 905.939025878906250 -1.083099961280823
222.805999755859370 913.601989746093750 -12.961199760437012
80.546096801757812 911.468994140625000 -24.614999771118164
78.839302062988281 907.768981933593750 -14.080300331115723
82.681098937988281 912.901977539062500 -36.566299438476563
73.314796447753906 900.294982910156250 11.420599937438965
69.927497863769531 897.585021972656250 21.399999618530273
221.550003051757810 908.333984375000000 -2.152669906616211
224.305999755859370 905.564025878906250 8.324950218200684
62.895198822021484 889.278015136718750 43.435398101806641
60.959098815917969 886.525024414062500 53.367298126220703
59.418998718261719 882.767028808593750 63.915100097656250
63.749801635742187 889.341003417968750 32.956901550292969
72.322998046875000 900.312011718750000 -9.576999664306641
75.857498168945313 905.775024414062500 -33.546901702880859
70.595298767089844 896.481994628906250 0.417203992605209
67.406600952148438 892.094970703125000 11.888500213623047
72.650398254394531 900.429016113281250 -20.596500396728516
230.266998291015630 896.596008300781250 6.302730083465576
62.359500885009766 886.770019531250000 21.106300354003906
227.632995605468750 898.419982910156250 -3.580159902572632
58.698699951171875 881.403991699218750 37.418498992919922
55.640499114990234 872.437988281250000 68.412200927734375
233.126007080078120 898.864990234375000 -13.107700347900391
66.479896545410156 892.073974609375000 -11.096500396728516
70.587699890136719 896.984008789062500 -30.067499160766602
54.636199951171875 872.939025878906250 58.410499572753906
56.105701446533203 875.468017578125000 48.406501770019531
63.568599700927734 886.476013183593750 4.408020019531250
66.904197692871094 892.099975585937500 -21.091600418090820
234.822006225585940 889.031005859375000 0.920092999935150
59.615501403808594 882.471008300781250 -4.094480037689209
57.211700439453125 875.875000000000000 21.443500518798828
58.708999633789063 878.356994628906250 10.884900093078613
53.288299560546875 870.822998046875000 39.423198699951172
238.554992675781250 889.760009765625000 -13.373100280761719
51.329498291015625 866.809997558593750 50.872699737548828
61.680900573730469 883.914978027343750 -16.088899612426758
50.516601562500000 863.137023925781250 64.569503784179687
64.512001037597656 886.518005371093750 -32.103801727294922
240.233001708984370 883.495971679687500 -5.548630237579346
54.123901367187500 874.458007812500000 -1.097180008888245
52.871299743652344 870.168029785156250 13.360699653625488
47.427299499511719 859.038024902343750 55.887901306152344
48.170398712158203 853.922973632812500 73.890296936035156
56.427299499511719 875.606018066406250 -11.241600036621094
243.718002319335940 877.421997070312500 4.747280120849609
48.573001861572266 861.968994140625000 39.894100189208984
60.360698699951172 878.322998046875000 -26.064599990844727
50.601501464843750 864.484008789062500 21.389799118041992
245.136001586914060 874.916015625000000 -7.081439971923828
45.594398498535156 858.468994140625000 28.937000274658203
45.042800903320313 853.482971191406250 46.424900054931641
47.008998870849609 865.057983398437500 0.393269002437592
46.945201873779297 861.939025878906250 11.207099914550781
55.366500854492188 870.252014160156250 -21.079999923706055
50.841800689697266 867.294006347656250 -11.021900177001953
43.995601654052734 847.992980957031250 62.883300781250000
44.610698699951172 843.486022949218750 75.930000305175781
249.516998291015620 869.281982421875000 0.522248983383179
56.044101715087891 869.976989746093750 -31.149999618530273
41.724300384521484 854.315979003906250 18.816400527954102
41.665699005126953 845.424011230468750 51.909301757812500
40.111900329589844 839.960021972656250 67.424697875976562
40.544700622558594 848.979980468750000 30.440099716186523
40.616001129150391 854.953979492187500 5.910940170288086
43.064399719238281 857.482971191406250 -5.101689815521240
40.307701110839844 845.362976074218750 41.958000183105469
47.872898101806641 859.278991699218750 -16.515899658203125
50.120098114013672 861.955993652343750 -27.102500915527344
40.318298339843750 834.411010742187500 77.406303405761719
254.292007446289060 861.523010253906250 -4.618189811706543
35.031600952148438 846.065002441406250 11.902899742126465
34.599498748779297 847.978027343750000 1.895329952239990
37.209701538085938 834.401000976562500 55.405899047851563
35.227500915527344 839.883972167968750 29.419900894165039
43.920600891113281 853.664001464843750 -27.666999816894531
35.826099395751953 828.820007324218750 69.892799377441406
37.550498962402344 848.072998046875000 -8.637689590454102
35.201000213623047 834.372009277343750 43.927799224853516
40.312301635742187 849.757995605468750 -19.090000152587891
32.044498443603516 839.453979492187500 19.307699203491211
28.388700485229492 839.752990722656250 4.432859897613525
33.534400939941406 820.013977050781250 77.430702209472656
32.043399810791016 842.594970703125000 -17.568599700927734
31.526699066162109 829.000000000000000 35.963798522949219
32.901699066162109 823.351013183593750 58.401298522949219
29.225999832153320 839.835998535156250 -8.145139694213867
36.286598205566406 845.221984863281250 -30.512199401855469
26.541500091552734 832.036010742187500 15.450400352478027
30.972200393676758 818.028015136718750 66.950202941894531
31.101999282836914 823.447998046875000 45.405300140380859
22.090299606323242 831.978027343750000 5.892290115356445
28.241300582885742 839.794006347656250 -27.529499053955078
23.573600769042969 837.002014160156250 -17.575099945068359
26.230699539184570 826.390991210937500 24.802700042724609
20.504400253295898 831.567993164062500 -5.072859764099121
29.142599105834961 811.434997558593750 74.413803100585937
26.114900588989258 820.448974609375000 33.420700073242188
29.509500503540039 807.479003906250000 83.924102783203125
20.250499725341797 823.822998046875000 16.763700485229492
18.474899291992188 833.747985839843750 -25.634099960327148
29.875400543212891 812.302978515625000 54.424301147460937
15.379400253295898 828.710021972656250 -16.185499191284180
21.052600860595703 817.575012207031250 25.249700546264648
14.882800102233887 822.228027343750000 5.870779991149902
26.531799316406250 812.489013671875000 41.446701049804688
13.402400016784668 823.176025390625000 -4.124829769134522
10.116100311279297 826.997985839843750 -25.000600814819336
25.352600097656250 801.831970214843750 75.394401550292969
26.522100448608398 803.966979980468750 60.398799896240234
21.034900665283203 810.513000488281250 32.458099365234375
14.766799926757813 812.348999023437500 19.357999801635742
7.277659893035889 820.297973632812500 -14.144599914550781
10.033200263977051 814.034973144531250 9.015500068664551
25.075500488281250 803.958007812500000 49.927898406982422
6.377810001373291 815.213989257812500 -2.229350090026856
3.283620119094849 818.320007324218750 -24.997900009155273
21.117500305175781 801.943969726562500 39.941898345947266
23.813100814819336 795.346984863281250 65.903396606445312
-0.007027999963611 812.181030273437500 -10.972200393676758
21.743499755859375 790.375000000000000 74.913101196289063
18.288400650024414 801.309997558593750 29.639799118041992
10.069800376892090 802.984985351562500 21.455299377441406
-4.544529914855957 812.208984375000000 -20.559999465942383
4.396800041198731 804.236999511718750 11.194800376892090
0.417041003704071 806.681030273437500 0.223867997527123
21.052299499511719 794.476989746093750 48.978599548339844
15.347299575805664 793.802001953125000 38.263900756835937
-6.400790214538574 803.971008300781250 -8.053810119628906
19.884799957275391 787.609008789062500 57.875499725341797
-1.986500024795532 798.525024414062500 5.511320114135742
2.899470090866089 795.744018554687500 16.708200454711914
-12.839900016784668 803.924987792968750 -18.091199874877930
17.978200912475586 782.991027832031250 66.863403320312500
16.222900390625000 785.893005371093750 46.895500183105469
6.802909851074219 790.284973144531250 27.649700164794922
-12.258799552917480 795.856994628906250 -8.160869598388672
-5.055150032043457 790.229980468750000 11.707799911499023
10.643099784851074 783.434020996093750 38.416698455810547
-9.238889694213867 791.861022949218750 0.854178011417389
-20.252300262451172 795.758972167968750 -18.340599060058594
15.196100234985352 776.414978027343750 59.409301757812500
-0.900285005569458 785.468994140625000 20.969100952148438
11.862799644470215 775.898010253906250 47.354198455810547
3.147530078887940 779.447021484375000 30.446399688720703
-17.961299896240234 787.607971191406250 -5.425990104675293
-9.243829727172852 781.354980468750000 14.330100059509277
-26.368099212646484 787.994018554687500 -16.014499664306641
-14.721799850463867 783.315002441406250 3.817229986190796
6.821169853210449 773.812011718750000 38.822498321533203
-25.710100173950195 781.195983886718750 -5.282529830932617
12.239700317382813 765.383972167968750 62.366699218750000
-3.928600072860718 773.968017578125000 24.973699569702148
8.879199981689453 765.366027832031250 51.368198394775391
-33.340499877929688 779.453002929687500 -12.044500350952148
-23.008300781250000 775.591003417968750 3.598670005798340
-16.128900527954102 773.674987792968750 11.180700302124023
-0.962791979312897 767.500976562500000 32.117900848388672
-32.219699859619141 773.758972167968750 -2.274219989776611
-12.318400382995605 768.409973144531250 19.383100509643555
3.763499975204468 762.882019042968750 41.323898315429688
9.793999671936035 754.900024414062500 64.387496948242188
-40.283500671386719 770.861022949218750 -9.112589836120606
-28.738100051879883 766.786987304687500 6.744349956512451
-9.209440231323242 760.843017578125000 26.791799545288086
-21.897800445556641 763.026000976562500 14.066800117492676
4.287930011749268 754.861999511718750 47.329101562500000
-0.867781996726990 757.471984863281250 34.119300842285156
-39.433998107910156 764.077026367187500 1.552889943122864
-48.351100921630859 763.012023925781250 -4.482029914855957
5.829020023345947 746.809997558593750 58.269699096679687
-3.372889995574951 749.950012207031250 40.993801116943359
-31.218599319458008 754.810974121093750 12.197199821472168
-14.871100425720215 751.945983886718750 24.944099426269531
-45.001300811767578 755.603027343750000 4.191790103912354
-9.901709556579590 749.025024414062500 33.123100280761719
-23.791599273681641 751.885986328125000 19.288099288940430
-54.312999725341797 755.340026855468750 -1.233199954032898
-33.902099609375000 747.968017578125000 19.010700225830078
-39.427799224853516 749.002014160156250 10.606300354003906
-49.309299468994141 747.377014160156250 11.317999839782715
-7.858670234680176 740.437011718750000 40.942798614501953
3.107830047607422 735.947998046875000 57.936798095703125
-17.558700561523438 742.518981933593750 27.588399887084961
-58.848300933837891 746.932983398437500 2.448169946670532
-0.972177028656006 736.945983886718750 47.521701812744141
-26.386199951171875 740.958007812500000 22.079500198364258
-42.335399627685547 738.427001953125000 13.910699844360352
-14.723799705505371 733.838989257812500 34.647300720214844
-53.273998260498047 737.825988769531250 9.166270256042481
-8.889519691467285 730.452026367187500 43.087501525878906
1.957409977912903 725.870971679687500 59.114398956298828
-22.456399917602539 732.974975585937500 27.585199356079102
-34.021999359130859 734.091003417968750 20.713800430297852
-64.844001770019531 735.848999023437500 7.318250179290772
-58.387500762939453 729.570007324218750 12.147100448608398
-3.528239965438843 721.408996582031250 49.558200836181641
-13.334099769592285 721.432983398437500 43.371799468994141
-48.382400512695313 726.981018066406250 16.539499282836914
-20.205099105834961 723.359985351562500 34.189300537109375
-69.339401245117187 727.443969726562500 11.440299987792969
-28.910499572753906 724.924987792968750 26.529499053955078
-39.471801757812500 725.551025390625000 21.082899093627930
-64.339500427246094 722.905029296875000 21.373899459838867
-37.752399444580078 718.856018066406250 30.287500381469727
-47.350200653076172 719.450988769531250 25.969499588012695
-4.994679927825928 712.661010742187500 54.424198150634766
-20.394199371337891 713.960021972656250 41.535099029541016
-73.835197448730469 717.877014160156250 16.341299057006836
-55.914600372314453 717.174987792968750 19.303100585937500
-28.478599548339844 714.989990234375000 30.075899124145508
-66.847198486328125 711.963989257812500 21.486900329589844
-10.864700317382812 706.460998535156250 46.940700531005859
-61.350200653076172 708.346984863281250 30.263500213623047
-33.850799560546875 707.986022949218750 35.159599304199219
-41.840599060058594 709.317016601562500 27.173299789428711
-76.847198486328125 709.526000976562500 21.470100402832031
-52.859401702880859 709.013000488281250 24.584800720214844
-14.748100280761719 704.351013183593750 37.649299621582031
-5.810120105743408 697.905029296875000 59.381000518798828
-47.346298217773438 702.831970214843750 34.258399963378906
-69.381896972656250 702.577026367187500 27.125099182128906
-25.763099670410156 700.887023925781250 36.211200714111328
-80.350997924804687 701.000000000000000 27.004400253295898
-55.866600036621094 699.531982421875000 28.565500259399414
-63.862499237060547 697.369995117187500 35.792999267578125
-20.247400283813477 695.914001464843750 44.674999237060547
-12.391599655151367 693.971008300781250 51.460201263427734
-36.398998260498047 696.994018554687500 32.117900848388672
-31.238199234008789 693.835021972656250 40.725601196289063
-43.341499328613281 693.429016113281250 38.419498443603516
-53.266899108886719 693.111022949218750 36.390098571777344
-72.361801147460938 693.335021972656250 31.187900543212891
-83.850303649902344 692.357971191406250 32.789699554443359
-61.376800537109375 688.356018066406250 31.144899368286133
-13.682100296020508 683.848999023437500 52.287899017333984
-1.243430018424988 678.971984863281250 70.293296813964844
-80.370101928710938 683.367980957031250 36.221500396728516
-44.891998291015625 682.991027832031250 40.685001373291016
-55.859500885009766 682.974975585937500 39.106601715087891
-30.847900390625000 682.429016113281250 43.972599029541016
-20.137699127197266 682.875976562500000 42.782299041748047
-69.803199768066406 681.965026855468750 34.043498992919922
-8.948100090026856 677.440979003906250 60.000099182128906
-66.871299743652344 675.958984375000000 42.572799682617188
-36.761001586914062 678.419982910156250 36.658699035644531
-18.562799453735352 675.354980468750000 49.814201354980469
-88.369003295898437 675.380981445312500 39.157901763916016
-61.359199523925781 676.406982421875000 33.780601501464844
-26.284599304199219 674.914978027343750 38.518100738525391
-50.332099914550781 674.911987304687500 34.986198425292969
-77.862602233886719 672.880004882812500 38.214900970458984
-44.839298248291016 670.926025390625000 42.413200378417969
-54.864200592041016 669.960998535156250 43.050899505615234
-11.946999549865723 667.458984375000000 57.596801757812500
-33.847499847412109 669.935974121093750 44.532299041748047
-3.467600107192993 665.914978027343750 63.033901214599609
1.362769961357117 663.875976562500000 71.725097656250000
-85.846397399902344 666.403015136718750 46.036998748779297
-71.843902587890625 666.393981933593750 45.961299896240234
-23.016799926757813 666.986022949218750 44.038398742675781
-64.302101135253906 666.473999023437500 37.081600189208984
-91.359397888183594 663.392028808593750 37.618499755859375
-80.387001037597656 662.578979492187500 38.557498931884766
-61.432701110839844 660.856994628906250 45.099498748779297
-50.363899230957031 663.416992187500000 36.250099182128906
-39.912101745605469 660.947998046875000 44.076999664306641
-17.969699859619141 658.601989746093750 55.173698425292969
-10.405500411987305 655.947998046875000 61.987701416015625
-30.805599212646484 659.921020507812500 39.552600860595703
-75.855400085449219 656.877990722656250 45.493198394775391
-86.961402893066406 654.750000000000000 43.058998107910156
-24.375600814819336 655.427978515625000 46.953300476074219
-69.786003112792969 653.807006835937500 38.087200164794922
-92.386100769042969 653.304992675781250 33.672100067138672
-58.384498596191406 653.424987792968750 37.675399780273438
-43.368099212646484 653.932983398437500 37.503299713134766
-50.377601623535156 651.439025878906250 44.195400238037109
-63.894401550292969 650.478027343750000 45.721599578857422
-33.851699829101563 650.948974609375000 46.539001464843750
-12.266200065612793 645.898010253906250 63.854499816894531
-20.798099517822266 647.400024414062500 55.364398956298828
-7.639689922332764 641.820007324218750 71.765899658203125
-83.386802673339844 646.848999023437500 34.120601654052734
-78.410003662109375 643.689025878906250 42.735198974609375
-58.379901885986328 642.958984375000000 37.635101318359375
-41.874401092529297 641.469970703125000 45.647899627685547
-33.978298187255859 642.976989746093750 39.640499114990234
-27.369400024414063 639.919982910156250 49.916400909423828
-70.328300476074219 641.453002929687500 35.833900451660156
-93.853698730468750 642.299011230468750 28.165399551391602
-14.888999938964844 635.193969726562500 66.472198486328125
-66.385101318359375 637.151000976562500 44.238098144531250
-20.813899993896484 634.416015625000000 57.893798828125000
-47.866798400878906 637.567016601562500 38.543498992919922
-86.355300903320313 635.895996093750000 37.013801574707031
-36.364200592041016 632.440002441406250 47.138599395751953
-77.913497924804687 634.844970703125000 31.689100265502930
-61.351699829101563 632.914978027343750 36.487998962402344
-53.868698120117187 630.419982910156250 44.078098297119141
-72.323799133300781 630.466979980468750 39.311798095703125
-27.737400054931641 628.408996582031250 52.842201232910156
-41.866199493408203 627.940979003906250 40.074298858642578
-93.844703674316406 628.922973632812500 21.431699752807617
-84.489799499511719 627.283020019531250 27.709499359130859
-64.299797058105469 622.973022460937500 40.776298522949219
-19.503599166870117 614.604003906250000 77.566101074218750
-47.386600494384766 621.416015625000000 45.590900421142578
-22.905099868774414 616.940979003906250 65.933898925781250
-36.431900024414063 620.771972656250000 47.194400787353516
-75.312301635742188 623.443969726562500 29.826400756835938
-52.947898864746094 621.455993652343750 37.207099914550781
-18.812299728393555 605.909973144531250 101.906997680664060
-28.468799591064453 617.465026855468750 53.021400451660156
-89.040702819824219 619.744018554687500 21.144500732421875
-20.965099334716797 604.989990234375000 85.937500000000000
-76.864402770996094 613.114013671875000 34.284500122070312
-28.352199554443359 607.926025390625000 58.918300628662109
-67.446899414062500 611.356994628906250 38.552101135253906
-23.306800842285156 597.906982421875000 95.404502868652344
-50.759399414062500 609.429992675781250 44.122600555419922
-25.874300003051758 594.958007812500000 104.911003112792970
-55.887001037597656 610.924987792968750 35.577400207519531
-33.135700225830078 607.956970214843750 49.780700683593750
-39.408599853515625 609.947021484375000 39.237400054931641
-80.780296325683594 611.955993652343750 24.309099197387695
-93.316200256347656 611.963989257812500 13.799699783325195
-25.695199966430664 593.888000488281250 84.914001464843750
-73.119598388671875 605.473999023437500 27.601900100708008
-61.323600769042969 602.426025390625000 39.863601684570313
-31.516899108886719 586.604980468750000 104.823997497558590
-86.487098693847656 605.898986816406250 18.106500625610352
-47.425201416015625 599.955017089843750 45.568298339843750
-37.430400848388672 600.460998535156250 44.421798706054688
-33.369998931884766 597.424987792968750 53.419601440429687
-30.048200607299805 586.568969726562500 92.878898620605469
-69.818702697753906 598.927001953125000 35.334300994873047
-94.370399475097656 600.445007324218750 12.483099937438965
-29.899599075317383 585.447021484375000 76.910301208496094
-39.501499176025391 577.127990722656250 105.344001770019530
-53.289398193359375 592.932006835937500 37.287601470947266
-41.856498718261719 592.431030273437500 38.816898345947266
-80.965599060058594 594.932983398437500 22.136800765991211
-37.968101501464844 588.257995605468750 51.340499877929687
-33.334400177001953 578.422973632812500 84.910102844238281
-47.776298522949219 587.418029785156250 46.280799865722656
-63.943199157714844 589.950988769531250 32.171199798583984
-97.323997497558594 591.388000488281250 15.793000221252441
-38.116199493408203 572.817016601562500 93.021400451660156
-58.781398773193359 584.919006347656250 40.735698699951172
-34.114700317382812 578.177001953125000 66.757400512695312
-88.897903442382812 587.013000488281250 20.650100708007813
-75.298797607421875 585.906982421875000 26.824899673461914
-43.175399780273438 566.935974121093750 106.074996948242190
-43.344200134277344 580.929016113281250 38.388401031494141
-36.865600585937500 571.159973144531250 77.646499633789063
-100.832000732421870 583.242980957031250 20.683000564575195
-66.906997680664063 579.965026855468750 37.581199645996094
-38.800399780273438 577.380981445312500 49.898200988769531
-52.901798248291016 576.447998046875000 38.154800415039062
-80.837097167968750 576.921997070312500 27.396999359130859
-47.833999633789063 572.926025390625000 46.890998840332031
-42.882499694824219 561.447998046875000 90.893600463867188
-36.929000854492188 567.989013671875000 65.419898986816406
-91.377403259277344 576.044006347656250 25.589199066162109
-40.392799377441406 557.184997558593750 105.752998352050780
-102.839996337890620 573.955993652343750 27.445699691772461
-40.397598266601562 561.958007812500000 79.393203735351562
-61.387901306152344 571.952026367187500 35.002899169921875
-72.389801025390625 572.484008789062500 31.136499404907227
-86.260101318359375 569.185974121093750 36.401798248291016
-41.536300659179688 570.046997070312500 38.709499359130859
-111.009002685546870 568.968994140625000 31.618099212646484
-55.906501770019531 565.971008300781250 44.128299713134766
-94.363998413085938 567.023010253906250 30.177200317382813
-39.495998382568359 558.489990234375000 69.372497558593750
-42.256000518798828 560.835021972656250 49.907600402832031
-40.974399566650391 550.403991699218750 89.461196899414063
-69.346298217773438 562.935974121093750 33.947700500488281
-48.328998565673828 561.924987792968750 38.426998138427734
-43.532901763916016 551.489013671875000 78.851997375488281
-64.267097473144531 559.810974121093750 42.174999237060547
-105.546997070312500 562.450988769531250 24.731800079345703
-80.352203369140625 560.473999023437500 33.097099304199219
-114.805999755859370 558.918029785156250 32.944499969482422
-74.347000122070313 557.927978515625000 41.445999145507813
-87.347000122070313 556.906982421875000 39.837898254394531
-97.324798583984375 557.440002441406250 29.375600814819336
-42.517299652099609 548.052978515625000 68.378997802734375
-34.001800537109375 539.875000000000000 100.507003784179690
-58.361000061035156 550.484985351562500 45.103199005126953
-38.817901611328125 538.921020507812500 90.893600463867188
-50.840999603271484 551.424011230468750 38.410999298095703
-69.364097595214844 548.955017089843750 43.107398986816406
-44.058998107910156 547.958984375000000 49.359100341796875
-81.364402770996094 548.395019531250000 41.459999084472656
-42.666400909423828 539.854980468750000 78.826599121093750
-104.405998229980470 551.426025390625000 21.345600128173828
-86.222602844238281 547.908020019531250 32.196601867675781
-28.425600051879883 531.317016601562500 100.533996582031250
-94.439300537109375 547.820007324218750 25.473300933837891
-45.347301483154297 538.434020996093750 66.407798767089844
-39.377998352050781 528.838989257812500 87.387199401855469
-66.850196838378906 539.932983398437500 37.966400146484375
-45.345298767089844 537.929016113281250 47.907398223876953
-51.469200134277344 539.948974609375000 37.168300628662109
-58.351200103759766 536.844970703125000 45.653598785400391
-42.208499908447266 529.181030273437500 77.471000671386719
-76.867301940917969 536.906982421875000 40.445701599121094
-87.324203491210938 540.453002929687500 24.891300201416016
-101.850997924804690 540.418029785156250 21.390800476074219
-22.217699050903320 523.093994140625000 96.781402587890625
-31.162200927734375 523.614990234375000 91.696701049804688
-79.463203430175781 536.825012207031250 30.525999069213867
-67.497901916503906 531.817016601562500 44.681900024414063
-44.329101562500000 526.911987304687500 66.898200988769531
-36.151699066162109 520.002014160156250 82.766998291015625
-50.797500610351563 528.909973144531250 44.033000946044922
-69.782402038574219 530.481018066406250 34.860500335693359
-94.421203613281250 532.796020507812500 21.137899398803711
-58.376201629638672 527.450012207031250 37.653198242187500
-76.848999023437500 528.419006347656250 25.422300338745117
-40.798301696777344 516.952026367187500 74.376602172851562
-23.222700119018555 512.078979492187500 88.201797485351563
-86.309600830078125 526.494018554687500 20.519899368286133
-45.126201629638672 517.929992675781250 58.370300292968750
-64.239601135253906 519.903015136718750 43.267898559570313
-31.256099700927734 510.515991210937500 81.308197021484375
-50.351600646972656 520.935974121093750 34.216098785400391
-53.291599273681641 517.924987792968750 43.570800781250000
-44.027400970458984 509.955993652343750 66.551200866699219
-70.941101074218750 519.354003906250000 24.992099761962891
-36.843299865722656 506.424987792968750 73.911903381347656
-46.653598785400391 511.928009033203120 49.877700805664062
-81.339302062988281 517.429992675781250 21.413499832153320
-24.041799545288086 503.610992431640620 82.639297485351563
-67.007797241210938 513.830993652343750 33.500900268554688
-81.945098876953125 521.810974121093750 -4.695390224456787
-57.350101470947266 512.440979003906250 35.782798767089844
-81.878997802734375 517.950012207031250 9.930540084838867
-88.928802490234375 509.852996826171870 25.145900726318359
-65.338798522949219 505.925994873046870 39.906200408935547
-29.432899475097656 498.316009521484370 74.587997436523438
-41.223899841308594 499.973999023437500 66.323997497558594
-46.370201110839844 501.992004394531250 55.952201843261719
-17.503299713134766 495.704986572265620 84.621597290039063
-52.856998443603516 504.434997558593750 41.354999542236328
-76.841300964355469 508.925994873046880 16.409500122070312
-80.848999023437500 504.438995361328120 31.540899276733398
-76.659400939941406 511.033996582031250 2.058439970016480
-75.290199279785156 512.466979980468750 -9.055729866027832
-66.908302307128906 501.408996582031250 30.469499588012695
-69.120201110839844 502.859985351562500 19.571100234985352
-22.992000579833984 489.813995361328120 74.085601806640625
-55.932098388671875 498.964996337890620 33.123298645019531
-11.902000427246094 487.677001953125000 79.115699768066406
-91.839401245117188 497.925994873046870 27.410200119018555
-34.729801177978516 490.033996582031250 66.258201599121094
-64.379501342773438 495.989990234375000 38.493198394775391
-47.637798309326172 492.359008789062500 48.829101562500000
-43.390598297119141 489.912994384765620 57.949100494384766
-71.445701599121094 503.390991210937500 -4.106679916381836
-75.340599060058594 492.933013916015620 33.926300048828125
-99.860496520996094 490.398986816406250 28.088199615478516
-73.804702758789063 496.851013183593750 5.367889881134033
-28.747699737548828 481.704986572265620 66.377403259277344
-85.847602844238281 488.928009033203120 27.075700759887695
-52.872699737548828 488.959014892578120 30.214199066162109
-36.765499114990234 481.992004394531250 59.297698974609375
-17.395000457763672 478.843994140625000 70.096702575683594
-62.857200622558594 486.915985107421870 30.447399139404297
-69.727096557617188 490.959014892578120 13.367600440979004
-9.155949592590332 476.411987304687500 77.886398315429687
-70.982803344726563 492.929992675781250 -5.981040000915527
-72.342399597167969 483.911010742187500 28.370300292968750
-48.324901580810547 479.424011230468750 46.901298522949219
-58.373600006103516 481.390991210937500 37.637199401855469
-94.425697326660156 480.832000732421870 26.652000427246094
-71.626701354980469 487.190002441406250 2.723639965057373
-105.762001037597660 479.441009521484370 27.518100738525391
-67.787300109863281 476.888000488281250 35.706100463867188
-15.717200279235840 468.335998535156250 76.400596618652344
-39.854598999023438 473.423004150390630 52.435699462890625
-83.341300964355469 477.928009033203120 26.855400085449219
-16.797300338745117 468.449005126953120 66.297698974609375
-55.918800354003906 476.455993652343750 29.250600814819336
-31.986000061035156 468.378997802734370 58.091499328613281
-47.863601684570313 468.497009277343750 44.955200195312500
-20.918199539184570 460.477996826171870 79.862602233886719
-50.266601562500000 468.445007324218750 34.773498535156250
-23.200599670410156 462.502990722656250 60.694400787353516
-72.922401428222656 478.346008300781250 -10.077099800109863
-71.304901123046875 468.437988281250000 29.230400085449219
-91.335700988769531 468.434997558593750 24.377899169921875
-39.440200805664063 463.361999511718750 50.649299621582031
-80.817497253417969 466.941986083984370 26.254199981689453
-20.187700271606445 456.872009277343750 69.440597534179688
-31.455600738525391 458.847991943359370 55.105800628662109
-26.319900512695313 451.911010742187500 77.417396545410156
-55.876098632812500 459.993011474609370 38.283599853515625
-98.743400573730469 461.424987792968750 24.529499053955078
-50.441001892089844 462.384002685546870 25.669000625610352
-70.327400207519531 468.427001953125000 -3.095499992370606
-45.633300781250000 457.039001464843750 44.236801147460938
-67.761100769042969 464.420989990234370 9.383350372314453
-75.311996459960938 458.441986083984370 26.322200775146484
-86.288803100585938 458.483001708984370 23.273399353027344
-75.840797424316406 467.925994873046870 -13.590200424194336
-37.415298461914063 452.911010742187500 49.554000854492188
-25.758300781250000 449.928009033203120 56.830299377441406
-31.977100372314453 443.518005371093750 79.733200073242187
-24.622400283813477 446.335998535156250 68.465103149414063
-65.313903808593750 453.433990478515620 33.753200531005859
-48.931598663330078 452.373992919921870 35.068298339843750
-57.795700073242188 451.937011718750000 25.047100067138672
-93.832099914550781 451.425994873046870 21.417600631713867
-74.087196350097656 457.283996582031250 -3.965159893035889
-44.001201629638672 445.878997802734370 44.071800231933594
-68.296096801757813 454.928985595703120 4.386929988861084
-29.701799392700195 437.833007812500000 71.521003723144531
-77.225097656250000 459.329986572265620 -21.135599136352539
-37.518398284912109 435.118988037109370 79.305900573730469
-33.992698669433594 442.450988769531250 50.129001617431641
-83.404502868652344 448.175994873046870 20.620599746704102
-60.850799560546875 444.414001464843750 31.006000518798828
-89.536796569824219 456.083007812500000 -19.452600479125977
-50.443401336669922 443.333007812500000 30.629899978637695
-66.150299072265625 445.454010009765620 17.850099563598633
-28.343399047851562 436.928009033203120 56.412700653076172
-80.799201965332031 450.373992919921870 -7.330949783325195
-73.124702453613281 446.355010986328120 0.194750994443893
-47.083698272705078 437.410003662109370 38.600799560546875
-44.296699523925781 427.394012451171870 77.488098144531250
-33.967899322509766 428.445007324218750 70.267799377441406
-39.505699157714844 433.877990722656250 45.633598327636719
-91.366203308105469 437.109008789062500 20.298299789428711
-67.723503112792969 440.906005859375000 8.327500343322754
-86.317100524902344 441.895996093750000 -7.152589797973633
-56.793998718261719 435.411010742187500 21.490900039672852
-33.102600097656250 427.790008544921880 52.649600982666016
-59.844001770019531 431.428985595703120 31.930000305175781
-65.672096252441406 434.953002929687500 16.822599411010742
-78.927200317382813 438.024993896484370 2.008239984512329
-47.740600585937500 431.884002685546870 29.405599594116211
-48.957801818847656 418.587005615234370 74.715103149414063
-38.400100708007813 418.957000732421870 68.812103271484375
-70.494499206542969 430.967010498046870 5.586649894714356
-53.836299896240234 423.925994873046870 34.904499053955078
-42.280601501464844 422.921997070312500 38.341999053955078
-61.467700958251953 425.936004638671870 20.127000808715820
-83.847297668457031 430.428985595703120 -3.905459880828857
-34.480098724365234 415.976013183593750 59.876800537109375
-55.276798248291016 410.307006835937500 71.627601623535156
-44.970699310302734 411.036987304687500 69.078903198242188
-91.819396972656250 425.459991455078120 5.018080234527588
-67.836700439453125 423.429992675781250 11.907699584960937
-79.900703430175781 423.464996337890620 4.072549819946289
-62.161300659179688 407.733001708984370 63.232299804687500
-53.306800842285156 416.398986816406250 16.513299942016602
-39.857799530029297 405.395996093750000 59.367801666259766
-48.850399017333984 411.938995361328120 31.912799835205078
-42.272300720214844 409.929992675781250 39.373199462890625
-88.861999511718750 417.875000000000000 -1.249750018119812
-64.302398681640625 414.433013916015620 15.371399879455566
-72.496696472167969 416.441009521484370 3.661540031433106
-62.862300872802734 397.032989501953120 65.233901977539062
-47.378601074218750 396.947998046875000 63.284000396728516
-81.348602294921875 410.437988281250000 0.008476999588311
-58.366001129150391 405.989990234375000 16.623100280761719
-86.318801879882813 405.446990966796870 8.981479644775391
-72.358703613281250 392.290985107421870 60.642898559570313
-42.260898590087891 394.890014648437500 53.413398742675781
-48.418899536132813 404.404998779296870 14.516500473022461
-67.458297729492188 404.919006347656250 8.497859954833984
-49.070499420166016 395.860992431640630 30.101100921630859
-52.909099578857422 388.011993408203120 60.667198181152344
-80.813598632812500 387.459991455078120 55.861499786376953
-62.776199340820312 396.937988281250000 13.803500175476074
-64.301002502441406 385.002014160156250 59.256599426269531
-92.354896545410156 396.915985107421870 7.396820068359375
-102.989997863769530 396.885009765625000 5.894770145416260
-86.321800231933594 386.930999755859370 47.405601501464844
-46.193698883056641 385.838989257812500 51.434501647949219
-72.425598144531250 396.442993164062500 3.670399904251099
-83.377601623535156 395.398010253906250 2.781680107116699
-50.349998474121094 393.385009765625000 11.614600181579590
-72.450103759765625 379.804992675781250 54.642799377441406
-46.023799896240234 383.489013671875000 40.283901214599609
-57.380199432373047 378.009002685546880 56.766700744628906
-103.362998962402340 387.920013427734370 10.386599540710449
-108.850997924804690 385.430999755859370 19.455900192260742
-67.029998779296875 388.890014648437500 8.058950424194336
-84.081703186035156 378.850006103515620 40.460098266601563
-45.958499908447266 384.425994873046870 21.380599975585938
-58.365699768066406 385.485992431640620 12.641900062561035
-75.297798156738281 385.350006103515620 3.662440061569214
-78.044700622558594 374.256988525390620 47.097301483154297
-49.152698516845703 374.839996337890620 46.485298156738281
-66.930397033691406 370.341003417968750 52.638099670410156
-50.361000061035156 379.981994628906250 9.201259613037109
-56.022800445556641 367.115997314453120 50.120201110839844
-49.990200042724609 370.457000732421870 30.404800415039063
-72.843200683593750 363.423004150390620 46.918598175048828
-58.407699584960937 371.951995849609370 10.149399757385254
-52.191699981689453 363.907989501953120 41.057098388671875
-46.329200744628906 366.425994873046870 21.416299819946289
-64.338203430175781 357.936004638671870 46.887901306152344
-50.410900115966797 360.436004638671870 30.434400558471680
-50.358001708984375 363.970001220703120 6.167079925537109
-58.046600341796875 352.631011962890620 41.183399200439453
-47.610500335693359 355.457000732421870 21.150699615478516
-66.851196289062500 347.759002685546870 41.199501037597656
-57.441699981689453 356.549011230468750 6.177720069885254
-52.165699005126953 349.838989257812500 33.028701782226562
-50.352298736572266 349.459991455078120 2.839790105819702
-58.759601593017578 340.841003417968750 34.051101684570313
-60.381599426269531 328.901000976562500 30.339300155639648
-52.983100891113281 321.953002929687500 21.364799499511719
