ply
format ascii 1.0
element vertex 154
property double x
property double y
property double z
end_header
-166.766006469726560 821.534973144531250 232.225006103515620
-166.766006469726560 821.534973144531250 232.225006103515620
-170.451004028320310 822.200988769531250 222.266006469726560
-165.792007446289060 813.443969726562500 225.878997802734370
-166.375000000000000 805.317993164062500 219.992004394531250
-169.333999633789060 801.929992675781250 209.404998779296870
-163.598999023437500 795.564025878906250 214.725006103515620
-166.776992797851560 789.968994140625000 203.348007202148440
-160.625000000000000 785.127014160156250 211.664993286132810
-169.641998291015620 783.078002929687500 194.757995605468750
-152.740997314453120 779.302001953125000 209.156005859375000
-163.804992675781250 779.018005371093750 203.779998779296870
-166.442001342773440 772.768981933593750 195.001998901367190
-154.871994018554690 769.822021484375000 204.580001831054690
-167.817001342773440 767.447021484375000 185.906997680664060
-160.630004882812500 764.481994628906250 197.231002807617190
-153.348999023437500 762.919982910156250 181.623992919921870
-152.367996215820310 754.893005371093750 197.464004516601560
-160.164993286132810 755.505981445312500 190.309997558593750
-144.065002441406250 751.966979980468750 192.686996459960940
-153.358001708984370 753.375000000000000 176.514007568359370
-163.242004394531250 751.758972167968750 181.294006347656250
-154.901000976562500 744.328002929687500 188.557006835937500
-158.889007568359370 742.377990722656250 179.434005737304690
-152.875000000000000 742.575012207031250 171.104995727539060
-146.880004882812500 737.848022460937500 190.093002319335940
-160.664993286132810 738.474975585937500 163.003005981445310
-152.712005615234370 729.453979492187500 181.811004638671870
-141.376998901367190 728.530029296875000 185.186996459960940
-146.860000610351560 732.515014648437500 165.796005249023440
-157.302993774414060 729.406982421875000 172.871002197265620
-157.893005371093750 729.931030273437500 157.369995117187500
-149.518005371093750 719.296997070312500 180.643005371093750
-151.358993530273440 723.570983886718750 162.229995727539060
-141.376998901367190 720.375000000000000 163.494995117187500
-153.098007202148440 716.351013183593750 171.550994873046870
-154.289001464843750 720.421020507812500 151.462997436523440
-141.341003417968750 712.413024902343750 178.944000244140620
-152.916000366210940 712.353027343750000 160.789993286132810
-148.526000976562500 706.853027343750000 173.511001586914060
-144.837005615234370 709.478027343750000 153.761001586914060
-152.458999633789060 709.906005859375000 146.794998168945310
-138.404006958007810 701.513977050781250 174.218994140625000
-144.962005615234370 709.411987304687500 137.300003051757810
-149.891006469726560 700.919006347656250 162.919998168945310
-151.654006958007810 698.918029785156250 149.087997436523440
-140.860000610351560 697.921997070312500 149.958999633789060
-140.932006835937500 699.388977050781250 132.824996948242190
-132.932998657226560 690.533020019531250 168.154006958007810
-143.873001098632810 689.898010253906250 167.988998413085940
-146.992004394531250 690.861022949218750 158.421997070312500
-146.792007446289060 694.440979003906250 140.955993652343750
-132.966995239257810 680.004028320312500 164.649993896484370
-142.947006225585940 679.859008789062500 162.524002075195310
-132.744995117187500 686.523986816406250 133.994995117187500
-145.843994140625000 680.734008789062500 152.304000854492190
-146.936004638671870 682.758972167968750 140.253997802734370
-134.733001708984370 683.926025390625000 124.477996826171870
-141.261001586914060 681.406005859375000 131.981994628906250
-128.347000122070310 671.927001953125000 159.397003173828120
-138.408996582031250 670.297973632812500 159.615005493164060
-143.169006347656250 670.776977539062500 147.162002563476560
-128.464004516601560 674.942993164062500 129.779006958007810
-144.186004638671870 670.939025878906250 134.580001831054690
-137.404006958007810 673.440002441406250 125.329002380371090
-124.860000610351560 663.929992675781250 153.893997192382810
-140.897003173828120 661.814025878906250 151.837005615234370
-132.841003417968750 659.427001953125000 157.908996582031250
-130.910995483398440 669.450988769531250 118.316001892089840
-138.951995849609370 660.593994140625000 142.067001342773440
-126.933998107910160 662.603027343750000 125.209999084472660
-139.910995483398440 661.577026367187500 127.152000427246090
-137.402999877929690 652.385009765625000 149.455993652343750
-127.495002746582030 651.221984863281250 150.789001464843750
-134.768005371093750 657.890991210937500 118.986999511718750
-125.857002258300780 658.443969726562500 112.856002807617190
-136.464004516601560 649.403991699218750 137.947998046875000
-119.356002807617190 653.927001953125000 119.385002136230470
-132.733993530273440 642.127014160156250 149.777999877929690
-130.272003173828120 648.416015625000000 112.980003356933590
-122.355003356933590 638.934997558593750 145.882003784179690
-136.824005126953120 644.424987792968750 119.929000854492190
-135.412002563476560 641.361999511718750 131.462997436523440
-134.684005737304690 637.935974121093750 140.854995727539060
-122.917999267578120 643.489013671875000 118.676002502441410
-121.843002319335940 643.935974121093750 107.379997253417970
-113.845001220703120 640.429016113281250 113.900001525878910
-113.843002319335940 640.431030273437500 100.889999389648440
-127.485000610351560 628.843017578125000 144.639999389648440
-133.972000122070310 634.979980468750000 114.280998229980470
-133.345993041992190 631.926025390625000 125.916999816894530
-131.477005004882810 627.369018554687500 134.930999755859370
-126.291000366210940 633.366027832031250 107.027000427246090
-108.505996704101560 632.440002441406250 107.731002807617190
-122.100997924804690 622.880981445312500 138.194000244140620
-117.370002746582030 630.497009277343750 101.695999145507810
-120.352996826171870 627.419982910156250 112.870002746582030
-130.026992797851560 622.770019531250000 121.052001953125000
-130.610000610351560 622.456970214843750 107.177001953125000
-112.371002197265620 622.450012207031250 107.293998718261720
-121.927001953125000 621.008972167968750 101.153999328613280
-124.733001708984370 612.013977050781250 135.822998046875000
-102.772003173828120 620.390991210937500 103.477996826171870
-128.345993041992190 611.922973632812500 125.908996582031250
-115.299003601074220 608.898010253906250 132.000000000000000
-113.240997314453120 617.729003906250000 96.112701416015625
-126.362998962402340 611.914001464843750 114.916999816894530
-115.399002075195310 611.979003906250000 106.283996582031250
-127.408996582031250 610.424987792968750 101.853996276855470
-122.013000488281250 600.809020996093750 132.619995117187500
-105.367996215820310 609.020019531250000 101.638999938964840
-126.513000488281250 602.924011230468750 120.418998718261720
-113.782997131347660 599.387023925781250 125.418998718261720
-113.310997009277340 607.424987792968750 92.954002380371094
-123.459999084472660 602.346008300781250 109.478996276855470
-112.852996826171870 601.593994140625000 101.758003234863280
-122.569999694824220 594.526000976562500 124.280998229980470
-119.342002868652340 599.429016113281250 92.901603698730469
-105.369003295898440 599.471008300781250 89.645698547363281
-119.496002197265620 591.817993164062500 105.017997741699220
-99.878997802734375 594.041015625000000 96.141502380371094
-110.934997558593750 591.551025390625000 98.193702697753906
-123.897003173828120 585.885009765625000 115.461997985839840
-119.152000427246090 583.341003417968750 124.027999877929690
-113.313003540039060 590.854003906250000 88.347396850585938
-110.866996765136720 579.945007324218750 118.858001708984370
-120.450996398925780 577.909973144531250 110.408996582031250
-106.847000122070310 579.877014160156250 92.799598693847656
-116.955001831054690 571.752990722656250 119.073997497558590
-108.318000793457030 569.409973144531250 113.960998535156250
-118.435997009277340 567.914001464843750 104.444000244140620
-103.377998352050780 569.859985351562500 88.649497985839844
-114.897003173828130 561.369995117187500 113.996002197265620
-105.424003601074220 560.539978027343750 109.194000244140620
-116.829002380371090 557.929992675781250 99.407897949218750
-100.805000305175780 560.431030273437500 85.191299438476563
-113.191001892089840 552.979980468750000 107.372001647949220
-105.547996520996090 546.507995605468750 106.691001892089840
-111.290000915527340 538.947998046875000 102.387001037597660
-100.320999145507810 539.870971679687500 99.042503356933594
-112.956001281738280 539.887023925781250 92.424797058105469
-108.724998474121090 528.596984863281250 98.234802246093750
-110.319999694824220 529.929016113281250 84.905197143554688
-99.916099548339844 524.481018066406250 92.656402587890625
-106.402000427246090 516.848999023437500 93.053802490234375
-108.223999023437500 518.958007812500000 83.374298095703125
-97.979896545410156 513.437988281250000 88.750602722167969
-105.461997985839840 508.942993164062500 80.486701965332031
-89.018699645996094 506.920013427734370 83.185096740722656
-102.834999084472660 500.929992675781250 85.898200988769531
-93.798301696777344 497.924987792968750 82.438102722167969
-103.455001831054690 497.894012451171870 75.938301086425781
-100.916000366210940 487.791992187500000 79.521202087402344
-91.391899108886719 484.937011718750000 76.363403320312500
