ply
format ascii 1.0
element vertex 415
property double x
property double y
property double z
end_header
280.101013183593750 -123.262001037597660 -124.098999023437500
230.613998413085940 -116.802001953125000 -124.704002380371090
247.151992797851560 -118.112998962402340 -124.053001403808590
221.535003662109370 -120.949996948242190 -122.712997436523440
263.596008300781250 -119.359001159667970 -125.027999877929690
290.795013427734370 -105.861000061035160 -175.776992797851560
310.125000000000000 -107.088996887207030 -171.207000732421870
319.274993896484370 -105.802001953125000 -176.591003417968750
238.662994384765620 -121.130996704101560 -129.985992431640620
299.147003173828120 -108.980003356933590 -170.878005981445310
280.101013183593750 -123.262001037597660 -124.098999023437500
255.119995117187500 -123.863998413085940 -129.264999389648440
271.614013671875000 -123.313003540039060 -130.975997924804690
227.606002807617190 -126.013999938964840 -129.727005004882810
285.649993896484370 -113.959999084472660 -170.453002929687500
278.149993896484370 -113.056999206542970 -177.082992553710940
288.111999511718750 -125.283996582031250 -130.080993652343750
213.733001708984370 -129.649002075195310 -123.049003601074220
326.591003417968750 -112.638000488281250 -176.205001831054690
316.131988525390620 -115.612998962402340 -170.688003540039060
295.595001220703120 -129.296997070312500 -122.182998657226560
304.614990234375000 -117.731002807617190 -167.294998168945310
332.720001220703120 -112.464996337890620 -184.598007202148440
278.175994873046870 -125.831001281738280 -139.100006103515620
293.649993896484380 -119.294998168945310 -165.367996215820310
277.066009521484370 -119.291000366210940 -167.897003173828120
296.579986572265620 -126.789001464843750 -135.626998901367190
263.625000000000000 -127.835998535156250 -136.240997314453120
218.667999267578120 -130.591995239257810 -132.598999023437500
247.110000610351560 -129.863006591796870 -134.328002929687500
271.571014404296870 -116.926002502441410 -184.514007568359370
304.601013183593750 -130.822998046875000 -128.136993408203130
269.736999511718750 -120.165000915527340 -175.136993408203130
307.619995117187500 -128.335006713867190 -140.106002807617190
340.665008544921870 -129.919998168945310 -132.018005371093750
235.740997314453120 -132.240997314453120 -136.902999877929690
255.156997680664060 -130.563003540039060 -141.095001220703120
282.651000976562500 -124.748001098632810 -161.251998901367190
332.157989501953130 -128.934005737304690 -138.082000732421870
205.046997070312500 -137.417007446289060 -121.697998046875000
313.066986083984370 -123.222999572753910 -164.294998168945310
315.639007568359370 -132.285003662109370 -128.145004272460940
325.658996582031250 -132.014007568359370 -129.050994873046870
318.608001708984370 -129.294998168945310 -141.130996704101560
285.661987304687500 -129.621994018554690 -145.074996948242190
331.670989990234370 -121.060997009277340 -173.572006225585940
266.092010498046870 -125.810997009277340 -163.468994140625000
295.652008056640620 -129.238998413085940 -146.035003662109370
340.430999755859370 -118.405998229980470 -187.044998168945310
346.141998291015620 -129.820999145507810 -141.009994506835940
323.705993652343750 -123.970001220703120 -167.914001464843750
291.058990478515620 -128.292999267578130 -156.339004516601560
210.705001831054690 -137.106002807617190 -132.018005371093750
302.115997314453120 -127.730003356933590 -157.378005981445310
269.165008544921870 -132.087997436523440 -145.587005615234370
357.139007568359370 -130.332992553710940 -140.960998535156250
271.652008056640620 -129.479995727539060 -155.985000610351560
310.125000000000000 -129.742996215820310 -151.098007202148440
326.635986328125000 -131.149993896484370 -149.059997558593750
341.734985351562500 -123.978996276855470 -176.514007568359370
256.200988769531250 -130.699005126953120 -161.617004394531250
244.076004028320310 -135.464996337890630 -144.507995605468750
225.059997558593750 -138.369003295898440 -136.292999267578120
318.614013671875000 -130.298004150390620 -158.768005371093750
337.604003906250000 -132.625000000000000 -150.393997192382810
281.657989501953120 -133.544006347656250 -154.608993530273440
335.108001708984370 -128.690002441406250 -167.684997558593750
260.071990966796870 -128.889999389648440 -179.093002319335940
263.591003417968750 -135.296997070312500 -153.992996215820310
328.657012939453130 -132.100006103515620 -159.089996337890620
252.587005615234380 -137.365997314453120 -149.757995605468750
194.513000488281250 -148.462005615234370 -113.647003173828120
198.789993286132810 -145.736999511718750 -124.019996643066410
252.285995483398440 -132.813995361328120 -171.537994384765620
233.089004516601560 -140.850006103515620 -142.233001708984370
348.572998046875000 -134.826995849609370 -151.020004272460940
365.118011474609380 -135.208999633789060 -148.488006591796870
346.029998779296870 -131.270004272460940 -169.785995483398440
242.628997802734370 -136.886993408203120 -162.067001342773440
347.638000488281250 -126.595001220703130 -190.089996337890620
350.278015136718750 -129.425003051757810 -179.052001953125000
204.091003417968750 -145.436996459960940 -135.154006958007810
340.648986816406250 -134.641006469726560 -161.080993652343750
213.725006103515620 -145.294006347656250 -137.966003417968750
183.164001464843750 -137.522994995117190 -176.074005126953120
376.160003662109370 -138.574996948242190 -148.589996337890620
357.105987548828120 -137.736999511718750 -155.552001953125000
229.697006225585940 -143.111999511718750 -151.617004394531250
236.141006469726560 -138.393997192382810 -169.664001464843750
240.580001831054690 -142.880004882812500 -151.654998779296870
222.063003540039060 -145.861999511718750 -144.160995483398440
227.656997680664060 -140.856994628906250 -163.526000976562500
192.662994384765620 -138.294006347656250 -179.151992797851560
191.703002929687500 -153.111999511718750 -124.078002929687500
219.619995117187500 -140.322006225585940 -171.593002319335940
211.139007568359370 -142.527999877929690 -165.078994750976560
244.063003540039060 -138.313995361328120 -178.223999023437500
200.143997192382810 -141.481002807617190 -171.567993164062500
356.973999023437500 -135.850997924804690 -174.203002929687500
351.562988281250000 -138.753997802734370 -164.647003173828120
209.669006347656250 -140.408004760742190 -177.080993652343750
252.283996582031250 -137.309997558593750 -184.537002563476560
189.369003295898440 -157.240005493164060 -114.738998413085940
178.072006225585940 -143.832000732421870 -169.865005493164060
368.109985351562500 -141.315994262695310 -156.457000732421870
197.210006713867190 -152.671005249023440 -134.024002075195310
189.154006958007810 -144.212005615234370 -168.725997924804690
227.651992797851560 -140.942001342773440 -178.115005493164060
203.102005004882810 -140.255004882812500 -185.041000366210940
214.546005249023440 -148.837997436523440 -151.500000000000000
354.119995117187500 -134.621002197265620 -191.087997436523440
169.835998535156250 -144.791000366210940 -176.251007080078120
202.770004272460940 -152.776000976562500 -143.542007446289060
387.191009521484370 -146.011993408203120 -150.106002807617190
361.174011230468750 -143.039993286132810 -166.115997314453120
214.162002563476560 -143.065994262695310 -186.089004516601560
379.013000488281250 -145.371994018554690 -156.925994873046870
362.490997314453120 -139.393005371093750 -183.011001586914060
185.095993041992190 -161.533996582031250 -123.584999084472660
183.619995117187500 -151.992996215820310 -162.925994873046870
236.136993408203130 -144.919006347656250 -185.173995971679690
368.009002685546870 -143.276992797851560 -174.703002929687500
189.061996459960940 -159.457992553710940 -134.658996582031250
225.130004882812500 -145.255996704101560 -187.520996093750000
370.648010253906250 -146.098007202148440 -165.083999633789060
174.102996826171870 -153.951004028320310 -166.031997680664060
194.552993774414060 -159.391006469726560 -143.160995483398440
208.272003173828120 -157.296005249023440 -150.925994873046880
395.747985839843750 -151.460998535156250 -151.095993041992190
360.621002197265620 -142.126007080078120 -193.582992553710940
185.222000122070310 -168.087005615234380 -113.717002868652340
373.539001464843750 -145.369995117187500 -184.054992675781250
198.139999389648440 -159.546005249023440 -154.569000244140620
379.989013671875000 -151.322006225585940 -164.973999023437500
376.131988525390620 -149.111999511718750 -174.604003906250000
166.567993164062500 -156.470993041992190 -173.526992797851560
180.768005371093750 -166.186004638671870 -133.570007324218750
186.085006713867190 -164.869995117187500 -143.201004028320310
188.591995239257810 -161.923995971679690 -156.380996704101560
390.001007080078120 -154.330001831054690 -160.427993774414060
370.627990722656250 -147.701004028320310 -194.050003051757810
178.009002685546870 -164.380996704101560 -158.393997192382810
384.065002441406250 -152.692001342773440 -179.686996459960940
168.138000488281250 -163.552993774414060 -165.572006225585940
177.554000854492190 -173.565002441406250 -126.017997741699220
381.639007568359370 -149.804992675781250 -194.527999877929690
386.174011230468750 -157.048995971679690 -170.600006103515620
398.674987792968750 -159.550994873046880 -159.611999511718750
174.087005615234370 -172.975006103515620 -138.104995727539060
392.670013427734370 -152.544006347656250 -197.082992553710940
179.930999755859370 -179.580993652343750 -118.318000793457030
178.022994995117190 -172.837005615234370 -148.315002441406250
171.268997192382810 -171.740997314453120 -156.757003784179690
391.595001220703120 -159.656005859375000 -179.123001098632810
163.115005493164060 -171.992996215820310 -162.574005126953120
395.488006591796870 -163.309005737304690 -170.018005371093750
402.170013427734370 -157.052993774414060 -195.585006713867190
406.483001708984370 -165.789993286132810 -160.514007568359370
167.815994262695310 -180.720993041992190 -134.641998291015620
171.626007080078120 -184.033004760742190 -125.521003723144530
169.679992675781250 -178.602996826171870 -148.563003540039060
158.042007446289060 -172.110992431640620 -176.673004150390620
399.460998535156250 -165.268997192382810 -182.261001586914060
403.664001464843750 -169.069000244140620 -169.595001220703120
410.736999511718750 -162.455993652343750 -195.488006591796870
173.973007202148440 -190.809997558593750 -115.530998229980470
160.279998779296870 -181.201004028320310 -156.798004150390620
161.740997314453120 -184.180999755859370 -145.606002807617190
154.216003417968750 -180.125000000000000 -165.180999755859370
161.447006225585940 -188.860000610351560 -136.509994506835940
167.005996704101560 -192.878997802734370 -122.512001037597660
158.679000854492190 -196.819000244140620 -115.560997009277340
153.953994750976560 -188.222000122070310 -151.085006713867190
408.453002929687500 -170.740997314453120 -187.238998413085940
154.317001342773440 -181.173004150390620 -179.582992553710940
413.148986816406250 -176.587005615234380 -167.583999633789060
159.514999389648440 -195.311996459960940 -128.996002197265620
140.167007446289060 -200.287994384765620 -115.596000671386720
150.703002929687500 -198.753005981445310 -122.086997985839840
153.186004638671870 -194.115997314453120 -141.613006591796870
147.772003173828120 -189.722000122070310 -160.123992919921870
407.041992187500000 -176.707000732421870 -178.063003540039060
131.139999389648440 -200.466003417968750 -122.617996215820310
148.634002685546870 -187.052001953125000 -173.600997924804690
150.542007446289060 -199.287994384765620 -133.078994750976560
117.629997253417970 -203.235000610351560 -122.952003479003910
145.160003662109370 -195.574996948242190 -152.091003417968750
140.617996215820310 -202.429992675781250 -126.137001037597660
417.416992187500000 -177.173004150390620 -193.274002075195310
108.160003662109370 -204.608993530273440 -126.586997985839840
143.625000000000000 -200.018997192382810 -143.052993774414060
151.690002441406250 -189.529006958007810 -185.970993041992190
418.667999267578120 -184.567993164062500 -170.598007202148440
142.175994873046880 -194.583999633789060 -171.583999633789060
125.635002136230470 -206.873992919921870 -128.171997070312500
413.888000488281250 -184.356994628906250 -179.514007568359370
138.026992797851560 -197.929000854492190 -162.552993774414060
101.094001770019530 -206.770004272460940 -133.457000732421870
137.251007080078120 -201.707992553710940 -151.093994140625000
134.052993774414060 -206.839004516601560 -135.121994018554690
113.699996948242190 -208.807006835937500 -134.981002807617190
425.792999267578120 -190.990005493164060 -167.175994873046870
95.155502319335938 -208.699005126953120 -141.490997314453120
146.921005249023440 -197.953994750976560 -181.854003906250000
130.024993896484370 -208.869003295898440 -145.582000732421870
131.216995239257810 -205.121994018554690 -160.667007446289060
422.014007568359370 -187.149993896484370 -193.675994873046880
123.075996398925780 -211.287994384765620 -138.216003417968750
134.035003662109370 -202.492996215820310 -172.158996582031250
93.448402404785156 -214.018997192382810 -132.304992675781250
420.174987792968750 -191.059997558593750 -184.583999633789060
105.713996887207030 -214.832000732421870 -140.255996704101560
137.988998413085940 -203.406997680664060 -181.742004394531250
424.358001708984370 -195.395004272460940 -176.158004760742190
125.249000549316410 -211.716003417968750 -154.500000000000000
425.324005126953120 -189.533996582031250 -203.016998291015620
117.587997436523440 -213.917007446289060 -148.162994384765620
125.138000488281250 -209.041000366210940 -169.600997924804690
129.621002197265620 -208.996002197265620 -179.113998413085940
431.136993408203120 -201.098999023437500 -170.572998046875000
97.292396545410156 -220.572998046875000 -140.520996093750000
92.572502136230469 -225.093994140625000 -127.653999328613280
101.139999389648440 -219.492004394531250 -151.664993286132810
426.984985351562500 -198.166000366210940 -193.671997070312500
117.148002624511720 -216.044006347656250 -170.070007324218750
111.188003540039060 -221.636993408203120 -149.537994384765620
134.192001342773440 -211.214996337890620 -188.576004028320310
120.137001037597660 -213.419998168945310 -183.123992919921870
427.489990234375000 -203.876007080078120 -183.225006103515620
117.524002075195310 -220.893997192382810 -157.761001586914060
109.705001831054690 -217.169998168945310 -178.621994018554690
112.166999816894530 -215.610992431640620 -189.089004516601560
427.213989257812500 -201.548004150390620 -203.613998413085940
436.393005371093750 -209.363006591796870 -173.231002807617190
102.651000976562500 -217.302993774414060 -186.453002929687500
95.010101318359375 -231.029998779296870 -135.652999877929690
96.143600463867188 -222.108001708984370 -178.595001220703120
431.190002441406250 -208.061996459960940 -195.082992553710940
110.657997131347660 -227.074996948242190 -165.582992553710940
433.148010253906250 -212.578002929687500 -184.083999633789060
84.695999145507813 -225.210006713867190 -180.755004882812500
103.634002685546870 -230.537994384765620 -158.147994995117190
114.635002136230470 -232.044006347656250 -157.136993408203120
91.088401794433594 -239.574996948242190 -131.078002929687500
431.257995605468750 -210.964996337890620 -205.117996215820310
98.600997924804688 -236.516998291015620 -151.651000976562500
79.149299621582031 -232.050994873046870 -172.985000610351560
93.879898071289062 -239.369995117187500 -143.151000976562500
90.125000000000000 -233.020004272460940 -174.453002929687500
440.717987060546870 -221.520004272460940 -174.074996948242190
98.109100341796875 -235.453994750976560 -168.020004272460940
434.740997314453120 -217.541000366210940 -194.589004516601560
108.677001953125000 -237.087005615234370 -165.123001098632810
438.207000732421870 -223.050003051757810 -184.106002807617190
74.245300292968750 -237.037994384765620 -180.208999633789060
92.070297241210937 -249.567993164062500 -128.546005249023440
89.645103454589844 -249.072998046875000 -140.089004516601560
436.704986572265620 -221.046005249023440 -206.070007324218750
84.589401245117187 -241.524002075195310 -173.393997192382810
104.908996582031250 -244.824996948242190 -159.848999023437500
95.500503540039063 -248.417999267578120 -157.347000122070310
438.187988281250000 -228.565002441406250 -194.591995239257810
442.207000732421870 -233.048995971679690 -183.098999023437500
97.607200622558594 -249.557006835937500 -167.867004394531250
76.685600280761719 -249.087005615234370 -173.192993164062500
87.726097106933594 -255.604003906250000 -149.587997436523440
87.095100402832031 -253.042999267578130 -169.869003295898440
89.396102905273437 -262.778015136718750 -132.102005004882810
447.809997558593750 -239.992004394531250 -176.147003173828120
90.055603027343750 -258.967010498046870 -159.839996337890620
437.450988769531250 -236.059997558593750 -204.955993652343750
71.055099487304688 -254.186004638671870 -182.065002441406250
440.759002685546870 -239.531005859375000 -193.595001220703120
86.527900695800781 -264.559997558593750 -143.563995361328120
75.693901062011719 -259.489990234375000 -174.117996215820310
83.317001342773437 -264.632995605468750 -153.649002075195310
81.663597106933594 -263.570007324218750 -167.141006469726560
444.851013183593750 -248.824996948242190 -182.007995605468750
442.277008056640620 -250.046997070312500 -193.623992919921870
82.167396545410156 -274.019989013671870 -149.576004028320310
78.021598815917969 -271.970001220703120 -159.139007568359370
86.114601135253906 -276.812988281250000 -139.802001953125000
72.024200439453125 -269.497009277343750 -172.947998046875000
438.036987304687500 -254.048004150390620 -203.485992431640620
448.794006347656250 -260.450012207031250 -182.524002075195310
66.173103332519531 -273.079986572265620 -186.082000732421870
72.777198791503906 -280.662994384765620 -160.044998168945310
79.137702941894531 -277.566986083984370 -172.024002075195310
75.134597778320312 -288.420013427734370 -131.561996459960940
77.635498046875000 -284.058990478515620 -149.563995361328120
81.720596313476563 -286.225006103515620 -140.613998413085940
67.888000488281250 -278.907012939453120 -172.408004760742190
70.683700561523438 -289.132995605468750 -141.089004516601560
65.166702270507813 -291.588012695312500 -132.585998535156250
444.944000244140620 -264.627014160156250 -193.460006713867190
438.247985839843750 -264.259002685546880 -201.257003784179690
64.172203063964844 -282.580993652343750 -181.593002319335940
68.068496704101563 -290.851989746093750 -150.656997680664060
66.264602661132813 -287.636993408203120 -164.600997924804690
63.250099182128906 -281.263000488281250 -191.570007324218750
76.093498229980469 -287.022003173828120 -167.121994018554690
451.660003662109370 -270.497985839843750 -183.546997070312500
57.057598114013672 -296.260986328125000 -136.259002685546870
48.612098693847656 -298.394989013671870 -143.143005371093750
62.334899902343750 -297.755004882812500 -145.561004638671870
447.173004150390620 -275.072998046875000 -192.604003906250000
62.005500793457031 -297.009002685546870 -156.576995849609370
59.545700073242188 -294.997009277343750 -173.408004760742190
439.184997558593750 -276.062011718750000 -199.621002197265620
53.047199249267578 -302.398986816406250 -152.167007446289060
456.024993896484370 -280.492004394531250 -185.945007324218750
39.222599029541016 -305.191986083984370 -143.985992431640620
69.588500976562500 -298.519989013671870 -169.619003295898440
50.248298645019531 -292.242004394531250 -198.156005859375000
54.630699157714844 -294.528991699218750 -189.417007446289060
57.550800323486328 -305.410003662109370 -161.684997558593750
53.242099761962891 -302.255004882812500 -176.552993774414060
46.053001403808594 -309.345001220703120 -150.365005493164060
449.186004638671870 -285.527008056640620 -193.550994873046880
40.588500976562500 -299.464996337890620 -195.486999511718750
33.255500793457031 -311.639007568359370 -151.067001342773440
45.134700775146484 -302.539001464843750 -186.570999145507810
64.583099365234375 -308.015014648437500 -171.113998413085940
40.331501007080078 -313.037994384765620 -158.401000976562500
441.154998779296870 -291.072998046875000 -196.082992553710940
32.603000640869141 -305.410003662109370 -193.391998291015620
51.224800109863281 -313.643005371093750 -160.048995971679690
46.607498168945313 -310.575012207031250 -177.542007446289060
33.703998565673828 -320.058990478515620 -144.550003051757810
37.569400787353516 -309.907012939453120 -185.902999877929690
56.637199401855469 -312.513000488281250 -179.332992553710940
452.622985839843750 -296.973999023437500 -189.817001342773440
57.032699584960937 -317.977996826171870 -169.360992431640620
24.122200012207031 -314.486999511718750 -188.410995483398440
39.076999664306641 -323.028991699218750 -154.158996582031250
45.678199768066406 -321.588012695312500 -162.567993164062500
48.636501312255859 -320.007995605468750 -180.257003784179690
445.141998291015620 -304.593994140625000 -193.673995971679690
35.891799926757813 -331.062011718750000 -143.358993530273440
37.568698883056641 -321.490997314453120 -183.878005981445310
26.674699783325195 -322.609985351562500 -181.651000976562500
51.549800872802734 -327.466003417968750 -170.289001464843750
40.316898345947266 -334.028991699218750 -153.035003662109370
43.104099273681641 -329.040985107421880 -176.388000488281250
42.682399749755859 -332.580993652343750 -164.082000732421870
453.636993408203120 -311.796997070312500 -194.490997314453120
20.567800521850586 -326.781005859375000 -193.466995239257810
33.563701629638672 -332.578002929687500 -178.966995239257810
40.949600219726563 -341.602996826171870 -146.136993408203120
48.581501007080078 -337.022003173828120 -172.218994140625000
29.298500061035156 -335.049011230468750 -188.707000732421870
43.140399932861328 -337.040008544921880 -183.222000122070310
450.661987304687500 -321.993988037109380 -194.098999023437500
22.154699325561523 -337.078002929687500 -195.589004516601560
40.308998107910156 -345.126007080078120 -167.098007202148440
40.678600311279297 -348.742004394531250 -156.710006713867190
43.171501159667969 -351.588989257812500 -146.602005004882810
31.973300933837891 -343.484008789062500 -180.826995849609370
47.278198242187500 -346.631988525390620 -176.529006958007810
455.333007812500000 -331.569000244140620 -193.442993164062500
40.628200531005859 -348.019012451171870 -185.328994750976560
37.385398864746094 -354.950012207031250 -169.712005615234370
41.004001617431641 -358.716003417968750 -159.565002441406250
28.567300796508789 -352.071990966796870 -188.524002075195310
44.694499969482422 -363.569000244140620 -151.106002807617190
23.250799179077148 -352.102996826171880 -200.628997802734380
32.131999969482422 -357.580993652343750 -180.505996704101560
43.838199615478516 -357.626007080078120 -178.953002929687500
453.795989990234370 -341.968994140625000 -193.494003295898440
34.812400817871094 -364.619995117187500 -169.710998535156250
18.315599441528320 -364.050994873046870 -181.723999023437500
39.167301177978516 -369.582000732421870 -161.600997924804690
25.729400634765625 -363.108001708984370 -189.149993896484370
37.550899505615234 -366.122009277343750 -181.350006103515620
43.119598388671875 -375.537994384765620 -154.559005737304690
22.181900024414063 -365.057006835937500 -201.067001342773440
25.138700485229492 -364.451995849609370 -210.615005493164060
31.778600692749023 -374.132995605468750 -172.125000000000000
29.614799499511719 -372.102996826171880 -182.800003051757810
455.696014404296870 -354.622009277343750 -196.078994750976560
35.675300598144531 -379.066986083984370 -161.619003295898440
18.279600143432617 -375.540985107421870 -185.207992553710940
21.589700698852539 -373.067993164062500 -194.626007080078120
20.126800537109375 -380.210998535156250 -169.583999633789060
13.036499977111816 -382.518005371093750 -161.371994018554690
35.143798828125000 -385.041992187500000 -151.080001831054690
28.318000793457031 -374.489013671875000 -203.934005737304690
34.815200805664063 -378.625000000000000 -189.380996704101560
29.177900314331055 -385.078002929687500 -170.604003906250000
31.000499725341797 -387.847991943359370 -160.074996948242190
26.619499206542969 -381.984985351562500 -184.330001831054690
22.462999343872070 -392.973999023437500 -154.065994262695310
21.190999984741211 -383.096008300781250 -193.565994262695310
26.195699691772461 -385.117004394531250 -204.078994750976560
29.326900482177734 -392.171997070312500 -178.826995849609370
32.128799438476563 -384.018005371093750 -212.128005981445310
31.211900711059570 -390.557006835937500 -191.716995239257810
23.795200347900391 -399.088012695312500 -174.061004638671870
19.291599273681641 -392.598999023437500 -201.505996704101560
27.579799652099609 -402.635009765625000 -161.087005615234370
24.840999603271484 -393.389007568359370 -210.598999023437500
33.257301330566406 -407.480010986328120 -154.141998291015620
24.159400939941406 -398.079010009765620 -193.595993041992190
30.818700790405273 -401.628997802734370 -184.505004882812500
19.493499755859375 -396.372009277343750 -219.522003173828120
20.284799575805664 -409.598999023437500 -173.492996215820310
25.950899124145508 -410.027008056640620 -181.742996215820310
28.841299057006836 -413.596984863281250 -167.716003417968750
31.019500732421875 -421.022003173828120 -159.050994873046870
21.151500701904297 -419.072998046875000 -177.595001220703120
25.993700027465820 -423.453002929687500 -167.839996337890630
15.674200057983398 -425.078002929687500 -171.567001342773440
26.277099609375000 -429.678009033203120 -156.585006713867190
18.665199279785156 -433.083007812500000 -165.117004394531250
9.646780014038086 -433.595001220703120 -170.671997070312500
