ply
format ascii 1.0
element vertex 653
property double x
property double y
property double z
end_header
-17.471200942993164 -222.026000976562500 -140.363006591796870
-15.997599601745605 -215.050003051757810 -149.927001953125000
-14.862999916076660 -211.578994750976560 -140.610000610351560
-12.407699584960937 -225.630004882812500 -152.072006225585940
-11.779100418090820 -233.591003417968750 -146.037994384765620
-6.561620235443115 -237.613006591796870 -154.294006347656250
-6.463990211486816 -218.505004882812500 -147.783004760742190
-0.903514027595520 -227.029998779296870 -152.761993408203120
-14.416000366210938 -196.054992675781250 -152.111999511718750
-14.592399597167969 -205.908004760742190 -155.042007446289060
-19.554500579833984 -211.147994995117190 -163.884994506835940
-17.514999389648437 -220.186004638671870 -159.039993286132810
-20.761299133300781 -219.216003417968750 -170.666000366210940
-14.104499816894531 -225.835006713867190 -167.089996337890620
-11.383700370788574 -226.757995605468750 -177.052001953125000
-7.021699905395508 -231.311004638671870 -162.184005737304690
-1.236930012702942 -231.929992675781250 -170.966003417968750
7.695869922637940 -233.442993164062500 -176.470001220703120
-1.490470051765442 -240.126998901367190 -162.664001464843750
-321.923004150390620 133.548995971679690 -131.460006713867190
-321.923004150390620 133.548995971679690 -131.460006713867190
-339.964996337890620 135.042999267578120 -140.496002197265620
-303.411010742187500 128.955993652343750 -113.330001831054690
-334.864990234375000 132.440994262695310 -132.065002441406250
-313.253997802734370 130.889999389648440 -123.730003356933590
-325.799987792968750 128.406005859375000 -123.148002624511720
-314.789001464843750 125.915000915527340 -114.674003601074220
-347.717987060546870 132.250000000000000 -154.651992797851560
-305.864990234375000 123.913002014160160 -121.713996887207030
-347.316986083984370 126.900001525878910 -140.119995117187500
-353.865997314453120 132.554000854492190 -167.126998901367190
-354.774993896484380 126.847000122070310 -148.634994506835940
-340.868988037109370 122.453002929687500 -131.052993774414060
-300.860992431640620 118.893997192382810 -111.736999511718750
-288.252990722656250 122.549003601074220 -126.901000976562500
-314.968994140625000 119.938003540039060 -123.859001159667970
-331.256988525390620 121.893997192382810 -134.332992553710940
-331.497009277343750 118.981002807617190 -123.838996887207030
-312.792999267578120 115.916999816894530 -112.694999694824220
-296.414001464843750 118.389999389648440 -121.791999816894530
-289.959991455078120 115.795997619628910 -113.876998901367190
-353.329010009765620 118.916999816894530 -138.104995727539060
-361.528991699218750 122.665000915527340 -157.360992431640620
-361.406005859375000 119.055999755859370 -145.393005371093750
-364.821990966796880 126.833999633789060 -177.065994262695310
-366.962005615234370 123.189002990722660 -166.083999633789060
-347.829010009765620 114.413002014160160 -130.608001708984370
-322.992004394531250 114.436996459960940 -127.893997192382810
-369.820007324218750 118.320999145507810 -152.156005859375000
-275.854003906250000 114.973999023437500 -126.977996826171870
-303.343994140625000 108.968002319335940 -109.425003051757810
-375.335998535156250 120.912002563476560 -172.091995239257810
-273.364990234375000 110.251998901367190 -116.365997314453120
-369.839996337890620 124.441001892089840 -185.593994140625000
-320.295989990234370 107.401000976562500 -114.703002929687500
-377.928985595703120 116.558998107910160 -159.526992797851560
-282.878997802734370 109.777999877929690 -121.807998657226560
-380.839996337890620 121.925003051757810 -183.591003417968750
-332.826995849609370 109.943000793457030 -130.615005493164060
-336.343994140625000 93.855102539062500 -67.627601623535156
-336.799011230468750 107.382003784179690 -121.682998657226560
-311.936004638671870 108.011001586914060 -120.893997192382810
-380.342010498046870 123.880996704101560 -193.589996337890630
-294.867004394531250 107.569000244140620 -118.272003173828120
-292.371002197265620 104.786003112792970 -108.361000061035160
-383.479003906250000 116.601997375488280 -168.016998291015620
-390.848999023437500 124.116996765136720 -199.945007324218750
-280.809997558593750 104.686996459960940 -110.313003540039060
-355.891998291015620 107.128997802734380 -129.973999023437500
-388.960998535156250 117.655998229980470 -177.462997436523440
-366.911010742187500 110.079002380371090 -146.968994140625000
-402.881988525390620 122.998001098632810 -203.518997192382810
-354.802001953125000 93.472297668457031 -80.154403686523438
-366.941009521484370 106.601997375488280 -134.445007324218750
-270.381988525390620 103.066001892089840 -108.967002868652340
-358.804992675781250 107.896003723144530 -140.149002075195310
-382.214996337890620 110.257003784179690 -152.694000244140620
-259.490997314453120 102.216003417968750 -105.342002868652340
-311.898986816406250 101.452003479003910 -109.900001525878910
-242.949996948242190 99.628997802734375 -93.856002807617188
-251.464996337890620 100.650001525878910 -99.386199951171875
-325.287994384765620 91.099197387695312 -72.042800903320312
-322.950988769531250 104.107002258300780 -123.862998962402340
-409.713989257812500 118.834999084472660 -195.190002441406250
-350.335998535156250 101.916999816894530 -122.097999572753910
-398.446014404296870 118.608001708984370 -195.430999755859370
-389.221008300781250 110.241996765136720 -162.158004760742190
-235.386993408203120 96.565101623535156 -87.922698974609375
-303.781005859375000 101.380996704101560 -116.263999938964840
-411.717987060546870 121.386001586914060 -210.192001342773440
-328.843994140625000 86.894401550292969 -63.207901000976563
-329.303985595703120 99.303199768066406 -112.717002868652340
-375.355010986328120 105.466003417968750 -143.567993164062500
-342.356994628906250 102.498001098632810 -128.919006347656250
-383.464996337890620 103.167999267578120 -137.925003051757810
-376.279998779296870 101.319000244140620 -131.169006347656250
-394.819000244140620 114.401000976562500 -186.123001098632810
-390.283996582031250 104.744003295898440 -147.632003784179690
-394.481994628906250 110.106002807617190 -171.498001098632810
-315.885009765625000 88.808097839355469 -77.095298767089844
-348.386993408203120 96.551902770996094 -112.478996276855470
-369.808990478515620 97.812301635742187 -122.146003723144530
-339.378997802734370 95.250602722167969 -108.166000366210940
-303.393005371093750 95.577796936035156 -105.319999694824220
-362.273986816406250 99.335998535156250 -129.203002929687500
-394.371002197265620 100.589996337890620 -139.029006958007810
-358.812988281250000 95.826797485351563 -115.660003662109370
-331.298004150390620 98.316001892089844 -122.725997924804690
-275.873992919921870 94.137001037597656 -100.322998046875000
-402.850006103515620 109.939002990722660 -180.080001831054690
-415.903015136718750 114.930000305175780 -203.567001342773440
-388.846008300781250 91.521003723144531 -107.079002380371090
-320.290985107421880 93.835800170898438 -107.294998168945310
-320.270996093750000 96.410598754882813 -117.691001892089840
-292.372009277343750 93.496902465820312 -102.452003479003910
-330.334014892578120 91.981201171875000 -102.052001953125000
-388.898986816406250 97.036697387695313 -130.490997314453120
-399.947998046875000 101.138000488281250 -148.580993652343750
-295.360992431640620 95.469100952148438 -112.351997375488280
-380.846984863281250 95.435699462890625 -123.583000183105470
-397.367004394531250 103.982002258300780 -160.082992553710940
-248.750000000000000 91.317596435546875 -90.824897766113281
-397.337005615234370 91.415000915527344 -112.593002319335940
-317.493011474609370 82.800903320312500 -67.811401367187500
-366.847991943359370 91.751403808593750 -110.150001525878910
-262.406005859375000 91.573402404785156 -95.867500305175781
-305.424011230468750 86.749702453613281 -82.706596374511719
-377.812011718750000 91.822502136230469 -112.623001098632810
-404.152008056640620 110.238998413085940 -190.279006958007810
-284.855010986328120 93.975196838378906 -109.935997009277340
-402.881011962890620 96.090797424316406 -133.998001098632810
-356.053985595703120 90.697998046875000 -106.391998291015620
-320.354003906250000 89.293197631835937 -96.167701721191406
-266.339996337890620 93.426498413085938 -105.589996337890630
-397.355987548828120 93.343101501464844 -123.103996276855470
-231.897994995117190 88.460098266601563 -82.496398925781250
-414.940002441406250 114.390998840332030 -218.020004272460940
-308.895996093750000 88.221801757812500 -100.132003784179690
-311.876007080078120 91.461097717285156 -113.488998413085940
-407.868011474609380 90.966003417968750 -125.073997497558590
-284.365997314453120 88.494400024414062 -98.935798645019531
-410.361999511718750 96.474403381347656 -148.091995239257810
-412.235992431640620 93.725502014160156 -137.626007080078120
-413.872009277343750 107.934997558593750 -194.576004028320310
-403.928009033203120 102.016998291015620 -170.548995971679690
-406.898010253906250 99.056297302246094 -159.559997558593750
-323.334991455078120 76.878501892089844 -62.256599426269531
-253.873992919921870 87.824996948242188 -99.724998474121094
-224.475006103515620 82.929199218750000 -76.912399291992188
-270.375000000000000 85.450500488281250 -94.986503601074219
-215.824005126953120 80.425300598144531 -68.610298156738281
-296.485992431640620 81.743301391601563 -84.670303344726563
-298.773010253906250 84.096199035644531 -96.049598693847656
-410.997009277343750 102.018997192382810 -183.033004760742190
-240.369995117187500 82.930099487304687 -85.534500122070312
-419.381988525390620 93.008102416992188 -152.580001831054690
-416.354003906250000 95.478302001953125 -163.606002807617190
-259.398010253906250 82.460998535156250 -91.404998779296875
-309.876007080078130 77.915298461914062 -80.199501037597656
-311.906005859375000 74.329902648925781 -67.257698059082031
-300.326995849609370 84.855697631835938 -107.689002990722660
-417.816009521484370 104.918998718261720 -203.597000122070310
-420.847991943359370 88.433097839355469 -140.083999633789060
-275.846984863281250 84.336303710937500 -104.722999572753910
-412.463989257812500 96.619003295898438 -173.050994873046870
-301.903991699218750 74.333900451660156 -71.734199523925781
-427.881011962890620 89.027496337890625 -148.544998168945310
-278.850006103515620 80.052497863769531 -93.356399536132813
-289.871002197265620 79.770401000976563 -94.257797241210938
-292.773986816406250 75.061996459960937 -76.399597167968750
-231.986999511718750 77.930999755859375 -81.378997802734375
-434.299987792968750 89.885902404785156 -156.628005981445310
-427.369995117187500 92.012901306152344 -165.100006103515620
-245.863006591796870 79.926300048828125 -95.499900817871094
-291.321014404296870 80.504096984863281 -104.474998474121090
-284.463012695312500 75.664901733398438 -85.164299011230469
-420.006988525390620 101.992996215820310 -213.087997436523440
-221.563995361328120 73.388900756835938 -74.301803588867188
-421.919006347656250 91.621299743652344 -174.606994628906250
-264.860992431640620 78.317703247070313 -101.185997009277340
-267.856994628906250 75.572998046875000 -90.835700988769531
-416.428985595703120 93.594703674316406 -183.098999023437500
-234.882995605468750 76.465698242187500 -91.464202880859375
-211.296997070312500 71.505599975585938 -68.807800292968750
-315.326995849609370 65.927001953125000 -62.171798706054688
-439.907012939453120 87.447601318359375 -165.057998657226560
-251.328994750976560 73.924797058105469 -88.622703552246094
-281.229003906250000 69.092597961425781 -76.947502136230469
-433.303985595703120 88.333198547363281 -173.559997558593750
-419.817993164062500 102.411003112792970 -228.585006713867190
-281.842010498046870 74.932701110839844 -101.573997497558590
-419.390991210937500 93.455802917480469 -194.078002929687500
-241.785995483398440 71.920402526855469 -85.239097595214844
-300.871002197265620 64.869300842285156 -67.722702026367188
-289.946990966796870 65.809700012207031 -71.353103637695313
-310.386993408203120 65.367996215820312 -73.227798461914062
-300.024993896484370 66.740798950195313 -79.369796752929688
-256.858001708984370 72.875503540039062 -98.201698303222656
-289.864990234375000 66.891700744628906 -81.637100219726562
-416.847991943359370 79.925102233886719 -150.582992553710940
-275.871002197265620 68.364997863769531 -87.690002441406250
-427.417999267578120 87.044898986816406 -182.602005004882810
-207.350997924804690 67.959602355957031 -79.262702941894531
-444.302001953125000 83.412002563476562 -173.100006103515620
-273.335998535156250 70.308700561523438 -98.831596374511719
-229.447998046875000 66.902900695800781 -80.402603149414063
-422.635009765625000 91.334098815917969 -203.651000976562500
-219.337005615234370 65.973899841308594 -81.997497558593750
-202.343002319335940 63.428901672363281 -71.604797363281250
-259.375000000000000 64.981101989746094 -86.305000305175781
-308.350006103515620 56.923500061035156 -61.856800079345703
-443.850006103515620 85.445602416992187 -193.600006103515620
-425.628997802734370 91.111999511718750 -215.123001098632810
-439.778991699218750 82.776802062988281 -184.552993774414060
-274.247009277343750 60.541400909423828 -74.404899597167969
-427.511993408203120 85.194602966308594 -194.121002197265620
-212.925994873046870 61.803798675537109 -72.912101745605469
-245.882995605468750 65.330596923828125 -94.754402160644531
-263.350006103515620 64.378501892089844 -96.171600341796875
-262.406005859375000 59.825698852539063 -78.237602233886719
-248.358993530273440 61.970401763916016 -84.969596862792969
-284.373992919921870 56.842498779296875 -69.818298339843750
-198.977996826171870 62.902801513671875 -82.819396972656250
-237.380004882812500 61.922401428222656 -84.489700317382813
-305.345001220703130 56.424900054931641 -72.613700866699219
-281.415985107421870 59.336200714111328 -81.371200561523438
-295.337005615234380 57.385501861572266 -75.872100830078125
-448.790008544921870 78.395698547363281 -180.598007202148440
-270.746002197265620 60.063400268554688 -84.407699584960938
-422.204010009765620 88.264198303222656 -225.945007324218750
-224.304992675781250 57.432399749755859 -79.655403137207031
-450.338989257812500 79.924102783203125 -199.591003417968750
-429.315002441406250 82.913497924804687 -209.095993041992190
-209.880996704101560 57.883098602294922 -82.442596435546875
-435.881988525390620 79.537300109863281 -198.619003295898440
-300.860992431640620 49.429401397705078 -62.758701324462891
-253.860992431640630 58.938899993896484 -94.430900573730469
-424.430999755859370 89.039100646972656 -236.703002929687500
-196.298004150390630 55.411499023437500 -75.001800537109375
-290.360992431640620 49.408000946044922 -66.172096252441406
-256.854003906250000 55.314899444580078 -85.287300109863281
-439.407012939453130 80.599998474121094 -212.141998291015620
-453.700012207031250 73.758201599121094 -188.613998413085940
-430.407012939453120 81.977897644042969 -220.083999633789060
-287.820007324218750 50.451801300048828 -77.549697875976563
-269.345001220703120 49.416400909423828 -71.621200561523438
-215.867004394531250 51.912799835205078 -77.033302307128906
-241.845001220703120 52.429199218750000 -82.538200378417969
-191.003005981445310 55.424701690673828 -88.221000671386719
-231.878005981445310 54.509799957275391 -90.878196716308594
-298.231994628906250 47.672698974609375 -73.377403259277344
-278.898010253906250 46.841598510742188 -68.294799804687500
-453.824005126953120 76.384498596191406 -209.082992553710940
-276.247009277343750 49.536300659179688 -79.446701049804687
-264.897003173828120 49.830299377441406 -81.298797607421875
-256.881988525390620 47.787399291992188 -73.371902465820312
-231.856994628906250 50.453601837158203 -81.428398132324219
-201.850997924804690 51.437698364257813 -83.207496643066406
-427.425994873046870 80.435501098632812 -229.561996459960940
-444.139007568359370 73.631896972656250 -205.033004760742190
-245.832992553710940 51.882701873779297 -92.777496337890625
-458.072998046875000 70.219200134277344 -198.138000488281250
-446.885009765625000 75.566398620605469 -218.141006469726560
-429.375000000000000 81.011497497558594 -241.136001586914060
-250.861999511718750 46.814399719238281 -82.732299804687500
-188.167999267578130 47.937599182128906 -80.369201660156250
-207.365997314453120 45.898998260498047 -75.974296569824219
-223.860992431640620 48.490001678466797 -88.835899353027344
-459.829986572265630 72.224502563476563 -216.494995117187500
-213.335006713867190 47.429199218750000 -86.103103637695313
-292.838989257812500 38.426898956298828 -63.582801818847656
-196.414001464843750 44.447101593017578 -75.833503723144531
-435.864990234375000 72.939102172851563 -222.589004516601560
-223.856002807617190 43.923900604248047 -79.936897277832031
-237.865005493164060 45.289501190185547 -90.802398681640625
-461.983001708984370 66.631500244140625 -206.654006958007810
-264.865997314453120 38.326801300048828 -68.307197570800781
-185.397994995117190 46.920501708984375 -92.629898071289063
-291.338012695312500 38.427398681640625 -73.618797302246094
-275.867004394531250 36.785701751708984 -65.847702026367188
-272.346984863281250 38.032001495361328 -75.389503479003906
-258.335998535156250 38.470798492431641 -77.525299072265625
-253.850006103515630 36.037799835205078 -67.862899780273437
-433.147003173828120 71.690696716308594 -233.977005004882810
-453.359008789062500 68.998703002929688 -226.154006958007810
-245.886001586914060 38.257400512695313 -77.843803405761719
-284.348999023437500 32.780200958251953 -62.361598968505859
-444.317993164062500 69.366897583007813 -231.048995971679690
-452.863006591796870 65.019599914550781 -215.632003784179690
-215.348007202148440 38.425800323486328 -78.549003601074219
-242.910995483398440 34.225101470947266 -67.314498901367188
-443.890014648437500 66.072799682617188 -220.649002075195310
-235.824996948242190 37.357101440429687 -79.749702453613281
-463.821014404296880 66.314903259277344 -226.531005859375000
-434.358001708984370 72.051300048828125 -247.639007568359370
-267.856994628906250 30.705200195312500 -62.306400299072266
-229.832992553710940 38.445201873779297 -88.585098266601562
-232.281005859375000 33.094100952148438 -68.998001098632812
-464.872009277343750 61.475299835205078 -216.093002319335940
-198.845993041992190 37.425800323486328 -85.647399902343750
-188.458999633789060 38.393798828125000 -88.293098449707031
-259.358001708984370 27.245700836181641 -58.196201324462891
-226.391998291015620 33.231399536132813 -78.298797607421875
-193.393005371093750 33.949501037597656 -77.385902404785156
-209.875000000000000 35.400600433349609 -86.361297607421875
-276.307006835937500 25.875299453735352 -57.707698822021484
-248.406005859375000 26.634899139404297 -58.794200897216797
-237.350997924804690 27.356000900268555 -60.641300201416016
-172.296005249023440 37.932300567626953 -96.553802490234375
-204.358001708984370 31.904300689697266 -77.402297973632813
-221.197006225585940 29.156099319458008 -68.932502746582031
-454.906005859375000 62.709701538085938 -234.235000610351560
-438.565002441406250 63.629100799560547 -237.675003051757810
-226.425003051757810 25.724199295043945 -59.678001403808594
-242.850006103515620 22.145999908447266 -50.988800048828125
-267.791992187500000 21.820899963378906 -53.777099609375000
-256.873992919921870 21.043300628662109 -50.439098358154297
-231.897994995117190 21.756000518798828 -50.186401367187500
-466.367004394531250 59.979999542236328 -235.059997558593750
-220.979995727539060 30.683099746704102 -87.802398681640625
-215.673995971679690 27.652900695800781 -77.473098754882813
-447.492004394531250 60.668998718261719 -242.283996582031250
-445.940002441406250 58.026798248291016 -231.630004882812500
-437.417999267578120 64.002700805664063 -254.699005126953120
-467.563995361328120 54.487899780273437 -224.606002807617190
-222.358001708984370 19.377799987792969 -52.614601135253906
-215.686996459960940 21.706499099731445 -61.931701660156250
-226.382995605468750 16.306999206542969 -43.653800964355469
-180.272994995117190 30.111299514770508 -92.867797851562500
-201.841995239257810 27.425399780273438 -86.084197998046875
-237.395996093750000 14.043899536132813 -38.911098480224609
-248.367004394531250 14.982099533081055 -44.456100463867188
-185.960998535156250 25.433200836181641 -79.874198913574219
-209.246994018554690 22.090299606323242 -72.067901611328125
-457.873992919921870 56.568401336669922 -242.227996826171870
-228.345993041992190 10.958299636840820 -34.551101684570312
-176.981002807617190 24.942100524902344 -84.879997253417969
-218.414001464843750 11.673000335693359 -38.657501220703125
-212.292007446289060 23.997499465942383 -87.027603149414063
-168.873992919921870 28.429000854492188 -101.111999511718750
-212.934005737304690 13.730400085449219 -50.191200256347656
-214.328002929687500 8.154190063476563 -30.215299606323242
-468.364990234375000 53.350498199462891 -244.005004882812500
-441.399993896484380 54.993198394775391 -248.613006591796870
-201.845993041992190 7.662409782409668 -30.276500701904297
-189.369995117187500 6.855040073394775 -28.642299652099609
-207.352005004882810 8.861080169677734 -39.098300933837891
-193.348007202148440 20.937099456787109 -85.873802185058594
-198.873992919921870 18.417200088500977 -77.848999023437500
-208.800994873046870 13.524100303649902 -60.029800415039062
-201.869995117187500 15.378399848937988 -68.601997375488281
-439.936004638671870 56.146701812744141 -265.140014648437500
-171.673004150390620 21.980699539184570 -93.993202209472656
-201.906997680664060 10.181699752807617 -51.719398498535156
-187.442001342773440 6.150809764862061 -38.541198730468750
-183.902999877929690 18.383600234985352 -88.193801879882812
-204.375000000000000 17.356199264526367 -87.187103271484375
-196.330001831054690 10.446599960327148 -61.086898803710938
-449.505004882812500 50.101699829101563 -252.274002075195310
-460.427001953125000 48.590801239013672 -248.341003417968750
-185.421005249023440 14.886400222778320 -78.300903320312500
-449.903015136718750 46.947399139404297 -242.608001708984370
-171.623001098632810 14.014900207519531 -86.892898559570312
-183.195007324218750 3.998859882354736 -50.574001312255859
-469.861999511718750 44.847099304199219 -251.001998901367190
-458.363006591796870 41.957401275634766 -240.123992919921870
-471.015991210937500 40.182399749755859 -239.925994873046870
-447.338989257812500 47.424701690673828 -265.591003417968750
-193.949996948242190 8.269940376281738 -76.691497802734375
-196.367004394531250 10.353300094604492 -87.301498413085938
-167.509994506835940 13.344499588012695 -97.672996520996094
-184.406997680664060 -5.640270233154297 -28.675699234008789
-182.057998657226560 -3.149559974670410 -38.650199890136719
-176.934997558593750 7.365029811859131 -79.771697998046875
-187.466003417968750 2.722850084304810 -70.632598876953125
-187.878005981445310 4.892389774322510 -87.373397827148438
-460.417999267578120 37.611698150634766 -257.739013671875000
-179.466995239257810 -5.630179882049561 -50.150299072265625
-166.119995117187500 4.273920059204102 -88.358802795410156
-470.848999023437500 36.229400634765625 -257.899993896484370
-460.441009521484370 33.502498626708984 -246.259994506835940
-449.975006103515620 35.975299835205078 -256.110992431640620
-180.966003417968750 -3.769069910049439 -65.625297546386719
-162.712005615234370 5.008130073547363 -102.045997619628910
-182.460006713867190 -2.177949905395508 -77.781097412109375
-449.583007812500000 37.031398773193359 -269.221008300781250
-171.395996093750000 -2.110630035400391 -79.252296447753906
-182.005996704101560 -15.987400054931641 -30.396900177001953
-178.751998901367190 -14.032400131225586 -41.569400787353516
-472.075988769531250 27.347999572753906 -250.606002807617190
-456.276000976562500 27.887300491333008 -253.539001464843750
-456.363006591796870 30.583299636840820 -264.859008789062500
-174.156997680664060 -10.915300369262695 -63.574100494384766
-172.684997558593750 -13.949799537658691 -52.473800659179688
-179.843002319335940 -5.587520122528076 -87.674301147460938
-160.638000488281250 -4.471799850463867 -89.949699401855469
-176.796997070312500 -11.039299964904785 -77.621398925781250
-163.393005371093750 -10.634599685668945 -80.231399536132812
-158.246994018554690 -4.539400100708008 -104.569999694824220
-177.104995727539060 -22.722499847412109 -36.260101318359375
-449.778991699218750 27.884500503540039 -275.500000000000000
-471.342987060546870 24.409599304199219 -266.576995849609370
-158.225997924804690 -23.013299942016602 -43.760898590087891
-166.781005859375000 -18.993000030517578 -64.037597656250000
-171.837997436523440 -14.075699806213379 -88.197601318359375
-156.044998168945310 -13.770000457763672 -88.691001892089844
-460.406005859375000 21.552999496459961 -269.791992187500000
-451.152008056640620 20.314899444580078 -264.907989501953120
-166.996002197265620 -24.715000152587891 -50.245601654052734
-459.015014648437500 17.627099990844727 -259.295989990234370
-169.203002929687500 -19.439199447631836 -77.755203247070313
-154.093994140625000 -14.167099952697754 -105.214996337890620
-174.938003540039060 -33.480998992919922 -32.833499908447266
-471.407012939453120 16.298700332641602 -272.869995117187500
-152.378997802734380 -21.610799789428711 -82.632400512695313
-151.744003295898440 -13.522999763488770 -115.069000244140620
-166.992004394531250 -33.171798706054687 -41.798900604248047
-160.651000976562500 -24.820499420166016 -74.271202087402344
-454.980010986328120 16.078599929809570 -276.329986572265620
-165.938995361328120 -22.148799896240234 -87.877296447753906
-471.518005371093750 10.740300178527832 -259.912994384765620
-150.617004394531250 -20.391799926757812 -96.631202697753906
-160.723007202148440 -33.514900207519531 -50.456901550292969
-454.447998046875000 8.998499870300293 -266.679992675781250
-463.372985839843750 10.609100341796875 -275.356994628906250
-154.940002441406250 -33.160999298095703 -60.634101867675781
-146.453002929687500 -27.656499862670898 -91.117599487304688
-170.910003662109370 -43.995899200439453 -36.788600921630859
-149.496994018554690 -35.267501831054687 -70.612098693847656
-155.225997924804690 -33.460498809814453 -78.665702819824219
-455.182006835937500 4.728169918060303 -280.694000244140620
-154.389007568359370 -33.597599029541016 -88.673896789550781
-141.367004394531250 -34.601100921630859 -83.619300842285156
-155.475006103515620 -44.108898162841797 -50.275798797607422
-472.403991699218750 2.813280105590820 -280.410003662109370
-141.207992553710940 -33.428798675537109 -99.124397277832031
-146.970001220703120 -44.251300811767578 -60.704200744628906
-163.373992919921870 -49.565700531005859 -43.147899627685547
-147.546997070312500 -41.296798706054688 -78.989501953125000
-144.352005004882810 -34.521400451660156 -111.554000854492190
-463.411010742187500 -3.427979946136475 -281.351013183593750
-147.837005615234370 -41.571800231933594 -89.584602355957031
-133.020996093750000 -42.244998931884766 -87.191200256347656
-169.352005004882810 -53.018600463867188 -50.821701049804687
-147.867996215820310 -33.609298706054687 -126.533996582031250
-134.509002685546870 -41.300399780273437 -100.007003784179690
-148.410995483398440 -54.554000854492187 -55.221099853515625
-473.373992919921870 -7.736889839172363 -284.871002197265620
-161.453002929687500 -55.254100799560547 -57.181701660156250
-139.736999511718750 -49.516498565673828 -79.433601379394531
-136.766998291015620 -41.500999450683594 -111.606002807617190
-142.438003540039060 -53.646701812744141 -69.732299804687500
-140.427001953125000 -49.648101806640625 -90.204002380371094
-141.326995849609370 -41.064300537109375 -124.594001770019530
-470.832000732421870 -15.567299842834473 -272.617004394531250
-127.391998291015620 -51.577701568603516 -85.275802612304688
-127.184997558593750 -48.441398620605469 -98.040901184082031
-153.817993164062500 -58.271400451660156 -62.930698394775391
-129.011001586914060 -46.791599273681641 -108.117996215820310
-154.910995483398440 -62.034198760986328 -52.207698822021484
-457.848999023437500 -13.623399734497070 -284.817993164062500
-141.826995849609370 -60.074901580810547 -60.568199157714844
-164.339004516601560 -65.068298339843750 -50.098800659179688
-468.868988037109370 -17.137100219726562 -286.945007324218750
-133.384002685546870 -46.700599670410156 -127.044998168945310
-119.292999267578120 -54.985000610351563 -98.076797485351563
-119.334999084472660 -57.561000823974609 -88.081398010253906
-133.934005737304690 -57.669101715087891 -90.739501953125000
-120.367996215820310 -52.651699066162109 -109.024002075195310
-124.847999572753910 -49.594100952148438 -122.091003417968750
-135.852005004882810 -62.577201843261719 -73.628898620605469
-148.972000122070310 -68.035003662109375 -57.853900909423828
-146.867004394531250 -66.061698913574219 -67.640899658203125
-113.836997985839840 -54.546199798583984 -117.582000732421870
-127.450996398925780 -65.672203063964844 -78.845596313476563
-474.437988281250000 -24.723600387573242 -291.347991943359370
-111.857002258300780 -59.099300384521484 -107.610000610351560
-158.841995239257810 -74.585998535156250 -53.558799743652344
-125.342002868652340 -63.575298309326172 -93.600097656250000
-101.337997436523440 -55.630401611328125 -124.122001647949220
-118.806999206542970 -69.047996520996094 -74.545402526855469
-113.992996215820310 -63.702301025390625 -96.807899475097656
-99.951797485351563 -60.381401062011719 -113.265998840332030
-469.821990966796880 -32.052898406982422 -276.121002197265620
-155.863006591796870 -75.652397155761719 -63.161300659179688
-119.349998474121090 -69.084396362304688 -84.600799560546875
-141.335006713867190 -74.570899963378906 -69.580497741699219
-88.869201660156250 -61.329200744628906 -115.835998535156250
-130.901000976562500 -74.584800720214844 -74.745399475097656
-143.914001464843750 -79.204299926757812 -58.758300781250000
-105.472000122070310 -66.805702209472656 -104.771003723144530
-132.919998168945310 -79.256401062011719 -63.380901336669922
-465.846984863281250 -33.566799163818359 -290.542999267578120
-150.358001708984370 -83.210197448730469 -52.240501403808594
-97.309799194335937 -71.007003784179688 -99.958602905273438
-110.890998840332030 -74.583702087402344 -88.233596801757813
-475.252990722656250 -35.575099945068359 -294.178009033203120
-138.393005371093750 -85.761596679687500 -50.685199737548828
-121.914001464843750 -79.160896301269531 -75.719398498535156
-119.466003417968750 -74.617599487304688 -93.842498779296875
-91.864196777343750 -70.113296508789063 -110.126998901367190
-122.873001098632810 -83.637199401855469 -66.723396301269531
-128.324996948242190 -88.033996582031250 -52.579898834228516
-112.489997863769530 -82.738899230957031 -78.742797851562500
-112.235000610351560 -85.413002014160156 -68.946296691894531
-119.831001281738280 -93.048500061035156 -43.581699371337891
-83.233596801757813 -74.595596313476562 -112.981002807617190
-102.838996887207030 -79.573997497558594 -98.087799072265625
-119.353996276855470 -90.605400085449219 -57.098201751708984
-102.823997497558590 -85.196601867675781 -77.953300476074219
-91.817001342773437 -79.036201477050781 -104.504997253417970
-112.346000671386720 -82.578102111816406 -95.101097106933594
-107.907997131347660 -96.239402770996094 -43.648998260498047
-105.311996459960940 -85.040100097656250 -88.064300537109375
-94.492500305175781 -83.632598876953125 -93.855903625488281
-110.929000854492190 -94.799301147460938 -53.084701538085938
-477.798004150390620 -46.079601287841797 -295.638000488281250
-105.836997985839840 -93.568000793457031 -63.588401794433594
-97.329200744628906 -99.043098449707031 -44.596698760986328
-100.055999755859370 -92.831901550292969 -71.780700683593750
-86.267402648925781 -86.540000915527344 -99.533302307128906
-100.847999572753910 -99.087997436523438 -55.089900970458984
-94.577003479003906 -92.820297241210937 -80.277297973632812
-78.677497863769531 -83.671302795410156 -122.472000122070310
-85.418197631835938 -87.625000000000000 -110.134002685546870
-103.865997314453120 -91.588897705078125 -97.628501892089844
-100.017997741699220 -95.820999145507813 -88.931396484375000
-94.373397827148438 -93.191001892089844 -100.369003295898440
-80.338302612304688 -105.066001892089840 -51.595199584960938
-479.940002441406250 -57.517601013183594 -296.944000244140620
-88.295898437500000 -104.962997436523440 -59.074100494384766
-80.794898986816406 -95.045600891113281 -104.071998596191410
-70.333602905273437 -108.009002685546870 -55.620800018310547
-86.241897583007813 -98.479400634765625 -95.886199951171875
-85.312301635742187 -105.035003662109370 -71.588401794433594
-58.347698211669922 -109.546997070312500 -58.099998474121094
-83.825103759765625 -105.055999755859370 -82.083900451660156
-77.929901123046875 -109.792999267578120 -65.569503784179687
-78.938796997070312 -100.109001159667970 -114.655998229980470
-481.895996093750000 -67.936798095703125 -297.039001464843750
-77.409500122070313 -110.193000793457030 -75.597099304199219
-95.171600341796875 -105.064002990722660 -99.881599426269531
-50.355300903320313 -112.660003662109370 -64.050903320312500
-89.728698730468750 -107.422996520996090 -90.804100036621094
-66.882400512695313 -113.268997192382810 -65.522499084472656
-82.370399475097656 -105.074996948242190 -104.677001953125000
-61.320899963378906 -112.924003601074220 -74.181800842285156
-76.578102111816406 -112.817001342773440 -87.707901000976563
-69.787200927734375 -116.489997863769530 -80.121002197265625
-52.909900665283203 -118.290000915527340 -73.417701721191406
-88.954399108886719 -113.091003417968750 -102.241996765136720
-75.040901184082031 -107.269996643066410 -124.709999084472660
-84.377502441406250 -115.619003295898440 -93.525802612304688
-75.274299621582031 -112.038002014160160 -107.988998413085940
-58.794799804687500 -118.202003479003910 -82.502700805664063
-42.302799224853516 -123.067001342773440 -68.633201599121094
-69.760696411132813 -120.461997985839840 -89.650001525878906
-82.027198791503906 -120.568000793457030 -104.319000244140620
-50.525001525878906 -124.552001953125000 -84.957801818847656
-77.991096496582031 -123.741996765136720 -95.344596862792969
-61.439399719238281 -126.686996459960940 -89.460296630859375
-46.522701263427734 -130.098007202148440 -76.948898315429688
-69.384002685546875 -122.580001831054690 -110.174003601074220
-67.000396728515625 -125.248001098632810 -99.395599365234375
-73.554603576660156 -118.474998474121090 -130.863998413085940
-43.244499206542969 -138.078002929687500 -68.657096862792969
-75.997703552246094 -129.718002319335940 -106.793998718261720
-53.242599487304687 -134.212997436523440 -88.406501770019531
-69.803596496582031 -127.569000244140630 -124.106002807617190
-60.761600494384766 -134.944000244140620 -96.276199340820312
-70.719596862792969 -134.899002075195310 -98.851402282714844
-60.939701080322266 -134.089996337890620 -106.749000549316410
-75.891403198242187 -127.101997375488280 -138.395996093750000
-64.256698608398437 -132.639999389648440 -116.775001525878910
-48.481300354003906 -141.591003417968750 -82.504997253417969
-69.967498779296875 -137.701995849609370 -109.205001831054690
-44.455501556396484 -146.589996337890630 -74.041801452636719
-55.405200958251953 -143.151000976562500 -98.945701599121094
-65.389198303222656 -143.126007080078120 -101.538002014160160
-74.024299621582031 -136.175994873046870 -132.944000244140620
-48.810398101806641 -145.917999267578120 -91.577903747558594
-67.052597045898437 -138.738998413085940 -125.428001403808590
-53.210700988769531 -142.384994506835940 -112.053001403808590
-45.018798828125000 -152.634002685546870 -84.567199707031250
-58.797000885009766 -145.026000976562500 -123.619003295898440
-71.363998413085938 -141.160995483398440 -141.507995605468750
-61.849201202392578 -148.085006713867190 -113.091003417968750
-42.491199493408203 -157.626007080078120 -76.076202392578125
-59.254600524902344 -151.955001831054690 -103.738998413085940
-64.301597595214844 -144.490005493164060 -134.617004394531250
-45.408100128173828 -154.136993408203120 -99.062599182128906
-50.448600769042969 -153.266006469726560 -109.379997253417970
-44.540000915527344 -154.005996704101560 -117.728996276855470
-62.331298828125000 -147.138000488281250 -147.529998779296870
-53.739498138427734 -151.537994384765620 -129.285995483398440
-41.178699493408203 -162.468002319335940 -87.582801818847656
-54.740898132324219 -150.824996948242190 -140.138000488281250
-55.737701416015625 -159.578002929687500 -115.986000061035160
-42.372699737548828 -162.617004394531250 -110.505996704101560
-47.790199279785156 -157.027999877929690 -135.585998535156250
-51.374099731445313 -154.186004638671870 -151.500000000000000
-36.733600616455078 -168.503997802734370 -102.583999633789060
-51.423999786376953 -168.128005981445310 -110.543998718261720
-42.890300750732422 -159.197006225585940 -146.052993774414060
-41.015998840332031 -177.610992431640620 -75.254501342773438
-46.376701354980469 -167.091995239257810 -121.802001953125000
-37.885601043701172 -177.136001586914060 -85.601997375488281
-40.413398742675781 -165.199996948242190 -135.567993164062500
-36.734199523925781 -170.527999877929690 -119.445999145507810
-33.995899200439453 -176.658004760742190 -96.647796630859375
-36.837001800537109 -162.569000244140620 -153.591003417968750
-33.967399597167969 -166.725006103515620 -143.660995483398440
-32.403198242187500 -176.617996215820310 -107.043998718261720
-33.786499023437500 -184.457000732421870 -76.524200439453125
-42.342700958251953 -176.580001831054690 -110.074996948242190
-30.186000823974609 -184.397994995117190 -88.558097839355469
-45.648498535156250 -177.524002075195310 -121.874000549316410
-36.361499786376953 -178.018005371093750 -126.305999755859370
-28.212499618530273 -184.496002197265620 -99.551597595214844
-23.916200637817383 -190.210006713867190 -79.150100708007813
-21.780199050903320 -172.977005004882810 -154.518005371093750
-21.904600143432617 -189.807998657226560 -90.846496582031250
-39.380500793457031 -185.613998413085940 -113.514999389648440
-30.908899307250977 -185.164001464843750 -119.424003601074220
-14.460100173950195 -194.264999389648440 -84.013603210449219
-41.022598266601563 -187.093994140625000 -124.305999755859370
-14.474499702453613 -179.712005615234370 -151.731002807617190
-20.959999084472656 -192.718994140625000 -101.568000793457030
-12.528300285339355 -198.231002807617190 -96.005500793457031
-33.917999267578125 -194.686004638671870 -115.855003356933590
-36.446399688720703 -195.591995239257810 -127.186996459960940
-13.684399604797363 -200.947006225585940 -107.147003173828120
-32.594699859619141 -203.738006591796870 -122.524002075195310
-14.588299751281738 -212.805999755859370 -91.597099304199219
-17.373300552368164 -217.557998657226560 -102.100997924804690
-20.329099655151367 -222.091995239257810 -93.585700988769531
-11.986700057983398 -227.330001831054690 -104.232002258300780
-9.005000114440918 -225.680999755859370 -113.666000366210940
-13.436100006103516 -231.210006713867190 -93.752998352050781
-3.431060075759888 -234.229003906250000 -94.632003784179688
-4.286439895629883 -234.009994506835940 -104.597000122070310
4.666160106658936 -238.554992675781250 -99.589302062988281
-0.913864016532898 -235.132995605468750 -114.116996765136720
5.587560176849365 -242.173004150390620 -110.071998596191410
18.991899490356445 -248.300994873046870 -101.610000610351560
14.487899780273438 -248.345993041992190 -112.476997375488280
10.027700424194336 -248.723007202148440 -121.999000549316410
24.088399887084961 -252.294006347656250 -109.950996398925780
24.159200668334961 -255.569000244140620 -122.135002136230470
15.578800201416016 -255.695999145507810 -127.556999206542970
14.689399719238281 -256.042999267578120 -138.100997924804690
22.534599304199219 -264.308990478515620 -127.962997436523440
11.625100135803223 -266.532989501953120 -132.164001464843750
