ply
format ascii 1.0
element vertex 676
property double x
property double y
property double z
end_header
-8.889280319213867 -63.027000427246094 -81.780601501464844
-3.011229991912842 -62.380401611328125 -70.049400329589844
-4.306069850921631 -65.610900878906250 -60.091598510742187
-8.812399864196777 -68.060401916503906 -51.182300567626953
-11.901300430297852 -73.516403198242188 -63.138999938964844
-16.233100891113281 -76.711196899414063 -54.684299468994141
-6.489220142364502 -71.406600952148438 -74.571998596191406
-22.718299865722656 -82.671798706054688 -59.660099029541016
-17.345600128173828 -81.545196533203125 -69.126701354980469
-10.536700248718262 -80.453498840332031 -77.132698059082031
-26.888399124145508 -84.918701171875000 -68.642303466796875
297.351013183593750 388.274993896484370 -142.335998535156250
297.351013183593750 388.274993896484370 -142.335998535156250
288.143005371093750 383.002990722656250 -140.406997680664060
306.686004638671870 384.359008789062500 -147.227005004882810
277.075012207031250 379.592987060546870 -142.494995117187500
316.085998535156250 384.307006835937500 -156.128005981445310
314.748992919921870 377.028991699218750 -145.949996948242190
268.055999755859380 374.665008544921870 -143.005004882812500
304.139007568359370 374.402008056640620 -140.658004760742190
321.062011718750000 381.136993408203120 -165.447006225585940
293.631011962890620 372.347991943359370 -137.807998657226560
324.675994873046870 375.980987548828120 -151.552993774414060
384.653991699218750 368.570007324218750 -114.614997863769530
332.085998535156250 377.760986328125000 -162.613998413085940
282.648986816406250 369.320007324218750 -136.369003295898440
259.096008300781250 369.106994628906250 -143.451004028320310
271.617004394531250 367.557006835937500 -136.313995361328130
363.617004394531250 363.557006835937500 -109.094001770019530
373.584991455078120 365.123992919921870 -114.174003601074220
328.019989013671870 377.191009521484370 -172.119995117187500
335.093994140625000 371.792999267578120 -153.690994262695310
321.115997314453120 368.315002441406250 -143.222000122070310
390.128997802734370 365.200988769531250 -123.991996765136720
359.610992431640620 357.997985839843750 -99.954299926757813
340.604003906250000 374.295013427734370 -167.582992553710940
379.072998046875000 364.174987792968750 -122.655998229980470
302.100006103515620 363.736999511718750 -135.787002563476560
400.135009765625000 363.381011962890620 -122.099998474121090
353.756988525390620 359.174011230468750 -112.573997497558590
346.066986083984370 370.259002685546870 -158.649002075195310
312.144012451171870 363.385986328125000 -137.662002563476560
291.148986816406250 361.558990478515620 -133.419998168945310
252.292007446289060 361.785003662109370 -140.722000122070310
260.584991455078120 360.095001220703120 -134.337005615234370
366.121002197265620 360.622009277343750 -123.621002197265620
348.614990234375000 354.511993408203120 -103.066001892089840
336.212005615234370 372.207000732421870 -176.324005126953120
329.597991943359370 362.785003662109370 -142.766006469726560
348.610992431640620 370.790008544921880 -172.561004638671870
395.654998779296870 362.191986083984370 -133.184005737304690
340.574005126953120 363.705993652343750 -147.322998046875000
373.614013671875000 360.609008789062500 -130.667999267578120
406.618988037109370 361.252014160156250 -130.089004516601560
343.105010986328120 354.549011230468750 -113.089996337890620
357.058013916015620 368.153015136718750 -165.621994018554690
280.114013671875000 356.575012207031250 -129.945007324218750
351.559997558593750 364.221984863281250 -152.257003784179690
346.118011474609370 356.182006835937500 -122.630996704101560
384.634002685546870 360.595001220703120 -135.180999755859370
357.122985839843750 357.606994628906250 -128.630004882812500
321.140014648437500 357.316009521484370 -135.692001342773440
269.156005859375000 354.006011962890620 -129.481994628906250
340.557006835937500 348.619995117187500 -98.951400756835938
335.069000244140620 350.595001220703130 -108.517997741699220
307.600006103515620 355.222991943359370 -130.848999023437500
362.520996093750000 363.631011962890620 -157.272003173828120
249.569000244140620 354.032012939453120 -134.994995117187500
348.608001708984370 346.608001708984370 -92.913497924804688
296.630004882812500 353.489013671875000 -128.988998413085940
416.115997314453120 357.799011230468750 -131.625000000000000
365.139007568359370 357.040985107421870 -137.108001708984370
244.054000854492190 354.559997558593750 -143.511001586914060
346.183990478515620 355.204010009765630 -132.617004394531250
348.630004882812500 357.864013671875000 -143.164993286132810
401.140991210937500 359.329010009765630 -142.054000854492190
357.079986572265620 366.634002685546870 -177.501998901367190
337.623992919921870 353.115997314453120 -127.050003051757810
337.596984863281250 355.773986816406250 -137.807006835937500
368.084014892578120 365.161010742187500 -171.113998413085940
412.119995117187500 358.753997802734370 -141.078002929687500
344.639007568359370 366.462005615234370 -181.677993774414060
258.088989257812500 350.109008789062500 -128.356002807617190
373.567993164062500 361.645996093750000 -160.651000976562500
376.127014160156250 357.200988769531250 -142.651992797851560
326.610992431640620 350.174987792968750 -122.505996704101560
325.635009765625000 346.980987548828120 -110.049003601074220
287.106994628906250 349.567993164062500 -125.892997741699220
390.157012939453120 357.307006835937500 -144.567993164062500
329.558013916015620 344.125000000000000 -100.485000610351560
335.053985595703120 341.125000000000000 -91.366096496582031
368.039001464843750 357.279998779296870 -151.356002807617190
329.595001220703120 351.175994873046870 -133.345993041992190
425.710998535156250 355.563995361328120 -139.054992675781250
359.214996337890620 355.044006347656250 -145.936004638671870
315.613006591796870 345.558013916015620 -114.041999816894530
381.679992675781250 361.467010498046870 -168.576004028320310
381.151000976562500 357.105987548828120 -152.085998535156250
318.177001953125000 349.074005126953120 -129.449005126953120
376.132995605468750 363.152008056640620 -178.611999511718750
266.152008056640620 345.575988769531250 -123.359001159667970
318.588989257812500 342.065002441406250 -103.486999511718750
420.171997070312500 356.563995361328120 -147.628005981445310
365.143005371093750 363.347991943359370 -183.069000244140620
296.630004882812500 345.364013671875000 -121.761001586914060
352.696990966796870 363.692993164062500 -187.218994140625000
277.122009277343750 344.658996582031250 -121.867996215820310
409.160003662109370 356.093994140625000 -150.669006347656250
304.622009277343750 343.578002929687500 -115.013999938964840
246.755004882812500 344.777008056640620 -127.801002502441410
240.632003784179690 346.951995849609370 -137.569000244140620
324.121002197265620 338.545989990234370 -93.534500122070313
398.149993896484370 355.605010986328120 -152.123001098632810
390.100006103515620 361.190002441406250 -176.145004272460940
307.648986816406250 340.486999511718750 -105.570999145507810
307.632995605468750 345.204986572265620 -124.848999023437500
227.634994506835940 324.582000732421870 -53.593898773193359
434.096008300781250 354.622985839843750 -146.110000610351560
249.658996582031250 325.389007568359370 -55.594699859619141
254.699005126953120 342.220001220703120 -121.848999023437500
395.085998535156250 357.696014404296870 -167.156005859375000
216.645004272460940 322.653015136718750 -51.636100769042969
302.131988525390620 336.592987060546870 -96.038299560546875
329.611999511718750 334.666992187500000 -84.934600830078125
387.143005371093750 355.381988525390620 -160.128997802734370
313.140014648437500 336.022003173828120 -93.040802001953125
296.618988037109370 339.664001464843750 -109.946998596191410
264.136993408203120 326.126007080078120 -60.522899627685547
238.658004760742190 325.039001464843750 -59.604801177978516
291.140014648437500 335.614013671875000 -96.526100158691406
288.121002197265620 340.924987792968750 -118.697998046875000
269.119995117187500 328.102996826171870 -70.565002441406250
288.152008056640620 332.136993408203120 -84.492202758789063
318.613006591796870 333.191009521484370 -84.956298828125000
274.661010742187500 330.421997070312500 -80.091400146484375
283.154998779296870 329.312988281250000 -74.621101379394531
398.158996582031250 360.371002197265620 -183.589996337890630
403.665985107421870 354.950012207031250 -162.091003417968750
281.121002197265620 333.106994628906250 -91.555702209472656
200.134002685546870 320.295989990234370 -51.561901092529297
384.622985839843750 360.654998779296870 -187.511001586914060
298.158996582031250 331.648010253906250 -85.084701538085938
258.076995849609370 326.184997558593750 -68.980903625488281
188.972000122070310 319.158996582031250 -50.867298126220703
285.617004394531250 336.096984863281250 -106.018997192382810
307.657989501953120 330.190002441406250 -81.121498107910156
425.725006103515620 353.106994628906250 -156.664993286132810
445.631988525390620 352.315002441406250 -151.093994140625000
295.158996582031250 327.644989013671870 -73.511901855468750
247.115997314453120 324.625000000000000 -69.109397888183594
270.636993408203120 330.569000244140620 -90.037101745605469
230.589004516601560 322.597991943359370 -65.129600524902344
414.670989990234370 353.136993408203120 -162.138000488281250
437.139007568359370 352.665985107421870 -157.529998779296870
263.183990478515620 327.816009521484380 -82.106201171875000
406.529998779296870 355.144989013671870 -171.722000122070310
365.665008544921870 358.895996093750000 -193.561996459960940
277.118988037109370 332.549011230468750 -101.067001342773440
247.085006713867190 336.023010253906250 -118.852996826171870
409.175994873046870 357.957000732421870 -184.580001831054690
234.966995239257810 341.565002441406250 -144.102005004882810
258.113006591796870 334.709991455078120 -113.847999572753910
392.644012451171870 359.216003417968750 -193.550003051757810
269.123992919921870 334.882995605468750 -113.308998107910160
220.136001586914060 319.988006591796870 -60.633499145507812
252.600006103515620 325.613006591796870 -79.605796813964844
208.626998901367190 318.611999511718750 -57.700500488281250
237.669006347656250 335.942993164062500 -123.575996398925780
376.130004882812500 358.593994140625000 -195.664993286132810
403.674987792968750 359.354003906250000 -195.078994750976560
280.138000488281250 335.082000732421870 -115.024002075195310
414.678009033203120 359.018005371093750 -195.070007324218750
237.690994262695310 322.337005615234370 -74.567596435546875
265.608001708984370 330.555999755859370 -104.557998657226560
453.632995605468750 350.878997802734370 -160.572998046875000
232.996002197265620 337.061004638671870 -135.065994262695310
423.123992919921870 350.743011474609370 -167.529006958007810
416.285003662109370 352.152008056640620 -175.434005737304690
423.048004150390620 358.148010253906250 -200.656005859375000
244.072006225585940 322.601013183593750 -84.297698974609375
258.183990478515620 325.384002685546880 -93.580902099609375
384.658996582031250 356.368011474609370 -201.057006835937500
445.134002685546870 349.199005126953120 -165.766998291015620
420.187011718750000 353.479003906250000 -186.565002441406250
406.157989501953120 357.986999511718750 -206.606994628906250
182.940994262695310 311.092010498046870 -50.186599731445313
434.109985351562500 348.708007812500000 -168.548004150390620
425.677001953125000 359.101989746093750 -211.067993164062500
238.557006835937500 328.695007324218750 -115.313003540039060
200.091995239257810 313.640014648437500 -61.751201629638672
224.735000610351560 316.799011230468750 -71.550498962402344
461.630004882812500 348.713012695312500 -167.518997192382810
414.735992431640620 358.240997314453120 -212.065994262695310
230.246002197265620 329.320007324218750 -122.134002685546870
425.696014404296870 349.490997314453120 -177.643005371093750
395.627014160156250 355.653015136718750 -206.229003906250000
189.257003784179690 311.316986083984370 -57.960498809814453
247.190002441406250 325.302001953125000 -107.349998474121090
213.720001220703120 314.244995117187500 -67.957603454589844
248.679992675781250 322.378997802734370 -96.104698181152344
434.156005859375000 359.274993896484370 -218.626998901367190
428.529998779296870 352.709991455078120 -194.167999267578120
434.045013427734370 355.623992919921870 -205.703994750976560
258.154998779296870 325.032012939453120 -108.416000366210940
472.608001708984370 347.247009277343750 -171.059005737304690
230.276000976562500 316.712005615234380 -82.057502746582031
230.300994873046880 332.782012939453130 -146.220001220703120
453.213012695312500 346.190002441406250 -172.712005615234370
227.686996459960940 327.911010742187500 -134.089004516601560
238.598007202148440 318.070007324218750 -93.589599609375000
442.203002929687500 354.984008789062500 -213.561996459960940
442.196990966796870 345.518005371093750 -176.102005004882810
233.082000732421870 321.118011474609370 -106.962997436523440
433.173004150390630 346.946014404296870 -184.580993652343750
445.677001953125000 355.941986083984370 -223.095993041992190
219.289993286132810 310.712005615234370 -77.493698120117187
224.007003784179690 319.662994384765620 -112.467002868652340
206.095001220703120 308.549987792968750 -71.680297851562500
438.079986572265620 346.761993408203120 -193.619003295898440
461.579986572265620 343.234008789062500 -177.453994750976560
223.281997680664060 322.328002929687500 -127.019996643066410
442.222991943359370 348.536010742187500 -203.054000854492190
241.630996704101560 316.602996826171870 -103.807998657226560
196.813003540039060 305.717987060546870 -68.868301391601563
230.270996093750000 313.252014160156250 -97.037200927734375
224.733001708984370 310.699005126953120 -88.026802062988281
186.843994140625000 303.221984863281250 -63.378299713134766
450.631988525390620 341.821990966796880 -183.050994873046870
179.395004272460940 300.765991210937500 -56.001300811767578
221.119003295898440 313.994995117187500 -104.558998107910160
226.110000610351560 323.136993408203120 -145.473007202148440
449.970001220703120 346.704010009765630 -212.111999511718750
447.705993652343750 342.010009765625000 -194.574996948242190
216.130996704101560 313.959991455078120 -115.580001831054690
467.717987060546870 338.654998779296870 -184.235000610351560
478.046997070312500 337.608001708984370 -181.356002807617190
210.970001220703120 303.213012695312500 -81.761703491210938
216.479995727539060 314.623992919921870 -127.107002258300780
216.483993530273440 305.220001220703120 -90.620399475097656
212.654006958007810 308.436004638671870 -104.589996337890620
221.662002563476560 316.923004150390630 -138.089996337890630
451.070007324218750 346.834014892578120 -228.052993774414060
202.380004882812500 300.154998779296870 -77.292800903320313
453.210998535156250 340.489013671875000 -204.569000244140620
222.169998168945310 305.394989013671870 -99.136299133300781
188.947006225585940 297.151000976562500 -71.353500366210938
458.710998535156250 336.565002441406250 -195.669998168945310
455.963989257812500 341.704986572265630 -218.598007202148440
180.686004638671870 293.895996093750000 -66.553199768066406
208.223007202148440 306.333007812500000 -114.611000061035160
173.944000244140620 290.690002441406250 -57.578701019287109
175.207000732421870 286.906005859375000 -42.627799987792969
486.596984863281250 332.701995849609370 -184.401000976562500
208.222000122070310 308.299987792968750 -125.617996215820310
202.716003417968750 301.821990966796870 -103.106002807617190
468.207000732421870 333.018005371093750 -195.117996215820310
478.093994140625000 331.701995849609370 -190.462005615234370
461.011993408203120 335.721008300781250 -209.591995239257810
202.708999633789060 295.851013183593750 -87.082000732421875
210.983001708984370 308.152008056640620 -135.667999267578120
198.764999389648440 301.623992919921870 -113.105003356933590
194.095001220703120 292.009002685546870 -80.177696228027344
208.261993408203120 296.256988525390620 -96.264999389648438
456.954986572265620 338.656005859375000 -231.895996093750000
216.597000122070310 307.950988769531250 -144.266006469726560
197.266006469726560 301.661987304687500 -123.089996337890620
195.751998901367190 294.812988281250000 -96.221099853515625
191.697998046875000 296.838989257812500 -106.136001586914060
183.449005126953120 288.204010009765620 -74.340896606445313
201.649993896484370 302.945007324218750 -132.593002319335940
464.230987548828120 333.518005371093750 -220.080001831054690
170.324996948242190 280.911987304687500 -50.127998352050781
183.555999755859370 296.184997558593750 -111.953002929687500
170.522994995117190 282.592010498046870 -63.120498657226563
173.248992919921870 276.376007080078120 -38.135898590087891
185.660003662109370 297.427001953125000 -122.091003417968750
186.205001831054690 289.828002929687500 -97.167503356933594
205.514999389648440 301.665985107421870 -141.779998779296870
485.231994628906250 325.105010986328120 -198.184005737304690
169.710998535156250 292.790985107421870 -113.648002624511720
494.575012207031250 323.739990234375000 -194.486999511718750
178.057998657226560 290.115997314453120 -103.934997558593750
464.342987060546870 332.213012695312500 -234.255996704101560
191.169998168945310 297.403991699218750 -132.585006713867190
175.365005493164060 281.230010986328120 -71.810203552246094
478.113006591796870 325.338989257812500 -207.033996582031250
167.093994140625000 293.657012939453120 -125.097000122070310
186.348999023437500 283.687011718750000 -82.949501037597656
177.705001831054690 294.649993896484370 -129.514007568359370
156.139999389648440 291.540008544921880 -122.092002868652340
159.593002319335940 288.608001708984370 -111.606002807617190
194.630996704101560 284.976989746093750 -92.551200866699219
476.523010253906250 325.192993164062500 -217.057998657226560
146.201004028320310 288.147003173828120 -114.732002258300780
166.386993408203130 273.664001464843750 -57.256500244140625
197.233993530273440 295.859008789062500 -141.434005737304690
138.634002685546870 288.545989990234370 -122.074996948242190
167.106002807617190 284.622985839843750 -103.877998352050780
158.660003662109370 291.425994873046870 -132.591003417968750
124.153999328613280 284.505004882812500 -110.060997009277340
169.304992675781250 267.251007080078120 -35.628299713134766
175.222000122070310 282.826995849609370 -97.148902893066406
168.656997680664060 291.937988281250000 -135.093002319335940
503.072998046875000 318.763000488281250 -197.544998168945310
474.562988281250000 325.282989501953120 -228.082992553710940
147.748992919921870 288.764007568359370 -127.018997192382810
166.328002929687500 274.291992187500000 -67.955398559570313
183.630004882812500 292.513000488281250 -138.634002685546870
488.765014648437500 319.606994628906250 -209.132995605468750
183.643997192382810 279.929992675781250 -92.244102478027344
134.102996826171870 281.708007812500000 -106.831001281738280
114.682998657226560 279.001007080078120 -99.493301391601563
156.102005004882810 281.105010986328120 -102.916999816894530
471.601013183593750 325.325988769531250 -238.541000366210940
145.093994140625000 279.118988037109370 -103.933998107910160
176.705001831054690 275.347991943359370 -85.601997375488281
485.105987548828120 319.304992675781250 -220.052993774414060
171.302001953125000 272.688995361328120 -77.390098571777344
497.523986816406250 315.643005371093750 -205.957992553710940
107.647003173828120 273.886993408203120 -93.513099670410156
168.151992797851560 275.440002441406250 -93.577201843261719
163.673995971679690 261.417999267578120 -41.593399047851563
125.638000488281250 274.369995117187500 -99.695098876953125
483.503997802734370 319.138000488281250 -231.501007080078120
160.214004516601560 265.416992187500000 -66.546302795410156
158.725006103515620 272.804992675781250 -96.254798889160156
508.557006835937500 311.722991943359370 -205.453002929687500
493.111999511718750 313.835998535156250 -217.537002563476560
480.105987548828120 319.311004638671870 -241.542999267578120
136.660003662109370 270.928985595703120 -98.086502075195313
117.640998840332030 268.980987548828120 -95.419502258300781
162.649993896484370 268.075012207031250 -87.947898864746094
491.742004394531250 314.016998291015630 -228.100006103515620
163.684997558593750 264.898986816406250 -77.075103759765625
147.658004760742190 268.946014404296880 -96.550598144531250
518.218017578125000 308.122009277343750 -206.225997924804690
102.216003417968750 267.408996582031250 -100.806999206542970
172.593994140625000 266.057006835937500 -88.953300476074219
503.042999267578120 308.717010498046870 -215.507995605468750
128.647994995117190 265.498992919921870 -94.948997497558594
489.036987304687500 314.161010742187500 -243.518005371093750
108.125000000000000 263.440002441406250 -93.431999206542969
499.611999511718750 308.358001708984370 -225.570999145507810
153.212005615234370 262.329986572265620 -90.746696472167969
497.247985839843750 309.553009033203120 -236.625000000000000
513.775024414062500 303.175994873046870 -214.272994995117190
497.605987548828120 309.273010253906250 -246.955001831054690
139.649002075195310 258.333007812500000 -92.823196411132813
97.662101745605469 257.428009033203120 -100.097000122070310
508.277008056640620 301.559997558593750 -223.667007446289060
133.169998168945310 239.509994506835940 -31.096500396728516
504.462005615234380 302.765991210937500 -233.589004516601560
147.606994628906250 253.505996704101560 -87.952102661132813
128.660995483398440 253.436996459960940 -91.523002624511719
117.607002258300780 252.953994750976560 -92.319602966308594
106.569000244140620 252.401992797851560 -93.882797241210938
158.667007446289060 251.912002563476560 -85.597297668457031
522.075988769531250 296.821014404296870 -217.026000976562500
505.509002685546870 301.820007324218750 -244.098007202148440
136.656997680664060 249.188003540039060 -85.832801818847656
124.343002319335940 234.320999145507810 -31.062900543212891
94.124397277832031 250.921005249023440 -107.017997741699220
515.317993164062500 294.622009277343750 -225.682998657226560
123.155998229980470 246.481994628906250 -86.433799743652344
136.591003417968750 236.623992919921870 -47.071800231933594
126.565002441406250 234.169006347656250 -41.647499084472656
511.019989013671880 295.292999267578120 -236.570007324218750
144.123001098632810 243.826995849609370 -81.825599670410156
98.105400085449219 246.449005126953120 -98.976196289062500
112.127998352050780 243.953994750976560 -89.465499877929688
120.513000488281250 225.509994506835940 -24.699399948120117
524.789001464843750 288.600006103515620 -223.725997924804690
511.044006347656250 294.835998535156250 -251.078994750976560
135.593002319335940 232.998001098632810 -58.139499664306641
103.628997802734370 239.432998657226560 -93.537101745605469
131.145996093750000 238.444000244140620 -86.525299072265625
128.501998901367190 229.069000244140620 -51.134998321533203
119.702003479003910 236.902999877929690 -85.280899047851562
139.917007446289060 234.699996948242190 -74.819900512695313
122.509002685546870 224.001007080078120 -35.634799957275391
89.049400329589844 241.451004028320310 -110.295997619628910
519.067016601562500 286.351013183593750 -233.555999755859370
534.185974121093750 283.463989257812500 -222.619003295898440
516.515014648437500 288.299987792968750 -245.580001831054690
93.378799438476563 237.412994384765620 -101.828002929687500
133.669998168945310 228.916000366210940 -68.589698791503906
109.125000000000000 231.925994873046880 -88.501197814941406
127.775001525878910 224.830993652343750 -61.066799163818359
121.125999450683590 221.958999633789060 -50.595001220703125
527.343017578125000 280.694000244140620 -231.173004150390620
136.647994995117190 229.440994262695310 -84.539497375488281
519.278015136718750 284.046997070312500 -254.697998046875000
125.656997680664060 227.930999755859370 -84.575798034667969
86.693901062011719 231.285995483398440 -107.328002929687500
98.127998352050781 228.432006835937500 -94.563102722167969
535.870971679687500 275.175994873046870 -228.787994384765620
523.757995605468750 278.016998291015620 -244.623001098632810
116.907997131347660 223.240005493164060 -82.371200561523438
131.141006469726560 220.944000244140620 -76.109100341796875
124.177001953125000 217.912994384765620 -68.085502624511719
106.487998962402340 221.634002685546870 -87.272903442382813
91.210899353027344 223.912002563476560 -101.646003723144530
530.302001953125000 271.605010986328120 -239.207000732421870
523.646972656250000 274.377990722656250 -255.593994140625000
84.618896484375000 224.072998046875000 -113.958999633789060
95.480400085449219 217.996002197265620 -93.460998535156250
538.546020507812500 266.950988769531250 -234.016998291015620
117.017997741699220 203.440002441406250 -38.568298339843750
121.777000427246090 213.391006469726560 -78.822502136230469
118.105003356933590 209.468002319335940 -68.602401733398437
112.083000183105470 212.475997924804690 -83.926200866699219
100.948997497558590 211.572998046875000 -85.763397216796875
87.260200500488281 215.328994750976560 -107.825996398925780
531.924987792968750 264.268005371093750 -247.529998779296870
113.305000305175780 199.798004150390620 -50.601799011230469
528.510986328125000 263.841003417968750 -256.947998046875000
84.426101684570313 213.408004760742190 -117.357002258300780
113.603996276855470 192.397994995117190 -32.577400207519531
106.708000183105470 203.886993408203120 -79.714401245117187
91.632400512695312 206.953002929687500 -95.071098327636719
111.914001464843750 200.766998291015620 -69.017303466796875
117.555000305175780 203.207992553710940 -81.890701293945313
95.356597900390625 201.837005615234370 -86.203399658203125
109.946998596191410 195.600997924804690 -60.025600433349609
111.370002746582030 190.061004638671870 -43.522098541259766
545.317993164062500 253.634002685546870 -239.277999877929690
88.092002868652344 204.427993774414060 -105.050003051757810
537.684997558593750 253.440994262695310 -247.608993530273440
100.240997314453120 195.882003784179690 -79.811096191406250
116.736000061035160 181.897003173828120 -28.173000335693359
531.844970703125000 253.531005859375000 -258.734985351562500
84.899299621582031 203.514007568359370 -119.848999023437500
89.653800964355469 196.897003173828120 -94.101898193359375
107.411003112792970 185.994995117187500 -55.020000457763672
103.861999511718750 188.777999877929690 -66.676803588867188
110.694999694824220 181.449005126953120 -38.112701416015625
109.156997680664060 189.927001953125000 -75.594299316406250
92.641197204589844 191.490997314453120 -85.602500915527344
549.552001953125000 245.233001708984370 -242.912002563476560
86.270797729492188 196.061996459960940 -112.596000671386720
106.402999877929690 178.889999389648440 -47.696399688720703
100.920997619628910 179.608993530273440 -60.421001434326172
542.418029785156250 241.779998779296870 -250.402999877929690
535.021972656250000 243.367996215820310 -258.430999755859380
98.113403320312500 181.610000610351560 -70.987197875976563
86.889396667480469 184.694000244140620 -90.371299743652344
91.201301574707031 181.908004760742190 -79.686599731445313
85.350898742675781 187.300994873046870 -102.583000183105470
109.836997985839840 170.811004638671870 -38.242698669433594
111.658996582031250 167.843994140625000 -27.773500442504883
101.000999450683590 179.589996337890620 -80.813903808593750
555.056030273437500 234.753997802734380 -244.873992919921870
84.131599426269531 187.944000244140620 -124.079002380371090
101.153999328613280 165.964996337890620 -35.588100433349609
98.111900329589844 170.473007202148440 -55.541198730468750
102.542999267578120 168.063995361328120 -46.027000427246094
92.604400634765625 171.975006103515620 -64.061500549316406
95.555397033691406 161.669006347656250 -24.560699462890625
546.802978515625000 232.490005493164060 -250.763000488281250
90.771400451660156 172.830993652343750 -74.555900573730469
82.267601013183594 178.304000854492190 -97.637702941894531
538.112976074218750 233.429000854492190 -256.480987548828120
84.124496459960937 174.453002929687500 -82.565902709960937
92.603202819824219 163.561996459960940 -41.105598449707031
84.235702514648438 178.423004150390620 -108.570999145507810
87.109703063964844 157.992004394531250 -30.609899520874023
90.041000366210937 162.598999023437500 -51.090900421142578
80.099296569824219 154.561004638671870 -24.153200149536133
87.130897521972656 163.955993652343750 -61.572700500488281
84.362998962402344 157.688995361328130 -40.542900085449219
85.609901428222656 177.447006225585940 -120.583000183105470
78.790603637695312 168.401992797851560 -88.575897216796875
84.357002258300781 164.294998168945310 -72.505599975585937
76.088897705078125 152.139999389648440 -34.229198455810547
70.652900695800781 149.440002441406250 -25.097000122070312
79.199501037597656 168.044998168945310 -99.534400939941406
86.158096313476562 163.929992675781250 -82.531501770019531
81.538902282714844 157.115005493164060 -56.544300079345703
541.283020019531250 221.781997680664060 -255.835998535156250
552.486022949218750 220.800994873046870 -251.863006591796870
78.507499694824219 157.059997558593750 -68.072303771972656
78.845100402832031 150.690002441406250 -45.151901245117188
65.103797912597656 147.147003173828120 -33.840198516845703
58.091201782226563 144.156005859375000 -27.289300918579102
76.094802856445313 157.951004028320310 -81.050003051757813
76.079399108886719 159.977996826171870 -93.627601623535156
86.098602294921875 166.384994506835940 -118.639999389648440
87.121200561523438 154.953994750976560 -76.114997863769531
73.670097351074219 148.914001464843750 -54.091201782226563
70.588897705078125 145.014999389648440 -45.101898193359375
80.892501831054687 160.875000000000000 -107.421997070312500
54.077999114990234 141.682998657226560 -36.734001159667969
72.329902648925781 148.772994995117190 -65.083000183105469
558.140014648437500 211.908004760742190 -252.005004882812500
546.106018066406250 212.039001464843750 -254.902999877929690
70.324096679687500 152.264999389648440 -87.615501403808594
46.067901611328125 137.108001708984370 -32.711200714111328
76.138496398925781 148.436996459960940 -75.122200012207031
63.174701690673828 137.891006469726560 -38.570098876953125
74.779098510742188 152.373001098632810 -100.049003601074220
67.974601745605469 140.572998046875000 -54.597698211669922
42.117401123046875 135.037994384765620 -41.751499176025391
66.470802307128906 140.643997192382810 -66.131599426269531
59.046600341796875 135.117004394531250 -50.150100708007813
54.111400604248047 132.671005249023440 -41.779201507568359
37.703399658203125 129.442993164062500 -34.493900299072266
75.118797302246094 143.434005737304690 -86.065299987792969
79.815002441406250 148.876998901367190 -110.503997802734370
551.083984375000000 200.871002197265620 -254.940002441406250
70.597900390625000 139.020004272460940 -75.370597839355469
67.531402587890625 143.500000000000000 -93.718399047851563
65.180999755859375 140.442993164062500 -84.122901916503906
59.569400787353516 134.035003662109370 -61.613098144531250
50.733898162841797 129.695007324218750 -52.350101470947266
73.345703125000000 142.783004760742190 -105.003997802734370
41.165000915527344 126.920997619628910 -51.084598541259766
63.153099060058594 132.430999755859370 -72.102096557617188
39.941898345947266 119.228996276855470 -32.973598480224609
52.745700836181641 126.818000793457030 -63.564800262451172
76.720901489257813 140.813995361328120 -116.029998779296870
59.431400299072266 132.643997192382810 -87.862998962402344
70.673202514648437 131.923004150390620 -83.612098693847656
64.018402099609375 135.065002441406250 -99.111999511718750
40.926101684570313 118.906997680664060 -44.161499023437500
67.995002746582031 136.705001831054690 -113.261001586914060
557.533020019531250 188.251007080078120 -254.483993530273440
43.931999206542969 121.115997314453120 -59.317199707031250
56.853000640869141 123.235000610351560 -71.950798034667969
59.592201232910156 131.046005249023440 -111.585998535156250
62.652999877929688 123.425003051757810 -84.555198669433594
56.899600982666016 127.177001953125000 -101.068000793457030
53.845199584960938 124.277999877929690 -90.595596313476563
48.597198486328125 116.958000183105470 -67.163497924804687
65.861297607421875 118.786003112792970 -74.384201049804688
41.430801391601563 108.386001586914060 -39.608600616455078
53.971500396728516 118.550003051757810 -81.879402160644531
43.105400085449219 109.920997619628910 -50.104000091552734
50.681999206542969 123.361999511718750 -110.095001220703120
42.880500793457031 110.045997619628910 -60.258998870849609
50.174400329589844 118.907997131347660 -98.591499328613281
63.480701446533203 113.108001708984370 -82.436599731445313
48.514198303222656 107.523002624511720 -71.808998107910156
43.096599578857422 116.023002624511720 -106.533996582031250
53.663101196289063 108.925003051757810 -85.546501159667969
42.167098999023438 96.438003540039063 -41.089199066162109
46.250801086425781 93.862602233886719 -31.222900390625000
58.215698242187500 104.897003173828120 -74.515403747558594
43.031200408935547 108.008003234863280 -95.538101196289063
34.778499603271484 110.239997863769530 -106.248001098632810
42.822200775146484 97.310699462890625 -57.059101104736328
45.586101531982422 102.487998962402340 -82.457099914550781
43.057899475097656 98.968399047851563 -70.150001525878906
24.066999435424805 104.626998901367190 -105.419998168945310
44.905601501464844 86.466598510742188 -38.167499542236328
32.139301300048828 101.472000122070310 -99.546600341796875
38.774700164794922 99.335601806640625 -90.637100219726563
51.523700714111328 94.999099731445313 -73.819396972656250
43.544799804687500 87.940696716308594 -48.598999023437500
54.114101409912109 97.439498901367188 -85.434303283691406
15.564700126647949 97.158699035644531 -100.304000854492190
42.792999267578125 89.868301391601563 -74.455398559570313
46.139801025390625 90.951499938964844 -86.739601135253906
40.560100555419922 83.793502807617188 -59.592899322509766
32.271400451660156 91.236000061035156 -90.800300598144531
26.592300415039063 93.087699890136719 -99.396400451660156
37.618999481201172 86.944503784179687 -83.012397766113281
10.644200325012207 91.482696533203125 -107.011001586914060
37.033901214599609 82.094596862792969 -69.033798217773438
46.797798156738281 74.922897338867188 -41.106601715087891
51.433200836181641 84.610603332519531 -79.174102783203125
16.775699615478516 87.836898803710938 -96.711898803710938
24.079999923706055 83.527603149414063 -90.350402832031250
31.596399307250977 78.449096679687500 -84.452796936035156
40.253299713134766 71.894302368164062 -60.134998321533203
44.350299835205078 68.912597656250000 -49.207000732421875
12.047900199890137 83.872703552246094 -113.514999389648440
41.802898406982422 74.835403442382812 -74.395698547363281
16.025999069213867 81.374000549316406 -104.518997192382810
45.965900421142578 77.613899230957031 -86.288398742675781
47.581298828125000 64.412803649902344 -38.542598724365234
19.707199096679688 75.929397583007812 -96.128196716308594
35.534301757812500 66.954002380371094 -68.032203674316406
37.658100128173828 71.457801818847656 -88.273300170898438
23.814800262451172 70.439300537109375 -88.202301025390625
43.056098937988281 65.517700195312500 -81.111701965332031
42.164001464843750 57.421501159667969 -51.594398498535156
12.614500045776367 72.392898559570313 -118.565002441406250
50.352901458740234 51.958301544189453 -38.250000000000000
37.567798614501953 56.415401458740234 -61.516998291015625
32.115501403808594 62.962100982666016 -88.855903625488281
15.156000137329102 66.158203125000000 -106.427001953125000
31.655000686645508 56.425098419189453 -69.589401245117188
37.597000122070313 57.453300476074219 -77.659400939941406
21.001699447631836 60.954601287841797 -94.462699890136719
45.866798400878906 47.958000183105469 -47.263099670410156
24.020700454711914 54.458599090576172 -85.875000000000000
34.717700958251953 44.927200317382813 -63.160301208496094
32.119400024414063 49.907699584960938 -90.408096313476563
18.857999801635742 49.998699188232422 -93.451103210449219
28.008399963378906 44.483699798583984 -71.569396972656250
34.796798706054688 45.848800659179687 -79.964698791503906
47.637901306152344 37.425098419189453 -46.576099395751953
41.914001464843750 37.916000366210937 -54.912300109863281
16.643999099731445 47.432899475097656 -103.087997436523440
29.326000213623047 36.874900817871094 -78.416297912597656
29.080999374389648 33.475399017333984 -65.980697631835938
45.192001342773438 27.602899551391602 -41.470901489257813
34.827098846435547 30.225999832153320 -56.657798767089844
18.286199569702148 38.366001129150391 -92.303596496582031
32.083400726318359 37.985599517822266 -89.994300842285156
34.853599548339844 25.776699066162109 -45.188499450683594
22.715900421142578 30.398399353027344 -73.115997314453125
23.993600845336914 32.711700439453125 -86.320098876953125
28.175100326538086 19.390899658203125 -41.100799560546875
27.636899948120117 21.442399978637695 -53.092399597167969
24.455099105834961 22.503700256347656 -65.871398925781250
14.041199684143066 27.957300186157227 -91.527999877929688
19.257600784301758 13.722499847412109 -42.105800628662109
19.052499771118164 20.009199142456055 -74.566200256347656
20.754499435424805 13.884499549865723 -53.079601287841797
21.120500564575195 19.404399871826172 -87.879096984863281
19.512500762939453 11.467800140380859 -66.035202026367188
9.680700302124023 16.928300857543945 -94.093696594238281
7.140130043029785 2.950779914855957 -41.591800689697266
15.527500152587891 9.999819755554199 -75.610702514648438
15.402299880981445 4.237060070037842 -58.045799255371094
14.582099914550781 10.100299835205078 -87.604698181152344
10.132399559020996 -1.545719981193543 -50.269401550292969
2.682060003280640 13.447999954223633 -115.625999450683590
21.049499511718750 7.452260017395020 -94.794403076171875
5.717470169067383 5.454959869384766 -94.713401794433594
11.927800178527832 0.531144022941589 -76.640998840332031
22.115800857543945 2.945919990539551 -85.625503540039063
10.619500160217285 -2.529269933700562 -67.089698791503906
1.577149987220764 -7.986440181732178 -50.149600982666016
-1.777240037918091 4.520309925079346 -112.647003173828120
-8.323200225830078 2.922029972076416 -120.607002258300780
-8.911230087280273 -15.358699798583984 -51.281700134277344
13.152099609375000 -3.115430116653442 -97.393096923828125
1.570999979972839 -2.519340038299561 -102.041000366210940
8.062840461730957 -10.026300430297852 -73.619598388671875
18.214300155639648 -8.095430374145508 -85.541397094726563
-0.926370978355408 -15.936900138854980 -58.221500396728516
-15.877300262451172 0.115652002394199 -127.433998107910160
5.276659965515137 -8.113789558410645 -92.801101684570313
-3.895030021667481 -5.055630207061768 -110.057998657226560
-16.262399673461914 -23.108800888061523 -52.535099029541016
-11.834500312805176 -7.085010051727295 -119.106002807617190
-23.361499786376953 -6.420460224151611 -123.984001159667970
10.636799812316895 -16.051700592041016 -82.655296325683594
-9.245630264282227 -23.689399719238281 -60.990398406982422
-2.339649915695190 -13.074500083923340 -103.091003417968750
-19.908100128173828 -11.386199951171875 -113.405998229980470
3.134540081024170 -21.052499771118164 -77.694297790527344
7.648580074310303 -15.554900169372559 -99.227600097656250
-1.322119951248169 -24.595800399780273 -69.077003479003906
-29.736099243164062 -15.579700469970703 -113.308998107910160
15.535799980163574 -23.024000167846680 -88.688400268554688
-14.974100112915039 -34.229900360107422 -53.625000000000000
-10.749699592590332 -33.546001434326172 -63.540199279785156
7.532670021057129 -29.009599685668945 -84.384803771972656
-31.896600723266602 -21.673999786376953 -122.471000671386720
12.779100418090820 -27.566799163818359 -99.774696350097656
-27.034599304199219 -25.318099975585937 -114.460998535156250
-8.895890235900879 -42.130599975585938 -52.099998474121094
-6.480090141296387 -43.110401153564453 -63.643199920654297
-26.477300643920898 -33.161701202392578 -126.499000549316410
-3.657690048217773 -50.961700439453125 -56.578300476074219
-3.165309906005859 -49.869499206542969 -70.536796569824219
-17.503900527954102 -39.789798736572266 -121.791999816894530
-26.913200378417969 -40.636199951171875 -136.408004760742190
-24.041999816894531 -46.485900878906250 -126.404998779296870
-30.221900939941406 -50.617900848388672 -135.802001953125000
-34.393600463867187 -60.027599334716797 -133.192993164062500
-35.770900726318359 -66.635803222656250 -125.116996765136720
-39.305000305175781 -73.744697570800781 -116.037002563476560
