ply
format ascii 1.0
element vertex 211
property double x
property double y
property double z
end_header
-72.012638854980466 191.675399780273440 -275.598797607421890
-71.290402730305985 190.370335896809910 -272.378672281901060
-68.633234659830734 189.692998250325530 -273.047342936197940
-64.886224746704102 183.997249603271480 -268.908752441406250
-73.407699584960938 188.748992919921870 -268.682006835937500
-71.045600891113281 188.496002197265620 -268.257995605468750
-68.043256487165181 187.482997349330360 -269.008575439453120
-71.984934488932296 189.456334431966160 -270.488342285156250
-68.508350372314453 189.776496887207030 -270.167007446289060
-62.134000778198242 181.777000427246090 -264.439498901367190
-64.725700378417969 184.182998657226560 -265.442001342773440
-62.756000518798828 182.223999023437500 -266.286010742187500
-71.085296630859375 188.159004211425780 -265.391494750976560
-68.352001190185547 186.931499481201170 -265.485252380371090
-61.709033966064453 181.114669799804690 -262.475341796875000
-59.424900054931641 179.447998046875000 -262.446990966796870
-64.455450057983398 184.152999877929690 -262.065238952636720
-67.282203674316406 185.617004394531250 -262.436004638671870
-59.146598815917969 177.683502197265620 -259.473999023437500
-60.796819305419923 180.481396484375010 -259.291998291015600
-59.649850845336914 179.344505310058590 -259.401992797851560
-67.518951416015625 185.265998840332030 -259.475997924804690
-64.266033172607422 183.783999125162750 -259.029006958007810
-61.629600524902344 183.749328613281250 -259.185007731119810
-57.981180572509764 177.251400756835950 -255.659796142578130
-63.221649169921875 181.980995178222660 -254.303001403808590
-60.601119232177737 181.215402221679680 -255.995004272460930
-59.226300239562988 180.106750488281250 -254.967250823974610
-67.495201110839844 184.289497375488280 -255.499992370605470
-65.325978088378903 182.826000976562510 -255.235400390624990
-61.776200612386070 182.988001505533840 -256.491668701171870
-55.244499206542969 173.585998535156250 -250.464004516601560
-56.780849456787109 176.698501586914060 -252.560501098632810
-64.274949391682938 181.541829427083340 -251.802500406901030
-61.351933797200523 180.947662353515620 -252.047332763671870
-58.215632120768227 179.340332031250000 -251.743331909179690
-59.842498779296875 182.223999023437500 -253.761993408203130
-54.558601379394531 173.751998901367190 -248.785003662109370
-54.913600921630859 175.652999877929690 -248.634002685546870
-63.291400909423828 179.640502929687500 -248.416496276855470
-61.651100158691406 179.817797851562490 -249.552798461914050
-58.653299967447914 179.699498494466160 -249.389165242513030
-52.330049514770508 171.561500549316410 -244.368499755859370
-53.269901275634766 173.578994750976560 -246.466995239257810
-52.307050704956055 173.583496093750000 -244.419502258300780
-61.312760162353513 178.010400390624990 -245.624398803710930
-58.447411431206596 178.098890516493040 -245.420776367187500
-54.635000864664711 177.855336507161470 -245.023666381835940
-57.217399597167969 178.927993774414060 -246.736999511718750
-51.269242967878071 170.779429844447550 -242.197429112025670
-49.293149948120117 171.615005493164060 -240.457000732421870
-50.553939819335938 173.589401245117190 -241.542199707031240
-49.359001159667969 173.581497192382810 -240.402496337890620
-61.261366526285805 176.430664062500000 -241.971328735351560
-58.054013933454243 176.749997820172980 -241.815429687500000
-54.579167048136391 177.313331604003910 -241.529663085937500
-51.231266021728516 175.963333129882810 -241.832331339518220
-49.652750015258789 170.614997863769530 -240.092498779296870
-47.502355787489151 170.921780056423610 -238.483998616536470
-45.368867238362633 169.600667317708340 -237.071334838867190
-59.172100067138672 175.195999145507810 -238.572006225585940
-49.540500640869141 175.179992675781250 -238.201995849609370
-47.678100109100342 174.074625015258790 -238.053251266479490
-57.414600372314453 176.053001403808590 -239.277503967285160
-54.332450866699219 176.737998962402340 -238.375503540039060
-50.222199757893883 175.957005818684910 -239.548670450846340
-48.500499725341797 175.617996215820310 -239.268005371093750
-41.668399810791016 167.507003784179690 -234.029998779296870
-43.910244835747612 170.857667711046020 -235.394666883680540
-42.034749984741211 170.374752044677730 -233.736251831054690
-58.149351119995117 175.022003173828120 -235.586494445800780
-47.615001678466797 175.169006347656250 -236.087997436523440
-44.758150100708008 174.142625808715820 -234.949497222900390
-57.240600585937500 175.410995483398440 -236.475997924804690
-54.295450210571289 176.450248718261720 -235.423252105712890
-51.276649475097656 177.056999206542970 -235.420501708984370
-48.532079315185548 176.493002319335940 -235.240399169921890
-45.541900634765625 175.526992797851560 -236.177993774414060
-40.299900054931641 167.546501159667970 -232.444999694824220
-40.534442356654573 170.687286376953120 -232.083142961774540
-39.134265899658203 170.279332478841160 -230.601669311523440
-41.110055711534287 173.989446004231780 -231.527665879991330
-54.263824462890625 177.355251312255860 -231.386249542236330
-51.281599044799805 177.613502502441410 -231.474502563476560
-48.327899932861328 177.329246520996090 -231.416248321533200
-44.162479400634766 176.775000000000010 -231.557797241210950
-41.329799652099609 177.229995727539060 -230.401000976562500
-37.537101745605469 167.580001831054690 -228.261001586914060
-37.475500379289898 171.087003435407350 -228.558000837053580
-34.569240570068359 170.539801025390630 -226.967001342773440
-39.987899780273437 175.104003906250000 -229.604003906250000
-37.642685481480193 173.925715855189740 -228.175855364118290
-51.196300506591797 178.289993286132810 -228.651992797851560
-48.296100616455078 177.639999389648440 -228.472000122070310
-44.314649581909180 177.354499816894530 -228.440505981445310
-40.001433054606117 176.771331787109370 -228.406667073567720
-37.841433207194008 175.637669881184910 -227.919331868489590
-33.630500793457031 171.470001220703120 -225.880996704101560
-30.150849819183350 170.698497772216800 -224.857250213623050
-27.716299057006836 171.248992919921870 -223.550994873046870
-37.398101806640625 175.343994140625000 -226.138000488281250
-34.213119506835937 173.548797607421870 -225.859201049804680
-30.864833831787109 174.006001790364590 -223.940338134765620
-51.309398651123047 177.619995117187500 -226.447998046875000
-47.932533264160156 177.810002644856780 -225.816004435221340
-44.301600456237793 177.446247100830080 -225.455249786376950
-41.304550170898437 177.632499694824220 -225.454505920410160
-38.065699768066409 177.384002685546870 -225.379199218749990
-34.606860351562503 175.968997192382800 -224.755001831054700
-27.009399414062500 171.809997558593750 -223.080993652343750
-25.242799758911133 171.639999389648440 -222.585998535156250
-28.275099754333496 174.533004760742190 -222.475997924804690
-25.438400268554688 173.363006591796870 -222.070007324218750
-44.293174743652344 178.076999664306640 -221.569252014160160
-41.279998779296875 178.045997619628910 -221.518005371093750
-38.296725273132324 177.937751770019530 -221.455753326416020
-34.359774589538574 178.031749725341800 -221.411499023437500
-30.336033503214519 176.947499593098970 -221.636833190917970
-27.227349281311035 176.690994262695310 -220.643005371093750
-24.650367101033527 176.208669026692720 -220.392669677734370
-21.261050224304199 176.367500305175780 -220.294502258300780
-17.277099609375000 177.317993164062500 -220.283996582031250
-29.224000930786133 179.029998779296870 -220.371994018554690
-43.269599914550781 178.354995727539060 -218.524993896484370
-38.248100280761719 178.030250549316410 -217.466751098632810
-34.685234069824219 177.895329793294280 -217.742996215820310
-23.949200312296551 177.641998291015630 -219.160664876302090
-20.057800292968750 177.501001993815090 -219.086329142252590
-17.288099288940430 177.973999023437500 -218.798995971679690
-15.424099922180176 178.781997680664060 -217.513000488281250
-30.123875141143799 179.182750701904300 -217.507251739501950
-27.314399719238281 179.437500000000000 -217.378494262695310
-24.335200309753418 179.549251556396480 -217.363750457763670
-20.331500530242920 179.445751190185550 -217.313995361328120
-17.317399978637695 179.402496337890620 -217.255500793457030
-14.368949890136719 180.075996398925780 -217.027503967285160
-37.294799804687500 177.729995727539060 -214.442001342773440
-33.988465627034508 177.598332722981780 -215.113667805989590
-31.567599296569824 178.119995117187500 -215.309501647949220
-28.336400032043457 179.600997924804690 -214.498001098632810
-23.904766718546551 181.233668009440090 -214.925669352213530
-20.339974403381348 181.565002441406250 -215.418746948242190
-17.309549331665039 181.590995788574220 -215.448005676269530
-14.621600151062012 181.515335083007810 -215.614003499348970
-20.198550224304199 183.068000793457030 -213.969497680664060
-17.342500686645508 183.777503967285160 -213.629005432128910
-14.102780151367188 183.691598510742180 -214.182998657226560
-10.451294136047363 184.089401245117190 -214.488198852539060
-7.255070209503174 185.253005981445310 -214.039993286132810
-9.395970344543457 186.069000244140620 -213.115997314453120
-5.855899810791016 188.466003417968750 -213.304992675781250
-32.944400787353516 176.807006835937500 -212.684997558593750
-30.501924991607666 177.899253845214840 -211.392498016357420
-28.645000457763672 178.748992919921870 -210.619995117187500
-27.561999797821045 179.800251007080080 -211.989997863769530
-24.642166773478191 181.652333577473970 -211.835001627604160
-23.251133600870769 182.677668253580720 -211.070332845052090
-20.004616737365723 184.290331522623690 -211.468500773111970
-17.235599517822266 185.274002075195310 -212.175994873046870
-15.279000282287598 185.485992431640620 -212.363998413085940
-16.670900344848633 186.394332885742190 -210.680338541666660
-13.596199989318848 187.357800292968760 -211.040597534179680
-10.838520050048828 187.170001983642580 -212.043003082275390
-7.313049793243408 187.600997924804690 -212.485992431640620
-9.866173426310221 189.991999308268220 -210.161331176757810
-6.554092025756836 190.460998535156250 -210.931002807617180
-3.979796568552653 190.912999471028660 -211.741333007812500
-4.129645109176636 193.190498352050780 -209.869003295898440
-1.346660017967224 193.679992675781250 -210.561996459960940
-25.998899459838867 180.358001708984370 -208.287994384765620
-25.053099950154621 180.614334106445310 -207.170333862304690
-23.342324733734131 182.672500610351560 -207.455253601074220
-21.270075321197510 184.497497558593750 -207.410499572753910
-19.417949676513672 185.735496520996090 -207.488502502441410
-16.718200111389159 187.475003051757820 -207.733596801757810
-14.700200080871582 188.764999389648440 -208.119995117187500
-14.001333236694336 189.613672892252590 -207.150004069010410
-10.955867528915405 191.323497772216800 -208.164501190185550
-7.642189979553223 192.106994628906250 -209.294998168945310
-9.267120361328125 193.470001220703130 -207.271003723144530
-6.903367400169373 194.226001739501950 -208.151500701904300
-4.079186677932739 195.141998291015620 -208.820002237955720
-6.544425010681152 196.772499084472660 -206.688499450683590
-4.070735096931458 197.328498840332030 -207.873497009277340
-0.713698625564575 196.997004191080720 -208.588999430338530
-4.053949912389119 200.284667968750000 -206.596333821614590
-0.526121604442596 200.782400512695320 -208.002401733398440
2.572629928588867 201.639999389648440 -208.820999145507810
-3.256015062332153 203.520500183105470 -206.288993835449220
-0.435292260987418 204.717856270926350 -207.460285731724330
-0.295320004224777 207.574996948242190 -207.368499755859370
0.959393978118896 209.488998413085940 -208.005004882812500
-21.578100204467773 184.924003601074220 -204.505004882812500
-19.389400482177734 186.654502868652340 -204.431007385253910
-17.540000915527344 187.947006225585940 -204.546997070312500
-13.794024944305420 190.574001312255860 -204.928749084472660
-11.967800140380859 192.257995605468750 -204.645996093750000
-10.192892551422119 193.948997497558590 -204.892997741699220
-8.670120239257813 194.998001098632810 -206.074005126953120
-7.248062610626221 197.582752227783200 -204.910995483398440
-5.660979986190796 200.789993286132810 -204.674995422363280
-4.686959981918335 201.801498413085940 -204.691001892089840
-3.579668323198954 204.058830261230470 -204.855000813802090
-19.574600219726562 186.832000732421870 -202.488998413085940
-17.829200744628906 188.432006835937500 -202.746994018554690
-15.631699562072754 189.964996337890620 -202.598007202148440
-13.712500095367432 192.032005310058590 -201.673995971679690
-12.235099792480469 192.557006835937500 -202.692001342773440
-10.355879783630371 194.608001708984370 -202.462997436523440
-10.143199920654297 196.177993774414060 -200.901992797851560
-8.558870315551758 197.111999511718750 -202.229995727539060
