ply
format ascii 1.0
element vertex 400
property double x
property double y
property double z
end_header
-88.024150848388672 167.326995849609370 -265.342010498046870
-91.767002105712891 163.888999938964840 -261.683013916015620
-93.048851013183594 161.483505249023440 -258.111007690429690
-92.365879821777341 163.755996704101560 -258.294201660156260
-91.338540649414057 165.929202270507800 -258.932598876953140
-89.691452026367188 168.009002685546870 -259.477996826171880
-88.216850280761719 169.457248687744140 -259.455009460449220
-86.860099792480469 171.232498168945310 -259.408996582031250
-97.494300842285156 157.703002929687500 -254.710006713867190
-95.544361877441403 160.343804931640620 -255.045800781249990
-94.692279052734378 164.186199951171890 -255.055398559570310
-93.454803466796875 163.565994262695310 -256.609985351562500
-94.516799926757813 165.569000244140620 -255.595993041992190
-92.122740173339849 166.397000122070320 -255.269995117187510
-89.725898742675781 168.138496398925780 -255.508506774902340
-88.353701273600265 169.148000081380220 -255.073669433593750
-86.569652557373047 170.843002319335940 -255.444999694824220
-102.040000915527340 156.283401489257810 -251.576998901367180
-99.627098083496094 157.792007446289060 -252.759994506835940
-98.876815795898438 160.664665222167970 -251.983169555664060
-96.805099487304687 161.542999267578120 -253.779006958007810
-97.199550628662109 163.428497314453120 -251.412498474121090
-95.721824645996094 164.163497924804690 -252.370498657226560
-93.904998779296875 166.024993896484370 -250.707000732421870
-92.442600250244141 166.747753143310550 -252.521751403808590
-88.534751892089844 169.934997558593750 -252.598999023437500
-105.086664835611980 154.076670328776030 -249.616338094075530
-104.489334106445310 156.214665730794280 -248.265670776367190
-103.022499084472660 157.366500854492190 -249.204498291015620
-101.552598571777340 160.293600463867190 -249.129202270507820
-97.231101989746094 163.462005615234370 -248.440002441406250
-95.444499969482422 164.762504577636720 -249.440498352050780
-94.578701019287109 165.776504516601560 -248.563499450683590
-92.757400512695313 167.001998901367190 -250.300003051757810
-109.126998901367190 151.516006469726560 -244.261001586914060
-108.403003692626950 153.639503479003910 -244.486495971679690
-106.625000000000000 153.754501342773440 -246.600006103515620
-106.263998031616210 156.577499389648440 -245.880001068115230
-105.128997802734370 159.143005371093750 -244.490997314453120
-102.189997863769530 160.480401611328120 -245.688800048828110
-98.602149963378906 162.828501383463530 -245.442497253417970
-95.184303283691406 165.457992553710940 -246.429000854492190
-115.394996643066410 149.647994995117190 -240.567001342773440
-112.146398925781260 150.440600585937490 -242.109802246093750
-112.431251525878910 153.154499053955080 -241.097496032714840
-109.947498321533200 152.726005554199220 -243.147506713867190
-111.757499694824220 156.114749908447270 -241.363498687744140
-108.466498565673830 157.351097106933590 -241.772302246093740
-105.665000915527340 158.355995178222660 -241.400497436523440
-105.165000915527340 158.728668212890620 -241.119333902994780
-102.634668986002610 160.254999796549470 -241.765665690104160
-98.932197570800781 163.014999389648440 -242.389007568359370
-119.715999603271480 147.808502197265620 -237.806999206542970
-118.203998565673830 149.519500732421870 -238.339500427246090
-116.007499694824220 151.339004516601560 -239.043502807617190
-117.879997253417970 151.951995849609370 -237.014999389648440
-115.561498641967770 152.947753906250000 -238.629749298095700
-115.299003601074220 155.458999633789060 -238.486999511718750
-112.442401123046880 155.647201538085940 -239.095800781250010
-109.173999786376950 156.402999877929690 -238.490005493164060
-106.428198242187510 157.423803710937510 -238.129598999023440
-124.639666239420580 142.978332519531250 -233.662999471028660
-124.666500091552730 145.504997253417970 -233.629501342773440
-122.180749893188480 147.090503692626950 -235.345996856689450
-122.149499893188480 150.470500946044920 -234.217750549316410
-119.824668884277340 150.166000366210940 -236.287668863932280
-120.017997741699220 152.106994628906250 -235.240997314453120
-116.780500411987300 153.573497772216800 -235.407497406005860
-112.217833201090500 154.526499430338530 -235.245834350585940
-109.136001586914060 154.906997680664060 -234.774002075195310
-111.229000091552730 155.185501098632810 -236.572998046875000
-108.798500061035160 155.546749114990230 -235.942996978759770
-105.922332763671870 156.861333211263030 -235.170664469401030
-103.733001708984370 158.266998291015620 -236.063003540039060
-103.030998229980470 159.233001708984370 -236.619003295898440
-128.272333780924470 142.886998494466160 -230.814331054687500
-126.385000610351570 142.475396728515620 -231.849398803710930
-129.120498657226560 146.579002380371090 -230.083999633789060
-126.623667399088550 146.591667175292970 -231.781331380208340
-125.735248565673830 150.337001800537110 -230.882251739501950
-122.871500015258790 150.953498840332030 -231.574748992919920
-121.344501495361330 151.925994873046870 -231.322998046875000
-118.637800598144540 152.128399658203140 -230.698400878906260
-115.819000244140620 153.085001627604160 -231.876332600911470
-112.303750991821290 153.533748626708980 -231.472499847412110
-109.583000183105470 154.333999633789060 -232.281997680664060
-152.499504089355470 144.224502563476560 -226.860496520996090
-150.296997070312500 143.555000305175780 -228.434501647949220
-146.344001770019530 143.545749664306640 -228.500003814697270
-143.326004028320310 144.132995605468750 -228.046997070312500
-139.770503997802730 142.951496124267580 -228.070999145507810
-136.272666931152340 142.540832519531250 -228.240834554036470
-132.426831563313810 142.573336283365880 -228.763165791829440
-128.974334716796870 142.320337931315090 -229.876673380533840
-141.335998535156250 145.733001708984370 -226.630996704101560
-139.438995361328120 145.819000244140620 -227.005996704101560
-136.096997070312510 146.397000122070320 -227.543801879882810
-132.246002197265620 146.784802246093760 -228.763803100585930
-131.238006591796870 149.516998291015620 -228.317993164062500
-129.031997680664060 149.429992675781250 -229.772994995117190
-125.884666442871090 150.664667765299470 -228.378997802734370
-122.291625976562500 150.588376998901370 -228.438253402709960
-119.082752227783200 150.923000335693360 -227.680503845214840
-116.790334065755200 152.094665527343750 -228.323333740234370
-113.376998901367190 152.723007202148440 -228.781997680664060
-155.486999511718750 143.990997314453120 -224.777999877929690
-153.035995483398440 144.714996337890620 -225.973007202148440
-155.035003662109370 144.940994262695310 -223.994003295898440
-153.242996215820310 145.393005371093750 -224.320999145507810
-150.259333292643220 146.124997456868500 -225.034334818522130
-146.310666402181000 146.599001566569000 -225.440333048502590
-142.838249206542970 147.041500091552730 -225.423252105712890
-139.970667521158840 147.531997680664060 -225.689000447591160
-137.326995849609370 147.615005493164060 -226.518997192382810
-145.318000793457030 148.614997863769530 -223.476501464843750
-143.091003417968750 148.951995849609370 -223.783996582031250
-140.232505798339840 149.340995788574220 -224.149497985839840
-136.337745666503910 149.506999969482420 -225.109249114990230
-132.219001770019530 150.395004272460940 -224.438003540039060
-129.217498779296870 150.189002990722660 -225.323501586914060
-126.141141619001120 149.690002441406250 -225.258571079799110
-122.293249130249020 149.238500595092770 -225.594749450683590
-119.460665384928390 149.947998046875000 -225.623001098632810
-117.149668375651050 151.134328206380220 -225.941670735677090
-115.420997619628910 152.300003051757810 -226.330993652343750
-224.283996582031250 219.380996704101560 -224.320007324218750
-223.901000976562500 221.496002197265620 -224.656005859375000
-224.590003967285160 225.615501403808590 -224.233497619628910
-224.246246337890630 229.577251434326170 -224.415752410888670
-223.961997985839840 231.572998046875000 -224.209999084472660
-223.930503845214840 233.557006835937500 -225.194999694824220
-171.402999877929690 147.177001953125000 -219.845993041992190
-165.930333455403660 146.455673217773440 -220.599665323893220
-163.307006835937500 145.761001586914060 -220.664001464843750
-160.057397460937490 145.769598388671880 -221.024200439453120
-156.009802246093760 146.534005737304680 -221.408798217773440
-153.408335367838530 147.120335896809910 -221.972335815429690
-150.371002197265620 147.796005249023440 -222.625503540039060
-125.719251632690430 147.840751647949220 -221.325748443603520
-123.385498046875000 147.145500183105470 -221.656005859375000
-175.843002319335940 151.238006591796870 -219.860000610351560
-152.396499633789060 148.841499328613280 -220.704002380371090
-150.167999267578120 149.212997436523440 -221.118499755859370
-146.508285522460940 149.968712942940840 -221.434286934988850
-143.328498840332030 150.364997863769530 -221.475997924804690
-140.304996490478520 150.841999053955080 -221.393749237060550
-136.342746734619140 150.882999420166020 -221.297748565673830
-132.455332438151030 150.292663574218750 -221.135670979817720
-129.654602050781250 149.707601928710940 -221.620004272460930
-127.389497756958010 148.928497314453120 -221.981246948242190
-175.906005859375000 152.684005737304690 -220.001998901367190
-179.455001831054690 155.238006591796870 -220.367004394531250
-223.362503051757810 210.566001892089840 -221.409500122070310
-222.779006958007810 211.671997070312500 -220.621994018554690
-223.296330769856780 214.910995483398440 -221.776997884114590
-222.789993286132810 213.660003662109370 -220.529006958007810
-223.743399047851570 218.666201782226550 -221.603005981445310
-222.802993774414060 217.647994995117190 -220.486999511718750
-223.787333170572910 221.208002726236970 -221.110331217447910
-224.614430018833700 224.685141427176350 -221.368000575474330
-226.533004760742190 227.720001220703120 -221.630004882812500
-224.692997523716510 228.381001063755580 -221.674000331333700
-223.850997924804690 231.548004150390620 -222.643005371093750
-169.296005249023440 147.854995727539060 -218.912994384765620
-166.668004353841160 147.657669067382810 -219.199996948242190
-163.286994934082030 147.414505004882810 -219.302001953125000
-160.685002644856780 147.675669352213530 -219.362996419270840
-173.251998901367190 150.634002685546870 -218.505004882812500
-169.967000325520840 149.675669352213530 -217.886332194010410
-166.491403198242180 150.147000122070320 -217.441796874999990
-163.310501098632810 149.866500854492190 -217.765998840332030
-160.321498870849610 150.216243743896480 -217.614498138427730
-156.059799194335940 150.207797241210930 -218.271200561523440
-152.774332682291660 150.492670694986970 -218.818995157877590
-149.903666178385410 151.103998819986970 -218.803329467773440
-146.295501708984370 151.338005065917970 -218.372001647949220
-143.304000854492190 151.552001953125000 -218.438003540039060
-135.348999023437500 151.360000610351560 -218.401000976562500
-131.833333333333340 149.991338094075530 -217.791000366210940
-129.665504455566410 148.822998046875000 -217.571502685546870
-176.792999267578130 153.981333414713530 -218.325998942057280
-174.340667724609370 152.709665934244780 -217.562332153320310
-170.237503051757810 151.789001464843750 -216.675498962402340
-165.304992675781250 151.591003417968750 -216.464996337890630
-155.298995971679690 151.675994873046870 -216.475006103515620
-153.302001953125000 151.768997192382810 -216.464004516601560
-150.308502197265620 151.668502807617190 -216.461502075195310
-146.353500366210940 151.931999206542970 -216.618499755859370
-142.375495910644530 152.311500549316410 -216.856498718261720
-139.966003417968750 151.934000651041660 -217.972335815429690
-136.598668416341160 151.895334879557280 -217.229665120442720
-185.367996215820310 157.393005371093750 -218.388000488281250
-179.888000488281250 155.843002319335940 -217.868331909179690
-219.143997192382810 195.669006347656250 -216.608001708984370
-221.341751098632810 205.114997863769530 -216.888248443603520
-219.037994384765620 205.682006835937500 -216.503997802734380
-223.048995971679690 207.529006958007810 -218.664993286132810
-221.439750671386720 207.630249023437500 -217.344749450683590
-221.614372253417970 210.294000625610350 -217.682748794555660
-223.122505187988280 215.645004272460940 -217.445503234863280
-222.040166219075530 214.240000406901030 -217.391334533691410
-223.677505493164060 217.421005249023440 -217.523002624511720
-222.584999084472660 217.786994934082030 -217.472496032714840
-223.993667602539060 220.893330891927090 -218.463999430338530
-224.117996215820310 223.369003295898440 -218.731002807617190
-163.305999755859370 151.522003173828120 -216.395996093750000
-161.302993774414060 151.468002319335940 -216.343002319335940
-133.492004394531250 151.076004028320310 -216.378997802734380
-175.585006713867190 154.916000366210940 -216.026000976562500
-173.202507019042970 153.903503417968750 -215.747497558593750
-170.360666910807280 153.941497802734370 -214.863833109537750
-165.941665649414060 153.152664184570310 -214.702000935872410
-163.369003295898440 153.395004272460940 -214.429000854492190
-160.262504577636720 152.821495056152340 -214.440498352050780
-156.236999511718750 152.161003112792970 -214.437995910644530
-153.326995849609370 151.981002807617190 -214.481002807617190
-149.941996256510410 152.286000569661470 -214.426005045572910
-146.635335286458340 152.965667724609370 -214.429336547851560
-142.610000610351560 153.417002360026030 -215.030334472656250
-140.262252807617190 153.573749542236330 -215.113750457763670
-135.347000122070310 153.388000488281250 -214.337005615234370
-189.242996215820310 158.380004882812500 -215.233001708984370
-187.315994262695310 157.524993896484370 -216.406997680664060
-184.273750305175780 157.725753784179690 -215.557746887207030
-180.302001953125000 157.563747406005860 -214.513751983642580
-176.858497619628910 156.366500854492190 -214.738998413085940
-174.546335856119780 155.883997599283840 -214.062998453776030
-189.948333740234370 159.652669270833340 -213.826665242513030
-187.225997924804690 159.293329874674470 -214.095667521158840
-184.427001953125000 158.951995849609370 -213.942001342773440
-181.492004394531250 158.669998168945310 -213.703994750976560
-213.199493408203120 186.652496337890620 -213.739997863769530
-212.707000732421870 187.660995483398440 -213.110000610351560
-214.333001273018970 190.401569911411830 -214.245856148856030
-217.305248260498050 194.574249267578130 -215.432998657226560
-215.292663574218750 194.250666300455720 -213.811665852864590
-218.118995666503910 197.650001525878910 -214.853500366210940
-220.574501037597660 201.562004089355470 -215.917503356933590
-218.104000091552730 200.648498535156250 -214.685997009277340
-219.829666137695310 204.819330851236970 -215.226338704427090
-218.636398315429690 204.722402954101570 -214.357800292968760
-220.032997131347660 207.386001586914060 -216.070999145507810
-219.440498352050780 207.528999328613280 -214.406501770019530
-220.797601318359370 210.813803100585940 -214.843801879882820
-223.598999023437500 215.430999755859370 -214.535003662109370
-221.515998840332030 214.471000671386720 -214.496505737304690
-223.379501342773440 218.555000305175780 -214.459999084472660
-166.835750579833980 154.526252746582030 -210.914745330810550
-163.932662963867190 153.632995605468750 -211.769999186197910
-160.321250915527340 152.687500000000000 -211.453750610351560
-156.301246643066410 152.333999633789060 -211.545749664306640
-153.306495666503910 152.751495361328120 -211.439506530761720
-150.575668334960940 153.322331746419280 -211.664667765299470
-146.668334960937500 154.322662353515620 -212.505335489908840
-176.258499145507810 157.744003295898440 -212.600997924804690
-173.224670410156250 157.138336181640620 -211.923004150390620
-170.626668294270840 156.242835998535160 -211.430000305175780
-149.130004882812500 155.214996337890630 -210.108001708984370
-146.076998901367180 156.339199829101570 -210.775799560546890
-143.315994262695310 155.617004394531250 -212.488998413085940
-140.337997436523440 155.790496826171870 -212.666496276855470
-190.636337280273440 160.823328653971340 -212.314661661783840
-187.307998657226560 161.309997558593750 -212.115005493164060
-184.309745788574220 160.517498016357420 -212.327499389648440
-179.771751403808590 160.137252807617190 -211.519252777099610
-176.949996948242190 159.750751495361330 -210.775505065917970
-174.748992919921870 158.546005249023440 -210.710998535156250
-197.272994995117190 163.503005981445310 -209.779006958007810
-194.015335083007810 163.021331787109370 -210.756001790364590
-190.304496765136720 163.667503356933590 -210.665496826171870
-187.277000427246090 162.884002685546870 -210.963996887207030
-184.311252593994140 162.641250610351560 -210.577499389648440
-181.316505432128910 162.555000305175780 -210.506500244140620
-193.937001546223970 166.138666788736970 -209.862335205078120
-190.388000488281250 165.380500793457030 -209.933006286621090
-207.404006958007810 177.621002197265620 -209.951004028320310
-209.369003295898440 179.742004394531250 -209.908996582031250
-208.202197265624990 180.366400146484380 -210.338601684570310
-205.480499267578120 180.583496093750000 -209.737495422363280
-209.389007568359370 185.559005737304690 -210.302993774414060
-207.831802368164060 184.681600952148440 -210.475802612304680
-205.553001403808590 184.537506103515620 -209.692497253417970
-210.917995452880860 187.593498229980470 -211.245250701904300
-208.430503845214840 187.504005432128910 -210.357498168945310
-213.018666585286470 191.046335856119780 -212.792999267578120
-210.910584767659510 190.376416524251310 -211.153083801269530
-208.162002563476560 189.001007080078120 -210.033004760742190
-213.801000976562510 194.327401733398430 -212.347198486328120
-211.477999877929680 194.337399291992200 -210.619201660156250
-213.464663187662750 197.347002665201810 -211.540664672851560
-212.126007080078130 197.162002563476560 -210.307006835937500
-216.707992553710940 201.891006469726560 -212.824005126953120
-214.559443155924470 200.357111612955720 -211.071446736653660
-217.049553765190980 204.472668117947050 -211.597442626953120
-215.608993530273440 203.430999755859370 -210.406005859375000
-220.231498718261720 208.971000671386720 -211.500503540039060
-218.517331441243500 207.307164510091160 -211.800666809082030
-220.427398681640620 210.828598022460940 -211.620599365234370
-219.229499816894530 209.617500305175780 -211.451499938964840
-221.455993652343750 213.498992919921870 -212.472000122070310
-168.975006103515620 154.238006591796870 -206.214996337890630
-166.588800048828120 153.777197265625010 -207.316601562500010
-163.392494201660160 152.895996093750000 -207.505004882812500
-160.324501037597660 152.769001007080080 -207.353752136230470
-156.263500213623050 153.276748657226560 -207.371749877929690
-153.449996948242190 154.068504333496090 -207.628997802734380
-172.979003906250000 158.024002075195310 -206.453994750976560
-170.536000061035170 156.315899658203140 -207.444099426269530
-167.481002807617190 155.240005493164060 -208.598007202148440
-176.836753845214840 160.534751892089840 -207.930751800537110
-174.344004313151030 159.030334472656250 -207.081003824869780
-183.088002522786470 164.612335205078120 -207.850667317708340
-180.141796875000010 162.723599243164070 -207.261398315429690
-199.330993652343750 167.531005859375000 -208.895996093750000
-197.367004394531250 167.612495422363280 -208.930000305175780
-194.642003377278660 167.614664713541660 -209.147333780924470
-189.702503204345700 166.843750000000000 -209.023502349853520
-187.286501566569000 167.313830057779940 -207.546501159667970
-184.832500457763670 166.038249969482420 -206.951747894287110
-203.253501892089840 170.662002563476560 -207.982498168945310
-200.093597412109370 170.794799804687500 -208.529998779296870
-197.750751495361330 170.680248260498050 -208.361999511718750
-194.370254516601560 170.512752532958980 -208.488498687744140
-190.806332906087250 170.019330342610690 -206.948333740234370
-187.769500732421870 169.029502868652340 -206.288002014160160
-204.234252929687500 173.712253570556640 -207.983745574951170
-200.269666035970060 173.585665384928380 -208.210835774739590
-197.292663574218750 173.598663330078120 -207.688334147135410
-194.356750488281250 172.978500366210940 -206.797000885009770
-207.307998657226560 175.587005615234370 -208.419998168945310
-204.408999972873260 176.495000203450530 -208.389002482096340
-200.405444675021700 176.234334309895840 -208.364669799804690
-197.678504943847660 178.197494506835940 -206.446495056152340
-207.097000122070310 179.483001708984370 -209.139007568359370
-204.028402709960940 180.366799926757810 -208.703399658203130
-201.005999755859360 180.523101806640620 -207.467401123046870
-199.102996826171870 179.753005981445310 -206.488006591796870
-204.038775973849820 184.419335259331600 -207.744666205512150
-201.920494079589840 183.087005615234370 -207.392005920410160
-206.497857230050220 187.415429251534590 -207.733001708984370
-205.152834574381500 187.036003112792970 -207.459498087565090
-208.054999611594470 190.763907692649160 -207.562000621448870
-210.416002273559570 194.256248474121090 -207.434747695922850
-209.289993286132810 193.583999633789060 -206.447006225585940
-213.375999450683590 198.517997741699220 -206.487503051757810
-211.910499572753910 197.284665425618500 -207.506332397460940
-214.197998046875000 200.974171956380220 -208.141667683919280
-217.296997070312500 204.525249481201170 -207.542247772216800
-215.582997639973970 203.368001302083340 -207.741663614908840
-217.792503356933590 206.867996215820310 -208.524497985839840
-169.657997131347660 154.201499938964840 -204.625000000000000
-166.414497375488280 153.031997680664060 -204.534004211425780
-163.317001342773440 152.917007446289060 -204.445007324218750
-160.293998718261720 153.137496948242190 -204.390495300292970
-157.315994262695310 153.626998901367190 -204.460006713867190
-172.910003662109370 158.044998168945310 -204.481002807617190
-171.523498535156250 156.297996520996090 -204.444000244140620
-176.607002258300780 161.086502075195310 -204.313499450683590
-174.419998168945310 159.434005737304690 -204.458999633789060
-179.926666259765620 162.976333618164060 -204.456995646158840
-186.250751495361330 167.615249633789060 -204.489002227783200
-184.558334350585940 166.363667805989590 -204.470998128255220
-189.994832356770840 171.217831929524750 -204.436500549316410
-187.538002014160160 169.337005615234380 -204.403503417968750
-193.066335042317720 173.181666056315090 -204.538996378580720
-191.783493041992190 172.962501525878910 -204.340003967285160
-197.599600219726570 177.286398315429690 -204.852401733398440
-194.906005859375000 176.024002075195310 -204.570007324218750
-200.440502166748050 180.974750518798830 -204.430252075195310
-198.515998840332030 179.344505310058590 -204.418998718261720
-203.862335205078120 184.358998616536470 -204.440668741861970
-201.815994262695310 183.104003906250000 -204.451995849609370
-206.263000488281250 188.927993774414060 -204.591995239257810
-205.181999206542970 186.669254302978520 -204.377498626708980
-207.962399291992200 190.874398803710930 -204.456198120117190
-209.939336140950530 193.582331339518220 -204.453333536783840
-211.518005371093750 197.438003540039060 -204.432006835937500
-161.149993896484370 152.977005004882810 -202.417999267578120
-172.370671590169280 157.208669026692720 -201.282669067382810
-171.559997558593750 155.401992797851560 -202.522994995117190
-175.553497314453120 161.156501770019530 -201.348999023437500
-174.159004211425780 159.827499389648440 -202.520500183105470
-180.706003824869780 163.453333536783840 -201.766331990559910
-176.822006225585940 162.509994506835940 -200.876998901367190
-186.662002563476560 168.237503051757810 -201.446998596191410
-184.507800292968740 166.381997680664060 -201.682601928710940
-189.654499053955080 171.149745941162110 -201.926002502441410
-187.811713082449780 169.647859845842650 -201.578567504882810
-193.245666503906250 174.351664225260410 -201.768666585286470
-191.436248779296870 172.907253265380860 -201.972255706787110
-197.117502212524410 177.476501464843750 -201.724124908447270
-195.118499755859370 175.891006469726560 -202.466499328613280
-200.047836303710940 180.494333902994780 -201.776667277018220
-198.473495483398440 179.391998291015620 -202.463500976562500
-204.328498840332030 184.611999511718750 -202.500000000000000
-201.938003540039060 183.024002075195310 -202.649993896484370
-205.121002197265620 186.687500000000000 -202.429496765136720
-208.137402343750010 190.704998779296890 -202.548803710937510
-209.356002807617190 193.537994384765620 -202.444000244140620
-190.750999450683590 171.056495666503910 -198.626495361328120
