ply
format ascii 1.0
element vertex 175
property double x
property double y
property double z
end_header
-84.770533243815109 55.375700632731117 -149.196665445963530
-78.975898742675781 41.704399108886719 -146.350997924804690
-80.631896972656250 45.860099792480469 -146.192001342773440
-79.561698913574219 43.475101470947266 -146.529006958007810
-84.760597229003906 51.149999618530273 -145.865501403808590
-81.868249893188477 51.449975013732910 -146.633251190185550
-85.330699920654297 53.473649978637695 -147.536499023437500
-78.742599487304688 35.629398345947266 -142.358001708984370
-80.475799560546875 38.111400604248047 -142.098999023437500
-78.731066385904953 37.724966684977211 -142.957331339518220
-81.553432464599609 40.843034108479820 -142.610664367675780
-79.336628505161826 40.697199140276226 -143.318856375558030
-81.514574050903320 44.744750022888184 -143.068876266479490
-80.042602539062500 43.259700775146484 -144.669998168945310
-84.737566630045578 48.117233276367188 -142.547668457031250
-82.602099100748703 48.267532348632813 -144.439997355143220
-85.338752746582031 50.446949005126953 -144.578002929687500
-83.483802795410156 51.436199188232422 -144.630004882812500
-90.883647918701172 30.465700149536133 -138.508499145507810
-78.534648895263672 31.747300148010254 -138.357994079589840
-89.380050659179688 35.612400054931641 -139.395500183105470
-79.048165639241532 34.961882909139000 -139.065165201822910
-87.789300918579102 38.071349143981934 -139.960250854492190
-81.438076019287109 38.611948966979980 -139.933250427246090
-79.487318420410162 37.886219024658203 -139.310998535156240
-85.305801391601562 39.881099700927734 -140.216995239257810
-81.534173965454102 40.957700729370117 -140.039501190185550
-79.630802154541016 39.419399261474609 -140.559501647949220
-82.853252410888672 44.038224220275879 -139.977001190185550
-85.513900756835938 47.345199584960938 -140.647003173828120
-90.427398681640625 31.242500305175781 -136.716995239257810
-89.988296508789063 31.917800903320313 -136.158996582031250
-78.440836588541671 30.994532903035481 -136.389668782552090
-88.742200851440430 34.521450042724609 -136.976497650146480
-86.872398376464844 35.082401275634766 -134.822998046875000
-81.122650146484375 35.725049972534180 -137.345497131347660
-79.436424255371094 34.537950515747070 -136.490501403808590
-88.096298217773438 36.231399536132812 -137.940002441406250
-85.886833190917969 37.085966746012367 -136.970331827799470
-80.008049011230469 37.223499298095703 -136.722503662109370
-77.002700805664063 25.719499588012695 -132.410003662109370
-90.677200317382813 28.261249542236328 -132.600997924804690
-77.655424118041992 27.870424747467041 -134.000499725341800
-90.660697937011719 29.308000564575195 -134.539001464843750
-89.261679077148443 31.011179733276368 -133.092401123046870
-78.821000671386713 30.431239700317384 -133.615200805664070
-87.794499715169266 33.438200632731117 -133.869664510091160
-85.301551818847656 34.575599670410156 -133.442497253417970
-81.097659301757815 34.629220581054689 -133.030001831054680
-79.706001281738281 33.446399688720703 -134.563003540039060
-91.054397583007813 25.461000442504883 -128.507995605468750
-77.295150756835938 25.566450119018555 -129.456001281738280
-76.093074798583984 23.685449600219727 -129.396999359130860
-90.528949737548828 27.128399848937988 -129.742500305175780
-89.424967447916671 28.306500116984051 -129.093002319335940
-78.400548934936523 27.522875308990479 -129.485748291015620
-88.077178955078125 30.383440017700195 -130.025000000000010
-85.763201395670578 31.302566528320313 -129.334671020507810
-80.621134440104171 31.210466384887695 -128.896998087565090
-79.741264343261719 30.054066975911457 -129.936335245768220
-91.095199584960938 21.456699371337891 -126.498001098632810
-75.329902648925781 21.558500289916992 -126.449996948242190
-91.030300140380859 23.403750419616699 -125.557498931884770
-77.638033548990890 24.610799789428711 -125.947331746419270
-76.115352630615234 23.017399787902832 -126.623500823974610
-88.139949798583984 27.332066218058269 -125.954001108805340
-80.391403198242188 28.083299636840820 -125.902999877929690
-79.403864542643234 26.805266698201496 -125.879999796549480
-85.426200866699219 29.852999687194824 -127.253498077392580
-91.316675186157227 20.590775012969971 -123.434751510620120
-90.130500793457031 22.308099746704102 -121.888999938964840
-76.891700744628906 22.107900619506836 -122.165000915527340
-75.389379882812506 20.706659698486327 -123.267800903320310
-90.372398376464844 22.846799850463867 -122.997001647949220
-88.745816548665360 24.677433331807453 -123.039998372395830
-78.574768066406250 24.302099863688152 -123.403834025065110
-76.381103515625000 22.497999191284180 -124.033996582031250
-87.747703552246094 26.272499084472656 -123.958999633789060
-85.339500427246094 26.876000404357910 -123.234001159667970
-81.460383097330734 27.491933504740398 -122.923833211263020
-91.370498657226562 17.604299545288086 -118.427001953125000
-90.835032145182296 19.881399790445965 -120.038665771484370
-88.943874359130859 21.217649936676025 -118.846000671386720
-80.957801818847656 22.274999618530273 -117.986999511718750
-78.011061096191412 21.307140350341797 -119.171601867675780
-75.162473678588867 19.815274715423584 -119.363998413085940
-87.828424453735352 23.063924789428711 -119.931249618530270
-85.720624923706055 24.461949348449707 -120.043998718261720
-82.252366383870438 24.379083315531414 -119.324499766031910
-79.551803588867187 23.223400115966797 -120.658996582031250
-91.177803039550781 15.511300086975098 -114.483001708984370
-91.012166341145829 16.654766718546551 -115.943000793457030
-89.288749694824219 18.488699913024902 -115.524497985839840
-77.784698486328125 18.771499633789063 -114.902000427246090
-75.688934326171875 17.760867436726887 -116.066668192545580
-87.927218627929690 20.210800170898438 -116.170800781249990
-85.326032002766922 21.558933258056641 -115.794334411621090
-82.405698776245117 21.200325012207031 -115.711999893188480
-78.861198425292969 19.959374904632568 -116.011999130249020
-83.454498291015625 23.283500671386719 -116.792999267578120
-91.366249084472656 14.158874988555908 -112.896249771118160
-88.574039459228516 17.476820278167725 -113.061099243164070
-85.462551116943359 18.440449714660645 -111.823001861572270
-82.191249847412109 18.414700508117676 -111.860500335693360
-78.315549850463867 18.002974987030029 -113.003250122070310
-85.340667724609375 19.769966761271160 -113.648666381835940
-82.305076599121094 19.554474830627441 -113.461000442504880
-91.557098388671875 11.732550144195557 -109.368999481201170
-90.896024703979492 13.158625125885010 -109.674501419067380
-88.815791043368250 14.720709193836559 -109.159727616743610
-87.379926681518555 16.632849693298340 -110.406751632690430
-85.260231018066406 16.675200144449871 -109.270001729329420
-82.504679870605472 16.724839782714845 -109.276800537109380
-78.506178283691412 16.378260231018068 -110.053799438476560
-90.759948730468750 11.108950138092041 -105.647998809814450
-89.562001546223954 11.866966565450033 -104.932001749674480
-88.310489230685761 13.150477833218044 -105.663444519042970
-85.713561058044434 14.466549992561340 -106.012624740600590
-82.312250773111984 14.260099887847900 -105.775666554768880
-79.336565653483078 14.041666666666666 -105.907999674479170
-91.885299682617188 7.922719955444336 -102.266998291015620
-91.022602081298828 9.332859992980957 -102.588996887207030
-88.704928806849892 10.981928689139229 -102.179285321916850
-85.281650543212891 12.101050376892090 -102.159000396728520
-82.320102691650391 12.037149906158447 -102.189002990722660
-79.352600097656250 12.241999626159668 -102.099998474121090
-91.405821228027349 7.222876071929932 -99.230477905273432
-89.733051300048828 8.184020042419434 -98.133350372314453
-90.604103088378906 8.799200057983398 -100.777000427246090
-88.081189727783197 9.923722076416016 -99.666339111328128
-85.302734375000000 10.751083056131998 -99.861633300781250
-82.340234120686844 10.385791460673014 -99.038183848063156
-79.303001403808594 11.200599670410156 -100.657997131347660
-91.441098531087235 5.003693262736003 -94.425565083821610
-91.564552307128906 5.855979919433594 -96.298900604248047
-88.405781832608312 7.383334549990567 -95.356480685147375
-85.311300277709961 8.033022642135620 -95.188150405883789
-83.367099761962891 7.857944965362549 -94.323501586914063
-87.055198669433594 8.857970237731934 -96.875602722167969
-85.262847900390625 8.981675148010254 -96.808399200439453
-82.317398071289063 9.390680313110352 -96.554450988769531
-93.486801147460938 1.720890045166016 -92.388496398925781
-91.503751754760742 4.281372606754303 -92.843351364135742
-88.394566853841141 4.975916703542073 -90.737566630045578
-88.085238647460940 5.952184009552002 -92.460299682617190
-85.319664001464844 6.498086611429851 -92.292167663574219
-83.240848541259766 7.106894969940186 -92.651901245117188
-91.393330165318076 2.788951465061733 -89.264884948730469
-88.562372480119976 4.128711462020874 -89.170928955078125
-85.314926147460938 4.498370051383972 -88.501426696777344
-85.298599243164063 5.542329788208008 -90.460998535156250
-83.349835713704422 5.826409975687663 -89.688964843750000
-91.958285740443642 1.100887847798211 -85.276784624372212
-88.677434285481766 1.801190018653870 -84.338500976562500
-85.273696899414063 1.692899942398071 -84.367500305175781
-88.352397918701172 2.719211677710215 -86.047050476074219
-85.301651000976563 3.418864965438843 -86.533550262451172
-91.891966925726990 -0.155568106306924 -81.853222317165802
-88.314599990844727 0.976942747831345 -82.484926223754883
-85.303398132324219 1.195569992065430 -82.614601135253906
-92.438301086425781 -1.915015041828156 -78.232498168945313
-91.103099822998047 -1.150240004062653 -78.720397949218750
-88.188686915806358 -0.566075569816998 -79.329314095633364
-92.191891756924718 -3.159451809796420 -75.177818298339844
-88.693649291992188 -2.172935009002686 -75.364865620930985
-94.821601867675781 -5.343065023422241 -72.929298400878906
-92.414601643880204 -5.149816672007243 -70.721066792805985
-92.076020812988276 -4.468684005737305 -72.072200012207034
-89.433865865071610 -3.898699998855591 -71.621833801269531
-95.114700317382813 -6.935959815979004 -68.652496337890625
-93.151100158691406 -6.009253263473511 -68.969814300537109
-95.510700225830078 -8.005274772644043 -66.330348968505859
-92.437511867947052 -6.832758850521511 -65.538933648003479
-95.113296508789063 -8.891500473022461 -62.606098175048828
-93.322532653808594 -8.579093615214029 -61.825167338053383
