ply
format ascii 1.0
element vertex 532
property double x
property double y
property double z
end_header
-16.547000885009766 6.286980152130127 -27.900699615478516
-16.434000015258789 6.378980159759522 -27.651699066162109
-16.538999557495117 6.181980133056641 -27.703699111938477
-16.524000167846680 6.129980087280273 -27.864700317382812
-16.336999893188477 6.224979877471924 -27.877700805664063
-16.424999237060547 6.205979824066162 -27.589700698852539
-16.402999877929688 6.344979763031006 -27.446699142456055
-16.334999084472656 6.363979816436768 -27.244699478149414
-16.544000625610352 6.115980148315430 -27.506700515747070
-16.524000167846680 6.096980094909668 -27.346700668334961
-16.291999816894531 6.224979877471924 -27.462699890136719
-16.461999893188477 6.104979991912842 -27.191699981689453
-16.347000122070313 6.099979877471924 -27.040700912475586
-16.232000350952148 6.040979862213135 -26.936700820922852
-16.353000640869141 5.928979873657227 -27.015699386596680
-16.511999130249023 5.979979991912842 -27.034700393676758
-16.193000793457031 6.073979854583740 -27.117700576782227
-16.364999771118164 5.982979774475098 -27.168699264526367
-16.600999832153320 5.977980136871338 -27.206699371337891
-16.309000015258789 6.165979862213135 -27.287700653076172
-16.653999328613281 6.010980129241943 -27.372699737548828
-16.250000000000000 6.045979976654053 -27.399700164794922
-16.395999908447266 6.080979824066162 -27.449699401855469
-16.155000686645508 6.115980148315430 -27.505699157714844
-16.628000259399414 6.037980079650879 -27.614700317382812
-16.284000396728516 6.163980007171631 -27.661699295043945
-16.680000305175781 6.122980117797852 -27.967699050903320
-14.270999908447266 1.193979978561401 -23.878700256347656
-14.142999649047852 1.001979947090149 -23.780700683593750
-14.069000244140625 1.193979978561401 -23.868700027465820
-14.272999763488770 0.962980985641479 -23.885700225830078
-14.270999908447266 1.193979978561401 -23.878700256347656
-15.329000473022461 2.665980100631714 -23.800699234008789
-14.310999870300293 0.588980972766876 -23.913700103759766
-15.302000045776367 2.934979915618897 -23.801700592041016
-14.154999732971191 1.323979973793030 -23.898700714111328
-15.411000251770020 2.801980018615723 -23.829700469970703
-15.279000282287598 2.107980012893677 -23.865699768066406
-15.381999969482422 2.290980100631714 -23.864700317382812
-14.362000465393066 0.448980987071991 -23.965700149536133
-15.289999961853027 2.523979902267456 -23.862699508666992
-14.309000015258789 1.405979990959168 -23.948699951171875
-15.286000251770020 1.919980049133301 -23.905700683593750
-14.354000091552734 0.773980021476746 -23.975700378417969
-14.414999961853027 1.254979968070984 -23.959699630737305
-15.458000183105469 2.598979949951172 -23.881700515747070
-14.142000198364258 1.021980047225952 -23.978700637817383
-15.241000175476074 2.347980022430420 -23.911699295043945
-15.281999588012695 3.100980043411255 -23.883699417114258
-15.241999626159668 2.775979995727539 -23.899700164794922
-14.128000259399414 1.480980038642883 -23.991699218750000
-15.168999671936035 2.198980093002319 -23.936700820922852
-15.409000396728516 3.006979942321777 -23.906700134277344
-14.421999931335449 0.986980974674225 -24.013700485229492
-14.467000007629395 1.476979970932007 -23.993700027465820
-15.397999763488770 2.053980112075806 -23.954700469970703
-15.253000259399414 1.753980040550232 -23.970699310302734
-15.447999954223633 2.425980091094971 -23.942699432373047
-14.215999603271484 0.889980971813202 -24.039699554443359
-15.395999908447266 1.822980046272278 -23.977699279785156
-15.121999740600586 1.914980053901672 -23.981700897216797
-14.477000236511230 0.562979996204376 -24.056699752807617
-15.052000045776367 2.055979967117310 -23.987699508666992
-14.463999748229980 0.328979998826981 -24.075700759887695
-15.300000190734863 1.583979964256287 -24.006700515747070
-15.506999969482422 2.747980117797852 -23.955699920654297
-14.487999916076660 0.842980027198792 -24.058700561523437
-14.546999931335449 1.327980041503906 -24.038700103759766
-14.244999885559082 1.575979948043823 -24.039699554443359
-15.053000450134277 1.771980047225952 -24.012699127197266
-14.812999725341797 1.764979958534241 -24.027700424194336
-14.937000274658203 1.586979985237122 -24.032699584960938
-14.763999938964844 1.602980017662048 -24.036699295043945
-14.928999900817871 1.871979951858521 -24.022699356079102
-14.545000076293945 1.630980014801025 -24.042699813842773
-15.144000053405762 1.627979993820190 -24.032699584960938
-14.619999885559082 0.931981027126312 -24.075700759887695
-15.173000335693359 2.630980014801025 -23.997699737548828
-14.638999938964844 1.482980012893677 -24.058700561523437
-15.314999580383301 3.247980117797852 -23.971700668334961
-14.083999633789063 1.268980026245117 -24.082700729370117
-14.618000030517578 0.665979981422424 -24.095699310302734
-13.989999771118164 1.408980011940002 -24.084699630737305
-14.659000396728516 1.748980045318604 -24.061700820922852
-15.407999992370605 2.234980106353760 -24.022699356079102
-14.640000343322754 1.097980022430420 -24.088699340820313
-15.029000282287598 2.275979995727539 -24.035699844360352
-15.100000381469727 2.457979917526245 -24.029699325561523
-15.175999641418457 2.860980033874512 -24.014699935913086
-15.493000030517578 2.919980049133301 -24.008699417114258
-14.538999557495117 0.084980897605419 -24.146699905395508
-14.722999572753906 1.354979991912842 -24.095699310302734
-14.722000122070313 1.907979965209961 -24.077699661254883
-15.201000213623047 3.112979888916016 -24.018699645996094
-14.932000160217285 2.130980014801025 -24.064699172973633
-14.248999595642090 0.683979988098145 -24.140699386596680
-15.437000274658203 3.122980117797852 -24.013700485229492
-14.720999717712402 0.798979997634888 -24.125699996948242
-14.835000038146973 1.465980052947998 -24.098699569702148
-15.057000160217285 1.486979961395264 -24.095699310302734
-14.623999595642090 0.225979998707771 -24.158700942993164
-15.473999977111816 2.619980096817017 -24.047700881958008
-14.364999771118164 1.736979961395264 -24.119699478149414
-15.223999977111816 3.364979982376099 -24.033700942993164
-14.753999710083008 0.340979009866714 -24.165700912475586
-14.817999839782715 0.517979979515076 -24.162700653076172
-14.961999893188477 1.338979959487915 -24.126699447631836
-14.833999633789062 1.232980012893677 -24.136699676513672
-14.211999893188477 1.164980053901672 -24.156700134277344
-14.774999618530273 0.992980003356934 -24.150699615478516
-15.375000000000000 1.993980050086975 -24.105699539184570
-14.407999992370605 0.567981004714966 -24.198699951171875
-14.508000373840332 0.442981004714966 -24.203699111938477
-15.390000343322754 3.345979928970337 -24.070699691772461
-14.368000030517578 0.806981027126312 -24.197700500488281
-14.324000358581543 0.959981024265289 -24.194700241088867
-14.904999732971191 0.669979989528656 -24.190700531005859
-14.659999847412109 0.498979985713959 -24.206699371337891
-14.453000068664551 0.267980009317398 -24.221700668334961
-14.109000205993652 1.432979941368103 -24.186700820922852
-14.925000190734863 1.101979970932007 -24.185699462890625
-15.288999557495117 1.659980058670044 -24.161699295043945
-14.657999992370605 2.059979915618897 -24.168699264526367
-15.348999977111816 1.807979941368103 -24.161699295043945
-14.508000373840332 1.922979950904846 -24.182699203491211
-14.789999961853027 2.151979923248291 -24.176700592041016
-14.881999969482422 2.288980007171631 -24.169700622558594
-15.171999931335449 1.387979984283447 -24.197700500488281
-14.722000122070313 0.649978995323181 -24.241699218750000
-14.935999870300293 2.436980009078980 -24.170700073242188
-15.392000198364258 2.315979957580566 -24.163700103759766
-14.553000450134277 0.782980978488922 -24.249700546264648
-14.352000236511230 1.129979968070984 -24.242700576782227
-15.423999786376953 2.510979890823364 -24.164699554443359
-14.956000328063965 0.841980993747711 -24.243700027465820
-15.017000198364258 2.636980056762695 -24.172700881958008
-15.135000228881836 2.994980096817017 -24.156700134277344
-15.100999832153320 1.240980029106140 -24.226699829101563
-14.468999862670898 0.952980995178223 -24.256700515747070
-15.095999717712402 2.822979927062988 -24.167699813842773
-14.263999938964844 1.344980001449585 -24.248699188232422
-15.199000358581543 1.541980028152466 -24.217699050903320
-14.258999824523926 1.724979996681213 -24.236700057983398
-15.342000007629395 2.146980047225952 -24.198699951171875
-15.423999786376953 3.491980075836182 -24.147699356079102
-14.812000274658203 0.777980029582977 -24.270700454711914
-15.461000442504883 2.861979961395264 -24.173700332641602
-15.157999992370605 3.160979986190796 -24.170700073242188
-14.649000167846680 0.909979999065399 -24.281700134277344
-14.368000030517578 1.839980006217957 -24.255699157714844
-14.156000137329102 1.553979992866516 -24.279699325561523
-15.486000061035156 3.071979999542236 -24.184700012207031
-15.220000267028809 3.507980108261108 -24.181699752807617
-15.314999580383301 3.653980016708374 -24.174699783325195
-14.979000091552734 0.993981003761292 -24.294700622558594
-14.536999702453613 1.141980051994324 -24.302700042724609
-15.437000274658203 2.705980062484741 -24.220699310302734
-14.803000450134277 0.993981003761292 -24.305700302124023
-15.184000015258789 3.322979927062988 -24.208700180053711
-14.442000389099121 1.288980007171631 -24.310699462890625
-14.704999923706055 1.126979947090149 -24.325700759887695
-14.979000091552734 1.178979992866516 -24.317699432373047
-14.717000007629395 2.286979913711548 -24.283700942993164
-15.496000289916992 3.287980079650879 -24.226699829101563
-15.069999694824219 1.459980010986328 -24.314699172973633
-15.258000373840332 1.884979963302612 -24.294700622558594
-14.369000434875488 1.473979949951172 -24.347700119018555
-14.595000267028809 2.164979934692383 -24.324699401855469
-14.598999977111816 1.306980013847351 -24.361700057983398
-14.284999847412109 1.611979961395264 -24.362699508666992
-15.319999694824219 2.371979951858521 -24.306699752807617
-14.826000213623047 2.426980018615723 -24.317699432373047
-14.815999984741211 1.277979969978333 -24.363700866699219
-15.463999748229980 3.643980026245117 -24.253700256347656
-14.939000129699707 1.376979947090149 -24.359699249267578
-15.135000228881836 1.727980017662048 -24.349700927734375
-14.968999862670898 2.687979936599731 -24.318700790405273
-15.265999794006348 2.203979969024658 -24.332700729370117
-15.348999977111816 2.559979915618897 -24.316699981689453
-15.515000343322754 3.442980051040649 -24.282699584960937
-14.484000205993652 2.050980091094971 -24.367700576782227
-15.204000473022461 2.040980100631714 -24.355699539184570
-15.013999938964844 1.608979940414429 -24.384700775146484
-14.720999717712402 1.418980002403259 -24.403699874877930
-15.140000343322754 3.162980079650879 -24.327699661254883
-15.425000190734863 2.861979961395264 -24.334699630737305
-15.031000137329102 2.852979898452759 -24.347700119018555
-14.567000389099121 1.510980010032654 -24.416700363159180
-14.406000137329102 1.910979986190796 -24.405700683593750
-14.859999656677246 2.586980104446411 -24.374700546264648
-15.244999885559082 3.555979967117310 -24.329700469970703
-15.468000411987305 3.082979917526245 -24.344699859619141
-14.362999916076660 1.750980019569397 -24.427700042724609
-14.456999778747559 1.623980045318604 -24.436700820922852
-14.847000122070313 1.568979978561401 -24.434700012207031
-15.329000473022461 2.717979907989502 -24.377700805664063
-14.640000343322754 2.365979909896851 -24.413700103759766
-15.081999778747559 3.002979993820190 -24.381700515747070
-15.008000373840332 1.769979953765869 -24.442699432373047
-15.064000129699707 1.933979988098145 -24.439699172973633
-15.557999610900879 3.582979917526245 -24.369699478149414
-15.489000320434570 3.238980054855347 -24.385700225830078
-14.718000411987305 2.538980007171631 -24.435699462890625
-15.112999916076660 2.136980056762695 -24.443700790405273
-15.201000213623047 3.389980077743530 -24.393699645996094
-15.557999610900879 3.761980056762695 -24.369699478149414
-15.236000061035156 2.522979974746704 -24.443700790405273
-15.190999984741211 2.359980106353760 -24.455699920654297
-14.739999771118164 1.705979943275452 -24.503700256347656
-15.380000114440918 3.784980058670044 -24.406700134277344
-14.904000282287598 1.893980026245117 -24.505699157714844
-15.545000076293945 3.382980108261108 -24.433700561523438
-14.782999992370605 2.750979900360107 -24.481700897216797
-14.593000411987305 1.758980035781860 -24.529699325561523
-14.914999961853027 2.870980024337769 -24.480699539184570
-14.977000236511230 2.048979997634888 -24.511699676513672
-15.112000465393066 3.149980068206787 -24.485700607299805
-14.739000320434570 1.876979947090149 -24.545700073242188
-14.487000465393066 1.904979944229126 -24.551700592041016
-15.588000297546387 3.900979995727539 -24.445699691772461
-14.626000404357910 2.641979932785034 -24.528699874877930
-15.286999702453613 3.605979919433594 -24.474700927734375
-15.397999763488770 3.072979927062988 -24.493700027465820
-14.579999923706055 2.453979969024658 -24.541700363159180
-15.043999671936035 2.300980091094971 -24.536699295043945
-14.987000465393066 3.036979913711548 -24.516700744628906
-14.807000160217285 2.979979991912842 -24.530700683593750
-14.640000343322754 2.842979907989502 -24.544700622558594
-14.623999595642090 2.009979963302612 -24.579700469970703
-15.262000083923340 2.850980043411255 -24.535699844360352
-15.185999870300293 2.694979906082153 -24.544700622558594
-14.899000167846680 2.227979898452759 -24.580699920654297
-14.755999565124512 2.140980005264282 -24.591699600219727
-15.104999542236328 2.554980039596558 -24.567699432373047
-15.631999969482422 3.615979909896851 -24.514699935913086
-14.574000358581543 2.155980110168457 -24.610700607299805
-14.704999923706055 3.096980094909668 -24.577699661254883
-14.880999565124512 3.142980098724365 -24.573699951171875
-15.680000305175781 3.775979995727539 -24.532699584960938
-14.588000297546387 3.355979919433594 -24.581699371337891
-15.239999771118164 3.481980085372925 -24.561700820922852
-14.527999877929688 3.163980007171631 -24.594699859619141
-14.668000221252441 2.295979976654053 -24.628700256347656
-15.166999816894531 3.335979938507080 -24.574699401855469
-14.939000129699707 2.502979993820190 -24.617700576782227
-14.736000061035156 3.250979900360107 -24.598699569702148
-14.796999931335449 2.385979890823364 -24.632699966430664
-15.496999740600586 3.305979967117310 -24.580699920654297
-15.012999534606934 2.695980072021484 -24.620700836181641
-15.041999816894531 3.233979940414429 -24.607700347900391
-14.711999893188477 2.517980098724365 -24.655700683593750
-15.581000328063965 3.450979948043823 -24.596700668334961
-15.756999969482422 3.919980049133301 -24.576700210571289
-15.505999565124512 3.906980037689209 -24.584699630737305
-14.746999740600586 3.651979923248291 -24.619699478149414
-14.751999855041504 3.424979925155640 -24.628700256347656
-15.362000465393066 3.795979976654053 -24.598699569702148
-15.248000144958496 2.986979961395264 -24.634700775146484
-15.383999824523926 3.178980112075806 -24.624700546264648
-15.130000114440918 2.870980024337769 -24.645700454711914
-14.895000457763672 3.322979927062988 -24.634700775146484
-14.831999778747559 2.626980066299439 -24.665700912475586
-14.623000144958496 2.721980094909668 -24.673700332641602
-14.968000411987305 2.837980031967163 -24.677700042724609
-14.562000274658203 2.914979934692383 -24.686700820922852
-15.866999626159668 4.038980007171631 -24.618700027465820
-14.798999786376953 2.809979915618897 -24.695699691772461
-14.583999633789063 3.629980087280273 -24.682699203491211
-14.925999641418457 3.528980016708374 -24.683700561523438
-15.050999641418457 3.404979944229126 -24.689699172973633
-14.706000328063965 2.999979972839356 -24.716699600219727
-14.557000160217285 3.437979936599731 -24.719699859619141
-14.869000434875488 2.970979928970337 -24.730699539184570
-14.711000442504883 3.800980091094971 -24.702699661254883
-15.029000282287598 3.018980026245117 -24.726699829101563
-15.298000335693359 3.686980009078980 -24.694700241088867
-15.637000083923340 3.999979972839356 -24.676700592041016
-15.644000053405762 3.636980056762695 -24.692699432373047
-15.213999748229980 3.503979921340942 -24.718700408935547
-14.659999847412109 3.200979948043823 -24.749700546264648
-15.178000450134277 3.151979923248291 -24.740699768066406
-15.734000205993652 3.803980112075806 -24.703699111938477
-15.468999862670898 3.394979953765869 -24.729700088500977
-14.810999870300293 3.136980056762695 -24.766700744628906
-14.916000366210938 3.733979940414429 -24.741699218750000
-15.335000038146973 3.254980087280273 -24.755699157714844
-15.045000076293945 3.616980075836182 -24.750699996948242
-14.986000061035156 3.180979967117310 -24.788700103759766
-15.777000427246094 4.129980087280273 -24.737699508666992
-14.710000038146973 3.415980100631714 -24.812700271606445
-15.468000411987305 3.942980051040649 -24.779699325561523
-14.661999702453613 3.573980093002319 -24.822700500488281
-15.321999549865723 3.799979925155640 -24.801700592041016
-14.890999794006348 3.344980001449585 -24.839700698852539
-15.116999626159668 3.298979997634888 -24.838699340820313
-15.177000045776367 3.693979978561401 -24.821699142456055
-14.732999801635742 3.932980060577393 -24.824699401855469
-14.887000083923340 3.874979972839356 -24.833700180053711
-15.961000442504883 4.104979991912842 -24.808700561523438
-15.526000022888184 3.592979907989502 -24.852699279785156
-15.864999771118164 3.979979991912842 -24.828699111938477
-15.060999870300293 3.794980049133301 -24.860700607299805
-15.685999870300293 3.769979953765869 -24.851699829101563
-15.385999679565430 3.463979959487915 -24.880699157714844
-14.828000068664551 3.478980064392090 -24.896699905395508
-15.222000122070313 3.404979944229126 -24.889699935913086
-15.878999710083008 4.219979763031006 -24.880699157714844
-15.685000419616699 4.144979953765869 -24.893699645996094
-15.069999694824219 3.498980045318604 -24.939699172973633
-15.541000366210938 4.073979854583740 -24.920700073242188
-14.845999717712402 4.033979892730713 -24.941699981689453
-15.005000114440918 3.933979988098145 -24.943700790405273
-14.779000282287598 3.675980091094971 -24.960699081420898
-16.044000625610352 4.209980010986328 -24.913700103759766
-15.267999649047852 3.841979980468750 -24.949699401855469
-14.925999641418457 3.595979928970337 -24.976699829101563
-15.222000122070313 3.560980081558228 -24.977699279785156
-15.399999618530273 3.632980108261108 -24.979700088500977
-15.404000282287598 4.001979827880859 -24.971700668334961
-15.567999839782715 3.765980005264282 -25.002700805664063
-15.746999740600586 4.258979797363281 -24.984699249267578
-15.928999900817871 4.059979915618897 -24.989700317382813
-14.694999694824219 3.982980012893677 -25.026699066162109
-15.255000114440918 4.030980110168457 -25.038700103759766
-14.809000015258789 3.801980018615723 -25.066699981689453
-15.918000221252441 4.308979988098145 -25.018699645996094
-14.892000198364258 4.114980220794678 -25.080699920654297
-15.265000343322754 3.713979959487915 -25.087699890136719
-15.083000183105469 4.123980045318604 -25.080699920654297
-15.100000381469727 3.707979917526245 -25.096700668334961
-15.418999671936035 3.758980035781860 -25.091699600219727
-15.782999992370605 3.969980001449585 -25.079700469970703
-15.449000358581543 4.144979953765869 -25.084699630737305
-16.087999343872070 4.252980232238770 -25.081699371337891
-14.963000297546387 3.779979944229126 -25.130699157714844
-15.619999885559082 3.893980026245117 -25.122699737548828
-15.588000297546387 4.257979869842529 -25.122699737548828
-15.222000122070313 4.175980091094971 -25.138700485229492
-15.791000366210938 4.369979858398438 -25.129699707031250
-14.751999855041504 4.070980072021484 -25.174699783325195
-15.892999649047852 4.071979999542236 -25.155700683593750
-14.859999656677246 3.941979885101318 -25.199699401855469
-15.951000213623047 4.424980163574219 -25.183700561523438
-15.388999938964844 4.236979961395264 -25.211700439453125
-15.390999794006348 3.858979940414429 -25.228700637817383
-15.694000244140625 4.001979827880859 -25.225700378417969
-14.953000068664551 4.178979873657227 -25.248699188232422
-15.213999748229980 3.857980012893677 -25.259700775146484
-15.666000366210938 4.373980045318604 -25.232700347900391
-15.536000251770020 3.945980072021484 -25.256700515747070
-16.004999160766602 4.183979988098145 -25.243700027465820
-15.512999534606934 4.338980197906494 -25.258699417114258
-16.131000518798828 4.318980216979981 -25.248699188232422
-15.161999702453613 4.218979835510254 -25.286699295043945
-15.013999938964844 3.964979887008667 -25.308700561523438
-15.796999931335449 4.467979907989502 -25.285699844360352
-15.855999946594238 4.126979827880859 -25.301700592041016
-16.063999176025391 4.467979907989502 -25.303699493408203
-15.282999992370605 4.312980175018311 -25.337699890136719
-15.395999908447266 3.990979909896851 -25.366699218750000
-15.239000320434570 3.964979887008667 -25.374700546264648
-15.605999946594238 4.070980072021484 -25.366699218750000
-15.581999778747559 4.450980186462402 -25.359699249267578
-15.932000160217285 4.550980091094971 -25.358699798583984
-15.048000335693359 4.260980129241943 -25.401699066162109
-14.977999687194824 4.092979907989502 -25.421699523925781
-15.737000465393066 4.168980121612549 -25.428699493408203
-15.439999580383301 4.399980068206787 -25.427700042724609
-15.895000457763672 4.220980167388916 -25.423700332641602
-16.166999816894531 4.413980007171631 -25.425699234008789
-15.161999702453613 4.075980186462402 -25.471700668334961
-16.097999572753906 4.558979988098145 -25.429700851440430
-16.040000915527344 4.286980152130127 -25.443700790405273
-15.350000381469727 4.120979785919190 -25.501699447631836
-15.800999641418457 4.620979785919190 -25.476699829101562
-15.550999641418457 4.169980049133301 -25.502700805664063
-15.640999794006348 4.553979873657227 -25.486700057983398
-15.201999664306641 4.379980087280273 -25.512699127197266
-14.996999740600586 4.190979957580566 -25.560699462890625
-16.033000946044922 4.681980133056641 -25.514699935913086
-15.321999549865723 4.477980136871338 -25.553699493408203
-15.220999717712402 4.186979770660400 -25.571699142456055
-16.218999862670898 4.517980098724365 -25.532699584960938
-15.684000015258789 4.263979911804199 -25.564699172973633
-15.892999649047852 4.737979888916016 -25.561700820922852
-15.427000045776367 4.239980220794678 -25.597700119018555
-16.000999450683594 4.366980075836182 -25.579700469970703
-15.826999664306641 4.324979782104492 -25.589700698852539
-15.435000419616699 4.596980094909668 -25.598699569702148
-15.065999984741211 4.310979843139648 -25.648700714111328
-15.659999847412109 4.682980060577393 -25.628700256347656
-15.211000442504883 4.559979915618897 -25.647699356079102
-16.211999893188477 4.719979763031006 -25.621700286865234
-16.031000137329102 4.857979774475098 -25.632699966430664
-15.586000442504883 4.337979793548584 -25.667699813842773
-15.229000091552734 4.340980052947998 -25.697700500488281
-15.328000068664551 4.677979946136475 -25.685699462890625
-15.734000205993652 4.397980213165283 -25.693700790405273
-15.012999534606934 4.481979846954346 -25.718700408935547
-15.508999824523926 4.727980136871338 -25.696699142456055
-16.323999404907227 4.570980072021484 -25.690700531005859
-16.075000762939453 4.483980178833008 -25.704700469970703
-16.186000823974609 4.870979785919190 -25.687700271606445
-15.892000198364258 4.469979763031006 -25.739700317382813
-15.954999923706055 4.969979763031006 -25.726699829101563
-15.821999549865723 4.882979869842529 -25.749700546264648
-15.682999610900879 4.801980018615723 -25.757699966430664
-15.373999595642090 4.452980041503906 -25.779699325561523
-15.560999870300293 4.457980155944824 -25.774700164794922
-15.213000297546387 4.488979816436768 -25.790700912475586
-15.166999816894531 4.716979980468750 -25.784700393676758
-16.385999679565430 4.731979846954346 -25.755699157714844
-16.132999420166016 5.007979869842529 -25.752700805664062
-16.334999084472656 4.895979881286621 -25.753700256347656
-16.188999176025391 4.574979782104492 -25.779699325561523
-15.067000389099121 4.594979763031006 -25.817699432373047
-15.407999992370605 4.866980075836182 -25.806699752807617
-15.196000099182129 4.872980117797852 -25.845699310302734
-15.715000152587891 4.556980133056641 -25.845699310302734
-16.017999649047852 4.573979854583740 -25.838699340820313
-15.564000129699707 4.899980068206787 -25.843700408935547
-15.475000381469727 4.568980216979981 -25.860700607299805
-15.279999732971191 4.633979797363281 -25.885700225830078
-15.333000183105469 5.006979942321777 -25.872699737548828
-15.847999572753906 5.011980056762695 -25.870700836181641
-16.500999450683594 5.037980079650879 -25.853700637817383
-16.243999481201172 4.722980022430420 -25.887699127197266
-15.875000000000000 4.630980014801025 -25.902700424194336
-16.181999206542969 5.119979858398438 -25.882699966430664
-16.402999877929688 4.888979911804199 -25.897699356079102
-16.351999282836914 5.138979911804199 -25.894699096679687
-15.439000129699707 5.163980007171631 -25.925699234008789
-16.093999862670898 4.681980133056641 -25.930700302124023
-15.411999702453613 4.713980197906494 -25.951700210571289
-15.607000350952148 4.691979885101318 -25.952699661254883
-15.701000213623047 5.004980087280273 -25.945699691772461
-16.011999130249023 5.139979839324951 -25.933700561523437
-15.298999786376953 4.844979763031006 -25.972700119018555
-15.588000297546387 5.132979869842529 -25.971700668334961
-15.954999923706055 4.735980033874512 -25.990699768066406
-15.779999732971191 4.738979816436768 -25.999700546264648
-16.208000183105469 4.846980094909668 -26.002700805664062
-15.336999893188477 5.008979797363281 -26.036699295043945
-16.464000701904297 5.106979846954346 -26.004699707031250
-15.505999565124512 4.832980155944824 -26.042699813842773
-16.267999649047852 5.207980155944824 -26.009700775146484
-15.789999961853027 5.137979984283447 -26.034700393676758
-15.381999969482422 5.343979835510254 -26.040700912475586
-15.335000038146973 5.169980049133301 -26.058700561523438
-16.332000732421875 4.989980220794678 -26.042699813842773
-16.108999252319336 5.220980167388916 -26.039699554443359
-15.689000129699707 5.272980213165283 -26.070699691772461
-15.538000106811523 5.368979930877686 -26.071699142456055
-15.914999961853027 5.226980209350586 -26.076700210571289
-15.664999961853027 4.893980026245117 -26.106700897216797
-16.100000381469727 4.914979934692383 -26.115699768066406
-15.461999893188477 5.101980209350586 -26.141700744628906
-15.897999763488770 4.919980049133301 -26.144699096679687
-16.375999450683594 5.142980098724365 -26.135700225830078
-16.176000595092773 5.340980052947998 -26.145700454711914
-15.609999656677246 5.059979915618897 -26.176700592041016
-15.625000000000000 5.489980220794678 -26.166700363159180
-16.447000503540039 5.338980197906494 -26.152700424194336
-15.763999938964844 4.993979930877686 -26.185699462890625
-16.204000473022461 5.071979999542236 -26.189699172973633
-15.800999641418457 5.403979778289795 -26.197700500488281
-15.954000473022461 5.352980136871338 -26.200700759887695
-16.306999206542969 5.409979820251465 -26.209699630737305
-15.555000305175781 5.650979995727539 -26.230699539184570
-15.550000190734863 5.298980236053467 -26.257699966430664
-16.047000885009766 5.077980041503906 -26.259700775146484
-15.890000343322754 5.101980209350586 -26.274700164794922
-16.333999633789063 5.237979888916016 -26.260700225830078
-15.706999778747559 5.592979907989502 -26.263700485229492
-16.069999694824219 5.450980186462402 -26.263700485229492
-16.495000839233398 5.479979991912842 -26.252700805664062
-15.722999572753906 5.198979854583740 -26.297700881958008
-16.385000228881836 5.645979881286621 -26.320699691772461
-15.833000183105469 5.662980079650879 -26.336700439453125
-16.554000854492187 5.610980033874512 -26.320699691772461
-16.218000411987305 5.561979770660400 -26.335699081420898
-15.984000205993652 5.563980102539063 -26.346700668334961
-16.197999954223633 5.258979797363281 -26.359699249267578
-15.666999816894531 5.393980026245117 -26.370700836181641
-16.375000000000000 5.384980201721191 -26.363700866699219
-15.817999839782715 5.317979812622070 -26.404699325561523
-16.045999526977539 5.260980129241943 -26.408700942993164
-16.579999923706055 5.757979869842529 -26.395700454711914
-16.118999481201172 5.643980026245117 -26.427700042724609
-16.431999206542969 5.546979904174805 -26.435699462890625
-15.649999618530273 5.637979984283447 -26.456699371337891
-15.942000389099121 5.718979835510254 -26.454700469970703
-15.751999855041504 5.756979942321777 -26.471700668334961
-16.263999938964844 5.418980121612549 -26.472700119018555
-15.755999565124512 5.479979991912842 -26.496700286865234
-16.287000656127930 5.758979797363281 -26.477699279785156
-16.587999343872070 5.889979839324951 -26.498699188232422
-15.904000282287598 5.433979988098145 -26.542699813842773
-16.075000762939453 5.410980224609375 -26.541700363159180
-16.430999755859375 5.936979770660400 -26.521699905395508
-16.077999114990234 5.777979850769043 -26.543699264526367
-16.365999221801758 5.647980213165283 -26.571699142456055
-16.468000411987305 5.770979881286621 -26.569700241088867
-16.194000244140625 5.512979984283447 -26.591699600219727
-16.208000183105469 5.867980003356934 -26.601699829101562
-15.852000236511230 5.587979793548584 -26.634700775146484
-15.826999664306641 5.766980171203613 -26.629699707031250
-16.044000625610352 5.524980068206787 -26.645700454711914
-15.911999702453613 5.899980068206787 -26.640699386596680
-16.552000045776367 6.016980171203613 -26.631700515747070
-16.229999542236328 5.655980110168457 -26.670700073242187
-16.076999664306641 5.931980133056641 -26.674699783325195
-16.351999282836914 5.839980125427246 -26.700700759887695
-15.961000442504883 5.659979820251465 -26.736700057983398
-16.433000564575195 6.002980232238770 -26.741699218750000
-15.958000183105469 6.008979797363281 -26.758699417114258
-16.232000350952148 5.942979812622070 -26.765699386596680
-16.118000030517578 5.666979789733887 -26.782699584960938
-15.984999656677246 5.748980045318604 -26.872699737548828
-16.216999053955078 5.827980041503906 -26.924699783325195
-15.956999778747559 5.909979820251465 -26.947700500488281
-16.045000076293945 6.047979831695557 -26.954700469970703
-16.065000534057617 5.806980133056641 -27.032699584960938
-16.177000045776367 5.878980159759522 -27.134700775146484
-16.041999816894531 5.957980155944824 -27.158700942993164
-16.023000717163086 6.177979946136475 -27.205699920654297
-16.208999633789063 5.963980197906494 -27.271699905395508
-16.070999145507813 6.059979915618897 -27.302700042724609
-16.135000228881836 6.207980155944824 -27.327699661254883
-16.193000793457031 6.360980033874512 -27.322700500488281
-16.204000473022461 6.542980194091797 -27.340700149536133
-16.017000198364258 6.304979801177979 -27.388700485229492
