ply
format ascii 1.0
element vertex 717
property double x
property double y
property double z
end_header
-19.323999404907227 4.449979782104492 -16.026699066162109
-19.510999679565430 4.517980098724365 -15.922699928283691
-19.222000122070312 4.720980167388916 -15.978699684143066
-19.357999801635742 4.603980064392090 -15.992699623107910
-19.489000320434570 4.381979942321777 -16.002700805664063
-19.645000457763672 4.485980033874512 -16.003700256347656
-19.323999404907227 4.449979782104492 -16.026699066162109
-19.114000320434570 4.927979946136475 -16.050699234008789
-19.097000122070312 4.642980098724365 -16.071699142456055
-19.184000015258789 4.503980159759522 -16.080699920654297
-18.951000213623047 4.896979808807373 -16.075700759887695
-19.271999359130859 4.847980022430420 -16.075700759887695
-19.527000427246094 4.613979816436768 -16.081699371337891
-19.416000366210937 4.301980018615723 -16.130699157714844
-19.621999740600586 4.319980144500732 -16.135700225830078
-19.232999801635742 4.346980094909668 -16.151699066162109
-19.392999649047852 4.650979995727539 -16.156700134277344
-19.559999465942383 4.477980136871338 -16.162700653076172
-19.002000808715820 4.569980144500732 -16.178699493408203
-19.096000671386719 4.427979946136475 -16.194700241088867
-18.826999664306641 4.909979820251465 -16.184700012207031
-18.903999328613281 4.725979804992676 -16.191699981689453
-19.052000045776367 4.984980106353760 -16.184700012207031
-18.714000701904297 5.050980091094971 -16.194700241088867
-19.177000045776367 4.868979930877686 -16.205699920654297
-18.895000457763672 5.078979969024658 -16.234699249267578
-19.253000259399414 4.696979999542236 -16.241699218750000
-19.559000015258789 4.216979980468750 -16.260700225830078
-19.267999649047852 4.207980155944824 -16.280700683593750
-18.934000015258789 4.473979949951172 -16.291700363159180
-19.455999374389648 4.393980026245117 -16.289699554443359
-18.704000473022461 4.920979976654053 -16.291700363159180
-19.344999313354492 4.525979995727539 -16.305700302124023
-19.014999389648438 4.319980144500732 -16.322700500488281
-18.756999969482422 4.734980106353760 -16.322700500488281
-19.122999191284180 4.193980216979981 -16.341699600219727
-18.724000930786133 5.169980049133301 -16.315700531005859
-19.087999343872070 4.922979831695557 -16.327699661254883
-19.409999847412109 4.141980171203613 -16.350700378417969
-18.787000656127930 4.567979812622070 -16.377700805664063
-19.209999084472656 4.589980125427246 -16.372699737548828
-18.600999832153320 5.080979824066162 -16.369699478149414
-19.363000869750977 4.291979789733887 -16.395700454711914
-19.121000289916992 4.723979949951172 -16.387699127197266
-18.874000549316406 5.152979850769043 -16.378700256347656
-18.881000518798828 4.323979854583740 -16.413700103759766
-18.982000350952148 4.192979812622070 -16.420700073242187
-18.548000335693359 4.910980224609375 -16.423700332641602
-18.642000198364258 4.718979835510254 -16.430700302124023
-19.280000686645508 4.104979991912842 -16.444700241088867
-19.139999389648438 4.027979850769043 -16.460699081420898
-19.267999649047852 4.441979885101318 -16.441699981689453
-18.993000030517578 5.059979915618897 -16.436700820922852
-18.745000839233398 4.374979972839356 -16.489700317382812
-18.569999694824219 5.210979938507080 -16.472700119018555
-18.656000137329102 4.523980140686035 -16.500699996948242
-19.048999786376953 4.869979858398438 -16.485700607299805
-18.462999343872070 5.033979892730713 -16.499700546264648
-19.190000534057617 4.224979877471924 -16.512699127197266
-18.934000015258789 4.026979923248291 -16.544700622558594
-18.808000564575195 4.133979797363281 -16.546699523925781
-19.090999603271484 4.603980064392090 -16.525699615478516
-19.062999725341797 4.134980201721191 -16.573699951171875
-18.653999328613281 4.217979907989502 -16.588699340820313
-18.466999053955078 4.776979923248291 -16.574699401855469
-18.530000686645508 4.618979930877686 -16.581699371337891
-18.993999481201172 4.721980094909668 -16.565700531005859
-18.601999282836914 4.397980213165283 -16.595699310302734
-19.156000137329102 4.421979904174805 -16.582700729370117
-18.822000503540039 5.190979957580566 -16.568700790405273
-18.756000518798828 3.963979959487915 -16.627700805664062
-18.450000762939453 5.225979804992676 -16.593700408935547
-18.923999786376953 5.070980072021484 -16.592699050903320
-18.350000381469727 5.001979827880859 -16.611700057983398
-18.615999221801758 5.288980007171631 -16.618700027465820
-18.222999572753906 5.151979923248291 -16.652700424194336
-18.868999481201172 4.072979927062988 -16.680700302124023
-18.940999984741211 4.888979911804199 -16.648700714111328
-19.066999435424805 4.519979953765869 -16.667699813842773
-18.937000274658203 4.220980167388916 -16.694700241088867
-19.010000228881836 4.364980220794678 -16.690700531005859
-18.333000183105469 5.265979766845703 -16.691699981689453
-18.375999450683594 4.753980159759522 -16.712699890136719
-18.665000915527344 4.065979957580566 -16.793699264526367
-18.464000701904297 4.205979824066162 -16.804700851440430
-18.858999252319336 4.345980167388916 -16.788700103759766
-18.417999267578125 4.587979793548584 -16.796699523925781
-18.761999130249023 4.194980144500732 -16.803699493408203
-18.142000198364258 5.083980083465576 -16.786699295043945
-18.920999526977539 4.541979789733887 -16.792699813842773
-18.245000839233398 4.870979785919190 -16.800699234008789
-18.853000640869141 4.728980064392090 -16.792699813842773
-18.417999267578125 4.380980014801025 -16.825700759887695
-18.608999252319336 5.267980098724365 -16.786699295043945
-18.733999252319336 5.124979972839356 -16.796699523925781
-18.111000061035156 5.253980159759522 -16.821699142456055
-18.809000015258789 4.965980052947998 -16.820699691772461
-18.402999877929688 5.409979820251465 -16.820699691772461
-18.232000350952148 5.393980026245117 -16.842699050903320
-18.733999252319336 4.364980220794678 -16.884700775146484
-18.344999313354492 4.247980117797852 -16.899700164794922
-18.520000457763672 4.096980094909668 -16.903699874877930
-18.135999679565430 4.956980228424072 -16.888700485229492
-18.628000259399414 4.223979949951172 -16.905700683593750
-18.804000854492188 4.606979846954346 -16.890699386596680
-18.337999343872070 4.497980117797852 -16.919700622558594
-18.302000045776367 4.698979854583740 -16.914699554443359
-18.738000869750977 4.825980186462402 -16.911699295043945
-18.500000000000000 5.297979831695557 -16.919700622558594
-18.377000808715820 4.055980205535889 -16.975700378417969
-18.226999282836914 4.334980010986328 -16.980699539184570
-18.010000228881836 5.226980209350586 -16.958700180053711
-18.614000320434570 5.155980110168457 -16.948699951171875
-18.690000534057617 5.008979797363281 -16.955699920654297
-18.180000305175781 4.805980205535889 -16.983699798583984
-18.638999938964844 4.460979938507080 -16.986700057983398
-18.534000396728516 4.322979927062988 -17.006700515747070
-18.687999725341797 4.621980190277100 -16.999700546264648
-18.423999786376953 4.202980041503906 -17.031700134277344
-18.047000885009766 5.028979778289795 -17.010700225830078
-18.226999282836914 4.604979991912842 -17.036699295043945
-18.107999801635742 5.400979995727539 -17.027700424194336
-18.281000137329102 4.120979785919190 -17.084699630737305
-18.149000167846680 4.470980167388916 -17.091699600219727
-18.388999938964844 5.295979976654053 -17.067699432373047
-18.552999496459961 4.565979957580566 -17.105699539184570
-18.625000000000000 4.734980106353760 -17.099700927734375
-18.163000106811523 4.731979846954346 -17.125699996948242
-18.069999694824219 4.317979812622070 -17.144699096679688
-17.913999557495117 5.258979797363281 -17.114700317382813
-18.589000701904297 4.996980190277100 -17.114700317382813
-18.434999465942383 4.451980113983154 -17.145700454711914
-18.308000564575195 4.266980171203613 -17.166700363159180
-17.969999313354492 5.072979927062988 -17.145700454711914
-18.513999938964844 5.139979839324951 -17.129699707031250
-18.249000549316406 5.340980052947998 -17.131700515747070
-18.145999908447266 4.128980159759522 -17.182699203491211
-17.982000350952148 5.420979976654053 -17.150699615478516
-18.136999130249023 4.584980010986328 -17.201700210571289
-18.083000183105469 4.846980094909668 -17.200700759887695
-18.558000564575195 4.861979961395264 -17.197700500488281
-17.843999862670898 5.385980129241943 -17.225700378417969
-18.430000305175781 4.588980197906494 -17.243700027465820
-18.322000503540039 4.435979843139648 -17.262699127197266
-18.400999069213867 5.158979892730713 -17.238700866699219
-18.497999191284180 4.728980064392090 -17.269699096679688
-17.993999481201172 4.962979793548584 -17.275699615478516
-18.003999710083008 4.426980018615723 -17.300699234008789
-18.485000610351562 5.023980140686035 -17.266700744628906
-18.020000457763672 4.151979923248291 -17.315700531005859
-18.118000030517578 4.729979991912842 -17.304700851440430
-17.916000366210937 4.291979789733887 -17.360700607299805
-18.017999649047852 5.406980037689209 -17.316699981689453
-18.138999938964844 5.301980018615723 -17.318700790405273
-18.267999649047852 5.199979782104492 -17.321699142456055
-17.815999984741211 5.231979846954346 -17.332700729370117
-18.197000503540039 4.364980220794678 -17.358699798583984
-18.055999755859375 4.585979938507080 -17.361700057983398
-17.892000198364258 5.501979827880859 -17.336700439453125
-17.870000839233398 5.074979782104492 -17.363700866699219
-18.388999938964844 4.635980129241943 -17.388700485229492
-18.072000503540039 4.275979995727539 -17.411699295043945
-18.360000610351563 5.066979885101318 -17.379699707031250
-17.756000518798828 5.397980213165283 -17.394699096679688
-18.445999145507813 4.888979911804199 -17.396699905395508
-17.933000564575195 4.528979778289795 -17.441699981689453
-17.912000656127930 4.170979976654053 -17.461700439453125
-18.260000228881836 4.529980182647705 -17.446699142456055
-18.017000198364258 4.724979877471924 -17.448699951171875
-17.947999954223633 4.887979984283447 -17.460699081420898
-17.704999923706055 5.544980049133301 -17.462699890136719
-17.747999191284180 5.215980052947998 -17.477699279785156
-18.225000381469727 5.119979858398438 -17.470699310302734
-18.049999237060547 5.320980072021484 -17.474700927734375
-17.982999801635742 4.326980113983154 -17.535699844360352
-17.952999114990234 5.449979782104492 -17.493700027465820
-18.318000793457031 4.677979946136475 -17.524700164794922
-17.756999969482422 4.245979785919190 -17.563699722290039
-18.364999771118164 4.846980094909668 -17.531700134277344
-18.090000152587891 4.458980083465576 -17.556699752807617
-17.888999938964844 4.646979808807373 -17.559700012207031
-17.767999649047852 5.067979812622070 -17.548700332641602
-17.840999603271484 5.576980113983154 -17.547700881958008
-17.669000625610352 5.329979896545410 -17.567699432373047
-17.804000854492188 4.505980014801025 -17.598699569702148
-18.194999694824219 4.581980228424072 -17.589700698852539
-17.837999343872070 4.905980110168457 -17.586700439453125
-18.264999389648438 4.979979991912842 -17.572700500488281
-18.107999801635742 5.165979862213135 -17.585699081420898
-17.871000289916992 4.339980125427246 -17.648700714111328
-17.628000259399414 5.627980232238770 -17.606700897216797
-18.278999328613281 4.826980113983154 -17.664699554443359
-17.719999313354492 4.290979862213135 -17.720699310302734
-17.819000244140625 4.703979969024658 -17.710699081420898
-17.573999404907227 5.488979816436768 -17.708700180053711
-17.604999542236328 5.278979778289795 -17.717699050903320
-18.099000930786133 4.993979930877686 -17.719699859619141
-17.701999664306641 5.017980098724365 -17.729700088500977
-17.899999618530273 5.443980216979981 -17.708700180053711
-17.559999465942383 5.819980144500732 -17.707700729370117
-17.791999816894531 5.613979816436768 -17.711700439453125
-17.704000473022461 5.747980117797852 -17.710699081420898
-18.010000228881836 4.554979801177979 -17.750699996948242
-18.155000686645508 4.713980197906494 -17.748699188232422
-17.877000808715820 4.468979835510254 -17.779699325561523
-17.756999969482422 4.871980190277100 -17.769699096679687
-17.518999099731445 5.631979942321777 -17.754699707031250
-18.035999298095703 5.133979797363281 -17.768699645996094
-17.952999114990234 5.305980205535889 -17.780700683593750
-18.184999465942383 4.876979827880859 -17.796699523925781
-17.719999313354492 4.458980083465576 -17.845699310302734
-17.674999237060547 4.713980197906494 -17.849700927734375
-17.621000289916992 5.092979907989502 -17.845699310302734
-17.479999542236328 5.488979816436768 -17.843700408935547
-17.933000564575195 4.593979835510254 -17.893699645996094
-17.540000915527344 5.250979900360107 -17.884700775146484
-17.611000061035156 4.550980091094971 -17.913700103759766
-17.802999496459961 5.469979763031006 -17.874700546264648
-17.430000305175781 5.662980079650879 -17.882699966430664
-17.618999481201172 5.813980102539063 -17.872699737548828
-18.045999526977539 4.737979888916016 -17.914699554443359
-17.669000625610352 4.963980197906494 -17.928699493408203
-18.072000503540039 4.934979915618897 -17.920700073242188
-17.504999160766602 5.951980113983154 -17.902700424194336
-17.978000640869141 5.234980106353760 -17.920700073242188
-17.673000335693359 4.359980106353760 -17.964700698852539
-17.694999694824219 5.647980213165283 -17.913700103759766
-17.361000061035156 5.805980205535889 -17.925699234008789
-17.871000289916992 5.343979835510254 -17.964700698852539
-17.445999145507812 5.367980003356934 -17.979700088500977
-17.576000213623047 4.690979957580566 -18.006700515747070
-17.337999343872070 5.984980106353760 -17.968700408935547
-17.812999725341797 4.586979866027832 -18.013700485229492
-17.490999221801758 4.558979988098145 -18.042699813842773
-17.513000488281250 5.168980121612549 -18.038700103759766
-17.920999526977539 4.725979804992676 -18.048700332641602
-17.582000732421875 5.018980026245117 -18.047700881958008
-17.298999786376953 5.634980201721191 -18.042699813842773
-17.597000122070313 5.900979995727539 -18.024700164794922
-17.569000244140625 4.840980052947998 -18.070699691772461
-17.372999191284180 5.487979888916016 -18.052700042724609
-17.999000549316406 4.981979846954346 -18.073699951171875
-17.945999145507813 5.148980140686035 -18.069700241088867
-17.631000518798828 4.407979965209961 -18.110700607299805
-17.243999481201172 5.783979892730713 -18.071699142456055
-17.749000549316406 5.478980064392090 -18.072700500488281
-17.636999130249023 5.737979888916016 -18.077699661254883
-17.502000808715820 6.039979934692383 -18.069700241088867
-17.714000701904297 4.593979835510254 -18.140699386596680
-17.850000381469727 5.280980110168457 -18.131700515747070
-17.920000076293945 4.863979816436768 -18.159700393676758
-17.434000015258789 4.706980228424072 -18.179700851440430
-17.809999465942383 4.730979919433594 -18.171699523925781
-17.430999755859375 5.271979808807373 -18.162700653076172
-17.364999771118164 6.092979907989502 -18.140699386596680
-17.191999435424805 5.950980186462402 -18.180700302124023
-17.298000335693359 5.550980091094971 -18.193700790405273
-17.527999877929688 4.969979763031006 -18.232700347900391
-17.490999221801758 5.128980159759522 -18.234699249267578
-17.923000335693359 5.162980079650879 -18.229700088500977
-17.927999496459961 5.001979827880859 -18.240699768066406
-17.614000320434570 5.988979816436768 -18.210699081420898
-17.627000808715820 4.589980125427246 -18.272699356079102
-17.555999755859375 4.441979885101318 -18.283700942993164
-17.659999847412109 5.572979927062988 -18.239700317382812
-17.322999954223633 4.707980155944824 -18.299699783325195
-17.524999618530273 6.119979858398438 -18.239700317382812
-17.701999664306641 4.738979816436768 -18.291700363159180
-17.336000442504883 5.408979892730713 -18.288700103759766
-17.424999237060547 4.852980136871338 -18.317699432373047
-17.795000076293945 5.306980133056641 -18.290700912475586
-17.274000167846680 6.103980064392090 -18.273700714111328
-17.648000717163086 5.725979804992676 -18.280700683593750
-17.215000152587891 5.664979934692383 -18.295700073242187
-17.184000015258789 4.635980129241943 -18.348699569702148
-17.698999404907227 5.430980205535889 -18.306699752807617
-17.399000167846680 5.265979766845703 -18.330699920654297
-17.148000717163086 5.825980186462402 -18.321699142456055
-17.802999496459961 4.941979885101318 -18.359699249267578
-17.378000259399414 6.237979888916016 -18.346700668334961
-17.513999938964844 5.066979885101318 -18.394699096679688
-17.829000473022461 5.183979988098145 -18.394699096679688
-17.271999359130859 5.488979816436768 -18.408700942993164
-17.611000061035156 4.738979816436768 -18.434700012207031
-17.194000244140625 6.104979991912842 -18.423700332641602
-17.613000869750977 6.122980117797852 -18.415700912475586
-17.724000930786133 5.344979763031006 -18.448699951171875
-17.166999816894531 4.738979816436768 -18.490699768066406
-17.658000946044922 5.548980236053467 -18.450700759887695
-17.687000274658203 4.923980236053467 -18.475700378417969
-17.115999221801758 5.954979896545410 -18.453699111938477
-17.624000549316406 5.779980182647705 -18.447700500488281
-17.518999099731445 4.621980190277100 -18.498699188232422
-17.436000823974609 4.954979896545410 -18.490699768066406
-17.356000900268555 5.350979804992676 -18.485700607299805
-17.260000228881836 6.260980129241943 -18.454700469970703
-17.493999481201172 6.229979991912842 -18.465700149536133
-17.016000747680664 4.644979953765869 -18.540700912475586
-17.128000259399414 5.789979934692383 -18.494699478149414
-17.458000183105469 5.229979991912842 -18.509700775146484
-17.757999420166016 5.081980228424072 -18.516700744628906
-17.582000732421875 5.962979793548584 -18.487699508666992
-17.565999984741211 5.098979949951172 -18.541700363159180
-17.549999237060547 4.388979911804199 -18.574699401855469
-17.211999893188477 5.614980220794678 -18.552700042724609
-17.375000000000000 6.313980102539063 -18.559700012207031
-16.905000686645508 4.736979961395264 -18.639699935913086
-17.555000305175781 4.792980194091797 -18.628700256347656
-17.195999145507813 4.852980136871338 -18.647699356079102
-17.611000061035156 4.979979991912842 -18.637699127197266
-17.681999206542969 5.198979854583740 -18.628700256347656
-17.329000473022461 5.445980072021484 -18.629699707031250
-17.051000595092773 4.789979934692383 -18.664699554443359
-17.093000411987305 5.852980136871338 -18.637699127197266
-17.604999542236328 5.512979984283447 -18.637699127197266
-17.450000762939453 5.015979766845703 -18.671699523925781
-17.083000183105469 6.121980190277100 -18.640699386596680
-17.527000427246094 4.620979785919190 -18.691699981689453
-17.648000717163086 5.354979991912842 -18.660699844360352
-16.729000091552734 4.729979991912842 -18.718700408935547
-17.431999206542969 5.309979915618897 -18.677700042724609
-17.538999557495117 5.928979873657227 -18.652700424194336
-17.552999496459961 6.203979969024658 -18.643699645996094
-17.593999862670898 4.451980113983154 -18.712699890136719
-17.561000823974609 5.696979999542236 -18.664699554443359
-17.155000686645508 6.282979965209961 -18.668699264526367
-17.257999420166016 6.403979778289795 -18.665700912475586
-17.299999237060547 4.941979885101318 -18.728700637817383
-17.195999145507813 5.655980110168457 -18.708700180053711
-17.614999771118164 5.106979846954346 -18.743700027465820
-16.892000198364258 4.815979957580566 -18.785699844360352
-17.025999069213867 5.961979866027832 -18.743700027465820
-17.101999282836914 4.887979984283447 -18.796699523925781
-17.452999114990234 6.280980110168457 -18.743700027465820
-17.520000457763672 4.736979961395264 -18.803699493408203
-17.108999252319336 5.765979766845703 -18.781700134277344
-17.482999801635742 5.181980133056641 -18.797700881958008
-17.517000198364258 5.794980049133301 -18.780700683593750
-17.548999786376953 4.978980064392090 -18.814699172973633
-17.586999893188477 5.463980197906494 -18.798700332641602
-17.593000411987305 5.303979873657227 -18.805700302124023
-17.483999252319336 6.075980186462402 -18.779699325561523
-17.041999816894531 6.124979972839356 -18.792699813842773
-16.662000656127930 4.617980003356934 -18.871700286865234
-17.556999206542969 5.617980003356934 -18.810699462890625
-17.399999618530273 5.394979953765869 -18.826700210571289
-17.378999710083008 5.029980182647705 -18.841699600219727
-17.315999984741211 5.545979976654053 -18.830699920654297
-16.757999420166016 4.827980041503906 -18.882699966430664
-17.561000823974609 4.526979923248291 -18.878700256347656
-16.864999771118164 4.481979846954346 -18.900699615478516
-17.309000015258789 6.362979888916016 -18.819700241088867
-17.208999633789063 4.990980148315430 -18.882699966430664
-17.034999847412109 6.276979923248291 -18.854700088500977
-17.158000946044922 6.410980224609375 -18.856700897216797
-17.458999633789063 4.649980068206787 -18.921699523925781
-16.593999862670898 4.745979785919190 -18.942699432373047
-16.992000579833984 5.881979942321777 -18.890699386596680
-17.474000930786133 4.879980087280273 -18.929700851440430
-17.010000228881836 4.952980041503906 -18.941699981689453
-17.400999069213867 6.158979892730713 -18.894699096679687
-17.434999465942383 5.930980205535889 -18.903699874877930
-17.385000228881836 5.238979816436768 -18.936700820922852
-17.243999481201172 5.656980037689209 -18.933700561523438
-17.548999786376953 5.217979907989502 -18.954700469970703
-16.763000488281250 4.676980018615723 -18.997699737548828
-16.847000122070312 4.933979988098145 -18.988700866699219
-17.497999191284180 5.045979976654053 -18.967699050903320
-17.525999069213867 5.385980129241943 -18.955699920654297
-16.979000091552734 4.595980167388916 -19.006700515747070
-17.472999572753906 5.765979766845703 -18.948699951171875
-16.674999237060547 4.921979904174805 -19.004699707031250
-17.145999908447266 4.558979988098145 -19.009700775146484
-17.319999694824219 4.606979846954346 -19.003700256347656
-17.017000198364258 6.454979896545410 -18.939699172973633
-17.520000457763672 5.556980133056641 -18.962699890136719
-17.371000289916992 5.479979991912842 -18.976699829101563
-17.299999237060547 6.259980201721191 -18.971700668334961
-17.111999511718750 5.056980133056641 -19.029699325561523
-17.357999801635742 4.829979896545410 -19.038700103759766
-17.270000457763672 5.130980014801025 -19.033700942993164
-17.047000885009766 5.789979934692383 -19.016700744628906
-16.927999496459961 6.133979797363281 -19.011699676513672
-16.966999053955078 6.289979934692383 -19.005699157714844
-17.336999893188477 6.043980121612549 -19.008699417114258
-17.225000381469727 4.729979991912842 -19.066699981689453
-17.195999145507813 6.381979942321777 -19.009700775146484
-16.898000717163086 4.731979846954346 -19.085699081420898
-16.549999237060547 4.974979877471924 -19.086700439453125
-17.069000244140625 4.735980033874512 -19.098699569702148
-16.638000488281250 4.796979904174805 -19.108699798583984
-17.452999114990234 5.141980171203613 -19.084699630737305
-17.319999694824219 5.356979846954346 -19.081699371337891
-17.399000167846680 5.853980064392090 -19.060699462890625
-16.902999877929687 5.861979961395264 -19.079700469970703
-17.183000564575195 5.694980144500732 -19.079700469970703
-16.784000396728516 5.010980129241943 -19.121700286865234
-17.445999145507812 5.667980194091797 -19.080699920654297
-16.965999603271484 5.059979915618897 -19.123699188232422
-17.476999282836914 5.299980163574219 -19.103700637817383
-17.305999755859375 5.584980010986328 -19.102699279785156
-17.260000228881836 6.160980224609375 -19.092699050903320
-17.458999633789063 5.513979911804199 -19.114700317382813
-16.798000335693359 5.974979877471924 -19.121700286865234
-16.791000366210938 4.818980216979981 -19.170700073242188
-17.222999572753906 4.887979984283447 -19.163700103759766
-17.113000869750977 5.151979923248291 -19.160699844360352
-16.952999114990234 6.535980224609375 -19.118700027465820
-17.365999221801758 5.027979850769043 -19.170700073242188
-16.948999404907227 4.848979949951172 -19.201700210571289
-16.909000396728516 6.285980224609375 -19.153699874877930
-17.097999572753906 6.433979988098145 -19.160699844360352
-16.666999816894531 5.079979896545410 -19.226699829101563
-16.851999282836914 5.126979827880859 -19.229700088500977
-16.670000076293945 4.893980026245117 -19.249700546264648
-16.829000473022461 6.141980171203613 -19.198699951171875
-17.152999877929688 6.266980171203613 -19.186700820922852
-17.259000778198242 5.983980178833008 -19.199699401855469
-16.464000701904297 4.943980216979981 -19.263700485229492
-17.353000640869141 5.800980091094971 -19.206699371337891
-17.215000152587891 5.247980117797852 -19.237699508666992
-17.253999710083008 5.401979923248291 -19.232700347900391
-17.059999465942383 5.739980220794678 -19.225700378417969
-16.870000839233398 6.437980175018311 -19.213699340820313
-17.222999572753906 5.625979900360107 -19.245700836181641
-17.413999557495117 5.299980163574219 -19.253700256347656
-17.399999618530273 5.468979835510254 -19.253700256347656
-16.399000167846680 5.094979763031006 -19.302700042724609
-17.084999084472656 4.969979763031006 -19.295700073242187
-17.233999252319336 5.042980194091797 -19.289699554443359
-16.966999053955078 5.216979980468750 -19.296699523925781
-16.728000640869141 5.199979782104492 -19.314699172973633
-16.892000198364258 6.589980125427246 -19.256700515747070
-16.743000030517578 6.057980060577393 -19.302700042724609
-16.899000167846680 4.962979793548584 -19.344699859619141
-16.542999267578125 5.178979873657227 -19.349700927734375
-17.013000488281250 6.444980144500732 -19.294700622558594
-17.368000030517578 5.608980178833008 -19.318700790405273
-17.267000198364258 5.879980087280273 -19.317699432373047
-17.187000274658203 6.101980209350586 -19.314699172973633
-16.596000671386719 4.989980220794678 -19.374700546264648
-17.305000305175781 5.184979915618897 -19.354700088500977
-16.893999099731445 5.786980152130127 -19.342699050903320
-17.069000244140625 5.356979846954346 -19.377700805664063
-16.770000457763672 5.330979824066162 -19.393699645996094
-16.753000259399414 4.996980190277100 -19.408700942993164
-16.761999130249023 6.562980175018311 -19.347700119018555
-17.173999786376953 5.476980209350586 -19.379699707031250
-17.100000381469727 5.646979808807373 -19.386699676513672
-17.364999771118164 5.387979984283447 -19.390699386596680
-16.774000167846680 6.223979949951172 -19.373699188232422
-16.809000015258789 6.389979839324951 -19.368700027465820
-17.084999084472656 6.256979942321777 -19.367700576782227
-16.878000259399414 5.446979999542236 -19.425699234008789
-16.464000701904297 5.288980007171631 -19.449699401855469
-17.302999496459961 5.726980209350586 -19.410699844360352
-16.996999740600586 5.076980113983154 -19.448699951171875
-16.679000854492188 5.928979873657227 -19.425699234008789
-16.628999710083008 5.375979900360107 -19.449699401855469
-17.017999649047852 5.519979953765869 -19.440700531005859
-17.174999237060547 5.150979995727539 -19.451700210571289
-16.781000137329102 5.784979820251465 -19.452699661254883
-17.318000793457031 5.539979934692383 -19.451700210571289
-16.922000885009766 5.669980049133301 -19.457700729370117
-16.767000198364258 5.552979946136475 -19.470699310302734
-17.212999343872070 5.950980186462402 -19.447700500488281
-16.941999435424805 6.530980110168457 -19.433700561523438
-16.448999404907227 5.090980052947998 -19.511699676513672
-16.795000076293945 5.108980178833008 -19.553699493408203
-16.441999435424805 5.434979915618897 -19.561700820922852
-17.233999252319336 5.269979953765869 -19.550699234008789
-16.628999710083008 5.809979915618897 -19.550699234008789
-16.292999267578125 5.195980072021484 -19.591699600219727
-17.086000442504883 5.219979763031006 -19.574699401855469
-17.290000915527344 5.417980194091797 -19.562700271606445
-16.743000030517578 6.383979797363281 -19.555700302124023
-17.124000549316406 6.144979953765869 -19.556699752807617
-16.707000732421875 6.695980072021484 -19.550699234008789
-17.010000228881836 6.353980064392090 -19.560699462890625
-16.533000946044922 5.662980079650879 -19.601699829101563
-17.216999053955078 5.866980075836182 -19.582700729370117
-17.270999908447266 5.581980228424072 -19.596700668334961
-16.667999267578125 5.139979839324951 -19.643699645996094
-16.923999786376953 5.207980155944824 -19.644699096679688
-16.659000396728516 6.214980125427246 -19.614700317382812
-16.885000228881836 6.545979976654053 -19.602699279785156
-16.726999282836914 6.551980018615723 -19.613700866699219
-16.298000335693359 5.452980041503906 -19.673700332641602
-16.483999252319336 5.159979820251465 -19.684700012207031
-16.555000305175781 6.094979763031006 -19.650699615478516
-16.511999130249023 5.858980178833008 -19.667699813842773
-16.576000213623047 6.730979919433594 -19.635700225830078
-16.409000396728516 5.630980014801025 -19.700700759887695
-17.159999847412109 6.008979797363281 -19.679700851440430
-17.066999435424805 6.232979774475098 -19.679700851440430
-16.785999298095703 5.225979804992676 -19.742700576782227
-17.229999542236328 5.444980144500732 -19.727699279785156
-16.351999282836914 5.244979858398438 -19.766700744628906
-16.698999404907227 6.421979904174805 -19.711700439453125
-16.951000213623047 6.426980018615723 -19.713699340820313
-17.218999862670898 5.656980037689209 -19.742700576782227
-17.141000747680664 5.315979957580566 -19.763700485229492
-16.260999679565430 5.578979969024658 -19.786699295043945
-16.604000091552734 5.228980064392090 -19.802700042724609
-16.972999572753906 5.301980018615723 -19.796699523925781
-16.638999938964844 6.276979923248291 -19.768699645996094
-17.174999237060547 5.873980045318604 -19.786699295043945
-16.471000671386719 5.955979824066162 -19.803699493408203
-16.643999099731445 6.600979804992676 -19.774700164794922
-16.853000640869141 6.560979843139648 -19.789699554443359
-17.108999252319336 6.111979961395264 -19.811700820922852
-16.281999588012695 5.351980209350586 -19.865699768066406
-16.556999206542969 6.727980136871338 -19.824699401855469
-16.465000152587891 5.273980140686035 -19.888700485229492
-16.398000717163086 5.809979915618897 -19.882699966430664
-17.041000366210937 6.258979797363281 -19.848699569702148
-17.186000823974609 5.524980068206787 -19.881700515747070
-16.500999450683594 6.169980049133301 -19.877700805664062
-16.927999496459961 6.451980113983154 -19.875699996948242
-16.634000778198242 6.455979824066162 -19.883699417114258
-16.216999053955078 5.657979965209961 -19.927700042724609
-17.177999496459961 5.756979942321777 -19.898700714111328
-17.104000091552734 5.356979846954346 -19.919700622558594
-17.135000228881836 5.968979835510254 -19.913700103759766
-16.329999923706055 6.103980064392090 -19.936700820922852
-16.214000701904297 5.460979938507080 -19.966699600219727
-16.584999084472656 6.310979843139648 -19.925699234008789
-16.583000183105469 5.318980216979981 -19.993700027465820
-16.405000686645508 5.969979763031006 -19.974700927734375
-16.746000289916992 5.345980167388916 -19.995700836181641
-16.455999374389648 6.694980144500732 -19.956699371337891
-16.927000045776367 5.380980014801025 -20.001699447631836
-17.083999633789063 6.119979858398438 -19.973699569702148
-16.732999801635742 6.629980087280273 -19.965700149536133
-16.577999114990234 6.578979969024658 -19.974700927734375
-17.141000747680664 5.570980072021484 -20.025699615478516
-16.291999816894531 5.876979827880859 -20.043699264526367
-16.358999252319336 5.388979911804199 -20.062700271606445
-16.840000152587891 6.519979953765869 -20.005699157714844
-17.131000518798828 5.851980209350586 -20.028699874877930
-16.114000320434570 5.765979766845703 -20.071699142456055
-16.427999496459961 6.195980072021484 -20.058700561523438
-16.972999572753906 6.359980106353760 -20.038700103759766
-16.613000869750977 6.738979816436768 -20.057699203491211
-16.558000564575195 6.367980003356934 -20.077699661254883
-17.051000595092773 5.437980175018311 -20.117700576782227
-16.131000518798828 5.912980079650879 -20.147699356079102
-16.246000289916992 5.481979846954346 -20.163700103759766
-16.486999511718750 6.644979953765869 -20.117700576782227
-17.030000686645508 6.203979969024658 -20.120700836181641
-17.090999603271484 6.004980087280273 -20.129699707031250
-16.794000625610352 5.427979946136475 -20.170700073242188
-16.247999191284180 6.038980007171631 -20.173700332641602
-17.100999832153320 5.762979984283447 -20.162700653076172
-16.608999252319336 6.514979839324951 -20.146699905395508
-16.437999725341797 5.430980205535889 -20.195699691772461
-16.774000167846680 6.557980060577393 -20.146699905395508
-16.614999771118164 5.410980224609375 -20.196699142456055
-17.087999343872070 5.580979824066162 -20.197700500488281
-15.993000030517578 5.827980041503906 -20.219699859619141
-16.475000381469727 6.815979957580566 -20.170700073242188
-16.465000152587891 6.279980182647705 -20.197700500488281
-16.902999877929687 6.405980110168457 -20.182699203491211
-15.991000175476074 5.666979789733887 -20.238700866699219
-16.333000183105469 6.180980205535889 -20.211700439453125
-16.958999633789063 5.447979927062988 -20.254699707031250
-16.138999938964844 5.520979881286621 -20.277700424194336
-16.775999069213867 6.713980197906494 -20.221700668334961
-16.138000488281250 5.986979961395264 -20.286699295043945
-16.527000427246094 6.429979801177979 -20.263700485229492
-16.422000885009766 6.603980064392090 -20.266700744628906
-17.072000503540039 5.892980098724365 -20.286699295043945
-15.876999855041504 5.559979915618897 -20.331699371337891
-17.055999755859375 6.060979843139648 -20.281700134277344
-15.963000297546387 5.937980175018311 -20.336700439453125
-16.660999298095703 5.468979835510254 -20.336700439453125
-16.357999801635742 6.822979927062988 -20.296699523925781
-16.322999954223633 5.518980026245117 -20.357700347900391
-15.998999595642090 5.461979866027832 -20.368700027465820
-16.497999191284180 5.488979816436768 -20.354700088500977
-16.975000381469727 6.275979995727539 -20.311700820922852
-16.860000610351563 6.593979835510254 -20.302700042724609
-16.239999771118164 6.143980026245117 -20.339700698852539
-15.836000442504883 5.409979820251465 -20.379699707031250
-16.374000549316406 6.455979824066162 -20.327699661254883
-17.024000167846680 5.555980205535889 -20.350700378417969
-16.826000213623047 5.491980075836182 -20.367700576782227
-17.030000686645508 5.754980087280273 -20.362699508666992
-16.903999328613281 6.392980098724365 -20.397699356079102
-15.538999557495117 5.434979915618897 -20.472700119018555
-15.635999679565430 5.582980155944824 -20.471700668334961
-15.970000267028809 5.305980205535889 -20.481700897216797
-16.128999710083008 5.455979824066162 -20.474700927734375
-15.809000015258789 5.255980014801025 -20.496700286865234
-15.777999877929687 5.787980079650879 -20.483699798583984
-16.042999267578125 6.019979953765869 -20.481700897216797
-16.180000305175781 6.258979797363281 -20.472700119018555
-17.017999649047852 5.639979839324951 -20.483699798583984
-17.034000396728516 5.967979907989502 -20.474700927734375
-16.725000381469727 5.535980224609375 -20.503700256347656
-16.280000686645508 6.795979976654053 -20.472700119018555
-16.899999618530273 5.535980224609375 -20.508699417114258
-15.878999710083008 5.954979896545410 -20.522699356079102
-15.503000259399414 5.613979816436768 -20.557699203491211
-15.628000259399414 5.728980064392090 -20.550699234008789
-16.322999954223633 5.543980121612549 -20.539699554443359
-16.995000839233398 5.794980049133301 -20.514699935913086
-15.329000473022461 5.326980113983154 -20.578699111938477
-15.371999740600586 5.516980171203613 -20.572700500488281
-15.666000366210938 5.304979801177979 -20.577699661254883
-16.518999099731445 5.543980121612549 -20.545700073242187
-16.986999511718750 6.150979995727539 -20.512699127197266
-16.180000305175781 6.425980091094971 -20.523700714111328
-16.218999862670898 6.582980155944824 -20.516700744628906
-15.498999595642090 5.338980197906494 -20.607700347900391
-15.939000129699707 5.181980133056641 -20.613700866699219
-16.110000610351563 6.155980110168457 -20.575700759887695
-16.062000274658203 5.302979946136475 -20.636699676513672
-16.215000152587891 5.460979938507080 -20.626699447631836
-15.239999771118164 5.520979881286621 -20.662700653076172
-15.946999549865723 6.091979980468750 -20.624700546264648
-15.180000305175781 5.320980072021484 -20.677700042724609
-16.941999435424805 6.329979896545410 -20.597700119018555
-15.366999626159668 5.643980026245117 -20.669700622558594
-16.121999740600586 6.313980102539063 -20.624700546264648
-17.006999969482422 6.024980068206787 -20.627700805664063
-15.493000030517578 5.775979995727539 -20.688699722290039
-16.788999557495117 5.602980136871338 -20.665700912475586
-16.940999984741211 5.654980182647705 -20.663700103759766
-15.758999824523926 5.999979972839356 -20.683700561523438
-16.437000274658203 5.556980133056641 -20.686700820922852
-16.138999938964844 6.506979942321777 -20.671699523925781
-15.833999633789062 5.232979774475098 -20.731700897216797
-16.632999420166016 5.594979763031006 -20.701700210571289
-15.395000457763672 5.342979907989502 -20.746700286865234
-16.000999450683594 6.240980148315430 -20.696699142456055
-15.619999885559082 5.921979904174805 -20.723699569702148
-16.952999114990234 5.877980232238770 -20.698699951171875
-15.680999755859375 5.298980236053467 -20.762699127197266
-16.176000595092773 5.362979888916016 -20.759700775146484
-16.245000839233398 6.717979907989502 -20.707700729370117
-15.831000328063965 6.124979972839356 -20.747699737548828
-16.952999114990234 6.264979839324951 -20.745700836181641
-17.020000457763672 6.417980194091797 -20.745700836181641
-16.038999557495117 6.380980014801025 -20.784700393676758
-15.519000053405762 5.337979793548584 -20.848699569702148
-16.364000320434570 5.503980159759522 -20.828699111938477
-16.877000808715820 5.658979892730713 -20.809700012207031
-16.976999282836914 6.014979839324951 -20.795700073242188
-15.428000450134277 5.883979797363281 -20.851699829101563
-15.666000366210938 6.091979980468750 -20.838699340820313
-15.269000053405762 5.342979907989502 -20.881700515747070
-16.704000473022461 5.649980068206787 -20.840700149536133
-15.913000106811523 6.285980224609375 -20.840700149536133
-15.531000137329102 6.007979869842529 -20.863700866699219
-16.916999816894531 5.812980175018311 -20.846700668334961
-15.772000312805176 6.207980155944824 -20.871700286865234
-16.106000900268555 6.604979991912842 -20.851699829101563
-16.552000045776367 5.609980106353760 -20.879699707031250
-16.261999130249023 5.393980026245117 -20.903699874877930
-15.418000221252441 5.345980167388916 -20.971700668334961
-16.284999847412109 6.722980022430420 -20.907699584960937
-15.642999649047852 5.284979820251465 -20.982700347900391
-15.968000411987305 6.434979915618897 -20.937700271606445
-15.548000335693359 6.156980037689209 -20.966699600219727
-16.919000625610352 5.968979835510254 -20.947700500488281
-15.668000221252441 6.271979808807373 -20.975700378417969
-16.783000946044922 5.724979877471924 -20.979700088500977
-15.798999786376953 6.368979930877686 -20.983699798583984
-16.170999526977539 6.819980144500732 -20.973699569702148
-16.452999114990234 5.568980216979981 -21.016700744628906
-16.937000274658203 6.151979923248291 -20.982700347900391
-15.402999877929688 6.100979804992676 -21.028699874877930
-16.607000350952148 5.668980121612549 -21.015699386596680
-16.059000015258789 6.601980209350586 -21.013700485229492
-15.505000114440918 5.339980125427246 -21.103700637817383
-16.340000152587891 5.456980228424072 -21.077699661254883
-15.583000183105469 6.436979770660400 -21.060699462890625
-15.720999717712402 6.529980182647705 -21.055700302124023
-15.909000396728516 6.551980018615723 -21.050699234008789
-16.881000518798828 5.845980167388916 -21.061700820922852
-15.460000038146973 6.275979995727539 -21.092699050903320
-15.453000068664551 6.541979789733887 -21.085699081420898
-16.038999557495117 6.772980213165283 -21.062700271606445
-15.885000228881836 6.807980060577393 -21.069700241088867
-16.892999649047852 6.027979850769043 -21.094699859619141
-16.697000503540039 5.743979930877686 -21.121700286865234
-16.312999725341797 6.713980197906494 -21.101699829101563
-16.538000106811523 5.672979831695557 -21.201700210571289
-16.957000732421875 6.166979789733887 -21.208700180053711
-16.816999435424805 5.854979991912842 -21.246700286865234
-16.885999679565430 6.020979881286621 -21.260700225830078
-16.433000564575195 5.602980136871338 -21.298700332641602
-16.313999176025391 5.496980190277100 -21.409700393676758
-16.599000930786133 5.761980056762695 -21.424699783325195
-16.888999938964844 5.977980136871338 -21.421699523925781
-16.438999176025391 5.660980224609375 -21.456699371337891
-16.774999618530273 5.887979984283447 -21.501699447631836
-16.625999450683594 5.820980072021484 -21.570699691772461
-16.361000061035156 5.658979892730713 -21.596700668334961
-16.181999206542969 5.468979835510254 -21.660699844360352
-16.753000259399414 5.906980037689209 -21.674699783325195
-16.239999771118164 5.614980220794678 -21.708700180053711
-16.368000030517578 5.752980232238770 -21.734699249267578
-16.593999862670898 5.854979991912842 -21.759700775146484
-16.124000549316406 5.482979774475098 -21.832700729370117
-16.193000793457031 5.639979839324951 -21.875699996948242
-16.708999633789063 5.963980197906494 -21.856700897216797
-16.472000122070313 5.852980136871338 -21.875699996948242
-16.336000442504883 5.801980018615723 -21.936700820922852
-16.586999893188477 5.930980205535889 -21.977699279785156
-16.802000045776367 6.007979869842529 -21.975700378417969
-16.402000427246094 5.883979797363281 -22.068700790405273
-16.875999450683594 6.140979766845703 -22.059700012207031
-16.665000915527344 6.002980232238770 -22.133699417114258
-16.510000228881836 5.968979835510254 -22.177700042724609
-16.808000564575195 6.104979991912842 -22.210699081420898
