ply
format ascii 1.0
element vertex 371
property double x
property double y
property double z
end_header
12.957923496470732 -416.011119169347410 -438.520353429457710
15.241299629211426 -412.122985839843750 -441.316986083984370
-1.058380521833897 -429.231491088867190 -427.432258605957030
2.065409898757935 -428.941986083984370 -425.977996826171870
12.260220146179199 -423.721002197265650 -428.603198242187490
26.586250305175781 -424.800003051757810 -426.724990844726560
10.037139892578125 -417.081665039062500 -430.356994628906250
10.805036845960116 -417.967315673828120 -430.414003071032080
27.673700332641602 -421.832992553710940 -426.669494628906250
28.550199508666992 -419.753997802734370 -426.885009765625000
8.140170097351074 -405.230000813802060 -430.037333170572940
10.585033257802328 -409.435002644856750 -427.964502970377620
23.409275054931641 -405.251243591308590 -432.396999359130860
28.793149948120117 -406.640502929687500 -427.048507690429690
6.904836734135945 -400.354502360026060 -429.977162679036440
23.736922540972309 -400.298387096774210 -428.819807483303920
6.293546517690023 -391.723337809244810 -426.967000325520810
21.158750534057617 -394.216995239257810 -426.305496215820310
0.524100005626678 -431.122009277343750 -424.575988769531250
5.817441254854202 -426.447250366210940 -423.931877136230470
15.246156964983259 -424.554711478097090 -424.078284127371660
22.299072612415660 -425.011910178444620 -424.770818536931810
7.867740154266357 -421.834014892578120 -418.834991455078120
14.952765464782715 -417.649807269756590 -421.084421011117800
24.242544876901729 -417.319554379111820 -421.642684133429270
28.779600143432617 -414.811004638671870 -424.822998046875000
10.124310016632080 -407.781997680664060 -423.614003499348940
11.854099929332733 -409.037500381469730 -419.940811157226560
26.794858455657959 -409.645581563313780 -418.742329915364560
29.034720230102540 -408.186102294921850 -422.241003417968730
9.673082298702664 -399.499332004123290 -420.595777723524290
10.588390064239501 -400.726300048828140 -421.729501342773460
26.907208283742268 -398.207504272460940 -423.661084493001280
29.097968908456657 -399.384772667518010 -420.556149996244020
7.200485992431640 -391.247998046875010 -422.217004394531270
14.051839828491211 -390.883001708984350 -420.630200195312510
24.189441232120288 -390.535851871266060 -421.794618494370410
28.748166402180988 -393.024658203125000 -417.641998291015630
5.453735923767090 -384.188598632812500 -420.570599365234390
18.025939941406250 -380.913995361328150 -418.180200195312520
22.281324982643127 -383.540754318237300 -418.658187866210940
12.440699577331543 -413.821990966796870 -416.860992431640620
15.948960967685865 -408.325566830842380 -414.515610404636560
23.063975016276043 -407.908748626708980 -414.844668070475280
9.972332715988159 -397.761756896972660 -415.830749511718750
13.409833301197398 -400.299608635179940 -411.914759780421380
24.866121234315813 -400.358637954249500 -411.309759891394440
28.774016380310059 -398.471171061197940 -415.151000976562500
9.864653968811036 -391.892407226562510 -411.953097534179680
11.121040153503419 -392.154797363281260 -411.709197998046870
27.598883310953777 -391.451995849609370 -411.535669962565120
28.767707677987907 -390.209618201622620 -412.135075495793270
5.874674320220947 -379.158142089843750 -414.997283935546870
17.330349922180176 -378.087997436523440 -416.447494506835940
25.478739193507604 -380.742820739746090 -414.076750619070880
28.874599933624268 -383.479751586914060 -410.170875549316410
5.808673302332561 -372.018498738606750 -409.926167805989560
18.471957070486887 -371.978855678013420 -412.713862827845960
23.355866622924804 -373.156034342447920 -411.095401000976550
3.805449962615967 -367.398986816406250 -408.886993408203120
18.511800765991211 -367.450988769531250 -409.295013427734370
21.209424972534180 -366.986495971679690 -408.615493774414060
17.112277560763889 -397.250440809461790 -406.550560845269100
21.614787817001343 -396.554626464843750 -406.711624145507810
9.355957167489189 -388.658285958426350 -406.071001325334810
14.502822568339687 -390.576386482484910 -403.528806624873990
24.324751515542307 -390.051291188886070 -404.236581125567060
8.897155930014218 -381.137706083409910 -402.958591236787700
12.307600021362305 -384.204134114583330 -400.479600016276040
25.897047344006989 -383.244473105982710 -401.134103875411200
28.783433278401692 -380.598086039225280 -405.065086364746090
8.484596872329712 -373.276800537109350 -402.220697021484400
26.986127333207563 -371.351454301313940 -405.535453102805380
28.961263483220879 -373.387087735262810 -402.876911510120750
6.014387305577596 -363.070865885416650 -402.925138346354170
18.456499735514324 -361.981333414713560 -405.705174763997380
24.256903041492809 -364.172243985262810 -403.980364250414310
28.676500320434570 -367.704986572265620 -400.980010986328120
4.116354942321777 -356.449501037597660 -400.779251098632810
16.580685615539551 -354.886433192661850 -401.215356009347090
22.006958643595379 -356.675666809082030 -400.865163167317690
9.587675094604492 -377.561996459960940 -398.175994873046870
15.207636642456055 -380.436365763346370 -396.606998697916650
23.081837495168049 -380.150501251220700 -396.618082682291690
9.178053140640259 -371.814001083374020 -395.709877014160160
13.707825943275735 -372.932408085575790 -392.695703577112280
24.898260116577148 -372.844903564453150 -393.720067342122380
28.570750236511230 -371.231750488281250 -398.417755126953120
8.750108919645610 -364.883156224300990 -394.026426616467920
15.036540126800537 -362.369500732421900 -395.791101074218770
27.052900123596192 -363.637002563476590 -393.226199340820300
28.774091373790394 -363.753454034978690 -396.503642689098000
8.116932233174643 -354.063449435763910 -392.456441243489560
14.383527967664930 -353.787945217556400 -394.515948825412350
24.715338298252650 -354.249001639229900 -396.409191313244040
28.603783607482910 -355.417505900065120 -392.235331217447940
5.010229508082072 -346.810520717075920 -392.772383916945670
15.140627565055057 -346.677207157529610 -395.048513478246210
22.816575938257678 -346.585375555630380 -393.188240840517270
0.582516660292943 -336.963999430338560 -391.679667154947940
2.394229888916016 -338.759994506835940 -390.930999755859370
16.166862487792969 -339.030620574951170 -391.393505096435550
20.975399971008301 -340.116500854492190 -390.380493164062500
16.590166568756104 -369.445999145507810 -389.337498982747380
21.029366811116535 -370.119669596354190 -389.463002522786440
9.289804077148437 -361.646002197265600 -388.764398193359400
14.303134400503977 -363.566314697265620 -386.299598911830340
23.014051790590639 -363.106483742042830 -387.159627278645810
8.650727974741082 -354.429525274979430 -385.415366724917760
14.141900002956390 -355.859561920166020 -383.103376388549800
24.854482848068763 -354.933273841594830 -384.814965609846470
28.520599365234375 -351.746002197265620 -388.917999267578120
7.272524070739746 -346.679501342773450 -385.837701416015650
16.143185888017928 -347.008863176618320 -387.099138532366060
26.626272267308728 -345.544274691877720 -385.322722336341600
28.476550102233887 -346.722000122070310 -386.950500488281250
0.768980994820595 -334.528991699218750 -389.063491821289060
5.504675909324929 -336.277444344979760 -385.843150951244240
15.206221376146589 -334.886141095842620 -387.640860421316970
23.522761314145981 -336.748098065776220 -385.627549694430460
1.068869948387146 -323.298004150390620 -381.045013427734370
2.792627334594727 -329.558197021484370 -383.664267985026020
15.636929617987740 -327.468777126736090 -383.853408248336220
21.733153279622396 -329.371400960286450 -382.624332682291650
0.204330999404192 -321.781509399414060 -381.899993896484380
9.620710372924805 -350.128997802734370 -380.045989990234370
14.947568714618683 -352.419248580932620 -379.609874725341800
21.524266878763836 -351.989501953125000 -380.048670450846370
8.342223993937175 -344.375199381510410 -378.178802490234370
14.450348300318565 -345.466161912487390 -375.574646980531780
23.413731098175049 -345.157500267028810 -377.659717559814450
7.589883307615916 -337.198331197102850 -375.125665028889960
13.654391765594482 -336.860331217447940 -376.878252665201840
5.017996221780777 -328.080432891845700 -376.865625381469730
11.559299945831299 -328.483505249023440 -379.200012207031250
0.629863008856773 -317.657836914062500 -377.424001057942690
4.607001579724825 -318.758767934945920 -375.949768066406250
14.119703865051269 -318.341081542968770 -378.165239257812520
-0.441934791579843 -310.940698242187520 -374.175299072265600
4.032716631889343 -313.236338297526060 -372.756663004557310
13.626952171325684 -311.055695906929370 -374.093954335088310
9.185687541961670 -334.040504455566410 -370.783744812011720
14.259437561035156 -336.032455444335940 -369.776335398356140
7.468662232160568 -327.042499542236330 -368.075751304626460
15.250556260347366 -328.301717758178710 -365.282841682434080
23.986048518000423 -326.707108781144430 -367.524325808963280
5.412619608419913 -318.943813747829840 -366.959330240885440
-0.135811684032281 -306.714833577473940 -370.235499064127620
5.321664234002431 -309.543500264485660 -367.481157938639340
14.396318088878285 -306.799455122514190 -370.275093772194620
25.115737676620483 -311.695629119873050 -366.357250213623050
-1.058667309974369 -300.676947342722030 -367.244739733244220
7.491244708790498 -300.363532571231640 -366.105764950023000
14.642920030866350 -300.955971854073650 -367.125400216238860
19.942350387573242 -302.451995849609370 -363.419998168945310
-2.512154473198785 -293.510559082031250 -364.505442301432310
7.993087863922119 -294.103198242187490 -363.825396728515610
13.005009044300426 -294.584089799360810 -364.118549693714500
13.458666483561197 -323.681325276692690 -362.309005737304690
7.781847817557199 -317.660712105887280 -360.975424630301350
14.626806229352951 -318.304126739501950 -359.796062469482420
5.613708012444633 -309.699370465959820 -358.241570172991090
15.634745717048645 -311.022541046142580 -356.045455932617190
21.249159927368165 -308.936638183593740 -359.872558593750000
-0.166611999273300 -296.294006347656250 -362.480987548828120
3.421248435974121 -300.710526315789480 -357.419528358861040
16.920899963378908 -299.449993896484390 -360.688397216796890
21.050299803415935 -300.196751912434880 -359.110916137695310
-2.346371358091181 -289.743272261186060 -361.146001642400560
5.545252555455917 -291.799254588591740 -358.758203751001590
15.337073522455553 -290.542764102711370 -359.819175271426960
20.277708371480305 -292.879333496093750 -356.431162516276060
-3.462191998958588 -282.832650756835960 -357.561495971679680
6.929772036416190 -283.094927106584810 -356.697001865931900
13.458676815032959 -283.015308086688720 -356.417730478140020
-4.585058552878244 -276.741428920200920 -355.166425432477690
8.315875172615051 -277.096252441406250 -354.423751831054690
10.390600204467773 -277.845001220703120 -354.768005371093750
8.467682600021362 -306.212249755859380 -352.985504150390630
13.551057270595006 -306.945144653320310 -352.887074061802480
6.280349660802771 -300.154444941767960 -350.986186839916120
15.012105913723216 -300.340588737936570 -350.165971643784470
20.101800918579102 -297.614990234375000 -353.221008300781250
0.850950993597507 -288.576507568359370 -349.185745239257810
4.218080541065761 -292.267027936662940 -348.314887346540160
15.509041909248598 -292.936255670362930 -346.974519791141630
20.168372587724164 -291.587091619318190 -351.381000865589500
-0.060317675272624 -282.627334594726560 -347.518335978190120
6.258499920368195 -281.654495239257810 -349.150995890299500
17.674141378963697 -281.881882611443020 -351.167353012982520
19.909616788228352 -283.032338460286440 -347.134501139322940
-3.431205520033836 -273.137448120117200 -350.811952209472680
7.218283653259277 -274.263419703433390 -349.303105404502450
14.645683311280751 -274.011927286783870 -349.198952811104900
-9.224753379821777 -265.288004557291690 -351.312672932942690
-4.938538842731052 -265.426445855034730 -347.334337022569460
7.579888873630100 -265.471886528862850 -346.995666503906250
12.311014243534633 -266.130641392299080 -346.577431815011150
-8.606220245361328 -259.299011230468750 -345.696014404296880
7.027311992645264 -289.115301513671850 -343.366604614257820
12.863746579488119 -289.057995605468760 -343.360866292317720
0.552840347091357 -280.359995524088560 -343.824991861979190
4.807961560785770 -282.521871566772460 -341.163748741149900
14.743602839383213 -282.497332023851810 -341.081605853456440
19.348100662231445 -279.928985595703120 -344.597991943359370
0.090477353943113 -273.938354492187500 -339.913428170340410
5.072108575275967 -274.571570986793180 -339.602235339936780
16.816327677832710 -274.093833075629330 -339.571639166937930
-2.796102105216547 -263.500271883877820 -342.352181174538370
4.585308074951172 -262.173403930664050 -343.730099487304700
16.222570101420086 -264.315833536783830 -341.308199055989580
-9.075244903564453 -252.780494689941410 -341.340255737304690
-4.450301593234762 -256.137998657226550 -340.025040283203110
5.711171767928383 -256.847545970569970 -340.881865067915500
13.644088296329274 -256.314411387724020 -339.424558751723340
-9.253596782684326 -248.525110880533840 -338.192335340711790
-3.375209065278371 -245.286997477213530 -337.165799967447920
5.780805011590322 -247.903165181477870 -337.421999613444030
11.767899703979491 -249.146401977539060 -336.580999755859350
-8.321356773376465 -240.517664591471340 -338.088663736979190
-7.560420036315918 -241.742996215820310 -336.946014404296880
0.826227486133575 -270.475494384765620 -335.430511474609370
5.912153017520905 -272.428147888183620 -334.143899536132840
12.460973421732584 -271.706730143229150 -334.474403889973980
-0.536226071417332 -263.943874359130860 -332.885812759399410
5.648151168456445 -265.026037362905640 -330.061537522536070
14.299927220200047 -264.334847190163370 -332.257421320134940
-2.016171879283017 -256.287664413452150 -330.755625406901060
4.449180024010794 -256.921282087053560 -333.037854875837070
15.427229404449463 -256.359822890337800 -330.745705997242620
-9.176724910736084 -244.434497833251950 -334.301002502441410
-2.890959850870646 -245.524578387920680 -332.560884915865360
5.140647480885188 -244.462916056315090 -334.625668843587220
14.235807112285070 -246.410606929234090 -332.368571690150650
5.329680366516113 -237.571359252929680 -330.495958251953140
12.539041970905505 -238.645318282277970 -329.108106111225310
6.160936752955119 -231.951001485188810 -327.469670613606750
-0.621291303459336 -252.911941528320310 -324.823822021484370
4.912559999001993 -254.880027152396540 -323.474107072160050
11.906433264414469 -253.980000813802090 -325.594668070475280
6.128879490651582 -246.776579204358540 -319.939371209395570
13.729751817111310 -246.403654427363960 -323.131270836139550
-3.398772734338823 -235.988043743631120 -322.321610160495940
14.834223596673263 -237.879025911030030 -322.205841064453120
-2.729174433524410 -228.891199747721340 -321.771064249674450
6.067272844768706 -227.668285551525290 -324.801904587518610
12.918869128594032 -228.496345520019530 -321.809427114633420
-0.820014505181462 -221.322583516438810 -319.294748942057310
5.684049977975733 -220.032293431899120 -320.672911700080420
11.718985557556152 -222.095142909458700 -319.110722133091540
5.237434864044190 -214.324005126953120 -318.296005249023440
-0.378929480910301 -251.674499511718750 -313.953002929687500
5.339249983429909 -254.346374511718750 -314.223688125610350
-0.636898828049501 -245.338799031575520 -315.728000895182280
2.311982344178592 -247.909705666934740 -314.737056956571680
-3.359267083254266 -237.759808804126490 -313.001382381358040
5.666224259596604 -237.742347717285160 -315.217614980844360
12.408814430236816 -235.881786891392300 -316.603504725864980
-3.994837772101164 -229.123999913533540 -313.599000295003240
5.650210592481825 -229.400832282172300 -310.806333753797730
13.266333341598511 -228.712832768758150 -314.209788004557310
-11.718673388163248 -222.453333536783840 -315.705835978190120
-4.270859214166801 -219.284389495849610 -314.413332621256530
7.506184935569763 -215.480751037597660 -317.364250183105470
13.242134284973144 -219.755628749302450 -313.281626674107140
-2.261479249017106 -210.848111046685120 -311.849416944715700
6.089870293935140 -210.269971211751310 -314.190500895182310
12.075875103473663 -211.139999389648440 -311.463497161865230
-0.999678130660738 -204.506286621093750 -310.701145717075920
5.460663348436356 -202.657375335693360 -310.973083496093750
10.812000274658203 -205.501007080078120 -309.337005615234370
6.223120212554932 -253.772994995117190 -308.930999755859370
-5.124844246676990 -227.663857596261150 -307.359715053013420
5.006007492542267 -225.520000457763670 -308.511001586914060
-9.645790100097656 -220.362247467041020 -305.731750488281250
-3.025899006561799 -219.172423391631160 -305.870603619199810
5.865228986740112 -219.730798848470040 -305.414667765299500
11.595191478729248 -218.136915842692050 -307.472668965657530
-8.767751557486397 -211.405140468052450 -304.379141671316970
-4.148063744817462 -210.660928998674680 -303.350537981305820
6.711416468900793 -211.660471299115360 -301.563237807329980
12.295809984207153 -210.963397979736330 -305.192448425292980
-8.289326095581055 -202.224401855468760 -302.518402099609370
-4.181501290337606 -200.727522416548280 -305.483523975719090
6.694023541041783 -199.390854971749430 -307.187358311244400
11.908773018763615 -202.267730712890620 -304.093498816856990
-3.422668217807203 -193.465675147804060 -303.368325723184110
5.931994057990409 -192.820188780088670 -304.935379440720000
11.533699989318848 -194.501996358235690 -301.503835042317690
0.418140746653080 -183.766750335693360 -301.902999877929690
4.553340589298921 -185.466295130112600 -301.508471320657180
-1.905637909968694 -208.093666924370670 -298.916663275824650
4.917627483606339 -208.189874649047850 -299.035625457763670
-8.926247417926788 -201.276376724243160 -297.626003265380860
-3.778877171448299 -201.738800920758930 -295.753969029017870
6.178270564359777 -201.822736403521360 -296.276879703297310
11.236200173695883 -199.134338378906250 -298.472834269205750
-9.123607708857609 -191.909233680138210 -294.640770545372620
-4.563341545022053 -192.433260046917470 -295.502912438434120
7.072315738314674 -193.412141345796130 -292.641716366722450
11.506433232625325 -192.405199178059890 -297.095930989583340
-9.664762769426618 -183.385574340820310 -292.753710065569180
-5.644052680333456 -183.036067708333320 -296.025132242838540
7.615519211842464 -182.549038813664370 -296.837347177358770
11.002609166232022 -185.164636785333810 -294.416634299538370
-9.083770116170248 -177.566665649414060 -291.838338216145810
-3.459456489844756 -174.187786680279340 -294.004696007930870
5.454893325314377 -175.246909401633530 -294.569636489405750
3.474861701329549 -169.014668782552090 -292.044326782226560
-8.011819839477539 -190.067001342773440 -290.380004882812500
-2.696187962042658 -191.350579512746720 -289.264259739925990
4.333706974983215 -190.398199462890630 -289.606802368164040
-9.715453829084124 -183.326857067289810 -287.883764357793890
-3.434412512424830 -183.526459565033780 -284.852054905247030
5.724818468093872 -183.241381476907180 -287.002586813533980
10.761024951934814 -181.307003021240230 -290.269500732421870
-9.878973512088551 -174.917294670553760 -285.790469898897070
-5.255043560266495 -174.994499206542970 -287.103396606445300
7.831250438690185 -175.029119873046880 -285.324597167968760
10.576133410135904 -175.747334798177090 -288.217000325520810
-9.693899917602540 -166.121931966145840 -284.467934163411480
-3.758123890046150 -164.708774689705140 -288.102256528792850
6.231188140132210 -165.109591397372160 -287.791247281161250
-8.414365053176880 -159.795501708984370 -282.791503906250000
-1.714817134170410 -156.743706198299630 -286.538532032686130
-1.119686454534531 -179.666496276855470 -279.474990844726560
-9.327134472983223 -172.670571463448650 -280.215000697544670
-2.692044122652574 -174.863273389411690 -278.563059488932310
3.933603532174054 -173.199409933651200 -279.377419864430120
-10.823274680546351 -165.044000353131960 -277.043573651994960
-3.732042675768887 -165.421147664388030 -275.276444046585650
6.027092695236206 -165.609895388285310 -277.355979919433590
-10.596089522043863 -156.665666368272580 -278.139555189344610
-3.638100763782859 -155.772777981228300 -280.541778564453130
-10.609361171722412 -148.551584243774410 -275.092873891194640
-3.714021096626917 -147.292629100658270 -277.986224139178260
-7.881030082702637 -141.298004150390620 -273.674987792968750
-3.259703423295702 -140.437714712960370 -274.227787562779040
-4.018852472305298 -161.675247192382810 -272.515998840332030
-11.065540514494243 -155.866315339740960 -270.486527292351980
-4.348913751542568 -156.866125742594390 -270.114954630533870
-12.781130052381947 -147.536451278194310 -267.849675332346290
-4.120260983705521 -149.228117101332710 -266.185649198644280
-12.132918871366060 -138.554769075833830 -268.940923837515020
-3.656738242277732 -136.411615224984980 -271.901383620042050
-10.914639450254894 -130.580333528064560 -266.082571847098220
-3.622414293289185 -129.848480224609380 -268.391718750000000
-9.105629920959473 -124.075996398925780 -264.192993164062500
-10.752036730448404 -144.180999755859370 -263.001836140950500
-5.523859034885060 -144.662546331232250 -262.681451970880690
-12.587922439575195 -138.601400146484370 -260.318919677734360
-4.151150069634119 -138.549867248535150 -259.225669352213520
-17.295985630580358 -129.255571637834830 -257.432715279715410
-14.081031371807230 -130.486068988668510 -259.200655180832430
-2.388915313141687 -133.489571707589280 -255.529571533203120
-17.684650421142578 -125.802497863769530 -253.878997802734380
-12.005228845696701 -127.912578381990130 -253.161737542403360
-2.905664276135595 -129.100237996954660 -251.438209533691410
-12.111234273229327 -120.971571786063050 -248.754071371895920
-3.877950299869884 -122.087999517267410 -248.939092462713060
-2.351015838884538 -111.700161349388860 -249.410450596963220
1.705680012702942 -114.626998901367190 -253.429000854492190
-0.689926970750093 -126.014999389648440 -244.845001220703120
3.020083347956339 -126.127332051595050 -244.365000406901030
-9.099532339307997 -117.718665228949650 -243.899778578016480
-4.735143867822794 -121.433768345759460 -241.932578453650850
-12.043655233383179 -112.285639495849610 -241.376419372558590
-6.185782432556152 -109.368124961853030 -244.637001037597660
-11.239715456962585 -103.815324783325200 -238.789583206176760
-3.595709374547005 -102.433355967203780 -242.681767781575530
1.701110005378723 -99.346000671386719 -245.643997192382810
