ply
format ascii 1.0
element vertex 210
property double x
property double y
property double z
end_header
252.996994018554690 -206.990005493164060 -462.651000976562500
257.170932006835930 -208.097533162434900 -466.727799479166660
262.433003743489560 -209.400334676106780 -468.934000651041690
251.491249084472660 -205.187004089355470 -463.411254882812500
244.007499694824220 -207.087997436523440 -453.640991210937500
249.162591414018120 -208.515591708096590 -456.550589821555380
254.404006958007810 -207.871994018554690 -460.980010986328120
242.605083465576170 -202.086082458496090 -454.282999674479190
247.000445895724820 -203.419944763183590 -458.513441297743040
216.537994384765620 -206.248992919921870 -444.247985839843750
222.361503601074220 -207.382499694824220 -445.522003173828120
229.030334472656250 -209.689331054687500 -447.830668131510440
241.074253082275390 -208.143749237060550 -452.166755676269530
222.469329833984380 -205.902328491210940 -444.680002848307310
230.443402099609390 -201.365998840332030 -446.255905151367190
238.411390885062840 -201.711217465608030 -450.973043690557060
233.094497680664060 -194.753250122070310 -446.811504364013670
237.270252227783200 -195.827495574951170 -451.148498535156250
205.899998982747410 -198.814442952473970 -438.219000922309020
213.013642992292120 -201.147607530866340 -439.005961826869400
221.537332534790040 -200.649000803629550 -440.334083557128910
227.935998099190840 -198.786854335239950 -442.677568708147310
202.272994995117190 -196.509002685546870 -434.986999511718750
223.915199279785160 -195.094396972656260 -437.387899780273410
227.840332031250000 -193.588556925455720 -441.132778591579840
205.258097839355460 -197.660700988769520 -430.137796020507840
211.652750015258790 -198.111875534057620 -430.485250473022460
196.439819335937500 -193.542544278231530 -428.725818980823870
201.112874984741210 -196.237249374389650 -430.971252441406250
215.179624557495120 -196.029624938964840 -428.015876770019530
219.905799865722660 -193.914102172851560 -430.504299926757820
198.499669392903660 -197.682668050130220 -418.937001546223940
203.750599161783870 -197.779065958658860 -422.068334960937480
209.330001831054690 -197.450500488281250 -425.077499389648440
189.583994547526030 -190.564000447591160 -418.439656575520810
193.978600638253340 -193.584799630301350 -421.552656773158500
204.312252044677730 -196.750747680664060 -420.032752990722660
211.655843634354450 -195.099580463610210 -421.679844906455570
188.881999969482420 -187.763999938964840 -419.493995666503910
188.462997436523440 -198.381332397460940 -408.902669270833310
194.594773032448500 -198.121362165971250 -412.182730934836630
201.167499542236330 -197.598625183105470 -413.185123443603520
186.985311047784220 -192.866000471443950 -412.357103018925100
191.434799194335940 -195.153201293945300 -415.999395751953100
205.378076406625610 -196.224690363957340 -412.369077242337770
209.621143886021200 -195.449142456054690 -412.632712227957600
186.510505676269530 -187.721000671386720 -411.940002441406250
178.369584401448580 -198.804583231608060 -401.435585021972660
185.419957036557410 -199.347825423530910 -403.510913351307750
194.826705932617190 -200.509323568905100 -403.275382546817580
202.974889119466160 -200.679667154947910 -404.815053304036440
208.328002929687500 -198.458999633789060 -407.644012451171870
178.909945170084630 -193.234831915961370 -401.822669135199650
182.498899841308600 -192.095199584960940 -406.028601074218730
180.520004272460940 -187.746002197265620 -399.882507324218750
183.052001953125000 -187.733668009440090 -405.013661702473940
142.836001586914050 -206.840600585937490 -391.744995117187500
178.320007324218750 -207.210998535156250 -390.483001708984370
141.788198852539070 -205.016400146484390 -392.368603515625010
151.449501037597660 -200.901504516601560 -391.219497680664060
158.997631675318670 -200.655789023951480 -391.540424547697340
167.954400634765620 -201.707800801595060 -393.555465698242190
175.938500976562490 -202.340332031250000 -395.142566935221340
185.957454334605810 -202.080044833096590 -394.156864513050440
192.367001851399750 -204.118556552463100 -395.964719984266480
161.414505004882810 -195.953002929687500 -393.544006347656250
168.991499764578690 -193.590072631835940 -394.937434605189710
175.206588745117190 -191.777411965762870 -397.055586870978860
170.386001586914060 -187.735992431640620 -395.174011230468750
176.115666707356780 -187.635665893554690 -396.156331380208310
22.615200042724609 -319.822998046875000 -381.006988525390620
121.113498687744140 -207.618495941162110 -382.848503112792970
134.491099548339830 -208.165499877929680 -383.002899169921870
141.099833170572910 -209.409333801269530 -384.578467814127580
150.187545776367190 -209.489909085360440 -383.777180064808250
158.152314838610210 -208.109209562602790 -384.987364116467920
167.219468180338540 -207.745066324869780 -384.118601481119810
175.905165990193690 -208.874082565307620 -386.320915222167970
126.954002380371090 -202.951995849609370 -382.470001220703120
132.138624191284180 -204.172438621521000 -384.267936706542970
138.069831848144530 -205.117332458496090 -388.352330525716130
149.859143938337040 -203.988069806780150 -387.982999529157380
157.310779147677950 -204.695665147569460 -388.859330919053830
167.454246520996090 -206.036247253417970 -389.119995117187500
185.876166025797520 -203.766084035237640 -387.727249145507810
190.494995117187500 -205.658996582031250 -388.911987304687500
25.293529651783132 -337.073627613208880 -375.371889467592610
25.288923873901368 -327.058197021484370 -377.281323242187510
28.552499771118164 -323.760986328125000 -372.942993164062500
24.428950150807697 -319.118127187093080 -376.953750610351560
29.017450014750164 -318.651840209960940 -373.181666056315120
26.545890894803133 -311.039908669211630 -374.067861383611500
28.510200023651123 -310.717742919921870 -373.070251464843750
44.719820404052733 -275.203009033203100 -377.914398193359370
49.828927126797765 -273.299634066495000 -376.111088145862940
52.315615433913010 -265.931459867037230 -378.244229830228390
57.474750518798828 -261.764495849609370 -375.958511352539060
54.589700063069664 -256.340998331705750 -378.019337972005190
59.156622015911601 -256.078911822775130 -375.813999341881810
68.432326253255212 -245.060663859049470 -376.938533528645850
71.438714163643979 -239.884713309151780 -376.284000941685290
74.836275100708008 -239.177246093750000 -374.636497497558590
105.242700958251960 -219.184800720214840 -372.834197998046870
113.908444722493480 -217.984887017144100 -374.941723293728270
122.236045143821020 -217.191725990989000 -375.330728704279120
130.670199584960930 -216.541899108886720 -376.791699218750010
140.473251342773440 -216.249748229980470 -373.971244812011720
123.238732910156240 -211.280400594075530 -377.665732828776020
131.425083478291840 -211.077916463216160 -378.556583404541020
141.832249959309910 -213.529666900634770 -376.294502258300780
149.533100891113290 -210.609966532389340 -374.491434733072940
158.722044571586280 -208.052739018979280 -376.614562988281250
167.921822940602030 -208.939883063821240 -376.636061724494480
172.970998128255220 -209.998667399088530 -379.756998697916690
126.471398925781240 -204.496597290039060 -378.558209228515640
128.015502929687500 -205.112503051757810 -379.354003906250000
21.952750444412231 -333.956748962402340 -370.484119415283200
30.242050170898438 -323.690002441406250 -366.994995117187500
23.648273965586785 -318.783260179602560 -365.984915028447690
30.690053939819336 -318.394997229942930 -366.742344782902650
33.060643282803625 -309.307001287286940 -368.480432683771310
38.460315159388948 -306.525285993303560 -365.591565813337070
32.869620553378404 -301.303412075700410 -369.596276645002720
41.793764990729258 -300.523971145217500 -366.190214414854320
46.915634155273437 -296.856669108072940 -365.282999674479190
36.463749885559082 -292.741996765136720 -368.980499267578120
41.490225756609881 -292.032225432219320 -367.727147985387720
48.764335407930261 -291.669410256778520 -364.447118422564360
45.449399948120117 -284.684494018554690 -368.029510498046870
51.039178948653372 -282.707577354029580 -366.258580258018070
57.454283396402992 -281.395828247070310 -364.335006713867190
52.519077301025391 -274.580773093483690 -368.429547396573130
58.129099782307939 -273.392699178059900 -365.846866861979150
54.396198272705078 -267.709014892578120 -368.871002197265620
59.933012120863971 -265.316470875459570 -366.002351648667290
65.258800506591797 -264.589004516601560 -364.426498413085940
62.107080078125001 -256.540399169921900 -367.469396972656230
68.768305884467225 -254.688084072536900 -366.422278510199650
75.117176055908203 -252.463626861572270 -364.544616699218750
71.142886861165366 -248.008734130859380 -366.866330973307300
76.081495602925614 -246.973665237426760 -364.542208353678400
90.449798583984375 -243.652999877929690 -364.480987548828120
78.206830705915181 -240.315285818917400 -365.094286237444180
87.745993205479209 -236.943213871547160 -365.926716395786850
94.919487476348877 -237.282499313354490 -366.245813369750980
103.276134236653650 -235.816867065429680 -366.790401204427100
90.008501052856445 -230.298999786376950 -367.372505187988280
96.263774236043290 -229.567832946777340 -367.947662353515620
104.102590734308420 -228.567227450284090 -369.812685879794060
111.504499435424800 -227.165000915527340 -370.882751464843750
120.376998901367190 -229.111999511718750 -363.404998779296870
105.560556199815540 -222.782665676540800 -371.383663601345460
110.808500289916990 -221.905502319335940 -371.563003540039060
118.723999023437500 -222.251007080078120 -371.673004150390620
138.912082672119140 -217.027749379475920 -368.139831542968750
142.900863647460940 -212.513500560413720 -367.506405917080940
148.326101895036370 -208.034412778657070 -369.395240520608810
160.363998413085940 -206.337997436523440 -370.765014648437500
149.998331705729160 -205.498001098632810 -367.428670247395810
157.021569388253340 -205.604856218610480 -369.865713936941970
27.412633260091145 -324.461334228515620 -360.351328531901060
31.465439987182616 -325.256396484374990 -360.435198974609360
24.568711174858940 -318.527893066406250 -360.775661892361090
30.860209419613792 -318.697524297805050 -358.868903750465050
31.496853555951798 -309.643856593540760 -360.230251857212640
33.533680152893069 -301.264050292968760 -359.242750549316380
40.837137699127197 -299.701313018798830 -361.514623641967770
36.438249588012695 -294.772491455078120 -358.831497192382810
42.365400178091868 -291.698464529854900 -358.028820582798570
49.307856292724608 -290.094517822265630 -360.056601562500020
56.065601348876953 -289.352996826171880 -362.811004638671870
43.390486580984934 -284.689858572823650 -354.917851039341540
51.522600173950195 -283.671842575073240 -357.724220275878910
57.970727284749351 -281.328391181098080 -360.048056708441830
51.471533711751299 -275.159195963541660 -355.660398356119800
60.270596949259442 -274.458335367838520 -357.838068644205750
66.945808742357343 -271.952346138332190 -360.324874214504060
60.446178436279297 -265.976779513888910 -357.189554850260440
68.832399451214329 -265.598129935886560 -357.888825789741870
76.095805897432214 -262.765707576976130 -358.997353946461370
70.486020660400385 -258.332501220703140 -356.479602050781240
78.036962721082901 -256.690665916160300 -356.460593894675920
85.692418779645649 -254.024905250186010 -359.928952171688990
92.500701904296875 -251.882003784179690 -354.529998779296870
79.751886640276226 -247.122571672712040 -362.603711809430820
89.267485482352114 -249.387143816266730 -359.951712472098220
94.072665623256142 -246.937142508370530 -357.232214791434160
105.388529609231380 -237.505352244657620 -356.774941837086370
110.391998291015620 -233.662994384765620 -358.994995117187500
114.241367085774740 -229.479200744628910 -357.397266642252590
119.505249977111820 -226.228878021240230 -358.364376068115230
122.079999287923170 -222.532224867078980 -355.496778700086790
129.103001912434910 -221.592000325520840 -355.602661132812500
139.679265340169280 -217.384666951497390 -359.747135416666650
143.431091308593750 -212.002999045632090 -360.777546275745750
146.287002563476560 -207.600006103515620 -362.963012695312500
44.167098999023438 -281.782989501953120 -353.307006835937500
78.810728890555239 -253.633571079799110 -353.374428885323650
84.758867899576828 -252.194335937500000 -353.368830362955750
79.508050918579102 -248.743747711181640 -353.097251892089840
87.128666559855148 -247.224167505900060 -351.567418416341130
94.967226155598965 -244.476399739583340 -350.767063395182280
100.646003723144530 -242.158004760742190 -348.688995361328120
96.427434285481766 -241.544665018717440 -348.127833048502620
105.191999707903180 -237.719571794782350 -350.083964756556900
109.408996582031250 -234.453002929687500 -345.361999511718750
109.163665771484370 -232.191004435221340 -350.956665039062500
111.978159790039060 -227.900958862304690 -350.672078857421870
115.398999532063800 -223.277664184570310 -351.995676676432310
121.450833638509110 -221.485333760579440 -352.344334920247380
