ply
format ascii 1.0
element vertex 359
property double x
property double y
property double z
end_header
-60.514099121093750 12.280200004577637 -7.474500179290772
-57.646099090576172 16.915899276733398 -4.191860198974609
-62.253101348876953 9.139530181884766 -5.841239929199219
-66.881103515625000 10.605099678039551 -4.589230060577393
-63.635501861572266 9.517569541931152 -5.593389987945557
-68.463096618652344 12.014499664306641 -4.372330188751221
-65.291702270507812 10.763400077819824 -5.748919963836670
-66.386596679687500 11.296799659729004 -5.418680191040039
-64.031501770019531 10.182499885559082 -6.378630161285400
-70.043098449707031 13.520199775695801 -4.438159942626953
-70.088500976562500 13.424699783325195 -4.684790134429932
-59.004199981689453 16.928699493408203 -5.780759811401367
-68.031997680664062 12.600600242614746 -5.520480155944824
-66.976303100585937 12.064200401306152 -5.910120010375977
-58.259799957275391 19.894699096679687 -5.147069931030273
-59.554599761962891 13.929200172424316 -6.814430236816406
-64.971099853515625 11.217200279235840 -6.853280067443848
-63.703701019287109 10.847200393676758 -7.269529819488525
-58.973999023437500 18.427299499511719 -5.832910060882568
-60.514099121093750 12.280200004577637 -7.474500179290772
-58.162498474121094 21.351900100708008 -5.173930168151856
-59.550998687744141 15.415499687194824 -6.825789928436279
-69.613800048828125 14.000000000000000 -5.599199771881104
-68.586196899414063 13.423500061035156 -6.026959896087647
-58.943500518798828 19.942699432373047 -5.902840137481690
-59.661201477050781 16.847900390625000 -6.781139850616455
-60.365200042724609 13.797400474548340 -7.654500007629395
-60.927398681640625 12.667699813842773 -7.947619915008545
-66.597297668457031 12.515299797058105 -7.064909934997559
-65.308700561523438 12.208200454711914 -7.406869888305664
-67.603302001953125 13.100999832153320 -6.742760181427002
-59.700298309326172 18.336799621582031 -6.690020084381104
-72.113800048828125 15.975899696350098 -5.168479919433594
-71.146202087402344 15.452599525451660 -5.631370067596436
-58.853000640869141 21.404499053955078 -6.104450225830078
-60.326400756835937 15.396200180053711 -7.698359966278076
-62.272098541259766 12.534299850463867 -8.244830131530762
-70.165702819824219 14.894100189208984 -6.109439849853516
-59.643600463867188 19.868900299072266 -6.647130012512207
-60.827999114990234 14.011400222778320 -8.230560302734375
-60.385200500488281 16.971000671386719 -7.492899894714356
-63.692401885986328 12.553700447082520 -8.282429695129395
-69.158699035644531 14.516099929809570 -6.709119796752930
-59.402801513671875 24.380199432373047 -5.509829998016357
-68.146400451660156 13.956399917602539 -7.134560108184815
-58.862701416015625 22.944700241088867 -6.124460220336914
-73.543296813964844 17.551399230957031 -5.127679824829102
-65.113296508789063 12.656499862670898 -8.162810325622559
-67.000602722167969 13.589200019836426 -7.609799861907959
-59.632801055908203 21.403699874877930 -6.611229896545410
-60.863899230957031 15.464699745178223 -8.242989540100098
-72.647598266601562 16.951799392700195 -5.636700153350830
-60.420501708984375 18.450099945068359 -7.436460018157959
-72.703300476074219 16.897800445556641 -5.682350158691406
-62.190399169921875 13.928999900817871 -8.617529869079590
-71.654800415039062 16.435199737548828 -6.191239833831787
-70.613502502441406 15.964900016784668 -6.705140113830566
-60.936401367187500 16.933500289916992 -8.205269813537598
-60.500598907470703 19.936300277709961 -7.375609874725342
-69.667800903320313 15.432200431823730 -7.153450012207031
-63.667701721191406 13.888899803161621 -8.770919799804688
-68.600997924804688 14.941300392150879 -7.671649932861328
-66.561401367187500 14.125100135803223 -8.331279754638672
-67.698799133300781 14.435299873352051 -8.045269966125488
-65.182601928710937 13.902400016784668 -8.706100463867188
-61.125801086425781 18.329500198364258 -8.115420341491699
-74.250602722167969 18.341400146484375 -5.740290164947510
-60.566600799560547 21.427700042724609 -7.305640220642090
-62.129798889160156 15.388199806213379 -8.867320060729981
-73.162300109863281 17.915800094604492 -6.156579971313477
-72.108398437500000 17.459899902343750 -6.681600093841553
-61.239898681640625 19.814300537109375 -7.984310150146484
-59.576400756835938 25.842100143432617 -6.464769840240479
-62.118000030517578 16.913200378417969 -8.808279991149902
-71.188003540039063 16.911399841308594 -7.170899868011475
-60.609298706054688 22.928199768066406 -7.274380207061768
-75.446403503417969 20.084699630737305 -5.487870216369629
-63.643699645996094 15.323900222778320 -9.148940086364746
-70.218696594238281 16.396200180053711 -7.704649925231934
-69.188301086425781 15.910400390625000 -8.111749649047852
-65.227897644042969 15.283399581909180 -9.105699539184570
-68.116203308105469 15.525899887084961 -8.515110015869141
-60.667598724365234 24.421100616455078 -7.186260223388672
-62.117298126220703 18.423700332641602 -8.774450302124023
-74.673797607421875 19.484399795532227 -6.171040058135986
-66.740898132324219 15.297499656677246 -8.932929992675781
-73.643402099609375 18.916599273681641 -6.606249809265137
-72.654403686523438 18.441699981689453 -7.140200138092041
-60.713100433349609 25.901800155639648 -7.087870121002197
-63.545398712158203 16.840000152587891 -9.331080436706543
-62.184200286865234 19.917699813842773 -8.659070014953613
-71.697799682617188 17.930799484252930 -7.658209800720215
-70.693496704101562 17.384300231933594 -8.153840065002441
-62.288398742675781 21.400800704956055 -8.519669532775879
-69.639099121093750 16.977500915527344 -8.577830314636231
-61.837600708007812 24.545900344848633 -7.801239967346191
-76.190399169921875 20.981700897216797 -6.279489994049072
-62.269798278808594 27.334400177001953 -6.997360229492188
-68.332099914550781 16.712099075317383 -9.128330230712891
-74.093803405761719 19.995800018310547 -7.081379890441895
-62.367298126220703 22.874099731445313 -8.376190185546875
-62.006900787353516 26.030599594116211 -7.517720222473145
-65.208297729492188 17.009599685668945 -9.750349998474121
-63.886798858642578 18.457199096679687 -9.571539878845215
-73.143402099609375 19.510400772094727 -7.636429786682129
-60.627799987792969 27.418100357055664 -7.564650058746338
-62.469600677490234 24.321300506591797 -8.206159591674805
-63.312900543212891 19.986299514770508 -9.379690170288086
-72.144500732421875 18.890699386596680 -8.111410140991211
-66.622001647949219 17.091199874877930 -9.711259841918945
-62.256000518798828 28.853599548339844 -6.939340114593506
-68.030502319335938 17.218399047851563 -9.504570007324219
-71.162200927734375 18.436300277709961 -8.642860412597656
-63.313201904296875 21.519800186157227 -9.217479705810547
-75.564201354980469 21.526500701904297 -7.042250156402588
-63.908500671386719 19.935400009155273 -9.678649902343750
-63.786701202392578 28.827400207519531 -7.000999927520752
-65.214996337890625 18.447399139404297 -9.982029914855957
-69.943702697753906 18.127500534057617 -9.261730194091797
-63.409400939941406 27.614400863647461 -7.635859966278076
-63.429199218750000 22.993400573730469 -9.051639556884766
-74.578002929687500 21.038200378417969 -7.653140068054199
-73.525802612304688 20.452400207519531 -8.083720207214356
-64.010803222656250 21.336599349975586 -9.659480094909668
-63.567001342773438 24.464899063110352 -8.835459709167481
-66.681701660156250 18.432500839233398 -10.119799613952637
-72.614097595214844 19.975799560546875 -8.592780113220215
-68.111099243164063 18.525299072265625 -9.939240455627441
-69.491996765136719 18.670000076293945 -9.666199684143066
-63.766799926757813 25.877399444580078 -8.538180351257324
-64.096603393554688 27.164199829101563 -8.124489784240723
-65.189399719238281 19.922599792480469 -10.132300376892090
-64.121299743652344 22.795700073242188 -9.504030227661133
-71.517997741699219 19.628999710083008 -9.145689964294434
-64.855102539062500 29.138599395751953 -7.540530204772949
-65.237396240234375 30.387199401855469 -7.101880073547363
-77.236099243164062 22.854299545288086 -7.252260208129883
-76.053802490234375 22.478399276733398 -7.800119876861572
-74.025199890136719 21.544099807739258 -8.491539955139160
-65.134902954101563 21.424100875854492 -10.247799873352051
-66.681297302246094 19.816999435424805 -10.517900466918945
-73.038299560546875 21.097299575805664 -9.076519966125488
-69.661102294921875 19.944900512695313 -10.091899871826172
-71.050102233886719 20.088600158691406 -9.795619964599609
-68.230300903320313 19.836099624633789 -10.411399841308594
-64.801101684570313 26.094699859619141 -9.180390357971191
-65.119300842285156 27.456499099731445 -8.739500045776367
-65.513999938964844 28.666900634765625 -8.313409805297852
-65.181503295898438 22.918199539184570 -10.162500381469727
-66.675102233886719 31.921600341796875 -7.168869972229004
-66.115997314453125 30.732799530029297 -7.794469833374023
-75.497398376464844 23.091299057006836 -8.445369720458984
-77.566101074218750 23.930700302124023 -7.878540039062500
-65.290397644042969 24.378700256347656 -9.996190071105957
-66.533798217773438 21.363899230957031 -10.741200447082520
-78.823600769042969 23.966600418090820 -7.751820087432861
-74.465896606445313 22.669099807739258 -9.004469871520996
-65.479598999023437 25.812799453735352 -9.758259773254395
-72.460502624511719 21.622900009155273 -9.838829994201660
-65.739601135253906 27.127899169921875 -9.474630355834961
-71.215797424316406 21.367900848388672 -10.252900123596191
-69.799896240234375 21.164199829101563 -10.620800018310547
-66.056297302246094 27.784200668334961 -9.348449707031250
-66.414901733398438 29.087699890136719 -8.906149864196777
-66.403900146484375 22.989200592041016 -10.773300170898438
-66.810096740722656 30.329399108886719 -8.533020019531250
-77.001197814941406 24.609899520874023 -8.456950187683106
-78.368301391601562 24.881099700927734 -8.125309944152832
-67.272102355957031 31.611299514770508 -8.173749923706055
-68.132400512695313 21.628200531005859 -11.096300125122070
-75.940696716308594 24.178499221801758 -8.992420196533203
-66.375701904296875 24.489000320434570 -10.648599624633789
-69.497802734375000 21.776800155639648 -11.001700401306152
-73.920501708984375 23.162200927734375 -9.839200019836426
-66.499603271484375 25.979999542236328 -10.432700157165527
-72.778198242187500 22.809099197387695 -10.326600074768066
-66.694702148437500 27.413000106811523 -10.146800041198730
-67.031097412109375 24.366399765014648 -11.014300346374512
-71.427101135253906 22.583299636840820 -10.835499763488770
-67.031799316406250 28.718399047851563 -9.785980224609375
-68.243103027343750 22.965700149536133 -11.403699874877930
-67.624603271484375 30.736700057983398 -9.164030075073242
-78.684700012207031 25.913099288940430 -8.670860290527344
-77.451301574707031 25.631299972534180 -9.073869705200195
-67.944503784179688 32.036499023437500 -8.875269889831543
-75.423698425292969 24.678400039672852 -9.839859962463379
-69.650802612304688 22.989400863647461 -11.452899932861328
-71.053901672363281 23.127199172973633 -11.202899932861328
-68.209999084472656 33.407100677490234 -8.635029792785645
-74.330200195312500 24.260400772094727 -10.389200210571289
-68.238197326660156 24.419500350952148 -11.522100448608398
-72.977096557617188 23.977600097656250 -10.908300399780273
-67.690200805664062 27.584899902343750 -10.869899749755859
-67.898399353027344 29.044500350952148 -10.489299774169922
-68.270202636718750 30.366600036621094 -10.082400321960449
-76.983398437500000 26.126499176025391 -9.878660202026367
-68.241600036621094 25.917200088500977 -11.541899681091309
-68.648803710937500 31.641399383544922 -9.737420082092285
-69.619400024414063 24.390399932861328 -11.912400245666504
-68.917900085449219 33.058101654052734 -9.437299728393555
-73.866798400878906 24.832899093627930 -11.067700386047363
-75.877098083496094 25.694999694824219 -10.442099571228027
-71.197998046875000 24.383800506591797 -11.751199722290039
-72.606597900390625 24.549900054931641 -11.451800346374512
-68.353698730468750 27.365699768066406 -11.392399787902832
-68.562500000000000 28.784999847412109 -11.202500343322754
-69.582801818847656 25.889999389648438 -11.990500450134277
-69.138603210449219 30.685699462890625 -10.779899597167969
-78.567497253417969 27.563499450683594 -10.008899688720703
-79.869796752929688 27.909400939941406 -9.677900314331055
-69.413803100585937 32.060199737548828 -10.409099578857422
-77.438400268554688 27.135099411010742 -10.479399681091309
-69.751701354980469 33.381401062011719 -10.093799591064453
-75.427902221679688 26.270799636840820 -11.222800254821777
-69.480400085449219 27.443099975585938 -12.024800300598145
-71.134498596191406 25.794799804687500 -12.236000061035156
-74.180099487304688 25.919200897216797 -11.662799835205078
-72.795501708984375 25.683900833129883 -12.050299644470215
-69.786499023437500 34.895900726318359 -10.040900230407715
-69.774803161621094 30.369600296020508 -11.562399864196777
-70.086700439453125 31.703699111938477 -11.248600006103516
-72.486099243164063 26.325700759887695 -12.508899688720703
-78.147102355957031 28.152900695800781 -10.961199760437012
-70.399200439453125 33.059398651123047 -10.935500144958496
-76.968002319335938 27.673200607299805 -11.395500183105469
-75.788902282714844 27.275600433349609 -11.846300125122070
-70.524803161621094 33.686798095703125 -10.871299743652344
-69.554801940917969 36.394901275634766 -10.333399772644043
-74.364997863769531 26.996900558471680 -12.319700241088867
-71.308799743652344 27.479799270629883 -12.789899826049805
-70.733299255371094 30.626399993896484 -12.247699737548828
-70.962402343750000 32.013900756835937 -11.894100189208984
-72.667900085449219 27.483600616455078 -13.039099693298340
-71.335197448730469 28.882999420166016 -12.866100311279297
-74.105697631835938 27.610000610351563 -12.829400062561035
-70.663200378417969 36.425201416015625 -10.787599563598633
-71.235099792480469 33.392601013183594 -11.611100196838379
-75.418403625488281 27.867500305175781 -12.534099578857422
-78.661697387695313 28.949699401855469 -11.635800361633301
-79.942901611328125 29.358299255371094 -11.307100296020508
-77.421997070312500 28.492200851440430 -12.073699951171875
-71.442703247070312 30.324600219726563 -12.742400169372559
-71.426200866699219 34.842601776123047 -11.414199829101563
-71.622703552246094 31.727300643920898 -12.597499847412109
-72.567802429199219 28.893400192260742 -13.428700447082520
-71.417198181152344 36.394199371337891 -11.374300003051758
-71.907997131347656 33.120498657226562 -12.429599761962891
-72.036003112792969 33.658798217773437 -12.284500122070313
-74.222396850585937 28.762100219726563 -13.411600112915039
-75.699203491210938 28.872299194335938 -13.219599723815918
-77.071701049804687 29.141599655151367 -12.948900222778320
-78.386497497558594 29.503700256347656 -12.600600242614746
-72.537803649902344 30.400199890136719 -13.436300277709961
-72.223800659179688 35.048801422119141 -12.134699821472168
-72.396697998046875 36.487800598144531 -11.963600158691406
-72.560897827148437 31.948699951171875 -13.317600250244141
-72.733100891113281 33.405399322509766 -13.109700202941895
-72.945198059082031 34.826698303222656 -12.898799896240234
-75.778099060058594 29.907699584960938 -13.879199981689453
-77.359703063964844 30.000000000000000 -13.616499900817871
-78.761299133300781 30.223199844360352 -13.332400321960449
-80.125099182128906 30.557100296020508 -13.047100067138672
-73.241096496582031 31.817499160766602 -13.979100227355957
-73.100601196289063 36.354598999023438 -12.736200332641602
-81.616096496582031 30.666999816894531 -12.947299957275391
-74.224502563476562 30.439300537109375 -14.572099685668945
-73.566802978515625 33.549800872802734 -13.829600334167480
-73.192298889160156 37.829799652099609 -12.609900474548340
-75.674797058105469 30.565599441528320 -14.444299697875977
-77.104301452636719 30.708900451660156 -14.333000183105469
-73.730697631835938 35.028099060058594 -13.638299942016602
-74.227897644042969 31.913000106811523 -14.589099884033203
-78.531997680664063 30.922800064086914 -14.166500091552734
-73.904502868652344 36.473999023437500 -13.456299781799316
-79.998397827148438 31.133899688720703 -13.986800193786621
-74.333099365234375 33.387401580810547 -14.496199607849121
-74.013801574707031 37.941898345947266 -13.348099708557129
-74.440498352050781 34.861598968505859 -14.388600349426270
-75.427803039550781 31.779100418090820 -15.209600448608398
-77.217399597167969 31.631200790405273 -15.052900314331055
-74.644699096679688 36.303798675537109 -14.167900085449219
-78.746101379394531 31.674100875854492 -14.931200027465820
-80.200798034667969 31.819700241088867 -14.758899688720703
-75.245498657226562 33.453899383544922 -15.185500144958496
-73.837600708007812 39.371498107910156 -13.682399749755859
-75.904403686523438 32.139198303222656 -15.551799774169922
-74.747497558593750 37.841300964355469 -14.042499542236328
-81.685798645019531 31.864200592041016 -14.714200019836426
-75.350799560546875 34.999801635742187 -15.043399810791016
-77.137603759765625 32.281799316406250 -15.656000137329102
-75.897796630859375 33.409599304199219 -15.684700012207031
-75.411499023437500 36.475799560546875 -14.923299789428711
-78.591697692871094 32.406501770019531 -15.600999832153320
-80.089202880859375 32.529499053955078 -15.486300468444824
-75.591697692871094 37.935600280761719 -14.760299682617188
-76.060997009277344 34.853500366210938 -15.728199958801270
-81.641502380371094 32.577999114990234 -15.475199699401855
-75.742202758789063 39.407901763916016 -14.603899955749512
-77.160499572753906 33.339698791503906 -16.283100128173828
-76.153999328613281 36.304500579833984 -15.694199562072754
-78.686996459960938 33.309398651123047 -16.299600601196289
-76.363998413085938 37.797199249267578 -15.520799636840820
-80.187896728515625 33.349700927734375 -16.233200073242188
-83.200500488281250 31.953800201416016 -16.114099502563477
-77.022499084472656 34.896598815917969 -16.363599777221680
-81.680397033691406 33.334800720214844 -16.251699447631836
-76.411903381347656 39.347999572753906 -15.436300277709961
-76.949798583984375 36.469100952148438 -16.385799407958984
-78.627799987792969 34.018600463867188 -16.934600830078125
-77.604896545410156 34.941001892089844 -17.065200805664063
-77.035499572753906 37.943401336669922 -16.281799316406250
-80.139198303222656 34.056301116943359 -16.950300216674805
-82.922996520996094 32.882598876953125 -16.807300567626953
-81.704902648925781 34.051101684570313 -16.987100601196289
-77.087799072265625 39.425899505615234 -16.235599517822266
-77.630401611328125 36.370998382568359 -17.218500137329102
-78.706298828125000 34.968399047851563 -17.565399169921875
-77.214797973632813 40.918998718261719 -16.144500732421875
-80.175300598144531 34.987998962402344 -17.572500228881836
-83.260101318359375 33.599098205566406 -17.460100173950195
-77.718902587890625 37.853298187255859 -17.225400924682617
-78.488899230957031 36.377700805664063 -17.864299774169922
-81.653999328613281 34.752498626708984 -17.840499877929688
-77.794799804687500 39.436298370361328 -17.249099731445313
-78.460700988769531 37.889801025390625 -17.845600128173828
-83.041000366210938 34.523799896240234 -18.101400375366211
-77.629699707031250 41.004798889160156 -17.366399765014648
-77.716102600097656 41.014400482177734 -17.374399185180664
-79.170898437500000 36.557899475097656 -18.489299774169922
-78.269599914550781 39.392398834228516 -17.941999435424805
-81.790397644042969 35.464199066162109 -18.544300079345703
-80.279296875000000 36.551998138427734 -18.916999816894531
-84.775299072265625 33.499698638916016 -19.040800094604492
-79.127296447753906 38.030200958251953 -18.725099563598633
-83.287002563476563 35.139598846435547 -18.900400161743164
-81.668403625488281 36.352500915527344 -19.239099502563477
-84.562301635742188 34.752799987792969 -19.379800796508789
-78.937500000000000 39.456798553466797 -18.982900619506836
-79.981201171875000 37.808998107910156 -19.410299301147461
-83.061798095703125 36.158000946044922 -19.485200881958008
-79.065803527832031 40.985099792480469 -18.914100646972656
-81.261901855468750 37.484001159667969 -19.845800399780273
-79.672698974609375 39.330398559570313 -19.605100631713867
-81.828697204589844 37.021701812744141 -19.943199157714844
-78.457397460937500 40.831001281738281 -19.408800125122070
-80.597099304199219 38.028400421142578 -20.176500320434570
-79.743896484375000 40.630401611328125 -19.619100570678711
-83.307098388671875 36.869201660156250 -20.190500259399414
-81.700202941894531 37.955799102783203 -20.614599227905273
-80.391197204589844 39.476501464843750 -20.467800140380859
-84.588500976562500 36.306198120117187 -20.804599761962891
-83.115402221679688 37.681499481201172 -20.919300079345703
-80.163696289062500 40.909900665283203 -20.680599212646484
-81.389503479003906 39.276401519775391 -20.976600646972656
-84.422897338867187 37.612899780273438 -21.128700256347656
-84.291702270507813 37.401901245117188 -21.366500854492188
-83.290496826171875 38.435001373291016 -21.574899673461914
-81.817703247070313 39.654701232910156 -21.804599761962891
-83.183998107910156 39.432399749755859 -22.144899368286133
