ply
format ascii 1.0
element vertex 559
property double x
property double y
property double z
end_header
-30.867500305175781 0.926910996437073 42.327400207519531
-30.582199096679687 1.960199952125549 42.294498443603516
-29.906700134277344 1.402729988098145 41.816699981689453
-31.443599700927734 0.664158999919891 43.752498626708984
-32.376098632812500 0.405252009630203 42.833301544189453
-30.700300216674805 2.438260078430176 41.336200714111328
-30.721500396728516 1.886430025100708 43.867401123046875
-30.819299697875977 2.944180011749268 42.823699951171875
-31.171100616455078 1.254209995269775 44.489700317382813
-32.380798339843750 0.917441010475159 44.335800170898437
-30.717500686645508 3.445189952850342 43.811599731445313
-30.910999298095703 3.923599958419800 42.326198577880859
-31.901399612426758 1.515920042991638 45.257198333740234
-30.679800033569336 2.882639884948731 44.857200622558594
-31.093999862670898 2.195230007171631 45.626899719238281
-32.880100250244141 1.505980014801025 45.256401062011719
-31.002099990844727 4.403389930725098 43.337600708007813
-30.740400314331055 4.453040122985840 44.290000915527344
-31.908199310302734 2.164920091629028 46.168498992919922
-30.694799423217773 3.335720062255859 45.896301269531250
-32.914699554443359 2.073479890823364 46.089199066162109
-31.221399307250977 2.669250011444092 46.503898620605469
-30.562799453735352 4.443369865417481 45.330001831054687
-31.178300857543945 5.510590076446533 43.751899719238281
-32.401199340820312 2.781460046768189 46.934398651123047
-33.385799407958984 2.922240018844605 46.832099914550781
-30.940700531005859 3.501189947128296 47.280300140380859
-30.483299255371094 4.453199863433838 46.806598663330078
-31.448099136352539 3.708739995956421 48.126899719238281
-30.812900543212891 4.388150215148926 48.361301422119141
-31.830799102783203 3.186650037765503 47.492599487304688
-30.530899047851563 5.924880027770996 46.793899536132812
-30.491899490356445 5.456639766693115 48.303501129150391
-32.409500122070313 3.679620027542114 47.998100280761719
-30.732999801635742 5.956480026245117 45.291301727294922
-31.137699127197266 4.621540069580078 49.176399230957031
-33.022998809814453 4.218009948730469 48.523601531982422
-30.298599243164063 6.924389839172363 47.825401306152344
-30.566999435424805 6.041289806365967 49.272499084472656
-31.942499160766602 4.673940181732178 49.652301788330078
-30.460199356079102 7.429639816284180 46.828399658203125
-30.839700698852539 5.408440113067627 49.847198486328125
-31.342300415039063 6.451069831848145 44.303901672363281
-32.932498931884766 4.844500064849854 49.400100708007812
-30.297199249267578 6.912559986114502 49.330299377441406
-31.869100570678711 5.254769802093506 50.466499328613281
-33.601699829101563 5.740739822387695 49.521400451660156
-32.846500396728516 5.498559951782227 50.272899627685547
-30.165000915527344 7.908919811248779 48.829700469970703
-31.245500564575195 5.742080211639404 50.988700866699219
-30.623600006103516 6.550950050354004 50.723300933837891
-30.385400772094727 7.433959960937500 50.323600769042969
-32.366401672363281 5.999539852142334 51.276901245117187
-34.021301269531250 6.848579883575440 49.928699493408203
-33.343601226806641 6.476049900054932 50.789299011230469
-29.916700363159180 8.443429946899414 49.820400238037109
-31.408500671386719 6.476769924163818 51.798599243164063
-30.422000885009766 7.948359966278076 51.822898864746094
-30.553800582885742 7.004789829254150 51.778400421142578
-30.172599792480469 8.904549598693848 50.835498809814453
-30.208900451660156 8.908109664916992 51.836700439453125
-30.815900802612305 7.399909973144531 52.849498748779297
-31.398399353027344 6.716579914093018 52.666801452636719
-32.341300964355469 7.035830020904541 52.737598419189453
-32.919799804687500 6.894070148468018 51.853801727294922
-30.237100601196289 8.902350425720215 52.861400604248047
-30.694900512695313 8.328249931335449 53.423999786376953
-30.062000274658203 9.939209938049316 51.813201904296875
-33.017601013183594 7.824480056762695 52.914199829101563
-33.556598663330078 7.836959838867188 51.914398193359375
-32.298999786376953 7.664330005645752 53.606998443603516
-31.390800476074219 7.798329830169678 53.920101165771484
-33.812301635742187 7.467999935150147 50.788101196289063
-31.347400665283203 10.050499916076660 52.887001037597656
-30.313800811767578 9.415670394897461 53.837299346923828
-30.774299621582031 8.294289588928223 54.406600952148438
-30.113000869750977 10.430100440979004 52.803798675537109
-33.620601654052734 8.826129913330078 52.925998687744141
-34.047401428222656 8.876179695129395 51.883098602294922
-34.183998107910156 8.975990295410156 50.785800933837891
-33.298400878906250 8.972410202026367 53.789100646972656
-32.620498657226563 8.717920303344727 54.527099609375000
-34.293598175048828 9.950130462646484 51.304901123046875
-34.193801879882813 9.995240211486816 52.256301879882812
-31.400999069213867 8.623419761657715 55.202701568603516
-33.751899719238281 9.966659545898438 53.292098999023437
-30.312000274658203 10.409999847412109 54.333301544189453
-30.603700637817383 9.243029594421387 55.118698120117188
-30.123699188232422 11.447899818420410 53.823501586914063
-34.012100219726563 10.982500076293945 49.784099578857422
-34.049400329589844 10.901000022888184 52.859401702880859
-33.094898223876953 9.803819656372070 54.933101654052734
-33.921199798583984 11.440799713134766 50.816600799560547
-32.191398620605469 9.208180427551270 55.636699676513672
-33.630901336669922 10.503100395202637 54.273899078369141
-31.365999221801758 9.183199882507324 56.016700744628906
-33.681900024414063 11.823699951171875 49.910198211669922
-33.855701446533203 11.927499771118164 51.827098846435547
-30.251100540161133 12.451600074768066 53.311100006103516
-30.030399322509766 11.453000068664551 54.816898345947266
-33.635601043701172 12.327300071716309 50.880699157714844
-33.867198944091797 11.435799598693848 53.821899414062500
-30.344200134277344 10.418199539184570 55.834598541259766
-32.799900054931641 9.982179641723633 55.785598754882813
-33.993801116943359 11.946900367736816 52.815399169921875
-30.013299942016602 11.467599868774414 55.801498413085937
-32.207500457763672 10.120100021362305 56.660900115966797
-30.928199768066406 10.472900390625000 57.287998199462891
-33.033901214599609 10.872300148010254 56.377700805664062
-31.373600006103516 9.764479637145996 56.917098999023437
-30.254299163818359 11.360699653625488 57.364498138427734
-30.117599487304688 12.469400405883789 56.787998199462891
-30.127300262451172 12.427800178527832 54.339500427246094
-33.459098815917969 10.909899711608887 55.348201751708984
-31.796300888061523 10.529899597167969 57.759998321533203
-32.841598510742187 10.959300041198730 57.304798126220703
-33.558498382568359 11.893699645996094 55.863700866699219
-33.354099273681641 11.941499710083008 56.816200256347656
-30.020000457763672 13.427599906921387 55.355499267578125
-31.003299713134766 11.065099716186523 58.256698608398438
-33.735801696777344 11.952699661254883 54.801998138427734
-30.304100036621094 13.447600364685059 54.306301116943359
-32.378299713134766 11.440600395202637 58.318401336669922
-33.054698944091797 11.828599929809570 57.901798248291016
-30.306499481201172 11.873700141906738 58.365699768066406
-33.652500152587891 12.943200111389160 56.782600402832031
-33.941398620605469 12.932600021362305 55.824401855468750
-33.858398437500000 12.933600425720215 54.822498321533203
-33.921398162841797 12.436100006103516 53.825199127197266
-29.934700012207031 13.441699981689453 57.819599151611328
-33.416301727294922 12.926300048828125 57.831501007080078
-30.312000274658203 14.444499969482422 54.804401397705078
-31.736700057983398 11.618800163269043 59.140701293945313
-33.778598785400391 13.922100067138672 55.824901580810547
-33.737998962402344 13.912699699401855 54.827899932861328
-32.916500091552734 12.409299850463867 58.847900390625000
-33.807098388671875 13.418399810791016 53.823398590087891
-33.694499969482422 13.919899940490723 56.811401367187500
-30.826400756835938 11.869400024414063 59.369701385498047
-30.027799606323242 12.973400115966797 58.797298431396484
-33.843399047851563 12.922800064086914 52.828300476074219
-33.615200042724609 13.885700225830078 57.867900848388672
-29.799200057983398 14.439200401306152 57.826698303222656
-33.454898834228516 14.464099884033203 53.805698394775391
-32.262298583984375 12.560199737548828 59.676601409912109
-33.331901550292969 13.447299957275391 58.812500000000000
-33.652801513671875 14.904700279235840 55.823200225830078
-31.369300842285156 12.374199867248535 59.883701324462891
-33.489799499511719 14.975500106811523 54.798400878906250
-33.455200195312500 13.959799766540527 52.797698974609375
-33.638500213623047 14.911100387573242 56.825000762939453
-30.322799682617188 12.899399757385254 59.846500396728516
-33.663200378417969 12.844499588012695 51.872100830078125
-29.876899719238281 13.932600021362305 59.324501037597656
-32.820098876953125 15.391099929809570 53.845901489257812
-32.836498260498047 14.409700393676758 52.341598510742188
-33.688999176025391 14.936699867248535 57.814800262451172
-32.998500823974609 13.380499839782715 59.870098114013672
-33.522300720214844 14.410200119018555 58.847801208496094
-32.875598907470703 15.928600311279297 54.826599121093750
-32.010700225830078 12.700599670410156 60.526401519775391
-33.397300720214844 15.936699867248535 55.820301055908203
-29.904600143432617 15.431300163269043 58.324298858642578
-31.043899536132813 12.603199958801270 60.734298706054687
-33.551601409912109 15.954600334167480 56.793800354003906
-29.773300170898438 14.934499740600586 59.318698883056641
-33.371101379394531 14.437299728393555 59.822399139404297
-29.952400207519531 13.949999809265137 60.313999176025391
-32.741298675537109 13.510999679565430 60.769100189208984
-33.246700286865234 14.478799819946289 60.797000885009766
-29.815799713134766 15.434900283813477 60.326400756835937
-30.468500137329102 13.515600204467773 61.263999938964844
-32.199798583984375 13.625000000000000 61.682800292968750
-33.589599609375000 15.409600257873535 59.834899902343750
-29.852199554443359 14.924799919128418 61.330001831054688
-33.497200012207031 15.410499572753906 60.840000152587891
-32.859798431396484 14.449000358581543 61.812301635742188
-31.395500183105469 13.152799606323242 61.632801055908203
-30.217500686645508 14.323800086975098 61.899501800537109
-33.638698577880859 15.427599906921387 58.838798522949219
-30.050100326538086 16.399400711059570 58.844699859619141
-29.841100692749023 16.438800811767578 60.822200775146484
-30.855499267578125 13.900500297546387 62.348598480224609
-33.323501586914063 15.451100349426270 61.813598632812500
-32.190200805664062 14.141900062561035 62.508598327636719
-30.039300918579102 16.906099319458008 59.839199066162109
-33.583801269531250 16.444900512695312 59.322898864746094
-33.608200073242187 16.428300857543945 60.829498291015625
-31.406499862670898 14.244199752807617 62.967899322509766
-30.206199645996094 16.480600357055664 57.794700622558594
-30.144800186157227 15.052100181579590 62.753299713134766
-29.782100677490234 15.911600112915039 62.339099884033203
-33.605400085449219 15.949799537658691 57.816799163818359
-30.338800430297852 17.444499969482422 58.815498352050781
-29.971700668334961 17.418600082397461 60.829200744628906
-33.022998809814453 15.341199874877930 62.863498687744141
-33.486400604248047 16.950099945068359 58.318000793457031
-29.798500061035156 16.938499450683594 61.820201873779297
-33.504501342773437 17.450099945068359 59.311000823974609
-32.380901336669922 14.936100006103516 63.321800231933594
-30.262500762939453 17.975299835205078 59.813701629638672
-33.603099822998047 16.931299209594727 61.833099365234375
-30.669500350952148 14.723099708557129 63.442600250244141
-33.566200256347656 17.948499679565430 60.312900543212891
-33.366500854492187 16.929300308227539 57.326900482177734
-29.905399322509766 15.941100120544434 63.318199157714844
-30.609500885009766 18.369100570678711 58.863700866699219
-33.262298583984375 17.896999359130859 58.341300964355469
-33.589099884033203 17.941400527954102 61.323299407958984
-30.220100402832031 18.459800720214844 60.813098907470703
-33.545600891113281 16.919000625610352 62.842998504638672
-33.325199127197266 18.420600891113281 59.332698822021484
-30.602699279785156 18.866500854492188 59.862800598144531
-29.930099487304688 17.924900054931641 62.325401306152344
-31.893400192260742 14.952400207519531 64.318603515625000
-32.616699218750000 18.578300476074219 58.211700439453125
-30.899499893188477 14.947099685668945 64.316902160644531
-29.830200195312500 17.435400009155273 63.334098815917969
-33.479301452636719 18.946300506591797 60.812198638916016
-30.219499588012695 15.832400321960449 64.376800537109375
-33.622100830078125 17.932600021362305 62.842399597167969
-33.380599975585938 16.934099197387695 63.823101043701172
-32.770999908447266 19.351400375366211 59.407001495361328
-31.896799087524414 15.897500038146973 64.811599731445313
-33.582801818847656 18.936599731445313 61.812500000000000
-30.189500808715820 18.969699859619141 62.312900543212891
-33.139801025390625 19.574800491333008 60.228298187255859
-29.807100296020508 16.914800643920898 64.343299865722656
-29.976400375366211 18.421400070190430 63.310501098632813
-32.884498596191406 16.421300888061523 64.816398620605469
-33.450500488281250 17.929700851440430 63.838298797607422
-33.591899871826172 18.941499710083008 62.833599090576172
-33.264701843261719 17.957000732421875 64.792701721191406
-29.902200698852539 18.429300308227539 64.323699951171875
-33.425201416015625 18.929300308227539 64.830101013183594
-33.527000427246094 18.929300308227539 63.838199615478516
-30.062900543212891 19.431900024414063 64.315696716308594
-33.098300933837891 18.357099533081055 65.889602661132813
-30.091800689697266 19.415599822998047 63.321098327636719
-29.724199295043945 17.904399871826172 65.335899353027344
-33.507999420166016 19.934499740600586 64.331802368164063
-29.868700027465820 16.926500320434570 65.326301574707031
-33.343200683593750 19.438499450683594 65.817901611328125
-32.980400085449219 17.408300399780273 66.317298889160156
-30.004299163818359 19.430799484252930 65.807899475097656
-33.547100067138672 19.947599411010742 63.321399688720703
-30.051700592041016 20.442499160766602 65.315803527832031
-32.982601165771484 18.894399642944336 66.857902526855469
-33.457000732421875 20.433500289916992 65.328399658203125
-30.279300689697266 20.449300765991211 62.815601348876953
-30.242799758911133 20.942699432373047 63.820800781250000
-33.508098602294922 19.952999114990234 62.311199188232422
-33.434200286865234 20.939500808715820 64.322799682617188
-29.854400634765625 18.934400558471680 66.831001281738281
-30.447299957275391 19.918300628662109 61.832099914550781
-29.793300628662109 17.405399322509766 66.842002868652344
-33.381698608398438 20.933399200439453 63.324199676513672
-30.142200469970703 19.950399398803711 66.780296325683594
-33.376399993896484 20.434400558471680 66.323303222656250
-30.526399612426758 21.402000427246094 62.847400665283203
-32.161300659179688 18.271600723266602 67.943702697753906
-32.716999053955078 19.005300521850586 67.767601013183594
-30.071399688720703 20.937299728393555 66.308799743652344
-33.080501556396484 21.031900405883789 62.247100830078125
-33.301700592041016 19.915800094604492 61.345901489257813
-33.206401824951172 19.962999343872070 67.295799255371094
-34.435199737548828 16.128599166870117 65.783996582031250
-30.802299499511719 20.970300674438477 61.807498931884766
-33.421798706054688 21.436300277709961 65.822898864746094
-30.375900268554688 21.934600830078125 63.823101043701172
-30.315399169921875 21.942100524902344 64.813796997070313
-29.886899948120117 17.934400558471680 67.823303222656250
-33.304100036621094 21.919399261474609 64.831596374511719
-32.951099395751953 21.966600418090820 63.299598693847656
-29.973199844360352 19.424400329589844 67.794799804687500
-32.775001525878906 20.868900299072266 61.378700256347656
-32.661399841308594 21.810300827026367 62.418498992919922
-30.160400390625000 21.956499099731445 65.800399780273437
-33.399101257324219 21.434000015258789 66.824203491210937
-30.190399169921875 20.421499252319336 67.858596801757813
-32.181598663330078 19.044300079345703 68.736900329589844
-32.941299438476562 19.912799835205078 68.341796875000000
-32.713901519775391 20.340400695800781 60.375400543212891
-32.215801239013672 21.845399856567383 61.407901763916016
-30.108400344848633 21.436100006103516 67.302497863769531
-33.311401367187500 20.942300796508789 67.818496704101563
-33.312900543212891 22.420400619506836 65.831199645996094
-32.328201293945313 22.899299621582031 63.350498199462891
-30.505300521850586 22.898199081420898 64.352096557617188
-32.938098907470703 22.961000442504883 64.808502197265625
-30.470699310302734 22.910200119018555 65.343902587890625
-33.350399017333984 22.431100845336914 66.825500488281250
-30.356100082397461 20.431100845336914 68.831497192382813
-33.704898834228516 16.428499221801758 68.752502441406250
-33.383098602294922 18.433500289916992 69.323600769042969
-30.276399612426758 22.959199905395508 66.305397033691406
-32.632099151611328 20.064500808715820 69.240501403808594
-30.199899673461914 21.420299530029297 68.347503662109375
-33.372100830078125 21.934299468994141 67.823699951171875
-33.502899169921875 17.426500320434570 69.363098144531250
-33.105400085449219 20.851499557495117 68.879600524902344
-31.592100143432617 23.696800231933594 63.490501403808594
-32.170101165771484 23.775400161743164 64.444396972656250
-30.331499099731445 21.425500869750977 69.336997985839844
-30.203100204467773 22.421300888061523 68.339302062988281
-30.283399581909180 22.425199508666992 69.339996337890625
-33.329700469970703 21.937799453735352 68.821098327636719
-32.879798889160156 20.936199188232422 69.822303771972656
-33.242500305175781 21.952199935913086 69.814903259277344
-30.554100036621094 21.481000900268555 70.271202087402344
-33.350601196289063 22.933000564575195 68.324401855468750
-32.125301361083984 20.197299957275391 70.008903503417969
-33.372398376464844 22.934400558471680 69.323997497558594
-30.372299194335938 22.431900024414062 70.326499938964844
-30.180999755859375 23.425399780273438 68.842796325683594
-32.359901428222656 20.974800109863281 70.789199829101563
-30.074800491333008 22.949499130249023 67.315101623535156
-30.281700134277344 23.423099517822266 69.837997436523438
-31.266199111938477 20.796400070190430 70.947196960449219
-32.975601196289063 21.892099380493164 70.862701416015625
-33.329601287841797 22.939899444580078 70.320396423339844
-33.261299133300781 23.416299819946289 67.334899902343750
-33.320301055908203 23.930400848388672 68.828598022460937
-30.642999649047852 22.011999130249023 71.232696533203125
-30.371799468994141 23.936300277709961 67.322502136230469
-31.359300613403320 23.665199279785156 66.372901916503906
-33.391498565673828 23.934099197387695 69.823600769042969
-30.347799301147461 23.430200576782227 70.828598022460938
-30.277999877929688 24.452699661254883 68.315498352050781
-31.421199798583984 21.516300201416016 71.760498046875000
-33.124401092529297 24.510000228881836 67.763397216796875
-30.186300277709961 24.422800064086914 69.847396850585937
-33.101200103759766 23.505899429321289 66.266197204589844
-33.238899230957031 22.954700469970703 71.312797546386719
-32.432098388671875 21.850500106811523 71.893997192382812
-30.501499176025391 23.901399612426758 66.346298217773438
-32.917400360107422 24.446500778198242 66.814102172851563
-33.180900573730469 24.913000106811523 68.852302551269531
-30.620899200439453 24.869800567626953 67.367103576660156
-30.499099731445313 22.955400466918945 71.798202514648438
-30.282600402832031 24.424999237060547 70.836196899414063
-33.425399780273438 18.928400039672852 70.329200744628906
-33.322200775146484 24.929199218750000 69.830398559570313
-30.511800765991211 25.401599884033203 68.339698791503906
-33.420101165771484 24.433399200439453 70.823303222656250
-31.891599655151367 22.169200897216797 72.519798278808594
-32.807800292968750 25.396999359130859 67.854896545410156
-30.416000366210938 25.428800582885742 69.324897766113281
-32.669101715087891 23.827499389648438 65.406700134277344
-30.382799148559570 23.933799743652344 71.824203491210937
-31.200899124145508 24.711000442504883 65.933898925781250
-31.318300247192383 25.750900268554688 67.901000976562500
-32.959899902343750 22.879400253295898 72.374900817871094
-32.315898895263672 25.386899948120117 66.863197326660156
-32.219799041748047 24.800600051879883 65.905097961425781
-33.231700897216797 18.947599411010742 71.324401855468750
-30.982700347900391 22.545900344848633 72.726799011230469
-32.906898498535156 25.941400527954102 68.816200256347656
-31.006799697875977 23.852899551391602 64.871498107910156
-33.217300415039062 17.971599578857422 70.282096862792969
-33.404399871826172 24.432500839233398 71.824401855468750
-30.256700515747070 25.433300018310547 70.835098266601563
-30.603700637817383 23.483100891113281 72.766296386718750
-33.216499328613281 25.912700653076172 69.852096557617188
-33.399101257324219 25.434900283813477 70.822700500488281
-32.197399139404297 26.283899307250977 67.935699462890625
-30.302200317382812 24.927099227905273 71.834297180175781
-32.965599060058594 19.901699066162109 72.812202453613281
-32.931800842285156 18.923099517822266 72.320701599121094
-32.382198333740234 22.936599731445313 73.321601867675781
-30.750499725341797 26.493700027465820 69.308097839355469
-30.486600875854492 26.411600112915039 70.328697204589844
-30.459199905395508 24.443700790405273 72.809501647949219
-33.470500946044922 25.433799743652344 71.820899963378906
-31.885700225830078 24.895599365234375 72.794799804687500
-32.353801727294922 26.913299560546875 68.840896606445312
-33.352500915527344 24.438899993896484 72.821800231933594
-31.424999237060547 23.047399520874023 73.732696533203125
-33.299499511718750 26.420700073242187 70.835899353027344
-32.866001129150391 26.927099227905273 69.830497741699219
-33.884399414062500 19.946800231933594 73.328399658203125
-30.323299407958984 26.437200546264648 71.325897216796875
-30.516799926757813 24.948600769042969 73.804397583007812
-30.385099411010742 25.934000015258789 73.323799133300781
-30.309200286865234 25.932100296020508 72.334602355957031
-30.795600891113281 23.887899398803711 73.869400024414063
-33.323299407958984 24.948099136352539 73.816398620605469
-33.499698638916016 25.423200607299805 72.825500488281250
-30.455799102783203 26.439199447631836 74.311401367187500
-30.642799377441406 25.346099853515625 74.907699584960937
-30.333400726318359 26.931400299072266 73.330497741699219
-33.064899444580078 24.050600051879883 73.728897094726563
-30.319700241088867 26.936300277709961 72.330001831054687
-31.180700302124023 24.261100769042969 74.971000671386719
-32.642700195312500 24.147899627685547 74.660797119140625
-33.534301757812500 26.432699203491211 73.322700500488281
-33.166099548339844 25.007600784301758 74.782600402832031
-33.483501434326172 26.438600540161133 72.317802429199219
-33.483699798583984 25.919599533081055 74.329200744628906
-31.929300308227539 23.510599136352539 74.771003723144531
-31.046199798583984 25.016399383544922 75.752799987792969
-30.372400283813477 27.433200836181641 74.325698852539062
-33.559700012207031 26.932699203491211 74.317901611328125
-33.359298706054687 27.430400848388672 72.327201843261719
-30.496500015258789 27.419000625610352 71.327903747558594
-33.480201721191406 27.442199707031250 73.317703247070313
-30.440000534057617 27.930000305175781 72.322898864746094
-30.520700454711914 26.946599960327148 75.300796508789062
-31.836500167846680 24.345100402832031 75.892501831054688
-30.700099945068359 25.861099243164063 75.894699096679688
-32.795898437500000 25.014600753784180 75.772598266601562
-33.404998779296875 25.928699493408203 75.326599121093750
-31.181600570678711 28.262699127197266 71.836700439453125
-30.373199462890625 28.434999465942383 73.323898315429688
-32.973701477050781 27.472099304199219 70.794197082519531
-33.570400238037109 26.916799545288086 75.331497192382813
-33.225498199462891 28.399900436401367 72.847099304199219
-30.749500274658203 27.438299179077148 70.301101684570313
-31.102600097656250 28.831699371337891 72.845596313476562
-30.321100234985352 28.434600830078125 74.328002929687500
-31.593399047851563 25.088600158691406 76.695297241210937
-32.875301361083984 28.429800033569336 71.827301025390625
-30.418300628662109 27.936800003051758 75.319702148437500
-33.192401885986328 25.996099472045898 76.271697998046875
-30.604900360107422 26.958099365234375 76.284599304199219
-33.414001464843750 28.438600540161133 73.820503234863281
-33.527198791503906 27.944499969482422 74.815200805664062
-30.969999313354492 25.977300643920898 76.783699035644531
-32.425998687744141 27.961299896240234 70.303703308105469
-31.497200012207031 28.142599105834961 70.235496520996094
-32.162101745605469 28.768199920654297 71.119903564453125
-33.480598449707031 26.911600112915039 76.336799621582031
-30.497699737548828 27.944700241088867 76.307601928710937
-32.405101776123047 29.450599670410156 72.311698913574219
-32.382801055908203 25.432300567626953 77.325202941894531
-33.629299163818359 27.926599502563477 75.819198608398438
-31.754899978637695 27.783000946044922 69.431297302246094
-31.216699600219727 29.192899703979492 70.990097045898437
-32.950401306152344 29.471200942993164 73.297203063964844
-30.428100585937500 29.428600311279297 74.325302124023437
-31.527000427246094 29.679700851440430 71.670700073242188
-30.813600540161133 26.908199310302734 77.351799011230469
-33.116401672363281 26.542999267578125 77.254798889160156
-33.283100128173828 29.412200927734375 74.341102600097656
-31.031700134277344 29.889799118041992 73.835296630859375
-31.483600616455078 26.023599624633789 77.752799987792969
-33.532699584960938 28.951900482177734 75.306900024414062
-30.361799240112305 29.434999465942383 75.324401855468750
-31.643699645996094 30.198600769042969 72.487297058105469
-30.458200454711914 28.939300537109375 76.315597534179687
-30.608699798583984 27.962900161743164 77.285697937011719
-33.663101196289063 27.946399688720703 76.833297729492188
-32.275600433349609 30.335800170898438 73.395301818847656
-33.659900665283203 28.927299499511719 76.346199035644531
-32.836601257324219 30.400899887084961 74.348800659179688
-33.362598419189453 29.929000854492188 75.328300476074219
-30.502799987792969 30.416700363159180 74.829002380371094
-33.401901245117188 27.427700042724609 77.827697753906250
-31.253900527954102 26.848100662231445 78.399696350097656
-30.543699264526367 28.945800781250000 77.299896240234375
-30.694499969482422 28.913700103759766 78.368598937988281
-30.819900512695312 27.916700363159180 78.345298767089844
-30.489299774169922 29.940000534057617 77.310699462890625
-30.600299835205078 29.953800201416016 78.290901184082031
-33.740898132324219 28.936899185180664 77.332801818847656
-30.745300292968750 29.914100646972656 79.360298156738281
-30.986900329589844 28.954399108886719 79.783203125000000
-33.703998565673828 28.455699920654297 78.317703247070313
-30.455400466918945 30.426700592041016 75.822998046875000
-30.501300811767578 30.943599700927734 78.309501647949219
-33.141998291015625 27.521900177001953 78.747596740722656
-31.394500732421875 27.939699172973633 79.817802429199219
-33.699699401855469 29.925800323486328 77.337699890136719
-33.806400299072266 29.435199737548828 78.326499938964844
-33.522499084472656 29.957700729370117 76.300300598144531
-31.885299682617188 26.935499191284180 79.322998046875000
-33.369201660156250 28.438999176025391 79.320297241210938
-30.522899627685547 31.420900344848633 76.825103759765625
-32.200698852539063 26.160200119018555 78.542396545410156
-30.609699249267578 30.967800140380859 79.280700683593750
-33.753501892089844 30.424999237060547 78.335899353027344
-33.508598327636719 30.963600158691406 77.299499511718750
-33.318000793457031 30.916299819946289 76.339202880859375
-33.722599029541016 29.448499679565430 79.314102172851563
-30.963899612426758 29.947200775146484 80.293403625488281
-30.655700683593750 31.466899871826172 75.836097717285156
-32.906299591064453 27.017499923706055 79.789901733398438
-31.468799591064453 28.959299087524414 80.778503417968750
-32.938400268554687 30.965900421142578 75.301101684570313
-30.492399215698242 31.934799194335938 78.317802429199219
-33.237998962402344 28.482400894165039 80.302497863769531
-32.134998321533203 27.705600738525391 80.601799011230469
-33.841300964355469 30.433799743652344 79.323997497558594
-33.216899871826172 31.874099731445313 77.364997863769531
-33.593799591064453 31.487499237060547 78.283203125000000
-32.833900451660156 31.897300720214844 76.347602844238281
-33.508201599121094 29.401100158691406 80.338302612304688
-31.394399642944336 32.384399414062500 76.814102172851562
-30.807199478149414 30.916999816894531 80.348297119140625
-30.671199798583984 32.411399841308594 77.338203430175781
-32.291698455810547 31.843999862670898 75.389297485351562
-30.506000518798828 31.943399429321289 79.305297851562500
-32.073898315429687 31.120599746704102 74.184097290039063
-32.061000823974609 32.620899200439453 76.202400207519531
-33.766700744628906 30.448900222778320 80.314498901367188
-32.825401306152344 26.888799667358398 80.869102478027344
-33.315101623535156 32.412300109863281 78.341201782226562
-32.714099884033203 32.841999053955078 77.386802673339844
-31.326299667358398 30.417800903320313 81.353103637695312
-30.569200515747070 32.916599273681641 78.324302673339844
-33.828201293945313 31.431900024414063 79.826896667480469
-32.059600830078125 28.598400115966797 81.681999206542969
-32.781501770019531 27.820699691772461 81.407096862792969
-31.658500671386719 29.493099212646484 81.683403015136719
-30.599199295043945 31.954900741577148 80.283996582031250
-31.198299407958984 32.723800659179688 75.469497680664062
-31.808700561523438 33.343498229980469 76.889297485351563
-30.964599609375000 31.458099365234375 81.284698486328125
-33.712100982666016 30.468500137329102 81.319297790527344
-30.588399887084961 32.919601440429687 79.801200866699219
-32.810199737548828 33.391601562500000 78.349700927734375
-33.749198913574219 32.422500610351562 79.841300964355469
-33.869201660156250 31.435300827026367 80.823898315429688
-31.444299697875977 33.712699890136719 78.361999511718750
-32.966899871826172 28.563600540161133 82.245498657226563
-32.200500488281250 29.316400527954102 82.427398681640625
-31.732599258422852 30.407699584960938 82.379898071289063
-33.002498626708984 33.500999450683594 79.286300659179687
-31.499300003051758 31.475799560546875 82.255699157714844
-30.757400512695313 33.983398437500000 79.305397033691406
-33.922199249267578 32.432201385498047 80.821998596191406
-32.206600189208984 30.370700836181641 83.406501770019531
-33.894199371337891 31.432100296020508 81.823997497558594
-33.993801116943359 32.427898406982422 81.822700500488281
-33.681800842285156 30.474100112915039 82.317901611328125
-34.258701324462891 33.389499664306641 81.241798400878906
-33.677299499511719 30.477800369262695 83.324996948242188
-32.873100280761719 29.422500610351563 83.333900451660156
-30.660100936889648 34.948398590087891 79.823799133300781
-32.730598449707031 34.834499359130859 79.923599243164063
-31.313999176025391 34.773799896240234 78.931198120117188
-32.210098266601563 34.254798889160156 78.447097778320312
-31.837799072265625 35.403400421142578 79.353202819824219
-35.364700317382813 33.913200378417969 80.769203186035156
-35.661800384521484 35.008399963378906 80.007202148437500
-33.513599395751953 34.498798370361328 81.756698608398437
-36.011600494384766 35.915599822998047 80.583000183105469
-34.075298309326172 32.936298370361328 82.816398620605469
-32.056499481201172 36.046298980712891 80.244400024414063
-32.471698760986328 30.487600326538086 84.273399353027344
-34.187500000000000 34.332000732421875 81.060203552246094
-34.751201629638672 34.927200317382813 80.556701660156250
-31.879600524902344 31.433000564575195 83.325698852539062
-33.994899749755859 31.914100646972656 82.821403503417969
-31.255100250244141 32.390098571777344 82.391799926757813
-33.384498596191406 29.936399459838867 84.322700500488281
-34.879901885986328 19.884700775146484 73.307899475097656
-29.758499145507813 20.954500198364258 75.262603759765625
-29.122299194335938 21.441600799560547 75.680496215820313
