ply
format ascii 1.0
element vertex 427
property double x
property double y
property double z
end_header
-36.405998229980469 12.931400299072266 103.335998535156250
-36.405998229980469 12.931400299072266 103.335998535156250
-36.399700164794922 11.928700447082520 103.333999633789060
-38.016498565673828 14.297300338745117 101.263000488281250
-36.915199279785156 12.930899620056152 102.332000732421870
-37.293598175048828 13.490599632263184 101.352996826171870
-35.669498443603516 10.495400428771973 103.677001953125000
-38.351600646972656 14.516099929809570 100.347999572753910
-36.108600616455078 11.022600173950195 103.100997924804690
-36.831798553466797 11.940199851989746 102.306999206542970
-37.312500000000000 13.994299888610840 100.352996826171870
-37.009601593017578 12.425399780273437 101.322998046875000
-38.898700714111328 14.831600189208984 99.282302856445313
-37.930301666259766 14.805399894714355 99.280403137207031
-35.018398284912109 9.221369743347168 103.821998596191410
-36.749401092529297 10.963500022888184 102.238998413085940
-37.136199951171875 14.327799797058105 99.251701354980469
-36.920299530029297 12.929100036621094 100.314002990722660
-39.399700164794922 15.348600387573242 98.299102783203125
-36.155300140380859 9.990659713745117 102.636001586914060
-38.424598693847656 15.261199951171875 98.269401550292969
-36.948398590087891 11.426099777221680 101.325996398925780
-37.428501129150391 14.861200332641602 98.298698425292969
-36.779300689697266 13.458700180053711 99.354400634765625
-36.819099426269531 11.938099861145020 100.341003417968750
-34.932498931884766 8.841500282287598 102.829002380371090
-35.655601501464844 9.276379585266113 102.448997497558590
-36.597301483154297 10.549200057983398 101.329002380371090
-37.898799896240234 15.389800071716309 97.309402465820312
-39.381401062011719 15.947199821472168 96.828399658203125
-36.735900878906250 13.997799873352051 98.368499755859375
-36.656299591064453 12.456000328063965 99.386199951171875
-37.018901824951172 14.804800033569336 97.268997192382813
-33.888000488281250 8.419569969177246 102.321998596191410
-36.174598693847656 9.687080383300781 101.266998291015620
-36.641101837158203 10.828900337219238 100.236999511718750
-38.830799102783203 16.139099121093750 95.890502929687500
-39.912498474121094 16.218000411987305 95.741600036621094
-37.384799957275391 15.432600021362305 96.323501586914062
-36.436000823974609 12.927700042724609 98.310302734375000
-36.450000762939453 13.910699844360352 97.306503295898438
-36.530899047851563 11.403100013732910 99.275901794433594
-36.287200927734375 10.022000312805176 100.361999511718750
-39.852401733398437 16.632900238037109 94.908599853515625
-35.013000488281250 8.703559875488281 101.267997741699220
-36.622001647949219 14.618499755859375 96.407600402832031
-35.561199188232422 9.208239555358887 100.758003234863280
-38.922599792480469 16.646699905395508 94.699302673339844
-32.883701324462891 8.410180091857910 101.316001892089840
-33.896400451660156 8.381839752197266 101.309997558593750
-36.352901458740234 11.936599731445313 98.332801818847656
-37.956001281738281 16.266000747680664 94.765197753906250
-39.390800476074219 17.419200897216797 93.816200256347656
-36.249099731445313 10.508099555969238 99.379898071289063
-36.209499359130859 12.964400291442871 97.367897033691406
-31.407800674438477 8.642089843750000 100.908996582031250
-36.960998535156250 15.359299659729004 95.305397033691406
-40.014499664306641 17.693000793457031 93.213401794433594
-38.430198669433594 16.849100112915039 93.789100646972656
-32.416400909423828 8.673119544982910 100.402999877929690
-33.395099639892578 8.643730163574219 100.370002746582030
-34.437900543212891 8.740819931030273 100.269996643066410
-35.062400817871094 9.180839538574219 99.711402893066406
-36.055698394775391 13.397500038146973 96.276298522949219
-39.511699676513672 18.285499572753906 92.279701232910156
-35.558101654052734 9.741740226745606 99.222198486328125
-36.318298339843750 14.473999977111816 95.337097167968750
-38.836399078369141 17.492599487304688 92.843696594238281
-36.064601898193359 11.339300155639648 97.741897583007812
-35.826900482177734 10.482600212097168 98.353698730468750
-31.410400390625000 9.145460128784180 99.399497985839844
-32.401100158691406 9.086420059204102 99.387100219726563
-37.596599578857422 16.188600540161133 93.371002197265625
-35.904201507568359 11.928400039672852 96.816101074218750
-38.031200408935547 16.805799484252930 92.785697937011719
-30.393299102783203 8.841130256652832 99.267303466796875
-33.404300689697266 9.181269645690918 98.909103393554687
-36.946201324462891 15.377699851989746 93.818199157714844
-34.435199737548828 9.276160240173340 98.760597229003906
-38.667198181152344 17.657400131225586 91.893997192382813
-35.858798980712891 13.441499710083008 95.330001831054688
-39.108699798583984 18.242799758911133 91.403900146484375
-34.995098114013672 9.771699905395508 98.236396789550781
-31.896299362182617 9.585470199584961 98.400001525878906
-39.680198669433594 18.697599411010742 90.865303039550781
-35.537799835205078 10.808099746704102 97.235298156738281
-35.738498687744141 12.465900421142578 95.870697021484375
-30.899599075317383 9.673999786376953 98.172500610351563
-32.926300048828125 9.647919654846191 97.909400939941406
-36.262199401855469 14.523900032043457 93.837501525878906
-34.780200958251953 10.050000190734863 97.397796630859375
-37.935398101806641 16.895900726318359 91.811599731445313
-30.893699645996094 10.297699928283691 97.225997924804688
-33.946998596191406 9.646149635314941 97.708900451660156
-35.470401763916016 11.374899864196777 96.282798767089844
-40.009201049804688 19.261899948120117 89.764503479003906
-29.959299087524414 9.675169944763184 97.588401794433594
-36.977401733398437 15.362400054931641 92.816802978515625
-38.504199981689453 17.815399169921875 90.789497375488281
-31.943000793457031 10.215600013732910 96.930999755859375
-29.934000015258789 10.663700103759766 96.586700439453125
-39.212699890136719 18.659000396728516 89.891502380371094
-28.904899597167969 10.629500389099121 96.470001220703125
-34.784599304199219 10.562399864196777 96.390998840332031
-32.896099090576172 9.991430282592773 96.840599060058594
-30.410400390625000 11.119700431823730 95.939598083496094
-35.408298492431641 12.424699783325195 94.816101074218750
-29.376100540161133 9.963820457458496 96.853698730468750
-33.888198852539062 9.885780334472656 96.807899475097656
-35.238098144531250 11.566699981689453 95.400100708007813
-29.407100677490234 11.595000267028809 95.432800292968750
-27.875099182128906 12.382599830627441 94.797798156738281
-28.397100448608398 11.524399757385254 95.376800537109375
-35.553298950195313 13.376600265502930 93.784301757812500
-36.266498565673828 14.535099983215332 92.832397460937500
-37.824798583984375 16.975999832153320 90.838096618652344
-31.371299743652344 10.897899627685547 95.810798645019531
-28.838800430297852 12.180700302124023 94.692001342773438
-39.758701324462891 19.186800003051758 88.888099670410156
-38.376300811767578 17.941900253295898 89.827102661132813
-36.954200744628906 15.382800102233887 91.813598632812500
-28.358200073242188 12.836000442504883 93.774101257324219
-29.933900833129883 12.055800437927246 94.373596191406250
-34.266101837158203 10.618800163269043 95.416999816894531
-33.392799377441406 10.199700355529785 95.741302490234375
-38.804500579833984 18.551700592041016 88.864097595214844
-32.413700103759766 10.534199714660645 95.348602294921875
-27.351600646972656 13.220299720764160 93.222000122070313
-31.471000671386719 11.102800369262695 94.866500854492188
-34.567298889160156 11.228500366210938 94.713096618652344
-37.661800384521484 17.080699920654297 89.892898559570313
-36.241500854492188 14.567099571228027 91.845001220703125
-30.746700286865234 11.655300140380859 94.239196777343750
-35.144599914550781 12.777099609375000 93.237503051757812
-29.470300674438477 12.603799819946289 93.380798339843750
-34.858898162841797 11.954400062561035 93.835197448730469
-39.208999633789063 19.178699493408203 87.901298522949219
-35.579898834228516 13.771300315856934 92.290000915527344
-36.858699798583984 15.453300476074219 90.829902648925781
-28.784700393676758 13.182900428771973 92.728897094726563
-33.493400573730469 10.650600433349609 94.696502685546875
-27.913999557495117 13.545000076293945 92.372398376464844
-37.683799743652344 17.597499847412109 88.921401977539063
-30.250400543212891 12.203200340270996 93.262397766113281
-38.040000915527344 18.211599349975586 88.228797912597656
-37.132598876953125 16.281600952148438 89.738998413085938
-31.782300949096680 11.188300132751465 93.764900207519531
-31.019300460815430 11.656599998474121 93.378799438476563
-36.162899017333984 14.649600028991699 90.877296447753906
-34.975299835205078 12.869099617004395 92.290901184082031
-32.882999420166016 10.875100135803223 93.802398681640625
-28.382999420166016 13.932100296020508 91.323402404785156
-35.484600067138672 13.845199584960938 91.297302246093750
-33.785301208496094 11.199299812316895 93.446296691894531
-38.461799621582031 18.728500366210937 87.272201538085938
-34.399101257324219 11.918100357055664 92.815803527832031
-29.238300323486328 13.216899871826172 91.765403747558594
-37.074901580810547 16.843500137329102 88.742698669433594
-39.327201843261719 19.101499557495117 86.860298156738281
-27.367500305175781 14.369299888610840 90.787902832031250
-36.512798309326172 15.327199935913086 89.776603698730469
-37.184299468994141 17.599300384521484 87.930099487304688
-30.011100769042969 12.662099838256836 91.881797790527344
-37.492500305175781 18.233800888061523 87.251998901367188
-30.925500869750977 12.017299652099609 92.347900390625000
-31.873899459838867 11.403499603271484 92.813598632812500
-32.903198242187500 11.271499633789063 92.755500793457031
-34.827400207519531 12.984000205993652 91.345497131347656
-26.879999160766602 14.904500007629395 89.807800292968750
-28.010200500488281 14.682499885559082 89.943901062011719
-34.207000732421875 12.117799758911133 91.905296325683594
-35.783699035644531 14.534899711608887 89.863098144531250
-33.503601074218750 11.649100303649902 92.200401306152344
-38.407001495361328 18.831899642944336 86.302803039550781
-28.869899749755859 13.914199829101563 90.316902160644531
-26.785299301147461 15.711500167846680 88.711601257324219
-29.722099304199219 13.169199943542480 90.734298706054687
-36.634201049804688 16.817199707031250 87.703598022460938
-35.106300354003906 13.711899757385254 90.226997375488281
-32.396198272705078 11.605999946594238 91.894302368164063
-36.696800231933594 17.601900100708008 86.939102172851563
-31.427099227905273 12.087400436401367 91.378501892089844
-27.816699981689453 15.336799621582031 88.781303405761719
-36.059200286865234 15.282099723815918 88.730300903320313
-30.494199752807617 12.668600082397461 90.897903442382813
-36.977901458740234 18.256299972534180 86.258903503417969
-39.399799346923828 18.740400314331055 85.797096252441406
-36.267700195312500 16.027000427246094 87.888496398925781
-26.338100433349609 16.299200057983398 87.744499206542969
-27.445400238037109 16.045200347900391 87.883499145507813
-29.031000137329102 14.134200096130371 89.405899047851563
-34.393299102783203 12.923399925231934 90.319503784179688
-33.444801330566406 12.232199668884277 90.737701416015625
-29.871799468994141 13.412799835205078 89.815696716308594
-32.390300750732422 12.057100296020508 90.877296447753906
-35.317298889160156 14.500900268554688 88.858200073242188
-37.905200958251953 18.827199935913086 85.305999755859375
-28.713699340820313 14.682900428771973 88.702400207519531
-27.294700622558594 16.607599258422852 87.099899291992188
-34.720901489257812 13.595399856567383 89.394798278808594
-26.852100372314453 17.351900100708008 86.272300720214844
-36.123199462890625 17.299999237060547 86.185600280761719
-30.866399765014648 12.887800216674805 89.804801940917969
-28.357700347900391 15.394700050354004 87.803199768066406
-35.506999969482422 15.310099601745605 87.740600585937500
-38.895698547363281 18.826999664306641 84.814002990722656
-36.262599945068359 18.059299468994141 85.400802612304688
-31.903499603271484 12.567299842834473 89.885200500488281
-36.942001342773438 18.682500839233398 84.780899047851562
-29.567100524902344 14.211600303649902 88.466400146484375
-26.974399566650391 18.537099838256836 84.896301269531250
-33.874198913574219 12.954700469970703 89.332397460937500
-27.801399230957031 16.810100555419922 86.245697021484375
-30.408599853515625 13.484499931335449 88.845001220703125
-28.404899597167969 15.963999748229980 86.843399047851562
-29.292699813842773 14.786600112915039 87.741401672363281
-37.887001037597656 18.888200759887695 84.319503784179687
-34.809501647949219 14.511400222778320 87.869598388671875
-32.886699676513672 12.777600288391113 89.262100219726563
-27.469600677490234 17.570499420166016 85.409103393554688
-35.248798370361328 15.573699951171875 86.918502807617188
-31.422500610351563 13.102800369262695 88.899002075195313
-35.516399383544922 16.325599670410156 86.237098693847656
-34.265701293945313 13.589400291442871 88.392997741699219
-35.579799652099609 17.297300338745117 85.204399108886719
-29.329999923706055 15.349900245666504 86.769897460937500
-35.963199615478516 18.325799942016602 84.277297973632813
-30.399700164794922 13.961700439453125 87.838600158691406
-32.410900115966797 13.165499687194824 88.415901184082031
-36.901401519775391 18.788400650024414 83.804100036621094
-28.406600952148438 16.968399047851562 85.345001220703125
-27.332000732421875 18.875499725341797 83.787696838378906
-33.430099487304688 13.235300064086914 88.249198913574219
-29.009500503540039 16.117000579833984 85.950599670410156
-31.413099288940430 13.579400062561035 87.889396667480469
-30.050300598144531 14.696100234985352 86.983802795410156
-27.896699905395508 17.951099395751953 84.334396362304688
-34.566600799560547 15.289899826049805 86.222900390625000
-35.282199859619141 17.506999969482422 84.382400512695313
-34.956001281738281 16.375000000000000 85.282203674316406
-33.939998626708984 13.836999893188477 87.281501770019531
-38.911800384521484 18.669599533081055 83.314796447753906
-35.951301574707031 18.674800872802734 83.258102416992188
-30.830799102783203 14.323300361633301 86.765403747558594
-29.908300399780273 15.467900276184082 85.843803405761719
-28.810100555419922 17.340599060058594 84.274597167968750
-32.888401031494141 13.479800224304199 87.338500976562500
-29.438699722290039 16.497400283813477 84.861000061035156
-36.878299713134766 18.843299865722656 82.816299438476563
-31.882699966430664 13.928600311279297 86.821899414062500
-35.240798950195312 18.067899703979492 83.399696350097656
-27.838899612426758 18.893199920654297 82.800300598144531
-28.477300643920898 18.052999496459961 83.384696960449219
-37.919998168945313 18.610099792480469 82.805000305175781
-34.314300537109375 15.486000061035156 85.357803344726563
-33.958999633789063 14.342200279235840 86.279296875000000
-34.662601470947266 16.589500427246094 84.435203552246094
-27.666200637817383 19.694099426269531 81.965896606445313
-30.838699340820313 14.848299980163574 85.784500122070313
-35.897800445556641 18.819099426269531 82.302597045898437
-30.252199172973633 15.767700195312500 84.750198364257813
-32.880500793457031 13.809100151062012 86.287803649902344
-31.843599319458008 14.335599899291992 85.792098999023438
-29.333499908447266 17.378999710083008 83.300697326660156
-33.777000427246094 14.577599525451660 85.391700744628906
-29.958000183105469 16.509500503540039 83.856300354003906
-34.654399871826172 17.586799621582031 82.929901123046875
-34.984298706054688 18.332700729370117 82.280403137207031
-30.997100830078125 15.125599861145020 84.899597167968750
-36.855701446533203 18.788000106811523 81.816802978515625
-28.988399505615234 18.048099517822266 82.369499206542969
-34.179199218750000 16.264400482177734 83.720397949218750
-33.919200897216797 15.415100097656250 84.311996459960937
-32.923900604248047 14.210399627685547 85.254096984863281
-35.884601593017578 18.920400619506836 81.321601867675781
-31.933900833129883 14.531599998474121 84.850799560546875
-30.736600875854492 15.742899894714355 83.763702392578125
-34.150901794433594 16.808799743652344 82.745002746582031
-30.118499755859375 16.647600173950195 82.899597167968750
-29.729799270629883 17.292900085449219 82.283599853515625
-37.814899444580078 18.263700485229492 81.334999084472656
-33.292999267578125 14.502799987792969 84.356903076171875
-31.490499496459961 15.083600044250488 83.859802246093750
-34.993301391601563 18.815999984741211 80.768203735351563
-34.366699218750000 17.944000244140625 81.330001831054688
-36.916900634765625 18.500200271606445 80.818496704101563
-35.897598266601563 19.028699874877930 80.333702087402344
-33.567501068115234 15.300999641418457 83.257598876953125
-32.386699676513672 14.523599624633789 83.851196289062500
-31.079000473022461 15.655900001525879 82.882598876953125
-33.991298675537109 16.889299392700195 81.798896789550781
-30.660699844360352 16.208000183105469 82.275901794433594
-34.887599945068359 18.926599502563477 79.821998596191406
-34.174198150634766 18.068500518798828 80.404602050781250
-31.911800384521484 14.992500305175781 82.836997985839844
-32.908199310302734 14.872300148010254 82.804100036621094
-33.399700164794922 15.425700187683105 82.319999694824219
-35.877998352050781 18.912599563598633 79.323898315429687
-36.692298889160156 18.172700881958008 79.848396301269531
-33.813999176025391 16.960500717163086 80.841102600097656
-37.500301361083984 17.545299530029297 80.293502807617188
-31.407100677490234 15.459300041198730 81.828399658203125
-33.794498443603516 17.466199874877930 79.848999023437500
-32.363498687744141 15.012100219726562 81.846702575683594
-34.887699127197266 19.057899475097656 78.339202880859375
-32.978801727294922 15.341600418090820 81.290298461914063
-35.804298400878906 18.778699874877930 78.334899902343750
-31.901800155639648 15.412400245666504 80.818199157714844
-33.384998321533203 16.433599472045898 79.823799133300781
-37.100399017333984 17.669599533081055 78.760498046875000
-32.806098937988281 15.497699737548828 80.351402282714844
-35.340000152587891 18.881000518798828 77.326797485351563
-36.332199096679688 17.860700607299805 77.837097167968750
-34.977199554443359 19.074100494384766 76.333602905273438
-36.080101013183594 18.250000000000000 76.830001831054688
-34.778999328613281 19.221799850463867 75.312698364257813
-35.415298461914063 18.472799301147461 75.825500488281250
-34.991001129150391 19.126300811767578 74.345703125000000
-31.074899673461914 15.109000205993652 65.259696960449219
-30.394699096679687 15.939999580383301 65.321998596191406
-30.137300491333008 16.553199768066406 66.300399780273437
-30.657800674438477 15.638500213623047 66.296997070312500
-31.329500198364258 14.896200180053711 66.324798583984375
-30.468500137329102 15.978400230407715 67.314796447753906
-30.068199157714844 16.980699539184570 67.787002563476562
-30.961399078369141 14.971500396728516 67.320503234863281
-30.086700439453125 17.946399688720703 68.767097473144531
-30.263399124145508 19.442399978637695 68.866500854492188
-30.272100448608398 16.897300720214844 68.836303710937500
-30.718099594116211 15.852000236511230 68.839103698730469
-30.975400924682617 14.975099563598633 68.313102722167969
-30.721300125122070 20.391000747680664 69.897102355957031
-30.524599075317383 19.412700653076172 69.773200988769531
-30.930900573730469 19.929399490356445 70.811203002929688
-30.578199386596680 18.883899688720703 70.798301696777344
-30.329599380493164 18.442499160766602 69.838897705078125
-30.729099273681641 19.493299484252930 71.808197021484375
-31.159599304199219 20.297800064086914 72.395103454589844
-30.337499618530273 17.939500808715820 70.829597473144531
-32.495498657226563 17.734100341796875 70.794700622558594
-30.440799713134766 18.425699234008789 71.826103210449219
-30.453300476074219 19.423400878906250 72.839202880859375
-30.551300048828125 20.395999908447266 73.362602233886719
-30.352699279785156 16.925699234008789 69.827003479003906
-32.357700347900391 17.944999694824219 72.322998046875000
-30.365699768066406 18.434000015258789 72.821296691894531
-32.680000305175781 19.099899291992188 73.388198852539062
-30.415300369262695 20.927799224853516 74.331199645996094
-29.297300338745117 19.910100936889648 76.292396545410156
-29.473699569702148 18.968599319458008 76.844200134277344
-29.746299743652344 19.413700103759766 75.281196594238281
-29.856300354003906 18.426399230957031 75.818099975585937
-30.046899795532227 19.932699203491211 74.382301330566406
-33.898101806640625 19.583400726318359 74.357200622558594
-33.005298614501953 19.316299438476562 74.274597167968750
-32.767398834228516 18.477500915527344 74.862602233886719
-30.031600952148437 18.466400146484375 74.857299804687500
-30.208599090576172 18.927700042724609 73.786499023437500
-30.287700653076172 17.922399520874023 73.818603515625000
-32.244499206542969 17.984699249267578 73.353302001953125
-30.468299865722656 16.455200195312500 70.818199157714844
-30.766799926757813 15.862700462341309 69.832603454589844
-31.430099487304688 14.962300300598145 69.319297790527344
-28.095899581909180 20.455299377441406 81.375801086425781
-28.351999282836914 18.903499603271484 81.809600830078125
-28.181699752807617 19.808099746704102 80.751602172851563
-28.569999694824219 20.970500946044922 79.362297058105469
-28.779399871826172 18.850599288940430 80.789901733398438
-29.395299911499023 17.943300247192383 81.326797485351563
-28.601100921630859 19.538600921630859 79.885902404785156
-30.053300857543945 17.063999176025391 81.352798461914063
-28.625999450683594 20.499500274658203 78.382003784179688
-29.172800064086914 18.631900787353516 79.873100280761719
-29.655500411987305 17.777500152587891 80.286003112792969
-28.891300201416016 19.437500000000000 78.825798034667969
-30.712999343872070 16.264900207519531 81.300796508789063
-28.924699783325195 20.935400009155273 77.332397460937500
-34.019599914550781 18.362899780273438 79.281997680664063
-30.276599884033203 16.854600906372070 80.313697814941406
-29.711299896240234 17.835599899291992 79.311500549316406
-29.055599212646484 19.509199142456055 77.861999511718750
-33.844699859619141 18.473400115966797 78.339202880859375
-30.967500686645508 16.013000488281250 80.333602905273438
-29.464799880981445 18.473899841308594 78.336799621582031
-30.263700485229492 16.858400344848633 79.315902709960938
-34.384799957275391 18.997400283813477 77.336601257324219
-31.847799301147461 15.741200447082520 79.786399841308594
-29.974599838256836 17.486000061035156 78.332199096679688
-33.449699401855469 17.417900085449219 78.306999206542969
-30.916299819946289 15.966899871826172 79.326698303222656
-33.505699157714844 18.390699386596680 77.283996582031250
-33.827098846435547 19.053600311279297 76.375900268554688
-29.843299865722656 17.914899826049805 77.319900512695313
-30.555900573730469 16.565500259399414 78.329299926757812
-33.015399932861328 16.358699798583984 78.285400390625000
-32.520599365234375 15.763999938964844 78.766403198242188
-33.243099212646484 17.466999053955078 77.363197326660156
-31.314500808715820 15.858699798583984 78.314002990722656
-30.368499755859375 16.925199508666992 77.323402404785156
-33.151000976562500 18.589599609375000 75.939697265625000
-32.872299194335937 16.441999435424805 77.328903198242188
-32.066699981689453 15.683400154113770 77.735702514648438
-32.970100402832031 17.409400939941406 76.291297912597656
-30.191200256347656 17.343200683593750 76.316200256347656
-30.974300384521484 15.994099617004395 77.321197509765625
-31.884599685668945 16.031799316406250 76.839797973632813
-32.678699493408203 16.527200698852539 76.411003112792969
-30.549600601196289 16.512399673461914 76.327499389648438
-32.721599578857422 17.467300415039063 75.378700256347656
-30.273399353027344 17.390300750732422 75.316001892089844
-31.257699966430664 15.673399925231934 76.298500061035156
-32.645401000976563 16.434000015258789 75.252197265625000
-30.710399627685547 16.302900314331055 75.316101074218750
-32.461101531982422 17.423299789428711 74.301902770996094
-32.067298889160156 15.697899818420410 75.332397460937500
-31.333099365234375 15.850399971008301 74.819801330566406
-30.693300247192383 16.270700454711914 74.322097778320313
-30.361099243164063 16.931699752807617 73.324096679687500
-31.233299255371094 15.776000022888184 73.825202941894531
-30.344299316406250 17.434099197387695 72.323196411132813
-30.940900802612305 15.966400146484375 72.820297241210937
-30.468700408935547 16.462499618530273 71.821296691894531
-31.456800460815430 14.986100196838379 72.822799682617188
-31.002500534057617 15.548899650573730 71.816902160644531
-31.495800018310547 15.007499694824219 71.319999694824219
-31.000499725341797 15.545200347900391 70.821197509765625
-31.597700119018555 15.089099884033203 70.315902709960938
