ply
format ascii 1.0
element vertex 352
property double x
property double y
property double z
end_header
-6.495719909667969 -3.162029981613159 -19.400999069213867
-6.383719921112061 -3.115030050277710 -19.268999099731445
-6.652719974517822 -3.077029943466187 -19.341999053955078
-6.510719776153565 -3.005029916763306 -19.211000442504883
-6.230720043182373 -3.044029951095581 -19.200000762939453
-6.385719776153565 -3.031029939651489 -19.082000732421875
-6.708720207214356 -2.857029914855957 -19.364999771118164
-6.588719844818115 -2.838030099868774 -19.221000671386719
-6.120719909667969 -3.098030090332031 -19.336999893188477
-6.515719890594482 -2.937030076980591 -18.975999832153320
-6.431719779968262 -2.985029935836792 -18.791000366210938
-6.298719882965088 -3.018029928207398 -18.916999816894531
-6.550720214843750 -2.867029905319214 -18.681999206542969
-6.624720096588135 -2.798029899597168 -19.009000778198242
-6.605720043182373 -2.777029991149902 -18.829000473022461
-6.347720146179199 -3.005029916763306 -18.621000289916992
-6.178719997406006 -2.995029926300049 -18.760000228881836
-6.134719848632813 -2.998029947280884 -19.034000396728516
-6.493720054626465 -2.917030096054077 -18.516000747680664
-6.045720100402832 -2.968029975891113 -18.875000000000000
-6.626719951629639 -2.682029962539673 -18.677999496459961
-6.503719806671143 -2.901030063629150 -18.309999465942383
-6.219719886779785 -2.995029926300049 -18.493999481201172
-6.228720188140869 -3.007030010223389 -18.318000793457031
-6.395720005035400 -2.975029945373535 -18.160999298095703
-6.596720218658447 -2.770030021667481 -18.511999130249023
-6.536719799041748 -2.863029956817627 -18.128999710083008
-6.614719867706299 -2.732029914855957 -18.243000030517578
-6.082719802856445 -2.979029893875122 -18.614000320434570
-6.039720058441162 -2.960030078887940 -18.329999923706055
-6.116720199584961 -2.989029884338379 -18.150999069213867
-6.631720066070557 -2.590029954910278 -18.507999420166016
-6.432720184326172 -2.948029994964600 -17.965999603271484
-6.257719993591309 -3.015029907226563 -18.010999679565430
-6.533720016479492 -2.863029956817627 -17.816999435424805
-6.292719841003418 -3.005029916763306 -17.804000854492188
-6.430719852447510 -2.941030025482178 -17.687999725341797
-6.615719795227051 -2.737030029296875 -17.975000381469727
-6.595719814300537 -2.805030107498169 -17.659999847412109
-6.117720127105713 -3.012029886245728 -17.850999832153320
-6.201720237731934 -3.029030084609985 -17.631999969482422
-6.639719963073731 -2.619029998779297 -18.107000350952148
-6.496719837188721 -2.898030042648315 -17.527000427246094
-6.647719860076904 -2.582030057907105 -17.886999130249023
-6.658720016479492 -2.642030000686646 -17.708999633789063
-6.337719917297363 -2.963030099868774 -17.481000900268555
-5.988719940185547 -2.960030078887940 -18.031999588012695
-6.615719795227051 -2.784029960632324 -17.465999603271484
-6.605720043182373 -2.808029890060425 -17.281000137329102
-6.306719779968262 -2.952029943466187 -17.261999130249023
-6.481719970703125 -2.911030054092407 -17.194000244140625
-6.145720005035400 -3.034029960632324 -17.451999664306641
-6.662720203399658 -2.618030071258545 -17.496000289916992
-6.673719882965088 -2.621030092239380 -17.297000885009766
-6.342720031738281 -2.939029932022095 -17.075000762939453
-6.592720031738281 -2.835030078887940 -17.048000335693359
-6.681719779968262 -2.685029983520508 -17.132999420166016
-6.174719810485840 -3.021029949188232 -17.131000518798828
-6.201720237731934 -2.544029951095581 -17.509000778198242
-6.079720020294190 -2.655030012130737 -17.444999694824219
-6.104720115661621 -2.678030014038086 -17.267000198364258
-6.609720230102539 -2.454030036926270 -17.447999954223633
-6.471720218658447 -2.911030054092407 -16.916999816894531
-6.633719921112061 -2.808029890060425 -16.864000320434570
-6.268720149993897 -2.944030046463013 -16.909000396728516
-6.536719799041748 -2.891030073165894 -16.715999603271484
-6.691720008850098 -2.665030002593994 -16.945999145507813
-6.356719970703125 -2.940030097961426 -16.735000610351563
-6.666719913482666 -2.774029970169067 -16.673000335693359
-6.705719947814941 -2.614029884338379 -16.767000198364258
-6.157720088958740 -2.692029953002930 -16.853000640869141
-6.240719795227051 -2.548029899597168 -16.913000106811523
-6.146719932556152 -2.647030115127564 -17.068000793457031
-6.442719936370850 -2.936029911041260 -16.573999404907227
-6.680719852447510 -2.484030008316040 -16.895000457763672
-6.155720233917236 -2.976030111312866 -16.747999191284180
-6.067719936370850 -2.789030075073242 -16.989999771118164
-6.563720226287842 -2.420030117034912 -17.028999328613281
-6.665719985961914 -2.492029905319214 -17.156000137329102
-6.415719985961914 -2.445029973983765 -17.134000778198242
-6.269720077514648 -2.544029951095581 -16.719999313354492
-6.226719856262207 -2.547029972076416 -17.198999404907227
-6.531720161437988 -2.413029909133911 -16.829000473022461
-6.567719936370850 -2.885030031204224 -16.423000335693359
-6.676720142364502 -2.767030000686646 -16.495000839233398
-6.338719844818115 -2.958029985427856 -16.413000106811523
-6.716720104217529 -2.627029895782471 -16.591999053955078
-6.514719963073731 -2.917030096054077 -16.238000869750977
-6.206719875335693 -2.700030088424683 -16.406999588012695
-6.289720058441162 -2.544029951095581 -16.509000778198242
-6.733719825744629 -2.612030029296875 -16.405000686645508
-6.186719894409180 -2.688030004501343 -16.613000869750977
-6.227719783782959 -2.968029975891113 -16.565000534057617
-6.522719860076904 -2.441030025482178 -16.434999465942383
-6.279719829559326 -2.572030067443848 -16.290000915527344
-6.679719924926758 -2.784029960632324 -16.204999923706055
-6.137720108032227 -2.868030071258545 -16.427999496459961
-6.496719837188721 -2.422029972076416 -16.613000869750977
-6.695720195770264 -2.466029882431030 -16.503999710083008
-6.272719860076904 -2.966029882431030 -16.226999282836914
-6.229720115661621 -2.701030015945435 -16.166999816894531
-6.724720001220703 -2.510030031204224 -16.256999969482422
-6.666719913482666 -2.449029922485352 -16.704999923706055
-6.572720050811768 -2.425029993057251 -16.232999801635742
-6.058720111846924 -2.863029956817627 -16.645999908447266
-6.561719894409180 -2.895030021667481 -16.052000045776367
-6.748720169067383 -2.644030094146729 -16.115999221801758
-6.382719993591309 -2.961030006408691 -16.062999725341797
-6.694719791412354 -2.781029939651489 -16.020000457763672
-6.617720127105713 -2.869029998779297 -15.881999969482422
-6.295720100402832 -2.647030115127564 -15.904999732971191
-6.318719863891602 -2.545030117034912 -16.072000503540039
-6.482719898223877 -2.443030118942261 -16.045999526977539
-6.731719970703125 -2.733030080795288 -15.843999862670898
-6.248720169067383 -2.827029943466187 -16.045999526977539
-6.753719806671143 -2.563030004501343 -15.935000419616699
-6.304719924926758 -2.903029918670654 -15.897000312805176
-6.450719833374023 -2.954030036926270 -15.812000274658203
-6.364719867706299 -2.544029951095581 -15.770000457763672
-6.686719894409180 -2.437030076980591 -16.076999664306641
-6.652719974517822 -2.421030044555664 -15.888999938964844
-6.260719776153565 -2.814029932022095 -15.748000144958496
-6.518720149993897 -2.431030035018921 -15.755000114440918
-6.771719932556152 -2.583029985427856 -15.753999710083008
-6.722720146179199 -2.815030097961426 -15.689999580383301
-6.303719997406006 -2.655030012130737 -15.637000083923340
-6.508719921112061 -2.934030055999756 -15.623999595642090
-6.724720001220703 -2.415030002593994 -15.704000473022461
-6.636720180511475 -2.842030048370361 -15.539999961853027
-6.351719856262207 -2.561029911041260 -15.413999557495117
-6.703720092773438 -2.762029886245728 -15.383999824523926
-6.435719966888428 -2.427030086517334 -15.513999938964844
-6.772719860076904 -2.631030082702637 -15.532999992370605
-6.276720046997070 -2.738029956817627 -15.409000396728516
-6.551720142364502 -2.923029899597168 -15.385999679565430
-6.575719833374023 -2.409029960632324 -15.380000114440918
-6.603720188140869 -2.363029956817627 -15.562000274658203
-6.403719902038574 -2.542030096054077 -15.230999946594238
-6.773719787597656 -2.554029941558838 -15.324999809265137
-6.339719772338867 -2.980030059814453 -15.630999565124512
-6.381720066070557 -2.996030092239380 -15.373999595642090
-6.667719841003418 -2.833029985427856 -15.206000328063965
-6.290719985961914 -2.739029884338379 -15.211000442504883
-6.870719909667969 -2.714030027389526 -15.668000221252441
-6.825719833374023 -2.416029930114746 -15.536999702453613
-6.230720043182373 -2.957030057907105 -15.479999542236328
-6.953720092773438 -2.616029977798462 -15.536999702453613
-6.424719810485840 -2.983030080795288 -15.199000358581543
-6.447720050811768 -2.552030086517334 -14.975999832153320
-6.626719951629639 -2.460030078887940 -15.065999984741211
-6.747719764709473 -2.734030008316040 -15.045999526977539
-6.329720020294190 -2.649029970169067 -15.060999870300293
-6.650720119476318 -2.864029884338379 -14.939000129699707
-6.721720218658447 -2.495029926300049 -14.918000221252441
-6.782720088958740 -2.558029890060425 -15.085000038146973
-6.479720115661621 -2.547029972076416 -14.796999931335449
-6.352719783782959 -2.667030096054077 -14.845000267028809
-6.571720123291016 -2.920030117034912 -15.088000297546387
-6.788720130920410 -2.658030033111572 -14.862999916076660
-6.271719932556152 -2.802030086517334 -14.965000152587891
-6.704720020294190 -2.816030025482178 -14.763999938964844
-6.664720058441162 -2.482029914855957 -14.737999916076660
-6.428719997406006 -2.988029956817627 -14.984000205993652
-6.391719818115234 -2.613029956817627 -14.656000137329102
-6.261720180511475 -2.904030084609985 -15.159999847412109
-6.516719818115234 -2.964030027389526 -14.769000053405762
-6.780720233917236 -2.603029966354370 -14.673000335693359
-6.284719944000244 -2.760030031204224 -14.687999725341797
-6.620719909667969 -2.901030063629150 -14.626999855041504
-6.343719959259033 -2.986030101776123 -14.744000434875488
-6.485720157623291 -2.543030023574829 -14.503000259399414
-6.683720111846924 -2.499030113220215 -14.562000274658203
-6.356719970703125 -2.672029972076416 -14.494000434875488
-6.734720230102539 -2.775029897689819 -14.581000328063965
-6.791719913482666 -2.609030008316040 -14.468999862670898
-6.413720130920410 -2.550029993057251 -14.336000442504883
-6.650720119476318 -2.886029958724976 -14.442999839782715
-6.760719776153565 -2.767030000686646 -14.378000259399414
-6.720719814300537 -2.501029968261719 -14.326000213623047
-6.565720081329346 -2.492029905319214 -14.244999885559082
-6.475719928741455 -2.989029884338379 -14.541999816894531
-6.289720058441162 -2.788029909133911 -14.347999572753906
-6.513720035552979 -2.977030038833618 -14.366999626159668
-6.326720237731934 -2.644030094146729 -14.215999603271484
-6.276720046997070 -2.961030006408691 -14.534000396728516
-6.766719818115234 -2.769030094146729 -14.187999725341797
-6.808720111846924 -2.602030038833618 -14.154000282287598
-6.357719898223877 -2.464030027389526 -14.154999732971191
-6.338719844818115 -3.002029895782471 -14.328000068664551
-6.509719848632813 -2.542030096054077 -14.067000389099121
-6.586719989776611 -2.543030023574829 -13.888999938964844
-6.343719959259033 -2.620029926300049 -14.031000137329102
-6.720719814300537 -2.502029895782471 -14.039999961853027
-6.427720069885254 -2.627029895782471 -13.876000404357910
-6.310719966888428 -2.779030084609985 -14.102999687194824
-6.838719844818115 -2.715029954910278 -13.982999801635742
-6.811719894409180 -2.569030046463013 -13.862999916076660
-6.535719871520996 -2.586030006408691 -13.713000297546387
-6.685719966888428 -2.930030107498169 -14.123000144958496
-6.283720016479492 -2.398030042648315 -13.989000320434570
-6.699719905853272 -2.505029916763306 -13.741999626159668
-6.292719841003418 -2.690030097961426 -13.782999992370605
-6.516719818115234 -2.997030019760132 -14.130000114440918
-6.174719810485840 -2.631030082702637 -13.942999839782715
-6.627719879150391 -2.995029926300049 -13.956999778747559
-6.258719921112061 -2.874030113220215 -13.958000183105469
-6.836719989776611 -2.773030042648315 -13.784000396728516
-6.870719909667969 -2.899029970169067 -14.097000122070312
-6.204720020294190 -2.467030048370361 -13.840000152587891
-6.789720058441162 -2.954030036926270 -13.892999649047852
-6.267720222473145 -2.941030025482178 -14.173000335693359
-6.351719856262207 -3.029030084609985 -14.039999961853027
-6.395720005035400 -2.682029962539673 -13.628000259399414
-6.642720222473145 -2.986030101776123 -13.777000427246094
-6.932720184326172 -2.856029987335205 -13.921999931335449
-6.818719863891602 -2.612030029296875 -13.663000106811523
-6.479720115661621 -3.040030002593994 -13.840000152587891
-6.614719867706299 -2.548029899597168 -13.517999649047852
-6.480720043182373 -2.647030115127564 -13.390000343322754
-6.621719837188721 -2.547029972076416 -13.302000045776367
-6.333720207214356 -2.796030044555664 -13.501999855041504
-6.797719955444336 -2.770030021667481 -13.506999969482422
-6.828720092773438 -2.557029962539673 -13.475000381469727
-6.724720001220703 -2.888030052185059 -13.628000259399414
-6.664720058441162 -2.930030107498169 -13.468000411987305
-6.364719867706299 -2.790030002593994 -13.309000015258789
-6.818719863891602 -2.727030038833618 -13.331999778747559
-6.505720138549805 -2.639029979705811 -13.187000274658203
-6.227719783782959 -2.803030014038086 -13.645000457763672
-6.489719867706299 -3.007030010223389 -13.501999855041504
-6.836719989776611 -2.551029920578003 -13.293999671936035
-6.728720188140869 -2.880029916763306 -13.303999900817871
-6.144720077514648 -2.628030061721802 -13.664999961853027
-6.561719894409180 -2.978029966354370 -13.321999549865723
-6.180719852447510 -2.734030008316040 -13.381999969482422
-6.387720108032227 -2.972029924392700 -13.342000007629395
-6.621719837188721 -3.094029903411865 -13.609000205993652
-6.221720218658447 -2.907030105590820 -13.359999656677246
-6.882719993591309 -2.937030076980591 -13.737999916076660
-6.608719825744629 -2.543030023574829 -13.081999778747559
-6.808720111846924 -3.044029951095581 -13.576000213623047
-6.465720176696777 -2.626029968261719 -13.013999938964844
-6.356719970703125 -2.774029970169067 -13.112000465393066
-6.866720199584961 -2.594029903411865 -13.031999588012695
-6.307720184326172 -2.665030002593994 -12.947999954223633
-6.797719955444336 -2.801029920578003 -13.163999557495117
-6.838719844818115 -2.762029886245728 -12.975999832153320
-6.716720104217529 -2.907030105590820 -13.022999763488770
-6.589719772338867 -2.971029996871948 -13.133999824523926
-6.342720031738281 -2.892030000686646 -12.906999588012695
-6.453720092773438 -3.003030061721802 -13.000000000000000
-6.612720012664795 -3.006030082702637 -12.895000457763672
-6.836719989776611 -2.837029933929443 -12.633999824523926
-6.784719944000244 -3.005029916763306 -12.670999526977539
-6.537720203399658 -3.102030038833618 -12.687000274658203
-6.373720169067383 -2.823029994964600 -12.725000381469727
-6.620719909667969 -3.284029960632324 -12.744000434875488
-6.698719978332520 -3.128030061721802 -12.765000343322754
-6.241720199584961 -2.704030036926270 -12.781000137329102
-6.868720054626465 -2.687030076980591 -12.805000305175781
-6.376719951629639 -2.583029985427856 -12.809000015258789
-6.447720050811768 -2.989029884338379 -12.803999900817871
-6.797719955444336 -2.855030059814453 -12.822999954223633
-6.815720081329346 -2.516030073165894 -12.848999977111816
-6.567719936370850 -2.542030096054077 -12.862999916076660
-6.048719882965088 -3.013030052185059 -13.296999931335449
-6.040719985961914 -2.817029953002930 -13.310000419616699
-6.209720134735107 -3.104029893875122 -13.326000213623047
-6.534719944000244 -3.172029972076416 -13.449000358581543
-6.721720218658447 -3.177030086517334 -13.482999801635742
-6.041719913482666 -2.661030054092407 -13.493000030517578
-6.100719928741455 -2.839030027389526 -13.513999938964844
-6.187719821929932 -2.981029987335205 -13.621000289916992
-6.425720214843750 -3.099030017852783 -13.666000366210938
-6.128719806671143 -2.765029907226563 -13.788000106811523
-6.211719989776611 -2.949029922485352 -13.795000076293945
-6.311719894409180 -3.096029996871948 -13.819999694824219
-7.153719902038574 -2.651030063629150 -15.420999526977539
-7.030720233917236 -2.776030063629150 -15.562999725341797
-6.008719921112061 -2.849030017852783 -16.830999374389648
-6.139719963073731 -3.188030004501343 -16.829999923706055
-5.886720180511475 -2.981029987335205 -16.902000427246094
-6.019720077514648 -3.092030048370361 -16.986000061035156
-5.935719966888428 -2.906029939651489 -17.062999725341797
-5.992720127105713 -2.790030002593994 -17.187000274658203
-6.537720203399658 -2.423029899597168 -17.267000198364258
-6.020720005035400 -3.054029941558838 -17.259000778198242
-6.368720054626465 -2.438030004501343 -17.382999420166016
-5.973720073699951 -2.995029926300049 -17.451000213623047
-5.962719917297363 -2.811029911041260 -17.458999633789063
-6.468719959259033 -2.412029981613159 -17.555999755859375
-6.013720035552979 -2.700030088424683 -17.607000350952148
-6.617720127105713 -2.471029996871948 -17.636999130249023
-5.940720081329346 -2.858030080795288 -17.629999160766602
-6.149720191955566 -2.559030055999756 -17.697000503540039
-6.365719795227051 -2.450030088424683 -17.716999053955078
-6.025720119476318 -2.998029947280884 -17.701000213623047
-6.544720172882080 -2.430030107498169 -17.799999237060547
-6.030720233917236 -2.663029909133911 -17.777999877929688
-5.942719936370850 -2.907030105590820 -17.847999572753906
-6.138720035552979 -2.545030117034912 -17.875000000000000
-6.294720172882080 -2.460030078887940 -17.884000778198242
-6.448719978332520 -2.418030023574829 -17.968000411987305
-5.959720134735107 -2.751029968261719 -17.952999114990234
-6.057720184326172 -2.618030071258545 -18.011999130249023
-6.599720001220703 -2.453030109405518 -18.054000854492188
-6.230720043182373 -2.467030048370361 -18.087999343872070
-6.105720043182373 -2.549030065536499 -18.183000564575195
-6.367720127105713 -2.410029888153076 -18.201000213623047
-5.942719936370850 -2.805030107498169 -18.180000305175781
-6.537720203399658 -2.417030096054077 -18.243000030517578
-6.634719848632813 -2.560029983520508 -18.298999786376953
-6.009719848632813 -2.664030075073242 -18.323999404907227
-6.275720119476318 -2.418030023574829 -18.388999938964844
-6.594719886779785 -2.442029953002930 -18.423000335693359
-6.085720062255859 -2.559030055999756 -18.490999221801758
-6.428719997406006 -2.374030113220215 -18.520000457763672
-5.965720176696777 -2.711030006408691 -18.503999710083008
-5.966720104217529 -2.902029991149902 -18.503000259399414
-6.265719890594482 -2.402029991149902 -18.580999374389648
-6.585720062255859 -2.431030035018921 -18.611000061035156
-6.036719799041748 -2.585030078887940 -18.665000915527344
-6.429719924926758 -2.366029977798462 -18.714000701904297
-6.184720039367676 -2.428030014038086 -18.747999191284180
-6.640719890594482 -2.546030044555664 -18.795000076293945
-5.966720104217529 -2.837029933929443 -18.788999557495117
-6.311719894409180 -2.358030080795288 -18.850999832153320
-6.553719997406006 -2.388030052185059 -18.868000030517578
-6.052720069885254 -2.545030117034912 -18.865999221801758
-6.661719799041748 -2.619029998779297 -18.975999832153320
-6.198719978332520 -2.388030052185059 -18.999000549316406
-5.978720188140869 -2.705029964447022 -18.997999191284180
-6.440720081329346 -2.349030017852783 -19.056999206542969
-6.627719879150391 -2.471029996871948 -19.063999176025391
-6.048719882965088 -2.545030117034912 -19.054000854492188
-5.968719959259033 -2.895030021667481 -19.061000823974609
-6.594719886779785 -2.255029916763306 -19.117000579833984
-6.634719848632813 -2.667030096054077 -19.152999877929687
-6.299719810485840 -2.368030071258545 -19.170000076293945
-5.966720104217529 -2.720030069351196 -19.177000045776367
-6.052720069885254 -2.980030059814453 -19.197999954223633
-6.461719989776611 -2.266030073165894 -19.242000579833984
-6.641719818115234 -2.413029909133911 -19.273000717163086
-6.027719974517822 -2.564029932022095 -19.264999389648438
-5.938720226287842 -2.874030113220215 -19.284000396728516
-6.324719905853272 -2.183029890060425 -19.323999404907227
-6.739719867706299 -2.567029953002930 -19.339000701904297
-6.848720073699951 -2.746030092239380 -19.370000839233398
-6.270720005035400 -2.347029924392700 -19.372999191284180
-5.855720043182373 -2.742029905319214 -19.367000579833984
-5.909719944000244 -2.556030035018921 -19.419000625610352
-6.106719970703125 -2.309030055999756 -19.437999725341797
