ply
format ascii 1.0
element vertex 173
property double x
property double y
property double z
end_header
-3.621720075607300 -5.667029857635498 -15.024999618530273
-4.033720016479492 -4.469029903411865 -15.029000282287598
-3.770720005035400 -4.423029899597168 -15.039999961853027
-3.621720075607300 -5.667029857635498 -15.024999618530273
-4.342720031738281 -4.974030017852783 -15.067000389099121
-3.802720069885254 -4.647029876708984 -15.064000129699707
-3.298719882965088 -5.268030166625977 -15.045999526977539
-3.436719894409180 -5.848030090332031 -15.062999725341797
-3.990720033645630 -4.642029762268066 -15.109999656677246
-3.857719898223877 -5.474030017852783 -15.092000007629395
-3.456720113754273 -5.193029880523682 -15.090999603271484
-3.681720018386841 -4.768030166625977 -15.112999916076660
-4.226719856262207 -5.090030193328857 -15.133000373840332
-3.807719945907593 -5.295030117034912 -15.116999626159668
-4.166719913482666 -4.290030002593994 -15.154000282287598
-3.886719942092896 -4.809030055999756 -15.135000228881836
-3.668720006942749 -4.971030235290527 -15.125000000000000
-3.666719913482666 -4.564030170440674 -15.137000083923340
-4.306719779968262 -4.743030071258545 -15.157999992370605
-3.375720024108887 -6.016029834747315 -15.105999946594238
-3.977720022201538 -5.340030193328857 -15.142000198364258
-4.191720008850098 -4.468029975891113 -15.171999931335449
-4.114719867706299 -5.223030090332031 -15.154000282287598
-3.641720056533814 -5.174029827117920 -15.145000457763672
-3.910720109939575 -5.010029792785645 -15.157999992370605
-3.393719911575317 -4.931029796600342 -15.142999649047852
-4.095719814300537 -4.100029945373535 -15.189999580383301
-4.125720024108887 -4.740029811859131 -15.180000305175781
-3.690720081329346 -5.502029895782471 -15.147999763488770
-4.427720069885254 -4.875030040740967 -15.192000389099121
-3.513720035552979 -5.710030078887940 -15.156000137329102
-4.238719940185547 -4.927030086517334 -15.204999923706055
-3.531719923019409 -4.825029850006104 -15.185000419616699
-4.321720123291016 -4.357029914855957 -15.225999832153320
-4.084720134735107 -5.015029907226563 -15.211999893188477
-3.321719884872437 -5.501029968261719 -15.178000450134277
-3.949719905853272 -5.181029796600342 -15.210000038146973
-4.459720134735107 -4.503029823303223 -15.244000434875488
-4.268720149993897 -4.139029979705811 -15.246999740600586
-3.508719921112061 -5.062029838562012 -15.206999778747559
-3.588720083236694 -5.333030223846436 -15.213999748229980
-3.812720060348511 -4.659029960632324 -15.244999885559082
-3.213720083236694 -6.171030044555664 -15.192999839782715
-3.233720064163208 -5.354030132293701 -15.215999603271484
-4.551720142364502 -4.752029895782471 -15.274999618530273
-3.765719890594482 -4.872029781341553 -15.246000289916992
-3.770720005035400 -5.074029922485352 -15.243000030517578
-3.514719963073731 -5.515029907226563 -15.227000236511230
-4.431719779968262 -4.235030174255371 -15.291999816894531
-3.843719959259033 -4.488029956817627 -15.269000053405762
-3.413719892501831 -5.348030090332031 -15.239999771118164
-4.011720180511475 -4.845029830932617 -15.272999763488770
-4.019720077514648 -4.643030166625977 -15.296999931335449
-3.266720056533814 -6.002029895782471 -15.248000144958496
-4.658720016479492 -4.625030040740967 -15.329000473022461
-3.368720054626465 -5.860030174255371 -15.256999969482422
-4.195720195770264 -4.643030166625977 -15.321999549865723
-3.387720108032227 -5.668029785156250 -15.270999908447266
-4.398719787597656 -4.660029888153076 -15.329999923706055
-5.028719902038574 -4.213029861450195 -15.369000434875488
-3.052720069885254 -6.364029884338379 -15.265000343322754
-4.388720035552979 -4.005030155181885 -15.364999771118164
-4.056719779968262 -4.477029800415039 -15.343999862670898
-3.908720016479492 -4.339029788970947 -15.357000350952148
-3.202719926834106 -5.526030063629150 -15.305999755859375
-4.887720108032227 -4.313029766082764 -15.395000457763672
-4.827720165252686 -4.147029876708984 -15.397999763488770
-4.372719764709473 -4.439030170440674 -15.383000373840332
-5.136720180511475 -4.082029819488525 -15.418000221252441
-4.199719905853272 -4.360030174255371 -15.381999969482422
-4.610720157623291 -3.986030101776123 -15.406000137329102
-4.548719882965088 -4.468029975891113 -15.395999908447266
-4.713719844818115 -4.390029907226563 -15.406999588012695
-4.044720172882080 -4.220029830932617 -15.397000312805176
-4.185719966888428 -4.109029769897461 -15.409999847412109
-4.734720230102539 -3.633029937744141 -15.439999580383301
-3.031719923019409 -5.536029815673828 -15.340999603271484
-4.560719966888428 -3.769030094146729 -15.446999549865723
-4.512720108032227 -4.299029827117920 -15.434000015258789
-4.343719959259033 -4.188029766082764 -15.437000274658203
-3.204720020294190 -5.849030017852783 -15.366999626159668
-3.131720066070557 -5.683030128479004 -15.385999679565430
-4.770720005035400 -3.998029947280884 -15.480999946594238
-4.682720184326172 -4.231029987335205 -15.472999572753906
-3.165719985961914 -6.090030193328857 -15.381999969482422
-4.831719875335693 -3.821029901504517 -15.501999855041504
-4.513720035552979 -4.111030101776123 -15.489000320434570
-2.967720031738281 -6.526030063629150 -15.383999824523926
-4.891719818115234 -3.638030052185059 -15.524999618530273
-5.069719791412354 -3.956029891967773 -15.524000167846680
-4.954720020294190 -4.099030017852783 -15.520000457763672
-3.081720113754273 -6.247029781341553 -15.411000251770020
-4.487720012664795 -3.911030054092407 -15.522000312805176
-2.983720064163208 -5.758029937744141 -15.451999664306641
-3.057719945907593 -5.958030223846436 -15.449999809265137
-5.226719856262207 -4.012030124664307 -15.576000213623047
-4.670720100402832 -3.820029973983765 -15.578000068664551
-2.827719926834106 -6.241030216217041 -15.468000411987305
-2.982719898223877 -6.133029937744141 -15.501999855041504
-2.885720014572144 -5.922029972076416 -15.503999710083008
-4.874720096588135 -3.959029912948608 -15.621999740600586
-3.008719921112061 -6.389029979705811 -15.512000083923340
-5.002719879150391 -3.825030088424683 -15.640000343322754
-5.012720108032227 -3.625030040740967 -15.651000022888184
-4.820720195770264 -3.749030113220215 -15.661999702453613
-5.181719779968262 -3.827029943466187 -15.677000045776367
-4.861720085144043 -3.542030096054077 -15.687000274658203
-5.302720069885254 -3.962029933929443 -15.729000091552734
-2.936719894409180 -6.808030128479004 -15.586999893188477
-2.718719959259033 -6.300030231475830 -15.595999717712402
-5.030720233917236 -3.446029901504517 -15.753000259399414
-2.749720096588135 -6.510029792785645 -15.609000205993652
-2.950720071792603 -6.544030189514160 -15.621000289916992
-2.877720117568970 -6.382030010223389 -15.628999710083008
-5.123720169067383 -3.601030111312866 -15.788999557495117
-5.282720088958740 -3.730030059814453 -15.798000335693359
-5.081719875335693 -3.774029970169067 -15.810000419616699
-5.373720169067383 -3.865030050277710 -15.862000465393066
-5.157720088958740 -3.376029968261719 -15.866999626159668
-2.980720043182373 -6.703030109405518 -15.723999977111816
-2.947720050811768 -7.064030170440674 -15.736000061035156
-2.966720104217529 -6.888030052185059 -15.744000434875488
-2.839720010757446 -6.576029777526856 -15.770000457763672
-2.655719995498657 -6.521029949188232 -15.767000198364258
-5.393720149993897 -3.611030101776123 -15.930999755859375
-2.720720052719116 -6.703030109405518 -15.784999847412109
-5.304719924926758 -3.429029941558838 -15.951999664306641
-5.260719776153565 -3.242029905319214 -15.963000297546387
-5.175720214843750 -3.610029935836792 -15.956000328063965
-5.440720081329346 -3.793030023574829 -16.013000488281250
-2.876719951629639 -6.777029991149902 -15.859999656677246
-5.415719985961914 -3.148030042648315 -16.048999786376953
-5.426720142364502 -3.325030088424683 -16.065999984741211
-2.900719881057739 -7.011030197143555 -15.907999992370605
-5.523719787597656 -3.644030094146729 -16.079999923706055
-5.372719764709473 -3.528029918670654 -16.127000808715820
-5.571720123291016 -3.464030027389526 -16.142999649047852
-5.536719799041748 -3.224030017852783 -16.159999847412109
-2.761719942092896 -6.793029785156250 -15.994000434875488
-5.640719890594482 -3.080029964447022 -16.211000442504883
-5.649720191955566 -3.612030029296875 -16.200000762939453
-2.868720054626465 -7.155029773712158 -16.048000335693359
-2.696719884872437 -7.124030113220215 -16.042999267578125
-2.815720081329346 -6.983029842376709 -16.059000015258789
-5.791719913482666 -3.467030048370361 -16.260999679565430
-5.640719890594482 -3.346029996871948 -16.259000778198242
-2.843719959259033 -7.333030223846436 -16.083999633789063
-5.931719779968262 -3.355030059814453 -16.330999374389648
-2.778719902038574 -7.217030048370361 -16.197999954223633
-5.719719886779785 -3.093029975891113 -16.423000335693359
-5.644720077514648 -3.274029970169067 -16.427000045776367
-5.826720237731934 -3.241029977798462 -16.434999465942383
-2.843719959259033 -7.504030227661133 -16.236000061035156
-2.724720001220703 -7.373030185699463 -16.274000167846680
-5.973720073699951 -3.322030067443848 -16.513999938964844
-5.773719787597656 -3.002029895782471 -16.562000274658203
-2.714720010757446 -7.480030059814453 -16.416999816894531
-5.899720191955566 -3.151030063629150 -16.625999450683594
-2.835720062255859 -7.608029842376709 -16.452999114990234
-6.017720222473145 -3.275029897689819 -16.697999954223633
-5.848720073699951 -3.010030031204224 -16.725000381469727
-6.005720138549805 -3.078030109405518 -16.774999618530273
-2.839720010757446 -7.742030143737793 -16.568000793457031
-2.736720085144043 -7.540030002593994 -16.586000442504883
-2.663719892501831 -7.722030162811279 -16.603000640869141
-2.829720020294190 -7.618030071258545 -16.735000610351563
-2.687720060348511 -7.759029865264893 -16.813999176025391
-2.856719970703125 -7.744029998779297 -16.909000396728516
-2.665719985961914 -7.814030170440674 -16.982999801635742
-2.808720111846924 -7.783030033111572 -17.090000152587891
-2.758719921112061 -7.901030063629150 -17.288999557495117
-2.718719959259033 -8.021030426025391 -17.506000518798828
-2.785720109939575 -8.182029724121094 -17.603000640869141
