ply
format ascii 1.0
element vertex 491
property double x
property double y
property double z
end_header
-5.438720226287842 0.197965994477272 -1.327999949455261
-5.438720226287842 0.197965994477272 -1.327999949455261
-5.521719932556152 0.264966011047363 -1.480000019073486
-5.575719833374023 0.079966403543949 -1.491999983787537
-5.637720108032227 0.230965003371239 -1.625000000000000
-5.689720153808594 0.001967299962416 -1.623999953269959
-5.765719890594482 0.175966992974281 -1.738000035285950
-5.801720142364502 -0.079034000635147 -1.756000041961670
-5.901720046997070 0.109967000782490 -1.855999946594238
-5.939720153808594 -0.100033998489380 -1.881000041961670
-5.735720157623291 -0.311033993959427 -1.886999964714050
-5.846720218658447 -0.465034008026123 -1.891000032424927
-6.050720214843750 0.028965799137950 -1.929999947547913
-5.969719886779785 -0.351033002138138 -1.970000028610230
-6.057720184326172 -0.175033003091812 -2.005000114440918
-5.802720069885254 -0.040034398436546 -2.023000001907349
-5.901720046997070 -0.610033988952637 -2.032000064849854
-5.721720218658447 -0.481034010648727 -2.033999919891357
-6.155720233917236 0.037966601550579 -2.078999996185303
-6.043719768524170 -0.480033010244370 -2.065000057220459
-5.966720104217529 0.013966400176287 -2.128999948501587
-6.175720214843750 -0.230032995343208 -2.153000116348267
-6.118720054626465 -0.621034026145935 -2.151000022888184
-5.962719917297363 -0.698032975196838 -2.174000024795532
-5.726719856262207 -0.237032994627953 -2.184999942779541
-5.785719871520996 -0.602033019065857 -2.180000066757202
-5.810719966888428 -0.079034000635147 -2.203999996185303
-6.233719825744629 -0.053033001720905 -2.220999956130981
-6.324719905853272 -0.191033005714417 -2.278000116348267
-6.237720012664795 -0.396032989025116 -2.276999950408936
-5.993720054626465 -0.883032977581024 -2.265000104904175
-5.831719875335693 -0.788034021854401 -2.265000104904175
-6.151720046997070 -0.760034024715424 -2.276999950408936
-6.193719863891602 -0.575034022331238 -2.329999923706055
-5.700719833374023 -0.482033997774124 -2.355000019073486
-6.428719997406006 -0.230032995343208 -2.420000076293945
-5.732719898223877 -0.702032983303070 -2.388999938964844
-5.852719783782959 -0.895034015178680 -2.403000116348267
-6.115719795227051 -0.935033023357391 -2.428999900817871
-6.275720119476318 -0.695033013820648 -2.444000005722046
-6.302720069885254 -0.468033999204636 -2.451999902725220
-5.962719917297363 -1.012030005455017 -2.476000070571899
-6.255720138549805 -0.870033979415894 -2.523000001907349
-5.710720062255859 -0.490033000707626 -2.535000085830689
-5.788720130920410 -0.666033983230591 -2.555999994277954
-6.160719871520996 -1.046030044555664 -2.582999944686890
-6.318719863891602 -0.625033020973206 -2.605999946594238
-6.385719776153565 -0.238033995032310 -2.621000051498413
-6.042719841003418 -1.172029972076416 -2.609999895095825
-5.884719848632813 -0.822034001350403 -2.621000051498413
-6.320720195770264 -0.816033005714417 -2.687000036239624
-5.952720165252686 -0.976032972335815 -2.691999912261963
-5.829720020294190 -0.483033001422882 -2.700999975204468
-6.297719955444336 -0.987033009529114 -2.720999956130981
-5.902719974517822 -0.671033024787903 -2.723999977111816
-6.439720153808594 -0.313033014535904 -2.776000022888184
-6.118720054626465 -1.261029958724976 -2.749000072479248
-6.307720184326172 -0.497032999992371 -2.790999889373779
-6.194719791412354 -1.110030055046082 -2.802000045776367
-5.968719959259033 -0.812034010887146 -2.802999973297119
-6.003719806671143 -1.143030047416687 -2.808000087738037
-5.959720134735107 -0.529033005237579 -2.825000047683716
-6.254720211029053 -0.951034009456635 -2.890000104904175
-6.005720138549805 -0.976032972335815 -2.884000062942505
-6.436719894409180 -0.471033990383148 -2.913000106811523
-6.225719928741455 -1.251029968261719 -2.901000022888184
-6.357719898223877 -0.634033977985382 -2.924000024795532
-6.038720130920410 -0.670033991336823 -2.927000045776367
-6.082719802856445 -0.492033988237381 -2.948999881744385
-6.482719898223877 -0.288033992052078 -2.970999956130981
-6.053719997406006 -0.839034020900726 -2.982000112533569
-6.046720027923584 -1.148030042648315 -2.980999946594238
-6.311719894409180 -0.815033972263336 -3.000999927520752
-6.317719936370850 -1.158030033111572 -3.020999908447266
-6.102719783782959 -1.326030015945435 -3.032000064849854
-6.286719799041748 -1.375030040740967 -3.038000106811523
-6.528719902038574 -0.503033995628357 -3.069999933242798
-6.154719829559326 -0.607034027576447 -3.075000047683716
-6.443719863891602 -0.743034005165100 -3.091000080108643
-6.216720104217529 -1.526029944419861 -3.102999925613403
-6.563720226287842 -0.340034008026123 -3.151999950408936
-6.279719829559326 -0.482033997774124 -3.147000074386597
-6.145720005035400 -0.776033997535706 -3.150000095367432
-6.654719829559326 -0.488034009933472 -3.190000057220459
-6.089719772338867 -1.148030042648315 -3.155999898910523
-6.109720230102539 -0.949033021926880 -3.161999940872192
-6.604720115661621 -0.684033989906311 -3.191999912261963
-6.507719993591309 -0.844033002853394 -3.223000049591065
-6.246719837188721 -0.641034007072449 -3.234999895095825
-6.354720115661621 -0.965034008026123 -3.232000112533569
-6.121719837188721 -1.428030014038086 -3.223999977111816
-6.690720081329346 -0.323033004999161 -3.296999931335449
-6.746719837188721 -0.674032986164093 -3.293999910354614
-6.422719955444336 -0.466033011674881 -3.288000106811523
-6.293719768524170 -1.512030005455017 -3.278000116348267
-6.339719772338867 -1.308030009269714 -3.293999910354614
-6.138720035552979 -1.056030035018921 -3.296999931335449
-6.789720058441162 -0.484032988548279 -3.332999944686890
-6.799719810485840 -0.840034008026123 -3.334000110626221
-6.122719764709473 -1.248029947280884 -3.302999973297119
-6.208720207214356 -0.822034001350403 -3.315999984741211
-6.402719974517822 -1.128029942512512 -3.322000026702881
-6.139719963073731 -1.601029992103577 -3.315999984741211
-6.637720108032227 -0.913034021854401 -3.354000091552734
-6.876719951629639 -0.621034026145935 -3.398000001907349
-6.352719783782959 -0.630033016204834 -3.381000041961670
-6.483719825744629 -0.988034009933472 -3.398000001907349
-6.553719997406006 -0.473033010959625 -3.433000087738037
-6.271719932556152 -1.689030051231384 -3.408999919891357
-6.219719886779785 -0.950034022331238 -3.434999942779541
-6.901720046997070 -0.788034021854401 -3.474999904632568
-6.796720027923584 -0.954033970832825 -3.467999935150147
-6.304719924926758 -0.799032986164093 -3.470999956130981
-6.391719818115234 -1.337030053138733 -3.461999893188477
-6.178719997406006 -1.131029963493347 -3.469000101089478
-6.108719825744629 -1.503029942512512 -3.457999944686890
-6.133719921112061 -1.328029990196228 -3.467999935150147
-6.331719875335693 -1.523030042648315 -3.473000049591065
-6.482719898223877 -0.616033017635345 -3.526999950408936
-6.710720062255859 -0.475033998489380 -3.539000034332275
-6.603720188140869 -1.004029989242554 -3.532999992370606
-6.127719879150391 -1.709030032157898 -3.506000041961670
-6.901720046997070 -0.515033006668091 -3.565000057220459
-6.436719894409180 -1.098029971122742 -3.536000013351440
-6.968719959259033 -0.676033973693848 -3.608999967575073
-6.260719776153565 -1.833029985427856 -3.559999942779541
-6.334720134735107 -1.675029993057251 -3.579999923706055
-6.308720111846924 -0.931033015251160 -3.598000049591065
-6.850719928741455 -1.020030021667481 -3.630000114440918
-6.411719799041748 -0.782033026218414 -3.627000093460083
-6.920720100402832 -0.842033982276917 -3.651999950408936
-6.468719959259033 -1.328029990196228 -3.640000104904175
-6.228720188140869 -1.134029984474182 -3.640000104904175
-6.595719814300537 -0.646032989025116 -3.674000024795532
-6.759719848632813 -0.563032984733582 -3.687000036239624
-6.165719985961914 -1.329030036926270 -3.651000022888184
-6.407720088958740 -1.509029984474182 -3.664999961853027
-6.692719936370850 -1.071030020713806 -3.688999891281128
-6.139719963073731 -1.503029942512512 -3.676000118255615
-6.554719924926758 -1.179029941558838 -3.710999965667725
-6.149720191955566 -1.815029978752136 -3.697000026702881
-7.002719879150391 -0.991033017635345 -3.744999885559082
-7.040719985961914 -0.621034026145935 -3.767999887466431
-6.343719959259033 -1.771029949188232 -3.726000070571899
-6.620719909667969 -1.346029996871948 -3.755000114440918
-6.471720218658447 -1.655030012130737 -3.752000093460083
-7.077720165252686 -0.806033015251160 -3.798000097274780
-6.787720203399658 -1.252030014991760 -3.779000043869019
-6.547719955444336 -0.782033026218414 -3.786000013351440
-6.430719852447510 -0.924032986164093 -3.795000076293945
-6.704720020294190 -0.696033000946045 -3.809999942779541
-6.866720199584961 -0.631034016609192 -3.825999975204468
-6.942719936370850 -1.143030047416687 -3.819000005722046
-6.329720020294190 -1.076030015945435 -3.816999912261963
-6.403719902038574 -1.939030051231384 -3.803999900817871
-6.901720046997070 -1.382030010223389 -3.848000049591065
-6.247719764709473 -1.290030002593994 -3.845000028610230
-7.103720188140869 -1.006029963493347 -3.888999938964844
-6.221720218658447 -1.895030021667481 -3.848999977111816
-6.187719821929932 -1.534029960632324 -3.864000082015991
-7.061719894409180 -0.684033989906311 -3.934999942779541
-6.585720062255859 -0.889033019542694 -3.927999973297119
-7.166719913482666 -0.837032973766327 -3.957000017166138
-7.010719776153565 -1.511029958724976 -3.940999984741211
-7.057720184326172 -1.168030023574829 -3.954999923706055
-6.465720176696777 -1.049029946327210 -3.957999944686890
-6.738719940185547 -0.810033023357391 -3.976999998092651
-6.355720043182373 -1.216030001640320 -3.964999914169312
-6.315720081329346 -2.044029951095581 -3.950000047683716
-6.905720233917236 -0.755033016204834 -4.000000000000000
-6.494719982147217 -2.030030012130737 -3.960999965667725
-6.205719947814941 -1.686030030250549 -3.982000112533569
-6.988719940185547 -1.322029948234558 -4.030000209808350
-7.153719902038574 -1.047029972076416 -4.052000045776367
-6.262720108032227 -1.521029949188232 -4.032000064849854
-6.696720123291016 -0.940033972263336 -4.097000122070313
-6.350719928741455 -1.377030014991760 -4.083000183105469
-7.254720211029053 -0.889033019542694 -4.131000041961670
-6.559720039367676 -1.082030057907105 -4.107999801635742
-6.236720085144043 -1.894029974937439 -4.089000225067139
-6.872719764709473 -0.866033017635345 -4.140999794006348
-6.454720020294190 -1.233029961585999 -4.123000144958496
-7.096720218658447 -1.235030055046082 -4.144999980926514
-7.052720069885254 -0.837032973766327 -4.152999877929688
-6.417719841003418 -2.145030021667481 -4.102000236511231
-6.994719982147217 -1.448029994964600 -4.162000179290772
-6.286719799041748 -2.043030023574829 -4.175000190734863
-7.228720188140869 -1.130030035972595 -4.229000091552734
-6.263720035552979 -1.731029987335205 -4.184000015258789
-6.337719917297363 -1.551030039787293 -4.210999965667725
-7.328720092773438 -0.989033997058868 -4.260000228881836
-6.781720161437988 -0.990032970905304 -4.243000030517578
-7.127719879150391 -1.363029956817627 -4.261000156402588
-7.159719944000244 -0.902033984661102 -4.277999877929688
-6.662720203399658 -1.113029956817627 -4.288000106811523
-6.988719940185547 -0.956032991409302 -4.313000202178955
-6.559720039367676 -1.254029989242554 -4.304999828338623
-6.346720218658447 -2.193030118942261 -4.317999839782715
-7.412720203399658 -1.090029954910278 -4.383999824523926
-7.277719974517822 -1.215029954910278 -4.380000114440918
-6.449719905853272 -1.502030014991760 -4.349999904632568
-6.316720008850098 -1.817029953002930 -4.361999988555908
-7.228720188140869 -0.985033988952637 -4.415999889373779
-6.879720211029053 -1.073029994964600 -4.409999847412109
-6.405720233917236 -1.669029951095581 -4.394000053405762
-6.317719936370850 -2.028029918670654 -4.383999824523926
-7.170720100402832 -1.344030022621155 -4.433000087738037
-6.755720138549805 -1.196030020713806 -4.441999912261963
-6.619719982147217 -1.351029992103577 -4.440999984741211
-7.061719894409180 -1.042029976844788 -4.464000225067139
-6.551720142364502 -1.539029955863953 -4.489999771118164
-7.451720237731934 -1.205029964447022 -4.535999774932861
-7.322720050811768 -1.070029973983765 -4.539999961853027
-7.230720043182373 -1.525030016899109 -4.527999877929688
-7.315720081329346 -1.319030046463013 -4.537000179290772
-6.381720066070557 -1.913030028343201 -4.507999897003174
-6.966720104217529 -1.166030049324036 -4.563000202178955
-6.838719844818115 -1.286030054092407 -4.574999809265137
-7.134719848632813 -1.127030014991760 -4.599999904632568
-6.466720104217529 -1.736029982566834 -4.576000213623047
-6.699719905853272 -1.508030056953430 -4.592999935150147
-6.355720043182373 -2.118030071258545 -4.591000080108643
-7.523719787597656 -1.303030014038086 -4.669000148773193
-7.354720115661621 -1.167029976844788 -4.685999870300293
-7.386720180511475 -1.413030028343201 -4.691999912261963
-7.288720130920410 -1.558030009269714 -4.690000057220459
-6.992720127105713 -1.278030037879944 -4.703000068664551
-6.627719879150391 -1.663030028343201 -4.684000015258789
-6.431719779968262 -1.932029962539673 -4.676000118255615
-7.195720195770264 -1.218029975891113 -4.737999916076660
-6.841720104217529 -1.503029942512512 -4.721000194549561
-6.510719776153565 -1.791030049324036 -4.744999885559082
-7.595719814300537 -1.430029988288879 -4.815999984741211
-6.408720016479492 -2.186029911041260 -4.758999824523926
-6.765719890594482 -1.639029979705811 -4.802999973297119
-7.447720050811768 -1.284029960632324 -4.835000038146973
-7.378719806671143 -1.530030012130737 -4.840000152587891
-7.108719825744629 -1.335029959678650 -4.855000019073486
-7.277719974517822 -1.295029997825623 -4.875000000000000
-6.461719989776611 -2.027029991149902 -4.833000183105469
-7.334720134735107 -1.694030046463013 -4.892000198364258
-6.665719985961914 -1.770030021667481 -4.870999813079834
-6.945720195770264 -1.509029984474182 -4.888000011444092
-6.569719791412354 -1.912029981613159 -4.912000179290772
-6.434720039367676 -2.282030105590820 -4.910999774932861
-7.476719856262207 -1.630030035972595 -4.974999904632568
-7.574719905853272 -1.449030041694641 -4.998000144958496
-7.412720203399658 -1.374029994010925 -4.998000144958496
-6.794720172882080 -1.680029988288879 -4.977000236511231
-7.235720157623291 -1.396029949188232 -5.013000011444092
-6.447720050811768 -2.449029922485352 -4.972000122070313
-7.060719966888428 -1.515030026435852 -5.026999950408936
-6.504720211029053 -2.096029996871948 -4.999000072479248
-7.663720130920410 -1.594030022621155 -5.065999984741211
-6.704720020294190 -1.819030046463013 -5.046999931335449
-6.619719982147217 -1.971029996871948 -5.072000026702881
-7.537720203399658 -1.730029940605164 -5.113999843597412
-6.463719844818115 -2.248029947280884 -5.083000183105469
-6.909719944000244 -1.659029960632324 -5.111999988555908
-7.175720214843750 -1.520030021667481 -5.160999774932861
-7.729720115661621 -1.720029950141907 -5.192999839782715
-7.398719787597656 -1.506029963493347 -5.189000129699707
-7.565720081329346 -1.555029988288879 -5.208000183105469
-6.549719810485840 -2.121030092239380 -5.172999858856201
-6.804719924926758 -1.771029949188232 -5.217000007629395
-7.041719913482666 -1.628029942512512 -5.234000205993652
-7.568719863891602 -1.834030032157898 -5.281000137329102
-6.679719924926758 -1.915030002593994 -5.268000125885010
-6.483719825744629 -2.327029943466187 -5.269999980926514
-7.259719848632813 -1.596029996871948 -5.314000129699707
-7.627719879150391 -1.655030012130737 -5.339000225067139
-7.414720058441162 -1.936030030250549 -5.335000038146973
-7.760719776153565 -1.828029990196228 -5.349999904632568
-6.945720195770264 -1.754029989242554 -5.327000141143799
-7.433720111846924 -1.617030024528503 -5.362999916076660
-6.611720085144043 -2.099030017852783 -5.346000194549561
-7.107719898223877 -1.700029969215393 -5.401999950408936
-7.588719844818115 -1.945029973983765 -5.439000129699707
-6.558720111846924 -2.253030061721802 -5.412000179290772
-7.307720184326172 -1.701030015945435 -5.453000068664551
-6.723720073699951 -1.968029975891113 -5.434999942779541
-7.539720058441162 -1.699030041694641 -5.484000205993652
-7.794720172882080 -1.959030032157898 -5.493999958038330
-6.844719886779785 -1.843029975891113 -5.465000152587891
-7.684720039367676 -1.796030044555664 -5.508999824523926
-7.030720233917236 -1.834030032157898 -5.502999782562256
-7.460720062255859 -1.983029961585999 -5.572000026702881
-6.656720161437988 -2.131030082702637 -5.547999858856201
-7.186719894409180 -1.770030021667481 -5.578000068664551
-7.406720161437988 -1.760030031204224 -5.592000007629395
-7.631720066070557 -2.053030014038086 -5.620999813079834
-7.742720127105713 -1.920029997825623 -5.657000064849854
-7.822720050811768 -2.088030099868774 -5.657000064849854
-6.761720180511475 -1.985030055046082 -5.624000072479248
-7.551720142364502 -1.816030025482178 -5.673999786376953
-6.913720130920410 -1.900030016899109 -5.665999889373779
-6.601719856262207 -2.269030094146729 -5.650000095367432
-7.272719860076904 -1.828029990196228 -5.725999832153320
-7.076720237731934 -1.850029945373535 -5.722000122070313
-7.511720180511475 -2.088030099868774 -5.774000167846680
-6.707719802856445 -2.129029989242554 -5.754000186920166
-7.624720096588135 -1.907029986381531 -5.813000202178955
-7.432720184326172 -1.855029940605164 -5.809999942779541
-7.759719848632813 -2.021029949188232 -5.822000026702881
-7.659719944000244 -2.178030014038086 -5.817999839782715
-6.830719947814941 -2.002029895782471 -5.844999790191650
-6.629720211029053 -2.295030117034912 -5.839000225067139
-7.818719863891602 -2.216029882431030 -5.893000125885010
-7.185719966888428 -1.896029949188232 -5.882999897003174
-6.990719795227051 -1.936030030250549 -5.885000228881836
-6.722720146179199 -2.146029949188232 -5.942999839782715
-7.512720108032227 -1.993029952049255 -6.008999824523926
-7.824719905853272 -2.357029914855957 -6.026999950408936
-7.523719787597656 -2.192029953002930 -6.024000167846680
-7.155720233917236 -1.951030015945435 -6.059000015258789
-7.775720119476318 -2.194030046463013 -6.079999923706055
-7.329720020294190 -1.990030050277710 -6.072999954223633
-6.977719783782959 -1.967030048370361 -6.078000068664551
-6.812719821929932 -2.050029993057251 -6.072999954223633
-7.635719776153565 -2.302030086517334 -6.104000091552734
-6.640719890594482 -2.301029920578003 -6.081999778747559
-7.639719963073731 -2.092030048370361 -6.131000041961670
-7.463719844818115 -2.226030111312866 -6.191999912261963
-6.731719970703125 -2.177030086517334 -6.169000148773193
-7.440720081329346 -2.053030014038086 -6.198999881744385
-7.806719779968262 -2.403029918670654 -6.206999778747559
-7.714719772338867 -2.226030111312866 -6.242000102996826
-7.269720077514648 -2.037029981613159 -6.243000030517578
-6.936719894409180 -2.036030054092407 -6.250000000000000
-7.590720176696777 -2.357029914855957 -6.281000137329102
-7.791719913482666 -2.558029890060425 -6.296000003814697
-7.107719898223877 -2.067029953002930 -6.327000141143799
-6.688720226287842 -2.267030000686646 -6.313000202178955
-7.492720127105713 -2.126029968261719 -6.357999801635742
-6.820720195770264 -2.148030042648315 -6.344999790191650
-7.756720066070557 -2.397030115127564 -6.379000186920166
-7.628719806671143 -2.238029956817627 -6.415999889373779
-7.413720130920410 -2.278029918670654 -6.408999919891357
-7.321720123291016 -2.104029893875122 -6.414000034332275
-6.992720127105713 -2.135030031204224 -6.445000171661377
-7.780720233917236 -2.633029937744141 -6.460000038146973
-7.529719829559326 -2.389029979705811 -6.480999946594238
-7.289720058441162 -2.386029958724976 -6.479000091552734
-7.175720214843750 -2.111030101776123 -6.533999919891357
-6.843719959259033 -2.191030025482178 -6.520999908447266
-7.701720237731934 -2.414030075073242 -6.546999931335449
-7.521719932556152 -2.229029893875122 -6.563000202178955
-6.684720039367676 -2.322030067443848 -6.561999797821045
-7.350719928741455 -2.170030117034912 -6.614999771118164
-7.742720127105713 -2.591029882431030 -6.629000186920166
-7.008719921112061 -2.149029970169067 -6.637000083923340
-7.696720123291016 -2.768029928207398 -6.659999847412109
-7.609720230102539 -2.336030006408691 -6.679999828338623
-7.333720207214356 -2.356029987335205 -6.683000087738037
-7.498720169067383 -2.469029903411865 -6.714000225067139
-7.165719985961914 -2.140029907226563 -6.717999935150147
-7.575719833374023 -2.638030052185059 -6.722000122070313
-6.773719787597656 -2.245029926300049 -6.709000110626221
-7.310719966888428 -2.562030076980591 -6.722000122070313
-7.463719844818115 -2.247030019760132 -6.742000102996826
-6.672719955444336 -2.407030105590820 -6.750999927520752
-7.691720008850098 -2.492029905319214 -6.802000045776367
-7.306719779968262 -2.197030067443848 -6.810999870300293
-7.726719856262207 -2.689029932022095 -6.830999851226807
-6.941720008850098 -2.208029985427856 -6.820000171661377
-7.605720043182373 -2.356029987335205 -6.881999969482422
-7.508719921112061 -2.692029953002930 -6.880000114440918
-7.644720077514648 -2.852030038833618 -6.890999794006348
-7.363719940185547 -2.582030057907105 -6.889999866485596
-7.133719921112061 -2.199029922485352 -6.900000095367432
-6.765719890594482 -2.295030117034912 -6.901000022888184
-7.432720184326172 -2.293030023574829 -6.948999881744385
-6.670720100402832 -2.464030027389526 -6.925000190734863
-7.365719795227051 -2.734030008316040 -6.986999988555908
-7.031720161437988 -2.276030063629150 -7.026000022888184
-7.659719944000244 -2.600029945373535 -7.046999931335449
-7.680719852447510 -2.777029991149902 -7.048999786376953
-7.618720054626465 -2.967030048370361 -7.050000190734863
-7.566720008850098 -2.441030025482178 -7.070000171661377
-7.269720077514648 -2.259030103683472 -7.071000099182129
-7.509719848632813 -2.808029890060425 -7.076000213623047
-6.805719852447510 -2.286030054092407 -7.081999778747559
-7.412720203399658 -2.360029935836792 -7.139999866485596
-7.339719772338867 -2.860029935836792 -7.133999824523926
-7.118720054626465 -2.254029989242554 -7.186999797821045
-6.943719863891602 -2.209029912948608 -7.183000087738037
-7.636720180511475 -2.861030101776123 -7.196000099182129
-7.610720157623291 -2.652029991149902 -7.212999820709229
-7.559720039367676 -3.035029888153076 -7.204999923706055
-7.505720138549805 -2.486030101776123 -7.230000019073486
-7.280720233917236 -2.309030055999756 -7.248000144958496
-7.468719959259033 -2.892030000686646 -7.254000186920166
-7.213719844818115 -2.891030073165894 -7.268000125885010
-6.740719795227051 -2.385030031204224 -7.270999908447266
-6.875720024108887 -2.259030103683472 -7.337999820709229
-7.056719779968262 -2.938030004501343 -7.330999851226807
-7.588719844818115 -2.789030075073242 -7.363999843597412
-7.374720096588135 -2.412029981613159 -7.368999958038330
-7.539720058441162 -2.603029966354370 -7.370999813079834
-7.079720020294190 -2.238029956817627 -7.374000072479248
-7.410719871520996 -2.743030071258545 -7.399000167846680
-7.223720073699951 -2.338030099868774 -7.415999889373779
-6.884719848632813 -2.916029930114746 -7.418000221252441
-7.259719848632813 -2.827029943466187 -7.434999942779541
-7.540719985961914 -2.939029932022095 -7.443999767303467
-6.969719886779785 -2.246030092239380 -7.512000083923340
-7.533720016479492 -2.735029935836792 -7.522999763488770
-7.116720199584961 -2.917030096054077 -7.513999938964844
-7.442719936370850 -2.556030035018921 -7.546000003814697
-7.115719795227051 -2.329030036926270 -7.559999942779541
-6.773719787597656 -2.856029987335205 -7.545000076293945
-7.418719768524170 -3.034029960632324 -7.568999767303467
-7.363719940185547 -2.765029907226563 -7.607999801635742
-7.313720226287842 -2.458029985427856 -7.614999771118164
-6.953720092773438 -2.936029911041260 -7.598999977111816
-7.502719879150391 -2.868030071258545 -7.631999969482422
-7.275720119476318 -2.892030000686646 -7.704999923706055
-7.095719814300537 -2.912029981613159 -7.701000213623047
-7.407720088958740 -2.572030067443848 -7.727000236511231
-7.165719985961914 -2.388030052185059 -7.728000164031982
-7.341720104217529 -3.060029983520508 -7.729000091552734
-6.833720207214356 -2.909029960632324 -7.725999832153320
-7.474720001220703 -2.741029977798462 -7.764999866485596
-7.159719944000244 -3.102030038833618 -7.748000144958496
-6.685719966888428 -2.835030078887940 -7.782000064849854
-7.437719821929932 -2.917030096054077 -7.809000015258789
-6.977719783782959 -2.978029966354370 -7.811999797821045
-7.247719764709473 -2.403029918670654 -7.886000156402588
-7.353720188140869 -2.553030014038086 -7.901000022888184
-7.245719909667969 -3.071029901504517 -7.899000167846680
-7.126719951629639 -2.267030000686646 -7.932000160217285
-7.415719985961914 -2.718029975891113 -7.932000160217285
-7.346720218658447 -2.946029901504517 -7.974999904632568
-7.204720020294190 -2.339030027389526 -8.092000007629395
-7.358719825744629 -2.621030092239380 -8.093999862670898
-7.171720027923584 -3.068030118942261 -8.086999893188477
-7.388720035552979 -2.814029932022095 -8.102000236511231
-7.276720046997070 -2.478029966354370 -8.173999786376953
-7.296720027923584 -2.962029933929443 -8.180000305175781
-7.321720123291016 -2.627029895782471 -8.267999649047852
-7.180719852447510 -2.299030065536499 -8.274999618530273
-7.339719772338867 -2.805030107498169 -8.279000282287598
-7.318719863891602 -2.916029930114746 -8.413999557495117
-6.521719932556152 -2.253030061721802 -4.278999805450440
-6.668719768524170 -2.236030101776123 -4.395999908447266
-6.446720123291016 -2.290030002593994 -4.434000015258789
-6.588719844818115 -2.358030080795288 -4.518000125885010
-6.464719772338867 -2.425029993057251 -4.681000232696533
-6.635719776153565 -2.377029895782471 -4.698999881744385
-6.583720207214356 -2.511029958724976 -4.802000045776367
-6.634719848632813 -2.556030035018921 -4.968999862670898
-6.511720180511475 -2.567029953002930 -5.098000049591065
-6.670720100402832 -2.674030065536499 -5.133999824523926
-6.778719902038574 -2.698029994964600 -5.270999908447266
-6.579720020294190 -2.675029993057251 -5.289999961853027
-6.801720142364502 -2.772030115127564 -5.440999984741211
-6.484720230102539 -2.543030023574829 -5.443999767303467
-6.622719764709473 -2.724030017852783 -5.455999851226807
-6.701720237731934 -2.801029920578003 -5.605999946594238
-6.530720233917236 -2.551029920578003 -5.649000167846680
-6.835720062255859 -2.884030103683472 -5.699999809265137
-6.592720031738281 -2.705029964447022 -5.757999897003174
-6.708720207214356 -2.823029994964600 -5.837999820709229
-6.579720020294190 -2.543030023574829 -5.875000000000000
-6.901720046997070 -2.920030117034912 -5.882999897003174
-6.597720146179199 -2.703030109405518 -5.958000183105469
-6.688720226287842 -2.828030109405518 -6.050000190734863
-6.600719928741455 -2.552030086517334 -6.102000236511231
-6.613719940185547 -2.724030017852783 -6.212999820709229
-6.714719772338867 -2.878030061721802 -6.244999885559082
-6.610720157623291 -2.554029941558838 -6.308000087738037
-6.634719848632813 -2.716029882431030 -6.387000083923340
-6.738719940185547 -2.873029947280884 -6.434000015258789
-6.641719818115234 -2.547029972076416 -6.530000209808350
-6.667719841003418 -2.770030021667481 -6.560999870300293
-6.758719921112061 -2.899029970169067 -6.686999797821045
-6.665719985961914 -2.692029953002930 -6.764999866485596
-6.888720035552979 -2.925029993057251 -6.810999870300293
-6.724720001220703 -2.832030057907105 -6.861999988555908
-6.675720214843750 -2.658030033111572 -6.967000007629395
-6.769720077514648 -2.850029945373535 -7.065000057220459
-6.667719841003418 -2.544029951095581 -7.098999977111816
-6.693719863891602 -2.704030036926270 -7.176000118255615
-6.890719890594482 -2.915030002593994 -7.212999820709229
-6.755720138549805 -2.828030109405518 -7.310999870300293
-6.654719829559326 -2.574029922485352 -7.335000038146973
-6.680719852447510 -2.715029954910278 -7.472000122070313
-6.659719944000244 -2.546030044555664 -7.578999996185303
-6.641719818115234 -2.729029893875122 -7.646999835968018
-6.528719902038574 -2.590029954910278 -7.734000205993652
-6.512720108032227 -2.788029909133911 -7.763000011444092
