ply
format ascii 1.0
element vertex 476
property double x
property double y
property double z
end_header
-17.787900924682617 64.110000610351562 152.082000732421870
-22.306699752807617 68.537399291992188 149.895004272460940
-22.308900833129883 67.453796386718750 150.811996459960940
-22.244199752807617 65.765998840332031 152.154998779296870
-22.298799514770508 66.584396362304688 151.423995971679690
-21.794900894165039 67.906402587890625 150.276992797851560
-21.299299240112305 66.785202026367188 151.199996948242190
-20.810199737548828 67.358901977539062 150.748001098632810
-20.313600540161133 66.793197631835938 151.227996826171870
-19.800800323486328 67.674499511718750 150.516998291015620
-21.298099517822266 68.611801147460938 149.455993652343750
-20.799100875854492 68.116096496582031 149.960006713867190
-21.298999786376953 65.971199035644531 151.727005004882810
-19.295400619506836 66.898597717285156 151.207992553710940
-18.802099227905273 67.421203613281250 150.753005981445310
-21.813299179077148 68.996597290039063 148.878005981445310
-20.287399291992187 65.976501464843750 151.736999511718750
-20.299999237060547 68.538002014160156 149.401992797851560
-18.284500122070313 66.810096740722656 151.223999023437500
-19.304599761962891 66.003700256347656 151.725997924804690
-21.292800903320313 65.194396972656250 152.110000610351560
-20.809299468994141 68.975997924804688 148.865997314453120
-17.803899765014648 67.378196716308594 150.729003906250000
-18.800500869750977 68.086097717285156 149.936996459960940
-19.309499740600586 68.501098632812500 149.393997192382810
-21.800699234008789 64.589897155761719 152.421005249023440
-18.306699752807617 66.003898620605469 151.694000244140620
-17.299400329589844 66.551498413085937 151.371994018554690
-16.786100387573242 67.371803283691406 150.703002929687500
-20.313400268554688 65.020401000976562 152.179992675781250
-16.298200607299805 66.795799255371094 151.207000732421870
-15.272800445556641 67.434097290039063 150.792999267578130
-17.807699203491211 67.995697021484375 149.889007568359370
-21.290100097656250 70.126998901367188 147.458999633789060
-14.316900253295898 67.776702880859375 150.589996337890620
-19.293100357055664 65.147598266601562 152.072998046875000
-20.804500579833984 69.572303771972656 147.932998657226560
-13.814599990844727 67.219596862792969 151.100997924804690
-15.296400070190430 66.569000244140625 151.397003173828120
-16.301399230957031 66.021797180175781 151.673995971679690
-16.809799194335937 67.951499938964844 149.871994018554690
-13.300499916076660 67.772598266601562 150.587997436523440
-14.297200202941895 66.593399047851562 151.429992675781250
-17.299800872802734 65.565002441406250 151.819000244140620
-15.799400329589844 67.815902709960937 150.078994750976560
-13.303000450134277 66.624801635742188 151.492996215820310
-18.299299240112305 68.597900390625000 148.945999145507810
-12.313799858093262 66.979202270507813 151.317993164062500
-18.297700881958008 65.109703063964844 151.979003906250000
-20.798000335693359 64.103797912597656 152.457000732421870
-12.282500267028809 67.738800048828125 150.557998657226560
-19.766099929809570 69.267601013183594 148.016998291015620
-22.290199279785156 63.118698120117188 152.985992431640620
-12.794300079345703 68.171302795410156 149.990997314453120
-12.776700019836426 66.062103271484375 151.826004028320310
-11.331199645996094 66.925102233886719 151.268005371093750
-15.304699897766113 68.185699462890625 149.481994628906250
-19.810400009155273 64.082397460937500 152.352996826171870
-17.315500259399414 68.472702026367188 148.897003173828120
-14.320500373840332 68.284500122070313 149.518005371093750
-11.291199684143066 67.647903442382813 150.485992431640630
-13.292599678039551 68.496200561523438 149.410003662109370
-11.798999786376953 68.099800109863281 149.947006225585940
-11.811100006103516 65.656898498535156 152.069000244140620
-14.834500312805176 65.553298950195312 151.664001464843750
-15.807000160217285 65.094100952148437 151.871994018554690
-10.808500289916992 66.027801513671875 151.832000732421870
-16.326599121093750 68.368896484375000 148.869003295898440
-21.344999313354492 63.061901092529297 152.701004028320310
-18.836000442504883 64.066802978515625 152.197998046875000
-10.312100410461426 66.541099548339844 151.373001098632810
-13.827599525451660 65.613700866699219 151.619003295898440
-16.797599792480469 64.604301452636719 151.975997924804690
-10.308899879455566 67.548103332519531 150.401000976562500
-10.813599586486816 68.008201599121094 149.880996704101560
-17.765300750732422 68.852401733398438 148.031005859375000
-11.295399665832520 65.058998107910156 152.354003906250000
-9.816690444946289 67.016700744628906 150.860992431640620
-12.830300331115723 65.117897033691406 152.041000366210940
-9.833860397338867 65.950599670410156 151.751007080078120
-17.787900924682617 64.110000610351562 152.082000732421870
-20.280300140380859 63.111198425292969 152.559005737304690
-12.297599792480469 68.644996643066406 148.964004516601560
-9.331000328063965 66.457801818847656 151.281005859375000
-10.309800148010254 65.037101745605469 152.309005737304690
-9.330249786376953 67.447196960449219 150.309005737304690
-9.837220191955566 67.913299560546875 149.802001953125000
-16.783899307250977 68.705200195312500 147.975006103515620
-11.299300193786621 68.593200683593750 148.944000244140620
-13.810999870300293 68.671699523925781 148.464004516601560
-8.326849937438965 66.450202941894531 151.285995483398440
-8.834719657897949 66.928901672363281 150.770996093750000
-14.788299560546875 68.505699157714844 148.430999755859370
-8.802060127258301 65.573097229003906 151.908996582031250
-21.812799453735352 62.088100433349609 152.886993408203120
-11.852499961853027 64.153602600097656 152.626998901367190
-8.343190193176270 67.372299194335938 150.238006591796870
-15.799300193786621 68.597000122070313 147.947006225585940
-8.309479713439941 64.671897888183594 152.576995849609370
-9.298199653625488 64.611801147460938 152.468994140625000
-10.311200141906738 68.498397827148438 148.895004272460940
-15.825400352478027 64.108596801757812 151.817001342773440
-10.301899909973145 64.024803161621094 152.764007568359370
-8.803850173950195 68.052696228027344 149.416000366210940
-11.291700363159180 63.586898803710938 152.906005859375000
-12.783300399780273 68.946998596191406 147.906005859375000
-18.263999938964844 63.097499847412109 152.156997680664060
-12.892000198364258 64.117202758789063 152.106002807617190
-9.313429832458496 68.462898254394531 148.863998413085940
-13.815799713134766 64.592002868652344 151.507995605468750
-19.317600250244141 62.605098724365234 152.358001708984370
-11.794899940490723 69.012397766113281 147.917999267578130
-10.802800178527832 69.001197814941406 147.908996582031250
-21.767200469970703 61.110599517822266 153.041000366210940
-10.295100212097168 63.150199890136719 153.067993164062500
-17.294700622558594 63.098701477050781 151.977996826171870
-13.854599952697754 68.792503356933594 147.481994628906250
-14.803500175476074 64.103996276855469 151.421005249023440
-14.792799949645996 68.563499450683594 147.442993164062500
-11.377099990844727 62.654499053955078 153.169006347656250
-20.761800765991211 61.581901550292969 152.591995239257810
-9.818670272827148 68.938903808593750 147.880996704101560
-8.300660133361816 63.561698913574219 152.830993652343750
-9.299810409545898 63.125099182128906 153.016998291015620
-16.322799682617188 63.120201110839844 151.798995971679690
-12.684599876403809 63.099300384521484 152.296005249023440
-11.818400382995605 69.275901794433594 146.994995117187500
-12.803899765014648 69.125999450683594 146.953002929687500
-10.796799659729004 62.096801757812500 153.430999755859370
-12.167599678039551 62.592399597167969 152.770004272460940
-19.818199157714844 61.615398406982422 152.356002807617190
-13.440999984741211 63.592098236083984 151.615005493164060
-10.798299789428711 69.293502807617187 147.013000488281250
-8.298450469970703 68.603500366210938 147.949005126953120
-9.821290016174316 62.068901062011719 153.319000244140620
-17.795700073242188 62.099700927734375 151.962005615234370
-15.293800354003906 63.099800109863281 151.464996337890620
-9.820619583129883 69.325401306152344 146.847000122070310
-8.875570297241211 68.852203369140625 147.339996337890620
-18.765399932861328 61.574401855468750 152.132995605468750
-8.763839721679688 62.149101257324219 153.173004150390620
-14.337100028991699 68.703796386718750 146.458999633789060
-10.838899612426758 61.137500762939453 153.615005493164060
-20.794300079345703 60.599700927734375 152.458999633789060
-16.836500167846680 62.134300231933594 151.723007202148440
-14.275799751281738 63.123001098632813 151.259994506835940
-21.377099990844727 60.079299926757812 152.781005859375000
-12.373399734497070 69.379798889160156 145.998001098632810
-11.298700332641602 69.600196838378906 145.947006225585940
-13.159799575805664 62.616001129150391 151.770004272460940
-12.653400421142578 62.110599517822266 152.292999267578130
-12.156200408935547 61.607299804687500 152.794998168945310
-11.636699676513672 61.105201721191406 153.283004760742190
-11.802499771118164 58.601501464843750 155.445999145507810
-13.293700218200684 69.086097717285156 145.945999145507810
-9.791740417480469 61.107398986816406 153.475006103515620
-19.864900588989258 60.661098480224609 152.167999267578130
-15.791600227355957 62.097599029541016 151.477005004882810
-9.300330162048340 69.504600524902344 145.914001464843750
-10.785200119018555 60.095401763916016 153.917007446289060
-10.303099632263184 69.772102355957031 145.501007080078120
-17.833999633789063 61.125801086425781 151.794998168945310
-18.801000595092773 60.604301452636719 151.934005737304690
-14.844300270080566 62.127601623535156 151.195999145507810
-11.336199760437012 69.810897827148438 145.001998901367190
-9.827369689941406 60.043098449707031 153.712005615234380
-20.862800598144531 59.611598968505859 152.326004028320310
-13.117199897766113 61.629299163818359 151.729003906250000
-12.565400123596191 61.133800506591797 152.250000000000000
-11.697500228881836 57.595500946044922 155.486999511718750
-11.600000381469727 60.109901428222656 153.285995483398440
-9.294759750366211 70.052101135253906 144.930999755859370
-13.852299690246582 62.056598663330078 151.201004028320310
-12.071499824523926 60.616500854492187 152.746002197265620
-12.893799781799316 69.311401367187500 144.968994140625000
-11.014699935913086 59.144798278808594 154.147994995117190
-16.785400390625000 61.086898803710938 151.524002075195310
-8.875849723815918 60.549800872802734 153.214996337890620
-12.307399749755859 69.626098632812500 144.451995849609370
-15.820799827575684 61.115501403808594 151.341003417968750
-9.865469932556152 70.372200012207031 144.024993896484370
-10.811800003051758 70.162200927734375 143.962997436523440
-11.352600097656250 58.107700347900391 154.445999145507810
-19.328800201416016 59.670398712158203 151.694000244140620
-21.400299072265625 58.657798767089844 152.220001220703130
-17.785299301147461 60.085899353027344 151.501998901367190
-20.342599868774414 59.123500823974609 151.845993041992190
-13.836400032043457 61.072601318359375 151.104003906250000
-12.999799728393555 60.549999237060547 151.649002075195310
-12.446700096130371 60.065898895263672 152.078002929687500
-16.822500228881836 60.134399414062500 151.309005737304690
-11.362999916076660 58.595401763916016 153.477996826171880
-11.745100021362305 69.935203552246094 143.425994873046870
-11.711400032043457 59.113998413085937 152.891998291015620
-14.795299530029297 60.597198486328125 150.977005004882810
-15.844699859619141 60.152198791503906 151.169998168945310
-12.750000000000000 69.508903503417969 143.438003540039060
-11.540699958801270 56.026599884033203 155.440994262695310
-11.444800376892090 57.118099212646484 154.455993652343750
-19.797199249267578 58.599498748779297 151.453994750976560
-17.843700408935547 59.156299591064453 151.261993408203120
-13.791299819946289 60.104499816894531 150.925003051757810
-18.816699981689453 58.638599395751953 151.332000732421870
-21.370100021362305 57.651798248291016 151.776992797851560
-11.878700256347656 55.131301879882813 155.434997558593750
-13.175999641418457 59.642601013183594 151.268005371093750
-11.599399566650391 58.127300262451172 152.830993652343750
-14.810099601745605 59.615501403808594 150.841995239257810
-12.522600173950195 59.043098449707031 151.688995361328120
-16.797199249267578 59.096801757812500 150.960006713867190
-11.587400436401367 56.053398132324219 154.449005126953120
-12.022700309753418 58.546901702880859 152.156005859375000
-15.800900459289551 59.110698699951172 150.908004760742190
-20.312299728393555 57.610099792480469 151.414001464843750
-11.499400138854980 57.100399017333984 153.027999877929690
-18.276300430297852 58.073101043701172 151.026992797851560
-13.718400001525879 59.131500244140625 150.798004150390630
-19.377000808715820 57.693599700927734 151.143997192382810
-12.137900352478027 54.034999847412109 155.479995727539060
-11.754599571228027 55.091201782226562 154.449996948242190
-12.980999946594238 58.557800292968750 151.167999267578130
-11.571100234985352 56.131500244140625 153.481002807617190
-17.364900588989258 58.189399719238281 150.712005615234370
-14.826899528503418 58.642799377441406 150.690002441406250
-12.408599853515625 58.078701019287109 151.559005737304690
-11.921299934387207 57.584701538085938 152.046005249023440
-20.849100112915039 56.659198760986328 151.287002563476560
-15.810799598693848 58.059898376464844 150.567001342773440
-12.561800003051758 52.993999481201172 155.522003173828120
-18.829999923706055 57.144298553466797 150.828002929687500
-11.683799743652344 56.605499267578125 152.388000488281250
-11.946599960327148 54.136299133300781 154.438003540039060
-19.809400558471680 56.611301422119141 150.917007446289060
-13.835399627685547 58.082599639892578 150.559997558593750
-11.710700035095215 55.087799072265625 153.445999145507810
-12.888799667358398 57.583000183105469 151.059005737304690
-16.806999206542969 57.633701324462891 150.361999511718750
-12.328300476074219 57.096900939941406 151.475997924804690
-21.329999923706055 56.216300964355469 150.746002197265620
-13.030599594116211 52.260898590087891 155.317001342773440
-18.284400939941406 56.587699890136719 150.492996215820310
-11.694700241088867 55.601600646972656 152.395004272460940
-12.265000343322754 53.087799072265625 154.455001831054690
-15.770400047302246 57.155101776123047 150.283996582031250
-11.996800422668457 56.116901397705078 151.759002685546870
-14.798500061035156 57.114601135253906 150.382995605468750
-19.259399414062500 56.053199768066406 150.595001220703120
-20.355899810791016 55.713401794433594 150.703002929687500
-11.897000312805176 54.121299743652344 153.445999145507810
-13.780500411987305 57.109901428222656 150.408004760742190
-17.384099960327148 56.687599182128906 150.179992675781250
-12.820199966430664 56.597499847412109 150.973999023437500
-13.546500205993652 51.407001495361328 155.138000488281250
-16.301399230957031 56.591201782226563 149.979003906250000
-11.774399757385254 54.599998474121094 152.438003540039060
-12.704799652099609 52.052200317382813 154.485992431640620
-21.297100067138672 55.260700225830078 150.192993164062500
-18.361400604248047 55.673801422119141 150.218994140625000
-12.133799552917480 53.048301696777344 153.470001220703120
-12.045999526977539 55.094100952148438 151.664993286132810
-12.496700286865234 55.580101013183594 151.147994995117190
-13.334300041198730 56.091899871826172 150.496994018554690
-19.344100952148437 55.172901153564453 150.251998901367190
-14.817500114440918 56.059501647949219 150.136001586914060
-14.347000122070313 50.644599914550781 154.904006958007810
-17.319000244140625 55.621101379394531 149.865997314453120
-20.318000793457031 54.777599334716797 150.121994018554690
-11.946499824523926 53.627101898193359 152.457000732421870
-12.396400451660156 52.133598327636719 153.429992675781250
-15.760199546813965 55.646499633789063 149.807998657226560
-13.831700325012207 55.568099975585938 150.080993652343750
-12.081399917602539 54.085800170898438 151.647994995117190
-12.973099708557129 55.067401885986328 150.606994628906250
-13.474900245666504 50.741401672363281 154.320999145507810
-12.487099647521973 54.581600189208984 151.100006103515620
-12.907600402832031 51.173400878906250 153.899002075195310
-18.805500030517578 54.617401123046875 149.908004760742190
-14.793700218200684 55.108200073242187 149.919998168945310
-17.840400695800781 54.652500152587891 149.761993408203120
-16.300899505615234 55.075801849365234 149.537994384765620
-12.076299667358398 52.557998657226563 152.386001586914060
-14.464599609375000 49.818099975585937 154.184005737304690
-20.775699615478516 54.175701141357422 149.350006103515620
-19.805299758911133 53.967098236083984 149.673004150390620
-13.776599884033203 54.617900848388672 149.882995605468750
-12.243800163269043 53.097099304199219 151.419998168945310
-15.346899986267090 54.551300048828125 149.597000122070310
-12.611800193786621 53.609901428222656 150.828002929687500
-13.095700263977051 54.156700134277344 150.208999633789060
-12.670399665832520 51.037700653076172 153.000000000000000
-12.350899696350098 51.616001129150391 152.442993164062500
-17.298099517822266 54.100101470947266 149.451995849609370
-13.607799530029297 49.948501586914063 153.606002807617190
-18.301099777221680 53.611900329589844 149.421997070312500
-20.310100555419922 53.552299499511719 149.014999389648440
-19.299900054931641 53.193298339843750 149.270004272460940
-12.977800369262695 50.188301086425781 152.865005493164060
-14.809300422668457 53.590301513671875 149.483993530273440
-13.847200393676758 53.564201354980469 149.636993408203120
-16.767900466918945 53.539001464843750 149.136993408203130
-12.518500328063965 52.127498626708984 151.046005249023440
-12.930800437927246 53.068000793457031 150.121994018554690
-13.937700271606445 49.227298736572266 153.305999755859370
-15.825099945068359 53.548400878906250 149.100006103515620
-17.780700683593750 53.026199340820313 149.132003784179690
-14.890099525451660 48.780998229980469 153.199005126953120
-12.542499542236328 51.064800262451172 151.384002685546870
-18.797399520874023 52.581401824951172 148.992996215820310
-13.792699813842773 52.603698730468750 149.432998657226560
-20.233800888061523 52.727500915527344 148.279998779296870
-12.792300224304199 51.601200103759766 150.445007324218750
-16.812000274658203 52.643699645996094 148.832000732421870
-14.872099876403809 52.547901153564453 149.102005004882810
-15.762000083923340 52.652801513671875 148.800994873046870
-12.752900123596191 50.089801788330078 151.445007324218750
-17.813400268554687 52.166099548339844 148.783996582031250
-13.715299606323242 48.535999298095703 152.526000976562500
-13.128000259399414 49.014198303222656 152.037994384765620
-14.682000160217285 47.930599212646484 152.658004760742190
-12.859600067138672 50.603599548339844 150.466995239257810
-13.327300071716309 51.597400665283203 149.475006103515620
-18.805000305175781 51.577499389648437 148.498992919921870
-14.334400177001953 51.578098297119141 149.018005371093750
-16.801000595092773 51.610698699951172 148.421005249023440
-19.788799285888672 51.615200042724609 147.925003051757810
-15.790100097656250 51.618801116943359 148.395004272460940
-13.020999908447266 49.143501281738281 150.981002807617190
-15.352299690246582 47.283599853515625 152.225997924804690
-17.806999206542969 51.132198333740234 148.356002807617190
-14.187399864196777 47.484401702880859 152.085006713867190
-13.109700202941895 50.103599548339844 149.826995849609370
-13.369099617004395 48.129901885986328 151.436996459960940
-14.857000350952148 51.054298400878906 148.578002929687500
-13.809000015258789 50.598598480224609 148.962005615234370
-14.851099967956543 46.735500335693359 151.783004760742190
-13.191300392150879 49.090599060058594 149.895004272460940
-16.304500579833984 50.575298309326172 148.063003540039060
-18.300600051879883 50.090999603271484 147.975997924804690
-15.715700149536133 46.345600128173828 151.667999267578120
-19.169900894165039 50.725601196289063 147.272003173828120
-13.512900352478027 49.593498229980469 149.136001586914060
-14.350099563598633 50.077098846435547 148.539001464843750
-17.295999526977539 50.092700958251953 147.981994628906250
-14.028900146484375 46.830799102783203 151.322006225585940
-15.332300186157227 50.068199157714844 148.102005004882810
-13.369099617004395 48.113399505615234 149.973999023437500
-18.829099655151367 49.554698944091797 147.587005615234370
-16.291099548339844 49.624599456787109 147.835998535156250
-13.562199592590332 48.598800659179688 149.145004272460940
-13.700799942016602 47.049098968505859 150.455001831054690
-13.951899528503418 49.090999603271484 148.591995239257810
-14.400500297546387 46.202400207519531 150.908996582031250
-17.308399200439453 49.139198303222656 147.761001586914060
-15.842300415039063 45.761398315429687 150.835998535156250
-15.277799606323242 49.117298126220703 147.873992919921870
-18.303699493408203 48.591098785400391 147.496994018554690
-14.439000129699707 48.585998535156250 148.100997924804690
-13.742400169372559 47.085601806640625 149.427993774414060
-14.830599784851074 45.659698486328125 150.419998168945310
-14.017900466918945 46.277400970458984 149.947006225585940
-17.293800354003906 48.086601257324219 147.625000000000000
-13.944700241088867 47.612300872802734 148.565002441406250
-16.298000335693359 48.092899322509766 147.565994262695310
-15.336600303649902 48.081298828125000 147.597000122070310
-15.278699874877930 45.069000244140625 149.951995849609370
-14.456399917602539 45.731399536132813 149.490005493164060
-14.109900474548340 46.514301300048828 148.822006225585940
-14.412500381469727 47.113800048828125 148.059997558593750
-17.798700332641602 47.101200103759766 147.449996948242190
-15.866100311279297 44.739601135253906 149.457992553710940
-15.788200378417969 47.101600646972656 147.371994018554690
-14.978500366210938 45.262100219726562 149.016006469726560
-16.790199279785156 46.606601715087891 147.513000488281250
-14.658900260925293 45.997501373291016 148.345001220703120
-14.970000267028809 46.631301879882813 147.638000488281250
-16.290700912475586 45.585700988769531 147.925003051757810
-15.336500167846680 45.640899658203125 147.996994018554690
-15.808500289916992 46.113201141357422 147.481002807617190
-15.944999694824219 44.831901550292969 148.542999267578120
-11.753899574279785 69.535301208496094 138.953002929687500
-10.942899703979492 69.832298278808594 137.925003051757810
-17.783700942993164 69.633300781250000 144.455001831054690
-11.884499549865723 69.709396362304688 140.442993164062500
-11.341899871826172 70.148696899414063 139.947006225585940
-10.833700180053711 70.145599365234375 138.942993164062500
-18.804899215698242 69.073699951171875 147.938995361328120
-20.239000320434570 69.817497253417969 147.033996582031250
-20.883399963378906 70.417701721191406 146.367996215820310
-19.322299957275391 69.522499084472656 146.921997070312500
-20.755599975585938 70.708099365234375 145.490997314453120
-18.271099090576172 69.219703674316406 146.979003906250000
-19.801000595092773 70.095901489257813 145.945999145507810
-17.308500289916992 69.048103332519531 146.936004638671870
-18.781099319458008 69.650596618652344 145.962997436523440
-19.840099334716797 70.511497497558594 144.908004760742190
-16.358200073242188 68.833396911621094 146.908996582031250
-17.272100448608398 69.212799072265625 145.966003417968750
-18.838199615478516 70.017097473144531 144.917999267578120
-17.847600936889648 69.475196838378906 145.414001464843750
-15.299699783325195 68.652397155761719 146.453002929687500
-16.344400405883789 68.933097839355469 145.929992675781250
-16.774799346923828 69.170303344726562 144.957000732421870
-15.298899650573730 68.642700195312500 145.451004028320310
-14.321399688720703 68.656898498535156 145.451004028320310
-13.717800140380859 68.929603576660156 144.936996459960940
-15.892200469970703 68.872200012207031 144.421005249023440
-13.328000068664551 69.154403686523438 143.951004028320310
-14.789099693298340 68.544998168945313 143.947998046875000
-10.851400375366211 70.254402160644531 142.447998046875000
-11.757100105285645 70.003898620605469 142.449005126953120
-11.695899963378906 69.903198242187500 141.455993652343750
-11.161499977111816 70.432899475097656 140.951004028320310
-10.651599884033203 70.964103698730469 140.445007324218750
-19.099899291992188 71.835601806640625 141.024002075195310
-19.108299255371094 71.321403503417969 142.552993774414060
-18.710300445556641 70.712402343750000 142.996994018554690
-19.853900909423828 71.537002563476563 142.914993286132810
-19.361900329589844 71.017097473144531 143.410995483398440
-20.294700622558594 71.107597351074219 143.951004028320310
-18.898300170898437 70.449897766113281 143.880996704101560
-15.837100028991699 71.654701232910156 137.395004272460940
-15.903200149536133 72.284896850585937 138.285995483398440
-15.929200172424316 70.511001586914063 136.498992919921870
-16.369899749755859 68.407699584960938 137.011993408203120
-17.335899353027344 68.552696228027344 136.470001220703130
-17.756700515747070 69.139602661132812 136.923995971679690
-17.086900711059570 68.819099426269531 137.311996459960940
-15.299200057983398 68.085899353027344 136.949005126953120
-16.231599807739258 68.705703735351563 137.914993286132810
-18.235200881958008 70.143600463867188 137.417999267578120
-17.704399108886719 69.675102233886719 137.897003173828120
-15.412500381469727 68.406997680664063 138.000000000000000
-16.899200439453125 69.459899902343750 138.481002807617190
-14.316399574279785 68.172203063964844 137.942993164062500
-16.274200439453125 69.135902404785156 138.944000244140620
-17.687999725341797 70.226402282714844 138.910995483398440
-18.435199737548828 70.417800903320312 138.513000488281250
-15.374300003051758 68.502098083496094 139.447006225585940
-13.356100082397461 68.737998962402344 138.940994262695310
-15.928500175476074 68.931297302246094 139.940002441406250
-14.213800430297852 68.395202636718750 139.460998535156250
-14.269200325012207 68.509399414062500 140.451004028320310
-17.029699325561523 69.789001464843750 139.445007324218750
-12.306400299072266 69.117599487304688 138.447006225585940
-16.464300155639648 69.386299133300781 140.432998657226560
-13.405500411987305 68.810096740722656 139.934005737304690
-12.382399559020996 69.232803344726563 139.438003540039060
-15.315999984741211 68.562400817871094 140.447998046875000
-16.260099411010742 69.157402038574219 141.453994750976560
-16.940999984741211 69.336196899414063 143.897994995117190
-15.901599884033203 68.908798217773437 142.434005737304690
-15.309200286865234 68.573501586914062 141.447006225585940
-14.265399932861328 68.505500793457031 141.449996948242190
-13.639699935913086 68.813598632812500 140.947998046875000
-12.836199760437012 69.172096252441406 140.440994262695310
-15.736700057983398 68.802902221679688 143.453002929687500
-13.905500411987305 68.775901794433594 143.453002929687500
-13.307600021362305 69.115097045898437 142.947998046875000
-12.715399742126465 69.477302551269531 142.447006225585940
-13.883299827575684 68.728401184082031 142.449005126953120
-14.796600341796875 68.531402587890625 142.445007324218750
-13.280400276184082 69.072303771972656 141.947998046875000
-12.692600250244141 69.416496276855469 141.451004028320310
-18.292100906372070 71.105300903320312 139.445999145507810
-17.783000946044922 70.617103576660156 139.947998046875000
-18.272800445556641 71.128196716308594 140.453002929687500
-18.648799896240234 71.273597717285156 141.520004272460940
-17.293300628662109 70.107398986816406 140.449005126953120
-18.908000946044922 71.472900390625000 139.938995361328120
-17.800399780273438 70.599502563476562 140.947006225585940
-18.210199356079102 70.703498840332031 141.990005493164060
-17.351999282836914 70.039001464843750 141.429992675781250
-17.783399581909180 70.121696472167969 142.455001831054690
-16.840599060058594 69.537399291992188 141.934997558593750
-16.887100219726562 69.440200805664062 142.921005249023440
-17.902700424194336 69.940002441406250 143.401992797851560
