ply
format ascii 1.0
element vertex 140
property double x
property double y
property double z
end_header
-76.410598754882813 -20.798999786376953 -27.185899734497070
-78.083396911621094 -21.328899383544922 -25.986000061035156
-79.380897521972656 -20.816900253295898 -25.698600769042969
-76.410598754882813 -20.798999786376953 -27.185899734497070
-78.431900024414062 -20.415899276733398 -27.294500350952148
-82.891098022460938 -18.121999740600586 -26.013299942016602
-80.283203125000000 -19.675800323486328 -27.422399520874023
-82.994201660156250 -16.467899322509766 -26.000699996948242
-82.651802062988281 -14.946000099182129 -25.821100234985352
-81.900100708007813 -18.189599990844727 -27.509599685668945
-74.608497619628906 -20.093999862670898 -29.073600769042969
-78.654998779296875 -19.373600006103516 -28.688499450683594
-82.531196594238281 -16.489799499511719 -27.320600509643555
-76.434402465820313 -19.391500473022461 -29.447799682617187
-80.412498474121094 -18.436300277709961 -28.732900619506836
-71.947998046875000 -19.284599304199219 -30.133499145507813
-82.197402954101563 -14.300399780273437 -27.207700729370117
-73.430297851562500 -19.370800018310547 -30.201000213623047
-81.975402832031250 -16.405099868774414 -28.395799636840820
-78.531501770019531 -18.335599899291992 -29.877000808715820
-81.224998474121094 -11.843600273132324 -27.373399734497070
-81.750602722167969 -14.997900009155273 -28.845800399780273
-80.934600830078125 -16.462099075317383 -29.530799865722656
-80.772903442382812 -10.558199882507324 -27.191499710083008
-77.844802856445313 -17.797100067138672 -30.780000686645508
-76.452903747558594 -18.004299163818359 -31.019899368286133
-74.490600585937500 -18.149900436401367 -31.417200088500977
-70.523803710937500 -18.307500839233398 -32.080101013183594
-71.972297668457031 -18.112100601196289 -31.896299362182617
-79.897399902343750 -8.814209938049316 -27.596799850463867
-80.956802368164063 -13.952500343322754 -29.736700057983398
-79.818702697753906 -15.916299819946289 -30.726999282836914
-80.120796203613281 -10.531700134277344 -28.745599746704102
-80.659599304199219 -12.085399627685547 -29.347400665283203
-78.524902343750000 -16.292299270629883 -31.489000320434570
-70.383102416992188 -17.464799880981445 -32.818298339843750
-72.592002868652344 -17.327800750732422 -32.681400299072266
-75.143798828125000 -17.069799423217773 -32.367000579833984
-76.593696594238281 -16.729400634765625 -32.096801757812500
-80.104202270507813 -13.403100013732910 -30.812900543212891
-79.076400756835938 -9.206580162048340 -29.336200714111328
-79.929801940917969 -11.862700462341309 -30.582500457763672
-69.058197021484375 -16.957300186157227 -33.750099182128906
-76.214103698730469 -16.088600158691406 -32.730201721191406
-79.351196289062500 -14.187800407409668 -31.666900634765625
-77.733901977539062 -6.117189884185791 -28.597700119018555
-70.547996520996094 -16.835699081420898 -33.609798431396484
-78.265602111816406 -15.226099967956543 -32.232601165771484
-75.195899963378906 -5.506229877471924 -28.949499130249023
-77.946899414062500 -7.508810043334961 -29.539600372314453
-72.597503662109375 -16.258899688720703 -33.778900146484375
-74.321502685546875 -15.952699661254883 -33.543998718261719
-78.236900329589844 -8.778160095214844 -30.420499801635742
-79.287101745605469 -12.014100074768066 -31.672199249267578
-78.072097778320312 -13.933600425720215 -32.830799102783203
-78.652198791503906 -10.133799552917480 -31.366199493408203
-68.490699768066406 -16.000099182128906 -34.807800292968750
-76.663299560546875 -14.371199607849121 -33.577899932861328
-70.446197509765625 -15.748299598693848 -34.797698974609375
-71.951202392578125 -15.605899810791016 -34.688201904296875
-76.873397827148438 -7.515669822692871 -31.238899230957031
-76.110801696777344 -6.242020130157471 -30.842300415039063
-73.600601196289062 -4.366769790649414 -30.354999542236328
-74.987297058105469 -5.952879905700684 -31.048599243164063
-77.995498657226562 -11.982099533081055 -33.317100524902344
-74.229896545410156 -14.271499633789062 -34.844600677490234
-76.239700317382812 -13.283699989318848 -34.437198638916016
-77.903503417968750 -10.484100341796875 -33.240798950195312
-77.351997375488281 -9.272069931030273 -32.938098907470703
-72.151298522949219 -5.323339939117432 -31.878900527954102
-65.976799011230469 -15.123299598693848 -36.427101135253906
-68.914596557617188 -14.777600288391113 -36.091899871826172
-70.404701232910156 -14.686499595642090 -35.986698150634766
-76.664703369140625 -8.338190078735352 -32.901298522949219
-72.523498535156250 -13.924599647521973 -35.872299194335938
-76.469703674316406 -11.990699768066406 -34.802600860595703
-75.359100341796875 -7.129960060119629 -33.506198883056641
-72.035202026367188 -13.593299865722656 -36.434200286865234
-76.485298156738281 -10.474100112915039 -34.805500030517578
-74.180198669433594 -5.963019847869873 -33.263698577880859
-72.171096801757813 -5.500860214233398 -33.274600982666016
-75.055496215820313 -12.066699981689453 -35.645401000976562
-68.215499877929688 -13.938699722290039 -37.108798980712891
-70.489700317382812 -13.545100212097168 -37.063899993896484
-75.870201110839844 -8.566010475158691 -34.782901763916016
-73.558799743652344 -12.092700004577637 -36.487300872802734
-65.966003417968750 -13.571100234985352 -37.872001647949219
-72.215400695800781 -12.213199615478516 -37.197898864746094
-73.933898925781250 -6.188779830932617 -34.655601501464844
-74.442001342773438 -10.679599761962891 -36.670398712158203
-72.211601257324219 -5.509719848632813 -34.886199951171875
-74.843803405761719 -7.530370235443115 -35.463798522949219
-70.405097961425781 -11.882800102233887 -38.387599945068359
-73.345100402832031 -10.387800216674805 -37.607498168945313
-64.449897766113281 -12.017399787902832 -39.313098907470703
-68.138496398925781 -11.935099601745605 -38.973300933837891
-74.039497375488281 -8.156629562377930 -37.198101043701172
-71.916198730468750 -10.448499679565430 -38.454101562500000
-65.898399353027344 -11.641799926757813 -39.690101623535156
-72.748199462890625 -5.904349803924561 -37.057899475097656
-64.352500915527344 -11.425900459289551 -40.251499176025391
-69.063903808593750 -10.752599716186523 -39.633899688720703
-70.592597961425781 -9.889180183410645 -39.538501739501953
-72.047798156738281 -8.237070083618164 -39.372699737548828
-66.373703002929688 -10.216199874877930 -41.023101806640625
-64.393302917480469 -10.265899658203125 -41.334499359130859
-68.470802307128906 -9.542630195617676 -40.834300994873047
-71.987396240234375 -5.968389987945557 -39.305301666259766
-71.407402038574219 -4.781370162963867 -38.977901458740234
-62.858200073242188 -10.149100303649902 -41.957298278808594
-71.503700256347656 -7.289080142974854 -40.322799682617188
-70.311897277832031 -7.827159881591797 -41.058101654052734
-71.426597595214844 -6.008749961853027 -40.360698699951172
-69.010597229003906 -8.235819816589356 -41.576999664306641
-67.324401855468750 -8.780110359191895 -42.034500122070313
-64.618896484375000 -9.411620140075684 -42.614498138427734
-65.973701477050781 -9.086480140686035 -42.388900756835938
-70.498100280761719 -5.981719970703125 -41.563899993896484
-68.319000244140625 -7.655469894409180 -42.460399627685547
-70.171897888183594 -4.537159919738770 -41.318099975585937
-64.351501464843750 -8.729220390319824 -43.596599578857422
-63.252899169921875 -9.384300231933594 -44.047298431396484
-66.330497741699219 -7.738070011138916 -43.540298461914063
-68.563697814941406 -6.303440093994141 -43.362701416015625
-69.630699157714844 -4.775380134582520 -42.958099365234375
-64.312301635742187 -7.869840145111084 -44.712699890136719
-63.149101257324219 -9.137669563293457 -45.383098602294922
-63.397899627685547 -8.071149826049805 -45.681800842285156
-69.094497680664063 -4.562439918518066 -43.897098541259766
-66.391098022460937 -5.981780052185059 -45.291500091552734
-64.953796386718750 -6.642580032348633 -45.821601867675781
-67.568496704101562 -4.572800159454346 -45.389099121093750
-65.644096374511719 -5.569869995117188 -46.389099121093750
-67.394996643066406 -2.975990056991577 -45.239799499511719
-64.285896301269531 -6.107240200042725 -47.191001892089844
-66.996902465820313 -2.987999916076660 -46.482898712158203
-66.311203002929688 -4.041580200195313 -47.096801757812500
-65.929702758789062 -2.969490051269531 -48.256698608398437
-65.260498046875000 -1.889199972152710 -48.015499114990234
-64.906303405761719 -2.347019910812378 -49.201499938964844
