ply
format ascii 1.0
element vertex 350
property double x
property double y
property double z
end_header
9.066100120544434 -25.536699295043945 14.760100364685059
3.067650079727173 -27.372400283813477 14.705900192260742
6.006569862365723 -26.691999435424805 14.642499923706055
13.590000152587891 -24.185300827026367 14.904100418090820
9.066100120544434 -25.536699295043945 14.760100364685059
1.556830048561096 -27.447399139404297 14.680600166320801
4.553780078887940 -26.737600326538086 14.670000076293945
0.095291003584862 -27.480100631713867 14.735699653625488
-2.164870023727417 -27.206399917602539 14.767100334167480
13.623499870300293 -25.782899856567383 13.267800331115723
7.527540206909180 -26.853500366210938 13.215499877929687
9.444510459899902 -26.484899520874023 13.143300056457520
14.938599586486816 -25.105800628662109 13.068599700927734
16.364700317382812 -24.890499114990234 12.966799736022949
3.822259902954102 -27.192300796508789 13.244099617004395
1.541049957275391 -27.336999893188477 13.229900360107422
-0.666994988918304 -27.399099349975586 13.286600112915039
12.134499549865723 -25.909200668334961 12.592800140380859
-2.946330070495606 -27.414499282836914 13.309900283813477
19.386199951171875 -23.484199523925781 12.693200111389160
-10.455699920654297 -28.426399230957031 13.221099853515625
13.631799697875977 -25.793600082397461 11.828100204467773
7.551070213317871 -26.978300094604492 11.723400115966797
19.401699066162109 -24.833499908447266 11.408300399780273
21.783500671386719 -24.782199859619141 10.960900306701660
10.022800445556641 -26.768499374389648 11.173299789428711
18.039100646972656 -25.343099594116211 10.930999755859375
15.817700386047363 -25.607999801635742 11.027799606323242
6.068679809570313 -27.231399536132813 11.030300140380859
24.173500061035156 -24.439199447631836 10.369600296020508
3.813849925994873 -27.368600845336914 11.053000450134277
-0.413837999105453 -27.679300308227539 11.220399856567383
1.568089962005615 -27.485500335693359 11.072199821472168
19.514499664306641 -25.324899673461914 10.152099609375000
20.977100372314453 -25.130300521850586 10.045399665832520
25.354000091552734 -23.674400329589844 10.111900329589844
9.071649551391602 -27.078899383544922 10.265399932861328
7.570179939270020 -27.157600402832031 10.290800094604492
11.975999832153320 -26.665599822998047 10.057999610900879
-4.479179859161377 -27.868400573730469 10.893400192260742
-2.473390102386475 -27.863199234008789 10.648200035095215
-5.979450225830078 -27.946399688720703 10.918700218200684
-10.493800163269043 -28.225500106811523 11.048100471496582
-7.775819778442383 -28.080600738525391 10.800499916076660
13.495100021362305 -26.605600357055664 9.171299934387207
17.584899902343750 -26.212799072265625 8.899629592895508
-12.089500427246094 -28.519300460815430 10.810500144958496
21.775199890136719 -25.431100845336914 8.704330444335938
25.638399124145508 -24.176599502563477 8.779140472412109
19.511699676513672 -26.069599151611328 8.575519561767578
23.854299545288086 -24.934200286865234 8.488030433654785
12.053199768066406 -27.010099411010742 8.758620262145996
15.763799667358398 -26.758800506591797 8.456669807434082
7.550749778747559 -27.869400024414063 8.729800224304199
9.582989692687988 -27.533599853515625 8.662810325622559
11.329600334167480 -34.432800292968750 5.555369853973389
15.183899879455566 -27.401199340820313 7.962550163269043
6.039309978485107 -28.176000595092773 8.484379768371582
13.555100440979004 -32.991199493408203 5.787909984588623
-14.186200141906738 -28.448999404907227 10.227800369262695
12.045200347900391 -33.003101348876953 5.859220027923584
13.582200050354004 -28.599899291992188 7.444300174713135
13.506699562072754 -34.268501281738281 5.160240173339844
3.788710117340088 -28.168100357055664 8.524519920349121
12.068200111389160 -28.647699356079102 7.510109901428223
15.800999641418457 -28.471300125122070 7.219150066375732
15.060500144958496 -31.570600509643555 5.985789775848389
13.567500114440918 -31.594999313354492 6.099629878997803
13.516300201416016 -29.752399444580078 6.816150188446045
12.037400245666504 -29.802299499511719 6.912630081176758
1.512660026550293 -28.119300842285156 8.589590072631836
15.052499771118164 -29.985500335693359 6.519999980926514
19.569599151611328 -27.015100479125977 7.257880210876465
17.751300811767578 -27.894899368286133 7.078629970550537
12.051600456237793 -31.602899551391602 6.127289772033691
0.039661999791861 -28.123800277709961 8.611009597778320
9.794260025024414 -28.615900039672852 7.464509963989258
15.984499931335449 -32.311500549316406 5.350850105285645
16.616399765014648 -30.177000045776367 6.125120162963867
9.819359779357910 -32.948898315429688 5.640110015869141
21.497900009155273 -26.367099761962891 7.149680137634277
9.160079956054688 -34.297298431396484 5.120790004730225
-2.205450057983398 -28.166799545288086 8.640709877014160
9.815730094909668 -29.769100189208984 6.837940216064453
9.770279884338379 -31.596799850463867 6.016119956970215
7.545650005340576 -28.596000671386719 7.402860164642334
19.219600677490234 -27.872999191284180 6.574240207672119
25.574199676513672 -24.725700378417969 7.198080062866211
-4.441699981689453 -28.102199554443359 8.672510147094727
-18.083099365234375 -27.299699783325195 10.226300239562988
18.034200668334961 -29.950899124145508 5.673600196838379
23.646299362182617 -25.694799423217773 6.844250202178955
-5.936289787292481 -28.106800079345703 8.686229705810547
6.043879985809326 -28.539100646972656 7.316359996795654
27.045299530029297 -23.870700836181641 7.165009975433350
17.819400787353516 -31.136899948120117 5.097569942474365
7.546450138092041 -30.008100509643555 6.525919914245606
-8.191769599914551 -28.176200866699219 8.721630096435547
19.597799301147461 -28.579599380493164 5.837749958038330
3.786159992218018 -28.548799514770508 7.300640106201172
7.610149860382080 -32.143501281738281 5.470670223236084
21.249599456787109 -27.315299987792969 6.016729831695557
5.576849937438965 -29.798400878906250 6.463479995727539
-10.448599815368652 -27.738500595092773 8.798310279846191
1.536139965057373 -28.559400558471680 7.301360130310059
-11.949299812316895 -28.046199798583984 8.751959800720215
0.039925001561642 -28.645200729370117 7.346670150756836
19.500499725341797 -29.893199920654297 4.916049957275391
-19.192600250244141 -26.416000366210938 10.012200355529785
22.540399551391602 -26.959400177001953 5.708449840545654
-14.298000335693359 -27.969200134277344 8.804320335388184
4.514560222625732 -30.206800460815430 6.064980030059815
5.627630233764648 -31.738800048828125 5.315149784088135
19.469400405883789 -31.380800247192383 4.067070007324219
23.827199935913086 -26.624300003051758 5.449910163879395
21.588199615478516 -28.548400878906250 4.824669837951660
25.476499557495117 -25.361700057983398 5.672749996185303
3.021800041198731 -30.090799331665039 5.886559963226318
-16.468599319458008 -27.586599349975586 8.700030326843262
4.525010108947754 -33.051898956298828 4.344079971313477
-5.940090179443359 -28.340900421142578 7.182030200958252
-2.232280015945435 -28.642700195312500 6.674270153045654
-18.036600112915039 -27.499900817871094 8.630299568176270
20.872200012207031 -29.731800079345703 3.971080064773560
3.052249908447266 -31.961799621582031 4.703579902648926
1.598919987678528 -30.491300582885742 5.391920089721680
-8.567729949951172 -28.224000930786133 7.188469886779785
-4.474939823150635 -28.551099777221680 6.567019939422607
-19.398099899291992 -26.807199478149414 8.694029808044434
-20.114299774169922 -26.707799911499023 8.671759605407715
-10.428400039672852 -27.994499206542969 7.224669933319092
1.500749945640564 -31.697099685668945 4.534060001373291
-0.654989004135132 -29.811700820922852 5.473470211029053
-12.418800354003906 -28.021499633789063 7.245220184326172
3.091010093688965 -35.901100158691406 2.568809986114502
2.972800016403198 -34.695598602294922 3.063210010528565
1.609580039978027 -32.749198913574219 3.868149995803833
0.027625000104308 -31.578100204467773 4.362720012664795
1.471019983291626 -34.017101287841797 3.180059909820557
-11.944600105285645 -27.027900695800781 7.203390121459961
-2.469029903411865 -30.117000579833984 4.960209846496582
-14.580900192260742 -27.464599609375000 7.174119949340820
1.603549957275391 -35.725898742675781 2.265290021896362
-5.969590187072754 -28.599300384521484 5.848800182342529
0.110711999237537 -35.847698211669922 2.354939937591553
-0.629864990711212 -32.576499938964844 3.626669883728027
0.009881000034511 -33.895099639892578 2.998990058898926
-16.520900726318359 -27.428499221801758 7.172900199890137
-2.193480014801025 -31.440000534057617 4.149970054626465
-23.762699127197266 -25.100700378417969 8.696599960327148
-4.429629802703857 -29.919000625610352 4.888969898223877
-8.204259872436523 -28.559200286865234 5.762330055236816
-18.011600494384766 -27.291500091552734 7.205770015716553
1.482710003852844 -36.294498443603516 1.700099945068359
-17.955499649047852 -27.019100189208984 7.217889785766602
-2.924119949340820 -32.587699890136719 3.535550117492676
-2.212719917297363 -33.809101104736328 2.856630086898804
-1.433220028877258 -35.651298522949219 2.009900093078613
-5.906250000000000 -29.800800323486328 4.724390029907227
-19.896699905395508 -26.798200607299805 7.214550018310547
-4.390570163726807 -31.302799224853516 3.896739959716797
-4.463260173797607 -33.750900268554688 2.774640083312988
-6.439229965209961 -33.953498840332031 2.597120046615601
-5.962759971618652 -31.480199813842773 3.519160032272339
-22.608400344848633 -25.856300354003906 7.252799987792969
-10.453800201416016 -28.459100723266602 5.028800010681152
-8.168310165405273 -29.901300430297852 4.092430114746094
-7.298850059509277 -31.013700485229492 3.520479917526245
-23.753099441528320 -25.142799377441406 7.164569854736328
-8.198349952697754 -32.250598907470703 2.753779888153076
-14.953800201416016 -27.834699630737305 5.132060050964356
-12.416799545288086 -28.364299774169922 4.652770042419434
-16.514600753784180 -27.370300292968750 5.368770122528076
-18.665800094604492 -26.809799194335937 5.726069927215576
-10.462200164794922 -30.003499984741211 3.595900058746338
-24.819499969482422 -24.213300704956055 7.252270221710205
-10.404000282287598 -32.082000732421875 2.454299926757813
-11.951399803161621 -29.889999389648438 3.356869935989380
-17.993799209594727 -27.204799652099609 4.981760025024414
-12.385199546813965 -31.850299835205078 2.363919973373413
-20.214700698852539 -26.720899581909180 5.053549766540527
-22.630300521850586 -25.966199874877930 5.249030113220215
-14.288499832153320 -33.083698272705078 1.545660018920898
-14.163700103759766 -29.941600799560547 2.605119943618774
-23.906900405883789 -25.391000747680664 5.214749813079834
-15.150899887084961 -31.617900848388672 1.834929943084717
-16.677200317382812 -27.706699371337891 3.067889928817749
-16.410400390625000 -32.167400360107422 1.153839945793152
-16.617099761962891 -30.070499420166016 1.681789994239807
-18.077999114990234 -27.411600112915039 2.882780075073242
-26.003799438476562 -23.765899658203125 4.881529808044434
-17.820899963378906 -31.435100555419922 0.924149990081787
-19.479499816894531 -27.090999603271484 2.743890047073364
-25.017200469970703 -24.855400085449219 4.083230018615723
-26.962900161743164 -22.515399932861328 4.974480152130127
-20.894800186157227 -26.765100479125977 2.683099985122681
-18.509300231933594 -29.900800704956055 0.844168007373810
-22.453699111938477 -26.157899856567383 2.718120098114014
-19.646600723266602 -31.517000198364258 0.132577002048492
-18.715499877929688 -28.462900161743164 1.227309942245483
-24.404199600219727 -25.417699813842773 2.700850009918213
-19.715700149536133 -30.067699432373047 0.244815006852150
-25.149799346923828 -24.933099746704102 2.639090061187744
-20.771699905395508 -31.429000854492188 -0.580259025096893
-26.352399826049805 -24.193700790405273 2.800780057907105
-20.477600097656250 -27.724599838256836 0.818719029426575
-28.211000442504883 -20.827600479125977 4.063069820404053
-22.479200363159180 -26.419099807739258 1.177010059356690
-27.499399185180664 -23.047399520874023 3.009759902954102
-20.859500885009766 -29.942899703979492 -0.435705006122589
-20.997699737548828 -28.516099929809570 -0.198321998119354
-28.269199371337891 -21.845399856567383 3.131449937820435
-22.598400115966797 -31.513900756835938 -1.493569970130920
-24.574499130249023 -25.542699813842773 0.967751979827881
-22.600200653076172 -27.248399734497070 -0.056889999657869
-22.364999771118164 -29.944499969482422 -1.182389974594116
-27.035699844360352 -24.108499526977539 1.256209969520569
-22.489999771118164 -28.473400115966797 -0.985597014427185
-29.250900268554688 -20.269500732421875 2.755029916763306
-28.673400878906250 -22.702800750732422 1.356670022010803
-23.736700057983398 -29.906499862670898 -2.108150005340576
-23.826999664306641 -31.419399261474609 -2.735229969024658
-24.372299194335938 -26.539199829101563 -0.916679978370667
-29.611000061035156 -19.312099456787109 2.387279987335205
-28.471099853515625 -23.302900314331055 0.506798982620239
-23.991199493408203 -27.746700286865234 -1.726310014724731
-25.829500198364258 -25.472900390625000 -1.001690030097961
-24.871799468994141 -30.035800933837891 -2.995429992675781
-27.028900146484375 -24.598499298095703 -0.739894986152649
-29.981800079345703 -21.498699188232422 0.761228978633881
-30.829799652099609 -19.857099533081055 1.084650039672852
-28.401100158691406 -23.918300628662109 -1.051159977912903
-25.935899734497070 -27.978900909423828 -3.297130107879639
-31.357200622558594 -20.901199340820313 -0.357086986303329
-31.819499969482422 -19.777200698852539 0.105164997279644
-30.543100357055664 -22.368000030517578 -1.177889943122864
-26.956800460815430 -26.251399993896484 -3.299079895019531
-29.613199234008789 -23.463300704956055 -1.948189973831177
-28.303300857543945 -24.600999832153320 -2.620680093765259
-26.783800125122070 -29.899499893188477 -4.951049804687500
-27.298799514770508 -27.836099624633789 -4.357900142669678
-31.799499511718750 -21.318399429321289 -1.426220059394836
-28.164199829101562 -25.257699966430664 -3.491280078887940
-33.028701782226562 -18.032600402832031 -0.172170996665955
-32.779800415039062 -20.099300384521484 -1.207280039787293
-30.084299087524414 -23.510700225830078 -3.213680028915405
-34.346000671386719 -18.434700012207031 -0.865329027175903
-28.444099426269531 -26.236200332641602 -4.796949863433838
-29.129499435424805 -24.453699111938477 -4.166039943695068
-28.561899185180664 -28.026100158691406 -5.658259868621826
-34.437198638916016 -19.464899063110352 -1.789309978485107
-32.394298553466797 -21.908100128173828 -3.048429965972900
-36.191001892089844 -18.472700119018555 -1.460790038108826
-29.499599456787109 -25.206699371337891 -5.216129779815674
-35.637901306152344 -19.013900756835938 -2.158570051193237
-34.322200775146484 -20.347299575805664 -2.891249895095825
-30.594699859619141 -24.004999160766602 -5.097630023956299
-32.244300842285156 -22.563800811767578 -4.749690055847168
-30.063100814819336 -28.031700134277344 -7.162829875946045
-36.647701263427734 -19.367200851440430 -3.329760074615479
-30.526399612426758 -26.128000259399414 -6.838160037994385
-34.557399749755859 -21.147199630737305 -4.705180168151856
-36.008598327636719 -20.326799392700195 -4.728040218353272
-30.739799499511719 -28.047800064086914 -8.384119987487793
-31.559299468994141 -25.535999298095703 -7.665929794311523
-32.148601531982422 -23.879899978637695 -7.038799762725830
-38.209899902343750 -19.454200744628906 -4.791969776153565
-33.149700164794922 -22.767599105834961 -6.964650154113770
-40.334300994873047 -18.897499084472656 -5.023300170898438
-34.493000030517578 -21.830799102783203 -7.013909816741943
-32.726898193359375 -25.875600814819336 -8.985679626464844
-41.850200653076172 -17.796699523925781 -4.901340007781982
-33.352600097656250 -24.168399810791016 -8.891690254211426
-36.828800201416016 -20.651800155639648 -7.292490005493164
-33.694000244140625 -23.014699935913086 -8.625659942626953
-38.705799102783203 -19.968200683593750 -6.993400096893311
-35.997798919677734 -21.072099685668945 -7.763679981231690
-33.850299835205078 -25.221200942993164 -9.848959922790527
-40.463699340820312 -19.629100799560547 -7.014120101928711
-41.926399230957031 -19.474300384521484 -7.077690124511719
-34.116699218750000 -23.784500122070312 -9.571920394897461
-43.447799682617188 -19.608100891113281 -7.030519962310791
-34.676898956298828 -25.850200653076172 -11.035300254821777
-34.834400177001953 -24.134300231933594 -10.402899742126465
-35.820201873779297 -21.529899597167969 -9.348400115966797
-35.156898498535156 -22.794900894165039 -10.140999794006348
-37.201000213623047 -20.649200439453125 -9.427120208740234
-39.043498992919922 -19.867200851440430 -9.327739715576172
-40.477199554443359 -19.686700820922852 -9.322520256042481
-35.871101379394531 -23.948999404907227 -11.573699951171875
-41.953300476074219 -19.575199127197266 -9.294400215148926
-36.452899932861328 -22.115499496459961 -11.026599884033203
-43.936199188232422 -19.433000564575195 -9.264880180358887
-37.122699737548828 -20.814100265502930 -11.056300163269043
-37.109699249267578 -23.862800598144531 -12.614800453186035
-36.360801696777344 -25.417400360107422 -13.356100082397461
-38.760299682617188 -19.992099761962891 -11.080400466918945
-40.439998626708984 -19.419900894165039 -10.758000373840332
-37.339900970458984 -22.427700042724609 -12.367699623107910
-39.111198425292969 -25.438400268554688 -13.518099784851074
-43.397899627685547 -19.032899856567383 -10.553000450134277
-37.836101531982422 -21.269599914550781 -11.988800048828125
-44.487899780273438 -18.630599975585938 -10.851300239562988
-38.328300476074219 -24.034700393676758 -13.656599998474121
-38.758399963378906 -22.063100814819336 -13.497300148010254
-38.606498718261719 -19.698799133300781 -12.568499565124512
-42.212600708007813 -25.091499328613281 -14.572099685668945
-40.376998901367187 -23.974899291992187 -14.601599693298340
-40.508899688720703 -18.638200759887695 -12.727999687194824
-40.322399139404297 -19.679500579833984 -13.247799873352051
-42.017501831054688 -23.872400283813477 -15.086299896240234
-44.543201446533203 -17.675399780273438 -12.363499641418457
-42.440200805664063 -17.998800277709961 -13.287300109863281
-40.647201538085938 -21.714099884033203 -15.014699935913086
-39.153400421142578 -18.675500869750977 -13.984299659729004
-44.389598846435547 -23.657899856567383 -15.504500389099121
-42.439498901367188 -22.525199890136719 -15.847900390625000
-40.853599548339844 -19.557100296020508 -14.951800346374512
-41.553901672363281 -20.992599487304688 -15.887700080871582
-38.938400268554687 -17.899499893188477 -15.241399765014648
-40.447898864746094 -17.977699279785156 -15.275799751281738
-44.432800292968750 -21.869400024414062 -16.626899719238281
-41.995800018310547 -17.343799591064453 -15.315799713134766
-42.155101776123047 -20.246500015258789 -16.551399230957031
-43.394001007080078 -21.095800399780273 -16.941999435424805
-44.226398468017578 -16.574300765991211 -15.309599876403809
-46.465000152587891 -15.512200355529785 -15.279000282287598
-40.454700469970703 -17.213899612426758 -16.778999328613281
-47.630599975585937 -14.557499885559082 -15.182299613952637
-44.078498840332031 -20.145999908447266 -17.820699691772461
-40.549400329589844 -16.974500656127930 -16.996200561523438
-44.438899993896484 -15.968000411987305 -16.773000717163086
-44.899501800537109 -19.704200744628906 -18.521999359130859
-42.665599822998047 -16.387599945068359 -17.485599517822266
-46.458198547363281 -14.997300148010254 -16.782199859619141
-40.460601806640625 -16.525699615478516 -18.297899246215820
-41.984100341796875 -15.848299980163574 -19.093999862670898
-44.063598632812500 -15.297300338745117 -18.900199890136719
-41.952301025390625 -15.013899803161621 -19.796600341796875
-44.878398895263672 -14.724499702453613 -19.668300628662109
-43.326999664306641 -14.454199790954590 -21.008100509643555
-44.479400634765625 -14.106599807739258 -21.340200424194336
-46.461601257324219 -13.506400108337402 -21.286199569702148
-44.236598968505859 -13.589900016784668 -22.833999633789063
-46.257499694824219 -13.042799949645996 -22.598499298095703
-46.773700714111328 -12.677900314331055 -23.046300888061523
-44.770801544189453 -12.738200187683105 -23.903499603271484
-45.077400207519531 -12.435199737548828 -24.510400772094727
-46.447498321533203 -11.963000297546387 -25.012599945068359
-47.944499969482422 -11.420100212097168 -25.197000503540039
