ply
format ascii 1.0
element vertex 273
property double x
property double y
property double z
end_header
-10.509900093078613 -5.489130020141602 -12.560799598693848
-10.990900039672852 -5.643129825592041 -12.356800079345703
-11.065899848937988 -5.783140182495117 -12.409799575805664
-10.829899787902832 -5.771130084991455 -12.421799659729004
-11.222900390625000 -5.805130004882813 -12.461799621582031
-11.299900054931641 -5.638140201568604 -12.460800170898438
-11.525899887084961 -6.446139812469482 -12.524800300598145
-11.229900360107422 -6.350130081176758 -12.509799957275391
-10.945899963378906 -5.897130012512207 -12.473799705505371
-11.109900474548340 -5.938129901885986 -12.483799934387207
-11.309900283813477 -6.201129913330078 -12.508799552917480
-11.133899688720703 -6.200139999389648 -12.511799812316895
-11.483900070190430 -5.774129867553711 -12.495800018310547
-11.467900276184082 -6.287139892578125 -12.530799865722656
-11.358900070190430 -5.934130191802979 -12.509799957275391
-11.535900115966797 -5.945129871368408 -12.520799636840820
-10.994899749755859 -6.106140136718750 -12.514800071716309
-11.791899681091309 -5.820129871368408 -12.525799751281738
-11.223899841308594 -6.059130191802979 -12.524800300598145
-11.441900253295898 -6.092140197753906 -12.548800468444824
-10.712900161743164 -5.553130149841309 -12.487799644470215
-10.716899871826172 -5.878129959106445 -12.510800361633301
-10.163900375366211 -5.493130207061768 -12.466799736022949
-10.902899742126465 -6.241129875183106 -12.549799919128418
-11.372900009155273 -6.418129920959473 -12.585800170898438
-10.835900306701660 -6.005139827728272 -12.539799690246582
-11.054900169372559 -6.341129779815674 -12.575799942016602
-11.604900360107422 -6.170129776000977 -12.588800430297852
-10.850899696350098 -5.644139766693115 -12.527799606323242
-11.698900222778320 -6.002140045166016 -12.583800315856934
-10.583900451660156 -5.780139923095703 -12.533800125122070
-10.325900077819824 -5.461140155792236 -12.504799842834473
-11.633899688720703 -5.791130065917969 -12.571800231933594
-11.659899711608887 -6.426139831542969 -12.624799728393555
-10.741900444030762 -6.148139953613281 -12.578800201416016
-10.632900238037109 -6.021130084991455 -12.572799682617188
-11.333900451660156 -5.762139797210693 -12.580800056457520
-11.933899879455566 -5.847129821777344 -12.609800338745117
-10.457900047302246 -5.663129806518555 -12.563799858093262
-11.725899696350098 -6.269139766693115 -12.648799896240234
-11.116900444030762 -5.792129993438721 -12.600799560546875
-10.487899780273437 -5.920129776000977 -12.588800430297852
-10.509900093078613 -5.489130020141602 -12.560799598693848
-10.247900009155273 -5.628129959106445 -12.561800003051758
-10.038900375366211 -5.580130100250244 -12.552800178527832
-10.945899963378906 -5.766139984130859 -12.615799903869629
-11.552900314331055 -6.303130149841309 -12.676799774169922
-10.341899871826172 -5.819129943847656 -12.604800224304199
-11.358900070190430 -6.274129867553711 -12.671799659729004
-10.081899642944336 -5.358129978179932 -12.568799972534180
-10.342900276184082 -6.014130115509033 -12.624799728393555
-11.191900253295898 -6.343130111694336 -12.678799629211426
-11.236900329589844 -5.901140213012695 -12.650799751281738
-10.618900299072266 -5.613140106201172 -12.611800193786621
-11.429900169372559 -5.925129890441895 -12.660799980163574
-11.824899673461914 -6.119130134582520 -12.695799827575684
-11.769900321960449 -5.884140014648438 -12.678799629211426
-10.491900444030762 -6.093130111694336 -12.653800010681152
-10.794899940490723 -6.276140213012695 -12.682800292968750
-10.116900444030762 -5.731140136718750 -12.624799728393555
-11.316900253295898 -6.050129890441895 -12.691800117492676
-11.574899673461914 -6.010129928588867 -12.699799537658691
-11.469900131225586 -6.148139953613281 -12.705800056457520
-10.195899963378906 -5.892129898071289 -12.654800415039063
-11.927900314331055 -5.976130008697510 -12.719799995422363
-11.213899612426758 -6.180130004882813 -12.710800170898438
-10.216899871826172 -5.446139812469482 -12.630800247192383
-10.190899848937988 -6.072140216827393 -12.674799919128418
-10.362899780273437 -5.538129806518555 -12.649800300598145
-10.801899909973145 -5.817130088806152 -12.683799743652344
-11.800900459289551 -6.377140045166016 -12.757800102233887
-10.972900390625000 -6.373139858245850 -12.730799674987793
-10.051899909973145 -5.980130195617676 -12.673800468444824
-11.023900032043457 -5.897130012512207 -12.706800460815430
-9.982890129089356 -6.151140213012695 -12.689800262451172
-12.037899971008301 -5.839139938354492 -12.739800453186035
-9.886890411376953 -5.489130020141602 -12.643799781799316
-10.629899978637695 -6.196139812469482 -12.718799591064453
-11.671899795532227 -6.153130054473877 -12.755800247192383
-11.134900093078613 -6.019139766693115 -12.734800338745117
-10.637900352478027 -5.776140213012695 -12.703800201416016
-9.602890014648438 -6.210140228271484 -12.701800346374512
-10.136899948120117 -6.235139846801758 -12.722800254821777
-9.937890052795410 -5.647130012512207 -12.676799774169922
-11.903900146484375 -6.246129989624023 -12.788800239562988
-10.309900283813477 -6.199130058288574 -12.733799934387207
-11.062899589538574 -6.232130050659180 -12.763799667358398
-9.880889892578125 -5.998139858245850 -12.708800315856934
-9.748889923095703 -6.128129959106445 -12.714799880981445
-9.399889945983887 -6.062129974365234 -12.700799942016602
-9.997890472412109 -6.323130130767822 -12.750800132751465
-9.971890449523926 -5.827129840850830 -12.717800140380859
-10.693900108337402 -5.930130004882813 -12.755800247192383
-10.274900436401367 -5.660130023956299 -12.724800109863281
-10.426899909973145 -5.762139797210693 -12.737799644470215
-10.863900184631348 -5.954140186309815 -12.766799926757812
-10.980899810791016 -6.074130058288574 -12.782799720764160
-9.281889915466309 -5.940139770507813 -12.724800109863281
-9.669890403747559 -5.977129936218262 -12.741800308227539
-10.133899688720703 -5.562129974365234 -12.731800079345703
-10.518899917602539 -5.900129795074463 -12.774800300598145
-10.022899627685547 -5.407129764556885 -12.724800109863281
-10.894900321960449 -6.232130050659180 -12.814800262451172
-11.993900299072266 -6.097129821777344 -12.843799591064453
-10.755900382995605 -6.093130111694336 -12.806799888610840
-10.724900245666504 -6.309130191802979 -12.832799911499023
-9.875889778137207 -6.215129852294922 -12.801799774169922
-10.269900321960449 -5.822140216827393 -12.788800239562988
-10.582900047302246 -6.060130119323731 -12.815799713134766
-9.756890296936035 -5.495140075683594 -12.749799728393555
-12.079899787902832 -5.942130088806152 -12.864800453186035
-10.401900291442871 -6.331130027770996 -12.837800025939941
-9.545889854431152 -6.078139781951904 -12.791799545288086
-10.364899635314941 -5.957139968872070 -12.811800003051758
-9.027890205383301 -5.802130222320557 -12.758799552917480
-9.464889526367188 -5.924129962921143 -12.784799575805664
-9.902890205383301 -5.295129776000977 -12.757800102233887
-10.554900169372559 -6.266139984130859 -12.852800369262695
-10.425900459289551 -6.142129898071289 -12.841799736022949
-9.724889755249023 -5.784130096435547 -12.794799804687500
-10.235899925231934 -6.295129776000977 -12.850799560546875
-12.016900062561035 -6.262139797210693 -12.910799980163574
-10.099900245666504 -5.764130115509033 -12.812800407409668
-10.234900474548340 -6.076129913330078 -12.841799736022949
-10.148900032043457 -5.932129859924316 -12.830800056457520
-10.071900367736816 -6.120140075683594 -12.842800140380859
-9.187890052795410 -5.768129825592041 -12.798800468444824
-9.985890388488770 -5.974140167236328 -12.840800285339355
-9.988889694213867 -5.572140216827393 -12.816800117492676
-9.798890113830566 -5.934130191802979 -12.845800399780273
-9.881890296936035 -5.780139923095703 -12.851799964904785
-9.664890289306641 -5.628129959106445 -12.837800025939941
-12.157899856567383 -5.799129962921143 -12.934800148010254
-12.117899894714355 -6.126130104064941 -12.956800460815430
-9.340889930725098 -5.826129913330078 -12.844799995422363
-9.596890449523926 -5.862130165100098 -12.871800422668457
-9.859889984130859 -5.419139862060547 -12.860799789428711
-9.832889556884766 -5.621129989624023 -12.875800132751465
-12.202899932861328 -5.957139968872070 -12.985799789428711
-12.129899978637695 -6.284130096435547 -13.032799720764160
-9.471890449523926 -5.764130115509033 -12.933799743652344
-9.048890113830566 -5.779129981994629 -12.922800064086914
-12.240900039672852 -6.161129951477051 -13.063799858093262
-9.715889930725098 -5.503129959106445 -12.935799598693848
-9.746890068054199 -5.319129943847656 -12.933799743652344
-9.225890159606934 -5.767129898071289 -12.967800140380859
-9.558890342712402 -5.556129932403565 -12.974800109863281
-9.243889808654785 -5.593130111694336 -13.011799812316895
-12.236900329589844 -5.910130023956299 -13.142800331115723
-9.411890029907227 -5.631140232086182 -13.030799865722656
-12.411899566650391 -5.846139907836914 -13.147800445556641
-9.627889633178711 -5.388140201568604 -13.029800415039063
-12.335900306701660 -6.241129875183106 -13.190799713134766
-8.851889610290527 -5.765130043029785 -13.064800262451172
-12.231900215148926 -6.092140197753906 -13.215800285339355
-12.356900215148926 -5.979129791259766 -13.238800048828125
-9.114890098571777 -5.623139858245850 -13.139800071716309
-9.325889587402344 -5.507130146026611 -13.141799926757812
-9.445890426635742 -5.387139797210693 -13.138799667358398
-8.625889778137207 -5.708129882812500 -13.137800216674805
-9.551890373229981 -5.257130146026611 -13.150799751281738
-12.403900146484375 -6.140130043029785 -13.314800262451172
-8.912890434265137 -5.648139953613281 -13.167799949645996
-8.983889579772949 -5.496129989624023 -13.178799629211426
-9.266889572143555 -5.351130008697510 -13.182800292968750
-12.446900367736816 -5.824130058288574 -13.322799682617188
-8.754890441894531 -5.591129779815674 -13.194800376892090
-9.179889678955078 -5.488140106201172 -13.225799560546875
-9.394889831542969 -5.231140136718750 -13.218799591064453
-12.422900199890137 -5.990129947662354 -13.398799896240234
-9.164890289306641 -5.011129856109619 -13.254799842834473
-8.346890449523926 -5.446139812469482 -13.260800361633301
-8.906889915466309 -5.356140136718750 -13.275799751281738
-9.252889633178711 -5.154129981994629 -13.279800415039062
-8.877889633178711 -5.529129981994629 -13.306799888610840
-9.158889770507813 -5.293129920959473 -13.306799888610840
-8.622890472412109 -5.541130065917969 -13.311800003051758
-8.739890098571777 -5.389130115509033 -13.308799743652344
-9.045889854431152 -5.437129974365234 -13.323800086975098
-8.882889747619629 -5.096139907836914 -13.296799659729004
-8.499890327453613 -5.417129993438721 -13.322799682617188
-9.011890411376953 -4.984129905700684 -13.322799682617188
-8.795889854431152 -5.233129978179932 -13.345800399780273
-9.091890335083008 -5.144139766693115 -13.353799819946289
-8.213890075683594 -5.484129905700684 -13.358799934387207
-12.527899742126465 -6.061140060424805 -13.565799713134766
-9.007889747619629 -5.287139892578125 -13.400799751281738
-12.490900039672852 -5.887139797210693 -13.571800231933594
-8.882889747619629 -5.402140140533447 -13.438799858093262
-8.314889907836914 -5.353139877319336 -13.416799545288086
-8.625889778137207 -5.417129993438721 -13.436800003051758
-8.947890281677246 -5.132130146026611 -13.446800231933594
-8.567890167236328 -5.256140232086182 -13.459799766540527
-8.881890296936035 -4.979129791259766 -13.454799652099609
-8.699890136718750 -5.145140171051025 -13.476799964904785
-8.460889816284180 -5.380139827728272 -13.505800247192383
-12.581899642944336 -5.954140186309815 -13.699799537658691
-8.847889900207520 -5.237130165100098 -13.529800415039063
-8.748889923095703 -5.370140075683594 -13.548800468444824
-8.247890472412109 -5.419139862060547 -13.565799713134766
-8.815890312194824 -5.071139812469482 -13.590800285339355
-8.495889663696289 -5.165140151977539 -13.589799880981445
-8.624890327453613 -5.061140060424805 -13.608799934387207
-8.600890159606934 -5.342140197753906 -13.637800216674805
-12.665900230407715 -6.004129886627197 -13.834799766540527
-8.725890159606934 -5.208129882812500 -13.650799751281738
-8.369890213012695 -5.330130100250244 -13.680800437927246
-8.196889877319336 -5.353139877319336 -13.716799736022949
-8.742890357971191 -4.974140167236328 -13.710800170898438
-8.363889694213867 -5.164130210876465 -13.727800369262695
-8.504890441894531 -5.272130012512207 -13.769800186157227
-12.755900382995605 -5.985139846801758 -13.975799560546875
-8.618889808654785 -5.148139953613281 -13.791799545288086
-8.048890113830566 -5.406129837036133 -13.816800117492676
-8.471890449523926 -5.063129901885986 -13.807800292968750
-8.339889526367188 -5.273139953613281 -13.853799819946289
-8.651889801025391 -4.993130207061768 -13.858799934387207
-8.167889595031738 -5.296130180358887 -13.870800018310547
-12.813899993896484 -5.940139770507813 -14.139800071716309
-8.250889778137207 -5.114130020141602 -13.929800033569336
-8.418889999389648 -5.147130012512207 -13.945799827575684
-7.989890098571777 -5.428130149841309 -13.983799934387207
-8.532890319824219 -5.005139827728272 -13.976799964904785
-8.028889656066895 -5.290140151977539 -14.070799827575684
-8.170889854431152 -5.169139862060547 -14.071800231933594
-8.421890258789063 -4.925129890441895 -14.073800086975098
-8.291890144348145 -5.037139892578125 -14.083800315856934
-8.267889976501465 -4.831130027770996 -14.158800125122070
-8.170889854431152 -4.680130004882813 -14.150799751281738
-7.941889762878418 -5.222129821777344 -14.200799942016602
-8.078889846801758 -5.109129905700684 -14.198800086975098
-7.924890041351318 -5.036129951477051 -14.191800117492676
-8.170889854431152 -4.968130111694336 -14.197799682617188
-7.676889896392822 -5.213129997253418 -14.207799911499023
-8.039890289306641 -4.679140090942383 -14.257800102233887
-8.095890045166016 -4.836140155792236 -14.278800010681152
-7.873889923095703 -4.892129898071289 -14.276800155639648
-7.806890010833740 -5.154129981994629 -14.293800354003906
-7.548890113830566 -5.132130146026611 -14.295800209045410
-8.021889686584473 -5.003129959106445 -14.325799942016602
-7.684889793395996 -5.063129901885986 -14.371800422668457
-7.735889911651611 -4.898139953613281 -14.373800277709961
-7.909890174865723 -4.689139842987061 -14.378800392150879
-7.959889888763428 -4.862130165100098 -14.416799545288086
-7.889890193939209 -5.036129951477051 -14.428799629211426
-7.779890060424805 -4.578139781951904 -14.407799720764160
-7.551889896392822 -5.068140029907227 -14.509799957275391
-7.796889781951904 -4.728139877319336 -14.506799697875977
-7.703889846801758 -5.001130104064941 -14.531800270080566
-7.842889785766602 -4.898139953613281 -14.531800270080566
-7.757890224456787 -4.574130058288574 -14.574799537658691
-7.706890106201172 -4.731140136718750 -14.652799606323242
-7.736889839172363 -4.897130012512207 -14.672800064086914
-7.482890129089356 -5.106140136718750 -14.696800231933594
-7.586890220642090 -4.973130226135254 -14.719799995422363
-7.675889968872070 -4.573130130767822 -14.728799819946289
-7.616889953613281 -4.712130069732666 -14.806799888610840
-7.666890144348145 -4.870140075683594 -14.824799537658691
-7.501890182495117 -4.854129791259766 -14.858799934387207
-7.490890026092529 -5.024129867553711 -14.871800422668457
-7.280889987945557 -4.766139984130859 -14.910799980163574
-7.437890052795410 -4.703139781951904 -14.919799804687500
-7.116889953613281 -4.826129913330078 -14.946800231933594
-7.389890193939209 -5.114130020141602 -15.001799583435059
-7.466889858245850 -4.966129779815674 -15.029800415039063
-7.576889991760254 -4.833129882812500 -15.035799980163574
-7.352890014648438 -4.833129882812500 -15.053799629211426
-7.537889957427979 -4.645140171051025 -15.050800323486328
-7.338890075683594 -5.001130104064941 -15.138799667358398
-7.208889961242676 -4.887139797210693 -15.144800186157227
-7.540890216827393 -4.830130100250244 -15.202799797058105
-7.398890018463135 -4.894139766693115 -15.275799751281738
-7.238890171051025 -4.869130134582520 -15.326800346374512
