ply
format ascii 1.0
element vertex 421
property double x
property double y
property double z
end_header
-2.567889928817749 -3.794140100479126 -10.075799942016602
-2.784889936447144 -3.914129972457886 -10.018799781799316
-2.906889915466309 -4.014130115509033 -10.086799621582031
-2.567889928817749 -3.794140100479126 -10.075799942016602
-2.628890037536621 -3.967139959335327 -10.094799995422363
-3.019890069961548 -3.892129898071289 -10.112799644470215
-2.861890077590942 -3.783139944076538 -10.159799575805664
-3.099889993667603 -4.031129837036133 -10.188799858093262
-2.349889993667603 -3.895139932632446 -10.170800209045410
-2.715889930725098 -3.700139999389648 -10.177800178527832
-2.515889883041382 -3.898139953613281 -10.199799537658691
-2.779890060424805 -3.935129880905151 -10.212800025939941
-2.465889930725098 -3.715130090713501 -10.193799972534180
-3.222889900207520 -3.896130084991455 -10.236800193786621
-3.010890007019043 -3.766139984130859 -10.236800193786621
-2.956890106201172 -3.989130020141602 -10.272800445556641
-2.887890100479126 -3.636130094528198 -10.277799606323242
-2.643889904022217 -3.807130098342896 -10.284799575805664
-3.154890060424805 -3.719130039215088 -10.310799598693848
-4.426889896392822 -3.468130111694336 -10.344799995422363
-3.320889949798584 -3.991130113601685 -10.352800369262695
-3.109889984130859 -4.051139831542969 -10.359800338745117
-4.168889999389648 -3.294140100479126 -10.356800079345703
-2.818890094757080 -3.482130050659180 -10.328800201416016
-2.790889978408814 -3.764130115509033 -10.350799560546875
-2.595890045166016 -3.329139947891235 -10.315799713134766
-3.393889904022217 -3.770139932632446 -10.374799728393555
-3.038889884948731 -3.549129962921143 -10.350799560546875
-2.537889957427979 -3.663130044937134 -10.344799995422363
-4.237889766693115 -3.497129917144775 -10.391799926757812
-2.494889974594116 -3.176140069961548 -10.317799568176270
-3.487890005111694 -3.936140060424805 -10.404800415039062
-2.323889970779419 -3.701129913330078 -10.355799674987793
-2.141429901123047 -3.727269887924194 -10.354100227355957
-3.290889978408814 -3.630140066146851 -10.387800216674805
-4.029890060424805 -3.421129941940308 -10.398799896240234
-2.082969903945923 -3.894079923629761 -10.366999626159668
-2.291889905929565 -3.423130035400391 -10.344799995422363
-3.244889974594116 -4.122129917144775 -10.429800033569336
-3.050889968872070 -3.890130043029785 -10.411800384521484
-2.114969968795776 -3.460540056228638 -10.354299545288086
-4.316889762878418 -3.351130008697510 -10.421799659729004
-2.227890014648438 -3.265130043029785 -10.345800399780273
-2.958889961242676 -3.398139953613281 -10.382800102233887
-3.740890026092529 -3.450139999389648 -10.412799835205078
-2.946890115737915 -3.756139993667603 -10.412799835205078
-2.390889883041382 -2.995140075683594 -10.343799591064453
-3.194890022277832 -3.474139928817749 -10.407799720764160
-3.529890060424805 -3.440140008926392 -10.417799949645996
-2.686889886856079 -3.593130111694336 -10.399800300598145
-3.635890007019043 -3.586139917373657 -10.431799888610840
-3.898890018463135 -3.542129993438721 -10.438799858093262
-2.413889884948731 -3.562129974365234 -10.397800445556641
-3.471889972686768 -3.629129886627197 -10.438799858093262
-4.540890216827393 -3.481139898300171 -10.466799736022949
-3.865890026092529 -3.337130069732666 -10.436800003051758
-2.156889915466309 -2.964139938354492 -10.353799819946289
-1.820889949798584 -3.799129962921143 -10.401800155639648
-3.599889993667603 -3.753129959106445 -10.467800140380859
-3.399889945983887 -4.082139968872070 -10.486800193786621
-3.355890035629273 -3.415139913558960 -10.440799713134766
-2.823889970779419 -3.261130094528198 -10.413800239562988
-3.650890111923218 -3.314140081405640 -10.447799682617187
-4.112889766693115 -3.585139989852905 -10.482799530029297
-2.863889932632446 -3.614130020141602 -10.443799972534180
-3.572890043258667 -4.067130088806152 -10.498800277709961
-1.859889984130859 -3.629129886627197 -10.417799949645996
-4.385890007019043 -3.588129997253418 -10.500800132751465
-3.779890060424805 -3.664129972457886 -10.486800193786621
-2.213890075683594 -3.577130079269409 -10.430800437927246
-2.561889886856079 -3.462130069732666 -10.434800148010254
-4.062890052795410 -3.223129987716675 -10.481800079345703
-3.192889928817749 -3.962130069732666 -10.504799842834473
-3.680890083312988 -3.890130043029785 -10.519800186157227
-1.979889988899231 -3.745140075683594 -10.453800201416016
-1.685889959335327 -3.676140069961548 -10.440799713134766
-3.906889915466309 -3.164129972457886 -10.486800193786621
-2.050889968872070 -3.154129981994629 -10.427800178527832
-3.112890005111694 -3.336139917373657 -10.477800369262695
-2.676889896392822 -3.159130096435547 -10.451800346374512
-2.523890018463135 -3.064140081405640 -10.441800117492676
-3.979890108108521 -3.678129911422730 -10.536800384521484
-1.966889977455139 -3.308140039443970 -10.443799972534180
-3.073889970779419 -3.664129972457886 -10.505800247192383
-2.829890012741089 -3.425129890441895 -10.487799644470215
-2.666889905929565 -3.339139938354492 -10.477800369262695
-2.384890079498291 -3.352129936218262 -10.473799705505371
-2.046890020370483 -3.593130111694336 -10.479800224304199
-3.483890056610107 -4.216129779815674 -10.571800231933594
-3.438889980316162 -3.279129981994629 -10.506799697875977
-2.519890069961548 -3.247129917144775 -10.473799705505371
-4.443890094757080 -3.355129957199097 -10.554800033569336
-2.999890089035034 -3.514130115509033 -10.516799926757812
-4.246890068054199 -3.684129953384399 -10.575799942016602
-4.211890220642090 -3.301140069961548 -10.549799919128418
-2.269890069961548 -3.020139932632446 -10.469799995422363
-2.352890014648438 -3.178129911422730 -10.485799789428711
-3.214890003204346 -3.757129907608032 -10.559800148010254
-3.856889963150024 -3.793129920959473 -10.586799621582031
-2.206890106201172 -3.359129905700684 -10.501799583435059
-2.949889898300171 -3.286129951477051 -10.523799896240234
-3.852890014648438 -4.197140216827393 -10.624799728393555
-3.262890100479126 -3.298130035400391 -10.543800354003906
-3.337889909744263 -3.927129983901978 -10.589799880981445
-3.792890071868897 -4.023139953613281 -10.619799613952637
-3.191890001296997 -3.559129953384399 -10.569800376892090
-3.773890018463135 -3.256139993667603 -10.571800231933594
-3.658890008926392 -4.129129886627197 -10.628800392150879
-4.626890182495117 -3.470129966735840 -10.627799987792969
-4.001890182495117 -4.127140045166016 -10.651800155639648
-3.935889959335327 -3.932130098342896 -10.637800216674805
-4.277890205383301 -4.216129779815674 -10.677800178527832
-4.102890014648438 -3.740129947662354 -10.639800071716309
-2.186889886856079 -3.163130044937134 -10.535799980163574
-4.469890117645264 -3.609129905700684 -10.643799781799316
-4.112889766693115 -4.256140232086182 -10.679800033569336
-2.051889896392822 -3.404129981994629 -10.553799629211426
-3.492889881134033 -3.986129999160767 -10.644800186157227
-2.086889982223511 -3.019140005111694 -10.533800125122070
-3.350889921188355 -3.650130033493042 -10.621800422668457
-3.569890022277832 -3.293129920959473 -10.609800338745117
-3.973890066146851 -3.317130088806152 -10.629799842834473
-3.455889940261841 -3.812129974365234 -10.646800041198730
-1.767889976501465 -3.628129959106445 -10.577799797058105
-1.920889973640442 -3.546129941940308 -10.580800056457520
-4.374889850616455 -4.408140182495117 -10.724800109863281
-3.326889991760254 -3.448129892349243 -10.624799728393555
-4.095890045166016 -3.916130065917969 -10.684800148010254
-4.196889877319336 -4.072140216827393 -10.699799537658691
-1.416489958763123 -3.631150007247925 -10.592200279235840
-4.344890117645264 -3.739130020141602 -10.702799797058105
-4.301889896392822 -3.365129947662354 -10.676799774169922
-4.129889965057373 -3.378129959106445 -10.675800323486328
-3.652889966964722 -3.976130008697510 -10.700799942016602
-3.517889976501465 -3.657130002975464 -10.684800148010254
-1.618450045585632 -3.561579942703247 -10.614500045776367
-1.924890041351318 -3.044140100479126 -10.590800285339355
-3.488889932632446 -3.456130027770996 -10.676799774169922
-2.015889883041382 -3.233129978179932 -10.613800048828125
-4.617889881134033 -3.605129957199097 -10.727800369262695
-3.826889991760254 -3.402139902114868 -10.687800407409668
-3.623889923095703 -3.811140060424805 -10.710800170898437
-4.510890007019043 -3.391139984130859 -10.718799591064453
-3.656889915466309 -3.412139892578125 -10.694800376892090
-4.417890071868897 -4.191130161285400 -10.780799865722656
-1.898890018463135 -3.389130115509033 -10.646800041198730
-3.670890092849731 -3.581130027770996 -10.724800109863281
-4.244890213012695 -3.908139944076538 -10.768799781799316
-3.895889997482300 -4.044139862060547 -10.767800331115723
-3.982889890670776 -3.455130100250244 -10.730799674987793
-3.796890020370483 -3.891139984130859 -10.760800361633301
-1.756890058517456 -3.484129905700684 -10.674799919128418
-4.709889888763428 -3.460139989852905 -10.776800155639648
-4.346889972686768 -4.035130023956299 -10.804800033569336
-4.510890007019043 -3.757129907608032 -10.793800354003906
-3.776890039443970 -3.723129987716675 -10.766799926757813
-3.840889930725098 -3.566129922866821 -10.759799957275391
-4.062890052795410 -4.096139907836914 -10.807800292968750
-4.487889766693115 -4.340129852294922 -10.848799705505371
-1.480990052223206 -3.520610094070435 -10.699500083923340
-1.749310016632080 -3.315779924392700 -10.701399803161621
-3.960890054702759 -3.890130043029785 -10.821800231933594
-3.935889959335327 -3.692130088806152 -10.814800262451172
-1.879889965057373 -3.192130088806152 -10.711799621582031
-4.212890148162842 -3.473129987716675 -10.812800407409668
-4.379889965057373 -3.440140008926392 -10.833800315856934
-4.068890094757080 -3.588129997253418 -10.838800430297852
-4.211890220642090 -4.105130195617676 -10.885800361633301
-4.535890102386475 -4.178130149841309 -10.901800155639648
-4.463890075683594 -3.907130002975464 -10.882800102233887
-4.667890071868897 -3.704139947891235 -10.876799583435059
-1.319239974021912 -3.540810108184815 -10.757300376892090
-1.609889984130859 -3.412139892578125 -10.762800216674805
-4.334889888763428 -4.274129867553711 -10.913800239562988
-4.127890110015869 -3.936140060424805 -10.888799667358398
-4.545889854431152 -3.439140081405640 -10.877799987792969
-4.784890174865723 -3.575139999389648 -10.900799751281738
-4.822889804840088 -3.388139963150024 -10.917799949645996
-4.184889793395996 -3.719130039215088 -10.921799659729004
-4.584889888763428 -4.017129898071289 -10.955800056457520
-1.767889976501465 -3.114130020141602 -10.811800003051758
-4.583889961242676 -4.331130027770996 -10.990799903869629
-4.293889999389648 -3.584130048751831 -10.933799743652344
-4.262889862060547 -3.891139984130859 -10.976799964904785
-1.443889975547791 -3.452130079269409 -10.853799819946289
-4.337890148162842 -4.105130195617676 -10.997799873352051
-1.536149978637695 -3.285490036010742 -10.858499526977539
-4.693890094757080 -3.899130105972290 -11.009799957275391
-4.661890029907227 -4.166130065917969 -11.027799606323242
-1.044890046119690 -3.607130050659180 -10.871800422668457
-1.199460029602051 -3.537569999694824 -10.875800132751465
-4.816889762878418 -3.705130100250244 -11.012800216674805
-4.448890209197998 -3.557130098342896 -10.995800018310547
-4.678890228271484 -3.423130035400391 -10.994799613952637
-4.421889781951904 -4.242139816284180 -11.060799598693848
-4.884890079498291 -3.520139932632446 -11.027799606323242
-4.359889984130859 -3.716130018234253 -11.029800415039063
-1.648890018463135 -3.174129962921143 -10.929800033569336
-4.393889904022217 -3.940140008926392 -11.079799652099609
-4.497889995574951 -4.414130210876465 -11.117799758911133
-4.750889778137207 -4.033140182495117 -11.106800079345703
-4.591889858245850 -3.557130098342896 -11.087800025939941
-1.322890043258667 -3.443140029907227 -10.973799705505371
-4.852890014648438 -3.890130043029785 -11.131799697875977
-4.687890052795410 -4.318140029907227 -11.157799720764160
-1.400889992713928 -3.275130033493042 -10.991800308227539
-4.954889774322510 -3.719130039215088 -11.151800155639648
-4.485889911651611 -4.065139770507813 -11.159799575805664
-4.496890068054199 -3.732130050659180 -11.140800476074219
-0.943886995315552 -3.490129947662354 -11.008799552917480
-4.789889812469482 -4.189139842987061 -11.191800117492676
-4.526889801025391 -4.265130043029785 -11.194800376892090
-4.789889812469482 -3.441129922866821 -11.151800155639648
-4.913889884948731 -4.065139770507813 -11.218799591064453
-4.940889835357666 -3.526139974594116 -11.185799598693848
-1.106889963150024 -3.500129938125610 -11.064800262451172
-1.527889966964722 -3.189140081405640 -11.058799743652344
-4.532889842987061 -3.905139923095703 -11.210800170898437
-4.588890075683594 -4.418129920959473 -11.257800102233887
-4.706890106201172 -3.574130058288574 -11.213800430297852
-4.981890201568604 -3.905139923095703 -11.245800018310547
-4.610889911651611 -4.128129959106445 -11.273799896240234
-5.033889770507813 -4.394139766693115 -11.307800292968750
-5.370890140533447 -4.452129840850830 -11.324799537658691
-5.200890064239502 -4.425129890441895 -11.317799568176270
-4.644889831542969 -3.731139898300171 -11.254799842834473
-4.962890148162842 -4.207139968872070 -11.298800468444824
-4.863890171051025 -4.350130081176758 -11.312800407409668
-1.227890014648438 -3.390130043029785 -11.126799583435059
-5.023890018463135 -3.633130073547363 -11.288800239562988
-4.714890003204346 -4.263140201568604 -11.324799537658691
-5.058889865875244 -4.039130210876465 -11.321800231933594
-0.884889006614685 -3.561140060424805 -11.159799575805664
-1.388890027999878 -3.250129938125610 -11.158800125122070
-5.126890182495117 -4.257130146026611 -11.359800338745117
-4.658889770507813 -3.895139932632446 -11.320799827575684
-1.001889944076538 -3.402139902114868 -11.181799888610840
-5.129889965057373 -3.893130064010620 -11.372799873352051
-4.744890213012695 -4.078139781951904 -11.376799583435059
-4.928890228271484 -3.514130115509033 -11.362799644470215
-5.286890029907227 -4.325139999389648 -11.430800437927246
-5.483890056610107 -4.474140167236328 -11.454799652099609
-4.775889873504639 -3.654129981994629 -11.378800392150879
-5.183889865875244 -4.094130039215088 -11.426799774169922
-5.121890068054199 -3.709130048751831 -11.400799751281738
-4.881889820098877 -4.155139923095703 -11.438799858093262
-5.440889835357666 -4.285130023956299 -11.485799789428711
-1.227890014648438 -3.267129898071289 -11.274800300598145
-4.793889999389648 -3.912139892578125 -11.439800262451172
-0.994889974594116 -3.529129981994629 -11.304800033569336
-1.122889995574951 -3.394140005111694 -11.309800148010254
-5.038889884948731 -4.148139953613281 -11.501799583435059
-5.341889858245850 -4.139130115509033 -11.512800216674805
-5.242889881134033 -3.938129901885986 -11.502799987792969
-0.788888990879059 -3.477129936218262 -11.325799942016602
-4.923890113830566 -4.003129959106445 -11.519800186157227
-0.646889984607697 -3.565140008926392 -11.356800079345703
-4.872889995574951 -3.705130100250244 -11.517800331115723
-5.032889842987061 -3.616130113601685 -11.520799636840820
-5.471889972686768 -4.565139770507813 -11.601799964904785
-5.547890186309815 -4.362130165100098 -11.595800399780273
-5.200890064239502 -3.772130012512207 -11.547800064086914
-0.854889988899231 -3.618129968643189 -11.409799575805664
-5.147890090942383 -4.055130004882813 -11.587800025939941
-5.490890026092529 -4.183139801025391 -11.612799644470215
-5.376890182495117 -3.930130004882813 -11.616800308227539
-5.055890083312988 -3.917129993438721 -11.630800247192383
-0.896889984607697 -3.401139974594116 -11.455800056457520
-1.064890027046204 -3.420130014419556 -11.468799591064453
-0.703889012336731 -3.669140100479126 -11.484800338745117
-4.977890014648438 -3.758130073547363 -11.655799865722656
-5.128890037536621 -3.669140100479126 -11.658800125122070
-5.359889984130859 -4.100130081176758 -11.696800231933594
-0.548891007900238 -3.610140085220337 -11.501799583435059
-5.566889762878418 -4.501130104064941 -11.736800193786621
-5.606890201568604 -4.267129898071289 -11.723799705505371
-5.315889835357666 -3.791130065917969 -11.687800407409668
-5.238890171051025 -3.971139907836914 -11.703800201416016
-0.759889006614685 -3.496129989624023 -11.532799720764160
-5.493889808654785 -3.982130050659180 -11.732799530029297
-0.954888999462128 -3.526139974594116 -11.552800178527832
-5.469890117645264 -4.656129837036133 -11.800800323486328
-5.144889831542969 -3.826129913330078 -11.743800163269043
-5.459889888763428 -4.192130088806152 -11.797800064086914
-0.802887976169586 -3.645139932632446 -11.620800018310547
-5.634890079498291 -4.418129920959473 -11.866800308227539
-0.637888014316559 -3.612129926681519 -11.643799781799316
-5.586890220642090 -4.075139999389648 -11.842800140380859
-5.332890033721924 -3.895139932632446 -11.836799621582031
-5.675889968872070 -4.233129978179932 -11.875800132751465
-5.571889877319336 -3.901139974594116 -11.862799644470215
-5.278890132904053 -3.719130039215088 -11.841799736022949
-5.553890228271484 -4.581130027770996 -11.924799919128418
-5.422890186309815 -4.027140140533447 -11.888799667358398
-0.501890003681183 -3.686140060424805 -11.709799766540527
-5.505889892578125 -4.293129920959473 -11.941800117492676
-5.697889804840088 -3.986129999160767 -11.932800292968750
-0.711889028549194 -3.721139907836914 -11.746800422668457
-0.373887985944748 -3.796129941940308 -11.752799987792969
-5.740890026092529 -4.341129779815674 -11.988800048828125
-5.780889987945557 -4.157129764556885 -11.982799530029297
-5.415890216827393 -3.760129928588867 -11.958800315856934
-5.674890041351318 -4.505139827728272 -12.024800300598145
-5.578889846801758 -3.785130023956299 -11.984800338745117
-0.576891005039215 -3.807130098342896 -11.817799568176270
-5.493889808654785 -3.938129901885986 -12.017800331115723
-5.839890003204346 -3.947139978408814 -12.033800125122070
-5.561890125274658 -4.627140045166016 -12.093799591064453
-5.788889884948731 -3.777139902114868 -12.064800262451172
-5.555890083312988 -4.273139953613281 -12.101799964904785
-0.376890003681183 -3.895139932632446 -11.906800270080566
-5.890890121459961 -4.098130226135254 -12.110799789428711
-5.567890167236328 -4.072140216827393 -12.099800109863281
-5.795889854431152 -4.419139862060547 -12.131799697875977
-5.879889965057373 -4.273139953613281 -12.136799812316895
-5.549890041351318 -4.439139842987061 -12.144800186157227
-5.616889953613281 -3.891139984130859 -12.120800018310547
-5.971889972686768 -3.903130054473877 -12.135800361633301
-5.643889904022217 -4.576129913330078 -12.238800048828125
-0.245888993144035 -3.907130002975464 -12.012800216674805
-6.049890041351318 -4.066130161285400 -12.228799819946289
-6.069890022277832 -3.715130090713501 -12.207799911499023
-5.912889957427979 -4.402140140533447 -12.251799583435059
-5.900889873504639 -3.757129907608032 -12.208800315856934
-6.139890193939209 -3.910130023956299 -12.228799819946289
-5.637889862060547 -4.157129764556885 -12.229800224304199
-5.615890026092529 -4.322140216827393 -12.257800102233887
-5.986889839172363 -4.228139877319336 -12.264800071716309
-5.717889785766602 -3.988140106201172 -12.247799873352051
-5.794889926910400 -4.510129928588867 -12.306799888610840
-6.299890041351318 -3.893130064010620 -12.291799545288086
-6.214890003204346 -4.051139831542969 -12.309800148010254
-5.856890201568604 -3.904129981994629 -12.302800178527832
-6.053890228271484 -4.361130237579346 -12.350799560546875
-6.182889938354492 -3.769140005111694 -12.317799568176270
-6.480889797210693 -3.970129966735840 -12.359800338745117
-5.733890056610107 -4.215129852294922 -12.365799903869629
-6.367889881134033 -4.117139816284180 -12.387800216674805
-6.112889766693115 -4.183139801025391 -12.387800216674805
-5.691889762878418 -4.394139766693115 -12.389800071716309
-5.816889762878418 -4.068140029907227 -12.384799957275391
-5.974890232086182 -4.492139816284180 -12.420800209045410
-6.006889820098877 -3.905139923095703 -12.391799926757813
-5.709889888763428 -4.645140171051025 -12.435799598693848
-6.631889820098877 -4.032129764556885 -12.438799858093262
-6.506889820098877 -4.172140121459961 -12.480799674987793
-6.335889816284180 -3.892129898071289 -12.456800460815430
-6.177889823913574 -4.354129791259766 -12.487799644470215
-6.162889957427979 -3.918129920959473 -12.463800430297852
-5.870890140533447 -4.614130020141602 -12.507800102233887
-6.256889820098877 -4.195129871368408 -12.493800163269043
-6.108890056610107 -4.530139923095703 -12.512800216674805
-5.850890159606934 -4.247129917144775 -12.486800193786621
-5.975890159606934 -4.049129962921143 -12.487799644470215
-5.791890144348145 -4.460140228271484 -12.515800476074219
-6.729889869689941 -4.136129856109619 -12.534799575805664
-6.492889881134033 -3.967139959335327 -12.540800094604492
-6.063889980316162 -4.686140060424805 -12.589799880981445
-5.927889823913574 -4.367139816284180 -12.580800056457520
-6.398890018463135 -4.239130020141602 -12.590800285339355
-5.996890068054199 -4.190139770507813 -12.575799942016602
-6.218890190124512 -4.612130165100098 -12.617799758911133
-6.112889766693115 -4.067130088806152 -12.581800460815430
-6.298890113830566 -4.415140151977539 -12.620800018310547
-6.294889926910400 -3.998140096664429 -12.592800140380859
-6.183889865875244 -4.785130023956299 -12.655799865722656
-6.634890079498291 -4.008130073547363 -12.618800163269043
-5.968890190124512 -4.525129795074463 -12.635800361633301
-6.624889850616455 -4.202129840850830 -12.646800041198730
-6.068890094757080 -4.308139801025391 -12.669799804687500
-6.789889812469482 -4.042129993438721 -12.685799598693848
-6.329889774322510 -4.707139968872070 -12.715800285339355
-6.110889911651611 -4.486130237579346 -12.720800399780273
-6.414889812469482 -4.040140151977539 -12.704799652099609
-6.245890140533447 -4.112130165100098 -12.705800056457520
-6.410890102386475 -4.425129890441895 -12.745800018310547
-6.482890129089356 -4.272130012512207 -12.741800308227539
-6.432889938354492 -4.594130039215088 -12.782799720764160
-6.203889846801758 -4.331130027770996 -12.772800445556641
-6.266890048980713 -4.493130207061768 -12.796799659729004
-6.564889907836914 -4.028130054473877 -12.776800155639648
-6.712890148162842 -4.154129981994629 -12.802800178527832
-6.325890064239502 -4.220129966735840 -12.842800140380859
-6.510890007019043 -4.480130195617676 -12.876799583435059
-6.858890056610107 -4.001130104064941 -12.856800079345703
-6.581890106201172 -4.279129981994629 -12.878800392150879
-6.460889816284180 -4.125130176544190 -12.870800018310547
-6.666890144348145 -4.601130008697510 -12.923800468444824
-6.692890167236328 -4.010129928588867 -12.897800445556641
-6.823890209197998 -4.518129825592041 -12.948800086975098
-6.382890224456787 -4.373139858245850 -12.926799774169922
-6.946889877319336 -4.379129886627197 -12.969799995422363
-6.640890121459961 -4.423130035400391 -12.973799705505371
-6.701889991760254 -4.235139846801758 -12.987799644470215
-6.803890228271484 -4.095129966735840 -12.988800048828125
-6.585889816284180 -4.109129905700684 -12.987799644470215
-6.484889984130859 -4.312129974365234 -13.052800178527832
-6.780889987945557 -4.373139858245850 -13.068799972534180
-6.937890052795410 -4.358129978179932 -13.151800155639648
-6.588890075683594 -4.241129875183106 -13.162799835205078
-6.869890213012695 -4.028130054473877 -13.159799575805664
-6.557889938354492 -4.407129764556885 -13.175800323486328
-6.698890209197998 -4.510129928588867 -13.229800224304199
-6.735889911651611 -4.113140106201172 -13.216799736022949
-6.839890003204346 -4.244130134582520 -13.232799530029297
-6.763889789581299 -4.643129825592041 -13.313799858093262
-6.936890125274658 -4.122129917144775 -13.297800064086914
-6.640890121459961 -4.326129913330078 -13.302800178527832
-7.086890220642090 -4.049129962921143 -13.326800346374512
-6.711890220642090 -4.506140232086182 -13.397800445556641
-6.744890213012695 -4.300129890441895 -13.438799858093262
-7.179890155792236 -4.082139968872070 -13.479800224304199
-6.885890007019043 -4.220129966735840 -13.484800338745117
-7.017889976501465 -4.123139858245850 -13.529800415039063
-6.947889804840088 -4.227129936218262 -13.644800186157227
-7.120890140533447 -4.063129901885986 -13.655799865722656
-6.838890075683594 -4.350130081176758 -13.686800003051758
-7.025889873504639 -4.136129856109619 -13.776800155639648
-6.911890029907227 -4.265130043029785 -13.814800262451172
-6.835889816284180 -4.475130081176758 -13.843799591064453
-6.824890136718750 -4.646130084991455 -13.888799667358398
