ply
format ascii 1.0
element vertex 755
property double x
property double y
property double z
end_header
-1.848889946937561 -2.133130073547363 -3.464799880981445
-1.848889946937561 -2.133130073547363 -3.464799880981445
-1.998890042304993 -2.199130058288574 -3.518800020217896
-1.654889941215515 -2.002140045166016 -3.518800020217896
-1.831889986991882 -1.928130030632019 -3.529799938201904
-1.501889944076538 -1.933140039443970 -3.526799917221069
-2.339890003204346 -2.448129892349243 -3.603800058364868
-2.179889917373657 -2.310129880905151 -3.592799901962280
-1.979889988899231 -2.037139892578125 -3.575799942016602
-1.611889958381653 -1.798130035400391 -3.563800096511841
-1.409890055656433 -1.766139984130859 -3.560800075531006
-2.411890029907227 -2.595129966735840 -3.656800031661987
-1.176890015602112 -1.693140029907227 -3.563800096511841
-0.983887970447540 -1.698130011558533 -3.560800075531006
-1.746889948844910 -2.110140085220337 -3.638799905776978
-1.276890039443970 -1.873139977455139 -3.607800006866455
-2.101890087127686 -2.160130023956299 -3.658799886703491
-1.762889981269836 -1.751129984855652 -3.622800111770630
-0.718888998031616 -1.527140021324158 -3.580800056457520
-1.922889947891235 -1.846140027046204 -3.645800113677979
-1.349889993667603 -1.613139986991882 -3.616800069808960
-1.590890049934387 -2.032130002975464 -3.675800085067749
-1.896890044212341 -2.164129972457886 -3.695800065994263
-0.808888971805573 -1.689139962196350 -3.633800029754639
-1.091889977455139 -1.542129993438721 -3.633800029754639
-2.229890108108521 -2.387140035629273 -3.732800006866455
-1.418889999389648 -1.957139968872070 -3.676800012588501
-2.515889883041382 -2.694129943847656 -3.765799999237061
-0.854889988899231 -1.450139999389648 -3.642800092697144
-0.524888992309570 -1.601130008697510 -3.663800001144409
-1.494889974594116 -1.559129953384399 -3.697799921035767
-2.108890056610107 -2.022130012512207 -3.762799978256226
-1.663890004158020 -1.596140027046204 -3.722800016403198
-1.875890016555786 -1.696140050888062 -3.736799955368042
-0.618889987468719 -1.433140039443970 -3.676800012588501
-0.385888993740082 -1.504130005836487 -3.680799961090088
0.122111000120640 -1.759140014648438 -3.686800003051758
-2.497889995574951 -2.509140014648438 -3.828799962997437
-2.403889894485474 -2.371129989624023 -3.819799900054932
-2.641890048980713 -2.765130043029785 -3.854799985885620
-1.296890020370483 -1.484130024909973 -3.728800058364868
-0.379887998104095 -1.689139962196350 -3.714799880981445
-0.667890012264252 -1.682129979133606 -3.729799985885620
-2.212889909744263 -2.242140054702759 -3.820800065994263
-1.011890053749085 -1.436139941215515 -3.735800027847290
-0.228887006640434 -1.608129978179932 -3.725800037384033
-2.003890037536621 -2.184129953384399 -3.831799983978272
-2.040889978408814 -1.817129969596863 -3.822799921035767
0.206110000610352 -1.585139989852905 -3.732800006866455
-1.757889986038208 -2.055130004882813 -3.839799880981445
-2.517889976501465 -2.905139923095703 -3.930799961090088
-0.073888398706913 -1.500130057334900 -3.774800062179565
-1.594889998435974 -1.490129947662354 -3.831799983978272
-2.738889932632446 -2.667129993438721 -3.950799942016602
-0.969887971878052 -1.787140011787415 -3.832799911499023
-1.528890013694763 -1.931130051612854 -3.863800048828125
-2.629889965057373 -2.522130012512207 -3.943799972534180
-0.777886986732483 -1.781129956245422 -3.830800056457520
-0.497887998819351 -1.765130043029785 -3.821799993515015
-1.800889968872070 -1.552129983901978 -3.857800006866455
-1.303889989852905 -1.852130055427551 -3.865799903869629
-1.191890001296997 -1.393129944801331 -3.830800056457520
-0.339886993169785 -1.851130008697510 -3.834800004959106
-0.878889024257660 -1.373139977455139 -3.820800065994263
-1.422889947891235 -1.420130014419556 -3.843800067901611
-4.082890033721924 -2.771130084991455 -4.028800010681152
0.051111601293087 -1.818140029907227 -3.827800035476685
-2.474889993667603 -2.696140050888062 -3.975800037384033
-2.224889993667603 -2.117140054702759 -3.930799961090088
0.055109400302172 -1.642130017280579 -3.821799993515015
-2.826889991760254 -2.804140090942383 -4.000800132751465
-0.097890503704548 -1.912140011787415 -3.847800016403198
-2.306890010833740 -2.296129941940308 -3.953799962997437
-2.595890045166016 -2.360140085220337 -3.974800109863281
-3.937890052795410 -2.551140069961548 -4.042799949645996
-1.906890034675598 -2.059129953384399 -3.942800045013428
-2.004889965057373 -1.678130030632019 -3.920799970626831
-1.154889941215515 -1.775130033493042 -3.898799896240234
-2.464890003204346 -2.224139928817749 -3.976799964904785
-0.705887973308563 -1.388139963150024 -3.869800090789795
-2.637890100479126 -2.975130081176758 -4.045800209045410
-0.381886988878250 -1.475129961967468 -3.867799997329712
-2.163889884948731 -1.907130002975464 -3.957799911499023
-0.217888996005058 -1.515130043029785 -3.866800069808960
-2.427890062332153 -2.412139892578125 -4.014800071716309
-0.119889996945858 -1.675130009651184 -3.888799905776978
-3.788889884948731 -2.359129905700684 -4.059800148010254
-1.658890008926392 -1.966130018234253 -3.963799953460693
-2.064889907836914 -2.128129959106445 -3.989799976348877
-0.543889999389648 -1.441130042076111 -3.891799926757813
-3.911890029907227 -2.739130020141602 -4.094799995422363
-2.805890083312988 -2.963129997253418 -4.074800014495850
-0.643887996673584 -1.886129975318909 -3.931799888610840
-2.764889955520630 -2.442130088806152 -4.041800022125244
-0.474889010190964 -1.897130012512207 -3.927799940109253
-2.860889911651611 -2.585139989852905 -4.055799961090088
-3.767889976501465 -2.632129907608032 -4.092800140380859
-3.642889976501465 -2.501130104064941 -4.089799880981445
-2.563889980316162 -2.818140029907227 -4.075799942016602
-0.836889028549194 -1.877140045166016 -3.954799890518189
-1.030889987945557 -1.402140021324158 -3.931799888610840
-1.028890013694763 -1.872130036354065 -3.969799995422363
-3.513890027999878 -2.387140035629273 -4.097799777984619
-1.393890023231506 -1.922140002250671 -3.995800018310547
-0.220888003706932 -1.866129994392395 -3.954799890518189
-4.139890193939209 -2.866130113601685 -4.155799865722656
-2.704890012741089 -2.282130002975464 -4.074800014495850
-0.324887990951538 -1.630139946937561 -3.950799942016602
-1.730890035629273 -1.475129961967468 -3.993799924850464
-1.898890018463135 -1.543130040168762 -4.004799842834473
-2.347889900207520 -2.104130029678345 -4.058800220489502
-1.532889962196350 -1.417129993438721 -3.984800100326538
-1.257889986038208 -1.401139974594116 -3.987799882888794
-1.200889945030212 -1.895140051841736 -4.019800186157227
-3.639889955520630 -2.280139923095703 -4.130799770355225
-2.128890037536621 -1.713129997253418 -4.041800022125244
-3.354890108108521 -2.308140039443970 -4.126800060272217
-2.974889993667603 -2.717139959335327 -4.141799926757813
-4.183889865875244 -2.688129901885986 -4.180799961090088
-2.520889997482300 -2.532130002975464 -4.114799976348877
-2.543889999389648 -2.108129978179932 -4.087800025939941
-3.526890039443970 -2.616130113601685 -4.156799793243408
-4.041890144348145 -2.557130098342896 -4.175799846649170
-2.944890022277832 -2.977129936218262 -4.167799949645996
-2.922889947891235 -2.403130054473877 -4.132800102233887
-2.865890026092529 -2.242140054702759 -4.121799945831299
-3.386889934539795 -2.517129898071289 -4.159800052642822
-3.907890081405640 -2.432130098342896 -4.174799919128418
-3.954890012741089 -2.888139963150024 -4.209799766540527
-3.790889978408814 -2.807130098342896 -4.198800086975098
-3.229890108108521 -2.453140020370483 -4.156799793243408
-4.301889896392822 -2.798130035400391 -4.225800037384033
-2.187890052795410 -2.039129972457886 -4.105800151824951
-0.753889024257660 -1.479130029678345 -4.021800041198731
-3.078890085220337 -2.339139938354492 -4.159800052642822
-2.251889944076538 -1.825139999389648 -4.098800182342529
-3.635890007019043 -2.746129989624023 -4.208799839019775
-2.740890026092529 -2.108129978179932 -4.135799884796143
-0.471886992454529 -1.691130042076111 -4.030799865722656
-3.090889930725098 -2.596139907836914 -4.182799816131592
-1.839890003204346 -2.044140100479126 -4.104800224304199
-0.731889009475708 -1.972129940986633 -4.064799785614014
-3.052890062332153 -2.132129907608032 -4.156799793243408
-0.627888977527618 -1.607130050659180 -4.043799877166748
-3.221889972686768 -2.171129941940308 -4.175799846649170
-2.621890068054199 -2.669140100479126 -4.191800117492676
-0.927887976169586 -1.467139959335327 -4.053800106048584
-2.016890048980713 -2.026139974594116 -4.139800071716309
-2.558890104293823 -2.385129928588867 -4.184800148010254
-3.270889997482300 -2.677129983901978 -4.230800151824951
-0.534887015819550 -1.883129954338074 -4.084799766540527
-3.146889925003052 -2.799129962921143 -4.241799831390381
-0.889890015125275 -2.019140005111694 -4.122799873352051
-2.915889978408814 -2.027139902114868 -4.192800045013428
-3.048890113830566 -3.071140050888062 -4.271800041198731
-1.515890002250671 -1.935130000114441 -4.143799781799316
-1.396890044212341 -1.456130027770996 -4.108799934387207
-4.064889907836914 -2.982130050659180 -4.304800033569336
-3.444890022277832 -2.210139989852905 -4.234799861907959
-0.653890013694763 -1.759140014648438 -4.112800121307373
-3.475889921188355 -2.788130044937134 -4.278800010681152
-1.696889996528626 -1.959130048751831 -4.163799762725830
-0.809888005256653 -1.655140042304993 -4.113800048828125
-2.417890071868897 -2.024130105972290 -4.194799900054932
-3.784889936447144 -2.361129999160767 -4.265799999237061
-2.732889890670776 -2.829139947891235 -4.262800216674805
-2.001889944076538 -1.596140027046204 -4.155799865722656
-1.132889986038208 -1.516139984130859 -4.123799800872803
-1.796890020370483 -1.546129941940308 -4.153800010681152
-2.391890048980713 -1.843129992485046 -4.200799942016602
-3.231889963150024 -3.004129886627197 -4.309800148010254
-2.697890043258667 -2.489130020141602 -4.256800174713135
-1.574890017509460 -1.506139993667603 -4.152800083160400
-2.903889894485474 -3.156130075454712 -4.316800117492676
-1.000890016555786 -1.638139963150024 -4.152800083160400
-4.256889820098877 -2.669140100479126 -4.336800098419190
-2.814889907836914 -3.008130073547363 -4.312799930572510
-0.829888999462128 -1.840129971504211 -4.171800136566162
-2.785890102386475 -2.635129928588867 -4.297800064086914
-2.655889987945557 -2.211139917373657 -4.265799999237061
-3.584889888763428 -2.287139892578125 -4.304800033569336
-4.075890064239502 -2.549129962921143 -4.340799808502197
-3.643889904022217 -2.898139953613281 -4.351799964904785
-1.282889962196350 -1.588129997253418 -4.183800220489502
-1.166890025138855 -1.917129993438721 -4.203800201416016
-2.664890050888062 -2.021130084991455 -4.261799812316895
-4.380889892578125 -2.786129951477051 -4.376800060272217
-3.933890104293823 -2.461139917373657 -4.339799880981445
-2.096889972686768 -1.726130008697510 -4.230800151824951
-1.342890024185181 -1.958130002021790 -4.222799777984619
-3.121890068054199 -2.128129959106445 -4.309800148010254
-2.191890001296997 -1.861129999160767 -4.261799812316895
-2.792890071868897 -2.340130090713501 -4.314799785614014
-1.179890036582947 -1.719130039215088 -4.220799922943115
-1.658890008926392 -1.653130054473877 -4.234799861907959
-1.856889963150024 -1.726130008697510 -4.247799873352051
-1.014889955520630 -1.850129961967468 -4.227799892425537
-2.806890010833740 -2.119129896163940 -4.307799816131592
-4.210889816284180 -2.990129947662354 -4.414800167083740
-3.274889945983887 -2.203140020370483 -4.330800056457520
-3.406889915466309 -2.959130048751831 -4.387800216674805
-3.336889982223511 -3.116130113601685 -4.404799938201904
-3.145889997482300 -3.187129974365234 -4.403800010681152
-1.821889996528626 -1.979130029678345 -4.278800010681152
-1.478889942169190 -1.688130021095276 -4.256800174713135
-2.888890027999878 -2.798130035400391 -4.381800174713135
-3.946890115737915 -3.033139944076538 -4.436800003051758
-2.962889909744263 -2.175129890441895 -4.346799850463867
-2.899889945983887 -2.461139917373657 -4.366799831390381
-1.975890040397644 -1.883129954338074 -4.297800064086914
-3.787889957427979 -2.979130029678345 -4.442800045013428
-1.549890041351318 -2.027139902114868 -4.303800106048584
-2.989890098571777 -3.253129959106445 -4.437799930572510
-1.348889946937561 -1.802129983901978 -4.284800052642822
-1.687890052795410 -1.825139999389648 -4.308800220489502
-3.724889993667603 -2.406130075454712 -4.417799949645996
-3.404890060424805 -2.333129882812500 -4.405799865722656
-2.944890022277832 -2.958129882812500 -4.432799816131592
-3.048890113830566 -2.336139917373657 -4.394800186157227
-1.515890002250671 -1.853139996528626 -4.313799858093262
-2.981889963150024 -2.646130084991455 -4.422800064086914
-3.504889965057373 -3.088129997253418 -4.471799850463867
-3.221889972686768 -2.337130069732666 -4.425799846649170
-4.095890045166016 -3.088129997253418 -4.506800174713135
-4.355889797210693 -2.972130060195923 -4.512800216674805
-3.283890008926392 -3.285130023956299 -4.501800060272217
-3.109889984130859 -2.519140005111694 -4.452799797058106
-3.549890041351318 -2.418129920959473 -4.467800140380859
-4.442890167236328 -2.808140039443970 -4.532800197601318
-3.458889961242676 -3.256139993667603 -4.536799907684326
-3.643889904022217 -3.007129907608032 -4.532800197601318
-3.270889997482300 -2.487129926681519 -4.486800193786621
-3.999890089035034 -2.565140008926392 -4.519800186157227
-4.161890029907227 -2.612129926681519 -4.530799865722656
-3.106889963150024 -3.426140069961548 -4.556799888610840
-3.080889940261841 -3.087130069732666 -4.534800052642822
-4.306890010833740 -2.697139978408814 -4.549799919128418
-3.816890001296997 -2.540139913558960 -4.532800197601318
-3.137890100479126 -2.800129890441895 -4.529799938201904
-3.276890039443970 -3.450139999389648 -4.593800067901611
-3.129889965057373 -3.248140096664429 -4.575799942016602
-3.227890014648438 -2.640130043029785 -4.537799835205078
-4.232890129089356 -3.112129926681519 -4.607800006866455
-3.673890113830566 -3.195130109786987 -4.599800109863281
-3.428889989852905 -2.533139944076538 -4.546800136566162
-3.969890117645264 -3.139130115509033 -4.609799861907959
-3.596889972686768 -3.372129917144775 -4.613800048828125
-3.633889913558960 -2.538130044937134 -4.567800045013428
-3.190890073776245 -2.968130111694336 -4.583799839019775
-3.442889928817749 -3.493129968643189 -4.629799842834473
-3.790889978408814 -3.077130079269409 -4.617800235748291
-3.381890058517456 -2.713129997253418 -4.612800121307373
-3.259890079498291 -3.154129981994629 -4.643799781799316
-4.458889961242676 -3.029129981994629 -4.683800220489502
-3.768889904022217 -3.445130109786987 -4.695799827575684
-3.846889972686768 -3.258130073547363 -4.689799785614014
-4.497889995574951 -2.854130029678345 -4.685800075531006
-3.917890071868897 -2.644140005111694 -4.652800083160400
-3.574889898300171 -2.687129974365234 -4.650800228118897
-3.367889881134033 -2.962130069732666 -4.662799835205078
-3.333889961242676 -3.326129913330078 -4.689799785614014
-3.530889987945557 -3.610140085220337 -4.726799964904785
-4.044889926910400 -3.889130115509033 -4.767799854278565
-3.746890068054199 -2.677129983901978 -4.676799774169922
-3.907890081405640 -3.566129922866821 -4.752799987792969
-3.489890098571777 -2.840130090713501 -4.694799900054932
-4.297890186309815 -3.214139938354492 -4.751800060272217
-3.976890087127686 -3.733129978179932 -4.779799938201904
-3.440890073776245 -3.169140100479126 -4.724800109863281
-4.011889934539795 -3.218130111694336 -4.759799957275391
-4.095890045166016 -4.044139862060547 -4.820799827575684
-3.513890027999878 -3.000129938125610 -4.735799789428711
-3.494889974594116 -3.370140075683594 -4.761799812316895
-3.653889894485474 -2.822139978408814 -4.737800121307373
-3.798890113830566 -3.728140115737915 -4.809800148010254
-3.986890077590942 -3.391139984130859 -4.794799804687500
-4.247889995574951 -2.734129905700684 -4.764800071716309
-4.577889919281006 -3.044140100479126 -4.803800106048584
-4.029890060424805 -2.736129999160767 -4.777800083160400
-3.656889915466309 -3.509140014648438 -4.822800159454346
-3.590889930725098 -3.230129957199097 -4.804800033569336
-4.453889846801758 -3.186140060424805 -4.835800170898438
-4.151889801025391 -3.710139989852905 -4.868800163269043
-3.836889982223511 -2.825139999389648 -4.798799991607666
-4.106890201568604 -3.534130096435547 -4.857800006866455
-4.157889842987061 -3.271130084991455 -4.848800182342529
-4.420889854431152 -2.805130004882813 -4.829800128936768
-3.689889907836914 -3.010129928588867 -4.820799827575684
-3.803889989852905 -3.562129974365234 -4.896800041198731
-4.178890228271484 -3.906130075454712 -4.933800220489502
-4.569890022277832 -2.876130104064941 -4.877799987792969
-3.696890115737915 -3.335139989852905 -4.879799842834473
-4.333889961242676 -3.314140081405640 -4.904799938201904
-3.856889963150024 -2.975130081176758 -4.890799999237061
-3.771889925003052 -3.188129901885986 -4.906799793243408
-4.602890014648438 -3.199130058288574 -4.938799858093262
-4.159890174865723 -4.076129913330078 -4.989799976348877
-4.264890193939209 -2.821140050888062 -4.912799835205078
-4.239890098571777 -3.605129957199097 -4.966800212860107
-4.084889888763428 -2.858129978179932 -4.915800094604492
-4.660890102386475 -3.041130065917969 -4.948800086975098
-3.842890024185181 -3.382129907608032 -4.961800098419190
-4.034890174865723 -3.962130069732666 -5.019800186157227
-3.928889989852905 -3.611129999160767 -4.997799873352051
-4.494890213012695 -3.337130069732666 -4.999800205230713
-4.296889781951904 -3.760129928588867 -5.039800167083740
-3.911890029907227 -3.226130008697510 -4.994800090789795
-3.988889932632446 -3.031130075454712 -4.985799789428711
-4.436890125274658 -2.868129968643189 -4.992800235748291
-4.248889923095703 -3.934129953384399 -5.082799911499023
-4.335889816284180 -3.428129911422730 -5.058800220489502
-4.019889831542969 -3.787139892578125 -5.076799869537354
-4.686890125274658 -2.899130105972290 -5.048799991607666
-4.145890235900879 -2.993129968643189 -5.046800136566162
-3.965889930725098 -3.442130088806152 -5.077799797058106
-4.781889915466309 -3.042129993438721 -5.079800128936768
-4.730889797210693 -3.232130050659180 -5.104800224304199
-4.066889762878418 -3.172139883041382 -5.085800170898438
-4.631889820098877 -3.372129917144775 -5.129799842834473
-4.398890018463135 -3.644140005111694 -5.141799926757813
-4.208889961242676 -4.069129943847656 -5.174799919128418
-4.037889957427979 -3.612129926681519 -5.160799980163574
-4.476890087127686 -3.476130008697510 -5.166800022125244
-4.433889865875244 -2.960139989852905 -5.133800029754639
-4.075890064239502 -3.922139883041382 -5.197800159454346
-4.270890235900879 -3.060129880905151 -5.146800041198731
-4.891890048980713 -3.178129911422730 -5.182799816131592
-4.903890132904053 -2.983129978179932 -5.181799888610840
-4.358890056610107 -3.890130043029785 -5.232800006866455
-4.080890178680420 -3.388139963150024 -5.189799785614014
-4.598889827728272 -2.965130090713501 -5.193799972534180
-4.742889881134033 -3.451129913330078 -5.232800006866455
-4.182889938354492 -3.220129966735840 -5.200799942016602
-5.067890167236328 -3.053129911422730 -5.225800037384033
-4.880889892578125 -3.346139907836914 -5.250800132751465
-4.507890224456787 -3.718130111694336 -5.285799980163574
-4.118889808654785 -3.753129959106445 -5.282800197601318
-5.039889812469482 -3.283139944076538 -5.287799835205078
-4.608890056610107 -3.553129911422730 -5.294799804687500
-4.746890068054199 -2.996129989624023 -5.265799999237061
-5.177889823913574 -3.160130023956299 -5.302800178527832
-4.464890003204346 -3.072139978408814 -5.276800155639648
-4.294889926910400 -4.016139984130859 -5.338799953460693
-4.331890106201172 -3.180130004882813 -5.292799949645996
-4.247889995574951 -3.345129966735840 -5.323800086975098
-4.154890060424805 -3.907130002975464 -5.362800121307373
-4.887889862060547 -3.516139984130859 -5.366799831390381
-4.210889816284180 -4.190139770507813 -5.391799926757813
-4.151889801025391 -3.505140066146851 -5.343800067901611
-5.226890087127686 -3.336139917373657 -5.368800163269043
-4.441889762878418 -3.936140060424805 -5.396800041198731
-4.918889999389648 -3.057130098342896 -5.363800048828125
-5.092889785766602 -3.463129997253418 -5.399799823760986
-4.612889766693115 -3.764130115509033 -5.410799980163574
-4.627890110015869 -3.073129892349243 -5.366799831390381
-4.730889797210693 -3.620140075683594 -5.420800209045410
-5.303890228271484 -3.192130088806152 -5.412799835205078
-4.199890136718750 -3.677129983901978 -5.410799980163574
-4.467889785766602 -3.206130027770996 -5.397799968719482
-5.410890102386475 -3.445130109786987 -5.448800086975098
-5.242889881134033 -3.509140014648438 -5.457799911499023
-5.076889991760254 -3.112129926681519 -5.429800033569336
-5.002890110015869 -3.595129966735840 -5.477799892425537
-5.498889923095703 -3.593130111694336 -5.496799945831299
-4.391890048980713 -3.356139898300171 -5.443799972534180
-4.339890003204346 -4.112130165100098 -5.496799945831299
-5.435890197753906 -3.278130054473877 -5.478799819946289
-4.302889823913574 -3.497129917144775 -5.467800140380859
-4.784890174865723 -3.112129926681519 -5.467800140380859
-4.600890159606934 -3.901139974594116 -5.516799926757813
-4.279449939727783 -3.894789934158325 -5.507190227508545
-4.853889942169190 -3.670130014419556 -5.522799968719482
-5.581890106201172 -3.729130029678345 -5.555799961090088
-4.614890098571777 -3.194129943847656 -5.486800193786621
-5.549890041351318 -3.427129983901978 -5.546800136566162
-4.494890213012695 -4.127140045166016 -5.559800148010254
-5.659890174865723 -3.557130098342896 -5.570799827575684
-5.321889877319336 -3.661129951477051 -5.569799900054932
-5.126890182495117 -3.725130081176758 -5.572800159454346
-4.307879924774170 -3.706130027770996 -5.547669887542725
-4.437980175018311 -3.936709880828857 -5.570240020751953
-4.947889804840088 -3.162139892578125 -5.540800094604492
-4.392889976501465 -4.261129856109619 -5.598800182342529
-4.571189880371094 -4.316520214080811 -5.609000205993652
-5.741889953613281 -3.778130054473877 -5.613800048828125
-4.540890216827393 -3.342139959335327 -5.544799804687500
-5.184889793395996 -3.218130111694336 -5.569799900054932
-4.733290195465088 -4.339739799499512 -5.645289897918701
-4.433889865875244 -3.592139959335327 -5.596799850463867
-4.793889999389648 -3.209130048751831 -5.605800151824951
-4.451650142669678 -3.766649961471558 -5.649650096893311
-5.389890193939209 -3.782130002975464 -5.683800220489502
-4.841889858245850 -3.786129951477051 -5.666800022125244
-4.681890010833740 -3.340130090713501 -5.636799812316895
-4.894420146942139 -4.349740028381348 -5.712959766387940
-4.652890205383301 -4.182129859924316 -5.700799942016602
-4.570889949798584 -3.505140066146851 -5.652800083160400
-5.741889953613281 -3.634140014648438 -5.703800201416016
-4.638010025024414 -3.891370058059692 -5.690310001373291
-4.549890041351318 -4.050129890441895 -5.698800086975098
-5.551889896392822 -3.824130058288574 -5.720799922943115
-5.325890064239502 -3.318140029907227 -5.692800045013428
-4.828390121459961 -4.197269916534424 -5.738679885864258
-5.156889915466309 -3.812129974365234 -5.729800224304199
-4.930890083312988 -3.291130065917969 -5.691800117492676
-4.742030143737793 -4.023180007934570 -5.737090110778809
-5.520890235900879 -3.421129941940308 -5.725800037384033
-4.579889774322510 -3.671129941940308 -5.718800067901611
-5.040890216827393 -4.577129840850830 -5.804800033569336
-5.147890090942383 -3.314140081405640 -5.725800037384033
-4.996890068054199 -3.772130012512207 -5.754799842834473
-5.009099960327148 -4.407289981842041 -5.820020198822022
-4.707890033721924 -3.551140069961548 -5.754799842834473
-4.828889846801758 -3.417129993438721 -5.759799957275391
-5.789889812469482 -3.753129959106445 -5.819799900054932
-5.642889976501465 -3.511130094528198 -5.800799846649170
-4.885310173034668 -4.049009799957275 -5.820469856262207
-5.667890071868897 -3.904129981994629 -5.839799880981445
-4.980979919433594 -4.209949970245361 -5.842269897460938
-4.821519851684570 -3.893810033798218 -5.817150115966797
-4.697889804840088 -3.757129907608032 -5.805799961090088
-5.000889778137207 -3.402139902114868 -5.807799816131592
-5.479889869689941 -3.897130012512207 -5.857800006866455
-5.264890193939209 -3.865129947662354 -5.857800006866455
-4.827010154724121 -3.651570081710815 -5.840610027313232
-5.303890228271484 -3.413130044937134 -5.845799922943115
-4.995890140533447 -3.922139883041382 -5.872799873352051
-5.058269977569580 -4.312379837036133 -5.952229976654053
-5.743889808654785 -3.579139947891235 -5.929800033569336
-5.106890201568604 -3.490129947662354 -5.913799762725830
-4.962890148162842 -3.576129913330078 -5.915800094604492
-5.132890224456787 -4.468130111694336 -5.993800163269043
-5.066609859466553 -4.086130142211914 -5.968850135803223
-5.432889938354492 -3.476130008697510 -5.939799785614014
-4.932489871978760 -3.756959915161133 -5.946479797363281
-5.745890140533447 -3.898139953613281 -5.988800048828125
-5.373889923095703 -3.943140029907227 -5.980800151824951
-5.789889812469482 -3.730129957199097 -6.000800132751465
-5.114890098571777 -3.921129941940308 -5.992800235748291
-5.562890052795410 -3.977129936218262 -6.017799854278565
-5.247889995574951 -3.540139913558960 -6.001800060272217
-5.068890094757080 -3.706130027770996 -6.029799938201904
-5.111770153045654 -4.217500209808350 -6.079730033874512
-5.571889877319336 -3.529129981994629 -6.048799991607666
-5.069699764251709 -4.592710018157959 -6.119420051574707
-5.732890129089356 -3.590130090713501 -6.106800079345703
-5.190889835357666 -4.471139907836914 -6.150800228118897
-5.152060031890869 -4.047649860382080 -6.130149841308594
-5.292890071868897 -3.936140060424805 -6.140799999237061
-5.404890060424805 -3.561140060424805 -6.120800018310547
-5.457890033721924 -3.999140024185181 -6.160799980163574
-5.751890182495117 -3.889130115509033 -6.166800022125244
-5.241889953613281 -4.284130096435547 -6.183800220489502
-5.187890052795410 -3.708129882812500 -6.155799865722656
-5.632890224456787 -4.022130012512207 -6.202799797058106
-5.274889945983887 -4.113140106201172 -6.222799777984619
-5.056890010833740 -4.407129764556885 -6.248799800872803
-5.149889945983887 -3.910130023956299 -6.225800037384033
-5.148019790649414 -4.570149898529053 -6.284749984741211
-5.815889835357666 -3.640130043029785 -6.269800186157227
-5.259890079498291 -4.441130161285400 -6.306799888610840
-5.640890121459961 -3.565140008926392 -6.274799823760986
-5.469890117645264 -3.603140115737915 -6.272799968719482
-5.327889919281006 -3.693140029907227 -6.280799865722656
-5.325890064239502 -4.245140075683594 -6.333799839019775
-5.162209987640381 -4.298779964447022 -6.332799911499023
-5.403890132904053 -3.995140075683594 -6.329800128936768
-5.544889926910400 -4.095129966735840 -6.346799850463867
-5.691889762878418 -4.035130023956299 -6.401800155639648
-5.071889877319336 -4.628129959106445 -6.437799930572510
-5.235889911651611 -3.921129941940308 -6.401800155639648
-5.058889865875244 -4.403130054473877 -6.430799961090088
-5.168889999389648 -4.097129821777344 -6.424799919128418
-5.349890232086182 -4.394139766693115 -6.451799869537354
-5.729889869689941 -3.570130109786987 -6.417799949645996
-5.844890117645264 -3.697139978408814 -6.436800003051758
-5.780889987945557 -3.897130012512207 -6.451799869537354
-5.252349853515625 -4.537310123443604 -6.478690147399902
-5.418889999389648 -3.720129966735840 -6.440800189971924
-5.409890174865723 -4.225130081176758 -6.477799892425537
-5.573890209197998 -3.632129907608032 -6.462800025939941
-5.497889995574951 -4.057129859924316 -6.505799770355225
-5.321889877319336 -3.901139974594116 -6.547800064086914
-5.802889823913574 -4.030139923095703 -6.617800235748291
-5.139890193939209 -4.595129966735840 -6.639800071716309
-5.081890106201172 -4.401140213012695 -6.626800060272217
-5.238890171051025 -4.066130161285400 -6.618800163269043
-5.152890205383301 -4.244130134582520 -6.629799842834473
-5.840889930725098 -3.677129983901978 -6.623799800872803
-5.421889781951904 -4.437129974365234 -6.667799949645996
-5.491889953613281 -4.269139766693115 -6.658800125122070
-5.569890022277832 -4.114130020141602 -6.656799793243408
-5.297890186309815 -4.548130035400391 -6.680799961090088
-5.483890056610107 -3.765130043029785 -6.640799999237061
-5.877890110015869 -3.894140005111694 -6.691800117492676
-5.744890213012695 -4.166130065917969 -6.713799953460693
-5.619890213012695 -3.673130035400391 -6.682799816131592
-5.396890163421631 -3.903130054473877 -6.725800037384033
-5.548890113830566 -4.380139827728272 -6.788799762725830
-5.875889778137207 -4.042129993438721 -6.781799793243408
-5.207890033721924 -4.216129779815674 -6.787799835205078
-5.417890071868897 -4.543129920959473 -6.821800231933594
-5.608890056610107 -4.216129779815674 -6.809800148010254
-5.318890094757080 -4.045129776000977 -6.792799949645996
-5.102890014648438 -4.496129989624023 -6.816800117492676
-5.873889923095703 -3.730129957199097 -6.795800209045410
-5.754889965057373 -3.613140106201172 -6.797800064086914
-5.252890110015869 -4.565139770507813 -6.881800174713135
-5.920889854431152 -3.892129898071289 -6.867800235748291
-5.165890216827393 -4.353139877319336 -6.886799812316895
-5.557889938354492 -4.536129951477051 -6.919799804687500
-5.650889873504639 -3.724139928817749 -6.880799770355225
-5.475890159606934 -3.892129898071289 -6.889800071716309
-5.892889976501465 -4.141139984130859 -6.927800178527832
-5.657889842987061 -4.393129825592041 -6.968800067901611
-5.258890151977539 -4.224140167236328 -6.950799942016602
-5.728889942169190 -4.203139781951904 -6.972799777984619
-5.363890171051025 -4.076129913330078 -6.965799808502197
-5.796889781951904 -3.698129892349243 -6.973800182342529
-5.379889965057373 -4.555130004882813 -7.019800186157227
-5.959889888763428 -4.016139984130859 -7.017799854278565
-5.886889934539795 -3.855129957199097 -7.049799919128418
-5.928890228271484 -4.224140167236328 -7.082799911499023
-5.545889854431152 -3.896130084991455 -7.058800220489502
-5.713890075683594 -4.463129997253418 -7.115799903869629
-5.290890216827393 -4.422140121459961 -7.098800182342529
-5.544889926910400 -4.535130023956299 -7.123799800872803
-5.780889987945557 -4.301139831542969 -7.125800132751465
-5.324890136718750 -4.244130134582520 -7.146800041198731
-6.011889934539795 -4.102129936218262 -7.169799804687500
-5.427889823913574 -4.063129901885986 -7.152800083160400
-5.940889835357666 -3.945130109786987 -7.190800189971924
-5.792890071868897 -3.802129983901978 -7.184800148010254
-5.414889812469482 -4.494130134582520 -7.221799850463867
-5.578889846801758 -3.924129962921143 -7.225800037384033
-5.813889980316162 -4.430130004882813 -7.270800113677979
-5.896890163421631 -4.265130043029785 -7.262800216674805
-5.607890129089356 -4.519139766693115 -7.277800083160400
-5.385890007019043 -4.206130027770996 -7.305799961090088
-6.063889980316162 -4.152140140533447 -7.327799797058106
-5.826889991760254 -3.919140100479126 -7.310800075531006
-5.474890232086182 -4.065139770507813 -7.320799827575684
-5.970890045166016 -4.005139827728272 -7.354800224304199
-5.733890056610107 -4.537139892578125 -7.389800071716309
-5.522890090942383 -4.433139801025391 -7.393799781799316
-5.984889984130859 -4.290140151977539 -7.402800083160400
-5.893889904022217 -4.446139812469482 -7.416800022125244
-5.647890090942383 -3.925129890441895 -7.385799884796143
-6.137889862060547 -4.217140197753906 -7.464799880981445
-5.437890052795410 -4.299129962921143 -7.448800086975098
-5.563889980316162 -4.032129764556885 -7.485799789428711
-5.866889953613281 -4.516139984130859 -7.572800159454346
-5.948890209197998 -4.025129795074463 -7.548799991607666
-5.447889804840088 -4.154129981994629 -7.541800022125244
-6.052889823913574 -4.319129943847656 -7.577799797058106
-5.717889785766602 -3.940140008926392 -7.554800033569336
-5.659890174865723 -4.396130084991455 -7.589799880981445
-5.516890048980713 -4.308139801025391 -7.597799777984619
-6.197889804840088 -4.203139781951904 -7.620800018310547
-6.028890132904053 -4.470129966735840 -7.645800113677979
-6.077889919281006 -4.096139907836914 -7.674799919128418
-5.594890117645264 -4.101130008697510 -7.659800052642822
-6.150889873504639 -4.370140075683594 -7.706799983978272
-5.835889816284180 -3.999140024185181 -7.688799858093262
-5.750889778137207 -4.452129840850830 -7.723800182342529
-6.291890144348145 -4.274129867553711 -7.755799770355225
-5.896890163421631 -4.534130096435547 -7.767799854278565
-5.495890140533447 -4.296130180358887 -7.763800144195557
-6.198890209197998 -4.136129856109619 -7.783800125122070
-6.105889797210693 -4.511129856109619 -7.818799972534180
-5.709889888763428 -4.092140197753906 -7.783800125122070
-5.952889919281006 -4.047140121459961 -7.804800033569336
-5.610889911651611 -4.409130096435547 -7.818799972534180
-5.627890110015869 -4.227129936218262 -7.860799789428711
-6.364890098571777 -4.275129795074463 -7.915800094604492
-5.986889839172363 -4.577129840850830 -7.930799961090088
-6.233890056610107 -4.453139781951904 -7.933800220489502
-6.088890075683594 -4.075139999389648 -7.908800125122070
-5.837890148162842 -4.471139907836914 -7.932799816131592
-5.832890033721924 -4.078139781951904 -7.919799804687500
-6.260890007019043 -4.125130176544190 -7.942800045013428
-5.683889865875244 -4.520140171051025 -7.985799789428711
-6.143889904022217 -4.590129852294922 -8.006799697875977
-5.634890079498291 -4.360139846801758 -7.977799892425537
-5.757890224456787 -4.220129966735840 -8.020799636840820
-6.431890010833740 -4.334129810333252 -8.064800262451172
-6.380889892578125 -4.173130035400391 -8.059800148010254
-5.892889976501465 -4.553130149841309 -8.072799682617188
-6.326889991760254 -4.469130039215088 -8.086799621582031
-5.745890140533447 -4.644139766693115 -8.082799911499023
-5.974890232086182 -4.095129966735840 -8.058799743652344
-6.257890224456787 -4.619130134582520 -8.129799842834473
-6.174890041351318 -4.058139801025391 -8.108799934387207
-5.744890213012695 -4.391139984130859 -8.123800277709961
-5.799890041351318 -4.798130035400391 -8.159799575805664
-6.063889980316162 -4.634140014648438 -8.178799629211426
-5.890890121459961 -4.214139938354492 -8.159799575805664
-6.481890201568604 -4.241129875183106 -8.194800376892090
-6.419889926910400 -4.500130176544190 -8.236800193786621
-6.311890125274658 -4.073130130767822 -8.204799652099609
-5.934889793395996 -4.713129997253418 -8.248800277709961
-5.917890071868897 -4.879129886627197 -8.265800476074219
-5.812890052795410 -4.596139907836914 -8.249799728393555
-5.858890056610107 -4.434130191802979 -8.250800132751465
-6.025889873504639 -4.141139984130859 -8.236800193786621
-6.336890220642090 -4.636129856109619 -8.297800064086914
-6.529890060424805 -4.363140106201172 -8.299799919128418
-6.175889968872070 -4.682129859924316 -8.318799972534180
-6.161890029907227 -4.067130088806152 -8.310799598693848
-5.991889953613281 -4.291130065917969 -8.328800201416016
-6.042890071868897 -4.832139968872070 -8.368800163269043
-6.498889923095703 -4.540140151977539 -8.384799957275391
-5.962890148162842 -4.508130073547363 -8.367799758911133
-6.558889865875244 -4.213129997253418 -8.378800392150879
-6.442890167236328 -4.074130058288574 -8.372799873352051
-5.984889984130859 -4.675129890441895 -8.406800270080566
-6.159890174865723 -4.955130100250244 -8.454799652099609
-6.601890087127686 -4.403130054473877 -8.446800231933594
-6.290890216827393 -4.006140232086182 -8.432800292968750
-6.099890232086182 -4.312129974365234 -8.456800460815430
-6.269889831542969 -4.837130069732666 -8.501799583435059
-6.411890029907227 -4.705130100250244 -8.498800277709961
-6.093890190124512 -4.532129764556885 -8.483799934387207
-6.661890029907227 -4.238140106201172 -8.514800071716309
-6.380889892578125 -5.087130069732666 -8.574799537658691
-6.558889865875244 -4.556129932403565 -8.554800033569336
-6.207890033721924 -4.202129840850830 -8.533800125122070
-6.436890125274658 -3.993129968643189 -8.527799606323242
-6.582890033721924 -4.085140228271484 -8.539799690246582
-6.207890033721924 -4.633130073547363 -8.567799568176270
-6.204889774322510 -4.433139801025391 -8.564800262451172
-6.680890083312988 -4.418129920959473 -8.598799705505371
-6.398890018463135 -4.859129905700684 -8.620800018310547
-6.523890018463135 -4.719130039215088 -8.621800422668457
-6.541890144348145 -5.095129966735840 -8.652799606323242
-6.338890075683594 -4.698130130767822 -8.648799896240234
-6.317890167236328 -4.091129779815674 -8.607799530029297
-6.694890022277832 -5.200139999389648 -8.703800201416016
-6.318890094757080 -4.532129764556885 -8.653800010681152
-6.305890083312988 -4.295129776000977 -8.640800476074219
-6.757890224456787 -4.280139923095703 -8.669799804687500
-6.644889831542969 -4.628129959106445 -8.695799827575684
-6.685890197753906 -4.091129779815674 -8.684800148010254
-6.814889907836914 -4.432129859924316 -8.712800025939941
-6.542890071868897 -4.847129821777344 -8.732799530029297
-6.848889827728272 -5.187129974365234 -8.772800445556641
-6.448890209197998 -4.591129779815674 -8.740799903869629
-6.417890071868897 -4.181129932403565 -8.715800285339356
-6.627890110015869 -4.998139858245850 -8.785799980163574
-6.498889923095703 -4.018129825592041 -8.728799819946289
-6.438889980316162 -4.422140121459961 -8.756799697875977
-6.994890213012695 -5.236130237579346 -8.856800079345703
-6.683889865875244 -4.833129882812500 -8.823800086975098
-6.640890121459961 -3.933140039443970 -8.773799896240234
-6.740890026092529 -4.558139801025391 -8.822799682617188
-6.851890087127686 -4.196139812469482 -8.818799972534180
-6.719890117645264 -5.118130207061768 -8.879799842834473
-6.781889915466309 -4.033140182495117 -8.810799598693848
-6.889890193939209 -4.361130237579346 -8.844799995422363
-6.565889835357666 -4.536129951477051 -8.850799560546875
-6.512889862060547 -4.260129928588867 -8.831800460815430
-6.594890117645264 -4.103139877319336 -8.865799903869629
-6.813889980316162 -4.961140155792236 -8.936800003051758
-6.965889930725098 -5.090129852294922 -8.952799797058106
-7.107890129089356 -5.181129932403565 -8.972800254821777
-6.653890132904053 -4.640130043029785 -8.947799682617188
-6.595890045166016 -4.361130237579346 -8.936800003051758
-6.971889972686768 -4.466129779815674 -8.958800315856934
-6.914889812469482 -3.989130020141602 -8.927800178527832
-6.907889842987061 -4.835140228271484 -8.999799728393555
-6.736889839172363 -4.816130161285400 -8.992799758911133
-6.951889991760254 -4.198130130767822 -8.963800430297852
-6.739890098571777 -4.046130180358887 -8.972800254821777
-6.665890216827393 -4.202129840850830 -8.986800193786621
-7.118889808654785 -4.501130104064941 -9.043800354003906
-7.051889896392822 -5.083129882812500 -9.097800254821777
-7.223889827728272 -5.151140213012695 -9.110799789428711
-7.046889781951904 -4.001130104064941 -9.029800415039063
-6.921889781951904 -4.977129936218262 -9.100799560546875
-7.037889957427979 -4.346139907836914 -9.062800407409668
-6.667890071868897 -4.459129810333252 -9.060799598693848
-7.073890209197998 -4.167129993438721 -9.073800086975098
-6.725890159606934 -4.619130134582520 -9.098799705505371
-6.826889991760254 -4.752140045166016 -9.122799873352051
-6.751890182495117 -4.234129905700684 -9.128800392150879
-6.854889869689941 -4.073130130767822 -9.125800132751465
-7.185890197753906 -4.033140182495117 -9.134799957275391
-7.246890068054199 -5.254129886627197 -9.239800453186035
-7.132890224456787 -5.132130146026611 -9.253800392150879
-6.974890232086182 -4.842140197753906 -9.230799674987793
-7.217889785766602 -4.188129901885986 -9.200799942016602
-7.075890064239502 -4.975130081176758 -9.249799728393555
-6.748889923095703 -4.402140140533447 -9.200799942016602
-7.135890007019043 -4.341129779815674 -9.211799621582031
-7.005889892578125 -4.023139953613281 -9.209799766540527
-6.874889850616455 -4.717140197753906 -9.287799835205078
-6.781889915466309 -4.570129871368408 -9.283800125122070
-7.317890167236328 -4.068140029907227 -9.267800331115723
-6.907889842987061 -4.146130084991455 -9.271800041198731
-6.829889774322510 -4.295129776000977 -9.300800323486328
-7.146890163421631 -4.049129962921143 -9.296799659729004
-7.308889865875244 -4.245140075683594 -9.342800140380859
-7.162889957427979 -5.220129966735840 -9.411800384521484
-7.254889965057373 -4.420129776000977 -9.384799957275391
-6.835889816284180 -4.471139907836914 -9.409799575805664
-7.021890163421631 -4.187129974365234 -9.418800354003906
-7.372889995574951 -4.110139846801758 -9.425800323486328
-6.872889995574951 -4.629129886627197 -9.455800056457520
-7.520890235900879 -4.196139812469482 -9.455800056457520
-7.198890209197998 -4.149129867553711 -9.461799621582031
-6.972889900207520 -4.776140213012695 -9.497799873352051
-7.381889820098877 -4.348130226135254 -9.486800193786621
-6.927889823913574 -4.316130161285400 -9.469799995422363
-7.123889923095703 -5.253129959106445 -9.571800231933594
-7.643889904022217 -4.229129791259766 -9.567799568176270
-7.515890121459961 -4.342140197753906 -9.593799591064453
-6.918889999389648 -4.502140045166016 -9.589799880981445
-7.340889930725098 -4.212130069732666 -9.585800170898438
-7.120890140533447 -4.253129959106445 -9.581800460815430
-7.056890010833740 -5.373139858245850 -9.692799568176270
-7.015890121459961 -4.370140075683594 -9.643799781799316
-7.246890068054199 -4.293129920959473 -9.697799682617188
-7.468890190124512 -4.211140155792236 -9.700799942016602
-7.712890148162842 -4.211140155792236 -9.718799591064453
-7.475890159606934 -4.460140228271484 -9.735799789428711
-7.579889774322510 -4.322140216827393 -9.757800102233887
-6.957890033721924 -4.494130134582520 -9.763799667358398
-7.109889984130859 -5.263140201568604 -9.824799537658691
-7.129889965057373 -4.388140201568604 -9.794799804687500
-7.373889923095703 -4.306129932403565 -9.825799942016602
-7.067890167236328 -5.408140182495117 -9.957799911499023
-7.696889877319336 -4.217140197753906 -9.904800415039063
-7.156889915466309 -5.104129791259766 -9.967800140380859
-7.236889839172363 -4.367139816284180 -9.924799919128418
-7.031889915466309 -4.462130069732666 -9.930800437927246
-7.147890090942383 -5.283140182495117 -10.036800384521484
-7.109889984130859 -4.968130111694336 -10.056799888610840
-7.751890182495117 -4.356140136718750 -10.060799598693848
-7.599890232086182 -4.267129898071289 -10.057800292968750
-7.136889934539795 -4.378129959106445 -10.067799568176270
-7.180890083312988 -5.152140140533447 -10.139800071716309
-7.008890151977539 -4.481140136718750 -10.096799850463867
-7.288889884948731 -4.389130115509033 -10.151800155639648
-7.064889907836914 -4.851130008697510 -10.192799568176270
-6.975890159606934 -4.701129913330078 -10.191800117492676
-7.163889884948731 -4.985139846801758 -10.218799591064453
-7.228889942169190 -5.262139797210693 -10.276800155639648
-7.295889854431152 -5.093130111694336 -10.268799781799316
-7.069890022277832 -4.418129920959473 -10.244799613952637
-7.223889827728272 -4.400129795074463 -10.309800148010254
-7.369890213012695 -5.208129882812500 -10.389800071716309
-7.004889965057373 -4.758130073547363 -10.350799560546875
-7.522890090942383 -5.148139953613281 -10.417799949645996
-6.977890014648438 -4.543129920959473 -10.363800048828125
-7.082890033721924 -4.426139831542969 -10.429800033569336
