ply
format ascii 1.0
element vertex 848
property double x
property double y
property double z
end_header
-12.439900398254395 -5.998139858245850 2.493200063705444
-13.389900207519531 -6.707139968872070 2.486200094223023
-13.294899940490723 -6.448130130767822 2.500200033187866
-13.461899757385254 -6.475130081176758 2.467200040817261
-13.215900421142578 -6.279129981994629 2.485199928283691
-13.390899658203125 -6.271130084991455 2.463200092315674
-12.833900451660156 -6.088129997253418 2.487200021743774
-13.066900253295898 -6.381140232086182 2.458199977874756
-12.669899940490723 -6.038129806518555 2.491199970245361
-12.311900138854980 -5.890130043029785 2.508199930191040
-13.130900382995605 -6.132130146026611 2.461199998855591
-12.966899871826172 -6.225130081176758 2.460200071334839
-12.439900398254395 -5.998139858245850 2.493200063705444
-13.642900466918945 -6.440139770507813 2.416199922561646
-13.536899566650391 -6.741129875183106 2.390199899673462
-13.294899940490723 -6.105130195617676 2.430200099945068
-13.303899765014648 -6.583129882812500 2.386199951171875
-12.543899536132812 -5.853139877319336 2.460200071334839
-12.032899856567383 -5.869130134582520 2.475199937820435
-12.798899650573730 -5.923130035400391 2.443200111389160
-12.182900428771973 -5.774129867553711 2.473200082778931
-12.964900016784668 -5.958129882812500 2.425199985504150
-13.754899978637695 -6.550129890441895 2.356199979782105
-13.561900138854980 -6.576129913330078 2.357199907302856
-12.169899940490723 -5.962130069732666 2.444200038909912
-12.551899909973145 -6.132130146026611 2.412199974060059
-12.862899780273437 -6.332139968872070 2.385200023651123
-13.530900001525879 -6.323130130767822 2.361200094223023
-12.730899810791016 -6.230130195617676 2.387200117111206
-13.137900352478027 -5.923130035400391 2.384200096130371
-12.410900115966797 -5.762139797210693 2.414200067520142
-12.314900398254395 -6.056129932403565 2.396199941635132
-13.452899932861328 -6.154129981994629 2.341200113296509
-12.696900367736816 -5.802130222320557 2.385200023651123
-13.186900138854980 -6.464139938354492 2.323199987411499
-13.413900375366211 -6.459129810333252 2.308199882507324
-13.285900115966797 -5.857130050659180 2.325200080871582
-12.996899604797363 -6.379129886627197 2.290199995040894
-13.388899803161621 -5.998139858245850 2.294199943542481
-12.877900123596191 -5.769139766693115 2.320199966430664
-13.048899650573730 -5.801139831542969 2.307199954986572
-11.975899696350098 -5.777140140533447 2.344199895858765
-12.238900184631348 -5.675129890441895 2.338200092315674
-13.282899856567383 -6.354129791259766 2.237200021743774
-12.053899765014648 -5.978139877319336 2.297199964523315
-12.602899551391602 -6.183139801025391 2.252199888229370
-12.397899627685547 -6.128129959106445 2.256200075149536
-13.503899574279785 -6.279129981994629 2.202199935913086
-12.219900131225586 -6.053130149841309 2.250200033187866
-12.894900321960449 -6.272130012512207 2.209199905395508
-12.675900459289551 -5.683139801025391 2.248199939727783
-13.122900009155273 -6.305130004882813 2.190200090408325
-13.362899780273438 -6.168129920959473 2.189199924468994
-12.412899971008301 -5.688129901885986 2.235199928283691
-13.008899688720703 -5.669139862060547 2.204200029373169
-13.218899726867676 -5.866129875183106 2.172199964523315
-12.743900299072266 -6.179140090942383 2.162199974060059
-12.838899612426758 -5.648139953613281 2.188199996948242
-13.194899559020996 -6.159130096435547 2.138200044631958
-13.292900085449219 -6.021130084991455 2.142199993133545
-11.969900131225586 -5.626130104064941 2.208199977874756
-11.915900230407715 -5.906129837036133 2.183199882507324
-13.029899597167969 -6.152140140533447 2.107199907302856
-11.800900459289551 -5.762139797210693 2.170200109481812
-12.522899627685547 -6.091129779815674 2.122200012207031
-12.135899543762207 -5.573130130767822 2.163199901580811
-12.100899696350098 -5.999139785766602 2.123199939727783
-13.134900093078613 -5.998139858245850 2.085200071334839
-12.359900474548340 -6.059130191802979 2.105200052261353
-12.561900138854980 -5.605130195617676 2.128200054168701
-12.296899795532227 -5.611130237579346 2.133199930191040
-13.087900161743164 -5.775129795074463 2.088200092315674
-12.889900207519531 -6.074130058288574 2.057199954986572
-12.722900390625000 -5.562129974365234 2.087199926376343
-12.941900253295898 -5.623139858245850 2.055200099945068
-12.664899826049805 -6.032129764556885 2.036200046539307
-13.001899719238281 -5.905139923095703 2.021199941635132
-11.868900299072266 -5.566130161285400 2.065200090408325
-12.419899940490723 -5.522130012512207 2.047199964523315
-11.970899581909180 -5.952129840850830 2.019200086593628
-12.786899566650391 -5.926139831542969 1.977200031280518
-12.237899780273438 -5.986130237579346 1.990200042724609
-11.746899604797363 -5.784130096435547 2.006200075149536
-12.458900451660156 -5.969130039215088 1.958199977874756
-12.060899734497070 -5.510129928588867 1.998200058937073
-12.878899574279785 -5.764130115509033 1.953199982643127
-12.267900466918945 -5.464139938354492 1.970199942588806
-12.815899848937988 -5.570129871368408 1.944200038909912
-12.614899635314941 -5.906129837036133 1.924200057983398
-12.508899688720703 -5.427130222320557 1.941200017929077
-12.095899581909180 -5.935130119323731 1.907199978828430
-12.670900344848633 -5.462130069732666 1.919199943542481
-11.846899986267090 -5.917129993438721 1.912199974060059
-12.717900276184082 -5.779129981994629 1.886199951171875
-11.767900466918945 -5.523139953613281 1.917199969291687
-12.326899528503418 -5.908140182495117 1.866199970245361
-12.125900268554687 -5.406129837036133 1.869199991226196
-11.950900077819824 -5.445129871368408 1.866199970245361
-12.363900184631348 -5.364130020141602 1.850200057029724
-11.967900276184082 -5.864130020141602 1.782199978828430
-12.516900062561035 -5.764130115509033 1.770200014114380
-12.607899665832520 -5.532129764556885 1.766199946403503
-12.200900077819824 -5.834129810333252 1.751199960708618
-11.604900360107422 -5.693140029907227 1.767199993133545
-12.508899688720703 -5.395140171051025 1.754199981689453
-12.202899932861328 -5.280139923095703 1.765200018882752
-12.353899955749512 -5.769139766693115 1.725200057029724
-11.753899574279785 -5.863140106201172 1.734200000762940
-11.979900360107422 -5.312129974365234 1.759199976921082
-11.806900024414063 -5.407129764556885 1.758200049400330
-11.650899887084961 -5.466129779815674 1.754199981689453
-12.471899986267090 -5.610139846801758 1.689200043678284
-12.372900009155273 -5.289130210876465 1.701200008392334
-12.057900428771973 -5.772130012512207 1.674200057983398
-11.879899978637695 -5.768129825592041 1.655200004577637
-12.216899871826172 -5.715129852294922 1.634199976921082
-12.052900314331055 -5.179140090942383 1.676200032234192
-11.846899986267090 -5.253129959106445 1.672199964523315
-12.421899795532227 -5.443140029907227 1.618199944496155
-11.698900222778320 -5.726130008697510 1.614199995994568
-12.306900024414063 -5.575139999389648 1.591199994087219
-11.574899673461914 -5.363140106201172 1.617200016975403
-12.224900245666504 -5.190139770507813 1.606199979782105
-11.519900321960449 -5.628129959106445 1.600200057029724
-11.685899734497070 -5.204140186309815 1.607200026512146
-12.101900100708008 -5.605130195617676 1.553200006484985
-11.924900054931641 -5.081130027770996 1.584200024604797
-11.441900253295898 -5.457139968872070 1.551200032234192
-12.302900314331055 -5.346139907836914 1.528200030326843
-11.810899734497070 -5.629129886627197 1.519199967384338
-12.205900192260742 -5.480130195617676 1.498200058937073
-11.748900413513184 -5.055130004882813 1.528200030326843
-11.956899642944336 -5.534130096435547 1.486199975013733
-11.649900436401367 -5.602129936218262 1.478199958801270
-12.089900016784668 -5.098130226135254 1.495200037956238
-11.523900032043457 -5.162139892578125 1.500200033187866
-11.394900321960449 -5.268129825592041 1.480200052261353
-12.068900108337402 -5.383130073547363 1.442199945449829
-12.167900085449219 -5.239130020141602 1.442199945449829
-11.778900146484375 -5.496129989624023 1.423200011253357
-11.833900451660156 -4.930130004882813 1.452200055122376
-11.597900390625000 -5.007130146026611 1.452200055122376
-11.500900268554688 -5.537139892578125 1.392199993133545
-11.339900016784668 -5.484129905700684 1.397199988365173
-11.877900123596191 -5.368130207061768 1.382200002670288
-12.008899688720703 -5.223130226135254 1.383200049400330
-11.963899612426758 -5.031129837036133 1.379199981689453
-11.688899993896484 -4.873139858245850 1.388200044631958
-11.638899803161621 -5.427130222320557 1.351199984550476
-11.428899765014648 -4.997129917144775 1.383200049400330
-11.276900291442871 -5.261129856109619 1.357200026512146
-11.521900177001953 -4.855130195617676 1.354200005531311
-11.859900474548340 -5.181129932403565 1.315199971199036
-11.306900024414063 -5.100130081176758 1.324200034141541
-11.731900215148926 -5.290140151977539 1.293200016021729
-11.893899917602539 -4.860139846801758 1.311200022697449
-11.765899658203125 -4.750130176544190 1.300199985504150
-11.217900276184082 -5.398139953613281 1.272199988365173
-11.320899963378906 -4.840129852294922 1.282199978828430
-11.502900123596191 -5.419139862060547 1.232200026512146
-11.707900047302246 -5.116129875183106 1.241199970245361
-11.460900306701660 -4.706130027770996 1.271199941635132
-11.792900085449219 -4.972129821777344 1.237200021743774
-11.171899795532227 -5.149129867553711 1.238199949264526
-11.300900459289551 -4.656129837036133 1.243199944496155
-11.582900047302246 -5.273139953613281 1.187199950218201
-11.354900360107422 -5.477129936218262 1.173200011253357
-11.180899620056152 -4.922140121459961 1.214200019836426
-11.117899894714355 -5.299129962921143 1.176200032234192
-11.656900405883789 -4.669139862060547 1.196200013160706
-11.687899589538574 -4.857130050659180 1.171200037002564
-11.511899948120117 -4.580130100250244 1.171200037002564
-11.613900184631348 -5.018129825592041 1.125200033187866
-11.367899894714355 -4.473130226135254 1.168200016021729
-11.076899528503418 -5.055130004882813 1.137199997901917
-11.170900344848633 -4.574130058288574 1.164199948310852
-11.182900428771973 -5.432129859924316 1.085199952125549
-11.466899871826172 -5.348130226135254 1.081200003623962
-11.060899734497070 -4.855130195617676 1.113199949264526
-11.522899627685547 -5.170129776000977 1.061200022697449
-10.983900070190430 -5.195129871368408 1.061200022697449
-11.547900199890137 -4.854129791259766 1.065199971199036
-11.030900001525879 -4.598130226135254 1.076200008392334
-11.063899993896484 -4.431129932403565 1.084200024604797
-11.481900215148926 -4.702129840850830 1.044199943542481
-11.231900215148926 -4.466129779815674 1.051200032234192
-11.063899993896484 -5.356140136718750 0.995199024677277
-10.951899528503418 -5.035130023956299 1.019199967384338
-11.494899749755859 -5.008130073547363 0.994199991226196
-11.309900283813477 -5.411129951477051 0.958200991153717
-11.356900215148926 -4.583129882812500 1.000200033187866
-10.922900199890137 -4.875130176544190 0.975198984146118
-10.928899765014648 -4.670129776000977 0.952199995517731
-10.945899963378906 -4.477129936218262 0.963198006153107
-11.398900032043457 -5.184130191802979 0.833200991153717
-11.158900260925293 -5.398139953613281 0.814199984073639
-10.994899749755859 -5.357130050659180 0.818201005458832
-11.391900062561035 -4.970129966735840 0.829199016094208
-11.309900283813477 -5.322140216827393 0.795198976993561
-10.798899650573730 -5.096139907836914 0.822198987007141
-11.320899963378906 -4.783140182495117 0.814199984073639
-10.816900253295898 -4.839139938354492 0.827199995517731
-11.230899810791016 -4.618130207061768 0.819200992584229
-11.068900108337402 -4.500130176544190 0.823198020458221
-10.887900352478027 -4.553130149841309 0.760199010372162
-10.874899864196777 -5.278130054473877 0.701201021671295
-10.729900360107422 -4.982130050659180 0.721201002597809
-11.352899551391602 -5.114130020141602 0.684198021888733
-10.760899543762207 -4.667129993438721 0.726198017597198
-11.114899635314941 -5.336140155792236 0.662199020385742
-11.268899917602539 -5.271130084991455 0.637197971343994
-11.216899871826172 -4.714139938354492 0.663199007511139
-11.303899765014648 -4.938129901885986 0.644198000431061
-11.095899581909180 -4.584129810333252 0.675199985504150
-10.670900344848633 -4.832139968872070 0.660199999809265
-10.616900444030762 -5.077129840850830 0.621199011802673
-10.743900299072266 -5.215129852294922 0.589200973510742
-10.987899780273438 -5.286129951477051 0.549199998378754
-11.310899734497070 -5.147130012512207 0.525197982788086
-10.668899536132812 -4.612130165100098 0.561200976371765
-10.572899818420410 -4.904129981994629 0.539197981357574
-11.217900276184082 -4.828139781951904 0.508199989795685
-10.992899894714355 -4.574130058288574 0.530198991298676
-11.143899917602539 -4.674129962921143 0.517198979854584
-10.855899810791016 -5.231140136718750 0.461198985576630
-10.822899818420410 -4.560130119323731 0.506201028823853
-10.545900344848633 -5.121129989624023 0.476197987794876
-11.197899818420410 -5.245140075683594 0.441197991371155
-11.257900238037109 -4.996129989624023 0.446198999881744
-10.559900283813477 -4.658140182495117 0.441197991371155
-11.032899856567383 -5.263140201568604 0.374200999736786
-10.467900276184082 -4.933139801025391 0.406199008226395
-11.130900382995605 -4.742139816284180 0.360201001167297
-10.757900238037109 -5.151140213012695 0.343199014663696
-11.229900360107422 -5.121129989624023 0.323197990655899
-11.030900001525879 -4.595129966735840 0.364199012517929
-10.704899787902832 -4.575139999389648 0.372197985649109
-11.190899848937988 -4.936140060424805 0.302197992801666
-10.588899612426758 -5.146130084991455 0.300199985504150
-10.909899711608887 -5.210140228271484 0.250200003385544
-10.351900100708008 -4.906129837036133 0.287198990583420
-10.858900070190430 -4.580130100250244 0.282198011875153
-11.117899894714355 -5.201129913330078 0.220198005437851
-10.477899551391602 -4.645140171051025 0.271200001239777
-11.057900428771973 -4.700139999389648 0.208201006054878
-10.449899673461914 -5.104129791259766 0.199197992682457
-10.706899642944336 -5.141139984130859 0.179201006889343
-10.638899803161621 -4.579140186309815 0.212198004126549
-11.179900169372559 -5.066130161285400 0.141198992729187
-11.126899719238281 -4.878129959106445 0.151197999715805
-10.318900108337402 -4.721139907836914 0.182199999690056
-10.281900405883789 -4.962130069732666 0.140200003981590
-11.043899536132813 -5.196139812469482 0.065199002623558
-10.863900184631348 -5.162139892578125 0.068201102316380
-10.908900260925293 -4.644139766693115 0.100198999047279
-10.574899673461914 -5.114130020141602 0.068201102316380
-10.472900390625000 -4.647130012512207 0.093198902904987
-10.739899635314941 -4.628129959106445 0.059198498725891
-10.346899986267090 -5.082139968872070 0.026197500526905
-10.216899871826172 -4.843130111694336 0.036199599504471
-11.000900268554688 -4.760129928588867 0.014200299978256
-11.083900451660156 -5.093130111694336 -0.092802003026009
-10.895899772644043 -5.198130130767822 -0.093801401555538
-11.024900436401367 -4.911129951477051 -0.094800896942616
-10.437899589538574 -5.074130058288574 -0.114800997078419
-10.549900054931641 -4.692130088806152 -0.097799196839333
-10.832900047302246 -4.718130111694336 -0.116800002753735
-10.159899711608887 -4.769139766693115 -0.102799996733665
-10.375900268554687 -4.748139858245850 -0.116800002753735
-10.633899688720703 -5.133130073547363 -0.157801002264023
-10.140899658203125 -4.982130050659180 -0.145799994468689
-11.019900321960449 -5.194129943847656 -0.213799998164177
-10.277899742126465 -5.086140155792236 -0.192800000309944
-10.969900131225586 -5.005139827728272 -0.226800993084908
-10.689900398254395 -4.730130195617676 -0.210802003741264
-10.779899597167969 -5.175129890441895 -0.247801005840302
-10.879899978637695 -4.865129947662354 -0.235799998044968
-10.022899627685547 -4.892129898071289 -0.241799995303154
-10.508899688720703 -4.726130008697510 -0.275801002979279
-10.530900001525879 -5.175129890441895 -0.308802008628845
-10.301899909973145 -4.758130073547363 -0.288801014423370
-10.919899940490723 -5.142129898071289 -0.340799003839493
-10.356900215148926 -5.142129898071289 -0.330801010131836
-10.140899658203125 -5.099140167236328 -0.320798993110657
-10.665900230407715 -5.274129867553711 -0.367799997329712
-10.124899864196777 -4.764130115509033 -0.316801011562347
-10.842900276184082 -4.983129978179932 -0.362801998853683
-10.710900306701660 -4.837130069732666 -0.383801996707916
-10.843899726867676 -5.275129795074463 -0.421801000833511
-9.924889564514160 -4.936140060424805 -0.382798999547958
-10.513899803161621 -5.306129932403565 -0.451799005270004
-10.411899566650391 -4.716129779815674 -0.412802010774612
-10.790900230407715 -5.120140075683594 -0.458799004554749
-10.575900077819824 -4.768129825592041 -0.454800993204117
-10.348899841308594 -5.260129928588867 -0.486799001693726
-10.210900306701660 -5.139130115509033 -0.481801986694336
-10.231900215148926 -4.744130134582520 -0.456800013780594
-10.635899543762207 -5.411129951477051 -0.521799027919769
-10.035900115966797 -5.103139877319336 -0.486799001693726
-10.014900207519531 -4.695129871368408 -0.464800000190735
-10.672900199890137 -4.965129852294922 -0.507799029350281
-10.718899726867676 -5.255139827728272 -0.540799975395203
-9.811889648437500 -4.896130084991455 -0.516802012920380
-10.475899696350098 -5.454140186309815 -0.609799981117249
-10.307900428771973 -4.607130050659180 -0.559800982475281
-9.883890151977539 -5.072140216827393 -0.587800979614258
-10.616900444030762 -5.143129825592041 -0.624800026416779
-10.545900344848633 -4.955130100250244 -0.615800976753235
-10.103899955749512 -4.609129905700684 -0.584802985191345
-9.894889831542969 -4.671130180358887 -0.582799971103668
-10.457900047302246 -4.694129943847656 -0.603799998760223
-10.128899574279785 -5.215129852294922 -0.632799029350281
-10.248900413513184 -5.331130027770996 -0.646799027919769
-10.532899856567383 -5.295129776000977 -0.663801014423370
-10.420900344848633 -4.856140136718750 -0.687798976898193
-10.474900245666504 -5.111130237579346 -0.709802985191345
-9.760890007019043 -4.990129947662354 -0.682802021503448
-10.332900047302246 -5.505139827728272 -0.738802015781403
-10.225899696350098 -4.514130115509033 -0.674799025058746
-9.985890388488770 -5.181129932403565 -0.715798974037170
-10.128899574279785 -5.473130226135254 -0.742799997329712
-10.387900352478027 -5.326129913330078 -0.743798971176147
-10.211899757385254 -5.618130207061768 -0.774801015853882
-10.389900207519531 -4.593130111694336 -0.725800991058350
-10.346899986267090 -5.015130043029785 -0.757799029350281
-9.967889785766602 -4.579140186309815 -0.715798974037170
-9.699890136718750 -4.829140186309815 -0.724802017211914
-10.290900230407715 -5.180130004882813 -0.798798978328705
-9.825889587402344 -5.159130096435547 -0.785799026489258
-10.275899887084961 -4.863140106201172 -0.782800972461700
-10.226900100708008 -5.359129905700684 -0.830801010131836
-10.185899734497070 -5.033140182495117 -0.833799004554749
-10.278900146484375 -4.684130191802979 -0.813799023628235
-10.315899848937988 -4.447140216827393 -0.806798994541168
-9.906889915466309 -5.349140167236328 -0.858801007270813
-10.111900329589844 -4.489130020141602 -0.809800982475281
-9.671890258789063 -5.018129825592041 -0.838800013065338
-9.714889526367188 -4.678130149841309 -0.819799005985260
-10.135899543762207 -5.225130081176758 -0.873799979686737
-9.956890106201172 -5.698130130767822 -0.901799976825714
-10.084899902343750 -5.574130058288574 -0.898801982402802
-10.128899574279785 -4.839139938354492 -0.860800027847290
-9.591890335083008 -4.801139831542969 -0.851800978183746
-10.030900001525879 -5.013140201568604 -0.894800007343292
-9.699890136718750 -5.188129901885986 -0.901799976825714
-9.835889816284180 -4.569129943847656 -0.867799997329712
-10.057900428771973 -5.367139816284180 -0.931798994541168
-9.940890312194824 -4.872129917144775 -0.925801992416382
-10.229900360107422 -4.549129962921143 -0.917798995971680
-9.958889961242676 -5.181129932403565 -0.952799022197723
-10.089900016784668 -4.644139766693115 -0.932802021503448
-9.750889778137207 -5.560130119323731 -0.989800989627838
-9.813890457153320 -5.055130004882813 -0.969801008701324
-9.756890296936035 -5.766139984130859 -1.026800036430359
-9.768890380859375 -4.853139877319336 -0.965798974037170
-9.924889564514160 -5.528130054473877 -1.024799942970276
-9.891889572143555 -5.358129978179932 -1.033800005912781
-9.811889648437500 -5.210140228271484 -1.032799959182739
-9.500889778137207 -5.082139968872070 -1.026800036430359
-9.622890472412109 -4.913129806518555 -1.026800036430359
-9.897890090942383 -4.553130149841309 -1.024799942970276
-9.679889678955078 -5.108129978179932 -1.057800054550171
-9.762889862060547 -4.674129962921143 -1.042799949645996
-9.455889701843262 -4.843130111694336 -1.062800049781799
-9.570890426635742 -5.771130084991455 -1.137799978256226
-9.801890373229981 -5.470129966735840 -1.128800034523010
-9.744890213012695 -5.630139827728272 -1.152799963951111
-9.691889762878418 -5.290140151977539 -1.146800041198731
-9.622890472412109 -4.701129913330078 -1.132799983024597
-9.427889823913574 -4.690139770507813 -1.138800024986267
-9.572890281677246 -5.154129981994629 -1.183799982070923
-9.434889793395996 -5.767129898071289 -1.236799955368042
-9.531889915466309 -4.972129821777344 -1.188799977302551
-9.692890167236328 -4.546130180358887 -1.175799965858460
-9.651889801025391 -5.476130008697510 -1.238800048828125
-9.587889671325684 -5.654129981994629 -1.255800008773804
-9.533889770507813 -5.361130237579346 -1.294800043106079
-9.452890396118164 -4.843130111694336 -1.263800024986267
-9.272890090942383 -4.778130054473877 -1.275799989700317
-9.463890075683594 -5.174129962921143 -1.311800003051758
-9.538889884948731 -4.623139858245850 -1.278800010681152
-9.506890296936035 -5.536129951477051 -1.344799995422363
-9.264889717102051 -5.764130115509033 -1.359799981117249
-9.363889694213867 -4.542129993438721 -1.301800012588501
-9.414890289306641 -5.001130104064941 -1.349799990653992
-9.612890243530273 -4.467140197753906 -1.326799988746643
-9.398889541625977 -5.397130012512207 -1.394799947738648
-9.405890464782715 -4.693140029907227 -1.367799997329712
-9.362890243530273 -5.580130100250244 -1.431800007820129
-9.342889785766602 -5.146130084991455 -1.424800038337708
-9.345890045166016 -4.842140197753906 -1.417799949645996
-9.179889678955078 -4.869130134582520 -1.425799965858460
-9.236889839172363 -4.530139923095703 -1.410799980163574
-9.484889984130859 -4.506140232086182 -1.432800054550171
-9.208889961242676 -5.631140232086182 -1.502799987792969
-9.262889862060547 -5.450139999389648 -1.500800013542175
-9.556889533996582 -4.353139877319336 -1.444800019264221
-9.300889968872070 -4.989130020141602 -1.494799971580505
-9.249890327453613 -5.256140232086182 -1.511800050735474
-9.052889823913574 -5.688129901885986 -1.541800022125244
-9.136890411376953 -5.102129936218262 -1.511800050735474
-9.283889770507813 -4.657129764556885 -1.511800050735474
-8.998889923095703 -5.437129974365234 -1.559800028800964
-8.865889549255371 -5.770140171051025 -1.581799983978272
-8.862890243530273 -5.568140029907227 -1.569800019264221
-9.112890243530273 -4.642129898071289 -1.516800045967102
-8.712889671325684 -5.839139938354492 -1.615800023078919
-9.346890449523926 -4.501130104064941 -1.554800033569336
-9.228890419006348 -4.834129810333252 -1.581799983978272
-8.828889846801758 -5.289130210876465 -1.608800053596497
-9.144889831542969 -5.363140106201172 -1.625800013542175
-9.440890312194824 -4.348130226135254 -1.567800045013428
-9.122890472412109 -5.554140090942383 -1.645799994468689
-9.207889556884766 -4.410130023956299 -1.575799942016602
-8.986889839172363 -5.227129936218262 -1.636800050735474
-9.241889953613281 -5.016139984130859 -1.648800015449524
-8.967889785766602 -5.638140201568604 -1.688799977302551
-9.008890151977539 -5.012139797210693 -1.657799959182739
-9.210889816284180 -4.579140186309815 -1.642799973487854
-8.816889762878418 -4.973130226135254 -1.680799961090088
-9.044890403747559 -4.530139923095703 -1.663800001144409
-9.128890037536621 -5.151140213012695 -1.712800025939941
-8.932889938354492 -4.840129852294922 -1.694800019264221
-8.771889686584473 -5.768129825592041 -1.758800029754639
-9.038889884948731 -5.445129871368408 -1.746799945831299
-9.136890411376953 -4.904129981994629 -1.713799953460693
-9.314889907836914 -4.339139938354492 -1.683799982070923
-9.107890129089356 -4.728139877319336 -1.715800046920776
-8.938890457153320 -4.662139892578125 -1.708799958229065
-8.657890319824219 -5.881140232086182 -1.806800007820129
-8.733889579772949 -4.840129852294922 -1.739799976348877
-8.898889541625977 -5.553130149841309 -1.828799962997437
-9.016889572143555 -5.194129943847656 -1.836799979209900
-9.137889862060547 -4.441130161285400 -1.796800017356873
-9.191889762878418 -4.265130043029785 -1.800799965858460
-9.016889572143555 -4.561140060424805 -1.835800051689148
-8.837889671325684 -4.637139797210693 -1.873800039291382
-8.909890174865723 -5.276140213012695 -1.963799953460693
-8.738889694213867 -5.589139938354492 -1.979799985885620
-9.049889564514160 -4.311140060424805 -1.904800057411194
-8.823889732360840 -5.433139801025391 -1.979799985885620
-8.951889991760254 -5.065139770507813 -1.967800021171570
-8.729889869689941 -5.798130035400391 -2.016799926757813
-8.565890312194824 -5.695129871368408 -2.005800008773804
-8.926890373229981 -4.830130100250244 -1.963799953460693
-8.586890220642090 -4.683139801025391 -1.975800037384033
-8.839889526367188 -4.704140186309815 -2.042799949645996
-8.427889823913574 -4.640130043029785 -2.035799980163574
-8.871890068054199 -4.959129810333252 -2.075799942016602
-8.863889694213867 -5.152140140533447 -2.098799943923950
-8.781889915466309 -5.336140155792236 -2.115799903869629
-8.518890380859375 -5.576129913330078 -2.123800039291382
-8.689889907836914 -5.480130195617676 -2.143800020217896
-8.699890136718750 -5.646130084991455 -2.156800031661987
-8.808890342712402 -5.781129837036133 -2.180799961090088
-8.684889793395996 -4.708129882812500 -2.115799903869629
-8.788889884948731 -4.832139968872070 -2.172800064086914
-8.520890235900879 -4.667129993438721 -2.171799898147583
-8.886890411376953 -5.655139923095703 -2.264800071716309
-8.779890060424805 -5.083129882812500 -2.230799913406372
-8.376890182495117 -4.575139999389648 -2.188800096511841
-8.775890350341797 -5.526140213012695 -2.298799991607666
-8.562890052795410 -5.586140155792236 -2.298799991607666
-8.454890251159668 -5.457139968872070 -2.287800073623657
-8.701889991760254 -5.221139907836914 -2.284800052642822
-8.613889694213867 -4.777140140533447 -2.281800031661987
-8.701889991760254 -5.678130149841309 -2.347800016403198
-8.723890304565430 -4.925129890441895 -2.298799991607666
-8.924889564514160 -5.553130149841309 -2.398799896240234
-8.687890052795410 -5.420129776000977 -2.400799989700317
-8.669890403747559 -5.095129966735840 -2.389800071716309
-8.594889640808106 -5.274129867553711 -2.407799959182739
-8.319890022277832 -4.621129989624023 -2.359800100326538
-8.380889892578125 -5.390130043029785 -2.424799919128418
-8.461890220642090 -4.744130134582520 -2.383800029754639
-8.833889961242676 -5.679140090942383 -2.464799880981445
-8.496890068054199 -5.514130115509033 -2.502799987792969
-8.629890441894531 -4.941130161285400 -2.477799892425537
-8.650890350341797 -5.602129936218262 -2.525799989700317
-8.331890106201172 -4.732130050659180 -2.489799976348877
-8.599889755249023 -5.386129856109619 -2.545799970626831
-8.877889633178711 -5.522130012512207 -2.564800024032593
-8.184889793395996 -4.604129791259766 -2.502799987792969
-8.465889930725098 -4.826129913330078 -2.530800104141235
-8.543889999389648 -5.114130020141602 -2.572799921035767
-8.743889808654785 -5.425129890441895 -2.620800018310547
-8.489890098571777 -5.266139984130859 -2.648799896240234
-8.814889907836914 -5.615129947662354 -2.689800024032593
-8.701889991760254 -5.738140106201172 -2.697799921035767
-8.555890083312988 -4.945129871368408 -2.647799968719482
-8.210889816284180 -4.707139968872070 -2.635799884796143
-8.913889884948731 -5.446139812469482 -2.710799932479858
-8.347889900207520 -4.816130161285400 -2.673799991607666
-8.475890159606934 -5.080130100250244 -2.722800016403198
-8.623889923095703 -5.308139801025391 -2.744800090789795
-8.780890464782715 -5.366129875183106 -2.780800104141235
-8.455889701843262 -4.892129898071289 -2.777800083160400
-8.954890251159668 -5.389130115509033 -2.901799917221069
-8.536890029907227 -5.218130111694336 -2.890799999237061
-8.449890136718750 -5.065139770507813 -2.890799999237061
-8.784890174865723 -5.390130043029785 -2.959800004959106
-8.358889579772949 -4.862130165100098 -2.922800064086914
-8.692890167236328 -5.240129947662354 -2.987799882888794
-8.866889953613281 -5.247129917144775 -3.004800081253052
-8.401889801025391 -4.991129875183106 -3.032799959182739
-8.532890319824219 -5.174129962921143 -3.053800106048584
-8.265890121459961 -4.851130008697510 -3.067800045013428
-8.784890174865723 -5.311140060424805 -3.147799968719482
-8.686889648437500 -5.154129981994629 -3.138799905776978
-8.963890075683594 -5.294139862060547 -3.160799980163574
-8.858889579772949 -5.161129951477051 -3.187799930572510
-8.428890228271484 -5.118130207061768 -3.171799898147583
-8.336890220642090 -4.957139968872070 -3.184799909591675
-8.568889617919922 -5.196139812469482 -3.252799987792969
-8.708889961242676 -5.059130191802979 -3.284800052642822
-8.740889549255371 -5.223130226135254 -3.297800064086914
-8.931889533996582 -5.200139999389648 -3.340800046920776
-8.848890304565430 -5.059130191802979 -3.387799978256226
-8.584890365600586 -5.614130020141602 -2.711800098419190
-8.649889945983887 -5.762139797210693 -2.854799985885620
-8.533889770507813 -5.897130012512207 -2.888799905776978
-8.749890327453613 -5.569129943847656 -2.902800083160400
-8.707889556884766 -5.757130146026611 -3.033799886703491
-8.421890258789063 -5.824130058288574 -3.032799959182739
-8.701889991760254 -5.524129867553711 -3.065799951553345
-8.554889678955078 -5.763140201568604 -3.124799966812134
-8.302889823913574 -5.767129898071289 -3.137799978256226
-8.559889793395996 -5.527140140533447 -3.158799886703491
-8.623889923095703 -5.356140136718750 -3.170799970626831
-8.422889709472656 -5.618130207061768 -3.189800024032593
-8.194890022277832 -5.791130065917969 -3.262799978256226
-8.159890174865723 -4.807129859924316 -3.194799900054932
-8.478890419006348 -5.345129966735840 -3.279799938201904
-8.301890373229981 -5.658140182495117 -3.307800054550171
-8.379890441894531 -5.492139816284180 -3.314800024032593
-8.048890113830566 -5.809130191802979 -3.354799985885620
-8.504890441894531 -5.050129890441895 -3.321799993515015
-8.246890068054199 -4.893129825592041 -3.317800045013428
-8.093890190124512 -5.554140090942383 -3.365799903869629
-8.434889793395996 -5.201129913330078 -3.390799999237061
-8.621890068054199 -4.949130058288574 -3.396800041198731
-8.359889984130859 -5.017129898071289 -3.409800052642822
-8.660889625549316 -5.164130210876465 -3.431799888610840
-8.215889930725098 -5.636129856109619 -3.453799962997437
-8.330889701843262 -5.321139812469482 -3.444799900054932
-8.041890144348145 -5.409130096435547 -3.441800117492676
-8.270890235900879 -5.478139877319336 -3.467799901962280
-7.928890228271484 -5.765130043029785 -3.476799964904785
-7.995890140533447 -5.241129875183106 -3.456799983978272
-7.953889846801758 -5.573130130767822 -3.506799936294556
-8.870889663696289 -5.210140228271484 -3.513799905776978
-8.774889945983887 -4.929140090942383 -3.505800008773804
-8.475890159606934 -4.907129764556885 -3.516799926757813
-8.530890464782715 -5.124139785766602 -3.551800012588501
-8.360890388488770 -5.130139827728272 -3.565799951553345
-8.220890045166016 -5.238140106201172 -3.569799900054932
-8.313890457153320 -4.923130035400391 -3.554800033569336
-7.941889762878418 -5.381140232086182 -3.577800035476685
-8.715889930725098 -5.183139801025391 -3.591799974441528
-8.176890373229981 -5.416130065917969 -3.595799922943115
-7.918889999389648 -5.151140213012695 -3.576800107955933
-7.768889904022217 -5.741129875183106 -3.621799945831299
-8.636890411376953 -4.891139984130859 -3.594799995422363
-7.935890197753906 -5.689139842987061 -3.627799987792969
-8.092889785766602 -5.558139801025391 -3.625799894332886
-7.800889968872070 -5.576129913330078 -3.630800008773804
-8.853890419006348 -5.298130035400391 -3.659800052642822
-8.072890281677246 -5.298130035400391 -3.661799907684326
-7.771890163421631 -5.412139892578125 -3.681799888610840
-8.136890411376953 -5.136129856109619 -3.685800075531006
-8.444890022277832 -4.912139892578125 -3.683799982070923
-7.838890075683594 -5.257130146026611 -3.692800045013428
-8.605890274047852 -5.163129806518555 -3.715800046920776
-8.443889617919922 -5.110139846801758 -3.714799880981445
-8.280890464782715 -4.850130081176758 -3.709800004959106
-7.972889900207520 -5.573130130767822 -3.749799966812134
-8.099889755249023 -4.806129932403565 -3.716799974441528
-8.798890113830566 -5.377140045166016 -3.824800014495850
-8.625889778137207 -5.314139842987061 -3.834800004959106
-8.022890090942383 -5.428130149841309 -3.823800086975098
-7.964890003204346 -5.263140201568604 -3.823800086975098
-8.557889938354492 -4.886129856109619 -3.829799890518189
-8.520890235900879 -5.184130191802979 -3.859800100326538
-8.238889694213867 -5.086140155792236 -3.852799892425537
-8.065890312194824 -5.083129882812500 -3.858799934387207
-8.329890251159668 -4.899129867553711 -3.871799945831299
-8.694890022277832 -5.417129993438721 -3.950799942016602
-8.176890373229981 -4.835140228271484 -3.894799947738648
-8.557889938354492 -5.520140171051025 -3.968800067901611
-8.365889549255371 -5.147130012512207 -3.950799942016602
-8.466890335083008 -4.921130180358887 -3.975800037384033
-8.483889579772949 -5.263140201568604 -4.003799915313721
-8.026889801025391 -4.796130180358887 -3.962800025939941
-8.137889862060547 -5.111130237579346 -4.015799999237061
-8.280890464782715 -4.898139953613281 -4.032800197601318
-8.602890014648438 -5.373139858245850 -4.083799839019775
-7.976890087127686 -5.077129840850830 -4.072800159454346
-8.382889747619629 -5.348130226135254 -4.117800235748291
-8.476889610290527 -5.492139816284180 -4.132800102233887
-8.290889739990234 -5.201129913330078 -4.124800205230713
-8.121890068054199 -4.794139862060547 -4.106800079345703
-8.409890174865723 -4.963129997253418 -4.136799812316895
-8.516889572143555 -5.250130176544190 -4.205800056457520
-8.103890419006348 -5.166130065917969 -4.240799903869629
-7.920889854431152 -5.053130149841309 -4.228799819946289
-8.238889694213867 -4.852129936218262 -4.232800006866455
-8.332889556884766 -5.494130134582520 -4.296800136566162
-8.224889755249023 -5.291130065917969 -4.280799865722656
-8.005889892578125 -4.692130088806152 -4.237800121307373
-8.203889846801758 -5.600130081176758 -4.306799888610840
-8.419890403747559 -5.151140213012695 -4.298799991607666
-8.395890235900879 -5.334129810333252 -4.310800075531006
-8.343890190124512 -4.999139785766602 -4.286799907684326
-7.972889900207520 -5.161129951477051 -4.355800151824951
-8.107890129089356 -5.352129936218262 -4.391799926757813
-8.129890441894531 -4.742139816284180 -4.355800151824951
-8.310890197753906 -5.219130039215088 -4.405799865722656
-8.077890396118164 -5.638140201568604 -4.427800178527832
-7.913889884948731 -4.602129936218262 -4.366799831390381
-8.204890251159668 -4.887139797210693 -4.399799823760986
-8.269889831542969 -5.390130043029785 -4.456799983978272
-8.249890327453613 -5.056129932403565 -4.443799972534180
-7.929890155792236 -5.700139999389648 -4.499800205230713
-7.840889930725098 -5.223130226135254 -4.469799995422363
-7.984889984130859 -5.478139877319336 -4.507800102233887
-8.028889656066895 -4.672140121459961 -4.470799922943115
-7.997889995574951 -5.265130043029785 -4.512800216674805
-8.168889999389648 -5.497129917144775 -4.541800022125244
-8.196889877319336 -5.201129913330078 -4.528800010681152
-8.130889892578125 -4.791130065917969 -4.527800083160400
-8.146889686584473 -4.958129882812500 -4.557799816131592
-7.843890190124512 -5.531129837036133 -4.594799995422363
-7.887889862060547 -4.605130195617676 -4.537799835205078
-7.782889842987061 -5.686140060424805 -4.613800048828125
-7.905889987945557 -5.362130165100098 -4.615799903869629
-8.049889564514160 -5.562129974365234 -4.638800144195557
-8.092889785766602 -5.341129779815674 -4.651800155639648
-7.763889789581299 -4.511129856109619 -4.597799777984619
-8.072890281677246 -5.102129936218262 -4.649799823760986
-7.609889984130859 -4.429140090942383 -4.591800212860107
-8.041890144348145 -4.714139938354492 -4.649799823760986
-7.980889797210693 -5.259140014648438 -4.751800060272217
-7.852890014648438 -5.536129951477051 -4.766799926757813
-7.997889995574951 -5.443140029907227 -4.766799926757813
-7.941889762878418 -4.995140075683594 -4.771800041198731
-8.051890373229981 -4.847129821777344 -4.772799968719482
-7.819890022277832 -4.602129936218262 -4.765799999237061
-7.656889915466309 -4.531129837036133 -4.773799896240234
-7.959889888763428 -4.708129882812500 -4.822800159454346
-7.894889831542969 -5.348130226135254 -4.868800163269043
-7.853889942169190 -5.180130004882813 -4.866799831390381
-7.525889873504639 -4.530139923095703 -4.879799842834473
-7.983890056610107 -4.844130039215088 -4.939799785614014
-7.768889904022217 -4.614130020141602 -4.933800220489502
-7.870890140533447 -4.962130069732666 -4.980800151824951
-7.895890235900879 -4.706130027770996 -4.996799945831299
-7.599890232086182 -4.542129993438721 -5.039800167083740
-7.424890041351318 -4.542129993438721 -5.101799964904785
-7.940889835357666 -4.840129852294922 -5.145800113677979
-7.748889923095703 -4.597129821777344 -5.142799854278565
-7.815889835357666 -4.949130058288574 -5.190800189971924
-7.874889850616455 -4.694129943847656 -5.207799911499023
-7.568890094757080 -4.536129951477051 -5.229800224304199
-7.884890079498291 -4.836140155792236 -5.305799961090088
-7.751890182495117 -4.973130226135254 -5.353799819946289
-7.714890003204346 -4.580130100250244 -5.333799839019775
-7.865890026092529 -4.691130161285400 -5.408800125122070
-8.255889892578125 -4.558139801025391 -1.849799990653992
-8.160889625549316 -4.673130035400391 -1.956799983978272
-8.154890060424805 -4.463129997253418 -1.960800051689148
-8.170889854431152 -4.258130073547363 -1.959800004959106
-8.292889595031738 -4.540140151977539 -2.031800031661987
-8.033889770507813 -4.376130104064941 -2.045799970626831
-8.057889938354492 -4.661129951477051 -2.102799892425537
-8.235890388488770 -4.395140171051025 -2.097800016403198
-7.908889770507813 -4.497129917144775 -2.110800027847290
-8.083889961242676 -4.830130100250244 -2.139800071716309
-7.747889995574951 -4.588129997253418 -2.149800062179565
-7.896890163421631 -4.700139999389648 -2.162800073623657
-7.926889896392822 -4.276140213012695 -2.147799968719482
-7.774889945983887 -4.392129898071289 -2.158799886703491
-7.607890129089356 -4.490129947662354 -2.184799909591675
-8.093890190124512 -4.277140140533447 -2.203799962997437
-7.939889907836914 -4.861130237579346 -2.251800060272217
-7.452889919281006 -4.565139770507813 -2.226799964904785
-8.266889572143555 -4.454140186309815 -2.259799957275391
-7.791890144348145 -4.252140045166016 -2.248800039291382
-7.636889934539795 -4.327129840850830 -2.261800050735474
-8.169890403747559 -4.355130195617676 -2.353800058364868
-8.027890205383301 -4.251130104064941 -2.357800006866455
-7.506889820098877 -4.347129821777344 -2.381799936294556
-7.355889797210693 -4.453139781951904 -2.395800113677979
-7.689889907836914 -4.202129840850830 -2.426800012588501
-8.114890098571777 -4.449130058288574 -2.490799903869629
-7.875889778137207 -4.218130111694336 -2.496799945831299
-8.040889739990234 -4.308139801025391 -2.541800022125244
-7.400889873504639 -4.342140197753906 -2.535799980163574
-7.554890155792236 -4.252140045166016 -2.539799928665161
-7.242889881134033 -4.421130180358887 -2.546799898147583
-7.746890068054199 -4.120140075683594 -2.560800075531006
-8.106889724731445 -4.533140182495117 -2.648799896240234
-7.955890178680420 -4.226130008697510 -2.687799930572510
-8.035889625549316 -4.386129856109619 -2.711800098419190
-7.139890193939209 -4.404129981994629 -2.682800054550171
-7.455890178680420 -4.258130073547363 -2.693799972534180
-7.609889984130859 -4.161129951477051 -2.701800107955933
-7.832890033721924 -4.112130165100098 -2.719799995422363
-7.292890071868897 -4.328139781951904 -2.717799901962280
-8.144889831542969 -4.637139797210693 -2.782799959182739
-6.996890068054199 -4.454140186309815 -2.762799978256226
-8.211890220642090 -4.770140171051025 -2.894799947738648
-7.701889991760254 -4.141139984130859 -2.839799880981445
-7.312890052795410 -4.295129776000977 -2.892800092697144
-7.488890171051025 -4.240129947662354 -2.899800062179565
-7.936890125274658 -4.069129943847656 -2.916800022125244
-8.102890014648438 -4.487130165100098 -2.952800035476685
-7.147890090942383 -4.363140106201172 -2.922800064086914
-8.079890251159668 -4.302130222320557 -2.953799962997437
-8.149889945983887 -4.652140140533447 -3.012799978256226
-7.621890068054199 -4.166130065917969 -3.000799894332886
-7.793889999389648 -4.092140197753906 -3.008800029754639
-8.052889823913574 -4.141139984130859 -3.029799938201904
-7.394889831542969 -4.236130237579346 -3.038800001144409
-7.236889839172363 -4.320129871368408 -3.081799983978272
-8.116889953613281 -4.510129928588867 -3.131799936294556
-8.100890159606934 -4.305130004882813 -3.130800008773804
-7.955890178680420 -4.027140140533447 -3.115799903869629
-8.141889572143555 -4.036129951477051 -3.123800039291382
-7.547890186309815 -4.171130180358887 -3.150799989700317
-7.706890106201172 -4.106140136718750 -3.151799917221069
-7.114890098571777 -4.412139892578125 -3.157799959182739
-8.138890266418457 -4.575139999389648 -3.288800001144409
-7.845890045166016 -4.056129932403565 -3.244800090789795
-8.057889938354492 -4.000130176544190 -3.268800020217896
-8.106889724731445 -4.379129886627197 -3.299799919128418
-7.317890167236328 -4.310130119323731 -3.269799947738648
-8.229889869689941 -4.043129920959473 -3.287800073623657
-8.154890060424805 -4.209129810333252 -3.317800045013428
-7.463890075683594 -4.225130081176758 -3.321799993515015
-7.193890094757080 -4.454140186309815 -3.336800098419190
-8.100890159606934 -4.710140228271484 -3.410799980163574
-7.683889865875244 -4.107130050659180 -3.383800029754639
-8.121890068054199 -4.494130134582520 -3.437799930572510
-8.150890350341797 -4.851130008697510 -3.496799945831299
-7.380889892578125 -4.320129871368408 -3.436800003051758
-7.555890083312988 -4.186140060424805 -3.456799983978272
-7.954889774322510 -4.005139827728272 -3.458800077438355
-8.279890060424805 -4.036129951477051 -3.472800016403198
-8.169890403747559 -4.173130035400391 -3.482800006866455
-8.118889808654785 -3.979130029678345 -3.491800069808960
-7.272890090942383 -4.470129966735840 -3.503799915313721
-7.798890113830566 -4.054140090942383 -3.497800111770630
-8.132889747619629 -4.327129840850830 -3.535799980163574
-8.066889762878418 -4.671130180358887 -3.586800098419190
-8.107890129089356 -4.480130195617676 -3.606800079345703
-7.670889854431152 -4.121129989624023 -3.583800077438355
-7.456890106201172 -4.302130222320557 -3.627799987792969
-8.210889816284180 -4.042129993438721 -3.646800041198731
-7.347889900207520 -4.431129932403565 -3.659800052642822
-7.265890121459961 -4.578139781951904 -3.667799949645996
-8.036890029907227 -3.962130069732666 -3.654799938201904
-7.839890003204346 -4.022130012512207 -3.660799980163574
-8.146889686584473 -4.266139984130859 -3.695800065994263
-7.572889804840088 -4.196139812469482 -3.699800014495850
-8.064889907836914 -4.552130222320557 -3.824800014495850
-8.122890472412109 -4.372129917144775 -3.825799942016602
-7.410890102386475 -4.402140140533447 -3.829799890518189
-7.287889957427979 -4.614130020141602 -3.843800067901611
-8.044890403747559 -3.967139959335327 -3.829799890518189
-8.089889526367188 -4.201129913330078 -3.850800037384033
-7.852890014648438 -3.992140054702759 -3.828799962997437
-7.704889774322510 -4.072140216827393 -3.831799983978272
-7.525889873504639 -4.261129856109619 -3.866800069808960
-7.999889850616455 -4.592140197753906 -3.973799943923950
-8.028889656066895 -4.408140182495117 -3.964799880981445
-7.612889766693115 -4.148139953613281 -3.953799962997437
-7.915890216827393 -4.068140029907227 -3.964799880981445
-7.991889953613281 -4.229129791259766 -3.985800027847290
-7.358890056610107 -4.520140171051025 -3.992799997329712
-7.767889976501465 -3.997129917144775 -4.002799987792969
-7.474890232086182 -4.356140136718750 -4.037799835205078
-7.962890148162842 -4.509140014648438 -4.115799903869629
-7.943890094757080 -4.342140197753906 -4.110799789428711
-7.559889793395996 -4.218130111694336 -4.098800182342529
-7.864890098571777 -4.192130088806152 -4.116799831390381
-7.295889854431152 -4.605130195617676 -4.133800029754639
-7.689889907836914 -4.112130165100098 -4.114799976348877
-7.380889892578125 -4.442130088806152 -4.146800041198731
-7.455890178680420 -4.290140151977539 -4.211800098419190
-7.874889850616455 -4.412139892578125 -4.272799968719482
-7.767889976501465 -4.267129898071289 -4.271800041198731
-7.302889823913574 -4.507130146026611 -4.280799865722656
-7.218890190124512 -4.651140213012695 -4.323800086975098
-7.611889839172363 -4.225130081176758 -4.322800159454346
-7.367889881134033 -4.361130237579346 -4.357800006866455
-7.796889781951904 -4.478139877319336 -4.426799774169922
-7.668889999389648 -4.350130081176758 -4.439799785614014
-7.501890182495117 -4.333129882812500 -4.459799766540527
-7.177889823913574 -4.623139858245850 -4.491799831390381
-7.275889873504639 -4.463129997253418 -4.486800193786621
-7.396890163421631 -4.409130096435547 -4.596799850463867
-7.117889881134033 -4.642129898071289 -4.657800197601318
-7.427889823913574 -4.483129978179932 -4.752799987792969
-7.224890232086182 -4.545129776000977 -4.756800174713135
-7.128890037536621 -4.637139797210693 -4.863800048828125
-7.330890178680420 -4.542129993438721 -4.885799884796143
-7.254889965057373 -4.578139781951904 -5.035799980163574
-7.106890201568604 -4.680130004882813 -5.042799949645996
-7.015890121459961 -4.842140197753906 -5.069799900054932
-7.212890148162842 -4.611130237579346 -5.209799766540527
-7.071889877319336 -4.690139770507813 -5.264800071716309
-7.381889820098877 -4.562129974365234 -5.273799896240234
-7.173890113830566 -4.607130050659180 -5.372799873352051
-6.987889766693115 -4.641139984130859 -5.425799846649170
-7.409890174865723 -4.588129997253418 -5.475800037384033
-7.586890220642090 -4.581130027770996 -5.485799789428711
-7.745890140533447 -4.623139858245850 -5.525800228118897
-7.549890041351318 -4.517129898071289 -5.683800220489502
-7.709889888763428 -4.470129966735840 -5.774799823760986
-7.464890003204346 -4.458129882812500 -5.814799785614014
-7.777890205383301 -4.582139968872070 -5.904799938201904
-7.591889858245850 -4.506140232086182 -5.932799816131592
-7.474890232086182 -4.550129890441895 -6.048799991607666
-7.818890094757080 -4.618130207061768 -6.083799839019775
-7.690889835357666 -4.573130130767822 -6.187799930572510
-7.527890205383301 -4.613140106201172 -6.216800212860107
-7.848889827728272 -4.531129837036133 -6.251800060272217
-7.662889957427979 -4.561140060424805 -6.352799892425537
-8.437890052795410 -5.660130023956299 -2.641799926757813
-8.307889938354492 -5.802130222320557 -2.661799907684326
-8.162890434265137 -5.491129875183106 -2.642800092697144
-8.253890037536621 -5.642129898071289 -2.663800001144409
-8.443889617919922 -5.793129920959473 -2.773799896240234
-8.207889556884766 -5.348130226135254 -2.742799997329712
-8.283889770507813 -5.489130020141602 -2.800800085067749
-8.356889724731445 -5.637139797210693 -2.842799901962280
-8.381890296936035 -5.466129779815674 -2.938800096511841
-8.094889640808106 -5.266139984130859 -2.917799949645996
-8.251890182495117 -5.347129821777344 -2.928800106048584
-8.423890113830566 -5.632130146026611 -3.000799894332886
-8.301890373229981 -5.460140228271484 -3.098799943923950
-8.196889877319336 -5.329140186309815 -3.086800098419190
-7.984889984130859 -5.082139968872070 -3.077800035476685
-8.046890258789063 -5.246129989624023 -3.106800079345703
-8.216890335083008 -5.458129882812500 -3.247800111770630
-7.955890178680420 -5.035130023956299 -3.240799903869629
-7.994890213012695 -5.202129840850830 -3.260799884796143
-8.122890472412109 -5.317130088806152 -3.293800115585327
