ply
format ascii 1.0
element vertex 388
property double x
property double y
property double z
end_header
6.181540012359619 19.870500564575195 45.260200500488281
6.320620059967041 20.790199279785156 45.828399658203125
7.243730068206787 20.410999298095703 44.778099060058594
5.807960033416748 20.796100616455078 46.822898864746094
7.837329864501953 20.725799560546875 45.361198425292969
6.726550102233887 21.392400741577148 46.250598907470703
5.642010211944580 19.761499404907227 47.333400726318359
7.723370075225830 21.498500823974609 46.182498931884766
6.125609874725342 19.187599182128906 47.874401092529297
7.323100090026856 21.777000427246094 46.836200714111328
6.024400234222412 21.704999923706055 47.395900726318359
5.512350082397461 20.820699691772461 47.844001770019531
5.846000194549561 19.819799423217773 48.314201354980469
6.299839973449707 22.303100585937500 47.818199157714844
6.392350196838379 19.360099792480469 48.797401428222656
5.670219898223877 21.855800628662109 48.276199340820312
7.202350139617920 22.495399475097656 47.701301574707031
7.080150127410889 19.009799957275391 48.969001770019531
5.341849803924561 21.298599243164063 48.825599670410156
5.829020023345947 20.307699203491211 49.318298339843750
6.769249916076660 22.841699600219727 48.295600891113281
6.401460170745850 19.882200241088867 49.777599334716797
6.062009811401367 22.942300796508789 48.691600799560547
5.565760135650635 20.905599594116211 49.783798217773438
7.139729976654053 19.509000778198242 49.988800048828125
5.235469818115234 21.779600143432617 49.822200775146484
5.480219841003418 22.774099349975586 49.358798980712891
6.070350170135498 20.559600830078125 50.442401885986328
7.353499889373779 19.910499572753906 50.749298095703125
6.367919921875000 23.757200241088867 49.355499267578125
5.502399921417236 21.419200897216797 50.771999359130859
5.135200023651123 22.795400619506836 50.293598175048828
5.142930030822754 22.239900588989258 50.832500457763672
6.104529857635498 21.058399200439453 51.456001281738281
6.771570205688477 24.330699920654297 49.798999786376953
8.274740219116211 20.146499633789063 51.430599212646484
6.819920063018799 20.809700012207031 51.814998626708984
5.927869796752930 24.230699539184570 50.376399993896484
5.230279922485352 23.817800521850586 50.798099517822266
7.760580062866211 20.592100143432617 51.959499359130859
5.262599945068359 22.266300201416016 51.836799621582031
4.946469783782959 23.307600021362305 51.332401275634766
8.767629623413086 20.555599212646484 52.002998352050781
5.808899879455566 21.792900085449219 52.325099945068359
7.213429927825928 21.061100006103516 52.473201751708984
6.208230018615723 24.875600814819336 50.762699127197266
6.444570064544678 21.521600723266602 52.681598663330078
5.481760025024414 24.703300476074219 51.380901336669922
8.787549972534180 21.093399047851563 52.603401184082031
9.797010421752930 20.875900268554688 52.244400024414062
5.467609882354736 22.407300949096680 52.766399383544922
4.858210086822510 23.307600021362305 52.321399688720703
4.971330165863037 24.294500350952148 51.846099853515625
7.355480194091797 21.511100769042969 53.171798706054688
8.304940223693848 21.473699569702148 53.201698303222656
6.219999790191650 22.152500152587891 53.415500640869141
9.352620124816895 21.609899520874023 52.965000152587891
5.135419845581055 23.187400817871094 53.377899169921875
6.358630180358887 25.739400863647461 51.862899780273438
4.704989910125732 24.280500411987305 52.817298889160156
5.570930004119873 25.449399948120117 52.196601867675781
7.256149768829346 22.095500946044922 53.955398559570313
5.769470214843750 22.749099731445313 53.852100372314453
9.259510040283203 22.051399230957031 53.636001586914062
4.658130168914795 25.288600921630859 53.301498413085938
5.276390075683594 25.803400039672852 52.813999176025391
4.543340206146240 24.719999313354492 53.837898254394531
4.895780086517334 23.835599899291992 53.807800292968750
4.513720035552979 25.813999176025391 53.854598999023438
6.258430004119873 26.006500244140625 52.688098907470703
5.694630146026611 26.489400863647461 53.199501037597656
5.402530193328857 23.370000839233398 54.282299041748047
4.404819965362549 25.321899414062500 54.824001312255859
5.064360141754150 24.112800598144531 54.930099487304688
6.787670135498047 26.419399261474609 53.240898132324219
4.763100147247315 24.766599655151367 55.337600708007813
4.817359924316406 26.791700363159180 54.327301025390625
6.327360153198242 26.753200531005859 53.847698211669922
4.330230236053467 26.298000335693359 54.825599670410156
6.032370090484619 23.067499160766602 54.649200439453125
5.468239784240723 27.151800155639648 53.943500518798828
5.749780178070068 23.719800949096680 55.371398925781250
5.341969966888428 24.324300765991211 55.805698394775391
4.499040126800537 25.415399551391602 55.763099670410156
6.706379890441895 22.578500747680664 54.465801239013672
7.876619815826416 26.361299514770508 53.824600219726563
5.012129783630371 24.945100784301758 56.238498687744141
6.859489917755127 23.002799987792969 55.175201416015625
4.188710212707520 26.255599975585938 55.830200195312500
5.018519878387451 27.583900451660156 55.013900756835938
4.342710018157959 27.294399261474609 55.329200744628906
7.357789993286133 26.878200531005859 54.840801239013672
6.746409893035889 23.606700897216797 55.956798553466797
6.230700016021729 24.142900466918945 56.429199218750000
8.486100196838379 26.008600234985352 54.333801269531250
5.739419937133789 24.700799942016602 56.886600494384766
7.805329799652100 22.903499603271484 55.243900299072266
4.106979846954346 26.865200042724609 56.319099426269531
7.994170188903809 26.604799270629883 55.328201293945313
4.670859813690186 27.883100509643555 55.702301025390625
8.274749755859375 22.537700653076172 54.648700714111328
5.339650154113770 28.267999649047852 55.355899810791016
4.283329963684082 26.281499862670898 56.828498840332031
8.327580451965332 22.048299789428711 53.992401123046875
9.312049865722656 25.295600891113281 54.323200225830078
8.286829948425293 23.376600265502930 55.757499694824219
7.814980030059815 23.754499435424805 56.357200622558594
8.719420433044434 23.124599456787109 55.088199615478516
4.801549911499023 25.787000656127930 57.328399658203125
7.297810077667236 24.151199340820313 56.935001373291016
9.118009567260742 24.787399291992188 55.219100952148437
7.782199859619141 27.280000686645508 55.827400207519531
9.136750221252441 23.892900466918945 55.169101715087891
8.801659584045410 25.294500350952148 55.820800781250000
4.133480072021484 27.822999954223633 56.361900329589844
8.591400146484375 26.242799758911133 55.804599761962891
6.758989810943604 24.603000640869141 57.457599639892578
8.689140319824219 24.021900177001953 56.117500305175781
5.437980175018311 25.446699142456055 57.727298736572266
9.347649574279785 22.725999832153320 54.385101318359375
9.856730461120606 23.768499374389648 54.366100311279297
8.390230178833008 26.836799621582031 56.324298858642578
6.232759952545166 25.127599716186523 57.937000274658203
4.473589897155762 26.416900634765625 57.759201049804687
3.960289955139160 27.332599639892578 57.325401306152344
8.265060424804688 24.532600402832031 57.121898651123047
5.167799949645996 28.940099716186523 56.146400451660156
8.682579994201660 25.292200088500977 56.798801422119141
4.484560012817383 28.647899627685547 56.504901885986328
7.793869972229004 24.913000106811523 57.737899780273438
5.148429870605469 26.094200134277344 58.443099975585937
7.590360164642334 28.159200668334961 56.851699829101563
8.583869934082031 25.791200637817383 57.400299072265625
8.394880294799805 26.822700500488281 57.329498291015625
7.310029983520508 25.221300125122070 58.375198364257813
5.850540161132813 25.875900268554688 58.771400451660156
4.180980205535889 27.211900711059570 58.361301422119141
8.080780029296875 27.702400207519531 57.328201293945313
8.267550468444824 25.446100234985352 58.214599609375000
3.851939916610718 28.301900863647461 57.826198577880859
4.741710186004639 26.732700347900391 58.859901428222656
6.797170162200928 25.684299468994141 58.904701232910156
4.577690124511719 29.222499847412109 57.400199890136719
7.791289806365967 25.874700546264648 58.764701843261719
5.405350208282471 26.403799057006836 59.254600524902344
8.369310379028320 26.807699203491211 58.328201293945313
7.295879840850830 28.776899337768555 57.825199127197266
6.284659862518311 26.186800003051758 59.397499084472656
3.910959959030151 27.839700698852539 58.809600830078125
4.367869853973389 27.338199615478516 59.299598693847656
7.313739776611328 26.275899887084961 59.338500976562500
7.925869941711426 28.358800888061523 58.308300018310547
8.140069961547852 26.583900451660156 59.114498138427734
4.987619876861572 26.969999313354492 59.714801788330078
7.004240036010742 29.600799560546875 57.908199310302734
8.159990310668945 27.754699707031250 58.819099426269531
5.736489772796631 26.644599914550781 59.922901153564453
3.669179916381836 28.767999649047852 58.818099975585938
4.444550037384033 30.260700225830078 57.874298095703125
6.813930034637451 26.643600463867188 59.935100555419922
4.058569908142090 29.750799179077148 58.370800018310547
7.782380104064941 26.868099212646484 59.768100738525391
7.603479862213135 29.202100753784180 58.850399017333984
4.047500133514404 28.117099761962891 59.923500061035156
8.028929710388184 28.372200012207031 59.307598114013672
4.692810058593750 27.671699523925781 60.398399353027344
8.175530433654785 27.773599624633789 59.817600250244141
7.049880027770996 30.117000579833984 58.884300231933594
5.391049861907959 27.419700622558594 60.742000579833984
6.288090229034424 27.177000045776367 60.910999298095703
3.593950033187866 29.380500793457031 59.812801361083984
4.280399799346924 30.808500289916992 58.808799743652344
7.270380020141602 27.506099700927734 60.687900543212891
3.821700096130371 28.800399780273437 60.321201324462891
3.801609992980957 30.298599243164063 59.320400238037109
7.757019996643066 29.274700164794922 59.827400207519531
4.333869934082031 28.312299728393555 60.813800811767578
5.009880065917969 28.024499893188477 61.182800292968750
6.706079959869385 30.721099853515625 59.349998474121094
5.811590194702148 27.794300079345703 61.324699401855469
7.215670108795166 30.243799209594727 59.835399627685547
6.812270164489746 27.746200561523438 61.357200622558594
4.045189857482910 31.203599929809570 59.444900512695313
7.759119987487793 28.005500793457031 61.184898376464844
3.546540021896362 29.669000625610352 60.873798370361328
3.484989881515503 30.330200195312500 60.337600708007813
4.024600028991699 28.941999435424805 61.246498107910156
3.358939886093140 30.308900833129883 61.320400238037109
3.707710027694702 29.731899261474609 61.860000610351562
3.696480035781860 31.351200103759766 60.276100158691406
4.750199794769287 28.707799911499023 61.880599975585937
4.319509983062744 29.303800582885742 62.318401336669922
3.262609958648682 31.293199539184570 61.319801330566406
3.307080030441284 30.793899536132813 62.324298858642578
3.754709959030151 30.249300003051758 62.851398468017578
5.375669956207275 28.959699630737305 62.706501007080078
4.345819950103760 32.277999877929688 60.836200714111328
5.853419780731201 28.456800460815430 62.215198516845703
4.389639854431152 29.889600753784180 63.261699676513672
3.515409946441650 32.258300781250000 61.355300903320313
6.643559932708740 31.158399581909180 60.368598937988281
6.273849964141846 31.764600753784180 60.833999633789063
3.104959964752197 31.777200698852539 62.312400817871094
5.230370044708252 29.621799468994141 63.448299407958984
3.433890104293823 30.893299102783203 63.267700195312500
6.846099853515625 31.321100234985352 61.303398132324219
7.263269901275635 30.777099609375000 60.829498291015625
3.984659910202026 30.490999221801758 63.700000762939453
6.306610107421875 28.746799468994141 62.859199523925781
6.812699794769287 28.424499511718750 62.233501434326172
4.756249904632568 30.191400527954102 63.894001007080078
7.539969921112061 30.212600708007812 61.319999694824219
7.348609924316406 30.816699981689453 61.818500518798828
4.463049888610840 33.202999114990234 61.410198211669922
3.047080039978027 31.694000244140625 63.360401153564453
7.034259796142578 31.418500900268555 62.321601867675781
3.252769947052002 32.801898956298828 62.310798645019531
7.826320171356201 29.299800872802734 61.324501037597656
6.313529968261719 29.521900177001953 63.656600952148438
7.297440052032471 28.981100082397461 62.689899444580078
6.646599769592285 32.191398620605469 62.377601623535156
5.831920146942139 30.001499176025391 64.167900085449219
7.384170055389404 30.827899932861328 62.827598571777344
7.586190223693848 29.753900527954102 62.786998748779297
3.449019908905029 31.417999267578125 64.245597839355469
4.117760181427002 30.994400024414063 64.526802062988281
6.906070232391357 31.838300704956055 63.315601348876953
2.906939983367920 32.801101684570313 63.336299896240234
6.742609977722168 30.031099319458008 64.158203125000000
4.827410221099854 30.827299118041992 64.802696228027344
6.162630081176758 33.199298858642578 62.858699798583984
6.523620128631592 32.692401885986328 63.357898712158203
5.788949966430664 30.666700363159180 64.918098449707031
3.421250104904175 33.747299194335937 62.874599456787109
2.820930004119873 32.797401428222656 64.323600769042969
3.148159980773926 32.187000274658203 64.888198852539062
5.262030124664307 31.143100738525391 65.434303283691406
3.774719953536987 31.749799728393555 65.352302551269531
6.734419822692871 32.760898590087891 64.330200195312500
7.096930027008057 31.014099121093750 65.096397399902344
5.584469795227051 34.100200653076172 63.897800445556641
6.314239978790283 31.058500289916992 65.650199890136719
4.763380050659180 31.683399200439453 65.906303405761719
3.244220018386841 34.321800231933594 63.798099517822266
2.714329957962036 33.795200347900391 64.307098388671875
6.214300155639648 33.728500366210938 64.340400695800781
2.909830093383789 32.838100433349609 65.308097839355469
3.379529953002930 32.354698181152344 65.790496826171875
5.834370136260986 31.541000366210938 66.149597167968750
4.274859905242920 32.226398468017578 66.372497558593750
6.608459949493408 33.202800750732422 65.341300964355469
6.774010181427002 31.613199234008789 66.083999633789063
2.600559949874878 33.733699798583984 65.331398010253906
5.360660076141357 32.020099639892578 66.663696289062500
5.287779808044434 34.774299621582031 64.829101562500000
6.328020095825195 32.030799865722656 66.646102905273437
5.972909927368164 34.382701873779297 65.296897888183594
2.859119892120361 33.322898864746094 66.310897827148437
6.422989845275879 33.834201812744141 65.811698913574219
3.811160087585449 32.793998718261719 66.824699401855469
3.250969886779785 35.341701507568359 64.797401428222656
4.887469768524170 32.597499847412109 67.143203735351563
2.452150106430054 34.804798126220703 65.343101501464844
5.792059898376465 32.690700531005859 67.401397705078125
4.189829826354981 33.085800170898437 67.466499328613281
3.371979951858521 33.355598449707031 67.286903381347656
2.591249942779541 34.187698364257813 66.867698669433594
2.316179990768433 34.796600341796875 66.323600769042969
6.253190040588379 34.276100158691406 66.823898315429687
5.960480213165283 35.342700958251953 66.331703186035156
2.548729896545410 35.783000946044922 65.862602233886719
4.882730007171631 33.074699401855469 68.191299438476563
3.694180011749268 33.637599945068359 67.929397583007812
5.795159816741943 33.196399688720703 68.078201293945313
2.985419988632202 33.927101135253906 67.749099731445313
6.042880058288574 34.874099731445313 67.315696716308594
2.357909917831421 34.811000823974609 67.319602966308594
4.434710025787354 33.611198425292969 68.626701354980469
2.164829969406128 35.784000396728516 66.813697814941406
5.365059852600098 33.481800079345703 68.713897705078125
5.656640052795410 35.733100891113281 67.327796936035156
2.473759889602661 36.784400939941406 66.349098205566406
2.669610023498535 34.699798583984375 68.373901367187500
2.396879911422730 35.341098785400391 68.802299499511719
3.301959991455078 34.783199310302734 69.331703186035156
3.760699987411499 34.217098236083984 68.876602172851563
2.064650058746338 35.727699279785156 67.834899902343750
2.912519931793213 35.389499664306641 69.768600463867188
2.045000076293945 36.168899536132813 68.875396728515625
3.629240036010742 35.032100677490234 69.993202209472656
4.738580226898193 34.145301818847656 69.429397583007813
1.880089998245239 36.803699493408203 68.328002929687500
2.109179973602295 36.809799194335938 67.347396850585938
2.040400028228760 36.380500793457031 69.787803649902344
4.322859764099121 34.816299438476563 70.310203552246094
3.509449958801270 35.576000213623047 70.644798278808594
2.629750013351440 36.111099243164063 70.439598083496094
5.617259979248047 36.213100433349609 68.341400146484375
5.985620021820068 35.364799499511719 68.304801940917969
5.396570205688477 36.847698211669922 68.816703796386719
1.735550045967102 37.282398223876953 69.322998046875000
5.698740005493164 36.250999450683594 69.331901550292969
1.910369992256165 37.797298431396484 68.342102050781250
6.065849781036377 35.256599426269531 69.793296813964844
2.287300109863281 36.776298522949219 70.834396362304688
5.497409820556641 36.895401000976563 69.804000854492188
3.294850111007690 36.271499633789063 71.339797973632813
4.891250133514404 35.061901092529297 71.163803100585938
1.781759977340698 37.286399841308594 70.327201843261719
4.253749847412109 35.709598541259766 71.376998901367187
5.100150108337402 37.684501647949219 69.335502624511719
5.822770118713379 36.298999786376953 70.324203491210938
1.622179985046387 38.275901794433594 69.809097290039063
2.863320112228394 36.858600616455078 71.783599853515625
1.774019956588745 38.795200347900391 68.817398071289063
3.620480060577393 36.509101867675781 72.016799926757813
4.806079864501953 38.291500091552734 70.324798583984375
5.200339794158936 37.726699829101563 70.839500427246094
4.451379776000977 36.016700744628906 72.186798095703125
1.933740019798279 37.552398681640625 71.456497192382813
5.644430160522461 36.739299774169922 71.320297241210937
1.591050028800964 38.226001739501953 70.850402832031250
1.484580039978027 38.825500488281250 70.338996887207031
4.434569835662842 38.878501892089844 70.795700073242188
3.473570108413696 37.029998779296875 72.674896240234375
2.605900049209595 37.520000457763672 72.495498657226562
4.196579933166504 36.635398864746094 72.915802001953125
1.656829953193665 38.218601226806641 71.866203308105469
1.413329958915710 38.820899963378906 71.322700500488281
4.861549854278565 38.824001312255859 71.815498352050781
5.221270084381104 38.263698577880859 72.325599670410156
2.172399997711182 38.164798736572266 72.905197143554688
3.228219985961914 37.682399749755859 73.400596618652344
3.870529890060425 39.840999603271484 71.809700012207031
4.234280109405518 37.192699432373047 73.889602661132813
1.124920010566711 40.230098724365234 70.807601928710938
4.584099769592285 39.462299346923828 72.276496887207031
1.568969964981079 38.905899047851563 72.771003723144531
5.006989955902100 38.878101348876953 72.825302124023438
1.206230044364929 39.774898529052734 71.819801330566406
5.261469841003418 38.280498504638672 73.320198059082031
2.794290065765381 38.274200439453125 73.837196350097656
3.809770107269287 37.792900085449219 74.325401306152344
1.947059988975525 38.903400421142578 73.758499145507813
3.648339986801148 40.653301239013672 72.372497558593750
4.226469993591309 40.237201690673828 72.834396362304688
1.101490020751953 40.768798828125000 71.808898925781250
3.383440017700195 38.378601074218750 74.772399902343750
4.564879894256592 39.930400848388672 73.803802490234375
1.113559961318970 40.217700958251953 73.344497680664063
0.967359006404877 40.825801849365234 72.839599609375000
2.651770114898682 39.101200103759766 74.940803527832031
3.639270067214966 41.156501770019531 73.379898071289063
4.179359912872315 40.710300445556641 73.860801696777344
4.734670162200928 39.770500183105469 74.822402954101563
1.220659971237183 40.243400573730469 74.341400146484375
0.904219985008240 40.822601318359375 73.827697753906250
0.820316970348358 41.797199249267578 72.824401855468750
4.768040180206299 45.694698333740234 76.513198852539062
4.281939983367920 45.223098754882812 76.046203613281250
3.805490016937256 44.283100128173828 76.285697937011719
2.859119892120361 43.843898773193359 76.338302612304687
4.819439888000488 43.783901214599609 76.260299682617187
0.005198999773711 43.864498138427734 74.847396850585938
0.153431996703148 43.252300262451172 75.306999206542969
0.637825012207031 41.704101562500000 75.844100952148437
1.062350034713745 41.115200042724609 76.360900878906250
0.397565007209778 42.319499969482422 75.327903747558594
0.358624011278152 43.304298400878906 74.328201293945313
2.719919919967651 40.185901641845703 76.894500732421875
4.094130039215088 41.706699371337891 75.850502014160156
3.631059885025024 42.199401855468750 75.375297546386719
3.104229927062988 42.645900726318359 74.912101745605469
4.404560089111328 40.825698852539063 76.321296691894531
0.509146988391876 42.337501525878906 74.346199035644531
0.611452996730804 41.727100372314453 74.823501586914062
2.086169958114624 40.114700317382812 76.186096191406250
1.445160031318665 40.410800933837891 75.778602600097656
1.025060057640076 40.907501220703125 75.295898437500000
3.595439910888672 39.058700561523438 76.673301696777344
0.726562976837158 42.787498474121094 73.309097290039063
4.612500190734863 40.230800628662109 75.821296691894531
0.685500979423523 41.770401000976563 73.813796997070313
4.384109973907471 40.825599670410156 74.814300537109375
3.895489931106567 41.344799041748047 74.296897888183594
3.285379886627197 41.773101806640625 73.832901000976562
3.079679965972900 39.099601745605469 75.641296386718750
1.762809991836548 39.749401092529297 74.845298767089844
