ply
format ascii 1.0
element vertex 387
property double x
property double y
property double z
end_header
-17.607299804687500 -81.722702026367188 -49.794799804687500
-16.246799468994141 -81.373596191406250 -48.217300415039062
-17.607299804687500 -81.722702026367188 -49.794799804687500
-16.239599227905273 -81.189598083496094 -49.749801635742188
-16.273599624633789 -81.789703369140625 -49.912700653076172
-14.734900474548340 -81.530097961425781 -49.744701385498047
-13.341600418090820 -81.852996826171875 -49.737800598144531
-10.427800178527832 -83.281303405761719 -49.763000488281250
-14.891400337219238 -81.880599975585937 -49.910198211669922
-10.049400329589844 -82.174102783203125 -50.091400146484375
-19.211399078369141 -82.867698669433594 -51.222099304199219
-17.746000289916992 -81.373199462890625 -51.215198516845703
-17.740100860595703 -81.370101928710938 -51.220100402832031
-20.933099746704102 -87.270202636718750 -52.820499420166016
-16.266000747680664 -81.545700073242188 -51.226398468017578
-16.250099182128906 -81.280296325683594 -51.208801269531250
-16.252899169921875 -81.292503356933594 -51.217201232910156
-14.825099945068359 -81.711700439453125 -51.242801666259766
-14.779999732971191 -81.462303161621094 -51.218498229980469
-11.703100204467773 -82.709098815917969 -51.215400695800781
-14.807399749755859 -81.504302978515625 -51.264900207519531
-11.681400299072266 -82.653900146484375 -51.207298278808594
-11.659299850463867 -82.585800170898438 -51.204101562500000
-13.447799682617188 -81.962600708007812 -51.269401550292969
-10.376500129699707 -83.126098632812500 -51.228900909423828
-10.292300224304199 -82.994598388671875 -51.202201843261719
-8.971929550170898 -83.480903625488281 -51.191600799560547
-17.446199417114258 -81.816802978515625 -52.446201324462891
-20.544000625610352 -87.432800292968750 -54.085300445556641
-18.090700149536133 -82.508201599121094 -52.906200408935547
-17.758100509643555 -81.318801879882813 -52.714698791503906
-16.215599060058594 -81.610198974609375 -52.638099670410156
-16.254100799560547 -81.480499267578125 -52.710800170898438
-14.790399551391602 -81.666801452636719 -52.652301788330078
-16.252099990844727 -81.285896301269531 -52.713901519775391
-14.777600288391113 -81.533401489257813 -52.650001525878906
-21.276899337768555 -88.386703491210938 -54.669601440429687
-5.955029964447022 -86.077499389648438 -52.782901763916016
-13.428500175476074 -81.934997558593750 -52.653900146484375
-14.733099937438965 -81.261398315429688 -52.702400207519531
-10.408300399780273 -83.212997436523438 -52.696800231933594
-13.050100326538086 -82.218597412109375 -52.744598388671875
-11.696800231933594 -82.670097351074219 -52.719200134277344
-11.665599822998047 -82.610000610351563 -52.726501464843750
-10.370699882507324 -83.121803283691406 -52.711200714111328
-7.350309848785400 -84.542602539062500 -52.721599578857422
-7.518149852752686 -84.738700866699219 -52.783100128173828
-13.424400329589844 -81.730201721191406 -52.764499664306641
-19.527099609375000 -85.731201171875000 -54.359001159667969
-19.982500076293945 -86.972999572753906 -54.664798736572266
-19.107000350952148 -84.410301208496094 -54.117099761962891
-17.309400558471680 -82.078102111816406 -53.670398712158203
-20.301500320434570 -89.021102905273438 -55.467998504638672
-16.216800689697266 -81.906898498535156 -53.898300170898438
-17.800100326538086 -82.732398986816406 -54.295700073242188
-14.745499610900879 -81.764999389648437 -53.987098693847656
-18.287200927734375 -83.824302673339844 -54.792098999023438
-3.936269998550415 -86.881599426269531 -54.170299530029297
-5.721789836883545 -85.788803100585938 -54.209499359130859
-18.591999053955078 -84.745697021484375 -55.213798522949219
-19.416500091552734 -87.254096984863281 -55.818801879882813
-10.428000450134277 -83.294998168945313 -54.176998138427734
-10.386899948120117 -83.194999694824219 -54.166400909423828
-7.377699851989746 -84.589500427246094 -54.180000305175781
-18.997800827026367 -85.958000183105469 -55.546001434326172
-11.723199844360352 -82.744102478027344 -54.232200622558594
-7.377170085906982 -84.586402893066406 -54.210601806640625
-11.715399742126465 -82.705200195312500 -54.249599456787109
-8.616809844970703 -84.041397094726563 -54.238300323486328
-7.395490169525147 -84.556503295898437 -54.233299255371094
-19.884199142456055 -88.441001892089844 -56.200801849365234
-16.366800308227539 -82.247001647949219 -54.621700286865234
-8.502719879150391 -83.846298217773437 -54.266300201416016
-13.181300163269043 -82.273696899414063 -54.450599670410156
-14.794400215148926 -82.169197082519531 -54.625801086425781
-20.011400222778320 -89.302497863769531 -56.666400909423828
-17.546199798583984 -83.251899719238281 -55.323898315429687
-20.648599624633789 -90.402999877929688 -57.117099761962891
-17.815099716186523 -84.257896423339844 -55.798599243164063
-18.224100112915039 -85.483497619628906 -56.152698516845703
-18.506900787353516 -86.287399291992188 -56.535900115966797
-16.225500106811523 -82.895202636718750 -55.654499053955078
-18.863800048828125 -87.533203125000000 -56.891601562500000
-19.237300872802734 -88.834999084472656 -57.203300476074219
-19.747400283813477 -90.006202697753906 -57.632198333740234
-10.414999961853027 -83.355796813964844 -55.530601501464844
-14.782999992370605 -82.677299499511719 -55.836399078369141
-11.774200439453125 -82.936500549316406 -55.659198760986328
-16.558200836181641 -83.727600097656250 -56.305900573730469
-13.258500099182129 -82.701301574707031 -55.806301116943359
-4.514349937438965 -86.338897705078125 -55.726200103759766
-7.430029869079590 -84.710998535156250 -55.681999206542969
-7.394090175628662 -84.662803649902344 -55.674598693847656
-5.659480094909668 -85.608299255371094 -55.728900909423828
-17.354900360107422 -84.808998107910156 -56.683898925781250
-8.686070442199707 -84.141601562500000 -55.747798919677734
-5.600460052490234 -85.506202697753906 -55.751998901367187
-20.209199905395508 -90.828498840332031 -58.212299346923828
-10.102199554443359 -83.735298156738281 -55.857799530029297
-17.657800674438477 -85.907699584960938 -57.112201690673828
-18.087600708007813 -87.105598449707031 -57.593898773193359
-18.735000610351563 -89.153099060058594 -58.244300842285156
-14.610400199890137 -83.334800720214844 -56.765300750732422
-16.224599838256836 -84.376197814941406 -57.167999267578125
-19.263500213623047 -90.319801330566406 -58.726600646972656
-13.235199928283691 -83.298500061035156 -56.868900299072266
-11.819100379943848 -83.430099487304688 -56.864799499511719
-17.195100784301758 -86.338798522949219 -58.006500244140625
-16.593700408935547 -85.347198486328125 -57.773200988769531
-19.762100219726563 -91.321899414062500 -59.306999206542969
-14.825300216674805 -84.055702209472656 -57.458301544189453
-17.525100708007813 -87.505203247070313 -58.447399139404297
-7.421500205993652 -84.812599182128906 -57.099098205566406
-4.529389858245850 -86.343299865722656 -57.157798767089844
-17.910999298095703 -88.702903747558594 -58.889400482177734
-4.468389987945557 -86.257499694824219 -57.137199401855469
-7.488450050354004 -84.847999572753906 -57.144298553466797
-8.766480445861816 -84.393501281738281 -57.194301605224609
-5.709869861602783 -85.746101379394531 -57.228099822998047
-5.697000026702881 -85.723503112792969 -57.231700897216797
-13.332799911499023 -83.860801696777344 -57.582000732421875
-18.327499389648437 -89.913902282714844 -59.289299011230469
-2.660569906234741 -87.020401000976562 -57.259799957275391
-3.896509885787964 -86.595397949218750 -57.352500915527344
-11.674699783325195 -83.830703735351563 -57.530300140380859
-10.204199790954590 -83.966102600097656 -57.422599792480469
-18.655399322509766 -90.797599792480469 -59.631401062011719
-6.984409809112549 -85.082298278808594 -57.390598297119141
-16.117399215698242 -85.968902587890625 -58.512001037597656
-14.578599929809570 -84.764396667480469 -58.311401367187500
-16.492300033569336 -87.131599426269531 -59.018699645996094
-19.372800827026367 -91.665802001953125 -60.376701354980469
-17.360500335693359 -89.162597656250000 -59.749599456787109
-13.194899559020996 -84.527801513671875 -58.541000366210938
-14.863900184631348 -85.634597778320313 -58.957199096679687
-17.840799331665039 -90.232002258300781 -60.325599670410156
-11.750399589538574 -84.476097106933594 -58.610099792480469
-7.427450180053711 -85.045898437500000 -58.365798950195313
-10.293899536132812 -84.601799011230469 -58.551200866699219
-8.812890052795410 -84.785102844238281 -58.471599578857422
-15.963600158691406 -87.613502502441406 -59.821800231933594
-4.558589935302734 -86.487899780273437 -58.563899993896484
-18.209400177001953 -91.206703186035156 -60.869899749755859
-18.862199783325195 -92.273002624511719 -61.169101715087891
-13.487099647521973 -85.308502197265625 -59.276100158691406
-5.791379928588867 -85.938301086425781 -58.685901641845703
-2.767640113830566 -87.366401672363281 -58.708198547363281
-16.339300155639648 -88.746902465820313 -60.324401855468750
-4.026599884033203 -86.825302124023438 -58.814998626708984
-14.508299827575684 -86.226303100585937 -59.705600738525391
-7.173439979553223 -85.398300170898437 -58.910198211669922
-8.646789550781250 -85.147399902343750 -59.054599761962891
-16.735200881958008 -89.829696655273438 -60.841800689697266
-17.355400085449219 -90.743896484375000 -61.211200714111328
-14.805500030517578 -87.251098632812500 -60.318099975585937
-13.184599876403809 -85.977699279785156 -60.041801452636719
-17.732200622558594 -91.849098205566406 -61.686000823974609
-15.814999580383301 -89.293701171875000 -61.117698669433594
-15.174900054931641 -88.358596801757812 -60.888301849365234
-11.766699790954590 -85.759201049804688 -60.276298522949219
-16.216800689697266 -90.366500854492188 -61.665401458740234
-13.512499809265137 -86.919403076171875 -60.749000549316406
-14.344499588012695 -87.868797302246094 -61.044898986816406
-5.874899864196777 -86.281303405761719 -60.010799407958984
-10.258700370788574 -85.670799255371094 -60.347099304199219
-8.748860359191895 -85.742698669433594 -60.269599914550781
-7.265470027923584 -85.910102844238281 -60.171199798583984
-2.885030031204224 -87.640098571777344 -60.125000000000000
-16.611299514770508 -91.397102355957031 -62.263099670410156
-14.670700073242188 -88.926300048828125 -61.594299316406250
-17.450599670410156 -93.570899963378906 -62.804798126220703
-4.157430171966553 -87.076599121093750 -60.284801483154297
0.280391991138458 -88.710296630859375 -60.252498626708984
-1.105579972267151 -88.381500244140625 -60.351100921630859
-5.558919906616211 -86.620300292968750 -60.526599884033203
-13.116999626159668 -87.544998168945313 -61.462100982666016
-11.562299728393555 -86.475097656250000 -61.125701904296875
-15.060999870300293 -89.985702514648438 -62.183399200439453
-15.712599754333496 -90.912498474121094 -62.469898223876953
-10.209400177001953 -86.369003295898438 -61.259399414062500
-13.448699951171875 -88.551902770996094 -62.060501098632813
-16.115200042724609 -91.973800659179687 -63.010299682617188
-8.784190177917481 -86.373901367187500 -61.322601318359375
-11.795700073242187 -87.232299804687500 -61.816799163818359
-7.316790103912354 -86.459602355957031 -61.300899505615234
-16.454200744628906 -93.083702087402344 -63.585300445556641
-14.598500251770020 -90.520599365234375 -62.972599029541016
-10.303199768066406 -87.063102722167969 -61.969299316406250
-3.035530090332031 -87.968399047851563 -61.493801116943359
-13.010800361633301 -89.145599365234375 -62.792701721191406
-4.314549922943115 -87.494499206542969 -61.647998809814453
-14.950799942016602 -91.614997863769531 -63.517299652099609
0.157452002167702 -89.157600402832031 -61.631801605224609
-8.743229866027832 -86.929397583007813 -62.020000457763672
-1.220939993858337 -88.712196350097656 -61.753101348876953
-7.214149951934815 -86.951797485351563 -61.968101501464844
-5.718110084533691 -87.079002380371094 -61.874298095703125
-11.443799972534180 -87.881797790527344 -62.574798583984375
-15.952500343322754 -93.657096862792969 -64.208503723144531
-2.542850017547607 -88.284400939941406 -61.888698577880859
-13.362899780273438 -90.173797607421875 -63.421699523925781
-16.247900009155273 -94.834098815917969 -64.705299377441406
-11.748299598693848 -88.836196899414062 -63.206199645996094
-10.161600112915039 -87.717903137207031 -62.839599609375000
-14.418800354003906 -92.129997253417969 -64.168098449707031
-14.729399681091309 -93.349502563476563 -64.677299499511719
-8.755999565124512 -87.607398986816406 -63.011199951171875
-14.954400062561035 -94.676101684570313 -65.084602355957031
-10.355999946594238 -88.563201904296875 -63.426498413085937
-12.069499969482422 -89.821403503417969 -63.864898681640625
-12.925600051879883 -90.787399291992188 -64.141098022460937
-7.272200107574463 -87.625000000000000 -63.015499114990234
-4.383150100708008 -87.999496459960938 -62.832199096679688
-5.794710159301758 -87.717102050781250 -62.980300903320312
-13.237600326538086 -91.843299865722656 -64.689300537109375
0.048427000641823 -89.532699584960938 -63.014499664306641
-1.367460012435913 -89.152801513671875 -63.111999511718750
-2.716609954833984 -88.752899169921875 -63.247600555419922
-8.834989547729492 -88.213096618652344 -63.712299346923828
-4.147389888763428 -88.448402404785156 -63.431800842285156
-13.551199913024902 -93.090499877929688 -65.253303527832031
-11.678199768066406 -90.457603454589844 -64.568000793457031
-5.689390182495117 -88.119201660156250 -63.635700225830078
-10.039199829101562 -89.204299926757813 -64.330703735351563
-13.263999938964844 -96.323097229003906 -66.237998962402344
-12.010199546813965 -91.517196655273437 -65.171501159667969
-12.972399711608887 -93.525497436523438 -65.722801208496094
-13.155699729919434 -94.874603271484375 -66.017898559570313
-10.377200126647949 -90.126098632812500 -64.949600219726563
-8.718939781188965 -88.916000366210938 -64.631103515625000
-11.541600227355957 -92.087898254394531 -65.800399780273437
-7.251560211181641 -88.738098144531250 -64.772796630859375
-2.836210012435913 -89.210998535156250 -64.500396728515625
-9.112059593200684 -89.783401489257813 -65.262901306152344
-5.748250007629395 -88.773597717285156 -64.748001098632813
-12.073200225830078 -96.170600891113281 -66.866096496582031
-4.260389804840088 -88.904800415039063 -64.671699523925781
-11.793199539184570 -93.303100585937500 -66.287696838378906
-11.942999839782715 -94.758399963378906 -66.603302001953125
-9.975709915161133 -90.724502563476562 -65.660102844238281
-11.597299575805664 -97.899497985839844 -67.402397155761719
0.301077008247375 -90.142898559570313 -64.771102905273437
-11.531100273132324 -96.440498352050781 -67.210403442382812
-1.112750053405762 -89.801902770996094 -64.897499084472656
-10.268600463867187 -91.808799743652344 -66.246002197265625
-2.572959899902344 -89.603103637695313 -65.087799072265625
1.743170022964478 -90.069602966308594 -64.796302795410156
-8.665379524230957 -90.445899963378906 -66.068496704101563
-10.588999748229980 -93.100303649902344 -66.793197631835938
-10.282600402832031 -97.821998596191406 -67.778099060058594
-7.165589809417725 -89.370903015136719 -65.796699523925781
-5.774549961090088 -89.435501098632812 -65.832603454589844
-10.240099906921387 -96.331100463867188 -67.692001342773437
-4.329140186309815 -89.537803649902344 -65.835601806640625
-8.990369796752930 -91.503601074218750 -66.691596984863281
-9.957030296325684 -93.498596191406250 -67.246398925781250
-10.151499748229980 -94.853599548339844 -67.549598693847656
-7.371039867401123 -90.151702880859375 -66.407203674316406
-5.820710182189941 -89.919700622558594 -66.536003112792969
-4.207970142364502 -89.880203247070312 -66.440597534179687
-1.241289973258972 -90.256301879882813 -66.244499206542969
-8.524829864501953 -92.090797424316406 -67.314697265625000
-2.715280055999756 -90.044799804687500 -66.358901977539063
0.238866999745369 -90.388900756835938 -66.198997497558594
-9.064860343933106 -96.289398193359375 -68.293502807617188
1.748669981956482 -90.385498046875000 -66.199096679687500
1.749830007553101 -90.439102172851563 -66.211601257324219
-8.812370300292969 -93.275001525878906 -67.807601928710937
-9.047550201416016 -94.772102355957031 -68.179801940917969
-8.500149726867676 -97.867401123046875 -68.777603149414063
3.246809959411621 -90.443298339843750 -66.220901489257813
-8.719479560852051 -99.343902587890625 -69.155197143554688
-6.937029838562012 -90.653999328613281 -67.264602661132813
-8.440299987792969 -96.344497680664063 -68.639900207519531
-7.281509876251221 -91.799102783203125 -67.757102966308594
-8.403220176696777 -94.882102966308594 -68.596199035644531
-5.696670055389404 -90.426200866699219 -67.617599487304688
-7.635260105133057 -92.987899780273438 -68.368202209472656
-4.246759891510010 -90.424896240234375 -67.659797668457031
-7.387259960174561 -97.800102233886719 -69.449897766113281
-7.572879791259766 -99.171600341796875 -69.772300720214844
-2.765300035476685 -90.566200256347656 -67.624801635742187
-7.308730125427246 -96.327102661132813 -69.310798645019531
-1.278830051422119 -90.672698974609375 -67.608200073242188
-6.690219879150391 -92.304496765136719 -68.470397949218750
-6.202720165252686 -91.398498535156250 -68.306900024414063
0.250147998332977 -90.657699584960938 -67.634201049804688
-7.059909820556641 -93.457000732421875 -68.906700134277344
-7.275619983673096 -94.821098327636719 -69.254898071289062
1.760499954223633 -90.384399414062500 -67.699996948242188
-5.641320228576660 -91.908203125000000 -69.089599609375000
2.962899923324585 -89.749000549316406 -67.872001647949219
-4.105189800262451 -90.936500549316406 -68.817497253417969
-5.948219776153565 -93.179702758789063 -69.488197326660156
-6.173789978027344 -94.655403137207031 -69.876602172851562
-5.659880161285400 -97.839599609375000 -70.586502075195312
-6.069109916687012 -99.164299011230469 -71.083000183105469
-5.577060222625732 -96.314399719238281 -70.462303161621094
-4.544109821319580 -91.513801574707031 -69.599403381347656
-5.541190147399902 -94.915496826171875 -70.387496948242188
0.307870000600815 -90.996101379394531 -69.052001953125000
-5.328700065612793 -93.600898742675781 -70.131301879882813
-2.885910034179688 -91.206901550292969 -69.543701171875000
-1.291270017623901 -91.192596435546875 -69.409698486328125
1.854769945144653 -90.586303710937500 -69.168098449707031
-4.845039844512940 -97.690902709960938 -71.416999816894531
-4.671969890594482 -96.279998779296875 -71.219299316406250
3.054460048675537 -89.978996276855469 -69.266502380371094
-4.020840167999268 -92.037101745605469 -70.465202331542969
-4.585299968719482 -94.717697143554687 -71.091102600097656
-4.322800159454346 -93.294097900390625 -70.785301208496094
-2.769000053405762 -91.798301696777344 -70.740402221679688
-4.200220108032227 -97.852897644042969 -72.148200988769531
-3.965250015258789 -96.342201232910156 -71.861999511718750
-1.297150015830994 -91.565101623535156 -70.815597534179687
-4.602509975433350 -99.044197082519531 -72.643898010253906
-3.881000041961670 -94.956596374511719 -71.772201538085937
-3.397989988327026 -92.938400268554688 -71.365997314453125
0.214989006519318 -91.497596740722656 -70.812797546386719
-3.650629997253418 -93.577003479003906 -71.618400573730469
1.915850043296814 -90.728202819824219 -70.629501342773438
-3.343650102615356 -97.636001586914063 -72.884101867675781
-3.145950078964233 -96.245300292968750 -72.665496826171875
-2.398560047149658 -92.165802001953125 -71.897598266601563
-3.020560026168823 -94.769599914550781 -72.497596740722656
-2.820970058441162 -93.293098449707031 -72.279800415039063
-1.211500048637390 -92.026298522949219 -72.110603332519531
-2.639519929885864 -97.879997253417969 -73.579597473144531
-2.445179939270020 -96.414802551269531 -73.307296752929688
-3.043230056762695 -99.129798889160156 -74.031700134277344
0.219025000929832 -91.704200744628906 -72.265502929687500
-2.291490077972412 -94.912200927734375 -73.217002868652344
2.031120061874390 -90.900703430175781 -72.004402160644531
-3.372309923171997 -100.345001220703120 -74.454696655273437
-1.950019955635071 -92.844596862792969 -72.845199584960937
-2.114939928054810 -93.626197814941406 -73.157096862792969
1.581069946289063 -91.379096984863281 -72.372398376464844
3.150409936904907 -90.217903137207031 -72.237800598144531
-1.718070030212402 -97.664596557617188 -74.265800476074219
-1.644320011138916 -96.235900878906250 -74.127098083496094
-0.942308008670807 -92.461601257324219 -73.308403015136719
-1.491170048713684 -94.749397277832031 -73.956100463867188
-1.345659971237183 -93.256698608398438 -73.799400329589844
-0.984974980354309 -97.877098083496094 -74.896102905273438
0.333714008331299 -92.069801330566406 -73.601997375488281
-0.932547986507416 -96.363800048828125 -74.864501953125000
-0.140362992882729 -92.722099304199219 -74.086196899414062
-1.596650004386902 -99.069900512695312 -75.537498474121094
1.621219992637634 -91.576797485351563 -73.829902648925781
-0.759537994861603 -94.927101135253906 -74.759498596191406
3.292560100555420 -90.375198364257813 -73.705398559570312
-0.722859025001526 -93.641098022460937 -74.762397766113281
-0.058446999639273 -97.779701232910156 -75.616096496582031
-0.083686999976635 -96.335700988769531 -75.572799682617188
4.788770198822022 -88.867301940917969 -73.707099914550781
0.554759979248047 -92.522399902343750 -74.859199523925781
-2.751950025558472 -99.330398559570313 -76.714897155761719
0.141513004899025 -93.209297180175781 -75.293899536132813
0.721861004829407 -97.822998046875000 -76.191101074218750
0.371681988239288 -99.363502502441406 -76.584098815917969
-0.295253992080688 -94.349601745605469 -75.679496765136719
1.819659948348999 -91.939697265625000 -75.165702819824219
0.572888970375061 -96.330596923828125 -76.402603149414063
1.280990004539490 -92.599899291992188 -75.590797424316406
2.680870056152344 -91.330596923828125 -75.383399963378906
2.860990047454834 -91.384498596191406 -75.397003173828125
3.387010097503662 -90.433502197265625 -75.180702209472656
0.310308009386063 -94.861396789550781 -76.677299499511719
4.018750190734863 -89.772003173828125 -75.353996276855469
0.623701989650726 -93.663299560546875 -76.489997863769531
4.627649784088135 -88.749298095703125 -75.231903076171875
2.149159908294678 -92.306098937988281 -76.527496337890625
1.507640004158020 -93.063499450683594 -76.865997314453125
2.070869922637940 -97.804603576660156 -77.990402221679688
2.981829881668091 -91.591300964355469 -76.817100524902344
2.268290042877197 -96.190101623535156 -77.846702575683594
3.620830059051514 -90.595298767089844 -76.590698242187500
4.085360050201416 -89.992897033691406 -76.877601623535156
1.844930052757263 -94.828201293945313 -78.152000427246094
4.546150207519531 -88.752403259277344 -76.743598937988281
2.474189996719360 -92.547698974609375 -77.808296203613281
1.795910000801086 -93.392303466796875 -78.181999206542969
1.775460004806519 -93.359298706054687 -78.197601318359375
3.378000020980835 -91.917900085449219 -78.158996582031250
3.294899940490723 -91.871902465820313 -78.193901062011719
3.953860044479370 -90.718299865722656 -78.006103515625000
4.374010086059570 -90.171203613281250 -78.324302673339844
