ply
format ascii 1.0
element vertex 82
property double x
property double y
property double z
end_header
-5.650129795074463 -3.906409978866577 -4.404550075531006
-5.665130138397217 -3.867409944534302 -4.278550148010254
-5.650129795074463 -3.906409978866577 -4.404550075531006
-5.549129962921143 -3.969409942626953 -4.427559852600098
-5.617129802703857 -4.013410091400147 -4.512559890747070
-5.506130218505859 -3.847409963607788 -4.505559921264648
-5.637129783630371 -3.900409936904907 -4.541560173034668
-5.510129928588867 -3.986409902572632 -4.546559810638428
-5.553130149841309 -3.861409902572632 -4.610559940338135
-5.581130027770996 -4.056409835815430 -4.646550178527832
-5.429130077362061 -3.970410108566284 -4.631559848785400
-5.625130176544190 -3.957410097122192 -4.698550224304199
-5.452129840850830 -3.834409952163696 -4.683559894561768
-5.342130184173584 -3.910409927368164 -4.690559864044190
-5.485129833221436 -4.040410041809082 -4.717559814453125
-5.568130016326904 -3.866410017013550 -4.741559982299805
-5.604129791259766 -3.966409921646118 -4.814559936523438
-5.561130046844482 -4.073410034179688 -4.811560153961182
-5.410130023956299 -3.813410043716431 -4.799550056457520
-5.300129890441895 -3.866410017013550 -4.793560028076172
-5.366129875183106 -3.981410026550293 -4.811560153961182
-5.428130149841309 -4.086410045623779 -4.828559875488281
-5.516129970550537 -3.828409910202026 -4.860559940338135
-5.557129859924316 -3.928410053253174 -4.912559986114502
-5.487130165100098 -4.143410205841065 -4.920559883117676
-5.334129810333252 -3.761409997940064 -4.905560016632080
-5.245130062103272 -3.858409881591797 -4.894559860229492
-5.532129764556885 -4.035409927368164 -4.948550224304199
-5.290130138397217 -3.974410057067871 -4.914559841156006
-5.426129817962647 -3.694410085678101 -4.931550025939941
-5.367129802703857 -4.077410221099854 -4.945549964904785
-5.498129844665527 -3.778409957885742 -4.981560230255127
-5.183129787445068 -3.943409919738770 -4.961559772491455
-5.529129981994629 -3.885410070419312 -5.027560234069824
-5.404129981994629 -4.193409919738770 -5.016560077667236
-5.462130069732666 -4.095409870147705 -5.039559841156006
-5.268129825592041 -4.002409934997559 -5.026559829711914
-5.175129890441895 -3.829410076141357 -5.027560234069824
-5.324130058288574 -4.106410026550293 -5.054560184478760
-5.497129917144775 -3.986409902572632 -5.079559803009033
-5.468130111694336 -3.756409883499146 -5.102560043334961
-5.101130008697510 -3.926409959793091 -5.058559894561768
-5.229129791259766 -4.018410205841065 -5.145559787750244
-5.443130016326904 -3.967410087585449 -5.189559936523438
-5.372129917144775 -4.077410221099854 -5.188549995422363
-5.458129882812500 -3.843410015106201 -5.197559833526611
-5.345129966735840 -4.192409992218018 -5.203559875488281
-5.256130218505859 -4.108409881591797 -5.215559959411621
-5.097129821777344 -3.977410078048706 -5.194560050964356
-5.384130001068115 -3.998409986495972 -5.287559986114502
-5.416130065917969 -3.883409976959229 -5.298560142517090
-5.184130191802979 -4.029409885406494 -5.267560005187988
-5.295129776000977 -4.237410068511963 -5.298560142517090
-5.016129970550537 -3.939409971237183 -5.269559860229492
-5.336130142211914 -4.117410182952881 -5.323550224304199
-5.222129821777344 -4.137410163879395 -5.338560104370117
-5.089129924774170 -4.005410194396973 -5.329559803009033
-4.912129878997803 -3.877409934997559 -5.310560226440430
-5.343130111694336 -4.027410030364990 -5.396550178527832
-5.369130134582520 -3.882410049438477 -5.410550117492676
-5.244130134582520 -4.234409809112549 -5.420559883117676
-5.298130035400391 -4.127409934997559 -5.438549995422363
-4.991129875183106 -3.982409954071045 -5.393549919128418
-5.164130210876465 -4.087409973144531 -5.426559925079346
-5.059130191802979 -4.051410198211670 -5.463560104370117
-5.321129798889160 -4.036409854888916 -5.513559818267822
-5.245130062103272 -4.187409877777100 -5.529560089111328
-5.136129856109619 -4.105410099029541 -5.542550086975098
-5.363130092620850 -3.860409975051880 -5.584549903869629
-5.284130096435547 -4.105410099029541 -5.606560230255127
-5.158130168914795 -4.245409965515137 -5.608550071716309
-5.335130214691162 -3.956409931182861 -5.643549919128418
-5.059130191802979 -4.048409938812256 -5.608550071716309
-5.091129779815674 -4.161409854888916 -5.653550148010254
-5.211130142211914 -4.166409969329834 -5.679560184478760
-5.357130050659180 -3.849410057067871 -5.710559844970703
-5.257130146026611 -4.055409908294678 -5.711559772491455
-5.137129783630371 -4.224410057067871 -5.750549793243408
-4.997129917144775 -4.314410209655762 -5.732560157775879
-5.311130046844482 -3.957410097122192 -5.774559974670410
-5.011129856109619 -4.174409866333008 -5.735559940338135
-4.937129974365234 -4.410409927368164 -5.754549980163574
