ply
format ascii 1.0
element vertex 135
property double x
property double y
property double z
end_header
-5.928130149841309 -4.477409839630127 -12.076600074768066
-6.017129898071289 -4.546410083770752 -12.030599594116211
-5.820129871368408 -4.432409763336182 -12.028599739074707
-5.834129810333252 -4.545410156250000 -12.057600021362305
-5.928130149841309 -4.477409839630127 -12.076600074768066
-6.086130142211914 -4.601409912109375 -12.105600357055664
-5.718130111694336 -4.367410182952881 -12.049599647521973
-5.652130126953125 -4.477409839630127 -12.055600166320801
-5.813129901885986 -4.672410011291504 -12.093600273132324
-5.553130149841309 -4.414410114288330 -12.053600311279297
-5.950129985809326 -4.610410213470459 -12.125599861145020
-5.491129875183106 -4.312409877777100 -12.055600166320801
-5.259130001068115 -4.425409793853760 -12.030599594116211
-5.095129966735840 -4.508409976959229 -12.009599685668945
-5.343130111694336 -4.311409950256348 -12.042599678039551
-5.653130054473877 -4.657410144805908 -12.093600273132324
-6.185130119323731 -4.596409797668457 -12.170599937438965
-5.271130084991455 -4.591410160064697 -12.038599967956543
-5.204130172729492 -4.322410106658936 -12.026599884033203
-5.309130191802979 -4.197410106658936 -12.041600227355957
-5.904129981994629 -4.747409820556641 -12.137599945068359
-5.733129978179932 -4.573410034179688 -12.113599777221680
-5.165130138397217 -4.175409793853760 -12.025600433349609
-6.005129814147949 -4.512410163879395 -12.156599998474121
-5.419129848480225 -4.216410160064697 -12.070599555969238
-5.365129947662354 -4.530409812927246 -12.069600105285645
-5.472129821777344 -4.616409778594971 -12.094599723815918
-6.294129848480225 -4.552410125732422 -12.213600158691406
-5.383130073547363 -4.416409969329834 -12.079600334167480
-5.473130226135254 -4.498410224914551 -12.096599578857422
-5.627130031585693 -4.345409870147705 -12.122599601745605
-5.085130214691162 -4.319409847259522 -12.045599937438965
-5.043129920959473 -4.194409847259522 -12.039600372314453
-5.006130218505859 -4.405409812927246 -12.038599967956543
-5.762129783630371 -4.431409835815430 -12.158599853515625
-5.186130046844482 -4.503409862518311 -12.080599784851074
-5.566130161285400 -4.560410022735596 -12.138600349426270
-5.991129875183106 -4.691410064697266 -12.203599929809570
-5.976130008697510 -4.817409992218018 -12.203599929809570
-5.881130218505859 -4.488409996032715 -12.186599731445312
-6.095129966735840 -4.532410144805908 -12.231599807739258
-6.386129856109619 -4.585410118103027 -12.281599998474121
-5.857130050659180 -4.672410011291504 -12.212599754333496
-5.657129764556885 -4.480410099029541 -12.182600021362305
-4.990129947662354 -4.097410202026367 -12.079600334167480
-6.077129840850830 -4.785409927368164 -12.248600006103516
-5.518129825592041 -4.417409896850586 -12.165599822998047
-5.797130107879639 -4.566410064697266 -12.211600303649902
-5.429130077362061 -4.333409786224365 -12.155599594116211
-5.216129779815674 -4.201409816741943 -12.125599861145020
-6.135129928588867 -4.669410228729248 -12.267600059509277
-5.290130138397217 -4.428410053253174 -12.146599769592285
-5.943130016326904 -4.575409889221191 -12.244600296020508
-5.309130191802979 -4.307409763336182 -12.156599998474121
-5.101130008697510 -4.407410144805908 -12.131600379943848
-5.108129978179932 -4.144410133361816 -12.129599571228027
-6.196129798889160 -4.558410167694092 -12.299599647521973
-4.933129787445068 -4.350409984588623 -12.113599777221680
-4.923130035400391 -4.213409900665283 -12.113599777221680
-6.253129959106445 -4.682409763336182 -12.318599700927734
-5.182129859924316 -4.328410148620606 -12.159600257873535
-6.172130107879639 -4.848410129547119 -12.315600395202637
-6.484129905700684 -4.595409870147705 -12.360600471496582
-6.030129909515381 -4.630410194396973 -12.296600341796875
-6.277130126953125 -4.809410095214844 -12.353599548339844
-5.040130138397217 -4.312409877777100 -12.169599533081055
-6.408130168914795 -4.686409950256348 -12.374600410461426
-4.775269985198975 -4.359479904174805 -12.140000343322754
-6.576129913330078 -4.639410018920898 -12.415599822998047
-5.008130073547363 -4.185410022735596 -12.187600135803223
-6.155129909515381 -4.736410140991211 -12.363599777221680
-6.312129974365234 -4.619410037994385 -12.394599914550781
-4.795129776000977 -4.119410037994385 -12.173600196838379
-6.351130008697510 -4.878409862518311 -12.414600372314453
-4.934130191802979 -4.082409858703613 -12.198599815368652
-6.437129974365234 -4.792409896850586 -12.428600311279297
-4.888130187988281 -4.285409927368164 -12.197600364685059
-4.843130111694336 -4.010409832000732 -12.195599555969238
-6.680130004882813 -4.682409763336182 -12.481599807739258
-4.731130123138428 -3.985409975051880 -12.187600135803223
-6.503129959106445 -4.900410175323486 -12.461600303649902
-4.774129867553711 -4.271409988403320 -12.215600013732910
-6.313129901885986 -4.747409820556641 -12.447600364685059
-6.528130054473877 -4.737410068511963 -12.480600357055664
-4.622129917144775 -4.028409957885742 -12.196599960327148
-6.461130142211914 -4.637410163879395 -12.473600387573242
-4.872129917144775 -4.177410125732422 -12.237600326538086
-4.659130096435547 -4.272409915924072 -12.209600448608398
-4.546130180358887 -4.300409793853760 -12.196599960327148
-4.681129932403565 -4.128409862518311 -12.213600158691406
-6.596129894256592 -4.910409927368164 -12.536600112915039
-4.559130191802979 -3.935410022735596 -12.229599952697754
-6.624129772186279 -4.769410133361816 -12.554599761962891
-6.603129863739014 -4.629409790039063 -12.552599906921387
-4.759130001068115 -4.077410221099854 -12.283599853515625
-6.728129863739014 -4.706409931182861 -12.585599899291992
-4.677130222320557 -3.955410003662109 -12.293600082397461
-6.496129989624023 -4.847410202026367 -12.578599929809570
-4.649129867553711 -4.088409900665283 -12.317600250244141
-6.647130012512207 -4.872409820556641 -12.632599830627441
-6.766129970550537 -4.625410079956055 -12.660599708557129
-6.645130157470703 -4.679409980773926 -12.662599563598633
-6.563129901885986 -4.761410236358643 -12.656599998474121
-6.708129882812500 -4.774409770965576 -12.693599700927734
-6.634130001068115 -4.975409984588623 -12.691599845886230
-4.568130016326904 -4.027410030364990 -12.380599975585938
-6.801129817962647 -4.707409858703613 -12.741600036621094
-6.623129844665527 -4.836410045623779 -12.747599601745605
-6.694129943847656 -4.920410156250000 -12.783599853515625
-6.880129814147949 -4.690410137176514 -12.825599670410156
-6.733129978179932 -4.811409950256348 -12.810600280761719
-6.835130214691162 -4.788410186767578 -12.868599891662598
-6.773129940032959 -4.901410102844238 -12.883600234985352
-6.926129817962647 -4.736410140991211 -12.927599906921387
-6.862130165100098 -4.841410160064697 -12.970600128173828
-6.820129871368408 -4.967410087585449 -12.970600128173828
-6.978129863739014 -4.759409904479981 -13.029600143432617
-6.887129783630371 -4.925409793853760 -13.056599617004395
-6.948130130767822 -4.837409973144531 -13.111599922180176
-7.016129970550537 -4.757410049438477 -13.165599822998047
-6.906129837036133 -4.958409786224365 -13.171600341796875
-6.968130111694336 -4.862410068511963 -13.241600036621094
-7.023129940032959 -4.754409790039063 -13.286600112915039
-7.016129970550537 -4.817409992218018 -13.396599769592285
-6.946129798889160 -4.928410053253174 -13.396599769592285
-7.058129787445068 -4.756410121917725 -13.486599922180176
-6.972129821777344 -4.911409854888916 -13.518600463867187
-7.033130168914795 -4.831409931182861 -13.597599983215332
-7.074130058288574 -4.724410057067871 -13.607600212097168
-6.993130207061768 -4.878409862518311 -13.700599670410156
-7.040130138397217 -4.763410091400147 -13.711600303649902
-7.006130218505859 -4.733409881591797 -13.829600334167480
-6.963129997253418 -4.851409912109375 -13.828599929809570
-6.955130100250244 -4.710410118103027 -13.934599876403809
-6.878129959106445 -4.784409999847412 -13.986599922180176
