ply
format ascii 1.0
element vertex 560
property double x
property double y
property double z
end_header
-5.900129795074463 -2.851409912109375 -4.331560134887695
-5.964129924774170 -2.957410097122192 -4.354559898376465
-5.731130123138428 -2.747410058975220 -4.402560234069824
-5.968130111694336 -2.599410057067871 -4.520559787750244
-5.860129833221436 -2.647409915924072 -4.520559787750244
-5.739130020141602 -2.674410104751587 -4.559559822082520
-5.917129993438721 -2.593410015106201 -4.643559932708740
-5.810130119323731 -2.622410058975220 -4.674550056457520
-6.004129886627197 -2.562410116195679 -4.759560108184815
-5.868130207061768 -2.597409963607788 -4.773560047149658
-5.721129894256592 -2.634409904479981 -4.761549949645996
-5.961130142211914 -2.589410066604614 -4.868549823760986
-5.632130146026611 -2.659409999847412 -4.831560134887695
-5.814129829406738 -2.613409996032715 -4.884560108184815
-5.525129795074463 -2.691410064697266 -4.894559860229492
-5.701129913330078 -2.639410018920898 -4.926559925079346
-5.901130199432373 -2.615410089492798 -4.968560218811035
-5.788129806518555 -2.634409904479981 -5.007549762725830
-5.592130184173584 -2.680409908294678 -4.987559795379639
-5.687129974365234 -2.668410062789917 -5.069560050964356
-5.499129772186279 -2.709409952163696 -5.068560123443604
-5.392129898071289 -2.748409986495972 -5.089560031890869
-5.667129993438721 -2.713409900665283 -5.186560153961182
-5.551129817962647 -2.732409954071045 -5.186560153961182
-5.448130130767822 -2.780410051345825 -5.237559795379639
-5.753129959106445 -2.746409893035889 -5.308559894561768
-5.633130073547363 -2.769409894943237 -5.308559894561768
-5.334129810333252 -2.850409984588623 -5.287559986114502
-5.515130043029785 -2.811409950256348 -5.326560020446777
-5.727129936218262 -2.811409950256348 -5.413559913635254
-5.421130180358887 -2.861409902572632 -5.373559951782227
-5.609129905700684 -2.831409931182861 -5.402560234069824
-5.519130229949951 -2.891410112380981 -5.457560062408447
-5.436130046844482 -2.958410024642944 -5.521550178527832
-5.291130065917969 -1.708410024642944 -2.523550033569336
-5.291130065917969 -1.708410024642944 -2.523550033569336
-5.221129894256592 -1.850409984588623 -2.534559965133667
-5.300129890441895 -1.797410011291504 -2.608560085296631
-5.246129989624023 -1.935410022735596 -2.634550094604492
-5.338129997253418 -1.916409969329834 -2.701560020446777
-5.226130008697510 -2.029409885406494 -2.699559926986694
-5.351130008697510 -1.997410058975220 -2.787549972534180
-5.286129951477051 -2.092410087585449 -2.784559965133667
-5.229129791259766 -2.202409982681274 -2.790560007095337
-5.383130073547363 -2.081409931182861 -2.859560012817383
-5.229129791259766 -2.293410062789917 -2.865560054779053
-5.203129768371582 -2.103410005569458 -2.871560096740723
-5.309130191802979 -2.117409944534302 -2.950560092926025
-5.121129989624023 -2.329410076141357 -2.940560102462769
-5.182129859924316 -2.186409950256348 -2.954560041427612
-5.210130214691162 -2.403409957885742 -2.964560031890869
-5.277130126953125 -2.297410011291504 -2.976560115814209
-5.400129795074463 -2.170409917831421 -2.998559951782227
-5.371129989624023 -2.282409906387329 -3.066560029983521
-5.280129909515381 -2.209409952163696 -3.052560091018677
-5.158130168914795 -2.493410110473633 -3.039560079574585
-5.180130004882813 -2.272409915924072 -3.052560091018677
-5.258130073547363 -2.376410007476807 -3.086560010910034
-5.104129791259766 -2.380409955978394 -3.088560104370117
-5.455130100250244 -2.289410114288330 -3.151560068130493
-5.229129791259766 -2.528409957885742 -3.141550064086914
-5.285130023956299 -2.273410081863403 -3.151560068130493
-5.150129795074463 -2.630409955978394 -3.143559932708740
-5.362130165100098 -2.376410007476807 -3.174550056457520
-5.070129871368408 -2.484410047531128 -3.147550106048584
-5.123129844665527 -2.764410018920898 -3.184560060501099
-5.230130195617676 -2.701410055160523 -3.200560092926025
-5.201129913330078 -2.351409912109375 -3.204560041427612
-5.294129848480225 -2.459409952163696 -3.235559940338135
-5.443130016326904 -2.334409952163696 -3.258549928665161
-5.324130058288574 -2.339410066604614 -3.280550003051758
-5.396130084991455 -2.444410085678101 -3.300549983978272
-5.119130134582520 -2.426409959793091 -3.263560056686401
-5.174129962921143 -2.762409925460815 -3.288559913635254
-5.234129905700684 -2.573410034179688 -3.294549942016602
-5.224130153656006 -2.396409988403320 -3.336560010910034
-5.311130046844482 -2.506409883499146 -3.351560115814209
-5.022130012512207 -2.488409996032715 -3.327549934387207
-5.211130142211914 -2.668410062789917 -3.365560054779053
-5.104129791259766 -2.841409921646118 -3.355550050735474
-5.469130039215088 -2.450409889221191 -3.424550056457520
-5.341129779815674 -2.394409894943237 -3.407560110092163
-5.133130073547363 -2.453409910202026 -3.406559944152832
-5.170129776000977 -2.761409997940064 -3.435559988021851
-5.393129825592041 -2.527410030364990 -3.467550039291382
-5.263130187988281 -2.572410106658936 -3.449559926986694
-5.237130165100098 -2.436409950256348 -3.466550111770630
-5.088129997253418 -2.866410017013550 -3.475559949874878
-5.495130062103272 -2.523410081863403 -3.530550003051758
-5.208129882812500 -2.664410114288330 -3.491559982299805
-5.330130100250244 -2.453409910202026 -3.535550117492676
-5.328129768371582 -2.597409963607788 -3.545559883117676
-5.121129989624023 -2.485409975051880 -3.543550014495850
-5.155129909515381 -2.792409896850586 -3.553560018539429
-4.974130153656006 -2.859410047531128 -3.554559946060181
-5.227129936218262 -2.491410017013550 -3.598550081253052
-5.485129833221436 -2.593410015106201 -3.640549898147583
-5.402130126953125 -2.499409914016724 -3.630559921264648
-5.386129856109619 -2.669409990310669 -3.634550094604492
-5.257130146026611 -2.664410114288330 -3.616559982299805
-5.084129810333252 -2.874409914016724 -3.599550008773804
-5.301129817962647 -2.522409915924072 -3.681550025939941
-5.313129901885986 -2.734410047531128 -3.701560020446777
-5.526130199432373 -2.658410072326660 -3.732559919357300
-5.197130203247070 -2.773410081863403 -3.689549922943115
-4.956130027770996 -2.808409929275513 -3.663559913635254
-5.425129890441895 -2.733409881591797 -3.732559919357300
-4.901130199432373 -2.705410003662109 -3.660550117492676
-5.424129962921143 -2.545409917831421 -3.748559951782227
-5.124129772186279 -2.869410037994385 -3.716550111770630
-5.199130058288574 -2.526410102844238 -3.737550020217896
-4.918129920959473 -2.957410097122192 -3.713560104370117
-5.037129878997803 -2.950409889221191 -3.735559940338135
-5.580130100250244 -2.711410045623779 -3.821549892425537
-5.479129791259766 -2.808409929275513 -3.828550100326538
-5.495130062103272 -2.605410099029541 -3.833559989929199
-5.346129894256592 -2.810410022735596 -3.823559999465942
-5.301129817962647 -2.532409906387329 -3.823559999465942
-5.164130210876465 -2.844409942626953 -3.827549934387207
-5.567130088806152 -2.795409917831421 -3.902559995651245
-5.400129795074463 -2.562410116195679 -3.886559963226318
-4.955130100250244 -3.013410091400147 -3.841550111770630
-5.394130229949951 -2.876410007476807 -3.908560037612915
-5.266129970550537 -2.870409965515137 -3.892560005187988
-5.527130126953125 -2.684410095214844 -3.934560060501099
-4.872129917144775 -2.779409885406494 -3.841550111770630
-4.840129852294922 -2.977410078048706 -3.843559980392456
-5.515130043029785 -2.891410112380981 -3.941560029983521
-5.059130191802979 -2.965409994125366 -3.893559932708740
-4.870130062103272 -3.065409898757935 -3.916559934616089
-5.342130184173584 -2.528409957885742 -3.982559919357300
-5.396130084991455 -2.950409889221191 -4.000549793243408
-5.532129764556885 -2.749409914016724 -4.029550075531006
-5.240129947662354 -2.951410055160523 -3.993550062179565
-5.508130073547363 -2.966409921646118 -4.039559841156006
-5.573130130767822 -2.860409975051880 -4.048560142517090
-5.450129985809326 -2.652410030364990 -4.028550148010254
-4.987130165100098 -3.041409969329834 -3.972559928894043
-5.124129772186279 -2.964410066604614 -3.993550062179565
-4.868130207061768 -2.760410070419312 -3.993550062179565
-4.778130054473877 -3.061409950256348 -3.995549917221069
-5.300129890441895 -2.999409914016724 -4.080560207366943
-5.449130058288574 -3.040410041809082 -4.116559982299805
-5.588129997253418 -2.955410003662109 -4.136559963226318
-4.911129951477051 -3.101409912109375 -4.043550014495850
-5.053130149841309 -3.046410083770752 -4.069560050964356
-5.381130218505859 -2.632410049438477 -4.120550155639648
-5.166130065917969 -3.023410081863403 -4.098549842834473
-5.537129878997803 -2.773410081863403 -4.162549972534180
-4.800129890441895 -3.149410009384155 -4.071549892425537
-5.288129806518555 -2.563410043716431 -4.140550136566162
-5.613130092620850 -2.858409881591797 -4.202549934387207
-4.841129779815674 -2.860409975051880 -4.092549800872803
-5.350130081176758 -3.070410013198853 -4.175549983978272
-5.567130088806152 -3.067409992218018 -4.217549800872803
-4.781129837036133 -2.958410024642944 -4.102560043334961
-4.980130195617676 -3.112410068511963 -4.148550033569336
-5.662129878997803 -2.970410108566284 -4.253560066223145
-4.902130126953125 -2.774410009384155 -4.141550064086914
-5.457129955291748 -3.116410017013550 -4.229559898376465
-5.450129985809326 -2.720410108566284 -4.224549770355225
-5.230130195617676 -3.084409952163696 -4.205560207366943
-5.093130111694336 -3.083410024642944 -4.196549892425537
-4.864130020141602 -3.169409990310669 -4.166560173034668
-5.337130069732666 -2.671410083770752 -4.231550216674805
-5.220129966735840 -2.626410007476807 -4.226560115814209
-5.556129932403565 -2.774410009384155 -4.279550075531006
-5.660130023956299 -2.819410085678101 -4.303559780120850
-4.976130008697510 -2.711410045623779 -4.205560207366943
-4.730130195617676 -3.176409959793091 -4.182549953460693
-5.776130199432373 -2.844409942626953 -4.329559803009033
-5.629129886627197 -3.072410106658936 -4.314549922943115
-5.762129783630371 -2.972409963607788 -4.333559989929199
-4.731130123138428 -3.040410041809082 -4.185560226440430
-4.868130207061768 -2.866410017013550 -4.214560031890869
-5.525129795074463 -3.138410091400147 -4.325560092926025
-5.293129920959473 -3.149410009384155 -4.293550014495850
-5.078129768371582 -2.688410043716431 -4.263559818267822
-5.401130199432373 -3.179409980773926 -4.324560165405273
-5.153130054473877 -3.131409883499146 -4.288559913635254
-5.037129878997803 -3.149410009384155 -4.277560234069824
-5.855130195617676 -2.982409954071045 -4.400559902191162
-4.806129932403565 -2.959409952163696 -4.248559951782227
-5.402130126953125 -2.728410005569458 -4.332560062408447
-4.804130077362061 -3.216409921646118 -4.262559890747070
-5.708129882812500 -3.063410043716431 -4.401559829711914
-5.254129886627197 -2.719409942626953 -4.332560062408447
-4.928130149841309 -3.188410043716431 -4.298560142517090
-4.998129844665527 -2.781409978866577 -4.304560184478760
-4.678130149841309 -3.217410087585449 -4.277560234069824
-5.613130092620850 -2.747410058975220 -4.409560203552246
-4.918129920959473 -2.869410037994385 -4.318560123443604
-4.722129821777344 -3.070410013198853 -4.296559810638428
-5.598130226135254 -3.167409896850586 -4.425549983978272
-5.497129917144775 -2.736409902572632 -4.410550117492676
-5.461130142211914 -3.235409975051880 -4.415559768676758
-5.327129840850830 -3.244410037994385 -4.396550178527832
-5.137129783630371 -2.753410100936890 -4.373559951782227
-5.218130111694336 -3.207410097122192 -4.396550178527832
-5.899129867553711 -2.996409893035889 -4.513559818267822
-5.320129871368408 -2.745409965515137 -4.427559852600098
-4.857130050659180 -2.961410045623779 -4.369550228118897
-5.763130187988281 -3.061409950256348 -4.507549762725830
-5.105130195617676 -3.192409992218018 -4.417550086975098
-5.045129776000977 -2.816410064697266 -4.405550003051758
-4.991129875183106 -3.216409921646118 -4.406559944152832
-4.702129840850830 -3.291409969329834 -4.367559909820557
-4.862130165100098 -3.257410049438477 -4.393559932708740
-5.672130107879639 -3.155410051345825 -4.530550003051758
-5.630129814147949 -2.704410076141357 -4.529550075531006
-4.779129981994629 -3.050410032272339 -4.412549972534180
-5.493130207061768 -3.301409959793091 -4.524559974670410
-5.434130191802979 -2.735409975051880 -4.516550064086914
-5.600130081176758 -3.241410017013550 -4.560560226440430
-5.322130203247070 -3.317409992218018 -4.522550106048584
-4.687129974365234 -3.151410102844238 -4.435560226440430
-5.829130172729492 -3.043410062789917 -4.600560188293457
-4.778130054473877 -3.311409950256348 -4.452549934387207
-5.233129978179932 -2.775409936904907 -4.516550064086914
-5.933129787445068 -2.996409893035889 -4.625549793243408
-5.180130004882813 -3.281409978866577 -4.526559829711914
-4.905129909515381 -2.951410055160523 -4.487549781799316
-5.413129806518555 -3.372410058975220 -4.585549831390381
-4.889130115509033 -3.275409936904907 -4.508550167083740
-5.116129875183106 -2.828409910202026 -4.539559841156006
-5.739130020141602 -3.130409955978394 -4.636559963226318
-4.693130016326904 -3.378410100936890 -4.491559982299805
-5.059130191802979 -3.239409923553467 -4.542550086975098
-5.520130157470703 -2.713409900665283 -4.608560085296631
-5.006130218505859 -2.884409904479981 -4.538559913635254
-5.576129913330078 -3.330410003662109 -4.637559890747070
-5.330130100250244 -2.761409997940064 -4.596560001373291
-5.674129962921143 -3.235409975051880 -4.659560203552246
-4.754129886627197 -3.110409975051880 -4.527560234069824
-5.239130020141602 -3.347409963607788 -4.603559970855713
-4.840129852294922 -3.031409978866577 -4.541560173034668
-4.623129844665527 -3.274410009384155 -4.524559974670410
-5.517129898071289 -3.435410022735596 -4.658559799194336
-5.809130191802979 -3.074409961700440 -4.711559772491455
-5.636129856109619 -2.671410083770752 -4.682559967041016
-5.329130172729492 -3.418410062789917 -4.650559902191162
-5.199130058288574 -2.808409929275513 -4.624559879302979
-4.593130111694336 -3.398410081863403 -4.546559810638428
-5.111130237579346 -3.318409919738770 -4.622560024261475
-4.971129894256592 -3.288409948348999 -4.603559970855713
-4.815130233764648 -3.348409891128540 -4.584549903869629
-4.934130191802979 -2.961410045623779 -4.598549842834473
-5.422130107879639 -2.733409881591797 -4.673560142517090
-5.905129909515381 -3.013410091400147 -4.754549980163574
-5.649129867553711 -3.326410055160523 -4.729559898376465
-5.741129875183106 -3.175410032272339 -4.743549823760986
-4.695129871368408 -3.194410085678101 -4.597559928894043
-5.416130065917969 -3.475409984588623 -4.711559772491455
-4.717130184173584 -3.421410083770752 -4.609560012817383
-5.098130226135254 -2.867409944534302 -4.682559967041016
-5.585130214691162 -3.416409969329834 -4.764550209045410
-4.817130088806152 -3.083410024642944 -4.654550075531006
-5.274129867553711 -2.786410093307495 -4.716559886932373
-4.625130176544190 -3.487410068511963 -4.638559818267822
-5.537129878997803 -2.695410013198853 -4.758560180664063
-5.159130096435547 -3.377409934997559 -4.714560031890869
-4.919129848480225 -3.347409963607788 -4.688549995422363
-5.272130012512207 -3.455410003662109 -4.744559764862061
-4.632130146026611 -3.304409980773926 -4.653550148010254
-5.707129955291748 -3.268409967422485 -4.818560123443604
-5.844130039215088 -3.073410034179688 -4.836559772491455
-4.901130199432373 -3.015409946441650 -4.699560165405273
-5.030129909515381 -3.316410064697266 -4.727560043334961
-4.802130222320557 -3.417409896850586 -4.712550163269043
-5.963129997253418 -3.049410104751587 -4.877560138702393
-5.427130222320557 -2.727410078048706 -4.800559997558594
-5.490129947662354 -3.485409975051880 -4.823550224304199
-4.984129905700684 -2.949409961700440 -4.744559764862061
-5.777130126953125 -3.183409929275513 -4.867559909820557
-5.186130046844482 -2.830410003662109 -4.776559829711914
-4.755129814147949 -3.165410041809082 -4.724559783935547
-5.357130050659180 -3.511409997940064 -4.817560195922852
-5.647130012512207 -3.365410089492798 -4.885560035705566
-4.698130130767822 -3.512409925460815 -4.756559848785400
-5.091129779815674 -3.393409967422485 -4.813549995422363
-5.326129913330078 -2.766410112380981 -4.843560218811035
-4.681129932403565 -3.273410081863403 -4.771550178527832
-5.189129829406738 -3.454410076141357 -4.848559856414795
-4.884130001068115 -3.412410020828247 -4.813549995422363
-5.874129772186279 -3.126410007476807 -4.954559803009033
-5.441130161285400 -3.559410095214844 -4.899559974670410
-4.824130058288574 -3.117409944534302 -4.806550025939941
-4.590129852294922 -3.575409889221191 -4.783559799194336
-5.722129821777344 -3.292409896850586 -4.947559833526611
-5.573130130767822 -3.462409973144531 -4.932559967041016
-5.271130084991455 -3.532409906387329 -4.893549919128418
-4.620130062103272 -3.372410058975220 -4.798560142517090
-4.988130092620850 -3.363409996032715 -4.859560012817383
-5.012129783630371 -2.951410055160523 -4.864560127258301
-5.416130065917969 -2.733409881591797 -4.920559883117676
-4.916130065917969 -3.034409999847412 -4.853559970855713
-4.778130054473877 -3.476409912109375 -4.848559856414795
-5.807129859924316 -3.223409891128540 -4.996560096740723
-4.748129844665527 -3.212409973144531 -4.851550102233887
-5.114130020141602 -2.881409883499146 -4.899559974670410
-5.327129840850830 -3.633409976959229 -4.952549934387207
-5.221129894256592 -2.822410106658936 -4.927559852600098
-5.634130001068115 -3.393409967422485 -5.002560138702393
-5.091129779815674 -3.446409940719605 -4.926559925079346
-4.635129928588867 -3.641410112380981 -4.884560108184815
-5.188129901885986 -3.541409969329834 -4.975560188293457
-4.689129829406738 -3.304409980773926 -4.901559829711914
-4.839129924774170 -3.138410091400147 -4.924550056457520
-5.486130237579346 -3.629410028457642 -5.027560234069824
-4.952129840850830 -3.419409990310669 -4.961559772491455
-4.524129867553711 -3.684410095214844 -4.904560089111328
-4.613130092620850 -3.429409980773926 -4.913559913635254
-5.306129932403565 -2.786410093307495 -5.005559921264648
-4.830130100250244 -3.497410058975220 -4.949560165405273
-5.256130218505859 -3.731410026550293 -5.016560077667236
-5.693130016326904 -3.321409940719605 -5.073550224304199
-5.033130168914795 -2.962409973144531 -4.982560157775879
-5.570129871368408 -3.475409984588623 -5.073550224304199
-4.718130111694336 -3.636409997940064 -4.969550132751465
-4.945129871368408 -3.044409990310669 -5.002560138702393
-4.625130176544190 -3.723409891128540 -4.969550132751465
-5.205130100250244 -2.856410026550293 -5.043560028076172
-4.767129898071289 -3.235409975051880 -4.990550041198731
-4.591129779815674 -3.542409896850586 -4.976550102233887
-5.174129962921143 -3.661410093307495 -5.065559864044190
-5.028130054473877 -3.474410057067871 -5.049550056457520
-5.110129833221436 -3.557410001754761 -5.063549995422363
-4.888130187988281 -3.499409914016724 -5.050559997558594
-4.660130023956299 -3.391410112380981 -5.022560119628906
-5.296130180358887 -2.815409898757935 -5.117559909820557
-5.669129848480225 -3.318409919738770 -5.187560081481934
-5.068130016326904 -2.961410045623779 -5.098559856414795
-4.895130157470703 -3.119410037994385 -5.082560062408447
-5.570129871368408 -3.432410001754761 -5.187560081481934
-4.524129867553711 -3.773410081863403 -5.046559810638428
-5.470129966735840 -3.628410100936890 -5.190559864044190
-4.697130203247070 -3.714410066604614 -5.081560134887695
-4.778130054473877 -3.628410100936890 -5.093560218811035
-4.815130233764648 -3.210410118103027 -5.096560001373291
-4.719130039215088 -3.315409898757935 -5.089560031890869
-4.615129947662354 -3.482409954071045 -5.077549934387207
-4.529129981994629 -3.640409946441650 -5.077549934387207
-4.630129814147949 -3.809410095214844 -5.095560073852539
-4.980130195617676 -3.046410083770752 -5.138559818267822
-5.504129886627197 -3.524410009384155 -5.226550102233887
-5.110129833221436 -3.740410089492798 -5.188549995422363
-5.024129867553711 -3.549410104751587 -5.197559833526611
-5.591129779815674 -3.342410087585449 -5.277560234069824
-4.917129993438721 -3.496409893035889 -5.189559936523438
-5.101130008697510 -3.868410110473633 -5.231560230255127
-5.099130153656006 -2.964410066604614 -5.217559814453125
-5.513130187988281 -3.430409908294678 -5.302559852600098
-4.816130161285400 -3.628410100936890 -5.206560134887695
-4.871129989624023 -3.176409959793091 -5.207560062408447
-4.519130229949951 -3.816410064697266 -5.167550086975098
-5.224130153656006 -2.896409988403320 -5.257549762725830
-5.437129974365234 -3.650409936904907 -5.300559997558594
-4.611130237579346 -3.885410070419312 -5.186560153961182
-5.062129974365234 -3.654409885406494 -5.251560211181641
-4.752130031585693 -3.724410057067871 -5.209549903869629
-5.404129981994629 -3.768409967422485 -5.306550025939941
-4.736130237579346 -3.323410034179688 -5.206560134887695
-4.644130229949951 -3.465409994125366 -5.198550224304199
-4.566130161285400 -3.628410100936890 -5.195549964904785
-5.022130012512207 -3.040410041809082 -5.257549762725830
-5.455130100250244 -3.531409978866577 -5.336559772491455
-5.027130126953125 -3.794409990310669 -5.283559799194336
-4.962130069732666 -3.528409957885742 -5.294559955596924
-4.940130233764648 -3.125410079956055 -5.285550117492676
-4.700129985809326 -3.849410057067871 -5.264550209045410
-4.811130046844482 -3.260410070419312 -5.288559913635254
-5.135129928588867 -2.958410024642944 -5.332560062408447
-4.803130149841309 -3.804409980773926 -5.304560184478760
-4.853129863739014 -3.637409925460815 -5.316549777984619
-4.918129920959473 -3.747410058975220 -5.330550193786621
-4.699130058288574 -3.415410041809082 -5.300559997558594
-4.525129795074463 -3.756409883499146 -5.285550117492676
-4.631130218505859 -3.954410076141357 -5.306550025939941
-4.980130195617676 -3.635410070419312 -5.356560230255127
-5.405129909515381 -3.643409967422485 -5.421559810638428
-5.377130031585693 -3.762409925460815 -5.420559883117676
-4.784130096435547 -3.919409990310669 -5.351550102233887
-5.425129890441895 -3.498409986495972 -5.444560050964356
-4.577129840850830 -3.653409957885742 -5.326560020446777
-5.223130226135254 -2.952409982681274 -5.410550117492676
-4.881130218505859 -3.202409982681274 -5.378560066223145
-4.984129905700684 -3.127409934997559 -5.393549919128418
-5.079130172729492 -3.052409887313843 -5.411560058593750
-4.763130187988281 -3.348409891128540 -5.372550010681152
-4.656129837036133 -3.515409946441650 -5.368549823760986
-4.539130210876465 -3.885410070419312 -5.357560157775879
-5.325129985809326 -2.961410045623779 -5.475560188293457
-4.714129924774170 -3.995409965515137 -5.404560089111328
-4.868130207061768 -3.979409933090210 -5.432559967041016
-4.575129985809326 -3.746409893035889 -5.396550178527832
-5.392129898071289 -3.639410018920898 -5.540559768676758
-4.642129898071289 -3.643409967422485 -5.437560081481934
-4.830130100250244 -3.289410114288330 -5.462550163269043
-5.155129909515381 -3.063410043716431 -5.509560108184815
-4.609129905700684 -3.970410108566284 -5.447559833526611
-4.954130172729492 -4.016409873962402 -5.513559818267822
-4.712130069732666 -3.469409942626953 -5.473559856414795
-4.578129768371582 -3.856410026550293 -5.463560104370117
-5.264130115509033 -3.039410114288330 -5.553559780120850
-4.931129932403565 -3.199409961700440 -5.511549949645996
-5.055130004882813 -3.121409893035889 -5.531559944152832
-5.416130065917969 -3.511409997940064 -5.590559959411621
-4.678130149841309 -4.066410064697266 -5.497550010681152
-5.377130031585693 -3.745409965515137 -5.603559970855713
-4.838129997253418 -4.032410144805908 -5.532559871673584
-4.775129795074463 -3.397409915924072 -5.540559768676758
-5.181129932403565 -3.109410047531128 -5.616559982299805
-4.624129772186279 -3.777410030364990 -5.548560142517090
-5.394130229949951 -3.631409883499146 -5.659560203552246
-4.854129791259766 -3.304409980773926 -5.578559875488281
-4.700129985809326 -3.530410051345825 -5.574560165405273
-5.290130138397217 -3.096410036087036 -5.656559944152832
-4.747129917144775 -4.087409973144531 -5.596560001373291
-4.981130123138428 -3.210410118103027 -5.622550010681152
-4.946129798889160 -4.059410095214844 -5.634560108184815
-4.637129783630371 -3.938410043716431 -5.588560104370117
-5.087130069732666 -3.172410011291504 -5.653550148010254
-5.375130176544190 -3.734410047531128 -5.723559856414795
-5.397130012512207 -3.113409996032715 -5.725560188293457
-4.675129890441895 -3.711410045623779 -5.630559921264648
-4.843130111694336 -4.109409809112549 -5.668560028076172
-4.645130157470703 -4.053410053253174 -5.642560005187988
-4.660130023956299 -3.834409952163696 -5.646550178527832
-4.829130172729492 -3.375410079956055 -5.667550086975098
-4.914130210876465 -3.285409927368164 -5.678559780120850
-4.752130031585693 -3.481410026550293 -5.666560173034668
-5.223130226135254 -3.165410041809082 -5.739560127258301
-4.708129882812500 -4.182409763336182 -5.687560081481934
-5.122129917144775 -3.218410015106201 -5.759560108184815
-5.003129959106445 -3.267410039901733 -5.761549949645996
-5.320129871368408 -3.174410104751587 -5.806550025939941
-4.911129951477051 -4.128409862518311 -5.770559787750244
-4.657129764556885 -3.963409900665283 -5.732560157775879
-4.804130077362061 -4.191410064697266 -5.766560077667236
-4.848130226135254 -4.312409877777100 -5.780560016632080
-4.652130126953125 -3.631409883499146 -5.746560096740723
-4.808129787445068 -3.434410095214844 -5.766560077667236
-4.898129940032959 -3.343410015106201 -5.780560016632080
-4.665130138397217 -4.077410221099854 -5.758560180664063
-5.426129817962647 -3.189409971237183 -5.870560169219971
-4.671130180358887 -3.853410005569458 -5.799550056457520
-4.707129955291748 -3.738409996032715 -5.808559894561768
-5.147130012512207 -3.259409904479981 -5.868549823760986
-5.023129940032959 -3.302409887313843 -5.877560138702393
-5.251130104064941 -3.240410089492798 -5.919559955596924
-4.859129905700684 -3.400409936904907 -5.874559879302979
-5.483129978179932 -3.241410017013550 -5.972559928894043
-4.671130180358887 -4.033410072326660 -5.868549823760986
-5.365129947662354 -3.238409996032715 -5.960559844970703
-4.687129974365234 -4.191410064697266 -5.879549980163574
-4.732130050659180 -3.507410049438477 -5.876560211181641
-4.660130023956299 -3.643409967422485 -5.876560211181641
-4.944129943847656 -3.365410089492798 -5.954559803009033
-4.702129840850830 -3.778409957885742 -5.937560081481934
-5.061130046844482 -3.319410085678101 -5.987559795379639
-4.676129817962647 -3.893409967422485 -5.947559833526611
-4.801129817962647 -3.462409973144531 -5.963560104370117
-4.678130149841309 -4.104410171508789 -5.959549903869629
-5.524129867553711 -3.301409959793091 -6.072559833526611
-5.181129932403565 -3.290410041809082 -6.032559871673584
-5.294129848480225 -3.276410102844238 -6.052559852600098
-4.683129787445068 -3.552409887313843 -5.975560188293457
-5.409130096435547 -3.276410102844238 -6.082560062408447
-4.669129848480225 -3.993410110473633 -6.006559848785400
-5.601130008697510 -3.372410058975220 -6.138559818267822
-4.660130023956299 -3.697410106658936 -6.025549888610840
-5.008130073547363 -3.371409893035889 -6.084549903869629
-4.755129814147949 -3.518409967422485 -6.059549808502197
-4.893129825592041 -3.431410074234009 -6.082560062408447
-4.694129943847656 -3.807410001754761 -6.060560226440430
-5.138130187988281 -3.334409952163696 -6.135560035705566
-5.620130062103272 -3.452409982681274 -6.221560001373291
-5.501130104064941 -3.371409893035889 -6.204559803009033
-4.679130077362061 -3.919409990310669 -6.100560188293457
-5.253129959106445 -3.325409889221191 -6.174550056457520
-5.373129844665527 -3.323410034179688 -6.192560195922852
-4.663129806518555 -4.038410186767578 -6.113560199737549
-4.814129829406738 -3.506409883499146 -6.167550086975098
-5.052130222320557 -3.388410091400147 -6.203559875488281
-4.659130096435547 -3.634409904479981 -6.153550148010254
-4.941130161285400 -3.434410095214844 -6.192560195922852
-5.585130214691162 -3.540410041809082 -6.291560173034668
-5.520130157470703 -3.444410085678101 -6.308559894561768
-5.305130004882813 -3.366410017013550 -6.283559799194336
-5.415130138397217 -3.395410060882568 -6.300559997558594
-5.189129829406738 -3.372410058975220 -6.268549919128418
-4.703129768371582 -3.870409965515137 -6.216559886932373
-4.710130214691162 -3.743410110473633 -6.222559928894043
-4.738130092620850 -3.633409976959229 -6.252560138702393
-5.519130229949951 -3.527410030364990 -6.388559818267822
-4.987130165100098 -3.450409889221191 -6.310560226440430
-4.885129928588867 -3.508409976959229 -6.308559894561768
-5.098130226135254 -3.423409938812256 -6.345560073852539
-4.737130165100098 -3.814409971237183 -6.315559864044190
-5.395130157470703 -3.454410076141357 -6.406559944152832
-5.278130054473877 -3.416409969329834 -6.397560119628906
-4.676129817962647 -3.922410011291504 -6.328559875488281
-5.501130104064941 -3.626410007476807 -6.468560218811035
-4.785130023956299 -3.633409976959229 -6.376560211181641
-5.159130096435547 -3.441410064697266 -6.445549964904785
-4.598130226135254 -3.986409902572632 -6.384560108184815
-5.431129932403565 -3.536410093307495 -6.499559879302979
-5.028130054473877 -3.481410026550293 -6.450560092926025
-4.696129798889160 -3.856410026550293 -6.422560214996338
-4.927130222320557 -3.542409896850586 -6.469550132751465
-5.483129978179932 -3.746409893035889 -6.558559894561768
-4.746129989624023 -3.756409883499146 -6.456560134887695
-5.444129943847656 -3.635410070419312 -6.571559906005859
-5.312129974365234 -3.502409934997559 -6.557559967041016
-4.815130233764648 -3.634409904479981 -6.491559982299805
-5.197130203247070 -3.485409975051880 -6.566549777984619
-5.551129817962647 -3.814409971237183 -6.631559848785400
-4.623129844665527 -3.910409927368164 -6.499559879302979
-5.015130043029785 -3.532409906387329 -6.556550025939941
-4.691130161285400 -3.820410013198853 -6.557559967041016
-5.368130207061768 -3.593410015106201 -6.659560203552246
-5.422130107879639 -3.708410024642944 -6.670559883117676
-4.868130207061768 -3.629410028457642 -6.594550132751465
-4.777130126953125 -3.717410087585449 -6.587550163269043
-5.110129833221436 -3.532409906387329 -6.635560035705566
-5.253129959106445 -3.555409908294678 -6.694560050964356
-5.501130104064941 -3.762409925460815 -6.739560127258301
-4.929130077362061 -3.635410070419312 -6.694560050964356
-4.709129810333252 -3.781409978866577 -6.668560028076172
-4.608129978179932 -3.840409994125366 -6.671559810638428
-4.825129985809326 -3.703409910202026 -6.704559803009033
-5.311130046844482 -3.629410028457642 -6.775549888610840
-5.397130012512207 -3.732409954071045 -6.792550086975098
-5.147130012512207 -3.583410024642944 -6.768549919128418
-5.006130218505859 -3.628410100936890 -6.789559841156006
-5.225130081176758 -3.633409976959229 -6.855559825897217
-5.318130016326904 -3.698410034179688 -6.874559879302979
-4.756130218505859 -3.745409965515137 -6.798560142517090
-4.638130187988281 -3.799410104751587 -6.782559871673584
-4.867129802703857 -3.693409919738770 -6.826560020446777
-5.098130226135254 -3.636409997940064 -6.886549949645996
-5.419129848480225 -3.712409973144531 -6.956560134887695
-4.962130069732666 -3.665410041809082 -6.889550209045410
-4.789130210876465 -3.732409954071045 -6.916560173034668
-5.304130077362061 -3.696409940719605 -6.992559909820557
-4.680130004882813 -3.768409967422485 -6.904560089111328
-5.162129878997803 -3.660409927368164 -6.980559825897217
-5.037129878997803 -3.666409969329834 -6.981560230255127
-4.884130001068115 -3.704410076141357 -6.998559951782227
-5.393129825592041 -3.680409908294678 -7.081560134887695
-5.229129791259766 -3.688410043716431 -7.087550163269043
-5.100130081176758 -3.684410095214844 -7.082560062408447
-4.765130043029785 -3.754410028457642 -7.036560058593750
-4.980130195617676 -3.697410106658936 -7.078559875488281
-5.312129974365234 -3.682410001754761 -7.172560214996338
-4.880129814147949 -3.717410087585449 -7.140560150146484
-5.032129764556885 -3.701410055160523 -7.233550071716309
-4.803130149841309 -3.744410037994385 -7.254549980163574
-4.912129878997803 -3.710410118103027 -7.282559871673584
-4.987130165100098 -3.683409929275513 -7.369559764862061
