ply
format ascii 1.0
element vertex 742
property double x
property double y
property double z
end_header
14.152700424194336 -1.186910033226013 140.216003417968750
13.595600128173828 -0.934346973896027 140.500000000000000
13.567700386047363 -0.298963993787766 140.761001586914060
14.077099800109863 0.278071999549866 141.132995605468750
12.559499740600586 0.186329007148743 141.348007202148440
12.114199638366699 -1.274739980697632 141.486999511718750
13.103899955749512 0.598869025707245 141.445999145507810
13.589200019836426 1.213080048561096 141.774993896484370
15.090100288391113 -1.865560054779053 142.951995849609370
11.743200302124023 0.423806995153427 142.119995117187500
12.133500099182129 1.042420029640198 142.039993286132810
15.055899620056152 -2.282219886779785 143.503005981445310
12.620900154113770 1.534209966659546 142.046997070312500
14.743599891662598 0.067408002912998 143.630996704101560
13.598899841308594 1.898210048675537 142.227996826171870
14.132699966430664 -0.924178004264832 144.001998901367190
13.649100303649902 -1.440510034561157 144.037002563476560
14.080499649047852 2.435329914093018 142.664001464843750
11.602899551391602 1.604650020599365 142.436996459960940
11.177100181579590 1.030670046806335 142.572998046875000
12.109199523925781 2.085880041122437 142.462997436523440
13.097700119018555 2.489099979400635 142.606002807617190
13.140899658203125 -0.490759998559952 144.638000488281250
13.720299720764160 -0.023403000086546 144.699005126953120
14.208499908447266 0.503475010395050 144.639007568359370
14.574199676513672 1.120880007743835 144.401992797851560
14.120200157165527 -1.974750041961670 144.958999633789060
12.062399864196777 -0.485801011323929 144.591995239257810
13.107999801635742 0.088203996419907 144.966003417968750
13.593000411987305 3.041830062866211 143.022994995117190
13.635499954223633 0.568723976612091 145.005996704101560
14.098999977111816 1.106570005416870 144.932998657226560
11.116200447082520 2.088190078735352 142.966995239257810
10.686400413513184 1.530490040779114 143.089004516601560
14.632200241088867 -1.564910054206848 145.451004028320310
13.586700439453125 -1.826990008354187 145.421005249023440
12.607099533081055 3.057359933853149 143.000000000000000
11.619700431823730 2.569050073623657 142.988998413085940
12.097200393676758 0.083797998726368 144.972000122070310
14.438199996948242 1.688130021095276 144.768997192382810
10.676699638366699 -1.217869997024536 144.518997192382810
10.100600242614746 -0.410493999719620 143.929000854492190
12.596099853515625 0.653656005859375 145.350997924804690
9.588809967041016 -0.253899008035660 143.485000610351560
14.079299926757813 3.520580053329468 143.542007446289060
15.105400085449219 -1.407039999961853 145.936996459960940
11.557000160217285 0.473668009042740 145.141998291015620
13.121100425720215 1.073469996452332 145.494003295898440
11.040200233459473 2.686899900436401 143.292999267578120
10.120699882507324 -0.804063975811005 144.485992431640620
11.575099945068359 3.156199932098389 143.354995727539060
13.635700225830078 1.582679986953735 145.483993530273440
14.581000328063965 2.612560033798218 144.917007446289060
13.094300270080566 3.970900058746338 143.606002807617190
12.093099594116211 3.632169961929321 143.397994995117190
12.077400207519531 4.207530021667481 143.783996582031250
13.571100234985352 4.479650020599365 144.106994628906250
12.587300300598145 4.796040058135986 144.154006958007810
14.094900131225586 4.080599784851074 143.968002319335940
11.180100440979004 4.023429870605469 144.082992553710940
13.808799743652344 4.441720008850098 144.860992431640620
13.577799797058105 5.035999774932861 144.522994995117190
11.126399993896484 4.564700126647949 144.498992919921870
11.603099822998047 5.098100185394287 144.445999145507810
10.683699607849121 3.542720079421997 144.055999755859370
11.190199851989746 2.176450014114380 144.458999633789060
13.047900199890137 5.431300163269043 144.641998291015620
14.419899940490723 3.158740043640137 145.274993896484370
10.724499702453613 2.533890008926392 144.110992431640620
14.005000114440918 3.142750024795532 145.837997436523440
14.048999786376953 2.136320114135742 145.371002197265620
13.633399963378906 2.582410097122192 145.979995727539060
14.221599578857422 4.597340106964111 145.511001586914060
12.098400115966797 5.651249885559082 144.880004882812500
14.122699737548828 4.100269794464111 145.953994750976560
13.130800247192383 2.066250085830689 146.009002685546870
10.227299690246582 2.884789943695068 143.679000854492190
13.157500267028809 3.052619934082031 146.535003662109370
13.617400169372559 3.597630023956299 146.453994750976560
14.066200256347656 5.505070209503174 145.072006225585940
12.616100311279297 2.574029922485352 146.488006591796870
12.599300384521484 1.615679979324341 145.917007446289060
12.100899696350098 2.173150062561035 146.326004028320310
13.445300102233887 5.396619796752930 145.850997924804690
13.089599609375000 6.007400035858154 145.069000244140620
11.086099624633789 5.631010055541992 144.889999389648440
10.589400291442871 5.126080036163330 144.899002075195310
12.576299667358398 3.147639989852905 146.860000610351560
11.604299545288086 1.614179968833923 145.921997070312500
13.071499824523926 3.629019975662231 146.886001586914060
11.072099685668945 2.054539918899536 146.003997802734370
12.090499877929688 1.017490029335022 145.582992553710940
13.775300025939941 4.571619987487793 146.591995239257810
10.267200469970703 2.283210039138794 145.238006591796870
10.675600051879883 1.695739984512329 145.315994262695310
12.925399780273438 5.886680126190186 145.850006103515620
10.351300239562988 4.586200237274170 145.535995483398440
10.578000068664551 2.578350067138672 145.970993041992190
11.096699714660645 2.595499992370606 146.447998046875000
11.129699707031250 1.160189986228943 145.356002807617190
11.600399971008301 3.087029933929443 146.960998535156250
10.135299682617187 3.132420063018799 145.893005371093750
13.908300399780273 5.607639789581299 146.281997680664060
10.588399887084961 5.611310005187988 145.419006347656250
13.293000221252441 4.518740177154541 147.171005249023440
12.088299751281738 3.670439958572388 147.337005615234370
11.030500411987305 6.157800197601318 145.317001342773440
12.580300331115723 4.126939773559570 147.393997192382810
13.569399833679199 6.460209846496582 145.621002197265620
10.438199996948242 3.426340103149414 146.643005371093750
12.083600044250488 6.689750194549561 145.309005737304690
11.025699615478516 3.459969997406006 147.117004394531250
9.989089965820313 3.986469984054565 146.563995361328120
13.059900283813477 6.941090106964111 145.684005737304690
13.154000282287598 5.082149982452393 147.500000000000000
10.116900444030762 5.603139877319336 145.947006225585940
10.469200134277344 3.935359954833984 147.141006469726560
10.542300224304199 6.118199825286865 145.882995605468750
12.529700279235840 4.688000202178955 147.772994995117190
11.068300247192383 4.002890110015869 147.570007324218750
13.467200279235840 5.650380134582520 147.294998168945310
9.654279708862305 4.651279926300049 146.375000000000000
11.169199943542480 6.927609920501709 145.695007324218750
12.083399772644043 7.220489978790283 145.759002685546870
11.608599662780762 4.563590049743652 147.996994018554690
10.094599723815918 4.594739913940430 147.447006225585940
9.893130302429199 6.128260135650635 146.302993774414060
13.082200050354004 7.538420200347900 146.037994384765620
12.707500457763672 5.542339801788330 148.087005615234380
10.617400169372559 4.642720222473145 147.889007568359370
12.043600082397461 5.196050167083740 148.281005859375000
13.093199729919434 6.107870101928711 147.927001953125000
11.131699562072754 7.514619827270508 146.076004028320310
10.257300376892090 7.081160068511963 146.052993774414060
14.103400230407715 7.104469776153565 146.936996459960940
11.100999832153320 5.134520053863525 148.393997192382810
9.545359611511231 5.006350040435791 147.524993896484370
13.526700019836426 7.109499931335449 147.382995605468750
10.103099822998047 5.106999874114990 147.934005737304690
9.547789573669434 6.106840133666992 146.904998779296870
12.583000183105469 6.114950180053711 148.410995483398440
12.622500419616699 8.142869949340820 146.375000000000000
9.823010444641113 7.096869945526123 146.583999633789060
12.941699981689453 6.664120197296143 148.277999877929690
11.594200134277344 8.169050216674805 146.335006713867190
11.564100265502930 5.737730026245117 148.735992431640620
9.565150260925293 5.546460151672363 147.992996215820310
10.114999771118164 5.631340026855469 148.406997680664060
10.641200065612793 8.072239875793457 146.498001098632810
13.432900428771973 7.646570205688477 147.783004760742190
9.386230468750000 6.649059772491455 147.322998046875000
12.114600181579590 6.594099998474121 148.958999633789060
12.167300224304199 8.743419647216797 146.716995239257810
10.593000411987305 6.033530235290527 149.026000976562500
13.091799736022949 7.608660221099854 148.425994873046870
10.633899688720703 8.578559875488281 146.990997314453120
11.119000434875488 9.062319755554199 147.009002685546870
10.067399978637695 8.120730400085449 146.902999877929690
12.069600105285645 9.400540351867676 147.145004272460940
11.083999633789063 9.654660224914551 147.352005004882810
10.042900085449219 9.126480102539063 147.380004882812500
9.672900199890137 8.584580421447754 147.492004394531250
13.000100135803223 8.946689605712891 147.151992797851560
12.885499954223633 9.113499641418457 148.261001586914060
9.561189651489258 7.616869926452637 147.408996582031250
12.705800056457520 8.060460090637207 149.046005249023440
12.084300041198730 9.944869995117188 147.606002807617190
12.542300224304199 7.132810115814209 148.869995117187500
12.648300170898437 9.630350112915039 147.897994995117190
12.202199935913086 8.047240257263184 149.561996459960940
13.012000083923340 8.632390022277832 148.852996826171870
11.728599548339844 7.495810031890869 149.641998291015620
11.092100143432617 10.251500129699707 147.723007202148440
10.284199714660645 9.984560012817383 147.667007446289060
12.584899902343750 8.612219810485840 149.417999267578130
9.177539825439453 8.092450141906738 147.977005004882810
9.296549797058106 9.051529884338379 148.089996337890630
11.096300125122070 6.624859809875488 149.406997680664060
11.065400123596191 7.210589885711670 149.777999877929690
9.192509651184082 7.103350162506104 147.973007202148440
12.659999847412109 10.127099990844727 148.397994995117190
11.225299835205078 7.962679862976074 150.173004150390620
9.742489814758301 10.041399955749512 148.085006713867190
11.741100311279297 8.486100196838379 150.156005859375000
10.121100425720215 6.669670104980469 149.356002807617190
12.192399978637695 9.060310363769531 150.031997680664060
9.286299705505371 6.813630104064941 148.750000000000000
9.700300216674805 6.294239997863770 148.727005004882810
12.926899909973145 9.653140068054199 149.302001953125000
9.600040435791016 7.102240085601807 149.438995361328120
8.797599792480469 8.086099624633789 148.563003540039060
9.043680191040039 7.551149845123291 148.992004394531250
9.315099716186523 6.373270034790039 148.188995361328120
10.118800163269043 10.578700065612793 147.966995239257810
10.083999633789062 7.527210235595703 150.037002563476560
11.101499557495117 10.981200218200684 148.113998413085940
12.504199981689453 9.640990257263184 149.854995727539060
8.925510406494141 9.152830123901367 148.826995849609370
10.605799674987793 8.087479591369629 150.460998535156250
12.091400146484375 11.001000404357910 148.067001342773440
9.275369644165039 10.023599624633789 148.604003906250000
9.244059562683106 7.770209789276123 149.723007202148440
11.660699844360352 9.061610221862793 150.514999389648440
9.608849525451660 10.599200248718262 148.445007324218750
11.039799690246582 8.734550476074219 150.738006591796870
12.064299583435059 9.621890068054199 150.399993896484370
9.636320114135742 8.170709609985352 150.356002807617190
9.034899711608887 9.608570098876953 149.417007446289060
10.087599754333496 11.131600379943848 148.404006958007810
9.006990432739258 8.497590065002441 150.044998168945310
11.594599723815918 11.544099807739258 148.520996093750000
10.104399681091309 8.630880355834961 150.901992797851560
10.613200187683105 11.544099807739258 148.518997192382810
9.083729743957520 10.616800308227539 148.912994384765620
12.583600044250488 11.467900276184082 148.595001220703120
8.677470207214356 9.151029586791992 149.912002563476560
11.200300216674805 9.513959884643555 151.089996337890630
9.505009651184082 11.193799972534180 148.802993774414060
9.294300079345703 8.811269760131836 150.714996337890630
11.937600135803223 10.166899681091309 150.783004760742190
12.441800117492676 10.653100013732910 150.304992675781250
10.571499824523926 9.232049942016602 151.253997802734370
10.106699943542480 11.594900131225586 148.986999511718750
8.640259742736816 10.112299919128418 149.945007324218750
8.641920089721680 10.590100288391113 149.473007202148440
11.451700210571289 10.176400184631348 151.264007568359370
8.802650451660156 9.313349723815918 150.720993041992190
9.632619857788086 9.212209701538086 151.300994873046870
11.109600067138672 12.148900032043457 148.873992919921870
9.506349563598633 11.703700065612793 149.302001953125000
10.673000335693359 10.004300117492676 151.611999511718750
12.097800254821777 11.106200218200684 150.932006835937500
8.409020423889160 9.918350219726563 150.597000122070310
12.038399696350098 12.390299797058105 149.212005615234370
9.149220466613770 9.677000045776367 151.348999023437500
12.563099861145020 11.612799644470215 150.404998779296870
10.593500137329102 12.484800338745117 149.132995605468750
8.823530197143555 11.521499633789063 149.634994506835940
11.634699821472168 11.090800285339355 151.473999023437500
11.023200035095215 10.670999526977539 151.798995971679690
9.615900039672852 12.092100143432617 149.955993652343750
9.606240272521973 10.130000114440918 151.899002075195310
8.666799545288086 10.184000015258789 151.341003417968750
11.955800056457520 11.656700134277344 151.292007446289060
9.616359710693359 12.576999664306641 149.492996215820310
10.131699562072754 10.505299568176270 152.097000122070310
12.451199531555176 12.150099754333496 150.796997070312500
11.565199851989746 12.987899780273438 149.587005615234380
8.463769912719727 11.648699760437012 150.320999145507810
10.598699569702148 13.062199592590332 149.503005981445310
8.841719627380371 12.250399589538574 150.171005249023440
8.203889846801758 10.719900131225586 151.287002563476560
9.075380325317383 10.554300308227539 152.009002685546870
11.203599929809570 11.547300338745117 152.070999145507810
10.558899879455566 11.158800125122070 152.335998535156250
9.555170059204102 13.191900253295898 149.748992919921870
11.574600219726563 12.115500450134277 151.908004760742190
12.058099746704102 12.618200302124023 151.395996093750000
11.584400177001953 13.548199653625488 150.007995605468750
9.599089622497559 11.065899848937988 152.498992919921870
8.561530113220215 11.049300193786621 152.007003784179690
10.098899841308594 13.641300201416016 149.875000000000000
9.581890106201172 14.209300041198730 150.248001098632810
11.174200057983398 12.570400238037109 152.518005371093750
10.729999542236328 11.987400054931641 152.667999267578130
11.490900039672852 13.141099929809570 152.337005615234380
8.626409530639648 13.070099830627441 149.998992919921870
8.565890312194824 13.663399696350098 150.339004516601560
11.053199768066406 13.961999893188477 150.128005981445310
10.082099914550781 11.683099746704102 152.811004638671870
10.592800140380859 14.569499969482422 150.481994628906250
11.882399559020996 13.170100212097168 151.746002197265620
10.236100196838379 12.452899932861328 153.220993041992190
10.755200386047363 13.012299537658691 153.138000488281250
9.599550247192383 12.231599807739258 153.236999511718750
10.084899902343750 14.946900367736816 150.694000244140620
11.121600151062012 13.596899986267090 152.955993652343750
9.045829772949219 11.469099998474121 152.630996704101560
11.936499595642090 13.851200103759766 151.356994628906250
8.634819984436035 14.488100051879883 150.634994506835940
11.513999938964844 14.427900314331055 150.647994995117190
8.612099647521973 12.126600265502930 152.906997680664060
8.109060287475586 14.095499992370605 150.951004028320310
11.558899879455566 14.116900444030762 152.399993896484370
8.203220367431641 11.747699737548828 152.274993896484370
8.521750450134277 14.691100120544434 151.309005737304690
10.642100334167480 13.581999778747559 153.488006591796870
11.082400321960449 15.056799888610840 150.994003295898440
7.771180152893066 12.288200378417969 152.251998901367190
12.077400207519531 14.043700218200684 150.507003784179690
10.031800270080566 13.211299896240234 153.753005981445310
9.106530189514160 15.174300193786621 150.794998168945310
9.085140228271484 12.963399887084961 153.643005371093750
7.919990062713623 11.428600311279297 151.684997558593750
8.093649864196777 12.592100143432617 152.951004028320310
12.017399787902832 14.466500282287598 151.089996337890630
10.977499961853027 14.153200149536133 153.317001342773440
10.082699775695801 15.522600173950195 151.067001342773440
7.460619926452637 11.954000473022461 151.585998535156250
11.612500190734863 15.115200042724609 151.421997070312500
7.525730133056641 13.003299713134766 152.539001464843750
8.099240303039551 13.098899841308594 153.444000244140620
11.083700180053711 15.565099716186523 151.483993530273440
9.097260475158691 13.529999732971191 154.046005249023440
8.598230361938477 15.583700180053711 150.970001220703120
11.316200256347656 15.043000221252441 153.098999023437500
11.513600349426270 15.539199829101562 152.020996093750000
10.553099632263184 16.025400161743164 151.533004760742190
10.590299606323242 14.609700202941895 153.923995971679690
8.124090194702148 13.658300399780273 153.861999511718750
10.043800354003906 14.182999610900879 154.292007446289060
9.613800048828125 16.152399063110352 151.363006591796870
7.590449810028076 13.587900161743164 153.455001831054690
11.115699768066406 16.124700546264648 151.914001464843750
10.928799629211426 15.161100387573242 153.761001586914060
9.102129936218262 14.101099967956543 154.442001342773440
7.100419998168945 14.103099822998047 152.938003540039060
9.062049865722656 16.437400817871094 151.677001953125000
7.599720001220703 14.099800109863281 153.942001342773440
10.581299781799316 16.576200485229492 151.968002319335940
10.468199729919434 15.153499603271484 154.289993286132810
8.095859527587891 16.106000900268555 152.434005737304690
8.578949928283691 14.511799812316895 154.578002929687500
11.459500312805176 16.460100173950195 152.600006103515620
11.229599952697754 16.072200775146484 153.542999267578120
9.981229782104492 15.166500091552734 154.772994995117190
10.054800033569336 17.004400253295898 152.048004150390620
9.080069541931152 17.027500152587891 152.041000366210940
10.984399795532227 16.953800201416016 152.595993041992190
9.106590270996094 15.035499572753906 155.054000854492190
8.030969619750977 14.911700248718262 154.716003417968750
7.207029819488525 14.802000045776367 154.192001342773440
10.627499580383301 16.095699310302734 154.460998535156250
11.493499755859375 16.963499069213867 153.046997070312500
10.485600471496582 17.413400650024414 152.645004272460940
7.349629878997803 16.171400070190430 153.544998168945310
6.980529785156250 15.498000144958496 154.024993896484370
8.575019836425781 15.450699806213379 155.190994262695310
9.615960121154785 17.632299423217773 152.404998779296870
10.134699821472168 16.088699340820313 154.975997924804690
9.558300018310547 15.669199943542480 155.305999755859370
8.577050209045410 17.545000076293945 152.016006469726560
7.365109920501709 16.675100326538086 153.042007446289060
10.808300018310547 17.077800750732422 154.089996337890620
7.577499866485596 15.547800064086914 155.018005371093750
10.489100456237793 16.645999908447266 154.824005126953120
10.774999618530273 17.814300537109375 153.227996826171870
9.067119598388672 18.030500411987305 152.533996582031250
10.080900192260742 18.072399139404297 152.970993041992190
8.596220016479492 16.031600952148437 155.557998657226560
6.798739910125732 15.848199844360352 154.639999389648440
11.353199958801270 17.829000473022461 153.718002319335940
7.602620124816895 16.107299804687500 155.432006835937500
7.041079998016357 17.101800918579102 153.906005859375000
8.527959823608398 18.432399749755859 152.647003173828120
9.541589736938477 16.674800872802734 155.774002075195310
9.544059753417969 18.503799438476563 153.059997558593750
10.099200248718262 17.106100082397461 155.432998657226560
10.605699539184570 17.603900909423828 154.938995361328120
7.973219871520996 18.157899856567383 153.393005371093750
10.488300323486328 18.468599319458008 153.572006225585940
9.075090408325195 17.218299865722656 156.205001831054690
9.665699958801270 17.558300018310547 156.044006347656250
8.601479530334473 16.616100311279297 155.916000366210940
7.475669860839844 18.156299591064453 153.861999511718750
8.090270042419434 16.995300292968750 156.110000610351560
7.791309833526611 18.961099624633789 154.130996704101560
10.055500030517578 18.123399734497070 155.889007568359370
8.101949691772461 17.578899383544922 156.479003906250000
10.460800170898437 18.144599914550781 155.317001342773440
6.929800033569336 17.634700775146484 154.330993652343750
7.024310111999512 18.628900527954102 154.382995605468750
9.056839942932129 18.226400375366211 156.695999145507810
9.020350456237793 18.916799545288086 153.158004760742190
7.095990180969238 17.091899871826172 155.953994750976560
9.991959571838379 18.948400497436523 153.619003295898440
7.068399906158447 16.530899047851562 155.537002563476560
9.054770469665527 19.502500534057617 153.563995361328120
7.572679996490479 17.944999694824219 156.680999755859370
9.612500190734863 19.620899200439453 153.916000366210940
8.155750274658203 19.278699874877930 153.240005493164060
10.493800163269043 18.987800598144531 154.059997558593750
6.646230220794678 18.604999542236328 154.960006713867190
10.856399536132813 18.651500701904297 154.753997802734370
7.259920120239258 19.488199234008789 154.595993041992190
10.190299987792969 19.076099395751953 156.007003784179690
9.541549682617188 18.698999404907227 156.746002197265620
10.567700386047363 19.113700866699219 155.412002563476560
8.089289665222168 19.798799514770508 153.729003906250000
10.176400184631348 19.662300109863281 154.343002319335940
8.112319946289063 18.543800354003906 157.046997070312500
11.009699821472168 18.506099700927734 154.033004760742190
9.085840225219727 20.072099685668945 153.977005004882810
6.559269905090332 17.519300460815430 156.055999755859370
7.623559951782227 20.091299057006836 154.453994750976560
6.813960075378418 19.510499954223633 155.102996826171870
9.655940055847168 20.173999786376953 154.350006103515620
6.194680213928223 16.773300170898437 155.210998535156250
6.585470199584961 18.070400238037109 156.483993530273440
10.725500106811523 19.679500579833984 154.800003051757810
6.389450073242188 19.110099792480469 155.546005249023440
7.169280052185059 20.069900512695313 155.001998901367190
8.564660072326660 19.183000564575195 157.259994506835940
7.088789939880371 18.556800842285156 157.007003784179690
9.116930007934570 20.634500503540039 154.397003173828120
8.066729545593262 20.514900207519531 154.044998168945310
9.939929962158203 19.664199829101563 156.718994140625000
7.485439777374268 20.345300674438477 153.682006835937500
9.681059837341309 20.726900100708008 154.774993896484380
7.547410011291504 20.645399093627930 154.886001586914060
7.601819992065430 19.110300064086914 157.427001953125000
9.079460144042969 19.636299133300781 157.332992553710940
10.796299934387207 20.070499420166016 155.574005126953120
10.418999671936035 20.466299057006836 155.119003295898440
10.314900398254395 20.181200027465820 156.192001342773440
6.065410137176514 18.541200637817383 156.516998291015620
6.575240135192871 20.120399475097656 155.401992797851560
6.180099964141846 19.607799530029297 155.968002319335940
6.543320178985596 18.972999572753906 157.126007080078120
7.508900165557861 20.887100219726563 154.177993774414060
9.565420150756836 20.132999420166016 157.302001953125000
7.585400104522705 19.701200485229492 157.764999389648440
5.942689895629883 19.392700195312500 156.699005126953120
6.815770149230957 20.870300292968750 155.632003784179690
7.403009891510010 21.339700698852539 155.304000854492190
6.572130203247070 19.526699066162109 157.555999755859370
8.085610389709473 20.133499145507812 157.878997802734380
6.264540195465088 20.596000671386719 156.026000976562500
9.144769668579102 20.577699661254883 157.585998535156250
10.736900329589844 21.003799438476562 156.082992553710940
8.002659797668457 21.843000411987305 155.319000244140620
7.015359878540039 21.719800949096680 155.830993652343750
6.600289821624756 20.099500656127930 157.945007324218750
8.464440345764160 22.204299926757813 154.985000610351560
5.550169944763184 20.040500640869141 157.024002075195310
6.018839836120606 19.966800689697266 157.636993408203120
6.147630214691162 21.093700408935547 156.462997436523440
8.023839950561523 20.728500366210937 158.197006225585940
10.610099792480469 21.599000930786133 156.445007324218750
8.646100044250488 21.073400497436523 158.016998291015620
11.211199760437012 21.531799316406250 156.046997070312500
9.591150283813477 21.607700347900391 157.421005249023440
7.558040142059326 22.236499786376953 155.826995849609370
6.474269866943359 21.698900222778320 156.311004638671870
7.102180004119873 20.658300399780273 158.347000122070310
8.566860198974609 22.624300003051758 153.945007324218750
9.061670303344727 21.619600296020508 157.880996704101560
5.647850036621094 20.657199859619141 157.378005981445310
6.064290046691895 20.539499282836914 158.029998779296870
11.008500099182129 22.197399139404297 156.335998535156250
7.537509918212891 22.771499633789063 156.244003295898440
8.162969589233398 21.553199768066406 158.544998168945310
9.042360305786133 23.131799697875977 154.955993652343750
6.702089786529541 22.505699157714844 156.585006713867190
7.097799777984619 21.250600814819336 158.695007324218750
9.394809722900391 23.155799865722656 155.559005737304690
5.629940032958984 21.135900497436523 157.901992797851560
8.865690231323242 23.246000289916992 153.998992919921870
6.097330093383789 21.096700668334961 158.447998046875000
10.703800201416016 22.548400878906250 157.022994995117190
5.865469932556152 21.993700027465820 157.167007446289060
8.625220298767090 22.093799591064453 158.466003417968750
10.126899719238281 22.592699050903320 157.462005615234370
9.429570198059082 22.659099578857422 157.776992797851560
6.122119903564453 22.590999603271484 156.962005615234370
7.521329879760742 23.298799514770508 156.654998779296870
8.065299987792969 22.139099121093750 158.863998413085940
11.446100234985352 22.781499862670898 156.735992431640620
8.983570098876953 22.649200439453125 158.313003540039060
7.071109771728516 22.214300155639648 159.248992919921870
7.573170185089111 22.644100189208984 159.361999511718750
8.497220039367676 22.657600402832031 158.805999755859370
8.047989845275879 23.141099929809570 159.354003906250000
6.596700191497803 23.110300064086914 156.927001953125000
6.119520187377930 21.661199569702148 158.850006103515620
5.786280155181885 23.010999679565430 157.651992797851560
6.619470119476318 22.927799224853516 159.727996826171870
6.121610164642334 23.592800140380859 157.464996337890620
6.716289997100830 23.934900283813477 157.220993041992190
8.662500381469727 23.579500198364258 159.001998901367190
6.095349788665772 22.576000213623047 159.479003906250000
7.584070205688477 24.038499832153320 157.035003662109370
8.117790222167969 23.662599563598633 156.856002807617190
5.718100070953369 23.579900741577148 158.009002685546880
7.917469978332520 23.712099075317383 159.688995361328120
5.620840072631836 22.136299133300781 158.893005371093750
9.146180152893066 23.591899871826172 158.477005004882810
5.598380088806152 21.600400924682617 158.442001342773440
7.121429920196533 23.572700500488281 159.998001098632810
7.102069854736328 24.598499298095703 157.445999145507810
8.074850082397461 24.538000106811523 157.526992797851560
8.523079872131348 24.136600494384766 159.350997924804690
5.172339916229248 22.181299209594727 158.345993041992190
5.187260150909424 22.689599990844727 158.832000732421870
6.315710067749023 24.559900283813477 157.613006591796870
8.977629661560059 24.145900726318359 158.813995361328120
5.551670074462891 23.018299102783203 159.548995971679690
6.089220046997070 23.510499954223633 160.082000732421870
5.812190055847168 24.562299728393555 158.104995727539060
9.732080459594727 23.565299987792969 158.057998657226560
7.476689815521240 24.240299224853516 160.167999267578120
8.097909927368164 25.094600677490234 157.949996948242190
4.992330074310303 23.458499908447266 159.063003540039060
6.577159881591797 25.143299102783203 157.873992919921870
8.109829902648926 24.600299835205078 159.947006225585940
5.323740005493164 24.565399169921875 158.602005004882810
7.560319900512695 25.500699996948242 158.074005126953120
5.190470218658447 23.746400833129883 159.759002685546870
6.101830005645752 24.105300903320313 160.434997558593750
9.756210327148438 23.560600280761719 156.350997924804690
6.633550167083740 24.496200561523438 160.625000000000000
10.242899894714355 23.970399856567383 158.572006225585940
8.471019744873047 25.156400680541992 159.783996582031250
6.548120021820068 25.736499786376953 158.264007568359370
10.645299911499023 23.059900283813477 157.481002807617190
10.606699943542480 23.599899291992188 157.940994262695310
7.633540153503418 25.082799911499023 160.485992431640620
8.738499641418457 25.597099304199219 159.048995971679690
5.726419925689697 25.575199127197266 158.531997680664060
5.157060146331787 25.092599868774414 158.973007202148440
7.572070121765137 26.046800613403320 158.511993408203120
4.706059932708740 24.247499465942383 159.757003784179690
5.557829856872559 24.483299255371094 160.606002807617190
7.055200099945068 25.158300399780273 160.828002929687500
10.036999702453613 24.605800628662109 156.479003906250000
9.407139778137207 23.997800827026367 155.363006591796870
8.056839942932129 25.626600265502930 160.378005981445310
6.057300090789795 26.143499374389648 158.848007202148440
9.716569900512695 24.602300643920898 155.858993530273440
7.044340133666992 26.445600509643555 158.651000976562500
6.106140136718750 25.045000076293945 161.033996582031250
7.539390087127686 25.653799057006836 160.828994750976560
8.024800300598145 26.485099792480469 159.098007202148440
8.522640228271484 26.111799240112305 159.873001098632810
5.309440135955811 26.063499450683594 159.098007202148440
4.981790065765381 24.940500259399414 160.639999389648440
4.465929985046387 24.955600738525391 160.113006591796870
9.458379745483398 25.575099945068359 156.039993286132810
9.921070098876953 25.600099563598633 156.557006835937500
7.934490203857422 26.193000793457031 160.722000122070310
6.564700126647949 25.677200317382813 161.302001953125000
7.519949913024902 26.944200515747070 159.156005859375000
5.535679817199707 25.418500900268555 161.208999633789060
4.829219818115234 26.070199966430664 159.610992431640620
6.593679904937744 27.039100646972656 159.031997680664060
7.054450035095215 26.154899597167969 161.335998535156250
9.473469734191895 26.562799453735352 156.531997680664060
5.644040107727051 27.089799880981445 158.973007202148440
12.019000053405762 23.231899261474609 156.809005737304690
4.266449928283691 25.720800399780273 160.324005126953120
4.628469944000244 25.637899398803711 160.893005371093750
7.509520053863525 26.663799285888672 161.302993774414060
5.245079994201660 27.054599761962891 159.567001342773440
8.250720024108887 27.060499191284180 160.578994750976560
5.579460144042969 25.994600296020508 161.606002807617190
7.084400177001953 27.564899444580078 159.488998413085940
5.641200065612793 27.582199096679688 159.470993041992190
4.214200019836426 26.212400436401367 160.811996459960940
4.648449897766113 26.170400619506836 161.348007202148440
4.760590076446533 27.049100875854492 160.082992553710940
8.395540237426758 27.638999938964844 160.253005981445310
6.512539863586426 27.933399200439453 159.660995483398440
6.101480007171631 26.606300354003906 161.934005737304690
9.734880447387695 27.649299621582031 156.848999023437500
7.556409835815430 28.048400878906250 160.009994506835940
5.120920181274414 27.595399856567383 159.953002929687500
8.149709701538086 27.587900161743164 160.986999511718750
9.514019966125488 28.061899185180664 157.507003784179690
6.633759975433350 27.068899154663086 162.003997802734370
5.106910228729248 26.619400024414062 161.914001464843750
7.677740097045898 27.567100524902344 161.531005859375000
5.591680049896240 28.113800048828125 159.923995971679690
4.185140132904053 26.688199996948242 161.339996337890620
6.115699768066406 27.579399108886719 162.481994628906250
7.127719879150391 27.585500717163086 161.975997924804690
5.600930213928223 27.163700103759766 162.339996337890630
6.496799945831299 28.231700897216797 162.673995971679690
5.087110042572022 27.538999557495117 162.539993286132810
7.547220230102539 28.128599166870117 161.871994018554690
7.113470077514648 28.597099304199219 162.453002929687500
4.571370124816895 27.057899475097656 162.001998901367190
5.104070186614990 28.121999740600586 162.908004760742190
5.008679866790772 28.184200286865234 160.315994262695310
5.627649784088135 28.501199722290039 163.119995117187500
8.012060165405273 28.134099960327148 161.339996337890620
6.068240165710449 28.799200057983398 160.177001953125000
7.045760154724121 28.505399703979492 160.065002441406250
5.267680168151856 29.007699966430664 160.638000488281250
6.615499973297119 29.130300521850586 160.401992797851560
7.440529823303223 28.895500183105469 160.699996948242190
6.640659809112549 29.075399398803711 163.000000000000000
4.184440135955811 27.727800369262695 162.259994506835940
4.226880073547363 28.119300842285156 160.988006591796870
7.503930091857910 29.149700164794922 162.320999145507810
4.672070026397705 29.076599121093750 161.003997802734380
6.080810070037842 29.536500930786133 160.524002075195310
3.913990020751953 27.413600921630859 161.695999145507810
7.951240062713623 29.162599563598633 161.774993896484370
6.069819927215576 29.153999328613281 163.347000122070310
5.124300003051758 29.586099624633789 160.975997924804690
4.565979957580566 28.523000717163086 163.059005737304690
8.421529769897461 28.152000427246094 160.753005981445310
6.562719821929932 30.027599334716797 161.035995483398440
7.084390163421631 29.615299224853516 162.912994384765620
3.753859996795654 28.274000167846680 162.216995239257810
5.101220130920410 29.064699172973633 163.500000000000000
6.539219856262207 29.654100418090820 163.335006713867190
6.012100219726563 30.462900161743164 161.115005493164060
4.019559860229492 28.957199096679688 163.141006469726560
7.024720191955566 30.485399246215820 161.593994140625000
4.566689968109131 30.118200302124023 161.389999389648440
7.447939872741699 30.167699813842773 162.768997192382810
5.570539951324463 29.675699234008789 163.815002441406250
6.958670139312744 30.176300048828125 163.261993408203120
3.477149963378906 28.957599639892578 162.623992919921870
5.102119922637940 30.600400924682617 161.442993164062500
4.555789947509766 29.446399688720703 163.669998168945310
6.496049880981445 30.939899444580078 161.643005371093750
6.064680099487305 30.145099639892578 163.860992431640620
4.274340152740479 30.539499282836914 162.119995117187500
5.655560016632080 31.275100708007813 161.716995239257810
3.599869966506958 29.601200103759766 163.440994262695310
6.530159950256348 30.654100418090820 163.830001831054690
4.585659980773926 30.018899917602539 164.067001342773440
3.238500118255615 29.763099670410156 162.761001586914060
6.523220062255859 31.475500106811523 162.104995727539060
4.564030170440674 31.200500488281250 161.787994384765620
5.580090045928955 30.646900177001953 164.358993530273440
6.916190147399902 31.197299957275391 163.712005615234380
3.619970083236694 30.143299102783203 163.882003784179690
3.943569898605347 31.167600631713867 162.281997680664060
7.173429965972900 31.590499877929688 163.011001586914060
3.060159921646118 30.032300949096680 163.535995483398440
4.601079940795898 30.599300384521484 164.445007324218750
5.544050216674805 31.941999435424805 162.141998291015620
6.070429801940918 31.133300781250000 164.378005981445310
6.537479877471924 32.013999938964844 162.548995971679690
4.551239967346191 31.780599594116211 162.197998046875000
6.500949859619141 31.660499572753906 164.309997558593750
5.087049961090088 31.187799453735352 164.796005249023440
3.072520017623901 30.540300369262695 164.031997680664060
4.071410179138184 30.988500595092773 164.610000610351560
5.567130088806152 32.511100769042969 162.557006835937500
7.063749790191650 32.122001647949219 163.895996093750000
6.554110050201416 32.543098449707031 163.009002685546870
4.607679843902588 32.459499359130859 162.641998291015620
3.713239908218384 32.070701599121094 163.018997192382810
3.105099916458130 31.114500045776367 164.423004150390620
5.051080226898193 31.781799316406250 165.134994506835940
6.038080215454102 33.002601623535156 163.050003051757810
4.093810081481934 31.559499740600586 165.003997802734380
5.664030075073242 32.033298492431641 165.072998046875000
6.704329967498779 32.562400817871094 164.546997070312500
5.117509841918945 33.143798828125000 162.889007568359370
3.948719978332520 32.702598571777344 163.214004516601560
6.154510021209717 32.562000274658203 165.020996093750000
3.335530042648315 32.509700775146484 163.636001586914060
5.137440204620361 32.535301208496094 165.557006835937500
4.095890045166016 32.481300354003906 165.623992919921870
5.094359874725342 33.123600006103516 165.904006958007810
5.684579849243164 33.028598785400391 165.580993652343750
4.102990150451660 33.061901092529297 166.001998901367190
3.561630010604858 31.944000244140625 165.167007446289060
5.052559852600098 33.703201293945313 166.274002075195310
5.962379932403565 33.724300384521484 165.731994628906250
6.580880165100098 33.113800048828125 164.916000366210940
3.087860107421875 32.541698455810547 165.526000976562500
4.572899818420410 33.210800170898438 163.283996582031250
4.099720001220703 33.641101837158203 166.380004882812500
6.476809978485107 33.676700592041016 165.294006347656250
3.798470020294190 33.491500854492188 163.675003051757810
5.043200016021729 33.972301483154297 163.597000122070310
5.626480102539063 33.649200439453125 163.389999389648440
3.266259908676148 33.534198760986328 164.098999023437500
4.090630054473877 34.134700775146484 163.880004882812500
6.381219863891602 33.371601104736328 163.651992797851560
5.534019947052002 34.178901672363281 166.311004638671870
5.676939964294434 34.223701477050781 163.820007324218750
2.657900094985962 31.774900436401367 164.720993041992190
7.047210216522217 33.127300262451172 164.384002685546870
3.096120119094849 33.433898925781250 166.192993164062500
5.081449985504150 34.565399169921875 163.983993530273440
4.564050197601318 34.236499786376953 166.725006103515620
4.092470169067383 34.708599090576172 164.250000000000000
6.834219932556152 34.240001678466797 165.147003173828120
5.524409770965576 35.009300231933594 164.529006958007810
2.164570093154907 32.330501556396484 165.169998168945310
4.611489772796631 35.133998870849609 164.395004272460940
5.984200000762940 34.703998565673828 166.264999389648440
6.452640056610107 34.673099517822266 165.789993286132810
3.099309921264648 34.005599975585937 166.582992553710940
3.114959955215454 34.591400146484375 164.464996337890620
5.071040153503418 34.658500671386719 166.847000122070310
2.104490041732788 33.140998840332031 165.886001586914060
2.775369882583618 34.616500854492188 165.052001953125000
5.540880203247070 35.518299102783203 165.022994995117190
3.602649927139282 34.568500518798828 166.990005493164060
3.514859914779663 35.288799285888672 164.714004516601560
5.565090179443359 35.140998840332031 166.871994018554690
4.109109878540039 35.760101318359375 164.720001220703120
5.021440029144287 35.963600158691406 165.080993652343750
2.098910093307495 34.013999938964844 166.570999145507810
4.570449829101563 35.182598114013672 167.311004638671870
2.601360082626343 34.584300994873047 166.966003417968750
3.599800109863281 35.144401550292969 167.378005981445310
6.483069896697998 35.676498413085937 166.307998657226560
5.993609905242920 35.679500579833984 166.796005249023440
2.650629997253418 35.579498291015625 165.488006591796870
5.086380004882813 35.625400543212891 167.401000976562500
3.568200111389160 36.267501831054688 165.210998535156250
4.599140167236328 36.599800109863281 165.442001342773440
2.601429939270020 35.144401550292969 167.380004882812500
4.084449768066406 35.724399566650391 167.766006469726560
5.576970100402832 36.127300262451172 167.395004272460940
2.360869884490967 36.026798248291016 166.156997680664060
1.610829949378967 34.817501068115234 167.141998291015620
3.098439931869507 35.716499328613281 167.783996582031250
3.593719959259033 36.978500366210937 165.589996337890620
6.220620155334473 36.536998748779297 167.098007202148440
2.966949939727783 36.759799957275391 165.701995849609370
4.619609832763672 37.146800994873047 165.884002685546870
4.726709842681885 36.462200164794922 168.160003662109370
2.093339920043945 35.699401855468750 167.815994262695310
2.128149986267090 36.593399047851562 166.455001831054690
4.089930057525635 37.552501678466797 165.996002197265620
5.752930164337158 37.020599365234375 167.645004272460940
3.103300094604492 37.554500579833984 165.985000610351560
2.436709880828857 37.243000030517578 166.253997802734370
1.084519982337952 35.711101531982422 167.820007324218750
5.485159873962402 37.768600463867188 168.220001220703120
5.030690193176270 37.299701690673828 168.729003906250000
2.660860061645508 37.966400146484375 166.541000366210940
4.121880054473877 36.784301757812500 168.753005981445310
3.602960109710693 38.122501373291016 166.414993286132810
1.863229990005493 37.123199462890625 167.057998657226560
1.588680028915405 36.163700103759766 168.365997314453120
4.555250167846680 38.012500762939453 166.552001953125000
5.188660144805908 37.002700805664063 168.106994628906250
6.170820236206055 37.560699462890625 167.541000366210940
2.585429906845093 36.264499664306641 168.229995727539060
3.603590011596680 36.285900115966797 168.216995239257810
10.395400047302246 24.315099716186523 159.309005737304690
