ply
format ascii 1.0
element vertex 250
property double x
property double y
property double z
end_header
-6.389249801635742 -7.105989933013916 2.606889963150024
-6.345250129699707 -7.193990230560303 2.738889932632446
-6.389249801635742 -7.105989933013916 2.606889963150024
-6.419250011444092 -7.024990081787109 2.470890045166016
-6.308249950408936 -6.888989925384522 2.445889949798584
-6.425250053405762 -6.818990230560303 2.347889900207520
-6.460249900817871 -6.992990016937256 2.315890073776245
-6.467249870300293 -6.761990070343018 2.178889989852905
-6.526249885559082 -6.913990020751953 2.179889917373657
-6.497250080108643 -6.636000156402588 2.071890115737915
-6.577250003814697 -6.864999771118164 2.034889936447144
-6.425250053405762 -6.527999877929688 1.968889951705933
-6.439249992370606 -6.759990215301514 1.973889946937561
-6.612249851226807 -6.773990154266357 1.902889966964722
-6.538249969482422 -6.629000186920166 1.890890002250671
-6.519249916076660 -6.428989887237549 1.867890000343323
-6.627250194549561 -6.683990001678467 1.765890002250671
-6.458250045776367 -6.513989925384522 1.714890003204346
-6.486249923706055 -6.346990108489990 1.631890058517456
-6.546249866485596 -6.643990039825440 1.620890021324158
-6.582250118255615 -6.487989902496338 1.608890056610107
-6.707250118255615 -6.596990108489990 1.571889996528626
-6.438250064849854 -6.223989963531494 1.526890039443970
-6.634250164031982 -6.434989929199219 1.465890049934387
-6.539249897003174 -6.304989814758301 1.430889964103699
-6.761250019073486 -6.513989925384522 1.407889962196350
-6.657249927520752 -6.386990070343018 1.306890010833740
-6.463250160217285 -6.170989990234375 1.279889941215515
-6.343249797821045 -6.065989971160889 1.222890019416809
-6.797249794006348 -6.459990024566650 1.233890056610107
-6.541250228881836 -6.294990062713623 1.194890022277832
-6.490250110626221 -6.186989784240723 1.084890007972717
-6.749249935150147 -6.339990139007568 1.081889986991882
-6.407249927520752 -6.032989978790283 1.062890052795410
-6.592249870300293 -6.370989799499512 1.054890036582947
-6.595250129699707 -6.200990200042725 0.952886998653412
-6.846250057220459 -6.365990161895752 0.951887011528015
-6.680250167846680 -6.342989921569824 0.917886972427368
-6.493249893188477 -6.054989814758301 0.891885995864868
-6.402249813079834 -5.894989967346191 0.827886998653412
-6.688250064849854 -6.156990051269531 0.819886982440948
-6.899250030517578 -6.287990093231201 0.786885976791382
-6.534249782562256 -6.200990200042725 0.779886007308960
-6.739250183105469 -6.300990104675293 0.766885995864868
-6.590250015258789 -6.039989948272705 0.750886976718903
-6.790249824523926 -6.111989974975586 0.702886998653412
-6.514249801635742 -5.896989822387695 0.677888989448547
-6.408249855041504 -5.764989852905273 0.663888990879059
-6.676249980926514 -5.983990192413330 0.622888982295990
-6.947249889373779 -6.293990135192871 0.623888015747070
-7.015250205993652 -6.090990066528320 0.601889014244080
-6.716249942779541 -6.233990192413330 0.603887975215912
-6.568250179290772 -6.160990238189697 0.599886000156403
-6.861249923706055 -6.011000156402588 0.589887976646423
-6.484250068664551 -5.732999801635742 0.515886008739471
-6.604249954223633 -5.859990119934082 0.483889013528824
-6.862249851226807 -6.244989871978760 0.486887007951736
-6.368249893188477 -5.605989933013916 0.457888007164001
-6.806250095367432 -5.895989894866943 0.465887010097504
-6.983250141143799 -5.913990020751953 0.458887010812759
-7.093249797821045 -6.068990230560303 0.458887010812759
-6.541250228881836 -6.066989898681641 0.455888986587524
-7.156250000000000 -5.942989826202393 0.368887007236481
-6.986249923706055 -6.195990085601807 0.354887008666992
-6.799250125885010 -6.154990196228027 0.350885003805161
-6.688250064849854 -5.791999816894531 0.338887989521027
-7.040249824523926 -5.825990200042725 0.324887990951538
-6.553249835968018 -5.675990104675293 0.316888988018036
-6.425250053405762 -5.543990135192871 0.311888009309769
-6.647250175476074 -6.093999862670898 0.314886003732681
-6.522250175476074 -5.924990177154541 0.306887000799179
-6.876249790191650 -5.769989967346191 0.295888990163803
-7.033249855041504 -6.053989887237549 0.278887003660202
-6.744249820709229 -5.710989952087402 0.211886003613472
-6.539249897003174 -5.511000156402588 0.181887000799179
-6.855249881744385 -6.115990161895752 0.192888006567955
-6.580249786376953 -6.015989780426025 0.187886998057365
-7.097249984741211 -5.898990154266357 0.175886005163193
-6.980249881744385 -5.706989765167236 0.161886006593704
-6.419250011444092 -5.408989906311035 0.144887998700142
-6.500249862670898 -5.700990200042725 0.151887997984886
-6.528250217437744 -5.859990119934082 0.143888995051384
-6.682250022888184 -5.579989910125732 0.118886999785900
-6.843249797821045 -5.634990215301514 0.099886000156403
-7.037250041961670 -6.073989868164063 0.107885003089905
-6.715250015258789 -6.035990238189697 0.062887303531170
-6.595250129699707 -5.452000141143799 0.043886300176382
-7.055250167846680 -5.804989814758301 0.046888399869204
-6.984250068664551 -5.609990119934082 0.020887499675155
-6.882249832153320 -6.064990043640137 0.025888500735164
-6.536250114440918 -5.757989883422852 -0.023111300542951
-6.474249839782715 -5.408989906311035 -0.061113301664591
-6.574250221252441 -5.913990020751953 -0.050111699849367
-7.008250236511231 -5.922989845275879 -0.060113798826933
-6.836249828338623 -5.507989883422852 -0.073114298284054
-7.055250167846680 -6.079989910125732 -0.060113798826933
-6.686250209808350 -5.414989948272705 -0.086111001670361
-7.046249866485596 -5.710989952087402 -0.094114199280739
-6.510250091552734 -5.589990139007568 -0.102113999426365
-6.493249893188477 -5.251989841461182 -0.111112996935844
-6.743249893188477 -5.988989830017090 -0.106110997498035
-6.991250038146973 -5.521989822387695 -0.139111995697021
-6.905250072479248 -6.006989955902100 -0.151113003492355
-6.550250053405762 -5.738989830017090 -0.185113996267319
-6.794250011444092 -5.404990196228027 -0.210112005472183
-6.632249832153320 -5.890989780426025 -0.202112004160881
-6.651249885559082 -5.292990207672119 -0.229112997651100
-6.547249794006348 -5.161990165710449 -0.236112996935844
-7.079249858856201 -5.998990058898926 -0.232115000486374
-7.018249988555908 -5.641990184783936 -0.250111997127533
-6.527249813079834 -5.548999786376953 -0.260114997625351
-7.020249843597412 -5.817989826202393 -0.262113004922867
-6.912250041961670 -5.438000202178955 -0.315111011266708
-6.535250186920166 -5.394989967346191 -0.328112006187439
-6.940249919891357 -5.942989826202393 -0.331113994121552
-6.576250076293945 -5.813990116119385 -0.337114006280899
-6.734250068664551 -5.911990165710449 -0.348111987113953
-6.634250164031982 -5.168990135192871 -0.372114002704620
-7.106249809265137 -5.909999847412109 -0.375111997127533
-6.742249965667725 -5.287990093231201 -0.400113999843597
-7.023250102996826 -5.730989933013916 -0.425112009048462
-6.968249797821045 -5.565989971160889 -0.439112007617950
-6.564249992370606 -5.528989791870117 -0.445111989974976
-6.978250026702881 -5.880990028381348 -0.482115000486374
-6.598249912261963 -5.058990001678467 -0.512112975120544
-6.666250228881836 -5.820000171661377 -0.523110985755920
-6.791250228881836 -5.307990074157715 -0.552114009857178
-7.135250091552734 -5.800990104675293 -0.543111979961395
-6.900249958038330 -5.448989868164063 -0.556111991405487
-6.823249816894531 -5.859990119934082 -0.569113016128540
-7.035250186920166 -5.641990184783936 -0.574114024639130
-6.659249782562256 -5.183990001678467 -0.602114021778107
-6.581250190734863 -5.435989856719971 -0.602114021778107
-6.577250003814697 -5.706989765167236 -0.610113024711609
-6.599249839782715 -5.040989875793457 -0.719114005565643
-6.981249809265137 -5.780990123748779 -0.703112006187439
-6.565249919891357 -5.554989814758301 -0.712113976478577
-6.556250095367432 -5.224989891052246 -0.722113013267517
-6.903250217437744 -5.405990123748779 -0.716112017631531
-7.117249965667725 -5.669990062713623 -0.709111988544464
-6.816249847412109 -5.262989997863770 -0.752111017704010
-6.666250228881836 -5.740990161895752 -0.755114018917084
-6.822249889373779 -5.772990226745606 -0.785112023353577
-6.647250175476074 -4.918990135192871 -0.812112987041473
-6.552249908447266 -5.416999816894531 -0.809113979339600
-7.022250175476074 -5.476990222930908 -0.815110981464386
-6.729249954223633 -5.122990131378174 -0.828112006187439
-7.137249946594238 -5.582990169525147 -0.860113024711609
-6.560249805450440 -5.071990013122559 -0.895112991333008
-7.004250049591065 -5.673999786376953 -0.884110987186432
-6.592249870300293 -5.591989994049072 -0.892114996910095
-6.923250198364258 -5.298999786376953 -0.899115025997162
-6.540249824523926 -5.276989936828613 -0.920113980770111
-6.711249828338623 -5.721990108489990 -0.931111991405487
-6.766250133514404 -5.035990238189697 -0.983114004135132
-6.872250080108643 -5.163990020751953 -0.980112016201019
-6.598249912261963 -4.943990230560303 -0.987111985683441
-6.870250225067139 -5.703989982604981 -0.975115001201630
-7.120250225067139 -5.470990180969238 -0.981110990047455
-6.544250011444092 -5.455989837646484 -0.984113991260529
-7.037250041961670 -5.321990013122559 -1.019109964370728
-6.540249824523926 -5.152999877929688 -1.047109961509705
-6.983250141143799 -5.588990211486816 -1.042109966278076
-6.644249916076660 -5.620989799499512 -1.054110050201416
-6.670249938964844 -4.833990097045898 -1.108109951019287
-6.788249969482422 -4.945000171661377 -1.114109992980957
-6.995250225067139 -5.200990200042725 -1.120110034942627
-6.894249916076660 -5.073989868164063 -1.128110051155090
-6.557250022888184 -4.969989776611328 -1.140110015869141
-6.579249858856201 -5.473989963531494 -1.140110015869141
-7.057250022888184 -5.435989856719971 -1.140110015869141
-6.857250213623047 -5.649990081787109 -1.140110015869141
-6.519249916076660 -5.131989955902100 -1.212110042572022
-7.096250057220459 -5.295989990234375 -1.208109974861145
-6.698249816894531 -5.596990108489990 -1.205109953880310
-6.951250076293945 -5.537990093231201 -1.217110037803650
-6.609250068664551 -4.782989978790283 -1.255110025405884
-6.537250041961670 -5.349989891052246 -1.250110030174255
-6.974249839782715 -5.104990005493164 -1.269109964370728
-6.873250007629395 -4.965990066528320 -1.288110017776489
-7.000249862670898 -5.400990009307861 -1.291110038757324
-6.622250080108643 -5.486989974975586 -1.302109956741333
-6.502250194549561 -4.992990016937256 -1.319110035896301
-6.825250148773193 -5.585989952087402 -1.306110024452210
-7.033249855041504 -5.234990119934082 -1.348109960556030
-6.761250019073486 -4.808990001678467 -1.364109992980957
-6.508250236511231 -4.843999862670898 -1.384109973907471
-6.643249988555908 -4.707990169525147 -1.421110033988953
-6.499249935150147 -5.293990135192871 -1.408110022544861
-6.919250011444092 -5.457990169525147 -1.429110050201416
-6.741250038146973 -5.540989875793457 -1.436110019683838
-6.909249782562256 -4.980989933013916 -1.459110021591187
-6.468249797821045 -5.075990200042725 -1.462110042572022
-6.987249851226807 -5.123990058898926 -1.474110007286072
-6.621250152587891 -5.434989929199219 -1.482110023498535
-6.821249961853027 -4.828989982604981 -1.535109996795654
-6.742249965667725 -4.686989784240723 -1.551110029220581
-6.508250236511231 -4.672989845275879 -1.597110033035278
-6.439249992370606 -4.963990211486816 -1.597110033035278
-6.755249977111816 -5.479990005493164 -1.601109981536865
-6.958250045776367 -5.216989994049072 -1.608109951019287
-6.440249919891357 -5.141990184783936 -1.612110018730164
-6.930250167846680 -5.059989929199219 -1.623110055923462
-6.897250175476074 -5.392990112304688 -1.634109973907471
-6.491250038146973 -5.301990032196045 -1.644109964370728
-6.637249946594238 -5.398990154266357 -1.673110008239746
-6.870250225067139 -4.922989845275879 -1.690109968185425
-6.460249900817871 -4.763989925384522 -1.722110033035278
-6.413249969482422 -5.013989925384522 -1.760110020637512
-6.902249813079834 -5.206989765167236 -1.770110011100769
-6.890250205993652 -5.041999816894531 -1.797109961509705
-6.783249855041504 -5.397990226745606 -1.794109940528870
-6.438250064849854 -5.176990032196045 -1.816110014915466
-6.591249942779541 -5.308990001678467 -1.820109963417053
-6.404250144958496 -4.867990016937256 -1.859109997749329
-6.439249992370606 -4.702000141143799 -1.876109957695007
-6.870250225067139 -5.245989799499512 -1.924110054969788
-6.390250205993652 -5.038990020751953 -1.945109963417053
-6.975249767303467 -4.947989940643311 -1.948109984397888
-6.719250202178955 -5.361989974975586 -1.945109963417053
-6.535250186920166 -5.226990222930908 -1.963109970092773
-6.359250068664551 -4.657989978790283 -2.010109901428223
-6.370250225067139 -4.850999832153320 -2.016109943389893
-6.413249969482422 -5.166999816894531 -2.060110092163086
-6.785250186920166 -5.274990081787109 -2.063110113143921
-6.306250095367432 -4.502989768981934 -2.088109970092773
-6.624249935150147 -5.259990215301514 -2.103110074996948
-6.355249881744385 -5.040989875793457 -2.150110006332398
-6.297249794006348 -4.709990024566650 -2.169110059738159
-6.318250179290772 -4.872990131378174 -2.166110038757324
-6.489250183105469 -5.155990123748779 -2.212110042572022
-6.279250144958496 -4.511990070343018 -2.268110036849976
-6.684249877929688 -5.231989860534668 -2.259109973907471
-6.255249977111816 -4.782989978790283 -2.309109926223755
-6.298250198364258 -4.959990024566650 -2.307110071182251
-6.379250049591065 -5.096990108489990 -2.346110105514526
-6.220250129699707 -4.630990028381348 -2.367110013961792
-6.577250003814697 -5.161990165710449 -2.359110116958618
-6.202250003814697 -4.761000156402588 -2.498110055923462
-6.259250164031982 -4.927989959716797 -2.507110118865967
-6.439249992370606 -5.059989929199219 -2.506109952926636
-6.183249950408936 -4.597990036010742 -2.526109933853149
-6.275249958038330 -4.505990028381348 -2.627110004425049
-6.328249931335449 -4.994989871978760 -2.638109922409058
-6.192249774932861 -4.911990165710449 -2.669110059738159
-6.167250156402588 -4.636990070343018 -2.688110113143921
-6.266250133514404 -4.447989940643311 -2.783109903335571
-6.107250213623047 -4.511990070343018 -2.814110040664673
-6.416250228881836 -4.381989955902100 -2.826109886169434
-6.296249866485596 -4.349989891052246 -2.932110071182251
