ply
format ascii 1.0
element vertex 119
property double x
property double y
property double z
end_header
-8.777250289916992 -4.649990081787109 -13.522100448608398
-9.632249832153320 -4.767990112304688 -13.467100143432617
-9.479249954223633 -4.729990005493164 -13.501099586486816
-9.796250343322754 -4.721990108489990 -13.509099960327148
-8.550250053405762 -4.570000171661377 -13.520099639892578
-8.777250289916992 -4.649990081787109 -13.522100448608398
-9.658249855041504 -4.629000186920166 -13.543100357055664
-9.389249801635742 -4.570000171661377 -13.555100440979004
-9.962249755859375 -4.276989936828613 -13.564100265502930
-9.797249794006348 -4.240990161895752 -13.569100379943848
-8.402250289916992 -4.509990215301514 -13.569100379943848
-8.938249588012695 -4.679989814758301 -13.577099800109863
-9.578249931335449 -4.356989860534668 -13.592100143432617
-8.260250091552734 -4.584990024566650 -13.594099998474121
-8.685250282287598 -4.527999877929688 -13.605099678039551
-9.217249870300293 -4.623990058898926 -13.601099967956543
-9.860250473022461 -4.396989822387695 -13.605099678039551
-10.141300201416016 -4.321990013122559 -13.611100196838379
-9.650250434875488 -4.186989784240723 -13.622099876403809
-9.042249679565430 -4.504990100860596 -13.623100280761719
-9.364250183105469 -4.718999862670898 -13.619099617004395
-9.274250030517578 -4.398990154266357 -13.630100250244141
-9.787249565124512 -4.577990055084229 -13.624099731445312
-8.869250297546387 -4.544990062713623 -13.629099845886230
-9.169249534606934 -4.777999877929688 -13.624099731445312
-9.517250061035156 -4.640989780426025 -13.634099960327148
-9.914250373840332 -4.739999771118164 -13.631099700927734
-9.721249580383301 -4.357999801635742 -13.676099777221680
-9.645250320434570 -4.517990112304688 -13.674099922180176
-8.530249595642090 -4.515989780426025 -13.684100151062012
-9.061249732971191 -4.659999847412109 -13.681099891662598
-9.120249748229981 -4.372990131378174 -13.691100120544434
-9.454250335693359 -4.504990100860596 -13.692099571228027
-9.506250381469727 -4.265989780426025 -13.706100463867188
-8.136249542236328 -4.596990108489990 -13.703100204467773
-10.013299942016602 -4.381989955902100 -13.708100318908691
-9.919249534606934 -4.511990070343018 -13.705100059509277
-10.291299819946289 -4.380990028381348 -13.716099739074707
-10.104299545288086 -4.803989887237549 -13.708100318908691
-9.299249649047852 -4.541999816894531 -13.718099594116211
-8.342249870300293 -4.504000186920166 -13.723099708557129
-10.017299652099609 -4.642990112304688 -13.717100143432617
-8.961250305175781 -4.344989776611328 -13.747099876403809
-9.370249748229981 -4.351990222930908 -13.751099586486816
-8.761249542236328 -4.501989841461182 -13.753100395202637
-9.131250381469727 -4.527999877929688 -13.757100105285645
-10.101300239562988 -4.511990070343018 -13.761099815368652
-8.779250144958496 -4.336999893188477 -13.772100448608398
-10.197299957275391 -4.690989971160889 -13.779100418090820
-8.966250419616699 -4.500989913940430 -13.791099548339844
-9.213250160217285 -4.296989917755127 -13.802100181579590
-8.291250228881836 -4.101990222930908 -13.818099975585937
-8.568249702453613 -4.218999862670898 -13.827099800109863
-8.213250160217285 -4.506989955902100 -13.821100234985352
-10.255299568176270 -4.505990028381348 -13.814100265502930
-8.646249771118164 -4.410990238189697 -13.826100349426270
-8.486249923706055 -4.379990100860596 -13.851099967956543
-10.326299667358398 -4.774990081787109 -13.836099624633789
-7.960249900817871 -4.668990135192871 -13.853099822998047
-10.422300338745117 -4.408989906311035 -13.866100311279297
-9.072250366210938 -4.350999832153320 -13.873100280761719
-8.437250137329102 -4.146989822387695 -13.885100364685059
-8.074250221252441 -4.549990177154541 -13.890099525451660
-8.347249984741211 -4.288990020751953 -13.899100303649902
-8.892250061035156 -4.306000232696533 -13.898099899291992
-8.711250305175781 -4.241990089416504 -13.902099609375000
-8.209250450134277 -4.384990215301514 -13.925100326538086
-8.206250190734863 -4.170989990234375 -13.943099975585938
-10.353300094604492 -4.617990016937256 -13.938099861145020
-7.820250034332275 -4.683990001678467 -13.947099685668945
-10.446299552917480 -4.761990070343018 -13.946100234985352
-7.673250198364258 -4.611989974975586 -13.973099708557129
-7.943250179290772 -4.511000156402588 -13.987099647521973
-7.509250164031982 -4.647990226745606 -13.987099647521973
-10.466300010681152 -4.513989925384522 -13.986100196838379
-8.052249908447266 -4.130990028381348 -14.006099700927734
-8.094249725341797 -4.296989917755127 -14.004099845886230
-7.940249919891357 -4.361989974975586 -14.064100265502930
-7.777249813079834 -4.506989955902100 -14.065099716186523
-10.540300369262695 -4.728990077972412 -14.075099945068359
-7.439249992370606 -4.518990039825440 -14.131099700927734
-7.916250228881836 -4.164989948272705 -14.139100074768066
-10.645299911499023 -4.360990047454834 -14.131099700927734
-10.549300193786621 -4.505990028381348 -14.128100395202637
-7.599249839782715 -4.500989913940430 -14.144100189208984
-7.654250144958496 -4.349989891052246 -14.148099899291992
-7.806250095367432 -4.292990207672119 -14.149100303649902
-7.273250102996826 -4.464990139007568 -14.157099723815918
-7.764249801635742 -4.111989974975586 -14.178099632263184
-7.481249809265137 -4.127989768981934 -14.199099540710449
-10.638299942016602 -4.657989978790283 -14.185099601745605
-7.305250167846680 -4.320990085601807 -14.225099563598633
-7.629250049591065 -4.176990032196045 -14.236100196838379
-10.686300277709961 -4.504990100860596 -14.218099594116211
-7.542250156402588 -4.320000171661377 -14.259099960327148
-7.015250205993652 -4.504000186920166 -14.259099960327148
-7.337250232696533 -4.136990070343018 -14.271100044250488
-7.425250053405762 -4.431000232696533 -14.271100044250488
-7.169250011444092 -4.313000202178955 -14.334099769592285
-10.739299774169922 -4.670989990234375 -14.312100410461426
-7.414249897003174 -4.266990184783936 -14.340100288391113
-10.778300285339355 -4.505990028381348 -14.351099967956543
-7.302249908447266 -4.405990123748779 -14.375100135803223
-6.930250167846680 -4.524990081787109 -14.402099609375000
-7.070250034332275 -4.445990085601807 -14.413100242614746
-7.282249927520752 -4.243989944458008 -14.429100036621094
-10.797300338745117 -4.613989830017090 -14.471099853515625
-7.170249938964844 -4.149990081787109 -14.498100280761719
-7.188250064849854 -4.361989974975586 -14.503100395202637
-7.035250186920166 -4.148990154266357 -14.592100143432617
-7.063250064849854 -4.349989891052246 -14.613100051879883
-10.824299812316895 -4.523990154266357 -14.614100456237793
-6.941249847412109 -4.255990028381348 -14.689100265502930
-6.930250167846680 -4.412990093231201 -14.741100311279297
-10.816300392150879 -4.520989894866943 -14.780099868774414
-6.806250095367432 -4.261000156402588 -14.807100296020508
-6.723249912261963 -4.136990070343018 -14.878100395202637
-6.826250076293945 -4.436989784240723 -14.876099586486816
-10.804300308227539 -4.481989860534668 -14.936100006103516
