ply
format ascii 1.0
element vertex 664
property double x
property double y
property double z
end_header
-6.067249774932861 -4.355989933013916 -9.988109588623047
-6.118249893188477 -4.504990100860596 -10.040100097656250
-5.977250099182129 -4.581989765167236 -10.078100204467773
-6.167250156402588 -4.515989780426025 -9.843110084533691
-6.182250022888184 -4.502989768981934 -9.684109687805176
-6.172249794006348 -4.507989883422852 -9.507109642028809
-6.120250225067139 -4.652999877929688 -9.691109657287598
-6.135250091552734 -4.681000232696533 -9.894109725952148
-6.332250118255615 -4.328989982604981 -9.280110359191895
-6.255249977111816 -4.508989810943604 -9.351110458374023
-6.359250068664551 -4.407989978790283 -9.132109642028809
-6.476250171661377 -4.296989917755127 -9.202110290527344
-6.415249824523926 -4.541999816894531 -9.258110046386719
-6.460249900817871 -4.313000202178955 -9.031109809875488
-6.187250137329102 -4.656990051269531 -9.378109931945801
-6.059249877929688 -4.624989986419678 -9.509110450744629
-6.483250141143799 -4.518990039825440 -9.091110229492188
-6.680250167846680 -4.413990020751953 -8.986109733581543
-6.605249881744385 -4.361989974975586 -9.120109558105469
-6.423250198364258 -4.775990009307861 -9.175109863281250
-6.533249855041504 -4.648990154266357 -9.186109542846680
-6.314249992370606 -4.655990123748779 -9.191109657287598
-6.245250225067139 -4.785990238189697 -9.264109611511231
-6.088250160217285 -4.773990154266357 -9.429109573364258
-6.064249992370606 -4.796989917755127 -9.624110221862793
-6.101250171661377 -4.793990135192871 -9.785110473632813
-6.093249797821045 -4.699989795684815 -10.062100410461426
-10.785300254821777 -2.483989953994751 -2.928109884262085
-12.037300109863281 -2.594990015029907 -2.793109893798828
-11.903300285339355 -2.506989955902100 -2.856110095977783
-12.028300285339355 -2.398989915847778 -2.859110116958618
-12.158300399780273 -2.504990100860596 -2.861109972000122
-12.316300392150879 -2.459990024566650 -2.878109931945801
-11.769300460815430 -2.425990104675293 -2.891109943389893
-10.460300445556641 -2.615000009536743 -2.898109912872315
-11.775300025939941 -2.598989963531494 -2.899110078811646
-12.224300384521484 -2.324990034103394 -2.911109924316406
-10.616299629211426 -2.566989898681641 -2.911109924316406
-11.610300064086914 -2.462990045547485 -2.913110017776489
-10.645299911499023 -2.390990018844605 -2.930109977722168
-10.785300254821777 -2.483989953994751 -2.928109884262085
-11.916299819946289 -2.295989990234375 -2.931109905242920
-10.888299942016602 -2.354990005493164 -2.941109895706177
-11.519300460815430 -2.598989963531494 -2.948110103607178
-12.421299934387207 -2.341989994049072 -2.953109979629517
-11.136300086975098 -2.296989917755127 -2.961110115051270
-11.657299995422363 -2.294990062713623 -2.960109949111939
-12.112299919128418 -2.212990045547485 -2.967109918594360
-11.618300437927246 -2.724989891052246 -2.958110094070435
-12.023300170898438 -2.528000116348267 -2.962110042572022
-11.502300262451172 -2.334990024566650 -2.972110033035278
-11.876299858093262 -2.720989942550659 -2.969110012054443
-11.035300254821777 -2.430999994277954 -2.981110095977783
-11.793299674987793 -2.182990074157715 -2.997109889984131
-11.403300285339355 -2.488990068435669 -2.991110086441040
-10.920299530029297 -2.562999963760376 -3.002110004425049
-11.953300476074219 -2.155989885330200 -3.010109901428223
-10.752300262451172 -2.640990018844605 -3.002110004425049
-12.348299980163574 -2.208990097045898 -3.009109973907471
-11.286299705505371 -2.362989902496338 -3.011110067367554
-11.113300323486328 -2.583990097045898 -3.008110046386719
-11.264300346374512 -2.203989982604981 -3.019109964370728
-11.283300399780273 -2.599989891052246 -3.016109943389893
-12.216300010681152 -2.446990013122559 -3.017110109329224
-11.555299758911133 -2.157989978790283 -3.032109975814819
-10.537300109863281 -2.467989921569824 -3.032109975814819
-10.538299560546875 -2.742990016937256 -3.025110006332398
-12.543299674987793 -2.425990104675293 -3.028110027313232
-11.871299743652344 -2.566989898681641 -3.032109975814819
-10.276300430297852 -2.690989971160889 -3.045109987258911
-11.470299720764160 -2.815989971160889 -3.041110038757324
-10.769300460815430 -2.384989976882935 -3.056109905242920
-12.539299964904785 -2.255990028381348 -3.056109905242920
-11.312299728393555 -2.783989906311035 -3.048110008239746
-11.157299995422363 -2.742990016937256 -3.051110029220581
-10.379300117492676 -2.543989896774292 -3.061110019683838
-11.739299774169922 -2.776989936828613 -3.053109884262085
-11.019300460815430 -2.283989906311035 -3.071110010147095
-10.997300148010254 -2.720989942550659 -3.060110092163086
-12.217300415039063 -2.124989986419678 -3.081110000610352
-12.372300148010254 -2.434989929199219 -3.075109958648682
-10.396300315856934 -2.796989917755127 -3.080110073089600
-10.842300415039063 -2.770989894866943 -3.082109928131104
-11.413299560546875 -2.255990028381348 -3.094110012054443
-11.931300163269043 -2.422990083694458 -3.098109960556030
-11.696299552917480 -2.115989923477173 -3.109110116958618
-11.771300315856934 -2.460989952087402 -3.102109909057617
-12.059300422668457 -2.090990066528320 -3.114109992980957
-11.068300247192383 -2.868989944458008 -3.098109960556030
-10.680299758911133 -2.797990083694458 -3.104110002517700
-11.615300178527832 -2.334990024566650 -3.113110065460205
-11.612299919128418 -2.516989946365356 -3.113110065460205
-12.087300300598145 -2.388989925384522 -3.115109920501709
-11.240300178527832 -2.957989931106567 -3.109110116958618
-11.462300300598145 -2.406990051269531 -3.124109983444214
-10.971300125122070 -2.431989908218384 -3.128109931945801
-11.856300354003906 -2.116990089416504 -3.137109994888306
-12.418299674987793 -2.134989976882935 -3.136110067367554
-11.817299842834473 -2.306989908218384 -3.134109973907471
-11.638299942016602 -2.882989883422852 -3.121109962463379
-11.165300369262695 -2.433990001678467 -3.137109994888306
-11.589300155639648 -2.724989891052246 -3.130110025405884
-10.912300109863281 -2.944999933242798 -3.132110118865967
-11.088299751281738 -3.036989927291870 -3.131109952926636
-11.467300415039063 -2.578989982604981 -3.144109964370728
-10.658300399780273 -2.555999994277954 -3.148109912872315
-10.817299842834473 -2.528000116348267 -3.150110006332398
-11.311300277709961 -2.499989986419678 -3.151109933853149
-11.969300270080566 -2.242990016937256 -3.159110069274902
-10.257300376892090 -2.854990005493164 -3.150110006332398
-10.141300201416016 -2.730989933013916 -3.159110069274902
-12.626299858093262 -2.346990108489990 -3.162110090255737
-11.497300148010254 -2.962990045547485 -3.150110006332398
-10.928299903869629 -3.145989894866943 -3.158109903335571
-10.537300109863281 -2.881989955902100 -3.167109966278076
-11.084300041198730 -2.569999933242798 -3.174109935760498
-11.423299789428711 -2.734989881515503 -3.171109914779663
-12.134300231933594 -2.233989953994751 -3.189110040664673
-10.459300041198730 -2.631989955902100 -3.188110113143921
-12.267299652099609 -2.324990034103394 -3.190109968185425
-10.769300460815430 -3.196990013122559 -3.177109956741333
-10.298299789428711 -2.628999948501587 -3.200109958648682
-10.925299644470215 -2.681989908218384 -3.203109979629517
-11.259300231933594 -2.746999979019165 -3.202110052108765
-10.714300155639648 -3.033989906311035 -3.200109958648682
-11.352299690246582 -2.884989976882935 -3.204109907150269
-12.291299819946289 -2.076999902725220 -3.224109888076782
-11.095299720764160 -2.734989881515503 -3.212110042572022
-10.374300003051758 -2.949990034103394 -3.216109991073608
-12.470299720764160 -2.383990049362183 -3.225110054016113
-10.777299880981445 -2.743989944458008 -3.226109981536865
-10.594300270080566 -2.720989942550659 -3.232110023498535
-11.338299751281738 -3.051990032196045 -3.222110033035278
-12.541299819946289 -2.233989953994751 -3.242110013961792
-10.599300384521484 -3.283989906311035 -3.222110033035278
-12.754300117492676 -2.407989978790283 -3.241110086441040
-11.153300285339355 -2.905989885330200 -3.240109920501709
-10.943300247192383 -2.835989952087402 -3.247109889984131
-10.758299827575684 -3.375989913940430 -3.234110116958618
-11.182299613952637 -3.120990037918091 -3.245110034942627
-10.124300003051758 -2.858000040054321 -3.257110118865967
-11.049300193786621 -3.219990015029907 -3.251110076904297
-12.369299888610840 -2.234989881515503 -3.277110099792481
-11.010299682617188 -2.987989902496338 -3.264110088348389
-10.428299903869629 -3.620990037918091 -3.252110004425049
-10.809300422668457 -2.925990104675293 -3.275110006332398
-10.439299583435059 -2.785000085830689 -3.281110048294067
-10.651300430297852 -2.865989923477173 -3.283109903335571
-10.894300460815430 -3.289989948272705 -3.272109985351563
-10.656299591064453 -3.528000116348267 -3.269109964370728
-12.467300415039063 -2.103990077972412 -3.305109977722168
-10.135299682617187 -2.636990070343018 -3.300110101699829
-10.850299835205078 -3.103990077972412 -3.295109987258911
-10.278300285339355 -2.752990007400513 -3.316109895706177
-10.496299743652344 -2.934989929199219 -3.324110031127930
-10.603300094604492 -3.063990116119385 -3.325109958648682
-10.703300476074219 -3.205990076065064 -3.323110103607178
-10.543299674987793 -3.421989917755127 -3.326109886169434
-12.620300292968750 -2.390990018844605 -3.350110054016113
-10.380299568176270 -3.487989902496338 -3.336110115051270
-10.516300201416016 -3.237989902496338 -3.355109930038452
-10.334300041198730 -2.906990051269531 -3.366110086441040
-12.645299911499023 -2.186990022659302 -3.388109922409058
-10.402299880981445 -3.124989986419678 -3.387109994888306
-10.220299720764160 -3.491990089416504 -3.381109952926636
-10.361300468444824 -3.279989957809448 -3.387109994888306
-12.850299835205078 -2.480989933013916 -3.400110006332398
-10.186300277709961 -3.662990093231201 -3.391109943389893
-10.093299865722656 -2.762989997863770 -3.420109987258911
-10.180299758911133 -2.917000055313110 -3.428109884262085
-10.257300376892090 -3.063990116119385 -3.435110092163086
-9.953249931335449 -3.040990114212036 -3.439110040664673
-12.746299743652344 -2.349989891052246 -3.465110063552856
-10.214300155639648 -3.217989921569824 -3.460109949111939
-9.857250213623047 -2.856990098953247 -3.471110105514526
-10.115300178527832 -3.397300004959106 -3.463109970092773
-9.955249786376953 -2.730989933013916 -3.502110004425049
-10.102299690246582 -3.039989948272705 -3.505110025405884
-10.132300376892090 -3.811990022659302 -3.491110086441040
-10.006299972534180 -2.904989957809448 -3.520109891891480
-10.012299537658691 -3.509989976882935 -3.517110109329224
-10.070300102233887 -3.236989974975586 -3.539109945297241
-12.893300056457520 -2.562999963760376 -3.550110101699829
-10.090299606323242 -3.648989915847778 -3.540110111236572
-9.806249618530273 -2.720989942550659 -3.575109958648682
-9.948249816894531 -3.758990049362183 -3.570110082626343
-12.795299530029297 -2.444999933242798 -3.602109909057617
-9.977250099182129 -3.112989902496338 -3.595109939575195
-9.712249755859375 -3.040990114212036 -3.602109909057617
-9.880249977111816 -2.955990076065064 -3.611109972000122
-9.591250419616699 -2.935990095138550 -3.639110088348389
-9.932250022888184 -3.299989938735962 -3.643110036849976
-9.858249664306641 -3.638989925384522 -3.642110109329224
-9.744250297546387 -2.886990070343018 -3.666110038757324
-9.892399787902832 -3.482749938964844 -3.651940107345581
-9.639249801635742 -2.764990091323853 -3.682110071182251
-10.088299751281738 -3.823990106582642 -3.654109954833984
-9.831250190734863 -3.115000009536743 -3.692110061645508
-9.462249755859375 -3.050990104675293 -3.703109979629517
-12.964300155639648 -2.628999948501587 -3.711110115051270
-10.024299621582031 -3.689990043640137 -3.718110084533691
-9.563249588012695 -3.179990053176880 -3.753109931945801
-9.307250022888184 -3.104990005493164 -3.766109943389893
-9.809249877929688 -3.318989992141724 -3.762109994888306
-9.514249801635742 -2.897989988327026 -3.776109933853149
-9.898249626159668 -3.797990083694458 -3.751110076904297
-9.641249656677246 -3.033989906311035 -3.781110048294067
-9.634249687194824 -3.320990085601807 -3.783109903335571
-9.721249580383301 -3.184989929199219 -3.796109914779663
-9.046250343322754 -3.031990051269531 -3.810110092163086
-9.360250473022461 -2.963989973068237 -3.826109886169434
-9.093250274658203 -3.193989992141724 -3.831110000610352
-9.412249565124512 -3.242990016937256 -3.840110063552856
-13.006299972534180 -2.726000070571899 -3.849109888076782
-8.888250350952148 -3.213989973068237 -3.854110002517700
-10.034299850463867 -3.823990106582642 -3.835109949111939
-9.848250389099121 -3.500989913940430 -3.851109981536865
-9.940250396728516 -3.636990070343018 -3.849109888076782
-9.502249717712402 -3.074990034103394 -3.867110013961792
-9.688249588012695 -3.609989881515503 -3.859110116958618
-9.208250045776367 -3.035989999771118 -3.877110004425049
-9.781250000000000 -3.754990100860596 -3.860110044479370
-9.464249610900879 -3.381989955902100 -3.908109903335571
-9.593250274658203 -3.480989933013916 -3.906110048294067
-8.823249816894531 -3.393990039825440 -3.913110017776489
-9.728249549865723 -3.366990089416504 -3.918109893798828
-9.597249984741211 -3.246999979019165 -3.922110080718994
-9.279250144958496 -3.305999994277954 -3.931109905242920
-9.335249900817871 -3.126990079879761 -3.936110019683838
-8.974249839782715 -3.342989921569824 -3.935110092163086
-8.661250114440918 -3.403000116348267 -3.936110019683838
-8.999250411987305 -3.160000085830689 -3.959110021591187
-9.165249824523926 -3.182990074157715 -3.984110116958618
-9.962249755859375 -3.782989978790283 -3.976109981536865
-9.669249534606934 -3.752990007400513 -3.979110002517700
-8.809249877929688 -3.255990028381348 -3.996109962463379
-9.429249763488770 -3.254990100860596 -4.008110046386719
-9.814249992370606 -3.845989942550659 -4.001110076904297
-9.875249862670898 -3.641989946365356 -4.008110046386719
-9.540249824523926 -3.622989892959595 -4.010109901428223
-9.374250411987305 -3.476000070571899 -4.015110015869141
-9.177249908447266 -3.388989925384522 -4.028110027313232
-9.770250320434570 -3.504990100860596 -4.023109912872315
-9.607250213623047 -3.372989892959595 -4.039110183715820
-8.937250137329102 -3.462990045547485 -4.054110050201416
-8.759249687194824 -3.481990098953247 -4.069109916687012
-9.037249565124512 -3.294990062713623 -4.081110000610352
-8.689249992370606 -3.324990034103394 -4.098110198974609
-9.307250022888184 -3.322989940643311 -4.097109794616699
-9.553250312805176 -3.764990091323853 -4.096109867095947
-8.878250122070313 -3.326999902725220 -4.126110076904297
-9.691249847412109 -3.858989953994751 -4.126110076904297
-9.893250465393066 -3.781990051269531 -4.129109859466553
-9.098250389099121 -3.483000040054321 -4.143109798431397
-9.415249824523926 -3.693989992141724 -4.138110160827637
-9.644249916076660 -3.490000009536743 -4.147109985351563
-9.458250045776367 -3.415990114212036 -4.150109767913818
-9.304249763488770 -3.549000024795532 -4.158110141754150
-9.750249862670898 -3.618989944458008 -4.189109802246094
-8.849249839782715 -3.561990022659302 -4.205110073089600
-8.711250305175781 -3.349989891052246 -4.289110183715820
-9.274250030517578 -3.723989963531494 -4.285109996795654
-8.937250137329102 -3.452990055084229 -4.297110080718994
-9.463250160217285 -3.528990030288696 -4.299109935760498
-9.116250038146973 -3.467989921569824 -4.302110195159912
-9.529250144958496 -3.865000009536743 -4.293109893798828
-9.707249641418457 -3.898989915847778 -4.306109905242920
-9.849249839782715 -3.823990106582642 -4.309110164642334
-9.300250053405762 -3.519989967346191 -4.321109771728516
-8.946249961853027 -3.615989923477173 -4.325109958648682
-9.135250091552734 -3.638989925384522 -4.337110042572022
-9.741250038146973 -3.699990034103394 -4.349110126495361
-9.373250007629395 -3.854990005493164 -4.361110210418701
-9.576250076293945 -3.622989892959595 -4.369110107421875
-8.646249771118164 -3.471990108489990 -4.387110233306885
-8.806249618530273 -3.464989900588989 -4.399109840393066
-9.189249992370606 -3.811990022659302 -4.413109779357910
-8.658249855041504 -3.287990093231201 -4.431109905242920
-9.419249534606934 -3.615000009536743 -4.436110019683838
-8.832249641418457 -3.641989946365356 -4.449110031127930
-8.992250442504883 -3.685990095138550 -4.466110229492188
-9.780249595642090 -3.867990016937256 -4.460110187530518
-9.602250099182129 -3.912990093231201 -4.464109897613525
-9.158249855041504 -3.613990068435669 -4.501110076904297
-9.659250259399414 -3.764990091323853 -4.503109931945801
-9.300250053405762 -3.914989948272705 -4.528110027313232
-8.685250282287598 -3.407989978790283 -4.544109821319580
-9.459250450134277 -3.939990043640137 -4.547110080718994
-9.504249572753906 -3.734989881515503 -4.554110050201416
-9.305250167846680 -3.685990095138550 -4.560110092163086
-8.773249626159668 -3.528990030288696 -4.603109836578369
-8.783249855041504 -3.690989971160889 -4.605110168457031
-9.699250221252441 -3.937999963760376 -4.601109981536865
-9.019249916076660 -3.854990005493164 -4.607110023498535
-9.079250335693359 -3.692990064620972 -4.625110149383545
-8.584250450134277 -3.292989969253540 -4.638110160827637
-9.165249824523926 -3.921989917755127 -4.624110221862793
-9.392250061035156 -3.792989969253540 -4.659110069274902
-9.562250137329102 -3.870990037918091 -4.663109779357910
-8.634249687194824 -3.611989974975586 -4.678110122680664
-9.324250221252441 -3.969990015029907 -4.678110122680664
-8.920249938964844 -3.667989969253540 -4.690110206604004
-8.637249946594238 -3.437999963760376 -4.703110218048096
-9.197250366210938 -3.780989885330200 -4.711110115051270
-9.614250183105469 -4.009990215301514 -4.736110210418701
-9.007249832153320 -3.976000070571899 -4.744110107421875
-8.879249572753906 -3.874989986419678 -4.750110149383545
-8.771249771118164 -3.615989923477173 -4.774109840393066
-9.169249534606934 -4.032989978790283 -4.762110233306885
-9.051250457763672 -3.802989959716797 -4.790110111236572
-9.458250045776367 -3.956990003585815 -4.790110111236572
-9.260250091552734 -3.906990051269531 -4.817110061645508
-8.852250099182129 -3.740989923477173 -4.836110115051270
-9.270250320434570 -4.175990104675293 -4.825109958648682
-8.692250251770020 -3.757989883422852 -4.852109909057617
-9.503250122070313 -4.125989913940430 -4.840109825134277
-8.559249877929688 -3.474989891052246 -4.869110107421875
-9.064249992370606 -4.122000217437744 -4.858109951019287
-8.533249855041504 -3.251990079879761 -4.897109985351563
-9.354249954223633 -4.048999786376953 -4.881110191345215
-8.892250061035156 -4.063000202178955 -4.884109973907471
-9.397250175476074 -4.248990058898926 -4.895110130310059
-8.943249702453613 -3.860990047454834 -4.910109996795654
-9.105250358581543 -3.953989982604981 -4.908110141754150
-8.617250442504883 -3.628999948501587 -4.925109863281250
-9.192250251770020 -4.089990139007568 -4.956110000610352
-9.249250411987305 -4.250989913940430 -4.975110054016113
-9.169249534606934 -4.410990238189697 -4.979109764099121
-8.789250373840332 -3.863990068435669 -5.001110076904297
-8.496250152587891 -3.513989925384522 -5.012110233306885
-9.005249977111816 -4.063990116119385 -5.024109840393066
-8.694250106811523 -4.024990081787109 -5.028110027313232
-8.792249679565430 -4.159999847412109 -5.028110027313232
-8.502249717712402 -3.752990007400513 -5.044109821319580
-8.669249534606934 -3.763989925384522 -5.044109821319580
-9.098250389099121 -4.200990200042725 -5.034110069274902
-8.876250267028809 -4.508989810943604 -5.031109809875488
-9.025250434875488 -4.381989955902100 -5.052110195159912
-8.860250473022461 -4.004000186920166 -5.070109844207764
-8.943249702453613 -4.197989940643311 -5.096109867095947
-8.533249855041504 -3.219000101089478 -5.128109931945801
-8.664250373840332 -4.412990093231201 -5.108109951019287
-8.560250282287598 -4.125989913940430 -5.152110099792481
-8.463250160217285 -3.359989881515503 -5.192110061645508
-8.574250221252441 -3.789989948272705 -5.185110092163086
-8.467249870300293 -3.641989946365356 -5.192110061645508
-8.731249809265137 -4.107999801635742 -5.182109832763672
-8.791250228881836 -4.329989910125732 -5.176109790802002
-8.646249771118164 -3.963989973068237 -5.193109989166260
-8.770250320434570 -4.519989967346191 -5.189109802246094
-8.420249938964844 -3.500989913940430 -5.255109786987305
-8.408249855041504 -3.781990051269531 -5.249110221862793
-8.639249801635742 -4.216989994049072 -5.266109943389893
-8.480250358581543 -4.198989868164063 -5.279109954833984
-8.683250427246094 -4.397990226745606 -5.282110214233398
-8.535249710083008 -4.039989948272705 -5.305109977722168
-8.439249992370606 -3.235990047454834 -5.352109909057617
-8.395250320434570 -3.642990112304688 -5.347109794616699
-8.498250007629395 -3.865989923477173 -5.365109920501709
-8.384249687194824 -3.422990083694458 -5.399109840393066
-8.342249870300293 -3.792000055313110 -5.405109882354736
-8.550250053405762 -4.290989875793457 -5.402110099792481
-8.438249588012695 -4.115990161895752 -5.417109966278076
-8.351249694824219 -3.214989900588989 -5.486110210418701
-8.767250061035156 -4.475999832153320 -5.456110000610352
-8.331250190734863 -3.552989959716797 -5.482110023498535
-8.402250289916992 -3.950989961624146 -5.473110198974609
-8.645250320434570 -4.365990161895752 -5.508110046386719
-8.275250434875488 -3.382989883422852 -5.550109863281250
-8.295249938964844 -3.740989923477173 -5.562109947204590
-8.200249671936035 -3.197989940643311 -5.581110000610352
-8.374250411987305 -4.122990131378174 -5.569109916687012
-8.090250015258789 -3.317990064620972 -5.593110084533691
-8.183250427246094 -3.619990110397339 -5.608109951019287
-8.504249572753906 -4.248990058898926 -5.593110084533691
-8.338250160217285 -3.898989915847778 -5.617109775543213
-8.774250030517578 -4.428989887237549 -5.621109962463379
-8.134249687194824 -3.478990077972412 -5.673110008239746
-7.929249763488770 -3.235990047454834 -5.688109874725342
-8.637249946594238 -4.296989917755127 -5.675109863281250
-8.334250450134277 -4.243989944458008 -5.691110134124756
-8.016249656677246 -3.381989955902100 -5.726109981536865
-8.229249954223633 -3.815989971160889 -5.727109909057617
-8.465250015258789 -4.367990016937256 -5.712110042572022
-7.972249984741211 -3.629990100860596 -5.751110076904297
-8.127249717712402 -3.686990022659302 -5.749110221862793
-8.272250175476074 -4.038990020751953 -5.760109901428223
-8.443249702453613 -4.158989906311035 -5.793109893798828
-8.725250244140625 -4.342989921569824 -5.808110237121582
-7.894249916076660 -3.512989997863770 -5.838109970092773
-8.587249755859375 -4.234990119934082 -5.823110103607178
-8.248250007629395 -4.230989933013916 -5.836110115051270
-8.014249801635742 -3.759989976882935 -5.864109992980957
-8.498250007629395 -4.358990192413330 -5.872109889984131
-8.139249801635742 -3.884989976882935 -5.891109943389893
-7.893249988555908 -3.356990098953247 -5.908110141754150
-7.895249843597412 -3.653990030288696 -5.918109893798828
-8.225250244140625 -4.026989936828613 -5.920110225677490
-8.357250213623047 -4.116990089416504 -5.936110019683838
-8.356249809265137 -4.299990177154541 -5.934110164642334
-8.686249732971191 -4.298999786376953 -5.962110042572022
-8.077249526977539 -4.064990043640137 -5.973110198974609
-8.536250114440918 -4.190989971160889 -5.976109981536865
-8.207249641418457 -4.226990222930908 -6.010109901428223
-7.910250186920166 -3.391989946365356 -6.071109771728516
-7.894249916076660 -3.792000055313110 -6.074110031127930
-8.034250259399414 -3.910000085830689 -6.071109771728516
-8.056249618530273 -4.181000232696533 -6.084109783172607
-8.340250015258789 -4.255990028381348 -6.095109939575195
-8.664250373840332 -4.200990200042725 -6.098110198974609
-8.276249885559082 -4.098989963531494 -6.110109806060791
-7.839250087738037 -3.649990081787109 -6.130109786987305
-8.503250122070313 -4.242990016937256 -6.131110191345215
-8.097249984741211 -4.039989948272705 -6.170110225677490
-7.922249794006348 -3.299000024795532 -6.209109783172607
-7.925250053405762 -3.889990091323853 -6.205110073089600
-8.436249732971191 -4.112989902496338 -6.200109958648682
-8.176250457763672 -4.202990055084229 -6.200109958648682
-8.599249839782715 -4.140989780426025 -6.236110210418701
-7.898250102996826 -3.450989961624146 -6.271110057830811
-8.324250221252441 -4.204989910125732 -6.270110130310059
-7.812250137329102 -3.776989936828613 -6.293109893798828
-7.814249992370606 -3.609989881515503 -6.310110092163086
-7.979249954223633 -4.038990020751953 -6.313109874725342
-8.212249755859375 -4.095990180969238 -6.319109916687012
-8.524250030517578 -4.074989795684815 -6.363110065460205
-7.858250141143799 -3.933990001678467 -6.374110221862793
-8.364250183105469 -4.054989814758301 -6.381110191345215
-8.065250396728516 -4.152999877929688 -6.393109798431397
-7.926249980926514 -3.344990015029907 -6.415110111236572
-7.887249946594238 -4.146989822387695 -6.436110019683838
-7.760250091552734 -3.835989952087402 -6.461110115051270
-8.170249938964844 -4.042990207672119 -6.468110084533691
-7.877250194549561 -3.483000040054321 -6.506110191345215
-8.001250267028809 -4.045989990234375 -6.503109931945801
-8.472249984741211 -4.027999877929688 -6.516109943389893
-7.844250202178955 -4.008989810943604 -6.533110141754150
-8.317250251770020 -4.064990043640137 -6.552110195159912
-7.683249950408936 -4.027999877929688 -6.569109916687012
-7.712250232696533 -3.756989955902100 -6.596109867095947
-7.786250114440918 -3.615000009536743 -6.609109878540039
-7.787250041961670 -4.154990196228027 -6.603109836578369
-7.597249984741211 -3.894989967346191 -6.620110034942627
-8.098250389099121 -4.059989929199219 -6.642109870910645
-7.936250209808350 -4.095990180969238 -6.653110027313232
-8.216250419616699 -3.947989940643311 -6.673110008239746
-7.930250167846680 -3.410989999771118 -6.689109802246094
-8.397250175476074 -3.955990076065064 -6.674109935760498
-7.850249767303467 -3.924989938735962 -6.682109832763672
-7.633250236511231 -4.092989921569824 -6.710110187530518
-7.664249897003174 -3.655989885330200 -6.729109764099121
-8.012249946594238 -3.954989910125732 -6.736110210418701
-7.762249946594238 -3.785000085830689 -6.774109840393066
-7.538249969482422 -3.812999963760376 -6.775109767913818
-7.778250217437744 -4.130990028381348 -6.767109870910645
-7.518249988555908 -4.005990028381348 -6.798110008239746
-7.804249763488770 -3.615000009536743 -6.809110164642334
-8.299249649047852 -3.910989999771118 -6.808110237121582
-7.927249908447266 -4.070000171661377 -6.819109916687012
-7.898250102996826 -3.852989912033081 -6.826109886169434
-8.154250144958496 -3.991990089416504 -6.838109970092773
-7.583250045776367 -4.177989959716797 -6.843110084533691
-7.633250236511231 -3.716989994049072 -6.878109931945801
-7.923250198364258 -3.532989978790283 -6.890110015869141
-8.040249824523926 -3.871999979019165 -6.906109809875488
-7.747250080108643 -3.653000116348267 -6.974110126495361
-8.234250068664551 -3.918989896774292 -6.966110229492188
-7.548250198364258 -3.824990034103394 -6.972109794616699
-7.500249862670898 -4.094989776611328 -6.969110012054443
-7.860249996185303 -4.122000217437744 -6.985109806060791
-7.655250072479248 -4.225999832153320 -6.989109992980957
-7.410250186920166 -3.964989900588989 -6.997109889984131
-8.039250373840332 -4.040989875793457 -7.005109786987305
-7.934249877929688 -3.643990039825440 -7.042109966278076
-8.088250160217285 -3.861989974975586 -7.065110206604004
-7.647250175476074 -3.775990009307861 -7.097109794616699
-8.160249710083008 -4.002989768981934 -7.110109806060791
-7.787250041961670 -3.700989961624146 -7.122109889984131
-7.777249813079834 -4.215990066528320 -7.113110065460205
-7.428249835968018 -4.182990074157715 -7.116109848022461
-7.490250110626221 -3.852989912033081 -7.126110076904297
-7.973249912261963 -3.770989894866943 -7.133110046386719
-7.583250045776367 -4.270989894866943 -7.127110004425049
-7.960249900817871 -4.116990089416504 -7.130109786987305
-7.365250110626221 -4.037990093231201 -7.143109798431397
-8.034250259399414 -3.910000085830689 -7.209109783172607
-8.081250190734863 -4.073989868164063 -7.232110023498535
-7.715250015258789 -3.799989938735962 -7.245110034942627
-7.329249858856201 -4.175990104675293 -7.243110179901123
-7.457250118255615 -4.299990177154541 -7.242109775543213
-7.695250034332275 -4.298999786376953 -7.243110179901123
-7.389249801635742 -3.885999917984009 -7.264110088348389
-7.883250236511231 -3.785989999771118 -7.266109943389893
-7.877250194549561 -4.205989837646484 -7.257110118865967
-7.569250106811523 -3.861989974975586 -7.272109985351563
-7.263249874114990 -4.032989978790283 -7.284110069274902
-7.939249992370606 -3.960989952087402 -7.343110084533691
-7.993249893188477 -4.129990100860596 -7.354109764099121
-7.576250076293945 -4.359990119934082 -7.351109981536865
-7.341249942779541 -4.294990062713623 -7.356110095977783
-7.280250072479248 -3.887989997863770 -7.395110130310059
-7.800250053405762 -3.861989974975586 -7.396110057830811
-7.788249969482422 -4.306990146636963 -7.388110160827637
-7.244249820709229 -4.151989936828613 -7.404109954833984
-7.453249931335449 -3.874989986419678 -7.422110080718994
-7.643249988555908 -3.880990028381348 -7.427110195159912
-7.685249805450440 -4.414989948272705 -7.466110229492188
-7.466249942779541 -4.431000232696533 -7.471109867095947
-7.860249996185303 -4.034999847412109 -7.482110023498535
-7.212250232696533 -4.308990001678467 -7.484109878540039
-7.918250083923340 -4.190989971160889 -7.499110221862793
-7.166250228881836 -4.086999893188477 -7.533110141754150
-7.315249919891357 -4.433990001678467 -7.527110099792481
-7.838250160217285 -4.324989795684815 -7.542109966278076
-7.155250072479248 -3.887989997863770 -7.566110134124756
-7.537250041961670 -3.853990077972412 -7.566110134124756
-7.325250148773193 -3.852989912033081 -7.568109989166260
-7.750249862670898 -3.954989910125732 -7.568109989166260
-7.781250000000000 -4.147990226745606 -7.591110229492188
-7.106249809265137 -4.245989799499512 -7.602109909057617
-7.521249771118164 -4.511000156402588 -7.603109836578369
-7.172249794006348 -4.422989845275879 -7.629109859466553
-7.766250133514404 -4.436989784240723 -7.636109828948975
-7.652249813079834 -4.070990085601807 -7.650109767913818
-7.668250083923340 -3.849989891052246 -7.672110080718994
-7.699250221252441 -4.286990165710449 -7.671110153198242
-7.063250064849854 -4.103990077972412 -7.686110019683838
-7.425250053405762 -3.815989971160889 -7.698110103607178
-7.384250164031982 -4.561989784240723 -7.685110092163086
-7.089250087738037 -3.862989902496338 -7.722109794616699
-7.253250122070313 -3.805999994277954 -7.723110198974609
-7.516250133514404 -4.131989955902100 -7.723110198974609
-7.036250114440918 -4.334990024566650 -7.720109939575195
-7.538249969482422 -3.940989971160889 -7.738110065460205
-7.229249954223633 -4.567989826202393 -7.732110023498535
-7.616250038146973 -4.501989841461182 -7.737110137939453
-7.555250167846680 -4.303989887237549 -7.745110034942627
-7.077250003814697 -4.500989913940430 -7.760109901428223
-7.358250141143799 -4.094989776611328 -7.778110027313232
-7.561250209808350 -3.764990091323853 -7.795110225677490
-6.981249809265137 -4.199989795684815 -7.788109779357910
-7.389249801635742 -4.255990028381348 -7.793109893798828
-7.404250144958496 -3.754990100860596 -7.862110137939453
-7.018249988555908 -3.792000055313110 -7.869110107421875
-7.135250091552734 -4.065989971160889 -7.862110137939453
-7.323249816894531 -3.939990043640137 -7.866109848022461
-7.167250156402588 -3.711999893188477 -7.873109817504883
-6.901249885559082 -4.366990089416504 -7.860109806060791
-7.315249919891357 -4.380990028381348 -7.863110065460205
-7.203249931335449 -4.252989768981934 -7.867109775543213
-6.928249835968018 -4.557990074157715 -7.861110210418701
-7.430250167846680 -4.546989917755127 -7.860109806060791
-7.307250022888184 -4.651989936828613 -7.870110034942627
-6.933249950408936 -3.941989898681641 -7.896110057830811
-7.028250217437744 -4.681000232696533 -7.893109798431397
-6.857250213623047 -4.094989776611328 -7.936110019683838
-7.232250213623047 -4.509990215301514 -7.927110195159912
-6.742249965667725 -4.350999832153320 -7.933110237121582
-7.333250045776367 -3.638989925384522 -7.955110073089600
-6.793250083923340 -4.622000217437744 -7.941110134124756
-7.288249969482422 -3.806989908218384 -7.965109825134277
-7.177249908447266 -3.932990074157715 -7.966110229492188
-7.057250022888184 -3.626990079879761 -7.978109836578369
-7.062250137329102 -4.339990139007568 -7.960110187530518
-7.175250053405762 -4.715990066528320 -7.961110115051270
-6.984250068664551 -4.183990001678467 -7.982110023498535
-7.080249786376953 -4.511000156402588 -7.983109951019287
-6.935249805450440 -3.738990068435669 -8.007109642028809
-6.743249893188477 -3.997989892959595 -8.007109642028809
-6.591249942779541 -3.938990116119385 -8.010109901428223
-7.063250064849854 -4.044990062713623 -8.009110450744629
-6.924250125885010 -4.767990112304688 -7.992109775543213
-6.679249763488770 -4.160990238189697 -8.010109901428223
-6.830249786376953 -3.862989902496338 -8.020110130310059
-6.918250083923340 -4.367990016937256 -8.025110244750977
-7.206250190734863 -3.653990030288696 -8.054109573364258
-6.969250202178955 -4.618989944458008 -8.036109924316406
-6.693250179290772 -4.781990051269531 -8.041110038757324
-6.688250064849854 -3.804990053176880 -8.068110466003418
-7.096250057220459 -3.800990104675293 -8.086110115051270
-6.823249816894531 -4.206989765167236 -8.086110115051270
-6.857250213623047 -4.511990070343018 -8.081110000610352
-6.815249919891357 -3.692990064620972 -8.104109764099121
-6.523250102996826 -4.758989810943604 -8.083109855651856
-6.809249877929688 -4.671989917755127 -8.094109535217285
-6.777249813079834 -4.373990058898926 -8.107110023498535
-7.001249790191650 -3.942990064620972 -8.120109558105469
-6.552249908447266 -3.740000009536743 -8.128109931945801
-6.954249858856201 -4.104990005493164 -8.125109672546387
-7.066249847412109 -3.620990037918091 -8.140110015869141
-7.024250030517578 -3.466989994049072 -8.176110267639160
-6.675250053405762 -3.640990018844605 -8.174110412597656
-6.960249900817871 -3.773989915847778 -8.173110008239746
-6.642250061035156 -4.669990062713623 -8.155110359191895
-6.705249786376953 -4.512989997863770 -8.177109718322754
-6.917250156402588 -3.621999979019165 -8.218110084533691
-6.705249786376953 -4.250989913940430 -8.216110229492188
-6.853250026702881 -3.881989955902100 -8.241109848022461
-6.871250152587891 -3.471990108489990 -8.266110420227051
-6.513249874114990 -3.663990020751953 -8.272109985351563
-6.782249927520752 -3.708990097045898 -8.277110099792481
-6.940249919891357 -4.034999847412109 -8.273110389709473
-6.808249950408936 -4.130990028381348 -8.273110389709473
-6.721250057220459 -3.436990022659302 -8.336110115051270
-6.629250049591065 -4.589990139007568 -8.308110237121582
-6.624249935150147 -4.757989883422852 -8.312109947204590
-6.668250083923340 -3.617990016937256 -8.354109764099121
-6.743249893188477 -3.934989929199219 -8.362110137939453
-6.389249801635742 -3.698990106582642 -8.376110076904297
-6.658249855041504 -3.792989969253540 -8.379110336303711
-6.575250148773193 -3.412990093231201 -8.411109924316406
-6.421249866485596 -3.521990060806274 -8.420109748840332
-6.871250152587891 -4.039989948272705 -8.423110008239746
-6.723249912261963 -4.142990112304688 -8.434109687805176
-6.538249969482422 -3.629990100860596 -8.455109596252441
-6.710249900817871 -4.681000232696533 -8.440110206604004
-6.241250038146973 -3.740989923477173 -8.478110313415527
-6.689249992370606 -4.513989925384522 -8.464110374450684
-6.561250209808350 -3.808990001678467 -8.512109756469727
-6.682250022888184 -3.931989908218384 -8.518110275268555
-6.347249984741211 -3.613990068435669 -8.531109809875488
-6.471250057220459 -3.418989896774292 -8.537110328674316
-6.802249908447266 -4.036990165710449 -8.569109916687012
-6.676249980926514 -4.140989780426025 -8.590109825134277
-6.688250064849854 -4.401989936828613 -8.589110374450684
-6.768249988555908 -4.714990139007568 -8.590109825134277
-6.515250205993652 -3.670989990234375 -8.632109642028809
-6.745250225067139 -4.553989887237549 -8.612110137939453
-6.510250091552734 -3.501990079879761 -8.670109748840332
-6.495250225067139 -3.779989957809448 -8.755109786987305
-6.787250041961670 -4.686989784240723 -8.755109786987305
-6.350249767303467 -3.620990037918091 -8.799110412597656
-6.511250019073486 -3.612989902496338 -8.804109573364258
-6.544250011444092 -3.419990062713623 -8.811109542846680
-6.729249954223633 -4.544990062713623 -8.833109855651856
-6.809249877929688 -4.665989875793457 -8.922109603881836
-6.461249828338623 -3.644989967346191 -8.957110404968262
-6.509250164031982 -3.455990076065064 -8.971110343933106
-6.425250053405762 -3.803989887237549 -8.982110023498535
-6.757249832153320 -4.549990177154541 -9.033109664916992
-6.339250087738037 -3.629990100860596 -9.082110404968262
-6.437250137329102 -3.457989931106567 -9.116109848022461
-6.685249805450440 -4.681990146636963 -9.122110366821289
-6.637249946594238 -4.528989791870117 -9.143110275268555
-6.297249794006348 -3.439990043640137 -9.200110435485840
-6.240250110626221 -3.726989984512329 -9.200110435485840
-6.170249938964844 -3.417000055313110 -9.304109573364258
-6.159249782562256 -3.621999979019165 -9.299110412597656
-6.114250183105469 -3.765990018844605 -9.380109786987305
-6.037250041961670 -3.413990020751953 -9.411109924316406
-6.053249835968018 -3.612989902496338 -9.419110298156738
-5.963250160217285 -3.802989959716797 -9.429109573364258
-5.962250232696533 -3.542989969253540 -9.551110267639160
-5.946249961853027 -3.645989894866943 -9.681110382080078
-5.844250202178955 -3.525990009307861 -9.717109680175781
-5.960249900817871 -3.744990110397339 -9.810110092163086
-5.820250034332275 -3.625989913940430 -9.844109535217285
-5.684249877929688 -3.621999979019165 -9.950110435485840
-5.697249889373779 -3.817990064620972 -9.976110458374023
-5.744249820709229 -3.684989929199219 -10.087100028991699
-5.873250007629395 -3.653990030288696 -10.191100120544434
-5.819250106811523 -3.801990032196045 -10.228099822998047
-5.767250061035156 -3.762989997863770 -10.395099639892578
-5.626249790191650 -4.053989887237549 -10.930100440979004
