ply
format ascii 1.0
element vertex 453
property double x
property double y
property double z
end_header
165.276992797851560 -773.447998046875000 -417.079986572265630
157.617500305175780 -762.462524414062500 -417.365493774414060
141.427801513671880 -752.178002929687520 -417.546197509765650
149.284750257219600 -753.455965314592620 -419.241072518484940
156.856532796223950 -754.209077962239580 -418.058868408203120
148.787344455718990 -743.051189422607420 -418.320562362670900
155.907997131347660 -745.348663330078120 -417.613489786783870
147.098202514648450 -734.590417480468770 -417.260198974609350
126.492117489085470 -693.535001866957710 -418.873177921070750
125.459500885009760 -684.227203369140620 -418.461697387695320
124.859533182779940 -669.225805664062480 -419.160998535156240
131.395329793294280 -669.463012695312500 -421.644999186197940
125.219971575055810 -658.480004882812520 -419.611573137555810
132.186599731445310 -656.087805175781230 -421.345800781249980
126.747181285511360 -647.288232976740010 -418.436861905184680
132.335715157645100 -646.777430943080390 -419.228567940848220
128.792332967122410 -638.689331054687500 -417.386667887369810
132.510665893554690 -639.238169352213500 -417.548833211263000
165.629999796549470 -774.038675944010380 -414.444000244140620
168.471416473388670 -776.942916870117190 -407.926495869954410
137.949996948242190 -763.242980957031250 -405.382995605468750
164.281167348225920 -764.151540120442750 -412.768210093180360
167.075372695922850 -769.723373413085940 -408.320499420166020
137.509197998046890 -751.804199218750000 -411.587005615234370
163.719961899977480 -754.549366877629150 -412.336172837477480
139.156235638786770 -742.400580911075390 -414.270529354319880
146.043251037597660 -738.932006835937500 -416.852249145507810
162.269709925497720 -742.740195981917850 -412.189743534211170
138.956666169343180 -730.733997486255820 -413.777812816478620
148.545969486236570 -729.786497116088870 -416.280938148498540
160.581510057636340 -730.167961569393360 -412.213980880438100
125.771003723144530 -713.249023437500000 -411.127990722656250
137.580299886067710 -718.325563557942700 -412.354031372070320
148.769588694852930 -718.635907341452250 -414.994292315314790
159.968509755236030 -718.194234645113060 -410.391042506441180
125.234909057617190 -704.728537819602250 -409.519728227095190
136.266762143089660 -706.684163411458370 -411.569333757673010
149.254437446594240 -706.150619506835940 -413.818060874938960
159.265550231933590 -706.688253784179660 -409.932949829101570
123.391352709601900 -694.272089341107520 -411.023790247300100
136.145909926470580 -694.599379595588290 -411.840352675494050
149.008533732096370 -693.818764241536430 -412.984399414062520
158.662264655618120 -694.041408763212300 -409.912912705365330
124.449058981502760 -682.930118336397070 -409.216412712545950
134.883091319691060 -682.548092004024620 -411.614999482125940
148.775617262896360 -682.261002484489840 -412.232028736787700
158.257281963641820 -682.646946051181890 -409.304052108373410
126.947085504946500 -669.848778766134500 -410.019476849099870
136.251315869783100 -670.181581196032080 -412.848603901110210
148.855466376410590 -670.469731987847240 -411.684157307942710
157.554435398267660 -669.913351307744620 -408.165738313094440
117.167945014105900 -657.944831000434080 -412.750774807400150
124.826250249689280 -658.304773504083760 -410.115249633789060
136.486056433783630 -658.387557983398440 -412.547585381401920
148.210788927580180 -658.821284243935000 -411.214869449013180
156.871632626182160 -659.338735480057610 -408.422475714432550
116.415087980382580 -646.050617891199410 -410.738413193646580
124.507238470989720 -646.489630657693620 -411.070021919582190
136.717028299967440 -646.355916341145870 -410.420916239420590
147.685585811220360 -645.857070396686370 -409.847759378367470
155.485714503696980 -647.818712506975430 -407.665998186383940
115.391429356166300 -634.230252511160760 -409.309257289341530
124.960768626286440 -634.430426964393060 -412.466808612530030
136.884225463867180 -634.685273742675800 -408.613726043701150
115.442322049822120 -623.559644426618320 -409.109893798828130
124.320473721152850 -622.765208997224480 -412.609050549958910
136.712875366210940 -625.182632446289060 -407.897439956665040
115.094742313508060 -610.422997259324570 -407.898806664251540
122.723758302885910 -610.553622541756450 -411.390587116109940
115.282958348592120 -598.649703979492190 -406.948333740234370
122.312454570423470 -598.779319069602250 -409.483725807883500
115.988687515258790 -587.387062072753910 -406.048561096191410
121.365066019694010 -586.744340006510470 -407.255865478515600
117.475502014160160 -578.379516601562500 -405.145996093750000
121.249333699544270 -576.707438151041630 -405.512223985460080
121.564798736572270 -546.318206787109370 -407.170101928710950
120.891222635904950 -541.132168240017340 -410.379721747504330
176.324005126953120 -787.441009521484370 -398.074996948242190
165.397859845842650 -773.981994628906250 -400.432002476283460
171.624749319893970 -780.389323643275700 -401.070534842354900
162.905622694227420 -766.215421549479170 -400.837088351779530
136.763304337211280 -753.996738599694250 -402.855220628821310
149.757950592041030 -753.577743530273440 -396.928599548339830
160.120919504473280 -754.739820911038350 -400.160677509923120
167.520004272460940 -749.396972656250000 -403.066986083984370
148.497221628824860 -742.411777072482660 -397.391749911838130
160.285166104634610 -742.635523478190070 -401.578311920166020
167.257995605468750 -746.437500000000000 -403.076995849609370
148.931862301296660 -730.751831054687500 -397.957388983832460
158.926438494426430 -730.657001774485480 -401.993096328363210
137.824549865722640 -718.348095703124950 -397.019546508789060
149.223092859441580 -718.404725508256430 -398.483521201393840
158.878915998670780 -718.453053792317750 -402.537389967176640
136.145903064358610 -706.103996030745980 -399.387097758631570
149.353626251220700 -706.328552246093750 -398.500750732421860
158.577001069721430 -706.824104710629060 -402.679131758840470
127.835368909333880 -693.998156095805940 -402.413106817948180
135.556394075092530 -694.137081748560830 -398.503104762027140
150.715150833129880 -694.597424316406200 -399.209452056884740
158.416161814043590 -694.572901571950640 -402.987128473097300
125.415063858032230 -685.667816162109370 -400.836811065673830
137.500532531738290 -682.743631998697880 -396.389498901367180
150.150500210848720 -682.100115689364320 -398.752657803622180
158.126667277018240 -683.391333007812480 -402.187062581380190
129.782999674479160 -667.311991373697880 -395.656667073567690
136.369257773122480 -670.343452699722770 -394.631484493132580
149.522853533426910 -670.695732116699220 -397.754540125528990
155.869104003906240 -671.190899658203080 -403.610101318359400
127.134086940599530 -658.903219471807120 -396.511567488960620
132.647362448952410 -659.547995827414750 -393.619726007634940
149.929981967859110 -658.714263380619510 -397.225245960971790
155.380667792426210 -659.400214301215330 -402.506001790364560
116.816895334344170 -644.015525416324070 -402.136156584087190
124.999148050944020 -646.726661964699020 -399.504221598307310
150.363302531995260 -646.382238287674800 -398.040723700272390
155.137001037597660 -648.407012939453120 -397.193496704101560
115.706107275826600 -634.435533796037930 -400.702180044991620
122.264588524313540 -633.632948931525790 -400.567263434914990
149.610641479492190 -634.741177231518240 -398.184730643656740
114.098823996151200 -621.873763738894010 -399.481213737936570
123.173047201974060 -622.552000499906970 -401.654475620814710
133.208498001098630 -619.727249145507810 -404.541873931884770
148.167867120706800 -622.980602336379660 -398.939982288288600
113.126507192418190 -610.415537073992250 -398.509029222571310
124.199424552917480 -610.206375122070310 -401.427699279785140
132.487332661946620 -610.404591878255250 -402.926918029785160
112.238985173842480 -598.268675860236730 -398.240088518928080
123.816642397925960 -598.398120698474710 -399.776024228050570
136.338727084073160 -597.263544256036880 -398.181513930812000
148.850000821627110 -598.345538799579340 -399.687654348520140
111.701729439400340 -586.825270369246250 -398.487446965398020
124.798647487864770 -586.645468319163570 -398.196412030388330
136.391488647460930 -586.885887315538180 -396.203331841362850
105.786166297064880 -573.540276421440920 -396.337888929578980
112.943450037638340 -574.578333536783820 -399.891534423828150
123.981761750720790 -573.980547223772310 -397.308356148856030
135.644200134277360 -575.881966145833300 -394.741334025065100
104.934727408669220 -562.140541770241500 -395.801273692737940
112.340595651180180 -562.418570011220030 -400.413255407455100
123.334906822027160 -562.715976448946210 -396.291440741960400
133.967998504638670 -563.388000488281250 -394.137504577636720
104.569817976518110 -550.313545920632120 -395.223274924538370
111.326061964035030 -551.628215789794920 -399.795406341552730
121.153076758751500 -549.773230919471190 -398.024538480318480
134.471858433314740 -550.054574148995580 -394.112566266741060
119.397499084472660 -543.384002685546870 -400.089004516601560
132.255004882812500 -537.735192871093770 -393.287603759765600
162.941741378219040 -789.118148238570600 -384.211665400752340
172.317371913364950 -790.364538574218730 -388.334882463727690
160.669690218838780 -779.385399280894830 -388.202782648259930
168.858753204345700 -783.686744689941410 -392.009750366210940
141.566497802734380 -666.428497314453120 -392.855499267578120
138.199584325154630 -657.833704630533820 -392.415999094645200
143.536196899414050 -657.399401855468800 -392.989599609374980
129.035000610351570 -642.624414062500020 -392.579797363281270
136.575722164577910 -646.445332845052120 -391.685054355197510
147.264561653137210 -643.860809326171870 -391.279621124267580
127.063498410311610 -633.573680530894880 -391.734724564985810
137.106147317325370 -634.637147791245410 -390.506970573874070
147.929730341984680 -635.163919302133420 -390.845036433293270
124.868874549865720 -622.142471313476560 -390.423052978515610
137.080743251702730 -622.369408240685060 -389.118923871945130
145.478330824110230 -621.638448079427120 -392.207444932725710
116.966999477810330 -608.969116210937500 -392.097774929470460
123.858325692110280 -610.577162631722330 -388.544277457303790
136.627718411959140 -610.631820287459960 -387.861639560797300
149.971707972084600 -609.941980873666130 -388.165147734851360
114.865268428151200 -597.962783441310990 -390.947414491234780
124.042465032533160 -598.745483398437500 -385.918163210846670
137.505792299906400 -598.105189005533820 -387.597520192464170
149.236222669813370 -598.979865180121580 -387.611779106987850
113.317833328247080 -586.361734008789090 -389.397398885091150
123.933585004108710 -586.725903022580040 -383.304830411585390
137.514525849940410 -586.716238248146170 -387.208846787274920
144.644999186197910 -590.271667480468750 -392.741668701171870
106.061332702636720 -570.767659505208370 -392.403991699218750
112.169756246167570 -574.593033901480790 -387.771256912586300
122.365599822998050 -577.546002197265580 -381.741900634765610
136.544258117675780 -574.203760320490010 -386.551697702118870
105.379210622687080 -561.638903166118440 -390.028999730160360
111.341397212101870 -563.118948129507200 -386.918420644906860
128.757664998372410 -558.108337402343750 -392.866333007812500
135.943224095586520 -562.260715769298030 -386.860821168814140
103.660212707519530 -550.173535156249950 -388.242510308159690
108.533865865071620 -553.144132486979170 -383.227736409505210
126.546727267178620 -549.709544788707380 -391.966135198419750
135.242016808461330 -550.942322811837930 -387.495865644034670
110.940461085392880 -535.382077730619020 -389.851231501652650
125.264784735602300 -538.842380832981460 -390.254376385663020
134.544268352229410 -539.256923768578530 -386.919388189548390
112.152063897315490 -526.799317704870300 -385.675852674119030
124.844689093695750 -526.763599989149270 -386.956108940972230
132.878333536783860 -527.246968587239620 -386.798264567057290
112.547574996948240 -514.151177978515650 -384.535975646972640
125.550102233886720 -514.443936094945800 -384.516671939771980
131.682090065696030 -515.769273237748620 -383.599273681640620
125.791237967354920 -504.236618768601200 -382.724336170014910
158.873946340460520 -790.671842876233540 -379.543946918688330
153.270996093750000 -607.325988769531250 -381.010009765625000
117.467002868652340 -569.424987792968750 -380.980010986328120
125.110073796025030 -573.330593532986090 -380.349813955801490
114.816533915201820 -560.364062500000050 -379.316735839843770
124.536172267368850 -562.356258719308020 -378.729513985770100
131.550624847412110 -561.392501831054690 -380.506748199462890
105.394923283503600 -548.935767540564940 -370.574923001802860
110.839076898036860 -550.968329013922240 -376.271564190204340
125.124878301853090 -550.072413002572380 -376.654462860851770
132.221214294433590 -549.822719029017890 -379.913000924246660
112.228743333082930 -538.244389460636970 -374.772281744541260
125.083779870010010 -538.322652677210390 -374.506513642101770
132.671560058593740 -538.505800781249950 -379.101280517578120
111.704888576931420 -527.043397352430590 -373.045933702256950
125.524913124416190 -526.430607007897380 -372.890782895295500
132.769334157307950 -526.472129821777340 -378.436373392740900
103.872131015943440 -514.245697021484370 -376.475392217221440
109.673343113490520 -515.701424734933080 -372.887027413504480
126.871564284614890 -514.851281207540750 -372.709215247112750
132.158074273003480 -514.445148609302690 -376.430370189525490
103.313179798615280 -503.140074901091740 -373.970766507662230
126.453077793121340 -501.883658409118650 -375.977123737335210
131.192584991455080 -504.939501444498720 -377.271006266276060
102.130696689381320 -491.171204510857080 -372.808001349954050
126.037209259836300 -490.962787828947340 -375.118186549136510
102.155393538936490 -478.108998944682470 -371.560645318800430
124.262879943847650 -479.174519042968770 -373.585258789062490
123.627333641052250 -468.763959248860660 -372.137582143147770
102.911005120528370 -432.831788715563330 -371.049210397820730
114.113157573499180 -512.223894621196560 -367.953788355777140
124.204101181030270 -512.520397949218700 -367.156648254394550
131.754499816894540 -513.610098266601540 -368.182296752929690
105.103572300502240 -499.992283412388420 -368.078857421875000
112.027166457403270 -502.538023449125720 -365.834809076218390
125.252064580502720 -502.263695094896380 -365.806001082710620
131.342714582170770 -503.128997802734370 -367.403285435267830
103.284517923990890 -490.183666807232500 -366.172453909209250
112.272389094034840 -490.246695624457460 -362.408583747016050
124.510309670188210 -490.257363614169040 -364.894218306107970
101.292536075298600 -478.496981694148130 -363.993885920597960
124.209982920501190 -477.931050963320960 -363.674051575741540
93.767460632324216 -467.405407714843760 -368.512799072265640
99.101127624511719 -466.563540649414050 -361.550421752929710
123.846147054036460 -466.193426513671850 -363.059306233723930
93.337432167746798 -453.123590642755690 -365.169679121537630
96.958779907226557 -456.420960693359350 -359.093918457031240
92.274580796559647 -442.051041285196960 -362.831062952677430
96.042085011800125 -438.723164876302060 -366.578831990559880
90.764933072603668 -430.542256673177060 -362.493590526091740
99.923241297403976 -429.080890231662350 -363.858499315049930
90.422829021107063 -419.012772300026650 -360.854933998801470
100.549697544263750 -419.057324616805370 -365.367064766261880
91.261131549703663 -406.837930613550670 -359.848169787176740
100.158744349624170 -406.772853042140130 -363.236575964725380
92.021725704795429 -395.576840049342080 -358.497211657072340
100.022948346819190 -394.448744419642880 -360.036856515066970
92.885675430297852 -385.837745666503910 -357.397003173828120
99.878463745117188 -384.586543690074560 -357.986636075106560
102.113610298402850 -454.257321265435960 -354.555259458480350
93.576927185058594 -440.034144810267830 -356.040570940290190
99.705955667698632 -442.558701535488690 -352.706252727102710
92.534304411514952 -430.701260774031940 -353.653174358865500
98.772054856823331 -430.830694383190520 -351.035725747385360
91.193347257726330 -418.110961914062500 -350.765078675513170
99.308647423459774 -419.262087102521950 -351.756895366467920
89.028777279070951 -406.460313028364060 -350.361687048157650
99.892033699231277 -406.534923064403020 -352.334719144380980
107.799247741699220 -404.471000671386720 -352.725997924804690
87.709853241409078 -394.694693745046440 -350.260275135869560
100.180948205896330 -394.302299705711560 -349.852595973659220
107.432498931884770 -392.365005493164060 -349.514007568359370
82.455772399902344 -384.472000122070310 -346.697006225585940
87.924031224744070 -382.640120407630660 -351.651087267645490
100.383544582790800 -382.136134168836800 -349.655401611328100
108.889601898193360 -381.980703735351540 -348.474197387695310
82.725399017333984 -374.354003906250000 -345.462493896484370
87.735198398806020 -370.985227764777390 -350.159753187647420
100.661742099495830 -371.050744345021830 -352.380742272665320
89.106020355224615 -359.821525573730470 -347.968901062011700
100.990277099609370 -359.218650817871090 -349.648075103759770
112.265443589952260 -361.914560953776060 -350.034115261501710
101.739172668457030 -416.958319091796850 -343.935960693359390
92.402579171316958 -404.750215802873870 -343.475431169782380
100.205468984750600 -406.523976643880190 -341.075642903645810
90.377330290965546 -393.565435947516050 -341.563332582131410
100.081916005987860 -394.984288265830570 -337.604895340768910
113.161975581471510 -396.274782506430990 -336.351485833889110
82.013020324707028 -379.855596923828100 -344.548004150390620
89.428573710123700 -382.256479492187510 -339.900679524739590
100.956115722656250 -384.071376800537110 -334.907313346862790
108.141400146484370 -382.958496093750000 -336.132501220703150
81.718052673339841 -369.842799886067720 -343.068068440755210
88.611110462861902 -370.798852359547310 -338.019042968750000
100.254744361428650 -370.147058823529390 -343.146619011374070
107.956887563069660 -369.404222276475710 -340.456612481011290
111.914077758789060 -390.980691763070920 -331.827232947716370
93.482101440429688 -377.420989990234370 -333.013000488281250
99.275412559509277 -379.034755706787110 -332.656124114990230
91.360691568125844 -369.656740934952440 -331.180041769276500
100.801684199152760 -371.434486182960310 -330.409191234691720
108.510250091552730 -366.074249267578120 -331.468742370605470
100.892530635911600 -358.906244394730550 -325.490061234454740
112.467788256131680 -360.441422095665590 -326.998231154221740
119.346000671386720 -361.773010253906250 -326.473999023437500
87.362857412784663 -347.005617182305510 -326.848830527447660
99.073900222778320 -351.302749633789060 -321.722000122070310
107.990498860677080 -331.353164672851560 -322.483169555664060
101.782616778117860 -323.440073897198940 -324.406171100895560
107.574996948242190 -327.372985839843750 -321.127990722656250
97.835478646414614 -314.195569719587070 -322.373212541852690
92.194899241129562 -343.079330444335940 -320.060831705729190
101.300440470377610 -346.227735307481570 -315.876958635118290
108.022222730848530 -352.148773193359380 -315.344221327039920
90.360399693618589 -333.794913209514850 -315.698519483024710
97.195325034005307 -336.708855765206470 -315.133213588169670
109.420091108842330 -331.600180886008500 -318.617631392045440
87.324170729693250 -324.413087732651660 -312.947207282571240
100.241185132194970 -322.173617194680620 -316.078561221852000
108.047666761610240 -322.383002387152770 -316.997668796115480
88.408659128042373 -311.236920479016420 -313.901228684645450
101.500012813470310 -310.447410387870600 -315.432769775390620
107.530908757990060 -312.315729314630690 -312.477358731356560
76.222672218500179 -299.491071124409530 -312.956789948219470
89.557919565836585 -299.247498575846350 -316.963134765625000
101.082100256165460 -299.503923102990880 -313.658685940415130
74.518299102783203 -288.451499938964840 -313.611165364583310
89.739765298777613 -287.495450776198820 -313.768692542766700
98.446749623616540 -287.966165161132840 -311.944536336263010
90.415417565239807 -277.217222425672730 -310.363055759006100
97.315000534057617 -276.436126708984370 -310.190124511718750
90.827936587126359 -334.296390699303690 -303.083217012709440
96.278250013078960 -339.489501953125000 -304.911427089146230
89.339818827311191 -307.201999918619780 -308.087400309244800
96.301465352376297 -306.179005940755190 -308.722991943359370
107.442331949869800 -307.423004150390620 -309.053660074869810
77.610644912719721 -299.512001037597660 -306.815051269531240
88.091549198801928 -298.891094672970670 -305.341512540491640
99.866505940755204 -297.175486246744810 -307.192333799420000
106.892333984375000 -302.824330647786440 -307.703674316406250
78.411050033569339 -286.340224456787100 -304.586550140380840
88.595912444285858 -286.703412960737180 -301.078410613231140
100.674585271764680 -286.704110039605040 -304.751703898112000
76.725001942027703 -275.156865900213060 -301.141479492187500
89.730659036075366 -274.638034596162700 -302.511412676642920
99.518822574615484 -274.269985580444310 -303.476260757446310
77.218171800885884 -262.497118268694180 -300.298616681780120
88.895051294443562 -262.831917276187820 -305.025899458904630
98.801619776973013 -263.480278862847230 -302.504887898763000
69.757102966308594 -247.401992797851560 -297.117004394531250
79.073735112729281 -251.743260922639280 -300.049652099609370
88.609436366869062 -250.309957753057060 -302.101448390794810
98.547189151539527 -252.017178703756880 -298.982823988970610
76.859368837796723 -241.359806941105770 -303.107689490685120
86.816072637384593 -242.075317382812500 -301.227454445578810
96.210601806640625 -240.453250885009770 -298.834251403808590
73.645275115966797 -222.029251098632810 -297.392753601074220
75.517898559570313 -219.410003662109370 -297.123992919921870
80.255525588989258 -271.116497039794920 -295.878501892089840
87.656690597534180 -272.157800292968770 -295.851499938964820
103.618999481201170 -269.397003173828120 -296.093505859375000
77.549833640074112 -262.363537910657040 -293.957255828074890
89.182785778510862 -262.812829738709980 -293.201341582507610
99.211153897372157 -261.694910222833810 -295.442639437588750
70.153039550781244 -247.049600219726560 -295.383795166015600
76.112178748762105 -250.626380812953900 -291.103323923030360
89.112904215967930 -250.915999656499820 -289.320582190225310
98.613173828124999 -250.862661132812490 -292.834880371093730
69.432378354279891 -239.160783850628410 -291.901738705842380
76.114041692560363 -239.667108154296870 -291.099091131036910
90.371709961822063 -238.827854322350530 -291.553027609120250
97.830570741133258 -238.179999611594470 -290.222407947887060
68.040049961635049 -230.183785574776780 -287.248142787388420
77.384381727738813 -226.807455583052190 -289.708910855380000
88.959482828776046 -227.384059232824000 -290.588667925666360
96.607075859518616 -228.079764871036300 -288.197059182559770
56.019599914550781 -211.384002685546870 -285.148010253906250
68.016046003861860 -212.310272216796870 -286.255090886896310
77.885157526755819 -214.983142463528370 -289.100001743861580
87.479139645894364 -215.824521700541170 -287.654686609903990
54.668800354003906 -205.835998535156250 -285.298004150390620
73.411464344371453 -202.993090542879970 -286.755817760120750
85.432734171549484 -202.301671346028660 -287.677001953125000
72.338571384974884 -178.932970755440830 -287.699915422712080
77.361950174967447 -237.357301330566400 -283.144566853841130
86.484532096169218 -237.443090265447440 -283.388406926935370
100.917501449584960 -237.011003494262700 -283.746620178222660
65.505900364296110 -224.658039766199440 -279.850138346354190
75.629268646240234 -226.856334050496430 -279.538166046142580
88.910657958984373 -226.756179504394540 -281.046680297851540
99.098472595214844 -226.486863569779840 -281.865045720880690
56.624244689941406 -212.730778164333770 -280.867494371202270
65.754904897589427 -217.860317029451070 -280.168842516447340
75.968224843343094 -217.155195448133670 -277.658557467990480
89.593057016225956 -214.660784677358780 -278.693704458383420
53.984178270612446 -206.662212916782920 -281.228855678013420
64.621605555216476 -201.684556749131960 -275.238055759006100
77.342941886500313 -201.894842047440390 -283.313107139185830
88.987561986066297 -203.288898412732120 -279.299913931584000
61.630149841308594 -192.117752075195310 -274.866870880126950
76.992426271791814 -190.609574494538490 -280.668185198748570
86.855998738606772 -191.443844265407990 -275.922840711805580
55.677437782287598 -175.124502182006840 -278.678497314453120
63.289976560152496 -177.840155968299290 -275.000617394080510
77.640742710658486 -178.575714928763260 -279.378802708217050
83.525868733723954 -184.019668579101560 -273.907999674479190
66.434543064662392 -169.717429024832600 -274.107561383928560
77.264072135642721 -166.393055951153800 -280.060298213252340
75.513931884765626 -212.229559326171880 -271.111959228515620
84.343002319335938 -210.257664998372410 -272.673004150390620
68.063464809108424 -202.775620331635340 -267.136836696315470
75.480849727507561 -203.050805614840610 -266.900371920677910
86.105934669231544 -202.110932974979790 -271.075826710668080
65.284846199883361 -190.082407350893360 -268.242093121563930
76.514612107049857 -191.072998773484020 -263.781595139276420
87.791589958723208 -189.628092566201840 -268.587443506994930
62.685396335743093 -179.160908451786750 -265.692850748697940
58.120285579136443 -165.384283883231030 -263.231140136718750
62.374009631928942 -166.539665585472480 -269.173356555757100
80.974393027169370 -166.233500889369420 -271.751216343470960
57.559291492808946 -154.359818892045470 -262.770271994850870
63.907488649541683 -154.996431870893990 -267.372020374644880
79.260455992163685 -153.947950409679890 -269.416439893769050
64.507493246169318 -143.884167625790550 -263.695524669828840
67.456064860026046 -134.023335774739590 -265.149668375651060
57.514801025390625 -161.393997192382810 -261.071990966796870
63.981269212202591 -166.870345237038350 -256.665746238014890
57.084996032714841 -153.521160278320310 -257.182440795898460
63.102547159000316 -155.317305895746980 -252.431204036790490
55.906774867664687 -142.172455180775050 -254.091205943714500
60.078279368082683 -143.130133056640630 -254.661401367187490
55.399994332449779 -131.868400137765060 -253.605828857421870
63.995095541310867 -130.227720393690960 -258.353628469067930
71.482526779174805 -127.888500213623050 -257.501243591308590
55.716424102783201 -119.573999938964850 -251.125760498046870
64.298625065730164 -118.968307690742690 -254.163000253530640
72.264135880903765 -117.919727672230110 -253.128814697265620
57.204700469970703 -112.207500457763670 -249.658500671386720
64.668672180175776 -110.341159362792960 -250.553640747070320
73.488766988118485 -111.363332112630200 -249.776997884114590
57.432299613952637 -138.413745880126950 -248.064498901367190
86.368367513020829 -116.340667724609370 -246.769890679253480
52.894816539326655 -107.426589965820310 -243.079508296778950
64.214232889811200 -104.806866455078120 -246.796933492024750
76.704027118104875 -105.884999593098950 -247.956272472034810
86.812120819091803 -106.282299804687500 -247.643099212646490
52.764090870701992 -94.602625469828766 -241.497139509334120
64.414799690246582 -94.855144500732422 -244.547665913899750
76.769134149318788 -93.933519689048211 -246.631390827458090
54.269143829345701 -84.351943664550788 -238.861039428710940
64.867324270853189 -82.518602324695124 -240.842266920136240
76.678192683628623 -82.245009467715306 -246.214807782854360
65.865517127804637 -70.657629617830608 -240.305853866949320
65.354076917781384 -58.330644119617553 -240.558396095453300
52.474132449127907 -71.049286243527433 -233.533046988553790
60.716743196759907 -70.274100167410708 -236.135143824986050
