ply
format ascii 1.0
element vertex 255
property double x
property double y
property double z
end_header
135.569000244140620 -607.405659993489620 -417.165659586588560
137.335748672485350 -597.973251342773440 -417.352127075195310
150.649778578016480 -584.536560058593750 -420.593777126736090
150.977302551269530 -576.928900146484350 -422.069403076171850
157.537994384765620 -555.476013183593750 -417.220001220703120
168.654373168945310 -547.460243225097660 -419.106250762939450
171.210611131456180 -539.406612820095460 -420.012885199652770
149.545257177108370 -635.345953525640990 -408.060360639523250
148.683031486742440 -622.402697014086130 -407.692848899147750
139.389375686645510 -609.110630035400390 -415.940872192382810
147.318476937033920 -609.561821677468060 -409.885774092240750
140.127713884626100 -599.548863002232110 -416.186427525111580
148.212699381510420 -598.391617838541720 -410.601966349283830
157.328994750976560 -597.296020507812500 -405.395996093750000
151.657143365769170 -588.289783296130960 -412.805118379138780
155.461715698242190 -583.395289829799140 -407.096854073660720
152.461999963831000 -573.806294759114620 -412.451074670862280
156.455809093657000 -573.790951683407680 -407.275380452473940
151.921932983398450 -565.727197265625020 -412.980666097005210
161.468404409047710 -562.377320985536360 -408.570458489495370
165.023143223353800 -554.323647635323710 -414.098216465541270
169.637760328209910 -550.497043775475500 -410.619803387185810
172.677243206952060 -538.330457532728020 -410.274838009396090
174.520592429421160 -529.418640136718750 -410.365363381125690
184.715561866760250 -526.253501892089840 -407.251308441162110
191.447006225585940 -521.320983886718750 -407.042999267578120
197.373284476143970 -516.641714913504420 -406.557427542550220
206.447401428222660 -510.736102294921860 -408.516604614257800
211.434438705444340 -506.817001342773440 -407.354682922363280
218.665151422674000 -501.460574063387810 -408.275849313447000
223.253367373817840 -492.219212582236820 -406.696261757298540
227.373497009277340 -486.347503662109370 -407.139999389648440
225.274993896484370 -485.227996826171870 -405.511993408203120
228.351749420166020 -481.761749267578120 -405.848754882812500
148.608999758350590 -610.019572355309260 -399.592693095304530
156.978410608628220 -596.134058335248140 -402.804411046645210
148.092430377828660 -586.162707098599180 -399.554585950127940
159.046354611714690 -585.816894531250000 -402.304874420166020
150.147868397471680 -575.818463335980480 -397.054561740749480
159.972546599632100 -574.347358171329920 -400.234929639239620
168.275875091552730 -571.658126831054690 -399.064376831054690
154.339996337890620 -568.028991699218750 -394.589996337890620
161.662609751631580 -564.403926942406660 -397.765464224466480
169.893380000673490 -561.334104340651950 -399.812516837284480
164.536686897277830 -553.508247375488280 -395.669437408447270
171.355324015897850 -550.651248707490820 -398.164453843060640
180.090332031250000 -546.953999837239620 -397.451161702473940
174.956056741567750 -539.552444458007810 -398.432055546687200
182.791586899175880 -537.258711652057970 -396.828560433736640
177.389495849609370 -532.277984619140620 -393.487487792968750
186.165224217656830 -528.531980599930080 -398.977865190648340
191.632001241048190 -524.012334187825560 -397.643000284830750
197.541101870329470 -514.446553548177120 -398.408175261124310
204.016796875000010 -510.354797363281250 -403.369006347656240
201.887444390190980 -508.012668185763910 -396.356224907769100
207.940847608778200 -503.195874532063780 -399.357389662000860
215.946401977539070 -498.214599609375000 -404.168597412109360
212.817236764090410 -494.246381487165190 -396.641809372674860
218.192289564344610 -489.649399820963540 -400.790755886501760
223.157446452549520 -479.476106371198400 -398.815516880580330
228.099800109863280 -475.988497924804680 -402.294598388671890
225.775399780273430 -471.805798339843760 -394.425201416015620
229.588685494882100 -468.273648297345180 -396.920445194950790
233.085998535156250 -461.084991455078120 -395.286987304687500
149.964571998232880 -571.009998139880960 -391.646667480468750
155.891998291015620 -569.893981933593750 -392.634002685546870
152.321612040201810 -567.194783528645870 -390.305662367078980
159.425485187106660 -562.603317260742190 -389.131414201524540
164.124640986604500 -551.421717229879160 -388.225454078530390
168.030786786760610 -548.967503138950860 -389.823994227818100
165.304778205023870 -539.658728705512200 -385.988498263888910
170.010710991753480 -538.143353949652810 -389.484664577908010
165.228332519531250 -530.873006184895870 -388.040669759114560
173.938864836821690 -526.585365089210310 -387.564309609902860
183.270507584756870 -524.660240059468260 -388.020327895434950
192.340001424153660 -523.500681559244750 -392.637502034505190
176.361602783203120 -520.192004394531300 -386.302197265625010
186.151303378018470 -517.024261012221810 -385.393409960197690
194.808884376703300 -513.520322577897900 -389.137651310410600
190.552993774414060 -507.097991943359370 -381.933990478515620
196.918694602118590 -503.943957434760190 -385.040653652614990
206.276471879747190 -500.725525750054260 -387.646418253580750
198.588565572102850 -491.237432861328100 -382.898766072591170
208.981679098946700 -491.588090624128090 -384.948429107666020
217.551036693431710 -488.751073766637720 -386.901295979817690
199.069400024414050 -482.651593017578140 -382.166198730468750
208.390093716708090 -483.516998291015620 -381.864185680042620
222.407885569446480 -479.952360333136770 -387.119943870688360
228.026504516601560 -475.848754882812500 -382.235252380371090
225.966999934269840 -470.950385460486760 -389.680924635667050
230.055254672436010 -465.978211098528900 -385.494319185297510
234.296190897623690 -455.278549194335940 -385.443403698149150
239.539001464843750 -449.408996582031250 -381.125000000000000
237.365503311157230 -445.873996734619140 -385.034248352050780
240.002110799153660 -443.858778211805540 -382.067443847656250
269.686004638671870 -429.805999755859370 -381.526000976562500
163.306335449218750 -559.366333007812500 -379.135335286458310
163.582000732421870 -555.419982910156250 -379.040985107421870
174.527999877929690 -521.717254638671870 -380.754737854003910
180.589996337890630 -521.766510009765630 -380.747497558593750
176.483665466308590 -519.899820963541630 -378.576329549153630
184.407182654555950 -514.989351856465190 -376.789634237484050
188.982776783130790 -503.404223406756390 -377.385591860170730
193.719685581752230 -501.653142438616040 -378.318627929687520
195.578889973958330 -490.912000189887180 -378.262444390190980
208.645500183105470 -488.173543756658380 -379.635223388671870
215.518997192382810 -488.194000244140620 -379.594009399414060
198.898229745718140 -481.177844707782470 -377.852301964393010
209.311417049831820 -479.189736684163390 -375.766473134358710
219.369443159836980 -477.552480257474490 -376.850346491887020
230.834110683865020 -475.569168090820310 -377.610726250542540
208.873001098632810 -472.683398437499990 -371.026599121093740
221.151500701904300 -471.048680986676910 -371.853640965052990
233.315934978547630 -467.963607037653670 -374.586196148981800
242.719325725848850 -464.915942265437200 -374.216884319598880
251.550994873046880 -461.835998535156250 -372.544006347656250
237.317504882812500 -458.319503784179690 -380.652496337890620
245.282545332475140 -456.438001598011340 -376.474053955078150
255.732821600777750 -454.459463391985200 -372.823178972516760
264.110331217447940 -449.930664062500000 -370.447998046875000
245.935392296832530 -443.409475575322690 -379.753651494565190
256.603420458341870 -443.134470889442870 -377.313132035104840
268.245346069335940 -442.845248295710630 -373.763575627253600
277.295873641967770 -439.800125122070310 -371.216438293457030
259.303109063042540 -435.239447699652770 -379.261776394314210
269.508271650834500 -433.424319180575310 -378.680222944779810
281.063383992513020 -432.320083618164060 -374.991149393717420
290.483100891113280 -427.493548583984360 -371.206604003906250
294.897666931152340 -423.458747863769530 -371.271082560221370
300.498874664306640 -423.050247192382810 -370.536998748779300
212.499000549316410 -473.459503173828120 -369.017013549804690
211.265858241489950 -471.130855015345960 -366.109137398856030
220.896730165223830 -467.177135570629220 -365.346324198954790
230.688666449652770 -463.181813557942690 -365.719220196759240
249.070999145507810 -464.880004882812500 -368.710998535156250
234.676444159613710 -458.479219224717890 -361.655165778266050
244.260601043701170 -454.451448567708330 -363.538268025716150
257.061895370483400 -453.548187891642270 -366.000210444132510
266.136758738550670 -451.311548693426740 -365.968378527411120
248.160873413085940 -447.722122192382810 -358.476119995117190
257.122906208038330 -445.967842102050780 -359.553122520446780
267.800844192504880 -446.705595016479490 -362.892875671386720
281.809168497721370 -440.042167663574220 -366.875910441080750
287.970326741536440 -437.831675211588560 -364.164662679036440
285.449000767299080 -436.194427490234370 -367.875143868582600
293.112447535738060 -432.173701509516260 -366.137999189660890
302.259578504060470 -428.684078015779220 -366.209866172388960
317.431710561116520 -427.944044748942080 -363.875581105550110
326.653368498149690 -428.602527819181720 -360.717681884765620
337.949200439453140 -428.055993652343770 -359.143798828125000
304.502990722656250 -425.204498291015630 -368.877502441406250
236.939336140950530 -454.853668212890620 -356.357666015625000
241.150857107979900 -451.066292898995530 -355.834429059709810
368.873341878255190 -449.970993041992190 -347.363835652669250
372.474494934082030 -451.960746765136720 -346.571746826171880
247.060781727666440 -445.056173573369560 -354.382738196331500
256.978676048485000 -440.155082908836560 -354.657783302100940
267.145719255719880 -439.617999485560800 -354.434179033551910
278.304394531250010 -438.141192626953110 -351.442401123046860
294.807668050130190 -437.524007161458310 -347.686004638671870
303.214006696428560 -437.591003417968750 -347.332863943917400
344.429000854492190 -437.711013793945310 -345.243499755859370
354.147827148437500 -439.753688417632020 -348.235311573949330
362.684500122070290 -445.412399291992190 -348.497354125976590
258.098598632812530 -434.947841796875030 -351.062122802734390
268.582867431640640 -433.467733764648410 -349.275801595052090
277.642540564903870 -435.183074951171870 -348.901691143329340
292.910003662109370 -436.929835001627620 -345.530665079752620
308.917495727539060 -436.598243713378910 -348.050994873046870
315.944642908432910 -435.319820628446680 -348.566939410041360
329.076001106424540 -432.789445593001970 -350.099724302900600
340.502440185546900 -432.446740722656270 -350.737501831054710
349.756000021229620 -433.325653076171870 -351.599257759425940
449.611999511718750 -535.012023925781250 -333.356994628906250
380.430999755859380 -461.681991577148440 -333.376998901367190
390.133697509765620 -462.491894531250010 -334.026296997070290
365.984134158572660 -451.818921888196770 -337.232374861433700
375.882379150390650 -456.341458740234370 -338.114661865234380
385.916944715711790 -459.200442843967040 -336.605945163302980
294.845557318793400 -437.819664849175350 -334.553894042968750
301.375000000000000 -437.452495029994400 -340.377001081194180
316.447998046875000 -437.440505981445310 -340.030990600585940
329.758996146065840 -437.602789742606030 -337.080786568777910
340.872513229782500 -439.405242919921870 -339.227484625739010
352.616092897811030 -443.778832201687810 -339.098112286261770
361.761299133300780 -447.492048645019510 -341.729295349121120
271.407997131347660 -431.925750732421870 -344.056999206542970
281.085449218750000 -434.062218560112850 -342.360114203559020
291.862369113498290 -436.381779423466410 -340.617220278139480
306.109549782492880 -436.718454534357250 -338.638774525035500
316.051668520326980 -436.535815203631390 -338.251553005642340
327.521273526278430 -436.817042957652690 -339.657363891601560
337.605662027994810 -436.766001383463560 -344.693328857421870
448.506011962890620 -533.390502929687500 -331.084503173828120
428.461502075195310 -521.389007568359370 -323.196502685546870
438.510496775309260 -525.117294311523440 -325.733833312988280
444.065505981445310 -530.063334147135380 -326.334665934244810
427.493457500751220 -516.780691293569700 -322.054922250600950
433.471249898274720 -519.035329182942750 -322.785499572753910
403.582667032877620 -486.471995035807310 -321.532831827799500
381.445007324218750 -473.454010009765620 -321.083007812500000
389.128000193628790 -475.994345829404610 -323.179616993871210
400.342558395030890 -478.118325166924080 -323.116023573764550
407.538670857747380 -479.736994425455750 -321.774337768554690
377.156577587127690 -465.712656021118160 -326.404985427856450
388.481035429855870 -467.799122251313290 -329.145587263436140
398.443716978415470 -469.278435340294490 -327.600385616987180
357.831507364908870 -450.058003743489560 -329.018666585286440
364.925721623347330 -455.321400334284870 -326.606707294170690
373.124298095703120 -459.945394897460910 -331.416497802734400
393.368011474609370 -461.160003662109370 -332.765014648437500
307.520009358723940 -437.492329915364560 -331.067321777343750
316.846886528862850 -437.607998318142340 -327.594885932074650
330.266192626953110 -437.544799804687500 -329.030004882812480
341.757606104800570 -439.588027151007400 -328.367603502775470
352.554310765759680 -445.054638040476850 -326.402083298255660
360.140991210937500 -448.829986572265620 -321.506988525390620
306.452751159667970 -436.965751647949220 -333.026000976562500
317.825000469501220 -436.579080434945920 -331.064079871544490
328.470799560546880 -436.811037597656250 -327.405161132812510
338.053250630696600 -436.259000142415350 -323.132245381673160
424.373748779296870 -523.102630615234370 -318.142753601074220
436.912333170572940 -523.925008138020870 -318.007324218750000
403.156750996907530 -510.831995646158870 -313.537834167480470
413.641220464939010 -513.388969607469560 -317.620318156916940
423.491832309299070 -514.428971184624520 -318.243583679199220
433.645167032877620 -516.922332763671870 -320.192174275716130
394.041503906250000 -498.656005859375000 -309.407485961914060
400.345376247829850 -502.568158637152810 -313.190222167968730
412.189194842082710 -502.860560719559830 -317.844534525057160
420.407093394886370 -505.075727982954560 -316.736272638494310
391.280577810187080 -490.170526604903390 -313.252789146021770
400.323897043863950 -491.233021418253600 -317.434019724528010
411.366061463647950 -490.598263487523920 -317.549940459582270
419.178009033203120 -495.638000488281250 -314.441986083984370
381.955464680989560 -475.270131429036440 -315.067466227213520
387.050569707697090 -480.993134238503220 -316.781022505326690
401.712625503540040 -481.071559906005860 -320.071811676025390
410.779117160373290 -482.265001085069460 -319.012332492404540
376.923358764648410 -467.063719482421900 -315.701781005859400
367.207755484232110 -453.529977193692840 -317.397070163633770
372.330211438630780 -458.194209048622550 -313.513633326480260
345.383499145507810 -437.588500976562500 -319.916992187500000
353.346619549919580 -440.685647403492620 -318.452057782341460
362.623343467712400 -446.331655502319340 -316.333749771118160
333.536010742187500 -435.588012695312500 -321.026000976562500
342.623824175666360 -434.710763370289500 -318.393411075367620
348.168833414713560 -436.422337849934880 -317.058995564778630
393.406745910644530 -499.455505371093750 -307.616256713867190
396.661336263020810 -505.141662597656250 -308.648996988932310
388.794614351712770 -490.742772028996400 -307.220923790564880
381.433000837053560 -475.426570347377210 -307.083430698939710
384.779180353338060 -482.398634477095190 -306.880723433061060
377.759072440011150 -467.194285801478770 -307.112354823521230
373.797500610351560 -458.229507446289060 -308.102005004882810
