ply
format ascii 1.0
element vertex 397
property double x
property double y
property double z
end_header
-4.978919982910156 -2.177680015563965 -15.300100326538086
-5.134920120239258 -2.165679931640625 -15.242099761962891
-4.877920150756836 -2.248680114746094 -15.416099548339844
-4.969920158386231 -2.115679979324341 -15.461099624633789
-5.126920223236084 -2.124680042266846 -15.405099868774414
-4.901919841766357 -2.324680089950562 -15.128100395202637
-5.020919799804688 -2.186680078506470 -15.052100181579590
-4.890920162200928 -2.457679986953735 -15.228099822998047
-5.289919853210449 -2.196680068969727 -15.381099700927734
-5.277919769287109 -2.232680082321167 -15.187100410461426
-4.809919834136963 -2.400680065155029 -15.471099853515625
-5.196919918060303 -2.177680015563965 -15.049099922180176
-5.210919857025147 -2.077680110931397 -15.542099952697754
-5.108920097351074 -2.166680097579956 -14.889100074768066
-4.909920215606690 -2.287679910659790 -14.933099746704102
-4.978919982910156 -2.171679973602295 -14.757100105285645
-5.275919914245606 -2.201679944992065 -14.882100105285645
-5.195919990539551 -2.125679969787598 -14.751099586486816
-4.902919769287109 -2.314680099487305 -14.717100143432617
-4.884920120239258 -2.445679903030396 -14.880100250244141
-5.069920063018799 -2.147680044174194 -14.584099769592285
-5.364920139312744 -2.341680049896240 -14.903100013732910
-4.905920028686523 -2.524679899215698 -15.037099838256836
-5.344920158386231 -2.362679958343506 -15.078100204467773
-5.345920085906982 -2.218679904937744 -14.692099571228027
-5.023920059204102 -2.207679986953735 -14.411100387573242
-4.930920124053955 -2.293679952621460 -14.540100097656250
-5.239920139312744 -2.163680076599121 -14.571100234985352
-5.184919834136963 -2.164680004119873 -14.407099723815918
-5.313920021057129 -2.269680023193359 -14.409099578857422
-4.934919834136963 -2.314680099487305 -14.306099891662598
-5.131919860839844 -2.185679912567139 -14.237099647521973
-4.896920204162598 -2.487679958343506 -14.404100418090820
-4.889920234680176 -2.519680023193359 -14.590100288391113
-5.382919788360596 -2.417680025100708 -14.451100349426270
-5.386919975280762 -2.380680084228516 -14.722100257873535
-5.015920162200928 -2.250679969787598 -14.099100112915039
-5.187920093536377 -2.195679903030396 -14.043100357055664
-5.285920143127441 -2.243680000305176 -14.186100006103516
-5.090919971466065 -2.230679988861084 -13.900099754333496
-5.328919887542725 -2.306679964065552 -13.990099906921387
-4.941919803619385 -2.518680095672607 -14.084099769592285
-5.368919849395752 -2.424679994583130 -14.251099586486816
-4.963920116424561 -2.342679977416992 -13.905099868774414
-5.365920066833496 -2.460680007934570 -14.060099601745605
-5.300920009613037 -2.591680049896240 -14.227100372314453
-4.945919990539551 -2.594680070877075 -14.257100105285645
-5.169919967651367 -2.211679935455322 -13.727100372314453
-5.019919872283936 -2.288680076599121 -13.732099533081055
-5.310919761657715 -2.269680023193359 -13.817099571228027
-5.351920127868652 -2.431679964065552 -13.852100372314453
-5.351920127868652 -2.440680027008057 -13.660099983215332
-5.311920166015625 -2.292680025100708 -13.576100349426270
-5.148920059204102 -2.213680028915405 -13.538100242614746
-4.941919803619385 -2.461679935455322 -13.690099716186523
-5.318920135498047 -2.588680028915405 -13.749099731445312
-5.018919944763184 -2.318680047988892 -13.498100280761719
-5.308919906616211 -2.589679956436157 -13.932100296020508
-4.942920207977295 -2.579679965972900 -13.832099914550781
-4.953919887542725 -2.483680009841919 -13.513099670410156
-5.337920188903809 -2.307679891586304 -13.381099700927734
-5.200920104980469 -2.214679956436157 -13.340100288391113
-4.983920097351074 -2.403680086135864 -13.355099678039551
-5.369919776916504 -2.472680091857910 -13.449099540710449
-5.049920082092285 -2.283679962158203 -13.252099990844727
-5.379920005798340 -2.444679975509644 -13.268099784851074
-5.327919960021973 -2.299679994583130 -13.199099540710449
-5.240920066833496 -2.645679950714111 -13.300100326538086
-5.338920116424561 -2.636679887771606 -13.435099601745605
-4.974919795989990 -2.431679964065552 -13.182100296020508
-5.160920143127441 -2.203680038452148 -13.143099784851074
-5.278920173645020 -2.668679952621460 -13.595100402832031
-5.324920177459717 -2.601680040359497 -13.143099784851074
-4.989920139312744 -2.671679973602295 -13.252099990844727
-5.399919986724854 -2.402679920196533 -13.083100318908691
-5.013919830322266 -2.730679988861084 -13.457099914550781
-4.967919826507568 -2.631680011749268 -13.606100082397461
-5.296919822692871 -2.255680084228516 -13.012100219726562
-5.414919853210449 -2.441679954528809 -12.910099983215332
-5.030920028686523 -2.296679973602295 -13.027099609375000
-5.365920066833496 -2.601680040359497 -12.920100212097168
-5.341919898986816 -2.299679994583130 -12.843099594116211
-4.963920116424561 -2.448679924011231 -13.011099815368652
-5.143919944763184 -2.196680068969727 -12.949099540710449
-5.260920047760010 -2.718679904937744 -13.005100250244141
-5.064919948577881 -2.268680095672607 -12.810099601745605
-4.944920063018799 -2.602679967880249 -13.088100433349609
-5.237919807434082 -2.693680047988892 -12.804100036621094
-5.410920143127441 -2.409679889678955 -12.739100456237793
-5.223919868469238 -2.208679914474487 -12.760100364685059
-5.160920143127441 -2.748680114746094 -13.139100074768066
-4.965919971466065 -2.649679899215698 -12.925100326538086
-5.383920192718506 -2.588680028915405 -12.739100456237793
-4.981919765472412 -2.415679931640625 -12.747099876403809
-5.069920063018799 -2.718679904937744 -12.815099716186523
-5.363920211791992 -2.324680089950562 -12.592100143432617
-5.194920063018799 -2.675679922103882 -12.617099761962891
-5.386919975280762 -2.589679956436157 -12.555100440979004
-5.212920188903809 -2.223680019378662 -12.575099945068359
-5.078919887542725 -2.314680099487305 -12.499099731445313
-4.984920024871826 -2.448679924011231 -12.574099540710449
-5.033919811248779 -2.624680042266846 -12.629099845886230
-5.428919792175293 -2.438679933547974 -12.479100227355957
-5.258920192718506 -2.665679931640625 -12.442099571228027
-5.088920116424561 -2.672679901123047 -12.469099998474121
-5.360919952392578 -2.295680046081543 -12.407099723815918
-5.205920219421387 -2.230679988861084 -12.400099754333496
-5.008920192718506 -2.419680118560791 -12.387100219726563
-5.382919788360596 -2.588680028915405 -12.349100112915039
-5.040919780731201 -2.576679944992065 -12.326100349426270
-5.303919792175293 -2.633680105209351 -12.157099723815918
-5.160920143127441 -2.683680057525635 -12.269100189208984
-5.318920135498047 -2.265680074691773 -12.247099876403809
-5.004920005798340 -2.448679924011231 -12.203100204467773
-5.077919960021973 -2.643680095672607 -12.122099876403809
-5.071919918060303 -2.280679941177368 -12.304100036621094
-5.060919761657715 -2.360680103302002 -12.073100090026855
-5.171919822692871 -2.213680028915405 -12.138099670410156
-5.205920219421387 -2.694679975509644 -12.023099899291992
-5.365920066833496 -2.595679998397827 -11.980099678039551
-5.091919898986816 -2.599679946899414 -11.941100120544434
-5.068920135498047 -2.447679996490479 -11.865099906921387
-5.428919792175293 -2.449680089950562 -11.872099876403809
-5.265920162200928 -2.678679943084717 -11.850099563598633
-5.143919944763184 -2.348680019378662 -11.740099906921387
-5.377920150756836 -2.589679956436157 -11.753100395202637
-5.122920036315918 -2.646680116653442 -11.750100135803223
-5.143919944763184 -2.275680065155029 -11.923100471496582
-5.392920017242432 -2.343679904937744 -11.737099647521973
-5.235919952392578 -2.206680059432983 -11.777099609375000
-5.098919868469238 -2.517679929733276 -11.594099998474121
-5.273920059204102 -2.683680057525635 -11.614100456237793
-5.151919841766357 -2.339679956436157 -11.573100090026855
-5.377920150756836 -2.333679914474487 -11.563099861145020
-5.268919944763184 -2.137680053710938 -11.983099937438965
-5.390920162200928 -2.603679895401001 -11.517100334167480
-5.246920108795166 -2.309679985046387 -11.401100158691406
-5.453919887542725 -2.454679965972900 -11.460100173950195
-5.128920078277588 -2.662679910659790 -11.493100166320801
-5.104919910430908 -2.576679944992065 -11.343099594116211
-5.407919883728027 -2.598680019378662 -11.346099853515625
-5.259920120239258 -2.695679903030396 -11.379099845886230
-5.130919933319092 -2.395679950714111 -11.293100357055664
-5.373919963836670 -2.335680007934570 -11.292099952697754
-5.262919902801514 -2.214679956436157 -11.580100059509277
-5.330920219421387 -2.687680006027222 -11.219099998474121
-5.152919769287109 -2.703680038452148 -11.244099617004395
-5.469920158386231 -2.466680049896240 -11.207099914550781
-5.227920055389404 -2.332679986953735 -11.162099838256836
-5.440919876098633 -2.594680070877075 -11.102100372314453
-5.126920223236084 -2.431679964065552 -11.032099723815918
-5.111919879913330 -2.608680009841919 -11.112099647521973
-5.233920097351074 -2.730679988861084 -11.082099914550781
-5.416920185089111 -2.357680082321167 -11.082099914550781
-5.354919910430908 -2.694679975509644 -10.951100349426270
-5.271920204162598 -2.309679985046387 -10.987099647521973
-5.480919837951660 -2.471679925918579 -10.979100227355957
-5.148920059204102 -2.714679956436157 -10.937100410461426
-5.406919956207275 -2.334680080413818 -10.860099792480469
-5.141920089721680 -2.457679986953735 -10.795100212097168
-5.449920177459717 -2.588680028915405 -10.810099601745605
-5.254920005798340 -2.335680007934570 -10.784099578857422
-5.252920150756836 -2.742680072784424 -10.804100036621094
-5.372920036315918 -2.686680078506470 -10.698100090026855
-5.142920017242432 -2.473680019378662 -10.629099845886230
-5.117919921875000 -2.646680116653442 -10.750100135803223
-5.468920230865479 -2.609679937362671 -10.580100059509277
-5.484920024871826 -2.432679891586304 -10.740099906921387
-5.321919918060303 -2.731679916381836 -10.541099548339844
-5.236919879913330 -2.345679998397827 -10.547100067138672
-5.430920124053955 -2.349679946899414 -10.592100143432617
-5.153920173645020 -2.737679958343506 -10.533100128173828
-5.514920234680176 -2.477679967880249 -10.480099678039551
-5.141920089721680 -2.429680109024048 -10.422100067138672
-5.421919822692871 -2.353679895401001 -10.414099693298340
-5.401919841766357 -2.722680091857910 -10.321100234985352
-5.498919963836670 -2.487679958343506 -10.284099578857422
-5.126920223236084 -2.629679918289185 -10.324099540710449
-5.519919872283936 -2.621680021286011 -10.394100189208984
-5.381919860839844 -2.358680009841919 -10.225099563598633
-5.217919826507568 -2.766680002212524 -10.360099792480469
-5.101920127868652 -2.471679925918579 -10.257100105285645
-5.517920017242432 -2.647680044174194 -10.205100059509277
-5.258920192718506 -2.314680099487305 -10.348099708557129
-5.332920074462891 -2.766680002212524 -10.176099777221680
-5.221920013427734 -2.380680084228516 -10.154100418090820
-5.474919795989990 -2.473680019378662 -10.108099937438965
-5.151919841766357 -2.747679948806763 -10.176099777221680
-5.362919807434082 -2.354680061340332 -10.051099777221680
-5.100920200347900 -2.301680088043213 -10.264100074768066
-5.475920200347900 -2.746680021286011 -10.076100349426270
-5.660920143127441 -2.610680103302002 -10.304100036621094
-5.479919910430908 -2.590679883956909 -9.982139587402344
-5.490920066833496 -2.591680049896240 -9.798139572143555
-5.465919971466065 -2.433680057525635 -9.889140129089356
-5.406919956207275 -2.734679937362671 -9.783140182495117
-5.265920162200928 -2.372679948806763 -9.906140327453613
-5.378920078277588 -2.852679967880249 -9.976140022277832
-5.213920116424561 -2.817679882049561 -10.006099700927734
-5.229919910430908 -2.415679931640625 -9.743140220642090
-5.404920101165772 -2.355679988861084 -9.755140304565430
-5.500919818878174 -2.476680040359497 -9.670140266418457
-5.301919937133789 -2.920680046081543 -9.836139678955078
-5.074920177459717 -2.819679975509644 -9.872139930725098
-5.499919891357422 -2.629679918289185 -9.561140060424805
-5.270919799804688 -2.416680097579956 -9.470140457153320
-5.171919822692871 -2.598680019378662 -9.391139984130859
-5.453919887542725 -2.759680032730103 -9.407139778137207
-5.507919788360596 -2.596679925918579 -9.395139694213867
-5.491919994354248 -2.430680036544800 -9.444140434265137
-5.400919914245606 -2.352679967880249 -9.579139709472656
-5.470920085906982 -2.902679920196533 -9.510140419006348
-5.341919898986816 -2.398679971694946 -9.318140029907227
-5.239920139312744 -2.603679895401001 -9.221139907836914
-5.391920089721680 -2.896680116653442 -9.334139823913574
-5.501920223236084 -2.440680027008057 -9.277139663696289
-5.222919940948486 -2.885679960250855 -9.313139915466309
-5.329919815063477 -2.784679889678955 -9.207139968872070
-5.347919940948486 -2.998680114746094 -9.612139701843262
-5.250919818878174 -2.682679891586304 -9.075139999389648
-5.466919898986816 -2.736680030822754 -9.115139961242676
-5.533919811248779 -2.595679998397827 -9.216139793395996
-5.308919906616211 -2.455679893493652 -9.017140388488770
-5.323919773101807 -2.778680086135864 -8.949139595031738
-5.527919769287109 -2.472680091857910 -9.065139770507813
-5.400919914245606 -2.379679918289185 -9.153140068054199
-5.545919895172119 -2.614680051803589 -8.970140457153320
-5.481919765472412 -2.741679906845093 -8.855139732360840
-5.441919803619385 -2.368680000305176 -8.952139854431152
-5.343920230865479 -2.793679952621460 -8.761139869689941
-5.238920211791992 -2.590679883956909 -8.775139808654785
-5.556920051574707 -2.603679895401001 -8.793140411376953
-5.541920185089111 -2.717679977416992 -8.648139953613281
-5.360919952392578 -2.436680078506470 -8.750140190124512
-5.524919986724854 -2.436680078506470 -8.796139717102051
-5.449920177459717 -2.793679952621460 -8.512140274047852
-5.280920028686523 -2.765680074691773 -8.509140014648438
-5.239920139312744 -2.591680049896240 -8.493140220642090
-5.550920009613037 -2.462680101394653 -8.548139572143555
-5.572919845581055 -2.623680114746094 -8.486140251159668
-5.390920162200928 -2.455679893493652 -8.464139938354492
-5.358920097351074 -2.816679954528809 -8.356140136718750
-5.531919956207275 -2.775680065155029 -8.343139648437500
-5.230919837951660 -2.678679943084717 -8.347140312194824
-5.589920043945313 -2.609679937362671 -8.315139770507813
-5.376920223236084 -2.451679944992065 -8.293140411376953
-5.292920112609863 -2.798680067062378 -8.176139831542969
-5.542920112609863 -2.434679985046387 -8.341139793395996
-5.505919933319092 -2.845679998397827 -8.191140174865723
-5.638919830322266 -2.748680114746094 -8.215140342712402
-5.160920143127441 -2.593679904937744 -8.206139564514160
-5.135920047760010 -2.757679939270020 -8.227140426635742
-5.594920158386231 -2.509680032730103 -8.169139862060547
-5.306920051574707 -2.484679937362671 -8.130140304565430
-5.407919883728027 -2.806679964065552 -8.052140235900879
-5.297920227050781 -2.738679885864258 -7.929140090942383
-5.488920211791992 -2.799679994583130 -7.899139881134033
-5.625919818878174 -2.649679899215698 -8.072139739990234
-5.191919803619385 -2.673680067062378 -8.054140090942383
-5.649919986724854 -2.803679943084717 -7.982140064239502
-5.380919933319092 -2.816679954528809 -7.759140014648438
-5.585919857025147 -2.742680072784424 -7.774139881134033
-5.252920150756836 -2.625679969787598 -7.790140151977539
-5.605919837951660 -2.476680040359497 -7.955140113830566
-5.373919963836670 -2.417680025100708 -7.909140110015869
-5.474919795989990 -2.410680055618286 -8.102140426635742
-5.712920188903809 -2.621680021286011 -7.898139953613281
-5.052919864654541 -2.774679899215698 -8.081139564514160
-5.670919895172119 -2.929680109024048 -8.203140258789063
-5.434919834136963 -2.820679903030396 -7.575139999389648
-5.295919895172119 -2.670680046081543 -7.627140045166016
-5.590919971466065 -2.713680028915405 -7.563139915466309
-5.323919773101807 -2.590679883956909 -7.483139991760254
-5.474919795989990 -2.809679985046387 -7.398139953613281
-5.311920166015625 -2.762680053710938 -7.377140045166016
-5.718920230865479 -2.606679916381836 -7.567140102386475
-5.639920234680176 -2.596679925918579 -7.410140037536621
-5.641920089721680 -2.497679948806763 -7.766139984130859
-5.645919799804688 -2.447679996490479 -7.585140228271484
-5.436920166015625 -2.365679979324341 -7.650139808654785
-5.746920108795166 -2.779680013656616 -7.814139842987061
-5.579919815063477 -2.749680042266846 -7.281139850616455
-5.317920207977295 -2.600680112838745 -7.283140182495117
-5.369919776916504 -2.844680070877075 -7.225140094757080
-5.472919940948486 -2.834680080413818 -7.091139793395996
-5.321919918060303 -2.728679895401001 -7.112140178680420
-5.613920211791992 -2.725680112838745 -7.096139907836914
-5.650919914245606 -2.609679937362671 -7.224140167236328
-5.356919765472412 -2.433680057525635 -7.280139923095703
-5.590919971466065 -2.779680013656616 -6.938139915466309
-5.331920146942139 -2.760679960250855 -6.933139801025391
-5.336919784545898 -2.438679933547974 -7.102139949798584
-5.669919967651367 -2.622679948806763 -6.966139793395996
-5.457920074462891 -2.861680030822754 -6.876140117645264
-5.625919818878174 -2.762680053710938 -6.765140056610107
-5.342919826507568 -2.850680112838745 -6.713140010833740
-5.507919788360596 -2.845679998397827 -6.651140213012695
-5.321919918060303 -2.602679967880249 -6.833139896392822
-5.363920211791992 -2.628679990768433 -6.672140121459961
-5.708920001983643 -2.618680000305176 -6.781139850616455
-5.340919971466065 -2.760679960250855 -6.568140029907227
-5.625919818878174 -2.776679992675781 -6.555140018463135
-5.697919845581055 -2.625679969787598 -6.614140033721924
-5.448919773101807 -2.866679906845093 -6.492139816284180
-5.600920200347900 -2.821680068969727 -6.396140098571777
-5.371920108795166 -2.685679912567139 -6.343140125274658
-5.490920066833496 -2.887680053710938 -6.261139869689941
-5.427919864654541 -2.598680019378662 -6.517139911651611
-5.688920021057129 -2.670680046081543 -6.432139873504639
-5.334919929504395 -2.799679994583130 -6.222139835357666
-5.698919773101807 -2.705679893493652 -6.260139942169190
-5.457920074462891 -2.592679977416992 -6.216139793395996
-5.514920234680176 -2.470679998397827 -6.413139820098877
-5.637919902801514 -2.826679944992065 -6.148139953613281
-5.400919914245606 -2.929680109024048 -6.114140033721924
-5.386919975280762 -2.700680017471314 -6.079140186309815
-5.672920227050781 -2.819679975509644 -5.978139877319336
-5.711919784545898 -2.679680109024048 -6.087140083312988
-5.480919837951660 -2.595679998397827 -5.987140178680420
-5.680920124053955 -2.528680086135864 -6.155139923095703
-5.592919826507568 -2.895679950714111 -5.773139953613281
-5.424920082092285 -2.927680015563965 -5.789140224456787
-5.410920143127441 -2.649679899215698 -5.782139778137207
-5.728919982910156 -2.782680034637451 -5.809140205383301
-5.768919944763184 -2.639679908752441 -5.889140129089356
-5.359920024871826 -2.751679897308350 -5.909140110015869
-5.514920234680176 -2.900680065155029 -5.934140205383301
-5.611919879913330 -2.412679910659790 -6.280139923095703
-5.719920158386231 -2.534679889678955 -6.329140186309815
-5.348919868469238 -2.359679937362671 -6.955140113830566
-5.750919818878174 -2.405679941177368 -7.411139965057373
-5.834919929504395 -2.554680109024048 -7.446139812469482
-5.272920131683350 -2.405679941177368 -7.424139976501465
-5.535920143127441 -2.329679965972900 -7.496140003204346
-5.316919803619385 -2.287679910659790 -7.554140090942383
-5.522920131683350 -2.391680002212524 -7.832139968872070
-4.954919815063477 -2.708679914474487 -7.954140186309815
-5.775919914245606 -2.825680017471314 -8.125140190124512
-4.995920181274414 -2.608680009841919 -8.102140426635742
-5.396920204162598 -3.087680101394653 -9.349140167236328
-5.536920070648193 -2.997679948806763 -9.371139526367188
-5.278920173645020 -2.999680042266846 -9.456139564514160
-5.052919864654541 -3.040679931640625 -9.478139877319336
-5.165919780731201 -2.978679895401001 -9.603139877319336
-5.019919872283936 -2.896680116653442 -9.622139930725098
-5.447919845581055 -2.982680082321167 -9.759140014648438
-5.147920131683350 -2.919680118560791 -9.760140419006348
-5.498919963836670 -2.953680038452148 -9.915140151977539
-5.757919788360596 -2.753679990768433 -10.226099967956543
-5.439919948577881 -2.171679973602295 -11.606100082397461
-5.272920131683350 -2.029680013656616 -11.771100044250488
-5.406919956207275 -2.135679960250855 -11.869099617004395
-5.172920227050781 -2.838680028915405 -12.872099876403809
-4.936920166015625 -2.831680059432983 -12.861100196838379
-5.203919887542725 -2.962680101394653 -13.006099700927734
-5.029920101165772 -2.941679954528809 -13.024100303649902
-5.362919807434082 -2.932679891586304 -13.057100296020508
-4.871920108795166 -2.796679973602295 -13.032099723815918
-5.108920097351074 -2.916680097579956 -13.179100036621094
-4.962920188903809 -2.816679954528809 -13.173100471496582
-5.385920047760010 -2.926680088043213 -13.232099533081055
-5.259920120239258 -2.814680099487305 -13.262100219726563
-5.103919982910156 -2.816679954528809 -13.345100402832031
-5.411920070648193 -2.777679920196533 -13.380100250244141
-5.239920139312744 -2.775680065155029 -13.444100379943848
-5.124919891357422 -2.780679941177368 -13.598099708557129
-5.027919769287109 -2.712680101394653 -13.749099731445312
-5.200920104980469 -2.731679916381836 -13.793100357055664
-5.116919994354248 -2.749680042266846 -13.938099861145020
-4.984920024871826 -2.662679910659790 -14.002099990844727
-5.227920055389404 -2.683680057525635 -14.052100181579590
-5.091919898986816 -2.728679895401001 -14.141099929809570
-5.156919956207275 -2.693680047988892 -14.295100212097168
-5.007919788360596 -2.695679903030396 -14.384099960327148
-5.284920215606690 -2.601680040359497 -14.404100418090820
-5.157919883728027 -2.684679985046387 -14.529100418090820
-4.977920055389404 -2.655679941177368 -14.547100067138672
-5.292920112609863 -2.600680112838745 -14.606100082397461
-4.955920219421387 -2.623680114746094 -14.710100173950195
-5.273920059204102 -2.601680040359497 -14.779100418090820
-5.097919940948486 -2.682679891586304 -14.787099838256836
-4.944920063018799 -2.618680000305176 -14.878100395202637
-5.329919815063477 -2.507679939270020 -14.905099868774414
-5.179920196533203 -2.648679971694946 -14.937100410461426
-5.034920215606690 -2.670680046081543 -15.017100334167480
-5.251920223236084 -2.593679904937744 -15.081100463867187
-4.943920135498047 -2.615679979324341 -15.182100296020508
-5.100920200347900 -2.660680055618286 -15.214099884033203
-5.247920036315918 -2.590679883956909 -15.273099899291992
-5.334919929504395 -2.356679916381836 -15.286100387573242
-4.976920127868652 -2.673680067062378 -15.340100288391113
-5.154920101165772 -2.661679983139038 -15.395099639892578
-4.863920211791992 -2.555680036544800 -15.385100364685059
-5.351920127868652 -2.460680007934570 -15.438099861145020
-5.423920154571533 -2.340679883956909 -15.533100128173828
-5.346920013427734 -2.181679964065552 -15.537099838256836
-5.049920082092285 -2.749680042266846 -15.563099861145020
