ply
format ascii 1.0
element vertex 142
property double x
property double y
property double z
end_header
-4.891920089721680 -6.131680011749268 -11.499099731445313
-4.936920166015625 -5.767680168151856 -11.399100303649902
-4.415919780731201 -6.097680091857910 -11.409099578857422
-5.030920028686523 -5.390679836273193 -11.408100128173828
-4.404920101165772 -5.890679836273193 -11.405099868774414
-4.977920055389404 -5.592679977416992 -11.427100181579590
-4.912919998168945 -5.956679821014404 -11.477100372314453
-4.891920089721680 -6.131680011749268 -11.499099731445313
-4.548920154571533 -5.798679828643799 -11.471099853515625
-4.519919872283936 -5.985680103302002 -11.484100341796875
-4.340919971466065 -6.274680137634277 -11.501099586486816
-5.088920116424561 -5.248680114746094 -11.491100311279297
-4.873919963836670 -5.676680088043213 -11.526100158691406
-4.543920040130615 -5.592679977416992 -11.519100189208984
-4.417920112609863 -5.702680110931397 -11.519100189208984
-4.922920227050781 -5.475679874420166 -11.536100387573242
-4.488920211791992 -6.186679840087891 -11.553099632263184
-5.166920185089111 -5.104680061340332 -11.542099952697754
-4.804920196533203 -5.830679893493652 -11.567099571228027
-4.336919784545898 -6.586679935455322 -11.581100463867188
-4.839920043945313 -6.301680088043213 -11.597100257873535
-4.658919811248779 -4.612679958343506 -11.515099525451660
-4.797920227050781 -6.009679794311523 -11.589099884033203
-4.655920028686523 -5.917679786682129 -11.582099914550781
-4.908919811248779 -5.161680221557617 -11.561100006103516
-4.716919898986816 -5.396679878234863 -11.569100379943848
-4.964920043945313 -5.319680213928223 -11.578100204467773
-4.457920074462891 -6.355679988861084 -11.607099533081055
-4.607920169830322 -6.082680225372315 -11.606100082397461
-4.739920139312744 -5.590680122375488 -11.601099967956543
-4.641920089721680 -5.742680072784424 -11.604100227355957
-4.305920124053955 -6.423679828643799 -11.633099555969238
-4.492919921875000 -5.449679851531982 -11.602100372314453
-4.730919837951660 -6.186679840087891 -11.650099754333496
-4.665919780731201 -5.168680191040039 -11.608099937438965
-4.650919914245606 -4.821680068969727 -11.612099647521973
-4.571919918060303 -5.026679992675781 -11.620100021362305
-4.566919803619385 -6.254680156707764 -11.687100410461426
-4.810919761657715 -5.281680107116699 -11.653100013732910
-5.043920040130615 -5.105679988861084 -11.663100242614746
-4.766920089721680 -4.665679931640625 -11.636099815368652
-4.717919826507568 -6.585680007934570 -11.730099678039551
-4.590919971466065 -5.324679851531982 -11.674099922180176
-4.410920143127441 -6.608679771423340 -11.729100227355957
-4.646920204162598 -6.414680004119873 -11.735099792480469
-4.809919834136963 -4.451680183410645 -11.654100418090820
-4.283919811248779 -6.739679813385010 -11.744099617004395
-4.498919963836670 -5.174680233001709 -11.695099830627441
-4.785920143127441 -5.106679916381836 -11.706100463867188
-4.470920085906982 -6.455679893493652 -11.757100105285645
-4.672920227050781 -6.738679885864258 -11.795100212097168
-5.205920219421387 -4.881680011749268 -11.738100051879883
-5.040919780731201 -4.934679985046387 -11.739100456237793
-5.223919868469238 -4.629680156707764 -11.737099647521973
-4.697919845581055 -4.965680122375488 -11.728099822998047
-4.931920051574707 -4.740680217742920 -11.741100311279297
-4.861919879913330 -4.929679870605469 -11.749099731445313
-4.563920021057129 -6.584680080413818 -11.825099945068359
-5.215919971466065 -4.370679855346680 -11.758099555969238
-4.678919792175293 -4.356679916381836 -11.734100341796875
-5.101920127868652 -4.753680229187012 -11.774100303649902
-4.864920139312744 -4.586679935455322 -11.755100250244141
-4.771920204162598 -4.152679920196533 -11.733099937438965
-4.753920078277588 -4.796679973602295 -11.766099929809570
-4.478919982910156 -6.735680103302002 -11.849100112915039
-4.675920009613037 -4.600679874420166 -11.765099525451660
-5.139920234680176 -4.216680049896240 -11.772100448608398
-4.840919971466065 -4.339680194854736 -11.778100013732910
-5.279920101165772 -4.126679897308350 -11.824099540710449
-4.321919918060303 -6.718679904937744 -11.905099868774414
-5.011919975280762 -4.598680019378662 -11.838100433349609
-4.598919868469238 -6.846680164337158 -11.928099632263184
-4.269919872283936 -6.882679939270020 -11.926099777221680
-4.975920200347900 -4.424680233001709 -11.847100257873535
-4.136919975280762 -6.989679813385010 -11.962100028991699
-5.012919902801514 -4.202680110931397 -11.880100250244141
-4.763919830322266 -4.463679790496826 -11.895099639892578
-5.110919952392578 -4.344679832458496 -11.908100128173828
-4.442920207977295 -6.830679893493652 -12.004099845886230
-4.866919994354248 -4.123680114746094 -11.901100158691406
-4.563920021057129 -6.970680236816406 -12.035099983215332
-5.178919792175293 -4.176680088043213 -11.951100349426270
-4.363920211791992 -6.984680175781250 -12.049099922180176
-5.313920021057129 -4.031680107116699 -11.959099769592285
-4.729919910430908 -4.226679801940918 -11.945099830627441
-4.858920097351074 -4.334680080413818 -11.966099739074707
-4.769919872283936 -3.981679916381836 -11.953100204467773
-4.224919795989990 -7.073679924011231 -12.091099739074707
-4.476920127868652 -7.077680110931397 -12.131099700927734
-4.957920074462891 -4.208680152893066 -12.040100097656250
-4.936920166015625 -3.982680082321167 -12.045100212097168
-5.093920230865479 -4.084680080413818 -12.065099716186523
-4.812920093536377 -4.119679927825928 -12.067099571228027
-5.213920116424561 -3.944679975509644 -12.081100463867188
-5.339950084686279 -3.834739923477173 -12.086299896240234
-4.131919860839844 -7.169680118560791 -12.196100234985352
-4.418920040130615 -7.208680152893066 -12.224100112915039
-4.337920188903809 -7.059679985046387 -12.222100257873535
-5.297130107879639 -3.663029909133911 -12.113699913024902
-4.740920066833496 -3.970679998397827 -12.130100250244141
-4.883920192718506 -3.857680082321167 -12.146100044250488
-5.042920112609863 -3.946680068969727 -12.171099662780762
-5.143919944763184 -3.812680006027222 -12.189100265502930
-4.239920139312744 -7.149680137634277 -12.333100318908691
-4.044919967651367 -7.229680061340332 -12.331100463867188
-5.217549800872803 -3.546230077743530 -12.213199615478516
-4.332920074462891 -7.288680076599121 -12.351099967956543
-5.246920108795166 -3.382679939270020 -12.247099876403809
-4.901919841766357 -3.655679941177368 -12.245100021362305
-4.772920131683350 -3.784679889678955 -12.257100105285645
-4.994919776916504 -3.810679912567139 -12.276100158691406
-4.859920024871826 -3.492680072784424 -12.289099693298340
-5.098919868469238 -3.631680011749268 -12.310099601745605
-4.733920097351074 -3.628679990768433 -12.305100440979004
-4.156919956207275 -7.223680019378662 -12.461099624633789
-4.252920150756836 -7.359680175781250 -12.497099876403809
-5.008920192718506 -3.437680006027222 -12.347100257873535
-5.322919845581055 -3.264679908752441 -12.362099647521973
-3.998919963836670 -7.281680107116699 -12.510100364685059
-4.967919826507568 -3.593679904937744 -12.406100273132324
-5.154920101165772 -3.394680023193359 -12.431099891662598
-4.979919910430908 -3.300679922103882 -12.452099800109863
-4.818920135498047 -3.233680009841919 -12.443099975585938
-4.144919872283936 -7.288680076599121 -12.614100456237793
-5.245920181274414 -3.278680086135864 -12.523099899291992
-4.163919925689697 -7.435679912567139 -12.722100257873535
-5.360919952392578 -3.161679983139038 -12.589099884033203
-5.085919857025147 -3.352679967880249 -12.586099624633789
-4.912919998168945 -3.235680103302002 -12.590100288391113
-4.041920185089111 -7.308680057525635 -12.771100044250488
-5.135920047760010 -3.215679883956909 -12.728099822998047
-4.101920127868652 -7.435679912567139 -12.882100105285645
-4.977920055389404 -3.154680013656616 -12.742099761962891
-4.883920192718506 -2.987679958343506 -12.733099937438965
-5.217919826507568 -3.062680006027222 -12.775099754333496
-5.045919895172119 -2.988679885864258 -12.800100326538086
-3.973920106887817 -7.360680103302002 -12.963100433349609
-5.343920230865479 -2.949680089950562 -12.848099708557129
-5.093920230865479 -3.084680080413818 -12.934100151062012
-4.042920112609863 -7.466680049896240 -13.098099708557129
-4.039919853210449 -7.402679920196533 -13.348099708557129
-4.055920124053955 -7.342679977416992 -13.509099960327148
