ply
format ascii 1.0
element vertex 535
property double x
property double y
property double z
end_header
-5.206920146942139 -2.457679986953735 -7.967140197753906
-5.107920169830322 -2.625679969787598 -7.913139820098877
-5.227920055389404 -2.501679897308350 -7.595139980316162
-5.241919994354248 -2.294680118560791 -7.248139858245850
-5.142920017242432 -2.301680088043213 -7.389140129089356
-5.181920051574707 -2.189680099487305 -7.531139850616455
-5.008920192718506 -2.180680036544800 -7.536139965057373
-5.089920043945313 -2.406680107116699 -7.553140163421631
-4.932919979095459 -2.352679967880249 -7.577139854431152
-5.065919876098633 -2.287679910659790 -7.667140007019043
-5.241919994354248 -2.381680011749268 -7.763140201568604
-4.931920051574707 -2.372679948806763 -7.770140171051025
-4.980919837951660 -2.589679956436157 -7.803140163421631
-5.076920032501221 -2.404680013656616 -7.845139980316162
-4.822919845581055 -2.619679927825928 -7.884140014648438
-4.972919940948486 -2.498680114746094 -7.959139823913574
-7.976920127868652 1.893319964408875 -3.513139963150024
-7.832920074462891 1.560320019721985 -3.462140083312988
-7.822919845581055 1.358319997787476 -3.482140064239502
-7.976920127868652 1.893319964408875 -3.513139963150024
-7.892920017242432 1.725319981575012 -3.534140110015869
-7.690919876098633 1.654320001602173 -3.534140110015869
-7.613920211791992 1.365319967269898 -3.549139976501465
-7.749919891357422 1.810320019721985 -3.557140111923218
-7.758920192718506 1.487319946289063 -3.596139907836914
-8.068920135498047 2.014319896697998 -3.591140031814575
-7.539919853210449 1.521319985389710 -3.590140104293823
-7.764920234680176 1.280320048332214 -3.619139909744263
-7.831920146942139 2.019320011138916 -3.595139980316162
-8.159919738769531 2.155319929122925 -3.605139970779419
-7.776919841766357 1.111320018768311 -3.638139963150024
-7.967919826507568 2.145319938659668 -3.610140085220337
-7.601920127868652 1.776319980621338 -3.626140117645264
-7.549920082092285 1.227319955825806 -3.653140068054199
-7.911920070648193 1.858319997787476 -3.670140027999878
-7.633920192718506 1.942319989204407 -3.661139965057373
-7.795919895172119 1.709319949150085 -3.681139945983887
-8.059920310974121 2.276319980621338 -3.676140069961548
-8.265919685363770 2.263319969177246 -3.688139915466309
-7.441919803619385 1.376320004463196 -3.695139884948731
-7.651919841766357 1.430320024490356 -3.712140083312988
-7.472919940948486 1.691319942474365 -3.694139957427979
-7.733920097351074 2.125319957733154 -3.692140102386475
-7.887919902801514 2.254319906234741 -3.720139980316162
-7.707920074462891 1.089319944381714 -3.791140079498291
-7.520919799804688 1.022320032119751 -3.787139892578125
-7.716919898986816 0.902315974235535 -3.807140111923218
-7.646920204162598 1.244320034980774 -3.789139986038208
-7.377920150756836 1.192319989204407 -3.794140100479126
-8.350919723510742 2.394320011138916 -3.791140079498291
-8.013919830322266 2.115319967269898 -3.788140058517456
-8.458919525146484 2.524319887161255 -3.791140079498291
-7.754920005798340 1.851320028305054 -3.789139986038208
-7.547920227050781 2.160320043563843 -3.770139932632446
-7.651919841766357 1.708320021629334 -3.799139976501465
-7.678919792175293 2.265320062637329 -3.787139892578125
-7.349919795989990 1.849320054054260 -3.793139934539795
-7.307919979095459 1.392320036888123 -3.814140081405640
-7.998919963836670 2.369319915771484 -3.802139997482300
-7.316919803619385 1.638319969177246 -3.805140018463135
-7.383920192718506 2.048320055007935 -3.790139913558960
-7.880919933319092 2.014319896697998 -3.821140050888062
-7.551919937133789 1.374320030212402 -3.839139938354492
-7.570919990539551 0.833316028118134 -3.867140054702759
-8.121919631958008 2.240319967269898 -3.831140041351318
-8.290920257568359 2.560319900512695 -3.827140092849731
-7.812920093536377 2.366319894790649 -3.824140071868897
-7.541920185089111 1.557319998741150 -3.851140022277832
-8.539919853210449 2.659320116043091 -3.849139928817749
-6.706920146942139 0.823315978050232 -3.851140022277832
-6.640920162200928 0.659316003322601 -3.862139940261841
-7.432919979095459 0.923316001892090 -3.892139911651611
-7.580920219421387 2.401319980621338 -3.829139947891235
-7.729919910430908 0.768316984176636 -3.918139934539795
-7.217919826507568 1.259320020675659 -3.875139951705933
-7.629920005798340 1.000319957733154 -3.911139965057373
-7.306920051574707 1.031319975852966 -3.903140068054199
-8.585920333862305 2.863310098648071 -3.881139993667603
-7.714920043945313 1.994320034980774 -3.881139993667603
-6.767920017242432 0.983314990997314 -3.885139942169190
-7.599919795989990 1.846320033073425 -3.886140108108521
-7.539919853210449 1.190320014953613 -3.916140079498291
-7.735919952392578 2.510319948196411 -3.868139982223511
-8.129920005798340 2.548320055007935 -3.887140035629273
-7.139920234680176 1.100319981575012 -3.909140110015869
-7.510920047760010 2.580319881439209 -3.857140064239502
-8.222920417785645 2.380320072174072 -3.903140068054199
-6.932919979095459 1.063320040702820 -3.907140016555786
-7.938920021057129 2.212320089340210 -3.907140016555786
-7.383920192718506 1.532320022583008 -3.919140100479126
-8.338919639587402 2.732320070266724 -3.910140037536621
-7.476920127868652 1.695320010185242 -3.919140100479126
-6.863920211791992 0.799314975738525 -3.933140039443970
-6.551919937133789 0.507315993309021 -3.932140111923218
-7.392920017242432 0.777315974235535 -3.965140104293823
-7.414919853210449 1.305320024490356 -3.944139957427979
-7.783919811248779 2.147320032119751 -3.924139976501465
-7.903920173645020 2.533319950103760 -3.917140007019043
-7.190919876098633 1.638319969177246 -3.932140111923218
-7.552919864654541 0.712315022945404 -3.996140003204346
-7.039919853210449 0.875316023826599 -3.968139886856079
-7.216919898986816 0.868315994739532 -3.980139970779419
-8.417920112609863 2.587320089340210 -3.957139968872070
-6.418920040130615 0.603316009044647 -3.961139917373657
-7.445919990539551 1.907320022583008 -3.951139926910400
-7.560919761657715 2.074320077896118 -3.950139999389648
-6.790919780731201 0.654317021369934 -3.981139898300171
-8.051919937133789 2.378319978713989 -3.962140083312988
-7.305920124053955 1.797320008277893 -3.954139947891235
-7.666920185089111 2.652319908142090 -3.932140111923218
-8.410920143127441 2.913320064544678 -3.962140083312988
-7.614920139312744 0.879315018653870 -4.025139808654785
-8.647919654846191 3.007319927215576 -3.976140022277832
-7.466919898986816 1.055320024490356 -4.015140056610107
-8.265919685363770 2.520319938659668 -3.989140033721924
-7.020919799804688 1.192319989204407 -3.992140054702759
-7.621920108795166 2.242320060729981 -3.975140094757080
-7.883920192718506 2.379319906234741 -3.982140064239502
-6.590919971466065 0.879315018653870 -3.991139888763428
-8.490920066833496 2.760319948196411 -3.995140075683594
-7.093920230865479 1.783319950103760 -3.974139928817749
-7.267920017242432 0.693315982818604 -4.039140224456787
-7.274919986724854 1.188320040702820 -4.016139984130859
-7.369919776916504 2.562319993972778 -3.957139968872070
-7.344920158386231 2.071320056915283 -3.988140106201172
-8.490920066833496 3.064310073852539 -3.998140096664429
-7.417920112609863 2.227319955825806 -3.986140012741089
-7.702919960021973 2.403320074081421 -3.992140054702759
-6.384920120239258 0.397316992282867 -4.027140140533447
-7.498919963836670 2.390310049057007 -3.987139940261841
-7.192920207977295 1.976320028305054 -3.995140075683594
-7.699920177459717 0.727316975593567 -4.080140113830566
-6.494919776916504 0.742316007614136 -4.028140068054199
-7.933919906616211 2.742320060729981 -4.003139972686768
-8.204919815063477 2.809319972991943 -4.014140129089356
-6.687920093536377 0.517315983772278 -4.050139904022217
-6.830920219421387 1.032320022583008 -4.035140037536621
-7.318920135498047 2.394320011138916 -3.998140096664429
-7.104919910430908 0.738315999507904 -4.069139957427979
-7.249919891357422 2.227319955825806 -4.009140014648438
-7.425920009613037 0.625316023826599 -4.096139907836914
-8.853919982910156 3.280309915542603 -4.041140079498291
-7.444920063018799 0.904317021369934 -4.091139793395996
-8.745920181274414 3.153320074081421 -4.048140048980713
-7.142920017242432 1.060320019721985 -4.077139854431152
-6.964920043945313 0.646314978599548 -4.091139793395996
-7.796919822692871 2.634310007095337 -4.038139820098877
-7.289919853210449 0.971315979957581 -4.094140052795410
-8.006919860839844 2.580319881439209 -4.057139873504639
-8.574919700622559 3.231309890747070 -4.058139801025391
-8.171919822692871 2.631319999694824 -4.072140216827393
-8.301919937133789 2.991319894790649 -4.063139915466309
-7.181920051574707 0.556315004825592 -4.125140190124512
-8.079919815063477 2.948319911956787 -4.056139945983887
-8.545920372009277 2.914319992065430 -4.082139968872070
-6.836919784545898 0.533316016197205 -4.126140117645264
-6.521920204162598 0.334316998720169 -4.127140045166016
-7.521920204162598 0.745316028594971 -4.162139892578125
-8.319919586181641 2.729320049285889 -4.110139846801758
-6.972919940948486 0.961315989494324 -4.132140159606934
-7.340919971466065 0.504315018653870 -4.175139904022217
-6.689919948577881 0.930315971374512 -4.127140045166016
-8.063920021057129 2.756319999694824 -4.108139991760254
-7.140920162200928 0.910314977169037 -4.156139850616455
-7.656919956207275 0.615315020084381 -4.198140144348145
-6.695919990539551 0.370315998792648 -4.164140224456787
-7.061789989471436 -0.309424996376038 -4.222119808197022
-8.393919944763184 3.165319919586182 -4.122139930725098
-7.035920143127441 0.478316009044647 -4.186140060424805
-7.282919883728027 0.817317008972168 -4.185140132904053
-7.286920070648193 -0.144683003425598 -4.234139919281006
-6.339920043945313 0.309316009283066 -4.179140090942383
-6.568920135498047 0.806315004825592 -4.169139862060547
-8.952919960021973 3.350320100784302 -4.166140079498291
-7.376920223236084 0.345317006111145 -4.234139919281006
-6.974410057067871 -0.628551006317139 -4.268010139465332
-8.183919906616211 2.882319927215576 -4.169139862060547
-7.385920047760010 0.032317001372576 -4.267139911651611
-6.455920219421387 0.679315984249115 -4.191140174865723
-7.536920070648193 0.391315996646881 -4.258140087127686
-8.170920372009277 3.093319892883301 -4.160140037536621
-6.931839942932129 -0.410492986440659 -4.270569801330566
-6.853919982910156 0.402316004037857 -4.228139877319336
-8.441920280456543 2.836319923400879 -4.190139770507813
-7.355919837951660 0.667315006256104 -4.242139816284180
-7.505919933319092 0.576315999031067 -4.263140201568604
-6.448919773101807 0.192316994071007 -4.231140136718750
-6.981919765472412 0.824316978454590 -4.231140136718750
-7.134920120239258 0.744316995143890 -4.244140148162842
-8.808919906616211 3.249320030212402 -4.210140228271484
-6.822919845581055 0.894316971302032 -4.226140022277832
-6.639920234680176 0.226315006613731 -4.250140190124512
-7.146920204162598 0.236315995454788 -4.276140213012695
-7.473919868469238 0.205314993858337 -4.305140018463135
-7.178709983825684 0.069966197013855 -4.301139831542969
-6.967919826507568 0.275317013263702 -4.285140037536621
-8.603919982910156 2.975320100784302 -4.236139774322510
-6.358920097351074 0.554315984249115 -4.243140220642090
-6.982150077819824 -0.196226999163628 -4.316870212554932
-7.210919857025147 0.569316029548645 -4.305140018463135
-7.038499832153320 -0.032327901571989 -4.325590133666992
-6.904920101165772 -0.754683971405029 -4.354139804840088
-7.308919906616211 0.194315999746323 -4.330140113830566
-8.297920227050781 2.978319883346558 -4.246140003204346
-8.735919952392578 3.109319925308228 -4.270140171051025
-7.229919910430908 0.380317002534866 -4.329140186309815
-7.047920227050781 0.612317025661469 -4.314139842987061
-6.798920154571533 0.254314988851547 -4.319139957427979
-6.877920150756836 0.707315981388092 -4.308139801025391
-6.674920082092285 0.779317021369934 -4.296140193939209
-6.835979938507080 -0.501376986503601 -4.373549938201904
-6.521920204162598 0.082316301763058 -4.343140125274658
-7.035920143127441 0.134315997362137 -4.370140075683594
-7.067920207977295 0.404316991567612 -4.369140148162842
-8.461919784545898 3.024319887161255 -4.313139915466309
-6.327919960021973 0.157316997647285 -4.347139835357666
-6.545919895172119 0.657316982746124 -4.334139823913574
-6.890920162200928 0.534316003322601 -4.371140003204346
-6.853330135345459 -0.333481013774872 -4.412680149078369
-8.309920310974121 3.126319885253906 -4.324140071868897
-6.721920013427734 0.634316027164459 -4.367139816284180
-6.893340110778809 -0.090234503149986 -4.415349960327148
-8.881919860839844 3.175309896469116 -4.360139846801758
-6.268919944763184 0.398315995931625 -4.367139816284180
-6.712920188903809 0.093316003680229 -4.425139904022217
-6.910920143127441 0.350315988063812 -4.423140048980713
-6.442920207977295 0.511317014694214 -4.400139808654785
-8.604920387268066 3.110320091247559 -4.394139766693115
-6.382919788360596 0.012316600419581 -4.435140132904053
-6.900919914245606 0.072316102683544 -4.463140010833740
-6.620920181274414 0.510316014289856 -4.434140205383301
-6.760709762573242 -0.583692014217377 -4.499479770660400
-8.954919815063477 3.331320047378540 -4.429140090942383
-6.194920063018799 0.213317006826401 -4.451139926910400
-6.607920169830322 -0.036683201789856 -4.485139846801758
-6.850920200347900 -0.737682998180389 -4.531139850616455
-6.716919898986816 0.361315995454788 -4.478139877319336
-6.817920207977295 0.222315996885300 -4.490139961242676
-8.442919731140137 3.159320116043091 -4.431139945983887
-6.790909767150879 -0.212116003036499 -4.522530078887940
-6.762249946594238 -0.414799004793167 -4.542200088500977
-6.510920047760010 0.391315996646881 -4.497139930725098
-6.450920104980469 -0.128683999180794 -4.533140182495117
-6.348919868469238 0.337314993143082 -4.506140232086182
-8.760919570922852 3.205319881439209 -4.491139888763428
-6.231919765472412 0.049315299838781 -4.522140026092529
-6.929920196533203 -0.932682991027832 -4.611139774322510
-6.797920227050781 -0.048684198409319 -4.564139842987061
-6.613920211791992 0.246316000819206 -4.544139862060547
-6.633920192718506 -0.612682998180389 -4.604139804840088
-6.769919872283936 -0.883683025836945 -4.628139972686768
-6.671919822692871 0.087315402925014 -4.591139793395996
-6.542920112609863 -0.248683005571365 -4.603139877319336
-6.289919853210449 -0.101683996617794 -4.589139938354492
-9.054920196533203 3.360320091247559 -4.573140144348145
-6.494919776916504 -0.444683998823166 -4.638140201568604
-6.749919891357422 -0.718684017658234 -4.664140224456787
-6.463920116424561 0.185316994786263 -4.616139888763428
-8.894920349121094 3.282320022583008 -4.588140010833740
-6.679920196533203 -0.145684003829956 -4.649139881134033
-6.648920059204102 -0.373683005571365 -4.662139892578125
-6.282919883728027 0.196317002177238 -4.620140075683594
-6.380919933319092 -0.267684012651443 -4.656139850616455
-6.111919879913330 0.128316000103951 -4.635139942169190
-6.539919853210449 0.025317100808024 -4.673140048980713
-6.932919979095459 -0.937683999538422 -4.782139778137207
-6.364920139312744 0.076315797865391 -4.708139896392822
-6.332920074462891 -0.460682988166809 -4.736139774322510
-9.163920402526856 3.389319896697998 -4.710140228271484
-6.741919994354248 -0.833684027194977 -4.813139915466309
-6.584919929504395 -0.657683014869690 -4.797140121459961
-6.580920219421387 -0.466684013605118 -4.789140224456787
-6.507919788360596 -0.254684001207352 -4.786139965057373
-6.801919937133789 -1.025679945945740 -4.840139865875244
-6.170919895172119 -0.289683014154434 -4.790140151977539
-6.394919872283936 -0.097684003412724 -4.792140007019043
-6.187920093536377 0.078316599130630 -4.782139778137207
-6.096920013427734 -0.064683102071285 -4.787139892578125
-6.333920001983643 -0.591683983802795 -4.848139762878418
-6.211919784545898 -0.459684014320374 -4.852139949798584
-6.966919898986816 -1.051679968833923 -4.922140121459961
-6.450920104980469 -0.394683003425598 -4.872139930725098
-6.348919868469238 -0.252685010433197 -4.870140075683594
-6.645090103149414 -0.915090024471283 -4.926650047302246
-6.244919776916504 -0.121683999896050 -4.872139930725098
-6.495920181274414 -0.702683985233307 -4.953139781951904
-6.713920116424561 -1.059679985046387 -4.981140136718750
-6.843920230865479 -0.948683977127075 -4.983139991760254
-6.246920108795166 -0.692682981491089 -4.960140228271484
-6.052919864654541 -0.383682996034622 -4.942140102386475
-6.214920043945313 -0.309684008359909 -4.959139823913574
-6.330920219421387 -0.445683985948563 -4.977139949798584
-6.143919944763184 -0.008683299645782 -4.947140216827393
-6.087920188903809 -0.755683004856110 -5.010139942169190
-6.112919807434082 -0.179682999849319 -4.985139846801758
-6.381919860839844 -0.604683995246887 -5.031139850616455
-6.573919773101807 -1.023679971694946 -5.070139884948731
-6.920919895172119 -1.055680036544800 -5.092140197753906
-5.986919879913330 -0.624683976173401 -5.034140110015869
-6.223919868469238 -0.836683988571167 -5.075139999389648
-6.150919914245606 -0.441684007644653 -5.065139770507813
-5.976920127868652 -0.449683010578156 -5.077139854431152
-6.759920120239258 -0.966683983802795 -5.144139766693115
-6.448919773101807 -0.899684011936188 -5.126140117645264
-6.786920070648193 -1.142680048942566 -5.155139923095703
-6.061920166015625 -0.933683991432190 -5.117139816284180
-6.365920066833496 -0.743683993816376 -5.125140190124512
-6.232920169830322 -0.607684016227722 -5.114140033721924
-5.884920120239258 -0.867684006690979 -5.111139774322510
-5.755919933319092 -1.005679965019226 -5.123139858245850
-5.830920219421387 -0.543682992458344 -5.106140136718750
-6.616919994354248 -1.171679973602295 -5.202139854431152
-6.458920001983643 -1.091680049896240 -5.192140102386475
-6.311920166015625 -0.995684981346130 -5.187139987945557
-5.929920196533203 -1.033679962158203 -5.172140121459961
-5.685919761657715 -1.222679972648621 -5.174139976501465
-5.609920024871826 -1.384680032730103 -5.191140174865723
-5.921919822692871 -0.681684017181396 -5.177140235900879
-6.112919807434082 -0.697683990001678 -5.189139842987061
-6.877920150756836 -1.042680025100708 -5.253139972686768
-6.614920139312744 -0.965683996677399 -5.243140220642090
-6.152919769287109 -1.031679987907410 -5.229139804840088
-5.844920158386231 -1.188680052757263 -5.240139961242676
-5.762919902801514 -1.371680021286011 -5.258140087127686
-6.239920139312744 -0.835682988166809 -5.257140159606934
-6.747920036315918 -1.184679985046387 -5.322140216827393
-6.279920101165772 -1.145679950714111 -5.305140018463135
-6.461919784545898 -0.946682989597321 -5.312139987945557
-6.018919944763184 -0.845682978630066 -5.288139820098877
-6.413919925689697 -1.248679995536804 -5.327139854431152
-5.712920188903809 -1.524680018424988 -5.309140205383301
-6.034920215606690 -1.145679950714111 -5.309140205383301
-5.802919864654541 -0.934683978557587 -5.296140193939209
-5.577919960021973 -1.241680026054382 -5.305140018463135
-5.543920040130615 -1.505679965019226 -5.328139781951904
-6.586919784545898 -1.245679974555969 -5.367139816284180
-5.927919864654541 -1.296679973602295 -5.340139865875244
-6.724919795989990 -1.003679990768433 -5.381140232086182
-6.292920112609863 -0.966683983802795 -5.362140178680420
-5.848919868469238 -1.454679965972900 -5.380139827728272
-6.112919807434082 -0.954684019088745 -5.372139930725098
-6.863920211791992 -1.102679967880249 -5.417140007019043
-5.685919761657715 -1.102679967880249 -5.378139972686768
-6.162919998168945 -1.227679967880249 -5.426139831542969
-5.938920021057129 -1.013679981231690 -5.423140048980713
-6.569920063018799 -1.017680048942566 -5.468140125274658
-6.305920124053955 -1.330680012702942 -5.479139804840088
-6.018919944763184 -1.360679984092712 -5.468140125274658
-6.707920074462891 -1.230679988861084 -5.505139827728272
-6.402919769287109 -1.042680025100708 -5.483139991760254
-6.472919940948486 -1.335680007934570 -5.507140159606934
-6.234920024871826 -1.064679980278015 -5.485139846801758
-5.536920070648193 -1.336680054664612 -5.467140197753906
-5.598919868469238 -1.564679980278015 -5.500140190124512
-5.768919944763184 -1.541679978370667 -5.508140087127686
-6.726920127868652 -1.063680052757263 -5.541140079498291
-5.813920021057129 -1.098680019378662 -5.504139900207520
-6.055920124053955 -1.080680012702942 -5.522140026092529
-5.619919776916504 -1.198680043220520 -5.510139942169190
-6.159920215606690 -1.380679965019226 -5.572140216827393
-6.847919940948486 -1.172680020332336 -5.597139835357666
-5.921919822692871 -1.474679946899414 -5.574140071868897
-6.331920146942139 -1.142680048942566 -5.597139835357666
-6.382919788360596 -1.424679994583130 -5.615139961242676
-6.603919982910156 -1.329679965972900 -5.627140045166016
-6.506919860839844 -1.158679962158203 -5.630139827728272
-6.771920204162598 -1.349679946899414 -5.666140079498291
-5.945919990539551 -1.162680029869080 -5.627140045166016
-6.685919761657715 -1.178679943084717 -5.670139789581299
-6.240920066833496 -1.494680047035217 -5.672140121459961
-5.489920139312744 -1.399680018424988 -5.635139942169190
-6.180920124053955 -1.184679985046387 -5.659140110015869
-5.765920162200928 -1.185680031776428 -5.639140129089356
-5.701920032501221 -1.570680022239685 -5.658140182495117
-6.071919918060303 -1.475679993629456 -5.697140216827393
-6.365920066833496 -1.599679946899414 -5.730140209197998
-6.376920223236084 -1.264680027961731 -5.719140052795410
-6.640920162200928 -1.830680012702942 -5.777140140533447
-6.663919925689697 -1.646679997444153 -5.773139953613281
-6.605919837951660 -1.471680045127869 -5.772140026092529
-6.540919780731201 -1.973680019378662 -5.814139842987061
-6.437920093536377 -1.412680029869080 -5.794139862060547
-6.056920051574707 -1.268679976463318 -5.772140026092529
-6.213920116424561 -1.639680027961731 -5.799139976501465
-5.422920227050781 -1.551679968833923 -5.773139953613281
-6.051919937133789 -1.600679993629456 -5.807139873504639
-5.814919948577881 -1.590680003166199 -5.797140121459961
-6.239920139312744 -1.342679977416992 -5.807139873504639
-6.511919975280762 -1.609680056571960 -5.834139823913574
-5.557919979095459 -1.305680036544800 -5.775139808654785
-6.489920139312744 -1.817680001258850 -5.851140022277832
-5.724919795989990 -1.266680002212524 -5.790140151977539
-6.423920154571533 -2.093679904937744 -5.870140075683594
-5.607920169830322 -1.602679967880249 -5.816140174865723
-5.893919944763184 -1.287680029869080 -5.818140029907227
-6.290919780731201 -1.492679953575134 -5.867139816284180
-6.365920066833496 -1.671679973602295 -5.889140129089356
-6.224919795989990 -1.767680048942566 -5.905139923095703
-6.126920223236084 -1.426679968833923 -5.897140026092529
-5.458920001983643 -1.386680006980896 -5.886139869689941
-6.254600048065186 -2.019759893417358 -5.958570003509522
-6.210919857025147 -2.319679975509644 -5.971139907836914
-5.921919822692871 -1.655679941177368 -5.928140163421631
-6.315919876098633 -2.189680099487305 -5.983139991760254
-6.126920223236084 -2.461679935455322 -5.998139858245850
-5.724919795989990 -1.643679976463318 -5.939139842987061
-5.790919780731201 -1.364680051803589 -5.931139945983887
-6.176919937133789 -1.604679942131043 -5.966139793395996
-5.965919971466065 -1.421679973602295 -5.947140216827393
-5.626920223236084 -1.337679982185364 -5.937139987945557
-6.073919773101807 -1.746680021286011 -5.986139774322510
-5.488920211791992 -1.615679979324341 -5.954140186309815
-6.132800102233887 -1.916669964790344 -6.020420074462891
-5.989920139312744 -2.327680110931397 -6.047140121459961
-6.021920204162598 -2.162679910659790 -6.050139904022217
-6.193920135498047 -2.115679979324341 -6.085140228271484
-5.988920211791992 -2.504679918289185 -6.101140022277832
-5.825920104980469 -1.723680019378662 -6.059140205383301
-5.604919910430908 -1.711680054664612 -6.055140018463135
-5.834919929504395 -2.441679954528809 -6.117139816284180
-5.855919837951660 -1.494680047035217 -6.073140144348145
-5.891920089721680 -1.885679960250855 -6.098139762878418
-6.127920150756836 -2.279680013656616 -6.129139900207520
-6.002920150756836 -1.604679942131043 -6.096139907836914
-5.871920108795166 -2.244679927825928 -6.132140159606934
-5.552919864654541 -1.406679987907410 -6.084139823913574
-6.068920135498047 -2.016680002212524 -6.139140129089356
-5.911920070648193 -2.072679996490479 -6.154139995574951
-6.025919914245606 -1.763679981231690 -6.151140213012695
-5.703919887542725 -1.499680042266846 -6.142139911651611
-5.405920028686523 -1.597679972648621 -6.133140087127686
-5.742919921875000 -2.321680068969727 -6.211140155792236
-5.671919822692871 -1.804679989814758 -6.188139915466309
-6.040919780731201 -2.169680118560791 -6.235139846801758
-5.504920005798340 -1.745679974555969 -6.193140029907227
-6.049920082092285 -2.481679916381836 -6.267139911651611
-5.984920024871826 -1.921679973602295 -6.250140190124512
-5.881919860839844 -2.539680004119873 -6.280139923095703
-5.787919998168945 -2.131680011749268 -6.256140232086182
-5.794919967651367 -1.955680012702942 -6.257140159606934
-5.975920200347900 -2.314680099487305 -6.288139820098877
-5.779920101165772 -1.622679948806763 -6.267139911651611
-5.919919967651367 -1.729679942131043 -6.284140110015869
-5.939919948577881 -2.057679891586304 -6.337140083312988
-5.580920219421387 -1.878679990768433 -6.318140029907227
-5.372920036315918 -1.683680057525635 -6.300139904022217
-5.674920082092285 -2.213680028915405 -6.348139762878418
-5.540919780731201 -1.591680049896240 -6.317140102386475
-5.690919876098633 -2.015680074691773 -6.375140190124512
-6.113920211791992 -2.566679954528809 -6.437139987945557
-5.900919914245606 -2.211679935455322 -6.410140037536621
-5.920919895172119 -1.911679983139038 -6.415140151977539
-5.957920074462891 -2.370680093765259 -6.447140216827393
-5.947919845581055 -2.568680047988892 -6.458139896392822
-5.809919834136963 -1.773679971694946 -6.417140007019043
-5.659920215606690 -1.692680001258850 -6.417140007019043
-5.439919948577881 -1.915680050849915 -6.422140121459961
-5.598919868469238 -2.323679924011231 -6.454140186309815
-5.320919990539551 -1.797680020332336 -6.420139789581299
-5.457920074462891 -1.695680022239685 -6.449140071868897
-5.537919998168945 -2.053679943084717 -6.503139972686768
-6.060919761657715 -2.443680047988892 -6.568140029907227
-5.876920223236084 -2.073679924011231 -6.547140121459961
-5.775919914245606 -1.882680058479309 -6.539140224456787
-5.351920127868652 -2.057679891586304 -6.547140121459961
-5.568920135498047 -1.807680010795593 -6.556139945983887
-5.867919921875000 -2.526679992675781 -6.606140136718750
-6.134920120239258 -2.588680028915405 -6.633140087127686
-5.627920150756836 -2.198679924011231 -6.608139991760254
-5.920919895172119 -2.367680072784424 -6.637139797210693
-5.261919975280762 -2.191679954528809 -6.609139919281006
-5.545919895172119 -2.362679958343506 -6.649139881134033
-5.440919876098633 -1.893679976463318 -6.624139785766602
-5.457920074462891 -2.218679904937744 -6.657139778137207
-5.643919944763184 -1.926679968833923 -6.660140037536621
-5.803919792175293 -1.990679979324341 -6.672140121459961
-6.093920230865479 -2.451679944992065 -6.781139850616455
-5.349919795989990 -2.017679929733276 -6.734139919281006
-5.925920009613037 -2.488679885864258 -6.790140151977539
-5.821919918060303 -2.147680044174194 -6.772140026092529
-5.382919788360596 -2.337680101394653 -6.767139911651611
-5.522920131683350 -2.008680105209351 -6.786139965057373
-5.870920181274414 -2.332679986953735 -6.820139884948731
-5.702919960021973 -2.019680023193359 -6.804140090942383
-5.241919994354248 -2.270679950714111 -6.855140209197998
-6.204919815063477 -2.494679927825928 -6.915140151977539
-6.005919933319092 -2.383680105209351 -6.923140048980713
-5.409920215606690 -2.078680038452148 -6.886139869689941
-5.780920028686523 -2.460680007934570 -6.923140048980713
-5.242919921875000 -2.103679895401001 -6.896140098571777
-5.762919902801514 -2.167680025100708 -6.964139938354492
-5.613920211791992 -2.093679904937744 -6.964139938354492
-6.100920200347900 -2.458679914474487 -7.053140163421631
-5.819920063018799 -2.328680038452148 -7.044139862060547
-5.930920124053955 -2.458679914474487 -7.058139801025391
-5.119919776916504 -2.138679981231690 -7.041140079498291
-5.305920124053955 -2.098680019378662 -7.055140018463135
-5.478919982910156 -2.122679948806763 -7.077139854431152
-5.288919925689697 -2.277679920196533 -7.089139938354492
-5.678919792175293 -2.159679889678955 -7.121140003204346
-6.193920135498047 -2.361680030822754 -7.164140224456787
-6.020919799804688 -2.338680028915405 -7.196139812469482
-5.795919895172119 -2.464679956436157 -7.200139999389648
-5.724919795989990 -2.312680006027222 -7.204140186309815
-5.177919864654541 -2.048680067062378 -7.178140163421631
-5.373919963836670 -2.127680063247681 -7.234139919281006
-5.537919998168945 -2.185679912567139 -7.254139900207520
-5.875919818878174 -2.342679977416992 -7.292140007019043
-5.985919952392578 -2.476680040359497 -7.312139987945557
-6.119919776916504 -2.345679998397827 -7.330140113830566
-5.091919898986816 -2.068680047988892 -7.321139812469482
-5.629920005798340 -2.279680013656616 -7.358139991760254
-5.253920078277588 -2.100680112838745 -7.352139949798584
-6.223919868469238 -2.447679996490479 -7.418139934539795
-5.408919811248779 -2.225680112838745 -7.409140110015869
-6.061920166015625 -2.412679910659790 -7.482140064239502
-6.003920078277588 -2.591680049896240 -7.495140075683594
-6.202919960021973 -2.602679967880249 -7.557139873504639
-5.917920112609863 -2.449680089950562 -7.569139957427979
-6.067920207977295 -2.693680047988892 -7.617139816284180
-5.862919807434082 -2.675679922103882 -7.624139785766602
-6.063920021057129 -2.527679920196533 -7.640140056610107
-5.810919761657715 -2.522680044174194 -7.682139873504639
-6.144919872283936 -2.789680004119873 -7.759140014648438
-5.921919822692871 -2.803679943084717 -7.763140201568604
-6.041920185089111 -2.660680055618286 -7.783140182495117
-5.870920181274414 -2.627680063247681 -7.820139884948731
-6.080920219421387 -2.905679941177368 -7.890140056610107
-5.844920158386231 -2.908679962158203 -7.907139778137207
-5.983920097351074 -2.749680042266846 -7.920139789581299
-5.964920043945313 -3.014679908752441 -7.998139858245850
-5.807919979095459 -2.714679956436157 -7.999139785766602
-5.921919822692871 -2.858680009841919 -8.046139717102051
-5.835919857025147 -2.991679906845093 -8.115139961242676
-5.706920146942139 -3.103679895401001 -8.121139526367188
