ply
format ascii 1.0
element vertex 575
property double x
property double y
property double z
end_header
-10.229900360107422 -2.205679893493652 3.289860010147095
-10.229900360107422 -2.205679893493652 3.289860010147095
-10.217900276184082 -1.935680031776428 3.240859985351563
-10.103899955749512 -2.086679935455322 3.153860092163086
-9.955920219421387 -2.162679910659790 3.152859926223755
-9.954919815063477 -1.987679958343506 3.160860061645508
-9.790920257568359 -2.032680034637451 3.131860017776489
-9.694919586181641 -2.169680118560791 3.080859899520874
-9.848919868469238 -1.908679962158203 3.028860092163086
-9.564920425415039 -2.016680002212524 3.030859947204590
-10.001899719238281 -1.988680005073547 2.982860088348389
-9.686920166015625 -1.900679945945740 2.985860109329224
-9.822919845581055 -2.106679916381836 2.960860013961792
-9.954919815063477 -1.806679964065552 2.944859981536865
-9.584919929504395 -2.147680044174194 2.928859949111939
-9.416919708251953 -1.927680015563965 2.937860012054443
-9.549920082092285 -1.813680052757263 2.928859949111939
-9.311920166015625 -2.054680109024048 2.913860082626343
-9.865920066833496 -1.963680028915405 2.862859964370728
-8.745920181274414 -2.295680046081543 2.893860101699829
-9.668919563293457 -1.706680059432983 2.865859985351563
-9.868920326232910 -1.666679978370667 2.851860046386719
-9.723919868469238 -2.057679891586304 2.834860086441040
-8.976920127868652 -2.118680000305176 2.849859952926636
-9.434920310974121 -2.131680011749268 2.817859888076782
-9.218919754028320 -1.901679992675781 2.835860013961792
-9.803919792175293 -1.821679949760437 2.796859979629517
-9.059920310974121 -1.973680019378662 2.807859897613525
-9.458919525146484 -1.731680035591126 2.796859979629517
-9.830920219421387 -1.489680051803589 2.784859895706177
-8.841919898986816 -2.198679924011231 2.785860061645508
-9.138919830322266 -2.120680093765259 2.769860029220581
-9.547920227050781 -1.595679998397827 2.743860006332398
-9.749919891357422 -1.646679997444153 2.728859901428223
-9.674920082092285 -1.913679957389832 2.718859910964966
-9.574919700622559 -2.057679891586304 2.715859889984131
-9.304920196533203 -1.783679962158203 2.738859891891480
-8.700920104980469 -2.297679901123047 2.726860046386719
-8.704919815063477 -2.106679916381836 2.732860088348389
-8.901920318603516 -2.013679981231690 2.726860046386719
-9.717920303344727 -1.395679950714111 2.704859972000122
-8.541919708251953 -2.400680065155029 2.706860065460205
-9.316920280456543 -2.134680032730103 2.677860021591187
-9.009920120239258 -2.127680063247681 2.664860010147095
-9.063920021057129 -1.845679998397827 2.673860073089600
-9.619919776916504 -1.716680049896240 2.647860050201416
-9.305919647216797 -1.631680011749268 2.651859998703003
-9.531920433044434 -1.878679990768433 2.611860036849976
-9.592920303344727 -1.266680002212524 2.631860017776489
-9.449919700622559 -2.042680025100708 2.597860097885132
-8.765919685363770 -1.985679984092712 2.622859954833984
-9.587920188903809 -1.434679985046387 2.603859901428223
-9.161919593811035 -2.148679971694946 2.587860107421875
-9.172920227050781 -1.723680019378662 2.601860046386719
-8.524920463562012 -2.173680067062378 2.611860036849976
-9.325920104980469 -1.345679998397827 2.611860036849976
-8.920920372009277 -1.896679997444153 2.604860067367554
-9.181920051574707 -1.525679945945740 2.592859983444214
-9.483920097351074 -1.643679976463318 2.560859918594360
-8.694919586181641 -2.195679903030396 2.559859991073608
-8.582920074462891 -2.318680047988892 2.553859949111939
-8.485919952392578 -2.454679965972900 2.549860000610352
-8.848919868469238 -2.128679990768433 2.540859937667847
-9.374919891357422 -1.898679971694946 2.524859905242920
-9.446920394897461 -1.233680009841919 2.551860094070435
-9.310919761657715 -2.068680047988892 2.509860038757324
-8.595919609069824 -2.026679992675781 2.545860052108765
-9.443920135498047 -1.442680001258850 2.520859956741333
-9.017919540405273 -1.781679987907410 2.515860080718994
-9.027919769287109 -1.595679998397827 2.522860050201416
-8.382920265197754 -2.217679977416992 2.505860090255737
-9.334919929504395 -1.676679968833923 2.481859922409058
-8.711919784545898 -1.877679944038391 2.501859903335571
-9.214920043945313 -1.241680026054382 2.484859943389893
-9.235919952392578 -1.825680017471314 2.446860074996948
-9.271920204162598 -1.401679992675781 2.456860065460205
-9.168919563293457 -2.046679973602295 2.424860000610352
-8.449919700622559 -2.066679954528809 2.455859899520874
-8.876919746398926 -1.730679988861084 2.442859888076782
-8.904919624328613 -1.499680042266846 2.447860002517700
-9.050919532775879 -1.208680033683777 2.451859951019287
-9.176919937133789 -1.618680000305176 2.419859886169434
-9.013919830322266 -2.116679906845093 2.401859998703003
-8.415920257568359 -2.382679939270020 2.412859916687012
-8.523920059204102 -2.241679906845093 2.409859895706177
-9.089920043945313 -1.882680058479309 2.384860038757324
-8.554920196533203 -1.904680013656616 2.407860040664673
-8.645919799804688 -2.112679958343506 2.391860008239746
-9.118920326232910 -1.454679965972900 2.392859935760498
-8.279919624328613 -2.487679958343506 2.362859964370728
-8.784919738769531 -2.020679950714111 2.359859943389893
-8.311920166015625 -2.128679990768433 2.370860099792481
-9.023920059204102 -1.727679967880249 2.349859952926636
-8.984919548034668 -1.332679986953735 2.358860015869141
-8.950920104980469 -1.973680019378662 2.328860044479370
-8.743920326232910 -1.629680037498474 2.328860044479370
-8.842920303344727 -1.227679967880249 2.332859992980957
-8.688920021057129 -1.370679974555969 2.326859951019287
-8.179920196533203 -2.264679908752441 2.302860021591187
-8.592920303344727 -1.740679979324341 2.306859970092773
-8.377920150756836 -1.982679963111877 2.304860115051270
-8.867919921875000 -1.814679980278015 2.288860082626343
-8.902919769287109 -1.590680003166199 2.297859907150269
-8.468919754028320 -2.150680065155029 2.281860113143921
-8.348919868469238 -2.290679931640625 2.280859947204590
-8.852919578552246 -1.416679978370667 2.289860010147095
-8.683919906616211 -1.140679955482483 2.297859907150269
-8.677920341491699 -1.885679960250855 2.258860111236572
-8.141920089721680 -2.520679950714111 2.246860027313232
-8.482919692993164 -1.989680051803589 2.162859916687012
-8.150919914245606 -2.376679897308350 2.153860092163086
-8.652919769287109 -1.666679978370667 2.162859916687012
-8.106920242309570 -2.164680004119873 2.164860010147095
-8.285920143127441 -1.956680059432983 2.159859895706177
-8.623920440673828 -1.465680003166199 2.165859937667847
-8.535920143127441 -1.306679964065552 2.159859895706177
-8.254920005798340 -2.241679906845093 2.126859903335571
-8.578920364379883 -1.814679980278015 2.129859924316406
-8.473919868469238 -1.121680021286011 2.162859916687012
-8.365920066833496 -2.113679885864258 2.117860078811646
-7.990920066833496 -2.589679956436157 2.092859983444214
-7.976920127868652 -2.280679941177368 2.094860076904297
-8.523920059204102 -1.590680003166199 2.079859972000122
-8.145919799804688 -1.969679951667786 2.062860012054443
-8.386919975280762 -1.325680017471314 2.081860065460205
-7.875919818878174 -2.455679893493652 2.028860092163086
-8.326919555664063 -1.118680000305176 2.063859939575195
-8.056920051574707 -2.403680086135864 2.008860111236572
-8.370920181274414 -1.950680017471314 2.001859903335571
-8.409070014953613 -1.485039949417114 2.018899917602539
-8.262920379638672 -2.093679904937744 1.987859964370728
-8.160920143127441 -2.226680040359497 1.978860020637512
-7.995920181274414 -2.033679962158203 1.995859980583191
-8.484919548034668 -1.823680043220520 1.971860051155090
-7.878920078277588 -2.215679883956909 1.975859999656677
-8.201919555664063 -1.841680049896240 1.967859983444214
-8.404919624328613 -1.676679968833923 1.931859970092773
-8.295989990234375 -1.366150021553040 1.946990013122559
-7.939919948577881 -2.597680091857910 1.897860050201416
-8.018919944763184 -1.868680000305176 1.922860026359558
-7.788919925689697 -2.504679918289185 1.889860033988953
-7.787919998168945 -2.324680089950562 1.885859966278076
-8.233920097351074 -1.160680055618286 1.912860035896301
-8.342920303344727 -1.838680028915405 1.870859980583191
-8.224920272827148 -1.975679993629456 1.861860036849976
-8.102919578552246 -1.727679967880249 1.877859950065613
-8.028920173645020 -2.296679973602295 1.846860051155090
-7.816919803619385 -2.095679998397827 1.861860036849976
-8.258219718933106 -1.507369995117188 1.860030055046082
-7.879920005798340 -1.929679989814758 1.848860025405884
-8.112919807434082 -2.137680053710938 1.825860023498535
-7.958920001983643 -2.460680007934570 1.802860021591187
-8.282919883728027 -1.690680027008057 1.813860058784485
-8.195590019226074 -1.298089981079102 1.823340058326721
-7.920919895172119 -1.750679969787598 1.803859949111939
-7.900919914245606 -2.603679895401001 1.733860015869141
-8.012920379638672 -1.614680051803589 1.771860003471375
-7.697919845581055 -2.372679948806763 1.749860048294067
-7.708920001983643 -2.557679891586304 1.736860036849976
-8.135370254516602 -1.443279981613159 1.761849999427795
-8.244919776916504 -1.859680056571960 1.723860025405884
-7.698919773101807 -2.134680032730103 1.731860041618347
-7.755919933319092 -1.959679961204529 1.731860041618347
-8.214920043945313 -1.115679979324341 1.744860053062439
-7.956920146942139 -2.199680089950562 1.690860033035278
-8.049920082092285 -2.043679952621460 1.684859991073608
-7.882919788360596 -2.383680105209351 1.670860052108765
-8.159919738769531 -1.701679944992065 1.688860058784485
-7.965919971466065 -1.298679947853088 1.703860044479370
-7.845920085906982 -1.620679974555969 1.690860033035278
-7.773920059204102 -1.785680055618286 1.676859974861145
-8.120920181274414 -1.244680047035217 1.663859963417053
-7.622920036315918 -2.261679887771606 1.628859996795654
-7.632919788360596 -2.458679914474487 1.608860015869141
-7.813920021057129 -2.655679941177368 1.582859992980957
-8.107919692993164 -1.890679955482483 1.601860046386719
-7.852920055389404 -1.439679980278015 1.629860043525696
-8.069919586181641 -1.409680008888245 1.611860036849976
-7.792920112609863 -2.481679916381836 1.558859944343567
-7.917920112609863 -2.090679883956909 1.568860054016113
-7.639920234680176 -1.952679991722107 1.575860023498535
-8.039919853210449 -1.705680012702942 1.564859986305237
-7.819920063018799 -2.249680042266846 1.535859942436218
-7.745920181274414 -2.788680076599121 1.503859996795654
-7.734920024871826 -1.619680047035217 1.550860047340393
-7.665919780731201 -1.786679983139038 1.543859958648682
-7.872920036315918 -1.283679962158203 1.539860010147095
-8.046919822692871 -1.265679955482483 1.511860013008118
-7.980919837951660 -1.887680053710938 1.478860020637512
-7.546919822692871 -2.255680084228516 1.474859952926636
-7.716919898986816 -2.634680032730103 1.446859955787659
-7.718920230865479 -2.371680021286011 1.454859972000122
-7.568920135498047 -2.066679954528809 1.474859952926636
-7.767920017242432 -1.425680041313171 1.473860025405884
-7.932919979095459 -1.600679993629456 1.454859972000122
-7.842919826507568 -1.991680026054382 1.420860052108765
-7.975920200347900 -1.406679987907410 1.433859944343567
-7.558919906616211 -2.413680076599121 1.399860024452210
-7.892920017242432 -1.757680058479309 1.406859993934631
-7.675920009613037 -2.778680086135864 1.351860046386719
-7.763919830322266 -2.143680095672607 1.375859975814819
-7.573919773101807 -1.763679981231690 1.384860038757324
-7.526919841766357 -1.925680041313171 1.373860001564026
-7.633920192718506 -1.589679956436157 1.377859950065613
-7.480919837951660 -2.140680074691773 1.350859999656677
-7.801919937133789 -1.295680046081543 1.372859954833984
-7.981919765472412 -1.236680030822754 1.353860020637512
-7.608920097351074 -2.593679904937744 1.302860021591187
-7.655920028686523 -2.263679981231690 1.306859970092773
-7.811920166015625 -1.871680021286011 1.297860026359558
-7.833920001983643 -1.629680037498474 1.306859970092773
-7.867919921875000 -1.466680049896240 1.296859979629517
-7.682919979095459 -2.846679925918579 1.154860019683838
-7.564919948577881 -2.297679901123047 1.171859979629517
-7.697919845581055 -1.905679941177368 1.164860010147095
-7.637919902801514 -2.088680028915405 1.154860019683838
-7.439919948577881 -2.054680109024048 1.165860056877136
-7.625919818878174 -2.688679933547974 1.125859975814819
-7.503920078277588 -1.650679945945740 1.175860047340393
-7.715919971466065 -1.645679950714111 1.163859963417053
-7.451920032501221 -1.877679944038391 1.164860010147095
-7.872920036315918 -1.208680033683777 1.175860047340393
-7.784920215606690 -1.376680016517639 1.168859958648682
-7.600920200347900 -1.408679962158203 1.173859953880310
-7.602920055389404 -2.452680110931397 1.113860011100769
-7.625919818878174 -1.766680002212524 1.056859970092773
-7.463329792022705 -2.318749904632568 1.030529975891113
-7.528920173645020 -2.104680061340332 1.023859977722168
-7.395919799804688 -1.767680048942566 1.034860014915466
-7.626920223236084 -1.968680024147034 1.012859940528870
-7.421919822692871 -1.590680003166199 1.039860010147095
-7.574920177459717 -2.627680063247681 0.978856980800629
-7.493919849395752 -1.385679960250855 1.040860056877136
-7.679920196533203 -1.359680056571960 1.031859993934631
-7.415919780731201 -1.974679946899414 1.013859987258911
-7.739920139312744 -1.194679975509644 1.030859947204590
-7.616919994354248 -1.589679956436157 1.008859992027283
-7.613920211791992 -2.829679965972900 0.942857980728149
-7.503920078277588 -2.456680059432983 0.946856021881104
-7.552919864654541 -1.842679977416992 0.924856007099152
-7.307919979095459 -1.870679974555969 0.926859021186829
-7.446919918060303 -2.193680047988892 0.897855997085571
-7.337920188903809 -1.446679949760437 0.917855978012085
-7.304920196533203 -1.628679990768433 0.909856975078583
-7.586919784545898 -1.382680058479309 0.894856989383698
-7.446919918060303 -1.274680018424988 0.904856026172638
-7.493919849395752 -1.677680015563965 0.877855002880096
-7.516920089721680 -2.002680063247681 0.858857989311218
-7.321919918060303 -2.047679901123047 0.864858984947205
-7.656919956207275 -1.231680035591126 0.878858983516693
-7.541920185089111 -2.663680076599121 0.794858992099762
-7.598919868469238 -2.828680038452148 0.774859011173248
-7.415740013122559 -2.449609994888306 0.797173023223877
-7.213920116424561 -1.745679974555969 0.826856970787048
-7.440919876098633 -1.844679951667786 0.791857004165649
-7.203919887542725 -1.926679968833923 0.790857017040253
-7.453919887542725 -1.428679943084717 0.797856986522675
-7.358920097351074 -2.182679891586304 0.747857987880707
-7.201920032501221 -1.396679997444153 0.791857004165649
-7.385920047760010 -1.605679988861084 0.764855980873108
-7.396920204162598 -2.594680070877075 0.707857012748718
-7.156919956207275 -1.599679946899414 0.755858004093170
-7.404920101165772 -2.005680084228516 0.720857977867126
-7.326920032501221 -1.276679992675781 0.745854973793030
-7.509920120239258 -1.272680044174194 0.734857976436615
-7.099919795989990 -1.791679978370667 0.699858009815216
-7.591919898986816 -2.867680072784424 0.597856998443604
-7.352920055389404 -2.450680017471314 0.626856029033661
-7.524919986724854 -2.703680038452148 0.602858006954193
-7.325920104980469 -1.450680017471314 0.670858025550842
-7.327919960021973 -1.852679967880249 0.650857985019684
-7.135920047760010 -2.018680095672607 0.649859011173248
-7.271920204162598 -1.693680047988892 0.633855998516083
-7.039919853210449 -1.632680058479309 0.630858004093170
-7.245920181274414 -2.224679946899414 0.589856982231140
-7.148920059204102 -1.337679982185364 0.623857975006104
-7.293920040130615 -2.062680006027222 0.580857992172241
-7.398920059204102 -1.322679996490479 0.588858008384705
-7.342919826507568 -2.605679988861084 0.522855997085571
-7.001920223236084 -1.841680049896240 0.565859019756317
-7.013919830322266 -1.435680031776428 0.558858990669250
-7.231919765472412 -1.887680053710938 0.515856027603149
-7.265920162200928 -1.234680056571960 0.540857017040253
-7.031919956207275 -2.039680004119873 0.504858016967773
-7.465919971466065 -2.685679912567139 0.443857014179230
-7.555920124053955 -2.838680028915405 0.429856985807419
-7.314919948577881 -2.452680110931397 0.458856999874115
-6.913919925689697 -1.631680011749268 0.505858004093170
-7.186920166015625 -1.658679962158203 0.483857989311218
-7.295919895172119 -1.419679999351502 0.483857989311218
-7.185919761657715 -2.086679935455322 0.440858989953995
-7.220920085906982 -2.302680015563965 0.418855994939804
-7.122920036315918 -1.801679968833923 0.412858992815018
-7.164919853210449 -1.328680038452148 0.432855993509293
-6.866919994354248 -1.772680044174194 0.411855995655060
-6.932919979095459 -1.948680043220520 0.399859011173248
-7.360919952392578 -2.615679979324341 0.323857992887497
-7.184919834136963 -2.528680086135864 0.333856999874115
-7.438920021057129 -2.817679882049561 0.304856985807419
-6.859920024871826 -1.419679999351502 0.387858003377914
-6.793920040130615 -1.593680024147034 0.379857987165451
-7.070919990539551 -1.605679988861084 0.361856997013092
-6.956920146942139 -2.111680030822754 0.330857992172241
-7.110919952392578 -2.178679943084717 0.306856006383896
-7.021920204162598 -1.411679983139038 0.346857011318207
-6.929920196533203 -1.585680007934570 0.272855997085571
-7.510920047760010 -2.864680051803589 0.158857002854347
-7.364920139312744 -2.691679954528809 0.166857004165649
-7.170919895172119 -2.596679925918579 0.173857003450394
-6.635920047760010 -1.613680005073547 0.242856994271278
-6.744919776916504 -1.438680052757263 0.245855003595352
-7.147920131683350 -2.424679994583130 0.161855995655060
-7.063920021057129 -2.270679950714111 0.167855992913246
-7.027919769287109 -2.047679901123047 0.179857000708580
-6.858920097351074 -2.089679956436157 0.180857002735138
-6.769919872283936 -1.928679943084717 0.178857997059822
-6.912919998168945 -1.729679942131043 0.178857997059822
-6.974919795989990 -1.884680032730103 0.161855995655060
-6.646920204162598 -1.795680046081543 0.176859006285667
-6.772920131683350 -1.610679984092712 0.117857001721859
-6.920919895172119 -2.264679908752441 0.075857199728489
-7.429920196533203 -2.768680095672607 0.024858599528670
-7.266920089721680 -2.618680000305176 0.034856900572777
-7.006919860839844 -2.432679891586304 0.033857401460409
-6.671919822692871 -2.012680053710938 0.066858403384686
-7.539919853210449 -2.895679950714111 -0.024141199886799
-6.999919891357422 -2.126679897308350 0.026857500895858
-6.520919799804688 -1.819679975509644 0.064855702221394
-6.766920089721680 -2.172679901123047 0.031858500093222
-6.616919994354248 -1.598680019378662 0.045858498662710
-6.836919784545898 -1.796679973602295 0.015855899080634
-7.162919998168945 -2.447679996490479 -0.053144399076700
-6.937920093536377 -1.968680024147034 -0.022142300382257
-6.456920146942139 -1.961680054664612 -0.005144000053406
-7.063920021057129 -2.300679922103882 -0.071142099797726
-6.347919940948486 -1.768679976463318 -0.017141299322248
-7.340919971466065 -2.671679973602295 -0.110143996775150
-7.171919822692871 -2.663680076599121 -0.105143003165722
-6.550920009613037 -2.106679916381836 -0.049142800271511
-6.697919845581055 -1.720679998397827 -0.042142800986767
-7.446919918060303 -2.796679973602295 -0.139143005013466
-6.824920177459717 -2.298680067062378 -0.101144999265671
-6.297920227050781 -1.928679943084717 -0.065141603350639
-7.282919883728027 -2.828680038452148 -0.158143997192383
-6.465919971466065 -1.632680058479309 -0.062143199145794
-6.926919937133789 -2.457679986953735 -0.134141996502876
-6.672920227050781 -2.213680028915405 -0.113141998648643
-7.507919788360596 -2.953680038452148 -0.199144005775452
-7.021920204162598 -2.599679946899414 -0.166143000125885
-6.146920204162598 -1.850679993629456 -0.093141503632069
-6.968920230865479 -2.108680009841919 -0.149140998721123
-6.385920047760010 -2.097680091857910 -0.124144002795219
-6.816919803619385 -1.904680013656616 -0.140141993761063
-7.231919765472412 -2.533679962158203 -0.201142996549606
-7.118919849395752 -2.391680002212524 -0.207144007086754
-7.289919853210449 -2.969680070877075 -0.265141993761063
-6.195919990539551 -2.018680095672607 -0.175142005085945
-6.559919834136963 -1.748679995536804 -0.186143994331360
-6.531919956207275 -2.194679975509644 -0.210142001509666
-7.301919937133789 -2.675679922103882 -0.275144994258881
-7.112919807434082 -2.764679908752441 -0.270143002271652
-7.029920101165772 -2.254679918289185 -0.242144003510475
-6.228919982910156 -1.730679988861084 -0.181143000721931
-7.387919902801514 -2.837680101394653 -0.294142007827759
-6.795919895172119 -2.396680116653442 -0.247144997119904
-7.440919876098633 -3.044680118560791 -0.324144005775452
-6.891920089721680 -2.563679933547974 -0.280142009258270
-6.679920196533203 -1.859680056571960 -0.238141998648643
-5.966919898986816 -2.023679971694946 -0.226144999265671
-6.401919841766357 -1.712679982185364 -0.235144004225731
-6.252920150756836 -2.169680118560791 -0.256143003702164
-6.830920219421387 -2.046679973602295 -0.281141012907028
-6.034920215606690 -1.867679953575134 -0.237141996622086
-6.960919857025147 -2.706680059432983 -0.345144003629684
-6.900919914245606 -2.193680047988892 -0.339143991470337
-6.092919826507568 -2.142679929733276 -0.300141990184784
-6.665919780731201 -2.341680049896240 -0.341143012046814
-7.006919860839844 -2.453680038452148 -0.365144997835159
-6.416920185089111 -2.218679904937744 -0.328141987323761
-7.221920013427734 -2.748680114746094 -0.405142009258270
-7.095920085906982 -2.598680019378662 -0.392141014337540
-7.321919918060303 -3.070679903030396 -0.442144006490707
-6.698919773101807 -1.969679951667786 -0.362141996622086
-7.266920089721680 -2.907680034637451 -0.444142997264862
-6.190919876098633 -1.771679997444153 -0.338144004344940
-6.780920028686523 -2.510679960250855 -0.417142987251282
-6.859920024871826 -2.354680061340332 -0.422143995761871
-5.896920204162598 -1.958680033683777 -0.364140987396240
-6.519919872283936 -1.873679995536804 -0.396142989397049
-6.751920223236084 -2.119679927825928 -0.422143995761871
-6.204919815063477 -2.228679895401001 -0.411141991615295
-6.998919963836670 -2.965679883956909 -0.502142012119293
-6.355919837951660 -1.816679954528809 -0.425141990184784
-7.200920104980469 -3.192679882049561 -0.539143979549408
-5.890920162200928 -2.148679971694946 -0.426142007112503
-7.022920131683350 -2.717679977416992 -0.509141981601715
-6.549920082092285 -2.329679965972900 -0.471143990755081
-7.130919933319092 -2.846679925918579 -0.526144027709961
-6.046919822692871 -1.837679982185364 -0.437142997980118
-6.044919967651367 -2.224679946899414 -0.459143012762070
-6.860919952392578 -2.616679906845093 -0.524141013622284
-7.154920101165772 -3.021680116653442 -0.558142006397247
-6.735919952392578 -2.280679941177368 -0.510141015052795
-6.594920158386231 -1.992679953575134 -0.501142024993896
-6.663919925689697 -2.459680080413818 -0.530142009258270
-6.356919765472412 -2.249680042266846 -0.510141015052795
-6.206920146942139 -1.808680057525635 -0.505144000053406
-7.073919773101807 -3.208679914474487 -0.646143019199371
-6.631919860839844 -2.146680116653442 -0.582144021987915
-6.916920185089111 -2.901679992675781 -0.634141981601715
-6.703919887542725 -2.600680112838745 -0.614140987396240
-6.412919998168945 -1.886680006980896 -0.568144023418427
-7.014920234680176 -3.051680088043213 -0.655142009258270
-6.160920143127441 -2.229680061340332 -0.580141007900238
-5.940919876098633 -1.881680011749268 -0.565141975879669
-6.850920200347900 -3.084680080413818 -0.676141977310181
-6.742919921875000 -2.792680025100708 -0.661141991615295
-6.948919773101807 -3.307679891586304 -0.696142017841339
-5.714920043945313 -2.109679937362671 -0.586142003536224
-6.447919845581055 -2.348680019378662 -0.649141013622284
-5.858920097351074 -2.198679924011231 -0.623143970966339
-6.616919994354248 -2.381680011749268 -0.674143016338348
-6.508920192718506 -2.020679950714111 -0.659142971038818
-6.277919769287109 -2.310679912567139 -0.676141977310181
-5.818920135498047 -1.971680045127869 -0.647141993045807
-6.029920101165772 -2.228679895401001 -0.694142997264862
-6.102920055389404 -1.784680008888245 -0.691141009330750
-6.606599807739258 -2.772830009460449 -0.763424992561340
-6.272920131683350 -1.827679991722107 -0.713144004344940
-6.821919918060303 -3.252680063247681 -0.814141988754272
-6.764920234680176 -3.051680088043213 -0.818144023418427
-6.342919826507568 -2.410680055618286 -0.797143995761871
-6.556920051574707 -2.612679958343506 -0.838144004344940
-6.478919982910156 -2.095679998397827 -0.812143027782440
-6.522920131683350 -2.266680002212524 -0.831143975257874
-6.373919963836670 -1.924679994583130 -0.810144007205963
-6.526919841766357 -2.432679891586304 -0.845143973827362
-6.688920021057129 -3.189680099487305 -0.894143998622894
-6.126920223236084 -2.276679992675781 -0.834142982959747
-5.831920146942139 -1.877679944038391 -0.816141009330750
-6.618919849395752 -2.966680049896240 -0.909142971038818
-5.740920066833496 -2.122679948806763 -0.832144021987915
-6.535920143127441 -2.815680027008057 -0.909142971038818
-6.082920074462891 -1.667680025100708 -0.849142014980316
-6.207920074462891 -2.455679893493652 -0.901144027709961
-6.316919803619385 -2.602679967880249 -0.931142985820770
-5.978919982910156 -2.228679895401001 -0.902143001556396
-6.247920036315918 -1.615679979324341 -0.889142990112305
-6.377920150756836 -2.756680011749268 -0.956143975257874
-6.356919765472412 -3.014679908752441 -0.970143973827362
-6.551919937133789 -3.188679933547974 -0.991144001483917
-6.228919982910156 -2.876679897308350 -0.962140977382660
-6.168920040130615 -3.040679931640625 -0.968141019344330
-5.920919895172119 -1.751680016517639 -0.897141993045807
-6.145919799804688 -2.686680078506470 -0.964143991470337
-6.080920219421387 -3.193680047988892 -0.997144997119904
-6.480919837951660 -2.596679925918579 -0.993143022060394
-6.406919956207275 -2.030679941177368 -0.965143024921417
-6.065919876098633 -2.361680030822754 -0.966143012046814
-6.293920040130615 -1.781679987907410 -0.950143992900848
-5.815919876098633 -2.223680019378662 -0.955141007900238
-5.995920181274414 -2.594680070877075 -0.983144998550415
-6.282919883728027 -3.170680046081543 -1.028139948844910
-6.494919776916504 -2.380680084228516 -1.003139972686768
-6.504920005798340 -3.020679950714111 -1.047140002250671
-5.912919998168945 -2.421679973602295 -1.006139993667603
-6.458920001983643 -2.196680068969727 -1.025140047073364
-6.463920116424561 -2.859679937362671 -1.058140039443970
-5.745920181274414 -1.893679976463318 -0.982141017913818
-5.696919918060303 -2.090679883956909 -0.995141983032227
-6.191919803619385 -3.312680006027222 -1.088140010833740
-6.431920051574707 -3.244679927825928 -1.097139954566956
-5.739920139312744 -2.345679998397827 -1.053140044212341
-6.333920001983643 -3.403680086135864 -1.138139963150024
-6.421919822692871 -2.697679996490479 -1.123139977455139
-6.003920078277588 -3.329679965972900 -1.139140009880066
-6.370920181274414 -1.867679953575134 -1.089140057563782
-6.376920223236084 -2.967679977416992 -1.162140011787415
-5.587920188903809 -2.439680099487305 -1.108139991760254
-6.397920131683350 -2.039680004119873 -1.139140009880066
-5.796919822692871 -1.789680004119873 -1.104140043258667
-6.515920162200928 -2.324680089950562 -1.177139997482300
-5.649919986724854 -1.946679949760437 -1.117140054702759
-5.633920192718506 -2.206680059432983 -1.137140035629273
-6.323919773101807 -3.192679882049561 -1.219140052795410
-6.227920055389404 -3.496680021286011 -1.245139956474304
-5.864920139312744 -3.370680093765259 -1.222139954566956
-6.336919784545898 -2.780679941177368 -1.250139951705933
-6.426919937133789 -2.188679933547974 -1.232139945030212
-6.360919952392578 -2.598680019378662 -1.266139984130859
-6.097919940948486 -3.401679992675781 -1.302139997482300
-6.422920227050781 -2.440680027008057 -1.273139953613281
-5.455920219421387 -2.399679899215698 -1.226140022277832
-6.271920204162598 -2.929680109024048 -1.301139950752258
-5.714920043945313 -1.834679961204529 -1.248139977455139
-6.261919975280762 -3.297679901123047 -1.349140048027039
-6.226920127868652 -3.123680114746094 -1.347139954566956
-5.523920059204102 -2.199680089950562 -1.269140005111694
-5.576920032501221 -2.028680086135864 -1.276139974594116
-5.947919845581055 -3.310679912567139 -1.358139991760254
-6.324920177459717 -3.451679944992065 -1.387140035629273
-5.320919990539551 -2.473680019378662 -1.298140048980713
-5.793920040130615 -3.371680021286011 -1.373139977455139
-5.393919944763184 -2.298680067062378 -1.356140017509460
-5.616919994354248 -3.405679941177368 -1.425140023231506
-6.248919963836670 -2.777679920196533 -1.428140044212341
-6.295919895172119 -2.612679958343506 -1.439139962196350
-6.133920192718506 -3.324680089950562 -1.466140031814575
-6.190919876098633 -2.989680051803589 -1.460139989852905
-5.624919891357422 -1.904680013656616 -1.384140014648438
-5.432919979095459 -2.143680095672607 -1.410140037536621
-5.853919982910156 -3.243680000305176 -1.516139984130859
-6.204919815063477 -3.150680065155029 -1.548140048980713
-6.355919837951660 -2.469680070877075 -1.528139948844910
-6.452919960021973 -3.329679965972900 -1.575139999389648
-6.021920204162598 -3.219680070877075 -1.553140044212341
-5.481919765472412 -3.429680109024048 -1.537140011787415
-5.719920158386231 -3.345679998397827 -1.558140039443970
-5.521920204162598 -1.995679974555969 -1.500139951705933
-5.288919925689697 -2.337680101394653 -1.511139988899231
-6.243919849395752 -2.603679895401001 -1.630139946937561
-5.325920104980469 -2.175679922103882 -1.570140004158020
-6.096920013427734 -3.090679883956909 -1.660140037536621
-5.597919940948486 -3.392679929733276 -1.670140027999878
-5.187920093536377 -2.453680038452148 -1.606140017509460
-6.250919818878174 -3.027679920196533 -1.695140004158020
-5.921919822692871 -3.108680009841919 -1.683140039443970
-6.202919960021973 -2.830679893493652 -1.726140022277832
-5.259920120239258 -2.300679922103882 -1.682139992713928
-6.639920234680176 -3.281680107116699 -1.835139989852905
-6.435919761657715 -3.069679975509644 -1.829139947891235
-5.703919887542725 -3.269680023193359 -1.811139941215515
-6.189919948577881 -2.631680011749268 -1.805140018463135
-5.842919826507568 -3.158679962158203 -1.824139952659607
-6.322919845581055 -2.941679954528809 -1.839140057563782
-6.019919872283936 -2.968679904937744 -1.831140041351318
-5.181920051574707 -2.424679994583130 -1.770140051841736
-5.551919937133789 -3.335680007934570 -1.839140057563782
-6.552919864654541 -3.159679889678955 -1.910140037536621
-6.165919780731201 -2.998680114746094 -1.911139965057373
-6.219920158386231 -2.831680059432983 -1.910140037536621
-5.273920059204102 -2.293679952621460 -1.854140043258667
-6.547920227050781 -3.337680101394653 -1.975139975547791
-5.919919967651367 -3.057679891586304 -1.940140008926392
-6.402919769287109 -3.033679962158203 -1.993139982223511
-6.151919841766357 -2.633680105209351 -1.972139954566956
-5.810919761657715 -3.164680004119873 -2.009140014648438
-5.188920021057129 -2.414680004119873 -1.943140029907227
-6.408919811248779 -3.420680046081543 -2.055140018463135
-5.639920234680176 -3.233680009841919 -2.009140014648438
-6.273920059204102 -2.923680067062378 -2.040139913558960
-6.456920146942139 -3.228679895401001 -2.064140081405640
-5.472919940948486 -3.289680004119873 -2.022140026092529
-6.069920063018799 -2.966680049896240 -2.056139945983887
-5.908919811248779 -3.050679922103882 -2.108139991760254
-6.199920177459717 -3.057679891586304 -2.135139942169190
-6.099919795989990 -2.724679946899414 -2.117140054702759
-6.372920036315918 -3.315680027008057 -2.186140060424805
-6.175920009613037 -2.878679990768433 -2.170140027999878
-6.334919929504395 -3.147680044174194 -2.194139957427979
-6.186920166015625 -3.257679939270020 -2.193140029907227
-5.769919872283936 -3.154680013656616 -2.174139976501465
-5.604919910430908 -3.205679893493652 -2.191139936447144
-6.245920181274414 -3.410680055618286 -2.247139930725098
-6.062920093536377 -3.077680110931397 -2.239140033721924
-6.040919780731201 -3.301680088043213 -2.268140077590942
-5.904920101165772 -3.398679971694946 -2.299139976501465
-6.235919952392578 -3.078680038452148 -2.314140081405640
-6.275919914245606 -3.243680000305176 -2.341140031814575
-5.907919883728027 -3.186680078506470 -2.329139947891235
-6.121920108795166 -3.420680046081543 -2.374140024185181
-5.770919799804688 -3.299679994583130 -2.355139970779419
-5.637919902801514 -3.189680099487305 -2.356139898300171
-6.170919895172119 -3.271680116653442 -2.474139928817749
-6.069920063018799 -3.418679952621460 -2.545140027999878
