ply
format ascii 1.0
element vertex 141
property double x
property double y
property double z
end_header
-5.247079849243164 -4.640910148620606 -24.005599975585938
-5.188079833984375 -4.584909915924072 -23.789600372314453
-5.414080142974854 -4.435910224914551 -24.046600341796875
-5.247079849243164 -4.379909992218018 -23.910600662231445
-5.173079967498779 -4.542910099029541 -23.755599975585937
-5.174079895019531 -4.556910037994385 -23.738599777221680
-5.377079963684082 -4.437910079956055 -23.832599639892578
-5.241079807281494 -4.364910125732422 -23.772600173950195
-5.347080230712891 -4.768909931182861 -23.648599624633789
-5.389080047607422 -4.715909957885742 -23.603599548339844
-5.142079830169678 -4.540909767150879 -23.572599411010742
-5.375080108642578 -4.707910060882568 -23.531600952148438
-5.127079963684082 -4.559909820556641 -23.485599517822266
-5.298079967498779 -4.770909786224365 -23.433599472045898
-5.133080005645752 -4.624909877777100 -23.402599334716797
-5.153079986572266 -4.681910037994385 -23.395599365234375
-5.124080181121826 -4.658909797668457 -23.282600402832031
-5.301080226898193 -4.487909793853760 -23.290599822998047
-5.203080177307129 -4.379909992218018 -23.399599075317383
-5.088079929351807 -4.439909934997559 -23.251600265502930
-5.235079765319824 -4.416910171508789 -23.250600814819336
-5.308080196380615 -4.562910079956055 -23.185600280761719
-5.222080230712891 -4.406909942626953 -23.194599151611328
-5.194079875946045 -4.383910179138184 -23.205600738525391
-5.302080154418945 -4.660910129547119 -23.111600875854492
-5.161079883575440 -4.743909835815430 -23.107599258422852
-5.154079914093018 -4.740910053253174 -23.054599761962891
-5.220079898834229 -4.776909828186035 -23.035600662231445
-5.068079948425293 -4.653910160064697 -22.970600128173828
-5.024079799652100 -4.524909973144531 -22.973600387573242
-5.197080135345459 -4.416910171508789 -22.953599929809570
-5.142079830169678 -4.371910095214844 -22.912599563598633
-5.013080120086670 -4.462910175323486 -22.905599594116211
-5.007080078125000 -4.462910175323486 -22.877599716186523
-5.225080013275147 -4.490910053253174 -22.843599319458008
-5.224080085754395 -4.782909870147705 -22.864599227905273
-5.034080028533936 -4.639910221099854 -22.753599166870117
-5.157080173492432 -4.394909858703613 -22.837600708007813
-5.073080062866211 -4.702909946441650 -22.625600814819336
-5.143080234527588 -4.661910057067871 -22.584600448608398
-4.970079898834229 -4.481910228729248 -22.576599121093750
-5.041079998016357 -4.333909988403320 -22.646600723266602
-5.093080043792725 -4.393909931182861 -22.556600570678711
-5.262080192565918 -4.707910060882568 -22.586599349975586
-5.155079841613770 -4.537909984588623 -22.478599548339844
-5.006080150604248 -4.634910106658936 -22.499599456787109
-5.117080211639404 -4.602910041809082 -22.427600860595703
-4.942080020904541 -4.536910057067871 -22.429599761962891
-5.060080051422119 -4.392910003662109 -22.374599456787109
-4.935080051422119 -4.338910102844238 -22.387599945068359
-5.081079959869385 -4.610909938812256 -22.306600570678711
-5.077079772949219 -4.451910018920898 -22.251600265502930
-5.078080177307129 -4.522910118103027 -22.152599334716797
-5.064080238342285 -4.443910121917725 -22.201599121093750
-5.025080204010010 -4.394909858703613 -22.194599151611328
-4.866079807281494 -4.555910110473633 -22.146600723266602
-4.904079914093018 -4.626910209655762 -22.091600418090820
-4.857079982757568 -4.395909786224365 -22.150600433349609
-5.035079956054688 -4.521910190582275 -21.985599517822266
-4.950079917907715 -4.632909774780273 -22.004600524902344
-5.038080215454102 -4.478909969329834 -21.963600158691406
-4.872079849243164 -4.604909896850586 -21.988599777221680
-4.879079818725586 -4.304910182952881 -22.073600769042969
-4.834080219268799 -4.340909957885742 -22.021600723266602
-4.878079891204834 -4.605909824371338 -21.940599441528320
-4.813079833984375 -4.407909870147705 -21.936599731445313
-4.911079883575440 -4.317910194396973 -21.864599227905273
-4.925079822540283 -4.320909976959229 -21.723600387573242
-4.872079849243164 -4.272910118103027 -21.697599411010742
-4.937079906463623 -4.517910003662109 -21.517599105834961
-4.902080059051514 -4.335909843444824 -21.603599548339844
-4.853079795837402 -4.294909954071045 -21.538600921630859
-4.791079998016357 -4.610909938812256 -21.513599395751953
-4.738080024719238 -4.521910190582275 -21.467599868774414
-4.753079891204834 -4.556910037994385 -21.421600341796875
-4.716080188751221 -4.452909946441650 -21.429599761962891
-4.841080188751221 -4.214910030364990 -21.450599670410156
-4.693079948425293 -4.388909816741943 -21.386600494384766
-4.733079910278320 -4.534910202026367 -21.325599670410156
-4.875080108642578 -4.467909812927246 -21.256599426269531
-4.638080120086670 -4.281909942626953 -21.410600662231445
-4.851079940795898 -4.498909950256348 -21.194599151611328
-4.612080097198486 -4.296909809112549 -21.261600494384766
-4.645080089569092 -4.385910034179688 -21.196599960327148
-4.706079959869385 -4.532909870147705 -21.122600555419922
-4.748079776763916 -4.584909915924072 -21.089599609375000
-4.595079898834229 -4.160910129547119 -21.251600265502930
-4.805079936981201 -4.389910221099854 -21.012599945068359
-4.800079822540283 -4.384910106658936 -20.998600006103516
-4.681079864501953 -4.537909984588623 -20.990600585937500
-4.753079891204834 -4.316909790039063 -20.875600814819336
-4.614079952239990 -4.392910003662109 -21.034599304199219
-4.700079917907715 -4.249909877777100 -20.938600540161133
-4.597080230712891 -4.341909885406494 -21.018600463867188
-4.752079963684082 -4.517910003662109 -20.793600082397461
-4.691080093383789 -4.262909889221191 -20.844600677490234
-4.566080093383789 -4.277910232543945 -21.104600906372070
-4.593080043792725 -4.243909835815430 -20.941600799560547
-4.629079818725586 -4.208909988403320 -20.914600372314453
-4.707079887390137 -4.282909870147705 -20.739599227905273
-4.555079936981201 -4.163909912109375 -21.155599594116211
-4.613080024719238 -4.269909858703613 -20.722600936889648
-4.635079860687256 -4.571909904479981 -20.599599838256836
-4.594079971313477 -4.247910022735596 -20.532600402832031
-4.698080062866211 -4.429910182952881 -20.443599700927734
-4.644080162048340 -4.281909942626953 -20.310600280761719
-4.608079910278320 -4.236909866333008 -20.432600021362305
-4.643080234527588 -4.283909797668457 -20.285600662231445
-4.648079872131348 -4.562910079956055 -20.400600433349609
-4.509079933166504 -4.376910209655762 -20.450599670410156
-4.528079986572266 -4.281909942626953 -20.444599151611328
-4.663080215454102 -4.515910148620606 -20.279600143432617
-4.583079814910889 -4.564909934997559 -20.478599548339844
-4.613080024719238 -4.585909843444824 -20.412599563598633
-4.618080139160156 -4.582910060882568 -20.365600585937500
-4.652080059051514 -4.320909976959229 -20.174600601196289
-4.498079776763916 -4.239910125732422 -20.331600189208984
-4.608079910278320 -4.260910034179688 -20.182600021362305
-4.472080230712891 -4.255909919738770 -20.301599502563477
-4.742080211639404 -4.335909843444824 -20.132600784301758
-4.426080226898193 -4.315909862518311 -20.279600143432617
-4.566080093383789 -4.211909770965576 -20.150600433349609
-4.559080123901367 -4.202909946441650 -20.157600402832031
-4.553080081939697 -4.590909957885742 -20.168600082397461
-4.354080200195313 -4.415909767150879 -20.172599792480469
-4.638080120086670 -4.514910221099854 -19.986600875854492
-4.322080135345459 -4.359910011291504 -20.156600952148437
-4.350080013275147 -4.339910030364990 -20.078599929809570
-4.533080101013184 -4.615910053253174 -20.000600814819336
-4.638080120086670 -4.609910011291504 -19.509599685668945
-4.496079921722412 -4.709909915924072 -19.575599670410156
-4.604080200195313 -4.613910198211670 -19.594600677490234
-4.293079853057861 -4.291910171508789 -19.700599670410156
-4.577079772949219 -4.578909873962402 -19.629600524902344
-4.272079944610596 -4.490910053253174 -19.797599792480469
-4.646080017089844 -4.512909889221191 -19.828599929809570
-4.552080154418945 -4.616909980773926 -19.893600463867187
-4.301080226898193 -4.374909877777100 -20.002599716186523
-4.589079856872559 -4.578909873962402 -19.946599960327148
-4.464079856872559 -4.152910232543945 -20.014600753784180
-4.706079959869385 -4.384910106658936 -19.970600128173828
