ply
format ascii 1.0
element vertex 703
property double x
property double y
property double z
end_header
-2.111079931259155 -8.222909927368164 -13.730600357055664
-2.010080099105835 -8.530909538269043 -13.683600425720215
-1.984079957008362 -8.519909858703613 -13.701600074768066
-2.102080106735230 -8.365909576416016 -13.707599639892578
-2.111079931259155 -8.222909927368164 -13.730600357055664
-2.002079963684082 -8.564909934997559 -13.735600471496582
-2.138079881668091 -8.171910285949707 -13.743599891662598
-2.093080043792725 -8.605910301208496 -13.730600357055664
-2.177079916000366 -8.349909782409668 -13.733599662780762
-2.041079998016357 -8.225910186767578 -13.771599769592285
-2.739079952239990 -8.583909988403320 -13.620599746704102
-2.797080039978027 -8.587909698486328 -13.613599777221680
-2.248080015182495 -8.322910308837891 -13.759599685668945
-2.642080068588257 -8.475910186767578 -13.679599761962891
-2.894079923629761 -8.288909912109375 -13.639599800109863
-2.280080080032349 -8.691909790039063 -13.746600151062012
-2.582079887390137 -8.535909652709961 -13.700599670410156
-2.313080072402954 -8.031909942626953 -13.792599678039551
-2.747080087661743 -8.686909675598145 -13.658599853515625
-2.936079978942871 -8.284910202026367 -13.645600318908691
-2.006079912185669 -8.952910423278809 -13.802599906921387
-2.139080047607422 -7.882909774780273 -13.843600273132324
-2.335079908370972 -8.317910194396973 -13.776599884033203
-2.897079944610596 -8.229909896850586 -13.661600112915039
-2.376080036163330 -8.234910011291504 -13.773599624633789
-2.561079978942871 -8.506910324096680 -13.716600418090820
-2.386080026626587 -8.259909629821777 -13.776599884033203
-2.352080106735230 -8.511910438537598 -13.768600463867188
-2.348079919815064 -7.187910079956055 -13.861599922180176
-2.539079904556274 -8.399909973144531 -13.742600440979004
-2.749079942703247 -8.193909645080566 -13.711600303649902
-2.345079898834229 -8.697910308837891 -13.770600318908691
-2.303080081939697 -7.513909816741943 -13.856599807739258
-2.451080083847046 -8.291910171508789 -13.775600433349609
-2.812079906463623 -8.130909919738770 -13.708600044250488
-2.174079895019531 -8.990909576416016 -13.790599822998047
-2.757080078125000 -8.769909858703613 -13.682600021362305
-2.310080051422119 -7.553909778594971 -13.858599662780762
-2.431080102920532 -7.920909881591797 -13.809599876403809
-2.213079929351807 -8.066909790039063 -13.849599838256836
-2.593080043792725 -8.725910186767578 -13.725600242614746
-2.273080110549927 -8.940910339355469 -13.783599853515625
-2.983079910278320 -8.312910079956055 -13.673600196838379
-2.302079916000366 -7.343910217285156 -13.884599685668945
-2.088079929351807 -8.787910461425781 -13.837599754333496
-1.929080009460449 -9.051910400390625 -13.855600357055664
-1.952080011367798 -9.110910415649414 -13.847599983215332
-3.032079935073853 -8.215909957885742 -13.676600456237793
-2.208080053329468 -8.411910057067871 -13.844599723815918
-2.320080041885376 -8.943909645080566 -13.787599563598633
-3.030080080032349 -8.235910415649414 -13.681599617004395
-3.099080085754395 -7.602910041809082 -13.710599899291992
-2.250080108642578 -8.266909599304199 -13.852600097656250
-2.892080068588257 -8.711910247802734 -13.686599731445313
-2.434079885482788 -7.676909923553467 -13.852600097656250
-2.247080087661743 -8.300909996032715 -13.853599548339844
-2.665080070495606 -7.979909896850586 -13.788599967956543
-2.221080064773560 -9.100910186767578 -13.815600395202637
-3.060080051422119 -8.228910446166992 -13.692600250244141
-2.704080104827881 -8.867910385131836 -13.728599548339844
-3.048079967498779 -7.636909961700440 -13.736599922180176
-3.089080095291138 -7.805910110473633 -13.720600128173828
-2.695080041885376 -7.895909786224365 -13.801600456237793
-2.438080072402954 -7.435910224914551 -13.888600349426270
-3.014080047607422 -7.703909873962402 -13.747599601745605
-1.894080042839050 -9.225910186767578 -13.890600204467773
-3.089080095291138 -8.213910102844238 -13.700599670410156
-3.077080011367798 -7.722909927368164 -13.735600471496582
-2.321079969406128 -9.158909797668457 -13.809599876403809
-2.471080064773560 -7.506909847259522 -13.884599685668945
-2.342080116271973 -9.133910179138184 -13.807600021362305
-2.920079946517944 -8.519909858703613 -13.724599838256836
-3.143079996109009 -7.440909862518311 -13.746600151062012
-2.879080057144165 -7.774909973144531 -13.787599563598633
-2.820080041885376 -8.796910285949707 -13.734600067138672
-1.906080007553101 -9.159910202026367 -13.908599853515625
-2.315079927444458 -7.642910003662109 -13.918600082397461
-2.092080116271973 -9.128910064697266 -13.872599601745605
-2.943079948425293 -7.726910114288330 -13.780599594116211
-2.675080060958862 -9.031909942626953 -13.755599975585938
-2.697079896926880 -9.115909576416016 -13.745599746704102
-2.998080015182495 -7.593910217285156 -13.780599594116211
-2.527080059051514 -7.544909954071045 -13.889599800109863
-2.310080051422119 -8.407910346984863 -13.880599975585938
-2.804080009460449 -7.746910095214844 -13.817600250244141
-2.207079887390137 -8.838910102844238 -13.875599861145020
-2.714080095291138 -7.777910232543945 -13.836600303649902
-2.316080093383789 -8.419910430908203 -13.881600379943848
-2.794080018997192 -7.708909988403320 -13.830599784851074
-2.661079883575440 -9.078909873962402 -13.772600173950195
-2.385080099105835 -8.301910400390625 -13.882599830627441
-2.362080097198486 -7.687910079956055 -13.927599906921387
-2.286079883575440 -8.648909568786621 -13.885600090026855
-2.390079975128174 -7.990910053253174 -13.906599998474121
-2.901079893112183 -7.640910148620606 -13.820599555969238
-2.607079982757568 -8.960909843444824 -13.799599647521973
-3.034080028533936 -8.245909690856934 -13.754599571228027
-2.498080015182495 -8.852910041809082 -13.836600303649902
-2.726079940795898 -9.217909812927246 -13.766599655151367
-2.822079896926880 -8.525910377502441 -13.792599678039551
-2.613080024719238 -9.039910316467285 -13.804599761962891
-2.895080089569092 -8.405909538269043 -13.785599708557129
-2.300080060958862 -8.796910285949707 -13.888600349426270
-2.517080068588257 -7.193910121917725 -13.946599960327148
-2.585079908370972 -7.540909767150879 -13.911600112915039
-2.418080091476440 -7.831910133361816 -13.929599761962891
-2.374079942703247 -8.610910415649414 -13.890600204467773
-2.436079978942871 -7.916910171508789 -13.923600196838379
-2.820080041885376 -8.485910415649414 -13.804599761962891
-2.415080070495606 -8.507909774780273 -13.890600204467773
-2.517080068588257 -8.976909637451172 -13.838600158691406
-3.209079980850220 -7.909910202026367 -13.759599685668945
-2.509079933166504 -8.066909790039063 -13.900600433349609
-2.759079933166504 -8.593910217285156 -13.813599586486816
-2.967080116271973 -8.245909690856934 -13.792599678039551
-2.407079935073853 -7.304910182952881 -13.976599693298340
-2.443079948425293 -7.855909824371338 -13.934599876403809
-2.495079994201660 -8.369910240173340 -13.891599655151367
-3.196079969406128 -7.502910137176514 -13.798600196838379
-2.753079891204834 -8.538909912109375 -13.827599525451660
-2.160079956054688 -8.997909545898438 -13.925600051879883
-2.561079978942871 -8.236909866333008 -13.892600059509277
-2.688080072402954 -9.092909812927246 -13.811599731445313
-2.220079898834229 -9.260910034179688 -13.901599884033203
-2.551079988479614 -8.523909568786621 -13.878600120544434
-2.532079935073853 -7.122910022735596 -13.973600387573242
-2.516079902648926 -7.043910026550293 -13.988599777221680
-2.627079963684082 -8.869910240173340 -13.848600387573242
-3.061079978942871 -7.326910018920898 -13.855600357055664
-3.094079971313477 -8.023909568786621 -13.803600311279297
-2.585079908370972 -8.015910148620606 -13.914600372314453
-2.511080026626587 -7.818910121917725 -13.945599555969238
-2.705080032348633 -7.572909832000732 -13.920599937438965
-2.514080047607422 -7.817910194396973 -13.946599960327148
-2.526079893112183 -6.686910152435303 -14.018600463867188
-2.742079973220825 -7.569910049438477 -13.916600227355957
-2.677079916000366 -8.290909767150879 -13.884599685668945
-2.686079978942871 -9.363909721374512 -13.814599990844727
-2.720079898834229 -7.555910110473633 -13.925600051879883
-2.656080007553101 -8.977910041809082 -13.847599983215332
-2.537080049514771 -8.848910331726074 -13.885600090026855
-3.191080093383789 -7.504909992218018 -13.832599639892578
-3.028079986572266 -8.056909561157227 -13.832599639892578
-2.663079977035523 -9.166910171508789 -13.839599609375000
-2.451080083847046 -8.868909835815430 -13.904600143432617
-2.246079921722412 -8.998909950256348 -13.940600395202637
-2.594079971313477 -8.934909820556641 -13.870599746704102
-2.894079923629761 -8.109910011291504 -13.860600471496582
-2.976079940795898 -8.081910133361816 -13.848600387573242
-2.669080018997192 -8.018910408020020 -13.919599533081055
-2.078079938888550 -9.419910430908203 -13.957599639892578
-2.162080049514771 -9.084910392761231 -13.962599754333496
-3.076080083847046 -7.975910186767578 -13.840600013732910
-3.002079963684082 -8.040909767150879 -13.852600097656250
-2.662080049514771 -7.955910205841065 -13.931599617004395
-2.746079921722412 -8.067910194396973 -13.906599998474121
-2.124079942703247 -9.136910438537598 -13.974599838256836
-2.480079889297485 -7.134910106658936 -14.028599739074707
-2.863080024719238 -8.023909568786621 -13.889599800109863
-2.686079978942871 -7.962910175323486 -13.932600021362305
-2.556080102920532 -9.391909599304199 -13.870599746704102
-2.994080066680908 -7.349909782409668 -13.908599853515625
-2.820080041885376 -8.004910469055176 -13.904600143432617
-2.070080041885376 -9.207909584045410 -13.989600181579590
-2.499079942703247 -6.742909908294678 -14.062600135803223
-2.965080022811890 -7.356910228729248 -13.923600196838379
-3.147079944610596 -7.142910003662109 -13.900600433349609
-2.500080108642578 -6.762909889221191 -14.067600250244141
-2.571079969406128 -6.976910114288330 -14.038599967956543
-2.536079883575440 -7.333909988403320 -14.025600433349609
-2.504080057144165 -6.738910198211670 -14.073599815368652
-3.156080007553101 -7.103909969329834 -13.910599708557129
-2.584079980850220 -6.873909950256348 -14.051600456237793
-2.803080081939697 -7.859910011291504 -13.942600250244141
-2.624079942703247 -7.576910018920898 -13.999600410461426
-2.673079967498779 -7.695909976959229 -13.981599807739258
-2.068079948425293 -9.260910034179688 -14.011599540710449
-3.221080064773560 -6.970910072326660 -13.918600082397461
-3.185080051422119 -7.387909889221191 -13.900600433349609
-3.040080070495606 -7.205910205841065 -13.943599700927734
-3.080080032348633 -7.771910190582275 -13.899600028991699
-2.581079959869385 -9.209910392761231 -13.914600372314453
-2.020080089569092 -9.335909843444824 -14.030599594116211
-1.987079977989197 -9.444910049438477 -14.034600257873535
-2.955080032348633 -7.278910160064697 -13.966600418090820
-2.959079980850220 -7.747910022735596 -13.936599731445313
-2.877079963684082 -7.718910217285156 -13.961600303649902
-2.808079957962036 -7.680910110473633 -13.981599807739258
-2.893079996109009 -7.298910140991211 -13.988599777221680
-2.882080078125000 -7.691909790039063 -13.966600418090820
-2.983079910278320 -7.214910030364990 -13.976599693298340
-2.705080032348633 -7.224909782409668 -14.036600112915039
-2.106080055236816 -9.291910171508789 -14.032600402832031
-2.956079959869385 -7.651909828186035 -13.961600303649902
-2.810080051422119 -7.615910053253174 -13.995599746704102
-2.213079929351807 -9.451910018920898 -14.008600234985352
-2.627079963684082 -7.328909873962402 -14.056599617004395
-2.607079982757568 -7.185910224914551 -14.071599960327148
-3.047080039978027 -7.517910003662109 -13.955599784851074
-2.648080110549927 -6.977910041809082 -14.082599639892578
-2.958080053329468 -7.192910194396973 -14.008600234985352
-2.526079893112183 -9.559909820556641 -13.950599670410156
-2.083080053329468 -9.371910095214844 -14.058600425720215
-1.995079994201660 -9.453909873962402 -14.077599525451660
-3.119080066680908 -7.040909767150879 -13.991600036621094
-3.154079914093018 -7.004909992218018 -13.986599922180176
-2.872080087661743 -7.513909816741943 -14.014599800109863
-3.156080007553101 -7.002910137176514 -13.986599922180176
-2.705080032348633 -7.376910209655762 -14.063599586486816
-2.153079986572266 -9.345910072326660 -14.055600166320801
-2.845079898834229 -7.491909980773926 -14.026599884033203
-2.764080047607422 -7.231910228729248 -14.061599731445312
-2.037080049514771 -9.425909996032715 -14.076600074768066
-2.531080007553101 -9.605910301208496 -13.960599899291992
-2.547080039978027 -9.636910438537598 -13.955599784851074
-2.665080070495606 -7.245910167694092 -14.084600448608398
-2.040080070495606 -9.436909675598145 -14.083600044250488
-3.036079883575440 -7.082910060882568 -14.022600173950195
-2.769079923629761 -7.388909816741943 -14.065600395202637
-2.915080070495606 -7.441909790039063 -14.033599853515625
-2.542079925537109 -9.498909950256348 -13.983599662780762
-2.560080051422119 -6.666910171508789 -14.162599563598633
-2.600080013275147 -6.484910011291504 -14.167599678039551
-2.975080013275147 -7.434909820556641 -14.027600288391113
-2.779079914093018 -7.341909885406494 -14.078599929809570
-3.095079898834229 -7.026909828186035 -14.032600402832031
-2.550080060958862 -9.628910064697266 -13.982600212097168
-3.156080007553101 -6.962910175323486 -14.025600433349609
-2.821079969406128 -7.348909854888916 -14.073599815368652
-2.642080068588257 -6.483910083770752 -14.172599792480469
-2.528079986572266 -9.559909820556641 -14.002599716186523
-2.394079923629761 -9.388910293579102 -14.044599533081055
-2.202080011367798 -9.414910316467285 -14.084600448608398
-1.979079961776733 -9.645910263061523 -14.118599891662598
-2.433079957962036 -9.655909538269043 -14.029600143432617
-3.292079925537109 -6.987909793853760 -14.022600173950195
-2.675080060958862 -6.570909976959229 -14.183600425720215
-2.264080047607422 -9.566909790039063 -14.096599578857422
-2.479079961776733 -9.591910362243652 -14.050600051879883
-2.894079923629761 -7.190909862518311 -14.116600036621094
-2.427079916000366 -9.516909599304199 -14.067600250244141
-2.966079950332642 -7.071909904479981 -14.110600471496582
-2.037080049514771 -9.561909675598145 -14.151599884033203
-3.268079996109009 -6.788909912109375 -14.069600105285645
-1.891080021858215 -9.762909889221191 -14.188599586486816
-2.048079967498779 -9.594909667968750 -14.170599937438965
-2.893079996109009 -7.081910133361816 -14.151599884033203
-2.163079977035523 -9.546910285949707 -14.149600028991699
-2.780080080032349 -7.079909801483154 -14.176600456237793
-2.262079954147339 -9.551910400390625 -14.131600379943848
-2.824079990386963 -7.036910057067871 -14.176600456237793
-2.424079895019531 -9.927909851074219 -14.077599525451660
-2.369080066680908 -9.842909812927246 -14.096599578857422
-2.396080017089844 -9.905909538269043 -14.087599754333496
-2.730079889297485 -6.614910125732422 -14.228599548339844
-2.888079881668091 -7.126910209655762 -14.161600112915039
-2.145080089569092 -9.769909858703613 -14.155599594116211
-2.833080053329468 -7.007909774780273 -14.187600135803223
-1.958080053329468 -9.826910018920898 -14.194600105285645
-2.836080074310303 -6.998909950256348 -14.190600395202637
-2.732079982757568 -6.577909946441650 -14.240599632263184
-2.424079895019531 -9.956910133361816 -14.089599609375000
-2.251080036163330 -9.585909843444824 -14.151599884033203
-3.015079975128174 -7.151909828186035 -14.148599624633789
-2.236079931259155 -9.598910331726074 -14.162599563598633
-2.279079914093018 -9.643910408020020 -14.151599884033203
-2.799079895019531 -6.832910060882568 -14.229599952697754
-2.273080110549927 -9.660909652709961 -14.161600112915039
-2.341079950332642 -9.675909996032715 -14.155599594116211
-2.280080080032349 -9.653909683227539 -14.173600196838379
-2.642080068588257 -6.534910202026367 -14.299599647521973
-3.347079992294312 -6.866909980773926 -14.127599716186523
-3.408080101013184 -6.768909931182861 -14.122599601745605
-1.987079977989197 -9.892910003662109 -14.227600097656250
-1.916079998016357 -9.789910316467285 -14.254599571228027
-2.052079916000366 -9.704910278320313 -14.237600326538086
-2.707079887390137 -6.747910022735596 -14.291600227355957
-2.390079975128174 -9.869910240173340 -14.159600257873535
-3.373080015182495 -6.831910133361816 -14.144599914550781
-3.062079906463623 -7.049910068511963 -14.198599815368652
-2.804080009460449 -6.919909954071045 -14.264599800109863
-2.759079933166504 -6.837910175323486 -14.282600402832031
-2.848079919815064 -6.977910041809082 -14.254599571228027
-2.894079923629761 -7.006909847259522 -14.244600296020508
-2.659080028533936 -6.530910015106201 -14.327599525451660
-2.725080013275147 -6.757909774780273 -14.299599647521973
-2.026079893112183 -9.741909980773926 -14.261599540710449
-2.045079946517944 -9.743909835815430 -14.262599945068359
-2.191080093383789 -9.730910301208496 -14.239600181579590
-2.862080097198486 -6.933909893035889 -14.282600402832031
-3.245079994201660 -6.736909866333008 -14.215600013732910
-3.257080078125000 -6.891910076141357 -14.208600044250488
-1.894080042839050 -9.981909751892090 -14.306599617004395
-2.848079919815064 -6.648910045623779 -14.324600219726562
-2.699079990386963 -6.323910236358643 -14.380599975585937
-2.171080112457275 -9.962909698486328 -14.266599655151367
-3.021080017089844 -6.843910217285156 -14.286600112915039
-2.342080116271973 -9.984910011291504 -14.246600151062012
-3.125080108642578 -6.912909984588623 -14.278599739074707
-3.315079927444458 -6.822909832000732 -14.243599891662598
-3.100080013275147 -6.791910171508789 -14.295599937438965
-2.919080018997192 -6.748909950256348 -14.349599838256836
-3.082079887390137 -6.893909931182861 -14.306599617004395
-2.360080003738403 -10.132900238037109 -14.255599975585937
-1.863080024719238 -10.078900337219238 -14.366600036621094
-2.817080020904541 -6.721909999847412 -14.381600379943848
-3.415080070495606 -6.743909835815430 -14.252599716186523
-1.964079976081848 -10.059900283813477 -14.353599548339844
-2.353080034255981 -10.136899948120117 -14.271599769592285
-3.178080081939697 -6.866909980773926 -14.311599731445313
-1.951079964637756 -9.941909790039063 -14.377599716186523
-2.228080034255981 -10.136899948120117 -14.311599731445313
-1.930080056190491 -9.972909927368164 -14.395600318908691
-2.796080112457275 -6.574910163879395 -14.435600280761719
-2.789079904556274 -6.557909965515137 -14.439599990844727
-2.788079977035523 -6.554910182952881 -14.440600395202637
-2.154079914093018 -9.927909851074219 -14.362600326538086
-3.494080066680908 -6.628910064697266 -14.290599822998047
-2.087080001831055 -9.941909790039063 -14.383600234985352
-1.959079980850220 -10.118900299072266 -14.404600143432617
-3.437079906463623 -6.604909896850586 -14.322600364685059
-2.682080030441284 -6.273910045623779 -14.515600204467773
-3.426079988479614 -6.705910205841065 -14.328599929809570
-2.270080089569092 -10.054900169372559 -14.364600181579590
-2.179080009460449 -10.141900062561035 -14.378600120544434
-3.184079885482788 -6.657909870147705 -14.387599945068359
-3.206079959869385 -6.787909984588623 -14.381600379943848
-2.930079936981201 -6.481910228729248 -14.469599723815918
-2.750080108642578 -6.398910045623779 -14.516599655151367
-3.524080038070679 -6.619909763336182 -14.343600273132324
-2.241080045700073 -10.284899711608887 -14.384599685668945
-3.233079910278320 -6.610909938812256 -14.410599708557129
-1.952080011367798 -10.199899673461914 -14.458600044250488
-2.022079944610596 -10.049900054931641 -14.454600334167480
-2.908080101013184 -6.616909980773926 -14.492600440979004
-1.867079973220825 -10.257900238037109 -14.488599777221680
-1.919080018997192 -10.106900215148926 -14.487600326538086
-2.075079917907715 -10.063899993896484 -14.458600044250488
-2.135080099105835 -10.068900108337402 -14.448599815368652
-1.995079994201660 -10.205900192260742 -14.470600128173828
-1.945080041885376 -10.237899780273437 -14.480600357055664
-2.974080085754395 -6.655910015106201 -14.496600151062012
-1.827080011367798 -10.280900001525879 -14.509599685668945
-3.042079925537109 -6.670909881591797 -14.502599716186523
-3.249079942703247 -6.558909893035889 -14.470600128173828
-2.172080039978027 -10.193900108337402 -14.469599723815918
-2.908080101013184 -6.525909900665283 -14.549599647521973
-1.983080029487610 -10.298899650573730 -14.520600318908691
-2.215080022811890 -10.193900108337402 -14.477600097656250
-2.039079904556274 -10.286899566650391 -14.511599540710449
-2.718080043792725 -5.993909835815430 -14.643600463867187
-3.501080036163330 -6.514910221099854 -14.444600105285645
-2.824079990386963 -6.342909812927246 -14.613599777221680
-3.503079891204834 -6.503910064697266 -14.457599639892578
-2.832079887390137 -6.346909999847412 -14.617600440979004
-2.842080116271973 -6.150909900665283 -14.636599540710449
-2.718080043792725 -5.984910011291504 -14.690600395202637
-3.556080102920532 -6.587910175323486 -14.471599578857422
-3.204080104827881 -6.620910167694092 -14.550600051879883
-1.803079962730408 -10.411899566650391 -14.611599922180176
-3.503079891204834 -6.587910175323486 -14.495599746704102
-2.243079900741577 -10.424900054931641 -14.534600257873535
-2.206079959869385 -10.347900390625000 -14.562600135803223
-3.232079982757568 -6.459909915924072 -14.599599838256836
-3.612080097198486 -6.522910118103027 -14.519599914550781
-2.229079961776733 -10.549900054931641 -14.557600021362305
-3.634079933166504 -6.441909790039063 -14.528599739074707
-1.985080003738403 -10.426899909973145 -14.628600120544434
-2.111079931259155 -10.493900299072266 -14.598600387573242
-2.867079973220825 -6.236909866333008 -14.711600303649902
-2.955080032348633 -6.367909908294678 -14.689599990844727
-3.640079975128174 -6.427909851074219 -14.544599533081055
-2.789079904556274 -5.900909900665283 -14.764599800109863
-2.917079925537109 -6.092909812927246 -14.725600242614746
-1.859079957008362 -10.481900215148926 -14.672599792480469
-2.880079984664917 -6.197909832000732 -14.742600440979004
-2.160079956054688 -10.561900138854980 -14.622599601745605
-1.826079964637756 -10.351900100708008 -14.710599899291992
-3.163079977035523 -6.472909927368164 -14.675600051879883
-1.987079977989197 -10.322899818420410 -14.681599617004395
-2.224080085754395 -10.563899993896484 -14.615599632263184
-2.865080118179321 -5.763909816741943 -14.789600372314453
-2.955080032348633 -6.082910060882568 -14.758600234985352
-2.823080062866211 -5.883910179138184 -14.801600456237793
-2.143079996109009 -10.407899856567383 -14.661600112915039
-1.984079957008362 -10.504899978637695 -14.692600250244141
-1.896080017089844 -10.367899894714355 -14.726599693298340
-2.955080032348633 -6.012909889221191 -14.786600112915039
-3.424079895019531 -6.482910156250000 -14.656599998474121
-2.918080091476440 -5.851910114288330 -14.806599617004395
-3.520080089569092 -6.472909927368164 -14.642600059509277
-2.950079917907715 -5.972909927368164 -14.797599792480469
-2.201080083847046 -10.539899826049805 -14.674599647521973
-2.866080045700073 -5.973909854888916 -14.827599525451660
-3.025079965591431 -6.300909996032715 -14.774600028991699
-2.978080034255981 -6.038909912109375 -14.802599906921387
-3.411079883575440 -6.320909976959229 -14.691599845886230
-2.143079996109009 -10.464900016784668 -14.700599670410156
-3.669080018997192 -6.370910167694092 -14.637599945068359
-2.864079952239990 -5.871910095214844 -14.844599723815918
-2.868079900741577 -5.893909931182861 -14.849599838256836
-2.952080011367798 -6.155910015106201 -14.819600105285645
-1.815080046653748 -10.425900459289551 -14.795599937438965
-3.066080093383789 -6.297910213470459 -14.799599647521973
-2.905080080032349 -5.707910060882568 -14.883600234985352
-2.900079965591431 -5.952909946441650 -14.869600296020508
-1.789080023765564 -10.456899642944336 -14.823599815368652
-1.934080004692078 -10.427900314331055 -14.795599937438965
-3.268079996109009 -6.394909858703613 -14.769599914550781
-3.716079950332642 -6.237909793853760 -14.706600189208984
-3.161079883575440 -6.250909805297852 -14.835599899291992
-1.812080025672913 -10.621899604797363 -14.849599838256836
-3.155080080032349 -6.230909824371338 -14.846599578857422
-1.844079971313477 -10.632900238037109 -14.844599723815918
-3.229079961776733 -6.322909832000732 -14.827599525451660
-3.386080026626587 -6.372910022735596 -14.795599937438965
-3.601079940795898 -6.327909946441650 -14.763600349426270
-1.807080030441284 -10.499899864196777 -14.886599540710449
-3.233079910278320 -6.255909919738770 -14.855600357055664
-2.051079988479614 -10.513899803161621 -14.837599754333496
-2.091079950332642 -10.701899528503418 -14.825599670410156
-3.690079927444458 -6.210909843444824 -14.779600143432617
-3.539079904556274 -6.140910148620606 -14.829600334167480
-3.545079946517944 -6.278910160064697 -14.832599639892578
-3.094079971313477 -5.971909999847412 -14.966600418090820
-2.033080101013184 -10.727899551391602 -14.894599914550781
-1.792080044746399 -10.682900428771973 -14.963600158691406
-3.051079988479614 -5.521910190582275 -15.030599594116211
-3.073080062866211 -6.030910015106201 -14.995599746704102
-1.846079945564270 -10.557900428771973 -14.968600273132324
-1.987079977989197 -10.732899665832520 -14.934599876403809
-3.021080017089844 -5.864910125732422 -15.026599884033203
-1.975080013275147 -10.728899955749512 -14.938599586486816
-3.023080110549927 -5.808909893035889 -15.045599937438965
-3.135080099105835 -5.978909969329834 -15.010600090026855
-3.049079895019531 -5.880909919738770 -15.047599792480469
-3.665080070495606 -6.077909946441650 -14.909600257873535
-3.589080095291138 -6.143909931182861 -14.927599906921387
-1.769080042839050 -10.671899795532227 -15.046600341796875
-3.155080080032349 -6.027910232543945 -15.061599731445313
-1.718080043792725 -10.678899765014648 -15.074600219726563
-3.076080083847046 -5.752910137176514 -15.115599632263184
-3.569080114364624 -6.084909915924072 -14.990599632263184
-2.039079904556274 -10.678899765014648 -15.025600433349609
-2.101079940795898 -10.727899551391602 -15.010600090026855
-3.707079887390137 -5.935910224914551 -14.977600097656250
-3.608079910278320 -6.025909900665283 -15.002599716186523
-1.912080049514771 -10.640899658203125 -15.086600303649902
-3.149080038070679 -5.674910068511963 -15.146599769592285
-3.448080062866211 -6.041910171508789 -15.064599990844727
-3.400079965591431 -6.125909805297852 -15.073599815368652
-3.436079978942871 -6.032909870147705 -15.094599723815918
-3.709079980850220 -5.868909835815430 -15.046600341796875
-3.378079891204834 -6.046909809112549 -15.116600036621094
-3.159080028533936 -5.613910198211670 -15.194600105285645
-3.192080020904541 -5.846909999847412 -15.174599647521973
-1.723080039024353 -10.729900360107422 -15.178600311279297
-1.866080045700073 -10.673899650573730 -15.169599533081055
-2.044080018997192 -10.881899833679199 -15.126600265502930
-3.555079936981201 -5.948910236358643 -15.132599830627441
-3.592080116271973 -5.887909889221191 -15.131600379943848
-3.194080114364624 -5.777910232543945 -15.232600212097168
-1.875079989433289 -10.853899955749512 -15.200599670410156
-3.739079952239990 -5.763909816741943 -15.135600090026855
-3.700079917907715 -5.730909824371338 -15.147600173950195
-3.766079902648926 -5.665909767150879 -15.138600349426270
-3.145080089569092 -5.397910118103027 -15.290599822998047
-3.232079982757568 -5.832910060882568 -15.256600379943848
-3.237080097198486 -5.843910217285156 -15.255599975585937
-3.574079990386963 -5.886909961700440 -15.185600280761719
-3.530080080032349 -5.925909996032715 -15.197600364685059
-3.527080059051514 -5.927909851074219 -15.202599525451660
-3.252079963684082 -5.849909782409668 -15.267600059509277
-1.937080025672913 -10.876899719238281 -15.229599952697754
-2.074079990386963 -10.877900123596191 -15.206600189208984
-3.396080017089844 -5.988910198211670 -15.250599861145020
-3.163079977035523 -5.427909851074219 -15.337599754333496
-3.259079933166504 -5.830910205841065 -15.293600082397461
-3.531080007553101 -5.908909797668457 -15.239600181579590
-1.762079954147339 -10.873900413513184 -15.301600456237793
-1.948079943656921 -10.764900207519531 -15.276599884033203
-3.628079891204834 -5.782909870147705 -15.254599571228027
-1.866080045700073 -10.899900436401367 -15.315600395202637
-3.351079940795898 -5.907909870147705 -15.318599700927734
-2.056080102920532 -10.949899673461914 -15.279600143432617
-3.470079898834229 -5.893909931182861 -15.308600425720215
-3.685080051422119 -5.756909847259522 -15.273599624633789
-3.637079954147339 -5.798910140991211 -15.283599853515625
-3.693079948425293 -5.743909835815430 -15.282600402832031
-3.510080099105835 -5.917910099029541 -15.318599700927734
-3.726079940795898 -5.706910133361816 -15.293600082397461
-3.178080081939697 -5.397910118103027 -15.455599784851074
-3.184079885482788 -5.406909942626953 -15.463600158691406
-3.558079957962036 -5.825910091400147 -15.364600181579590
-3.556080102920532 -5.828909873962402 -15.368599891662598
-3.453079938888550 -5.905910015106201 -15.411600112915039
-2.040080070495606 -10.894900321960449 -15.397600173950195
-3.568079948425293 -5.791910171508789 -15.413599967956543
-3.393079996109009 -5.818910121917725 -15.456600189208984
-3.586080074310303 -5.769909858703613 -15.418600082397461
-3.417079925537109 -5.837910175323486 -15.465600013732910
-1.903079986572266 -10.964900016784668 -15.479599952697754
-1.857079982757568 -10.813899993896484 -15.500599861145020
-2.014080047607422 -10.901900291442871 -15.498600006103516
-3.221080064773560 -5.393909931182861 -15.635600090026855
-3.267080068588257 -5.484910011291504 -15.626600265502930
-1.873080015182495 -10.988900184631348 -15.583600044250488
-3.355079889297485 -5.609910011291504 -15.657600402832031
-3.294080018997192 -5.488910198211670 -15.683600425720215
-3.181080102920532 -5.305910110473633 -15.729599952697754
-1.846079945564270 -11.009900093078613 -15.652600288391113
-2.010080099105835 -10.965900421142578 -15.641599655151367
-3.667079925537109 -5.628910064697266 -15.639599800109863
-2.001080036163330 -11.000900268554688 -15.663599967956543
-3.860080003738403 -5.529910087585449 -15.624600410461426
-3.389080047607422 -5.599909782409668 -15.721599578857422
-3.524080038070679 -5.698910236358643 -15.689599990844727
-3.442080020904541 -5.659910202026367 -15.716600418090820
-3.438080072402954 -5.651909828186035 -15.720600128173828
-3.970079898834229 -5.462910175323486 -15.625599861145020
-3.326080083847046 -5.457910060882568 -15.792599678039551
-3.522079944610596 -5.653910160064697 -15.781599998474121
-1.841079950332642 -10.881899833679199 -15.808600425720215
-3.358079910278320 -5.471909999847412 -15.834600448608398
-3.526079893112183 -5.681910037994385 -15.785599708557129
-1.747079968452454 -10.898900032043457 -15.855600357055664
-3.935080051422119 -5.458909988403320 -15.741600036621094
-3.350080013275147 -5.425909996032715 -15.880599975585938
-3.557080030441284 -5.664909839630127 -15.823599815368652
-3.402080059051514 -5.498909950256348 -15.870599746704102
-3.926079988479614 -5.455910205841065 -15.786600112915039
-3.348079919815064 -5.391910076141357 -15.923600196838379
-3.961080074310303 -5.448910236358643 -15.794599533081055
-3.454080104827881 -5.522910118103027 -15.899600028991699
-3.533080101013184 -5.592909812927246 -15.879599571228027
-1.754080057144165 -11.045900344848633 -15.940600395202637
-1.870079994201660 -10.914899826049805 -15.927599906921387
-3.995079994201660 -5.430910110473633 -15.833600044250488
-3.446079969406128 -5.478909969329834 -15.952599525451660
-1.881080031394959 -10.924900054931641 -15.978599548339844
-1.873080015182495 -11.057900428771973 -15.995599746704102
-3.535079956054688 -5.502910137176514 -16.035600662231445
-3.829080104827881 -5.459909915924072 -15.980600357055664
-3.248080015182495 -5.216909885406494 -16.123600006103516
-3.477080106735230 -5.434909820556641 -16.061599731445313
-4.064080238342285 -5.394909858703613 -15.941599845886230
-3.973079919815064 -5.399909973144531 -15.965600013732910
-1.837080001831055 -11.091899871826172 -16.070600509643555
-3.552079916000366 -5.492909908294678 -16.064599990844727
-4.006080150604248 -5.388909816741943 -15.979599952697754
-3.342080116271973 -5.272910118103027 -16.139600753784180
-3.938080072402954 -5.395909786224365 -16.008600234985352
-3.157079935073853 -5.130909919738770 -16.194599151611328
-3.149080038070679 -5.119909763336182 -16.211599349975586
-3.196079969406128 -5.193910121917725 -16.197599411010742
-3.134079933166504 -5.151909828186035 -16.224599838256836
-3.091079950332642 -5.081910133361816 -16.238599777221680
-1.880079984664917 -11.001899719238281 -16.119600296020508
-3.592080116271973 -5.475910186767578 -16.111600875854492
-3.298079967498779 -5.231910228729248 -16.194599151611328
-3.473079919815064 -5.379909992218018 -16.147600173950195
-1.674080014228821 -11.056900024414063 -16.170600891113281
-3.436079978942871 -5.313910007476807 -16.184600830078125
-3.116080045700073 -5.060910224914551 -16.273599624633789
-3.893079996109009 -5.383910179138184 -16.093599319458008
-4.134079933166504 -5.364910125732422 -16.056600570678711
-1.666079998016357 -10.971899986267090 -16.248600006103516
-1.761080026626587 -11.064900398254395 -16.225599288940430
-3.159080028533936 -5.069910049438477 -16.322599411010742
-1.848080039024353 -10.995900154113770 -16.225599288940430
-1.706079959869385 -10.968899726867676 -16.258600234985352
-3.873080015182495 -5.404910087585449 -16.162599563598633
-4.071080207824707 -5.350910186767578 -16.128599166870117
-3.470079898834229 -5.298910140991211 -16.264600753784180
-1.654080033302307 -10.967900276184082 -16.289600372314453
-3.917079925537109 -5.353909969329834 -16.174600601196289
-4.020080089569092 -5.356910228729248 -16.153600692749023
-3.721080064773560 -5.396910190582275 -16.219600677490234
-3.277080059051514 -5.094910144805908 -16.379600524902344
-3.643079996109009 -5.387909889221191 -16.298599243164063
-4.048079967498779 -5.291910171508789 -16.223600387573242
-4.005080223083496 -5.326910018920898 -16.240600585937500
-3.656080007553101 -5.389910221099854 -16.325599670410156
-3.323080062866211 -5.079909801483154 -16.446599960327148
-1.810080051422119 -10.977899551391602 -16.401599884033203
-3.661079883575440 -5.341909885406494 -16.400600433349609
-3.341079950332642 -5.108910083770752 -16.491600036621094
-3.515079975128174 -5.248909950256348 -16.472600936889648
-3.620079994201660 -5.296909809112549 -16.453599929809570
-4.168079853057861 -5.126910209655762 -16.383600234985352
-3.554080009460449 -5.251910209655762 -16.512599945068359
-3.566080093383789 -5.243909835815430 -16.539600372314453
-3.423079967498779 -5.029910087585449 -16.586599349975586
-1.644080042839050 -10.968899726867676 -16.593599319458008
-4.134079933166504 -5.186910152435303 -16.452600479125977
-4.149079799652100 -5.058909893035889 -16.517599105834961
-4.080080032348633 -5.136909961700440 -16.531600952148438
-1.704079985618591 -11.017900466918945 -16.711599349975586
-3.400079965591431 -4.774909973144531 -16.752599716186523
-4.061079978942871 -5.082910060882568 -16.601600646972656
-4.173079967498779 -5.041910171508789 -16.588600158691406
-3.493079900741577 -5.048910140991211 -16.766599655151367
-4.116079807281494 -5.009910106658936 -16.678600311279297
-4.091080188751221 -5.010910034179688 -16.703599929809570
-3.513079881668091 -4.990910053253174 -16.849599838256836
-4.207079887390137 -4.926909923553467 -16.727600097656250
-3.945080041885376 -5.087910175323486 -16.808599472045898
-3.750080108642578 -5.160910129547119 -16.846599578857422
-4.135079860687256 -4.937910079956055 -16.781600952148437
-3.779079914093018 -5.163909912109375 -16.844600677490234
-3.543080091476440 -4.872910022735596 -16.930599212646484
-3.672080039978027 -5.054910182952881 -16.903600692749023
-4.219079971313477 -4.845910072326660 -16.806600570678711
-1.651080012321472 -11.037899971008301 -16.969600677490234
-4.232079982757568 -4.843910217285156 -16.817600250244141
-4.079080104827881 -4.943910121917725 -16.889600753784180
-3.876080036163330 -5.086909770965576 -16.949600219726563
-4.151080131530762 -4.880909919738770 -16.911600112915039
-3.767080068588257 -5.081910133361816 -16.996599197387695
-3.686079978942871 -4.996910095214844 -17.039600372314453
-3.562079906463623 -4.662909984588623 -17.097600936889648
-4.203080177307129 -4.761909961700440 -16.959600448608398
-3.971080064773560 -5.009910106658936 -16.998600006103516
-3.961080074310303 -5.026909828186035 -17.003599166870117
-3.703079938888550 -4.997910022735596 -17.062599182128906
-4.185080051422119 -4.755909919738770 -16.989599227905273
-3.757080078125000 -5.031909942626953 -17.076599121093750
-3.674079895019531 -4.920909881591797 -17.105600357055664
-3.656080007553101 -4.875909805297852 -17.123600006103516
-4.136079788208008 -4.846909999847412 -17.025600433349609
-4.030079841613770 -4.947909832000732 -17.064599990844727
-3.619080066680908 -4.515910148620606 -17.216600418090820
-3.921080112457275 -5.019909858703613 -17.129600524902344
-3.928080081939697 -5.014910221099854 -17.149599075317383
-3.943079948425293 -5.000909805297852 -17.149599075317383
-4.150080204010010 -4.778910160064697 -17.128599166870117
-4.211080074310303 -4.634910106658936 -17.132600784301758
-4.035079956054688 -4.922910213470459 -17.160600662231445
-3.743079900741577 -4.923910140991211 -17.224599838256836
-3.721080064773560 -4.853909969329834 -17.259599685668945
-3.695080041885376 -4.790909767150879 -17.279600143432617
-3.821079969406128 -4.988910198211670 -17.271600723266602
-3.854079961776733 -4.992909908294678 -17.302600860595703
-3.933079957962036 -4.946909904479981 -17.346599578857422
-3.856080055236816 -4.966909885406494 -17.362600326538086
-3.860080003738403 -4.936910152435303 -17.364599227905273
-4.021080017089844 -4.701910018920898 -17.351600646972656
-3.801079988479614 -4.798910140991211 -17.409599304199219
-4.191080093383789 -4.662909984588623 -17.345600128173828
-3.805079936981201 -4.871910095214844 -17.421600341796875
-3.923079967498779 -4.714910030364990 -17.433599472045898
-4.225080013275147 -4.604909896850586 -17.416599273681641
-3.815079927444458 -4.800909996032715 -17.538600921630859
-3.933079957962036 -4.936910152435303 -17.506599426269531
-4.143080234527588 -4.733910083770752 -17.477600097656250
-4.199079990386963 -4.652910232543945 -17.538600921630859
-4.343080043792725 -4.464910030364990 -17.541599273681641
-4.306079864501953 -4.547910213470459 -17.560600280761719
-4.368080139160156 -4.502910137176514 -17.556600570678711
-4.158080101013184 -4.718910217285156 -17.605600357055664
-4.222080230712891 -4.625909805297852 -17.619600296020508
-4.269080162048340 -4.387909889221191 -17.636600494384766
-4.398079872131348 -4.479909896850586 -17.615600585937500
-4.326079845428467 -4.556910037994385 -17.653600692749023
-4.346079826354981 -4.549910068511963 -17.692600250244141
-4.175079822540283 -4.702909946441650 -17.737600326538086
-3.908080101013184 -4.787909984588623 -17.791599273681641
-4.267079830169678 -4.600910186767578 -17.741600036621094
-4.308080196380615 -4.386909961700440 -17.763599395751953
-4.154079914093018 -4.730909824371338 -17.779600143432617
-4.396080017089844 -4.525909900665283 -17.754600524902344
-4.303080081939697 -4.385910034179688 -17.800600051879883
-4.394080162048340 -4.428909778594971 -17.806600570678711
-4.387080192565918 -4.531909942626953 -17.822599411010742
-4.414080142974854 -4.433909893035889 -17.825599670410156
-4.438079833984375 -4.479909896850586 -17.825599670410156
-4.421080112457275 -4.500909805297852 -17.838600158691406
-4.205080032348633 -4.688910007476807 -17.914600372314453
-4.135079860687256 -4.746910095214844 -18.014600753784180
-4.267079830169678 -4.636909961700440 -18.126600265502930
-4.327079772949219 -4.568910121917725 -18.182600021362305
-4.256080150604248 -4.639910221099854 -18.213600158691406
-4.218080043792725 -4.672910213470459 -18.228599548339844
-4.339079856872559 -4.539909839630127 -18.252599716186523
-4.297080039978027 -4.595910072326660 -18.260599136352539
-4.206079959869385 -4.681910037994385 -18.278600692749023
-4.047080039978027 -4.692910194396973 -18.331600189208984
-4.032080173492432 -4.647910118103027 -18.421600341796875
-3.991080045700073 -4.602910041809082 -18.461599349975586
-4.333079814910889 -4.548910140991211 -18.391599655151367
-4.248079776763916 -4.639910221099854 -18.418600082397461
-4.113080024719238 -4.680910110473633 -18.482599258422852
-4.113080024719238 -4.677909851074219 -18.487600326538086
-4.267079830169678 -4.623909950256348 -18.576599121093750
-4.233079910278320 -4.667910099029541 -18.626600265502930
-3.764080047607422 -4.500909805297852 -17.841600418090820
-3.840080022811890 -4.644909858703613 -17.844600677490234
-3.798079967498779 -4.535910129547119 -17.923599243164062
-3.874079942703247 -4.658909797668457 -17.940599441528320
-3.955080032348633 -4.765910148620606 -17.943599700927734
-3.961080074310303 -4.738910198211670 -18.012599945068359
-4.005080223083496 -4.729909896850586 -18.122600555419922
-3.946079969406128 -4.664909839630127 -18.171600341796875
