ply
format ascii 1.0
element vertex 334
property double x
property double y
property double z
end_header
-2.380079984664917 -1.910910010337830 -14.619600296020508
-2.106080055236816 -1.562909960746765 -14.611599922180176
-2.169080018997192 -1.552909970283508 -14.599599838256836
-2.203079938888550 -1.538910031318665 -14.594599723815918
-2.305079936981201 -1.662909984588623 -14.570599555969238
-2.329080104827881 -1.655910015106201 -14.574600219726562
-2.384079933166504 -1.430909991264343 -14.587599754333496
-2.419080018997192 -1.673910021781921 -14.590600013732910
-2.380079984664917 -1.910910010337830 -14.619600296020508
-2.406080007553101 -1.876909971237183 -14.617600440979004
-2.467080116271973 -1.815909981727600 -14.624600410461426
-2.258080005645752 -1.711910009384155 -14.679599761962891
-2.500080108642578 -1.773910045623779 -14.626600265502930
-2.096080064773560 -1.494910001754761 -14.734600067138672
-2.358079910278320 -1.972910046577454 -14.654600143432617
-2.350080013275147 -1.391909956932068 -14.705599784851074
-2.260080099105835 -1.268910050392151 -14.739600181579590
-2.198080062866211 -1.495910048484802 -14.746600151062012
-2.318079948425293 -1.594910025596619 -14.721599578857422
-2.025079965591431 -1.385910034179688 -14.801600456237793
-2.441080093383789 -2.081909894943237 -14.675600051879883
-2.613080024719238 -1.617910027503967 -14.669599533081055
-2.494080066680908 -1.616909980773926 -14.703599929809570
-1.922080039978027 -1.245910048484802 -14.865599632263184
-2.175080060958862 -1.298910021781921 -14.809599876403809
-2.537080049514771 -1.680909991264343 -14.715600013732910
-2.598079919815064 -1.666910052299500 -14.703599929809570
-2.550080060958862 -1.677909970283508 -14.713600158691406
-2.432080030441284 -1.955909967422485 -14.724599838256836
-2.132080078125000 -1.300909996032715 -14.833600044250488
-1.972079992294312 -1.204910039901733 -14.874600410461426
-1.960080027580261 -1.163910031318665 -14.896599769592285
-2.556080102920532 -1.937909960746765 -14.719599723815918
-2.532079935073853 -2.164910078048706 -14.714599609375000
-2.679080009460449 -1.822909951210022 -14.710599899291992
-1.797080039978027 -1.156909942626953 -14.955599784851074
-2.023080110549927 -1.268910050392151 -14.902600288391113
-1.987079977989197 -1.229910016059876 -14.932600021362305
-2.580080032348633 -1.863909959793091 -14.778599739074707
-1.901080012321472 -1.223909974098206 -14.967599868774414
-2.830080032348633 -1.802909970283508 -14.730600357055664
-1.931079983711243 -1.188910007476807 -14.973600387573242
-1.872079968452454 -1.033910036087036 -15.000599861145020
-2.553080081939697 -2.145910024642944 -14.784600257873535
-2.659080028533936 -1.938910007476807 -14.778599739074707
-1.868080019950867 -1.007910013198853 -15.012599945068359
-2.650079965591431 -1.972910046577454 -14.788599967956543
-2.656080007553101 -1.976909995079041 -14.793600082397461
-1.801079988479614 -1.019909977912903 -15.045599937438965
-1.821079969406128 -1.138910055160523 -15.037599563598633
-2.588079929351807 -2.159909963607788 -14.813599586486816
-2.681080102920532 -2.061909914016724 -14.825599670410156
-2.738080024719238 -1.925909996032715 -14.839599609375000
-1.636080026626587 -0.939911007881165 -15.193599700927734
-2.886080026626587 -1.951910018920898 -14.874600410461426
-2.847079992294312 -1.965909957885742 -14.883600234985352
-2.865080118179321 -1.996909976005554 -14.907600402832031
-2.717080116271973 -2.388910055160523 -14.919599533081055
-2.768079996109009 -2.191910028457642 -14.936599731445313
-2.750080108642578 -2.154910087585449 -14.952599525451660
-1.574079990386963 -0.878910005092621 -15.297599792480469
-3.008080005645752 -2.102910041809082 -14.937600135803223
-2.935080051422119 -2.060909986495972 -14.956600189208984
-2.742079973220825 -2.338910102844238 -14.989600181579590
-3.074079990386963 -2.096909999847412 -14.953599929809570
-2.897079944610596 -2.132910013198853 -15.012599945068359
-2.799079895019531 -2.531909942626953 -15.027600288391113
-2.782079935073853 -2.359910011291504 -15.043600082397461
-3.032079935073853 -2.192909955978394 -15.015600204467773
-2.827080011367798 -2.426909923553467 -15.066599845886230
-1.358080029487610 -0.729911983013153 -15.518600463867188
-2.805079936981201 -2.506910085678101 -15.106599807739258
-3.113080024719238 -2.251909971237183 -15.060600280761719
-3.112080097198486 -2.254909992218018 -15.064599990844727
-3.221080064773560 -2.313910007476807 -15.092599868774414
-3.105079889297485 -2.285909891128540 -15.121600151062012
-2.998080015182495 -2.293910026550293 -15.147600173950195
-2.870079994201660 -2.589910030364990 -15.158599853515625
-2.835079908370972 -2.622910022735596 -15.165599822998047
-2.890079975128174 -2.511909961700440 -15.182600021362305
-2.940079927444458 -2.383909940719605 -15.197600364685059
-2.891079902648926 -2.516910076141357 -15.219599723815918
-2.985080003738403 -2.411910057067871 -15.236599922180176
-3.129080057144165 -2.393909931182861 -15.213600158691406
-2.993079900741577 -2.462909936904907 -15.273599624633789
-3.044080018997192 -2.443909883499146 -15.280599594116211
-3.116080045700073 -2.447910070419312 -15.277600288391113
-3.008080005645752 -2.515909910202026 -15.312600135803223
-2.939079999923706 -2.800909996032715 -15.344599723815918
-3.299079895019531 -2.507910013198853 -15.295599937438965
-2.959079980850220 -2.856909990310669 -15.372599601745605
-2.965080022811890 -2.819910049438477 -15.375599861145020
-2.973079919815064 -2.712909936904907 -15.390600204467773
-2.981080055236816 -2.724910020828247 -15.388600349426270
-2.981080055236816 -2.821909904479981 -15.428600311279297
-3.328079938888550 -2.579910039901733 -15.379599571228027
-3.029079914093018 -2.688910007476807 -15.441599845886230
-3.098079919815064 -2.625910043716431 -15.462599754333496
-3.308079957962036 -2.591909885406494 -15.427599906921387
-3.230079889297485 -2.667910099029541 -15.439599990844727
-3.134079933166504 -2.665910005569458 -15.461600303649902
-3.444080114364624 -2.721909999847412 -15.392600059509277
-3.197079896926880 -2.668910026550293 -15.450599670410156
-3.377079963684082 -2.750910043716431 -15.458600044250488
-3.462080001831055 -2.758909940719605 -15.444600105285645
-3.419080018997192 -2.695909976959229 -15.458600044250488
-3.201080083847046 -2.751909971237183 -15.506600379943848
-3.048079967498779 -2.812910079956055 -15.539600372314453
-3.130079984664917 -2.895910024642944 -15.542599678039551
-3.106080055236816 -2.718909978866577 -15.560600280761719
-3.138079881668091 -3.002909898757935 -15.546600341796875
-3.509079933166504 -2.777909994125366 -15.490599632263184
-3.147079944610596 -2.698909997940064 -15.592599868774414
-3.231080055236816 -2.987910032272339 -15.583600044250488
-3.066080093383789 -2.899909973144531 -15.632599830627441
-3.281080007553101 -2.694910049438477 -15.610600471496582
-3.054080009460449 -2.998909950256348 -15.641599655151367
-3.438080072402954 -2.758909940719605 -15.580599784851074
-3.334079980850220 -2.726910114288330 -15.613599777221680
-3.277080059051514 -2.702909946441650 -15.627599716186523
-3.359080076217651 -2.739909887313843 -15.614600181579590
-3.526079893112183 -2.806910037994385 -15.582599639892578
-3.241080045700073 -3.024909973144531 -15.647600173950195
-3.468080043792725 -2.802910089492798 -15.636599540710449
-3.427079916000366 -2.795909881591797 -15.657600402832031
-3.180079936981201 -2.751909971237183 -15.745599746704102
-3.096080064773560 -3.073909997940064 -15.758600234985352
-3.538079977035523 -2.911910057067871 -15.748600006103516
-3.247080087661743 -3.109910011291504 -15.805600166320801
-3.243079900741577 -3.088910102844238 -15.834600448608398
-3.187079906463623 -2.834909915924072 -15.877599716186523
-3.260080099105835 -2.956909894943237 -15.876600265502930
-3.400079965591431 -2.916909933090210 -15.859600067138672
-3.202080011367798 -2.853909969329834 -15.917599678039551
-3.650079965591431 -3.032910108566284 -15.834600448608398
-3.214080095291138 -3.305910110473633 -15.911600112915039
-3.282079935073853 -2.953910112380981 -15.922599792480469
-3.374079942703247 -3.321909904479981 -15.932600021362305
-3.531080007553101 -3.074909925460815 -15.938599586486816
-3.391079902648926 -2.973910093307495 -15.994600296020508
-3.430079936981201 -3.266910076141357 -15.969599723815918
-3.479079961776733 -3.244910001754761 -15.979599952697754
-3.257080078125000 -3.391910076141357 -16.054599761962891
-3.502079963684082 -3.325910091400147 -16.013599395751953
-3.672080039978027 -3.301909923553467 -16.002599716186523
-3.248080015182495 -3.371910095214844 -16.091600418090820
-3.767080068588257 -3.289910078048706 -15.996600151062012
-3.724080085754395 -3.340909957885742 -16.028600692749023
-3.288079977035523 -3.288909912109375 -16.156600952148438
-3.795079946517944 -3.328910112380981 -16.059600830078125
-3.539079904556274 -3.111910104751587 -16.129600524902344
-3.753079891204834 -3.265909910202026 -16.092599868774414
-3.753079891204834 -3.410909891128540 -16.093599319458008
-3.431080102920532 -3.228909969329834 -16.215599060058594
-3.703079938888550 -3.443909883499146 -16.147600173950195
-3.320080041885376 -3.342910051345825 -16.237600326538086
-3.801079988479614 -3.380909919738770 -16.167600631713867
-3.802079916000366 -3.389909982681274 -16.194599151611328
-3.777080059051514 -3.487910032272339 -16.202600479125977
-3.655080080032349 -3.241909980773926 -16.289600372314453
-3.614079952239990 -3.231909990310669 -16.299600601196289
-3.615080118179321 -3.543910026550293 -16.297599792480469
-3.394079923629761 -3.547909975051880 -16.353599548339844
-3.667079925537109 -3.584909915924072 -16.348600387573242
-3.452080011367798 -3.653909921646118 -16.394599914550781
-3.420079946517944 -3.626909971237183 -16.410600662231445
-3.782079935073853 -3.402909994125366 -16.360599517822266
-3.835079908370972 -3.524909973144531 -16.357599258422852
-3.851079940795898 -3.595910072326660 -16.414600372314453
-3.794080018997192 -3.664910078048706 -16.434600830078125
-3.420079946517944 -3.511909961700440 -16.541599273681641
-3.795079946517944 -3.442909955978394 -16.478599548339844
-3.494080066680908 -3.082910060882568 -16.607599258422852
-3.497080087661743 -3.077909946441650 -16.610599517822266
-3.619080066680908 -3.337909936904907 -16.568599700927734
-3.599080085754395 -3.399909973144531 -16.571599960327148
-3.728080034255981 -3.732909917831421 -16.552600860595703
-3.539079904556274 -3.271909952163696 -16.629600524902344
-3.707079887390137 -3.391910076141357 -16.602600097656250
-3.636080026626587 -3.755909919738770 -16.594600677490234
-3.699079990386963 -3.390909910202026 -16.610599517822266
-3.583080053329468 -3.378910064697266 -16.637599945068359
-3.586080074310303 -3.784909963607788 -16.622600555419922
-3.587080001831055 -3.452909946441650 -16.668600082397461
-3.650079965591431 -3.460910081863403 -16.712600708007812
-3.888079881668091 -3.611910104751587 -16.664600372314453
-3.482079982757568 -3.633909940719605 -16.756599426269531
-3.776079893112183 -3.822910070419312 -16.702600479125977
-3.624079942703247 -3.860909938812256 -16.747600555419922
-3.522079944610596 -3.860909938812256 -16.772600173950195
-3.880079984664917 -3.597909927368164 -16.720600128173828
-3.576080083847046 -4.201910018920898 -16.802600860595703
-3.653079986572266 -3.533910036087036 -16.844600677490234
-3.815079927444458 -3.875910043716431 -16.789600372314453
-3.913079977035523 -3.877909898757935 -16.779600143432617
-3.823080062866211 -3.533910036087036 -16.824600219726563
-3.640079975128174 -3.937910079956055 -16.858600616455078
-3.771080017089844 -3.518909931182861 -16.868600845336914
-3.643079996109009 -3.566910028457642 -16.895599365234375
-3.705080032348633 -3.572910070419312 -16.942600250244141
-4.020080089569092 -3.878910064697266 -16.861600875854492
-3.714080095291138 -3.600909948348999 -16.993600845336914
-3.910079956054688 -3.655910015106201 -16.961599349975586
-3.900079965591431 -3.645910024642944 -16.974599838256836
-3.538079977035523 -3.922909975051880 -17.034599304199219
-3.666079998016357 -4.033909797668457 -17.022600173950195
-3.626080036163330 -3.699909925460815 -17.067600250244141
-4.034080028533936 -3.904910087585449 -16.982599258422852
-3.634079933166504 -4.096909999847412 -17.133600234985352
-3.572079896926880 -3.964910030364990 -17.156600952148438
-3.990080118179321 -3.778909921646118 -17.080600738525391
-3.899080038070679 -3.665910005569458 -17.109600067138672
-3.655080080032349 -4.264910221099854 -17.176599502563477
-3.752079963684082 -3.680910110473633 -17.220600128173828
-3.906080007553101 -4.074910163879395 -17.169599533081055
-4.072080135345459 -4.011909961700440 -17.138599395751953
-3.610080003738403 -4.044909954071045 -17.236600875854492
-3.982079982757568 -4.078909873962402 -17.170600891113281
-3.799079895019531 -3.636909961700440 -17.239599227905273
-3.692080020904541 -3.680910110473633 -17.275600433349609
-3.630079984664917 -3.843909978866577 -17.278600692749023
-3.742079973220825 -3.610909938812256 -17.278600692749023
-3.759079933166504 -4.190909862518311 -17.253599166870117
-3.685080051422119 -4.184909820556641 -17.275600433349609
-4.043079853057861 -4.109910011291504 -17.224599838256836
-3.888079881668091 -3.710910081863403 -17.285600662231445
-3.671080112457275 -4.049910068511963 -17.433599472045898
-4.075079917907715 -3.923909902572632 -17.378599166870117
-4.003079891204834 -4.161910057067871 -17.383600234985352
-3.723079919815064 -4.223909854888916 -17.453599929809570
-3.906080007553101 -4.158909797668457 -17.420600891113281
-3.697079896926880 -3.804909944534302 -17.488599777221680
-3.706079959869385 -4.190909862518311 -17.478599548339844
-3.686079978942871 -4.136909961700440 -17.489599227905273
-3.777080059051514 -4.243909835815430 -17.506599426269531
-4.023079872131348 -3.847909927368164 -17.487600326538086
-3.864079952239990 -4.226910114288330 -17.530599594116211
-3.704080104827881 -4.146910190582275 -17.617599487304688
-3.686079978942871 -4.423910140991211 -17.603599548339844
-3.702080011367798 -4.344910144805908 -17.610599517822266
-3.685080051422119 -4.371910095214844 -17.620599746704102
-4.019080162048340 -4.244909763336182 -17.560600280761719
-3.748080015182495 -4.288909912109375 -17.617599487304688
-3.741080045700073 -4.005909919738770 -17.645599365234375
-3.843080043792725 -4.270909786224365 -17.624599456787109
-3.782079935073853 -4.360909938812256 -17.637599945068359
-4.087080001831055 -4.295909881591797 -17.580600738525391
-3.927079916000366 -4.271910190582275 -17.619600296020508
-4.116079807281494 -3.973910093307495 -17.612600326538086
-4.048079967498779 -4.353909969329834 -17.614599227905273
-3.944080114364624 -4.319910049438477 -17.641599655151367
-4.158080101013184 -4.324910163879395 -17.595600128173828
-4.133080005645752 -4.360909938812256 -17.600599288940430
-3.832079887390137 -4.363910198211670 -17.668600082397461
-3.850080013275147 -4.377910137176514 -17.676599502563477
-3.827080011367798 -4.472909927368164 -17.685600280761719
-3.661079883575440 -4.403910160064697 -17.739599227905273
-3.781080007553101 -4.018909931182861 -17.768600463867187
-3.696079969406128 -4.444910049438477 -17.775600433349609
-3.822079896926880 -3.965909957885742 -17.790599822998047
-3.784080028533936 -4.058909893035889 -17.800600051879883
-3.705080032348633 -4.343910217285156 -17.854600906372070
-3.668080091476440 -4.420909881591797 -17.877599716186523
-4.195079803466797 -4.062910079956055 -17.801599502563477
-3.791079998016357 -4.284910202026367 -17.931600570678711
-4.214079856872559 -4.086909770965576 -17.859600067138672
-3.835079908370972 -4.049910068511963 -17.986600875854492
-3.649080038070679 -4.424910068511963 -18.021600723266602
-3.730079889297485 -4.334909915924072 -18.021600723266602
-3.668080091476440 -4.461909770965576 -18.109600067138672
-3.723079919815064 -4.489910125732422 -18.153600692749023
-4.179080009460449 -4.031909942626953 -18.097600936889648
-3.848079919815064 -4.225910186767578 -18.159599304199219
-3.886080026626587 -4.067910194396973 -18.170600891113281
-4.209080219268799 -4.066909790039063 -18.103599548339844
-3.714080095291138 -4.482910156250000 -18.195600509643555
-4.321080207824707 -4.270909786224365 -18.096599578857422
-4.454080104827881 -4.372910022735596 -18.066600799560547
-4.228079795837402 -4.088910102844238 -18.141599655151367
-4.173079967498779 -4.020909786224365 -18.164600372314453
-3.698080062866211 -4.460909843444824 -18.247600555419922
-4.433080196380615 -4.314909934997559 -18.101600646972656
-4.178080081939697 -4.024909973144531 -18.260599136352539
-3.710079908370972 -4.385910034179688 -18.341600418090820
-3.925080060958862 -4.071909904479981 -18.326599121093750
-3.927079916000366 -4.070909976959229 -18.335599899291992
-4.420080184936523 -4.269909858703613 -18.251600265502930
-3.908080101013184 -4.253910064697266 -18.365600585937500
-4.272079944610596 -3.963910102844238 -18.331600189208984
-4.209080219268799 -3.986910104751587 -18.345600128173828
-4.335080146789551 -4.228909969329834 -18.354600906372070
-3.793080091476440 -4.293910026550293 -18.470600128173828
-3.796080112457275 -4.288909912109375 -18.471599578857422
-4.219079971313477 -4.071909904479981 -18.405599594116211
-3.815079927444458 -4.409910202026367 -18.473600387573242
-4.425079822540283 -4.346909999847412 -18.347600936889648
-3.854079961776733 -4.415909767150879 -18.516599655151367
-4.292079925537109 -4.131909847259522 -18.472600936889648
-3.857079982757568 -4.295909881591797 -18.567600250244141
-3.960079908370972 -4.188910007476807 -18.560600280761719
-4.398079872131348 -4.212910175323486 -18.475599288940430
-3.896080017089844 -4.254909992218018 -18.606599807739258
-3.910079956054688 -4.413909912109375 -18.603599548339844
-3.939079999923706 -4.348909854888916 -18.688600540161133
-4.422080039978027 -4.320909976959229 -18.616600036621094
-4.374080181121826 -4.151909828186035 -18.652599334716797
-4.368080139160156 -4.512909889221191 -18.631599426269531
-4.370079994201660 -4.511909961700440 -18.640600204467773
-4.355080127716065 -4.537909984588623 -18.671600341796875
-3.980079889297485 -4.275909900665283 -18.771600723266602
-3.987080097198486 -4.358910083770752 -18.766599655151367
-4.405079841613770 -4.239910125732422 -18.699600219726562
-4.386079788208008 -4.097909927368164 -18.731599807739258
-4.003079891204834 -4.341909885406494 -18.808599472045898
-4.428080081939697 -4.068910121917725 -18.762599945068359
-4.039080142974854 -4.429910182952881 -18.826599121093750
-4.334080219268799 -4.577909946441650 -18.756599426269531
-4.012080192565918 -4.292910099029541 -18.867599487304687
-4.202079772949219 -4.654910087585449 -18.821599960327148
-4.428080081939697 -4.294909954071045 -18.809600830078125
-4.064080238342285 -4.130909919738770 -18.934600830078125
-4.099080085754395 -4.087910175323486 -18.942600250244141
-4.081079959869385 -4.414909839630127 -18.957599639892578
-4.436079978942871 -4.416910171508789 -18.911600112915039
-4.382080078125000 -4.527910232543945 -18.919599533081055
-4.077079772949219 -4.260910034179688 -19.042600631713867
-4.339079856872559 -4.590909957885742 -18.986600875854492
-4.162079811096191 -4.518909931182861 -19.053600311279297
-4.165080070495606 -4.507909774780273 -19.097600936889648
-4.144080162048340 -4.448910236358643 -19.110599517822266
-4.121079921722412 -4.290909767150879 -19.133600234985352
-4.175079822540283 -4.506909847259522 -19.170600891113281
-4.182079792022705 -4.404910087585449 -19.350599288940430
-4.202079772949219 -4.466909885406494 -19.466600418090820
