ply
format ascii 1.0
element vertex 478
property double x
property double y
property double z
end_header
55.329101562500000 -10.456700325012207 10.850700378417969
51.111301422119141 -12.967300415039063 14.321700096130371
56.914901733398438 -13.570300102233887 15.213100433349609
57.384201049804688 -14.054900169372559 15.760000228881836
56.303398132324219 -14.015299797058105 14.871600151062012
56.123901367187500 -13.258600234985352 13.967700004577637
56.807300567626953 -14.522500038146973 15.383899688720703
55.303001403808594 -10.951499938964844 11.399600028991699
55.329101562500000 -10.456700325012207 10.850700378417969
57.303699493408203 -15.006899833679199 15.891500473022461
51.239200592041016 -14.271499633789062 14.606699943542480
55.827499389648438 -11.489100456237793 11.871600151062012
55.409099578857422 -9.597780227661133 9.735750198364258
51.394699096679688 -13.553600311279297 13.752300262451172
54.677398681640625 -10.851599693298340 10.992400169372559
56.366798400878906 -11.992500305175781 12.319999694824219
54.941799163818359 -10.205400466918945 10.183699607849121
57.793399810791016 -15.911700248718262 16.492700576782227
51.555801391601563 -12.975799560546875 12.805600166320801
55.879100799560547 -14.051500320434570 14.262100219726563
54.977901458740234 -11.658699989318848 11.600999832153320
56.405601501464844 -12.626600265502930 12.685999870300293
55.925800323486328 -13.121700286865234 13.187199592590332
55.470901489257813 -13.617699623107910 13.652899742126465
55.461898803710937 -12.687999725341797 12.627900123596191
54.259601593017578 -10.365900039672852 9.870349884033203
55.033199310302734 -12.284600257873535 12.001799583435059
51.750701904296875 -15.304200172424316 15.047800064086914
55.303100585937500 -9.359539985656738 8.816229820251465
55.069099426269531 -13.274299621582031 13.008299827575684
51.858001708984375 -14.612999916076660 14.215299606323242
56.939300537109375 -16.113199234008789 16.154399871826172
54.041500091552734 -11.179599761962891 10.595899581909180
56.487800598144531 -15.649000167846680 15.603199958801270
54.508800506591797 -9.845849990844727 9.149310111999512
54.289501190185547 -11.957599639892578 11.388799667358398
50.920398712158203 -12.519700050354004 11.748800277709961
54.738498687744141 -12.916600227355957 12.426899909973145
53.930999755859375 -9.100170135498047 8.208800315856934
51.982601165771484 -13.948300361633301 13.325799942016602
57.439601898193359 -16.649000167846680 16.598699569702148
55.896198272705078 -15.061800003051758 14.741800308227539
60.808200836181641 -17.163499832153320 17.318700790405273
53.315799713134766 -9.478460311889648 8.331089973449707
53.721199035644531 -10.889499664306641 9.886799812316895
52.416698455810547 -15.502599716186523 14.797699928283691
55.244300842285156 -14.491100311279297 13.889499664306641
52.324798583984375 -16.238800048828125 15.587699890136719
53.807098388671875 -9.950880050659180 8.822819709777832
57.910198211669922 -17.220100402832031 16.990800857543945
53.757198333740234 -11.953599929809570 10.886500358581543
54.897899627685547 -14.061200141906738 13.241900444030762
52.847198486328125 -15.144700050354004 14.176199913024902
56.325401306152344 -16.495199203491211 15.848500251770020
56.821498870849609 -16.976499557495117 16.386699676513672
51.956199645996094 -13.487600326538086 12.269000053405762
53.421398162841797 -11.583600044250488 10.220999717712402
53.472301483154297 -10.640800476074219 9.180560111999512
55.904201507568359 -16.072799682617187 15.228300094604492
54.046600341796875 -13.260800361633301 12.043299674987793
52.714000701904297 -14.334600448608398 13.104000091552734
51.305599212646484 -13.174200057983398 11.746299743652344
57.872501373291016 -18.181699752807617 17.564599990844727
53.310901641845703 -15.729299545288086 14.590299606323242
55.469299316406250 -15.647500038146973 14.633299827575684
52.839900970458984 -17.198299407958984 16.097600936889648
49.929100036621094 -12.485500335693359 10.744600296020508
58.806301116943359 -17.705600738525391 17.003400802612305
53.311199188232422 -16.741199493408203 15.552399635314941
53.102100372314453 -11.270799636840820 9.578740119934082
53.565299987792969 -12.654299736022949 11.092399597167969
57.278999328613281 -17.893100738525391 17.027500152587891
53.471099853515625 -14.843199729919434 13.394100189208984
49.290699005126953 -12.221099853515625 10.263299942016602
53.168998718261719 -10.340299606323242 8.454660415649414
54.191600799560547 -13.974699974060059 12.430800437927246
53.940399169921875 -15.363100051879883 13.899800300598145
53.925598144531250 -16.350000381469727 14.960700035095215
61.296699523925781 -17.705900192260742 16.878999710083008
52.738498687744141 -13.866700172424316 12.129400253295898
53.312400817871094 -14.317299842834473 12.609900474548340
58.344501495361328 -19.123399734497070 18.161500930786133
54.411300659179688 -15.917599678039551 14.372099876403809
53.406200408935547 -13.576299667358398 11.729399681091309
54.397499084472656 -16.934299468994141 15.395899772644043
54.891899108886719 -16.426700592041016 14.875300407409668
52.821998596191406 -10.985500335693359 8.809929847717285
55.369899749755859 -16.912700653076172 15.417300224304199
58.791900634765625 -18.685300827026367 17.565000534057617
55.841499328613281 -17.401599884033203 15.966600418090820
54.392398834228516 -15.018199920654297 13.279500007629395
54.889900207519531 -15.490400314331055 13.804300308227539
52.794799804687500 -11.993700027465820 9.829500198364258
53.432598114013672 -17.981399536132813 16.367500305175781
53.909400939941406 -17.487300872802734 15.854200363159180
54.881500244140625 -17.506700515747070 15.823499679565430
47.951099395751953 -11.899600028991699 9.256190299987793
50.870700836181641 -13.096500396728516 10.750900268554688
57.296298980712891 -18.915399551391602 17.487400054931641
52.962699890136719 -10.165900230407715 7.669449806213379
51.896198272705078 -13.545599937438965 11.250300407409668
52.486999511718750 -11.643400192260742 9.165410041809082
58.653800964355469 -20.303699493408203 18.978399276733398
52.938400268554687 -13.086299896240234 10.708999633789063
59.532501220703125 -17.500400543212891 15.926600456237793
59.256099700927734 -18.140600204467773 16.583499908447266
52.512798309326172 -10.777400016784668 8.109020233154297
53.362598419189453 -9.503870010375977 6.769030094146729
56.373298645019531 -18.544200897216797 16.783599853515625
54.380401611328125 -18.132799148559570 16.088199615478516
46.967201232910156 -11.355600357055664 8.211130142211914
59.022201538085938 -19.988899230957031 18.336200714111328
52.176399230957031 -11.335300445556641 8.457719802856445
53.778900146484375 -18.703300476074219 16.502899169921875
55.367099761962891 -18.520599365234375 16.347299575805664
52.334201812744141 -10.423600196838379 7.319449901580811
58.745201110839844 -21.256000518798828 19.510599136352539
59.252498626708984 -19.625299453735352 17.665800094604492
48.897800445556641 -12.535499572753906 9.253410339355469
51.855300903320312 -11.013400077819824 7.786039829254150
51.328498840332031 -13.305800437927246 10.219799995422363
52.230800628662109 -12.491200447082520 9.368320465087891
56.860000610351562 -19.541999816894531 17.305099487304687
50.413700103759766 -12.996800422668457 9.755060195922852
59.222999572753906 -20.652099609375000 18.651800155639648
57.353900909423828 -20.039400100708008 17.809099197387695
51.917301177978516 -12.071299552917480 8.727399826049805
59.439800262451172 -19.035999298095703 16.782300949096680
53.949199676513672 -19.481599807739258 16.887199401855469
52.399501800537109 -13.508999824523926 10.258799552917480
60.377498626708984 -18.056999206542969 15.690099716186523
49.802898406982422 -12.784199714660645 9.214420318603516
51.497898101806641 -10.778499603271484 7.128419876098633
46.361999511718750 -11.738300323486328 7.801609992980957
51.611499786376953 -11.683099746704102 8.055839538574219
51.882801055908203 -13.197699546813965 9.715350151062012
51.526500701904297 -12.711899757385254 9.123009681701660
59.724899291992188 -18.620500564575195 16.050800323486328
55.885299682617188 -19.553899765014648 16.763799667358398
52.890201568603516 -10.058899879455566 6.249080181121826
59.974201202392578 -28.924600601196289 27.202400207519531
59.360599517822266 -22.081800460815430 19.722000122070313
48.345500946044922 -12.222900390625000 8.231249809265137
58.879199981689453 -23.082700729370117 20.717899322509766
51.201000213623047 -11.393699645996094 7.432529926300049
47.409801483154297 -11.944600105285645 7.761559963226318
54.880298614501953 -19.490299224853516 16.438999176025391
58.836601257324219 -29.208900451660156 27.218099594116211
59.556701660156250 -21.462299346923828 18.848600387573242
59.496200561523438 -20.508699417114258 17.804100036621094
51.350700378417969 -10.463700294494629 6.293540000915527
54.273899078369141 -20.190200805664063 17.021600723266602
61.388198852539063 -18.553400039672852 15.709199905395508
58.374599456787109 -23.724700927734375 21.060100555419922
58.855098724365234 -24.201000213623047 21.594200134277344
57.656799316406250 -21.446100234985352 18.519100189208984
62.759601593017578 -29.388999938964844 27.484300613403320
50.878501892089844 -11.045100212097168 6.760610103607178
59.307899475097656 -23.701400756835938 21.071800231933594
58.388801574707031 -22.555299758911133 19.751899719238281
57.228500366210937 -20.981300354003906 17.958999633789062
49.397300720214844 -12.534500122070312 8.254579544067383
50.911399841308594 -12.928400039672852 8.779299736022949
57.941799163818359 -22.092500686645508 19.195499420166016
59.668701171875000 -20.134199142456055 17.147399902343750
50.897800445556641 -12.067000389099121 7.740429878234863
59.666999816894531 -23.264200210571289 20.481899261474609
59.647399902343750 -21.149400711059570 18.155599594116211
51.915100097656250 -10.211000442504883 5.707200050354004
58.289199829101563 -24.817499160766602 21.989900588989258
56.408599853515625 -20.569900512695313 17.206399917602539
50.378898620605469 -12.721400260925293 8.188159942626953
59.888401031494141 -19.557800292968750 16.249000549316406
58.956600189208984 -25.370500564575195 22.480199813842773
60.356300354003906 -19.072000503540039 15.670399665832520
58.381198883056641 -25.899099349975586 22.938899993896484
50.552898406982422 -11.764699935913086 7.056590080261231
60.267299652099609 -29.772800445556641 27.252199172973633
57.847801208496094 -24.490699768066406 21.310300827026367
58.911499023437500 -28.997999191284180 26.271099090576172
59.475898742675781 -24.940900802612305 21.902099609375000
57.896099090576172 -23.564300537109375 20.243000030517578
55.389598846435547 -20.543500900268555 16.783700942993164
59.898700714111328 -22.552900314331055 19.253599166870117
57.889900207519531 -28.827400207519531 25.910499572753906
50.248500823974609 -10.875200271606445 5.892409801483154
48.865001678466797 -12.203300476074219 7.214640140533447
57.863201141357422 -26.494300842285156 23.321100234985352
54.382499694824219 -21.565299987792969 17.732299804687500
50.223800659179688 -11.424500465393066 6.409130096435547
58.848701477050781 -26.709999084472656 23.561399459838867
50.840698242187500 -10.400400161743164 5.310689926147461
49.902099609375000 -12.195500373840332 7.187399864196777
46.890300750732422 -11.992199897766113 6.761549949645996
54.849800109863281 -21.102399826049805 17.167200088500977
59.894001007080078 -24.554399490356445 21.253700256347656
57.888000488281250 -27.267499923706055 24.013500213623047
47.892299652099609 -12.003800392150879 6.763599872589111
59.277198791503906 -26.265800476074219 22.978599548339844
57.620700836181641 -23.231199264526367 19.553100585937500
58.380199432373047 -27.784200668334961 24.541000366210937
55.923099517822266 -21.109100341796875 17.115999221801758
57.564998626708984 -24.226400375366211 20.608499526977539
59.741100311279297 -29.293199539184570 26.252599716186523
57.376499176025391 -22.548799514770508 18.763500213623047
45.901199340820313 -12.182000160217285 6.727799892425537
60.115299224853516 -23.184999465942383 19.634300231933594
59.938499450683594 -21.038900375366211 17.271999359130859
57.883598327636719 -28.324300765991211 25.037900924682617
57.497798919677734 -26.164199829101562 22.640300750732422
51.887500762939453 -10.043899536132812 4.753550052642822
58.804199218750000 -28.334299087524414 25.071399688720703
56.957298278808594 -22.103700637817383 18.153299331665039
59.935501098632812 -22.038700103759766 18.266300201416016
63.229801177978516 -29.954900741577148 27.064599990844727
59.025600433349609 -27.368700027465820 23.967500686645508
57.327598571777344 -25.492300033569336 21.813400268554687
49.948799133300781 -10.642000198364258 5.188889980316162
56.498100280761719 -21.634099960327148 17.561700820922852
60.206199645996094 -24.187500000000000 20.583099365234375
59.724498748779297 -25.681699752807617 22.057600021362305
47.397201538085938 -11.826000213623047 6.152140140533447
57.313400268554688 -28.924299240112305 25.376300811767578
61.347801208496094 -19.571800231933594 15.474900245666504
57.338199615478516 -27.989400863647461 24.325799942016602
49.389301300048828 -11.893199920654297 6.307400226593018
60.134101867675781 -20.666200637817383 16.560100555419922
48.362701416015625 -11.845399856567383 6.154089927673340
52.505500793457031 -9.798390388488770 4.209249973297119
63.539001464843750 -29.566499710083008 26.398799896240234
60.459999084472656 -20.026399612426758 15.809900283813477
49.528900146484375 -11.283599853515625 5.576039791107178
57.196800231933594 -26.839799880981445 22.951799392700195
57.271400451660156 -23.963399887084961 19.832799911499023
59.492000579833984 -28.887899398803711 25.319200515747070
57.074298858642578 -25.212400436401367 21.133800506591797
61.890098571777344 -30.547599792480469 27.246200561523437
54.930301666259766 -21.969100952148438 17.443599700927734
59.416599273681641 -28.027500152587891 24.280399322509766
59.678001403808594 -27.281200408935547 23.463899612426758
56.979499816894531 -27.651800155639648 23.653299331665039
55.859798431396484 -21.983600616455078 17.419599533081055
61.267700195312500 -30.325899124145508 26.833499908447266
46.362300872802734 -11.887100219726563 5.802690029144287
49.283000946044922 -10.921299934387207 4.856440067291260
56.854099273681641 -26.515699386596680 22.289400100708008
49.866798400878906 -10.388600349426270 4.296189785003662
56.759601593017578 -22.960300445556641 18.403900146484375
56.996398925781250 -23.640399932861328 19.150999069213867
56.335498809814453 -22.505500793457031 17.862600326538086
57.002201080322266 -24.635999679565430 20.180299758911133
60.421901702880859 -24.042600631713867 19.762500762939453
54.386699676513672 -22.563499450683594 17.734600067138672
60.296398162841797 -23.100799560546875 18.716299057006836
57.006599426269531 -28.727399826049805 24.578599929809570
56.696300506591797 -25.872499465942383 21.422599792480469
48.881301879882813 -11.503399848937988 5.276209831237793
44.800899505615234 -12.284199714660645 5.844289779663086
60.306400299072266 -29.652299880981445 25.747499465942383
46.895198822021484 -11.595700263977051 5.233870029449463
60.860801696777344 -30.091600418090820 26.255599975585938
47.889198303222656 -11.564599990844727 5.247189998626709
60.389999389648437 -25.557300567626953 21.249799728393555
59.724098205566406 -28.721099853515625 24.620500564575195
51.391799926757812 -10.482500076293945 4.251749992370606
61.904399871826172 -20.048500061035156 15.336799621582031
59.929500579833984 -27.030700683593750 22.779699325561523
56.497001647949219 -27.167100906372070 22.642799377441406
48.952400207519531 -10.644599914550781 4.184150218963623
56.707099914550781 -28.379800796508789 23.940700531005859
55.827201843261719 -27.444299697875977 22.835899353027344
48.452701568603516 -11.214500427246094 4.661449909210205
60.378501892089844 -22.062599182128906 17.243700027465820
60.587001800537109 -25.157100677490234 20.613700866699219
45.374298095703125 -12.004899978637695 5.270440101623535
56.320301055908203 -27.969999313354492 23.325099945068359
56.128200531005859 -26.825399398803711 22.003499984741211
56.692001342773438 -24.406499862670898 19.406099319458008
60.189998626708984 -26.671699523925781 22.095300674438477
56.468799591064453 -25.624099731445313 20.699199676513672
60.573898315429688 -21.471799850463867 16.427999496459961
55.388599395751953 -23.050699234008789 17.765399932861328
60.071899414062500 -28.423500061035156 23.891700744628906
55.474998474121094 -26.704700469970703 21.636699676513672
56.002601623535156 -26.214599609375000 21.135200500488281
60.947700500488281 -21.030500411987305 15.810400009155273
63.951999664306641 -30.065500259399414 25.807600021362305
56.384998321533203 -24.053499221801758 18.754699707031250
63.466800689697266 -30.596900939941406 26.332399368286133
62.793098449707031 -30.922199249267578 26.607099533081055
55.937999725341797 -23.606100082397461 18.156999588012695
61.804698944091797 -30.786600112915039 26.311599731445312
56.429298400878906 -25.086700439453125 19.723199844360352
60.313800811767578 -28.099199295043945 23.205200195312500
49.914199829101563 -10.409399986267090 3.260819911956787
54.398498535156250 -23.722700119018555 18.011499404907227
60.287998199462891 -29.133499145507813 24.193799972534180
50.893798828125000 -10.455300331115723 3.253479957580566
60.680500030517578 -23.144899368286133 17.658899307250977
60.764900207519531 -24.107799530029297 18.702299118041992
60.818901062011719 -30.130300521850586 25.240699768066406
60.798999786376953 -25.084999084472656 19.722400665283203
56.140598297119141 -24.745000839233398 19.034099578857422
60.453800201416016 -27.521699905395508 22.289199829101563
61.918498992919922 -21.041200637817383 15.343400001525879
60.813598632812500 -26.076400756835938 20.718599319458008
49.312500000000000 -10.290200233459473 2.751529932022095
60.608398437500000 -29.775199890136719 24.625499725341797
55.882301330566406 -26.050500869750977 20.254800796508789
62.896301269531250 -21.050800323486328 15.298000335693359
55.698699951171875 -24.398799896240234 18.433399200439453
60.883598327636719 -22.559999465942383 16.746000289916992
60.661899566650391 -27.156299591064453 21.603900909423828
54.842800140380859 -24.503900527954102 18.324699401855469
61.222400665283203 -22.145099639892578 16.073200225830078
64.462196350097656 -30.053600311279297 24.811700820922852
55.835800170898438 -25.515300750732422 19.288799285888672
55.516899108886719 -25.147800445556641 18.645900726318359
60.986499786376953 -24.018499374389648 17.786399841308594
61.536800384521484 -30.893999099731445 25.245599746704102
60.665901184082031 -28.621200561523437 22.691600799560547
61.015899658203125 -25.015300750732422 18.797199249267578
49.909599304199219 -10.479999542236328 2.250060081481934
61.827400207519531 -22.097799301147461 15.639599800109863
50.896900177001953 -10.457400321960449 2.254940032958984
60.748298645019531 -29.633100509643555 23.713199615478516
61.135398864746094 -23.642299652099609 17.122299194335937
60.948001861572266 -27.049299240112305 20.770599365234375
62.917301177978516 -22.013900756835938 15.397800445556641
62.895599365234375 -31.575700759887695 25.765300750732422
61.106700897216797 -26.122800827026367 19.679599761962891
64.343696594238281 -31.043699264526367 25.208700180053711
63.722400665283203 -31.385900497436523 25.536800384521484
61.108898162841797 -30.366800308227539 24.253200531005859
62.273601531982422 -31.251600265502930 25.274700164794922
60.800899505615234 -28.076599121093750 21.717899322509766
61.401500701904297 -23.051700592041016 16.261699676513672
55.263698577880859 -25.966100692749023 18.840299606323242
60.914798736572266 -29.548700332641602 22.753499984741211
62.334201812744141 -23.093500137329102 15.649900436401367
61.315799713134766 -25.073499679565430 17.729200363159180
61.122001647949219 -30.204200744628906 23.227899551391602
61.281398773193359 -26.078300476074219 18.725000381469727
61.011798858642578 -28.044399261474609 20.791000366210938
50.348800659179688 -10.723899841308594 1.258340001106262
65.027801513671875 -31.077100753784180 24.330200195312500
63.333599090576172 -31.923999786376953 25.129999160766602
61.285099029541016 -27.072399139404297 19.723600387573242
64.080703735351563 -31.717800140380859 24.949899673461914
63.435600280761719 -23.000999450683594 15.421299934387207
60.939498901367188 -29.048099517822266 21.760599136352539
61.496898651123047 -24.515199661254883 16.844299316406250
61.546100616455078 -30.929100036621094 23.751100540161133
61.866401672363281 -24.067399978637695 16.225099563598633
61.993099212646484 -31.449699401855469 24.238000869750977
62.518501281738281 -31.914300918579102 24.715900421142578
61.179798126220703 -30.152099609375000 22.230100631713867
61.511100769042969 -26.038200378417969 17.774700164794922
61.417900085449219 -27.053199768066406 18.754499435424805
63.038501739501953 -23.976299285888672 15.508700370788574
65.532402038574219 -31.073200225830078 23.330799102783203
61.683300018310547 -25.613100051879883 17.129400253295898
61.347499847412109 -28.061500549316406 19.738300323486328
62.051998138427734 -24.987899780273438 16.417900085449219
65.827499389648437 -30.558399200439453 22.718099594116211
64.038200378417969 -32.234901428222656 24.413600921630859
62.499099731445313 -24.506700515747070 15.885899543762207
64.720298767089844 -31.946899414062500 24.110000610351563
61.518901824951172 -30.966100692749023 22.746999740600586
61.176300048828125 -29.097799301147461 20.685699462890625
61.975601196289063 -31.486900329589844 23.246200561523438
62.461299896240234 -31.982000350952148 23.735399246215820
63.387699127197266 -32.550498962402344 24.244499206542969
61.296798706054688 -30.089799880981445 21.231000900268555
62.947101593017578 -25.523500442504883 16.342800140380859
61.857498168945313 -26.569999694824219 17.224800109863281
61.544498443603516 -28.042200088500977 18.781900405883789
62.319400787353516 -26.089799880981445 16.669900894165039
61.397899627685547 -29.056299209594727 19.751600265502930
65.098503112792969 -32.216098785400391 23.387699127197266
61.556900024414063 -30.948200225830078 21.765100479125977
61.643699645996094 -27.649900436401367 18.090799331665039
63.069999694824219 -32.356201171875000 23.247499465942383
61.931400299072266 -31.525800704956055 22.250499725341797
62.464698791503906 -31.986900329589844 22.744699478149414
63.868099212646484 -32.990200042724609 23.681600570678711
62.072601318359375 -27.450899124145508 17.421899795532227
61.607799530029297 -30.691799163818359 20.704700469970703
62.414600372314453 -27.046400070190430 16.769300460815430
61.561100006103516 -30.017499923706055 19.790300369262695
64.762298583984375 -32.939899444580078 23.132499694824219
62.011199951171875 -31.465799331665039 21.265800476074219
61.701301574707031 -29.114299774169922 18.657899856567383
62.470298767089844 -31.982500076293945 21.753799438476563
62.970199584960938 -32.476699829101563 22.247900009155273
62.020099639892578 -28.508600234985352 17.845800399780273
62.894401550292969 -28.055299758911133 16.753000259399414
62.085800170898438 -31.417200088500977 20.279600143432617
61.887798309326172 -30.558200836181641 19.248899459838867
62.549598693847656 -31.922399520874023 20.773700714111328
63.018798828125000 -29.364099502563477 17.998199462890625
63.259101867675781 -32.284900665283203 21.181600570678711
62.084300994873047 -29.933099746704102 18.434900283813477
62.603000640869141 -29.984899520874023 17.881399154663086
63.334300994873047 -32.143798828125000 20.224300384521484
64.385200500488281 -32.563598632812500 20.744600296020508
61.996299743652344 -31.517599105834961 19.263399124145508
62.383300781250000 -32.061599731445313 19.750000000000000
62.257099151611328 -31.111999511718750 18.709499359130859
40.892700195312500 -10.065400123596191 -3.756050109863281
42.403701782226562 -9.620059967041016 -4.278120040893555
43.377399444580078 -8.877869606018066 -5.165390014648438
42.864898681640625 -9.851739883422852 -3.696769952774048
41.409301757812500 -10.166299819946289 -2.772739887237549
43.351001739501953 -9.462490081787109 -4.203549861907959
40.893600463867188 -10.081800460815430 -2.252589941024780
41.876701354980469 -9.962770462036133 -2.231630086898804
41.883598327636719 -10.003000259399414 -1.244250059127808
42.893798828125000 -9.925439834594727 -2.739670038223267
42.860099792480469 -9.801159858703613 -1.757169961929321
42.844299316406250 -9.844449996948242 -0.775206029415131
43.435398101806641 -9.841650009155273 -1.233559966087341
43.916999816894531 -9.623510360717773 -3.277129888534546
44.341899871826172 -9.252559661865234 -4.283110141754150
44.398300170898438 -8.996000289916992 -5.226059913635254
44.853500366210937 -9.631059646606445 -4.755259990692139
45.239200592041016 -10.200200080871582 -4.199250221252441
46.333801269531250 -11.319499969482422 4.357850074768066
44.367698669433594 -11.973699569702148 4.790729999542236
45.378700256347656 -11.516099929809570 4.271019935607910
42.920898437500000 -10.911199569702148 3.347320079803467
47.889598846435547 -11.043800354003906 3.754220008850098
46.888099670410156 -11.104499816894531 3.736140012741089
42.847301483154297 -10.339500427246094 2.549139976501465
44.380798339843750 -11.446000099182129 3.821660041809082
43.897701263427734 -10.993100166320801 3.295010089874268
43.423400878906250 -11.831299781799316 4.071730136871338
45.885299682617188 -10.975600242614746 3.280910015106201
44.888099670410156 -11.030900001525879 3.263400077819824
48.344200134277344 -10.408100128173828 2.810610055923462
44.379699707031250 -10.669300079345703 2.683140039443970
46.905601501464844 -10.894300460815430 2.792119979858398
47.356098175048828 -10.468199729919434 2.296439886093140
45.383701324462891 -10.631500244140625 2.226850032806397
43.368400573730469 -10.276200294494629 1.684110045433044
47.893299102783203 -10.112799644470215 1.736559987068176
44.409599304199219 -10.395799636840820 1.804669976234436
46.388401031494141 -10.678400039672852 2.215640068054199
48.836700439453125 -10.231499671936035 1.744339942932129
46.986301422119141 -10.302800178527832 1.643470048904419
45.894798278808594 -10.490900039672852 1.265220046043396
43.375000000000000 -10.197999954223633 0.720179021358490
47.389598846435547 -10.003999710083008 0.761036992073059
44.367599487304688 -10.205300331115723 0.718953013420105
49.423999786376953 -10.431599617004395 1.251960039138794
46.407299041748047 -10.130399703979492 0.719931006431580
45.371601104736328 -10.307999610900879 0.682187020778656
48.329898834228516 -10.212599754333496 0.752728998661041
43.407299041748047 -9.936220169067383 -0.220975995063782
46.331401824951172 -9.850250244140625 -0.163313999772072
44.386199951171875 -10.073699951171875 -0.253394991159439
45.390399932861328 -10.084400177001953 -0.257932007312775
48.930698394775391 -10.412300109863281 0.258486002683640
48.265300750732422 -10.301699638366699 -0.247128993272781
47.401000976562500 -10.036600112915039 -0.752807021141052
45.342601776123047 -9.804510116577148 -1.155920028686523
44.411300659179688 -9.966930389404297 -1.237669944763184
46.702301025390625 -9.860179901123047 -1.204030036926270
45.886398315429688 -9.576979637145996 -1.752779960632324
44.900299072265625 -9.650730133056641 -2.274820089340210
43.943698883056641 -9.822669982910156 -2.332180023193359
47.811901092529297 -10.661999702453613 -1.223629951477051
45.873600006103516 -9.606430053710938 -2.752199888229370
44.816501617431641 -9.285079956054688 -3.260149955749512
46.862098693847656 -10.107099533081055 -2.244529962539673
46.357398986816406 -10.115400314331055 -3.239229917526245
47.404499053955078 -10.530900001525879 -2.753920078277588
45.785598754882813 -9.802470207214356 -3.732130050659180
