ply
format ascii 1.0
element vertex 523
property double x
property double y
property double z
end_header
-46.998100280761719 411.195007324218750 -556.023986816406250
-44.788101196289063 407.095001220703120 -551.424987792968750
-45.779998779296875 419.919006347656250 -556.617980957031250
-36.505298614501953 413.441009521484370 -553.960998535156250
-38.384201049804687 418.111999511718750 -554.312011718750000
-36.814998626708984 410.062011718750000 -550.687011718750000
-57.328498840332031 401.058013916015620 -560.866027832031250
-51.007499694824219 396.670013427734370 -560.062988281250000
-46.628501892089844 397.865997314453120 -546.458007812500000
-36.309200286865234 420.966003417968750 -548.252014160156250
-29.359100341796875 405.928985595703120 -551.781982421875000
-47.197898864746094 398.829010009765620 -570.557983398437500
-27.097000122070312 408.959014892578120 -556.671020507812500
-35.882598876953125 398.786010742187500 -544.643005371093750
-46.749599456787109 405.877990722656250 -576.206970214843750
-57.668098449707031 400.875000000000000 -571.445007324218750
-36.480800628662109 398.834991455078120 -570.437988281250000
-36.287799835205078 405.378997802734370 -574.757995605468750
-50.444999694824219 385.057006835937500 -546.018981933593750
-35.942298889160156 393.035003662109370 -539.208007812500000
-46.702499389648438 383.752990722656250 -536.340026855468750
-36.318000793457031 385.101013183593750 -535.721984863281250
-47.106498718261719 385.701995849609370 -558.969970703125000
-31.009500503540039 384.416992187500000 -546.549011230468750
-28.395399093627930 385.872009277343750 -546.458984375000000
-28.220899581909180 397.674011230468750 -548.999023437500000
-44.830398559570313 375.251007080078120 -555.039978027343750
-35.678199768066406 385.063995361328120 -559.872009277343750
-49.202899932861328 372.165985107421870 -546.645019531250000
-29.297399520874023 382.122985839843750 -538.302001953125000
-29.313800811767578 389.101989746093750 -555.609985351562500
-39.446601867675781 375.138000488281250 -555.716979980468750
-49.803699493408203 372.802001953125000 -532.098999023437500
-46.481800079345703 368.658996582031250 -524.643981933593750
-34.797100067138672 374.291992187500000 -530.093994140625000
-37.210998535156250 368.891998291015620 -524.760986328125000
-51.660301208496094 358.088989257812500 -534.755004882812500
-29.383699417114258 371.915985107421870 -534.742980957031250
-46.341899871826172 360.674011230468750 -545.138000488281250
-49.725399017333984 359.638000488281250 -519.961975097656250
-29.614500045776367 363.574005126953120 -529.171997070312500
-34.428199768066406 371.320007324218750 -547.943969726562500
-29.314300537109375 375.897003173828120 -542.817016601562500
-33.994899749755859 357.688995361328120 -535.418029785156250
-37.464500427246094 360.985992431640620 -546.036010742187500
-35.699298858642578 359.631988525390620 -519.252990722656250
-46.169601440429688 354.305999755859370 -512.405029296875000
-39.262599945068359 354.269012451171870 -512.672973632812500
-54.850101470947266 347.696990966796870 -519.723999023437500
-49.571201324462891 347.010009765625000 -531.802978515625000
-49.800300598144531 346.165985107421870 -508.145996093750000
-57.052200317382813 343.984008789062500 -519.581970214843750
-36.339298248291016 347.122985839843750 -531.508972167968750
-29.961399078369141 349.626007080078130 -519.309997558593750
-31.533800125122070 345.923004150390620 -520.244995117187500
-29.789400100708008 357.680999755859380 -524.070983886718750
-36.555801391601563 345.829010009765630 -509.028015136718750
-46.828498840332031 337.338012695312500 -528.306030273437500
-38.918800354003906 337.854003906250000 -528.088012695312500
-56.497798919677734 340.984008789062500 -511.618988037109370
-51.876800537109375 336.738006591796870 -502.761993408203120
-48.655101776123047 331.479003906250000 -497.760986328125000
-57.491500854492187 332.492004394531250 -508.212005615234370
-34.332401275634766 334.041992187500000 -506.424987792968750
-39.123699188232422 330.552001953125000 -498.725006103515620
-57.062400817871094 334.143005371093750 -516.781982421875000
-50.797698974609375 332.458007812500000 -522.497009277343750
-48.919498443603516 322.696014404296880 -516.789978027343750
-39.164600372314453 323.785003662109370 -516.361022949218750
-56.676300048828125 327.464996337890620 -499.454986572265620
-35.595798492431641 333.348999023437500 -520.497985839843750
-36.129398345947266 319.875000000000000 -508.066986083984370
-50.986099243164063 317.123992919921870 -511.854003906250000
-58.208900451660156 320.684997558593750 -506.462005615234370
-50.091201782226563 321.475006103515620 -491.576995849609370
-36.290798187255859 320.441009521484370 -494.880004882812500
-48.978099822998047 315.444000244140620 -487.003997802734370
-58.017601013183594 318.799011230468750 -495.730010986328120
-57.712799072265625 310.210998535156250 -502.679992675781250
-49.516601562500000 307.566986083984370 -505.888000488281250
-39.567901611328125 309.291992187500000 -504.416992187500000
-59.495300292968750 306.886993408203120 -494.634002685546870
-35.977298736572266 307.550994873046870 -494.152008056640620
-55.591999053955078 301.748992919921870 -500.114990234375000
-49.864799499511719 307.226989746093750 -482.053009033203120
-49.347999572753906 299.936004638671870 -501.273986816406250
-36.074501037597656 317.600006103515620 -483.114013671875000
-58.245399475097656 305.722991943359370 -484.346008300781250
-29.025299072265625 311.522003173828120 -502.210998535156250
-36.245498657226562 306.911010742187500 -482.014007568359370
-48.555999755859375 297.950012207031250 -476.449005126953120
-39.720298767089844 293.829986572265620 -481.204986572265630
-60.649700164794922 294.718994140625000 -481.054992675781250
-49.396198272705078 293.828002929687500 -496.089996337890620
-40.529201507568359 295.462005615234370 -492.031005859375000
-59.180301666259766 295.062011718750000 -492.153015136718750
-43.124801635742188 287.657012939453120 -489.088989257812500
-50.061599731445313 292.209014892578120 -472.166992187500000
-49.976001739501953 284.618011474609370 -489.790985107421870
-57.613601684570313 286.002014160156250 -489.055999755859370
-59.121498107910156 290.352996826171870 -472.807006835937500
-41.087299346923828 282.850006103515620 -479.796997070312500
-36.463500976562500 304.696990966796870 -472.730010986328120
-48.296199798583984 278.391998291015630 -484.380004882812500
-61.241500854492188 281.020996093750000 -481.850006103515620
-29.085599899291992 302.976013183593750 -481.252990722656250
-48.666198730468750 281.867004394531250 -466.502990722656250
-41.566398620605469 279.932006835937500 -471.688995361328120
-42.594699859619141 273.477996826171870 -475.204986572265620
-52.839599609375000 276.451995849609370 -461.305999755859370
-61.364299774169922 280.628997802734370 -468.175994873046870
-49.880798339843750 269.781005859375000 -478.614013671875000
-57.887901306152344 276.212005615234370 -461.324005126953120
-42.234001159667969 269.915985107421870 -468.010009765625000
-46.013198852539063 266.533996582031250 -469.859008789062500
-59.969699859619141 270.464996337890620 -477.903991699218750
-64.636497497558594 268.127990722656250 -469.033996582031250
-49.600200653076172 267.625000000000000 -457.438995361328120
-42.728698730468750 261.662994384765620 -462.984985351562500
-43.138099670410156 261.933013916015620 -460.678985595703120
-46.839900970458984 256.089996337890620 -454.282012939453120
-42.841999053955078 260.812988281250000 -460.830993652343750
-49.534698486328125 255.802993774414060 -467.639007568359370
-62.282901763916016 267.114990234375000 -456.725006103515620
-53.049900054931641 246.770996093750000 -463.162994384765620
-64.486701965332031 257.785003662109370 -452.394989013671870
-52.036499023437500 252.781005859375000 -446.523986816406250
-62.446998596191406 255.070999145507810 -468.446990966796880
-61.477500915527344 252.645996093750000 -446.239013671875000
-49.061199188232422 242.524002075195310 -456.018005371093750
-70.183197021484375 253.897994995117190 -462.477996826171870
-57.755001068115234 250.037002563476560 -475.369995117187500
-69.438903808593750 263.947998046875000 -448.865997314453120
-71.781501770019531 253.496002197265620 -453.704986572265620
-49.467700958251953 241.783996582031250 -442.680999755859370
-64.095802307128906 243.220993041992190 -440.830993652343750
-52.465499877929688 231.856994628906250 -451.847991943359370
-63.189701080322266 240.511001586914060 -457.347991943359370
-60.901500701904297 237.619995117187500 -434.149993896484370
-48.732101440429687 228.945007324218750 -442.635009765625000
-62.507301330566406 230.330001831054690 -452.253997802734370
-52.671600341796875 237.031005859375000 -431.157989501953120
-66.330101013183594 226.854995727539060 -446.736999511718750
-51.715999603271484 228.511001586914060 -430.540985107421870
-71.266502380371094 228.291000366210940 -442.710998535156250
-63.340499877929687 229.208999633789060 -428.589996337890620
-52.193199157714844 217.393997192382810 -440.919006347656250
-50.332401275634766 216.833999633789060 -428.572998046875000
-62.469699859619141 216.141006469726560 -442.751007080078120
-64.956497192382812 221.022994995117190 -423.726013183593750
-70.794296264648438 226.628005981445310 -432.648986816406250
-52.837501525878906 226.242004394531250 -420.101989746093750
-70.258796691894531 218.783996582031250 -438.871002197265620
-54.779399871826172 208.649993896484370 -436.703002929687500
-71.138999938964844 215.986999511718750 -429.317993164062500
-61.546699523925781 207.740005493164060 -437.403015136718750
-62.743698120117188 215.455993652343750 -419.404998779296870
-53.981800079345703 213.242004394531250 -419.471984863281250
-51.902599334716797 204.238006591796870 -428.713989257812500
-70.370796203613281 212.304000854492190 -421.104003906250000
-52.561100006103516 203.089996337890620 -416.920013427734370
-63.161701202392578 205.391998291015620 -413.071014404296870
-63.485698699951172 201.994003295898440 -432.549011230468750
-54.457698822021484 193.695999145507810 -424.997985839843750
-71.114700317382813 204.298995971679690 -427.588012695312500
-71.582099914550781 202.315002441406250 -416.709991455078120
-62.890499114990234 191.942001342773440 -426.153991699218750
-63.343399047851563 198.904998779296870 -408.602996826171870
-70.197196960449219 194.436996459960940 -424.015014648437500
-54.035800933837891 202.539993286132810 -406.553009033203120
-52.237098693847656 190.389999389648440 -416.279998779296870
-63.371498107910156 185.619003295898440 -421.585998535156250
-72.338996887207031 190.363006591796870 -416.381988525390620
-62.715599060058594 190.350997924804690 -403.088012695312500
-53.685798645019531 188.649002075195310 -406.914001464843750
-71.572303771972656 189.085006713867190 -405.746002197265620
-54.201698303222656 178.923004150390620 -413.364990234375000
-61.721698760986328 182.024002075195310 -397.968994140625000
-62.683998107910156 177.740005493164060 -416.601013183593750
-71.248703002929688 178.350006103515620 -413.247009277343750
-53.060001373291016 177.054992675781250 -403.470001220703130
-73.443397521972656 177.401000976562500 -402.459991455078120
-63.201801300048828 169.317001342773440 -411.227996826171870
-69.746902465820312 170.274002075195310 -410.238006591796870
-62.480201721191406 175.804992675781250 -393.656005859375000
-55.454799652099609 172.240005493164060 -395.032989501953120
-71.306602478027344 174.358001708984370 -394.373992919921870
-53.736198425292969 165.335998535156250 -401.643005371093750
-53.541698455810547 163.541000366210940 -392.697998046875000
-61.924598693847656 163.093994140625000 -406.506011962890620
-72.707702636718750 164.832992553710940 -402.933990478515620
-73.358001708984375 163.845001220703120 -390.097991943359370
-55.444301605224609 156.016006469726560 -398.178985595703120
-61.076198577880859 152.347000122070310 -399.872985839843750
-72.117500305175781 153.020996093750000 -398.805999755859370
-74.703300476074219 151.272003173828120 -390.746002197265620
-75.196098327636719 125.147003173828120 -364.092010498046870
-50.337001800537109 125.619003295898440 -376.052001953125000
-63.278999328613281 114.360000610351560 -373.881988525390620
-72.366500854492188 114.885002136230470 -373.329010009765620
-59.405498504638672 111.988998413085940 -366.229003906250000
-63.047000885009766 111.652000427246090 -353.417999267578120
-74.431701660156250 111.546997070312500 -353.428985595703120
-77.279998779296875 112.067001342773440 -364.981994628906250
-62.560001373291016 100.060997009277340 -363.621002197265620
-60.539100646972656 99.832298278808594 -349.565002441406250
-74.231796264648438 99.993400573730469 -362.576995849609370
-77.844902038574219 99.878402709960938 -350.074005126953120
-46.554500579833984 112.180999755859370 -367.031005859375000
-52.300701141357422 112.150001525878910 -375.967987060546870
-64.756202697753906 96.405601501464844 -342.406005859375000
-73.234802246093750 96.441299438476562 -342.169006347656250
-62.250099182128906 85.860801696777344 -338.377014160156250
-61.662300109863281 85.961799621582031 -352.735992431640620
-64.786003112792969 90.769798278808594 -359.014007568359370
-76.969902038574219 86.400703430175781 -337.933990478515620
-71.219902038574219 91.044601440429688 -358.979003906250000
-75.848602294921875 85.950996398925781 -352.316986083984370
-66.822196960449219 80.943397521972656 -331.197998046875000
-71.860702514648437 80.964996337890625 -330.910003662109370
-63.687000274658203 74.937500000000000 -347.752014160156250
-64.355796813964844 72.572402954101563 -327.924987792968750
-60.274898529052734 72.816398620605469 -338.708007812500000
-75.424499511718750 72.824699401855469 -327.016998291015620
-79.188102722167969 72.974197387695313 -339.486999511718750
-82.529197692871094 72.599899291992187 -333.756011962890620
-63.374500274658203 61.370498657226563 -337.302001953125000
-73.564102172851563 75.058700561523438 -347.686004638671870
-82.628303527832031 69.306098937988281 -329.872985839843750
-62.143798828125000 60.189498901367188 -324.925994873046870
-75.443199157714844 61.134899139404297 -337.303009033203120
-78.047698974609375 61.884399414062500 -323.385986328125000
-66.180297851562500 56.332199096679688 -316.950988769531250
-74.843101501464844 57.499000549316406 -316.610992431640630
-62.875701904296875 47.633399963378906 -325.753997802734370
-64.393501281738281 46.997501373291016 -313.434997558593750
-83.103599548339844 59.510898590087891 -324.520996093750000
-66.527198791503906 51.965698242187500 -333.272003173828120
-72.029197692871094 51.946701049804688 -333.368011474609370
-76.969703674316406 46.621299743652344 -327.066009521484370
-76.177497863769531 47.751899719238281 -310.501007080078120
-84.085700988769531 49.116600036621094 -320.906005859375000
-83.964202880859375 46.072200775146484 -314.674987792968750
-73.425796508789063 41.448398590087891 -305.549011230468750
-75.624603271484375 33.807300567626953 -300.888000488281250
-62.851398468017578 34.481399536132812 -312.441009521484370
-83.929298400878906 35.911598205566406 -310.937011718750000
-79.005699157714844 32.235900878906250 -315.718994140625000
-74.410003662109375 36.357700347900391 -322.194000244140620
-84.209701538085938 31.663600921630859 -302.941986083984370
-65.072402954101563 36.609699249267578 -321.639007568359370
-83.291000366210937 24.637599945068359 -308.260009765625000
-76.201896667480469 21.084899902343750 -312.773986816406250
-63.012100219726563 21.912900924682617 -311.898986816406250
-85.337699890136719 21.512399673461914 -299.178985595703120
-86.012496948242188 16.942300796508789 -290.898010253906250
-76.901702880859375 6.627669811248779 -302.722991943359370
-85.128196716308594 8.911370277404785 -297.223999023437500
-74.821296691894531 8.460399627685547 -310.760009765625000
-88.471099853515625 8.257289886474609 -285.856994628906250
-62.074798583984375 8.723690032958984 -310.446990966796870
-73.236701965332031 -7.627639770507813 -289.531005859375000
-66.005096435546875 -4.501780033111572 -286.644989013671870
-66.592597961425781 -1.482560038566589 -295.200988769531250
-83.504096984863281 -5.135000228881836 -295.321014404296870
-76.714698791503906 -4.002130031585693 -298.627014160156250
-89.154701232910156 -4.760320186614990 -286.566986083984370
-75.292396545410156 -17.653499603271484 -286.609008789062500
-66.737503051757813 -16.491500854492188 -283.876007080078130
-95.409500122070312 3.081259965896606 -277.675994873046870
-67.204902648925781 -18.982000350952148 -275.078002929687500
-75.254798889160156 -26.006200790405273 -281.196990966796870
-89.849899291992188 -18.437900543212891 -277.016998291015630
-67.460403442382813 -29.827400207519531 -272.557006835937500
-88.309600830078125 -16.264400482177734 -260.680999755859370
-75.032402038574219 -32.053298950195312 -276.490997314453120
-86.002403259277344 -30.574100494384766 -273.794006347656250
-92.270599365234375 -10.319199562072754 -265.885009765625000
-68.230102539062500 -33.510799407958984 -265.247985839843750
-89.770797729492187 -17.437500000000000 -286.154998779296870
-98.244499206542969 -18.283800125122070 -272.446990966796880
-72.083396911621094 -43.861198425292969 -259.204010009765620
-68.175903320312500 -43.826999664306641 -262.295989990234370
-89.299797058105469 -33.865798950195312 -265.570007324218750
-75.848396301269531 -42.335601806640625 -270.372985839843750
-68.108901977539063 -39.783500671386719 -268.975006103515620
-85.033599853515625 -41.089698791503906 -269.234985351562500
-88.354400634765625 -45.144901275634766 -262.699005126953120
-68.634803771972656 -53.377399444580078 -257.251007080078130
-73.959602355957031 -56.107799530029297 -246.358001708984370
-78.941299438476563 -60.625701904296875 -239.218994140625000
-88.742698669433594 -55.686698913574219 -246.404006958007810
-86.563499450683594 -60.360900878906250 -238.964004516601560
-69.063697814941406 -58.138500213623047 -252.776992797851560
-75.579200744628906 -56.725700378417969 -260.397003173828120
-86.923896789550781 -55.898799896240234 -258.664001464843750
-77.358001708984375 -65.474502563476563 -255.065994262695310
-84.466598510742188 -64.920898437500000 -255.029998779296870
-73.621101379394531 -69.835098266601562 -248.535003662109370
-88.803703308105469 -70.378700256347656 -248.251998901367190
-76.699203491210937 -70.458602905273438 -235.274993896484370
-88.885200500488281 -70.219596862792969 -233.686004638671870
-74.205299377441406 -82.845001220703125 -234.632995605468750
-76.749702453613281 -80.959602355957031 -244.037994384765620
-79.091300964355469 -84.152198791503906 -224.914993286132810
-86.975601196289063 -80.491500854492188 -243.800994873046870
-91.928901672363281 -82.992500305175781 -235.598999023437500
-88.659797668457031 -83.196800231933594 -223.917007446289060
-95.491500854492188 -84.272399902343750 -230.089996337890620
-77.064598083496094 -95.820098876953125 -221.110000610351560
-89.150497436523438 -92.971603393554688 -218.162994384765620
-80.711997985839844 -101.018997192382810 -213.684005737304690
-95.606399536132813 -86.976600646972656 -224.201995849609370
-76.626403808593750 -94.802696228027344 -233.759994506835940
-88.987297058105469 -95.559700012207031 -233.076004028320310
-95.486503601074219 -92.139900207519531 -228.901000976562500
-89.536300659179687 -98.961799621582031 -210.388000488281250
-78.870101928710938 -104.070999145507810 -228.779006958007810
-86.460098266601563 -104.133003234863280 -228.923995971679690
-99.526901245117187 -96.229797363281250 -221.725997924804690
-76.590103149414063 -108.797996520996090 -221.869995117187500
-88.755401611328125 -109.593002319335940 -224.697998046875000
-85.918502807617188 -107.108001708984370 -205.365997314453120
-79.017700195312500 -109.574996948242190 -210.397994995117190
-77.064903259277344 -121.572998046875000 -208.065002441406250
-99.053100585937500 -111.499000549316410 -209.408004760742190
-78.152999877929688 -119.969001770019530 -217.531997680664060
-88.596801757812500 -120.602996826171870 -218.199996948242190
-88.616798400878906 -124.822998046875000 -212.268005371093750
-100.619003295898440 -97.849601745605469 -209.072006225585940
-102.489997863769530 -108.712997436523440 -221.567001342773440
-89.801696777343750 -134.845001220703120 -210.268997192382810
-76.388198852539062 -134.055999755859370 -207.445007324218750
-94.884002685546875 -132.167007446289060 -215.339996337890620
-76.564201354980469 -144.712997436523440 -203.550994873046880
-75.503402709960938 -160.171005249023440 -182.171997070312500
-91.264297485351563 -165.572006225585940 -184.257003784179690
-87.625900268554687 -161.257995605468750 -196.559005737304690
-99.160697937011719 -172.268997192382810 -179.203994750976560
-103.011001586914060 -173.419998168945310 -168.751007080078120
-100.141998291015620 -176.996994018554690 -160.664001464843750
-87.457901000976563 -176.557006835937500 -186.589004516601560
-87.219398498535156 -187.274002075195310 -167.865997314453120
-102.747001647949220 -186.815994262695310 -155.498001098632810
-87.998596191406250 -196.998001098632810 -154.436004638671870
-99.335098266601563 -192.611999511718750 -149.533996582031250
-101.255996704101560 -186.024002075195310 -168.735992431640620
-89.560897827148437 -197.901000976562500 -165.613006591796870
-98.686698913574219 -196.684005737304690 -164.332000732421870
-88.700798034667969 -201.080993652343750 -145.651992797851560
-88.842903137207031 -209.093002319335940 -139.266006469726560
-101.642997741699220 -200.184997558593750 -144.785995483398440
-81.164299011230469 -206.473999023437500 -137.136001586914060
-75.744102478027344 -201.085998535156250 -143.339996337890620
-103.476997375488280 -211.772003173828120 -142.606994628906250
-100.518997192382810 -211.895004272460940 -154.123992919921870
-87.188400268554688 -214.815994262695310 -131.921997070312500
-72.999702453613281 -205.402999877929690 -135.248992919921870
-103.739997863769530 -200.324996948242190 -157.757995605468750
-109.037002563476560 -203.151992797851560 -146.940002441406250
-88.347801208496094 -206.166000366210940 -162.955001831054690
-90.919998168945313 -213.169998168945310 -159.274993896484370
-108.683998107910160 -197.250000000000000 -152.647994995117190
-101.775001525878910 -215.291000366210940 -134.276992797851560
-76.591903686523438 -210.319000244140620 -129.623001098632810
-90.944999694824219 -224.345001220703120 -129.180999755859370
-83.774002075195312 -218.783996582031250 -122.433998107910160
-101.193000793457030 -224.970993041992190 -128.005004882812500
-88.809997558593750 -226.207000732421870 -117.625999450683590
-83.549797058105469 -226.811996459960940 -143.541000366210940
-75.018798828125000 -215.759994506835940 -118.865997314453120
-79.751899719238281 -220.929992675781250 -114.549003601074220
-103.364997863769530 -230.503005981445310 -123.032997131347660
-109.940002441406250 -216.936996459960940 -134.651992797851560
-102.825996398925780 -225.951004028320310 -143.970001220703120
-90.119499206542969 -238.692993164062500 -128.462997436523440
-109.720001220703120 -222.660003662109370 -138.936996459960940
-93.128898620605469 -237.164993286132810 -116.300003051757810
-101.049003601074220 -238.304992675781250 -117.383003234863280
-85.051696777343750 -229.324005126953120 -106.546997070312500
-96.319602966308594 -243.485000610351560 -108.797996520996090
-89.267799377441406 -238.613006591796870 -103.858001708984370
-88.916000366210938 -246.608993530273440 -125.300003051757810
-91.047996520996094 -251.990997314453120 -118.158996582031250
-101.314002990722660 -249.192993164062500 -112.135002136230470
-79.443298339843750 -225.091995239257810 -104.575996398925780
-110.956001281738280 -230.505004882812500 -122.288002014160160
-83.833702087402344 -240.863998413085940 -95.893600463867188
-80.665100097656250 -239.089004516601560 -93.106101989746094
-79.460502624511719 -230.087005615234370 -96.688697814941406
-74.026298522949219 -218.537002563476560 -108.995002746582030
-100.634002685546870 -252.492996215820310 -105.648002624511720
-92.092399597167969 -248.800003051757810 -100.417999267578120
-113.695999145507810 -239.733993530273440 -116.945999145507810
-111.351997375488280 -238.240997314453120 -128.229995727539060
-106.357002258300780 -239.091003417968750 -133.194000244140620
-100.245002746582030 -238.460998535156250 -143.470993041992190
-111.480003356933590 -226.335998535156250 -130.548004150390620
-68.618698120117187 -209.886001586914060 -120.853996276855470
-68.042999267578125 -207.513000488281250 -127.783996582031250
-109.699996948242190 -212.766998291015620 -142.324996948242190
-66.015800476074219 -203.432998657226560 -133.479003906250000
-63.343200683593750 -199.794006347656250 -156.869995117187500
-66.504302978515625 -186.994003295898440 -170.524993896484370
-87.456001281738281 -187.182998657226560 -187.511993408203120
-93.319198608398438 -185.175003051757810 -188.996002197265620
-90.283096313476563 -172.593002319335940 -192.332000732421870
-69.086097717285156 -154.011993408203120 -195.774993896484370
-89.902198791503906 -147.005996704101560 -207.113998413085940
-96.000900268554688 -149.753005981445310 -213.930999755859370
-67.663398742675781 -140.216995239257810 -198.697006225585940
-101.559997558593750 -147.589996337890620 -218.533996582031250
-100.162002563476560 -134.373001098632810 -218.735992431640620
-101.135002136230470 -122.328002929687500 -220.190002441406250
-110.219001770019530 -111.466003417968750 -217.328994750976560
-108.855003356933590 -95.539199829101563 -203.755996704101560
-104.861000061035160 -30.215700149536133 -260.549011230468750
-102.679000854492190 -30.504199981689453 -273.667999267578120
-98.232299804687500 -9.387909889221191 -264.493011474609380
-96.530097961425781 -22.280799865722656 -284.164001464843750
-97.373397827148438 -5.318039894104004 -272.653991699218750
-63.827800750732422 -1.684919953346252 -311.618988037109370
-50.214199066162109 113.260002136230470 -339.429992675781250
-51.273998260498047 100.428001403808590 -373.662994384765620
-40.579799652099609 112.626998901367190 -360.427001953125000
-68.769699096679688 220.192001342773440 -457.690002441406250
-74.621902465820313 229.421997070312500 -455.368988037109370
-69.366302490234375 232.880004882812500 -462.839996337890620
-68.215202331542969 232.011993408203120 -466.726013183593750
-75.873199462890625 242.095001220703120 -454.972991943359370
-69.439903259277344 236.878997802734370 -462.868011474609370
-83.744697570800781 253.044998168945310 -442.542999267578120
-76.297401428222656 256.606994628906250 -445.752014160156250
-64.458999633789063 243.328994750976560 -467.721984863281250
-74.056900024414063 262.778991699218750 -444.372009277343750
-60.401100158691406 244.123992919921870 -475.910003662109370
-25.762300491333008 291.126007080078120 -457.852996826171870
-21.019199371337891 284.653015136718750 -476.847991943359370
-31.666700363159180 297.058013916015620 -460.354003906250000
-25.437099456787109 293.259002685546870 -468.218994140625000
-33.369201660156250 297.690002441406250 -468.433990478515620
-26.152500152587891 294.609985351562500 -480.292999267578120
-26.748100280761719 306.829986572265620 -495.351989746093750
-43.740501403808594 389.941009521484370 -566.747985839843750
-40.508899688720703 390.270996093750000 -566.875976562500000
-31.940599441528320 394.635009765625000 -563.971984863281250
-27.475799560546875 398.563995361328120 -559.023986816406250
-29.300500869750977 402.933013916015620 -567.747009277343750
-28.197299957275391 405.796997070312500 -568.887023925781250
-61.400901794433594 165.671997070312500 -387.488006591796870
-70.238601684570312 159.522994995117190 -382.316986083984370
-63.438201904296875 160.944000244140620 -377.618988037109370
-53.319900512695313 152.009002685546870 -389.677001953125000
-57.790699005126953 148.119003295898440 -394.095001220703120
-72.918601989746094 150.417007446289060 -379.605987548828120
-53.743000030517578 148.091995239257810 -380.561004638671870
-54.585498809814453 138.919006347656250 -387.197998046875000
-72.736198425292969 138.645004272460940 -389.165985107421870
-75.607200622558594 138.845993041992190 -376.653991699218750
-50.699901580810547 138.893997192382810 -376.657989501953120
-71.037101745605469 139.257995605468750 -397.645996093750000
-72.313301086425781 135.410003662109370 -368.510986328125000
-61.813999176025391 125.665000915527340 -363.213989257812500
-61.354000091552734 123.872001647949220 -378.972991943359370
-52.598499298095703 136.281005859375000 -366.321014404296870
-74.458999633789063 125.339996337890630 -377.550994873046870
-48.039398193359375 126.463996887207030 -363.739013671875000
-70.777099609375000 120.154998779296870 -357.166992187500000
-62.718601226806641 123.049003601074220 -353.520996093750000
-48.097698211669922 115.650001525878910 -349.136993408203120
-64.833000183105469 31.787200927734375 -302.897003173828120
-76.341300964355469 24.750400543212891 -295.178009033203120
-61.088699340820313 22.611299514770508 -299.309997558593750
-73.769096374511719 18.925399780273438 -287.884002685546870
-64.221298217773437 8.187150001525879 -298.869995117187500
-66.672500610351563 7.560649871826172 -288.691986083984370
-75.362899780273437 9.372289657592773 -283.700012207031250
-55.896400451660156 17.314899444580078 -296.592987060546870
-56.010299682617188 10.781399726867676 -303.257995605468750
-76.144599914550781 -3.759370088577271 -273.358001708984370
-67.972198486328125 -8.613579750061035 -278.265991210937500
-89.671997070312500 3.443850040435791 -278.204010009765620
-88.415802001953125 -4.870739936828613 -272.222991943359370
-72.172302246093750 -16.093900680541992 -269.859985351562500
-74.576103210449219 -30.857999801635742 -259.730987548828120
-77.003997802734375 -44.663799285888672 -250.412994384765620
-86.735000610351563 -22.775400161743164 -251.132995605468750
-85.844200134277344 -44.951999664306641 -249.529998779296870
-40.620498657226563 119.657997131347660 -357.026000976562500
-40.523998260498047 122.875999450683590 -363.023986816406250
-90.903198242187500 -108.911003112792970 -195.348007202148440
-80.843902587890625 -124.171997070312500 -200.477005004882810
-98.717201232910156 -120.831001281738280 -206.393005371093750
-86.772102355957031 -121.489997863769530 -194.363006591796870
-96.207397460937500 -103.220001220703120 -192.598999023437500
-85.880203247070312 -132.078002929687500 -191.781005859375000
-81.835296630859375 -126.182998657226560 -186.953002929687500
-97.632301330566406 -123.628997802734370 -198.485992431640620
-78.169502258300781 -135.356002807617190 -196.910995483398440
-80.959999084472656 -132.690994262695310 -185.397994995117190
-97.437202453613281 -132.781997680664060 -204.145996093750000
-99.670303344726563 -134.477996826171870 -195.074996948242190
-89.474098205566406 -121.609001159667970 -182.438003540039060
-87.774803161621094 -134.156997680664060 -182.716995239257810
-97.785896301269531 -139.042007446289060 -187.115005493164060
-86.190200805664063 -145.621994018554690 -180.427993774414060
-80.317497253417969 -151.194000244140620 -183.669998168945310
-100.194999694824220 -148.496994018554690 -182.492004394531250
-99.066802978515625 -146.712997436523440 -194.199996948242190
-97.255897521972656 -156.513000488281250 -190.257003784179690
-89.704803466796875 -149.203994750976560 -199.059005737304690
-75.038200378417969 -148.164001464843750 -194.973007202148440
-89.467102050781250 -162.026000976562500 -172.332000732421870
-101.348999023437500 -160.940994262695310 -182.680999755859370
-87.539001464843750 -172.852005004882810 -167.582000732421870
-100.025001525878910 -161.513000488281250 -171.873001098632810
-77.812500000000000 -159.251007080078120 -168.919006347656250
-91.284500122070313 -177.858001708984370 -161.057006835937500
-88.846099853515625 -187.544006347656250 -157.438003540039060
-75.133598327636719 -195.018005371093750 -154.970001220703130
-72.742202758789063 -185.718994140625000 -168.003997802734380
-100.535003662109370 -100.040000915527340 -186.210006713867190
-101.122001647949220 -98.559097290039062 -194.498001098632810
