ply
format ascii 1.0
element vertex 245
property double x
property double y
property double z
end_header
-192.494995117187500 -890.059020996093750 256.307006835937500
-192.494995117187500 -890.059020996093750 256.307006835937500
-191.686996459960940 -885.729003906250000 248.654998779296870
-192.014999389648440 -876.612976074218750 244.509002685546870
-194.102996826171870 -872.590026855468750 237.264007568359370
-192.050003051757810 -866.109008789062500 241.839996337890630
-183.460006713867190 -873.070007324218750 223.119995117187500
-191.936996459960940 -862.732971191406250 233.546005249023440
-189.824005126953120 -859.541992187500000 225.395996093750000
-184.371002197265620 -860.617004394531250 222.162994384765620
-190.889999389648440 -850.536987304687500 231.583999633789060
-189.272003173828120 -849.075988769531250 223.380004882812500
-182.195999145507810 -848.390991210937500 219.468994140625000
-189.882003784179690 -839.491027832031250 229.828002929687500
-188.643997192382810 -835.874023437500000 221.636993408203120
-181.177993774414060 -837.786987304687500 216.552993774414060
-179.807998657226560 -845.104980468750000 205.977996826171870
-187.664993286132810 -828.270019531250000 227.402999877929690
-177.798995971679690 -835.997009277343750 209.572998046875000
-170.875000000000000 -832.346008300781250 210.731002807617190
-188.494003295898440 -823.922973632812500 219.492996215820310
-185.173995971679690 -825.973022460937500 215.891006469726560
-177.447998046875000 -833.528015136718750 198.889007568359370
-186.705001831054690 -821.129028320312500 213.067993164062500
-178.763000488281250 -823.359008789062500 209.141006469726560
-168.871002197265620 -822.338989257812500 206.367004394531250
-165.356002807617190 -808.166992187500000 227.061004638671870
-163.354003906250000 -808.119018554687500 227.175003051757810
-188.009994506835940 -811.922973632812500 217.658996582031250
-185.427993774414060 -807.104980468750000 220.216003417968750
-177.352005004882810 -822.872985839843750 195.955993652343750
-187.397003173828120 -809.624023437500000 212.050994873046880
-178.613998413085940 -810.846984863281250 205.927001953125000
-167.457992553710940 -813.463989257812500 202.725997924804690
-187.052001953125000 -800.958984375000000 215.697006225585940
-185.677993774414060 -799.125976562500000 216.800003051757810
-172.837005615234370 -817.963012695312500 189.610992431640620
-164.651000976562500 -796.757995605468750 221.212005615234370
-158.910003662109370 -796.497985839843750 221.802001953125000
-177.167999267578120 -810.893981933593750 194.388000488281250
-187.087005615234370 -798.254028320312500 210.639999389648440
-166.785003662109370 -807.617980957031250 198.848999023437500
-159.216003417968750 -806.455017089843750 200.427001953125000
-181.104003906250000 -798.747009277343750 204.233001708984370
-171.324996948242190 -808.396972656250000 185.470993041992190
-174.039001464843750 -806.812011718750000 187.110992431640620
-165.699996948242190 -785.966979980468750 216.175003051757810
-156.091995239257810 -785.544982910156250 216.434997558593750
-177.098999023437500 -797.106994628906250 196.757995605468750
-186.968994140625000 -787.348022460937500 209.220001220703120
-167.345993041992190 -797.388977050781250 194.964004516601560
-158.305999755859370 -795.885986328125000 194.300003051757810
-184.662002563476560 -784.767028808593750 205.889007568359370
-164.449005126953120 -781.554016113281250 212.936996459960940
-156.388000488281250 -780.421997070312500 212.863998413085940
-175.716003417968750 -797.447998046875000 185.233993530273440
-186.212005615234370 -777.682983398437500 209.712005615234370
-169.802993774414060 -797.401000976562500 180.554000854492190
-178.587005615234370 -784.482971191406250 196.436004638671870
-168.361999511718750 -785.854980468750000 190.759994506835940
-155.750000000000000 -786.004028320312500 189.787002563476560
-184.190002441406250 -772.596984863281250 204.751998901367190
-167.557006835937500 -770.169006347656250 208.895996093750000
-155.567001342773440 -771.429992675781250 208.070999145507810
-176.167007446289060 -784.570983886718750 181.970993041992190
-166.888000488281250 -783.869018554687500 182.977005004882810
-156.483993530273440 -781.377014160156250 186.634002685546870
-179.574005126953120 -772.049987792968750 193.559997558593750
-171.369003295898440 -773.450988769531250 191.902999877929690
-149.473007202148440 -777.252014160156250 188.667007446289060
-166.701004028320310 -782.541015625000000 173.110000610351560
-170.328002929687500 -760.185974121093750 205.445007324218750
-176.061996459960940 -756.715026855468750 207.807006835937500
-152.518005371093750 -761.385009765625000 203.330001831054690
-166.555999755859370 -771.455017089843750 183.981994628906250
-144.979003906250000 -758.354003906250000 204.742004394531250
-176.119003295898440 -771.447021484375000 180.757003784179690
-171.078994750976560 -759.804992675781250 196.990005493164060
-153.511001586914060 -771.247985839843750 182.171997070312500
-146.311996459960940 -767.468017578125000 184.979003906250000
-180.464996337890620 -758.398010253906250 193.361999511718750
-154.335006713867190 -755.931030273437500 199.373001098632810
-144.826004028320310 -754.734985351562500 200.606994628906250
-167.940994262695310 -751.677001953125000 201.854003906250000
-174.240005493164060 -769.539001464843750 173.684005737304690
-178.990005493164060 -745.442016601562500 207.764007568359370
-167.104003906250000 -771.411987304687500 169.106994628906250
-143.632003784179690 -749.869018554687500 201.354995727539060
-176.445007324218750 -758.070007324218750 184.367004394531250
-167.354995727539060 -758.973022460937500 179.675994873046870
-152.009994506835940 -761.882995605468750 177.307006835937500
-145.587997436523440 -758.804016113281250 178.815002441406250
-159.503005981445310 -766.200012207031250 162.895996093750000
-174.828994750976560 -757.900024414062500 170.572998046875000
-153.781005859375000 -756.239990234375000 173.027999877929690
-167.550994873046870 -758.857971191406250 166.740997314453120
-146.199996948242190 -753.963012695312500 174.188003540039060
-163.061004638671870 -756.096008300781250 160.735992431640620
-158.417999267578120 -757.257019042968750 158.830993652343750
-179.229995727539060 -746.158996582031250 194.526000976562500
-151.701995849609370 -747.596008300781250 195.160003662109370
-164.384994506835940 -744.702026367187500 197.141998291015620
-180.259994506835940 -733.617004394531250 207.634002685546880
-143.604003906250000 -744.372009277343750 196.268005371093750
-171.035003662109370 -737.856018066406250 197.996994018554690
-143.358001708984370 -751.119995117187500 177.166000366210940
-176.916000366210940 -744.862976074218750 181.912994384765620
-169.893005371093750 -748.002990722656250 177.014999389648440
-155.360000610351560 -740.963989257812500 187.447998046875000
-179.451004028320310 -732.864013671875000 195.326004028320310
-140.102005004882810 -734.054016113281250 191.507995605468750
-166.464004516601560 -744.703979492187500 171.156997680664060
-174.839004516601560 -745.804992675781250 168.238998413085940
-152.667007446289060 -745.684020996093750 168.520004272460940
-144.098999023437500 -744.632995605468750 169.595993041992190
-172.955001831054690 -737.900024414062500 175.598007202148440
-177.507995605468750 -733.518005371093750 180.621994018554690
-132.419006347656250 -728.992980957031250 191.330993652343750
-141.651992797851560 -729.492004394531250 187.651992797851560
-153.048004150390620 -731.554016113281250 182.240005493164060
-166.460998535156250 -745.241027832031250 158.255996704101560
-133.376007080078120 -726.073974609375000 189.639007568359370
-135.636993408203120 -725.807006835937500 189.341003417968750
-157.233001708984370 -745.414001464843750 153.720993041992190
-135.507995605468750 -723.906005859375000 187.412994384765620
-174.789001464843750 -731.986999511718750 170.348007202148440
-167.274002075195310 -732.416992187500000 168.720001220703120
-153.117004394531250 -735.325988769531250 163.888000488281250
-140.832000732421870 -733.057983398437500 165.231994628906250
-150.335998535156250 -723.119018554687500 177.479995727539060
-173.485992431640620 -730.125976562500000 160.449005126953120
-167.815002441406250 -733.258972167968750 154.451004028320310
-152.414001464843750 -731.182983398437500 158.856994628906250
-143.897994995117190 -729.366027832031250 160.440002441406250
-151.246994018554690 -717.234985351562500 172.977996826171870
-173.257995605468750 -724.106994628906250 158.194000244140620
-155.994995117187500 -732.546020507812500 147.425994873046870
-139.264999389648440 -720.645996093750000 166.552993774414060
-162.007003784179690 -728.172973632812500 148.162994384765620
-166.289993286132810 -719.372009277343750 157.339004516601560
-132.274993896484370 -718.010009765625000 163.341995239257810
-153.761001586914060 -719.620971679687500 155.755996704101560
-140.444000244140620 -719.265014648437500 157.205993652343750
-171.263000488281250 -710.513000488281250 163.231002807617190
-132.852005004882810 -715.096984863281250 161.233993530273440
-150.367996215820310 -706.559997558593750 165.878997802734370
-164.595993041992190 -718.650024414062500 146.106002807617190
-144.005004882812500 -706.533020019531250 164.675003051757810
-158.813003540039060 -718.588012695312500 142.477005004882810
-166.076995849609370 -706.327026367187500 157.401000976562500
-173.151992797851560 -702.070983886718750 161.294998168945310
-131.805999755859370 -706.010986328125000 158.225997924804690
-156.701995849609370 -707.577026367187500 152.341995239257810
-138.076995849609370 -707.356994628906250 153.645996093750000
-166.781005859375000 -690.942993164062500 171.716003417968750
-146.050994873046870 -697.869995117187500 163.600006103515620
-165.529006958007810 -707.054992675781250 142.386993408203130
-153.522003173828120 -705.830017089843750 144.203994750976560
-141.035995483398440 -703.791992187500000 146.929000854492190
-150.753005981445310 -694.687988281250000 156.410003662109370
-167.190002441406250 -695.025024414062500 153.389999389648440
-142.054992675781250 -694.065979003906250 155.481994628906250
-131.020004272460940 -695.236999511718750 153.981002807617190
-164.541000366210940 -682.382019042968750 165.949005126953120
-157.567993164062500 -703.179016113281250 134.675994873046870
-160.914993286132810 -701.591003417968750 135.813995361328120
-162.979003906250000 -690.924011230468750 146.725006103515620
-154.561004638671870 -693.273986816406250 144.195007324218750
-136.363998413085940 -704.244018554687500 129.218002319335940
-138.787002563476560 -693.572998046875000 142.876998901367190
-159.429000854492190 -677.133972167968750 164.177001953125000
-133.330993652343750 -690.289001464843750 146.408004760742190
-162.296997070312500 -695.815002441406250 133.899002075195310
-148.608993530273440 -683.809020996093750 151.141998291015620
-143.514007568359370 -683.814025878906250 151.132003784179690
-158.242004394531250 -695.705993652343750 131.214996337890630
-137.382003784179690 -700.098022460937500 127.275001525878910
-129.397994995117190 -683.096984863281250 150.774002075195310
-165.080993652343750 -680.773010253906250 144.214004516601560
-138.714996337890620 -681.831970214843750 142.005996704101560
-155.343002319335940 -681.221984863281250 140.225997924804690
-132.080993652343750 -680.030029296875000 142.470001220703120
-157.134002685546870 -666.421020507812500 155.500000000000000
-150.789001464843750 -678.026000976562500 134.076995849609370
-139.962997436523440 -679.260986328125000 133.128005981445310
-133.824005126953120 -675.838012695312500 135.587005615234370
-148.839996337890620 -668.588989257812500 140.145004272460940
-129.813003540039060 -668.299987792968750 142.216995239257810
-142.445999145507810 -667.359985351562500 140.677993774414060
-153.261993408203120 -667.648010253906250 130.027999877929690
-132.587997436523440 -666.700012207031250 131.882995605468750
-138.578994750976560 -668.182006835937500 127.885002136230470
-154.373001098632810 -653.151977539062500 145.236999511718750
-142.477996826171870 -659.801025390625000 136.555999755859380
-129.119003295898440 -655.197998046875000 140.253997802734370
-141.919006347656250 -662.359985351562500 122.322998046875000
-140.233993530273440 -654.257019042968750 131.027999877929690
-155.919006347656250 -656.606994628906250 125.510002136230470
-130.940002441406250 -655.442016601562500 129.106994628906250
-153.509994506835940 -644.411987304687500 138.854003906250000
-145.509002685546870 -643.861999511718750 138.242004394531250
-129.550994873046880 -643.820007324218750 138.516998291015620
-151.544006347656250 -652.580993652343750 120.860000610351560
-139.929000854492190 -654.247985839843750 118.406997680664060
-132.776000976562500 -651.018981933593750 121.335998535156250
-153.776992797851560 -638.106994628906250 134.154006958007810
-142.565994262695310 -642.533996582031250 127.714996337890620
-129.020004272460940 -641.981018066406250 129.781997680664060
-141.001998901367190 -643.877014160156250 112.713996887207030
-131.199005126953120 -641.171997070312500 117.568000793457030
-129.690994262695310 -629.513000488281250 128.156005859375000
-133.617004394531250 -636.844970703125000 109.638999938964840
-128.686004638671870 -628.888977050781250 116.577003479003910
-131.992996215820310 -619.482971191406250 124.882003784179690
-131.507003784179690 -627.382995605468750 106.142997741699220
-128.927993774414060 -615.653015136718750 117.112998962402340
-141.229995727539060 -620.255981445312500 98.276298522949219
-129.276000976562500 -615.916015625000000 102.749000549316410
-136.236999511718750 -602.840026855468750 115.533996582031250
-130.902999877929690 -604.150024414062500 113.623001098632810
-140.884994506835940 -613.940002441406250 94.222702026367188
-132.110000610351560 -612.348022460937500 95.198699951171875
-152.130004882812500 -611.153015136718750 93.323799133300781
-137.320007324218750 -596.119995117187500 113.051002502441410
-127.361000061035160 -602.481994628906250 104.267997741699220
-140.891998291015620 -603.478027343750000 87.995597839355469
-129.746002197265620 -602.038024902343750 91.450500488281250
-127.905998229980470 -591.510986328125000 102.126998901367190
-133.863998413085940 -597.520996093750000 84.114601135253906
-138.184005737304690 -597.200012207031250 83.586196899414063
-126.817001342773440 -590.205993652343750 89.899803161621094
-130.792999267578120 -588.395996093750000 80.785896301269531
-125.504997253417970 -579.867004394531250 86.641601562500000
-128.098999023437500 -577.109985351562500 76.918403625488281
-139.569000244140620 -573.333984375000000 69.588302612304688
-131.039001464843750 -572.380004882812500 69.780998229980469
-125.535003662109370 -566.796997070312500 73.816802978515625
-154.865997314453120 -563.533020019531250 64.758003234863281
-141.130996704101560 -563.783020019531250 64.460899353027344
-129.182998657226560 -563.060974121093750 65.693603515625000
-143.861999511718750 -553.846008300781250 60.782901763916016
-125.887001037597660 -552.146972656250000 62.789901733398438
-139.035003662109370 -549.244995117187500 54.888000488281250
-129.979995727539060 -548.658020019531250 55.174198150634766
-123.557998657226560 -541.151977539062500 61.199001312255859
