ply
format ascii 1.0
element vertex 111
property double x
property double y
property double z
end_header
50.821399688720703 235.641998291015620 -390.526000976562500
50.821399688720703 235.641998291015620 -390.526000976562500
43.282798767089844 235.279006958007810 -394.895996093750000
37.158199310302734 233.994003295898440 -401.044006347656250
45.525299072265625 237.727005004882810 -395.049011230468750
32.642101287841797 233.401992797851560 -405.585998535156250
67.059303283691406 242.826004028320310 -389.562011718750000
54.488601684570313 241.664993286132810 -393.140991210937500
80.722198486328125 245.197998046875000 -389.257995605468750
40.940101623535156 242.574996948242190 -402.295989990234370
89.976997375488281 247.876998901367190 -389.782989501953120
28.228300094604492 235.751007080078120 -415.944000244140620
49.601299285888672 246.164993286132810 -398.032989501953120
32.860801696777344 241.302993774414060 -408.001007080078130
79.713096618652344 252.570007324218750 -386.691009521484370
94.277603149414063 252.313995361328130 -386.503997802734370
80.707603454589844 258.954010009765630 -379.429992675781250
56.814399719238281 259.720001220703120 -381.394012451171870
68.666702270507813 258.928009033203120 -381.075988769531250
66.663902282714844 253.936996459960940 -388.841003417968750
29.300300598144531 254.432006835937500 -392.885986328125000
97.648300170898438 273.101989746093750 -356.932006835937500
45.618499755859375 260.832000732421870 -382.279998779296870
103.193000793457030 253.837997436523440 -385.890991210937500
82.905799865722656 267.744995117187500 -368.153015136718750
40.959201812744141 257.979003906250000 -387.971984863281250
106.111000061035160 273.945007324218750 -356.332000732421870
56.599399566650391 253.975997924804690 -391.937988281250000
94.016403198242188 268.906005859375000 -365.562988281250000
43.776298522949219 262.065002441406250 -382.006988525390620
79.077499389648438 265.164001464843750 -373.023010253906250
93.646102905273438 258.932006835937500 -380.625000000000000
94.338203430175781 264.039001464843750 -373.816986083984370
59.570400238037109 264.260986328125000 -377.877014160156250
106.405998229980470 258.893005371093750 -380.838012695312500
49.922298431396484 251.869995117187500 -398.282989501953120
38.681499481201172 261.959991455078120 -384.989013671875000
109.500000000000000 276.175994873046870 -356.272003173828120
27.291000366210938 243.593994140625000 -415.536987304687500
115.068000793457030 260.595001220703120 -379.996002197265620
68.002502441406250 266.941986083984370 -377.028991699218750
16.398599624633789 252.811004638671870 -404.563995361328120
104.741996765136720 272.598999023437500 -365.769989013671870
41.755500793457031 253.236999511718750 -402.329010009765630
107.166000366210940 267.048004150390630 -374.371002197265620
28.294900894165039 254.955993652343750 -403.584991455078120
119.553001403808590 267.946990966796870 -373.960998535156250
110.543998718261720 276.385986328125000 -362.798004150390620
119.632003784179690 281.121002197265620 -355.704010009765630
8.166359901428223 255.466003417968750 -407.838989257812500
23.347200393676758 241.807998657226560 -426.365997314453120
127.514999389648440 270.832000732421870 -371.255004882812500
123.960998535156250 272.459991455078120 -370.583007812500000
128.369995117187500 272.420013427734370 -370.273986816406250
26.212299346923828 253.921005249023440 -414.494995117187500
119.865997314453120 281.699005126953120 -365.118011474609380
19.956600189208984 246.458999633789060 -430.106994628906250
125.084999084472660 289.173004150390620 -355.079986572265620
15.694000244140625 256.894012451171880 -416.964996337890620
6.978590011596680 259.946014404296880 -415.006011962890620
131.117996215820310 281.722991943359370 -369.830993652343750
124.648002624511720 289.144989013671870 -362.346008300781250
16.951400756835937 247.100006103515620 -437.742004394531250
14.108799934387207 255.848007202148440 -429.109985351562500
129.705001831054690 296.592987060546870 -355.684997558593750
2.635469913482666 265.144989013671870 -418.729003906250000
11.463500022888184 252.248992919921870 -437.276000976562500
8.966480255126953 262.343994140625000 -422.824005126953120
140.716003417968750 287.851989746093750 -370.148010253906250
133.164993286132810 293.558013916015620 -366.627990722656250
12.106100082397461 262.178985595703120 -428.279998779296870
7.868219852447510 260.348999023437500 -432.662994384765620
135.371994018554690 302.692993164062500 -356.082000732421870
3.586950063705444 256.695007324218750 -440.700012207031250
142.048004150390620 294.518005371093750 -370.342987060546870
2.362200021743774 267.294006347656250 -429.279998779296870
-8.325710296630859 257.486999511718750 -446.476989746093750
137.263000488281250 302.722991943359370 -362.569000244140620
145.643997192382810 297.354003906250000 -371.299987792968750
143.942993164062500 308.606994628906250 -356.455993652343750
-12.714799880981445 261.123992919921870 -449.390014648437500
-6.245379924774170 273.653015136718750 -431.480987548828120
-1.120139956474304 267.191986083984370 -441.708007812500000
-11.133199691772461 275.527008056640620 -431.924011230468750
143.973007202148440 309.002014160156250 -363.839996337890620
-18.337400436401367 274.089996337890620 -438.783996582031250
-7.917029857635498 271.644989013671870 -443.171997070312500
148.929992675781250 306.894012451171870 -371.989013671875000
152.992004394531250 319.731994628906250 -357.001007080078130
-11.789199829101563 275.983001708984370 -444.604003906250000
-12.256099700927734 269.692993164062500 -454.679992675781250
149.173995971679690 318.194000244140620 -363.950012207031250
-3.678129911422730 275.947998046875000 -446.584014892578120
152.904998779296870 311.927001953125000 -374.513000488281250
-20.514299392700195 278.924011230468750 -445.423004150390620
152.358001708984370 322.907989501953120 -360.979003906250000
150.824005126953120 316.665008544921870 -372.070007324218750
-16.405599594116211 272.303985595703120 -463.661010742187500
-13.098500251770020 278.946014404296870 -455.161010742187500
153.029998779296870 320.610992431640620 -374.151000976562500
-17.690799713134766 272.264007568359370 -467.740997314453120
-20.822700500488281 284.200012207031250 -454.028991699218750
-16.304199218750000 278.579010009765620 -463.744995117187500
153.985000610351560 332.730010986328120 -366.466003417968750
-18.809400558471680 281.522003173828120 -469.588989257812500
156.789001464843750 333.989013671875000 -373.709991455078120
154.522994995117190 345.014007568359370 -367.617004394531250
158.380004882812500 345.891998291015620 -373.313995361328120
156.820999145507810 359.807006835937500 -376.947998046875000
156.097000122070310 367.462005615234370 -381.971984863281250
155.464004516601560 370.760986328125000 -385.462005615234370
