ply
format ascii 1.0
element vertex 224
property double x
property double y
property double z
end_header
-296.040985107421870 88.747802734375000 -418.053009033203120
-282.240997314453120 86.340797424316406 -418.321014404296880
-247.195007324218750 89.591499328613281 -409.264007568359370
-309.003997802734370 89.589401245117188 -417.937988281250000
-296.040985107421870 88.747802734375000 -418.053009033203120
-270.910003662109370 86.420600891113281 -418.367004394531250
-258.648010253906250 88.528800964355469 -415.098999023437500
-248.664993286132810 91.630401611328125 -410.984008789062500
-317.825988769531250 92.227798461914063 -419.878997802734370
-239.865997314453120 96.638099670410156 -408.584991455078120
-322.691986083984370 95.680900573730469 -420.561004638671870
-309.196990966796880 89.537902832031250 -429.223999023437500
-273.828002929687500 72.931098937988281 -449.428009033203120
-258.273986816406250 77.398200988769531 -442.072998046875000
-324.018005371093750 75.856399536132813 -453.256988525390620
-270.583007812500000 76.400100708007812 -445.971984863281250
-319.622985839843750 91.607200622558594 -430.915008544921870
-296.367004394531250 90.503402709960938 -429.795013427734370
-318.373992919921870 79.688796997070313 -448.536987304687500
-310.760009765625000 77.099403381347656 -451.463012695312500
-265.242004394531250 93.668899536132813 -422.091003417968750
-314.342987060546870 79.792098999023438 -448.709991455078120
-282.885986328125000 91.535697937011719 -428.351013183593750
-326.946990966796870 80.868499755859375 -449.825988769531250
-325.505004882812500 95.799201965332031 -427.872985839843750
-279.430999755859370 78.600402832031250 -447.811004638671870
-256.338012695312500 95.813301086425781 -419.765014648437500
-234.320007324218750 102.053001403808590 -408.019012451171870
-307.493988037109380 80.217796325683594 -449.596984863281250
-283.864990234375000 76.594200134277344 -452.394012451171870
-272.941986083984370 92.090103149414063 -428.446990966796880
-323.106994628906250 86.994499206542969 -443.144989013671870
-331.154998779296870 77.411399841308594 -458.295013427734370
-244.539993286132810 98.983802795410156 -415.888000488281250
-280.835998535156250 93.742202758789063 -428.190002441406250
-309.440002441406250 86.177696228027344 -443.130004882812500
-258.937011718750000 85.301498413085937 -438.941009521484370
-327.713989257812500 93.136703491210937 -436.165008544921870
-270.516998291015620 85.640800476074219 -440.428009033203120
-288.079010009765620 80.817100524902344 -449.769012451171870
-283.316986083984370 85.778396606445313 -442.355987548828120
-296.736999511718750 81.348098754882813 -450.648986816406250
-296.582000732421870 78.575599670410156 -454.725006103515620
-295.743988037109370 86.819297790527344 -442.617004394531250
-270.057006835937500 94.471298217773438 -428.385986328125000
-334.493988037109370 89.537002563476563 -444.798004150390620
-333.721008300781250 77.546203613281250 -463.322998046875000
-245.662994384765620 87.272903442382813 -438.510009765625000
-334.958007812500000 101.148002624511720 -430.209991455078120
-337.876007080078120 95.301803588867188 -439.412994384765620
-336.631988525390620 84.682998657226563 -454.880004882812500
-235.574005126953120 84.338203430175781 -442.657989501953130
-235.701995849609370 103.999000549316410 -414.319000244140620
-228.085998535156250 108.732002258300780 -407.257995605468750
-333.355987548828120 105.863998413085940 -424.824005126953120
-257.234008789062500 96.965499877929688 -428.312011718750000
-256.997009277343750 92.338096618652344 -435.360992431640620
-246.451004028320310 92.524200439453125 -435.812988281250000
-344.097991943359370 104.227996826171870 -433.195007324218750
-339.505004882812500 83.614402770996094 -465.127014160156250
-244.315994262695310 99.625396728515625 -429.699005126953120
-345.669006347656250 101.186996459960940 -442.199005126953120
-347.976989746093750 107.974998474121090 -432.611999511718750
-229.242996215820310 108.809997558593750 -416.541992187500000
-344.256988525390620 90.956298828125000 -457.589996337890620
-221.770004272460940 115.055999755859370 -407.937988281250000
-235.369003295898440 101.717002868652340 -430.178009033203120
-217.326995849609370 91.479202270507813 -444.515014648437500
-208.727005004882810 97.020301818847656 -437.820007324218750
-215.899002075195310 96.918899536132813 -438.933990478515620
-347.716003417968750 89.609802246093750 -466.743988037109380
-230.016998291015620 108.495002746582030 -425.845001220703120
-347.053985595703120 99.083198547363281 -455.677001953125000
-220.333999633789060 114.486000061035160 -417.114990234375000
-218.567993164062500 102.571998596191410 -434.851989746093750
-184.628005981445310 104.799003601074220 -427.416992187500000
-194.257995605468750 102.930999755859370 -432.106994628906250
-203.660003662109370 102.419998168945310 -434.236999511718750
-352.022003173828120 109.991996765136720 -442.446990966796870
-214.699996948242190 123.597000122070310 -408.289001464843750
-352.890991210937500 98.106796264648438 -465.216003417968750
-213.569000244140620 121.651000976562500 -413.427001953125000
-218.164993286132810 114.564002990722660 -425.359008789062500
-212.055999755859370 118.841003417968750 -421.260986328125000
-191.671005249023440 112.168998718261720 -429.622985839843750
-357.035003662109370 116.372001647949220 -444.389007568359370
-205.192993164062500 113.223999023437500 -430.138000488281250
-180.169006347656250 113.522003173828130 -426.641998291015620
-210.772994995117190 129.337997436523440 -408.786010742187500
-358.713012695312500 100.922996520996090 -470.385009765625000
-351.850006103515620 111.429000854492190 -455.571014404296870
-207.386993408203120 126.660003662109370 -415.305999755859370
-209.570999145507810 131.979995727539060 -408.998992919921870
-361.809997558593750 121.125999450683590 -445.746002197265620
-356.971984863281250 117.027999877929690 -453.263000488281250
-204.013000488281250 122.327003479003910 -427.178985595703120
-170.337997436523440 116.833000183105470 -431.777008056640620
-364.850006103515620 104.043998718261720 -475.398986816406250
-353.532012939453120 112.455001831054690 -464.470001220703120
-203.097000122070310 136.110000610351560 -413.601989746093750
-192.233001708984370 125.513999938964840 -428.420013427734370
-195.253997802734370 129.748992919921870 -422.834014892578120
-180.412994384765620 125.219001770019530 -427.934997558593750
-359.368011474609380 111.799003601074220 -470.957000732421870
-362.510009765625000 124.180999755859370 -456.105010986328120
-168.677993774414060 125.059997558593750 -432.889007568359370
-355.102996826171880 119.996002197265620 -464.871002197265620
-365.502990722656250 113.680999755859370 -476.260986328125000
-193.264007568359370 138.856994628906250 -418.450988769531250
-368.731994628906250 129.820007324218750 -455.566986083984370
-162.802993774414060 126.311996459960940 -437.003997802734370
-188.947998046875000 134.572006225585940 -428.369995117187500
-369.917999267578120 116.484001159667970 -479.687011718750000
-183.966003417968750 141.891998291015620 -420.733001708984370
-358.803009033203120 125.638000488281250 -468.143005371093750
-179.389007568359370 137.682998657226560 -428.601989746093750
-191.011001586914060 147.231002807617190 -416.407989501953120
-159.360992431640620 129.253997802734370 -440.911010742187500
-369.253997802734370 134.809997558593750 -459.337005615234370
-367.091003417968750 133.735992431640620 -461.079986572265620
-160.792007446289060 134.645996093750000 -436.101989746093750
-166.296997070312500 139.235000610351560 -431.838012695312500
-178.531997680664060 150.988006591796870 -416.976013183593750
-364.403015136718750 125.605003356933590 -478.829986572265620
-177.348007202148440 157.880996704101560 -410.839996337890620
-370.877990722656250 126.414001464843750 -483.316986083984370
-159.069000244140620 142.014007568359370 -434.916992187500000
-169.516006469726560 154.011001586914060 -418.667999267578120
-175.326995849609370 146.654006958007810 -430.941986083984370
-368.946990966796880 141.688003540039060 -463.226989746093750
-363.903991699218750 138.044998168945310 -468.160003662109370
-156.774002075195310 138.998992919921870 -440.700012207031250
-162.649993896484370 160.817001342773440 -413.600006103515620
-165.488998413085940 150.037994384765620 -430.432006835937500
-147.361999511718750 163.925994873046870 -408.809997558593750
-156.968002319335940 150.574005126953120 -433.255004882812500
-370.610992431640630 134.835998535156250 -486.445007324218750
-363.845001220703120 138.365005493164060 -481.971984863281250
-152.979003906250000 164.861999511718750 -417.341003417968750
-152.143005371093750 151.033004760742190 -440.302001953125000
-366.506988525390620 148.231994628906250 -471.610992431640620
-369.014007568359370 150.285003662109370 -469.403991699218750
-153.490005493164060 145.934997558593750 -448.855010986328120
-161.335998535156250 158.893005371093750 -432.570007324218750
-144.054000854492190 169.180999755859380 -416.640991210937500
-372.930999755859370 140.076004028320310 -490.153015136718750
-152.130004882812500 164.147994995117190 -429.928009033203120
-367.652008056640620 143.035003662109370 -488.446990966796880
-147.628997802734370 158.492004394531250 -438.993011474609370
-140.472000122070310 155.688003540039060 -445.903991699218750
-364.867004394531250 151.134994506835940 -481.035003662109370
-137.923004150390620 175.186004638671870 -418.510986328125000
-130.298004150390620 155.658996582031250 -446.510986328125000
-369.441986083984370 156.458999633789060 -476.256988525390620
-143.998001098632810 168.664993286132810 -431.450988769531250
-137.544998168945310 162.417999267578130 -441.949005126953120
-366.490997314453120 151.820999145507810 -490.889007568359370
-127.468002319335940 164.514007568359370 -442.782012939453120
-133.201995849609370 181.813995361328130 -418.571990966796880
-139.080993652343750 175.453994750976560 -429.221008300781250
-373.407989501953120 151.930999755859370 -494.835998535156250
-369.058013916015620 161.886001586914060 -480.170013427734370
-116.429000854492190 166.485000610351560 -441.894989013671870
-106.519996643066410 169.957992553710940 -437.769989013671870
-366.713989257812500 162.755004882812500 -484.619995117187500
-135.781997680664060 177.384002685546870 -436.454986572265620
-132.647994995117190 182.255996704101560 -428.996002197265620
-128.376998901367190 175.968002319335940 -438.204986572265620
-129.781997680664060 189.061004638671870 -419.763000488281250
-114.338996887207030 176.871002197265620 -439.925994873046870
-104.296997070312500 179.033996582031250 -438.321014404296880
-372.984008789062500 161.391998291015620 -498.885986328125000
-366.045989990234370 164.412994384765620 -493.671997070312500
-126.277999877929690 190.337997436523440 -428.368011474609370
-367.511993408203120 171.863006591796870 -486.899993896484380
-125.873001098632810 198.171005249023440 -420.817993164062500
-125.478996276855470 189.061996459960940 -438.447998046875000
-122.538002014160160 198.212005615234370 -424.953002929687500
-373.265014648437500 168.046997070312500 -503.481994628906250
-119.291000366210940 201.574005126953120 -422.537994384765620
-119.419998168945310 195.072006225585940 -432.938995361328130
-114.912002563476560 190.705001831054690 -439.411987304687500
-367.546997070312500 169.960998535156250 -501.734008789062500
-364.998992919921870 175.953002929687500 -495.993988037109370
-101.089996337890620 190.347000122070310 -442.256011962890620
-113.572998046875000 201.975997924804690 -430.937011718750000
-371.996002197265620 175.003005981445310 -509.028015136718750
-91.810401916503906 193.324005126953120 -447.188995361328130
-365.834991455078120 178.876998901367190 -506.718994140625000
-112.725997924804690 202.492004394531250 -440.239990234375000
-106.317001342773440 208.192993164062500 -431.197998046875000
-102.574996948242190 204.397994995117190 -442.953002929687500
-99.936203002929687 213.311004638671870 -431.209014892578120
-88.652397155761719 203.822998046875000 -446.292999267578120
-372.059997558593750 181.423004150390620 -515.677001953125000
-364.368011474609370 184.404006958007810 -511.341003417968750
-80.815696716308594 204.020004272460940 -447.429992675781250
-367.601989746093750 183.108001708984370 -514.617004394531250
-109.382003784179690 209.875000000000000 -444.980987548828120
-92.948997497558594 219.304000854492190 -431.436004638671870
-80.348297119140625 207.033004760742190 -449.558990478515620
-100.320999145507810 215.136001586914060 -442.859985351562500
-91.619499206542969 217.264999389648440 -443.622985839843750
-365.766998291015620 189.522003173828120 -520.398986816406250
-88.771102905273438 228.533004760742190 -432.985992431640620
-373.828002929687500 190.945007324218750 -524.151977539062500
-86.882598876953125 218.783004760742190 -449.742004394531250
-96.594596862792969 220.406005859375000 -449.690002441406250
-76.069297790527344 217.750000000000000 -452.136993408203120
-95.913902282714844 223.723999023437500 -447.670013427734370
-372.881988525390620 193.970001220703120 -529.369018554687500
-95.169601440429688 224.873992919921870 -450.109008789062500
-87.476997375488281 229.494003295898440 -442.717987060546870
-366.610992431640620 195.235992431640620 -530.268981933593750
-88.154098510742188 237.464996337890630 -434.710998535156250
-87.808502197265625 229.837997436523440 -451.666992187500000
-84.383300781250000 240.322006225585940 -439.346008300781250
-374.907012939453120 200.458999633789060 -535.328979492187500
-79.402702331542969 241.421997070312500 -445.149993896484370
-83.996299743652344 237.145996093750000 -453.097991943359370
-374.614013671875000 206.083999633789060 -542.815002441406250
-375.691986083984370 214.225997924804690 -549.111022949218750
-375.579010009765620 219.235992431640620 -555.164978027343750
-374.932006835937500 223.664001464843750 -555.872009277343750
