ply
format ascii 1.0
element vertex 413
property double x
property double y
property double z
end_header
20.157199859619141 -659.007019042968750 -362.371002197265620
26.034900665283203 -652.140014648437500 -364.118011474609370
24.520299911499023 -640.323974609375000 -360.856994628906250
30.720199584960937 -639.992004394531250 -366.950012207031250
24.502000808715820 -632.836975097656250 -360.881011962890620
30.846200942993164 -626.228027343750000 -362.924011230468750
22.970300674438477 -651.796020507812500 -347.662994384765620
28.784000396728516 -653.713989257812500 -353.441009521484370
24.188199996948242 -637.215026855468750 -356.481994628906250
27.044399261474609 -641.341003417968750 -350.542999267578120
23.741399765014648 -625.497009277343750 -353.834991455078120
25.402399063110352 -628.786010742187500 -348.914001464843750
22.874799728393555 -612.596008300781250 -351.848999023437500
22.295900344848633 -599.174987792968750 -349.566009521484370
22.571800231933594 -586.216003417968750 -347.627014160156250
31.922500610351563 -583.784973144531250 -348.707000732421870
24.044700622558594 -648.818969726562500 -344.828002929687500
25.996900558471680 -651.799011230468750 -343.714996337890620
23.077699661254883 -639.557006835937500 -342.678985595703120
29.905000686645508 -638.431030273437500 -338.575988769531250
22.852600097656250 -626.408020019531250 -337.675994873046870
28.585599899291992 -627.197021484375000 -338.190002441406250
22.685899734497070 -611.348999023437500 -339.257995605468750
26.630100250244141 -612.452026367187500 -336.813995361328120
21.941900253295898 -597.643005371093750 -338.875000000000000
25.254199981689453 -602.158020019531250 -332.830993652343750
20.530700683593750 -583.935974121093750 -339.054992675781250
34.451000213623047 -577.755981445312500 -345.527008056640620
20.081300735473633 -570.075988769531250 -339.018005371093750
32.737899780273438 -569.491027832031250 -342.769989013671870
19.762399673461914 -555.919006347656250 -336.877990722656250
31.364000320434570 -555.625976562500000 -336.968994140625000
32.900901794433594 -622.851989746093750 -330.459014892578120
22.509899139404297 -609.788024902343750 -329.364990234375000
31.179700851440430 -612.013977050781250 -326.544006347656250
20.902200698852539 -596.966979980468750 -326.628997802734370
30.158500671386719 -597.593017578125000 -323.536987304687500
20.891099929809570 -583.755004882812500 -324.869995117187500
28.366399765014648 -585.958007812500000 -323.346008300781250
42.759101867675781 -583.124023437500000 -323.368011474609370
19.521699905395508 -569.533996582031250 -323.984985351562500
26.718000411987305 -570.820983886718750 -320.748992919921870
17.898500442504883 -556.479980468750000 -323.553985595703120
29.296699523925781 -554.976989746093750 -326.670013427734370
18.597000122070313 -542.955017089843750 -325.773986816406250
32.303199768066406 -539.638977050781250 -329.050994873046870
41.959999084472656 -542.104003906250000 -325.096984863281250
20.235399246215820 -528.484008789062500 -323.213989257812500
31.757499694824219 -527.981018066406250 -325.403015136718750
40.699199676513672 -529.054992675781250 -321.328002929687500
22.176700592041016 -513.789978027343750 -320.837005615234380
31.793899536132813 -514.312011718750000 -320.976989746093750
39.375999450683594 -518.395019531250000 -318.848999023437500
26.588899612426758 -501.856994628906250 -321.432006835937500
23.376399993896484 -578.460021972656250 -317.178985595703120
32.172901153564453 -582.445007324218750 -316.236999511718750
21.859800338745117 -568.895019531250000 -315.171997070312500
31.169000625610352 -569.625976562500000 -313.147003173828120
20.837600708007813 -555.260009765625000 -313.033996582031250
30.270700454711914 -556.293029785156250 -309.932006835937500
20.302400588989258 -541.820007324218750 -310.604003906250000
29.366500854492187 -544.379028320312500 -307.295989990234370
42.281700134277344 -541.143005371093750 -312.710998535156250
18.983499526977539 -527.585998535156250 -309.403015136718750
26.330600738525391 -530.033996582031250 -307.601989746093750
42.158699035644531 -528.239990234375000 -312.523986816406250
17.625600814819336 -513.943969726562500 -309.834991455078120
30.343799591064453 -512.562988281250000 -314.588012695312500
40.692401885986328 -514.083984375000000 -311.308990478515620
18.993999481201172 -499.796997070312500 -311.755004882812500
31.237600326538086 -499.287994384765620 -313.009002685546870
40.027301788330078 -500.795989990234370 -308.640014648437500
19.677600860595703 -485.717987060546870 -309.110992431640620
31.997299194335938 -486.166992187500000 -309.769989013671870
39.650901794433594 -486.768005371093750 -305.571990966796870
21.387300491333008 -472.236999511718750 -309.083007812500000
30.418899536132813 -472.553985595703120 -307.411010742187500
22.869400024414062 -537.810974121093750 -303.084991455078120
31.274299621582031 -540.043029785156250 -302.273010253906250
21.072700500488281 -526.656005859375000 -300.881011962890620
32.104801177978516 -527.893005371093750 -298.878997802734370
19.458099365234375 -513.366027832031250 -298.670013427734370
31.865999221801758 -514.505981445312500 -294.688995361328120
40.308799743652344 -511.381011962890620 -301.911010742187500
17.448900222778320 -500.031005859375000 -296.290985107421870
32.130500793457031 -503.462005615234380 -292.484008789062500
39.894699096679688 -497.830993652343750 -300.736999511718750
15.944100379943848 -486.015991210937500 -295.161987304687500
31.785800933837891 -484.220001220703120 -298.302001953125000
39.421798706054687 -486.954986572265620 -298.734985351562500
16.543699264526367 -472.195007324218750 -297.406005859375000
33.277301788330078 -472.091003417968750 -297.786010742187500
41.217399597167969 -472.503997802734370 -297.381988525390620
18.345600128173828 -457.856994628906250 -297.661010742187500
31.579299926757813 -458.119995117187500 -297.450988769531250
39.512798309326172 -462.782989501953120 -294.733001708984370
18.619400024414062 -444.002014160156250 -295.854003906250000
31.100599288940430 -444.662994384765620 -294.519989013671870
19.958499908447266 -430.467987060546870 -296.083007812500000
29.037599563598633 -432.069000244140620 -291.578002929687500
21.540700912475586 -496.459014892578120 -288.360992431640620
29.854099273681641 -497.785003662109370 -288.343994140625000
31.056800842285156 -484.484008789062500 -283.416992187500000
16.578500747680664 -471.791992187500000 -283.769989013671870
31.793100357055664 -473.251007080078130 -279.720001220703120
15.002799987792969 -458.173004150390620 -281.772003173828120
32.137298583984375 -459.078002929687500 -279.329010009765620
13.757599830627441 -444.846008300781250 -284.269989013671870
32.798099517822266 -443.588989257812500 -284.820007324218750
17.127099990844727 -429.485992431640620 -287.569000244140620
33.447799682617187 -429.550994873046870 -284.911987304687500
17.965200424194336 -415.994995117187500 -284.574005126953120
31.360399246215820 -416.458007812500000 -282.167999267578120
17.989700317382813 -401.811004638671870 -283.109008789062500
29.399900436401367 -403.717010498046870 -279.376007080078120
26.923400878906250 -392.802001953125000 -276.920989990234370
20.864700317382813 -454.080993652343750 -275.076995849609370
17.333900451660156 -443.639007568359370 -272.957000732421870
29.114000320434570 -442.976989746093750 -273.269012451171870
16.748600006103516 -430.015991210937500 -268.615997314453120
29.395700454711914 -429.869995117187500 -269.600006103515620
16.745899200439453 -415.800994873046870 -265.733001708984370
30.888700485229492 -415.342987060546870 -266.941986083984370
15.792599678039551 -402.384002685546870 -269.178985595703120
33.548900604248047 -401.830993652343750 -269.996002197265620
17.222600936889648 -386.403991699218750 -270.415985107421880
31.098800659179687 -388.230010986328120 -270.744995117187500
17.207500457763672 -372.493988037109370 -269.542999267578120
30.077899932861328 -374.308990478515620 -267.165008544921880
18.239999771118164 -360.071014404296870 -266.816986083984370
27.240499496459961 -361.916992187500000 -264.562988281250000
16.890600204467773 -347.378997802734370 -265.920013427734370
21.578500747680664 -410.696014404296880 -261.203002929687500
17.779199600219727 -401.433013916015620 -259.098999023437500
28.421400070190430 -400.566986083984370 -259.746002197265620
16.755399703979492 -388.046997070312500 -254.830993652343750
29.777500152587891 -387.731994628906250 -257.053009033203120
16.578500747680664 -375.372985839843750 -250.412002563476560
30.440700531005859 -373.505004882812500 -253.811996459960940
14.078599929809570 -357.673004150390620 -258.895996093750000
32.134700775146484 -359.410003662109370 -256.019989013671870
18.580799102783203 -344.795013427734370 -259.252990722656250
29.834299087524414 -346.391998291015630 -255.968994140625000
18.319400787353516 -331.688995361328120 -255.641006469726560
28.912599563598633 -332.033996582031250 -252.186004638671870
18.659900665283203 -318.906005859375000 -253.419006347656250
27.110300064086914 -320.028015136718750 -249.684997558593750
17.862300872802734 -302.471008300781250 -253.960998535156250
25.776100158691406 -300.466003417968750 -250.796997070312500
20.808799743652344 -368.579010009765620 -247.141998291015620
27.046300888061523 -367.170013427734370 -247.891006469726560
17.301700592041016 -359.627014160156250 -244.843002319335940
27.719699859619141 -358.863006591796870 -245.667007446289060
17.131000518798828 -346.055999755859370 -240.158996582031250
29.335599899291992 -345.506011962890620 -242.977005004882810
16.784299850463867 -333.809997558593750 -236.108001708984370
31.173500061035156 -331.324005126953120 -240.854003906250000
15.108799934387207 -315.559997558593750 -244.606002807617190
31.603900909423828 -318.274993896484370 -241.546997070312500
9.055009841918945 -310.177001953125000 -236.893997192382810
17.419900894165039 -304.360992431640620 -243.414993286132810
30.918899536132812 -303.225006103515620 -240.813003540039060
19.666700363159180 -289.795989990234370 -241.660995483398440
28.125499725341797 -291.627990722656250 -238.912002563476560
19.369600296020508 -276.264007568359370 -239.300994873046870
26.516199111938477 -277.519012451171870 -236.421005249023440
17.292299270629883 -262.959991455078120 -238.966003417968750
27.828399658203125 -267.122985839843750 -234.369995117187500
19.241899490356445 -326.819000244140620 -233.005004882812500
27.027399063110352 -325.096984863281250 -234.003997802734370
17.113100051879883 -317.783996582031250 -230.419998168945310
27.751100540161133 -316.619995117187500 -231.692001342773440
17.810600280761719 -305.188995361328130 -223.932006835937500
30.894500732421875 -303.449005126953120 -227.785003662109370
7.996819972991943 -288.381011962890620 -227.535995483398440
20.161199569702148 -290.526000976562500 -224.735992431640620
31.982000350952148 -291.256011962890620 -226.813003540039060
7.715229988098145 -276.411010742187500 -224.399993896484370
15.089599609375000 -274.182006835937500 -231.231994628906250
29.028499603271484 -274.653991699218750 -230.022003173828120
6.960390090942383 -262.721008300781250 -222.391006469726560
18.227800369262695 -261.266998291015620 -229.014007568359370
29.380699157714844 -262.252990722656250 -226.570999145507810
18.501399993896484 -247.733993530273440 -226.563995361328120
27.434499740600586 -248.910003662109370 -223.878997802734370
18.984500885009766 -234.395996093750000 -225.998992919921870
26.611099243164062 -233.850997924804690 -222.826004028320310
17.055200576782227 -220.626998901367190 -225.436004638671870
27.878799438476563 -225.520996093750000 -220.475006103515620
8.619409561157227 -260.507995605468750 -216.929992675781250
16.706399917602539 -262.363006591796870 -212.817001342773440
7.920350074768066 -247.434005737304690 -214.481994628906250
16.525999069213867 -249.000000000000000 -209.018005371093750
30.052700042724609 -246.897994995117190 -213.639007568359370
7.259500026702881 -234.399002075195310 -210.992004394531250
15.992500305175781 -232.863998413085940 -216.988006591796870
30.853000640869141 -233.979003906250000 -214.022994995117190
6.510749816894531 -221.613006591796870 -208.654006958007810
18.165399551391602 -219.268997192382810 -214.798004150390630
29.760200500488281 -220.235000610351560 -211.761001586914060
7.543439865112305 -209.828994750976560 -206.828994750976560
18.465000152587891 -205.626007080078120 -212.514007568359370
27.382200241088867 -207.147994995117190 -209.973999023437500
18.886699676513672 -192.044006347656250 -212.736999511718750
27.602300643920898 -192.335006713867190 -208.751007080078120
16.429199218750000 -178.037994384765620 -210.934005737304690
20.058300018310547 -242.843994140625000 -205.287002563476560
9.681269645690918 -229.923995971679690 -204.906997680664060
17.218200683593750 -233.606002807617190 -202.902999877929690
27.307800292968750 -232.652999877929690 -203.464004516601560
8.423110008239746 -219.360000610351560 -202.682006835937500
17.423799514770508 -220.263000488281250 -198.246994018554690
29.611400604248047 -218.804000854492190 -200.384002685546870
7.373809814453125 -205.561996459960940 -200.180999755859370
16.223600387573242 -207.130996704101560 -194.764007568359370
30.988500595092773 -205.542999267578120 -199.285003662109370
7.123010158538818 -192.423995971679690 -196.669006347656250
17.259599685668945 -190.910003662109370 -203.527999877929690
32.581699371337891 -190.977005004882810 -200.414001464843750
5.904250144958496 -178.804000854492190 -195.593002319335940
19.641300201416016 -177.296005249023440 -200.792999267578130
30.779399871826172 -178.623001098632810 -201.449996948242190
7.813389778137207 -163.458999633789060 -194.095001220703120
17.940200805664063 -163.272994995117190 -198.973999023437500
18.084600448608398 -150.091995239257810 -197.279998779296870
19.252700805664063 -135.511993408203120 -196.126998901367190
19.743200302124023 -201.085998535156250 -190.921997070312500
27.396400451660156 -200.337005615234370 -191.361999511718750
9.326539993286133 -188.100006103515620 -190.455993652343750
17.173900604248047 -192.677001953125000 -185.996994018554690
28.297599792480469 -190.182998657226560 -189.147003173828120
6.257810115814209 -176.830993652343750 -188.649993896484370
17.989999771118164 -177.729995727539060 -183.835006713867190
28.373699188232422 -177.699005126953120 -186.251998901367190
17.597900390625000 -164.348007202148440 -181.988998413085940
28.684200286865234 -165.076995849609370 -180.673004150390630
4.747000217437744 -150.179000854492190 -187.490005493164060
16.575000762939453 -151.423004150390620 -189.125000000000000
4.267340183258057 -135.949996948242190 -184.235992431640620
16.437099456787109 -135.940002441406250 -187.001998901367190
30.477899551391602 -135.880004882812500 -182.345993041992190
5.112040042877197 -121.097000122070310 -184.177001953125000
15.697400093078613 -122.196998596191410 -182.833999633789060
28.354000091552734 -125.265998840332030 -179.977996826171870
17.369100570678711 -107.469001770019530 -180.095993041992190
18.522499084472656 -94.085998535156250 -179.343002319335940
20.673200607299805 -81.077697753906250 -178.677993774414060
26.572999954223633 -159.182006835937500 -177.141998291015620
17.177200317382813 -150.207000732421870 -173.895004272460940
28.835599899291992 -149.173995971679690 -174.804992675781250
17.199399948120117 -135.970001220703120 -169.378997802734380
6.160349845886231 -122.679000854492190 -168.013000488281250
16.989099502563477 -124.132003784179690 -168.569000244140620
32.555999755859375 -122.037002563476560 -172.039001464843750
2.381560087203980 -107.031997680664060 -171.593994140625000
22.785699844360352 -107.291999816894530 -176.527999877929690
31.835300445556641 -107.803001403808590 -170.572998046875000
15.202500343322754 -93.288200378417969 -176.705993652343750
29.333999633789063 -94.074798583984375 -169.953994750976560
18.958299636840820 -118.325996398925780 -162.774002075195310
17.474199295043945 -107.309997558593750 -158.985000610351560
18.067100524902344 -94.865798950195313 -153.208999633789060
19.125200271606445 -485.009002685546870 -284.260986328125000
17.222600936889648 -66.414100646972656 -176.147994995117190
9.590789794921875 -70.467597961425781 -171.152999877929690
22.506500244140625 -71.847702026367188 -178.126007080078120
14.252499580383301 -79.085998535156250 -176.061996459960940
13.971799850463867 -89.935302734375000 -146.576995849609370
28.872200012207031 -80.927001953125000 -173.572998046875000
3.388530015945435 -91.885902404785156 -146.736999511718750
0.806392014026642 -95.223999023437500 -173.662002563476560
40.861000061035156 -104.499000549316410 -162.307998657226560
31.504800796508789 -107.708999633789060 -158.488998413085940
39.439498901367188 -109.802001953125000 -165.119995117187500
-8.769280433654785 -108.375000000000000 -173.595993041992190
29.419099807739258 -117.987998962402340 -162.436996459960940
39.037601470947266 -120.023002624511720 -167.914001464843750
-9.276800155639648 -121.294998168945310 -173.832000732421870
-5.024829864501953 -123.525001525878910 -179.272994995117190
2.924429893493652 -122.721000671386720 -194.996002197265620
16.946199417114258 -121.403999328613280 -198.606994628906250
-6.791349887847900 -133.240005493164060 -173.686004638671870
31.572399139404297 -135.408004760742190 -172.291000366210940
4.478099822998047 -137.069000244140620 -169.449005126953120
-5.973110198974609 -133.960998535156250 -180.356994628906250
5.710070133209229 -135.856002807617190 -198.848999023437500
6.514170169830322 -140.966995239257810 -206.608001708984370
35.027698516845703 -150.104995727539060 -180.171997070312500
8.432490348815918 -148.777999877929690 -202.550994873046870
-3.486989974975586 -154.858993530273440 -186.789001464843750
-3.742480039596558 -157.003997802734370 -188.608993530273440
7.804049968719482 -152.636993408203120 -207.548004150390620
1.791249990463257 -164.414001464843750 -187.477005004882810
9.876939773559570 -161.007003784179690 -210.522994995117190
12.546099662780762 -167.134994506835940 -209.061004638671870
42.037998199462891 -179.337997436523440 -203.563995361328120
20.456899642944336 -190.632003784179690 -173.102996826171870
26.023300170898437 -194.264999389648440 -175.246994018554690
41.261600494384766 -188.602996826171870 -198.300003051757810
14.614500045776367 -194.996994018554690 -222.160003662109370
15.288399696350098 -206.796005249023440 -224.218994140625000
14.754400253295898 -226.841003417968750 -234.830001831054690
14.760100364685059 -235.815994262695310 -235.440994262695310
4.829899787902832 -253.779998779296870 -221.018005371093750
15.526700019836426 -249.110000610351560 -237.865005493164060
9.843930244445801 -274.170013427734370 -215.557006835937500
10.569800376892090 -278.765991210937500 -204.852996826171870
17.775499343872070 -277.177001953125000 -212.602996826171870
39.447700500488281 -283.704010009765620 -217.927001953125000
10.049400329589844 -290.611999511718750 -207.401000976562500
31.673599243164063 -286.653015136718750 -218.216995239257810
14.598400115966797 -277.569000244140620 -249.548004150390620
9.401800155639648 -292.515014648437500 -206.005996704101560
16.721200942993164 -290.270996093750000 -213.779006958007810
39.896301269531250 -290.959991455078120 -226.378005981445310
14.579199790954590 -298.830993652343750 -204.839004516601560
14.439499855041504 -300.660003662109370 -213.742004394531250
7.977920055389404 -304.292999267578120 -213.858993530273440
16.566900253295898 -291.665985107421870 -251.201004028320310
8.331410408020020 -309.186004638671870 -226.503005981445310
9.321100234985352 -313.618988037109370 -231.854995727539060
7.478640079498291 -318.720001220703120 -237.171005249023440
13.919699668884277 -321.817993164062500 -263.212005615234380
8.120459556579590 -332.372985839843750 -240.977005004882810
14.750900268554688 -333.144989013671870 -264.536987304687500
8.634889602661133 -345.433990478515620 -244.477005004882810
6.385379791259766 -349.270996093750000 -252.458999633789060
9.784230232238770 -356.895996093750000 -246.988998413085940
3.239900112152100 -361.347991943359370 -255.263000488281250
6.230559825897217 -373.221984863281250 -256.312011718750000
6.762909889221191 -386.829010009765620 -258.207000732421870
7.435249805450440 -387.062011718750000 -279.833007812500000
16.560800552368164 -388.915985107421870 -282.484008789062500
21.537099838256836 -387.819000244140620 -291.927001953125000
5.832069873809815 -404.096984863281250 -257.924011230468750
26.907699584960937 -390.688995361328120 -297.059997558593750
7.177060127258301 -400.713989257812500 -279.290985107421870
27.041599273681641 -394.709014892578120 -306.789001464843750
5.183619976043701 -411.700012207031250 -258.160003662109370
22.551900863647461 -401.687988281250000 -292.704986572265620
26.329799652099609 -401.790008544921870 -300.049987792968750
29.603200912475586 -402.183013916015620 -306.035003662109370
6.807690143585205 -415.346984863281250 -271.460998535156250
7.140180110931397 -417.014007568359370 -280.489013671875000
27.920700073242188 -411.809997558593750 -298.455993652343750
32.365699768066406 -410.290985107421870 -305.566009521484370
19.359699249267578 -416.144012451171870 -294.278015136718750
9.273509979248047 -427.983001708984370 -273.209991455078120
7.926780223846436 -430.052001953125000 -279.403015136718750
23.591899871826172 -432.890014648437500 -304.859008789062500
9.368869781494141 -443.958007812500000 -281.136993408203120
24.802999496459961 -442.890991210937500 -307.180999755859370
42.789501190185547 -457.302001953125000 -269.087005615234370
21.952400207519531 -445.415008544921870 -305.725006103515620
46.359199523925781 -450.494995117187500 -290.690002441406250
34.298500061035156 -459.377990722656250 -268.430999755859370
43.022201538085938 -455.692993164062500 -281.325988769531250
10.046799659729004 -456.458007812500000 -284.904998779296870
40.575099945068359 -467.906005859375000 -272.139007568359370
31.354999542236328 -468.683990478515620 -272.993988037109370
21.729700088500977 -471.147003173828120 -271.795013427734370
22.133199691772461 -458.792999267578120 -308.960998535156250
10.393400192260742 -467.860992431640620 -288.747009277343750
43.178699493408203 -469.766998291015620 -283.023010253906250
25.621700286865234 -462.108001708984370 -309.653991699218750
10.325599670410156 -472.867004394531250 -291.710998535156250
38.680599212646484 -480.002990722656250 -281.617004394531250
43.742198944091797 -476.769012451171870 -305.510986328125000
24.993400573730469 -484.765991210937500 -319.472991943359370
23.456499099731445 -488.907989501953120 -318.622009277343750
23.615400314331055 -501.053009033203120 -321.805999755859370
-1.583060026168823 -528.835021972656250 -317.070007324218750
38.737701416015625 -532.903991699218750 -302.613006591796870
4.107019901275635 -529.094970703125000 -326.609008789062500
5.358200073242188 -526.216979980468750 -336.832000732421870
13.878600120544434 -529.599975585937500 -339.032989501953130
6.226359844207764 -541.848022460937500 -322.763000488281250
8.909020423889160 -538.500000000000000 -336.595001220703130
3.548540115356445 -547.221008300781250 -317.113006591796870
6.425960063934326 -549.895019531250000 -315.914001464843750
9.463729858398438 -549.541015625000000 -320.746002197265620
18.892200469970703 -544.005004882812500 -336.877014160156250
29.125000000000000 -545.177001953125000 -336.368011474609370
41.596698760986328 -555.299987792968750 -313.055999755859370
44.273700714111328 -555.669982910156250 -325.553009033203120
41.084300994873047 -557.685974121093750 -334.497009277343750
40.201698303222656 -570.460998535156250 -315.058013916015620
45.572200775146484 -570.051025390625000 -325.712005615234380
42.762001037597656 -570.205993652343750 -337.787994384765620
39.374900817871094 -578.229980468750000 -316.631988525390620
45.156600952148438 -583.476989746093750 -340.183013916015620
40.965801239013672 -587.351013183593750 -348.096984863281250
41.014400482177734 -597.861022949218750 -323.919006347656250
47.981399536132813 -597.606994628906250 -340.407012939453120
43.321201324462891 -597.994995117187500 -350.660003662109370
31.616699218750000 -598.010986328125000 -354.174011230468750
41.132801055908203 -611.549011230468750 -328.098999023437500
48.612899780273438 -610.945983886718750 -343.246002197265620
44.971401214599609 -612.111999511718750 -353.358001708984370
30.856000900268555 -610.799011230468750 -358.131988525390620
40.860500335693359 -621.893005371093750 -331.071990966796870
33.961498260498047 -617.325988769531250 -360.735992431640620
42.609600067138672 -627.184997558593750 -333.665985107421870
47.990200042724609 -625.461975097656250 -354.173004150390620
42.473899841308594 -627.104003906250000 -362.250000000000000
42.998298645019531 -640.067993164062500 -337.717987060546870
50.482601165771484 -638.344970703125000 -355.979003906250000
46.363700866699219 -640.310974121093750 -366.261993408203120
59.788600921630859 -643.456970214843750 -364.816009521484370
46.027599334716797 -652.590026855468750 -342.401000976562500
49.573200225830078 -642.453979492187500 -374.786010742187500
55.478401184082031 -643.185974121093750 -374.940002441406250
62.960800170898438 -648.119995117187500 -366.601013183593750
