ply
format ascii 1.0
element vertex 130
property double x
property double y
property double z
end_header
23.080699920654297 487.860992431640620 -13.564299583435059
23.080699920654297 487.860992431640620 -13.564299583435059
27.395299911499023 488.175994873046870 -16.475700378417969
22.393299102783203 478.593994140625000 -13.505200386047363
26.799699783325195 478.696014404296870 -17.219999313354492
21.183500289916992 465.351989746093750 -16.021099090576172
28.055599212646484 464.846008300781250 -16.103399276733398
35.948898315429687 465.830993652343750 -24.882400512695313
27.224899291992188 455.105010986328120 -9.543820381164551
28.343999862670898 451.696014404296870 -16.675199508666992
20.219299316406250 451.516998291015620 -17.727600097656250
19.085899353027344 438.986999511718750 -18.762500762939453
29.079599380493164 437.736999511718750 -18.049800872802734
10.298999786376953 437.225006103515620 -18.218999862670898
19.342199325561523 434.384002685546870 -24.657899856567383
31.092500686645508 424.545013427734370 -19.349300384521484
17.607700347900391 424.329010009765620 -21.014299392700195
9.416970252990723 422.636993408203120 -21.200199127197266
18.956899642944336 423.312011718750000 -26.701900482177734
27.297599792480469 421.796997070312500 -25.426900863647461
40.333999633789063 417.270996093750000 -20.251699447631836
22.003000259399414 412.595001220703120 -22.786199569702148
7.289360046386719 411.954010009765630 -23.127799987792969
31.428600311279297 410.108001708984370 -20.230300903320312
39.797100067138672 408.372009277343750 -21.122600555419922
29.687299728393555 409.748992919921870 -26.862400054931641
17.830099105834961 409.756988525390620 -27.925399780273437
8.543640136718750 406.834014892578120 -25.136899948120117
40.887599945068359 396.768005371093750 -22.037599563598633
32.377799987792969 395.989990234375000 -21.014400482177734
6.041059970855713 395.941009521484370 -26.661199569702148
18.986200332641602 396.255004882812500 -30.328899383544922
30.420900344848633 395.071014404296880 -28.553199768066406
40.429401397705078 383.131988525390620 -23.132699966430664
33.840599060058594 381.608001708984370 -20.728900909423828
4.627190113067627 382.180999755859370 -29.093500137329102
19.285999298095703 382.684997558593750 -33.448101043701172
32.117000579833984 381.596984863281250 -30.214599609375000
39.197200775146484 376.640991210937500 -26.629699707031250
20.631500244140625 378.200988769531250 -38.706298828125000
35.449501037597656 367.700012207031250 -20.875499725341797
40.012100219726563 368.190002441406250 -26.824499130249023
32.012401580810547 369.055999755859370 -31.932600021362305
41.973598480224609 365.824005126953120 -22.954999923706055
4.489409923553467 367.601989746093750 -32.294898986816406
18.529699325561523 368.643005371093750 -35.033901214599609
21.061500549316406 366.388000488281250 -40.959800720214844
27.071100234985352 365.135009765625000 -38.997501373291016
35.818698883056641 358.484985351562500 -21.415199279785156
42.652000427246094 353.109008789062500 -22.889299392700195
22.171600341796875 356.209014892578120 -36.617298126220703
3.117840051651001 353.878997802734370 -33.013198852539063
32.083099365234375 354.070007324218750 -33.423301696777344
40.519901275634766 352.786987304687500 -29.468000411987305
18.685699462890625 353.842987060546870 -42.321899414062500
30.074399948120117 353.399993896484380 -40.597900390625000
8.471759796142578 352.576995849609370 -39.575500488281250
32.344799041748047 342.009002685546870 -35.094299316406250
40.356998443603516 339.946014404296880 -32.049400329589844
4.399459838867188 339.709014892578120 -34.716598510742188
41.089900970458984 336.063995361328120 -23.072299957275391
19.330099105834961 340.464996337890620 -43.823898315429688
31.525100708007813 339.933990478515620 -41.619701385498047
7.745359897613525 338.981994628906250 -41.276401519775391
38.693199157714844 335.192993164062500 -38.920398712158203
39.476898193359375 328.842010498046870 -32.812301635742188
8.593750000000000 326.690002441406250 -35.131000518798828
34.250400543212891 324.450988769531250 -31.398799896240234
7.256929874420166 325.783996582031250 -42.298500061035156
30.679599761962891 325.996002197265620 -44.490299224853516
18.771799087524414 326.217987060546870 -46.621398925781250
38.941501617431641 322.329010009765620 -39.507801055908203
39.546398162841797 317.222991943359370 -37.130599975585937
18.285499572753906 322.967987060546870 -57.871299743652344
10.125699996948242 313.136993408203120 -35.608200073242187
13.378199577331543 310.855010986328120 -30.278200149536133
33.355701446533203 311.226989746093750 -31.218399047851563
38.915500640869141 312.187988281250000 -39.926101684570312
8.069270133972168 312.423004150390620 -43.774799346923828
32.578201293945313 312.549011230468750 -46.154499053955078
18.943700790405273 312.811004638671870 -49.271198272705078
28.851999282836914 312.088012695312500 -53.733798980712891
17.200899124145508 310.766998291015630 -57.298599243164062
29.115999221801758 298.802001953125000 -31.880800247192383
15.645000457763672 297.960998535156250 -32.897998809814453
38.920700073242187 300.135986328125000 -41.927398681640625
8.824899673461914 298.881011962890620 -43.235698699951172
6.941520214080811 295.369995117187500 -34.365501403808594
35.933101654052734 299.520996093750000 -47.539600372314453
31.988100051879883 300.321990966796870 -53.307598114013672
11.101400375366211 294.126007080078120 -42.085700988769531
18.314399719238281 299.368988037109370 -61.701999664306641
27.104400634765625 285.406005859375000 -35.029399871826172
19.949499130249023 284.229003906250000 -33.166000366210937
8.528059959411621 284.662994384765620 -36.040798187255859
14.907500267028809 284.450988769531250 -39.961898803710938
6.148240089416504 282.858001708984370 -39.680099487304688
33.605300903320312 284.694000244140620 -44.826000213623047
21.908899307250977 287.608001708984370 -64.999900817871094
10.480199813842773 277.123992919921870 -36.733299255371094
25.235700607299805 275.102996826171880 -37.127700805664062
24.940200805664063 283.557006835937500 -65.307098388671875
18.224300384521484 284.567993164062500 -70.903099060058594
19.111700057983398 270.575012207031250 -35.849300384521484
7.474500179290772 270.216003417968750 -42.759101867675781
28.252700805664062 269.062011718750000 -42.975601196289063
16.101400375366211 267.058990478515620 -39.612800598144531
15.074899673461914 261.182006835937500 -36.939701080322266
21.452899932861328 272.653991699218750 -74.893096923828125
18.784900665283203 255.417999267578120 -40.791599273681641
7.930530071258545 255.863998413085940 -46.639301300048828
27.366399765014648 256.403015136718750 -47.211200714111328
25.865999221801758 244.723007202148440 -49.929599761962891
7.919539928436279 242.035995483398440 -46.562900543212891
18.828399658203125 241.541000366210940 -45.552299499511719
28.312799453735352 239.740005493164060 -54.452301025390625
16.981700897216797 228.904998779296870 -49.154201507568359
27.285200119018555 227.970993041992190 -57.710800170898438
23.011400222778320 225.904998779296870 -53.623699188232422
15.964400291442871 219.929000854492190 -51.443698883056641
18.837900161743164 213.235000610351560 -55.397098541259766
26.679000854492187 214.526992797851560 -61.865798950195313
26.047800064086914 202.563995361328120 -64.896896362304688
19.429800033569336 200.037002563476560 -59.757598876953125
29.797500610351563 199.860000610351560 -71.878997802734375
17.232299804687500 186.589996337890630 -61.254100799560547
27.241300582885742 186.440994262695310 -70.785697937011719
23.413900375366211 184.199005126953120 -67.007202148437500
26.008199691772461 172.763000488281250 -72.742897033691406
22.063400268554687 170.160003662109370 -67.808998107910156
