ply
format ascii 1.0
element vertex 144
property double x
property double y
property double z
end_header
-113.536003112792970 -427.039001464843750 -402.736999511718750
-100.054000854492190 -421.450012207031250 -388.763000488281250
-104.495002746582030 -421.502014160156250 -392.026000976562500
-95.796203613281250 -430.864990234375000 -380.553009033203120
-109.528999328613280 -428.678009033203120 -393.933990478515620
-106.099998474121090 -432.614013671875000 -383.889007568359370
-113.536003112792970 -427.039001464843750 -402.736999511718750
-148.998992919921870 -433.920989990234370 -384.470001220703120
-83.725097656250000 -431.153991699218750 -388.769989013671870
-81.150001525878906 -434.221008300781250 -381.539001464843750
-98.517196655273438 -437.617004394531250 -374.658996582031250
-157.401000976562500 -434.886993408203120 -386.824005126953120
-138.251007080078130 -436.346008300781250 -384.675994873046870
-108.856002807617190 -438.201995849609370 -377.752990722656250
-132.934005737304690 -438.148986816406250 -380.234008789062500
-122.149002075195310 -438.303985595703120 -380.289001464843750
-117.051002502441410 -436.355010986328120 -386.102996826171880
-54.551200866699219 -449.932006835937500 -342.153015136718750
-150.313995361328120 -435.385986328125000 -391.391998291015620
-80.482299804687500 -442.675994873046870 -366.872985839843750
-121.446998596191410 -434.328002929687500 -395.173004150390620
-158.231002807617190 -436.524993896484370 -390.954986572265620
-69.357902526855469 -450.529998779296870 -344.334014892578120
-93.852600097656250 -443.631988525390620 -366.536987304687500
-73.459503173828125 -450.582000732421870 -344.717010498046870
-76.026603698730469 -438.772003173828120 -380.618011474609370
-161.651992797851560 -438.532989501953130 -386.944000244140620
-126.763999938964840 -437.058013916015620 -389.493988037109370
-80.304298400878906 -448.313995361328120 -353.355987548828120
-122.555999755859370 -431.625000000000000 -407.483001708984370
-64.025100708007813 -452.377990722656250 -342.403015136718750
-135.805999755859370 -435.924987792968750 -395.688995361328120
-137.656005859375000 -429.127014160156250 -417.326995849609370
-136.658996582031250 -432.324005126953120 -408.565002441406250
-136.134002685546870 -437.154998779296870 -394.415008544921870
-79.618896484375000 -452.783996582031250 -344.890991210937500
-70.755203247070312 -449.787994384765620 -353.852996826171870
-107.683998107910160 -445.498992919921870 -369.028991699218750
-91.030799865722656 -448.992004394531250 -357.756011962890620
-152.414993286132810 -429.777008056640620 -419.016998291015630
-83.681602478027344 -452.617004394531250 -348.791992187500000
-119.640998840332030 -445.929992675781250 -371.368988037109370
-150.173995971679690 -437.933990478515620 -398.194000244140620
-148.610000610351560 -433.861999511718750 -411.524993896484380
-67.315597534179687 -447.507995605468750 -367.111999511718750
-64.335296630859375 -453.003997802734370 -353.032012939453130
-91.610801696777344 -453.428009033203120 -355.678985595703120
-67.927696228027344 -445.369995117187500 -378.861999511718750
-152.483001708984370 -438.523986816406250 -407.420989990234370
-52.811199188232422 -459.658996582031250 -340.346008300781250
-164.238998413085940 -443.255004882812500 -395.901000976562500
-159.899993896484370 -433.877014160156250 -423.924011230468750
-60.410701751708984 -451.381011962890620 -366.622009277343750
-98.313201904296875 -454.274993896484380 -361.954010009765620
-106.742996215820310 -453.402008056640620 -365.468994140625000
-117.536003112792970 -452.792999267578120 -370.471008300781250
-52.184600830078125 -453.729003906250000 -366.601989746093750
-51.634300231933594 -459.420013427734370 -351.645996093750000
-160.697006225585940 -434.904998779296870 -431.546997070312500
-39.452301025390625 -455.265014648437500 -365.627990722656250
-60.272800445556641 -451.440002441406250 -378.381011962890620
-37.804199218750000 -459.730010986328120 -352.467010498046870
-30.375499725341797 -456.680999755859370 -361.837005615234370
-43.000000000000000 -463.417999267578120 -343.403015136718750
-164.815002441406250 -444.029998779296870 -408.627990722656250
-27.723400115966797 -462.286987304687500 -349.807006835937500
-54.330501556396484 -454.045989990234370 -376.247009277343750
-48.493099212646484 -468.420013427734370 -336.231994628906250
-165.850006103515620 -442.089996337890620 -422.190002441406250
-170.490005493164060 -451.559997558593750 -397.210998535156250
-51.920898437500000 -471.914001464843750 -331.007995605468750
-46.837501525878906 -466.278991699218750 -347.705993652343750
-170.970993041992190 -451.536987304687500 -404.420013427734370
-172.697006225585940 -449.326995849609370 -412.740997314453120
-172.412002563476560 -454.265014648437500 -399.542999267578120
-36.797798156738281 -469.928985595703120 -347.065002441406250
-166.671005249023440 -443.303009033203120 -435.065002441406250
-39.439998626708984 -473.263000488281250 -340.636993408203120
-174.119995117187500 -448.635986328125000 -423.214996337890620
-23.989400863647461 -472.178985595703120 -349.381011962890620
-29.165300369262695 -475.334014892578120 -344.899993896484380
-173.330001831054690 -448.981994628906250 -434.960998535156250
-177.246002197265620 -458.191009521484370 -410.742004394531250
-46.368900299072266 -483.127990722656250 -330.407012939453120
-35.113899230957031 -481.860992431640620 -335.716003417968750
-181.304000854492190 -456.072998046875000 -421.447998046875000
-32.567600250244141 -480.756988525390620 -346.174987792968750
-16.543500900268555 -477.427001953125000 -355.282012939453130
-39.934799194335938 -487.493011474609370 -331.019012451171870
-20.247299194335938 -481.299011230468750 -349.257995605468750
-180.035995483398440 -455.046997070312500 -437.856994628906250
-186.636001586914060 -463.221008300781250 -414.803985595703120
-25.277500152587891 -485.158996582031250 -341.346984863281250
-189.658004760742190 -461.309997558593750 -424.303009033203120
-183.085998535156250 -465.884002685546870 -411.625000000000000
-28.447700500488281 -491.049987792968750 -331.596008300781250
-188.632995605468750 -467.315002441406250 -414.140014648437500
-184.572998046875000 -466.597991943359370 -418.648010253906250
-11.056799888610840 -486.286010742187500 -349.776000976562500
-191.220001220703120 -461.579010009765620 -436.365997314453120
-11.865799903869629 -490.128997802734370 -341.834991455078120
-194.492996215820310 -467.376007080078120 -421.233001708984370
-178.524993896484370 -458.860992431640620 -445.843994140625000
-3.297230005264282 -490.162994384765620 -346.345001220703120
-199.468994140625000 -464.734985351562500 -435.838989257812500
-31.483100891113281 -495.148010253906250 -335.613006591796870
-35.316398620605469 -497.127990722656250 -330.669006347656250
-20.616199493408203 -495.829010009765620 -337.927001953125000
-204.263000488281250 -470.816986083984370 -425.451995849609370
-186.714004516601560 -464.221984863281250 -444.807006835937500
-195.701995849609370 -466.290008544921870 -441.177001953125000
-24.218900680541992 -500.899993896484380 -328.648010253906250
-205.326004028320310 -468.447998046875000 -436.782989501953120
-9.054960250854492 -500.183990478515620 -337.562988281250000
-16.072299957275391 -504.423004150390620 -327.980010986328120
-214.694000244140620 -471.251007080078120 -439.848999023437500
-183.425994873046880 -468.661010742187500 -448.580993652343750
-0.245566993951797 -501.375000000000000 -341.235992431640620
-20.386199951171875 -509.829010009765630 -324.065002441406250
-191.447006225585940 -471.873992919921870 -447.565002441406250
-205.914001464843750 -473.485992431640620 -447.705993652343750
-12.030799865722656 -512.619995117187500 -323.191986083984370
-217.347000122070310 -474.753997802734370 -451.289001464843750
-5.618440151214600 -511.696014404296870 -336.446014404296870
7.015649795532227 -508.559997558593750 -346.351989746093750
2.127110004425049 -513.973999023437500 -339.227996826171880
-1.843199968338013 -519.054016113281250 -327.113006591796870
-194.927993774414060 -482.100006103515620 -451.966003417968750
-206.533004760742190 -485.048004150390620 -453.096984863281250
-216.914993286132810 -485.114990234375000 -456.259002685546870
11.514599800109863 -520.331970214843750 -346.282989501953120
-222.994003295898440 -487.503997802734370 -461.334991455078120
-207.417007446289060 -495.003997802734370 -454.994995117187500
-227.701004028320310 -492.787994384765620 -468.794006347656250
-216.376007080078130 -498.269989013671870 -457.005004882812500
-223.490005493164060 -498.433990478515620 -460.464996337890620
-230.940994262695310 -502.291992187500000 -466.557006835937500
-233.203002929687500 -504.033996582031250 -473.791992187500000
-237.046005249023440 -508.649993896484380 -466.519012451171870
-238.455993652343750 -507.795013427734370 -474.803985595703120
-243.748001098632810 -512.309997558593750 -469.356994628906250
-248.714996337890620 -512.684997558593750 -476.502014160156250
-261.240997314453120 -518.513977050781250 -480.415008544921880
-266.753997802734370 -521.992980957031250 -485.141998291015620
