ply
format ascii 1.0
element vertex 741
property double x
property double y
property double z
end_header
370.846984863281250 278.125000000000000 145.531005859375000
370.846984863281250 278.125000000000000 145.531005859375000
364.752990722656250 278.832000732421870 141.251007080078120
377.565002441406250 277.684997558593750 145.427993774414060
361.959014892578120 276.391998291015620 143.080001831054690
380.985992431640620 273.088989257812500 153.630996704101560
358.003997802734370 278.132995605468750 136.858993530273440
367.433013916015620 271.554992675781250 151.850997924804690
392.828002929687500 269.529998779296870 156.210998535156250
352.623992919921870 274.220001220703120 139.292999267578120
382.006011962890620 266.264007568359370 161.886993408203120
338.582000732421870 249.895004272460940 205.565994262695310
394.147003173828120 265.502990722656250 161.481994628906250
369.979003906250000 265.031005859375000 160.117996215820310
337.007995605468750 248.393997192382810 207.466995239257810
348.421997070312500 249.626007080078120 203.733993530273440
354.605987548828120 267.709991455078120 150.087997436523440
346.578002929687500 245.005996704101560 214.921005249023440
332.563995361328120 249.201004028320310 201.169006347656250
354.765991210937500 246.552993774414060 208.218002319335940
381.537994384765620 260.395996093750000 168.514999389648440
340.054992675781250 251.572006225585940 190.807998657226560
340.001007080078130 269.467987060546870 137.649002075195310
397.173004150390620 260.393005371093750 167.477996826171870
337.580993652343750 272.765991210937500 126.885002136230470
402.803985595703120 263.579986572265630 157.332992553710940
328.786010742187500 250.376007080078130 191.432998657226560
341.750000000000000 264.989013671875000 146.970993041992190
329.454010009765630 245.940002441406250 202.561004638671870
367.316009521484370 258.917999267578120 166.057006835937500
352.809997558593750 249.925003051757810 191.602005004882810
357.795013427734370 248.563995361328120 195.251007080078120
351.205993652343750 261.555999755859370 155.912002563476560
339.997009277343750 252.845993041992190 179.054992675781250
325.802001953125000 252.421997070312500 178.893005371093750
355.621002197265620 240.270996093750000 216.147994995117190
382.631988525390620 253.410995483398440 177.929000854492190
367.891998291015620 242.856002807617190 207.977005004882810
396.072998046875000 253.199005126953120 178.880996704101560
368.127990722656250 247.292999267578120 193.854995727539060
354.442993164062500 251.839004516601560 179.292007446289060
354.274993896484370 256.730987548828120 164.718002319335940
364.583007812500000 249.261993408203120 187.190994262695310
339.378997802734370 260.147003173828120 152.938995361328120
328.180999755859370 265.446990966796870 136.485000610351560
327.014007568359370 269.615997314453120 123.113998413085940
326.201995849609370 255.255996704101560 165.315994262695310
368.158996582031250 251.658004760742190 178.531005859375000
324.122009277343750 245.382995605468750 194.285003662109370
409.473999023437500 256.308990478515620 166.287994384765620
340.063995361328120 255.326995849609370 164.938003540039060
319.566986083984370 248.134994506835940 184.662994384765620
373.555999755859380 249.003005981445310 185.128997802734380
397.888000488281250 249.057998657226560 185.102996826171870
381.062988281250000 248.647994995117190 185.156005859375000
316.552001953125000 250.479003906250000 175.744995117187500
382.460998535156250 245.891006469726560 192.895004272460940
326.393005371093750 258.716003417968750 150.541000366210940
322.740997314453120 261.915985107421880 140.654006958007810
408.938995361328120 251.625000000000000 176.440994262695310
366.733001708984370 237.442993164062500 215.895996093750000
319.686004638671870 270.290985107421870 113.398002624511720
311.908996582031250 252.660003662109370 164.639999389648440
396.230010986328120 244.800994873046880 193.067993164062500
381.830993652343750 239.638000488281250 207.436004638671870
316.846984863281250 263.571014404296870 131.688003540039060
311.589996337890620 256.756011962890620 151.223999023437500
411.953002929687500 247.619003295898440 182.856002807617190
376.628997802734370 235.841003417968750 214.839996337890630
409.761993408203120 243.524993896484370 192.972000122070310
311.398010253906250 260.136993408203120 137.139999389648440
417.739990234375000 249.664001464843750 173.419998168945310
395.699005126953120 238.291000366210940 205.718994140625000
311.485992431640620 264.352996826171870 121.805999755859370
360.617004394531250 233.190994262695310 216.919998168945310
419.837005615234370 250.639999389648440 168.289993286132810
310.786010742187500 268.139007568359370 109.436996459960940
307.720001220703120 262.157989501953120 126.765998840332030
387.214996337890620 234.421997070312500 213.128005981445310
409.959991455078120 237.507995605468750 204.363998413085940
303.445007324218750 250.313995361328120 159.768997192382810
299.045989990234370 253.279998779296870 149.511993408203130
296.947998046875000 257.190002441406250 136.990997314453120
316.964996337890620 240.233993530273440 188.287002563476560
309.453002929687500 270.618011474609370 96.735496520996094
423.602996826171870 240.427001953125000 193.095993041992190
423.651000976562500 245.151000976562500 178.949996948242190
423.843994140625000 236.746002197265620 203.576004028320310
370.959991455078120 230.611999511718750 218.522003173828120
396.640014648437500 233.291000366210940 212.016006469726560
306.626007080078130 246.087005615234370 168.522994995117190
304.574005126953120 263.204010009765620 117.164001464843750
311.743011474609370 242.328994750976560 178.863006591796870
297.730987548828120 260.316009521484370 124.302001953125000
426.088989257812500 247.205993652343750 170.417999267578120
410.984008789062500 232.283996582031250 210.986999511718750
298.916992187500000 264.769989013671870 107.470001220703120
436.619995117187500 235.666000366210940 201.910995483398440
297.975006103515620 267.739013671875000 98.070198059082031
382.338012695312500 228.882003784179690 217.951004028320310
424.388000488281250 232.069000244140620 210.440994262695310
295.213989257812500 262.428985595703120 111.837997436523440
438.268005371093750 237.576004028320310 193.173004150390620
438.571990966796880 232.291000366210940 208.787994384765620
285.324005126953120 253.606994628906250 135.033004760742190
284.075012207031250 257.065002441406250 124.404998779296870
452.903991699218750 232.244995117187500 207.154006958007810
436.721008300781250 240.757003784179690 180.138000488281250
395.851989746093750 227.358001708984370 217.389999389648440
290.433013916015620 263.549011230468750 103.304000854492190
466.471984863281250 231.873001098632810 207.710998535156250
293.294006347656250 269.605010986328120 84.837799072265625
432.502990722656250 243.059997558593750 171.169006347656250
451.300994873046870 235.861999511718750 192.869995117187500
479.397003173828120 231.141998291015620 207.910995483398440
475.859985351562500 233.977005004882810 199.152999877929690
457.559997558593750 234.970001220703120 194.746994018554690
464.553009033203120 234.473999023437500 196.457000732421870
284.204010009765630 260.437011718750000 107.545997619628910
460.578002929687500 235.182006835937500 193.160995483398440
410.044006347656250 225.820999145507810 217.108001708984370
283.733001708984370 264.316009521484370 94.711196899414063
282.554992675781250 267.933013916015620 83.497001647949219
300.321990966796870 241.033004760742190 163.794998168945310
315.015014648437500 233.175003051757810 186.839004516601560
438.006988525390620 225.479995727539060 216.964996337890620
452.787994384765620 225.516998291015620 217.580001831054690
294.148010253906250 243.833999633789060 153.264007568359370
466.134002685546870 225.516006469726560 218.082992553710940
448.675994873046870 236.716003417968750 183.548995971679690
281.436004638671870 261.921997070312500 98.448303222656250
424.837005615234370 224.779998779296870 217.322006225585940
480.539001464843750 224.977005004882810 219.121994018554690
491.789001464843750 227.617004394531250 211.317993164062500
270.269989013671870 252.994995117187500 122.069000244140620
276.350006103515620 263.654998779296870 89.378303527832031
493.955993652343750 224.050994873046870 219.697006225585940
304.614013671875000 235.158996582031250 173.130004882812500
454.265014648437500 234.423004150390620 184.059005737304690
271.588989257812500 265.549011230468750 79.134597778320312
385.597991943359370 220.160003662109370 220.184005737304690
505.450988769531250 222.335998535156250 219.878005981445310
269.839996337890620 254.238998413085940 109.138999938964840
308.984985351562500 231.643997192382810 178.345993041992190
494.078002929687500 219.203994750976560 226.130996704101560
508.472991943359370 219.386993408203120 225.444000244140620
261.265014648437500 250.529006958007810 117.494003295898440
281.980010986328120 243.216995239257810 139.091995239257810
479.510986328125000 217.893005371093750 226.035003662109370
269.053985595703120 257.686004638671870 94.824897766113281
287.837005615234370 240.160995483398440 147.486999511718750
424.148986816406250 217.897003173828120 221.897003173828120
517.499023437500000 218.408996582031250 225.606994628906250
266.772003173828120 266.752014160156250 66.745697021484375
303.927001953125000 231.152999877929690 172.854003906250000
396.595001220703130 216.679992675781250 221.082000732421870
265.697998046875000 260.424011230468750 82.661697387695313
465.881011962890620 216.276000976562500 225.184005737304690
266.962005615234370 245.382003784179690 126.564002990722660
258.803009033203120 250.408996582031250 110.505996704101560
408.976013183593750 215.518005371093750 222.162002563476560
262.930999755859370 262.742004394531250 71.089897155761719
507.798004150390630 213.296997070312500 232.248001098632810
452.576995849609370 214.807006835937500 224.386001586914060
265.372009277343750 266.822998046875000 58.046001434326172
438.618011474609370 214.565002441406250 223.468994140625000
521.861999511718750 212.292999267578130 234.735000610351560
494.386993408203120 212.662994384765620 230.998992919921870
262.343994140625000 263.416992187500000 64.169898986816406
271.472991943359370 240.192001342773440 132.910995483398440
291.631011962890620 232.300994873046870 156.548004150390630
533.218017578125000 209.843002319335940 237.710006713867190
480.942993164062500 211.197006225585940 229.789993286132810
253.751998901367190 247.069000244140620 108.438003540039060
296.898010253906250 228.906997680664060 164.585998535156250
258.898010253906250 251.666000366210940 93.573097229003906
262.244995117187500 263.468994140625000 58.084201812744141
256.358001708984370 241.397994995117190 122.472000122070310
535.776977539062500 206.949996948242190 240.966995239257810
469.291992187500000 209.309005737304690 228.886993408203130
304.825988769531250 225.457000732421870 170.800994873046880
257.204010009765620 254.839004516601560 80.525802612304688
263.041992187500000 262.717010498046870 54.399398803710937
278.605987548828120 232.470993041992190 142.119995117187500
242.100006103515620 241.990997314453120 110.671997070312500
521.359008789062500 203.604995727539060 240.447998046875000
255.458999633789060 256.290008544921870 67.019996643066406
253.244003295898440 246.251998901367190 95.884002685546875
244.494995117187500 237.893005371093750 118.666999816894530
284.368011474609370 227.708999633789060 150.257003784179690
407.589996337890620 205.152999877929690 222.070007324218750
535.901977539062500 199.399993896484370 245.423004150390620
548.693969726562500 198.727005004882810 248.003997802734370
250.218002319335940 247.888000488281250 82.996803283691406
269.736999511718750 228.694000244140620 138.089996337890630
289.723999023437500 222.285995483398440 157.975997924804690
508.394012451171870 199.274993896484370 238.852996826171870
230.173004150390620 236.964996337890620 109.738998413085940
293.170013427734370 221.091995239257810 160.673004150390620
252.486999511718750 230.944000244140620 127.814002990722660
243.055999755859370 242.087997436523440 94.059898376464844
479.785003662109370 200.291000366210940 232.382003784179690
524.051025390625000 197.406005859375000 243.283996582031250
492.920013427734370 199.289001464843750 235.177001953125000
561.953979492187500 194.740005493164060 252.891006469726560
255.501998901367190 255.186004638671870 53.887599945068359
465.562011718750000 199.854003906250000 229.815002441406250
448.947998046875000 200.335998535156250 226.979995727539060
248.291000366210940 249.509002685546870 67.166603088378906
455.609985351562500 199.171997070312500 228.464004516601560
232.908996582031250 240.389007568359370 92.066902160644531
440.773010253906250 199.576995849609370 225.233993530273440
219.412994384765620 235.533004760742190 103.379997253417970
257.579986572265620 225.953002929687500 132.863998413085940
275.536987304687500 222.186004638671870 144.755004882812500
225.445999145507810 231.675003051757810 112.635002136230470
241.639007568359370 228.423995971679690 123.148002624511720
248.378997802734370 249.408004760742190 58.118900299072266
281.622985839843750 218.901000976562500 150.679992675781250
241.904998779296870 241.317993164062500 81.451103210449219
208.371994018554690 231.690002441406250 101.471000671386720
255.856994628906250 251.882995605468750 44.351501464843750
274.242004394531250 217.901000976562500 144.938003540039060
229.694000244140620 225.958999633789060 118.290000915527340
560.617980957031250 186.777999877929690 254.270004272460940
241.589996337890620 243.296997070312500 66.801200866699219
213.996994018554690 228.003005981445310 108.875000000000000
229.483993530273440 236.779006958007810 82.897697448730469
249.490997314453120 248.255996704101560 50.021499633789063
267.940002441406250 217.628005981445310 140.725006103515620
567.697998046875000 184.492996215820310 257.141998291015620
220.569000244140620 235.289993286132810 85.120697021484375
444.473999023437500 192.921997070312500 223.457000732421870
549.588989257812500 185.686004638671870 251.337005615234370
536.633972167968750 186.149002075195310 247.164993286132810
525.158996582031250 187.050994873046870 243.738006591796870
576.695983886718750 182.287994384765620 260.625000000000000
234.895996093750000 234.611999511718750 83.080001831054688
452.930999755859370 191.115005493164060 225.410003662109370
467.404998779296870 189.518997192382810 229.330001831054690
197.184005737304690 227.298004150390620 99.518501281738281
256.688995361328130 216.789001464843750 133.628997802734380
586.669982910156250 179.216003417968750 265.010986328125000
201.080001831054690 224.740997314453120 104.899002075195310
508.149993896484370 185.625000000000000 238.022994995117190
242.095001220703120 241.839996337890630 53.159599304199219
250.848007202148440 246.430999755859370 39.932899475097656
518.270019531250000 184.167999267578120 240.516006469726560
227.287994384765620 232.541000366210940 78.517097473144531
233.335998535156250 236.285995483398440 67.063499450683594
480.072998046875000 186.011993408203120 231.216995239257810
494.492004394531250 185.197998046875000 234.253997802734370
214.205001831054690 231.576004028320310 78.911003112792969
241.647003173828120 216.705993652343750 124.648002624511720
250.242996215820310 215.201995849609370 129.162002563476560
186.839004516601560 224.486999511718750 95.208900451660156
465.039001464843750 185.738998413085940 226.348007202148440
192.108001708984370 221.796997070312500 101.944000244140620
228.455993652343750 216.858001708984370 118.431999206542970
201.027999877929690 229.602005004882810 78.278198242187500
213.582000732421870 218.091003417968750 112.733001708984380
199.485000610351560 218.671005249023440 107.266998291015620
191.399993896484370 219.682998657226560 102.897003173828120
186.455993652343750 228.393997192382810 76.529403686523438
233.798004150390620 235.524002075195310 56.066699981689453
177.244995117187500 222.389007568359370 91.401802062988281
568.210021972656250 174.688003540039060 256.834991455078120
222.600006103515620 215.166000366210940 115.137001037597660
185.190994262695310 219.843994140625000 98.648002624511719
226.279006958007810 231.007995605468750 67.141296386718750
175.897994995117190 220.623992919921870 92.645500183105469
243.070007324218750 239.800003051757810 39.206798553466797
169.949996948242190 222.654998779296870 84.951301574707031
235.320007324218750 234.539993286132810 49.752998352050781
576.671997070312500 170.968994140625000 258.932006835937500
591.953002929687500 169.154006958007810 264.928009033203120
474.667999267578120 179.276992797851560 226.981994628906250
538.465026855468750 174.914001464843750 243.811996459960940
483.541992187500000 178.690002441406250 228.805999755859370
213.356994628906250 226.647003173828120 67.342597961425781
494.868011474609370 177.270004272460940 229.908996582031250
600.158020019531250 166.423004150390620 268.391998291015620
480.177001953125000 177.380996704101560 227.408996582031250
562.357971191406250 170.358001708984370 252.878997802734370
185.641006469726560 225.192001342773440 66.429496765136719
201.970993041992190 225.382995605468750 66.580398559570312
227.007995605468750 230.319000244140620 52.515701293945312
549.531982421875000 171.315994262695310 247.098007202148440
234.669006347656250 234.766998291015620 39.135700225830078
491.502990722656250 175.908004760742190 227.436996459960940
508.949005126953130 174.723007202148440 231.972000122070310
174.684997558593750 224.173004150390620 64.111503601074219
162.623001098632810 224.710998535156250 61.749198913574219
240.921005249023440 237.733001708984370 25.956800460815430
571.552001953125000 166.128005981445310 255.220001220703120
608.132995605468750 161.460006713867190 271.277008056640620
522.127014160156250 171.662994384765620 234.615005493164060
225.830001831054690 229.641998291015620 43.036300659179688
534.572021484375000 169.755004882812500 238.761993408203130
172.647994995117190 222.718002319335940 56.207599639892578
185.733993530273440 222.311996459960940 58.168899536132812
233.164001464843750 235.522994995117190 21.506099700927734
215.729003906250000 224.402999877929690 53.197399139404297
201.369995117187500 222.397994995117190 58.025299072265625
199.582000732421870 220.865005493164060 61.369899749755859
239.598007202148440 236.455993652343750 17.180299758911133
158.022994995117190 223.057998657226560 51.966098785400391
146.759002685546870 222.434997558593750 52.679599761962891
186.751007080078120 220.276000976562500 61.158199310302734
227.677993774414060 233.757003784179690 22.720800399780273
581.302978515625000 161.886993408203120 257.463989257812500
233.546997070312500 235.598007202148440 17.174400329589844
210.061996459960940 220.001007080078120 61.426101684570313
544.007995605468750 166.235000610351560 240.953994750976560
512.382019042968750 170.033004760742190 227.406997680664060
592.330017089843750 160.128997802734370 261.125000000000000
517.455017089843750 168.785003662109370 227.257995605468750
605.145019531250000 157.703994750976560 265.299987792968750
617.958007812500000 154.240997314453120 271.778015136718750
226.167007446289060 233.423004150390620 12.550299644470215
209.270004272460940 219.268005371093750 53.537899017333984
553.288024902343750 161.710006713867190 243.977996826171870
528.564025878906250 165.139007568359370 231.177001953125000
212.809005737304690 222.660995483398440 40.105201721191406
538.575988769531250 163.111999511718750 235.830001831054690
158.018997192382810 217.953002929687500 48.804599761962891
172.444000244140620 217.154998779296870 51.243801116943359
614.888000488281250 153.274993896484370 267.493011474609380
213.399993896484370 226.462997436523440 25.378200531005859
216.233001708984370 231.309997558593750 10.003299713134766
186.095993041992190 216.425994873046870 52.185798645019531
199.429000854492190 216.535995483398440 52.513198852539063
563.716003417968750 157.972000122070310 248.423995971679690
574.562988281250000 156.087997436523440 253.479003906250000
548.297973632812500 159.908996582031250 239.231002807617190
208.384994506835940 219.589004516601560 40.077499389648437
143.266998291015620 215.363998413085940 48.553600311279297
624.642028808593750 149.585006713867190 271.736999511718750
222.604003906250000 231.445007324218750 3.229899883270264
206.729003906250000 221.035995483398440 31.143800735473633
213.287994384765620 230.582992553710940 -0.002449349965900
204.679000854492190 221.927001953125000 24.002399444580078
135.477996826171870 210.277999877929690 49.147701263427734
201.746002197265620 222.645996093750000 15.925100326538086
202.815994262695310 229.283004760742190 -4.338530063629150
558.775024414062500 153.270004272460940 240.972000122070310
159.473999023437500 211.906005859375000 42.444400787353516
634.176025390625000 143.865997314453120 271.923004150390620
199.141998291015620 213.192993164062500 39.188701629638672
620.093017578125000 146.143997192382810 263.376007080078120
171.527999877929690 211.227005004882810 42.279800415039063
145.391998291015620 209.750000000000000 44.133399963378906
567.763000488281250 150.044998168945310 246.270004272460940
576.895019531250000 148.216003417968750 251.768997192382810
186.121994018554690 210.555999755859370 42.424900054931641
593.497009277343750 146.503997802734380 257.105010986328120
560.539978027343750 151.130004882812500 241.205001831054690
198.296997070312500 228.772003173828120 -11.614299774169922
606.770996093750000 145.714004516601560 259.095001220703120
586.958007812500000 146.115005493164060 255.617996215820310
197.949005126953120 215.093994140625000 25.780399322509766
196.322006225585940 216.666000366210940 16.622600555419922
632.297973632812500 141.123992919921870 264.523986816406250
131.977996826171870 204.039001464843750 47.068099975585938
646.129028320312500 138.513000488281250 272.055999755859370
186.470001220703120 221.871002197265620 -6.782710075378418
193.643005371093750 206.175994873046880 39.009700775146484
643.788024902343750 138.408004760742190 267.627014160156250
651.757995605468750 136.733001708984370 272.446014404296870
182.671005249023440 222.701004028320310 -13.360600471496582
191.000000000000000 208.830001831054690 23.697000503540039
185.839004516601560 203.574005126953120 37.072498321533203
660.583007812500000 134.007003784179690 272.149993896484370
172.147994995117190 203.371002197265620 35.942600250244141
158.673004150390620 202.975997924804690 35.975200653076172
178.386001586914060 221.942993164062500 -20.107500076293945
648.672973632812500 135.416000366210940 265.225006103515620
183.264007568359370 216.621002197265620 -4.615349769592285
636.036010742187500 136.117004394531250 260.651000976562500
143.468994140625000 200.858993530273440 37.646198272705078
187.768005371093750 209.986999511718750 12.166299819946289
658.338012695312500 133.630004882812500 267.537994384765620
180.005996704101560 219.160003662109370 -15.581999778747559
132.794006347656250 198.324005126953120 41.282199859619141
670.640991210937500 131.356002807617190 271.174011230468750
179.570007324218750 218.212997436523440 -24.870100021362305
184.238998413085940 201.158004760742190 25.566299438476562
175.401000976562500 213.889999389648440 -17.812400817871094
176.483001708984370 209.998992919921870 -6.898550033569336
182.078002929687500 202.876007080078120 13.496199607849121
179.033004760742190 205.701995849609370 1.869179964065552
158.684997558593750 195.798995971679690 28.989000320434570
172.658004760742190 196.389007568359370 27.105100631713867
146.884002685546870 194.613998413085940 30.333999633789062
136.654998779296870 193.037002563476560 33.316299438476562
175.223007202148440 211.904998779296870 -28.111999511718750
178.677993774414060 193.074996948242190 24.129699707031250
176.190994262695310 196.755004882812500 10.594200134277344
128.917999267578120 186.606994628906250 36.527198791503906
172.085998535156250 200.667007446289060 -3.456249952316284
158.093002319335940 189.884002685546870 22.138099670410156
171.261001586914060 189.873001098632810 22.327400207519531
142.947998046875000 187.938995361328120 24.683200836181641
168.807006835937500 200.065002441406250 -17.821699142456055
132.455993652343750 183.552001953125000 27.591100692749023
169.529006958007810 187.432998657226560 11.797499656677246
170.835006713867190 200.039001464843750 -31.307300567626953
166.587005615234380 189.143997192382810 -1.571879982948303
125.782997131347660 176.188003540039060 34.036499023437500
159.141006469726560 182.901992797851560 12.958800315856934
164.330993652343750 193.313003540039060 -17.856700897216797
145.526000976562500 181.546005249023440 15.179499626159668
166.104995727539060 190.705993652343750 -18.513099670410156
121.524002075195310 170.203002929687500 34.635200500488281
171.375000000000000 196.475006103515620 -41.108798980712891
162.031005859375000 183.404998779296870 -3.779200077056885
128.113998413085940 172.449996948242190 24.529600143432617
165.800994873046870 189.912994384765620 -30.600500106811523
160.222000122070310 185.186996459960940 -17.433500289916992
156.908996582031250 175.878997802734370 7.557030200958252
121.699996948242190 167.542007446289060 29.046400070190430
141.742004394531250 174.050994873046870 8.939599990844727
132.057998657226560 169.658996582031250 12.908200263977051
118.874000549316410 162.067993164062500 33.155399322509766
161.570007324218750 183.876007080078120 -30.433900833129883
167.421997070312500 188.427993774414060 -44.956501007080078
155.679000854492190 173.322998046875000 -2.472379922866821
125.093002319335940 161.328002929687500 22.566099166870117
144.330993652343750 168.544998168945310 0.208456993103027
162.656005859375000 182.772003173828120 -44.427200317382813
135.500000000000000 166.257003784179690 1.723919987678528
136.714996337890630 165.050003051757810 5.285620212554932
154.119003295898440 173.130004882812500 -17.995000839233398
166.205001831054690 184.904006958007810 -53.574600219726563
119.184997558593750 157.324996948242190 24.027900695800781
127.247001647949220 159.514999389648440 10.079600334167480
162.591995239257810 181.740005493164060 -54.926799774169922
151.003005981445310 164.783004760742190 -5.942200183868408
155.229995727539060 172.669998168945310 -31.415199279785156
148.923004150390620 167.292999267578120 -17.745800018310547
142.847000122070310 161.272994995117190 -6.008860111236572
120.349998474121090 154.253997802734370 12.465999603271484
155.957992553710940 173.039993286132810 -44.491901397705078
129.932006835937500 157.083999633789060 -2.182329893112183
149.171005249023440 166.798995971679690 -30.587200164794922
114.654998779296870 148.436996459960940 20.583299636840820
150.958999633789060 164.832992553710940 -30.794599533081055
155.628997802734370 173.391006469726560 -57.960498809814453
143.567993164062500 158.955001831054690 -16.783000946044922
122.941001892089840 150.748001098632810 6.273210048675537
121.716003417968750 152.044006347656250 2.075959920883179
149.199005126953120 166.694000244140620 -44.473899841308594
150.998001098632810 164.867004394531250 -41.878200531005859
115.166999816894530 146.393005371093750 10.500800132751465
131.791000366210940 153.910995483398440 -12.465600013732910
124.401000976562500 149.567993164062500 -4.400469779968262
143.550003051757810 158.477996826171870 -30.493700027465820
148.156997680664060 167.546005249023440 -58.932201385498047
153.147994995117190 169.464996337890630 -67.712997436523438
115.885002136230470 144.807998657226560 -3.171750068664551
106.569999694824220 140.712997436523440 8.118450164794922
143.611999511718750 158.608001708984370 -44.899299621582031
138.115005493164060 149.460998535156250 -19.478300094604492
148.085006713867190 166.330993652343750 -69.343902587890625
142.177001953125000 161.529006958007810 -59.010700225830078
135.837005615234370 152.220001220703130 -32.865600585937500
128.419998168945310 146.233001708984370 -17.666200637817383
137.427993774414060 150.031997680664060 -32.712200164794922
104.821998596191410 135.800994873046870 5.628190040588379
106.787002563476560 138.524002075195310 -4.093910217285156
141.238006591796870 161.274993896484370 -71.832397460937500
116.943000793457030 141.746994018554690 -15.810799598693848
135.636993408203120 153.440002441406250 -49.525501251220703
137.787002563476560 149.964004516601560 -40.816101074218750
107.200996398925780 137.921005249023440 -12.000200271606445
132.210998535156250 153.858993530273440 -60.298198699951172
131.453002929687500 144.011001586914060 -31.117000579833984
101.786003112792970 133.660003662109370 -4.275199890136719
118.568000793457030 138.652999877929690 -25.067899703979492
131.813995361328120 154.647003173828120 -72.875900268554687
136.651992797851560 156.899002075195310 -80.760696411132813
110.982002258300780 135.419006347656250 -20.295999526977539
129.509002685546880 143.552001953125000 -43.479301452636719
100.827003479003910 131.936996459960940 -16.850999832153320
125.842002868652340 146.154998779296870 -58.356399536132812
130.251007080078120 153.680999755859370 -81.901496887207031
88.850799560546875 125.870002746582030 -2.601000070571899
125.643997192382810 149.608001708984370 -72.492301940917969
126.211997985839840 133.604995727539060 -32.143001556396484
123.976997375488280 149.917999267578120 -83.098800659179687
84.788398742675781 122.083999633789060 -4.206779956817627
91.301200866699219 126.316001892089840 -17.595100402832031
115.282997131347660 130.751998901367190 -30.732099533081055
120.566001892089840 140.500000000000000 -60.382701873779297
124.138000488281250 134.361999511718750 -42.615398406982422
118.539001464843750 142.863998413085940 -71.455299377441406
102.171997070312500 126.943000793457030 -29.143400192260742
80.439697265625000 119.223999023437500 -8.741700172424316
92.102996826171875 124.431999206542970 -26.190900802612305
84.838996887207031 121.873001098632810 -19.637699127197266
119.856002807617190 129.151000976562500 -46.664600372314453
114.149002075195310 142.317993164062500 -86.122200012207031
78.601402282714844 118.301002502441410 -20.466199874877930
115.681999206542970 130.608001708984370 -58.781700134277344
99.101303100585938 121.594001770019530 -35.595901489257812
116.000999450683590 122.082000732421870 -36.920101165771484
86.600097656250000 119.250999450683590 -31.333099365234375
110.303001403808590 139.542007446289060 -95.260299682617188
111.259002685546870 130.352996826171870 -73.477897644042969
74.463699340820313 114.321998596191410 -31.599100112915039
110.472000122070310 131.315994262695310 -86.614700317382813
114.023002624511720 116.957000732421870 -45.122501373291016
101.517997741699220 115.306999206542970 -42.416900634765625
108.010002136230470 126.384002685546870 -75.943397521972656
64.074897766113281 110.542999267578120 -33.254501342773438
89.001197814941406 112.031997680664060 -40.840499877929687
77.973098754882813 110.142997741699220 -39.244998931884766
108.167999267578120 126.816001892089840 -87.177299499511719
111.086997985839840 116.183998107910160 -57.223999023437500
111.186996459960940 129.432006835937500 -97.057998657226563
66.722900390625000 108.189002990722660 -37.998699188232422
58.909500122070313 107.375999450683590 -36.100101470947266
52.521999359130859 105.513999938964840 -36.992401123046875
109.396003723144530 118.916999816894530 -74.134803771972656
108.468002319335940 124.779998779296870 -95.655502319335938
107.130996704101560 112.598999023437500 -62.782398223876953
106.328002929687500 115.402000427246090 -72.886001586914062
109.871002197265620 107.277000427246090 -49.315299987792969
101.710998535156250 105.388000488281250 -49.265899658203125
73.891700744628906 102.675003051757810 -44.990600585937500
109.776000976562500 117.791000366210940 -87.862197875976563
87.336799621582031 103.683998107910160 -47.497600555419922
60.086399078369141 101.264999389648440 -44.346500396728516
110.095001220703120 106.293998718261720 -56.809398651123047
106.583000183105470 115.291000366210940 -86.356796264648438
51.221500396728516 99.005699157714844 -46.056800842285156
110.444999694824220 116.984001159667970 -100.900001525878910
103.933998107910160 101.044998168945310 -58.712799072265625
107.168998718261720 113.842002868652340 -99.830001831054688
90.272399902343750 97.908599853515625 -53.986598968505859
72.796600341796875 94.381698608398438 -51.271800994873047
102.352996826171870 102.138999938964840 -73.175903320312500
59.272399902343750 93.735702514648437 -51.064998626708984
48.419898986816406 88.763198852539063 -50.316501617431641
103.199996948242190 101.903999328613280 -86.688499450683594
109.801002502441410 106.661003112792970 -106.306999206542970
99.209503173828125 90.420196533203125 -60.489200592041016
60.350799560546875 86.631401062011719 -55.783401489257813
87.009597778320313 88.529403686523438 -59.844799041748047
74.455902099609375 87.132003784179687 -57.084400177001953
50.363399505615234 84.531402587890625 -53.571601867675781
104.263000488281250 101.702003479003910 -101.538002014160160
97.952796936035156 89.165298461914063 -73.833503723144531
111.338996887207030 101.168998718261720 -109.976997375488280
45.193099975585938 78.637901306152344 -51.005001068115234
105.586997985839840 98.681999206542969 -109.416000366210940
97.890197753906250 89.215797424316406 -86.703498840332031
89.430999755859375 80.033798217773438 -65.310897827148438
93.759101867675781 84.452903747558594 -78.309196472167969
72.830200195312500 78.352600097656250 -63.652698516845703
93.231101989746094 84.345397949218750 -86.672599792480469
95.395301818847656 78.958602905273438 -70.592102050781250
59.126201629638672 75.307403564453125 -62.103099822998047
48.685298919677734 73.112602233886719 -56.498798370361328
99.287803649902344 88.582397460937500 -101.464996337890620
94.030197143554687 82.569000244140625 -97.569801330566406
89.089103698730469 73.593299865722656 -71.823898315429687
95.187599182128906 79.308799743652344 -89.021400451660156
104.177001953125000 87.098800659179687 -112.302001953125000
110.753997802734370 88.001899719238281 -115.816001892089840
74.505096435546875 71.678100585937500 -69.585098266601563
62.992298126220703 69.166198730468750 -67.502502441406250
90.223503112792969 74.239700317382813 -86.930496215820313
55.399700164794922 62.428001403808594 -64.511100769042969
97.059799194335938 75.955001831054688 -102.626998901367190
47.300300598144531 60.145801544189453 -60.281501770019531
91.736503601074219 72.562500000000000 -99.838699340820313
109.525001525878910 77.931701660156250 -120.421997070312500
84.781799316406250 62.364299774169922 -76.048301696777344
60.191299438476563 59.293899536132813 -71.863098144531250
73.303001403808594 61.025501251220703 -76.365097045898437
101.559997558593750 73.860496520996094 -114.804000854492190
51.490699768066406 55.724399566650391 -67.678398132324219
94.029296875000000 68.824096679687500 -109.347000122070310
85.339302062988281 60.432800292968750 -88.116798400878906
109.712997436523440 71.800102233886719 -123.638999938964840
95.585403442382813 65.113998413085938 -106.188003540039060
105.410003662109370 70.041000366210937 -123.022003173828120
73.282699584960938 54.687198638916016 -82.008598327636719
44.616298675537109 46.248798370361328 -61.358100891113281
87.211898803710937 60.006698608398438 -101.002998352050780
50.078399658203125 45.796001434326172 -70.591499328613281
79.358001708984375 55.265701293945313 -97.994499206542969
98.366203308105469 61.625301361083984 -116.428001403808590
57.092300415039062 47.064701080322266 -76.047096252441406
108.690002441406250 65.104698181152344 -126.679000854492190
81.888000488281250 49.632598876953125 -89.079101562500000
91.219596862792969 57.168598175048828 -113.240997314453120
74.103599548339844 46.243000030517578 -85.594902038574219
61.784301757812500 44.368301391601563 -83.848800659179688
82.766700744628906 51.171001434326172 -103.487998962402340
101.164001464843750 58.791801452636719 -125.880996704101560
44.603099822998047 33.076198577880859 -63.215000152587891
93.544197082519531 54.313499450683594 -123.763999938964840
77.271697998046875 46.080898284912109 -102.230003356933590
85.484397888183594 49.744201660156250 -115.344001770019530
56.451400756835938 34.007400512695313 -76.847000122070312
48.935100555419922 32.330501556396484 -72.788299560546875
96.834197998046875 51.998100280761719 -131.020004272460940
76.205703735351563 43.627201080322266 -113.463996887207030
58.933300018310547 33.016899108886719 -86.480598449707031
71.926597595214844 34.550498962402344 -91.560096740722656
87.627998352050781 47.106300354003906 -128.582992553710940
97.691299438476563 50.035701751708984 -138.173995971679690
52.082500457763672 26.337099075317383 -81.154800415039063
73.836402893066406 31.530599594116211 -100.410003662109370
78.520202636718750 40.916400909423828 -128.343002319335940
87.076301574707031 44.369998931884766 -140.854003906250000
61.329799652099609 27.628700256347656 -95.368103027343750
71.693702697753906 32.804298400878906 -115.181999206542970
54.037300109863281 19.725700378417969 -78.009300231933594
46.798698425292969 17.998399734497070 -73.699798583984375
79.458602905273438 40.150901794433594 -141.009002685546870
55.548000335693359 18.946899414062500 -86.223701477050781
72.642303466796875 33.259498596191406 -129.009994506835940
50.276000976562500 16.587200164794922 -85.116699218750000
65.698303222656250 27.548000335693359 -118.796997070312500
65.765296936035156 27.261999130249023 -124.791999816894530
73.605598449707031 32.953800201416016 -142.772994995117190
69.352600097656250 19.284599304199219 -102.511001586914060
59.146900177001953 17.877399444580078 -99.555000305175781
68.741302490234375 19.575500488281250 -113.382003784179690
51.677501678466797 13.370800018310547 -97.058296203613281
44.569400787353516 4.845160007476807 -75.101799011230469
68.155899047851562 22.870899200439453 -128.660995483398440
53.110801696777344 8.789079666137695 -88.290901184082031
71.755500793457031 30.779300689697266 -152.960006713867190
64.842002868652344 17.472299575805664 -118.153999328613280
47.172599792480469 5.089990139007568 -87.369300842285156
66.921699523925781 10.980899810791016 -106.666999816894530
68.255798339843750 22.862699508666992 -142.580993652343750
66.871902465820313 24.289699554443359 -152.936004638671870
66.377296447753906 25.344900131225586 -156.789993286132810
63.828098297119141 15.731599807739258 -130.102005004882810
58.401500701904297 5.342579841613770 -103.546997070312500
67.079200744628906 8.809969902038574 -114.556999206542970
48.974700927734375 3.422529935836792 -100.963996887207030
63.549301147460938 15.588899612426758 -142.203994750976560
60.982498168945313 17.639099121093750 -155.483993530273440
47.563999176025391 -9.107589721679688 -77.117103576660156
60.267898559570313 3.240430116653442 -114.454002380371090
45.507701873779297 -6.459109783172607 -86.628898620605469
50.604598999023438 -0.816815018653870 -109.402999877929690
58.837600708007813 4.045949935913086 -128.826004028320310
58.527198791503906 -5.572919845581055 -103.399002075195310
45.862499237060547 -7.229040145874023 -101.975997924804690
54.140701293945313 13.708399772644043 -164.714004516601560
57.717399597167969 4.653940200805664 -142.725997924804690
52.450500488281250 11.270799636840820 -162.787002563476560
52.145599365234375 11.843799591064453 -164.645004272460940
55.301898956298828 7.571090221405029 -153.444000244140620
42.237800598144531 -18.891700744628906 -78.344497680664063
58.386798858642578 -8.604889869689941 -116.110000610351560
48.316600799560547 5.707709789276123 -161.223007202148440
47.721698760986328 -10.719900131225586 -112.834999084472660
41.015300750732422 -22.737100601196289 -86.929496765136719
43.772499084472656 3.016020059585571 -165.485992431640620
53.824100494384766 -5.592130184173584 -139.572006225585940
55.931400299072266 -9.736860275268555 -128.647994995117190
37.025398254394531 -28.507900238037109 -86.863700866699219
48.990600585937500 -10.836299896240234 -143.309997558593750
55.379901885986328 -20.192800521850586 -119.779998779296870
40.639099121093750 -27.038299560546875 -100.394996643066410
51.097499847412109 -16.239000320434570 -133.524002075195310
37.776798248291016 -29.974500656127930 -96.904296875000000
44.653900146484375 -23.913400650024414 -117.835998535156250
32.063301086425781 -34.525001525878906 -90.168502807617188
39.004199981689453 -31.186100006103516 -104.167999267578120
24.601699829101562 -40.913299560546875 -92.832099914550781
56.528301239013672 -24.634500503540039 -128.003005981445310
39.001701354980469 -31.563600540161133 -113.120002746582030
48.894199371337891 -26.331300735473633 -129.582000732421870
31.453399658203125 -37.150699615478516 -101.560997009277340
45.479900360107422 -24.902999877929688 -141.882995605468750
23.318500518798828 -43.316200256347656 -100.180000305175780
34.209999084472656 -39.706100463867188 -113.235000610351560
46.137798309326172 -37.000198364257813 -127.315002441406250
34.034599304199219 -37.958801269531250 -125.843002319335940
55.539100646972656 -35.964298248291016 -132.970001220703120
20.048999786376953 -47.188098907470703 -105.051002502441410
45.047000885009766 -38.197799682617188 -143.382003784179690
53.591499328613281 -42.189601898193359 -136.979003906250000
28.769300460815430 -49.581199645996094 -116.596000671386720
38.614398956298828 -38.823600769042969 -148.837997436523440
34.133800506591797 -36.833900451660156 -155.764007568359370
39.338699340820312 -38.442501068115234 -156.158004760742190
18.907100677490234 -53.395500183105469 -114.178001403808590
9.158390045166016 -56.835601806640625 -112.834999084472660
44.125701904296875 -50.569999694824219 -133.315002441406250
31.957099914550781 -52.229598999023437 -129.578002929687500
53.539299011230469 -49.577598571777344 -138.423004150390620
45.990001678466797 -51.508098602294922 -143.861999511718750
15.055199623107910 -60.683898925781250 -120.230003356933590
7.388269901275635 -62.341201782226563 -119.264999389648440
33.611900329589844 -57.880199432373047 -136.761001586914060
39.559600830078125 -51.144500732421875 -156.440002441406250
33.066699981689453 -52.207599639892578 -156.712005615234380
26.457300186157227 -62.229900360107422 -130.432006835937500
18.993999481201172 -67.250198364257813 -128.016006469726560
5.002570152282715 -69.206802368164063 -126.014999389648440
45.397899627685547 -64.901199340820313 -144.309005737304690
31.121999740600586 -66.777000427246094 -140.195999145507810
23.665199279785156 -71.332000732421875 -138.906005859375000
33.868301391601563 -65.427101135253906 -158.330001831054690
42.028499603271484 -68.310203552246094 -151.927993774414060
15.044500350952148 -75.638801574707031 -133.257003784179690
4.543139934539795 -76.320999145507813 -132.902999877929690
-3.531399965286255 -77.109397888183594 -134.563995361328120
42.162899017333984 -77.414901733398437 -146.949996948242190
18.705400466918945 -80.591300964355469 -142.500000000000000
31.906700134277344 -79.772598266601562 -146.397003173828120
3.018019914627075 -83.289398193359375 -140.001007080078120
43.009799957275391 -80.195297241210938 -154.578002929687500
35.646598815917969 -80.838699340820312 -159.699996948242190
33.364299774169922 -88.202201843261719 -149.389007568359370
33.060001373291016 -93.914901733398437 -155.361999511718750
41.502601623535156 -93.188499450683594 -158.164001464843750
33.050498962402344 -14.138699531555176 -168.753997802734370
32.649299621582031 -16.783300399780273 -178.822998046875000
39.028301239013672 -26.843900680541992 -151.621994018554690
36.173000335693359 -23.978500366210937 -170.391998291015620
35.973701477050781 -23.725000381469727 -179.003997802734370
39.043800354003906 -27.576499938964844 -178.613006591796870
37.988498687744141 -35.778400421142578 -169.664993286132810
39.448699951171875 -37.873798370361328 -169.287002563476560
35.914798736572266 -37.167999267578125 -179.845993041992190
20.669799804687500 -44.083301544189453 -171.401992797851560
39.597801208496094 -49.246101379394531 -167.736999511718750
33.583900451660156 -52.590499877929687 -171.873992919921870
20.635200500488281 -52.797698974609375 -175.378997802734370
30.991199493408203 -65.719100952148438 -174.466003417968750
