ply
format ascii 1.0
element vertex 210
property double x
property double y
property double z
end_header
2.219150066375732 4.830920219421387 -34.180900573730469
2.089149951934815 4.880919933319092 -34.200901031494141
2.189150094985962 4.860919952392578 -34.030899047851563
2.079149961471558 4.910910129547119 -34.020900726318359
2.539149999618530 4.890920162200928 -34.140899658203125
2.599149942398071 4.850920200347900 -34.230899810791016
2.029150009155273 4.940919876098633 -33.860900878906250
2.559149980545044 4.970920085906982 -33.900901794433594
2.049149990081787 5.250919818878174 -34.280899047851563
2.089149951934815 5.300909996032715 -34.060901641845703
2.489150047302246 5.210919857025147 -33.980899810791016
1.989150047302246 4.980919837951660 -33.750900268554688
2.259150028228760 4.850920200347900 -33.650901794433594
2.569149971008301 5.060919761657715 -33.850898742675781
2.559149980545044 5.100920200347900 -33.820899963378906
2.049149990081787 4.950920104980469 -33.560901641845703
2.279150009155273 4.890920162200928 -33.360900878906250
2.249150037765503 4.890920162200928 -33.310901641845703
2.079149961471558 4.960919857025147 -33.340900421142578
2.479150056838989 4.950920104980469 -33.340900421142578
1.889150023460388 5.100920200347900 -33.540901184082031
1.879150032997131 5.150919914245606 -33.610900878906250
2.509150028228760 5.180920124053955 -33.470901489257813
1.889150023460388 5.090919971466065 -33.310901641845703
1.859150052070618 5.120920181274414 -33.350898742675781
2.249150037765503 5.350920200347900 -33.400901794433594
2.539149999618530 5.080920219421387 -33.260898590087891
2.429150104522705 4.960919857025147 -33.140899658203125
1.849149942398071 5.130919933319092 -33.340900421142578
2.049149990081787 5.350920200347900 -33.410900115966797
1.959149956703186 5.300909996032715 -33.790901184082031
2.009150028228760 5.010920047760010 -33.110900878906250
2.469150066375732 4.970920085906982 -33.120899200439453
2.499150037765503 5.000919818878174 -33.130901336669922
2.059149980545044 5.350920200347900 -33.280899047851562
2.159149885177612 4.940919876098633 -32.990898132324219
2.369149923324585 4.940919876098633 -32.980899810791016
2.009150028228760 5.040919780731201 -32.920898437500000
2.419150114059448 4.960919857025147 -32.970901489257813
2.389149904251099 4.950920104980469 -32.830898284912109
1.939149975776672 5.120920181274414 -33.000900268554687
2.419150114059448 4.960919857025147 -32.790901184082031
2.489150047302246 5.010920047760010 -32.850898742675781
1.869150042533875 5.120920181274414 -33.020900726318359
2.199150085449219 4.980919837951660 -32.600898742675781
2.489150047302246 5.020919799804688 -32.750900268554687
2.069149971008301 5.330920219421387 -32.930900573730469
2.519150018692017 5.140920162200928 -32.870899200439453
2.109149932861328 5.350920200347900 -32.970901489257813
2.529150009155273 5.080920219421387 -32.810901641845703
2.229150056838989 5.370920181274414 -32.840900421142578
1.979150056838989 5.190919876098633 -32.640899658203125
1.999150037765503 5.160910129547119 -32.560901641845703
2.519150018692017 5.090919971466065 -32.570899963378906
2.409149885177612 4.980919837951660 -32.480899810791016
1.929139971733093 5.410910129547119 -33.200901031494141
2.029150009155273 5.110919952392578 -32.390899658203125
2.469150066375732 5.020919799804688 -32.380901336669922
1.999150037765503 5.140920162200928 -32.240898132324219
1.979150056838989 5.170919895172119 -32.200901031494141
2.099149942398071 5.010920047760010 -32.060901641845703
2.039149999618530 5.330920219421387 -32.500900268554687
2.469150066375732 5.260920047760010 -32.260898590087891
1.999150037765503 5.320919990539551 -32.260898590087891
2.299149990081787 5.390920162200928 -32.220901489257813
1.989150047302246 5.170919895172119 -32.020900726318359
2.299149990081787 5.390920162200928 -32.080898284912109
2.519150018692017 5.170919895172119 -32.030899047851563
2.169150114059448 4.980919837951660 -31.890899658203125
2.509150028228760 5.080920219421387 -31.990900039672852
2.209150075912476 5.410910129547119 -32.020900726318359
2.069149971008301 5.380919933319092 -32.000900268554687
2.119149923324585 5.390920162200928 -31.990900039672852
2.069149971008301 5.020919799804688 -31.860900878906250
2.409149885177612 5.020919799804688 -31.860900878906250
2.279150009155273 5.000919818878174 -31.810899734497070
2.389149904251099 5.350920200347900 -31.740900039672852
2.189150094985962 5.400919914245606 -31.900899887084961
1.949149966239929 5.320919990539551 -31.800899505615234
2.189150094985962 5.390920162200928 -31.600900650024414
2.479150056838989 5.280920028686523 -31.620899200439453
2.519150018692017 5.100920200347900 -31.570899963378906
2.229150056838989 4.990920066833496 -31.340900421142578
2.539149999618530 5.190919876098633 -31.510900497436523
2.069149971008301 5.400919914245606 -31.440900802612305
1.979150056838989 5.180920124053955 -31.350900650024414
2.119149923324585 5.410910129547119 -31.400899887084961
2.259150028228760 4.940919876098633 -31.280899047851563
2.079149961471558 5.050909996032715 -31.210899353027344
2.519150018692017 4.960919857025147 -31.310899734497070
2.559149980545044 5.180920124053955 -31.330900192260742
1.939149975776672 5.270919799804688 -31.280899047851563
2.159149885177612 4.980919837951660 -31.180900573730469
2.019150018692017 5.150919914245606 -31.080900192260742
2.059149980545044 5.120920181274414 -30.970899581909180
2.309149980545044 4.850920200347900 -31.220899581909180
2.339149951934815 5.380919933319092 -31.260900497436523
2.149149894714356 5.420919895172119 -31.260900497436523
2.219150066375732 5.070919990539551 -30.880899429321289
2.419150114059448 5.320919990539551 -31.110900878906250
1.959149956703186 5.370920181274414 -31.210899353027344
2.479150056838989 5.260920047760010 -31.090900421142578
2.309149980545044 4.810919761657715 -31.100900650024414
2.429150104522705 5.320919990539551 -30.960899353027344
2.549149990081787 4.980919837951660 -31.260900497436523
2.469150066375732 4.830920219421387 -31.210899353027344
2.589149951934815 5.220920085906982 -31.280899047851563
2.039149999618530 5.150919914245606 -30.770900726318359
2.309149980545044 4.710919857025147 -31.100900650024414
2.179150104522705 5.430920124053955 -30.800899505615234
2.129149913787842 5.110919952392578 -30.630899429321289
1.979150056838989 5.180920124053955 -30.630899429321289
2.429150104522705 5.130919933319092 -30.620899200439453
2.419150114059448 5.180920124053955 -30.500900268554687
2.389149904251099 5.370920181274414 -30.520900726318359
2.349149942398071 5.100920200347900 -30.340900421142578
2.159149885177612 5.460919857025147 -30.620899200439453
2.419150114059448 5.240920066833496 -30.350900650024414
2.069149971008301 5.450920104980469 -30.650899887084961
2.199150085449219 5.470920085906982 -30.440900802612305
2.219150066375732 5.470920085906982 -30.320899963378906
2.429150104522705 5.300909996032715 -30.250900268554687
2.419150114059448 5.370920181274414 -30.280899047851563
1.949149966239929 5.410910129547119 -30.320899963378906
2.349149942398071 5.410910129547119 -30.220899581909180
1.999150037765503 5.190919876098633 -30.140899658203125
2.019150018692017 5.460919857025147 -30.240900039672852
2.019150018692017 5.180920124053955 -30.090900421142578
2.239150047302246 5.110919952392578 -29.980899810791016
2.219150066375732 5.130919933319092 -29.810899734497070
2.389149904251099 5.240920066833496 -29.870899200439453
1.969149947166443 5.210919857025147 -29.890899658203125
2.409149885177612 5.370920181274414 -30.040899276733398
2.269150018692017 5.470920085906982 -29.980899810791016
2.269150018692017 5.470920085906982 -29.960899353027344
2.049149990081787 5.490920066833496 -30.100900650024414
1.989150047302246 5.190919876098633 -29.710899353027344
2.029150009155273 5.510920047760010 -29.860900878906250
1.879150032997131 5.360919952392578 -29.860900878906250
1.919149994850159 5.420919895172119 -29.840900421142578
2.069149971008301 5.530920028686523 -29.800899505615234
2.309149980545044 5.480919837951660 -29.610900878906250
2.099149942398071 5.160910129547119 -29.510900497436523
2.109149932861328 5.150919914245606 -29.490900039672852
1.959149956703186 5.540919780731201 -29.640899658203125
2.169150114059448 5.520919799804688 -29.340900421142578
2.069149971008301 5.140920162200928 -29.150899887084961
2.369149923324585 5.220920085906982 -29.160900115966797
2.299149990081787 5.480919837951660 -29.210899353027344
2.169150114059448 5.170919895172119 -29.080900192260742
2.049149990081787 5.550909996032715 -29.340900421142578
2.019150018692017 5.530920028686523 -29.300899505615234
1.829149961471558 5.260920047760010 -29.340900421142578
2.129149913787842 5.590919971466065 -29.480899810791016
2.119149923324585 5.610919952392578 -29.450899124145508
2.439150094985962 5.280920028686523 -29.130899429321289
1.829149961471558 5.390920162200928 -29.270900726318359
1.979150056838989 5.570919990539551 -29.180900573730469
2.399149894714356 5.440919876098633 -29.060899734497070
2.329149961471558 5.190919876098633 -28.980899810791016
1.829149961471558 5.310919761657715 -29.100900650024414
2.389149904251099 5.230919837951660 -29.000900268554688
1.849149942398071 5.250919818878174 -29.070899963378906
1.819149971008301 5.360919952392578 -29.080900192260742
1.809149980545044 5.500919818878174 -29.100900650024414
2.389149904251099 5.460919857025147 -28.920900344848633
1.829149961471558 5.190919876098633 -28.950899124145508
1.989150047302246 5.190919876098633 -28.840900421142578
2.009150028228760 5.760920047760010 -29.140899658203125
2.469150066375732 5.350920200347900 -28.880899429321289
1.969149947166443 5.180920124053955 -28.530899047851563
1.849149942398071 5.440919876098633 -28.730899810791016
2.389149904251099 5.240920066833496 -28.490900039672852
2.479150056838989 5.350920200347900 -28.540899276733398
1.749150037765503 5.030920028686523 -28.760900497436523
1.729150056838989 5.450920104980469 -28.780899047851562
1.869150042533875 5.620920181274414 -28.960899353027344
1.799149990081787 5.560919761657715 -28.960899353027344
1.709149956703186 5.490920066833496 -28.960899353027344
1.789149999618530 5.640920162200928 -28.860900878906250
1.699149966239929 5.520919799804688 -28.930900573730469
1.689149975776672 5.560919761657715 -28.780899047851562
1.659150004386902 5.600920200347900 -28.740900039672852
2.309149980545044 5.230919837951660 -27.920900344848633
2.259150028228760 5.210919857025147 -28.060899734497070
1.829149961471558 5.260920047760010 -28.100900650024414
2.439150094985962 5.480919837951660 -28.120899200439453
1.569149971008301 5.360919952392578 -28.170900344848633
1.549149990081787 5.320919990539551 -28.170900344848633
2.509150028228760 5.390920162200928 -28.140899658203125
2.249150037765503 5.590919971466065 -28.170900344848633
2.339149951934815 5.550909996032715 -28.170900344848633
1.469149947166443 5.360919952392578 -28.250900268554687
2.049149990081787 5.220920085906982 -28.220899581909180
1.409150004386902 5.410910129547119 -28.290899276733398
2.299149990081787 5.240920066833496 -28.260900497436523
2.049149990081787 5.220920085906982 -28.370899200439453
1.699149966239929 5.470920085906982 -28.470899581909180
2.029150009155273 5.570919990539551 -28.480899810791016
1.849149942398071 5.980919837951660 -28.530899047851563
2.149149894714356 5.210919857025147 -28.470899581909180
1.889150023460388 6.000919818878174 -28.560899734497070
1.549149990081787 5.390920162200928 -28.540899276733398
1.699149966239929 5.680920124053955 -28.750900268554687
1.929139971733093 5.960919857025147 -28.860900878906250
1.939149975776672 6.030920028686523 -28.880899429321289
1.929139971733093 5.890920162200928 -28.940900802612305
1.959149956703186 5.810919761657715 -29.020900726318359
1.789149999618530 5.530920028686523 -33.090900421142578
1.709149956703186 5.280920028686523 -33.170898437500000
