ply
format ascii 1.0
element vertex 752
property double x
property double y
property double z
end_header
6.309150218963623 6.100920200347900 -21.960899353027344
5.339149951934815 6.100920200347900 -21.970899581909180
6.409150123596191 6.060919761657715 -21.940900802612305
5.949150085449219 6.060919761657715 -21.970899581909180
6.309150218963623 6.100920200347900 -21.960899353027344
6.489150047302246 6.020919799804688 -21.950899124145508
5.669149875640869 6.050909996032715 -21.990900039672852
6.069149971008301 6.030920028686523 -21.980899810791016
6.009150028228760 6.010920047760010 -22.000900268554688
6.649149894714356 6.060919761657715 -21.980899810791016
6.699150085449219 6.050909996032715 -21.980899810791016
5.639140129089356 5.990920066833496 -22.020900726318359
5.439149856567383 6.140920162200928 -22.040899276733398
5.259150028228760 6.150919914245606 -22.050899505615234
5.159150123596191 6.170919895172119 -22.060899734497070
5.879149913787842 5.960919857025147 -22.030899047851563
6.339149951934815 6.090919971466065 -22.030899047851563
6.659150123596191 6.080920219421387 -22.020900726318359
5.079150199890137 6.180920124053955 -22.090900421142578
5.219150066375732 6.150919914245606 -22.090900421142578
5.999149799346924 5.890920162200928 -22.050899505615234
5.849140167236328 6.080920219421387 -22.070899963378906
6.119150161743164 6.070919990539551 -22.060899734497070
5.709139823913574 5.900919914245606 -22.070899963378906
6.049149990081787 5.890920162200928 -22.060899734497070
6.149149894714356 6.040919780731201 -22.080900192260742
5.639140129089356 6.060919761657715 -22.110900878906250
5.559150218963623 5.870920181274414 -22.100900650024414
6.059150218963623 5.860919952392578 -22.080900192260742
6.319149971008301 5.870920181274414 -22.080900192260742
5.069149971008301 6.180920124053955 -22.160900115966797
5.299149990081787 6.090919971466065 -22.150899887084961
6.419149875640869 6.000919818878174 -22.100900650024414
5.749149799346924 6.020919799804688 -22.130899429321289
6.199150085449219 5.850920200347900 -22.100900650024414
5.519149780273438 6.020919799804688 -22.150899887084961
6.179140090942383 5.820919990539551 -22.120899200439453
6.239150047302246 5.960919857025147 -22.130899429321289
6.549149990081787 5.860919952392578 -22.120899200439453
5.229149818420410 6.080920219421387 -22.190900802612305
5.969150066375732 5.780920028686523 -22.140899658203125
6.589149951934815 5.970920085906982 -22.130899429321289
6.759150028228760 5.900919914245606 -22.120899200439453
5.669149875640869 4.620920181274414 -22.070899963378906
5.989150047302246 5.920919895172119 -22.160900115966797
5.429140090942383 6.000919818878174 -22.190900802612305
5.829150199890137 5.940919876098633 -22.170900344848633
5.559150218963623 4.760920047760010 -22.100900650024414
6.369150161743164 5.790919780731201 -22.150899887084961
6.329150199890137 5.890920162200928 -22.170900344848633
5.779139995574951 4.760920047760010 -22.110900878906250
5.459139823913574 5.750919818878174 -22.200899124145508
5.979149818420410 5.870920181274414 -22.190900802612305
6.589149951934815 5.920919895172119 -22.170900344848633
6.889140129089356 5.920919895172119 -22.160900115966797
5.579150199890137 5.730919837951660 -22.200899124145508
5.739150047302246 5.670919895172119 -22.190900802612305
6.239150047302246 4.690919876098633 -22.110900878906250
5.439149856567383 5.720920085906982 -22.220899581909180
6.159150123596191 4.840919971466065 -22.130899429321289
6.089149951934815 5.820919990539551 -22.210899353027344
6.089149951934815 4.870920181274414 -22.140899658203125
6.149149894714356 5.820919990539551 -22.210899353027344
5.299149990081787 5.770919799804688 -22.240900039672852
5.969150066375732 5.810919761657715 -22.220899581909180
6.539150238037109 5.840919971466065 -22.200899124145508
4.939149856567383 6.190919876098633 -22.290899276733398
6.649149894714356 5.720920085906982 -22.190900802612305
4.839149951934815 6.240920066833496 -22.300899505615234
6.289150238037109 4.900919914245606 -22.150899887084961
7.239150047302246 6.050909996032715 -22.200899124145508
7.009150028228760 5.890920162200928 -22.200899124145508
6.299149990081787 5.710919857025147 -22.220899581909180
5.289150238037109 5.950920104980469 -22.280899047851563
6.479149818420410 4.810919761657715 -22.150899887084961
6.169149875640869 5.590919971466065 -22.220899581909180
5.459139823913574 5.860919952392578 -22.270900726318359
6.839149951934815 5.880919933319092 -22.220899581909180
6.459139823913574 5.630919933319092 -22.220899581909180
6.499149799346924 5.740920066833496 -22.230899810791016
6.189149856567383 5.570919990539551 -22.230899810791016
6.959139823913574 5.840919971466065 -22.220899581909180
7.009150028228760 5.860919952392578 -22.220899581909180
6.859149932861328 5.860919952392578 -22.230899810791016
7.369150161743164 5.940919876098633 -22.220899581909180
5.779139995574951 4.680920124053955 -22.190900802612305
6.179140090942383 5.010920047760010 -22.200899124145508
5.919149875640869 5.000919818878174 -22.210899353027344
5.499149799346924 5.590919971466065 -22.270900726318359
6.369150161743164 5.640920162200928 -22.240900039672852
6.739150047302246 5.800909996032715 -22.240900039672852
6.299149990081787 5.010920047760010 -22.200899124145508
6.649149894714356 4.900919914245606 -22.180900573730469
6.369150161743164 5.000919818878174 -22.200899124145508
6.299149990081787 5.640920162200928 -22.250900268554687
6.879149913787842 5.780920028686523 -22.240900039672852
6.469150066375732 5.560919761657715 -22.240900039672852
6.409150123596191 4.700920104980469 -22.180900573730469
7.249149799346924 5.910910129547119 -22.240900039672852
5.859149932861328 5.030920028686523 -22.230899810791016
4.969150066375732 6.110919952392578 -22.350900650024414
7.049149990081787 5.820919990539551 -22.250900268554687
6.659150123596191 5.600920200347900 -22.250900268554687
5.779139995574951 5.490920066833496 -22.280899047851563
6.049149990081787 5.480919837951660 -22.270900726318359
5.619150161743164 4.700920104980469 -22.230899810791016
6.229149818420410 5.560919761657715 -22.270900726318359
7.159150123596191 5.870920181274414 -22.260900497436523
5.789150238037109 5.140920162200928 -22.260900497436523
6.809150218963623 4.990920066833496 -22.210899353027344
6.439149856567383 5.560919761657715 -22.270900726318359
6.079150199890137 5.300909996032715 -22.270900726318359
7.309150218963623 5.890920162200928 -22.270900726318359
6.079150199890137 5.350920200347900 -22.280899047851563
6.289150238037109 5.310919761657715 -22.270900726318359
6.119150161743164 4.810919761657715 -22.240900039672852
5.879149913787842 5.340919971466065 -22.290899276733398
5.839149951934815 5.310919761657715 -22.290899276733398
4.899149894714356 4.530920028686523 -22.270900726318359
5.399149894714356 5.740920066833496 -22.340900421142578
4.779139995574951 5.950920104980469 -22.380899429321289
5.809150218963623 5.380919933319092 -22.300899505615234
6.439149856567383 5.380919933319092 -22.280899047851563
5.309150218963623 4.640920162200928 -22.270900726318359
5.719150066375732 5.390920162200928 -22.310899734497070
7.079150199890137 5.000919818878174 -22.230899810791016
6.329150199890137 5.280920028686523 -22.280899047851563
6.619150161743164 5.160910129547119 -22.260900497436523
6.259150028228760 4.940919876098633 -22.260900497436523
6.219150066375732 5.320919990539551 -22.290899276733398
6.549149990081787 5.210919857025147 -22.270900726318359
7.029139995574951 5.730919837951660 -22.290899276733398
5.119150161743164 5.920919895172119 -22.380899429321289
6.649149894714356 4.810919761657715 -22.240900039672852
7.389140129089356 5.880919933319092 -22.290899276733398
6.749149799346924 4.840919971466065 -22.240900039672852
6.059150218963623 4.990920066833496 -22.280899047851563
6.339149951934815 4.860919952392578 -22.260900497436523
6.419149875640869 5.280920028686523 -22.290899276733398
6.129149913787842 5.080920219421387 -22.290899276733398
6.689149856567383 5.220920085906982 -22.280899047851563
6.359149932861328 5.040919780731201 -22.280899047851563
6.399149894714356 5.060919761657715 -22.280899047851563
5.349140167236328 5.020919799804688 -22.320899963378906
7.149149894714356 5.820919990539551 -22.310899734497070
6.729149818420410 5.190919876098633 -22.280899047851563
5.609149932861328 4.850920200347900 -22.300899505615234
5.639140129089356 4.850920200347900 -22.300899505615234
6.709139823913574 4.870920181274414 -22.260900497436523
6.129149913787842 5.220920085906982 -22.310899734497070
7.839149951934815 5.990920066833496 -22.300899505615234
5.419149875640869 5.090919971466065 -22.330900192260742
5.469150066375732 5.110919952392578 -22.330900192260742
5.649149894714356 5.460919857025147 -22.350900650024414
6.979149818420410 5.600920200347900 -22.310899734497070
6.729149818420410 5.290919780731201 -22.300899505615234
6.619150161743164 4.950920104980469 -22.280899047851563
6.519149780273438 5.160910129547119 -22.300899505615234
6.809150218963623 4.890920162200928 -22.270900726318359
5.939149856567383 5.220920085906982 -22.330900192260742
6.809150218963623 5.260920047760010 -22.300899505615234
6.829150199890137 5.540919780731201 -22.320899963378906
6.759150028228760 5.500919818878174 -22.320899963378906
7.049149990081787 5.640920162200928 -22.320899963378906
7.269149780273438 4.940919876098633 -22.260900497436523
6.829150199890137 5.510920047760010 -22.320899963378906
6.689149856567383 5.270919799804688 -22.310899734497070
6.599140167236328 5.080920219421387 -22.300899505615234
4.739150047302246 6.210919857025147 -22.460899353027344
5.599140167236328 4.900919914245606 -22.330900192260742
4.719150066375732 5.910910129547119 -22.440900802612305
5.139140129089356 5.820919990539551 -22.420900344848633
5.479149818420410 5.300909996032715 -22.370899200439453
6.899149894714356 5.230919837951660 -22.310899734497070
6.879149913787842 5.470920085906982 -22.330900192260742
4.819149971008301 6.130919933319092 -22.460899353027344
7.349140167236328 5.820919990539551 -22.340900421142578
5.139140129089356 5.800909996032715 -22.430900573730469
5.019149780273438 5.570919990539551 -22.420900344848633
5.599140167236328 5.180920124053955 -22.370899200439453
6.879149913787842 5.030920028686523 -22.310899734497070
5.279139995574951 5.130919933319092 -22.380899429321289
7.139140129089356 5.140920162200928 -22.310899734497070
4.959139823913574 5.600920200347900 -22.430900573730469
7.169149875640869 5.120920181274414 -22.310899734497070
5.489150047302246 5.440919876098633 -22.400899887084961
5.359149932861328 5.220920085906982 -22.390899658203125
4.809150218963623 6.130919933319092 -22.480899810791016
4.799149990081787 6.120920181274414 -22.480899810791016
5.049149990081787 5.540919780731201 -22.430900573730469
5.189149856567383 5.470920085906982 -22.420900344848633
7.429140090942383 5.790919780731201 -22.360900878906250
5.419149875640869 5.470920085906982 -22.420900344848633
7.109149932861328 5.270919799804688 -22.340900421142578
5.269149780273438 5.370920181274414 -22.420900344848633
5.229149818420410 5.140920162200928 -22.410900115966797
7.179140090942383 5.220920085906982 -22.340900421142578
7.209139823913574 5.190919876098633 -22.340900421142578
7.339149951934815 5.760920047760010 -22.380899429321289
7.589149951934815 5.870920181274414 -22.380899429321289
4.689149856567383 6.220920085906982 -22.520900726318359
5.449150085449219 4.960919857025147 -22.400899887084961
5.099140167236328 5.030920028686523 -22.420900344848633
7.209139823913574 5.270919799804688 -22.360900878906250
5.469150066375732 5.160910129547119 -22.420900344848633
5.129149913787842 4.670919895172119 -22.400899887084961
5.379149913787842 4.910910129547119 -22.410900115966797
5.199150085449219 5.220920085906982 -22.440900802612305
4.629149913787842 4.470920085906982 -22.410900115966797
4.719150066375732 4.770919799804688 -22.430900573730469
4.809150218963623 5.630919933319092 -22.490900039672852
7.469150066375732 5.830920219421387 -22.410900115966797
5.359149932861328 4.970920085906982 -22.430900573730469
7.359149932861328 5.620920181274414 -22.400899887084961
4.989150047302246 5.840919971466065 -22.510900497436523
7.259150028228760 5.530920028686523 -22.400899887084961
7.289150238037109 5.270919799804688 -22.380899429321289
7.279139995574951 5.360919952392578 -22.390899658203125
4.849140167236328 5.970920085906982 -22.530899047851563
4.979149818420410 5.490920066833496 -22.490900039672852
5.189149856567383 4.770919799804688 -22.430900573730469
7.389140129089356 4.960919857025147 -22.360900878906250
7.509150028228760 5.830920219421387 -22.420900344848633
4.559150218963623 5.890920162200928 -22.540899276733398
7.389140129089356 5.180920124053955 -22.380899429321289
7.999149799346924 6.020919799804688 -22.420900344848633
7.299149990081787 5.370920181274414 -22.400899887084961
7.359149932861328 5.650919914245606 -22.420900344848633
5.099140167236328 5.640920162200928 -22.510900497436523
7.959139823913574 5.980919837951660 -22.430900573730469
4.869150161743164 5.000919818878174 -22.480899810791016
7.309150218963623 5.460919857025147 -22.420900344848633
4.899149894714356 4.580920219421387 -22.450899124145508
7.519149780273438 5.140920162200928 -22.400899887084961
4.519149780273438 4.440919876098633 -22.470899581909180
4.849140167236328 5.020919799804688 -22.500900268554687
4.869150161743164 5.030920028686523 -22.500900268554687
5.149149894714356 5.440919876098633 -22.520900726318359
7.419149875640869 5.500919818878174 -22.440900802612305
7.619150161743164 5.030920028686523 -22.400899887084961
7.469150066375732 5.220920085906982 -22.420900344848633
7.789150238037109 5.930920124053955 -22.460899353027344
4.929140090942383 5.770919799804688 -22.580900192260742
4.939149856567383 4.650919914245606 -22.500900268554687
7.489150047302246 5.160910129547119 -22.440900802612305
4.399149894714356 6.050909996032715 -22.630899429321289
5.149149894714356 5.090919971466065 -22.530899047851563
7.469150066375732 5.230919837951660 -22.450899124145508
7.609149932861328 5.660910129547119 -22.480899810791016
8.129150390625000 6.010920047760010 -22.490900039672852
5.119150161743164 5.150919914245606 -22.550899505615234
7.609149932861328 5.640920162200928 -22.490900039672852
4.609149932861328 4.860919952392578 -22.550899505615234
4.519149780273438 4.670919895172119 -22.540899276733398
4.769149780273438 5.070919990539551 -22.560899734497070
7.489150047302246 5.360919952392578 -22.480899810791016
7.579150199890137 5.390920162200928 -22.480899810791016
7.579150199890137 5.380919933319092 -22.480899810791016
7.589149951934815 5.370920181274414 -22.480899810791016
8.079150199890137 5.980919837951660 -22.510900497436523
4.999149799346924 5.560919761657715 -22.600900650024414
4.689149856567383 6.050909996032715 -22.650899887084961
7.609149932861328 5.140920162200928 -22.470899581909180
4.739150047302246 5.500919818878174 -22.610900878906250
4.669149875640869 4.990920066833496 -22.580900192260742
4.699150085449219 5.530920028686523 -22.620899200439453
7.629149913787842 5.150919914245606 -22.480899810791016
4.739150047302246 5.430920124053955 -22.620899200439453
4.909150123596191 5.660910129547119 -22.640899658203125
7.619150161743164 5.190919876098633 -22.500900268554687
4.369150161743164 5.890920162200928 -22.680900573730469
7.899149894714356 5.910910129547119 -22.550899505615234
4.819149971008301 5.750919818878174 -22.660900115966797
4.449150085449219 4.460919857025147 -22.580900192260742
4.799149990081787 5.750919818878174 -22.670900344848633
7.739150047302246 5.370920181274414 -22.530899047851563
4.399149894714356 6.240920066833496 -22.730899810791016
4.429140090942383 4.460919857025147 -22.610900878906250
7.719150066375732 5.620920181274414 -22.570899963378906
4.419149875640869 5.720920085906982 -22.710899353027344
4.979149818420410 4.930920124053955 -22.630899429321289
7.829150199890137 5.330920219421387 -22.550899505615234
4.639140129089356 5.130919933319092 -22.660900115966797
4.719150066375732 5.840919971466065 -22.710899353027344
7.749149799346924 5.650919914245606 -22.580900192260742
4.629149913787842 6.000919818878174 -22.730899810791016
4.609149932861328 5.110919952392578 -22.670900344848633
4.669149875640869 4.540919780731201 -22.630899429321289
7.749149799346924 5.580920219421387 -22.590900421142578
7.839149951934815 5.750919818878174 -22.600900650024414
8.039150238037109 5.850920200347900 -22.600900650024414
7.919149875640869 5.830920219421387 -22.610900878906250
7.819149971008301 5.670919895172119 -22.610900878906250
4.559150218963623 6.080920219421387 -22.770900726318359
4.429140090942383 4.860919952392578 -22.690900802612305
4.299149990081787 5.770919799804688 -22.770900726318359
4.569149971008301 5.330920219421387 -22.730899810791016
4.899149894714356 5.190919876098633 -22.710899353027344
4.379149913787842 4.760920047760010 -22.700899124145508
8.389140129089356 6.030920028686523 -22.640899658203125
7.839149951934815 5.550909996032715 -22.630899429321289
7.909150123596191 5.170919895172119 -22.600900650024414
4.839149951934815 4.860919952392578 -22.710899353027344
4.429140090942383 5.520919799804688 -22.780899047851563
4.369150161743164 6.270919799804688 -22.840900421142578
4.339149951934815 4.720920085906982 -22.730899810791016
8.019149780273438 5.800909996032715 -22.680900573730469
4.459139823913574 5.150919914245606 -22.780899047851563
4.769149780273438 5.420919895172119 -22.790899276733398
4.749149799346924 4.790919780731201 -22.750900268554688
7.949150085449219 5.610919952392578 -22.690900802612305
4.329150199890137 5.570919990539551 -22.830900192260742
8.349140167236328 5.970920085906982 -22.710899353027344
4.319149971008301 4.880919933319092 -22.790899276733398
8.149149894714356 5.300909996032715 -22.680900573730469
8.759149551391602 6.140920162200928 -22.720899581909180
4.289150238037109 4.780920028686523 -22.800899505615234
4.239150047302246 5.610919952392578 -22.880899429321289
4.369150161743164 4.420919895172119 -22.800899505615234
8.039150238037109 5.370920181274414 -22.730899810791016
8.209139823913574 5.320919990539551 -22.720899581909180
4.539150238037109 5.700920104980469 -22.900899887084961
8.199150085449219 5.840919971466065 -22.770900726318359
8.079150199890137 5.610919952392578 -22.760900497436523
4.419149875640869 5.970920085906982 -22.930900573730469
4.469150066375732 5.860919952392578 -22.920900344848633
4.679140090942383 5.250919818878174 -22.870899200439453
4.689149856567383 5.180920124053955 -22.870899200439453
4.599140167236328 4.670919895172119 -22.840900421142578
4.259150028228760 5.020919799804688 -22.880899429321289
4.279139995574951 4.570919990539551 -22.850900650024414
4.559150218963623 5.570919990539551 -22.920900344848633
4.569149971008301 5.560919761657715 -22.920900344848633
8.379150390625000 5.950920104980469 -22.800899505615234
8.809149742126465 6.110919952392578 -22.800899505615234
8.259149551391602 5.490920066833496 -22.780899047851563
4.039150238037109 5.860919952392578 -22.980899810791016
8.889140129089356 6.160910129547119 -22.820899963378906
8.149149894714356 5.580920219421387 -22.810899734497070
4.259150028228760 5.400919914245606 -22.950899124145508
8.349140167236328 5.750919818878174 -22.820899963378906
4.599140167236328 5.220920085906982 -22.940900802612305
8.499150276184082 5.920919895172119 -22.840900421142578
8.709139823913574 6.120920181274414 -22.850900650024414
8.799150466918945 6.140920162200928 -22.860900878906250
4.359149932861328 5.860919952392578 -23.020900726318359
8.549150466918945 6.000919818878174 -22.870899200439453
4.449150085449219 4.520919799804688 -22.930900573730469
8.639140129089356 6.050909996032715 -22.880899429321289
8.269149780273438 5.590919971466065 -22.880899429321289
4.179140090942383 4.620920181274414 -22.970899581909180
3.869149923324585 6.170919895172119 -23.100900650024414
4.219150066375732 6.070919990539551 -23.080900192260742
3.949150085449219 6.320919990539551 -23.110900878906250
4.449150085449219 5.530920028686523 -23.040899276733398
3.939150094985962 6.310919761657715 -23.120899200439453
4.279139995574951 5.870920181274414 -23.090900421142578
4.019149780273438 5.640920162200928 -23.090900421142578
8.429149627685547 5.350920200347900 -22.900899887084961
8.399149894714356 5.750919818878174 -22.940900802612305
3.849139928817749 6.300909996032715 -23.160900115966797
4.419149875640869 4.600920200347900 -23.020900726318359
4.439149856567383 5.380919933319092 -23.090900421142578
8.399149894714356 5.680920124053955 -22.960899353027344
3.819139957427979 6.330920219421387 -23.190900802612305
3.889139890670776 5.790919780731201 -23.150899887084961
8.879150390625000 6.100920200347900 -22.980899810791016
4.459139823913574 4.830920219421387 -23.060899734497070
8.579150199890137 5.920919895172119 -22.980899810791016
3.819139957427979 6.340919971466065 -23.200899124145508
3.939150094985962 6.310919761657715 -23.200899124145508
8.539150238037109 5.870920181274414 -22.990900039672852
8.709139823913574 5.930920124053955 -22.990900039672852
8.519149780273438 5.540919780731201 -22.970899581909180
4.429140090942383 5.320919990539551 -23.120899200439453
4.429140090942383 4.760920047760010 -23.080900192260742
4.279139995574951 5.630919933319092 -23.160900115966797
4.389140129089356 4.600920200347900 -23.080900192260742
8.489150047302246 5.770919799804688 -23.010900497436523
3.879149913787842 5.720920085906982 -23.190900802612305
3.959140062332153 5.550909996032715 -23.180900573730469
4.139140129089356 4.560919761657715 -23.100900650024414
8.489150047302246 5.760920047760010 -23.020900726318359
8.909150123596191 6.080920219421387 -23.030899047851563
8.679149627685547 5.950920104980469 -23.030899047851563
4.419149875640869 4.900919914245606 -23.120899200439453
4.019149780273438 4.770919799804688 -23.130899429321289
4.329150199890137 4.470920085906982 -23.100900650024414
3.809149980545044 5.820919990539551 -23.230899810791016
4.399149894714356 5.100920200347900 -23.160900115966797
3.969150066375732 5.130919933319092 -23.180900573730469
4.199150085449219 5.690919876098633 -23.220899581909180
3.659149885177612 6.340919971466065 -23.290899276733398
4.169149875640869 5.740920066833496 -23.230899810791016
4.369150161743164 5.240920066833496 -23.190900802612305
4.199150085449219 5.660910129547119 -23.230899810791016
4.389140129089356 4.940919876098633 -23.170900344848633
3.739150047302246 6.360919952392578 -23.310899734497070
4.339149951934815 5.320919990539551 -23.210899353027344
3.659149885177612 6.380919933319092 -23.320899963378906
8.559149742126465 5.440919876098633 -23.060899734497070
9.319149971008301 6.200920104980469 -23.090900421142578
8.619150161743164 5.410910129547119 -23.060899734497070
3.929150104522705 5.090919971466065 -23.220899581909180
8.649149894714356 5.660910129547119 -23.080900192260742
4.359149932861328 4.860919952392578 -23.190900802612305
3.649149894714356 5.950920104980469 -23.300899505615234
8.789150238037109 5.950920104980469 -23.100900650024414
3.609149932861328 6.040919780731201 -23.310899734497070
4.209139823913574 4.450920104980469 -23.170900344848633
3.809149980545044 5.680920124053955 -23.280899047851563
4.039150238037109 5.860919952392578 -23.300899505615234
4.339149951934815 4.910910129547119 -23.220899581909180
4.249149799346924 4.460919857025147 -23.200899124145508
3.559149980545044 6.240920066833496 -23.360900878906250
9.089150428771973 6.180920124053955 -23.150899887084961
4.159150123596191 5.570919990539551 -23.300899505615234
3.679150104522705 5.810919761657715 -23.340900421142578
3.909149885177612 4.780920028686523 -23.260900497436523
8.759149551391602 5.780920028686523 -23.150899887084961
3.859149932861328 4.900919914245606 -23.280899047851563
3.699150085449219 6.260920047760010 -23.400899887084961
3.749150037765503 5.670919895172119 -23.360900878906250
8.699150085449219 5.790919780731201 -23.180900573730469
8.699150085449219 5.780920028686523 -23.180900573730469
8.869150161743164 5.930920124053955 -23.190900802612305
3.939150094985962 5.870920181274414 -23.380899429321289
3.809149980545044 6.060919761657715 -23.400899887084961
9.369150161743164 6.270919799804688 -23.200899124145508
9.329150199890137 6.230919837951660 -23.200899124145508
3.589149951934815 5.890920162200928 -23.400899887084961
8.849140167236328 5.920919895172119 -23.200899124145508
4.259150028228760 4.760920047760010 -23.300899505615234
8.959139823913574 6.010920047760010 -23.210899353027344
3.809149980545044 5.040919780731201 -23.340900421142578
3.989150047302246 5.730919837951660 -23.390899658203125
3.459140062332153 6.380919933319092 -23.460899353027344
4.239150047302246 4.620920181274414 -23.300899505615234
8.919150352478027 5.960919857025147 -23.220899581909180
4.099140167236328 4.480919837951660 -23.300899505615234
3.569139957427979 6.320919990539551 -23.460899353027344
3.659149885177612 6.210919857025147 -23.450899124145508
4.059150218963623 4.500919818878174 -23.310899734497070
4.169149875640869 5.320919990539551 -23.370899200439453
3.819139957427979 4.780920028686523 -23.350900650024414
4.199150085449219 5.230919837951660 -23.370899200439453
8.999150276184082 6.030920028686523 -23.250900268554688
4.079150199890137 5.420919895172119 -23.410900115966797
4.179140090942383 5.170919895172119 -23.390899658203125
9.199150085449219 6.170919895172119 -23.280899047851563
4.039150238037109 4.490920066833496 -23.360900878906250
8.979149818420410 6.020919799804688 -23.280899047851563
3.759150028228760 5.240920066833496 -23.430900573730469
3.359149932861328 6.350920200347900 -23.530899047851563
4.069149971008301 5.360919952392578 -23.430900573730469
3.989150047302246 5.550909996032715 -23.450899124145508
3.349139928817749 6.250919818878174 -23.530899047851563
3.779139995574951 5.350920200347900 -23.450899124145508
8.879150390625000 5.870920181274414 -23.290899276733398
9.129150390625000 6.110919952392578 -23.300899505615234
3.959140062332153 4.540919780731201 -23.390899658203125
8.949150085449219 5.960919857025147 -23.300899505615234
9.189149856567383 6.160910129547119 -23.310899734497070
9.419150352478027 6.260920047760010 -23.310899734497070
4.169149875640869 4.830920219421387 -23.410900115966797
8.969149589538574 5.990920066833496 -23.310899734497070
4.179140090942383 4.780920028686523 -23.410900115966797
8.799150466918945 5.650919914245606 -23.300899505615234
9.439149856567383 6.260920047760010 -23.320899963378906
3.849139928817749 5.720920085906982 -23.500900268554687
3.549149990081787 6.170919895172119 -23.550899505615234
9.349140167236328 6.260920047760010 -23.330900192260742
9.429149627685547 6.290919780731201 -23.350900650024414
9.199150085449219 6.160910129547119 -23.350900650024414
8.999150276184082 5.990920066833496 -23.350900650024414
3.489150047302246 5.830920219421387 -23.560899734497070
3.609149932861328 5.610919952392578 -23.540899276733398
3.349139928817749 6.040919780731201 -23.590900421142578
3.759150028228760 5.740920066833496 -23.560899734497070
3.659149885177612 5.510920047760010 -23.550899505615234
3.999150037765503 4.470920085906982 -23.470899581909180
3.659149885177612 4.920919895172119 -23.520900726318359
4.099140167236328 4.740920066833496 -23.490900039672852
3.639139890670776 5.500919818878174 -23.570899963378906
3.519150018692017 6.060919761657715 -23.620899200439453
3.449150085449219 6.130919933319092 -23.630899429321289
3.639139890670776 5.120920181274414 -23.560899734497070
9.279140472412109 6.190919876098633 -23.420900344848633
9.559149742126465 6.270919799804688 -23.450899124145508
3.589149951934815 4.790919780731201 -23.590900421142578
3.569139957427979 4.910910129547119 -23.600900650024414
3.889139890670776 4.470920085906982 -23.560899734497070
9.269149780273438 6.160910129547119 -23.480899810791016
3.439150094985962 5.720920085906982 -23.680900573730469
3.079149961471558 6.300909996032715 -23.750900268554688
9.529140472412109 6.280920028686523 -23.500900268554687
9.139140129089356 6.020919799804688 -23.500900268554687
3.509150028228760 5.880919933319092 -23.710899353027344
3.899149894714356 5.080920219421387 -23.640899658203125
3.529139995574951 4.830920219421387 -23.640899658203125
3.519150018692017 5.860919952392578 -23.720899581909180
9.229149818420410 6.080920219421387 -23.520900726318359
9.639140129089356 6.290919780731201 -23.520900726318359
9.329150199890137 6.200920104980469 -23.530899047851563
3.039149999618530 6.340919971466065 -23.800899505615234
3.499150037765503 5.530920028686523 -23.730899810791016
3.469150066375732 4.950920104980469 -23.690900802612305
3.919150114059448 4.680920124053955 -23.660900115966797
3.919150114059448 4.450920104980469 -23.650899887084961
9.739150047302246 6.360919952392578 -23.570899963378906
9.819149971008301 6.340919971466065 -23.570899963378906
9.839150428771973 6.270919799804688 -23.570899963378906
3.789149999618530 5.080920219421387 -23.730899810791016
3.639139890670776 5.460919857025147 -23.770900726318359
3.409149885177612 5.830920219421387 -23.810899734497070
3.739150047302246 5.130919933319092 -23.750900268554688
3.109149932861328 6.140920162200928 -23.850900650024414
2.969150066375732 6.350920200347900 -23.890899658203125
3.479150056838989 5.650919914245606 -23.830900192260742
3.539149999618530 5.530920028686523 -23.820899963378906
9.159150123596191 5.910910129547119 -23.630899429321289
3.489150047302246 5.610919952392578 -23.830900192260742
3.769150018692017 4.780920028686523 -23.770900726318359
3.579149961471558 5.430920124053955 -23.830900192260742
9.149149894714356 5.850920200347900 -23.650899887084961
3.659149885177612 5.200920104980469 -23.820899963378906
9.429149627685547 6.240920066833496 -23.680900573730469
3.209140062332153 5.890920162200928 -23.900899887084961
3.319139957427979 4.810919761657715 -23.820899963378906
3.619149923324585 4.440919876098633 -23.790899276733398
3.369149923324585 5.700920104980469 -23.900899887084961
3.679150104522705 4.880919933319092 -23.830900192260742
3.529139995574951 4.480919837951660 -23.810899734497070
9.299150466918945 6.010920047760010 -23.710899353027344
3.589149951934815 5.180920124053955 -23.880899429321289
9.269149780273438 6.020919799804688 -23.730899810791016
9.309149742126465 6.010920047760010 -23.730899810791016
3.389139890670776 4.520919799804688 -23.870899200439453
3.579149961471558 5.020919799804688 -23.900899887084961
3.399149894714356 4.510920047760010 -23.870899200439453
9.409150123596191 6.220920085906982 -23.780899047851563
3.299149990081787 5.140920162200928 -23.940900802612305
3.349139928817749 5.260920047760010 -23.950899124145508
9.549150466918945 6.260920047760010 -23.790899276733398
3.499150037765503 5.280920028686523 -23.960899353027344
3.539149999618530 5.000919818878174 -23.940900802612305
9.789150238037109 6.410910129547119 -23.800899505615234
3.269150018692017 5.730919837951660 -24.010900497436523
9.499150276184082 6.280920028686523 -23.810899734497070
10.009099960327148 6.420919895172119 -23.810899734497070
9.919150352478027 6.300909996032715 -23.810899734497070
9.919150352478027 6.440919876098633 -23.830900192260742
3.329149961471558 5.310919761657715 -24.020900726318359
3.419150114059448 5.240920066833496 -24.030899047851563
10.069100379943848 6.430920124053955 -23.860900878906250
3.149149894714356 4.520919799804688 -23.990900039672852
9.949150085449219 6.320919990539551 -23.870899200439453
9.439149856567383 6.130919933319092 -23.880899429321289
9.899149894714356 6.460919857025147 -23.890899658203125
9.389140129089356 6.180920124053955 -23.890899658203125
3.069149971008301 4.530920028686523 -24.020900726318359
3.349139928817749 4.580920219421387 -24.020900726318359
9.419150352478027 6.110919952392578 -23.900899887084961
3.389139890670776 5.070919990539551 -24.060899734497070
3.319139957427979 4.560919761657715 -24.040899276733398
3.109149932861328 4.980919837951660 -24.080900192260742
3.109149932861328 4.990920066833496 -24.090900421142578
9.399149894714356 6.190919876098633 -23.940900802612305
3.179150104522705 5.740920066833496 -24.150899887084961
3.329149961471558 5.170919895172119 -24.120899200439453
9.659150123596191 6.340919971466065 -23.970899581909180
10.199199676513672 6.340919971466065 -23.950899124145508
3.279139995574951 4.930920124053955 -24.120899200439453
9.879150390625000 6.460919857025147 -23.980899810791016
3.099149942398071 5.020919799804688 -24.140899658203125
3.269150018692017 5.030920028686523 -24.140899658203125
2.889149904251099 4.520919799804688 -24.120899200439453
3.099149942398071 4.480919837951660 -24.110900878906250
3.209140062332153 4.770919799804688 -24.140899658203125
10.249099731445312 6.460919857025147 -24.000900268554688
10.049099922180176 6.380919933319092 -24.010900497436523
3.059149980545044 4.550909996032715 -24.150899887084961
3.189150094985962 4.920919895172119 -24.180900573730469
3.099149942398071 4.640920162200928 -24.170900344848633
3.149149894714356 4.790919780731201 -24.180900573730469
9.379150390625000 6.150919914245606 -24.040899276733398
9.909150123596191 6.420919895172119 -24.040899276733398
3.129149913787842 5.800909996032715 -24.260900497436523
3.159149885177612 5.240920066833496 -24.230899810791016
3.159149885177612 4.990920066833496 -24.220899581909180
3.149149894714356 5.690919876098633 -24.280899047851563
3.179150104522705 5.290919780731201 -24.250900268554688
2.899149894714356 4.850920200347900 -24.230899810791016
10.019100189208984 6.440919876098633 -24.070899963378906
9.879150390625000 6.480919837951660 -24.080900192260742
3.129149913787842 5.060919761657715 -24.260900497436523
3.169150114059448 5.590919971466065 -24.300899505615234
3.139149904251099 5.680920124053955 -24.320899963378906
9.789150238037109 6.470920085906982 -24.140899658203125
2.909149885177612 4.970920085906982 -24.310899734497070
3.129149913787842 5.650919914245606 -24.360900878906250
10.399100303649902 6.370920181274414 -24.130899429321289
2.669150114059448 4.680920124053955 -24.310899734497070
2.819149971008301 4.910910129547119 -24.350900650024414
3.149149894714356 5.510920047760010 -24.410900115966797
3.099149942398071 5.280920028686523 -24.400899887084961
2.529150009155273 4.560919761657715 -24.370899200439453
2.969150066375732 5.030920028686523 -24.390899658203125
2.809149980545044 4.930920124053955 -24.390899658203125
10.089099884033203 6.540919780731201 -24.240900039672852
2.739150047302246 6.130919933319092 -24.500900268554687
2.759150028228760 6.120920181274414 -24.500900268554687
2.679150104522705 4.830920219421387 -24.420900344848633
10.259099960327148 6.520919799804688 -24.260900497436523
10.269100189208984 6.520919799804688 -24.260900497436523
2.879149913787842 4.960919857025147 -24.440900802612305
3.079149961471558 5.590919971466065 -24.480899810791016
10.259099960327148 6.540919780731201 -24.270900726318359
2.729150056838989 4.700920104980469 -24.430900573730469
3.069149971008301 5.600920200347900 -24.490900039672852
2.739150047302246 6.100920200347900 -24.540899276733398
10.129199981689453 6.580920219421387 -24.290899276733398
2.839149951934815 6.030920028686523 -24.540899276733398
3.119149923324585 5.440919876098633 -24.490900039672852
2.709150075912476 4.890920162200928 -24.470899581909180
2.869149923324585 5.070919990539551 -24.480899810791016
2.849149942398071 5.070919990539551 -24.490900039672852
2.739150047302246 4.940919876098633 -24.490900039672852
2.599149942398071 6.170919895172119 -24.600900650024414
3.099149942398071 5.440919876098633 -24.530899047851563
10.409099578857422 6.600920200347900 -24.330900192260742
2.979150056838989 5.770919799804688 -24.560899734497070
2.649149894714356 4.870920181274414 -24.510900497436523
2.869149923324585 5.020919799804688 -24.520900726318359
10.489199638366699 6.380919933319092 -24.330900192260742
2.849149942398071 5.090919971466065 -24.540899276733398
2.739150047302246 4.870920181274414 -24.530899047851563
2.999150037765503 5.240920066833496 -24.550899505615234
2.439150094985962 4.730919837951660 -24.540899276733398
2.869149923324585 5.130919933319092 -24.560899734497070
2.499150037765503 4.790919780731201 -24.550899505615234
2.449150085449219 4.750919818878174 -24.550899505615234
2.659149885177612 6.080920219421387 -24.640899658203125
2.649149894714356 4.810919761657715 -24.550899505615234
2.899149894714356 5.860919952392578 -24.620899200439453
10.379199981689453 6.570919990539551 -24.380899429321289
2.439150094985962 6.230919837951660 -24.690900802612305
2.609149932861328 6.090919971466065 -24.680900573730469
2.409149885177612 6.190919876098633 -24.700899124145508
2.919150114059448 5.800909996032715 -24.660900115966797
10.559200286865234 6.400919914245606 -24.410900115966797
2.709150075912476 4.950920104980469 -24.630899429321289
2.829149961471558 5.900919914245606 -24.700899124145508
2.379149913787842 4.780920028686523 -24.640899658203125
2.409149885177612 4.730919837951660 -24.640899658203125
2.869149923324585 5.830920219421387 -24.710899353027344
2.429150104522705 6.200920104980469 -24.760900497436523
2.529150009155273 4.890920162200928 -24.660900115966797
10.609100341796875 6.630919933319092 -24.480899810791016
2.859149932861328 5.830920219421387 -24.730899810791016
2.959150075912476 5.600920200347900 -24.710899353027344
2.719150066375732 5.990920066833496 -24.750900268554688
2.659149885177612 5.010920047760010 -24.690900802612305
2.369149923324585 6.200920104980469 -24.810899734497070
3.019150018692017 5.450920104980469 -24.730899810791016
2.629149913787842 6.030920028686523 -24.790899276733398
2.389149904251099 6.180920124053955 -24.820899963378906
2.239150047302246 6.230919837951660 -24.840900421142578
2.319149971008301 6.110919952392578 -24.830900192260742
2.449150085449219 4.850920200347900 -24.740900039672852
10.669199943542480 6.690919876098633 -24.560899734497070
2.279150009155273 6.200920104980469 -24.870899200439453
2.919150114059448 5.310919761657715 -24.780899047851563
2.159149885177612 6.190919876098633 -24.900899887084961
2.239150047302246 4.840919971466065 -24.800899505615234
2.179150104522705 4.790919780731201 -24.800899505615234
2.359149932861328 5.980919837951660 -24.890899658203125
10.689100265502930 6.600920200347900 -24.620899200439453
2.939150094985962 5.490920066833496 -24.850900650024414
2.579149961471558 6.010920047760010 -24.910900115966797
10.779100418090820 6.690919876098633 -24.640899658203125
2.189150094985962 4.850920200347900 -24.860900878906250
2.829149961471558 5.590919971466065 -24.890899658203125
10.899100303649902 6.450920104980469 -24.640899658203125
2.149149894714356 6.080920219421387 -24.960899353027344
2.819149971008301 5.570919990539551 -24.910900115966797
10.879199981689453 6.670919895172119 -24.690900802612305
2.279150009155273 4.950920104980469 -24.900899887084961
2.389149904251099 5.820919990539551 -24.960899353027344
2.779150009155273 5.210919857025147 -24.910900115966797
2.139149904251099 5.050909996032715 -24.930900573730469
2.319149971008301 4.920919895172119 -24.920900344848633
2.219150066375732 5.340919971466065 -24.960899353027344
2.289149999618530 5.770919799804688 -25.000900268554688
2.419150114059448 5.010920047760010 -24.940900802612305
2.889149904251099 5.360919952392578 -24.950899124145508
10.989199638366699 6.620920181274414 -24.730899810791016
2.269150018692017 5.370920181274414 -24.980899810791016
2.079149961471558 6.170919895172119 -25.050899505615234
2.539149999618530 5.550909996032715 -24.990900039672852
2.819149971008301 5.290919780731201 -24.960899353027344
10.999099731445313 6.590919971466065 -24.740900039672852
2.909149885177612 5.540919780731201 -24.980899810791016
2.669150114059448 5.540919780731201 -24.990900039672852
2.309149980545044 5.140920162200928 -24.980899810791016
2.379149913787842 5.580920219421387 -25.010900497436523
2.739150047302246 5.220920085906982 -24.970899581909180
1.999150037765503 6.160910129547119 -25.080900192260742
2.789149999618530 5.290919780731201 -25.010900497436523
2.589149951934815 5.420919895172119 -25.030899047851563
2.659149885177612 5.260920047760010 -25.040899276733398
2.859149932861328 5.570919990539551 -25.060899734497070
2.249150037765503 4.960919857025147 -25.040899276733398
10.939100265502930 6.580920219421387 -24.820899963378906
2.729150056838989 5.770919799804688 -25.090900421142578
10.969099998474121 6.490920066833496 -24.840900421142578
2.389149904251099 5.020919799804688 -25.090900421142578
2.239150047302246 4.980919837951660 -25.100900650024414
1.969149947166443 4.960919857025147 -25.110900878906250
2.599149942398071 5.860919952392578 -25.170900344848633
2.469150066375732 5.060919761657715 -25.120899200439453
2.479150056838989 5.070919990539551 -25.130899429321289
11.049099922180176 6.580920219421387 -24.920900344848633
2.379149913787842 5.040919780731201 -25.170900344848633
11.079099655151367 6.580920219421387 -24.950899124145508
11.229100227355957 6.620920181274414 -24.950899124145508
11.139100074768066 6.450920104980469 -24.960899353027344
2.769150018692017 5.570919990539551 -25.270900726318359
11.179100036621094 6.460919857025147 -25.040899276733398
11.199199676513672 6.570919990539551 -25.050899505615234
11.179100036621094 6.530920028686523 -25.050899505615234
2.279150009155273 6.000919818878174 -25.360900878906250
2.279150009155273 5.060919761657715 -25.330900192260742
2.709150075912476 5.310919761657715 -25.340900421142578
2.509150028228760 5.150919914245606 -25.340900421142578
2.659149885177612 5.300909996032715 -25.430900573730469
2.389149904251099 5.910910129547119 -25.500900268554688
2.649149894714356 5.310919761657715 -25.460899353027344
2.229150056838989 5.980919837951660 -25.530899047851563
2.599149942398071 5.270919799804688 -25.480899810791016
2.349149942398071 5.920919895172119 -25.560899734497070
11.479100227355957 6.540919780731201 -25.260900497436523
2.189150094985962 5.980919837951660 -25.610900878906250
11.409099578857422 6.500919818878174 -25.300899505615234
2.529150009155273 5.740920066833496 -25.660900115966797
2.619149923324585 5.620920181274414 -25.650899887084961
2.649149894714356 5.380919933319092 -25.640899658203125
2.669150114059448 5.490920066833496 -25.650899887084961
2.409149885177612 5.840919971466065 -25.700899124145508
2.129149913787842 5.960919857025147 -25.740900039672852
11.669199943542480 6.570919990539551 -25.480899810791016
2.559149980545044 5.570919990539551 -25.910900115966797
