ply
format ascii 1.0
element vertex 217
property double x
property double y
property double z
end_header
-0.520851016044617 5.800909996032715 -19.900899887084961
-0.520851016044617 5.800909996032715 -19.900899887084961
-0.460853993892670 5.780920028686523 -19.930900573730469
-0.510852992534637 5.800909996032715 -20.080900192260742
-0.440852999687195 5.770919799804688 -20.080900192260742
-0.350852996110916 5.770919799804688 -20.300899505615234
-0.220852002501488 5.760920047760010 -20.310899734497070
-0.300853997468948 5.770919799804688 -20.370899200439453
-0.250851005315781 5.810919761657715 -20.550899505615234
-0.130851998925209 5.810919761657715 -20.590900421142578
-0.370853990316391 5.800909996032715 -20.600900650024414
-0.370853990316391 5.790919780731201 -20.600900650024414
-0.090851001441479 5.810919761657715 -20.610900878906250
-0.380852013826370 5.790919780731201 -20.620899200439453
-0.370853990316391 5.790919780731201 -20.640899658203125
-0.400853008031845 5.780920028686523 -20.670900344848633
-0.300853997468948 5.800909996032715 -20.700899124145508
-0.240852996706963 5.790919780731201 -20.710899353027344
-0.020850999280810 5.790919780731201 -20.740900039672852
-0.030853999778628 5.810919761657715 -20.790899276733398
-0.050854001194239 5.800909996032715 -20.800899505615234
-0.140854001045227 5.780920028686523 -20.840900421142578
-0.120853997766972 5.780920028686523 -20.890899658203125
0.119148001074791 5.810919761657715 -20.940900802612305
0.179146006703377 5.830920219421387 -20.990900039672852
-0.130851998925209 5.730919837951660 -21.010900497436523
-0.220852002501488 5.680920124053955 -21.070899963378906
0.259146988391876 5.850920200347900 -21.100900650024414
-0.000851000018883 5.750919818878174 -21.120899200439453
0.179146006703377 5.830920219421387 -21.140899658203125
-0.150852993130684 5.650919914245606 -21.140899658203125
-0.050854001194239 5.690919876098633 -21.180900573730469
0.179146006703377 5.830920219421387 -21.200899124145508
-0.120853997766972 5.540919780731201 -21.310899734497070
-0.050854001194239 5.530920028686523 -21.410900115966797
-0.030853999778628 5.540919780731201 -21.410900115966797
0.159149006009102 5.730919837951660 -21.470899581909180
0.119148001074791 5.630919933319092 -21.520900726318359
0.289146006107330 5.770919799804688 -21.640899658203125
0.249148994684219 5.690919876098633 -21.680900573730469
0.169146999716759 5.560919761657715 -21.680900573730469
0.119148001074791 5.420919895172119 -21.700899124145508
0.359145998954773 5.720920085906982 -21.890899658203125
0.259146988391876 5.460919857025147 -21.900899887084961
0.599147021770477 5.940919876098633 -21.930900573730469
0.329147011041641 5.610919952392578 -21.920900344848633
0.339148998260498 5.620920181274414 -21.930900573730469
0.579146981239319 5.950920104980469 -21.950899124145508
0.339148998260498 5.540919780731201 -21.970899581909180
0.309147000312805 5.350920200347900 -21.990900039672852
0.439148008823395 5.730919837951660 -22.030899047851563
0.439148008823395 5.720920085906982 -22.060899734497070
0.329147011041641 5.340919971466065 -22.040899276733398
0.579146981239319 5.890920162200928 -22.080900192260742
0.519146025180817 5.820919990539551 -22.100900650024414
0.439148008823395 5.670919895172119 -22.120899200439453
0.499148994684219 5.760920047760010 -22.140899658203125
0.519146025180817 5.790919780731201 -22.150899887084961
0.469146013259888 5.650919914245606 -22.180900573730469
0.439148008823395 5.330920219421387 -22.170900344848633
0.459147989749908 5.510920047760010 -22.200899124145508
0.449146002531052 5.290919780731201 -22.220899581909180
0.679145991802216 5.900919914245606 -22.280899047851563
0.479149013757706 5.470920085906982 -22.270900726318359
0.499148994684219 5.550909996032715 -22.280899047851563
0.479149013757706 5.440919876098633 -22.290899276733398
0.529147982597351 5.270919799804688 -22.280899047851563
0.589148998260498 5.750919818878174 -22.340900421142578
0.739147007465363 5.960919857025147 -22.370899200439453
0.569149017333984 5.720920085906982 -22.370899200439453
0.519146025180817 5.400919914245606 -22.380899429321289
0.669147014617920 5.880919933319092 -22.410900115966797
0.539146006107330 5.480919837951660 -22.390899658203125
0.529147982597351 5.460919857025147 -22.400899887084961
0.559147000312805 5.450920104980469 -22.420900344848633
0.539146006107330 5.520919799804688 -22.430900573730469
0.609145998954773 5.740920066833496 -22.450899124145508
0.619148015975952 5.250919818878174 -22.420900344848633
0.609145998954773 5.240920066833496 -22.430900573730469
0.679145991802216 5.850920200347900 -22.480899810791016
0.579146981239319 5.420919895172119 -22.460899353027344
0.659148991107941 5.800909996032715 -22.520900726318359
0.669147014617920 5.210919857025147 -22.500900268554687
0.869148015975952 5.970920085906982 -22.550899505615234
0.829146981239319 5.910910129547119 -22.550899505615234
0.599147021770477 5.490920066833496 -22.530899047851563
0.639147996902466 5.350920200347900 -22.550899505615234
0.659148991107941 5.630919933319092 -22.640899658203125
0.859145998954773 5.910910129547119 -22.680900573730469
0.779147982597351 5.210919857025147 -22.670900344848633
0.719146013259888 5.730919837951660 -22.730899810791016
0.929145991802216 5.960919857025147 -22.790899276733398
0.749149024486542 5.770919799804688 -22.790899276733398
0.739147007465363 5.320919990539551 -22.760900497436523
0.869148015975952 5.910910129547119 -22.820899963378906
0.859145998954773 5.210919857025147 -22.800899505615234
0.749149024486542 5.630919933319092 -22.860900878906250
0.979148983955383 5.950920104980469 -22.900899887084961
0.739147007465363 5.490920066833496 -22.880899429321289
0.839148998260498 5.830920219421387 -22.920900344848633
0.799148023128510 5.760920047760010 -22.920900344848633
0.919147014617920 5.210919857025147 -22.880899429321289
0.759146988391876 5.530920028686523 -22.920900344848633
0.799148023128510 5.730919837951660 -22.940900802612305
0.789146006107330 5.670919895172119 -22.940900802612305
0.859145998954773 5.260920047760010 -22.910900115966797
0.889147996902466 5.870920181274414 -22.970899581909180
0.819149017333984 5.750919818878174 -22.980899810791016
0.979148983955383 5.890920162200928 -23.000900268554688
0.929145991802216 5.890920162200928 -23.020900726318359
1.059149980545044 5.180920124053955 -23.040899276733398
1.019150018692017 5.930920124053955 -23.120899200439453
1.029150009155273 5.900919914245606 -23.120899200439453
0.969146013259888 5.240920066833496 -23.080900192260742
1.109150052070618 5.960919857025147 -23.150899887084961
1.009150028228760 5.260920047760010 -23.120899200439453
0.909148991107941 5.770919799804688 -23.170900344848633
0.869148015975952 5.660910129547119 -23.170900344848633
1.179139971733093 5.170919895172119 -23.180900573730469
0.939148008823395 5.400919914245606 -23.240900039672852
0.899146974086761 5.570919990539551 -23.270900726318359
0.969146013259888 5.790919780731201 -23.310899734497070
0.929145991802216 5.490920066833496 -23.310899734497070
0.919147014617920 5.600920200347900 -23.330900192260742
0.999149024486542 5.810919761657715 -23.360900878906250
1.279150009155273 5.970920085906982 -23.380899429321289
0.959147989749908 5.580920219421387 -23.420900344848633
1.329149961471558 5.190919876098633 -23.450899124145508
1.049149990081787 5.400919914245606 -23.480899810791016
1.219149947166443 5.240920066833496 -23.480899810791016
1.259150028228760 5.220920085906982 -23.480899810791016
1.079149961471558 5.820919990539551 -23.570899963378906
1.169149994850159 5.310919761657715 -23.530899047851563
1.319149971008301 5.980919837951660 -23.590900421142578
1.139150023460388 5.340919971466065 -23.550899505615234
1.219149947166443 5.910910129547119 -23.640899658203125
1.289149999618530 5.260920047760010 -23.600900650024414
1.099149942398071 5.430920124053955 -23.630899429321289
1.039149999618530 5.600920200347900 -23.650899887084961
1.249150037765503 5.920919895172119 -23.670900344848633
1.059149980545044 5.510920047760010 -23.650899887084961
1.129150032997131 5.830920219421387 -23.720899581909180
1.239150047302246 5.900919914245606 -23.750900268554688
1.079149961471558 5.560919761657715 -23.740900039672852
1.089149951934815 5.540919780731201 -23.750900268554688
1.139150023460388 5.440919876098633 -23.770900726318359
1.479150056838989 5.230919837951660 -23.780899047851563
1.249150037765503 5.340919971466065 -23.800899505615234
1.099149942398071 5.700920104980469 -23.840900421142578
1.319149971008301 5.300909996032715 -23.810899734497070
1.169149994850159 5.780920028686523 -23.880899429321289
1.449149966239929 5.250919818878174 -23.830900192260742
1.159150004386902 5.460919857025147 -23.870899200439453
1.169149994850159 5.480919837951660 -23.890899658203125
1.269150018692017 5.360919952392578 -23.880899429321289
1.359150052070618 5.300909996032715 -23.890899658203125
1.349149942398071 5.940919876098633 -23.970899581909180
1.389150023460388 5.300909996032715 -23.930900573730469
1.559149980545044 5.240920066833496 -23.940900802612305
1.239150047302246 5.790919780731201 -24.020900726318359
1.419149994850159 5.300909996032715 -23.980899810791016
1.529150009155273 6.020919799804688 -24.130899429321289
1.309149980545044 5.860919952392578 -24.140899658203125
1.209149956703186 5.580920219421387 -24.130899429321289
1.359150052070618 5.380919933319092 -24.110900878906250
1.449149966239929 5.320919990539551 -24.120899200439453
1.819149971008301 5.780920028686523 -24.150899887084961
1.439149975776672 5.850920200347900 -24.190900802612305
1.659150004386902 5.260920047760010 -24.170900344848633
1.599149942398071 6.010920047760010 -24.250900268554688
1.469149947166443 5.350920200347900 -24.210899353027344
1.289149999618530 5.490920066833496 -24.250900268554688
1.249150037765503 5.640920162200928 -24.300899505615234
1.569149971008301 5.990920066833496 -24.340900421142578
1.439149975776672 5.380919933319092 -24.310899734497070
1.779150009155273 5.830920219421387 -24.330900192260742
1.789149999618530 5.810919761657715 -24.390899658203125
1.639150023460388 6.000919818878174 -24.420900344848633
1.859150052070618 5.720920085906982 -24.420900344848633
1.429139971733093 5.420919895172119 -24.430900573730469
1.859150052070618 5.720920085906982 -24.450899124145508
1.579149961471558 5.450920104980469 -24.460899353027344
1.769150018692017 5.320919990539551 -24.470899581909180
1.509150028228760 5.890920162200928 -24.580900192260742
1.889150023460388 5.630919933319092 -24.560899734497070
1.909150004386902 5.610919952392578 -24.590900421142578
1.639150023460388 5.360919952392578 -24.660900115966797
1.499150037765503 5.800909996032715 -24.770900726318359
1.509150028228760 5.440919876098633 -24.750900268554688
1.749150037765503 5.950920104980469 -24.800899505615234
1.529150009155273 5.830920219421387 -24.840900421142578
1.629150032997131 5.910910129547119 -24.870899200439453
2.069149971008301 5.480919837951660 -24.830900192260742
1.919149994850159 5.780920028686523 -24.880899429321289
1.459149956703186 5.660910129547119 -24.910900115966797
1.589149951934815 5.410910129547119 -24.920900344848633
1.929139971733093 5.840919971466065 -25.000900268554688
2.049149990081787 5.750919818878174 -25.000900268554688
1.749150037765503 5.900919914245606 -25.030899047851563
1.659150004386902 5.880919933319092 -25.060899734497070
2.069149971008301 5.930920124053955 -25.050899505615234
1.589149951934815 5.820919990539551 -25.090900421142578
1.939149975776672 5.860919952392578 -25.130899429321289
1.529150009155273 5.640920162200928 -25.140899658203125
1.619150042533875 5.780920028686523 -25.280899047851563
1.819149971008301 6.030920028686523 -25.320899963378906
1.789149999618530 5.980919837951660 -25.410900115966797
1.799149990081787 6.020919799804688 -25.430900573730469
1.609150052070618 5.710919857025147 -25.480899810791016
1.689149975776672 5.820919990539551 -25.510900497436523
1.699149966239929 5.830920219421387 -25.530899047851563
1.629150032997131 5.730919837951660 -25.540899276733398
1.879150032997131 5.980919837951660 -25.570899963378906
1.589149951934815 5.500919818878174 -25.600900650024414
1.899150013923645 5.970920085906982 -25.630899429321289
1.669149994850159 5.740920066833496 -25.740900039672852
1.659150004386902 5.730919837951660 -25.740900039672852
