ply
format ascii 1.0
comment Author: CloudCompare (TELECOM PARISTECH/EDF R&D)
obj_info Generated by CloudCompare!
element vertex 376
property float x
property float y
property float z
end_header
62.9945 -933.281 342.504 
66.9999 -941.305 348.465 
62.9945 -933.281 342.504 
59.3233 -925.045 338.728 
67.1746 -921.596 334.046 
56.7568 -915.691 331.951 
64.9805 -913.301 328.476 
56.7182 -907.97 325.69 
51.3442 -900.849 323.02 
58.9881 -897.578 317.88 
48.829 -891.521 316.236 
57.0058 -889.437 312.249 
46.6244 -883.842 309.921 
54.9088 -881.186 306.709 
42.8023 -875.627 304.177 
50.9639 -873.237 300.578 
36.8916 -867.426 300.372 
44.9474 -867.819 295.754 
53.1979 -863.493 296.096 
40.9139 -859.788 289.913 
49.3596 -855.636 289.83 
32.478 -856.019 289.896 
43.0545 -851.47 284.207 
29.0756 -849.199 284.536 
51.2956 -845.498 286.004 
36.8849 -846.493 279.408 
45.4589 -841.519 279.977 
25.3383 -842.451 279.095 
32.8146 -838.986 272.989 
41.6126 -835.838 273.534 
49.4539 -831.531 277.904 
22.8739 -835.575 272.246 
28.7753 -832.492 265.381 
37.4943 -829.978 267.459 
44.8878 -825.265 270.549 
17.066 -828.746 266.817 
23.0911 -825.759 260.137 
48.5871 -815.279 270.67 
32.832 -823.125 260.781 
40.6854 -819.198 264.737 
14.9734 -821.415 258.34 
26.825 -818.742 255.157 
37.3184 -813.416 258.245 
44.735 -809.205 262.681 
17.2585 -805.662 264.073 
20.9861 -814.519 249.384 
30.7749 -810.985 250.849 
11.0348 -813.429 248.342 
41.0076 -803.322 256.437 
45.8449 -795.567 259.828 
17.0509 -808.191 243.649 
34.1147 -801.114 249.08 
14.8575 -796.986 256.963 
26.4623 -804.527 243.326 
8.7523 -804.799 241.033 
19.1534 -799.435 240.214 
12.973 -786.96 250.688 
12.6513 -796.777 233.386 
3.36295 -798.147 231.642 
-1.03538 -791.243 226.678 
7.00503 -787.177 228.646 
1.03876 -783.487 222.116 
-5.1332 -775.802 217.839 
-8.70613 -766.804 217.381 
-1.07881 -759.712 211.778 
-11.128 -759.464 210.117 
-5.08676 -751.805 207.491 
-15.0199 -749.351 210.388 
-11.1033 -745.49 202.148 
-1.1244 -744.863 199.378 
-17.0144 -737.33 200.429 
-7.11264 -737.815 195.48 
-11.1501 -743.357 186.364 
0.941601 -733.702 193.923 
-11.3263 -729.864 191.708 
-18.9932 -727.312 196.457 
-8.32117 -736.988 178.966 
-14.6956 -731.263 182.655 
-10.9288 -725.299 174.511 
-15.622 -717.506 176.125 
-15.6949 -707.528 170.273 
-14.3423 -701.061 160.728 
-25.9102 -675.362 186.372 
22.5914 -677.224 174.701 
-16.6211 -691.27 160.47 
-19.7824 -683.574 167.754 
-25.2052 -675.344 176.429 
8.79654 -678.854 165.045 
22.3799 -667.419 174.493 
16.8502 -673.097 166.741 
-17.9164 -681.398 158.382 
-14.9034 -685.282 150.521 
-9.07417 -677.945 159.466 
0.565959 -676.819 159.399 
-26.3821 -665.292 176.424 
8.65292 -670.795 159.216 
-18.8569 -671.282 160.46 
20.4396 -659.463 168.415 
-11.9338 -679.232 144.146 
16.9972 -663.318 160.447 
-18.39 -673.16 150.652 
-15.859 -669.434 142.005 
-16.5677 -661.107 136.637 
-18.4034 -639.147 122.626 
-20.4944 -629.094 120.545 
-19.7271 -623.543 112.234 
-21.8129 -615.314 116.645 
0.593301 -606.942 117.084 
-15.0284 -608.942 115.089 
-22.9806 -609.323 108.446 
-7.4141 -603.969 111.59 
2.5365 -598.87 113.152 
-25.4516 -599.731 113.899 
-17.1226 -599.773 109.738 
-9.26744 -595.766 105.963 
-1.05648 -591.259 106.555 
-29.9494 -585.37 118.474 
-23.9498 -595.69 100.461 
-9.05685 -575.704 123.901 
-25.5471 -587.845 105.753 
-17.0739 -587.628 101.988 
-19.0984 -572.693 123.322 
-27.5811 -575.146 120.762 
-4.97794 -585.326 100.432 
-23.4084 -587.39 94.3917 
-25.6203 -579.984 99.6758 
-11.2531 -581.662 94.2647 
-13.1645 -566.018 117.551 
-30.5547 -571.395 112.317 
-26.956 -561.329 122.45 
-29.3552 -571.452 102.394 
-19.0924 -575.473 94.2332 
-4.62253 -573.626 93.9149 
-21.0809 -561.038 114.899 
-30.8469 -563.323 106.43 
-26.8143 -569.124 92.7435 
-12.7204 -571.07 86.771 
-25.504 -554.802 109.206 
-24.6741 -571.282 82.4043 
-6.14667 -564.021 87.8257 
-31.0315 -557.318 98.4507 
-19.3537 -564.021 85.5359 
-17.0099 -549.35 106.401 
-28.3875 -560.614 87.4054 
-29.0145 -549.311 102.456 
-11.1184 -561.283 80.5313 
-25.2525 -563.377 76.4683 
-31.3497 -549.327 92.4637 
-21.0547 -540.847 101.111 
-18.2637 -554.447 77.2717 
-29.4419 -541.173 96.6499 
-10.4514 -549.667 75.8233 
-26.9709 -549.266 78.4838 
-31.8788 -543.403 84.2091 
-23.4207 -532.777 95.2594 
-26.4823 -547.39 68.4935 
-30.6238 -533.435 88.2502 
-8.79096 -539.378 72.2534 
-21.0117 -525.23 90.5816 
-15.8578 -541.099 65.1866 
-32.1521 -533.091 78.2423 
-29.0588 -537.391 70.3764 
-29.2559 -519.341 92.5103 
-21.325 -533.52 63.9161 
-11.5362 -530.993 65.055 
-24.9824 -517.347 84.4147 
-33.0322 -525.321 72.4504 
-29.1881 -527.525 64.2405 
-31.0716 -517.298 76.4871 
-17.3718 -527.195 56.7306 
-33.9092 -517.281 66.5394 
-29.2984 -519.579 58.1267 
-31.3259 -509.205 70.6181 
-20.6194 -519.21 47.902 
-35.1798 -507.324 60.4982 
-21.3205 -509.146 44.897 
27.1999 -734.888 242.846 
22.9755 -728.537 237.235 
18.9945 -721.295 230.474 
25.0672 -715.608 226.009 
14.9464 -715.195 224.592 
20.9334 -709.106 220.756 
11.1958 -709.589 218.006 
14.7894 -700.747 213.139 
8.2596 -696.608 207.418 
2.8993 -695.207 198.67 
14.9702 -689.06 204.771 
7.4089 -685.87 199.666 
0.859102 -687.017 192.895 
14.9479 -679.159 196.676 
6.49505 -676.861 193.241 
-1.81731 -677.049 186.934 
12.9182 -666.695 187.24 
3.40459 -667.799 185.723 
-4.71322 -669.425 180.209 
-6.91672 -669.317 170.436 
0.442205 -660.781 179.374 
9.01207 -657.355 180.388 
-8.548 -659.331 170.23 
-1.46134 -652.78 173.303 
7.02489 -649.433 174.3 
-10.404 -651.585 163.954 
12.8955 -645.53 168.227 
-3.49288 -644.821 167.31 
5.00606 -640.734 167.189 
-11.936 -644.816 156.893 
-7.14947 -637.222 160.644 
-3.22491 -628.965 157.018 
-11.522 -631.223 152.76 
8.81937 -627.782 153.934 
-9.02778 -619.237 148.616 
-0.92624 -615.112 146.705 
8.43369 -616.082 143.554 
-7.00138 -609.324 142.438 
2.9861 -609.369 140.391 
-5.15902 -601.718 136.077 
2.82888 -600.059 131.601 
-3.00942 -593.331 128.428 
38.7791 -791.161 248.743 
30.7001 -795.161 242.897 
23.7384 -791.558 237.724 
36.415 -783.087 243.069 
20.64 -777.264 250.49 
28.9369 -783.319 236.597 
16.9466 -787.248 232.571 
13.0732 -779.009 244.868 
41.238 -775.358 244.331 
34.3605 -774.953 237.267 
22.9077 -781.204 228.593 
8.57912 -771.358 242.526 
12.9302 -781.265 224.576 
28.3179 -773.181 229.135 
39.6104 -765.363 238.086 
16.5642 -767.111 238.882 
18.8284 -773.058 224.907 
7.07553 -763.32 236.425 
8.64277 -773.133 221.016 
32.6964 -763.104 230.894 
25.2665 -765.365 222.268 
38.2794 -755.217 232.851 
15.1059 -757.372 232.344 
0.960615 -768.938 217.331 
16.6002 -764.913 219.223 
28.7355 -757.186 224.736 
8.55425 -764.753 213.153 
6.25863 -751.173 230.762 
22.661 -757.038 214.851 
38.1592 -739.787 232.788 
12.9995 -755.323 212.44 
26.838 -747.26 218.573 
4.83276 -743.319 224.501 
33.7494 -741.633 221.583 
4.70663 -752.852 209.189 
20.4069 -748.915 209.143 
8.9595 -735.232 226.568 
11.1491 -745.653 206 
29.5163 -735.735 215.715 
24.3202 -739.124 208.854 
3.53484 -733.362 218.235 
12.6893 -745.342 196.457 
17.3979 -739.55 201.983 
33.2457 -727.332 216.316 
6.84237 -738.913 201.16 
9.01371 -725.574 220.068 
22.5216 -731.367 202.582 
26.8438 -725.237 208.657 
2.57256 -725.412 212.467 
12.9047 -731.251 198.574 
33.0006 -717.319 208.443 
6.95131 -716.697 213.347 
-0.234819 -721.675 204.443 
20.6336 -723.408 196.629 
7.20362 -725.884 193.497 
24.3844 -717.03 203.102 
-2.95498 -725.037 192.947 
2.20736 -710.911 207.157 
14.7461 -719.239 190.626 
-20.3954 -717.145 196.763 
3.00415 -721.342 186.403 
-1.46859 -713.268 198.645 
-9.02615 -721.458 186.207 
19.4565 -711.511 196.036 
-17.6763 -717.811 187.868 
8.79818 -713.084 186.996 
-1.0599 -712.955 185.044 
-23.8868 -707.377 195.752 
-1.63581 -703.353 196.504 
17.3371 -707.341 186.258 
-10.9954 -711.228 184.581 
20.0482 -701.38 193.003 
28.6536 -697.195 194.702 
4.85333 -709.039 178.954 
-5.07587 -707.83 177.688 
-18.6953 -706.987 181.004 
-22.6304 -701.245 188.509 
-2.94749 -695.31 190.443 
10.6972 -701.191 178.763 
22.4937 -694.894 185.029 
-25.6387 -691.384 192.169 
27.0383 -687.322 188.431 
15.6371 -693.477 178.139 
2.615 -696.79 175.415 
-7.11133 -697.747 175.629 
-19.5326 -697.752 175.772 
-4.35985 -687.204 184.379 
22.1639 -686.613 179.414 
-24.5505 -685.246 184.51 
-13.1246 -693.713 169.863 
-2.99771 -693.271 168.516 
7.14497 -689.397 170.297 
25.1033 -677.306 184.446 
14.9566 -683.283 172.503 
-5.73593 -679.283 178.552 
-9.03228 -685.615 167.976 
0.627259 -682.967 167.243 
-23.8726 -665.606 165.91 
-3.27208 -667.017 157.295 
-26.7163 -657.318 170.431 
-11.0603 -667.477 152.248 
4.98831 -663.458 154.282 
12.9863 -657.296 154.479 
-23.4126 -657.458 160.252 
-19.4025 -663.315 148.389 
-2.74036 -659.612 149.849 
18.5011 -649.432 160.407 
-25.4216 -647.201 170.624 
-11.0225 -656.872 145.072 
4.90751 -653.233 146.561 
-26.7497 -647.297 160.471 
12.6866 -648.927 149.163 
16.6684 -641.407 154.498 
-19.5387 -653.351 142.356 
-24.7449 -637.46 166.218 
-24.0028 -645.665 151.871 
-3.12029 -648.974 142.938 
-27.2887 -637.322 156.443 
-11.0378 -647.189 138.656 
4.65289 -643.176 140.751 
-18.8608 -649.273 132.465 
14.9247 -633.332 148.452 
-25.1689 -629.263 160.535 
-24.6253 -637.181 146.555 
11.1882 -635.585 140.07 
-1.14576 -636.744 135.249 
-27.6312 -629.324 150.444 
-11.1835 -638.739 133.309 
-20.5934 -639.268 132.48 
-19.4755 -620.878 159.084 
-25.0731 -629.341 140.429 
5.42483 -629.796 133.619 
12.6075 -625.317 138.591 
-26.2179 -619.515 152.087 
-3.28263 -628.643 129.382 
-22.1057 -628.641 131.329 
-13.0317 -628.957 127.002 
-20.6624 -611.909 151.531 
-28.1939 -617.336 142.412 
6.81549 -621.074 128.798 
-12.8359 -605.696 150.102 
-1.16558 -620.902 122.943 
-25.215 -619.51 128.174 
-25.3223 -607.099 144.751 
-15.0565 -619.81 121.67 
-28.5033 -609.309 136.42 
4.86362 -613.07 122.811 
-7.04106 -614.826 119.28 
-17.0299 -599.015 142.856 
-25.1497 -609.417 126.367 
-25.5416 -599.066 138.839 
-28.9726 -601.319 130.442 
-13.1133 -590.815 137.09 
-23.3847 -590.802 135.115 
-29.4865 -593.31 124.507 
-7.27735 -582.818 130.885 
-26.353 -583.741 127.74 
-17.0367 -580.721 129.231 
