ply
format ascii 1.0
element vertex 342
property double x
property double y
property double z
end_header
174.880996704101560 72.631698608398438 -233.048995971679690
198.975997924804690 72.626197814941406 -229.914993286132810
184.904998779296870 70.714500427246094 -230.856002807617190
164.748001098632810 68.362297058105469 -236.811004638671870
174.880996704101560 72.631698608398438 -233.048995971679690
156.643997192382810 64.239402770996094 -243.026000976562500
190.949005126953120 78.797996520996094 -230.815994262695310
204.867004394531250 80.653503417968750 -232.042999267578130
166.897994995117190 97.602996826171875 -203.738998413085940
174.531005859375000 101.425003051757810 -199.828002929687500
180.996994018554690 80.682601928710938 -231.554000854492190
147.347000122070310 67.338897705078125 -246.175003051757810
160.871994018554690 76.540397644042969 -234.914993286132810
150.738998413085940 74.317497253417969 -238.820999145507810
168.912002563476560 80.573402404785156 -232.917007446289060
156.986999511718750 99.075500488281250 -203.656997680664060
196.990997314453120 86.669898986816406 -231.360992431640620
161.070999145507810 96.144401550292969 -211.479995727539060
140.863006591796870 66.425598144531250 -253.442993164062500
220.951004028320310 88.817901611328125 -234.035995483398440
182.447998046875000 107.461997985839840 -200.057006835937500
211.123001098632810 88.615600585937500 -232.944000244140620
175.050003051757810 100.591003417968750 -209.554992675781250
138.899993896484370 72.505699157714844 -245.322006225585940
186.983993530273440 88.519203186035156 -230.639007568359370
150.677001953125000 97.714599609375000 -211.042999267578120
152.925003051757810 82.618400573730469 -235.246002197265620
174.932998657226560 88.844100952148438 -230.419006347656250
154.970001220703130 94.303703308105469 -219.488998413085940
142.740997314453120 80.336196899414062 -238.669006347656250
184.785995483398440 105.083999633789060 -209.682998657226560
169.227005004882810 98.251701354980469 -217.526992797851560
158.940994262695310 88.157501220703125 -230.917007446289060
142.910995483398440 96.243797302246094 -217.296005249023440
190.798995971679690 110.972999572753910 -203.766998291015620
131.490005493164060 71.642997741699219 -252.005996704101560
164.942993164062500 93.606498718261719 -225.873001098632810
176.917007446289060 97.095397949218750 -223.684997558593750
146.981994628906250 92.553497314453125 -225.500000000000000
182.746002197265620 101.638999938964840 -218.173995971679690
197.108001708984370 96.167999267578125 -228.697998046875000
232.865997314453120 96.860198974609375 -234.091995239257810
186.912002563476560 97.110900878906250 -225.979003906250000
130.583999633789060 78.067901611328125 -244.781997680664060
213.018997192382810 98.633796691894531 -229.419006347656250
223.029998779296870 98.624397277832031 -231.380004882812500
192.772003173828120 107.260002136230470 -213.774993896484370
145.052993774414060 88.773498535156250 -233.826004028320310
194.901992797851560 102.992996215820310 -221.740005493164060
133.214996337890620 68.982299804687500 -261.579986572265620
134.839996337890620 93.902297973632813 -225.156005859375000
199.018997192382810 112.648002624511720 -209.522994995117190
135.009994506835940 86.612197875976563 -237.475006103515620
204.975006103515620 102.736000061035160 -225.606994628906250
196.986999511718750 118.694000244140620 -201.567001342773440
202.949996948242190 108.801002502441410 -217.660995483398440
126.787002563476560 91.921302795410156 -231.041000366210940
126.989997863769530 98.663002014160156 -221.529998779296870
125.420997619628910 73.502197265625000 -259.466003417968750
121.154998779296870 80.932296752929688 -247.852005004882810
213.078994750976560 108.501998901367190 -223.399002075195310
247.139999389648440 104.680999755859370 -235.048004150390620
220.884994506835940 106.910003662109370 -227.953002929687500
206.873001098632810 118.983001708984370 -207.811004638671870
211.078994750976560 114.511001586914060 -215.414993286132810
230.832000732421870 106.927001953125000 -230.175994873046870
210.985000610351560 124.765998840332030 -201.615005493164060
124.627998352050780 88.589897155761719 -240.673995971679690
117.452003479003910 77.494400024414063 -255.878997802734370
216.901000976562500 121.402000427246090 -207.960006713867190
220.921997070312500 127.290000915527340 -200.000000000000000
118.775001525878910 95.983497619628906 -229.139999389648440
232.964996337890620 130.692001342773440 -197.537994384765620
112.877998352050780 92.034500122070313 -235.248001098632810
219.486999511718750 115.864997863769530 -218.835998535156250
229.179000854492190 126.236999511718750 -205.404006958007810
112.693000793457030 101.774002075195310 -222.652999877929690
94.941101074218750 98.162597656250000 -225.389007568359370
107.123001098632810 97.705001831054687 -228.882995605468750
240.669998168945310 110.811996459960940 -232.388000488281250
103.017997741699220 102.634002685546870 -221.518005371093750
225.171005249023440 122.363998413085940 -213.473999023437500
111.347000122070310 83.352600097656250 -251.925994873046870
114.625999450683590 88.610801696777344 -245.011993408203120
226.975997924804690 114.710998535156250 -225.595993041992190
98.981796264648438 94.993598937988281 -233.688995361328120
239.117996215820310 130.438003540039060 -205.563003540039060
102.959999084472660 90.455101013183594 -243.492004394531250
89.222503662109375 97.191001892089844 -233.772003173828120
234.324996948242190 127.655998229980470 -213.679992675781250
231.117996215820310 122.527000427246090 -221.496002197265620
121.486000061035160 79.569198608398438 -266.692993164062500
236.505004882812500 119.035003662109370 -228.516006469726560
99.889900207519531 87.153297424316406 -252.470993041992190
247.279006958007810 136.436996459960940 -205.652999877929690
104.630996704101560 83.773002624511719 -259.562011718750000
112.628997802734370 81.839500427246094 -264.217987060546870
254.675994873046870 116.605003356933590 -238.332992553710940
92.958099365234375 91.896697998046875 -247.490005493164060
246.688003540039060 118.765998840332030 -234.134994506835940
230.667007446289060 136.796997070312500 -205.375000000000000
235.097000122070310 142.647003173828120 -199.604995727539060
238.677001953125000 129.035003662109370 -221.699996948242190
90.979400634765625 88.617202758789063 -257.533996582031250
243.132003784179690 134.533004760742190 -215.561004638671870
81.193901062011719 102.878997802734370 -235.647003173828120
80.973197937011719 72.651100158691406 -281.399993896484370
99.108703613281250 78.726799011230469 -275.789001464843750
242.972000122070310 126.698997497558590 -229.582000732421870
69.027099609375000 72.615501403808594 -281.760986328125000
83.052902221679688 94.756301879882813 -251.619003295898440
116.712997436523440 84.203498840332031 -273.403991699218750
253.151000976562500 146.600006103515620 -205.524002075195310
98.797203063964844 88.189201354980469 -265.841003417968750
88.733802795410156 78.610000610351563 -278.628997802734370
250.087005615234380 141.514007568359370 -213.593994140625000
107.230003356933590 87.448196411132813 -271.334014892578120
46.886299133300781 68.821601867675781 -288.904998779296870
58.939701080322266 72.670700073242188 -285.355987548828120
87.016998291015625 88.606201171875000 -267.535003662109370
246.166000366210940 135.455993652343750 -225.690994262695310
74.582000732421875 96.193702697753906 -255.022994995117190
80.984199523925781 92.666198730468750 -261.533996582031250
76.250503540039063 102.111000061035160 -247.033996582031250
250.343002319335940 130.929992675781250 -234.298004150390620
92.806800842285156 86.490196228027344 -275.195007324218750
74.973197937011719 108.661003112792970 -239.541000366210940
75.218101501464844 80.614601135253906 -282.282989501953130
36.920501708984375 70.714103698730469 -291.106994628906250
260.727996826171870 153.180999755859370 -207.572006225585940
257.109008789062500 148.563003540039060 -215.526000976562500
252.636001586914060 142.985992431640620 -223.677001953125000
82.967697143554688 86.661598205566406 -279.350006103515620
232.785995483398440 152.656997680664060 -207.393005371093750
64.947898864746094 80.732398986816406 -285.352996826171870
73.235397338867188 94.851799011230469 -265.937988281250000
258.993988037109370 134.682998657226560 -239.557006835937500
51.081798553466797 78.629203796386719 -287.865997314453120
65.874702453613281 99.295501708984375 -260.454986572265620
68.877502441406250 104.601997375488280 -253.464996337890620
253.966995239257810 140.041000366210940 -232.981994628906250
267.268005371093750 156.087005615234370 -213.485992431640620
67.587898254394531 111.416999816894530 -245.889007568359370
68.909103393554687 88.203399658203125 -281.134002685546870
266.791992187500000 136.695007324218750 -243.962997436523440
65.092903137207031 94.795402526855469 -271.691009521484370
25.045799255371094 74.679901123046875 -295.611999511718750
41.057701110839844 80.605400085449219 -289.989990234375000
56.671199798583984 86.259300231933594 -286.684997558593750
257.697998046875000 148.061004638671870 -229.664001464843750
58.368400573730469 100.302001953125000 -266.743011474609370
262.722991943359370 153.083999633789060 -223.503005981445310
58.844799041748047 92.380699157714844 -279.322998046875000
31.182800292968750 80.664199829101563 -292.036010742187500
260.782989501953120 144.792999267578120 -237.768005371093750
275.842010498046870 162.035995483398440 -215.996994018554690
62.655700683593750 108.621002197265620 -259.328002929687500
18.690500259399414 74.595100402832031 -303.346008300781250
46.759799957275391 88.425498962402344 -288.979003906250000
269.773010253906250 160.054992675781250 -223.809997558593750
62.292499542236328 116.425003051757810 -253.367996215820310
273.009002685546880 144.677993774414060 -247.542999267578130
50.470500946044922 104.314002990722660 -270.834991455078120
263.580993652343750 154.345993041992190 -233.231994628906250
37.025001525878906 88.662399291992188 -291.867004394531250
52.447299957275391 100.309997558593750 -278.881988525390620
267.372009277343750 150.520996093750000 -241.173004150390620
21.152599334716797 82.702697753906250 -299.699005126953120
45.324901580810547 96.960403442382813 -284.091003417968750
54.742900848388672 112.185997009277340 -264.839996337890620
26.788099288940430 88.772003173828125 -295.222991943359370
279.596984863281250 170.483993530273440 -217.766998291015620
42.420600891113281 104.027000427246090 -276.752014160156250
14.291700363159180 80.567398071289063 -309.265991210937500
44.821201324462891 112.138000488281250 -269.125000000000000
268.639007568359370 162.923995971679690 -233.395004272460940
56.837699890136719 120.376998901367190 -260.888000488281250
273.842987060546870 168.195007324218750 -227.914001464843750
278.403015136718750 155.016006469726560 -248.240997314453120
46.983699798583984 119.389999389648440 -262.477996826171880
272.270996093750000 159.039001464843750 -242.341995239257810
33.326499938964844 98.978698730468750 -292.223999023437500
35.014499664306641 114.759002685546870 -269.622009277343750
16.691200256347656 88.590400695800781 -305.402008056640620
34.991298675537109 108.646003723144530 -279.527008056640620
36.999500274658203 120.972999572753910 -261.748992919921870
38.802398681640625 104.710998535156250 -287.263000488281250
20.924600601196289 94.688102722167969 -299.447998046875000
27.027900695800781 118.583999633789060 -265.488006591796870
26.934600830078125 113.136001586914060 -273.825988769531250
8.974300384521484 80.688400268554687 -319.537994384765620
278.730010986328120 176.755004882812500 -225.451004028320310
10.825200080871582 113.360000610351560 -273.779998779296870
273.714996337890620 168.358993530273440 -239.143005371093750
280.526000976562500 164.878997802734370 -246.236999511718750
25.346799850463867 102.960998535156250 -296.082000732421870
12.354399681091309 88.553901672363281 -315.250000000000000
2.261889934539795 116.279998779296870 -277.914001464843750
276.606994628906250 176.850997924804690 -235.548004150390620
14.913499832153320 102.675003051757810 -303.427001953125000
280.604003906250000 174.792007446289060 -243.990005493164060
10.265800476074219 98.318000793457031 -311.303985595703120
5.840990066528320 86.814102172851563 -327.977996826171880
281.058013916015630 186.662994384765620 -227.554992675781250
8.125539779663086 94.340599060058594 -321.204010009765630
19.411399841308594 110.378997802734370 -299.980987548828120
4.315680027008057 118.095001220703120 -287.712005615234370
280.190002441406250 185.031005859375000 -237.710998535156250
7.272759914398193 106.828002929687500 -307.915985107421870
7.875130176544190 115.538002014160160 -295.809997558593750
-1.608109951019287 124.288002014160160 -281.651000976562500
292.962005615234370 178.658004760742190 -251.611999511718750
5.543509960174561 103.019996643066410 -317.769989013671870
284.946014404296870 184.697006225585940 -245.621994018554690
283.322998046875000 194.615005493164060 -231.542999267578120
2.069509983062744 92.529098510742188 -335.221008300781250
1.620630025863648 99.063201904296875 -325.731994628906250
12.678600311279297 116.491996765136720 -305.149993896484380
-0.857308983802795 124.863998413085940 -291.592010498046870
0.675620019435883 110.579002380371090 -313.234985351562500
1.566840052604675 121.154998779296870 -299.829986572265620
284.006988525390620 193.020004272460940 -241.682006835937500
-6.174379825592041 131.360000610351560 -285.984008789062500
-3.203560113906860 108.523002624511720 -321.450988769531250
4.595660209655762 118.844001770019530 -310.951995849609370
-1.742609977722168 102.240997314453120 -335.489990234375000
284.885009765625000 204.688003540039060 -233.604003906250000
-8.822629928588867 129.561996459960940 -295.937988281250000
-4.507579803466797 123.290000915527340 -307.915985107421870
287.553009033203120 202.505996704101560 -243.462005615234370
-7.208079814910889 110.505996704101560 -329.522003173828120
-5.884359836578369 118.233001708984370 -318.787994384765620
-13.071000099182129 136.490005493164060 -291.375000000000000
-14.877699851989746 129.134994506835940 -303.622009277343750
296.799011230468750 200.630996704101560 -252.083999633789060
-2.227829933166504 103.005996704101560 -345.636993408203120
-21.289100646972656 134.044006347656250 -296.816986083984370
289.453002929687500 210.488998413085940 -239.289001464843750
-12.102600097656250 117.441001892089840 -325.798004150390620
-11.411100387573242 126.157997131347660 -313.364990234375000
-6.780010223388672 108.983001708984370 -339.545989990234370
-30.958900451660156 134.794998168945310 -301.605987548828120
-23.243999481201172 131.712997436523440 -307.539001464843750
-13.148200035095215 116.467002868652340 -335.520996093750000
-7.186820030212402 108.282997131347660 -351.460998535156250
-15.431699752807617 127.953002929687500 -321.718994140625000
292.718994140625000 210.619003295898440 -251.940994262695310
-38.938800811767578 135.080993652343750 -307.572998046875000
-19.160100936889648 122.630996704101560 -329.382995605468750
-13.513799667358398 114.033996582031250 -345.135986328125000
-31.043199539184570 134.087005615234370 -313.623992919921870
300.881988525390620 212.438995361328120 -256.162994384765620
-25.034700393676758 132.511993408203130 -321.569000244140620
-20.804700851440430 120.892997741699220 -339.674987792968750
-45.006801605224609 135.988998413085940 -315.674987792968750
-23.256099700927734 113.985000610351560 -352.985992431640620
294.761993408203120 220.755004882812500 -251.565994262695310
-36.991100311279297 136.464004516601560 -321.587005615234370
-21.004499435424805 132.682998657226560 -331.550994873046870
-27.566900253295898 128.492996215820310 -336.992004394531250
-29.416900634765625 124.236000061035160 -344.916992187500000
-32.835300445556641 116.858001708984370 -355.888000488281250
-30.778799057006836 135.552001953125000 -329.519012451171870
-52.388999938964844 139.550003051757810 -321.128997802734370
298.942993164062500 222.664001464843750 -259.610992431640630
-44.954601287841797 138.811996459960940 -327.509002685546870
-50.866500854492188 116.737998962402340 -362.045989990234370
-40.786201477050781 121.001998901367190 -358.210998535156250
297.098999023437500 230.680999755859370 -253.539993286132810
-37.509899139404297 126.469001770019530 -351.217987060546870
-35.172599792480469 132.641006469726560 -343.390014648437500
-38.745201110839844 139.656005859375000 -335.281005859375000
-29.603900909423828 138.595993041992190 -338.886993408203120
304.981994628906250 228.410995483398440 -264.167999267578120
-56.645999908447266 146.940002441406250 -325.385009765625000
-61.026699066162109 122.746002197265620 -363.287994384765620
-52.835098266601562 126.639999389648440 -360.381011962890620
-47.604499816894531 143.970001220703120 -335.803009033203120
-44.342399597167969 131.000000000000000 -356.352996826171870
-65.216400146484375 150.496994018554690 -325.628997802734370
298.515991210937500 236.785003662109370 -261.550994873046870
-36.369201660156250 142.361999511718750 -344.454010009765620
-41.480998992919922 138.309005737304690 -351.225006103515620
-55.055900573730469 150.626007080078120 -335.575012207031250
-51.219299316406250 136.611999511718750 -359.221984863281250
-60.832901000976562 134.649002075195310 -363.796997070312500
-67.107597351074219 130.733993530273440 -369.471984863281250
-41.154098510742188 148.714004516601560 -349.361999511718750
-47.591899871826172 144.307006835937500 -354.966003417968750
-53.163600921630859 150.447998046875000 -345.588989257812500
-59.158599853515625 156.526000976562500 -341.563995361328120
-64.768402099609375 160.932006835937500 -335.558013916015620
-55.160400390625000 144.679000854492190 -361.321990966796870
302.860992431640620 246.513000488281250 -271.869995117187500
-69.815597534179688 134.981994628906250 -377.209991455078120
-65.046699523925781 140.694000244140620 -371.531005859375000
-50.971698760986328 152.675003051757810 -357.601013183593750
-73.729698181152344 166.516006469726560 -337.411010742187500
-61.181499481201172 158.524002075195310 -351.500000000000000
-61.116600036621094 148.703994750976560 -367.475006103515620
-62.960300445556641 170.697998046875000 -337.553985595703120
-65.717399597167969 166.457000732421870 -345.513000488281250
-57.303398132324219 156.733993530273440 -363.192993164062500
-69.902999877929687 140.738006591796870 -385.171997070312500
-66.686996459960938 148.699005126953120 -379.691009521484370
-68.032600402832031 165.541000366210940 -355.721984863281250
-78.796699523925781 174.858993530273440 -341.674987792968750
-65.288002014160156 156.542007446289060 -373.412994384765620
-71.182601928710938 174.197998046875000 -347.007995605468750
306.851989746093750 262.136993408203120 -282.196990966796870
-80.736000061035156 171.666000366210940 -353.891998291015620
-74.857299804687500 152.785003662109370 -383.845001220703120
-59.341098785400391 164.703994750976560 -368.981994628906250
-75.357101440429688 168.266998291015620 -361.377014160156250
-68.891197204589844 164.899993896484370 -367.440002441406250
-71.228202819824219 160.591003417968750 -379.342010498046870
-88.522903442382813 175.044006347656250 -357.441986083984370
-83.067901611328125 174.149002075195310 -365.740997314453120
-96.782302856445313 175.617996215820310 -361.417999267578120
-77.248298645019531 166.608001708984370 -383.242004394531250
-71.065498352050781 175.350997924804690 -372.747985839843750
-91.176399230957031 175.912002563476560 -371.550994873046870
-81.024299621582031 174.190002441406250 -375.878997802734370
-72.342697143554687 174.595993041992190 -382.147003173828120
-87.127502441406250 178.233001708984370 -381.773986816406250
-76.974098205566406 182.272003173828120 -379.993988037109370
-83.072502136230469 187.067993164062500 -385.123992919921870
-101.282997131347660 187.908996582031250 -429.148986816406250
-111.319000244140620 182.332992553710940 -371.691986083984370
-80.745002746582031 170.729003906250000 -399.574005126953120
-88.589599609375000 166.850006103515620 -407.424987792968750
-111.540000915527340 190.544998168945310 -375.861999511718750
-85.268302917480469 174.548995971679690 -411.602996826171880
-91.109901428222656 180.610000610351560 -417.611999511718750
-101.918998718261720 208.498992919921870 -379.515991210937500
-114.946998596191410 210.692993164062500 -383.553009033203120
-106.804000854492190 208.770004272460940 -389.553009033203120
-104.563003540039060 216.822998046875000 -385.730010986328120
-111.005996704101560 220.679000854492190 -391.545989990234370
-127.180999755859370 220.311996459960940 -392.917999267578120
-119.087997436523440 224.610000610351560 -393.432006835937500
-131.313995361328120 218.264999389648440 -401.424987792968750
