ply
format ascii 1.0
element vertex 344
property double x
property double y
property double z
end_header
0.695016980171204 2.463540077209473 -8.083029747009277
0.695016980171204 2.463540077209473 -8.083029747009277
0.872018992900848 2.468539953231812 -8.156029701232910
0.585017025470734 2.427540063858032 -8.174030303955078
1.151020050048828 2.122539997100830 -8.162030220031738
1.035019993782044 2.242539882659912 -8.180029869079590
0.341017007827759 2.416539907455444 -8.228030204772949
1.259019970893860 2.256540060043335 -8.208029747009277
1.377020001411438 2.121540069580078 -8.205030441284180
0.746020019054413 2.450540065765381 -8.234040260314941
0.921019017696381 2.347539901733398 -8.234040260314941
0.617017984390259 2.540539979934692 -8.268030166625977
1.139019966125488 2.343539953231812 -8.259039878845215
0.458018004894257 2.487540006637573 -8.281029701232910
1.259019970893860 2.060539960861206 -8.270030021667481
0.221018001437187 2.463540077209473 -8.306030273437500
1.500020027160645 2.058540105819702 -8.283040046691895
1.388020038604736 1.941540002822876 -8.288029670715332
1.121019959449768 2.176539897918701 -8.302029609680176
1.515020012855530 1.865540027618408 -8.299030303955078
1.005020022392273 2.439539909362793 -8.315030097961426
1.380020022392273 2.273540019989014 -8.314040184020996
1.629019975662231 1.986539959907532 -8.321040153503418
0.341473996639252 2.516220092773438 -8.382699966430664
0.997018992900848 2.302540063858032 -8.370039939880371
0.084017202258110 2.511539936065674 -8.397040367126465
1.637019991874695 1.814540028572083 -8.363039970397949
0.866019010543823 2.417540073394775 -8.385029792785645
-0.063981600105762 2.521539926528931 -8.405030250549316
0.566018998622894 2.571540117263794 -8.403030395507813
1.301020026206970 2.151540040969849 -8.385029792785645
0.723016977310181 2.478539943695068 -8.400030136108398
1.560019969940186 2.231539964675903 -8.383040428161621
1.760020017623901 1.926540017127991 -8.383040428161621
-0.283982992172241 2.495539903640747 -8.432040214538574
1.199020028114319 2.265539884567261 -8.405030250549316
1.472020030021668 2.355540037155151 -8.412030220031738
1.706019997596741 2.176539897918701 -8.425040245056152
1.230020046234131 2.506540060043335 -8.443039894104004
1.535019993782044 1.935539960861206 -8.433030128479004
0.224473997950554 2.561680078506470 -8.465970039367676
1.438019990921021 2.140539884567261 -8.442040443420410
1.777019977569580 1.739539980888367 -8.432040214538574
1.333019971847534 2.322540044784546 -8.456040382385254
1.092020034790039 2.399539947509766 -8.464030265808106
1.894019961357117 1.843539953231812 -8.444029808044434
0.444018006324768 2.556540012359619 -8.498040199279785
1.614019989967346 2.339540004730225 -8.480039596557617
-0.167981997132301 2.559540033340454 -8.521030426025391
1.760020017623901 2.324539899826050 -8.482029914855957
0.961019992828369 2.521539926528931 -8.507029533386231
0.810019016265869 2.552540063858032 -8.518030166625977
1.613019943237305 2.080539941787720 -8.499030113220215
1.366019964218140 2.523540019989014 -8.508040428161621
0.652018010616302 2.567539930343628 -8.525030136108398
-0.366982996463776 2.469540119171143 -8.551030158996582
0.762018978595734 2.699539899826050 -8.531029701232910
1.666020035743713 1.836539983749390 -8.512040138244629
1.898020029067993 1.659540057182312 -8.507029533386231
1.120020031929016 2.547539949417114 -8.531029701232910
2.001019954681397 2.169539928436279 -8.510029792785645
0.519019007682800 2.672539949417114 -8.549030303955078
1.850020051002502 2.200540065765381 -8.518030166625977
1.232020020484924 2.667540073394775 -8.559029579162598
0.922017991542816 2.673540115356445 -8.569029808044434
0.318017989397049 2.618540048599243 -8.588040351867676
1.789019942283630 2.058540105819702 -8.554039955139160
1.076020002365112 2.692539930343628 -8.576029777526856
-0.055982198566198 2.598540067672730 -8.609040260314941
2.005019903182983 1.762539982795715 -8.562029838562012
0.084017202258110 2.647540092468262 -8.609040260314941
0.840017974376678 2.836539983749390 -8.604029655456543
1.934020042419434 2.041539907455444 -8.581040382385254
0.518019020557404 2.834539890289307 -8.617030143737793
0.665018022060394 2.798540115356445 -8.616040229797363
1.775020003318787 1.904539942741394 -8.593029975891113
-0.480980992317200 2.443540096282959 -8.646030426025391
0.627020001411438 2.944540023803711 -8.636030197143555
-0.556981980800629 2.309540033340454 -8.659029960632324
-0.261983007192612 2.580539941787720 -8.656029701232910
1.829020023345947 1.759539961814880 -8.609040260314941
0.394019007682800 2.741539955139160 -8.654040336608887
2.052020072937012 1.910539984703064 -8.619039535522461
0.284018009901047 2.846539974212647 -8.666029930114746
1.911020040512085 1.878540039062500 -8.646030426025391
-0.339982986450195 2.422539949417114 -8.697030067443848
0.232020005583763 3.026540040969849 -8.692040443420410
0.218020007014275 2.700540065765381 -8.690030097961426
0.085016600787640 2.978539943695068 -8.710040092468262
0.102018997073174 2.825540065765381 -8.714030265808106
1.959020018577576 1.680539965629578 -8.693039894104004
0.031019600108266 2.656539916992188 -8.754030227661133
-0.144982993602753 2.603539943695068 -8.758040428161621
-0.022981299087405 3.061539888381958 -8.765040397644043
-0.040982801467180 2.813539981842041 -8.771030426025391
-0.538980007171631 2.479540109634399 -8.784029960632324
-0.398981004953384 2.573539972305298 -8.791029930114746
-0.262982994318008 2.512540102005005 -8.802029609680176
2.067019939422607 1.750540018081665 -8.768030166625977
-0.611981987953186 2.335540056228638 -8.836030006408691
-0.161981001496315 2.749540090560913 -8.836030006408691
-0.436982989311218 2.394540071487427 -8.850029945373535
2.045020103454590 1.575539946556091 -8.802029609680176
-0.112980999052525 2.992539882659912 -8.861029624938965
2.249020099639893 1.792539954185486 -8.805029869079590
-0.305981993675232 2.661540031433106 -8.869039535522461
0.030020099133253 2.946540117263794 -8.867030143737793
-0.642979979515076 2.482539892196655 -8.897040367126465
-0.066979996860027 3.135540008544922 -8.901040077209473
-0.504984021186829 2.622539997100830 -8.932040214538574
-0.253980010747910 2.834539890289307 -8.931030273437500
-0.089982599020004 2.842540025711060 -8.930029869079590
2.162019968032837 1.673539996147156 -8.877039909362793
-0.410982012748718 2.493540048599243 -8.956040382385254
-0.652981996536255 2.241539955139160 -8.964030265808106
-0.543981015682220 2.342540025711060 -8.971030235290527
-0.406980007886887 2.728539943695068 -8.990030288696289
2.305020093917847 1.644539952278137 -8.930029869079590
-0.705980002880096 2.374540090560913 -8.999030113220215
-0.164983004331589 3.060539960861206 -8.996029853820801
-0.262982994318008 2.949539899826050 -9.028030395507813
2.193020105361939 1.555539965629578 -8.968029975891113
-0.651983022689819 2.629539966583252 -9.036040306091309
-0.753979980945587 2.505539894104004 -9.065030097961426
-0.511982977390289 2.488539934158325 -9.064040184020996
-0.377981007099152 2.836539983749390 -9.119039535522461
-0.472981989383698 2.678539991378784 -9.123040199279785
-0.744980990886688 2.259540081024170 -9.130040168762207
-0.397980988025665 2.980540037155151 -9.147040367126465
-0.633980989456177 2.380539894104004 -9.152029991149902
-0.728982985019684 2.652539968490601 -9.168040275573731
-0.833981990814209 2.425539970397949 -9.171039581298828
-0.576982021331787 2.584539890289307 -9.168040275573731
2.270020008087158 1.512539982795715 -9.105039596557617
-0.584981977939606 2.935539960861206 -9.176030158996582
-0.297982990741730 3.108540058135986 -9.173029899597168
-0.686982989311218 2.823539972305298 -9.180029869079590
-0.515981018543243 3.064539909362793 -9.191029548645020
-0.545979976654053 2.784539937973023 -9.199040412902832
-0.865980029106140 2.566540002822876 -9.216030120849609
-0.848981022834778 2.241539955139160 -9.243029594421387
-0.832983016967773 2.819540023803711 -9.250029563903809
-0.799982011318207 3.072540044784546 -9.255040168762207
-0.652981996536255 3.090539932250977 -9.257029533386231
-0.717980980873108 2.454540014266968 -9.265040397644043
-0.949983000755310 2.434540033340454 -9.282039642333984
-0.904981017112732 2.969540119171143 -9.289039611816406
-1.056980013847351 2.979540109634399 -9.296039581298828
-0.973981022834778 3.114540100097656 -9.298029899597168
-0.710981011390686 2.925539970397949 -9.296039581298828
-0.891981005668640 2.691540002822876 -9.300040245056152
-0.983980000019073 2.825540065765381 -9.318039894104004
-0.740980029106140 2.660540103912354 -9.314040184020996
-0.971983015537262 2.292540073394775 -9.323030471801758
-1.153980016708374 3.123539924621582 -9.335040092468262
-0.992981970310211 2.569540023803711 -9.328040122985840
-0.821981012821198 2.350539922714233 -9.344030380249023
-0.838982999324799 2.562540054321289 -9.381030082702637
-1.175979971885681 2.965539932250977 -9.394040107727051
-1.073979973793030 2.426539897918701 -9.390040397644043
-1.027979969978333 2.173540115356445 -9.399029731750488
-1.176980018615723 2.196540117263794 -9.408040046691895
-1.088979959487915 2.747539997100830 -9.421039581298828
-0.962979972362518 2.942539930343628 -9.424030303955078
-1.427979946136475 2.191540002822876 -9.438030242919922
-0.932981014251709 2.391540050506592 -9.434029579162598
-1.117980003356934 2.570539951324463 -9.445030212402344
-1.219980001449585 3.090539932250977 -9.462030410766602
-1.208979964256287 2.372539997100830 -9.457030296325684
-0.938982009887695 2.629539966583252 -9.465029716491699
-0.952982008457184 2.796540021896362 -9.470040321350098
-1.342980027198792 2.307539939880371 -9.484040260314941
-1.192980051040649 2.849539995193481 -9.488039970397949
-1.294980049133301 2.167540073394775 -9.499030113220215
-1.068979978561401 2.295540094375610 -9.496029853820801
-1.275979995727539 2.504539966583252 -9.523030281066895
-1.114979982376099 3.000540018081665 -9.525030136108398
-1.030979990959168 2.478539943695068 -9.521030426025391
-1.534980058670044 2.182539939880371 -9.541029930114746
-1.186980009078980 2.696540117263794 -9.540040016174316
-1.479979991912842 2.325540065765381 -9.566029548645020
-1.301980018615723 3.042540073394775 -9.584030151367188
-1.042979955673218 2.691540002822876 -9.577030181884766
-1.080979943275452 2.852540016174316 -9.594030380249023
-1.284980058670044 2.831540107727051 -9.601030349731445
-1.397979974746704 2.479540109634399 -9.614029884338379
-1.167979955673218 2.432539939880371 -9.625029563903809
-1.279979944229126 2.285540103912354 -9.629030227661133
-1.285979986190796 2.654540061950684 -9.648030281066895
-1.417979955673218 2.181540012359619 -9.647040367126465
-1.141980051994324 2.586539983749390 -9.658040046691895
-1.564980030059815 2.200540065765381 -9.684029579162598
-1.539980053901672 2.377540111541748 -9.695030212402344
-1.342980027198792 2.977540016174316 -9.714030265808106
-1.155979990959168 2.803539991378784 -9.713040351867676
-1.195979952812195 2.968539953231812 -9.717040061950684
-1.375980019569397 2.826539993286133 -9.730039596557617
-1.254979968070984 2.493540048599243 -9.733030319213867
-1.396980047225952 2.652539968490601 -9.748040199279785
-1.464980006217957 2.504539966583252 -9.751040458679199
-1.361979961395264 2.363539934158325 -9.766039848327637
-1.451979994773865 2.237540006637573 -9.796039581298828
-1.593979954719544 2.274539947509766 -9.820030212402344
-1.463979959487915 2.754539966583252 -9.832030296325684
-1.517979979515076 2.096539974212647 -9.833029747009277
-1.238980054855347 2.819540023803711 -9.835040092468262
-1.255980014801025 2.667540073394775 -9.836030006408691
-1.407979965209961 2.920540094375610 -9.858030319213867
-1.588979959487915 2.446540117263794 -9.874030113220215
-1.342980027198792 2.553539991378784 -9.902029991149902
-1.552979946136475 2.672539949417114 -9.919030189514160
-1.606979966163635 2.149539947509766 -9.941029548645020
-1.335980057716370 3.011539936065674 -9.959030151367188
-1.320979952812195 2.725539922714233 -9.959030151367188
-1.502979993820190 2.300539970397949 -9.964030265808106
-1.643980026245117 2.350539922714233 -9.972029685974121
-1.432979941368103 2.444540023803711 -9.972029685974121
-1.499979972839356 2.825540065765381 -9.980039596557617
-1.613980054855347 2.496540069580078 -10.017999649047852
-1.394979953765869 2.612540006637573 -10.031999588012695
-1.624979972839356 2.679539918899536 -10.069000244140625
-1.635980010032654 2.217540025711060 -10.071000099182129
-1.728979945182800 2.412539958953857 -10.076000213623047
-1.378980040550232 2.807539939880371 -10.102999687194824
-1.366979956626892 2.954540014266968 -10.104000091552734
-1.469980001449585 2.501539945602417 -10.121999740600586
-1.541980028152466 2.787539958953857 -10.145000457763672
-1.527979969978333 2.331540107727051 -10.154000282287598
-1.440979957580566 2.677540063858032 -10.159999847412109
-1.786980032920837 2.532540082931519 -10.166999816894531
-1.735980033874512 2.268539905548096 -10.182999610900879
-1.721979975700378 2.670540094375610 -10.187000274658203
-1.834980010986328 2.395539999008179 -10.197999954223633
-1.669980049133301 2.140539884567261 -10.246000289916992
-1.539980053901672 2.448539972305298 -10.246999740600586
-1.859979987144470 2.615540027618408 -10.274000167846680
-1.455979943275452 2.828540086746216 -10.272000312805176
-1.611979961395264 2.805540084838867 -10.279999732971191
-1.584980010986328 2.311539888381958 -10.295999526977539
-1.526980042457581 2.673540115356445 -10.305999755859375
-1.773980021476746 2.754539966583252 -10.326000213623047
-1.886980056762695 2.308540105819702 -10.326999664306641
-1.975980043411255 2.573539972305298 -10.369000434875488
-1.781980037689209 2.189539909362793 -10.364000320434570
-1.945979952812195 2.430540084838867 -10.383999824523926
-1.621979951858521 2.186539888381958 -10.378999710083008
-1.610980033874512 2.551539897918701 -10.387000083923340
-1.919980049133301 2.777539968490601 -10.397999763488770
-1.682979941368103 2.837539911270142 -10.407999992370605
-1.651980042457581 2.389539957046509 -10.416999816894531
-2.050980091094971 2.683540105819702 -10.435000419616699
-1.983979940414429 2.249540090560913 -10.440999984741211
-1.714980006217957 2.629539966583252 -10.472999572753906
-1.818979978561401 2.843539953231812 -10.482999801635742
-2.126980066299439 2.541539907455444 -10.487000465393066
-2.047980070114136 2.403539896011353 -10.486000061035156
-1.696979999542236 2.100539922714233 -10.493000030517578
-1.846979975700378 2.117539882659912 -10.498000144958496
-2.187979936599731 2.718539953231812 -10.510000228881836
-1.746979951858521 2.465539932250977 -10.503999710083008
-1.764979958534241 2.249540090560913 -10.536000251770020
-1.951979994773865 2.757539987564087 -10.548999786376953
-2.026979923248291 2.133539915084839 -10.546999931335449
-2.087980031967163 2.815540075302124 -10.557999610900879
-2.101979970932007 2.272540092468262 -10.555000305175781
-1.874979972839356 2.605540037155151 -10.555000305175781
-2.266979932785034 2.554539918899536 -10.571000099182129
-2.182980060577393 2.418540000915527 -10.572999954223633
-2.317980051040649 2.729540109634399 -10.590000152587891
-1.862980008125305 2.393539905548096 -10.579000473022461
-1.948979973793030 1.999539971351624 -10.586000442504883
-2.046979904174805 2.655539989471436 -10.604000091552734
-2.406980037689209 2.617539882659912 -10.623000144958496
-1.987980008125305 2.500540018081665 -10.623999595642090
-2.177979946136475 2.166539907455444 -10.626000404357910
-1.899979948997498 2.173540115356445 -10.630000114440918
-1.963979959487915 2.306540012359619 -10.654000282287598
-2.090980052947998 1.930539965629578 -10.654000282287598
-2.168979883193970 2.525540113449097 -10.682000160217285
-2.264980077743530 2.344540119171143 -10.699000358581543
-2.507980108261108 2.531539916992188 -10.708000183105469
-2.084980010986328 2.387540102005005 -10.704000473022461
-2.417979955673218 2.397540092468262 -10.715999603271484
-2.319979906082153 2.517539978027344 -10.725000381469727
-2.048979997634888 2.175539970397949 -10.725000381469727
-2.620980024337769 2.425539970397949 -10.746000289916992
-2.211980104446411 1.870540022850037 -10.737999916076660
-2.274980068206787 2.067539930343628 -10.751000404357910
-2.108979940414429 2.037539958953857 -10.762999534606934
-2.155980110168457 2.280539989471436 -10.789999961853027
-2.517980098724365 2.336539983749390 -10.815999984741211
-2.294980049133301 2.221539974212647 -10.838000297546387
-2.362979888916016 2.368540048599243 -10.850000381469727
-2.309979915618897 1.936540007591248 -10.848999977111816
-2.722980022430420 2.471539974212647 -10.862999916076660
-2.212980031967163 2.093539953231812 -10.885000228881836
-2.362979888916016 2.077539920806885 -10.888999938964844
-2.613980054855347 2.400540113449097 -10.942000389099121
-2.442980051040649 2.251539945602417 -10.958000183105469
-2.322979927062988 1.860540032386780 -11.000000000000000
-2.440979957580566 2.123539924621582 -11.034999847412109
-2.733979940414429 2.476540088653565 -11.043999671936035
-2.564980030059815 2.268539905548096 -11.052000045776367
-2.421979904174805 1.939540028572083 -11.079000473022461
-2.672980070114136 2.361540079116821 -11.114000320434570
-2.531980037689209 2.095540046691895 -11.161000251770020
-2.755980014801025 2.478539943695068 -11.194000244140625
-2.515980005264282 1.931540012359619 -11.194000244140625
-2.642980098724365 2.206540107727051 -11.211000442504883
-2.762979984283447 2.282540082931519 -11.262999534606934
-2.629980087280273 2.070539951324463 -11.291000366210938
-2.479979991912842 2.042540073394775 -11.291000366210938
-2.805979967117310 2.412539958953857 -11.319000244140625
-2.459980010986328 1.850540041923523 -11.309000015258789
-2.621979951858521 1.916540026664734 -11.314999580383301
-2.814980030059815 2.164540052413940 -11.364999771118164
-2.912980079650879 2.294539928436279 -11.371000289916992
-2.565979957580566 1.760540008544922 -11.359999656677246
-2.662980079650879 2.190540075302124 -11.378999710083008
-2.614979982376099 1.985540032386780 -11.446999549865723
-2.731980085372925 1.895539999008179 -11.449999809265137
-3.018980026245117 2.229540109634399 -11.461000442504883
-2.755980014801025 2.066540002822876 -11.461999893188477
-2.666980028152466 1.688539981842041 -11.479000091552734
-2.907979965209961 2.154540061950684 -11.520999908447266
-2.787980079650879 1.744539976119995 -11.548000335693359
-2.825979948043823 1.890540003776550 -11.564000129699707
-3.012979984283447 2.062540054321289 -11.569999694824219
-3.156980037689209 2.096539974212647 -11.616000175476074
-2.850980043411255 2.037539958953857 -11.621999740600586
-2.945980072021484 1.920539975166321 -11.649000167846680
-3.285979986190796 1.966539978981018 -11.664999961853027
-3.038980007171631 2.023540019989014 -11.713999748229980
-3.143980026245117 2.185539960861206 -11.765999794006348
-3.187979936599731 1.952540040016174 -11.788999557495117
-2.916980028152466 1.991539955139160 -11.793000221252441
-3.100980043411255 2.055540084838867 -11.847000122070313
-2.913980007171631 1.939540028572083 -11.935999870300293
-3.147979974746704 2.154540061950684 -11.973999977111816
-3.153980016708374 2.002540111541748 -12.017000198364258
-3.235980033874512 2.258539915084839 -12.064000129699707
-2.982980012893677 1.930539965629578 -12.081000328063965
-3.208980083465576 2.110539913177490 -12.100000381469727
-3.341979980468750 2.205539941787720 -12.173999786376953
