ply
format ascii 1.0
element vertex 554
property double x
property double y
property double z
end_header
-3.142980098724365 1.524539947509766 -10.069000244140625
-3.067980051040649 1.658540010452271 -10.064000129699707
-3.292979955673218 1.567540049552918 -9.941029548645020
-3.010979890823364 1.573539972305298 -10.171999931335449
-3.330980062484741 1.540539979934692 -9.794030189514160
-3.123980045318604 1.485540032386780 -9.917030334472656
-3.076980113983154 1.640540003776550 -9.909029960632324
-3.184979915618897 1.466539978981018 -9.747030258178711
-3.061980009078980 1.574540019035339 -9.778030395507813
-3.343980073928833 1.543540000915527 -9.640040397644043
-3.237979888916016 1.506539940834045 -9.516039848327637
-3.100980043411255 1.452540040016174 -9.550040245056152
-3.126980066299439 1.555539965629578 -9.414039611816406
-3.332979917526245 1.529539942741394 -9.401040077209473
-3.060980081558228 1.722540020942688 -9.685040473937988
-3.235980033874512 1.613540053367615 -9.295029640197754
-3.231980085372925 1.413540005683899 -9.359040260314941
-3.404979944229126 1.592540025711060 -9.287030220031738
-3.414979934692383 1.397539973258972 -9.382029533386231
-3.333980083465576 1.295539975166321 -9.307040214538574
-3.063980102539063 1.352540016174316 -9.672039985656738
-3.759979963302612 1.917539954185486 -9.723039627075195
-3.392980098724365 1.948539972305298 -9.718029975891113
-3.598979949951172 1.778540015220642 -9.794030189514160
-3.771980047225952 2.083539962768555 -9.815030097961426
-3.485980033874512 1.873540043830872 -9.818039894104004
-3.671979904174805 1.941540002822876 -9.853030204772949
-3.042979955673218 1.368540048599243 -9.836030006408691
-3.673979997634888 2.171540021896362 -9.905030250549316
-2.938980102539063 1.452540040016174 -9.915040016174316
-3.566979885101318 2.073539972305298 -9.942040443420410
-3.384979963302612 1.949540019035339 -9.949040412902832
-3.565979957580566 1.917539954185486 -9.959030151367188
-3.479979991912842 2.019540071487427 -10.062000274658203
-2.936980009078980 1.494539976119995 -10.060000419616699
-3.552979946136475 2.144540071487427 -10.095000267028809
-3.513979911804199 1.941540002822876 -10.182999610900879
-3.518980026245117 2.093539953231812 -10.234000205993652
-6.765979766845703 -0.831459999084473 -6.645030021667481
-7.231979846954346 -0.957459986209869 -6.495039939880371
-6.971980094909668 -0.937458992004395 -6.527029991149902
-7.313980102539063 -1.083459973335266 -6.542029857635498
-7.099979877471924 -0.841458022594452 -6.551030158996582
-7.107979774475098 -1.003460049629211 -6.562029838562012
-6.811979770660400 0.096541300415993 -6.580029964447022
-7.451980113983154 -1.092460036277771 -6.595039844512940
-6.667980194091797 0.240539997816086 -6.594029903411865
-6.528979778289795 0.161540001630783 -6.619040012359619
-7.243979930877686 -0.845459997653961 -6.627039909362793
-7.351980209350586 -0.965458989143372 -6.630040168762207
-7.514979839324951 -1.226459980010986 -6.632030010223389
-7.061979770660400 0.092541597783566 -6.635029792785645
-6.930980205535889 0.022539999336004 -6.640039920806885
-7.097980022430420 -0.733458995819092 -6.651040077209473
-6.666979789733887 0.102540001273155 -6.650030136108398
-6.765979766845703 -0.831459999084473 -6.645030021667481
-6.888979911804199 -0.932460010051727 -6.664040088653565
-6.958980083465576 -0.680459022521973 -6.668039798736572
-7.034979820251465 -0.952458024024963 -6.682040214538574
-7.563980102539063 -1.097460031509399 -6.695030212402344
-7.223979949951172 -1.025460004806519 -6.689040184020996
-6.512979984283447 0.336540997028351 -6.688029766082764
-7.187980175018311 0.035540498793125 -6.700039863586426
-7.472980022430420 -0.974460005760193 -6.717040061950684
-6.800980091094971 -0.037459500133991 -6.714029788970947
-7.696979999542236 -0.280460000038147 -6.736030101776123
-6.410980224609375 0.175540000200272 -6.714029788970947
-7.343979835510254 -1.114459991455078 -6.723040103912354
-7.853980064392090 -0.258459985256195 -6.741040229797363
-7.388979911804199 -0.843459010124207 -6.730040073394775
-7.332980155944824 -0.016459599137306 -6.737040042877197
-7.463980197906494 -0.103459000587463 -6.740029811859131
-6.821979999542236 -0.666459023952484 -6.726029872894287
-6.844979763031006 0.103541001677513 -6.734039783477783
-7.604979991912842 -1.279459953308106 -6.740029811859131
-6.528979778289795 0.080540500581264 -6.743030071258545
-7.203979969024658 -0.683458983898163 -6.756030082702637
-6.346980094909668 0.469539999961853 -6.748040199279785
-7.037980079650879 0.014540599659085 -6.760029792785645
-6.659979820251465 -0.870459973812103 -6.745039939880371
-6.606979846954346 0.233539998531342 -6.754030227661133
-7.010980129241943 -0.141460001468658 -6.760029792785645
-7.567979812622070 -0.215459004044533 -6.773029804229736
-7.348979949951172 -0.708459019660950 -6.774030208587647
-7.926980018615723 -0.381458997726440 -6.790040016174316
-7.468979835510254 -1.193459987640381 -6.774030208587647
-6.686979770660400 -0.710460007190704 -6.763030052185059
-7.499979972839356 -0.352459996938705 -6.787030220031738
-7.147980213165283 -0.084458500146866 -6.785029888153076
-7.669980049133301 -1.148460030555725 -6.789040088653565
-7.282979965209961 -0.150457993149757 -6.791029930114746
-7.101980209350586 -0.863460004329681 -6.784029960632324
-7.030980110168457 -0.530460000038147 -6.789040088653565
-6.315979957580566 0.277541011571884 -6.785029888153076
-7.148980140686035 -0.247458994388580 -6.798029899597168
-6.949979782104492 -0.815459012985229 -6.794030189514160
-7.386980056762695 -0.258459985256195 -6.812029838562012
-7.525979995727539 -0.832459986209869 -6.811039924621582
-7.315979957580566 -0.978459000587463 -6.806029796600342
-6.872980117797852 -0.498459994792938 -6.805029869079590
-8.066980361938477 -0.426459014415741 -6.831039905548096
-6.906980037689209 -0.027459299191833 -6.815030097961426
-6.796979904174805 -0.812458992004395 -6.808030128479004
-7.493979930877686 -0.497458994388580 -6.825039863586426
-7.742980003356934 -1.271460056304932 -6.826029777526856
-6.704979896545410 0.100541003048420 -6.817039966583252
-7.611979961395264 -0.975458979606628 -6.827030181884766
-6.432980060577393 0.370541006326675 -6.815030097961426
-7.784979820251465 -0.389459013938904 -6.838039875030518
-7.203979969024658 -0.485458999872208 -6.829030036926270
-6.721980094909668 -0.556459009647369 -6.820030212402344
-7.256979942321777 -0.345459997653961 -6.833030223846436
-6.627980232238770 -0.025458499789238 -6.824039936065674
-7.738979816436768 -0.544458985328674 -6.846030235290527
-7.858980178833008 -1.386459946632385 -6.846030235290527
-6.574979782104492 -0.510459005832672 -6.827030181884766
-7.236979961395264 -0.811460018157959 -6.842040061950684
-7.635980129241943 -0.423458993434906 -6.856040000915527
-7.805980205535889 -1.110460042953491 -6.861030101776123
-8.168979644775391 -0.531458973884583 -6.875030040740967
-6.329979896545410 0.100541003048420 -6.844029903411865
-7.441979885101318 -1.035459995269775 -6.858029842376709
-7.754980087280273 -0.959457993507385 -6.867030143737793
-7.349979877471924 -0.463459998369217 -6.864029884338379
-6.443980216979981 0.000540599983651 -6.852039813995361
-6.738979816436768 -0.377460002899170 -6.858029842376709
-7.535980224609375 -0.697458982467651 -6.872029781341553
-8.027979850769043 -0.593459010124207 -6.883039951324463
-6.540979862213135 -0.655460000038147 -6.852039813995361
-7.890979766845703 -1.243460059165955 -6.877039909362793
-7.019979953765869 -0.261458992958069 -6.869040012359619
-7.103980064392090 -0.640460014343262 -6.869040012359619
-6.891980171203613 -0.167458996176720 -6.869040012359619
-7.114980220794678 -0.374458998441696 -6.874030113220215
-6.492980003356934 0.230540007352829 -6.867030143737793
-7.978980064392090 -1.478459954261780 -6.886030197143555
-6.877980232238770 -0.316459000110626 -6.873040199279785
-7.901979923248291 -0.508459985256195 -6.895030021667481
-6.766980171203613 -0.033459801226854 -6.877039909362793
-7.560979843139648 -1.132459998130798 -6.886030197143555
-6.948979854583740 -0.615459024906158 -6.878029823303223
-7.404980182647705 -0.610459029674530 -6.889029979705811
-6.590980052947998 -0.361458986997604 -6.875030040740967
-7.255980014801025 -0.615459024906158 -6.887040138244629
-7.647980213165283 -0.839460015296936 -6.894040107727051
-6.792980194091797 -0.678460001945496 -6.881030082702637
-7.396979808807373 -0.849460005760193 -6.895030021667481
-6.229979991912842 0.205540999770164 -6.885029792785645
-7.602980136871338 -0.561460018157959 -6.907040119171143
-8.263979911804199 -0.645458996295929 -6.922039985656738
-6.977980136871338 -0.433459013700485 -6.900030136108398
-6.576980113983154 0.103541001677513 -6.897039890289307
-6.322979927062988 0.478540986776352 -6.895030021667481
-6.638979911804199 -0.756458997726440 -6.894040107727051
-7.931980133056641 -0.714460015296936 -6.921040058135986
-8.393980026245117 -0.727460026741028 -6.939040184020996
-8.128979682922363 -0.703459978103638 -6.934030055999756
-7.812980175018311 -0.817460000514984 -6.934030055999756
-6.463980197906494 -0.434459000825882 -6.916029930114746
-6.766980171203613 -0.227459996938705 -6.924029827117920
-7.522980213165283 -0.924458980560303 -6.934030055999756
-7.805980205535889 -0.636458992958069 -6.943039894104004
-7.997980117797852 -1.324460029602051 -6.945030212402344
-8.510979652404785 -0.817460000514984 -6.963039875030518
-7.668980121612549 -0.690459012985229 -6.947030067443848
-6.483980178833008 -0.275458008050919 -6.927030086517334
-7.881979942321777 -0.998459994792938 -6.951029777526856
-6.367980003356934 0.278539985418320 -6.931029796600342
-6.800980091094971 -0.500459015369415 -6.934030055999756
-7.967979907989502 -1.131459951400757 -6.953040122985840
-6.432980060577393 -0.595459997653961 -6.937029838562012
-8.029979705810547 -0.813458979129791 -6.972030162811279
-8.208979606628418 -0.855458021163940 -6.977039813995361
-6.649980068206787 -0.102459996938705 -6.953040122985840
-8.353980064392090 -0.881458997726440 -6.984039783477783
-6.663980007171631 -0.604458987712860 -6.954030036926270
-6.123980045318604 0.298541009426117 -6.958030223846436
-8.083979606628418 -1.447460055351257 -6.984039783477783
-8.639980316162109 -0.891460001468658 -7.001039981842041
-7.690979957580566 -1.063459992408752 -6.982029914855957
-6.358980178833008 -0.342460006475449 -6.966030120849609
-7.835979938507080 -1.355460047721863 -6.992030143737793
-6.410980224609375 0.105539999902248 -6.976029872894287
-6.673980236053467 -0.440459012985229 -6.978030204772949
-6.313980102539063 -0.197458997368813 -6.975029945373535
-6.522980213165283 -0.016459599137306 -6.983029842376709
-7.785980224609375 -1.205459952354431 -7.005040168762207
-6.267980098724365 0.368541002273560 -6.990029811859131
-6.621980190277100 -0.278459012508392 -6.992030143737793
-8.022979736328125 -1.006459951400757 -7.017029762268066
-7.764979839324951 -0.931459009647369 -7.015039920806885
-8.080980300903320 -1.207460045814514 -7.020030021667481
-6.530980110168457 -0.692460000514984 -6.996029853820801
-6.238979816436768 0.535539984703064 -7.009039878845215
-6.136980056762695 0.066540598869324 -7.009039878845215
-7.910980224609375 -0.883459985256195 -7.042029857635498
-6.521979808807373 -0.166458994150162 -7.023029804229736
-7.946979999542236 -1.435459971427918 -7.048029899597168
-6.174980163574219 -0.214460000395775 -7.023029804229736
-8.747980117797852 -0.961458981037140 -7.073029994964600
-6.001979827880859 0.370541006326675 -7.029039859771729
-6.227980136871338 -0.075459599494934 -7.030029773712158
-6.047979831695557 0.513540983200073 -7.032040119171143
-8.149979591369629 -1.335459947586060 -7.061039924621582
-6.337979793548584 -0.518458008766174 -7.035029888153076
-6.536980152130127 -0.460460007190704 -7.045030117034912
-8.363980293273926 -1.031460046768189 -7.078040122985840
-6.209980010986328 0.213540002703667 -7.044030189514160
-8.464980125427246 -0.907458007335663 -7.082029819488525
-8.578980445861816 -1.008460044860840 -7.084030151367188
-6.280980110168457 0.081540003418922 -7.048029899597168
-8.137980461120606 -1.582460045814514 -7.073029994964600
-6.392980098724365 -0.029460100457072 -7.051030158996582
-8.107979774475098 -0.892458975315094 -7.081039905548096
-8.163979530334473 -1.048460006713867 -7.082029819488525
-7.913980007171631 -1.182459950447083 -7.081039905548096
-6.235980033874512 -0.383459985256195 -7.063029766082764
-8.260979652404785 -0.926459014415741 -7.104030132293701
-6.082980155944824 -0.073458798229694 -7.067039966583252
-6.470980167388916 -0.328460007905960 -7.074039936065674
-6.147980213165283 0.628540992736816 -7.077030181884766
-6.159979820251465 0.429540991783142 -7.085040092468262
-6.452980041503906 -0.596459984779358 -7.083030223846436
-8.228980064392090 -1.209460020065308 -7.119040012359619
-6.003980159759522 0.097540698945522 -7.088039875030518
-6.393980026245117 -0.174458995461464 -7.096030235290527
-5.908979892730713 0.553539991378784 -7.103030204772949
-8.001979827880859 -1.303460001945496 -7.132030010223389
-5.890979766845703 0.299540013074875 -7.106040000915527
-8.225979804992676 -1.481459975242615 -7.145030021667481
-8.066980361938477 -1.451460003852844 -7.143030166625977
-6.006979942321777 -0.196459993720055 -7.112040042877197
-5.935979843139648 -0.044459499418736 -7.115029811859131
-8.107979774475098 -1.147459983825684 -7.176030158996582
-8.675979614257813 -1.012459993362427 -7.198029994964600
-8.568980216979981 -1.126459956169128 -7.197030067443848
-8.260979652404785 -1.072460055351257 -7.194029808044434
-8.444979667663574 -1.047459959983826 -7.209030151367188
-8.129980087280273 -1.321460008621216 -7.207029819488525
-8.839980125427246 -1.047459959983826 -7.232029914855957
-8.372980117797852 -1.335459947586060 -7.228030204772949
-6.018980026245117 0.397540003061295 -7.196040153503418
-6.052979946136475 0.648540973663330 -7.200039863586426
-6.319980144500732 -0.535458981990814 -7.196040153503418
-6.166979789733887 -0.089459501206875 -7.198029994964600
-5.762979984283447 0.491540014743805 -7.196040153503418
-8.238980293273926 -1.601459980010986 -7.230040073394775
-5.732979774475098 0.260540992021561 -7.194029808044434
-5.739980220794678 0.058541201055050 -7.195030212402344
-5.995979785919190 0.249540999531746 -7.202030181884766
-6.073979854583740 0.036539901047945 -7.202030181884766
-8.344980239868164 -1.499459981918335 -7.237040042877197
-6.279980182647705 -0.371459007263184 -7.204030036926270
-5.749979972839356 -0.111459001898766 -7.197030067443848
-5.878980159759522 -0.187459006905556 -7.202030181884766
-6.222980022430420 -0.225458994507790 -7.210040092468262
-8.711979866027832 -1.148460030555725 -7.255040168762207
-6.018980026245117 -0.309459000825882 -7.210040092468262
-8.365980148315430 -1.162459969520569 -7.263030052185059
-8.956979751586914 -1.128460049629211 -7.281030178070068
-8.487979888916016 -1.254459977149963 -7.271029949188232
-8.249979972839356 -1.261459946632385 -7.267029762268066
-5.598979949951172 0.092541597783566 -7.232029914855957
-5.650979995727539 0.373540014028549 -7.240029811859131
-8.232979774475098 -1.409459948539734 -7.283040046691895
-5.943980216979981 0.738541007041931 -7.254030227661133
-5.940979957580566 0.095539897680283 -7.261030197143555
-5.899980068206787 0.358539998531342 -7.275030136108398
-5.550980091094971 -0.052458900958300 -7.265039920806885
-5.446979999542236 0.105539999902248 -7.268030166625977
-8.456979751586914 -1.435459971427918 -7.318039894104004
-5.940979957580566 0.589541018009186 -7.283040046691895
-6.078979969024658 -0.174458995461464 -7.281030178070068
-6.187980175018311 -0.459457993507385 -7.291029930114746
-5.707980155944824 0.596540987491608 -7.291029930114746
-5.964980125427246 -0.048459198325872 -7.292029857635498
-8.704979896545410 -1.282459974288940 -7.342040061950684
-5.541979789733887 0.246540993452072 -7.291029930114746
-5.376979827880859 -0.028458699584007 -7.288030147552490
-8.423979759216309 -1.588459968566895 -7.338039875030518
-5.650979995727539 -0.164458006620407 -7.293039798736572
-5.277979850769043 0.090540796518326 -7.293039798736572
-8.598979949951172 -1.173460006713867 -7.351029872894287
-6.137979984283447 -0.313459008932114 -7.309030055999756
-8.567979812622070 -1.343459963798523 -7.356040000915527
-8.898980140686035 -1.251459956169128 -7.367030143737793
-8.806980133056641 -1.136459946632385 -7.368030071258545
-5.813980102539063 0.246540993452072 -7.320030212402344
-5.147980213165283 0.001540099969134 -7.308030128479004
-5.422979831695557 -0.174458995461464 -7.314040184020996
-4.855979919433594 0.087540499866009 -7.307040214538574
-5.803979873657227 0.082541398704052 -7.327030181884766
-9.037980079650879 -1.198459982872009 -7.383039951324463
-5.831980228424072 0.503540992736816 -7.335040092468262
-5.031980037689209 0.098540201783180 -7.316030025482178
-5.812980175018311 -0.260459005832672 -7.333030223846436
-5.048980236053467 -0.119460001587868 -7.321040153503418
-9.174980163574219 -1.271460056304932 -7.406030178070068
-5.560979843139648 0.450540989637375 -7.346030235290527
-5.955979824066162 -0.216457992792130 -7.352039813995361
-5.381979942321777 0.233539998531342 -7.345039844512940
-5.997980117797852 -0.358458995819092 -7.357029914855957
-5.822979927062988 -0.100459001958370 -7.357029914855957
-8.567979812622070 -1.491459965705872 -7.409029960632324
-4.955979824066162 0.250541001558304 -7.356040000915527
-4.948979854583740 -0.017458999529481 -7.357029914855957
-5.213980197906494 -0.139458999037743 -7.363039970397949
-4.737979888916016 0.174539998173714 -7.356040000915527
-5.870979785919190 0.785539984703064 -7.387040138244629
-5.689980030059815 -0.029460100457072 -7.381030082702637
-5.098979949951172 0.220540001988411 -7.371029853820801
-5.805980205535889 0.648540973663330 -7.390039920806885
-5.703979969024658 0.370541006326675 -7.389029979705811
-8.683979988098145 -1.395460009574890 -7.440030097961426
-4.822979927062988 0.318540990352631 -7.379030227661133
-9.038979530334473 -1.336459994316101 -7.455029964447022
-5.240980148315430 0.286540001630783 -7.393030166625977
-5.545979976654053 -0.137459993362427 -7.399030208587647
-5.687980175018311 -0.291458994150162 -7.405029773712158
-5.604979991912842 0.104541003704071 -7.407040119171143
-8.506979942321777 -1.632459998130798 -7.457029819488525
-5.703979969024658 0.749540984630585 -7.421040058135986
-5.492980003356934 0.004540299996734 -7.412030220031738
-5.616980075836182 0.252541005611420 -7.418039798736572
-8.766980171203613 -1.249459981918335 -7.472030162811279
-5.672979831695557 0.523540973663330 -7.429039955139160
-5.338980197906494 -0.077458500862122 -7.421040058135986
-5.058979988098145 0.359539985656738 -7.429039955139160
-9.243980407714844 -1.362460017204285 -7.511030197143555
-5.396979808807373 0.474541991949081 -7.450039863586426
-5.223979949951172 0.014540599659085 -7.448029994964600
-5.361979961395264 0.083540797233582 -7.453040122985840
-4.917980194091797 0.096541300415993 -7.444029808044434
-5.469979763031006 0.202539995312691 -7.459030151367188
-8.922980308532715 -1.248460054397583 -7.523029804229736
-5.446979999542236 0.670540988445282 -7.472030162811279
-8.631979942321777 -1.581459999084473 -7.519040107727051
-5.077980041503906 0.070540301501751 -7.466030120849609
-5.249979972839356 0.580541014671326 -7.474040031433106
-5.594979763031006 0.661539971828461 -7.482029914855957
-8.751979827880859 -1.489459991455078 -7.531030178070068
-4.696979999542236 0.348540008068085 -7.463039875030518
-8.833979606628418 -1.366459965705872 -7.534029960632324
-4.910980224609375 0.395541012287140 -7.468029975891113
-5.532979965209961 0.518540024757385 -7.489029884338379
-5.153979778289795 0.466540008783340 -7.481040000915527
-5.479979991912842 0.349541991949081 -7.489029884338379
-5.521979808807373 0.801540970802307 -7.495039939880371
-5.423980236053467 0.940541028976440 -7.503029823303223
-5.235980033874512 1.162539958953857 -7.503029823303223
-4.804979801177979 0.182539999485016 -7.487040042877197
-5.230979919433594 0.161540001630783 -7.499030113220215
-5.281980037689209 1.019539952278137 -7.520030021667481
-5.330979824066162 0.296539992094040 -7.517029762268066
-5.088980197906494 1.219539999961853 -7.520030021667481
-5.164979934692383 0.706539988517761 -7.519040107727051
-9.111980438232422 -1.320459961891174 -7.587029933929443
-4.943980216979981 1.244539976119995 -7.523029804229736
-9.357979774475098 -1.453459978103638 -7.593029975891113
-8.969980239868164 -1.379459977149963 -7.588039875030518
-5.016980171203613 0.491540014743805 -7.528029918670654
-5.089980125427246 0.211540997028351 -7.534029960632324
-5.125979900360107 1.057540059089661 -7.542029857635498
-8.599980354309082 -1.707460045814514 -7.610030174255371
-5.098979949951172 0.831539988517761 -7.559030055999756
-5.385980129241943 0.761539995670319 -7.571040153503418
-5.301980018615723 0.449539989233017 -7.571040153503418
-5.182980060577393 0.342541992664337 -7.571040153503418
-5.355979919433594 0.603541016578674 -7.579030036926270
-4.813980102539063 0.450540989637375 -7.569029808044434
-8.873979568481445 -1.491459965705872 -7.655029773712158
-4.900979995727539 0.268539994955063 -7.588039875030518
-8.710980415344238 -1.608459949493408 -7.658040046691895
-9.225979804992676 -1.377460002899170 -7.672039985656738
-5.304979801177979 0.882541000843048 -7.614029884338379
-5.035980224609375 0.333541005849838 -7.606040000915527
-4.616980075836182 0.357540994882584 -7.600029945373535
-9.446980476379395 -1.529459953308106 -7.684030055999756
-4.999979972839356 0.740540027618408 -7.618030071258545
-4.977980136871338 0.910539984703064 -7.620039939880371
-4.853980064392090 0.992541015148163 -7.631030082702637
-4.998980045318604 1.152539968490601 -7.641039848327637
-5.214980125427246 0.597540974617004 -7.642029762268066
-5.182980060577393 0.970539987087250 -7.646029949188232
-5.242980003356934 0.746541023254395 -7.648029804229736
-4.865980148315430 1.243540048599243 -7.654039859771729
-4.768980026245117 0.321539998054504 -7.645030021667481
-5.105979919433594 0.494540005922318 -7.656030178070068
-9.052980422973633 -1.376459956169128 -7.726029872894287
-4.877980232238770 0.811541020870209 -7.672039985656738
-4.924980163574219 0.410540014505386 -7.670030117034912
-9.341979980468750 -1.425459980964661 -7.748040199279785
-4.888979911804199 0.656540989875793 -7.683030128479004
-5.044980049133301 1.018540024757385 -7.694029808044434
-4.658979892730713 0.472541004419327 -7.683030128479004
-5.128980159759522 0.833540976047516 -7.703040122985840
-9.162980079650879 -1.469460010528565 -7.773029804229736
-8.979980468750000 -1.502460002899170 -7.770030021667481
-8.764980316162109 -1.521460056304932 -7.769040107727051
-5.090980052947998 0.646540999412537 -7.712029933929443
-9.526980400085449 -1.620460033416748 -7.790040016174316
-4.978980064392090 0.543540000915527 -7.726029872894287
-4.544980049133301 0.334540009498596 -7.727039813995361
-4.878980159759522 1.116539955139160 -7.742030143737793
-4.793980121612549 0.451541006565094 -7.738039970397949
-9.453980445861816 -1.498460054397583 -7.830029964447022
-9.327980041503906 -1.583459973335266 -7.837029933929443
-4.671279907226563 1.355209946632385 -7.766119956970215
-4.999979972839356 0.799539983272552 -7.769040107727051
-4.904980182647705 0.969539999961853 -7.773029804229736
-4.805980205535889 1.284540057182312 -7.782040119171143
-8.865980148315430 -1.601459980010986 -7.861030101776123
-9.251979827880859 -1.395460009574890 -7.874030113220215
-4.839980125427246 0.588540017604828 -7.805029869079590
-4.569980144500732 0.497539997100830 -7.805029869079590
-9.073980331420898 -1.426460027694702 -7.886030197143555
-9.440979957580566 -1.672459959983826 -7.897039890289307
-9.023980140686035 -1.565459966659546 -7.895030021667481
-8.912980079650879 -1.466459989547730 -7.896029949188232
-4.829979896545410 0.854541003704071 -7.843029975891113
-4.902979850769043 0.718541026115417 -7.844029903411865
-4.773980140686035 1.003540039062500 -7.847030162811279
-9.405980110168457 -1.394459962844849 -7.924029827117920
-4.780980110168457 1.156540036201477 -7.853030204772949
-4.451980113983154 0.316540986299515 -7.846030235290527
-4.697979927062988 0.561541020870209 -7.859039783477783
-9.576979637145996 -1.611459970474243 -7.961030006408691
-4.583199977874756 1.317459940910339 -7.887750148773193
-4.624509811401367 1.151360034942627 -7.890470027923584
-4.775979995727539 1.374539971351624 -7.901040077209473
-9.309980392456055 -1.616459965705872 -7.984039783477783
-4.773980140686035 0.689540028572083 -7.911039829254150
-9.480979919433594 -1.506459951400757 -7.997029781341553
-9.177980422973633 -1.440459966659546 -7.999030113220215
-8.920980453491211 -1.580459952354431 -8.000029563903809
-9.108980178833008 -1.577460050582886 -8.014030456542969
-9.007980346679688 -1.457460045814514 -8.017029762268066
-4.579979896545410 0.575541019439697 -7.949039936065674
-9.690979957580566 -1.665459990501404 -8.038029670715332
-4.677979946136475 0.998539984226227 -7.961030006408691
-4.731979846954346 0.834540009498596 -7.962029933929443
-4.710979938507080 1.243540048599243 -7.969029903411865
-4.525979995727539 1.431540012359619 -7.968029975891113
-9.452980041503906 -1.676460027694702 -8.044030189514160
-9.315979957580566 -1.452460050582886 -8.049030303955078
-4.579979896545410 0.864540994167328 -7.973040103912354
-4.666979789733887 1.393540024757385 -7.999030113220215
-4.503980159759522 0.710542023181915 -7.998040199279785
-4.347980022430420 1.466539978981018 -8.010029792785645
-4.468979835510254 0.495541006326675 -8.012040138244629
-4.654980182647705 0.717541992664337 -8.019040107727051
-4.534979820251465 1.018540024757385 -8.022040367126465
-4.386980056762695 0.370541006326675 -8.014030456542969
-4.415979862213135 1.329540014266968 -8.025030136108398
-4.643980026245117 1.144539952278137 -8.056030273437500
-9.620980262756348 -1.567459940910339 -8.150030136108398
-9.755979537963867 -1.729460000991821 -8.162030220031738
-9.460980415344238 -1.541460037231445 -8.158040046691895
-4.571979999542236 1.298539996147156 -8.087030410766602
-9.309980392456055 -1.574460029602051 -8.163029670715332
-9.171979904174805 -1.515460014343262 -8.161040306091309
-4.444980144500732 0.881541013717651 -8.088040351867676
-9.521980285644531 -1.700459957122803 -8.172039985656738
-4.117690086364746 1.568760037422180 -8.131050109863281
-9.749979972839356 -1.596459984779358 -8.232029914855957
-4.590980052947998 0.911539971828461 -8.150030136108398
-4.537980079650879 1.155539989471436 -8.157039642333984
-4.445980072021484 1.273540019989014 -8.158040046691895
-4.391980171203613 0.586540997028351 -8.152029991149902
-4.222980022430420 1.470540046691895 -8.160030364990234
-4.494979858398438 0.745540976524353 -8.166029930114746
-9.650979995727539 -1.744459986686707 -8.264030456542969
-4.327980041503906 1.358540058135986 -8.181030273437500
-4.250979900360107 0.532540023326874 -8.174030303955078
-4.364980220794678 0.963540017604828 -8.190030097961426
-4.189980030059815 1.305539965629578 -8.203040122985840
-9.555979728698731 -1.555459976196289 -8.305029869079590
-4.499979972839356 0.999540984630585 -8.236029624938965
-4.407979965209961 1.136540055274963 -8.238039970397949
-4.350979804992676 0.714541018009186 -8.238039970397949
-4.109980106353760 1.423539996147156 -8.246029853820801
-4.210979938507080 0.661539971828461 -8.256030082702637
-4.155980110168457 0.801540970802307 -8.260029792785645
-4.437980175018311 0.852540016174316 -8.269040107727051
-9.688980102539063 -1.586459994316101 -8.373040199279785
-4.286980152130127 1.224539995193481 -8.295029640197754
-9.779979705810547 -1.735460042953491 -8.386030197143555
-3.998980045318604 0.781540989875793 -8.310040473937988
-4.188980102539063 1.556540012359619 -8.324040412902832
-3.859980106353760 0.863541007041931 -8.327030181884766
-4.286980152130127 0.830541014671326 -8.336030006408691
-4.384980201721191 0.961540997028351 -8.356040000915527
-4.315979957580566 1.093539953231812 -8.362039566040039
-4.124539852142334 0.896956980228424 -8.391059875488281
-4.191979885101318 1.226539969444275 -8.417030334472656
-3.975600004196167 0.895601987838745 -8.414640426635742
-4.254980087280273 0.947540998458862 -8.439040184020996
-4.203979969024658 1.478539943695068 -8.459030151367188
-4.243979930877686 1.627539992332459 -8.474040031433106
-3.811980009078980 0.917540013790131 -8.460040092468262
-4.128980159759522 1.350540041923523 -8.475029945373535
-4.253980159759522 1.097540020942688 -8.508040428161621
-4.126979827880859 1.003540039062500 -8.525030136108398
-3.710979938507080 0.907540023326874 -8.583029747009277
-4.023980140686035 1.085540056228638 -8.594030380249023
-4.157979965209961 1.191540002822876 -8.601030349731445
-4.161980152130127 1.486539959907532 -8.609040260314941
-3.829979896545410 1.007539987564087 -8.607029914855957
-4.078979969024658 1.342540025711060 -8.617030143737793
-4.231979846954346 1.634539961814880 -8.626040458679199
-3.990979909896851 1.225540041923523 -8.644040107727051
-4.099979877471924 1.601539969444275 -8.689040184020996
-3.922980070114136 1.312540054321289 -8.742030143737793
-4.086979866027832 1.180539965629578 -8.749030113220215
-3.961980104446411 1.089540004730225 -8.748040199279785
-4.028979778289795 1.426540017127991 -8.754030227661133
-3.778980016708374 1.020539999008179 -8.751040458679199
-3.848979949951172 1.185539960861206 -8.795029640197754
-4.190979957580566 1.627539992332459 -8.824040412902832
-3.655980110168457 0.970539987087250 -8.825039863586426
-4.076980113983154 1.518540024757385 -8.876040458679199
-4.015979766845703 1.234539985656738 -8.875029563903809
-3.969980001449585 1.410539984703064 -8.913029670715332
-3.809979915618897 1.323539972305298 -8.927029609680176
-3.755980014801025 1.160539984703064 -8.947030067443848
-3.559979915618897 1.000540018081665 -8.962030410766602
-4.151979923248291 1.603539943695068 -8.985030174255371
-3.891979932785034 1.211539983749390 -8.978030204772949
-3.866980075836182 1.490540027618408 -8.983030319213867
-3.626980066299439 1.139539957046509 -9.024029731750488
-3.758980035781860 1.382539987564087 -9.055029869079590
-4.163980007171631 1.678539991378784 -9.113039970397949
-3.886980056762695 1.584540009498596 -9.112039566040039
-3.720979928970337 1.249539971351624 -9.107029914855957
-3.880980014801025 1.307540059089661 -9.115030288696289
-3.485980033874512 1.109539985656738 -9.108030319213867
-3.939980030059815 1.446539998054504 -9.134039878845215
-4.042980194091797 1.580539941787720 -9.141039848327637
-3.739979982376099 1.489539980888367 -9.161040306091309
-3.581979990005493 1.219539999961853 -9.160030364990234
-3.369980096817017 1.177539944648743 -9.172039985656738
-4.057980060577393 1.762539982795715 -9.224040031433106
-3.803980112075806 1.634539961814880 -9.228030204772949
-3.958980083465576 1.646540045738220 -9.243029594421387
-3.823980093002319 1.362540006637573 -9.239029884338379
-3.673979997634888 1.322540044784546 -9.250029563903809
-3.467979907989502 1.252539992332459 -9.252039909362793
-3.861979961395264 1.502539992332459 -9.270030021667481
-3.951980113983154 1.856539964675903 -9.275030136108398
-3.643980026245117 1.484539985656738 -9.289039611816406
-3.868979930877686 1.740540027618408 -9.330030441284180
-3.765980005264282 1.563539981842041 -9.386030197143555
-3.728980064392090 1.711539983749390 -9.403030395507813
-3.718980073928833 1.416540026664734 -9.406029701232910
