ply
format ascii 1.0
element vertex 660
property double x
property double y
property double z
end_header
-3.347980022430420 1.460540056228638 -7.523029804229736
-3.365979909896851 1.563539981842041 -7.376039981842041
-3.221980094909668 1.497539997100830 -7.424029827117920
-3.318979978561401 1.363540053367615 -7.393030166625977
-3.153980016708374 1.468539953231812 -7.215030193328857
-3.271980047225952 1.377539992332459 -7.252039909362793
-3.195980072021484 1.255540013313294 -7.202030181884766
-3.281980037689209 1.231539964675903 -7.323029994964600
-3.401979923248291 1.238540053367615 -7.424029827117920
-3.456979990005493 1.352540016174316 -7.517029762268066
2.371020078659058 4.304540157318115 -1.235030055046082
2.649019956588745 4.421539783477783 -1.125040054321289
2.803020000457764 4.422540187835693 -1.145040035247803
2.010020017623901 4.244540214538574 -1.207030057907105
2.282020092010498 4.190539836883545 -1.209040045738220
1.859019994735718 4.264540195465088 -1.231040000915527
2.590019941329956 4.285540103912354 -1.218029975891113
2.371020078659058 4.304540157318115 -1.235030055046082
1.714020013809204 4.220540046691895 -1.256039977073669
2.850019931793213 4.318540096282959 -1.239030003547669
2.450020074844360 4.142539978027344 -1.249029994010925
2.530019998550415 4.464540004730225 -1.251039981842041
2.129019975662231 4.154540061950684 -1.261029958724976
2.729020118713379 4.220540046691895 -1.256039977073669
2.881020069122315 4.165540218353272 -1.265040040016174
3.171020030975342 4.180540084838867 -1.279039978981018
1.984019994735718 4.133540153503418 -1.309030055999756
2.215019941329956 4.273540019989014 -1.313040018081665
2.945019960403442 4.411540031433106 -1.316030025482178
3.318020105361939 4.172540187835693 -1.310029983520508
2.605020046234131 4.146540164947510 -1.332030057907105
1.622020006179810 4.175539970397949 -1.363039970397949
2.495019912719727 4.326539993286133 -1.348039984703064
1.843019962310791 4.119540214538574 -1.361039996147156
2.498019933700562 4.572539806365967 -1.355039954185486
2.024019956588745 4.297540187835693 -1.376039981842041
1.800019979476929 4.275539875030518 -1.381039977073669
3.466020107269287 4.164539813995361 -1.346029996871948
2.210020065307617 4.098539829254150 -1.376039981842041
2.357019901275635 4.099540233612061 -1.385030031204224
2.362020015716553 4.347539901733398 -1.413030028343201
2.585020065307617 4.428540229797363 -1.420029997825623
2.812020063400269 4.289539813995361 -1.425040006637573
1.419020056724548 4.067540168762207 -1.464030027389526
1.566020011901856 4.068540096282959 -1.465039968490601
2.055020093917847 4.076539993286133 -1.467039942741394
2.173019886016846 4.332540035247803 -1.469030022621155
2.487020015716553 4.111539840698242 -1.464030027389526
1.919020056724548 4.321539878845215 -1.479040026664734
1.680019974708557 4.289539813995361 -1.485030055046082
2.892019987106323 4.407539844512940 -1.463029980659485
2.479020118713379 4.655539989471436 -1.483029961585999
1.765020012855530 4.089540004730225 -1.501039981842041
3.010020017623901 4.554540157318115 -1.503029942512512
2.204020023345947 4.050539970397949 -1.526029944419861
2.482019901275635 4.458539962768555 -1.529039978981018
1.915019989013672 4.083539962768555 -1.554029941558838
2.330019950866699 4.395540237426758 -1.549039959907532
1.531020045280457 4.244540214538574 -1.568029999732971
2.039020061492920 4.356540203094482 -1.567029953002930
1.802019953727722 4.329539775848389 -1.572029948234558
1.320019960403442 4.084539890289307 -1.590039968490601
2.203020095825195 4.424540042877197 -1.619040012359619
1.394019961357117 4.216539859771729 -1.637030005455017
1.468019962310791 4.060540199279785 -1.635030031204224
2.067019939422607 4.077539920806885 -1.627040028572083
1.664019942283630 4.308539867401123 -1.647040009498596
1.684020042419434 4.084539890289307 -1.651029944419861
2.410020112991333 4.693540096282959 -1.651029944419861
2.388020038604736 4.504539966583252 -1.667039990425110
1.913020014762878 4.378540039062500 -1.682039976119995
1.826020002365112 4.101540088653565 -1.684030055999756
0.899020016193390 4.015540122985840 -1.703040003776550
1.261019945144653 4.163539886474609 -1.708039999008179
0.750018000602722 4.010540008544922 -1.721029996871948
1.136019945144653 4.071539878845215 -1.725029945373535
2.080019950866699 4.444540023803711 -1.713029980659485
1.010020017623901 3.905539989471436 -1.752040028572083
1.762019991874695 4.376540184020996 -1.741029977798462
0.495016008615494 3.951539993286133 -1.765040040016174
1.372020006179810 4.072539806365967 -1.753029942512512
2.252019882202148 4.510540008544922 -1.740030050277710
1.537019968032837 4.100540161132813 -1.768030047416687
1.447020053863525 4.281539916992188 -1.772040009498596
1.595020055770874 4.341539859771729 -1.777040004730225
2.376019954681397 4.621540069580078 -1.775030016899109
1.010020017623901 4.053540229797363 -1.804029941558838
0.347018003463745 3.947540044784546 -1.825029969215393
1.711019992828369 4.138539791107178 -1.805040001869202
1.311020016670227 4.257540225982666 -1.825029969215393
1.163020014762878 4.181540012359619 -1.828040003776550
0.634019970893860 3.993540048599243 -1.840039968490601
1.978019952774048 4.520540237426758 -1.820039987564087
0.180017992854118 3.917540073394775 -1.865030050277710
0.843020021915436 4.033539772033691 -1.855039954185486
2.124020099639893 4.579539775848389 -1.838029980659485
2.374020099639893 4.886539936065674 -1.858029961585999
0.356016993522644 3.767539978027344 -1.897040009498596
1.836019992828369 4.554540157318115 -1.874029994010925
1.443019986152649 4.122539997100830 -1.880030035972595
1.701020002365112 4.475540161132813 -1.878029942512512
1.267019987106323 4.079539775848389 -1.886029958724976
1.493020057678223 4.372539997100830 -1.902040004730225
1.102020025253296 4.007540225982666 -1.915030002593994
1.930019974708557 4.662539958953857 -1.908030033111572
1.634019970893860 4.202539920806885 -1.915030002593994
1.059020042419434 4.175539970397949 -1.939039945602417
1.551020026206970 4.502540111541748 -1.942029953002930
1.233019948005676 4.266540050506592 -1.953040003776550
1.775020003318787 4.686540126800537 -1.946040034294128
0.069017797708511 3.894540071487427 -1.979040026664734
1.637019991874695 4.628540039062500 -1.955029964447022
0.302020013332367 3.940540075302124 -1.980039954185486
0.734018981456757 4.034540176391602 -1.972040057182312
0.469018995761871 3.956540107727051 -1.980039954185486
2.073019981384277 4.693540096282959 -1.958039999008179
0.911017000675201 4.119540214538574 -2.007040023803711
1.319020032882690 4.155539989471436 -2.001039981842041
1.503020048141480 4.240540027618408 -2.000040054321289
2.191020011901856 4.780539989471436 -1.991029977798462
2.278019905090332 4.928540229797363 -1.996029973030090
1.488019943237305 4.629539966583252 -2.010030031204224
1.175019979476929 4.095540046691895 -2.020040035247803
1.400020003318787 4.501540184020996 -2.024029970169067
1.654019951820374 4.763539791107178 -2.026030063629150
1.308019995689392 4.374539852142334 -2.031029939651489
0.604017972946167 3.999540090560913 -2.044029951095581
1.928020000457764 4.808539867401123 -2.033030033111572
1.532019972801209 4.924540042877197 -2.049040079116821
1.679020047187805 4.967539787292481 -2.050040006637573
-0.063981600105762 3.870539903640747 -2.077039957046509
1.589020013809204 5.093540191650391 -2.057039976119995
2.064019918441773 4.866539955139160 -2.048039913177490
1.141020059585571 4.284540176391602 -2.066030025482178
0.200018003582954 3.886539936065674 -2.086030006408691
1.832020044326782 4.962540149688721 -2.065030097961426
1.484019994735718 4.782539844512940 -2.071039915084839
1.259019970893860 4.509540081024170 -2.074029922485352
1.349020004272461 4.678540229797363 -2.074029922485352
1.363019943237305 4.895540237426758 -2.092040061950684
0.994017004966736 4.212540149688721 -2.094029903411865
0.389016985893250 3.913539886474609 -2.109030008316040
1.180019974708557 4.684539794921875 -2.108030080795288
0.338019013404846 3.776540040969849 -2.123029947280884
1.115020036697388 4.538539886474609 -2.128030061721802
0.828016996383667 4.104539871215820 -2.139039993286133
0.059019498527050 3.883539915084839 -2.162029981613159
1.013020038604736 4.691539764404297 -2.152040004730225
1.023020029067993 4.376540184020996 -2.150029897689819
0.952017009258270 4.502540111541748 -2.176029920578003
0.668017029762268 4.048540115356445 -2.195039987564087
0.545019984245300 3.968539953231812 -2.200030088424683
0.820016980171204 4.585539817810059 -2.200030088424683
0.897017002105713 4.270540237426758 -2.201040029525757
0.828016996383667 4.425539970397949 -2.225029945373535
-0.186983004212379 3.849539995193481 -2.243040084838867
0.904016971588135 4.808539867401123 -2.233030080795288
0.703016996383667 4.506539821624756 -2.246030092239380
0.621020019054413 4.684539794921875 -2.253030061721802
0.748018980026245 4.763539791107178 -2.258039951324463
0.748018980026245 4.253540039062500 -2.270040035247803
0.267019987106323 3.840539932250977 -2.277040004730225
-0.331983000040054 3.855540037155151 -2.298039913177490
0.561017990112305 4.491539955139160 -2.288029909133911
0.119016997516155 3.826539993286133 -2.292040109634399
0.419019997119904 4.552539825439453 -2.294029951095581
0.276019006967545 4.594540119171143 -2.299040079116821
-0.035981800407171 3.813539981842041 -2.313040018081665
0.639016985893250 4.367539882659912 -2.305039882659912
0.418016999959946 3.924540042877197 -2.308029890060425
0.628019988536835 4.145540237426758 -2.332030057907105
0.531019985675812 4.014540195465088 -2.340039968490601
0.490018993616104 4.670539855957031 -2.349040031433106
0.392019987106323 4.379539966583252 -2.358030080795288
0.262019008398056 4.462540149688721 -2.370039939880371
0.534017980098724 4.270540237426758 -2.363039970397949
0.209016993641853 3.764539957046509 -2.394030094146729
0.337018996477127 4.232540130615234 -2.422029972076416
-0.283982992172241 3.738539934158325 -2.432039976119995
0.445017009973526 4.116539955139160 -2.429029941558838
0.210016995668411 4.330540180206299 -2.441030025482178
-0.429982990026474 3.749540090560913 -2.450030088424683
-0.125982001423836 3.728539943695068 -2.444040060043335
0.069017797708511 3.749540090560913 -2.442029953002930
0.339017987251282 4.598539829254150 -2.452039957046509
-0.074983201920986 4.418540000915527 -2.460040092468262
0.067018896341324 4.347539901733398 -2.472039937973023
0.362017005681992 3.997539997100830 -2.466039896011353
0.189016997814178 4.179540157318115 -2.483030080795288
-0.542981982231140 3.613539934158325 -2.515039920806885
0.259020000696182 3.879539966583252 -2.507040023803711
0.214018002152443 4.032539844512940 -2.515039920806885
-0.038980100303888 4.254539966583252 -2.525029897689819
0.248018994927406 4.461540222167969 -2.523030042648315
-0.396982014179230 3.635540008544922 -2.548039913177490
0.048017900437117 4.104539871215820 -2.557039976119995
-0.668981015682220 3.527539968490601 -2.568030118942261
-0.000981900026090 3.685539960861206 -2.562040090560913
-0.172983005642891 4.407539844512940 -2.579030036926270
0.162019997835159 3.729540109634399 -2.581029891967773
0.099016599357128 3.965539932250977 -2.593029975891113
0.134020000696182 4.401539802551270 -2.605040073394775
-0.769982993602753 3.426539897918701 -2.623029947280884
-0.489980012178421 3.524539947509766 -2.634040117263794
-0.131981998682022 4.122539997100830 -2.640039920806885
-0.874981999397278 3.315540075302124 -2.653039932250977
-0.038980100303888 3.996540069580078 -2.644030094146729
-0.027982300147414 4.463540077209473 -2.652040004730225
-0.198980003595352 3.596539974212647 -2.649029970169067
-0.607980012893677 3.398540019989014 -2.659039974212647
-0.200983002781868 4.288539886474609 -2.664030075073242
0.051020100712776 3.842540025711060 -2.667040109634399
-0.083982102572918 3.695539951324463 -2.696039915084839
-0.243982002139091 4.425539970397949 -2.715039968490601
-0.392980009317398 3.455539941787720 -2.721029996871948
-0.718980014324188 3.260540008544922 -2.743040084838867
0.075018301606178 3.700540065765381 -2.736040115356445
-0.295980006456375 3.561539888381958 -2.754029989242554
-0.936982989311218 3.232539892196655 -2.770040035247803
-0.210980996489525 4.080540180206299 -2.764039993286133
-0.138981997966766 3.951539993286133 -2.772039890289307
-0.529981017112732 3.472539901733398 -2.788029909133911
-0.145981997251511 3.572540044784546 -2.788029909133911
-0.687982022762299 3.394540071487427 -2.804029941558838
-0.059980001300573 3.830539941787720 -2.799040079116821
-0.282983005046844 4.218540191650391 -2.827039957046509
-0.822979986667633 3.292540073394775 -2.847039937973023
-0.304982990026474 4.375539779663086 -2.846029996871948
-0.047982800751925 3.670540094375610 -2.840039968490601
-0.568983018398285 3.310539960861206 -2.852030038833618
-0.197980001568794 3.699539899826050 -2.857029914855957
-0.852982997894287 3.094540119171143 -2.899029970169067
-0.251980990171433 3.906539916992188 -2.898030042648315
-0.365979999303818 4.104539871215820 -2.904040098190308
-0.412981003522873 3.489540100097656 -2.902040004730225
-0.993982017040253 3.133539915084839 -2.918040037155151
-0.721983015537262 3.176539897918701 -2.915030002593994
-0.248982995748520 3.538539886474609 -2.932039976119995
-0.716982007026672 3.340539932250977 -2.941030025482178
-0.314981013536453 3.759540081024170 -2.943030118942261
-0.377981007099152 4.250539779663086 -2.959039926528931
-0.393983006477356 3.905539989471436 -2.973040103912354
-0.586979985237122 3.399539947509766 -2.977030038833618
-0.465981990098953 4.039539813995361 -3.003030061721802
-0.879984021186829 3.192539930343628 -3.006040096282959
-1.089980006217957 3.012540102005005 -3.011029958724976
-0.149979993700981 3.715539932250977 -3.001039981842041
-0.357980012893677 3.630539894104004 -3.007040023803711
-0.908982992172241 3.042540073394775 -3.033030033111572
-0.448980003595352 3.513540029525757 -3.047029972076416
-0.499981999397278 4.181540012359619 -3.059030055999756
-0.431982010602951 3.764539957046509 -3.057039976119995
-1.069980025291443 2.856539964675903 -3.075030088424683
-0.226980000734329 3.913539886474609 -3.072030067443848
-0.618982017040253 3.269540071487427 -3.075030088424683
-0.774980008602142 3.265539884567261 -3.084039926528931
-0.308981001377106 4.034540176391602 -3.086030006408691
-0.283982992172241 3.731539964675903 -3.084039926528931
-1.025979995727539 3.121540069580078 -3.102030038833618
-0.527981996536255 3.384540081024170 -3.121030092239380
-0.514981985092163 3.659539937973023 -3.127039909362793
-0.810983002185822 3.113539934158325 -3.132040023803711
-0.390980988740921 3.904540061950684 -3.132040023803711
-0.670979976654053 4.165540218353272 -3.141040086746216
-0.539982974529266 3.883539915084839 -3.138040065765381
-0.694981992244720 3.425539970397949 -3.146039962768555
-0.562982022762299 4.043540000915527 -3.176029920578003
-0.681981980800629 3.946540117263794 -3.179029941558838
-0.977982997894287 3.004539966583252 -3.180039882659912
-0.626981019973755 3.767539978027344 -3.185029983520508
-0.584981977939606 3.514539957046509 -3.185029983520508
-0.769982993602753 4.061540126800537 -3.203039884567261
-0.739979982376099 3.677540063858032 -3.226030111312866
-1.129979968070984 2.852540016174316 -3.228029966354370
-0.880982995033264 3.202539920806885 -3.238039970397949
-0.805981993675232 3.340539932250977 -3.240030050277710
-0.806981980800629 3.874540090560913 -3.246030092239380
-1.108979940414429 3.007539987564087 -3.246030092239380
-0.654981017112732 3.331540107727051 -3.253030061721802
-0.721983015537262 3.521539926528931 -3.270040035247803
-0.893983006477356 3.748539924621582 -3.287029981613159
-0.852982997894287 3.594540119171143 -3.294029951095581
-0.595983028411865 3.625540018081665 -3.289030075073242
-0.913980007171631 3.056540012359619 -3.302030086517334
-1.354979991912842 3.788539886474609 -3.347039937973023
-1.143980026245117 2.713540077209473 -3.340039968490601
-1.190979957580566 3.648540019989014 -3.377039909362793
-1.053979992866516 3.113539934158325 -3.374030113220215
-0.721983015537262 3.648540019989014 -3.376039981842041
-0.998983025550842 3.684540033340454 -3.383039951324463
-0.869980990886688 3.201539993286133 -3.388040065765381
-1.138980031013489 2.848540067672730 -3.398030042648315
-0.934979975223541 3.484539985656738 -3.401030063629150
-1.081979990005493 3.542540073394775 -3.408030033111572
-1.148980021476746 2.999540090560913 -3.409039974212647
-0.841982007026672 3.348540067672730 -3.411040067672730
-1.332980036735535 3.655539989471436 -3.430039882659912
-0.699983000755310 3.396539926528931 -3.433029890060425
-0.859983026981354 3.611540079116821 -3.441030025482178
-1.203979969024658 2.726540088653565 -3.477030038833618
-0.975979983806610 3.247539997100830 -3.485029935836792
-1.036980032920837 3.410540103912354 -3.497030019760132
-1.400979995727539 3.774539947509766 -3.509040117263794
-1.295979976654053 3.522540092468262 -3.533030033111572
-1.211979985237122 3.663539886474609 -3.535039901733398
-1.242980003356934 2.852540016174316 -3.548039913177490
-0.813982009887695 3.484539985656738 -3.559030055999756
-1.167979955673218 3.425539970397949 -3.567029953002930
-1.102980017662048 3.133539915084839 -3.564039945602417
-1.088979959487915 3.553539991378784 -3.570039987564087
-1.186980009078980 3.012540102005005 -3.582030057907105
-1.355980038642883 3.650540113449097 -3.598040103912354
-0.987981021404266 3.462539911270142 -3.626039981842041
-1.059980034828186 3.301539897918701 -3.627039909362793
-1.279979944229126 2.726540088653565 -3.632040023803711
-1.246979951858521 3.322540044784546 -3.655030012130737
-1.219980001449585 2.562540054321289 -3.651030063629150
-1.212980031967163 3.557539939880371 -3.665030002593994
-0.907983005046844 3.317539930343628 -3.657030105590820
-1.401980042457581 3.762540102005005 -3.685029983520508
-1.326979994773865 3.460540056228638 -3.689039945602417
-1.121979951858521 3.195539951324463 -3.712029933929443
-1.320979952812195 2.846539974212647 -3.733030080795288
-1.087980031967163 3.395539999008179 -3.737040042877197
-1.249979972839356 3.041539907455444 -3.746030092239380
-1.308979988098145 2.629539966583252 -3.750040054321289
-1.305979967117310 3.266540050506592 -3.780030012130737
-1.378980040550232 3.614540100097656 -3.797029972076416
-1.231979966163635 3.392539978027344 -3.819040060043335
-1.382979989051819 3.438539981842041 -3.825030088424683
-1.421980023384094 3.751539945602417 -3.842040061950684
-1.384979963302612 2.749540090560913 -3.835040092468262
-1.209980010986328 3.155539989471436 -3.837029933929443
-1.347980022430420 2.969540119171143 -3.843029975891113
-1.244979977607727 2.533540010452271 -3.851030111312866
-1.402979969978333 3.299540042877197 -3.900029897689819
-1.188979983329773 3.282540082931519 -3.911040067672730
-1.361979961395264 2.619539976119995 -3.919029951095581
-1.411980032920837 3.538539886474609 -3.932039976119995
-1.264979958534241 3.058540105819702 -3.937040090560913
-1.446979999542236 3.683540105819702 -3.971029996871948
-1.467980027198792 2.783540010452271 -3.969029903411865
-1.437980055809021 2.951539993286133 -3.972039937973023
-1.390980005264282 3.144540071487427 -3.974040031433106
-1.460980057716370 3.401540040969849 -3.998029947280884
-1.295979976654053 2.488539934158325 -4.010029792785645
-1.243980050086975 3.182539939880371 -4.015039920806885
-1.492980003356934 3.253540039062500 -4.029039859771729
-1.327980041503906 3.332540035247803 -4.053030014038086
-1.462980031967163 2.645539999008179 -4.057040214538574
-1.501979947090149 3.114540100097656 -4.088029861450195
-1.508980035781860 3.619539976119995 -4.099040031433106
-1.407979965209961 3.512540102005005 -4.098040103912354
-1.542979955673218 2.774539947509766 -4.098040103912354
-1.346979975700378 2.965539932250977 -4.100029945373535
-1.394979953765869 2.814539909362793 -4.103030204772949
-1.512979984283447 3.363539934158325 -4.135029792785645
-1.402979969978333 2.530539989471436 -4.136030197143555
-1.529979944229126 2.950540065765381 -4.149030208587647
-1.313979983329773 3.130539894104004 -4.148029804229736
-1.568979978561401 3.230540037155151 -4.165030002593994
-1.476979970932007 3.752540111541748 -4.170030117034912
-1.401980042457581 3.285540103912354 -4.202040195465088
-1.519979953765869 2.635540008544922 -4.201039791107178
-1.286980032920837 2.439539909362793 -4.216040134429932
-1.562980055809021 3.545540094375610 -4.231040000915527
-1.654979944229126 3.079540014266968 -4.247029781341553
-1.418980002403259 2.844540119171143 -4.253029823303223
-1.395980000495911 3.038539886474609 -4.261030197143555
-1.615980029106140 2.771539926528931 -4.266039848327637
-1.384979963302612 2.645539999008179 -4.265039920806885
-1.508980035781860 3.353539943695068 -4.286039829254150
-1.596979975700378 2.918540000915527 -4.308030128479004
-1.639979958534241 3.287539958953857 -4.316030025482178
-1.626979947090149 3.448539972305298 -4.329030036926270
-1.468979954719544 3.185539960861206 -4.328040122985840
-1.510980010032654 3.664540052413940 -4.343029975891113
-1.471979975700378 2.552540063858032 -4.340040206909180
-1.729979991912842 3.166539907455444 -4.356040000915527
-1.640980005264282 3.601540088653565 -4.379030227661133
-1.735980033874512 3.004539966583252 -4.380030155181885
-1.456979990005493 2.725539922714233 -4.372029781341553
-1.669980049133301 2.676539897918701 -4.385029792785645
-1.355980038642883 2.468539953231812 -4.380030155181885
-1.701979994773865 2.830539941787720 -4.391039848327637
-1.487980008125305 3.041539907455444 -4.390039920806885
-1.728979945182800 3.370539903640747 -4.400030136108398
-1.582980036735535 3.209539890289307 -4.435029983520508
-1.780979990959168 3.530539989471436 -4.444039821624756
-1.573979973793030 2.535540103912354 -4.447030067443848
-1.804980039596558 3.251539945602417 -4.459040164947510
-1.829980015754700 3.093539953231812 -4.470029830932617
-1.487980008125305 2.853539943695068 -4.462029933929443
-1.859979987144470 3.404540061950684 -4.491030216217041
-1.591979980468750 3.018539905548096 -4.495039939880371
-1.863980054855347 2.949539899826050 -4.510029792785645
-1.750980019569397 2.667540073394775 -4.509039878845215
-1.699980020523071 3.151540040969849 -4.513040065765381
-1.765980005264282 2.817539930343628 -4.527040004730225
-1.929980039596558 3.192539930343628 -4.539030075073242
-1.993980050086975 3.347539901733398 -4.560029983520508
-1.731979966163635 3.001539945602417 -4.563039779663086
-1.677979946136475 2.543540000915527 -4.567029953002930
-1.452980041503906 2.459539890289307 -4.570040225982666
-1.578979969024658 2.853539943695068 -4.578040122985840
-1.382979989051819 2.612540006637573 -4.572030067443848
-1.970980048179627 3.030539989471436 -4.594029903411865
-1.479979991912842 2.728539943695068 -4.595029830932617
-2.054980039596558 3.190540075302124 -4.618040084838867
-2.125979900360107 3.342540025711060 -4.626039981842041
-1.841979980468750 2.723540067672730 -4.616030216217041
-1.313979983329773 2.416539907455444 -4.620039939880371
-1.905979990959168 2.855540037155151 -4.659039974212647
-2.239979982376099 3.266540050506592 -4.688029766082764
-1.579980015754700 2.457540035247803 -4.679039955139160
-2.135979890823364 3.095540046691895 -4.700039863586426
-2.071979999542236 2.944540023803711 -4.701029777526856
-1.763980031013489 2.517539978027344 -4.695030212402344
-1.614979982376099 2.789540052413940 -4.711030006408691
-1.881979942321777 2.602540016174316 -4.715030193328857
-1.749979972839356 2.858540058135986 -4.721030235290527
-1.928979992866516 2.737540006637573 -4.750030040740967
-1.407979965209961 2.428539991378784 -4.739029884338379
-2.262979984283447 3.123539924621582 -4.790040016174316
-2.047980070114136 2.826539993286133 -4.786039829254150
-1.522979974746704 2.680540084838867 -4.776040077209473
-2.582979917526245 3.088540077209473 -4.805029869079590
-2.201980113983154 2.968539953231812 -4.800039768218994
-1.921980023384094 2.898540019989014 -4.811039924621582
-2.405980110168457 3.059540033340454 -4.827030181884766
-2.649980068206787 2.959539890289307 -4.836030006408691
-1.689980030059815 2.439539909362793 -4.816030025482178
-1.966979980468750 2.562540054321289 -4.844029903411865
-1.827980041503906 2.491539955139160 -4.856040000915527
-1.664980053901672 2.721539974212647 -4.860030174255371
-2.732980012893677 2.849539995193481 -4.889029979705811
-1.542979955673218 2.423540115356445 -4.862040042877197
-2.323980093002319 2.938539981842041 -4.884039878845215
-1.810979962348938 2.764539957046509 -4.876039981842041
-1.440979957580566 2.535540103912354 -4.869040012359619
-2.509979963302612 2.986540079116821 -4.908040046691895
-2.174979925155640 2.806540012359619 -4.900030136108398
-2.440979957580566 2.848540067672730 -4.933030128479004
-1.960980057716370 2.796540021896362 -4.928040027618408
-2.042979955673218 2.658540010452271 -4.931029796600342
-1.576979994773865 2.599539995193481 -4.936039924621582
-1.930979967117310 2.494539976119995 -4.970039844512940
-2.619980096817017 2.853539943695068 -4.988039970397949
-1.742980003356934 2.675539970397949 -4.980040073394775
-2.686980009078980 2.716540098190308 -5.001039981842041
-2.273979902267456 2.857539892196655 -4.997029781341553
-1.729979991912842 2.396539926528931 -4.987040042877197
-2.835979938507080 2.788539886474609 -5.014029979705811
-2.369980096817017 2.741539955139160 -5.012040138244629
-2.082979917526245 2.771539926528931 -5.018030166625977
-2.121979951858521 2.539540052413940 -5.021029949188232
-1.584980010986328 2.401540040969849 -5.019040107727051
-1.878980040550232 2.724539995193481 -5.028029918670654
-2.236979961395264 2.673540115356445 -5.051030158996582
-2.509979963302612 2.786540031433106 -5.071040153503418
-1.686980009078980 2.558540105819702 -5.054039955139160
-1.859979987144470 2.404540061950684 -5.062029838562012
-2.025979995727539 2.430540084838867 -5.089029788970947
-2.572979927062988 2.656539916992188 -5.109039783477783
-2.414979934692383 2.623539924621582 -5.120039939880371
-1.820979952812195 2.569540023803711 -5.116040229797363
-2.746979951858521 2.736540079116821 -5.138030052185059
-1.979979991912842 2.664540052413940 -5.127039909362793
-2.118979930877686 2.704540014266968 -5.152029991149902
-2.195980072021484 2.570539951324463 -5.154039859771729
-2.882980108261108 2.836539983749390 -5.181029796600342
-1.651980042457581 2.400540113449097 -5.155029773712158
-1.784980058670044 2.319540023803711 -5.160029888153076
-2.296979904174805 2.677540063858032 -5.190030097961426
-2.154979944229126 2.377540111541748 -5.186039924621582
-1.986979961395264 2.315540075302124 -5.201029777526856
-1.895980000495911 2.477540016174316 -5.207029819488525
-2.634979963302612 2.737540006637573 -5.237040042877197
-2.043979883193970 2.523540019989014 -5.241040229797363
-2.249979972839356 2.466540098190308 -5.257030010223389
-2.836980104446411 2.728539943695068 -5.292029857635498
-2.155980110168457 2.617539882659912 -5.298029899597168
-1.847980022430420 2.251539945602417 -5.292029857635498
-1.948979973793030 2.093539953231812 -5.297039985656738
-2.389980077743530 2.628540039062500 -5.312029838562012
-2.206979990005493 2.253540039062500 -5.311039924621582
-2.934979915618897 2.836539983749390 -5.352039813995361
-2.317980051040649 2.367539882659912 -5.345039844512940
-2.681979894638062 2.658540010452271 -5.356040000915527
-2.530980110168457 2.590539932250977 -5.355040073394775
-2.030980110168457 2.388540029525757 -5.347030162811279
-2.082979917526245 2.109539985656738 -5.365029811859131
-1.972980022430420 2.227540016174316 -5.369040012359619
-2.743979930877686 2.783540010452271 -5.408040046691895
-2.151979923248291 2.478539943695068 -5.398029804229736
-2.265980005264282 2.583539962768555 -5.424029827117920
-2.346980094909668 2.220540046691895 -5.439040184020996
-2.188980102539063 2.029540061950684 -5.442039966583252
-2.408979892730713 2.610539913177490 -5.463039875030518
-2.127979993820190 2.309540033340454 -5.455029964447022
-2.405980110168457 2.361540079116821 -5.471030235290527
-2.605979919433594 2.583539962768555 -5.497029781341553
-2.925980091094971 2.838540077209473 -5.508039951324463
-2.491980075836182 2.489540100097656 -5.525030136108398
-2.239979982376099 2.149539947509766 -5.518030166625977
-2.345979928970337 2.041539907455444 -5.520030021667481
-2.829979896545410 2.725539922714233 -5.540040016174316
-2.245980024337769 2.375540018081665 -5.543039798736572
-2.455980062484741 2.148540019989014 -5.546040058135986
-2.326980113983154 2.501539945602417 -5.551030158996582
-2.626980066299439 2.712539911270142 -5.568039894104004
-2.453979969024658 1.923539996147156 -5.572030067443848
-2.488980054855347 2.307539939880371 -5.580029964447022
-2.336980104446411 2.264539957046509 -5.581039905548096
-2.735980033874512 2.616539955139160 -5.605040073394775
-2.594980001449585 1.886540055274963 -5.602039813995361
-2.560980081558228 2.034539937973023 -5.613039970397949
-2.521980047225952 2.611540079116821 -5.617030143737793
-2.612979888916016 2.493540048599243 -5.625030040740967
-2.961980104446411 2.856539964675903 -5.662030220031738
-2.738980054855347 2.757539987564087 -5.663030147552490
-2.649980068206787 1.771540045738220 -5.677030086517334
-2.566979885101318 2.225539922714233 -5.684030055999756
-2.882980108261108 2.728539943695068 -5.706039905548096
-2.585979938507080 2.376539945602417 -5.717040061950684
-2.639980077743530 2.101540088653565 -5.718029975891113
-2.645979881286621 2.585540056228638 -5.737040042877197
-2.794980049133301 2.575540065765381 -5.742030143737793
-2.393980026245117 2.400540113449097 -5.734039783477783
-2.667979955673218 1.925539970397949 -5.746029853820801
-2.715980052947998 2.444540023803711 -5.758039951324463
-2.501980066299439 2.503540039062500 -5.772039890289307
-3.039979934692383 2.798540115356445 -5.798029899597168
-2.475980043411255 2.261539936065674 -5.799029827117920
-2.578979969024658 1.689540028572083 -5.803040027618408
-2.975980043411255 2.648540019989014 -5.831039905548096
-2.865979909896851 2.492539882659912 -5.845039844512940
-2.638979911804199 2.214540004730225 -5.848040103912354
-2.835979938507080 2.697540044784546 -5.863039970397949
-3.143980026245117 2.700540065765381 -5.877039909362793
-2.708980083465576 1.677539944648743 -5.873040199279785
-2.764980077743530 2.369539976119995 -5.883039951324463
-2.582979917526245 1.858540058135986 -5.889029979705811
-2.601979970932007 2.460540056228638 -5.895030021667481
-2.484980106353760 2.371540069580078 -5.897039890289307
-2.690979957580566 2.089540004730225 -5.908040046691895
-2.700979948043823 1.934540033340454 -5.933030128479004
-2.743979930877686 2.517539978027344 -5.940030097961426
-3.059979915618897 2.599539995193481 -5.955029964447022
-2.901979923248291 2.592540025711060 -5.956039905548096
-2.991980075836182 2.469540119171143 -5.975029945373535
-3.156980037689209 2.484539985656738 -5.982029914855957
-3.271980047225952 2.383539915084839 -5.994040012359619
-2.871979951858521 2.353539943695068 -5.991040229797363
-2.685980081558228 1.787539958953857 -5.995039939880371
-2.539979934692383 2.246540069580078 -6.005040168762207
-2.692980051040649 2.215539932250977 -6.011030197143555
-2.626980066299439 2.445539951324463 -6.039040088653565
-2.753979921340942 2.072540044784546 -6.042029857635498
-3.072979927062988 2.364540100097656 -6.062029838562012
-3.194979906082153 2.262540102005005 -6.080029964447022
-2.859980106353760 2.454540014266968 -6.101029872894287
-2.927979946136475 2.278539896011353 -6.104030132293701
-2.621979951858521 1.662539958953857 -6.093029975891113
-3.343980073928833 2.404540061950684 -6.127039909362793
-2.753979921340942 1.928539991378784 -6.113039970397949
-2.801980018615723 2.186539888381958 -6.124030113220215
-3.067980051040649 2.200540065765381 -6.139029979705811
-2.741980075836182 2.391540050506592 -6.162030220031738
-2.582979917526245 2.271539926528931 -6.158040046691895
-2.979979991912842 2.399539947509766 -6.170030117034912
-2.734980106353760 1.749539971351624 -6.166029930114746
-3.228980064392090 2.251539945602417 -6.245039939880371
-2.628979921340942 1.831539988517761 -6.231040000915527
-3.114979982376099 2.356539964675903 -6.250030040740967
-2.643980026245117 2.155539989471436 -6.244040012359619
-2.777980089187622 2.078540086746216 -6.251039981842041
-2.944979906082153 2.131540060043335 -6.262040138244629
-3.316979885101318 2.369539976119995 -6.273029804229736
-2.823980093002319 2.307539939880371 -6.275030136108398
-2.672980070114136 2.296540021896362 -6.275030136108398
-2.818979978561401 1.938539981842041 -6.277029991149902
-3.101979970932007 2.166539907455444 -6.289040088653565
-2.965980052947998 2.276540040969849 -6.296040058135986
-2.659980058670044 1.687540054321289 -6.287030220031738
-2.760979890823364 1.802539944648743 -6.303040027618408
-3.356980085372925 2.493540048599243 -6.350029945373535
-2.742980003356934 2.210540056228638 -6.381030082702637
-2.882980108261108 2.044539928436279 -6.404039859771729
-2.594980001449585 1.608540058135986 -6.399030208587647
-3.283979892730713 2.365540027618408 -6.421040058135986
-3.049979925155640 2.254539966583252 -6.418039798736572
-3.197979927062988 2.244539976119995 -6.427030086517334
-3.047980070114136 2.101540088653565 -6.426030158996582
-2.886980056762695 1.891540050506592 -6.428040027618408
-2.881979942321777 2.194540023803711 -6.440030097961426
-2.722980022430420 1.719539999961853 -6.438029766082764
-3.334980010986328 2.483540058135986 -6.505040168762207
-2.854979991912842 1.756539940834045 -6.494040012359619
-3.144979953765869 2.150540113449097 -6.528029918670654
-2.967979907989502 2.167540073394775 -6.561039924621582
-3.252979993820190 2.329540014266968 -6.569029808044434
-2.967979907989502 1.879539966583252 -6.571040153503418
-2.637979984283447 1.749539971351624 -6.564040184020996
-2.609980106353760 1.600540041923523 -6.566030025482178
-3.054980039596558 2.046540021896362 -6.584030151367188
-2.818979978561401 1.911540031433106 -6.579030036926270
-2.771980047225952 1.679540038108826 -6.606040000915527
-2.831979990005493 2.071540117263794 -6.620039939880371
-3.224980115890503 2.197540044784546 -6.644040107727051
-3.325979948043823 2.509540081024170 -6.654039859771729
-2.943979978561401 1.771540045738220 -6.671040058135986
-2.699980020523071 1.537539958953857 -6.682040214538574
-3.051980018615723 1.939540028572083 -6.694029808044434
-3.284980058670044 2.367539882659912 -6.708030223846436
-2.946979999542236 2.124540090560913 -6.701029777526856
-2.873980045318604 1.636540055274963 -6.726029872894287
-2.780980110168457 1.750540018081665 -6.737040042877197
-3.102979898452759 2.161540031433106 -6.749030113220215
-2.865979909896851 1.931540012359619 -6.773029804229736
-3.185980081558228 2.296540021896362 -6.797039985656738
-3.259979963302612 2.144540071487427 -6.801030158996582
-3.381979942321777 2.482539892196655 -6.810039997100830
-2.791980028152466 1.543540000915527 -6.808030128479004
-3.328979969024658 2.288539886474609 -6.838039875030518
-2.875979900360107 1.400539994239807 -6.834030151367188
-3.613980054855347 2.324539899826050 -6.869040012359619
-3.007980108261108 2.091540098190308 -6.859039783477783
-3.479979991912842 2.382539987564087 -6.886030197143555
-2.910979986190796 1.811540007591248 -6.875030040740967
-3.007980108261108 1.355540037155151 -6.881030082702637
-3.530980110168457 2.204540014266968 -6.910029888153076
-3.158979892730713 2.098540067672730 -6.917029857635498
-3.305979967117310 2.044539928436279 -6.942039966583252
-3.722980022430420 2.235539913177490 -6.962029933929443
-3.141979932785034 1.300539970397949 -6.945030212402344
-3.390980005264282 2.242539882659912 -6.973040103912354
-2.965980052947998 1.916540026664734 -6.964029788970947
-3.044980049133301 2.052540063858032 -6.999030113220215
-3.640980005264282 2.124540090560913 -7.022039890289307
-3.432980060577393 2.067539930343628 -7.019040107727051
-3.247980117797852 1.344539999961853 -7.042029857635498
-3.509979963302612 2.184540033340454 -7.068039894104004
-3.210979938507080 2.045540094375610 -7.074039936065674
-3.821979999542236 2.188539981842041 -7.100029945373535
-3.011980056762695 1.938539981842041 -7.106040000915527
-3.714979887008667 2.137540102005005 -7.198029994964600
-3.535979986190796 2.097539901733398 -7.200039863586426
-3.876980066299439 2.094540119171143 -7.218029975891113
-3.253979921340942 2.000540018081665 -7.209030151367188
-3.410979986190796 2.021539926528931 -7.221030235290527
-3.647979974746704 1.999539971351624 -7.260029792785645
-3.771980047225952 2.056540012359619 -7.320030212402344
-3.920979976654053 2.017539978027344 -7.342040061950684
-3.312979936599731 1.994539976119995 -7.344029903411865
-3.419980049133301 1.997539997100830 -7.450039863586426
-3.904979944229126 1.923539996147156 -7.470039844512940
-3.503979921340942 1.903540015220642 -7.547039985656738
-3.312979936599731 1.994539976119995 -7.565030097961426
-3.446979999542236 1.987540006637573 -7.660029888153076
