ply
format ascii 1.0
element vertex 302
property double x
property double y
property double z
end_header
3.492019891738892 4.125539779663086 3.537970066070557
3.443020105361939 4.047540187835693 3.770960092544556
3.385020017623901 4.084539890289307 3.638959884643555
3.492019891738892 4.125539779663086 3.537970066070557
3.357019901275635 4.173540115356445 3.509969949722290
3.490020036697388 4.146540164947510 3.391969919204712
3.391020059585571 4.237539768218994 3.341969966888428
3.500020027160645 4.199540138244629 3.208960056304932
3.366019964218140 4.273540019989014 3.194960117340088
3.336019992828369 4.327539920806885 3.037970066070557
3.468019962310791 4.228539943695068 3.023969888687134
3.368020057678223 4.311540126800537 2.899970054626465
3.269020080566406 4.425539970397949 2.898969888687134
3.549020051956177 4.256539821624756 2.866960048675537
3.239020109176636 4.498539924621582 2.770960092544556
3.453020095825195 4.279540061950684 2.761960029602051
3.331020116806030 4.354539871215820 2.755959987640381
3.183020114898682 4.538539886474609 2.639970064163208
3.530019998550415 4.251540184020996 2.619970083236694
3.407020092010498 4.390540122985840 2.588959932327271
3.272020101547241 4.441539764404297 2.583960056304932
3.645020008087158 4.321539878845215 2.567960023880005
3.170020103454590 4.597539901733398 2.509969949722290
3.479020118713379 4.317540168762207 2.461970090866089
3.346019983291626 4.382540225982666 2.450959920883179
3.246020078659058 4.506539821624756 2.420969963073731
3.443020105361939 4.391540050506592 2.341969966888428
3.184020042419434 4.622539997100830 2.342969894409180
3.697020053863525 4.357540130615234 2.326960086822510
3.305020093917847 4.420539855957031 2.301970005035400
3.561019897460938 4.337540149688721 2.279969930648804
3.223020076751709 4.532539844512940 2.225970029830933
3.721019983291626 4.431540012359619 2.196969985961914
3.463020086288452 4.350540161132813 2.169970035552979
3.317019939422607 4.407539844512940 2.150959968566895
3.162019968032837 4.667540073394775 2.126970052719116
3.604020118713379 4.371540069580078 2.111959934234619
3.264019966125488 4.525539875030518 2.076960086822510
3.695019960403442 4.447539806365967 2.027960062026978
3.116019964218140 4.746540069580078 1.977959990501404
3.199019908905029 4.616539955139160 1.976969957351685
3.526020050048828 4.390540122985840 1.965960025787354
3.378020048141480 4.425539970397949 1.962970018386841
3.271019935607910 4.510540008544922 1.912969946861267
3.724020004272461 4.499539852142334 1.884969949722290
3.821019887924194 4.625539779663086 1.838960051536560
3.601020097732544 4.418540000915527 1.844969987869263
3.908020019531250 5.064539909362793 1.802970051765442
3.097019910812378 4.816539764404297 1.834969997406006
3.166019916534424 4.672540187835693 1.813969969749451
3.468019962310791 4.404540061950684 1.789960026741028
3.811019897460938 4.501540184020996 1.762959957122803
3.319020032882690 4.410540103912354 1.765969991683960
3.233020067214966 4.560540199279785 1.753970026969910
3.689019918441773 4.445539951324463 1.709969997406006
3.876019954681397 4.622539997100830 1.666960000991821
3.548019886016846 4.409540176391602 1.670969963073731
3.106019973754883 4.815539836883545 1.674970030784607
3.871020078659058 5.131539821624756 1.630959987640381
3.761019945144653 4.551539897918701 1.618960022926331
3.150019884109497 4.670539855957031 1.623960018157959
3.272020101547241 4.514540195465088 1.620970010757446
3.399019956588745 4.394539833068848 1.608960032463074
3.630019903182983 4.469540119171143 1.564970016479492
3.925019979476929 5.029540061950684 1.531970024108887
3.165019989013672 4.844540119171143 1.542969942092896
3.835020065307617 5.138539791107178 1.483960032463074
3.852020025253296 4.571539878845215 1.483960032463074
3.519020080566406 4.426539897918701 1.486960053443909
3.248019933700562 4.569540023803711 1.485960006713867
3.113019943237305 4.720540046691895 1.485960006713867
3.910640001296997 4.921080112457275 1.439079999923706
3.373019933700562 4.448540210723877 1.467970013618469
3.990159988403320 4.787700176239014 1.427600026130676
3.705019950866699 4.531539916992188 1.441969990730286
3.714020013809204 5.111539840698242 1.396970033645630
3.946019887924194 4.646540164947510 1.380959987640381
3.828020095825195 5.014540195465088 1.356969952583313
3.169019937515259 4.654540061950684 1.366960048675537
3.601020097732544 4.448540210723877 1.350970029830933
3.072020053863525 4.831540107727051 1.360960006713867
3.789020061492920 4.612539768218994 1.333960056304932
3.304019927978516 4.555540084838867 1.349969983100891
3.910850048065186 4.770860195159912 1.303670048713684
3.812150001525879 4.897510051727295 1.274029970169067
3.457020044326782 4.441539764404297 1.293969988822937
3.709019899368286 5.054540157318115 1.256960034370422
3.677020072937012 4.537539958953857 1.268959999084473
3.891020059585571 4.631539821624756 1.232969999313355
3.112020015716553 4.718540191650391 1.247959971427918
3.843019962310791 5.078539848327637 1.207960009574890
3.218019962310791 4.604539871215820 1.242959976196289
3.093019962310791 4.982540130615234 1.226969957351685
3.451709985733032 4.582139968872070 1.216670036315918
3.328020095825195 4.493539810180664 1.222959995269775
3.560019969940186 4.486539840698242 1.196969985961914
3.758019924163818 4.617539882659912 1.169970035552979
3.780800104141235 4.815800189971924 1.152870059013367
3.747020006179810 4.954539775848389 1.130959987640381
3.258019924163818 4.714540004730225 1.147969961166382
3.083019971847534 4.856540203094482 1.142969965934753
3.532969951629639 4.652750015258789 1.121410012245178
3.653019905090332 5.076539993286133 1.102959990501404
3.363019943237305 4.630539894104004 1.099969983100891
3.652019977569580 4.551539897918701 1.089959979057312
3.457020044326782 4.455540180206299 1.095960021018982
3.106019973754883 4.725540161132813 1.087970018386841
3.437599897384644 4.751140117645264 1.073259949684143
3.784019947052002 5.092539787292481 1.044970035552979
3.662019968032837 4.788539886474609 1.043969988822937
3.073019981384277 4.959539890289307 1.035969972610474
3.820019960403442 4.854539871215820 1.004959940910339
3.215019941329956 4.663539886474609 1.009969949722290
3.560019969940186 4.475540161132813 0.988965988159180
3.605020046234131 5.072539806365967 0.958962976932526
3.129019975662231 4.835539817810059 0.978963971138000
3.328020095825195 4.741539955139160 0.969964981079102
3.534019947052002 4.768539905548096 0.957964003086090
3.457020044326782 4.637539863586426 0.953966021537781
3.622020006179810 4.929540157318115 0.933965981006622
3.840019941329956 5.030539989471436 0.910966992378235
3.426019906997681 4.808539867401123 0.868963003158569
3.525019884109497 5.000539779663086 0.848967015743256
3.101020097732544 5.024539947509766 0.863965988159180
3.744019985198975 4.855539798736572 0.835965991020203
3.543020009994507 4.668540000915527 0.828966021537781
3.259020090103149 4.705540180206299 0.834967017173767
3.665019989013672 5.069540023803711 0.809965014457703
3.401020050048828 4.938539981842041 0.793965995311737
3.666019916534424 4.737539768218994 0.786966025829315
3.379019975662231 4.603539943695068 0.783963978290558
3.609410047531128 4.915659904479981 0.755662024021149
3.340019941329956 4.806540012359619 0.749963998794556
3.113019943237305 5.117539882659912 0.749963998794556
3.127019882202148 4.919539928436279 0.741963982582092
3.786020040512085 4.990540027618408 0.703966021537781
3.561490058898926 4.801370143890381 0.638432025909424
3.527019977569580 5.032539844512940 0.628965020179749
3.704020023345947 4.784540176391602 0.615965008735657
3.266020059585571 4.755539894104004 0.631964027881622
3.525019884109497 4.654540061950684 0.619966983795166
3.338020086288452 4.604539871215820 0.627965986728668
3.682019948959351 5.054540157318115 0.601965010166168
3.119019985198975 5.042540073394775 0.616963982582092
3.124020099639893 4.843540191650391 0.615965008735657
3.829020023345947 4.680540084838867 0.555963993072510
3.388020038604736 4.945539951324463 0.558965981006622
3.775019884109497 4.965539932250977 0.505963981151581
3.277019977569580 4.860539913177490 0.524964988231659
3.619019985198975 4.714540004730225 0.512964010238647
3.169019937515259 4.742539882659912 0.525964975357056
3.606019973754883 5.056540012359619 0.469965010881424
3.260020017623901 4.628540039062500 0.488965988159180
3.146019935607910 5.080540180206299 0.480966985225677
3.419019937515259 4.645540237426758 0.455965012311935
3.710020065307617 4.796539783477783 0.424966990947723
3.229020118713379 4.967539787292481 0.434965014457703
3.380019903182983 4.928540229797363 0.414965003728867
3.814019918441773 4.903540134429932 0.376967012882233
3.555020093917847 4.678540229797363 0.386965006589890
3.703020095825195 5.014540195465088 0.371964991092682
3.491019964218140 5.010540008544922 0.357966005802155
3.141020059585571 4.849540233612061 0.354963004589081
3.137020111083984 5.030539989471436 0.345964998006821
3.297019958496094 4.611539840698242 0.342965990304947
3.849020004272461 4.709539890289307 0.296965003013611
3.315020084381104 4.996540069580078 0.306966990232468
3.680020093917847 4.773540019989014 0.282965004444122
3.194020032882690 4.708539962768555 0.288964986801147
3.429019927978516 4.653540134429932 0.278966993093491
3.602020025253296 5.047540187835693 0.255964010953903
3.572020053863525 4.683539867401123 0.241963997483253
3.430020093917847 4.946539878845215 0.235964000225067
3.744019985198975 4.952539920806885 0.216967001557350
3.180020093917847 5.116539955139160 0.231966003775597
3.148020029067993 4.839540004730225 0.195967003703117
3.276020050048828 4.631539821624756 0.183965995907784
3.732019901275635 4.823540210723877 0.156965002417564
3.519020080566406 5.044539928436279 0.130963996052742
3.881020069122315 4.738540172576904 0.104962997138500
3.634020090103149 4.731540203094482 0.107965998351574
3.122020006179810 4.970540046691895 0.109963998198509
3.273020029067993 5.142539978027344 0.090963400900364
3.200020074844360 4.729539871215820 0.098966702818871
3.434020042419434 4.653540134429932 0.088964499533176
3.368020057678223 5.006539821624756 0.078966200351715
3.652019977569580 5.010540008544922 0.066965200006962
3.784019947052002 4.847539901733398 0.001966499956325
3.138020038604736 4.853539943695068 0.019964300096035
3.550019979476929 4.688539981842041 -0.000036199999158
3.160020112991333 5.115540027618408 -0.005033399909735
3.292020082473755 4.644539833068848 -0.019033400341868
3.333019971847534 5.115540027618408 -0.041036501526833
3.503020048141480 5.048540115356445 -0.050035398453474
3.386019945144653 4.967539787292481 -0.058034799993038
3.864020109176636 4.735539913177490 -0.073034197092056
3.686019897460938 4.772540092468262 -0.073034197092056
3.665019989013672 4.995540142059326 -0.093034699559212
3.427020072937012 4.660540103912354 -0.088033601641655
3.133019924163818 4.978539943695068 -0.089033097028732
3.203020095825195 5.215539932250977 -0.104036003351212
3.188019990921021 4.731540203094482 -0.093034699559212
3.142019987106323 4.854539871215820 -0.179032996296883
3.276020050048828 4.647540092468262 -0.183035001158714
3.931020021438599 4.814539909362793 -0.230036005377769
3.746020078659058 4.834539890289307 -0.235033005475998
3.598020076751709 5.010540008544922 -0.235033005475998
3.360019922256470 5.133540153503418 -0.234034001827240
3.647020101547241 4.730539798736572 -0.247033998370171
3.440020084381104 4.666540145874023 -0.250036001205444
3.180020093917847 5.131539821624756 -0.255032986402512
3.461019992828369 5.042540073394775 -0.282034009695053
3.191020011901856 4.722539901733398 -0.281033992767334
3.140019893646240 4.977540016174316 -0.298036009073257
3.340019941329956 4.587540149688721 -0.328034996986389
3.727020025253296 4.907539844512940 -0.356034994125366
3.546020030975342 4.684539794921875 -0.347036004066467
3.305020093917847 5.209539890289307 -0.364035010337830
3.140019893646240 4.831540107727051 -0.384034991264343
3.394020080566406 5.101540088653565 -0.405034989118576
3.187020063400269 5.112539768218994 -0.416036993265152
3.544019937515259 5.014540195465088 -0.430036008358002
3.241019964218140 4.657539844512940 -0.410035997629166
3.416019916534424 4.645540237426758 -0.440034985542297
3.141020059585571 4.973539829254150 -0.449034005403519
3.340019941329956 5.297540187835693 -0.487035989761353
3.621020078659058 4.722539901733398 -0.490034013986588
3.652019977569580 4.943540096282959 -0.499033004045486
3.229020118713379 5.194540023803711 -0.534036993980408
3.439019918441773 5.048540115356445 -0.545033991336823
3.136019945144653 4.854539871215820 -0.534036993980408
3.397020101547241 5.183539867401123 -0.565034985542297
3.325020074844360 4.641540050506592 -0.555036008358002
3.192019939422607 4.718540191650391 -0.556035995483398
3.838020086288452 4.732540130615234 -0.584035992622375
3.708019971847534 4.806540012359619 -0.582032978534698
3.481019973754883 4.660540103912354 -0.573033988475800
3.180020093917847 5.056540012359619 -0.576035976409912
3.565020084381104 4.999539852142334 -0.597036004066467
3.911020040512085 4.856540203094482 -0.638037025928497
3.595020055770874 4.724540233612061 -0.640035986900330
3.275019884109497 5.235539913177490 -0.687035977840424
3.751019954681397 4.715539932250977 -0.698033988475800
3.155019998550415 4.794539928436279 -0.684033989906311
3.241019964218140 4.677539825439453 -0.696035027503967
3.422019958496094 5.200540065765381 -0.717034995555878
3.614020109176636 4.941539764404297 -0.719034016132355
3.464020013809204 5.058539867401123 -0.718034982681274
3.385020017623901 4.664539813995361 -0.712033987045288
3.208019971847534 5.107540130615234 -0.715035974979401
3.143019914627075 4.959539890289307 -0.740033984184265
3.865020036697388 4.842539787292481 -0.799036026000977
3.662019968032837 4.766540050506592 -0.801034986972809
3.410020112991333 5.318540096282959 -0.805036008358002
3.519020080566406 4.698540210723877 -0.805036008358002
3.540019989013672 5.002540111541748 -0.832032978534698
3.294019937515259 5.223539829254150 -0.831034004688263
3.148020029067993 4.839540004730225 -0.819036006927490
3.794019937515259 4.729539871215820 -0.851033985614777
3.466020107269287 5.191539764404297 -0.863035023212433
3.194020032882690 5.050539970397949 -0.863035023212433
3.271019935607910 4.668540000915527 -0.868035972118378
3.418020009994507 4.684539794921875 -0.905035018920898
3.674020051956177 4.838540077209473 -0.932035028934479
3.861020088195801 4.818540096282959 -0.955034017562866
3.358020067214966 5.266540050506592 -0.955034017562866
3.513020038604736 5.092539787292481 -0.960035026073456
3.552020072937012 4.735539913177490 -0.956034004688263
3.160020112991333 4.938539981842041 -0.946035027503967
3.248019933700562 5.150539875030518 -0.955034017562866
3.764019966125488 4.948540210723877 -0.995034992694855
3.165019989013672 4.786540031433106 -0.974035024642944
3.731019973754883 4.732540130615234 -1.009039998054504
3.633019924163818 4.843540191650391 -1.108029961585999
3.360019922256470 5.250539779663086 -1.109030008316040
3.365020036697388 4.699540138244629 -1.100029945373535
3.145020008087158 4.852540016174316 -1.099040031433106
3.643019914627075 4.699540138244629 -1.116029977798462
3.554019927978516 4.998539924621582 -1.128029942512512
3.535020112991333 5.184539794921875 -1.133039951324463
3.220020055770874 5.095540046691895 -1.124029994010925
3.689019918441773 4.960539817810059 -1.194039940834045
3.229020118713379 4.746540069580078 -1.174039959907532
3.457020044326782 5.281539916992188 -1.211030006408691
3.615020036697388 5.097539901733398 -1.220029950141907
3.140019893646240 4.987539768218994 -1.211030006408691
3.508019924163818 4.688539981842041 -1.222040057182312
3.306020021438599 5.199540138244629 -1.244040012359619
3.367019891738892 4.699540138244629 -1.253029942512512
3.135020017623901 4.848539829254150 -1.254029989242554
3.215019941329956 5.091539859771729 -1.297029972076416
3.227020025253296 4.748539924621582 -1.336030006408691
3.388020038604736 5.228539943695068 -1.363039970397949
3.152019977569580 4.984539985656738 -1.370040059089661
3.521019935607910 5.208539962768555 -1.412029981613159
3.261019945144653 5.151539802551270 -1.433030009269714
3.187020063400269 5.048540115356445 -1.499029994010925
3.416019916534424 5.238540172576904 -1.542039990425110
3.306020021438599 5.284540176391602 -1.629029989242554
3.178020000457764 5.024539947509766 -1.649029970169067
3.225019931793213 5.162539958953857 -1.716040015220642
3.106019973754883 5.095540046691895 -1.765040040016174
