ply
format ascii 1.0
element vertex 129
property double x
property double y
property double z
end_header
5.734020233154297 5.046539783477783 -12.404000282287598
5.183020114898682 4.817540168762207 -12.298999786376953
5.475019931793213 4.939539909362793 -12.315999984741211
5.380020141601563 4.834539890289307 -12.329999923706055
5.034019947052002 4.846539974212647 -12.359000205993652
5.734020233154297 5.046539783477783 -12.404000282287598
5.373020172119141 4.418540000915527 -12.383999824523926
5.606019973754883 4.978539943695068 -12.406999588012695
6.252019882202148 4.691539764404297 -12.437999725341797
6.378019809722900 4.618539810180664 -12.444000244140625
5.496019840240479 4.491539955139160 -12.414999961853027
5.263020038604736 4.841539859771729 -12.416999816894531
6.457019805908203 4.735539913177490 -12.465999603271484
5.964019775390625 4.695539951324463 -12.458999633789063
6.112020015716553 4.685540199279785 -12.465000152587891
6.174019813537598 4.514540195465088 -12.465000152587891
5.300020217895508 4.541540145874023 -12.435999870300293
5.824019908905029 4.733540058135986 -12.468999862670898
4.709020137786865 4.442540168762207 -12.420999526977539
5.505020141601563 4.855539798736572 -12.468000411987305
5.529019832611084 4.693540096282959 -12.467000007629395
6.039020061492920 4.560540199279785 -12.493000030517578
5.696020126342773 4.655539989471436 -12.486000061035156
5.974020004272461 5.076539993286133 -12.508000373840332
5.131020069122315 4.805540084838867 -12.468999862670898
6.050020217895508 4.843540191650391 -12.510000228881836
5.827020168304443 5.012539863586426 -12.508999824523926
5.242020130157471 4.407539844512940 -12.473999977111816
4.868020057678223 4.843540191650391 -12.470000267028809
6.313020229339600 4.793540000915527 -12.527999877929688
5.161019802093506 4.535540103912354 -12.477000236511230
5.425020217895508 4.598539829254150 -12.494999885559082
5.101019859313965 4.373539924621582 -12.479999542236328
5.374020099639893 4.755539894104004 -12.501000404357910
5.055019855499268 4.638539791107178 -12.489999771118164
5.631020069122315 4.794539928436279 -12.520000457763672
5.236020088195801 4.657539844512940 -12.505000114440918
5.914020061492920 4.490540027618408 -12.531999588012695
5.764019966125488 4.856540203094482 -12.536000251770020
5.722020149230957 4.489540100097656 -12.527999877929688
5.585020065307617 4.573540210723877 -12.524999618530273
4.914020061492920 4.583539962768555 -12.503000259399414
4.832019805908203 4.403540134429932 -12.496000289916992
4.559020042419434 4.394539833068848 -12.486000061035156
4.997019767761231 4.782539844512940 -12.515000343322754
4.742020130157471 4.937540054321289 -12.517999649047852
5.925020217895508 4.791540145874023 -12.569000244140625
5.813020229339600 4.609539985656738 -12.562999725341797
4.986020088195801 4.460539817810059 -12.527999877929688
5.930019855499268 4.933539867401123 -12.576999664306641
6.026020050048828 4.690539836883545 -12.586999893188477
4.849020004272461 4.719540119171143 -12.548000335693359
6.206019878387451 4.725540161132813 -12.602999687194824
6.068019866943359 4.980539798736572 -12.619000434875488
4.653019905090332 4.482540130615234 -12.553999900817871
4.225019931793213 4.397540092468262 -12.534999847412109
4.777019977569580 4.557539939880371 -12.560999870300293
6.397019863128662 4.748539924621582 -12.635999679565430
4.475019931793213 4.501540184020996 -12.555000305175781
6.125020027160645 4.842539787292481 -12.635000228881836
4.691020011901856 4.677539825439453 -12.578000068664551
4.595019817352295 4.794539928436279 -12.578000068664551
6.634019851684570 4.736539840698242 -12.661000251770020
4.028019905090332 4.460539817810059 -12.557000160217285
4.741020202636719 4.813539981842041 -12.597000122070313
6.207019805908203 4.984539985656738 -12.663000106811523
4.361020088195801 4.412539958953857 -12.588999748229980
6.281020164489746 4.843540191650391 -12.678999900817871
6.354020118713379 4.966539859771729 -12.694000244140625
4.633019924163818 4.962540149688721 -12.626999855041504
4.569019794464111 4.591539859771729 -12.619000434875488
6.512020111083984 4.813539981842041 -12.701999664306641
4.253019809722900 4.522540092468262 -12.618000030517578
4.469019889831543 4.700540065765381 -12.633000373840332
6.497019767761231 4.953539848327637 -12.727000236511230
4.438020229339600 4.852540016174316 -12.654999732971191
6.753019809722900 4.717539787292481 -12.748000144958496
3.909019947052002 4.490540027618408 -12.630000114440918
4.492020130157471 4.988540172576904 -12.670999526977539
4.140019893646240 4.432539939880371 -12.652999877929687
6.657020092010498 4.835539817810059 -12.767999649047852
4.328020095825195 4.757540225982666 -12.675999641418457
4.383019924163818 4.581540107727051 -12.677000045776367
4.111020088195801 4.576539993286133 -12.666999816894531
4.353020191192627 4.984539985656738 -12.706000328063965
4.058020114898682 4.977540016174316 -12.708000183105469
4.207019805908203 4.997539997100830 -12.717000007629395
4.196020126342773 4.835539817810059 -12.718000411987305
6.854020118713379 4.683539867401123 -12.845999717712402
6.792019844055176 4.816539764404297 -12.852999687194824
4.222020149230957 4.628540039062500 -12.746000289916992
3.984019994735718 4.455540180206299 -12.748000144958496
4.028019905090332 4.854539871215820 -12.772999763488770
4.023019790649414 4.627540111541748 -12.770000457763672
3.891020059585571 4.989540100097656 -12.776000022888184
4.119019985198975 4.733540058135986 -12.781999588012695
3.826020002365112 4.439539909362793 -12.763999938964844
6.986020088195801 4.681540012359619 -12.909000396728516
6.908020019531250 4.802539825439453 -12.940999984741211
3.884020090103149 4.586540222167969 -12.824000358581543
3.891020059585571 4.840539932250977 -12.831999778747559
3.806020021438599 4.966539859771729 -12.904000282287598
3.919019937515259 4.718540191650391 -12.907999992370605
7.014019966125488 4.726540088653565 -13.041999816894531
3.752019882202148 4.522540092468262 -12.916000366210937
3.853019952774048 4.606540203094482 -12.972000122070312
3.680020093917847 4.405539989471436 -12.968000411987305
3.832020044326782 4.843540191650391 -12.987000465393066
3.751019954681397 4.731540203094482 -13.020999908447266
7.099020004272461 4.741539955139160 -13.156000137329102
3.728019952774048 4.960539817810059 -13.036999702453613
3.677020072937012 4.606540203094482 -13.053999900817871
3.665019989013672 4.834539890289307 -13.083000183105469
3.608020067214966 4.467539787292481 -13.078000068664551
7.200019836425781 4.671539783477783 -13.248000144958496
3.647020101547241 4.709539890289307 -13.173999786376953
3.521019935607910 4.420539855957031 -13.192000389099121
3.582020044326782 4.553540229797363 -13.208000183105469
3.560019969940186 4.816539764404297 -13.227000236511230
3.502019882202148 4.669539928436279 -13.232000350952148
3.437020063400269 4.534540176391602 -13.248999595642090
3.411020040512085 4.856540203094482 -13.267999649047852
3.313019990921021 4.468540191650391 -13.293000221252441
3.396019935607910 4.726540088653565 -13.338999748229980
3.293020009994507 4.639540195465088 -13.397999763488770
3.216020107269287 4.508540153503418 -13.392999649047852
3.210020065307617 4.682539939880371 -13.529999732971191
3.152019977569580 4.524539947509766 -13.529000282287598
3.156019926071167 4.811540126800537 -13.590999603271484
