ply
format ascii 1.0
element vertex 242
property double x
property double y
property double z
end_header
-0.155981004238129 5.926539897918701 -10.354999542236328
-0.405981004238129 5.944540023803711 -10.258999824523926
-0.623983025550842 6.039539813995361 -10.267000198364258
-0.853982985019684 6.118539810180664 -10.270000457763672
-0.719980001449585 6.687540054321289 -10.307999610900879
-0.290982991456985 5.870540142059326 -10.312999725341797
-0.979982018470764 6.177539825439453 -10.300999641418457
-0.299982011318207 6.012539863586426 -10.328000068664551
-0.155981004238129 5.926539897918701 -10.354999542236328
-0.524980008602142 5.963540077209473 -10.345000267028809
-0.436982989311218 6.074540138244629 -10.357999801635742
-0.859983026981354 6.687540054321289 -10.359000205993652
-0.734983026981354 6.070539951324463 -10.352000236511230
-0.580980002880096 6.670539855957031 -10.385999679565430
-0.440981000661850 6.638539791107178 -10.397000312805176
-0.801980972290039 6.241539955139160 -10.378000259399414
-0.403982013463974 5.921539783477783 -10.407999992370605
-0.638981997966766 6.486539840698242 -10.416000366210937
-0.740980029106140 6.591539859771729 -10.420999526977539
-0.136983007192612 5.756539821624756 -10.432000160217285
-1.094980001449585 6.211540222167969 -10.404000282287598
-0.509980976581573 6.396540164947510 -10.437000274658203
-1.138980031013489 6.899539947509766 -10.423999786376953
-0.232979997992516 6.046539783477783 -10.454000473022461
-0.307981014251709 6.615540027618408 -10.468000411987305
-1.060979962348938 6.777540206909180 -10.447999954223633
-0.349981009960175 6.128540039062500 -10.468000411987305
-1.006979942321777 6.377540111541748 -10.454999923706055
-0.267980009317398 5.851540088653565 -10.472999572753906
-0.565980970859528 6.073540210723877 -10.467000007629395
-0.922982990741730 6.217539787292481 -10.458999633789062
-0.670979976654053 6.171539783477783 -10.470000267028809
-1.273980021476746 6.877540111541748 -10.463999748229980
-0.531979978084564 6.544539928436279 -10.493000030517578
-0.367982000112534 6.356540203094482 -10.496000289916992
-1.436980009078980 6.978539943695068 -10.468000411987305
-1.234979987144470 6.251540184020996 -10.461000442504883
-1.160979986190796 6.669539928436279 -10.486000061035156
-1.397979974746704 6.354539871215820 -10.470999717712402
-0.750981986522675 6.456540107727051 -10.512000083923340
-0.705980002880096 6.304540157318115 -10.512999534606934
-1.094980001449585 6.517539978027344 -10.505000114440918
-0.942982971668243 6.491539955139160 -10.512000083923340
-0.876981019973755 6.354539871215820 -10.515999794006348
-0.247979998588562 6.250539779663086 -10.541000366210937
-1.137979984283447 6.349540233612061 -10.517999649047852
0.087019301950932 5.873539924621582 -10.564999580383301
-0.017980199307203 6.000539779663086 -10.564999580383301
-0.211980000138283 6.598539829254150 -10.571999549865723
-0.158983007073402 6.110539913177490 -10.564999580383301
-0.110982999205589 6.316539764404297 -10.571999549865723
-0.343980014324188 6.511539936065674 -10.571000099182129
-0.526983022689819 6.280539989471436 -10.564000129699707
-0.464982986450195 6.432539939880371 -10.569999694824219
-0.049981698393822 5.641540050506592 -10.572999954223633
0.086019903421402 5.708539962768555 -10.581999778747559
-0.444981992244720 6.145540237426758 -10.574000358581543
-0.355980992317200 6.019539833068848 -10.581000328063965
-0.134981006383896 6.470540046691895 -10.604000091552734
-0.032983399927616 6.167540073394775 -10.604999542236328
-0.143983006477356 5.761539936065674 -10.593000411987305
-1.500980019569397 6.895540237426758 -10.567000389099121
-1.230980038642883 6.467539787292481 -10.569999694824219
-1.348979949951172 6.819540023803711 -10.579000473022461
-1.615980029106140 6.476540088653565 -10.576000213623047
-0.235982999205589 5.922540187835693 -10.619000434875488
-0.370981007814407 6.277540206909180 -10.621999740600586
-1.276980042457581 6.676539897918701 -10.595000267028809
-1.470980048179627 6.445539951324463 -10.586000442504883
0.069017797708511 6.071539878845215 -10.656999588012695
0.230017006397247 5.744540214538574 -10.661000251770020
-1.348979949951172 6.538539886474609 -10.616000175476074
-0.276982992887497 6.116539955139160 -10.649999618530273
-0.247979998588562 6.402540206909180 -10.657999992370605
-1.538980007171631 6.605539798736572 -10.614000320434570
0.153016999363899 5.952539920806885 -10.668000221252441
0.007017499767244 6.301539897918701 -10.670000076293945
-1.585980057716370 6.997539997100830 -10.628999710083008
-0.236982002854347 6.256539821624756 -10.682999610900879
-1.414980053901672 6.681540012359619 -10.656999588012695
0.036016799509525 5.592539787292481 -10.692000389099121
0.154017001390457 6.185540199279785 -10.713999748229980
-1.602980017662048 6.815539836883545 -10.663000106811523
0.248018994927406 6.077539920806885 -10.722999572753906
0.283017992973328 5.871540069580078 -10.725000381469727
-1.729979991912842 6.513539791107178 -10.663000106811523
-0.130982995033264 5.943540096282959 -10.717000007629395
-0.035981800407171 5.743539810180664 -10.718000411987305
-0.128979995846748 6.336540222167969 -10.737999916076660
0.189016997814178 5.627540111541748 -10.734999656677246
-0.155981004238129 6.118539810180664 -10.737999916076660
0.404017001390457 6.070539951324463 -10.765999794006348
0.338019013404846 5.718540191650391 -10.758000373840332
0.912020027637482 6.007540225982666 -10.800000190734863
0.635020017623901 6.167540073394775 -10.793999671936035
0.768019020557404 6.056540012359619 -10.802000045776367
-1.680979967117310 6.948540210723877 -10.727999687194824
0.105016998946667 6.310540199279785 -10.793999671936035
-0.042981699109077 6.193540096282959 -10.788000106811523
0.557017028331757 5.944540023803711 -10.810000419616699
-0.032983399927616 6.044539928436279 -10.789999961853027
-1.639979958534241 7.085539817810059 -10.748999595642090
-1.619979977607727 6.612539768218994 -10.741000175476074
0.405019998550415 5.834539890289307 -10.805999755859375
-0.009980799630284 6.395540237426758 -10.803000450134277
0.486018002033234 6.236539840698242 -10.821999549865723
-1.745980024337769 6.678540229797363 -10.753000259399414
0.068018302321434 5.698540210723877 -10.805000305175781
-1.736979961395264 6.821539878845215 -10.763999938964844
0.053018998354673 5.914539813995361 -10.821999549865723
0.111018002033234 5.545539855957031 -10.826999664306641
0.083017699420452 6.149539947509766 -10.840999603271484
0.294019997119904 5.607540130615234 -10.838000297546387
0.239020004868507 6.304540157318115 -10.852999687194824
0.225020006299019 6.152540206909180 -10.862000465393066
0.429017990827560 5.660540103912354 -10.869999885559082
0.372018992900848 6.156539916992188 -10.880000114440918
0.542016983032227 6.090539932250977 -10.890000343322754
-1.761980056762695 7.108540058135986 -10.821999549865723
-1.800979971885681 6.965539932250977 -10.819999694824219
1.019019961357117 5.966539859771729 -10.911000251770020
0.728017985820770 5.870540142059326 -10.899000167846680
0.192019000649452 5.972539901733398 -10.885000228881836
-1.863980054855347 6.623539924621582 -10.821000099182129
0.344018995761871 6.018539905548096 -10.902000427246094
0.185019001364708 5.702539920806885 -10.888999938964844
0.690020024776459 6.020540237426758 -10.923999786376953
0.836019992828369 6.012539863586426 -10.930999755859375
0.897017002105713 5.879539966583252 -10.934000015258789
0.614019989967346 5.752540111541748 -10.935000419616699
0.478017985820770 5.963540077209473 -10.937999725341797
-1.866979956626892 6.799540042877197 -10.864999771118164
0.351018995046616 5.877540111541748 -10.935000419616699
0.218020007014275 5.525539875030518 -10.925999641418457
0.553018987178802 5.612539768218994 -10.954000473022461
0.315019994974136 5.724540233612061 -10.947999954223633
-1.986979961395264 6.690539836883545 -10.885000228881836
-1.877979993820190 7.071539878845215 -10.904000282287598
0.601019024848938 5.903540134429932 -10.979999542236328
0.482019990682602 5.362539768218994 -10.979999542236328
0.362017005681992 5.446539878845215 -10.984000205993652
0.395018011331558 5.587540149688721 -10.991000175476074
0.489019989967346 5.739540100097656 -11.010000228881836
0.714017987251282 5.270540237426758 -11.013999938964844
0.792016983032227 5.886539936065674 -11.031999588012695
0.688017010688782 5.504539966583252 -11.020000457763672
-1.962980031967163 6.855539798736572 -10.954000473022461
0.974017024040222 5.201539993286133 -11.039999961853027
0.987016975879669 5.923540115356445 -11.062999725341797
0.714017987251282 5.765540122985840 -11.053000450134277
0.511018991470337 5.494540214538574 -11.038999557495117
0.620015978813171 5.378540039062500 -11.048000335693359
0.961019992828369 5.750539779663086 -11.072999954223633
-1.831979990005493 6.908539772033691 -10.994000434875488
0.637018978595734 5.633540153503418 -11.074000358581543
1.202020049095154 5.177539825439453 -11.097000122070313
0.852019011974335 5.269539833068848 -11.088999748229980
-1.949980020523071 7.032539844512940 -11.022999763488770
-2.126980066299439 6.827539920806885 -11.017999649047852
0.761018991470337 5.397540092468262 -11.112000465393066
0.831018984317780 5.722539901733398 -11.128000259399414
0.760020017623901 5.578539848327637 -11.123999595642090
1.048020005226135 5.436540126800537 -11.151000022888184
1.153020024299622 5.335539817810059 -11.156999588012695
1.079020023345947 5.897540092468262 -11.170000076293945
1.078019976615906 5.189539909362793 -11.173000335693359
-1.999979972839356 6.819540023803711 -11.095999717712402
0.877020001411438 5.467539787292481 -11.185999870300293
0.978017985820770 5.312540054321289 -11.190999984741211
0.936017990112305 5.645540237426758 -11.211000442504883
-2.008980035781860 7.059539794921875 -11.152999877929688
1.048020005226135 5.753540039062500 -11.246999740600586
1.261019945144653 5.325540065765381 -11.250000000000000
-2.190979957580566 6.825540065765381 -11.154000282287598
1.246019959449768 5.117539882659912 -11.260999679565430
1.007019996643066 5.521540164947510 -11.265999794006348
-2.088979959487915 6.939539909362793 -11.173999786376953
1.166020035743713 5.880539894104004 -11.286000251770020
1.069020032882690 5.375539779663086 -11.291999816894531
1.158020019531250 5.232540130615234 -11.312999725341797
1.163020014762878 5.742539882659912 -11.331999778747559
1.112020015716553 5.606540203094482 -11.336999893188477
1.277019977569580 5.838540077209473 -11.368000030517578
1.320019960403442 5.262539863586426 -11.364999771118164
-2.019979953765869 7.158539772033691 -11.277000427246094
-2.117980003356934 7.047540187835693 -11.298999786376953
-2.227979898452759 6.903540134429932 -11.303000450134277
1.346019983291626 5.700540065765381 -11.432000160217285
1.201020002365112 5.411540031433106 -11.427000045776367
1.254019975662231 5.153540134429932 -11.428999900817871
1.251019954681397 5.557539939880371 -11.439999580383301
1.395020008087158 5.546539783477783 -11.458000183105469
1.509019970893860 5.668540000915527 -11.484999656677246
1.318019986152649 5.033539772033691 -11.487000465393066
1.529019951820374 5.518539905548096 -11.512999534606934
1.279019951820374 5.307539939880371 -11.501999855041504
-2.117980003356934 7.138539791107178 -11.411999702453613
1.654019951820374 5.592539787292481 -11.543999671936035
-2.129980087280273 6.958539962768555 -11.425999641418457
-2.272979974746704 6.931540012359619 -11.437000274658203
1.345020055770874 5.430540084838867 -11.550999641418457
1.742020010948181 5.481540203094482 -11.579999923706055
1.335019946098328 5.160540103912354 -11.565999984741211
-2.216979980468750 7.063539981842041 -11.498999595642090
1.474020004272461 5.411540031433106 -11.616000175476074
1.608019948005676 5.473539829254150 -11.626999855041504
1.374019980430603 5.306540012359619 -11.621000289916992
1.356019973754883 4.968540191650391 -11.618000030517578
1.827020049095154 5.404540061950684 -11.678000450134277
1.389019966125488 5.089540004730225 -11.689999580383301
1.528020024299622 5.338540077209473 -11.727000236511230
1.667019963264465 5.391540050506592 -11.739999771118164
-2.331979990005493 6.953539848327637 -11.619999885559082
-2.266979932785034 7.082540035247803 -11.637000083923340
1.466019988059998 5.191539764404297 -11.781999588012695
1.421020030975342 4.951539993286133 -11.782999992370605
1.608019948005676 5.245540142059326 -11.800999641418457
1.767019987106323 5.317540168762207 -11.824000358581543
1.542019963264465 5.145540237426758 -11.897000312805176
1.485020041465759 4.991539955139160 -11.904999732971191
1.681020021438599 5.240540027618408 -11.930999755859375
1.904019951820374 5.328539848327637 -11.951000213623047
1.810019969940186 5.226540088653565 -11.989999771118164
1.592020034790039 4.917540073394775 -11.982000350952148
1.645020008087158 5.072539806365967 -12.032999992370605
1.713019967079163 4.823540210723877 -12.041999816894531
1.975020051002502 5.303540229797363 -12.072999954223633
1.755020022392273 5.124539852142334 -12.112000465393066
1.734019994735718 4.978539943695068 -12.121999740600586
1.892019987106323 5.178540229797363 -12.156999588012695
1.853019952774048 4.818540096282959 -12.170000076293945
2.022020101547241 5.218540191650391 -12.222999572753906
1.889019966125488 5.036540031433106 -12.288999557495117
1.959020018577576 4.852540016174316 -12.293000221252441
2.121020078659058 5.020540237426758 -12.383999824523926
2.048019886016846 4.853539943695068 -12.420999526977539
1.984019994735718 4.994540214538574 -12.444000244140625
2.203020095825195 4.836540222167969 -12.449999809265137
2.110019922256470 4.720540046691895 -12.463999748229980
2.061019897460938 4.951539993286133 -12.564999580383301
2.201020002365112 4.959539890289307 -12.619000434875488
2.316020011901856 5.064539909362793 -12.645000457763672
