ply
format ascii 1.0
element vertex 401
property double x
property double y
property double z
end_header
6.994019985198975 6.271540164947510 -8.117030143737793
6.994019985198975 6.271540164947510 -8.117030143737793
6.789020061492920 6.280539989471436 -8.144040107727051
7.189020156860352 6.292540073394775 -8.200039863586426
6.894020080566406 6.200540065765381 -8.202030181884766
6.468019962310791 6.084539890289307 -8.190030097961426
6.654019832611084 6.268539905548096 -8.210040092468262
7.278019905090332 6.392539978027344 -8.248040199279785
7.066020011901856 6.232540130615234 -8.267029762268066
7.540019989013672 6.450540065765381 -8.292030334472656
6.932020187377930 6.329539775848389 -8.268030166625977
7.105020046234131 6.380539894104004 -8.285030364990234
6.774020195007324 6.324540138244629 -8.279040336608887
6.762020111083984 6.160540103912354 -8.278030395507813
6.614019870758057 6.106540203094482 -8.291029930114746
6.333020210266113 6.014540195465088 -8.279040336608887
6.545020103454590 6.236539840698242 -8.300040245056152
7.688020229339600 6.416540145874023 -8.356040000915527
7.449019908905029 6.351540088653565 -8.347029685974121
7.400020122528076 6.486539840698242 -8.351030349731445
6.505020141601563 6.011539936065674 -8.315030097961426
6.418019771575928 6.171539783477783 -8.317040443420410
7.218019962310791 6.445539951324463 -8.369039535522461
7.216020107269287 6.288539886474609 -8.366040229797363
6.645020008087158 6.324540138244629 -8.357029914855957
6.953020095825195 6.220540046691895 -8.372030258178711
6.975019931793213 6.407539844512940 -8.384039878845215
7.569019794464111 6.533539772033691 -8.414039611816406
7.815020084381104 6.431540012359619 -8.424030303955078
6.352019786834717 5.884540081024170 -8.354029655456543
6.226019859313965 5.963540077209473 -8.360030174255371
7.712019920349121 6.570539951324463 -8.439040184020996
7.570020198822022 6.385540008544922 -8.431030273437500
7.854020118713379 6.564539909362793 -8.459030151367188
7.078020095825195 6.284540176391602 -8.425040245056152
6.822020053863525 6.387539863586426 -8.424030303955078
7.323019981384277 6.373539924621582 -8.445030212402344
7.093019962310791 6.467539787292481 -8.441029548645020
7.297019958496094 6.537539958953857 -8.455030441284180
6.671020030975342 6.159540176391602 -8.422039985656738
6.300020217895508 6.192540168762207 -8.415040016174316
6.826019763946533 6.202539920806885 -8.441029548645020
6.207019805908203 5.767539978027344 -8.412030220031738
6.483019828796387 6.264540195465088 -8.436039924621582
7.449019908905029 6.630539894104004 -8.483030319213867
7.602019786834717 6.661540031433106 -8.495039939880371
6.562019824981690 6.068540096282959 -8.449040412902832
6.454020023345947 5.952539920806885 -8.444029808044434
7.161019802093506 6.589540004730225 -8.488039970397949
7.689020156860352 6.429540157318115 -8.507029533386231
7.475019931793213 6.954539775848389 -8.514030456542969
7.456019878387451 6.446539878845215 -8.509039878845215
6.198019981384277 6.095540046691895 -8.465029716491699
6.879020214080811 6.498539924621582 -8.502039909362793
7.298019886016846 6.664539813995361 -8.524029731750488
7.622019767761231 6.997539997100830 -8.546039581298828
7.188020229339600 6.393539905548096 -8.517029762268066
6.705019950866699 6.420539855957031 -8.502039909362793
6.133019924163818 5.941539764404297 -8.470040321350098
7.775020122528076 6.650539875030518 -8.554039955139160
7.399020195007324 6.775539875030518 -8.542030334472656
6.992020130157471 6.584539890289307 -8.532039642333984
6.573019981384277 6.359539985656738 -8.513030052185059
7.917019844055176 6.649539947509766 -8.576029777526856
6.323019981384277 5.853539943695068 -8.497030258178711
7.578020095825195 6.504539966583252 -8.563030242919922
7.129020214080811 6.751540184020996 -8.551030158996582
7.009019851684570 6.362539768218994 -8.543040275573731
6.960020065307617 6.746540069580078 -8.551030158996582
7.352019786834717 6.912539958953857 -8.578040122985840
6.858019828796387 6.318540096282959 -8.550040245056152
8.018019676208496 6.548540115356445 -8.603030204772949
7.528019905090332 6.836540222167969 -8.592040061950684
6.724020004272461 6.259540081024170 -8.548029899597168
6.847020149230957 6.660540103912354 -8.562029838562012
8.080019950866699 6.681540012359619 -8.614029884338379
5.997019767761231 5.933539867401123 -8.514030456542969
7.382019996643066 6.551539897918701 -8.587030410766602
6.599020004272461 6.185540199279785 -8.549030303955078
7.740019798278809 6.519539833068848 -8.605039596557617
7.183020114898682 6.905539989471436 -8.592040061950684
6.095019817352295 5.710539817810059 -8.527029991149902
6.452020168304443 6.073540210723877 -8.559029579162598
6.751019954681397 6.530539989471436 -8.582030296325684
7.500020027160645 6.679540157318115 -8.618029594421387
7.083020210266113 6.486539840698242 -8.598039627075195
6.271019935607910 6.195539951324463 -8.560040473937988
8.193019866943359 6.588540077209473 -8.648030281066895
6.383019924163818 6.292540073394775 -8.569029808044434
7.236020088195801 6.568540096282959 -8.610030174255371
7.262020111083984 6.780539989471436 -8.616040229797363
6.089019775390625 6.057539939880371 -8.555029869079590
7.882019996643066 6.525539875030518 -8.638030052185059
7.658020019531250 6.655539989471436 -8.635029792785645
7.717020034790039 6.795539855957031 -8.641039848327637
6.222020149230957 5.768539905548096 -8.559029579162598
6.590020179748535 6.511539936065674 -8.591030120849609
7.030020236968994 6.862539768218994 -8.621029853820801
6.340020179748535 5.984539985656738 -8.576029777526856
6.462019920349121 6.429540157318115 -8.599040031433106
7.092020034790039 6.639540195465088 -8.634039878845215
7.842020034790039 7.065539836883545 -8.676030158996582
8.295020103454590 6.680540084838867 -8.686039924621582
7.809020042419434 6.909540176391602 -8.675040245056152
8.026020050048828 6.850540161132813 -8.688030242919922
5.967020034790039 5.763539791107178 -8.582030296325684
6.887020111083984 6.465539932250977 -8.642029762268066
7.828020095825195 6.686540126800537 -8.690030097961426
6.770020008087158 6.381539821624756 -8.643030166625977
6.322020053863525 6.406539916992188 -8.633040428161621
6.946020126342773 6.657539844512940 -8.666029930114746
6.688020229339600 6.643539905548096 -8.657039642333984
8.080019950866699 6.986539840698242 -8.725029945373535
6.137020111083984 6.190539836883545 -8.631030082702637
5.894020080566406 5.921539783477783 -8.616040229797363
6.844019889831543 6.795539855957031 -8.674030303955078
7.969019889831543 6.655539989471436 -8.716030120849609
6.223020076751709 5.898540019989014 -8.633040428161621
6.506020069122315 6.240540027618408 -8.653030395507813
6.626019954681397 6.326539993286133 -8.666029930114746
6.386020183563232 6.154540061950684 -8.656029701232910
8.460020065307617 6.732540130615234 -8.752039909362793
7.898019790649414 6.816539764404297 -8.740030288696289
6.498020172119141 6.576539993286133 -8.679039955139160
5.978020191192627 6.094540119171143 -8.653030395507813
6.206019878387451 6.314539909362793 -8.670029640197754
7.936019897460938 6.957540035247803 -8.755040168762207
6.066020011901856 5.705540180206299 -8.670029640197754
6.011020183563232 6.252540111541748 -8.680029869079590
8.140020370483398 6.689539909362793 -8.781029701232910
6.807020187377930 6.604539871215820 -8.727040290832520
6.265019893646240 6.088540077209473 -8.696040153503418
5.831019878387451 5.773540019989014 -8.677029609680176
5.930019855499268 5.661540031433106 -8.685040473937988
6.731019973754883 6.752540111541748 -8.751040458679199
5.864019870758057 6.167540073394775 -8.705030441284180
6.107019901275635 5.848539829254150 -8.713040351867676
6.372019767761231 6.520540237426758 -8.742030143737793
6.203020095825195 6.461540222167969 -8.737039566040039
5.805019855499268 6.016540050506592 -8.713040351867676
6.684020042419434 6.526539802551270 -8.765040397644043
8.604020118713379 6.776539802551270 -8.848039627075195
5.008019924163818 6.079539775848389 -8.689040184020996
6.150020122528076 6.007540225982666 -8.734040260314941
6.605020046234131 6.680540084838867 -8.771030426025391
5.183020114898682 6.071539878845215 -8.701029777526856
5.909019947052002 6.335539817810059 -8.736029624938965
5.729020118713379 5.881539821624756 -8.719030380249023
6.076019763946533 6.367539882659912 -8.744039535522461
6.566020011901856 6.437540054321289 -8.769040107727051
8.084019660949707 6.877540111541748 -8.843029975891113
8.355019569396973 6.731540203094482 -8.851030349731445
6.439020156860352 6.348539829254150 -8.766039848327637
5.704020023345947 6.121540069580078 -8.737039566040039
6.317019939422607 6.262539863586426 -8.767029762268066
5.778019905090332 6.277540206909180 -8.750029563903809
8.474020004272461 6.839540004730225 -8.872030258178711
8.206020355224609 6.805540084838867 -8.864029884338379
5.313020229339600 6.133540153503418 -8.736029624938965
5.722020149230957 5.711540222167969 -8.754030227661133
5.502019882202148 5.884540081024170 -8.751040458679199
4.874020099639893 5.979539871215820 -8.729029655456543
5.633019924163818 6.252540111541748 -8.767029762268066
8.204019546508789 6.951539993286133 -8.886030197143555
5.643020153045654 5.995540142059326 -8.763030052185059
5.507019996643066 6.064539909362793 -8.764030456542969
8.338020324707031 6.877540111541748 -8.896030426025391
6.164020061492920 6.180540084838867 -8.798029899597168
5.087019920349121 6.188539981842041 -8.760029792785645
5.965020179748535 5.770540237426758 -8.786040306091309
6.013020038604736 5.929540157318115 -8.792030334472656
5.207019805908203 6.267539978027344 -8.771030426025391
6.053020000457764 6.085539817810059 -8.808030128479004
6.565020084381104 6.563539981842041 -8.842040061950684
5.087019920349121 5.973539829254150 -8.770030021667481
5.582019805908203 5.767539978027344 -8.791029930114746
5.392020225524902 5.977540016174316 -8.790040016174316
6.434020042419434 6.617539882659912 -8.858030319213867
5.861020088195801 5.652540206909180 -8.818039894104004
6.348020076751709 6.432539939880371 -8.856040000915527
5.250020027160645 5.959539890289307 -8.804039955139160
6.167019844055176 6.535540103912354 -8.862039566040039
6.220019817352295 6.368539810180664 -8.861029624938965
5.905020236968994 6.478539943695068 -8.856040000915527
5.895020008087158 6.014540195465088 -8.846030235290527
4.932020187377930 6.083539962768555 -8.810040473937988
5.981019973754883 6.199540138244629 -8.866040229797363
5.341020107269287 5.834539890289307 -8.837030410766602
5.342020034790039 6.249539852142334 -8.847029685974121
6.297019958496094 6.584539890289307 -8.898030281066895
5.499020099639893 6.299540042877197 -8.860030174255371
5.771019935607910 6.434539794921875 -8.878029823303223
5.637020111083984 6.375539779663086 -8.874030113220215
5.839019775390625 6.153540134429932 -8.878029823303223
6.062019824981690 6.360539913177490 -8.892029762268066
5.714019775390625 5.592539787292481 -8.861029624938965
4.989019870758057 5.895540237426758 -8.842040061950684
5.794020175933838 5.916540145874023 -8.875029563903809
5.452020168304443 5.716539859771729 -8.859040260314941
5.166019916534424 5.853539943695068 -8.856040000915527
5.190020084381104 6.152540206909180 -8.864029884338379
5.894020080566406 6.332540035247803 -8.897040367126465
5.757019996643066 6.279540061950684 -8.892029762268066
5.702020168304443 6.058539867401123 -8.890040397644043
4.811019897460938 6.018539905548096 -8.854029655456543
5.626019954681397 6.184539794921875 -8.892029762268066
6.033020019531250 6.514540195465088 -8.917030334472656
5.461019992828369 6.163539886474609 -8.894040107727051
5.747019767761231 5.732540130615234 -8.897040367126465
4.839019775390625 5.877540111541748 -8.872030258178711
5.071020126342773 6.074540138244629 -8.893030166625977
5.329020023345947 6.108540058135986 -8.914039611816406
5.557020187377930 6.049540042877197 -8.922039985656738
5.316020011901856 5.712540149688721 -8.920029640197754
5.668019771575928 5.848539829254150 -8.939040184020996
5.589019775390625 5.578539848327637 -8.932040214538574
5.068019866943359 5.771540164947510 -8.926030158996582
4.710020065307617 5.940539836883545 -8.925040245056152
5.529019832611084 5.894539833068848 -8.960040092468262
4.944019794464111 6.010540008544922 -8.946040153503418
5.413020133972168 5.983540058135986 -8.967040061950684
4.921020030975342 5.758540153503418 -8.943039894104004
5.221020221710205 6.002540111541748 -8.961030006408691
5.614019870758057 5.713540077209473 -8.971030235290527
5.424019813537598 5.605539798736572 -8.971030235290527
5.185019969940186 5.692540168762207 -8.977040290832520
5.087019920349121 5.950540065765381 -9.002039909362793
5.275020122528076 5.582540035247803 -9.005040168762207
5.305019855499268 5.888539791107178 -9.014030456542969
5.003019809722900 5.639540195465088 -9.004030227661133
4.789020061492920 5.773540019989014 -9.023030281066895
5.471020221710205 5.725540161132813 -9.051030158996582
4.835020065307617 5.943540096282959 -9.032039642333984
5.126019954681397 5.545539855957031 -9.042030334472656
4.608019828796387 5.914539813995361 -9.033040046691895
5.541019916534424 5.591539859771729 -9.068039894104004
4.977019786834717 5.885540008544922 -9.072030067443848
5.336019992828369 5.737539768218994 -9.098039627075195
4.875020027160645 5.619540214538574 -9.077030181884766
5.412020206451416 5.533539772033691 -9.097029685974121
4.981019973754883 5.508540153503418 -9.080030441284180
4.739019870758057 5.874539852142334 -9.112039566040039
5.191020011901856 5.751540184020996 -9.129030227661133
4.677020072937012 5.734539985656738 -9.111029624938965
5.208020210266113 5.464540004730225 -9.145030021667481
4.405020236968994 5.773540019989014 -9.129030227661133
4.479020118713379 5.899539947509766 -9.136030197143555
4.950019836425781 5.770540237426758 -9.157039642333984
4.769020080566406 5.538539886474609 -9.147040367126465
4.542019844055176 5.698540210723877 -9.154040336608887
4.867020130157471 5.432539939880371 -9.166029930114746
5.010019779205322 5.400539875030518 -9.172039985656738
5.491020202636719 5.435540199279785 -9.194029808044434
5.290019989013672 5.626540184020996 -9.195030212402344
5.348020076751709 5.453539848327637 -9.198030471801758
5.064020156860352 5.685540199279785 -9.193039894104004
4.637020111083984 5.592539787292481 -9.179039955139160
4.448019981384277 5.585539817810059 -9.188030242919922
4.727019786834717 5.410540103912354 -9.199040412902832
4.319019794464111 5.667540073394775 -9.195030212402344
4.872019767761231 5.671539783477783 -9.223039627075195
5.150020122528076 5.354539871215820 -9.244039535522461
4.730020046234131 5.690539836883545 -9.236029624938965
5.168019771575928 5.569540023803711 -9.254030227661133
4.191020011901856 5.723539829254150 -9.225029945373535
4.602019786834717 5.470540046691895 -9.251040458679199
4.942019939422607 5.529540061950684 -9.282039642333984
5.243020057678223 5.454539775848389 -9.300040245056152
5.072020053863525 5.469540119171143 -9.297039985656738
4.936019897460938 5.212540149688721 -9.286040306091309
4.331019878387451 5.546539783477783 -9.276040077209473
4.698019981384277 5.278540134429932 -9.285030364990234
4.455019950866699 5.467539787292481 -9.289039611816406
4.699019908905029 5.561540126800537 -9.307040214538574
4.422019958496094 5.693540096282959 -9.302029609680176
4.813020229339600 5.474540233612061 -9.318039894104004
4.897019863128662 5.072539806365967 -9.318039894104004
5.064020156860352 5.250539779663086 -9.335040092468262
4.943019866943359 5.360539913177490 -9.333029747009277
4.570020198822022 5.351540088653565 -9.324040412902832
4.547019958496094 5.602540016174316 -9.333029747009277
4.189020156860352 5.562540054321289 -9.318039894104004
4.660019874572754 5.091539859771729 -9.333029747009277
4.099020004272461 5.676539897918701 -9.332030296325684
4.630020141601563 4.948540210723877 -9.338040351867676
4.275020122528076 5.674540042877197 -9.345040321350098
4.828020095825195 5.281539916992188 -9.364029884338379
4.516019821166992 5.207540035247803 -9.350029945373535
4.510019779205322 4.852540016174316 -9.344030380249023
4.693019866943359 5.409540176391602 -9.368029594421387
4.783020019531250 4.978539943695068 -9.364029884338379
4.785019874572754 5.139540195465088 -9.384039878845215
4.524020195007324 5.060540199279785 -9.372030258178711
4.402019977569580 4.977540016174316 -9.386030197143555
4.210020065307617 4.840539932250977 -9.384039878845215
4.637020111083984 5.248539924621582 -9.414039611816406
4.397019863128662 5.271540164947510 -9.405030250549316
4.299019813537598 5.400539875030518 -9.405030250549316
4.411019802093506 5.488540172576904 -9.432040214538574
4.362020015716553 5.111539840698242 -9.422039985656738
4.351019859313965 4.843540191650391 -9.422039985656738
4.281020164489746 5.571539878845215 -9.443039894104004
4.499020099639893 5.360539913177490 -9.449040412902832
4.254020214080811 4.997539997100830 -9.435040473937988
4.177020072937012 5.468540191650391 -9.447030067443848
4.074019908905029 4.783539772033691 -9.439040184020996
4.025020122528076 5.688539981842041 -9.463040351867676
4.490019798278809 5.151539802551270 -9.479029655456543
4.060019969940186 5.552539825439453 -9.501040458679199
4.217020034790039 5.157539844512940 -9.523030281066895
4.130020141601563 4.979539871215820 -9.521030426025391
4.264019966125488 4.883540153503418 -9.532039642333984
4.178020000457764 5.294539928436279 -9.542030334472656
4.347020149230957 5.245540142059326 -9.548029899597168
4.285019874572754 5.395540237426758 -9.551030158996582
4.284019947052002 5.031539916992188 -9.581040382385254
4.013020038604736 4.806540012359619 -9.576029777526856
4.047019958496094 5.345540046691895 -9.592040061950684
3.965019941329956 5.623539924621582 -9.596030235290527
4.161019802093506 5.449540138244629 -9.613039970397949
4.148019790649414 4.846539974212647 -9.606040000915527
4.036019802093506 5.056540012359619 -9.632029533386231
4.086019992828369 5.205540180206299 -9.642029762268066
4.185019969940186 5.089540004730225 -9.674030303955078
4.043019771575928 5.471539974212647 -9.704030036926270
3.955019950866699 4.958539962768555 -9.696040153503418
3.972019910812378 4.700540065765381 -9.705030441284180
4.057020187377930 4.822539806365967 -9.719030380249023
4.070020198822022 5.321539878845215 -9.733030319213867
3.941020011901856 5.587540149688721 -9.735030174255371
4.095019817352295 4.979539871215820 -9.746029853820801
3.843019962310791 5.486539840698242 -9.778030395507813
3.850019931793213 5.290540218353272 -9.775030136108398
3.923019886016846 4.822539806365967 -9.775030136108398
4.047019958496094 5.128540039062500 -9.795029640197754
3.967020034790039 5.396540164947510 -9.802029609680176
3.884020090103149 5.126540184020996 -9.799030303955078
3.979020118713379 5.248539924621582 -9.832030296325684
3.853019952774048 4.964540004730225 -9.829030036926270
3.750020027160645 5.388539791107178 -9.840029716491699
3.722019910812378 5.247539997100830 -9.859040260314941
3.971019983291626 5.039539813995361 -9.878029823303223
3.828020095825195 4.836540222167969 -9.889030456542969
3.764019966125488 5.538539886474609 -9.907039642333984
3.771019935607910 5.088540077209473 -9.898030281066895
3.878020048141480 4.702539920806885 -9.899029731750488
3.604020118713379 5.297540187835693 -9.925040245056152
3.844019889831543 5.216539859771729 -9.944029808044434
3.630019903182983 5.151539802551270 -9.950039863586426
3.640019893646240 5.468540191650391 -9.958029747009277
3.728019952774048 5.279540061950684 -9.999030113220215
3.671020030975342 4.981540203094482 -9.993029594421387
3.512020111083984 5.399539947509766 -10.003999710083008
3.742019891738892 4.851540088653565 -10.003999710083008
3.514019966125488 5.221539974212647 -10.006999969482422
3.817019939422607 4.978539943695068 -10.019000053405762
3.710020065307617 4.631539821624756 -10.029000282287598
3.812020063400269 4.732540130615234 -10.039999961853027
3.399019956588745 5.320539951324463 -10.045000076293945
3.734019994735718 5.102540016174316 -10.055999755859375
3.618020057678223 4.795539855957031 -10.067000389099121
3.489020109176636 5.074540138244629 -10.071999549865723
3.571019887924194 4.951539993286133 -10.090000152587891
3.294019937515259 5.209539890289307 -10.085000038146973
3.579020023345947 4.647540092468262 -10.083999633789062
3.158020019531250 5.268539905548096 -10.085000038146973
3.611020088195801 5.152540206909180 -10.109000205993652
3.478019952774048 4.548540115356445 -10.112000465393066
3.434020042419434 5.194540023803711 -10.133000373840332
3.482019901275635 4.771540164947510 -10.145000457763672
3.347019910812378 5.075540065765381 -10.149999618530273
3.449019908905029 4.955540180206299 -10.163999557495117
3.206020116806030 5.116539955139160 -10.175000190734863
3.384020090103149 4.644539833068848 -10.178999900817871
3.260020017623901 4.566539764404297 -10.190999984741211
3.581020116806030 4.854539871215820 -10.215999603271484
3.081020116806030 5.230539798736572 -10.206000328063965
3.536020040512085 5.052539825439453 -10.225999832153320
3.385020017623901 4.842539787292481 -10.223999977111816
3.311019897460938 5.024539947509766 -10.288999557495117
3.189019918441773 4.663539886474609 -10.289999961853027
3.141020059585571 5.121540069580078 -10.305000305175781
3.464020013809204 4.979539871215820 -10.333000183105469
3.280019998550415 4.830540180206299 -10.335000038146973
3.321019887924194 4.689539909362793 -10.336999893188477
3.122020006179810 4.550539970397949 -10.345999717712402
3.040019989013672 5.231540203094482 -10.357999801635742
3.209019899368286 4.984539985656738 -10.390000343322754
3.152019977569580 4.715539932250977 -10.420000076293945
3.356019973754883 4.911540031433106 -10.446999549865723
3.200020074844360 4.850540161132813 -10.451000213623047
3.054019927978516 5.112539768218994 -10.477000236511230
3.005019903182983 5.250539779663086 -10.506999969482422
3.117019891738892 4.991539955139160 -10.548999786376953
3.259020090103149 4.953539848327637 -10.560999870300293
3.105020046234131 4.846539974212647 -10.571999549865723
2.988019943237305 5.152540206909180 -10.612999916076660
3.149019956588745 4.936540126800537 -10.678000450134277
2.937020063400269 5.218540191650391 -10.732000350952148
2.830019950866699 5.208539962768555 -10.831000328063965
2.721019983291626 5.143539905548096 -10.906000137329102
