ply
format ascii 1.0
element vertex 118
property double x
property double y
property double z
end_header
-82.385902404785156 225.106994628906250 -85.336502075195312
-85.945503234863281 229.565002441406250 -85.548400878906250
-84.365097045898437 227.251007080078120 -85.366401672363281
-89.461502075195313 233.865997314453120 -89.683799743652344
-88.280949910481766 233.095998128255220 -86.620368957519531
-91.190387725830078 236.770624160766600 -87.315899848937988
-93.763699849446610 239.659998575846340 -87.595232645670578
-77.056850433349609 221.367004394531250 -82.461750030517578
-75.504951477050781 220.931503295898440 -82.685298919677734
-81.746047973632812 225.667999267578120 -82.602802276611328
-78.925866444905594 223.497164408365880 -82.161632537841797
-85.298900604248047 230.008995056152340 -82.815750122070312
-83.698739624023432 228.213400268554690 -82.207121276855474
-87.204828534807476 232.814287458147330 -82.710214887346538
-90.558183034261063 237.576998392740880 -82.494600931803390
-88.753803253173828 235.685997009277340 -81.579147338867188
-92.567067464192704 240.203669230143220 -82.085098266601563
-71.759902954101562 215.675994873046870 -77.588203430175781
-75.928100585937500 221.516998291015620 -79.526397705078125
-73.830900828043625 219.321833292643220 -77.892267862955734
-78.154701232910156 224.285751342773440 -78.632625579833984
-75.569297790527344 221.839004516601560 -77.681198120117187
-82.353175163269043 228.562875747680660 -78.922188758850098
-80.239997863769531 227.179992675781250 -77.277198791503906
-86.060474395751953 233.302501678466800 -79.196449279785156
-84.461235046386719 231.610000610351560 -78.236999511718750
-87.734855651855469 237.114715576171870 -78.751829964773989
-89.610099792480469 240.732994079589840 -79.727199554443359
-87.687500000000000 239.705001831054690 -77.629096984863281
-67.515701293945313 211.667007446289060 -72.006401062011719
-65.222396850585937 212.154998779296870 -72.421997070312500
-68.632900238037109 214.790254592895510 -73.715925216674805
-72.617866516113281 219.904004414876310 -74.741717020670578
-70.201482137044266 218.839833577473970 -72.848832448323563
-76.902727127075195 225.039997100830080 -75.002126693725586
-74.256124496459961 223.402750015258790 -73.538863182067871
-37.508566538492836 222.823338826497410 -72.610600789388016
-34.744233449300133 224.784998575846340 -73.302602132161454
-81.127720642089841 229.512197875976570 -74.501359558105463
-78.912986755371094 227.510999679565430 -74.132676124572754
-32.876675128936768 227.344249725341800 -72.709375381469727
-29.322799682617188 229.347751617431640 -73.251199722290039
-85.225097656250000 234.083999633789060 -75.839599609375000
-83.420277913411454 232.209330240885410 -74.296589321560333
-27.740399360656738 231.728996276855470 -72.622447967529297
-24.887759780883790 233.405599975585940 -73.113661193847662
-85.834299723307296 236.329004923502590 -74.900899251302079
-23.654289817810060 236.795399475097670 -73.575910186767572
-59.723499298095703 211.718994140625000 -69.257499694824219
-57.718799591064453 211.755996704101560 -69.991699218750000
-64.586680603027347 214.488201904296890 -70.804661560058591
-60.724074363708496 214.707504272460940 -69.661899566650391
-55.656924247741699 214.686252593994140 -68.785699844360352
-51.813100814819336 214.716499328613280 -67.289249420166016
-45.668498992919922 215.701995849609370 -67.311500549316406
-43.968700408935547 215.794998168945310 -68.306503295898438
-68.319074630737305 219.644748687744140 -71.029199600219727
-64.936743600027896 219.119142804827020 -69.563429696219302
-60.757717132568359 219.651997884114590 -68.165451049804688
-55.704249699910484 218.784001668294280 -67.989933013916016
-51.078966776529946 219.027328491210940 -67.502965291341141
-46.377133687337242 219.048665364583340 -67.331433614095047
-42.671334584554039 219.176330566406250 -68.720868428548172
-72.757526942661826 224.810714721679690 -69.431157793317524
-68.788099288940430 222.911249160766600 -69.031675338745117
-64.649198532104492 221.914001464843750 -67.847301483154297
-49.723598480224609 221.638000488281250 -67.285697937011719
-46.386833190917969 222.343002319335940 -67.382868448893234
-41.889757428850444 223.777568272181920 -68.000928606305806
-38.213212490081787 223.946874618530270 -69.986863136291504
-78.507800292968753 228.532800292968740 -69.992758178710943
-75.433547973632812 226.287498474121090 -68.633548736572266
-37.282542637416292 228.085429600306920 -68.615043640136719
-33.684962272644043 228.883872985839840 -70.524900436401367
-82.565050125122070 232.827251434326170 -70.678726196289062
-32.261699948992046 232.230429513113850 -68.987214224679136
-29.475724697113037 233.615377426147460 -69.687199592590332
-28.065999984741211 235.976163228352870 -69.210366566975907
-25.384224414825439 237.855503082275390 -70.828250885009766
-49.887298583984375 215.929000854492190 -66.684303283691406
-47.692401885986328 215.820007324218750 -66.767501831054688
-55.745000203450523 221.442001342773440 -67.083498636881515
-49.779899597167969 217.789993286132810 -67.064796447753906
-47.763599395751953 217.837005615234370 -66.937400817871094
-72.752426147460938 225.519748687744140 -64.576598167419434
-69.000280761718756 224.996600341796860 -65.120061492919916
-64.752016067504883 224.289164225260410 -64.886100133260086
-60.684682846069336 223.419164021809910 -65.240849812825516
-55.564279556274414 223.586599731445320 -65.120500183105463
-50.589941842215403 224.219286237444210 -65.473199571881977
-47.680999755859375 224.549499511718750 -66.291252136230469
-43.657501220703125 225.574005126953120 -67.127296447753906
-77.393596649169922 228.163497924804690 -64.793050765991211
-75.510097503662109 226.442497253417970 -64.691698074340820
-46.753448486328125 226.792495727539060 -63.720998764038086
-41.794278038872612 228.468226114908840 -64.991222381591797
-38.978101094563804 229.569666544596340 -66.063000996907547
-36.673428671700613 231.638857160295770 -64.521785191127236
-32.677533149719238 233.580334981282560 -64.572966893513993
-29.782599449157715 234.708000183105470 -64.531751632690430
-27.597499847412109 235.352005004882810 -65.660499572753906
-63.675998687744141 226.039993286132810 -61.856300354003906
-60.733850479125977 225.630500793457030 -61.586500167846680
-55.721433639526367 225.483004252115880 -60.564233779907227
-50.749799728393555 225.714752197265620 -60.591824531555176
-71.698600769042969 226.328002929687500 -61.877998352050781
-69.066767374674484 227.138331095377590 -61.620099385579429
-65.075200398763016 226.966003417968750 -61.528301239013672
-60.749650955200195 227.646995544433590 -59.604249954223633
-46.963780212402341 227.013400268554680 -60.779779815673827
-43.199900309244789 229.139167785644530 -60.748383839925133
-40.753866831461586 231.449666341145840 -60.602433522542320
-38.105382919311523 233.073499043782560 -61.036083221435547
-35.325901031494141 235.014999389648440 -61.027900695800781
-32.734300613403320 235.704505920410160 -61.601100921630859
-50.771600723266602 225.821495056152340 -57.608100891113281
-55.706299781799316 226.908500671386720 -57.716449737548828
-48.046901702880859 226.302001953125000 -57.624401092529297
