ply
format ascii 1.0
element vertex 316
property double x
property double y
property double z
end_header
-225.369003295898440 -396.864013671875000 -447.752990722656250
-222.113198852539060 -395.446191406250020 -446.126007080078130
-221.722554524739590 -390.636111789279540 -446.452940199110230
-217.119995117187500 -387.058990478515620 -443.963989257812500
-220.433876991271970 -382.704059600830080 -446.425315856933590
-215.968875885009770 -382.065505981445310 -444.367500305175780
-220.979330698649080 -374.007583618164060 -445.391253153483090
-214.944750467936190 -374.083081563313780 -444.521664937337220
-221.158454201438220 -366.037728049538370 -443.126273415305380
-214.421857561383920 -366.392929077148440 -444.262357439313630
-219.708401489257820 -359.608795166015620 -441.502996826171850
-213.464319458007820 -357.625920410156250 -444.127238769531230
-209.158004760742190 -361.204010009765630 -446.640014648437500
-212.005785260881710 -349.810431344168530 -444.896072387695310
-210.608286176409050 -342.061427525111580 -444.588213239397310
-207.964779324001740 -334.803439670138910 -443.625667995876710
-220.968101501464840 -356.490200805664070 -439.710800170898440
-216.825996398925780 -354.274993896484370 -439.974502563476560
-219.670925433819120 -349.633225661057680 -435.996687669020450
-214.862442016601560 -349.190833197699650 -438.768722534179690
-218.718994140625000 -345.342987060546870 -433.765991210937500
-212.612073545102730 -341.983334011501710 -436.632368299696170
-209.552497863769530 -336.629501342773440 -435.632492065429690
-207.832062721252440 -333.353685379028320 -437.161624908447270
-204.967202758789060 -325.903201293945300 -436.314501953124990
-203.759454900568190 -319.060632879083810 -435.995089444247180
-198.320199584960930 -309.363201904296890 -434.607403564453140
-219.409001668294280 -342.709330240885440 -431.889668782552060
-215.546713692801350 -339.388000488281250 -431.995431082589280
-217.358001708984370 -332.774993896484370 -426.782012939453130
-212.914721069335940 -333.948879394531280 -430.059876708984350
-208.034284319196420 -330.904139927455330 -431.312421526227690
-212.954501342773430 -327.329702758789040 -426.181497192382840
-205.628463745117190 -324.886640276227690 -428.542249407087070
-202.011820012872870 -320.427185058593750 -430.111724853515620
-199.700438499450680 -316.655185699462890 -428.250123977661130
-196.585886928013390 -310.294685581752220 -429.586657714843740
-191.509857177734370 -306.360573904854900 -427.730564662388420
-188.239625930786130 -304.909500122070310 -429.279880523681640
-182.530999755859370 -302.441796875000020 -426.724395751953120
-212.912165323893220 -323.558995564778630 -424.101832071940120
-208.365000406901030 -322.410664876302060 -424.294667561848940
-211.617996215820310 -319.821004231770810 -420.915659586588560
-205.166954040527340 -318.908819025213060 -421.736638849431810
-199.309466552734360 -315.562664794921890 -421.509265136718740
-195.068563461303710 -311.702440261840820 -421.693561553955080
-190.755777994791660 -307.582667032877620 -421.194666544596370
-186.782000732421860 -304.721801757812500 -420.663604736328120
-181.342640380859360 -301.142480468750020 -421.093841552734380
-175.898077157827520 -295.251922607421870 -420.291771521935120
-204.652454723011370 -314.968547474254250 -415.436631636186060
-200.660003662109370 -313.716003417968750 -415.950988769531250
-203.691598510742180 -312.324194335937480 -411.771795654296850
-197.374091408469470 -310.548725474964500 -413.053271206942500
-190.767867024739590 -307.063869222005220 -413.736464436848960
-186.877126693725590 -304.579998016357420 -413.043872833251950
-181.124201660156250 -301.024282226562490 -413.566359863281260
-176.611999511718750 -298.195668538411440 -411.171010335286440
-174.156833648681640 -294.797626495361330 -413.218751271565740
-166.558003743489590 -291.362009684244810 -410.947998046875000
-155.119003295898440 -289.680999755859380 -410.239990234375000
-163.627334594726560 -288.461334228515620 -411.597340901692690
-157.859998914930540 -289.002560085720460 -412.500888400607660
-151.091003417968750 -288.806325276692690 -410.215993245442690
-196.325572422572550 -307.301426478794670 -407.961425781250000
-192.738998413085940 -305.542999267578120 -407.980987548828120
-194.805999755859380 -304.357498168945310 -405.050491333007810
-189.654369212962960 -301.659631799768530 -404.671815095124430
-182.210897827148440 -300.024800109863290 -405.616848754882820
-175.585781521267360 -298.269114176432310 -405.900000678168400
-188.134498596191410 -296.709503173828120 -401.042999267578120
-181.296168009440090 -296.699829101562500 -401.952835083007810
-172.470403035481780 -295.830995686848950 -405.080603027343730
-165.360720214843750 -292.709199218749970 -404.617523193359370
-158.602272727272720 -290.218095259232940 -403.590187766335250
-152.929992675781250 -289.427001953125000 -402.376007080078120
-162.968002319335940 -289.092010498046870 -408.299011230468750
-157.220876693725590 -289.094245910644530 -407.040500640869140
-149.856201171875000 -288.928930664062480 -405.474064127604150
-142.436900329589830 -285.806701660156250 -403.240197753906270
-137.276000976562500 -281.101013183593750 -401.877990722656250
-186.970001220703120 -295.083007812500000 -400.290985107421870
-180.535778469509550 -293.786997477213560 -399.246331108940980
-173.841167873806430 -293.713500976562500 -397.661778767903630
-165.791000366210940 -293.850587732651660 -397.498474121093750
-157.816474513003700 -292.390790437397190 -397.652472245065780
-150.054799397786470 -290.509802246093730 -396.538863118489590
-144.781997680664060 -289.605010986328120 -394.552001953125000
-147.111751556396480 -288.651748657226560 -399.196250915527340
-141.133546309037650 -286.840318159623560 -397.668955022638500
-134.152738488238780 -283.479736328125000 -396.087390402089000
-131.606445312500000 -280.201883951822940 -397.057220458984370
-173.260499954223630 -293.302623748779300 -391.242122650146480
-165.785727761008530 -294.519865556196750 -388.837319113991500
-158.147646735696240 -293.768705480238960 -389.273232852711370
-149.976250648498540 -292.673187255859370 -389.307687759399410
-142.182062149047850 -291.026496887207030 -389.215312957763670
-134.715250015258790 -290.389499664306640 -387.099624633789060
-138.979251861572270 -288.515495300292970 -392.233001708984370
-133.762867228190120 -287.494938151041650 -390.365863037109360
-125.439238048735120 -284.573615664527550 -387.401524135044670
-120.813003540039060 -281.675994873046870 -386.628997802734370
-88.521499633789063 -288.247985839843750 -386.005004882812500
-123.638100433349610 -280.290405273437500 -387.778601074218730
-120.393997192382810 -279.190994262695310 -385.867004394531250
-109.775332132975270 -278.738667805989560 -385.099334716796870
-163.018005371093750 -297.402008056640620 -384.493988037109380
-159.540339152018220 -297.562337239583310 -381.779001871744810
-164.987995147705080 -297.178497314453120 -383.318008422851560
-157.100900268554680 -296.195901489257840 -382.915197753906230
-149.941186904907230 -294.164566040039060 -381.276876449584960
-141.968561172485350 -292.232938766479490 -381.295497894287110
-133.957374572753910 -291.150812149047850 -381.300310134887700
-127.809427533830910 -290.679853166852690 -380.971003941127210
-91.227096557617188 -289.648986816406250 -378.618011474609370
-85.449216842651367 -290.656750996907530 -380.440582275390620
-78.238099531693891 -291.349456787109370 -380.163457697088060
-72.092676162719727 -290.450256347656250 -379.080253601074220
-122.965499877929690 -288.077987670898440 -384.236999511718750
-117.948999404907230 -285.103833516438780 -383.376001993815120
-109.700363852761010 -284.125457763671870 -382.518180153586630
-104.274998982747390 -283.375996907552060 -383.366333007812500
-93.820999145507813 -287.921144757951990 -381.133141653878340
-88.238800048828125 -288.925333658854190 -383.571665445963560
-116.929374694824220 -279.312126159667970 -384.303379058837890
-110.710000174386170 -279.375427246093750 -384.472573416573650
-105.059997558593750 -281.337005615234380 -384.816986083984370
-154.764007568359370 -295.906005859375000 -376.295013427734370
-148.507431030273440 -292.492000034877210 -374.984004429408460
-142.639770507812500 -290.564532940204340 -374.548919677734370
-134.332669576009120 -290.254328409830750 -375.952499389648440
-127.447498321533200 -290.223754882812500 -376.426002502441410
-117.469198608398440 -289.901208496093770 -372.830395507812510
-110.272727272727270 -290.590814763849440 -371.017001065340930
-101.471049308776860 -291.462249755859370 -372.931373596191410
-92.979372297014507 -292.669283185686370 -372.582214355468750
-85.962099552154541 -293.207878112792970 -373.301000595092770
-78.183044433593750 -293.408387925889770 -373.123445298936640
-70.251731395721436 -292.270874023437500 -372.967121124267580
-62.203998565673828 -291.171661376953120 -370.486663818359370
-146.910995483398440 -288.733001708984370 -370.535003662109370
-140.717501831054680 -287.852600097656250 -371.217199707031230
-133.739458719889310 -286.529627482096370 -371.356043497721370
-125.901250521341960 -286.834833780924500 -371.606666564941410
-118.847909407182170 -287.885639537464500 -370.917449951171870
-58.843399047851563 -289.290985107421880 -370.479003906250000
-35.013448715209961 -314.177993774414060 -362.380004882812500
-30.931240081787109 -314.420397949218740 -363.330596923828120
-18.721500396728516 -317.459991455078120 -361.044006347656250
-56.900100708007813 -305.709991455078120 -361.225006103515620
-45.074729537963869 -307.421896362304660 -363.466506958007810
-38.454033261253720 -310.572951543898800 -364.854904901413700
-31.780939865112305 -312.628802490234360 -365.879193115234390
-77.068361282348633 -298.987125396728520 -363.673122406005860
-71.096279907226560 -301.675604248046850 -362.946197509765620
-60.594336423006922 -301.079631458629250 -363.571910511363630
-53.185477102956462 -301.764837449596770 -363.839872298702120
-47.357425212860107 -302.313666025797540 -365.785165150960270
-107.720667521158860 -289.924835205078120 -366.278503417968750
-101.891518592834470 -291.835750579833980 -365.283254623413090
-93.954531192779541 -294.375812530517580 -365.294313430786130
-85.793041453642005 -296.012413473690230 -365.473471248851130
-78.964199490017364 -296.469329833984370 -367.661441379123290
-61.149480056762698 -294.917800903320310 -366.961703491210930
-54.034049669901528 -295.447998046875000 -366.491416931152340
-47.895174980163574 -296.050750732421870 -367.870498657226560
-138.977005004882810 -285.065002441406250 -368.303985595703120
-134.348251342773440 -282.963745117187500 -368.001502990722660
-124.913461538461530 -282.641845703125000 -367.408926156850950
-117.585869167162030 -285.265301248301630 -365.684132451596440
-111.072077237642730 -288.187922551081730 -364.751000037560120
-130.995498657226560 -280.890502929687500 -367.496002197265620
-124.244667053222660 -280.965657552083310 -364.343668619791690
36.851398468017578 -400.854003906250000 -352.998992919921870
36.576499938964844 -386.978248596191410 -354.154502868652340
42.802485874720979 -390.731855119977690 -354.204005650111580
30.401599884033203 -379.511993408203120 -352.997009277343750
34.183521471525495 -381.537154348273020 -355.561737060546870
38.961851119995117 -384.182495117187500 -357.421508789062500
29.756609136408027 -374.346360640092310 -353.975000554865060
31.847621236528671 -375.656287057059160 -355.564932686941970
11.098866780598959 -350.232666015625000 -353.763997395833310
15.104400157928467 -350.202499389648440 -353.673507690429690
-19.062099456787109 -329.397003173828120 -353.078002929687500
-17.055799484252930 -329.677001953125000 -353.089996337890620
-30.506899833679199 -322.648002624511720 -354.495750427246090
-20.640061598557693 -323.639305701622620 -356.821847768930300
-14.137059353016040 -325.926075122974510 -355.351779513888910
-7.989541689554851 -326.030161539713560 -354.826502482096370
-44.923239898681643 -314.633398437499980 -354.664001464843750
-37.193920389811197 -317.075465901692720 -356.982265218098970
-30.809599939982096 -319.153601074218730 -357.436529541015600
-20.653779602050783 -319.848791503906230 -359.801397705078100
-16.231859779357912 -319.413995361328150 -359.321997070312480
-58.530534108479820 -306.047668457031250 -354.786326090494810
-53.007489098442925 -308.905999077690980 -355.736446804470460
-45.059200286865234 -312.312011718750000 -357.694503784179690
-40.853000640869141 -312.890991210937500 -360.140014648437500
-75.617066277398010 -298.830329047309020 -358.723554823133670
-69.925234919009000 -300.648345947265620 -356.811476997707190
-62.557464327131001 -303.355213710239980 -355.064570835658460
-109.194000244140620 -289.763997395833310 -357.151662190755190
-100.455175399780270 -293.017124176025390 -358.040626525878910
-93.961205482482910 -294.770128250122070 -357.295377731323240
-85.988725662231445 -295.337377548217770 -357.289501190185550
-78.790881763805046 -296.374361905184680 -356.110542990944620
-117.479374885559080 -285.177627563476560 -359.855125427246090
-111.264499664306640 -288.437126159667970 -358.577751159667970
32.977298736572266 -403.066009521484370 -352.455993652343750
28.989400863647461 -395.125000000000000 -351.635986328125000
33.637474894523621 -397.708187103271480 -351.804061889648440
27.678936004638672 -389.919996781782690 -347.579270796342310
34.975276583716983 -389.480570475260440 -350.196761358351920
20.995614460536412 -379.941005161830330 -347.468000139508940
26.634909022938121 -381.726273970170440 -350.265907981179000
32.507312536239624 -384.274627685546870 -351.363998413085940
18.805282368379480 -373.679175881778520 -349.280000574448540
25.923563003540039 -374.463735480057550 -351.438105532997550
11.638043036827675 -364.779383732722350 -349.158771221454340
17.479268204082143 -366.081133755770620 -349.678774746981560
24.966530726506161 -366.317690335787230 -351.674541766826910
3.752411349614461 -356.482800292968760 -349.139135742187480
9.480209695881811 -357.924309039938070 -350.170722698343180
18.009531259536743 -358.113311767578120 -351.112373352050780
23.372274875640869 -359.617256164550780 -351.053741455078120
-4.360393345355988 -348.469754536946600 -348.325251261393250
2.269961068707128 -349.958839662613400 -350.160258631552440
8.551577726999918 -351.577891031901060 -352.281782362196170
17.959900379180908 -352.395665486653630 -351.982833862304690
-12.084898081692783 -340.946089311079560 -348.623909690163370
-5.441187500953674 -342.078502655029300 -349.988419850667300
2.141076722452718 -342.210385230279710 -350.241773051600320
7.303248246510823 -341.712000528971370 -351.804163614908870
-26.003399848937988 -330.014511108398440 -348.234497070312500
-21.031100329230814 -333.003942153033110 -348.421476476332710
-14.147373751590127 -333.640949450041090 -351.776317395662030
-5.906942033767701 -334.136732991536460 -350.972928873697920
2.661772084236145 -336.809802246093740 -349.686596679687510
7.008210182189941 -337.057006835937500 -350.415985107421880
-34.960522545708550 -322.395222981770810 -349.237891303168400
-30.218105422125923 -326.180781046549500 -349.265223185221370
-21.052600860595703 -329.382995605468750 -352.955993652343750
-6.862603187561035 -329.334330240885440 -352.874328613281250
-43.470313262939456 -315.291402180989560 -349.365466308593740
-38.726542221872428 -319.289896111739320 -349.541370592619220
-52.334872852672227 -307.703679865056810 -349.531910289417620
-47.273593085152761 -311.900216238839280 -349.065290178571440
-67.955724716186523 -298.122245788574220 -352.217750549316410
-60.425281871448867 -300.516362970525560 -350.007543390447440
-55.951608022054039 -303.715166727701840 -348.656669616699220
-98.993166605631515 -294.465342203776060 -350.337666829427060
-93.730585538423981 -294.033308762770450 -349.835306020883420
-85.790452844956349 -292.611469941980720 -349.190882065716890
-77.727688824688940 -292.658813476562500 -349.094779685691550
-70.173984951443146 -293.679036458333310 -348.786778202763290
-63.170345306396484 -295.461001309481560 -347.585185657848000
-76.861503601074219 -288.489990234375000 -345.070007324218750
33.451601028442383 -403.977005004882810 -338.133499145507810
28.804162263870239 -394.745002746582030 -339.720375061035160
31.690474510192871 -398.496505737304690 -338.742248535156250
22.550399780273438 -387.220001220703120 -338.436004638671870
25.645379943847658 -390.062397460937520 -341.730959472656250
20.605953216552734 -381.117880428538630 -341.023297478170950
23.206733703613281 -384.321329752604190 -343.532328287760440
14.078399658203125 -369.809997558593750 -342.299987792968750
16.616722713817250 -374.138409701260630 -341.287091341885630
11.383748227899725 -365.475547096946000 -341.493134932084500
4.000496304348896 -356.196844803659530 -342.160633287931720
7.975594202677409 -359.170750935872380 -339.885172526041690
-4.412689996802288 -347.546349566915750 -341.523953645125690
1.311984939234597 -351.054143996465770 -339.548142206101200
-17.318949699401855 -337.704498291015620 -339.338500976562500
-12.772716563680898 -340.780390200407620 -341.397434400475560
-8.060299941471644 -344.159567696707600 -340.026715959821440
-28.828335257137525 -331.632293701171870 -341.349945068359370
-21.609585189819335 -334.988748168945340 -341.377198791503930
-17.032700538635254 -337.151992797851560 -343.285507202148440
-35.843050003051758 -324.550003051757810 -343.754241943359370
-32.671433766682945 -328.096995035807310 -343.435668945312500
-44.491520931846217 -316.492417184930100 -341.356210809004950
-39.855939483642580 -319.965802001953140 -343.575799560546900
-51.604825019836426 -308.101501464843750 -341.088998794555660
-48.032288869222008 -312.135223388671870 -341.613888210720460
-58.618479919433597 -299.135400390625020 -343.499804687499990
-55.261600112915040 -303.371093750000000 -342.452499389648440
-83.040199279785156 -290.440002441406250 -344.506988525390620
-67.144302368164062 -289.781005859375000 -343.863006591796870
-62.417839813232419 -294.344601440429700 -343.562094116210910
-77.006896972656250 -288.907501220703120 -344.535507202148440
-72.997398376464844 -288.617004394531250 -344.967010498046870
29.967699050903320 -402.973999023437500 -333.500000000000000
32.527912616729736 -404.960998535156250 -335.108997344970700
28.883266607920330 -397.121416727701840 -334.756085713704410
31.536624908447266 -400.577743530273440 -335.841751098632810
21.821617126464844 -389.034667968750000 -334.614491780598940
23.341149330139160 -391.938507080078120 -336.078002929687500
19.993824958801270 -381.702339172363280 -334.609415690104190
14.200499534606934 -369.442993164062500 -336.191986083984370
17.059364655438593 -373.700706930721480 -333.652709960937500
13.339962542057037 -365.548501968383790 -333.436307907104490
15.278349876403809 -367.936996459960940 -331.437500000000000
10.188496165805393 -357.734446207682310 -334.000835842556400
3.988408562209871 -348.138280232747380 -334.873167249891480
8.235357148306710 -350.513859340122790 -332.481639317103770
-17.315700531005859 -337.890014648437500 -336.240997314453120
-13.097745683458117 -339.230500962999140 -333.732947455512150
-5.823295703956059 -341.814355032784590 -333.353500366210940
1.124743908643723 -343.629934310913090 -332.628690719604490
-34.877300262451172 -332.830505371093750 -335.160491943359370
-30.042184536273663 -333.531303992638240 -334.012770432692320
-21.872481226921082 -335.666435241699220 -333.344125747680660
-16.267800331115723 -337.015665690104190 -331.022328694661440
-47.582099914550781 -315.566986083984370 -336.727996826171880
-51.999866485595703 -309.406331380208310 -336.474670410156250
-21.950600624084473 -335.022994995117190 -328.358489990234370
-10.978500366210937 -337.119995117187500 -328.274993896484370
