ply
format ascii 1.0
element vertex 863
property double x
property double y
property double z
end_header
6.957019805908203 -1.078459978103638 4.001969814300537
6.702020168304443 -1.217460036277771 4.038969993591309
7.097020149230957 -1.150460004806519 4.015970230102539
6.811019897460938 -1.099460005760193 4.020959854125977
6.957019805908203 -1.078459978103638 4.001969814300537
6.543019771575928 -1.244459986686707 3.988970041275024
6.854020118713379 -1.327460050582886 3.970959901809692
7.348020076751709 -0.927459001541138 3.932970046997070
6.663020133972168 -1.352460026741028 3.972959995269775
7.205019950866699 -0.834457993507385 3.927969932556152
6.614019870758057 -1.108459949493408 3.959969997406006
6.930019855499268 -0.910458981990814 3.924969911575317
7.060019969940186 -0.805459022521973 3.913969993591309
6.681019783020020 -0.971459984779358 3.926970005035400
6.975019931793213 -1.212460041046143 3.921960115432739
6.454020023345947 -1.070459961891174 3.927969932556152
6.369019985198975 -1.378460049629211 3.932970046997070
6.789020061492920 -0.862460017204285 3.886960029602051
7.048019886016846 -1.071460008621216 3.882970094680786
6.380020141601563 -1.202460050582886 3.902960062026978
6.534019947052002 -0.938458979129791 3.877969980239868
7.133019924163818 -0.948459029197693 3.849970102310181
6.513020038604736 -1.347460031509399 3.883970022201538
7.229020118713379 -0.669458985328674 3.833960056304932
7.079020023345947 -0.629459023475647 3.837970018386841
6.763020038604736 -1.269459962844849 3.866960048675537
6.243020057678223 -1.305459976196289 3.873960018157959
6.323019981384277 -1.028460025787354 3.850970029830933
6.658020019531250 -0.822458982467651 3.824959993362427
6.869019985198975 -0.729458987712860 3.812959909439087
6.205019950866699 -1.155460000038147 3.848969936370850
6.861020088195801 -1.154459953308106 3.822969913482666
7.172019958496094 -0.518458008766174 3.770960092544556
6.375020027160645 -0.893458008766174 3.806969881057739
6.947020053863525 -0.580458998680115 3.770960092544556
6.919020175933838 -1.005460023880005 3.777960062026978
7.036019802093506 -0.840458989143372 3.766969919204712
6.635019779205322 -1.249459981918335 3.792969942092896
6.058020114898682 -1.163460016250610 3.808969974517822
6.106019973754883 -1.316460013389587 3.806969881057739
6.223020076751709 -0.886458992958069 3.778970003128052
6.522019863128662 -0.808458983898163 3.763959884643555
6.366020202636719 -1.296460032463074 3.784960031509399
7.044020175933838 -0.426459014415741 3.722959995269775
6.136020183563232 -1.018460035324097 3.776959896087647
6.734020233154297 -0.677459001541138 3.741960048675537
6.882019996643066 -0.399459004402161 3.709969997406006
6.810019969940186 -0.543460011482239 3.712970018386841
5.939020156860352 -1.247460007667542 3.765969991683960
6.578020095825195 -0.681459009647369 3.709969997406006
6.006020069122315 -0.944459021091461 3.739969968795776
6.749020099639893 -1.101459980010986 3.713959932327271
6.500020027160645 -1.233459949493408 3.721960067749023
6.912020206451416 -0.819459021091461 3.684969902038574
6.090020179748535 -0.805459022521973 3.710969924926758
5.948019981384277 -1.083459973335266 3.722959995269775
6.386020183563232 -0.715458989143372 3.689970016479492
6.218019962310791 -1.267459988594055 3.709969997406006
6.818019866943359 -0.934458971023560 3.672960042953491
6.973020076751709 -0.683458983898163 3.656970024108887
6.669020175933838 -0.537459015846252 3.654969930648804
6.752019882202148 -0.391460001468658 3.637959957122803
6.241020202636719 -0.722459018230438 3.652960062026978
6.629020214080811 -1.158460021018982 3.642970085144043
5.883019924163818 -0.925459980964661 3.656970024108887
6.480020046234131 -0.582459986209869 3.615959882736206
6.985020160675049 -0.413459002971649 3.586970090866089
6.033020019531250 -1.201460003852844 3.646970033645630
6.787020206451416 -0.236459001898766 3.567960023880005
6.577020168304443 -0.443459987640381 3.580970048904419
6.104020118713379 -0.677459001541138 3.604959964752197
6.334020137786865 -1.214460015296936 3.609960079193115
6.334020137786865 -0.596459984779358 3.586970090866089
6.860020160675049 -0.734459996223450 3.569960117340088
6.469019889831543 -1.153460025787354 3.595959901809692
6.746019840240479 -0.863460004329681 3.558969974517822
5.768020153045654 -0.823459029197693 3.593970060348511
5.939020156860352 -0.677459001541138 3.581959962844849
6.677020072937012 -1.012459993362427 3.551970005035400
5.897019863128662 -1.074460029602051 3.576960086822510
6.157020092010498 -1.206459999084473 3.563970088958740
6.649020195007324 -0.271459013223648 3.513959884643555
6.420020103454590 -0.471460014581680 3.524970054626465
6.904019832611084 -0.555459022521973 3.507970094680786
5.628019809722900 -0.923458993434906 3.565969944000244
6.906020164489746 -0.311459988355637 3.491960048675537
5.793019771575928 -0.678460001945496 3.536969900131226
6.210020065307617 -0.549458980560303 3.515969991683960
5.783020019531250 -0.976459026336670 3.524970054626465
6.542019844055176 -1.051460027694702 3.494970083236694
6.275020122528076 -1.118460059165955 3.506959915161133
6.760019779205322 -0.721459984779358 3.457959890365601
6.745019912719727 -0.129458993673325 3.437959909439087
5.996019840240479 -1.159459948539734 3.499959945678711
6.516019821166992 -0.256458997726440 3.442960023880005
6.022019863128662 -0.562458992004395 3.471960067749023
5.545020103454590 -0.816459000110626 3.489969968795776
6.838019847869873 -0.426459014415741 3.424969911575317
6.396019935607910 -1.025460004806519 3.460969924926758
6.125020027160645 -1.079460024833679 3.470959901809692
6.283020019531250 -0.439460009336472 3.439970016479492
6.628019809722900 -0.808458983898163 3.432970046997070
5.612020015716553 -0.686460018157959 3.461970090866089
6.794020175933838 -0.584457993507385 3.404969930648804
6.513020038604736 -0.912459015846252 3.417969942092896
5.878019809722900 -0.574460029602051 3.431969881057739
6.392020225524902 -0.333458989858627 3.403970003128052
6.138020038604736 -0.463459998369217 3.416960000991821
5.727019786834717 -0.582459986209869 3.435960054397583
6.800020217895508 -0.283459991216660 3.373960018157959
6.258019924163818 -0.976459026336670 3.413969993591309
5.861020088195801 -1.064460039138794 3.427969932556152
5.459020137786865 -0.934458971023560 3.432970046997070
6.619019985198975 -0.102459996938705 3.340960025787354
6.372019767761231 -0.891460001468658 3.362970113754273
6.656020164489746 -0.593459010124207 3.339960098266602
5.995019912719727 -0.444458991289139 3.358959913253784
6.005020141601563 -0.967459976673126 3.372960090637207
5.604020118713379 -0.928460001945496 3.386960029602051
5.492020130157471 -0.648459970951080 3.378969907760620
6.508019924163818 -0.739458978176117 3.339960098266602
6.140019893646240 -0.909458994865417 3.348969936370850
5.603020191192627 -0.552459001541138 3.351969957351685
6.219019889831543 -0.332459986209869 3.319960117340088
5.745019912719727 -0.988460004329681 3.357969999313355
6.466020107269287 -0.135459005832672 3.301970005035400
6.323019981384277 -0.226458996534348 3.309969902038574
6.500020027160645 -0.576458990573883 3.298959970474243
5.772019863128662 -0.479458987712860 3.319960117340088
6.698019981384277 -0.445459008216858 3.281970024108887
5.359020233154297 -0.807460010051727 3.344969987869263
6.715020179748535 -0.295459002256393 3.248960018157959
6.376019954681397 -0.724460005760193 3.267970085144043
5.511020183563232 -0.841458022594452 3.304960012435913
5.881020069122315 -0.388458997011185 3.269959926605225
6.252019882202148 -0.809458971023560 3.266969919204712
5.999020099639893 -0.820459008216858 3.273969888687134
5.850019931793213 -0.842459976673126 3.278970003128052
6.064020156860352 -0.326458990573883 3.244970083236694
5.471020221710205 -0.511458992958069 3.271970033645630
6.343019962310791 -0.111459001898766 3.213959932327271
6.563020229339600 -0.475459009408951 3.207959890365601
6.562019824981690 -0.071459896862507 3.193959951400757
5.406020164489746 -0.658460021018982 3.256959915161133
6.193019866943359 -0.206459999084473 3.208960056304932
5.661019802093506 -0.420459002256393 3.227960109710693
6.380020141601563 -0.577458024024963 3.203969955444336
5.652019977569580 -0.815459012985229 3.229959964752197
5.287020206451416 -0.573459029197693 3.221960067749023
6.110020160675049 -0.729458987712860 3.180959939956665
6.246019840240479 -0.655460000038147 3.166960000991821
6.645020008087158 -0.194459006190300 3.135970115661621
6.619019985198975 -0.343459010124207 3.140969991683960
5.358019828796387 -0.447459012269974 3.187959909439087
5.945020198822022 -0.299459010362625 3.159960031509399
5.775020122528076 -0.326458990573883 3.166960000991821
5.894020080566406 -0.701458990573883 3.167969942092896
5.500020027160645 -0.411460012197495 3.162970066070557
6.447020053863525 -0.017458999529481 3.111959934234619
6.454020023345947 -0.423458993434906 3.112970113754273
5.747019767761231 -0.716458022594452 3.129960060119629
6.069019794464111 -0.195458993315697 3.099970102310181
6.306019783020020 -0.501460015773773 3.099970102310181
6.223020076751709 -0.117458999156952 3.087970018386841
5.475019931793213 -0.634459972381592 3.116960048675537
6.013020038604736 -0.621459007263184 3.073970079421997
6.154019832611084 -0.536459982395172 3.063970088958740
5.228020191192627 -0.435460001230240 3.095959901809692
6.524020195007324 -0.288459002971649 3.036969900131226
5.597020149230957 -0.716458022594452 3.084969997406006
5.632019996643066 -0.331459999084473 3.067960023880005
5.874020099639893 -0.193460002541542 3.045969963073731
5.850019931793213 -0.605458021163940 3.057970046997070
5.389019966125488 -0.357459008693695 3.052969932556152
5.992020130157471 -0.119460001587868 2.989969968795776
6.401020050048828 -0.356460005044937 2.977960109710693
6.361020088195801 0.020541099831462 2.965960025787354
6.461019992828369 -0.153458997607231 2.961970090866089
5.731019973754883 -0.215459004044533 2.987970113754273
5.721020221710205 -0.602460026741028 2.979959964752197
5.420020103454590 -0.565459012985229 2.988970041275024
6.172019958496094 -0.116460002958775 2.941970109939575
5.120019912719727 -0.373459994792938 2.989969968795776
6.116020202636719 -0.438459008932114 2.936959981918335
6.248020172119141 -0.367458999156952 2.926970005035400
5.281020164489746 -0.500459015369415 2.968970060348511
5.957019805908203 -0.430458992719650 2.932970046997070
5.548019886016846 -0.276459991931915 2.929960012435913
5.860020160675049 -0.076458998024464 2.910969972610474
5.249020099639893 -0.302459001541138 2.932970046997070
5.797019958496094 -0.486458986997604 2.915960073471069
6.346020221710205 -0.223458006978035 2.883970022201538
5.559020042419434 -0.596459984779358 2.920969963073731
5.012020111083984 -0.505460023880005 2.934969902038574
6.226019859313965 0.039540201425552 2.863970041275024
5.653019905090332 -0.151460006833076 2.872960090637207
5.400020122528076 -0.306459009647369 2.881959915161133
6.045020103454590 -0.082459598779678 2.841969966888428
5.181019783020020 -0.444458991289139 2.868959903717041
5.848020076751709 -0.361458986997604 2.839960098266602
5.655020236968994 -0.506458997726440 2.842969894409180
6.302020072937012 -0.096459500491619 2.791960000991821
5.488019943237305 -0.192460000514984 2.821969985961914
5.400020122528076 -0.536459982395172 2.829969882965088
4.898019790649414 -0.450459986925125 2.845959901809692
5.757019996643066 -0.061459701508284 2.795969963073731
5.916019916534424 -0.011458500288427 2.784960031509399
6.007019996643066 -0.366459995508194 2.790960073471069
6.157020092010498 -0.318459987640381 2.780970096588135
6.088019847869873 0.037541300058365 2.759969949722290
5.007019996643066 -0.360458999872208 2.778970003128052
5.722020149230957 -0.377460002899170 2.742959976196289
5.522019863128662 -0.466457992792130 2.751970052719116
6.224020004272461 -0.198458999395370 2.711970090866089
5.294020175933838 -0.418460011482239 2.753969907760620
5.356019973754883 -0.277458995580673 2.740959882736206
5.153019905090332 -0.311459988355637 2.737970113754273
5.547019958496094 -0.102459996938705 2.693959951400757
5.400020122528076 -0.139458999037743 2.699959993362427
5.893020153045654 -0.316459000110626 2.672960042953491
5.827020168304443 -0.024459000676870 2.663969993591309
5.981019973754883 0.027541000396013 2.653970003128052
6.049019813537598 -0.264459013938904 2.653970003128052
6.245019912719727 -0.067460201680660 2.633970022201538
4.803020000457764 -0.355457991361618 2.693959951400757
5.596020221710205 -0.344458997249603 2.661969900131226
6.161019802093506 0.069540902972221 2.619970083236694
4.932020187377930 -0.288459002971649 2.661969900131226
5.439020156860352 -0.349460005760193 2.638959884643555
5.635019779205322 -0.010459099896252 2.611959934234619
5.229020118713379 -0.242458999156952 2.627969980239868
5.678020000457764 -0.227459996938705 2.604959964752197
6.149020195007324 -0.177459001541138 2.577970027923584
5.075019836425781 -0.223458006978035 2.613970041275024
5.450019836425781 -0.026459800079465 2.589960098266602
5.769020080566406 0.082541398704052 2.572969913482666
5.820020198822022 -0.233458995819092 2.557970046997070
5.904019832611084 0.152540996670723 2.541960000991821
5.302020072937012 -0.089459501206875 2.556969881057739
6.057020187377930 0.115539997816086 2.512959957122803
4.677020072937012 -0.351458996534348 2.570970058441162
5.978020191192627 -0.167458996176720 2.504960060119629
6.212019920349121 0.057539798319340 2.480969905853272
4.817019939422607 -0.262459993362427 2.545969963073731
5.521019935607910 0.088540002703667 2.502969980239868
5.156020164489746 -0.132458999752998 2.522969961166382
5.342020034790039 -0.239458993077278 2.511960029602051
6.117020130157471 -0.070458501577377 2.472959995269775
5.521019935607910 -0.194459006190300 2.496969938278198
5.713019847869873 -0.132458999752998 2.474970102310181
4.947020053863525 -0.198458999395370 2.500969886779785
5.674019813537598 0.124540999531746 2.446969985961914
5.385019779205322 0.052540700882673 2.451960086822510
5.865019798278809 -0.097459003329277 2.423959970474243
5.770020008087158 0.231542006134987 2.401959896087647
5.938020229339600 0.211540997028351 2.387959957122803
5.267020225524902 -0.030459500849247 2.415960073471069
5.998020172119141 -0.028458699584007 2.381959915161133
6.105020046234131 0.076540797948837 2.372960090637207
5.382019996643066 -0.127460002899170 2.391969919204712
5.063020229339600 -0.093459196388721 2.399970054626465
5.598020076751709 -0.079459302127361 2.374959945678711
4.564020156860352 -0.278459012508392 2.415960073471069
5.451019763946533 0.180540993809700 2.361959934234619
4.754020214080811 -0.244460001587868 2.398969888687134
5.595019817352295 0.241539999842644 2.346960067749023
4.880020141601563 -0.165460005402565 2.367959976196289
5.720019817352295 -0.000458800001070 2.322969913482666
5.707019805908203 0.323540985584259 2.280970096588135
5.162020206451416 -0.010459099896252 2.306969881057739
5.862020015716553 0.340541005134583 2.266969919204712
6.020020008087158 0.146540999412537 2.265969991683960
5.877019882202148 0.063540302217007 2.271970033645630
5.302020072937012 0.061541400849819 2.289959907531738
4.623020172119141 -0.178460001945496 2.312959909439087
5.473020076751709 -0.037459500133991 2.261960029602051
4.966020107269287 -0.081460103392601 2.263959884643555
5.368020057678223 0.182539999485016 2.234960079193115
4.510019779205322 -0.269459992647171 2.275959968566895
5.633019924163818 0.056540399789810 2.216969966888428
4.775020122528076 -0.171460002660751 2.248960018157959
5.489019870758057 0.278539985418320 2.202970027923584
5.766019821166992 0.126540005207062 2.187959909439087
5.898019790649414 0.219539999961853 2.176970005035400
5.790019989013672 0.433540999889374 2.171960115432739
5.619019985198975 0.374541014432907 2.159960031509399
5.080019950866699 0.019541600719094 2.183969974517822
5.355020046234131 0.002541400026530 2.159960031509399
5.495019912719727 0.056540399789810 2.144959926605225
5.215020179748535 0.126540005207062 2.147969961166382
4.905020236968994 0.069540902972221 2.149970054626465
4.864019870758057 -0.087458699941635 2.150959968566895
5.339019775390625 0.292540013790131 2.117959976196289
5.777019977569580 0.258540004491806 2.096960067749023
4.678020000457764 -0.080458797514439 2.145960092544556
4.555019855499268 -0.179460003972054 2.142970085144043
5.646019935607910 0.182539999485016 2.085969924926758
5.449019908905029 0.391541004180908 2.077970027923584
5.192019939422607 -0.010459099896252 2.082959890365601
5.026020050048828 0.126540005207062 2.084969997406006
4.449019908905029 -0.396459013223648 2.123960018157959
5.775020122528076 0.424540013074875 2.012959957122803
5.745019912719727 0.585542023181915 2.005959987640381
5.209020137786865 0.280541002750397 2.034960031509399
5.425020217895508 0.151541993021965 2.027960062026978
5.534019947052002 0.534541010856628 2.005959987640381
5.282020092010498 0.107541002333164 1.998960018157959
4.947020053863525 0.023541299626231 2.007970094680786
5.549019813537598 0.219539999961853 1.973970055580139
4.865019798278809 0.154540002346039 1.996970057487488
4.612020015716553 -0.087458699941635 2.010970115661621
4.804019927978516 -0.052458900958300 1.998960018157959
4.467020034790039 -0.147459998726845 2.012959957122803
5.097020149230957 0.037541300058365 1.977959990501404
4.524020195007324 -0.288459002971649 2.003969907760620
5.367020130157471 0.493541002273560 1.938969969749451
4.715020179748535 0.125541001558304 1.973970055580139
5.613019943237305 0.422542005777359 1.915959954261780
5.455019950866699 0.628540992736816 1.911970019340515
5.007019996643066 0.156541004776955 1.937960028648377
5.624020099639893 0.601540029048920 1.893959999084473
5.235020160675049 0.408542007207870 1.904970049858093
4.479020118713379 -0.015460100024939 1.942960023880005
5.114019870758057 0.259541004896164 1.897969961166382
5.432020187377930 0.240539997816086 1.874959945678711
5.186019897460938 0.127541005611420 1.881960034370422
4.574019908905029 0.108539998531342 1.901960015296936
4.384019851684570 -0.252460002899170 1.919970035552979
5.542019844055176 0.734539985656738 1.840960025787354
4.697020053863525 -0.082459598779678 1.888960003852844
5.481019973754883 0.402541011571884 1.821969985961914
5.309020042419434 0.621541023254395 1.805960059165955
5.298019886016846 0.239540994167328 1.807970046997070
4.749020099639893 0.058541201055050 1.834969997406006
4.346020221710205 -0.075459599494934 1.854959964752197
5.119019985198975 0.388541013002396 1.808969974517822
4.872019767761231 0.144541993737221 1.823969960212708
4.786019802093506 0.288540989160538 1.820970058441162
5.209020137786865 0.506541013717651 1.790959954261780
5.436019897460938 0.825541019439697 1.761960029602051
4.453020095825195 0.084540300071239 1.815969944000244
5.048019886016846 0.152540996670723 1.785969972610474
4.486020088195801 -0.107459001243114 1.812960028648377
5.433020114898682 0.675539970397949 1.736960053443909
4.634019851684570 0.270541012287140 1.778970003128052
5.346020221710205 0.447540998458862 1.741960048675537
4.289020061492920 -0.218458995223045 1.797960042953491
4.612020015716553 0.018540300428867 1.771970033645630
5.301020145416260 0.763540983200073 1.719969987869263
5.153019905090332 0.249540999531746 1.738970041275024
4.752019882202148 0.388541013002396 1.715960025787354
5.023019790649414 0.345539987087250 1.700960040092468
5.184020042419434 0.632541000843048 1.676970005035400
5.196020126342773 0.388541013002396 1.680960059165955
4.228020191192627 -0.343459010124207 1.723970055580139
5.078020095825195 0.516541004180908 1.657960057258606
4.303020000457764 0.004540299996734 1.700960040092468
4.935019969940186 0.465541005134583 1.651960015296936
4.799019813537598 0.138540998101234 1.663969993591309
4.507019996643066 0.265540003776550 1.669970035552979
4.498020172119141 -0.020459299907088 1.675969958305359
5.189020156860352 0.779540002346039 1.608960032463074
4.362020015716553 0.153540000319481 1.660969972610474
4.394020080566406 -0.143457993865013 1.659960031509399
4.225019931793213 -0.159458994865417 1.652959942817688
4.601019859313965 0.404540002346039 1.611960053443909
4.679019927978516 0.058541201055050 1.616960048675537
4.839019775390625 0.361541002988815 1.585970044136047
4.716020107269287 0.520541012287140 1.579970002174377
5.073019981384277 0.671540021896362 1.554960012435913
4.378019809722900 0.283542007207870 1.579970002174377
4.857019901275635 0.579541027545929 1.550969958305359
4.163020133972168 -0.363460004329681 1.590960025787354
4.464019775390625 0.403539985418320 1.532960057258606
4.765019893646240 0.203539997339249 1.526960015296936
4.259019851684570 0.117541000247002 1.546959996223450
4.192019939422607 -0.028458699584007 1.545969963073731
4.991020202636719 0.517540991306305 1.485960006713867
4.585020065307617 0.124540999531746 1.510969996452332
4.948019981384277 0.689540028572083 1.463960051536560
4.270020008087158 -0.269459992647171 1.520959973335266
4.439020156860352 -0.005459900014102 1.503970026969910
4.754020214080811 0.670540988445282 1.463960051536560
4.149020195007324 -0.177459001541138 1.512959957122803
4.574019908905029 0.570540010929108 1.465960025787354
4.719019889831543 0.335541993379593 1.460970044136047
4.328020095825195 0.373540014028549 1.469969987869263
4.863019943237305 0.423541009426117 1.445970058441162
4.233019828796387 0.218540996313095 1.437960028648377
4.876019954681397 0.574540019035339 1.397969961166382
4.331019878387451 -0.152458995580673 1.434970021247864
4.160019874572754 0.059540599584579 1.429960012435913
4.624020099639893 0.723540008068085 1.385969996452332
4.611020088195801 0.221541002392769 1.397969961166382
4.389019966125488 0.524541020393372 1.389969944953919
4.862020015716553 0.863541007041931 1.357969999313355
4.121019840240479 -0.405460000038147 1.424970030784607
4.502019882202148 0.113540999591351 1.382969975471497
4.744019985198975 0.481541991233826 1.355970025062561
4.710020065307617 0.846540987491608 1.339959979057312
4.109020233154297 -0.083458997309208 1.390969991683960
4.486020088195801 0.668540000915527 1.345960021018982
4.394020080566406 0.007540599908680 1.362969994544983
4.268020153045654 0.451541006565094 1.332960009574890
4.081019878387451 -0.267459005117416 1.362969994544983
4.233019828796387 -0.328460007905960 1.357969999313355
4.193019866943359 0.319541007280350 1.319959998130798
4.544020175933838 0.804540991783142 1.289960026741028
4.768020153045654 0.702539980411530 1.279970049858093
4.611020088195801 0.400539994239807 1.287969946861267
4.108019828796387 0.153540000319481 1.312960028648377
4.777019977569580 0.946539998054504 1.249959945678711
4.312019824981690 0.640540003776550 1.258970022201538
4.181019783020020 -0.469458997249603 1.296959996223450
4.624020099639893 0.938539981842041 1.233960032463074
4.656020164489746 0.591539978981018 1.235960006713867
4.266019821166992 -0.204458996653557 1.264969944953919
4.410019874572754 0.778540015220642 1.226969957351685
4.560019969940186 0.248539999127388 1.231969952583313
4.039020061492920 -0.007458799984306 1.253970026969910
4.439020156860352 0.147540003061295 1.225970029830933
4.330019950866699 -0.048459198325872 1.230970025062561
4.032020092010498 -0.177459001541138 1.244969964027405
4.199019908905029 0.542540013790131 1.213960051536560
4.131020069122315 0.406540989875793 1.211969971656799
4.699019908905029 1.069540023803711 1.167969942092896
4.058020114898682 -0.355457991361618 1.235960006713867
4.745019912719727 0.822540998458862 1.170969963073731
4.495019912719727 0.952539980411530 1.145959973335266
4.540019989013672 0.511539995670319 1.152959942817688
4.227019786834717 -0.350459009408951 1.175969958305359
4.227019786834717 0.694540977478027 1.138960003852844
4.051020145416260 0.288540989160538 1.155969977378845
4.006020069122315 0.125541001558304 1.154970049858093
4.325019836425781 0.839541018009186 1.118960022926331
4.107019901275635 -0.491459995508194 1.155969977378845
4.581019878387451 0.643540024757385 1.097959995269775
4.499020099639893 0.370541006326675 1.103960037231445
4.630020141601563 0.928539991378784 1.076959967613220
4.109020233154297 0.603541016578674 1.088960051536560
4.655020236968994 0.776542007923126 1.060960054397583
3.980020046234131 -0.127460002899170 1.110960006713867
4.356019973754883 0.069540902972221 1.088960051536560
4.528019905090332 1.072540044784546 1.031970024108887
4.387020111083984 1.008540034294128 1.031970024108887
3.996020078659058 -0.289458006620407 1.087970018386841
4.041019916534424 0.464540988206863 1.058969974517822
4.289020061492920 -0.067460201680660 1.064970016479492
4.201019763946533 0.807539999485016 1.029970049858093
4.457019805908203 0.510541021823883 1.015969991683960
3.957020044326782 0.307539999485016 1.023970007896423
4.417019844055176 0.268539994955063 0.998964011669159
4.261020183563232 -0.212458997964859 1.019960045814514
3.909019947052002 0.076540797948837 1.019960045814514
4.197020053863525 -0.363460004329681 1.018959999084473
4.558020114898682 0.840541005134583 0.964963972568512
4.082019805908203 0.720539987087250 0.977963984012604
4.491020202636719 0.678539991378784 0.960965991020203
4.048019886016846 -0.429459989070892 1.001970052719116
3.990020036697388 0.583540976047516 0.968966007232666
4.220019817352295 0.972540974617004 0.925966024398804
3.928020000457764 -0.149459004402161 0.961965978145599
4.315020084381104 1.090540051460266 0.904965996742249
4.306019783020020 0.134541004896164 0.935965001583099
4.454020023345947 1.002539992332459 0.889967024326324
3.898020029067993 0.421539992094040 0.927964985370636
4.107019901275635 0.857541024684906 0.899964988231659
4.244019985198975 -0.026459800079465 0.922963976860046
3.971019983291626 -0.304459989070892 0.937964022159576
4.360020160675049 0.548541009426117 0.877965986728668
3.961019992828369 0.710542023181915 0.870966017246246
3.836019992828369 0.092541597783566 0.890965998172760
4.429019927978516 0.763540983200073 0.837965011596680
3.844019889831543 0.285540014505386 0.874963998794556
3.879019975662231 0.584540009498596 0.855966985225677
4.344019889831543 0.283542007207870 0.838964998722076
4.110020160675049 -0.512459993362427 0.870966017246246
4.195020198822022 -0.168459996581078 0.848967015743256
4.197020053863525 1.091539978981018 0.803964972496033
4.143020153045654 -0.334457993507385 0.846964001655579
4.338019847869873 0.928539991378784 0.789964973926544
4.082019805908203 0.969539999961853 0.791963994503021
3.976020097732544 0.840541005134583 0.792967021465302
3.998019933700562 -0.397460013628006 0.824965000152588
3.879019975662231 -0.201459005475044 0.816964983940125
3.807019948959351 0.428539991378784 0.792967021465302
4.318019866943359 0.415542006492615 0.770964026451111
4.234020233154297 0.144541993737221 0.782965004444122
4.164020061492920 -0.037459500133991 0.775964975357056
3.814019918441773 -0.016459599137306 0.788964986801147
3.849020004272461 0.711540997028351 0.754965007305145
3.758019924163818 0.123539999127388 0.766965985298157
4.288020133972168 0.576541006565094 0.718966007232666
4.362020015716553 0.751540005207062 0.705964982509613
3.752019882202148 0.595539987087250 0.725965976715088
3.975019931793213 0.965541005134583 0.687964022159576
4.230020046234131 0.908541977405548 0.677964985370636
4.116020202636719 -0.226458996534348 0.713964998722076
3.732019901275635 0.320540010929108 0.704966008663177
4.283020019531250 0.285540014505386 0.676966011524200
3.861020088195801 0.857541024684906 0.673964023590088
3.922019958496094 -0.311459988355637 0.703966021537781
4.116020202636719 1.025539994239807 0.646966993808746
4.059020042419434 -0.473457992076874 0.695967018604279
4.237020015716553 0.438540011644363 0.643965005874634
3.817019939422607 -0.192460000514984 0.667967021465302
4.145020008087158 0.150539994239807 0.635964989662170
3.670020103454590 0.439539998769760 0.640965998172760
3.734019994735718 -0.046460300683975 0.644963979721069
3.750020027160645 0.770541012287140 0.615965008735657
4.105020046234131 -0.014458799734712 0.621964991092682
4.266019821166992 0.708540976047516 0.586965978145599
3.654020071029663 0.100541003048420 0.629965007305145
3.653019905090332 0.619539976119995 0.608964979648590
3.633019924163818 0.281540989875793 0.599965989589691
4.132019996643066 0.888540983200073 0.548964023590088
4.017020225524902 0.986540973186493 0.539964973926544
4.125020027160645 -0.157458007335663 0.565966010093689
3.794019937515259 0.917540013790131 0.540964007377625
3.978019952774048 -0.412458986043930 0.564966022968292
4.183020114898682 0.270541012287140 0.529965996742249
4.200019836425781 0.560540020465851 0.515965998172760
3.567019939422607 0.497539997100830 0.541963994503021
3.854020118713379 -0.308459013700485 0.549966990947723
3.638020038604736 0.744539976119995 0.517965018749237
4.113019943237305 -0.318459987640381 0.524964988231659
4.094019889831543 -0.497458994388580 0.520964026451111
4.166019916534424 0.754540026187897 0.475966006517410
3.548019886016846 0.117541000247002 0.513963997364044
4.074019908905029 0.076540797948837 0.486963003873825
3.524019956588745 0.329540997743607 0.496964991092682
3.652019977569580 -0.092459797859192 0.502965986728668
4.164020061492920 0.423541009426117 0.450964003801346
3.900019884109497 0.985540986061096 0.428965002298355
3.527019977569580 0.680540978908539 0.442965000867844
3.452019929885864 0.551540970802307 0.439965993165970
3.726020097732544 -0.215459004044533 0.452966988086700
3.697020053863525 0.923541009426117 0.409963995218277
4.102019786834717 -0.065459400415421 0.416963994503021
3.907020092010498 -0.413459002971649 0.433966010808945
4.006020069122315 0.888540983200073 0.382966995239258
4.158020019531250 -0.396459013223648 0.404965996742249
4.139019966125488 0.293540000915527 0.380964010953903
3.438019990921021 0.108539998531342 0.412966012954712
3.534019947052002 -0.055459100753069 0.410966992378235
4.087019920349121 0.566541016101837 0.365965008735657
4.075019836425781 0.736540973186493 0.359964013099670
3.417020082473755 0.264541000127792 0.396966993808746
4.038020133972168 0.150539994239807 0.352964013814926
3.548019886016846 0.831539988517761 0.333963006734848
3.359019994735718 0.425540000200272 0.353964000940323
4.060019969940186 -0.516460001468658 0.344965010881424
3.805020093917847 0.975540995597839 0.303965002298355
3.337019920349121 0.600540995597839 0.324965000152588
3.787019968032837 -0.361458986997604 0.336966007947922
3.625020027160645 -0.223458006978035 0.329966008663177
4.090020179748535 0.420540988445282 0.288964986801147
3.423019886016846 0.728541016578674 0.303965002298355
4.096020221710205 -0.147459998726845 0.292966991662979
3.644020080566406 0.944540977478027 0.266965985298157
3.299020051956177 0.302540987730026 0.295964986085892
3.949019908905029 0.827539980411530 0.251967012882233
3.384020090103149 -0.001460199942812 0.294966012239456
4.034019947052002 -0.011458500288427 0.266965985298157
4.118020057678223 -0.302459001541138 0.266965985298157
3.904020071029663 -0.463459998369217 0.275965005159378
3.480020046234131 -0.140459999442101 0.274964988231659
4.025020122528076 0.588540017604828 0.222963005304337
4.159019947052002 -0.467460006475449 0.243963003158569
4.077020168304443 0.282539993524551 0.219964995980263
3.268019914627075 0.107541002333164 0.254965007305145
3.208019971847534 0.492540985345840 0.233964994549751
3.668020009994507 -0.337458997964859 0.224966004490852
3.986020088195801 0.148541003465652 0.191964998841286
3.257019996643066 0.669541001319885 0.197965994477272
3.180020093917847 0.348540008068085 0.209967002272606
3.467020034790039 0.904540002346039 0.177965000271797
3.834019899368286 0.852540016174316 0.158963993191719
3.355020046234131 0.791540980339050 0.175965994596481
3.900019884109497 0.719539999961853 0.153966993093491
4.012020111083984 -0.553460001945496 0.182965993881226
3.545020103454590 -0.260459005832672 0.187964007258415
4.013020038604736 0.410540014505386 0.133966997265816
4.051020145416260 -0.141460001468658 0.149965003132820
3.669019937515259 0.913541018962860 0.119966998696327
3.125020027160645 0.605539977550507 0.145963996648788
3.303020000457764 -0.073458798229694 0.158963993191719
3.050019979476929 0.298541009426117 0.154965996742249
3.041019916534424 0.450540989637375 0.145963996648788
3.804019927978516 -0.463459998369217 0.142965003848076
4.071020126342773 -0.300460010766983 0.125966995954514
3.163019895553589 0.024540800601244 0.142965003848076
3.039020061492920 0.150539994239807 0.140965998172760
3.974020004272461 0.001540099969134 0.108965002000332
3.955019950866699 0.542540013790131 0.085966199636459
3.415019989013672 -0.198458999395370 0.116963997483253
3.792020082473755 0.746541023254395 0.041963700205088
2.915019989013672 0.533541977405548 0.079965703189373
3.924020051956177 0.138540998101234 0.046964701265097
3.550019979476929 0.911539971828461 0.030965900048614
3.994019985198975 -0.413459002971649 0.055963598191738
3.387020111083984 0.907540023326874 0.036966398358345
3.214020013809204 0.796540021896362 0.038965299725533
3.931020021438599 -0.561460018157959 0.051965799182653
3.068020105361939 0.708540976047516 0.035966899245977
3.942019939422607 0.283542007207870 0.008966499939561
2.965019941329956 0.037541300058365 0.046964701265097
3.973020076751709 -0.127460002899170 0.004964900203049
3.101020097732544 -0.062459100037813 0.033964201807976
3.651020050048828 0.805540978908539 -0.021036099642515
3.537019968032837 -0.353459000587463 0.002966000000015
3.907020092010498 0.467541992664337 -0.045034300535917
3.745019912719727 -0.492458999156952 -0.008035600185394
3.973020076751709 -0.282458007335663 -0.025033900514245
3.226020097732544 -0.152458995580673 -0.007036100141704
3.877019882202148 0.613541007041931 -0.060033701360226
3.352020025253296 -0.236459001898766 -0.019033400341868
3.895020008087158 -0.009459599852562 -0.050035398453474
2.932019948959351 0.727540016174316 -0.036035500466824
3.073019981384277 0.822540998458862 -0.063035897910595
3.270020008087158 0.873539984226227 -0.075033098459244
3.882019996643066 -0.464459985494614 -0.058034799993038
3.452019929885864 0.850540995597839 -0.107035003602505
3.724020004272461 0.695540010929108 -0.115033999085426
3.840019941329956 0.135541006922722 -0.129033997654915
3.577019929885864 0.763540983200073 -0.151032999157906
3.868020057678223 -0.327457994222641 -0.128034994006157
3.880019903182983 0.332540988922119 -0.150033995509148
2.853019952774048 0.857541024684906 -0.130033001303673
3.631020069122315 -0.438459008932114 -0.120035000145435
3.415019989013672 -0.331459999084473 -0.116033002734184
3.018019914627075 -0.108459003269672 -0.111036002635956
2.991019964218140 0.901542007923126 -0.164033994078636
3.891020059585571 -0.181458994746208 -0.167035996913910
3.252019882202148 -0.253459006547928 -0.151032999157906
2.874020099639893 0.994539976119995 -0.188035994768143
3.821019887924194 0.473540008068085 -0.216036006808281
3.835020065307617 -0.029460100457072 -0.202035993337631
3.748019933700562 -0.387459993362427 -0.198034003376961
3.361020088195801 0.829541027545929 -0.233033999800682
3.143019914627075 0.903540015220642 -0.231034994125366
3.117019891738892 -0.207460001111031 -0.200032994151115
3.659019947052002 0.661539971828461 -0.255032986402512
3.489020109176636 -0.401459991931915 -0.224034994840622
3.827019929885864 0.252541005611420 -0.276033014059067
3.784019947052002 0.093540996313095 -0.273034989833832
3.333019971847534 -0.348457992076874 -0.249033004045486
3.786020040512085 -0.193460002541542 -0.296034008264542
3.516020059585571 0.702539980411530 -0.315034985542297
3.617019891738892 -0.364459007978439 -0.296034008264542
3.017019987106323 0.967541992664337 -0.326036006212235
3.240020036697388 0.846540987491608 -0.343035012483597
3.762020111083984 0.510541021823883 -0.364035010337830
3.388020038604736 0.771540999412537 -0.370034992694855
3.770020008087158 -0.048459198325872 -0.371035009622574
3.179019927978516 -0.313459008932114 -0.340036004781723
3.795020103454590 0.349541991949081 -0.388036996126175
3.045020103454590 -0.244460001587868 -0.349034994840622
3.441020011901856 -0.442460000514984 -0.360033005475998
3.630019903182983 0.606541991233826 -0.421034008264542
3.768019914627075 0.157539993524551 -0.416036993265152
3.686019897460938 -0.198458999395370 -0.409036993980408
3.141020059585571 0.929540991783142 -0.427033990621567
3.280019998550415 -0.408459991216660 -0.412034988403320
3.470020055770874 0.690541028976440 -0.470034003257751
3.566020011901856 -0.319458991289139 -0.448033988475800
3.698019981384277 0.498540014028549 -0.503035008907318
3.680020093917847 0.037541300058365 -0.492033004760742
3.212019920349121 0.831539988517761 -0.523034989833832
3.756020069122315 0.358539998531342 -0.533033013343811
3.340019941329956 0.716539978981018 -0.550034999847412
3.618020057678223 -0.111459001898766 -0.540032982826233
2.993020057678223 -0.252460002899170 -0.517033994197845
3.415019989013672 -0.393458008766174 -0.534036993980408
3.071019887924194 0.990540027618408 -0.566034018993378
3.519020080566406 0.602540016174316 -0.582032978534698
3.105020046234131 -0.344458997249603 -0.554032981395721
3.264019966125488 -0.424459010362625 -0.559033989906311
3.506020069122315 -0.229459002614021 -0.619036018848419
3.189019918441773 0.921540021896362 -0.647036015987396
3.649019956588745 0.243541002273560 -0.646036028862000
3.620019912719727 0.513540983200073 -0.657033979892731
3.591020107269287 0.087540499866009 -0.649034023284912
3.255019903182983 0.760541021823883 -0.665032982826233
3.540019989013672 -0.084458500146866 -0.670033991336823
3.687020063400269 0.379539996385574 -0.697035014629364
3.360019922256470 -0.337458997964859 -0.663034021854401
3.413019895553589 0.608539998531342 -0.712033987045288
3.108020067214966 1.020539999008179 -0.739035010337830
3.215019941329956 -0.358458995819092 -0.737035989761353
3.437020063400269 -0.179460003972054 -0.757035970687866
3.285020112991333 0.661539971828461 -0.793034970760345
3.503020048141480 0.527540981769562 -0.798035979270935
3.515019893646240 0.114541001617908 -0.796033978462219
3.048019886016846 -0.341457992792130 -0.768033981323242
3.595020055770874 0.253540992736816 -0.815034985542297
3.319020032882690 -0.264459013938904 -0.790032982826233
2.987020015716553 0.946539998054504 -0.817034006118774
3.212019920349121 0.786539971828461 -0.832032978534698
3.474020004272461 -0.041459199041128 -0.826035976409912
2.926019906997681 -0.262459993362427 -0.806035995483398
3.600019931793213 0.416541010141373 -0.863035023212433
3.372020006179810 0.577539980411530 -0.894033014774323
3.156019926071167 -0.285459011793137 -0.864035010337830
3.090019941329956 1.036540031433106 -0.933035016059875
3.489020109176636 0.479541003704071 -0.941034018993378
3.195019960403442 0.905541002750397 -0.945035994052887
3.468019962310791 0.150539994239807 -0.935033977031708
2.928020000457764 0.883539974689484 -0.942034006118774
3.341020107269287 -0.115459002554417 -0.932035028934479
2.873019933700562 -0.287458986043930 -0.955034017562866
3.543020009994507 0.305541008710861 -1.003029942512512
3.189019918441773 -0.165460005402565 -0.984034001827240
3.393019914627075 0.029539899900556 -1.006039977073669
3.289020061492920 0.599542021751404 -1.027040004730225
3.170020103454590 1.097540020942688 -1.081030011177063
3.042020082473755 -0.230458006262779 -1.034039974212647
3.398020029067993 0.494540005922318 -1.076040029525757
3.264019966125488 -0.049458600580692 -1.057039976119995
3.198019981384277 0.731541991233826 -1.081030011177063
2.991019964218140 0.955541014671326 -1.089030027389526
3.450020074844360 0.223539993166924 -1.091040015220642
2.880019903182983 -0.176458999514580 -1.069039940834045
3.170020103454590 0.934540987014771 -1.131039977073669
2.830019950866699 -0.009459599852562 -1.093029975891113
3.477020025253296 0.380540013313293 -1.131039977073669
2.826020002365112 -0.328460007905960 -1.123029947280884
3.069020032882690 1.046540021896362 -1.178030014038086
3.236020088195801 0.601540029048920 -1.174039959907532
3.062020063400269 -0.139458999037743 -1.159039974212647
3.171020030975342 -0.019459800794721 -1.183030009269714
3.314019918441773 0.093540996313095 -1.198029994964600
3.161020040512085 0.734539985656738 -1.231040000915527
2.943020105361939 -0.059458799660206 -1.214030027389526
3.208019971847534 1.018540024757385 -1.267030000686646
2.846019983291626 -0.201459005475044 -1.218029975891113
3.344019889831543 0.443540990352631 -1.260030031204224
3.193020105361939 0.871541023254395 -1.281030058860779
3.373019933700562 0.217541992664337 -1.285040020942688
2.978019952774048 0.984539985656738 -1.308030009269714
3.212019920349121 0.066540598869324 -1.309030055999756
3.080019950866699 -0.042458601295948 -1.308030009269714
3.189019918441773 0.638540983200073 -1.345029950141907
2.807019948959351 -0.323458999395370 -1.308030009269714
2.889019966125488 0.022539999336004 -1.331030011177063
2.883019924163818 0.883539974689484 -1.387030005455017
3.259020090103149 0.505540013313293 -1.390040040016174
3.211019992828369 1.087540030479431 -1.407029986381531
3.054019927978516 1.089540004730225 -1.401029944419861
2.958019971847534 -0.129458993673325 -1.362040042877197
3.350019931793213 0.365539997816086 -1.398030042648315
3.256020069122315 0.173540994524956 -1.406030058860779
3.177020072937012 0.849542021751404 -1.431040048599243
2.842020034790039 -0.233458995819092 -1.426030039787293
3.158020019531250 0.663541018962860 -1.493039965629578
3.152019977569580 0.040541499853134 -1.473039984703064
2.794019937515259 0.801540970802307 -1.485030055046082
3.022020101547241 -0.052458900958300 -1.472040057182312
2.931020021438599 0.980539977550507 -1.505030035972595
2.795020103454590 -0.386458992958069 -1.483029961585999
3.166019916534424 1.044540047645569 -1.544029951095581
3.211019992828369 0.515540003776550 -1.533030033111572
3.294019937515259 0.371540993452072 -1.540030002593994
2.892019987106323 -0.123460002243519 -1.513039946556091
3.191020011901856 0.152540996670723 -1.573029994964600
2.828020095825195 0.905541002750397 -1.586030006408691
2.904020071029663 -0.308459013700485 -1.555040001869202
3.145020008087158 0.907540023326874 -1.610030055046082
3.026020050048828 1.101539969444275 -1.615030050277710
2.702019929885864 0.789539992809296 -1.615030050277710
3.092020034790039 0.008539999835193 -1.614030003547669
2.840019941329956 0.004540299996734 -1.605039954185486
3.141020059585571 0.606541991233826 -1.656030058860779
2.983020067214966 -0.093459196388721 -1.645040035247803
2.777019977569580 -0.358458995819092 -1.630030035972595
3.260020017623901 0.273541003465652 -1.674039959907532
3.188019990921021 0.447540998458862 -1.685029983520508
2.901020050048828 1.028540015220642 -1.694039940834045
2.840019941329956 -0.198458999395370 -1.672029972076416
3.072020053863525 0.960542023181915 -1.732030034065247
3.110019922256470 0.142541006207466 -1.725029945373535
2.734019994735718 0.871541023254395 -1.747030019760132
3.131020069122315 0.770541012287140 -1.770040035247803
3.020020008087158 0.020541099831462 -1.759039998054504
3.119019985198975 0.522539973258972 -1.796030044555664
2.825020074844360 1.001539945602417 -1.820039987564087
2.954020023345947 1.090540051460266 -1.830029964447022
3.199019908905029 0.258540004491806 -1.817029953002930
2.926019906997681 -0.146458998322487 -1.794029951095581
2.741019964218140 -0.281459003686905 -1.798040032386780
3.037019968032837 0.862540006637573 -1.847040057182312
3.167020082473755 0.399540990591049 -1.886029958724976
2.937020063400269 0.961540997028351 -1.909039974212647
3.130019903182983 0.732541024684906 -1.916039943695068
3.004019975662231 0.048540998250246 -1.926030039787293
3.092020034790039 0.179541006684303 -1.935029983520508
2.846019983291626 -0.140459999442101 -1.936030030250549
2.799020051956177 0.986540973186493 -1.972040057182312
3.118020057678223 0.530541002750397 -1.973039984703064
2.979020118713379 0.870540976524353 -2.026030063629150
2.692019939422607 -0.127460002899170 -1.987040042877197
2.561019897460938 -0.051459401845932 -1.997030019760132
3.132019996643066 0.293540000915527 -2.034039974212647
2.923019886016846 -0.030459500849247 -2.027040004730225
3.061019897460938 0.736540973186493 -2.064039945602417
2.519020080566406 -0.230458006262779 -2.024029970169067
2.876019954681397 0.820540010929108 -2.136029958724976
2.999020099639893 0.120540998876095 -2.129029989242554
2.455019950866699 -0.017458999529481 -2.107029914855957
2.399019956588745 -0.162459000945091 -2.102030038833618
2.782020092010498 -0.084458500146866 -2.132040023803711
3.106019973754883 0.600540995597839 -2.174040079116821
2.602020025253296 -0.153458997607231 -2.130029916763306
3.111020088195801 0.364540994167328 -2.167040109634399
2.994019985198975 0.699540019035339 -2.192029953002930
2.906019926071167 0.030541300773621 -2.206029891967773
3.072020053863525 0.237540006637573 -2.249030113220215
2.435019969940186 0.111541002988815 -2.234030008316040
2.872020006179810 0.715541005134583 -2.291039943695068
2.664020061492920 -0.083458997309208 -2.258039951324463
2.363019943237305 -0.062459100037813 -2.250040054321289
3.030019998550415 0.589541018009186 -2.301029920578003
3.099020004272461 0.457540988922119 -2.302030086517334
2.509020090103149 -0.076458998024464 -2.300040006637573
3.019020080566406 0.109540000557899 -2.337029933929443
3.177020072937012 0.315540999174118 -2.352030038833618
2.810019969940186 -0.015460100024939 -2.351030111312866
2.745019912719727 0.709540009498596 -2.383039951324463
2.391020059585571 0.059540599584579 -2.367029905319214
3.168020009994507 0.119539998471737 -2.407030105590820
2.427020072937012 0.244540005922318 -2.386029958724976
2.915019989013672 0.639540970325470 -2.418040037155151
2.646019935607910 -0.036460001021624 -2.412029981613159
2.454020023345947 0.391541004180908 -2.425040006637573
3.111020088195801 0.486541002988815 -2.456029891967773
2.995019912719727 0.895541012287140 -2.481040000915527
2.926019906997681 0.003540900070220 -2.451040029525757
2.494019985198975 0.535539984703064 -2.482029914855957
2.495019912719727 0.023541299626231 -2.495039939880371
2.941020011901856 0.537540972232819 -2.530030012130737
3.030019998550415 0.742541015148163 -2.550040006637573
2.833019971847534 0.659541010856628 -2.550040006637573
2.786020040512085 -0.019459800794721 -2.538029909133911
2.377019882202148 0.279540002346039 -2.543040037155151
2.875020027160645 0.814540028572083 -2.587029933929443
2.713020086288452 0.725540995597839 -2.618040084838867
2.298019886016846 0.152540996670723 -2.587029933929443
2.618020057678223 0.010540800169110 -2.603029966354370
2.517019987106323 0.619539976119995 -2.622030019760132
2.438019990921021 0.104541003704071 -2.614029884338379
2.913019895553589 -0.058459401130676 -2.628030061721802
3.010020017623901 0.745540976524353 -2.714030027389526
3.160020112991333 0.713540017604828 -2.727030038833618
2.839020013809204 0.764540970325470 -2.732029914855957
2.597019910812378 0.689540028572083 -2.729039907455444
2.749020099639893 -0.030459500849247 -2.721029996871948
2.500020027160645 0.079541102051735 -2.752039909362793
2.339020013809204 0.154540002346039 -2.762029886245728
2.628020048141480 0.016541400924325 -2.809030055999756
2.772020101547241 0.722540974617004 -2.891040086746216
2.953020095825195 0.723540008068085 -2.902040004730225
3.120019912719727 0.745540976524353 -2.917040109634399
2.627019882202148 0.710542023181915 -2.921030044555664
