ply
format ascii 1.0
element vertex 170
property double x
property double y
property double z
end_header
-0.823979973793030 1.089540004730225 -11.857999801635742
-1.046980023384094 1.697540044784546 -11.833999633789063
-0.823979973793030 1.089540004730225 -11.857999801635742
-0.953980982303619 1.572540044784546 -11.875000000000000
-0.737981021404266 1.581539988517761 -11.914999961853027
0.057016801089048 1.325539946556091 -11.953000068664551
-0.100979998707771 0.831539988517761 -11.937999725341797
-0.957983016967773 1.106539964675903 -11.923000335693359
-1.194980025291443 1.769539952278137 -11.937999725341797
-0.624981999397278 0.976540029048920 -11.935000419616699
-0.681981980800629 1.452540040016174 -11.965000152587891
-0.843980014324188 1.205539941787720 -11.956000328063965
-0.093980401754379 1.388540029525757 -11.994000434875488
-0.632982015609741 1.207540035247803 -11.967000007629395
0.029016900807619 0.914539992809296 -11.986000061035156
-1.123980045318604 1.607540011405945 -11.968999862670898
-0.725979983806610 1.080539941787720 -11.970000267028809
0.066019400954247 0.770541012287140 -11.996000289916992
-0.175981000065804 1.517539978027344 -12.010999679565430
-0.483980000019073 0.906540989875793 -11.982000350952148
-0.989979982376099 1.669540047645569 -11.987000465393066
-0.567982971668243 1.552539944648743 -12.003999710083008
-0.325982987880707 0.831539988517761 -11.993000030517578
-1.094980001449585 1.154539942741394 -11.979000091552734
-0.859983026981354 1.591539978981018 -12.003999710083008
-0.991982996463776 1.488540053367615 -11.996999740600586
-0.756982028484344 1.322540044784546 -12.005999565124512
-0.443982988595963 1.435539960861206 -12.024000167846680
-0.081983201205730 1.001539945602417 -12.032999992370605
-0.352982997894287 1.291540026664734 -12.034000396728516
-0.530981004238129 1.052539944648743 -12.026000022888184
-0.205980002880096 0.910539984703064 -12.039999961853027
-0.327982008457184 1.532539963722229 -12.055999755859375
-0.357980012893677 0.969539999961853 -12.041000366210937
-1.557979941368103 1.346539974212647 -12.006999969482422
-0.204980000853539 1.229539990425110 -12.057000160217285
-1.252979993820190 1.203539967536926 -12.015999794006348
-0.594980001449585 1.358540058135986 -12.048000335693359
-0.505982995033264 1.232540011405945 -12.048000335693359
-0.964982986450195 1.256539940834045 -12.034000396728516
-1.266980051994324 1.682540059089661 -12.038000106811523
-1.283980011940002 1.368540048599243 -12.031000137329102
-0.232979997992516 1.384539961814880 -12.074999809265137
-0.395981997251511 1.118540048599243 -12.064000129699707
0.323018997907639 1.284540057182312 -12.102000236511230
-0.881982028484344 1.396540045738220 -12.060000419616699
-1.134979963302612 1.291540026664734 -12.050000190734863
-1.416980028152466 1.269539952278137 -12.038999557495117
-0.018983500078321 1.271540045738220 -12.095000267028809
-0.249981999397278 1.081539988517761 -12.079999923706055
0.135020002722740 1.262539982795715 -12.102999687194824
0.016020199283957 1.096539974212647 -12.104000091552734
-1.109979987144470 1.447540044784546 -12.081000328063965
0.161017000675201 0.749540984630585 -12.116000175476074
-1.362980008125305 1.498540043830872 -12.081999778747559
0.076017796993256 0.879540026187897 -12.133000373840332
-1.646980047225952 1.452540040016174 -12.086999893188477
-1.222980022430420 1.541540026664734 -12.107000350952148
-1.383980035781860 1.760540008544922 -12.119999885559082
0.283017992973328 0.655541002750397 -12.157999992370605
0.690020024776459 0.624540984630585 -12.178000450134277
0.145017996430397 1.042539954185486 -12.175999641418457
0.443017989397049 0.629540026187897 -12.178999900817871
0.418016999959946 1.223539948463440 -12.199999809265137
0.263018012046814 1.169540047645569 -12.201000213623047
-1.480980038642883 1.416540026664734 -12.140999794006348
0.211019992828369 0.899541020393372 -12.194999694824219
0.555018007755280 0.725540995597839 -12.206999778747559
-1.486979961395264 1.890540003776550 -12.168999671936035
0.307016998529434 1.008540034294128 -12.234000205993652
0.345019012689590 0.773540973663330 -12.229000091552734
-1.559980034828186 1.548539996147156 -12.185000419616699
-1.418980002403259 1.638540029525757 -12.197999954223633
-1.531980037689209 1.750540018081665 -12.206000328063965
0.810019016265869 0.653540015220642 -12.272999763488770
0.419019997119904 0.915542006492615 -12.272999763488770
-1.697980046272278 1.509539961814880 -12.223999977111816
0.429017990827560 1.091539978981018 -12.295000076293945
-1.570979952812195 1.991539955139160 -12.258999824523926
-1.715980052947998 1.947540044784546 -12.260999679565430
0.684019029140472 0.720539987087250 -12.321000099182129
0.533017992973328 1.239539980888367 -12.338000297546387
0.515016973018646 0.813539981842041 -12.324999809265137
-1.647979974746704 1.646540045738220 -12.272999763488770
0.547017991542816 0.986540973186493 -12.340000152587891
0.910017013549805 0.563539981842041 -12.362000465393066
0.621020019054413 1.116539955139160 -12.376999855041504
-1.607980012893677 1.851539969444275 -12.329999923706055
-1.826979994773865 2.047539949417114 -12.333999633789063
0.634019970893860 0.863541007041931 -12.402000427246094
0.718020021915436 0.989540994167328 -12.409999847412109
0.845018982887268 0.695540010929108 -12.411000251770020
0.812017977237701 1.128540039062500 -12.427000045776367
-1.790979981422424 1.538540005683899 -12.340000152587891
-1.719980001449585 1.748540043830872 -12.357999801635742
1.012019991874695 1.014539957046509 -12.477000236511230
0.775018990039825 0.822540998458862 -12.465999603271484
0.860018014907837 0.990540027618408 -12.479000091552734
-1.816980004310608 1.846539974212647 -12.413999557495117
-1.877979993820190 1.627539992332459 -12.421999931335449
0.916018009185791 0.836540997028351 -12.522000312805176
0.980017006397247 0.508539974689484 -12.513999938964844
-1.876979947090149 2.026540040969849 -12.475000381469727
0.931016981601715 0.680540978908539 -12.545999526977539
-1.928979992866516 1.777539968490601 -12.484999656677246
-2.010979890823364 1.634539961814880 -12.501000404357910
1.053020000457764 0.913541018962860 -12.598999977111816
1.028020024299622 0.754540026187897 -12.640000343322754
1.052019953727722 0.603541016578674 -12.649000167846680
-2.078979969024658 1.744539976119995 -12.592000007629395
1.187019944190979 0.912540972232819 -12.694999694824219
-1.985980033874512 1.889539957046509 -12.604000091552734
-1.946979999542236 2.058540105819702 -12.614000320434570
1.159019947052002 0.425540000200272 -12.697999954223633
1.152019977569580 0.751540005207062 -12.737000465393066
1.303020000457764 0.426541000604630 -12.758000373840332
1.216019988059998 0.570540010929108 -12.784000396728516
-2.117980003356934 1.852540016174316 -12.697999954223633
-1.949980020523071 2.169539928436279 -12.725999832153320
-2.020979881286621 1.978539943695068 -12.722000122070313
1.290019989013672 0.911539971828461 -12.819000244140625
1.270020008087158 0.747539997100830 -12.843000411987305
1.412019968032837 0.464540988206863 -12.880000114440918
1.328019976615906 0.591539978981018 -12.885000228881836
1.371019959449768 0.819540977478027 -12.927000045776367
-2.061980009078980 2.190540075302124 -12.840999603271484
1.529019951820374 0.376540005207062 -12.937000274658203
-2.134979963302612 1.900539994239807 -12.850000381469727
1.517019987106323 0.813539981842041 -12.970999717712402
-2.087980031967163 2.041539907455444 -12.885999679565430
1.430019974708557 0.670540988445282 -12.984999656677246
1.484019994735718 0.537540972232819 -13.031000137329102
1.704020023345947 0.776542007923126 -13.064000129699707
1.582020044326782 0.426541000604630 -13.071999549865723
-2.131979942321777 2.255539894104004 -12.991999626159668
1.583019971847534 0.684540987014771 -13.088000297546387
-2.176980018615723 2.003540039062500 -13.015000343322754
1.724020004272461 0.394542008638382 -13.119000434875488
1.756019949913025 0.665542006492615 -13.166000366210937
1.610020041465759 0.557539999485016 -13.161999702453613
-2.131979942321777 2.139539957046509 -13.088000297546387
-2.178980112075806 2.322540044784546 -13.125000000000000
1.837020039558411 0.409541010856628 -13.230999946594238
1.949020028114319 0.656540989875793 -13.244999885559082
1.708019971847534 0.486541002988815 -13.258999824523926
-2.218980073928833 2.057539939880371 -13.192000389099121
1.835019946098328 0.577539980411530 -13.305999755859375
1.939020037651062 0.457540988922119 -13.336999893188477
-2.147979974746704 2.219540119171143 -13.248999595642090
1.849020004272461 0.272540003061295 -13.369000434875488
1.990020036697388 0.683540999889374 -13.392999649047852
1.795019984245300 0.446539998054504 -13.383000373840332
1.903020024299622 0.560540020465851 -13.446999549865723
2.058020114898682 0.475540995597839 -13.454999923706055
1.994019985198975 0.309540987014771 -13.460000038146973
-2.218980073928833 2.130539894104004 -13.362000465393066
1.865020036697388 0.399540990591049 -13.508000373840332
2.012020111083984 0.627541005611420 -13.546999931335449
1.882019996643066 0.241539999842644 -13.534000396728516
2.138020038604736 0.512539982795715 -13.576000213623047
1.961019992828369 0.493541002273560 -13.586000442504883
-2.213979959487915 2.176539897918701 -13.508000373840332
-2.139980077743530 2.312540054321289 -13.529999732971191
2.053020000457764 0.511539995670319 -13.713000297546387
2.199019908905029 0.532540023326874 -13.729999542236328
-2.183979988098145 2.241539955139160 -13.704999923706055
2.149019956588745 0.517540991306305 -13.869000434875488
-2.169980049133301 2.281539916992188 -13.868000030517578
-2.088979959487915 2.293540000915527 -13.998000144958496
-2.097980022430420 2.237540006637573 -14.222999572753906
