ply
format ascii 1.0
element vertex 309
property double x
property double y
property double z
end_header
6.518020153045654 0.444541007280350 -9.452030181884766
6.258019924163818 0.405541002750397 -9.426030158996582
6.518020153045654 0.444541007280350 -9.452030181884766
6.131020069122315 0.484539985656738 -9.451029777526856
6.393020153045654 0.358539998531342 -9.472029685974121
6.636020183563232 0.368541002273560 -9.504030227661133
6.147019863128662 0.280541002750397 -9.509039878845215
6.876019954681397 0.392540991306305 -9.551030158996582
6.994019985198975 0.307539999485016 -9.585040092468262
6.223020076751709 0.523540973663330 -9.562029838562012
6.039020061492920 0.507541000843048 -9.567040443420410
6.492020130157471 0.366540014743805 -9.589030265808106
6.753019809722900 0.322540998458862 -9.598039627075195
6.728020191192627 0.470539987087250 -9.618029594421387
6.121019840240479 0.646540999412537 -9.606040000915527
6.379020214080811 0.512539982795715 -9.619039535522461
6.313020229339600 0.374541014432907 -9.614029884338379
6.549019813537598 0.507541000843048 -9.629030227661133
6.018020153045654 0.320540010929108 -9.611029624938965
6.164020061492920 0.370541006326675 -9.631030082702637
6.862020015716553 0.489540994167328 -9.687029838562012
6.896019935607910 0.333541005849838 -9.695030212402344
6.601019859313965 0.361541002988815 -9.697030067443848
5.897019863128662 0.393539994955063 -9.703040122985840
6.766019821166992 0.857541024684906 -9.759039878845215
7.064020156860352 0.344539999961853 -9.756030082702637
7.189020156860352 0.514540970325470 -9.767029762268066
6.909019947052002 0.804540991783142 -9.780030250549316
5.940020084381104 0.236541002988815 -9.725029945373535
7.347020149230957 0.283542007207870 -9.784029960632324
6.751019954681397 0.436540991067886 -9.770030021667481
6.573019981384277 0.715541005134583 -9.774029731750488
6.177020072937012 0.740540027618408 -9.760029792785645
6.724020004272461 0.664539992809296 -9.782039642333984
6.808020114898682 0.994539976119995 -9.798029899597168
7.049019813537598 0.566541016101837 -9.796039581298828
6.343019962310791 0.489540994167328 -9.770030021667481
6.050020217895508 0.393539994955063 -9.757029533386231
6.505020141601563 0.477539986371994 -9.779040336608887
6.401020050048828 0.821539998054504 -9.789039611816406
5.906020164489746 0.536539971828461 -9.761030197143555
6.487020015716553 1.029539942741394 -9.800040245056152
7.213019847869873 0.356541991233826 -9.811039924621582
6.059020042419434 0.595539987087250 -9.774029731750488
6.327020168304443 0.653540015220642 -9.791029930114746
7.452020168304443 0.427540987730026 -9.830030441284180
6.626019954681397 0.977540016174316 -9.819029808044434
6.240019798278809 0.875540971755981 -9.803039550781250
6.943019866943359 0.461540997028351 -9.823030471801758
6.633019924163818 0.548541009426117 -9.816029548645020
6.962019920349121 1.012539982795715 -9.845040321350098
7.319019794464111 0.520541012287140 -9.844030380249023
6.185019969940186 0.513540983200073 -9.803039550781250
7.096020221710205 0.728541016578674 -9.847029685974121
5.784019947052002 0.340541005134583 -9.795029640197754
6.358019828796387 0.967541992664337 -9.845040321350098
7.251019954681397 0.692539989948273 -9.873040199279785
6.828020095825195 0.584540009498596 -9.857029914855957
7.095019817352295 0.443540990352631 -9.866040229797363
5.720019817352295 0.492540985345840 -9.821040153503418
6.461019992828369 0.658541977405548 -9.856040000915527
6.666019916534424 0.795540988445282 -9.872030258178711
6.098020076751709 0.824540019035339 -9.854029655456543
6.810019969940186 0.754540026187897 -9.886030197143555
5.934020042419434 0.745540976524353 -9.853030204772949
6.516019821166992 0.834540009498596 -9.883040428161621
6.882019996643066 0.894541978836060 -9.900030136108398
5.921020030975342 0.369540005922318 -9.848039627075195
5.836019992828369 0.631541013717651 -9.857029914855957
5.188020229339600 1.072540044784546 -9.853030204772949
6.952020168304443 0.666540980339050 -9.911040306091309
5.351019859313965 1.080539941787720 -9.863039970397949
7.411019802093506 0.310539990663528 -9.921039581298828
7.179019927978516 0.862540006637573 -9.932040214538574
7.408020019531250 0.643540024757385 -9.936039924621582
7.372019767761231 0.794541001319885 -9.942040443420410
6.218019962310791 0.659541010856628 -9.895030021667481
5.572020053863525 0.947540998458862 -9.880040168762207
5.837019920349121 0.215541005134583 -9.867030143737793
7.286019802093506 0.406540989875793 -9.934029579162598
5.771019935607910 0.809540987014771 -9.890040397644043
5.655020236968994 0.341540008783340 -9.871029853820801
5.659019947052002 0.632541000843048 -9.882029533386231
7.084020137786865 0.601540029048920 -9.940030097961426
5.621019840240479 0.804540991783142 -9.890040397644043
7.530020236968994 0.496540993452072 -9.956040382385254
7.630020141601563 0.375541001558304 -9.958029747009277
5.969019889831543 0.554540991783142 -9.899029731750488
5.890019893646240 0.903540015220642 -9.908040046691895
5.348020076751709 0.878540992736816 -9.887040138244629
5.580019950866699 0.494540005922318 -9.884039878845215
7.008019924163818 0.807539999485016 -9.952030181884766
6.316020011901856 0.808540999889374 -9.927029609680176
7.058020114898682 0.961540997028351 -9.965029716491699
5.473020076751709 0.785539984703064 -9.908040046691895
5.061019897460938 0.999540984630585 -9.899029731750488
6.072020053863525 0.684540987014771 -9.930029869079590
7.538020133972168 0.253540992736816 -9.978030204772949
5.189020156860352 0.873539984226227 -9.906029701232910
6.063020229339600 0.979541003704071 -9.950039863586426
7.222020149230957 0.563539981842041 -9.986029624938965
5.509019851684570 0.640540003776550 -9.923029899597168
7.536019802093506 0.696539998054504 -10.008999824523926
6.259019851684570 1.035539984703064 -9.971030235290527
6.190020084381104 0.893540024757385 -9.965029716491699
7.142020225524902 0.725540995597839 -10.001000404357910
5.662020206451416 1.041540026664734 -9.963040351867676
7.654019832611084 0.803539991378784 -10.034999847412109
5.805019855499268 0.401542007923126 -9.955030441284180
6.017020225524902 0.837540984153748 -9.979029655456543
5.449019908905029 0.464540988206863 -9.947030067443848
5.453020095825195 0.992541015148163 -9.966030120849609
5.262020111083984 0.994539976119995 -9.960040092468262
7.690020084381104 0.236541002988815 -10.034999847412109
7.359020233154297 0.497539997100830 -10.032999992370605
5.808020114898682 1.019539952278137 -9.990030288696289
7.626019954681397 0.581539988517761 -10.055000305175781
5.812019824981690 0.705541014671326 -9.989029884338379
5.363019943237305 0.622539997100830 -9.969030380249023
7.747019767761231 0.465541005134583 -10.059000015258789
7.264019966125488 0.812541007995605 -10.052000045776367
5.247019767761231 0.740540027618408 -9.972029685974121
5.712019920349121 0.902540981769562 -9.997030258178711
7.474020004272461 0.384541004896164 -10.053000450134277
7.310019969940186 0.662540972232819 -10.060999870300293
7.382019996643066 0.910539984703064 -10.076999664306641
5.730020046234131 0.559540987014771 -10.001000404357910
5.552020072937012 0.340541005134583 -9.987039566040039
5.743020057678223 0.269542008638382 -9.993029594421387
7.741020202636719 0.689540028572083 -10.086000442504883
5.053020000457764 0.848540008068085 -9.989029884338379
5.547019958496094 0.862540006637573 -10.012999534606934
7.531020164489746 0.887539982795715 -10.100999832153320
4.955019950866699 0.981541991233826 -10.008000373840332
5.611020088195801 0.697540998458862 -10.027999877929687
7.430019855499268 0.757541000843048 -10.116000175476074
5.278019905090332 0.494540005922318 -10.022999763488770
7.868020057678223 0.379539996385574 -10.121999740600586
7.459020137786865 0.590541005134583 -10.112999916076660
5.343019962310791 0.853541016578674 -10.045000076293945
7.620019912719727 0.336540997028351 -10.119999885559082
5.675020217895508 0.409541010856628 -10.053999900817871
5.119019985198975 0.700541019439697 -10.050000190734863
7.802020072937012 0.570540010929108 -10.152000427246094
7.558020114898682 0.481541991233826 -10.151000022888184
5.579020023345947 0.555540978908539 -10.076999664306641
7.565020084381104 0.692539989948273 -10.163000106811523
5.175020217895508 0.837540984153748 -10.078000068664551
5.148019790649414 0.554540991783142 -10.069000244140625
7.759019851684570 0.286540001630783 -10.163999557495117
7.940020084381104 0.685540020465851 -10.190999984741211
7.688020229339600 0.791540980339050 -10.187000274658203
5.383019924163818 0.401542007923126 -10.086000442504883
5.433020114898682 0.618541002273560 -10.102000236511230
5.619019985198975 0.267540991306305 -10.105999946594238
4.948019981384277 0.808540999889374 -10.107000350952148
7.918019771575928 0.494540005922318 -10.220999717712402
5.244019985198975 0.671540021896362 -10.131999969482422
7.655020236968994 0.577539980411530 -10.225999832153320
5.520020008087158 0.433540999889374 -10.138999938964844
4.870019912719727 0.944540977478027 -10.131999969482422
5.014019966125488 0.558540999889374 -10.137000083923340
7.729020118713379 0.411540001630783 -10.243000030517578
7.900020122528076 0.308540999889374 -10.251000404357910
5.317019939422607 0.543540000915527 -10.159999847412109
5.204020023345947 0.443540990352631 -10.154999732971191
7.830019950866699 0.743541002273560 -10.272999763488770
8.045020103454590 0.385540992021561 -10.277999877929687
5.031020164489746 0.720539987087250 -10.194000244140625
5.461019992828369 0.305541008710861 -10.199000358581543
4.826019763946533 0.794541001319885 -10.196000099182129
4.896019935607910 0.654540002346039 -10.196000099182129
7.783020019531250 0.588540017604828 -10.310999870300293
4.894020080566406 0.495541006326675 -10.204999923706055
8.011019706726074 0.536539971828461 -10.329999923706055
5.303020000457764 0.256541013717651 -10.215999603271484
4.802020072937012 1.031540036201477 -10.239999771118164
4.892020225524902 0.205540999770164 -10.218999862670898
5.154019832611084 0.320540010929108 -10.234999656677246
5.045020103454590 0.211540997028351 -10.227999687194824
4.239019870758057 0.218540996313095 -10.199999809265137
7.951019763946533 0.719539999961853 -10.366000175476074
5.066020011901856 0.452540010213852 -10.246000289916992
7.839019775390625 0.449539989233017 -10.354999542236328
4.602019786834717 0.177541002631187 -10.229999542236328
4.446020126342773 0.204540997743607 -10.234999656677246
4.962019920349121 0.346540987491608 -10.260999679565430
4.703020095825195 0.828540027141571 -10.276000022888184
7.951019763946533 0.352539986371994 -10.388999938964844
4.780020236968994 0.403539985418320 -10.267999649047852
4.743020057678223 0.218540996313095 -10.262000083923340
4.704020023345947 0.644541978836060 -10.277000427246094
4.641019821166992 0.346540987491608 -10.267000198364258
4.371019840240479 0.338539987802505 -10.258000373840332
7.898019790649414 0.582540988922119 -10.414999961853027
4.650020122528076 0.498540014028549 -10.298000335693359
8.106019973754883 0.559540987014771 -10.449999809265137
4.816020011901856 0.732541024684906 -10.331999778747559
4.820020198822022 0.538541018962860 -10.326999664306641
4.494019985198975 0.446539998054504 -10.314999580383301
4.597020149230957 0.742541015148163 -10.335000038146973
4.157020092010498 0.297542005777359 -10.310999870300293
4.715020179748535 0.955541014671326 -10.354999542236328
8.076020240783691 0.323540985584259 -10.484000205993652
4.528019905090332 0.289539992809296 -10.345000267028809
4.295020103454590 0.215541005134583 -10.345000267028809
8.000020027160645 0.677541017532349 -10.505999565124512
4.258019924163818 0.412541002035141 -10.354000091552734
7.984020233154297 0.466540008783340 -10.508999824523926
4.500020027160645 0.620540976524353 -10.381999969482422
4.058020114898682 0.196539998054504 -10.359000205993652
4.376019954681397 0.514540970325470 -10.397000312805176
8.141019821166992 0.703540027141571 -10.552000045776367
4.603020191192627 0.868541002273560 -10.425999641418457
4.661019802093506 0.634540975093842 -10.425999641418457
4.472020149230957 0.764540970325470 -10.428999900817871
4.404019832611084 0.340541005134583 -10.414999961853027
4.580019950866699 0.505540013313293 -10.434000015258789
8.199020385742188 0.535539984703064 -10.590000152587891
8.216019630432129 0.343540996313095 -10.595000267028809
8.054019927978516 0.570540010929108 -10.605999946594238
8.092020034790039 0.426541000604630 -10.609000205993652
4.098020076751709 0.386539995670319 -10.458000183105469
4.266019821166992 0.316540986299515 -10.468999862670898
4.136020183563232 0.239540994167328 -10.484999656677246
4.371019840240479 0.819540977478027 -10.522999763488770
4.238019943237305 0.536539971828461 -10.508999824523926
4.279019832611084 0.687541007995605 -10.517000198364258
4.005020141601563 0.162541002035141 -10.496999740600586
4.408020019531250 0.592541992664337 -10.536000251770020
4.515019893646240 0.845539987087250 -10.550000190734863
3.998019933700562 0.319541007280350 -10.555999755859375
4.200019836425781 0.401542007923126 -10.576999664306641
8.232020378112793 0.420540988445282 -10.739999771118164
8.156020164489746 0.555540978908539 -10.744999885559082
4.253019809722900 0.893540024757385 -10.604999542236328
4.147019863128662 0.762539982795715 -10.602000236511230
4.065020084381104 0.470539987087250 -10.590000152587891
4.025020122528076 0.648540973663330 -10.645000457763672
3.922019958496094 0.209539994597435 -10.626999855041504
4.019020080566406 0.840541005134583 -10.664999961853027
4.170020103454590 0.611540973186493 -10.666999816894531
3.950020074844360 0.425540000200272 -10.675999641418457
8.242019653320313 0.552541017532349 -10.871000289916992
8.299019813537598 0.407539993524551 -10.878000259399414
4.059020042419434 0.537540972232819 -10.743000030517578
3.976020097732544 0.730539977550507 -10.758999824523926
3.840019941329956 0.316540986299515 -10.751000404357910
3.893019914627075 0.603541016578674 -10.767999649047852
3.806020021438599 0.770541012287140 -10.777999877929687
3.842020034790039 0.136539995670319 -10.782999992370605
3.957020044326782 0.448540985584259 -10.824999809265137
3.769020080566406 0.640540003776550 -10.845000267028809
3.800019979476929 0.462541013956070 -10.842000007629395
8.340020179748535 0.427540987730026 -11.031999588012695
3.740020036697388 0.312541007995605 -10.873000144958496
3.730020046234131 0.778540015220642 -10.925999641418457
3.760020017623901 0.140540003776550 -10.916999816894531
3.689019918441773 0.476539999246597 -10.942000389099121
3.634020090103149 0.341540008783340 -10.975999832153320
3.639019966125488 0.693540990352631 -11.010000228881836
8.392020225524902 0.353540986776352 -11.185999870300293
3.650019884109497 0.154540002346039 -11.039999961853027
3.562020063400269 0.496540993452072 -11.048000335693359
3.515019893646240 0.296539992094040 -11.086999893188477
3.534019947052002 0.690541028976440 -11.116999626159668
8.444020271301270 0.296539992094040 -11.319999694824219
3.451020002365112 0.540542006492615 -11.152000427246094
3.412019968032837 0.392540991306305 -11.154999732971191
3.412019968032837 0.743541002273560 -11.194999694824219
3.559020042419434 0.439539998769760 -11.192000389099121
3.579020023345947 0.143539994955063 -11.196000099182129
3.430020093917847 0.156541004776955 -11.197999954223633
3.322020053863525 0.491540014743805 -11.232000350952148
3.295020103454590 0.656540989875793 -11.241999626159668
3.482019901275635 0.300540000200272 -11.255000114440918
3.276020050048828 0.351539999246597 -11.251000404357910
3.318020105361939 0.050539899617434 -11.262999534606934
3.173019886016846 0.731541991233826 -11.310999870300293
3.198019981384277 0.150539994239807 -11.295999526977539
3.197020053863525 0.561541020870209 -11.317999839782715
3.348020076751709 0.240539997816086 -11.319999694824219
3.149019956588745 0.293540000915527 -11.352999687194824
3.068020105361939 0.096541300415993 -11.352999687194824
3.063019990921021 0.629540026187897 -11.381999969482422
3.267019987106323 0.418540000915527 -11.406000137329102
2.922019958496094 0.663541018962860 -11.423000335693359
3.090019941329956 0.457540988922119 -11.440999984741211
3.012020111083984 0.282539993524551 -11.449000358581543
2.953020095825195 0.137539997696877 -11.442999839782715
2.808020114898682 0.128540992736816 -11.482000350952148
2.833019971847534 0.540542006492615 -11.513999938964844
2.981019973754883 0.529540002346039 -11.524999618530273
2.912019968032837 0.240539997816086 -11.557000160217285
3.037019968032837 0.357540994882584 -11.574999809265137
2.875020027160645 0.416541010141373 -11.609000205993652
2.692019939422607 0.085541598498821 -11.592000007629395
2.711019992828369 0.575541019439697 -11.614000320434570
2.768019914627075 0.229541003704071 -11.628000259399414
2.869019985198975 0.307539999485016 -11.715999603271484
2.803020000457764 0.473540008068085 -11.725999832153320
2.709019899368286 0.140540003776550 -11.732999801635742
2.630019903182983 0.611540973186493 -11.750000000000000
2.728019952774048 0.297542005777359 -11.763999938964844
2.677020072937012 0.444541007280350 -11.805000305175781
2.662019968032837 0.043539900332689 -11.838999748229980
2.682019948959351 0.198541000485420 -11.868000030517578
2.769020080566406 0.333541005849838 -11.925999641418457
2.638020038604736 0.147540003061295 -12.001000404357910
