ply
format ascii 1.0
element vertex 548
property double x
property double y
property double z
end_header
-1.288980007171631 2.313539981842041 -5.835040092468262
-1.311980009078980 2.456540107727051 -5.770030021667481
-1.554980039596558 2.759540081024170 -5.776040077209473
-1.257979989051819 3.323539972305298 -5.832029819488525
-1.105980038642883 3.440540075302124 -5.846030235290527
-0.988981008529663 3.341540098190308 -5.865029811859131
-1.342980027198792 2.731539964675903 -5.833030223846436
-1.644979953765869 2.928539991378784 -5.836030006408691
-0.954980015754700 3.180540084838867 -5.873040199279785
-1.255980014801025 2.595540046691895 -5.843029975891113
-1.071979999542236 2.334539890289307 -5.844029903411865
-1.288980007171631 2.313539981842041 -5.835040092468262
-1.547979950904846 2.616539955139160 -5.839029788970947
-1.181980013847351 3.184540033340454 -5.872029781341553
-1.139979958534241 2.472539901733398 -5.856040000915527
-1.438979983329773 2.849539995193481 -5.857029914855957
-1.438979983329773 3.480540037155151 -5.878029823303223
-1.418980002403259 2.517539978027344 -5.856040000915527
-1.776980042457581 2.854540109634399 -5.854030132293701
-1.674980044364929 2.746540069580078 -5.867030143737793
-1.788980007171631 3.005539894104004 -5.875030040740967
-1.391980051994324 3.318540096282959 -5.903029918670654
-1.203979969024658 2.192539930343628 -5.876039981842041
-0.974981009960175 3.026540040969849 -5.921040058135986
-0.987981021404266 2.198539972305298 -5.903029918670654
-1.344980001449585 3.123539924621582 -5.920030117034912
-1.519979953765869 2.971539974212647 -5.910029888153076
-1.966979980468750 3.215539932250977 -5.904039859771729
-1.228979945182800 3.426539897918701 -5.940030097961426
-1.602980017662048 3.700540065765381 -5.940030097961426
-1.134979963302612 3.021539926528931 -5.938029766082764
-1.120980024337769 3.302540063858032 -5.948029994964600
-1.932979941368103 2.938539981842041 -5.905029773712158
-1.310979962348938 2.874540090560913 -5.934030055999756
-1.334980010986328 3.566540002822876 -5.959030151367188
-2.042979955673218 3.039540052413940 -5.920030117034912
-1.313979983329773 2.445539951324463 -5.935039997100830
-1.570979952812195 3.556540012359619 -5.962029933929443
-1.141980051994324 2.690540075302124 -5.951029777526856
-1.681980013847351 3.877540111541748 -5.971030235290527
-1.535979986190796 3.366539955139160 -5.963039875030518
-1.509979963302612 3.144540071487427 -5.958030223846436
-1.031980037689209 2.503540039062500 -5.963039875030518
-1.473979949951172 2.695539951324463 -5.955029964447022
-1.351979970932007 2.610539913177490 -5.962029933929443
-0.874981999397278 3.142539978027344 -6.000030040740967
-2.296979904174805 3.523540019989014 -5.959030151367188
-1.058979988098145 3.153539896011353 -5.996029853820801
-0.904981017112732 2.402539968490601 -5.980040073394775
-1.731979966163635 3.640539884567261 -5.992030143737793
-1.225980043411255 2.323539972305298 -5.970039844512940
-1.279979944229126 3.291539907455444 -6.001039981842041
-2.161979913711548 3.448539972305298 -5.974040031433106
-1.606979966163635 2.831540107727051 -5.976029872894287
-2.445980072021484 3.552540063858032 -5.967040061950684
-1.048979997634888 2.079540014266968 -5.977039813995361
-1.689980030059815 3.246540069580078 -5.990029811859131
-1.460980057716370 3.650540113449097 -6.014029979705811
-1.965980052947998 3.461539983749390 -5.990029811859131
-0.740980029106140 3.031539916992188 -6.026040077209473
-1.711979985237122 3.470540046691895 -6.002039909362793
-1.215980052947998 3.148540019989014 -6.012040138244629
-1.824980020523071 3.777539968490601 -6.009039878845215
-0.913980007171631 2.828540086746216 -6.017029762268066
-0.879984021186829 2.240540027618408 -6.000030040740967
-1.831979990005493 3.345540046691895 -6.005040168762207
-1.872979998588562 3.586539983749390 -6.012040138244629
-1.284980058670044 2.734539985656738 -6.013030052185059
-1.452980041503906 3.487540006637573 -6.032040119171143
-1.866979956626892 3.042540073394775 -6.005040168762207
-1.717980027198792 2.981539964675903 -6.009039878845215
-2.070980072021484 3.332540035247803 -6.008039951324463
-1.253980040550232 2.978539943695068 -6.031030178070068
-1.446979999542236 2.864540100097656 -6.020030021667481
-1.215980052947998 2.577539920806885 -6.021029949188232
-1.398980021476746 3.010540008544922 -6.029039859771729
-2.058979988098145 3.595540046691895 -6.023029804229736
-2.400979995727539 3.414540052413940 -6.004030227661133
-1.420979976654053 3.254539966583252 -6.038030147552490
-1.963979959487915 3.721539974212647 -6.032040119171143
-0.920979976654053 2.633539915084839 -6.039040088653565
-1.033980011940002 2.958539962768555 -6.046040058135986
-1.154979944229126 2.845540046691895 -6.040040016174316
-0.884980976581573 3.001539945602417 -6.058030128479004
-2.313980102539063 3.294539928436279 -6.012040138244629
-2.186980009078980 3.208539962768555 -6.018030166625977
-2.580980062484741 3.611540079116821 -6.016039848327637
-1.572980046272278 3.031539916992188 -6.047039985656738
-1.160979986190796 2.434540033340454 -6.044030189514160
-1.804980039596558 3.915539979934692 -6.072030067443848
-2.014980077743530 3.164540052413940 -6.042029857635498
-0.062982201576233 2.438539981842041 -6.097030162811279
-1.112980008125305 2.227540016174316 -6.049029827117920
-1.039980053901672 2.731539964675903 -6.071040153503418
-2.198980093002319 3.653539896011353 -6.057040214538574
-0.516981005668640 2.784539937973023 -6.100029945373535
-1.565979957580566 3.228539943695068 -6.075039863586426
-1.786980032920837 3.157540082931519 -6.066030025482178
-0.340981990098953 2.788539886474609 -6.111030101776123
-0.793981015682220 2.373539924621582 -6.083030223846436
-2.371979951858521 3.660540103912354 -6.066030025482178
-1.619979977607727 3.378540039062500 -6.090030193328857
-2.114979982376099 3.781539916992188 -6.086030006408691
-0.758980989456177 2.181540012359619 -6.088039875030518
-1.071979999542236 2.573539972305298 -6.091030120849609
-0.647980988025665 2.923540115356445 -6.120039939880371
-1.651980042457581 3.573539972305298 -6.107029914855957
-0.783982992172241 2.852540016174316 -6.118030071258545
-0.347981989383698 2.574539899826050 -6.132030010223389
-0.687982022762299 2.620539903640747 -6.124030113220215
-0.214983001351357 2.477540016174316 -6.142029762268066
-1.689980030059815 3.759540081024170 -6.130040168762207
0.054018400609493 2.341540098190308 -6.155029773712158
-1.918980002403259 3.268539905548096 -6.108029842376709
-2.711980104446411 3.607539892196655 -6.089029788970947
-0.858980000019073 2.051539897918701 -6.116040229797363
-2.215980052947998 3.370539903640747 -6.114029884338379
-0.131981998682022 2.603539943695068 -6.174029827117920
-0.491982996463776 2.525540113449097 -6.161039829254150
-1.023980021476746 2.366539955139160 -6.135029792785645
-0.657983005046844 2.773540019989014 -6.164040088653565
-2.261980056762695 3.771539926528931 -6.134039878845215
-1.807979941368103 3.407540082931519 -6.141039848327637
-2.529979944229126 3.730540037155151 -6.124030113220215
-0.828980982303619 2.664540052413940 -6.158040046691895
-0.134981006383896 2.328540086746216 -6.176030158996582
-0.254983991384506 2.686539888381958 -6.183030128479004
-2.498980045318604 3.539540052413940 -6.123040199279785
-1.957980036735535 3.893539905548096 -6.156030178070068
-0.943983018398285 2.503540039062500 -6.155029773712158
-1.006979942321777 2.074539899826050 -6.143030166625977
-2.338979959487915 3.470540046691895 -6.137040138244629
-2.025979995727539 3.373539924621582 -6.148029804229736
-0.646982014179230 2.260540008544922 -6.167029857635498
-0.659982025623322 2.416539907455444 -6.179039955139160
-2.405980110168457 3.806540012359619 -6.159029960632324
-1.809980034828186 3.656539916992188 -6.180029869079590
-0.426981002092361 2.713540077209473 -6.209030151367188
-1.908980011940002 3.516540050506592 -6.187029838562012
-0.383980989456177 2.421540021896362 -6.212029933929443
-2.680979967117310 3.749540090560913 -6.165040016174316
-2.825979948043823 3.700540065765381 -6.166029930114746
-0.568983018398285 2.664540052413940 -6.225029945373535
-2.119980096817017 3.497539997100830 -6.192039966583252
-1.863980054855347 3.998539924621582 -6.221030235290527
-2.145979881286621 3.866539955139160 -6.211030006408691
-0.931981980800629 2.228539943695068 -6.208030223846436
-0.871980011463165 2.374540090560913 -6.217040061950684
-0.768983006477356 2.509540081024170 -6.226029872894287
-0.082982599735260 2.210540056228638 -6.250030040740967
-0.531979978084564 2.166539907455444 -6.235030174255371
-0.482980012893677 2.308540105819702 -6.242030143737793
-2.252979993820190 3.564539909362793 -6.216030120849609
-2.006979942321777 3.627540111541748 -6.230040073394775
-1.922979950904846 3.770539999008179 -6.239029884338379
-0.755982995033264 1.982540011405945 -6.230040073394775
-0.269982993602753 2.311539888381958 -6.262040138244629
-2.414979934692383 3.609539985656738 -6.228030204772949
-0.605980992317200 2.022540092468262 -6.249030113220215
-0.413980007171631 2.572540044784546 -6.286039829254150
-0.588982999324799 2.510540008544922 -6.284029960632324
-0.068982698023319 2.431540012359619 -6.302030086517334
0.224016994237900 2.306540012359619 -6.311039924621582
0.091017201542854 2.390539884567261 -6.310039997100830
-2.035979986190796 4.074540138244629 -6.282040119171143
-2.171979904174805 4.004539966583252 -6.275030136108398
-2.610980033874512 3.858540058135986 -6.256030082702637
-2.141979932785034 3.680540084838867 -6.269040107727051
-0.919981002807617 2.049540042877197 -6.265039920806885
-2.309979915618897 3.716540098190308 -6.274030208587647
-2.577980041503906 3.698539972305298 -6.265039920806885
-0.274980008602142 2.490540027618408 -6.318039894104004
-2.465980052947998 3.913539886474609 -6.284029960632324
-2.313980102539063 3.932539939880371 -6.292029857635498
-0.720983028411865 2.345540046691895 -6.305029869079590
-2.037980079650879 3.909539937973023 -6.307040214538574
-2.775979995727539 3.794539928436279 -6.282040119171143
-0.374981999397278 2.200540065765381 -6.330029964447022
-0.225979998707771 2.185539960861206 -6.342040061950684
-0.802980005741119 2.198539972305298 -6.320030212402344
-0.489980012178421 1.972540020942688 -6.329030036926270
0.135020002722740 2.185539960861206 -6.361030101776123
-0.004983500111848 2.133539915084839 -6.364029884338379
-2.903980016708374 3.876539945602417 -6.307040214538574
-0.348980993032455 2.047539949417114 -6.349040031433106
-0.447979986667633 2.417540073394775 -6.363039970397949
-2.213979959487915 3.827539920806885 -6.340030193328857
-2.445980072021484 3.761539936065674 -6.332029819488525
-0.625981986522675 1.907539963722229 -6.347030162811279
-3.030980110168457 3.980540037155151 -6.328040122985840
-2.804980039596558 3.986540079116821 -6.338039875030518
-0.845983028411865 1.952540040016174 -6.358029842376709
-0.581982970237732 2.341540098190308 -6.382030010223389
-0.011983499862254 2.323539972305298 -6.405029773712158
-0.158983007073402 2.372539997100830 -6.406030178070068
-2.402980089187622 4.079539775848389 -6.378029823303223
-0.313982009887695 2.371540069580078 -6.409029960632324
-2.327980041503906 4.240540027618408 -6.401040077209473
-0.679983019828796 2.225539922714233 -6.401040077209473
-2.656980037689209 3.813539981842041 -6.393030166625977
-0.756982028484344 2.067539930343628 -6.414040088653565
-2.656980037689209 4.004539966583252 -6.402029991149902
-0.410982012748718 1.892539978027344 -6.428040027618408
-0.122979998588562 2.047539949417114 -6.457029819488525
-2.264980077743530 4.082540035247803 -6.439040184020996
-0.242982000112534 1.951539993286133 -6.451029777526856
0.237017005681992 2.245539903640747 -6.487040042877197
-2.388979911804199 3.951539993286133 -6.452030181884766
-2.526979923248291 3.880539894104004 -6.446040153503418
-0.756982028484344 1.869539976119995 -6.452030181884766
0.041017901152372 2.012540102005005 -6.488039970397949
-0.501981019973755 2.229540109634399 -6.474040031433106
-2.545979976654053 4.125539779663086 -6.458030223846436
0.483018994331360 2.190540075302124 -6.517029762268066
0.199018999934196 2.043540000915527 -6.502039909362793
-3.143980026245117 4.131539821624756 -6.439040184020996
-2.799979925155640 3.849539995193481 -6.444029808044434
-0.197980001568794 2.261539936065674 -6.500030040740967
-0.349981009960175 2.246540069580078 -6.500030040740967
-2.931979894638062 3.918540000915527 -6.459030151367188
-2.960979938507080 4.104539871215820 -6.473040103912354
-3.071979999542236 4.003540039062500 -6.470039844512940
0.690020024776459 1.872539997100830 -6.551030158996582
-0.615980029106140 2.128540039062500 -6.508039951324463
0.111018002033234 2.200540065765381 -6.552030086517334
-0.138981997966766 1.864539980888367 -6.533040046691895
-2.462980031967163 4.237539768218994 -6.521029949188232
0.469018995761871 2.015539884567261 -6.565030097961426
0.336019992828369 2.164540052413940 -6.567039966583252
-0.048982199281454 2.202539920806885 -6.558030128479004
-2.805979967117310 4.105539798736572 -6.512040138244629
-0.513981997966766 1.837540030479431 -6.529039859771729
-2.389980077743530 4.106540203094482 -6.534029960632324
-0.686982989311218 1.979539990425110 -6.537030220031738
-2.663980007171631 3.927540063858032 -6.532040119171143
-2.512979984283447 4.001540184020996 -6.542029857635498
-0.335981011390686 1.826539993286133 -6.558030128479004
0.272017002105713 1.943539977073669 -6.592040061950684
-0.003980299923569 1.899539947509766 -6.590030193328857
-2.661979913711548 4.172540187835693 -6.563029766082764
-0.218979999423027 2.140539884567261 -6.598040103912354
0.604017972946167 2.002540111541748 -6.632030010223389
-0.664982974529266 1.832540035247803 -6.582029819488525
0.566018998622894 1.820539951324463 -6.636030197143555
-0.474981009960175 2.073539972305298 -6.609039783477783
0.147017002105713 1.862540006637573 -6.629030227661133
-2.813980102539063 3.952539920806885 -6.582029819488525
0.166017994284630 2.080539941787720 -6.652029991149902
0.380019009113312 1.855540037155151 -6.664040088653565
-2.999979972839356 3.989540100097656 -6.601029872894287
0.365018993616104 2.042540073394775 -6.672039985656738
-3.041980028152466 4.150539875030518 -6.609039783477783
-2.529979944229126 4.147540092468262 -6.630040168762207
0.772017002105713 1.712540030479431 -6.682040214538574
-0.324983000755310 2.041539907455444 -6.661039829254150
-0.195981994271278 1.778540015220642 -6.663030147552490
0.716017007827759 1.854539990425110 -6.706039905548096
-0.594980001449585 1.968539953231812 -6.663030147552490
-3.193979978561401 4.129539966583252 -6.631030082702637
-0.050981100648642 1.736539959907532 -6.686039924621582
-0.012982900254428 2.019540071487427 -6.697030067443848
0.244017004966736 1.776540040969849 -6.707029819488525
-2.767980098724365 4.189539909362793 -6.671040058135986
0.505019009113312 1.919540047645569 -6.730040073394775
-0.164983004331589 1.993540048599243 -6.707029819488525
-0.550980985164642 1.824540019035339 -6.691030025482178
0.893019020557404 1.764539957046509 -6.752039909362793
0.447019994258881 1.736539959907532 -6.734039783477783
-0.402981996536255 1.780539989471436 -6.704030036926270
-0.452982008457184 1.934540033340454 -6.715030193328857
0.627020001411438 1.667539954185486 -6.759039878845215
-2.913980007171631 4.165540218353272 -6.706039905548096
0.238016992807388 1.927539944648743 -6.759039878845215
0.080019399523735 1.652539968490601 -6.749030113220215
-2.738980054855347 4.040540218353272 -6.717040061950684
-0.300980985164642 1.921540021896362 -6.747029781341553
-2.885979890823364 3.999540090560913 -6.716030120849609
0.086019903421402 1.909540057182312 -6.783040046691895
-3.251980066299439 4.216539859771729 -6.737040042877197
0.590017974376678 1.804540038108826 -6.813029766082764
-0.049981698393822 1.841539978981018 -6.812029838562012
0.758017003536224 1.611539959907532 -6.847030162811279
0.277018010616302 1.549540042877197 -6.835040092468262
0.129019007086754 1.500540018081665 -6.831039905548096
-0.281980007886887 1.775539994239807 -6.825039863586426
0.797017991542816 1.756539940834045 -6.868030071258545
-0.063981600105762 1.570539951324463 -6.837029933929443
0.525018990039825 1.592540025711060 -6.862040042877197
0.184018999338150 1.786540031433106 -6.859039783477783
-0.421983003616333 1.709540009498596 -6.833030223846436
0.342016994953156 1.781540036201477 -6.869040012359619
-0.148981004953384 1.712540030479431 -6.857029914855957
-3.173979997634888 4.104539871215820 -6.816030025482178
-3.019979953765869 4.218540191650391 -6.830029964447022
0.044020101428032 1.725540041923523 -6.877039909362793
-2.876980066299439 4.089540004730225 -6.844029903411865
-0.182980999350548 1.467540025711060 -6.869040012359619
-3.338979959487915 4.142539978027344 -6.833030223846436
-3.030980110168457 4.069540023803711 -6.843029975891113
-2.762979984283447 4.203539848327637 -6.859039783477783
-0.293980985879898 1.623540043830872 -6.873040199279785
0.641019999980927 1.517539978027344 -6.927030086517334
0.625018000602722 1.686540007591248 -6.938029766082764
0.438017010688782 1.691540002822876 -6.943039894104004
0.272017002105713 1.661540031433106 -6.936039924621582
-0.010980200022459 1.209540009498596 -6.918039798736572
-0.092981003224850 1.333539962768555 -6.919030189514160
0.415017992258072 1.405539989471436 -6.947030067443848
0.243018001317978 1.358540058135986 -6.939040184020996
-0.012982900254428 1.457540035247803 -6.936039924621582
-3.251980066299439 4.238540172576904 -6.909029960632324
0.110018000006676 1.118540048599243 -6.944029808044434
-2.900979995727539 4.219540119171143 -6.928040027618408
0.176019996404648 1.526540040969849 -6.971030235290527
0.870015978813171 1.718539953231812 -7.011030197143555
-3.429980039596558 4.230539798736572 -6.934030055999756
0.096018202602863 1.358540058135986 -6.980040073394775
0.314016997814178 1.160539984703064 -6.986030101776123
-3.111979961395264 4.169539928436279 -6.961030006408691
0.210016995668411 1.005540013313294 -6.992030143737793
0.738017022609711 1.472540020942688 -7.030029773712158
0.864019989967346 1.563539981842041 -7.040040016174316
0.397017002105713 0.916540980339050 -7.005040168762207
0.548017978668213 1.432540059089661 -7.028029918670654
0.313017010688782 1.490540027618408 -7.024030208587647
0.476018995046616 1.273540019989014 -7.024030208587647
0.726019024848938 1.641540050506592 -7.049029827117920
0.185019001364708 1.241539955139160 -7.024030208587647
0.460016995668411 1.555539965629578 -7.045030117034912
0.462018996477127 1.108540058135986 -7.050039768218994
-3.071979999542236 4.297540187835693 -7.033040046691895
0.313017010688782 1.342540025711060 -7.075039863586426
0.603017985820770 1.241539955139160 -7.094029903411865
0.333018004894257 1.027539968490601 -7.081039905548096
0.689016997814178 0.725540995597839 -7.092040061950684
0.973016977310181 1.719539999961853 -7.139029979705811
-3.338979959487915 4.161540031433106 -7.050039768218994
0.607020020484924 1.031540036201477 -7.113039970397949
0.613017022609711 1.560539960861206 -7.133039951324463
0.941018998622894 1.502539992332459 -7.154039859771729
0.369017004966736 1.204540014266968 -7.123040199279785
0.694018006324768 1.350540041923523 -7.141039848327637
-3.208980083465576 4.249539852142334 -7.083030223846436
-3.486979961395264 4.176539897918701 -7.074039936065674
0.573019027709961 0.813539981842041 -7.130040168762207
0.469018995761871 0.942539989948273 -7.139029979705811
0.735018014907837 0.930540978908539 -7.153029918670654
0.845018982887268 1.625540018081665 -7.185039997100830
0.463019013404846 1.317540049552918 -7.166029930114746
0.906019985675812 0.816541016101837 -7.179039955139160
0.839017987251282 1.370540022850037 -7.195030212402344
0.573019027709961 1.412539958953857 -7.204030036926270
0.761018991470337 1.235540032386780 -7.219029903411865
0.493018001317978 1.088539958000183 -7.204030036926270
0.720018982887268 1.519539952278137 -7.234039783477783
0.779016971588135 1.086539983749390 -7.232029914855957
0.862016975879669 0.962540984153748 -7.232029914855957
0.590017974376678 0.927541017532349 -7.224040031433106
0.810019016265869 0.696539998054504 -7.227039813995361
-3.433979988098145 4.247539997100830 -7.194029808044434
-3.580980062484741 4.214540004730225 -7.190030097961426
1.025020003318787 1.469539999961853 -7.284029960632324
0.690020024776459 0.807539999485016 -7.251039981842041
0.970018982887268 1.330539941787720 -7.289040088653565
0.984018981456757 1.641540050506592 -7.301030158996582
0.923017978668213 0.609539985656738 -7.276040077209473
0.996020019054413 0.838540017604828 -7.298029899597168
0.628019988536835 1.114539980888367 -7.297039985656738
0.689016997814178 1.334540009498596 -7.311039924621582
0.874018013477325 1.513540029525757 -7.327030181884766
0.698019027709961 0.944540977478027 -7.334030151367188
0.908017992973328 1.095540046691895 -7.354030132293701
0.749018013477325 1.211539983749390 -7.378029823303223
-3.687979936599731 4.222539901733398 -7.308030128479004
0.780019998550415 0.827539980411530 -7.379030227661133
1.011019945144653 0.665542006492615 -7.384039878845215
0.831018984317780 1.336539983749390 -7.400030136108398
1.036020040512085 1.258540034294128 -7.407040119171143
1.122020006179810 1.406540036201477 -7.422039985656738
-3.547980070114136 4.169539928436279 -7.329030036926270
1.014019966125488 0.981541991233826 -7.408040046691895
0.856016993522644 0.679540991783142 -7.394040107727051
1.052019953727722 1.559540033340454 -7.436039924621582
0.778016984462738 1.042539954185486 -7.416029930114746
0.948019027709961 0.521540999412537 -7.408040046691895
0.952017009258270 1.432540059089661 -7.441030025482178
1.042019963264465 0.804540991783142 -7.448029994964600
1.053020000457764 1.094539999961853 -7.502039909362793
1.304020047187805 1.497539997100830 -7.527029991149902
0.924017012119293 1.228539943695068 -7.505040168762207
0.857020020484924 0.898540973663330 -7.492030143737793
1.166020035743713 1.205539941787720 -7.518030166625977
-3.785979986190796 4.197539806365967 -7.432040214538574
1.043020009994507 1.363540053367615 -7.542029857635498
0.898020029067993 1.038540005683899 -7.536039829254150
0.892019987106323 0.748539984226227 -7.529039859771729
1.072020053863525 0.613541007041931 -7.534029960632324
1.080019950866699 0.943540990352631 -7.545030117034912
1.162019968032837 1.454540014266968 -7.566030025482178
0.921019017696381 0.597540974617004 -7.538030147552490
1.340019941329956 1.276540040969849 -7.580029964447022
1.489019989967346 1.343539953231812 -7.613039970397949
0.987016975879669 0.470539987087250 -7.594029903411865
1.118020057678223 0.810540020465851 -7.637040138244629
1.365020036697388 1.416540026664734 -7.667029857635498
1.012019991874695 1.070539951324463 -7.644040107727051
1.220020055770874 1.346539974212647 -7.662030220031738
0.946017026901245 0.841539978981018 -7.637040138244629
1.087020039558411 1.225540041923523 -7.659029960632324
1.427019953727722 1.160539984703064 -7.675039768218994
1.572020053863525 1.212540030479431 -7.684030055999756
1.282019972801209 1.099539995193481 -7.673029899597168
1.139019966125488 0.661539971828461 -7.660029888153076
1.151020050048828 1.028540015220642 -7.702030181884766
1.086019992828369 0.516541004180908 -7.701029777526856
1.032019972801209 0.927541017532349 -7.744040012359619
1.622020006179810 1.103539943695068 -7.804039955139160
1.341019988059998 1.262539982795715 -7.801030158996582
1.314020037651062 0.989540994167328 -7.802030086517334
1.465019941329956 1.027539968490601 -7.811039924621582
1.260020017623901 0.836540997028351 -7.804039955139160
1.004019975662231 0.606541991233826 -7.794030189514160
1.031020045280457 0.766541004180908 -7.804039955139160
1.211019992828369 0.686541020870209 -7.809030055999756
1.216019988059998 1.114539980888367 -7.825039863586426
1.486019968986511 1.282539963722229 -7.844029903411865
1.632019996643066 1.243540048599243 -7.856040000915527
1.016020059585571 0.435539990663528 -7.810039997100830
1.146020054817200 0.955541014671326 -7.852039813995361
1.423020005226135 1.174540042877197 -7.934030055999756
1.551020026206970 1.007539987564087 -7.935039997100830
1.331019997596741 0.765540003776550 -7.919030189514160
1.411020040512085 0.927541017532349 -7.941030025482178
1.145020008087158 0.796540021896362 -7.928040027618408
1.098019957542419 0.580541014671326 -7.920030117034912
1.107020020484924 0.382541000843048 -7.932040214538574
1.336019992828369 1.054540038108826 -7.970039844512940
1.255020022392273 0.916540980339050 -7.966030120849609
1.715019941329956 1.159540057182312 -7.993030071258545
1.338019967079163 0.583540976047516 -7.993030071258545
1.248020052909851 0.330541014671326 -7.986030101776123
1.572020053863525 1.187540054321289 -8.031029701232910
1.432019948959351 0.418540000915527 -8.007029533386231
1.183019995689392 0.490539997816086 -8.005040168762207
1.425019979476929 0.724542021751404 -8.032039642333984
1.205019950866699 0.665542006492615 -8.028030395507813
1.657019972801209 1.041540026664734 -8.069029808044434
1.546020030975342 0.907540023326874 -8.082030296325684
1.453019976615906 1.068539977073669 -8.084030151367188
1.492020010948181 0.558540999889374 -8.075039863586426
1.384019970893860 0.277541011571884 -8.063030242919922
1.281020045280457 0.785539984703064 -8.091030120849609
1.370020031929016 0.929540991783142 -8.104029655456543
1.299020051956177 0.453539997339249 -8.094030380249023
1.736019968986511 1.118540048599243 -8.175040245056152
1.519019961357117 0.706539988517761 -8.161040306091309
1.593019962310791 0.439539998769760 -8.163029670715332
1.334020018577576 0.649541020393372 -8.166029930114746
1.470020055770874 0.322540998458862 -8.187029838562012
1.590019941329956 0.226539999246597 -8.190030097961426
1.590019941329956 0.585542023181915 -8.210040092468262
1.403020024299622 0.485540986061096 -8.204030036926270
1.611019968986511 0.833540976047516 -8.229029655456543
1.458019971847534 0.915542006492615 -8.229029655456543
1.565019965171814 1.028540015220642 -8.259039878845215
1.729019999504089 0.995540976524353 -8.265040397644043
1.406020045280457 0.752541005611420 -8.252039909362793
1.687019944190979 0.414539992809296 -8.289039611816406
1.672019958496094 1.119539976119995 -8.329030036926270
1.468019962310791 0.617541015148163 -8.310040473937988
1.509019970893860 0.456539988517761 -8.321040153503418
1.523020029067993 0.777540981769562 -8.342040061950684
1.677019953727722 0.595539987087250 -8.343029975891113
1.567020058631897 0.293540000915527 -8.331040382385254
1.673020005226135 0.765540003776550 -8.352040290832520
1.622020006179810 0.943540990352631 -8.384039878845215
1.776020050048828 0.893540024757385 -8.401040077209473
1.767019987106323 1.176540017127991 -8.430029869079590
1.689020037651062 0.333541005849838 -8.418040275573731
1.726019978523254 0.486541002988815 -8.434029579162598
1.563019990921021 0.527540981769562 -8.446040153503418
1.589020013809204 0.700541019439697 -8.457030296325684
1.737020015716553 0.660539984703064 -8.483030319213867
1.708019971847534 1.040539979934692 -8.503029823303223
1.821020007133484 0.795540988445282 -8.506030082702637
1.552019953727722 0.296539992094040 -8.488039970397949
1.680019974708557 0.890540003776550 -8.518030166625977
1.837020039558411 0.961540997028351 -8.537030220031738
1.768020033836365 0.431540012359619 -8.566029548645020
1.643020033836365 0.566541016101837 -8.571040153503418
1.812019944190979 1.094539999961853 -8.600029945373535
1.600020051002502 0.410540014505386 -8.575039863586426
1.683019995689392 0.740540027618408 -8.597029685974121
1.815019965171814 0.556540012359619 -8.636030197143555
1.731019973754883 0.287541002035141 -8.636030197143555
1.593019962310791 0.222541004419327 -8.632029533386231
1.875020027160645 0.696539998054504 -8.660030364990234
1.751019954681397 0.889540970325470 -8.662030220031738
1.944020032882690 1.020539999008179 -8.682040214538574
1.882019996643066 0.897539973258972 -8.773030281066895
1.926020026206970 0.587540984153748 -8.778030395507813
1.760020017623901 0.586540997028351 -8.773030281066895
1.808019995689392 0.741540014743805 -8.802029609680176
2.140019893646240 0.943540990352631 -8.825039863586426
1.859019994735718 0.405541002750397 -8.797039985656738
2.029020071029663 0.691541016101837 -8.823030471801758
1.628020048141480 0.254539996385574 -8.801030158996582
1.708019971847534 0.377541005611420 -8.828040122985840
2.010020017623901 0.873539984226227 -8.870039939880371
1.917019963264465 0.739540994167328 -8.917030334472656
2.004019975662231 0.552541017532349 -8.922039985656738
1.842020034790039 0.548541009426117 -8.916029930114746
2.144020080566406 0.692539989948273 -8.947030067443848
2.132019996643066 0.849542021751404 -8.979029655456543
1.802019953727722 0.399540990591049 -8.952030181884766
2.031019926071167 0.738541007041931 -9.033040046691895
1.767019987106323 0.145540997385979 -9.005040168762207
1.909019947052002 0.614540994167328 -9.038029670715332
1.920019984245300 0.450540989637375 -9.067040443420410
1.846019983291626 0.300540000200272 -9.069029808044434
2.155019998550415 0.614540994167328 -9.097029685974121
2.152019977569580 0.819540977478027 -9.127039909362793
2.087019920349121 0.474541991949081 -9.116040229797363
1.879019975662231 0.157539993524551 -9.111029624938965
2.047019958496094 0.682539999485016 -9.190030097961426
1.951020002365112 0.330541014671326 -9.189040184020996
1.959020018577576 0.559540987014771 -9.216030120849609
2.171020030975342 0.416541010141373 -9.229029655456543
2.016020059585571 0.156541004776955 -9.216030120849609
2.228019952774048 0.869539976119995 -9.250029563903809
2.228019952774048 0.285540014505386 -9.284029960632324
2.016020059585571 0.424540013074875 -9.309029579162598
2.133019924163818 0.133540004491806 -9.317040443420410
2.077019929885864 0.274540990591049 -9.326029777526856
2.051019906997681 0.575541019439697 -9.336030006408691
2.267019987106323 0.032540198415518 -9.328040122985840
2.285020112991333 0.833540976047516 -9.383040428161621
2.199019908905029 0.225540995597839 -9.419030189514160
2.369019985198975 0.719539999961853 -9.443039894104004
2.221019983291626 0.699540019035339 -9.438030242919922
2.091020107269287 0.434540987014771 -9.439040184020996
2.176019906997681 0.055540900677443 -9.444029808044434
2.165019989013672 0.562541007995605 -9.492030143737793
2.497020006179810 0.727540016174316 -9.524029731750488
2.118020057678223 -0.001460199942812 -9.569029808044434
2.225019931793213 0.097540698945522 -9.597029685974121
2.083019971847534 0.142541006207466 -9.593029975891113
2.150019884109497 0.318540990352631 -9.615030288696289
