ply
format ascii 1.0
element vertex 752
property double x
property double y
property double z
end_header
2.477020025253296 0.528540015220642 -7.403029918670654
2.544019937515259 0.534541010856628 -7.239029884338379
2.544019937515259 0.550539970397949 -7.635029792785645
2.638020038604736 0.548541009426117 -7.382030010223389
2.663019895553589 0.547541975975037 -7.539040088653565
2.683020114898682 0.603541016578674 -6.853030204772949
2.820019960403442 0.800539970397949 -6.817039966583252
2.855020046234131 0.616540014743805 -6.822030067443848
2.703020095825195 0.752541005611420 -6.907040119171143
2.758019924163818 0.868541002273560 -6.982029914855957
2.838020086288452 0.701541006565094 -7.014029979705811
2.652019977569580 0.614540994167328 -7.007030010223389
2.689019918441773 0.750540971755981 -7.058030128479004
2.831020116806030 0.935540020465851 -7.122029781341553
2.792020082473755 0.636539995670319 -7.141039848327637
2.803020000457764 0.783541977405548 -7.180029869079590
2.700020074844360 0.863541007041931 -7.255040168762207
2.745019912719727 0.547541975975037 -7.264029979705811
2.687020063400269 0.691541016101837 -7.295030117034912
2.609019994735718 0.912540972232819 -7.400030136108398
2.584019899368286 0.757541000843048 -7.398029804229736
2.483020067214966 0.851540029048920 -7.477039813995361
2.515019893646240 0.651542007923126 -7.477039813995361
2.403019905090332 0.737540006637573 -7.545030117034912
2.411020040512085 0.618541002273560 -7.641039848327637
7.090020179748535 0.647539973258972 -3.984030008316040
7.028019905090332 0.765540003776550 -3.901030063629150
6.891019821166992 0.708540976047516 -3.921030044555664
7.175020217895508 0.763540983200073 -3.946039915084839
6.719019889831543 0.638540983200073 -3.968029975891113
7.090020179748535 0.647539973258972 -3.984030008316040
6.853020191192627 0.583540976047516 -4.003029823303223
6.808020114898682 0.780541002750397 -4.027040004730225
7.069019794464111 0.808540999889374 -4.043039798736572
6.580019950866699 0.666540980339050 -4.021039962768555
7.359020233154297 0.736540973186493 -4.078040122985840
7.273019790649414 0.857541024684906 -4.090040206909180
6.991020202636719 0.559540987014771 -4.071040153503418
7.424019813537598 0.886539995670319 -4.102029800415039
7.518020153045654 0.744539976119995 -4.112040042877197
6.670020103454590 0.770541012287140 -4.081029891967773
6.932020187377930 0.777540981769562 -4.109029769897461
7.168019771575928 0.619539976119995 -4.116030216217041
6.503019809722900 0.779540002346039 -4.108029842376709
6.674019813537598 0.572540998458862 -4.116030216217041
7.655020236968994 0.764540970325470 -4.175039768218994
6.852019786834717 0.502541005611420 -4.153039932250977
6.497019767761231 0.566541016101837 -4.146039962768555
7.156020164489746 0.817539989948273 -4.186029911041260
7.303020000457764 0.617541015148163 -4.190030097961426
7.785019874572754 0.692539989948273 -4.223040103912354
7.630020141601563 0.604541003704071 -4.216040134429932
6.769020080566406 0.733539998531342 -4.188039779663086
7.517020225524902 0.881541013717651 -4.225029945373535
7.450019836425781 0.601540029048920 -4.214029788970947
7.336019992828369 0.847540974617004 -4.226029872894287
6.623020172119141 -0.321460008621216 -4.172029972076416
7.698019981384277 0.892540991306305 -4.255030155181885
7.067019939422607 0.481541991233826 -4.217040061950684
7.847020149230957 0.861540973186493 -4.267029762268066
7.226019859313965 0.483539998531342 -4.232029914855957
8.995019912719727 0.154540002346039 -4.294030189514160
7.931019783020020 0.642540991306305 -4.269030094146729
6.585020065307617 0.723540008068085 -4.223040103912354
6.996019840240479 0.750540971755981 -4.253029823303223
7.811019897460938 0.500540971755981 -4.283030033111572
9.120019912719727 0.076540797948837 -4.321040153503418
9.360019683837891 0.144541993737221 -4.333040237426758
9.192020416259766 0.206540003418922 -4.329030036926270
6.737020015716553 0.477539986371994 -4.245039939880371
6.438020229339600 0.699540019035339 -4.241030216217041
8.075019836425781 0.585542023181915 -4.304029941558838
6.731019973754883 -0.228459000587463 -4.225029945373535
8.737019538879395 0.312541007995605 -4.322030067443848
8.821020126342773 0.147540003061295 -4.320040225982666
7.371019840240479 0.468540996313095 -4.274030208587647
9.043020248413086 0.291541010141373 -4.336030006408691
7.989019870758057 0.836540997028351 -4.318029880523682
8.664019584655762 0.135541006922722 -4.323029994964600
7.962019920349121 0.482540994882584 -4.309030055999756
8.145019531250000 0.717541992664337 -4.325029850006104
6.472020149230957 -0.347458988428116 -4.226029872894287
6.389019966125488 0.533541977405548 -4.252039909362793
8.520019531250000 0.055540900677443 -4.321040153503418
8.447019577026367 0.292540013790131 -4.326039791107178
7.681019783020020 0.430541008710861 -4.302030086517334
8.588020324707031 0.372539997100830 -4.340040206909180
7.526020050048828 0.441540986299515 -4.301030158996582
8.895019531250000 0.317539989948273 -4.356040000915527
7.853020191192627 0.356541991233826 -4.317029953002930
8.401020050048828 0.146540999412537 -4.332029819488525
8.204019546508789 0.316540986299515 -4.332029819488525
6.976019859313965 0.384541004896164 -4.286039829254150
9.387020111083984 0.313540011644363 -4.381040096282959
8.338020324707031 0.411540001630783 -4.347040176391602
9.510020256042481 0.156541004776955 -4.386030197143555
8.024020195007324 0.321539998054504 -4.333040237426758
9.237019538879395 0.337541013956070 -4.384039878845215
8.911020278930664 0.026541600003839 -4.362040042877197
7.125020027160645 0.351539999246597 -4.303030014038086
8.198019981384277 0.157539993524551 -4.339029788970947
6.698019981384277 0.649541020393372 -4.296030044555664
6.857019901275635 0.669541001319885 -4.303030014038086
8.759019851684570 0.014540599659085 -4.357029914855957
6.596020221710205 0.493541002273560 -4.291039943695068
7.437019824981690 0.800539970397949 -4.336030006408691
8.308019638061523 0.566541016101837 -4.363039970397949
7.726019859313965 0.271540999412537 -4.332029819488525
8.179019927978516 0.481541991233826 -4.360030174255371
6.625020027160645 -0.126460000872612 -4.280029773712158
8.285019874572754 0.733539998531342 -4.373030185699463
7.593019962310791 0.839541018009186 -4.351029872894287
7.240019798278809 0.735540986061096 -4.336030006408691
7.564020156860352 0.245541006326675 -4.334040164947510
6.823019981384277 0.350540995597839 -4.309030055999756
7.416019916534424 0.302540987730026 -4.333040237426758
6.466020107269287 -0.183458998799324 -4.283030033111572
6.831019878387451 -0.309459000825882 -4.300039768218994
7.266019821166992 0.309540987014771 -4.339029788970947
7.906020164489746 0.211540997028351 -4.361040115356445
7.079020023345947 -0.049458600580692 -4.321040153503418
7.900020122528076 0.959540009498596 -4.386030197143555
7.336019992828369 0.157539993524551 -4.338029861450195
7.093019962310791 0.680540978908539 -4.348040103912354
8.473019599914551 0.492540985345840 -4.397039890289307
8.812020301818848 0.445540010929108 -4.409039974212647
8.120019912719727 0.886539995670319 -4.398029804229736
9.109020233154297 0.418540000915527 -4.422029972076416
7.223020076751709 0.036539901047945 -4.337029933929443
6.352019786834717 -0.282458007335663 -4.293039798736572
9.593020439147949 0.307539999485016 -4.444039821624756
7.474020004272461 0.105539999902248 -4.358029842376709
6.516019821166992 0.612540006637573 -4.338029861450195
6.592020034790039 -0.275458008050919 -4.313039779663086
9.708020210266113 0.209539994597435 -4.452040195465088
7.367020130157471 -0.012459900230169 -4.353030204772949
7.082019805908203 0.103541001677513 -4.346030235290527
8.054019927978516 0.132541000843048 -4.386030197143555
8.964019775390625 0.448540985584259 -4.432040214538574
7.302020072937012 -0.167458996176720 -4.347040176391602
7.070020198822022 -0.260459005832672 -4.335040092468262
7.023019790649414 0.246540993452072 -4.351029872894287
7.767020225524902 0.886539995670319 -4.403039932250977
9.250020027160645 0.110541000962257 -4.437039852142334
6.310019969940186 0.649541020393372 -4.340040206909180
6.938020229339600 -0.181458994746208 -4.339029788970947
7.662020206451416 0.142541006207466 -4.378029823303223
8.413020133972168 0.675539970397949 -4.428030014038086
6.259019851684570 0.506541013717651 -4.345029830932617
8.649020195007324 0.466540008783340 -4.438039779663086
6.441020011901856 0.395541012287140 -4.351029872894287
6.933020114898682 0.118541002273560 -4.363039970397949
8.320019721984863 0.052540700882673 -4.418039798736572
6.350019931793213 -0.104459002614021 -4.336030006408691
7.222020149230957 -0.309459000825882 -4.365029811859131
6.672019958496094 0.323540985584259 -4.369040012359619
7.803020000457764 0.097540698945522 -4.413030147552490
9.813019752502441 0.307539999485016 -4.499030113220215
6.813020229339600 0.547541975975037 -4.389039993286133
9.414019584655762 0.088540002703667 -4.477029800415039
6.963019847869873 0.575541019439697 -4.397039890289307
7.381020069122315 0.672541975975037 -4.417039871215820
6.842020034790039 -0.048459198325872 -4.377039909362793
8.632019996643066 0.049540400505066 -4.452040195465088
8.986020088195801 0.116539999842644 -4.470029830932617
7.606019973754883 0.006541099864990 -4.413030147552490
7.525020122528076 0.712540984153748 -4.437039852142334
6.546020030975342 0.014540599659085 -4.377039909362793
8.465020179748535 0.028540499508381 -4.457029819488525
9.350020408630371 0.427540987730026 -4.505030155181885
7.950019836425781 0.025540199130774 -4.438039779663086
6.234020233154297 -0.227459996938705 -4.366030216217041
9.219019889831543 0.502541005611420 -4.510029792785645
6.403019905090332 0.539539992809296 -4.402040004730225
6.685019969940186 0.467541992664337 -4.412030220031738
8.547019958496094 0.633539974689484 -4.492030143737793
7.159019947052002 -0.159458994865417 -4.413030147552490
7.126019954681397 0.559540987014771 -4.435029983520508
8.839019775390625 0.091540202498436 -4.489029884338379
7.361020088195801 -0.308459013700485 -4.419030189514160
8.348019599914551 0.832540988922119 -4.495039939880371
9.498020172119141 0.413540989160538 -4.527040004730225
8.173020362854004 0.052540700882673 -4.466040134429932
7.275020122528076 0.572540998458862 -4.450029850006104
9.684020042419434 0.385540992021561 -4.540030002593994
6.125020027160645 0.601540029048920 -4.408030033111572
6.671020030975342 0.129539996385574 -4.416039943695068
9.583020210266113 0.144541993737221 -4.531030178070068
7.692019939422607 0.757541000843048 -4.479040145874023
8.697019577026367 0.597540974617004 -4.515039920806885
9.125020027160645 0.150539994239807 -4.519030094146729
6.276020050048828 0.023541299626231 -4.404039859771729
6.292019844055176 -0.376459985971451 -4.396039962768555
6.993020057678223 -0.008460200391710 -4.436029911041260
6.272019863128662 0.237540006637573 -4.419030189514160
6.212019920349121 0.725540995597839 -4.433030128479004
8.505020141601563 0.796540021896362 -4.526030063629150
6.155020236968994 0.338539987802505 -4.419030189514160
7.566020011901856 -0.133460000157356 -4.460040092468262
8.207019805908203 0.901542007923126 -4.519030094146729
8.007019996643066 0.941541016101837 -4.515039920806885
8.915019989013672 0.548541009426117 -4.541039943695068
9.948019981384277 0.332540988922119 -4.575029850006104
6.697020053863525 -0.016459599137306 -4.437039852142334
7.708020210266113 -0.084458500146866 -4.475029945373535
9.073019981384277 0.552541017532349 -4.551030158996582
7.518020153045654 -0.284458994865417 -4.463029861450195
7.885019779205322 0.837540984153748 -4.515039920806885
6.407020092010498 -0.237460002303123 -4.427030086517334
7.146019935607910 0.008539999835193 -4.467040061950684
6.877019882202148 0.414539992809296 -4.471030235290527
7.287020206451416 -0.071459896862507 -4.472040176391602
6.411019802093506 0.089541301131248 -4.444039821624756
7.028019905090332 0.447540998458862 -4.480040073394775
7.478020191192627 0.577539980411530 -4.503029823303223
8.536020278930664 0.137539997696877 -4.532030105590820
7.175020217895508 0.419541001319885 -4.489029884338379
6.933020114898682 0.274540990591049 -4.478030204772949
6.551020145416260 0.366540014743805 -4.467040061950684
6.053020000457764 0.457540988922119 -4.451039791107178
7.418019771575928 -0.152458995580673 -4.485030174255371
6.809020042419434 0.107541002333164 -4.470029830932617
6.167019844055176 -0.079459302127361 -4.439040184020996
7.086019992828369 0.287541002035141 -4.487040042877197
8.702019691467285 0.147540003061295 -4.546030044555664
6.773019790649414 0.307539999485016 -4.477029800415039
7.026020050048828 0.151541993021965 -4.483029842376709
6.494019985198975 -0.104459002614021 -4.455029964447022
6.154019832611084 0.147540003061295 -4.450029850006104
7.373020172119141 0.438540011644363 -4.508039951324463
8.643019676208496 0.759540975093842 -4.570040225982666
9.309020042419434 0.145540997385979 -4.577040195465088
7.280020236968994 0.315540999174118 -4.508039951324463
7.627019882202148 0.619539976119995 -4.533030033111572
6.148019790649414 -0.340458989143372 -4.444039821624756
6.321020126342773 0.376540005207062 -4.474040031433106
6.432020187377930 0.265540003776550 -4.475029945373535
8.381019592285156 0.123539999127388 -4.549039840698242
7.198019981384277 0.154540002346039 -4.511030197143555
6.202020168304443 0.486541002988815 -4.484029769897461
7.831019878387451 0.704541027545929 -4.558030128479004
9.814020156860352 0.393539994955063 -4.630030155181885
7.338019847869873 0.082541398704052 -4.523029804229736
6.009019851684570 0.305541008710861 -4.478030204772949
7.475019931793213 -0.019459800794721 -4.527040004730225
9.426019668579102 0.517540991306305 -4.622029781341553
7.426020145416260 0.281540989875793 -4.537030220031738
7.835020065307617 -0.017458999529481 -4.544030189514160
8.994020462036133 0.663541018962860 -4.613039970397949
7.522019863128662 0.437541007995605 -4.548039913177490
8.231019973754883 0.144541993737221 -4.567029953002930
5.999020099639893 0.602540016174316 -4.495039939880371
8.806019783020020 0.645541012287140 -4.607029914855957
6.078020095825195 -0.196459993720055 -4.477029800415039
8.060020446777344 0.090540796518326 -4.567029953002930
6.539020061492920 0.125541001558304 -4.512030124664307
9.464019775390625 0.147540003061295 -4.629030227661133
9.592020034790039 0.470539987087250 -4.645040035247803
7.575019836425781 0.277541011571884 -4.560029983520508
7.632019996643066 0.054541498422623 -4.556039810180664
9.144020080566406 0.660539984703064 -4.636030197143555
9.278019905090332 0.579541027545929 -4.642029762268066
7.490019798278809 0.136539995670319 -4.558030128479004
7.990019798278809 0.755540013313293 -4.601029872894287
8.995019912719727 0.201541006565094 -4.624030113220215
7.752019882202148 0.544541001319885 -4.587029933929443
5.916019916534424 0.425540000200272 -4.513040065765381
7.763020038604736 0.130539998412132 -4.578040122985840
6.080019950866699 0.735540986061096 -4.532030105590820
7.918019771575928 0.137539997696877 -4.587029933929443
8.100020408630371 0.863541007041931 -4.618040084838867
9.618020057678223 0.216539993882179 -4.657030105590820
7.680019855499268 0.396540999412537 -4.587029933929443
6.086019992828369 0.031540799885988 -4.517029762268066
6.262020111083984 -0.229459002614021 -4.516039848327637
7.817019939422607 0.285540014505386 -4.594029903411865
8.585020065307617 0.264541000127792 -4.625040054321289
7.944019794464111 0.612540006637573 -4.614029884338379
7.966020107269287 0.323540985584259 -4.607029914855957
6.357019901275635 -0.047459699213505 -4.532030105590820
5.988019943237305 0.153540000319481 -4.527040004730225
7.877019882202148 0.464540988206863 -4.612040042877197
8.804019927978516 0.224542006850243 -4.641039848327637
10.144000053405762 0.380540013313293 -4.699039936065674
10.034000396728516 0.258540004491806 -4.696040153503418
8.089019775390625 0.239540994167328 -4.620039939880371
8.300020217895508 0.264541000127792 -4.630030155181885
9.970020294189453 0.411540001630783 -4.705029964447022
8.030019760131836 0.457540988922119 -4.631040096282959
9.879019737243652 0.247539997100830 -4.699039936065674
8.412019729614258 0.841539978981018 -4.661039829254150
6.168019771575928 0.866540014743805 -4.575029850006104
8.263019561767578 0.866540014743805 -4.659039974212647
8.443019866943359 0.318540990352631 -4.655029773712158
6.343019962310791 0.152540996670723 -4.569039821624756
8.560020446777344 0.826541006565094 -4.679039955139160
8.089019775390625 0.619539976119995 -4.654039859771729
8.171019554138184 0.379539996385574 -4.650030136108398
5.971020221710205 -0.112460002303123 -4.553030014038086
8.184020042419434 0.735540986061096 -4.668039798736572
6.047019958496094 -0.370460003614426 -4.553030014038086
8.322019577026367 0.410540014505386 -4.670030117034912
8.878020286560059 0.740540027618408 -4.703040122985840
8.729020118713379 0.754540026187897 -4.701029777526856
5.875020027160645 0.556540012359619 -4.583040237426758
9.736020088195801 0.279540002346039 -4.726029872894287
9.382019996643066 0.649541020393372 -4.728030204772949
8.219019889831543 0.525539994239807 -4.681029796600342
9.707019805908203 0.488541007041931 -4.739029884338379
6.106019973754883 0.337541013956070 -4.594029903411865
9.036020278930664 0.769541978836060 -4.724040031433106
5.824019908905029 0.290542006492615 -4.585040092468262
6.238019943237305 0.044541198760271 -4.594029903411865
8.709019660949707 0.341540008783340 -4.701029777526856
9.121020317077637 0.224542006850243 -4.714029788970947
6.171020030975342 -0.129458993673325 -4.589029788970947
10.291999816894531 0.371540993452072 -4.771029949188232
9.548020362854004 0.567539989948273 -4.757030010223389
8.325019836425781 0.686541020870209 -4.714029788970947
6.249020099639893 0.260540992021561 -4.619040012359619
5.952020168304443 -0.255459994077683 -4.593029975891113
8.523019790649414 0.446539998054504 -4.718029975891113
9.244020462036133 0.715541005134583 -4.758039951324463
5.750020027160645 0.432539999485016 -4.612040042877197
8.897020339965820 0.303539991378784 -4.736030101776123
5.944019794464111 0.714541018009186 -4.634039878845215
8.372019767761231 0.539539992809296 -4.726029872894287
5.918019771575928 0.039540201425552 -4.614029884338379
6.004020214080811 0.478540986776352 -4.636030197143555
9.398019790649414 0.217541992664337 -4.763030052185059
9.537019729614258 0.282539993524551 -4.785029888153076
8.664019584655762 0.472541004419327 -4.757030010223389
6.120019912719727 0.122539997100830 -4.648029804229736
9.256019592285156 0.270541012287140 -4.776040077209473
8.469019889831543 0.713540017604828 -4.760029792785645
6.055019855499268 0.815541028976440 -4.672039985656738
5.851019859313965 -0.151460006833076 -4.634039878845215
5.685019969940186 0.287541002035141 -4.643030166625977
9.047019958496094 0.334540009498596 -4.786039829254150
6.048019886016846 -0.018458500504494 -4.657030105590820
8.808019638061523 0.421539992094040 -4.787030220031738
8.578020095825195 0.596540987491608 -4.785029888153076
5.955019950866699 0.318540990352631 -4.674029827117920
8.610019683837891 0.741540014743805 -4.799029827117920
5.817019939422607 0.139541000127792 -4.670030117034912
5.785019874572754 -0.020459299907088 -4.666039943695068
10.135000228881836 0.420540988445282 -4.852039813995361
10.092000007629395 0.250541001558304 -4.851029872894287
10.399999618530273 0.317539989948273 -4.869040012359619
9.719019889831543 0.588540017604828 -4.854030132293701
10.262000083923340 0.260540992021561 -4.869040012359619
9.879019737243652 0.487540006637573 -4.863039970397949
5.991020202636719 -0.409458994865417 -4.685039997100830
9.604020118713379 0.748539984226227 -4.865029811859131
5.809020042419434 0.632541000843048 -4.716030120849609
9.422019958496094 0.368541002273560 -4.857029914855957
5.988019943237305 0.121541000902653 -4.717040061950684
9.334019660949707 0.906540989875793 -4.874030113220215
9.241020202636719 0.412541002035141 -4.855040073394775
8.821020126342773 0.621541023254395 -4.851029872894287
8.762020111083984 0.789539992809296 -4.855040073394775
9.049019813537598 0.830541014671326 -4.868030071258545
9.210020065307617 0.812541007995605 -4.874030113220215
5.984020233154297 0.619539976119995 -4.742030143737793
9.947019577026367 0.292540013790131 -4.888030052185059
8.933019638061523 0.508539974689484 -4.857029914855957
9.082019805908203 0.459540009498596 -4.864029884338379
9.696020126342773 0.333541005849838 -4.887040138244629
5.566020011901856 0.238541007041931 -4.723040103912354
10.270000457763672 0.413540989160538 -4.918039798736572
9.486020088195801 0.900539994239807 -4.904039859771729
5.623020172119141 0.397540003061295 -4.737040042877197
9.563019752502441 0.399540990591049 -4.893030166625977
5.908020019531250 0.455541014671326 -4.754030227661133
5.675020217895508 0.100541003048420 -4.734039783477783
5.907020092010498 0.783541977405548 -4.768030166625977
5.710020065307617 0.525539994239807 -4.754030227661133
5.871019840240479 -0.323458999395370 -4.734039783477783
8.906020164489746 0.790542006492615 -4.894040107727051
5.754020214080811 -0.220459997653961 -4.738039970397949
8.974020004272461 0.655541002750397 -4.893030166625977
9.211020469665527 0.551540970802307 -4.906030178070068
9.356019973754883 0.513540983200073 -4.918039798736572
5.656020164489746 -0.101458996534348 -4.753029823303223
10.008000373840332 0.473540008068085 -4.946040153503418
9.125020027160645 0.679540991783142 -4.919030189514160
9.832019805908203 0.624540984630585 -4.946040153503418
9.300020217895508 0.693540990352631 -4.935039997100830
10.449000358581543 0.410540014505386 -4.975029945373535
5.857019901275635 0.304540991783142 -4.796040058135986
9.436019897460938 0.759540975093842 -4.958030223846436
5.553020000457764 0.005539800040424 -4.793039798736572
9.472020149230957 0.593541026115417 -4.970039844512940
9.826020240783691 0.354541003704071 -4.977039813995361
5.496019840240479 0.364540994167328 -4.811039924621582
10.343999862670898 0.252541005611420 -5.000030040740967
5.478020191192627 0.138540998101234 -4.808030128479004
5.856019973754883 0.154540002346039 -4.828040122985840
10.145999908447266 0.451541006565094 -5.008039951324463
9.742019653320313 0.740540027618408 -5.003029823303223
10.590999603271484 0.406540989875793 -5.030029773712158
5.831019878387451 -0.028458699584007 -4.832029819488525
10.730999946594238 0.454540997743607 -5.042029857635498
10.506999969482422 0.281540989875793 -5.028029918670654
9.602020263671875 0.525539994239807 -5.002039909362793
5.798019886016846 0.730539977550507 -4.860030174255371
9.576020240783691 0.716539978981018 -5.022039890289307
5.934020042419434 0.663541018962860 -4.879030227661133
10.182999610900879 0.243541002273560 -5.041029930114746
5.873020172119141 0.524541020393372 -4.885029792785645
9.730019569396973 0.451541006565094 -5.036039829254150
5.618020057678223 -0.246459007263184 -4.853030204772949
10.045999526977539 0.304540991783142 -5.046040058135986
5.762020111083984 -0.320459008216858 -4.860030174255371
5.524020195007324 0.519541978836060 -4.881030082702637
9.941020011901856 0.619539976119995 -5.062029838562012
10.793000221252441 0.326541006565094 -5.095039844512940
5.419020175933838 -0.012459900230169 -4.875030040740967
5.652019977569580 0.623539984226227 -4.908040046691895
5.346020221710205 0.137539997696877 -4.882030010223389
5.364019870758057 0.319541007280350 -4.889029979705811
5.737020015716553 -0.137459993362427 -4.892029762268066
5.793019771575928 0.403539985418320 -4.918039798736572
10.350000381469727 0.423541009426117 -5.099040031433106
10.644000053405762 0.284541010856628 -5.107029914855957
10.074999809265137 0.552541017532349 -5.097030162811279
5.485020160675049 -0.168459996581078 -4.894040107727051
5.768020153045654 0.247539997100830 -4.920030117034912
9.679019927978516 0.619539976119995 -5.092040061950684
9.913020133972168 0.389541000127792 -5.096030235290527
5.389019966125488 0.461540997028351 -4.926030158996582
5.849020004272461 0.827539980411530 -4.962029933929443
5.754020214080811 0.062540903687477 -4.935039997100830
10.220999717712402 0.492540985345840 -5.133039951324463
10.434000015258789 0.214541003108025 -5.140039920806885
10.493000030517578 0.420540988445282 -5.160029888153076
5.290019989013672 0.015540000051260 -4.947030067443848
9.842020034790039 0.516541004180908 -5.149030208587647
9.809020042419434 0.661539971828461 -5.154039859771729
10.640000343322754 0.468540996313095 -5.181029796600342
5.513020038604736 -0.306459009647369 -4.956039905548096
5.257019996643066 0.390540003776550 -4.969029903411865
10.276000022888184 0.246540993452072 -5.163030147552490
5.351019859313965 -0.178460001945496 -4.958030223846436
5.212019920349121 0.140540003776550 -4.968029975891113
5.650020122528076 -0.042458601295948 -4.984039783477783
5.649020195007324 -0.363460004329681 -4.975029945373535
5.630020141601563 0.276542007923126 -4.995039939880371
5.883019924163818 0.689540028572083 -5.021029949188232
10.086000442504883 0.360540986061096 -5.178040027618408
10.795999526977539 0.469539999961853 -5.213039875030518
5.721020221710205 0.725540995597839 -5.024030208587647
5.217020034790039 -0.113459996879101 -4.980040073394775
5.629020214080811 0.104541003704071 -5.006030082702637
10.581999778747559 0.173540994524956 -5.205029964447022
5.480020046234131 0.571539998054504 -5.021029949188232
10.892000198364258 0.273541003465652 -5.233029842376709
5.603020191192627 -0.190458998084068 -5.013030052185059
9.996020317077637 0.493541002273560 -5.213039875030518
10.730999946594238 0.212540999054909 -5.234039783477783
5.775020122528076 0.587540984153748 -5.056029796600342
5.705019950866699 0.402541011571884 -5.048029899597168
5.131020069122315 0.012539699673653 -5.013030052185059
10.371000289916992 0.492540985345840 -5.240029811859131
5.139019966125488 0.316540986299515 -5.031030178070068
5.590020179748535 0.664539992809296 -5.067039966583252
9.932020187377930 0.642540991306305 -5.238039970397949
5.377019882202148 -0.318459987640381 -5.034029960632324
5.046020030975342 0.134541004896164 -5.042029857635498
5.328020095825195 0.513540983200073 -5.068039894104004
5.525020122528076 -0.058459401130676 -5.064040184020996
10.206000328063965 0.349541991949081 -5.265039920806885
10.241999626159668 0.569540977478027 -5.280029773712158
10.517999649047852 0.484539985656738 -5.296040058135986
5.191020011901856 0.454540997743607 -5.086030006408691
5.262020111083984 -0.228459000587463 -5.067039966583252
10.463999748229980 0.214541003108025 -5.291029930114746
5.514019966125488 0.144541993737221 -5.095039844512940
11.015999794006348 0.309540987014771 -5.319029808044434
5.554019927978516 -0.355457991361618 -5.092040061950684
10.121000289916992 0.473540008068085 -5.301030158996582
5.004020214080811 -0.013459299691021 -5.086030006408691
10.673000335693359 0.478540986776352 -5.326029777526856
5.586019992828369 0.336540997028351 -5.124030113220215
4.997019767761231 0.265540003776550 -5.103030204772949
5.126019954681397 -0.114459000527859 -5.099040031433106
5.418019771575928 -0.155460000038147 -5.111030101776123
10.887999534606934 0.442539989948273 -5.348040103912354
4.908020019531250 0.131540998816490 -5.108029842376709
10.347000122070312 0.308540999889374 -5.328040122985840
5.663020133972168 0.565541028976440 -5.156030178070068
5.414020061492920 0.014540599659085 -5.131030082702637
5.412020206451416 0.601540029048920 -5.155029773712158
10.048000335693359 0.632541000843048 -5.339029788970947
5.050020217895508 0.422542005777359 -5.145030021667481
10.621000289916992 0.155541002750397 -5.359039783477783
10.965999603271484 0.154540002346039 -5.377039909362793
5.282020092010498 -0.051459401845932 -5.148029804229736
5.451019763946533 0.248539999127388 -5.181029796600342
4.876019954681397 -0.006459400057793 -5.163030147552490
10.774999618530273 0.128540992736816 -5.405029773712158
10.248000144958496 0.426541000604630 -5.396029949188232
5.326019763946533 0.132541000843048 -5.198029994964600
5.130020141601563 0.540542006492615 -5.205029964447022
5.537020206451416 0.654540002346039 -5.226029872894287
10.439999580383301 0.532540023326874 -5.422039985656738
5.278019905090332 0.543540000915527 -5.220039844512940
10.164999961853027 0.561541020870209 -5.414040088653565
4.865019798278809 0.287541002035141 -5.199039936065674
5.186019897460938 0.061541400849819 -5.206039905548096
5.551020145416260 0.492540985345840 -5.235030174255371
4.910019874572754 0.432539999485016 -5.212029933929443
4.774020195007324 0.140540003776550 -5.201029777526856
11.083999633789063 0.343540996313095 -5.461030006408691
4.528019905090332 -0.316459000110626 -5.192039966583252
10.600000381469727 0.494540005922318 -5.458030223846436
10.437999725341797 0.291541010141373 -5.450039863586426
5.446020126342773 0.388541013002396 -5.258039951324463
5.049019813537598 0.009541399776936 -5.239029884338379
10.746999740600586 0.459540009498596 -5.481040000915527
4.659019947052002 0.045540701597929 -5.231040000915527
11.059000015258789 0.124540999531746 -5.493030071258545
11.192999839782715 0.196539998054504 -5.501039981842041
10.300000190734863 0.573540985584259 -5.481040000915527
4.539020061492920 -0.074460096657276 -5.241040229797363
4.433020114898682 -0.190458998084068 -5.234039783477783
4.766019821166992 0.389541000127792 -5.267029762268066
10.934000015258789 0.400539994239807 -5.513030052185059
5.306019783020020 0.297542005777359 -5.294030189514160
10.357000350952148 0.433540999889374 -5.498040199279785
4.183020114898682 -0.304459989070892 -5.233029842376709
4.384019851684570 -0.330458998680115 -5.242030143737793
10.668999671936035 0.145540997385979 -5.510029792785645
10.869000434875488 0.076540797948837 -5.518030166625977
4.707019805908203 -0.132458999752998 -5.270030021667481
5.453020095825195 0.585542023181915 -5.329030036926270
4.036019802093506 -0.224460005760193 -5.248040199279785
4.281020164489746 -0.195458993315697 -5.259039878845215
4.791019916534424 0.002541400026530 -5.290040016174316
5.008019924163818 0.528540015220642 -5.317039966583252
5.058020114898682 0.143539994955063 -5.312029838562012
4.576019763946533 -0.212458997964859 -5.290040016174316
5.156020164489746 0.261539995670319 -5.338039875030518
4.426020145416260 0.018540300428867 -5.302030086517334
5.340020179748535 0.484539985656738 -5.357029914855957
10.550000190734863 0.275539994239807 -5.556029796600342
4.149020195007324 -0.111459001898766 -5.296040058135986
4.538020133972168 0.117541000247002 -5.319029808044434
10.494000434875488 0.447540998458862 -5.564040184020996
5.152019977569580 0.559540987014771 -5.358029842376709
3.949019908905029 -0.106459997594357 -5.298029899597168
4.653019905090332 0.321539998054504 -5.345039844512940
11.161000251770020 0.331539988517761 -5.609039783477783
5.212019920349121 0.394542008638382 -5.379030227661133
4.940020084381104 0.050539899617434 -5.361030101776123
4.688020229339600 0.492540985345840 -5.367030143737793
3.800019979476929 -0.132458999752998 -5.313029766082764
4.832019805908203 0.529540002346039 -5.377039909362793
10.637000083923340 0.417540013790131 -5.602039813995361
10.810000419616699 0.380540013313293 -5.619040012359619
10.774000167846680 0.146540999412537 -5.616040229797363
10.961999893188477 0.308540999889374 -5.630040168762207
10.949000358581543 0.153540000319481 -5.626039981842041
4.272019863128662 0.046540100127459 -5.362040042877197
11.097000122070313 0.191541001200676 -5.635029792785645
4.376019954681397 -0.123460002243519 -5.363039970397949
4.602019786834717 -0.049458600580692 -5.376039981842041
4.964019775390625 0.250541001558304 -5.401040077209473
4.556019783020020 0.425540000200272 -5.392029762268066
10.692999839782715 0.281540989875793 -5.631030082702637
5.059020042419434 0.364540994167328 -5.420030117034912
4.947020053863525 0.616540014743805 -5.425039768218994
4.700019836425781 0.633539974689484 -5.423029899597168
4.405020236968994 0.149541005492210 -5.407040119171143
5.265019893646240 0.612540006637573 -5.456039905548096
4.527019977569580 0.273541003465652 -5.421040058135986
4.123020172119141 0.034540999680758 -5.399030208587647
4.841020107269287 0.154540002346039 -5.433030128479004
4.513020038604736 0.632541000843048 -5.436039924621582
3.858020067214966 0.027541000396013 -5.409029960632324
4.230020046234131 -0.093459196388721 -5.422039985656738
5.076019763946533 0.510541021823883 -5.479030132293701
4.819019794464111 0.314539998769760 -5.469029903411865
4.926020145416260 0.445540010929108 -5.479030132293701
4.035019874572754 -0.109460003674030 -5.428040027618408
4.708020210266113 0.060540098696947 -5.461030006408691
4.469019889831543 0.002541400026530 -5.461030006408691
4.466289997100830 0.770222008228302 -5.487870216369629
4.810019969940186 0.701541006565094 -5.501039981842041
3.686019897460938 -0.102459996938705 -5.433030128479004
4.213019847869873 0.142541006207466 -5.468029975891113
4.753019809722900 0.446539998054504 -5.501039981842041
3.874020099639893 -0.137459993362427 -5.450039863586426
4.610020160675049 0.729541003704071 -5.508039951324463
4.693019866943359 0.210541993379593 -5.499030113220215
4.315350055694580 0.801154017448425 -5.506229877471924
4.605020046234131 0.521540999412537 -5.511030197143555
3.973020076751709 0.100541003048420 -5.473040103912354
4.426770210266113 0.519676029682159 -5.511730194091797
4.628019809722900 0.346540987491608 -5.516039848327637
4.373400211334229 0.658694982528687 -5.520100116729736
4.326019763946533 0.034540999680758 -5.507030010223389
4.576019763946533 0.091540202498436 -5.523029804229736
4.448019981384277 0.369540005922318 -5.527029991149902
4.323019981384277 0.284541010856628 -5.520030021667481
3.605020046234131 -0.215459004044533 -5.485030174255371
4.187310218811035 0.865468978881836 -5.550179958343506
4.420020103454590 0.153540000319481 -5.557040214538574
3.764019966125488 0.034540999680758 -5.530029773712158
4.307549953460693 0.439907997846603 -5.565549850463867
4.252069950103760 0.579478979110718 -5.571559906005859
4.197850227355957 0.718719005584717 -5.578989982604981
4.095019817352295 0.034540999680758 -5.591030120849609
3.790019989013672 -0.105457998812199 -5.575039863586426
3.932019948959351 -0.048459198325872 -5.593029975891113
4.076019763946533 0.800539970397949 -5.630040168762207
4.184010028839111 0.156486004590988 -5.614560127258301
3.642019987106323 -0.056458599865437 -5.588039875030518
4.166959762573242 0.471572995185852 -5.629519939422607
3.860019922256470 0.126540005207062 -5.616040229797363
4.238059997558594 0.312159001827240 -5.640970230102539
4.110710144042969 0.609131991863251 -5.651679992675781
3.549020051956177 -0.214460000395775 -5.627039909362793
4.097020149230957 0.325540989637375 -5.686039924621582
3.722019910812378 0.085541598498821 -5.679039955139160
4.010119915008545 0.135097995400429 -5.692309856414795
4.042019844055176 0.489540994167328 -5.712029933929443
3.574019908905029 -0.023459499701858 -5.718029975891113
3.654020071029663 -0.159458994865417 -5.717040061950684
4.006790161132813 0.631191015243530 -5.756649971008301
3.877019882202148 0.217541992664337 -5.746029853820801
4.021880149841309 0.855650007724762 -5.773519992828369
3.759020090103149 -0.046460300683975 -5.745039939880371
3.890019893646240 0.067540101706982 -5.755040168762207
3.470020055770874 -0.142459005117416 -5.733029842376709
3.979020118713379 0.357540994882584 -5.771029949188232
3.936350107192993 0.513782978057861 -5.813990116119385
4.048019886016846 0.211540997028351 -5.844029903411865
3.982239961624146 0.745923995971680 -5.865310192108154
3.785020112991333 0.283542007207870 -5.845039844512940
3.667020082473755 0.157539993524551 -5.839029788970947
3.550019979476929 -0.230458006262779 -5.848040103912354
3.539020061492920 0.049540400505066 -5.861030101776123
3.705019950866699 0.008539999835193 -5.872029781341553
3.897399902343750 0.624409973621368 -5.906549930572510
3.819289922714233 0.108304001390934 -5.887249946594238
3.391020059585571 -0.165460005402565 -5.868030071258545
3.895370006561279 0.347059994935989 -5.921289920806885
3.837939977645874 0.487141996622086 -5.925119876861572
3.922019958496094 0.199540004134178 -5.949039936065674
3.942019939422607 0.836540997028351 -5.977039813995361
3.596019983291626 -0.086459301412106 -5.934030055999756
3.708019971847534 0.323540985584259 -5.980040073394775
3.428020000457764 0.003540900070220 -5.963039875030518
3.492019891738892 -0.314460009336472 -5.962029933929443
3.795510053634644 0.598681986331940 -6.013780117034912
3.745650053024292 0.156152993440628 -6.009059906005859
3.572020053863525 0.226539999246597 -6.014029979705811
3.735840082168579 0.461466997861862 -6.032120227813721
3.460020065307617 0.130539998412132 -6.040040016174316
3.880820035934448 0.706782996654511 -6.075160026550293
3.638020038604736 0.055540900677443 -6.046040058135986
3.850019931793213 0.316540986299515 -6.064040184020996
3.390019893646240 -0.234459996223450 -6.038030147552490
3.512020111083984 -0.123460002243519 -6.064040184020996
3.355020046234131 -0.081460103392601 -6.075039863586426
3.633810043334961 0.524628996849060 -6.122189998626709
3.648600101470947 0.300217002630234 -6.138740062713623
3.738850116729736 0.634204983711243 -6.154590129852295
3.541019916534424 0.405541002750397 -6.143030166625977
3.461019992828369 0.257541000843048 -6.137040138244629
3.775019884109497 0.217541992664337 -6.150030136108398
3.533020019531250 0.010540800169110 -6.147039890289307
3.837019920349121 0.747539997100830 -6.214029788970947
3.386019945144653 0.073540598154068 -6.189040184020996
3.476020097732544 -0.130459994077683 -6.214029788970947
3.544359922409058 0.550773024559021 -6.243340015411377
3.322020053863525 -0.082459598779678 -6.220039844512940
3.354020118713379 -0.237460002303123 -6.217040061950684
3.593179941177368 0.150814995169640 -6.246900081634522
3.650120019912720 0.652284026145935 -6.276559829711914
3.561619997024536 0.309962987899780 -6.262650012969971
3.474020004272461 0.429540991783142 -6.296040058135986
3.411020040512085 0.279540002346039 -6.292029857635498
3.732019901275635 0.783541977405548 -6.322030067443848
3.455019950866699 0.127541005611420 -6.312029838562012
3.307019948959351 0.043539900332689 -6.311039924621582
3.499700069427490 0.634837985038757 -6.363550186157227
3.589799880981445 0.756206989288330 -6.379240036010742
3.421020030975342 -0.138458997011185 -6.359039783477783
3.397880077362061 0.525651991367340 -6.385789871215820
3.438019990921021 0.769541978836060 -6.404039859771729
3.278019905090332 -0.094458699226379 -6.373040199279785
3.495019912719727 0.349541991949081 -6.433030128479004
3.341020107269287 0.321539998054504 -6.427030086517334
3.259020090103149 0.145540997385979 -6.419030189514160
3.325020074844360 -0.255459994077683 -6.418039798736572
3.435110092163086 0.204293996095657 -6.461460113525391
3.336019992828369 0.680540978908539 -6.473040103912354
3.285939931869507 0.502553999423981 -6.481790065765381
3.206020116806030 0.010540800169110 -6.468029975891113
3.229020118713379 -0.135459005832672 -6.507030010223389
3.235019922256470 0.362540006637573 -6.526040077209473
3.218899965286255 0.620543003082275 -6.542930126190186
3.123019933700562 0.827539980411530 -6.557040214538574
3.172019958496094 0.147540003061295 -6.553040027618408
3.315020084381104 0.211540997028351 -6.569029808044434
3.277019977569580 -0.268458008766174 -6.560039997100830
2.993020057678223 0.716539978981018 -6.591030120849609
3.169859886169434 0.483987003564835 -6.607190132141113
3.096199989318848 0.616016983985901 -6.626890182495117
3.078020095825195 0.329540997743607 -6.636030197143555
3.161020040512085 -0.079459302127361 -6.627039909362793
3.337019920349121 0.351539999246597 -6.648029804229736
2.859019994735718 0.786539971828461 -6.655029773712158
2.929019927978516 0.394542008638382 -6.660029888153076
3.071019887924194 0.151541993021965 -6.675039768218994
3.255019903182983 0.232540994882584 -6.705029964447022
3.068020105361939 0.463539987802505 -6.717040061950684
3.349020004272461 -0.264459013938904 -6.710040092468262
3.262020111083984 -0.144459992647171 -6.727039813995361
3.134020090103149 0.027541000396013 -6.736030101776123
3.189650058746338 0.374446004629135 -6.765450000762940
3.161020040512085 -0.240458995103836 -6.820030212402344
3.112020015716553 -0.089459501206875 -6.827030181884766
3.020020008087158 0.154540002346039 -6.833030223846436
3.064019918441773 0.420540988445282 -6.877039909362793
3.144020080566406 0.249540999531746 -6.876039981842041
2.995019912719727 0.003540900070220 -6.873040199279785
2.875020027160645 0.128540992736816 -6.878029823303223
2.929019927978516 0.484539985656738 -6.903029918670654
2.796020030975342 0.266541004180908 -6.909029960632324
2.743020057678223 -0.103459000587463 -6.905029773712158
2.725019931793213 0.058541201055050 -6.931029796600342
3.042020082473755 0.258540004491806 -7.023029804229736
2.812020063400269 0.149541005492210 -7.012040138244629
2.561019897460938 -0.168459996581078 -6.999030113220215
2.615020036697388 -0.018458500504494 -7.010029792785645
2.668020009994507 0.143539994955063 -7.066030025482178
2.908020019531250 0.234540000557899 -7.096030235290527
2.448019981384277 -0.148460000753403 -7.101029872894287
2.510020017623901 0.001540099969134 -7.127039909362793
2.783020019531250 0.214541003108025 -7.185039997100830
2.586019992828369 0.144541993737221 -7.193039894104004
2.338020086288452 -0.024459000676870 -7.205029964447022
2.455019950866699 0.094540499150753 -7.255040168762207
2.216020107269287 0.039540201425552 -7.288030147552490
2.667020082473755 0.211540997028351 -7.320030212402344
2.329020023345947 0.096541300415993 -7.374030113220215
2.187020063400269 0.107541002333164 -7.442039966583252
2.317019939422607 0.222541004419327 -7.480040073394775
2.236020088195801 0.155541002750397 -7.607029914855957
