ply
format ascii 1.0
element vertex 758
property double x
property double y
property double z
end_header
-2.389980077743530 6.070539951324463 5.567959785461426
-2.532979965209961 6.147540092468262 5.890970230102539
-2.580980062484741 5.993539810180664 5.890970230102539
-2.616980075836182 6.063539981842041 5.764969825744629
-2.570980072021484 5.907539844512940 5.738969802856445
-2.448980093002319 6.108540058135986 5.718969821929932
-2.297980070114136 6.116539955139160 5.676970005035400
-2.455980062484741 5.946539878845215 5.651959896087647
-2.579979896545410 6.034540176391602 5.618959903717041
-2.272979974746704 5.986539840698242 5.604959964752197
-2.389980077743530 6.070539951324463 5.567959785461426
-2.176980018615723 6.094540119171143 5.547959804534912
-2.396980047225952 5.922540187835693 5.467969894409180
-2.538980007171631 6.050539970397949 5.468969821929932
-2.242980003356934 5.922540187835693 5.430960178375244
-2.405980110168457 6.064539909362793 5.401959896087647
-2.112979888916016 6.066539764404297 5.387959957122803
-2.065979957580566 5.912539958953857 5.372960090637207
-2.352979898452759 5.925539970397949 5.312960147857666
-1.897979974746704 5.910540103912354 5.286970138549805
-2.195980072021484 5.872539997100830 5.280970096588135
-2.228980064392090 6.024539947509766 5.258969783782959
-2.008980035781860 5.835539817810059 5.201960086822510
-1.804980039596558 5.830540180206299 5.188970088958740
-2.062979936599731 5.987539768218994 5.176970005035400
-2.283979892730713 5.911540031433106 5.153969764709473
-2.153980016708374 5.843540191650391 5.126969814300537
-1.928979992866516 5.792540073394775 5.068960189819336
-1.700979948043823 5.829539775848389 5.055960178375244
-1.826979994773865 5.927539825439453 5.052969932556152
-2.042979955673218 5.911540031433106 5.050970077514648
-2.166980028152466 5.788539886474609 4.953969955444336
-1.864979982376099 5.737539768218994 4.940969944000244
-1.714980006217957 5.710539817810059 4.929959774017334
-2.015980005264282 5.752540111541748 4.938970088958740
-1.602980017662048 5.896540164947510 4.905970096588135
-1.752979993820190 5.854539871215820 4.911970138549805
-1.801980018615723 5.680540084838867 4.805960178375244
-1.951979994773865 5.706540107727051 4.805960178375244
-2.087980031967163 5.770540237426758 4.805960178375244
-1.548979997634888 5.854539871215820 4.771969795227051
-1.671980023384094 5.746540069580078 4.775959968566895
-1.565979957580566 5.695539951324463 4.674970149993897
-1.407979965209961 5.758540153503418 4.655970096588135
-2.032979965209961 5.698540210723877 4.680960178375244
-1.690979957580566 5.591539859771729 4.613969802856445
-1.935109972953796 5.644000053405762 4.582540035247803
-1.444980025291443 5.646540164947510 4.557970046997070
-2.116980075836182 5.631539821624756 4.558969974517822
-1.560979962348938 5.557539939880371 4.497960090637207
-1.298979997634888 5.597539901733398 4.472959995269775
-1.149979948997498 5.586540222167969 4.460969924926758
-2.009840011596680 5.587230205535889 4.454150199890137
-1.854580044746399 5.563310146331787 4.439949989318848
-1.412979960441589 5.507540225982666 4.410970211029053
-0.866982996463776 5.091539859771729 4.383969783782959
-0.946981012821198 5.405539989471436 4.347959995269775
-1.273980021476746 5.503540039062500 4.350969791412354
-1.668980002403259 5.481540203094482 4.349969863891602
-1.081979990005493 5.469540119171143 4.318960189819336
-1.940809965133667 5.502500057220459 4.330009937286377
-1.511980056762695 5.437540054321289 4.309969902038574
-0.989979982376099 5.080540180206299 4.295969963073731
-0.860983014106750 5.317540168762207 4.254960060119629
-1.366979956626892 5.420539855957031 4.268959999084473
-0.696981012821198 5.069540023803711 4.244969844818115
-0.854982018470764 5.091539859771729 4.233960151672363
-1.205979943275452 5.435540199279785 4.235960006713867
-1.059980034828186 5.377540111541748 4.191969871520996
-0.596983015537262 4.958539962768555 4.174970149993897
-1.629979968070984 5.392539978027344 4.199960231781006
-1.871649980545044 5.418240070343018 4.205709934234619
-0.774980008602142 5.208539962768555 4.157959938049316
-1.398980021476746 5.350540161132813 4.138959884643555
-0.896982014179230 4.965539932250977 4.125969886779785
-0.966982007026672 5.289539813995361 4.109960079193115
-1.255980014801025 5.331540107727051 4.103960037231445
-0.752981007099152 4.942540168762207 4.088960170745850
-0.540983021259308 5.050539970397949 4.064970016479492
-1.536980032920837 5.324540138244629 4.090960025787354
-0.508980989456177 4.826539993286133 4.056970119476318
-1.116979956626892 5.293540000915527 4.060959815979004
-1.801010012626648 5.339169979095459 4.079609870910645
-0.696981012821198 5.082540035247803 4.030970096588135
-0.912331998348236 5.163400173187256 4.024390220642090
-0.824061989784241 5.034110069274902 3.959259986877441
-1.089609980583191 5.149089813232422 3.964960098266602
-0.842980980873108 4.883540153503418 3.958960056304932
-1.200979948043823 5.042540073394775 3.965960025787354
-0.491982996463776 4.956540107727051 3.938970088958740
-1.343979954719544 5.160540103912354 3.954969882965088
-0.706982970237732 4.938539981842041 3.931969881057739
-0.591982007026672 4.844540119171143 3.929960012435913
-1.212980031967163 5.241539955139160 3.937959909439087
-1.595980048179627 5.260540008544922 3.944960117340088
-1.076979994773865 4.954539775848389 3.924969911575317
-0.969102978706360 5.078129768371582 3.904040098190308
-0.483980000019073 4.757540225982666 3.854959964752197
-1.463979959487915 5.227540016174316 3.874959945678711
-0.965982019901276 4.884540081024170 3.843970060348511
-0.798982024192810 4.958539962768555 3.806969881057739
-1.314980030059815 5.126540184020996 3.809969902038574
-1.138980031013489 5.173540115356445 3.795969963073731
-1.600980043411255 5.196539878845215 3.800970077514648
-1.041980028152466 5.011539936065674 3.775959968566895
-0.389982014894485 4.605539798736572 3.743959903717041
-0.563982009887695 4.860539913177490 3.740959882736206
-0.714721977710724 4.855949878692627 3.740370035171509
-1.195970058441162 5.041140079498291 3.749919891357422
-0.506982028484344 4.707540035247803 3.715960025787354
-0.865980029106140 4.851540088653565 3.712970018386841
-1.444980025291443 5.134540081024170 3.723969936370850
-0.444981992244720 4.885540008544922 3.649970054626465
-1.246979951858521 5.172540187835693 3.664959907531738
-1.087980031967163 5.104539871215820 3.650959968566895
-0.633980989456177 4.729539871215820 3.641969919204712
-0.976979970932007 4.934539794921875 3.641969919204712
-1.559980034828186 5.190539836883545 3.638959884643555
-0.770182013511658 4.800829887390137 3.602799892425537
-0.452982008457184 4.518539905548096 3.589960098266602
-1.121979951858521 4.965539932250977 3.599970102310181
-0.582983016967773 4.599540233612061 3.584969997406006
-0.323980003595352 4.439539909362793 3.578969955444336
-0.275983005762100 4.773540019989014 3.564970016479492
-0.352982997894287 4.628540039062500 3.565969944000244
-0.478983014822006 4.730539798736572 3.562959909439087
-1.353979945182800 5.091539859771729 3.584969997406006
-0.726979970932007 4.648540019989014 3.550970077514648
-0.864979982376099 4.717539787292481 3.501970052719116
-1.478979945182800 5.167540073394775 3.509969949722290
-0.873983025550842 4.939539909362793 3.490959882736206
-1.030979990959168 4.922639846801758 3.489880084991455
-1.248980045318604 5.128540039062500 3.475970029830933
-0.514440000057220 4.624030113220215 3.451989889144898
-0.334982007741928 4.376540184020996 3.429960012435913
-0.212813004851341 4.281429767608643 3.427910089492798
-0.635980010032654 4.540540218353272 3.409960031509399
-0.399226009845734 4.539020061492920 3.396250009536743
-0.687837004661560 4.698669910430908 3.400480031967163
-1.379979968070984 5.088540077209473 3.409960031509399
-0.769982993602753 4.854539871215820 3.391969919204712
-0.920979976654053 4.819540023803711 3.388959884643555
-0.827982008457184 4.659540176391602 3.366960048675537
-1.136980056762695 4.963540077209473 3.365959882736206
-1.033980011940002 4.860539913177490 3.299969911575317
-0.735983014106750 4.544539928436279 3.297960042953491
-0.616262972354889 4.642879962921143 3.281369924545288
-0.282983005046844 4.278540134429932 3.277960062026978
-0.490898013114929 4.562009811401367 3.268429994583130
-0.846983015537262 4.776539802551270 3.264970064163208
-0.906979978084564 4.933539867401123 3.254960060119629
-0.370418012142181 4.474390029907227 3.237010002136231
-1.222980022430420 4.963540077209473 3.238970041275024
-0.740980029106140 4.688539981842041 3.197969913482666
-0.231980994343758 4.166540145874023 3.185960054397583
-0.116664998233318 4.064819812774658 3.165309906005859
-1.088979959487915 4.876540184020996 3.158960103988648
-0.287281006574631 4.389339923858643 3.142359972000122
-0.555146992206573 4.617249965667725 3.137919902801514
-0.951982021331787 4.821539878845215 3.141969919204712
-0.432621002197266 4.531300067901611 3.106739997863770
-0.828652024269104 4.749269962310791 3.089499950408936
-0.656548023223877 4.704100131988525 3.063920021057129
-0.283982992172241 4.381539821624756 2.989969968795776
-0.142979994416237 4.219540119171143 2.986959934234619
-0.060479700565338 3.988140106201172 2.990669965744019
-0.936982989311218 4.932539939880371 2.991960048675537
-0.492042988538742 4.600200176239014 2.970979928970337
-0.387982994318008 4.484539985656738 2.961970090866089
-0.909982025623322 4.783539772033691 2.968970060348511
-1.117980003356934 4.932539939880371 2.970959901809692
-0.637983024120331 4.621540069580078 2.939970016479492
-0.754984021186829 4.723539829254150 2.938970088958740
-0.096982598304749 3.865540027618408 2.895960092544556
-0.807981014251709 4.877540111541748 2.885970115661621
-0.208982005715370 4.310540199279785 2.878969907760620
-0.046188801527023 4.076139926910400 2.868469953536987
-0.323828995227814 4.439919948577881 2.835690021514893
-0.111332997679710 4.207990169525147 2.828639984130859
-1.042979955673218 4.900539875030518 2.841969966888428
-0.627981007099152 4.776539802551270 2.823970079421997
-0.448980003595352 4.542540073394775 2.817960023880005
-0.804983019828796 4.748539924621582 2.799969911575317
-0.577982008457184 4.617539882659912 2.782959938049316
-0.030980700626969 3.779540061950684 2.775959968566895
-0.939980983734131 4.822539806365967 2.763959884643555
-0.023980699479580 3.957540035247803 2.746969938278198
-0.245267003774643 4.357220172882080 2.731080055236816
-0.048982199281454 4.105539798736572 2.721960067749023
-0.718980014324188 4.834539890289307 2.710969924926758
-0.360983014106750 4.467539787292481 2.693959951400757
-0.469980001449585 4.697539806365967 2.682970046997070
0.018019100651145 3.666539907455444 2.684969902038574
-0.146042004227638 4.265490055084229 2.669399976730347
-0.461979985237122 4.553540229797363 2.621969938278198
-0.694981992244720 4.693540096282959 2.624959945678711
0.022016899660230 3.892539978027344 2.618959903717041
-0.851979970932007 4.817540168762207 2.613970041275024
-0.578980982303619 4.787539958953857 2.601969957351685
-0.067983202636242 4.168540000915527 2.575959920883179
-0.280018985271454 4.454179763793945 2.560120105743408
-0.201982006430626 4.313539981842041 2.538969993591309
-0.573979973793030 4.629539966583252 2.541960000991821
0.097017697989941 3.587539911270142 2.545969963073731
-0.749981999397278 4.774539947509766 2.510970115661621
0.081018798053265 3.780539989471436 2.504960060119629
-0.481981009244919 4.735539913177490 2.491960048675537
0.043016798794270 3.998539924621582 2.493959903717041
-0.396982014179230 4.536540031433106 2.485960006713867
0.031019600108266 4.194540023803711 2.464960098266602
-0.108980000019073 4.242539882659912 2.427969932556152
-0.157959997653961 4.392910003662109 2.416079998016357
-0.638981997966766 4.727540016174316 2.422960042953491
-0.254983991384506 4.517539978027344 2.397969961166382
0.120016001164913 3.425539970397949 2.408960103988648
-0.483980000019073 4.625539779663086 2.378969907760620
0.149020001292229 4.164539813995361 2.360960006713867
0.134020000696182 3.709539890289307 2.374959945678711
0.071016699075699 3.848540067672730 2.366960048675537
-0.037980701774359 4.134540081024170 2.332959890365601
0.165018007159233 3.562540054321289 2.338959932327271
0.042017400264740 3.989540100097656 2.322969913482666
-0.534982025623322 4.757540225982666 2.318959951400757
-0.357980012893677 4.578539848327637 2.309969902038574
-0.015877399593592 4.288000106811523 2.299109935760498
-0.091231897473335 4.419889926910400 2.282459974288940
-0.201479002833366 4.529129981994629 2.253999948501587
0.154017001390457 3.346539974212647 2.271970033645630
0.163386002182961 3.756769895553589 2.230750083923340
0.075018301606178 4.101540088653565 2.216969966888428
-0.441980004310608 4.682539939880371 2.212970018386841
0.121019996702671 3.900540113449097 2.213959932327271
0.216016992926598 3.576539993286133 2.195970058441162
0.064016699790955 4.277540206909180 2.159960031509399
-0.024329299107194 4.408549785614014 2.148099899291992
0.242824003100395 3.406599998474121 2.169219970703125
-0.311982989311218 4.600540161132813 2.149970054626465
0.183019995689392 3.232539892196655 2.170969963073731
-0.105980999767780 4.545539855957031 2.138959884643555
0.162619993090630 4.019859790802002 2.117520093917847
0.032436698675156 4.394350051879883 2.008049964904785
0.118975996971130 4.268239974975586 2.005599975585938
-0.211980000138283 4.613540172576904 2.003969907760620
0.226188004016876 3.800649881362915 2.012160062789917
0.173017993569374 4.126540184020996 1.995970010757446
-0.092981003224850 4.485539913177490 1.989969968795776
0.272017002105713 3.647540092468262 1.997959971427918
0.296018987894058 3.410540103912354 2.003969907760620
0.177019998431206 3.940540075302124 1.986960053443909
0.252020001411438 3.240540027618408 2.002969980239868
0.220018997788429 3.091540098190308 2.004960060119629
0.336019992828369 3.543540000915527 1.902959942817688
-0.115979999303818 4.622539997100830 1.876970052719116
0.095609001815319 4.381959915161133 1.871600031852722
0.268018990755081 3.874540090560913 1.879959940910339
0.178365007042885 4.254779815673828 1.867020010948181
-0.005983000155538 4.499539852142334 1.863970041275024
0.318718999624252 3.714879989624023 1.870560050010681
0.252151012420654 4.125060081481934 1.857399940490723
0.302020013332367 3.167540073394775 1.879959940910339
0.340018004179001 3.315540075302124 1.866960048675537
0.265017002820969 3.010540008544922 1.867959976196289
0.335786998271942 3.990570068359375 1.810330033302307
0.394019007682800 3.477540016174316 1.782960057258606
0.384020000696182 3.040539979934692 1.773970007896423
0.401977002620697 3.863940000534058 1.745679974555969
0.054018400609493 4.544539928436279 1.729959964752197
0.236806005239487 4.302370071411133 1.714349985122681
0.144905000925064 4.426970005035400 1.713790059089661
0.356016993522644 3.719540119171143 1.723970055580139
0.319103986024857 4.175059795379639 1.709509968757629
0.426624000072479 3.998780012130737 1.681630015373230
0.449019014835358 2.921540021896362 1.711969971656799
0.282018989324570 2.889539957046509 1.718969941139221
0.431017011404037 3.592540025711060 1.687960028648377
0.484019011259079 3.772540092468262 1.656970024108887
0.478543013334274 3.444089889526367 1.653100013732910
0.357019990682602 3.170540094375610 1.651960015296936
0.312018007040024 3.014539957046509 1.642969965934753
0.541018009185791 2.809540033340454 1.634969949722290
0.424017012119293 3.299540042877197 1.615960001945496
0.383790999650955 4.234590053558350 1.577950000762940
0.289119988679886 4.358409881591797 1.575829982757568
0.514173984527588 3.993269920349121 1.558869957923889
0.572207987308502 3.846319913864136 1.548189997673035
0.485260009765625 4.143499851226807 1.517529964447022
0.512018978595734 3.596539974212647 1.529970049858093
0.551020026206970 3.032540082931519 1.545969963073731
0.525189995765686 3.365710020065308 1.520930051803589
0.625849008560181 3.690570116043091 1.492069959640503
0.666018009185791 2.670540094375610 1.522969961166382
0.591017007827759 3.206540107727051 1.501970052719116
0.413020014762878 3.186539888381958 1.506960034370422
0.297017991542816 2.861540079116821 1.510969996452332
0.353017985820770 3.026540040969849 1.493960022926331
0.466800004243851 4.276340007781982 1.446859955787659
0.638018012046814 2.895539999008179 1.482969999313355
0.607641994953156 4.002220153808594 1.431640028953552
0.662020027637482 3.856539964675903 1.424970030784607
0.577880024909973 4.175169944763184 1.399629950523377
0.579020023345947 3.508539915084839 1.420969963073731
0.723016977310181 3.725539922714233 1.380959987640381
0.493018001317978 3.262540102005005 1.402959942817688
0.696017026901245 2.771539926528931 1.399970054626465
0.708543002605438 3.563659906387329 1.368309974670410
0.693018019199371 3.020539999008179 1.363970041275024
0.616329014301300 3.330689907073975 1.347390055656433
0.702017009258270 3.969540119171143 1.319959998130798
0.693180024623871 4.151929855346680 1.308030009269714
0.338019013404846 2.792540073394775 1.353960037231445
0.793380975723267 3.827970027923584 1.293349981307983
0.381018012762070 2.961539983749390 1.336969971656799
0.823845982551575 3.634870052337647 1.290560007095337
0.597018003463745 2.579540014266968 1.332960009574890
0.434018999338150 3.101540088653565 1.315969944000244
0.525018990039825 2.708539962768555 1.314970016479492
0.615224003791809 3.121129989624023 1.283879995346069
0.725989997386932 3.400310039520264 1.266469955444336
0.823754012584686 4.000170230865479 1.234539985656738
0.458018004894257 2.842540025711060 1.272969961166382
0.721018016338348 2.662539958953857 1.260969996452332
0.695647001266479 3.248749971389771 1.241350054740906
0.898006021976471 3.740380048751831 1.209319949150085
0.502020001411438 3.200540065765381 1.227959990501404
0.770017981529236 2.805540084838867 1.229959964752197
0.914252996444702 3.893189907073975 1.175740003585815
0.785017013549805 3.024539947509766 1.205970048904419
0.950017988681793 3.584539890289307 1.179960012435913
0.858519017696381 3.466209888458252 1.180799961090088
0.819921016693115 3.322489976882935 1.168640017509460
0.815020024776459 3.165539979934692 1.155969977378845
1.005020022392273 3.994539976119995 1.114969968795776
0.617017984390259 2.528539896011353 1.171959996223450
0.587019026279449 3.305540084838867 1.147969961166382
1.002290010452271 3.762559890747070 1.105759978294373
0.776288986206055 2.587709903717041 1.143610000610352
0.827017009258270 2.899539947509766 1.126970052719116
0.524020016193390 2.673540115356445 1.131960034370422
0.945994973182678 3.289499998092651 1.090880036354065
1.015900015830994 3.403980016708374 1.024850010871887
1.157019972801209 3.469540119171143 1.015969991683960
0.929018020629883 3.539540052413940 1.021970033645630
1.050019979476929 3.168540000915527 1.017969965934753
1.111019968986511 3.783540010452271 0.990965008735657
0.888018012046814 2.780539989471436 1.029970049858093
1.015020012855530 3.658540010452271 0.991963982582092
1.132019996643066 3.309540033340454 0.997964978218079
0.820016980171204 3.403539896011353 1.001970052719116
1.258020043373108 3.572540044784546 0.977963984012604
0.925016999244690 3.026540040969849 1.001970052719116
0.847018003463745 2.614540100097656 1.014969944953919
0.582018017768860 2.511539936065674 1.021970033645630
0.650018990039825 2.367539882659912 1.011960029602051
0.787020027637482 2.476540088653565 0.996964991092682
0.494017004966736 2.627540111541748 0.992964029312134
1.265020012855530 3.329540014266968 0.924966990947723
0.691018998622894 2.216540098190308 0.980966985225677
1.175019979476929 3.182539939880371 0.927964985370636
1.160019993782044 3.659539937973023 0.906965017318726
1.392019987106323 3.462539911270142 0.903967022895813
1.075019955635071 3.037539958953857 0.924966990947723
1.006019949913025 3.519540071487427 0.895964026451111
0.980017006397247 2.902539968490601 0.912966012954712
0.954020023345947 2.733540058135986 0.900964975357056
1.399019956588745 3.304539918899536 0.857966005802155
1.306020021438599 3.162539958953857 0.857966005802155
0.790018022060394 2.347539901733398 0.903967022895813
1.555019974708557 3.279540061950684 0.839963972568512
1.272019982337952 3.523540019989014 0.836965978145599
1.518020033836365 3.469540119171143 0.815966010093689
0.604017972946167 2.582540035247803 0.878965020179749
1.133020043373108 3.469540119171143 0.826964020729065
1.196020007133484 2.957540035247803 0.817964971065521
1.461019992828369 3.141540050506592 0.800966024398804
1.648020029067993 3.397540092468262 0.783963978290558
0.922017991542816 2.524539947509766 0.817964971065521
0.734018981456757 2.223540067672730 0.834967017173767
0.683019995689392 2.461539983749390 0.827966988086700
1.056020021438599 2.823539972305298 0.799966990947723
1.327020049095154 3.390539884567261 0.757966995239258
1.033020019531250 2.647540092468262 0.783963978290558
1.339020013809204 2.982539892196655 0.759966015815735
0.637018978595734 2.709539890289307 0.784964025020599
1.702020049095154 3.256540060043335 0.724965989589691
1.192020058631897 3.309540033340454 0.741963982582092
1.807019948959351 3.150540113449097 0.696965992450714
1.457020044326782 3.266540050506592 0.704966008663177
1.252020001411438 2.867539882659912 0.705964982509613
0.728017985820770 2.587539911270142 0.731966018676758
1.571020007133484 3.139539957046509 0.672963976860046
1.330019950866699 3.187540054321289 0.676966011524200
1.097020030021668 3.120539903640747 0.683965981006622
0.733018994331360 2.803539991378784 0.706965029239655
1.176789999008179 2.719039916992188 0.690571010112762
0.784017980098724 2.368540048599243 0.711965978145599
1.422019958496094 3.068540096282959 0.653967022895813
0.804018020629883 2.060539960861206 0.708962976932526
0.998018980026245 2.455539941787720 0.680963993072510
1.417240023612976 2.911469936370850 0.649424016475677
1.696349978446960 3.059230089187622 0.628968000411987
0.996020019054413 2.960540056228638 0.656965017318726
1.917019963264465 2.995539903640747 0.612967014312744
1.545789957046509 2.986550092697144 0.626173973083496
1.237020015716553 3.041539907455444 0.635964989662170
0.884019970893860 2.859539985656738 0.652963995933533
0.823019027709961 2.204540014266968 0.674966990947723
0.935019016265869 2.321540117263794 0.664964973926544
0.855017006397247 2.699539899826050 0.649964988231659
1.104019999504089 2.598540067672730 0.640965998172760
0.845018982887268 2.506540060043335 0.652963995933533
1.148020029067993 2.911540031433106 0.605966985225677
1.771770000457764 2.940540075302124 0.567900002002716
1.025020003318787 2.800539970397949 0.600965976715088
1.617920041084290 2.870170116424561 0.561210989952087
1.475069999694824 2.792069911956787 0.567532002925873
1.312199950218201 2.693190097808838 0.575221002101898
1.970020055770874 2.853539943695068 0.539964973926544
0.956018984317780 2.589540004730225 0.585965991020203
0.877020001411438 1.988540053367615 0.599965989589691
1.016020059585571 2.067539930343628 0.576964020729065
1.145020008087158 2.731539964675903 0.544965982437134
1.830039978027344 2.812150001525879 0.511590003967285
0.948019027709961 2.208539962768555 0.561963975429535
1.222020030021668 2.581540107727051 0.522966027259827
1.034019947052002 1.773540019989014 0.541963994503021
1.076020002365112 2.512540102005005 0.511964976787567
1.032019972801209 2.353539943695068 0.516965985298157
1.957249999046326 2.726749897003174 0.461697012186050
0.983018994331360 1.911540031433106 0.517965018749237
1.510460019111633 2.662280082702637 0.459096997976303
1.364889979362488 2.599169969558716 0.462206006050110
1.075019955635071 2.194540023803711 0.453965991735458
1.690179944038391 2.644520044326782 0.396189004182816
1.080019950866699 2.011539936065674 0.438966989517212
1.158020019531250 2.357539892196655 0.419966012239456
1.263020038604736 2.485539913177490 0.398966014385223
1.089020013809204 1.663540005683899 0.419966012239456
1.114019989967346 1.846539974212647 0.408964008092880
1.202020049095154 2.116539955139160 0.383967012166977
1.559859991073608 2.570580005645752 0.342177987098694
1.399019956588745 2.519540071487427 0.340963006019592
1.193019986152649 1.960540056228638 0.348966985940933
1.895020008087158 2.591540098190308 0.294966012239456
1.741060018539429 2.564870119094849 0.281019985675812
1.248020052909851 2.235539913177490 0.305963993072510
1.223019957542419 1.773540019989014 0.291963994503021
1.362020015716553 1.685539960861206 0.277963995933533
1.150020003318787 1.582540035247803 0.285966992378235
1.330019950866699 2.346539974212647 0.247964993119240
1.473019957542419 2.430540084838867 0.237966999411583
1.612400054931641 2.489759922027588 0.228973999619484
1.293020009994507 1.969539999961853 0.224966004490852
1.763910055160523 2.483150005340576 0.157741993665695
1.323019981384277 1.794540047645569 0.177965000271797
1.389019966125488 2.073539972305298 0.158963993191719
1.172019958496094 1.429540038108826 0.187964007258415
1.439020037651062 2.292540073394775 0.145963996648788
1.649080038070679 2.385240077972412 0.122063003480434
1.440019965171814 1.644539952278137 0.143965005874634
2.003950119018555 2.478110074996948 0.065098300576210
1.854380011558533 2.419199943542481 0.039315000176430
1.557019948959351 2.286540031433106 0.048963598906994
1.741430044174194 2.311269998550415 0.030919300392270
1.450019955635071 2.177540063858032 0.045965299010277
1.294020056724548 1.696539998054504 0.046964701265097
1.500020027160645 1.746539950370789 0.033964201807976
1.251019954681397 1.529539942741394 0.035966899245977
1.251019954681397 1.369539976119995 0.040964201092720
1.488019943237305 1.896540045738220 0.011964900419116
1.410019993782044 2.034539937973023 -0.001035599969327
1.998649954795837 2.400199890136719 -0.065546996891499
1.876019954681397 2.303479909896851 -0.060348298400640
1.359019994735718 1.835540056228638 -0.045034300535917
1.535019993782044 1.543540000915527 -0.044034898281097
1.541020035743713 2.177540063858032 -0.104036003351212
1.579020023345947 1.715540051460266 -0.111036002635956
1.324020028114319 1.686540007591248 -0.102034002542496
1.545019984245300 1.911540031433106 -0.125036001205444
1.295019984245300 1.496539950370789 -0.103032998740673
1.467020034790039 2.047539949417114 -0.141035005450249
1.712020039558411 2.144540071487427 -0.162035003304482
2.064219951629639 2.331990003585815 -0.188384994864464
1.920019984245300 2.282540082931519 -0.204034999012947
2.198640108108521 2.398540019989014 -0.229738995432854
1.337020039558411 1.357540011405945 -0.175034999847412
1.610020041465759 2.031539916992188 -0.208036005496979
1.584020018577576 1.546540021896362 -0.209035992622375
2.032020092010498 2.197540044784546 -0.260033994913101
1.617020010948181 1.822540044784546 -0.232034996151924
1.362020015716553 1.749539971351624 -0.235033005475998
1.543020009994507 1.405539989471436 -0.234034001827240
1.409019947052002 1.892539978027344 -0.255032986402512
1.797019958496094 2.257539987564087 -0.287034988403320
1.328019976615906 1.573539972305298 -0.254034012556076
1.643020033836365 2.183540105819702 -0.302033990621567
1.649019956588745 1.683539986610413 -0.294034987688065
1.909019947052002 2.126539945602417 -0.326036006212235
2.144020080566406 2.233540058135986 -0.353033006191254
1.662019968032837 1.946539998054504 -0.326036006212235
1.806020021438599 2.019540071487427 -0.336035013198853
1.351019978523254 1.415539979934692 -0.312036007642746
2.221019983291626 2.361540079116821 -0.378035008907318
1.472020030021668 2.005539894104004 -0.341035991907120
1.417019963264465 1.279539942741394 -0.318033009767532
1.929020047187805 2.322540044784546 -0.392033994197845
1.595020055770874 1.477540016174316 -0.363034993410110
2.076020002365112 2.366539955139160 -0.421034008264542
1.552019953727722 1.336539983749390 -0.382036000490189
1.549020051956177 2.117539882659912 -0.410035997629166
1.696020007133484 2.245539903640747 -0.434033989906311
1.362020015716553 1.586539983749390 -0.403035998344421
1.696020007133484 1.777539968490601 -0.424035996198654
1.928020000457764 2.008539915084839 -0.442034006118774
2.339020013809204 2.416539907455444 -0.474034994840622
2.166019916534424 2.069540023803711 -0.463034003973007
1.393020033836365 1.733540058135986 -0.440034985542297
1.789019942283630 1.898540019989014 -0.464033007621765
2.065020084381104 1.946539998054504 -0.486036002635956
2.187020063400269 2.416539907455444 -0.512032985687256
1.813019990921021 2.312540054321289 -0.499033004045486
1.684020042419434 1.560539960861206 -0.472036004066467
1.467020034790039 1.230540037155151 -0.456034004688263
1.378020048141480 1.398540019989014 -0.467034995555878
1.431020021438599 1.882539987564087 -0.502035021781921
1.917019963264465 1.860540032386780 -0.532033979892731
2.004019975662231 2.394540071487427 -0.568032979965210
2.205019950866699 2.191540002822876 -0.574033975601196
1.576020002365112 2.194540023803711 -0.550034999847412
1.749019980430603 1.696539998054504 -0.549036026000977
1.625020027160645 1.393540024757385 -0.550034999847412
1.389019966125488 1.561540007591248 -0.557035028934479
1.495020031929016 2.048540115356445 -0.579034984111786
1.418020009994507 1.760540008544922 -0.589033007621765
1.708019971847534 2.339540004730225 -0.625036001205444
2.132019996643066 2.046540021896362 -0.635034024715424
1.391020059585571 1.296540021896362 -0.584035992622375
1.556020021438599 1.261540055274963 -0.591036021709442
2.038019895553589 1.801540017127991 -0.641035020351410
2.140019893646240 2.411540031433106 -0.666037023067474
1.857020020484924 2.397540092468262 -0.669035017490387
1.703019976615906 1.495540022850037 -0.643033981323242
1.433019995689392 1.156540036201477 -0.645036995410919
1.449020028114319 1.884539961814880 -0.681035995483398
1.802019953727722 1.671540021896362 -0.693032979965210
1.403020024299622 1.462540030479431 -0.686033010482788
1.527019977569580 2.218539953231812 -0.716036021709442
1.661020040512085 1.353539943695068 -0.704034984111786
1.610020041465759 2.363539934158325 -0.737035989761353
2.169019937515259 2.294539928436279 -0.759034991264343
1.428020000457764 1.642539978027344 -0.713033974170685
1.473019957542419 2.022540092468262 -0.733034014701843
2.117019891738892 2.143539905548096 -0.770036995410919
1.585019946098328 1.193539977073669 -0.734034001827240
1.931020021438599 1.706539988517761 -0.768033981323242
2.073019981384277 1.997539997100830 -0.784036993980408
2.064019918441773 2.418540000915527 -0.799036026000977
1.746019959449768 2.421540021896362 -0.829034984111786
1.906020045280457 2.431540012359619 -0.837033987045288
1.393020033836365 1.262539982795715 -0.783033013343811
1.842020034790039 1.591539978981018 -0.813036024570465
2.069020032882690 1.710540056228638 -0.826035976409912
1.387019991874695 1.110540032386780 -0.780035018920898
1.757019996643066 1.427539944648743 -0.820035994052887
1.695019960403442 1.276540040969849 -0.838033974170685
1.483019948005676 2.183540105819702 -0.872034013271332
2.129019975662231 2.361540079116821 -0.931035995483398
2.102020025253296 2.061539888381958 -0.929032981395721
1.537019968032837 1.113540053367615 -0.883036017417908
2.086019992828369 1.875540018081665 -0.943032979965210
1.492020010948181 1.978539943695068 -0.933035016059875
1.480020046234131 1.790539979934692 -0.934033989906311
1.858019948005676 1.456539988517761 -0.940034985542297
1.398020029067993 1.062540054321289 -0.929032981395721
2.099020004272461 1.662539958953857 -0.977033972740173
1.786020040512085 1.322540044784546 -0.954034984111786
1.454020023345947 1.545539975166321 -0.955034017562866
1.431020021438599 1.375540018081665 -0.950033009052277
1.975020051002502 1.579540014266968 -0.978033006191254
1.400020003318787 1.229539990425110 -0.963033974170685
1.685019969940186 1.173539996147156 -0.976033985614777
1.995020031929016 2.380539894104004 -1.032029986381531
2.081020116806030 2.260540008544922 -1.090039968490601
2.135020017623901 2.103539943695068 -1.099040031433106
1.496019959449768 1.657539963722229 -1.069039940834045
2.113019943237305 1.823539972305298 -1.102030038833618
1.883020043373108 1.350540041923523 -1.078040003776550
1.526020050048828 1.863540053367615 -1.091040015220642
1.959020018577576 1.499539971351624 -1.102030038833618
1.523020029067993 1.090540051460266 -1.074030041694641
1.365020036697388 1.096539974212647 -1.084040045738220
1.781020045280457 1.200539946556091 -1.107030034065247
1.414019942283630 1.248540043830872 -1.118039965629578
1.467020034790039 1.391540050506592 -1.131039977073669
2.094019889831543 1.532539963722229 -1.161039948463440
1.656020045280457 1.116539955139160 -1.159039974212647
1.509019970893860 1.547539949417114 -1.168040037155151
2.115020036697388 2.193540096282959 -1.224040031433106
2.123019933700562 2.022540092468262 -1.224040031433106
2.126019954681397 1.718539953231812 -1.217039942741394
1.546020030975342 1.723539948463440 -1.200029969215393
1.975020051002502 1.420539975166321 -1.234030008316040
1.879019975662231 1.253540039062500 -1.227030038833618
1.750020027160645 1.132539987564087 -1.274029970169067
1.440019965171814 1.091539978981018 -1.262030005455017
2.139019966125488 1.900539994239807 -1.317029953002930
2.157020092010498 1.466539978981018 -1.332030057907105
1.463019967079163 1.251539945602417 -1.322029948234558
1.516020059585571 1.407539963722229 -1.330029964447022
2.158020019531250 2.076539993286133 -1.382040023803711
2.159019947052002 1.698539972305298 -1.370040059089661
1.614019989967346 1.084540009498596 -1.331030011177063
1.564020037651062 1.548539996147156 -1.345029950141907
1.594020009040833 1.701539993286133 -1.363039970397949
1.960019946098328 1.242540001869202 -1.371029973030090
2.067019939422607 1.359539985656738 -1.399029970169067
2.212019920349121 1.942540049552918 -1.448029994964600
1.855020046234131 1.136540055274963 -1.426030039787293
1.455019950866699 1.104539990425110 -1.414029955863953
2.206020116806030 1.539540052413940 -1.469030022621155
2.194020032882690 1.377539992332459 -1.489030003547669
1.544020056724548 1.384539961814880 -1.481040000915527
1.614019989967346 1.557540059089661 -1.491029977798462
2.259020090103149 1.704540014266968 -1.525030016899109
2.305020093917847 1.855540037155151 -1.533030033111572
1.650020003318787 1.710540056228638 -1.513039946556091
2.232019901275635 2.109539985656738 -1.549039959907532
2.028019905090332 1.226539969444275 -1.517030000686646
1.763020038604736 1.054540038108826 -1.527040004730225
1.595020055770874 1.055539965629578 -1.524029970169067
1.505020022392273 1.208539962768555 -1.555040001869202
2.265019893646240 1.443539977073669 -1.604040026664734
2.385020017623901 1.977540016174316 -1.650030016899109
1.615020036697388 1.433539986610413 -1.606040000915527
2.347019910812378 1.762539982795715 -1.646039962768555
2.302020072937012 1.583539962768555 -1.644029974937439
1.904019951820374 1.065539956092835 -1.615030050277710
2.177020072937012 1.253540039062500 -1.651029944419861
2.047019958496094 1.113540053367615 -1.646039962768555
1.683019995689392 1.567540049552918 -1.649029970169067
2.248019933700562 2.058540105819702 -1.696040034294128
1.682019948959351 1.058539986610413 -1.652040004730225
2.442019939422607 1.853539943695068 -1.730039954185486
1.553020000457764 1.273540019989014 -1.681040048599243
1.529019951820374 1.112540006637573 -1.693029999732971
1.771020054817200 1.694540023803711 -1.729040026664734
2.322020053863525 1.388540029525757 -1.760030031204224
2.452019929885864 1.702540040016174 -1.783030033111572
2.379019975662231 1.563539981842041 -1.791039943695068
2.256020069122315 1.244539976119995 -1.777040004730225
1.799020051956177 1.052539944648743 -1.756039977073669
2.145020008087158 1.124539971351624 -1.773030042648315
1.712020039558411 1.447540044784546 -1.774029970169067
1.965019941329956 1.036540031433106 -1.773030042648315
2.293020009994507 1.873540043830872 -1.844030022621155
1.879019975662231 1.721539974212647 -1.829030036926270
2.125020027160645 1.895539999008179 -1.848039984703064
1.848019957542419 1.568539977073669 -1.835039973258972
1.645020008087158 1.290539979934692 -1.824030041694641
2.006020069122315 1.794540047645569 -1.864030003547669
1.526020050048828 1.189540028572083 -1.829030036926270
2.489020109176636 1.777539968490601 -1.919029951095581
2.519020080566406 1.581539988517761 -1.923040032386780
2.277019977569580 1.735540032386780 -1.926030039787293
2.323019981384277 1.189540028572083 -1.914029955863953
2.010020017623901 1.556540012359619 -1.915030002593994
2.407020092010498 1.350540041923523 -1.924039959907532
2.123019933700562 1.681540012359619 -1.924039959907532
2.646019935607910 1.663540005683899 -1.950029969215393
2.175019979476929 1.029539942741394 -1.912029981613159
1.878020048141480 1.416540026664734 -1.917039990425110
1.733019948005676 1.099539995193481 -1.911039948463440
1.768020033836365 1.248540043830872 -1.926030039787293
2.407020092010498 1.665539979934692 -1.975029945373535
2.008019924163818 0.987540006637573 -1.940029978752136
2.140019893646240 1.528540015220642 -1.981040000915527
1.579020023345947 1.110540032386780 -1.960039973258972
1.876019954681397 1.078539967536926 -1.971029996871948
2.297019958496094 1.568539977073669 -2.013040065765381
2.521019935607910 1.376539945602417 -2.023030042648315
2.032020092010498 1.392539978027344 -2.012029886245728
1.897019982337952 1.245540022850037 -2.002039909362793
2.443020105361939 1.535539984703064 -2.049040079116821
2.292020082473755 1.022539973258972 -2.048039913177490
2.173019886016846 1.405539989471436 -2.069040060043335
2.390019893646240 1.132539987564087 -2.079030036926270
2.108020067214966 0.938539981842041 -2.064039945602417
2.346019983291626 1.427539944648743 -2.104039907455444
1.979019999504089 1.040539979934692 -2.083039999008179
2.029020071029663 1.208539962768555 -2.092040061950684
2.236020088195801 0.923541009426117 -2.144030094146729
2.350019931793213 1.031540036201477 -2.190030097961426
2.478019952774048 1.107540011405945 -2.199029922485352
2.273020029067993 1.264539957046509 -2.198029994964600
2.440020084381104 1.293540000915527 -2.214030027389526
2.585020065307617 1.243540048599243 -2.222039937973023
2.143019914627075 1.176540017127991 -2.204030036926270
2.059020042419434 0.995540976524353 -2.214030027389526
2.362020015716553 1.181540012359619 -2.306040048599243
2.568020105361939 1.083539962768555 -2.323029994964600
2.283020019531250 0.903540015220642 -2.313040018081665
2.157020092010498 0.999540984630585 -2.332030057907105
2.104020118713379 0.860540986061096 -2.334039926528931
2.221019983291626 0.767540991306305 -2.358030080795288
2.304019927978516 1.065539956092835 -2.380029916763306
2.462019920349121 1.079540014266968 -2.427030086517334
2.227020025253296 0.895541012287140 -2.472039937973023
2.366019964218140 0.947540998458862 -2.494040012359619
2.144020080566406 0.725540995597839 -2.480040073394775
2.122020006179810 0.567539989948273 -2.561029911041260
2.257019996643066 0.425540000200272 -2.577039957046509
2.107019901275635 0.408542007207870 -2.597039937973023
2.237020015716553 0.727540016174316 -2.615030050277710
2.392019987106323 0.504540026187897 -2.622030019760132
2.206020116806030 0.578540027141571 -2.686029911041260
2.190020084381104 0.275539994239807 -2.676029920578003
2.353019952774048 0.611540973186493 -2.746030092239380
2.219019889831543 0.412541002035141 -2.760030031204224
2.352020025253296 0.522539973258972 -2.902040004730225
2.339020013809204 0.371540993452072 -2.908030033111572
2.468019962310791 0.676540970802307 -2.952039957046509
2.423019886016846 0.546540021896362 -3.035039901733398
2.423019886016846 0.364540994167328 -3.039030075073242
2.556020021438599 0.709540009498596 -3.087029933929443
2.714020013809204 0.711540997028351 -3.103029966354370
2.413019895553589 0.677541017532349 -3.118040084838867
2.820019960403442 0.739540994167328 -3.206029891967773
2.483020067214966 0.133540004491806 -2.911040067672730
2.625020027160645 0.030541300773621 -2.961030006408691
2.910020112991333 0.736540973186493 -3.083039999008179
2.551019906997681 0.115539997816086 -3.075030088424683
3.058020114898682 0.764540970325470 -3.120039939880371
2.657020092010498 -0.001460199942812 -3.113039970397949
2.483020067214966 0.230540007352829 -3.140039920806885
3.210020065307617 0.790542006492615 -3.201040029525757
2.451020002365112 0.368541002273560 -3.187040090560913
2.433020114898682 0.531540989875793 -3.210040092468262
3.334019899368286 0.727540016174316 -3.273030042648315
3.077019929885864 0.796540021896362 -3.271039962768555
2.507019996643066 0.675539970397949 -3.247030019760132
2.658020019531250 0.715541005134583 -3.272039890289307
2.529020071029663 0.128540992736816 -3.265039920806885
2.937020063400269 0.793540000915527 -3.336030006408691
2.604020118713379 -0.011458500288427 -3.309030055999756
2.447020053863525 0.294541001319885 -3.323029994964600
2.426019906997681 0.445540010929108 -3.332030057907105
2.758019924163818 0.763540983200073 -3.404040098190308
2.455019950866699 0.577539980411530 -3.398030042648315
2.463020086288452 0.115539997816086 -3.399029970169067
2.564019918441773 0.683540999889374 -3.448029994964600
2.395020008087158 0.380540013313293 -3.469029903411865
2.409019947052002 0.539539992809296 -3.549040079116821
2.643019914627075 0.763540983200073 -3.569040060043335
2.504019975662231 0.688539981842041 -3.606040000915527
2.592020034790039 0.816541016101837 -3.711030006408691
2.730020046234131 0.865540027618408 -3.755029916763306
2.808020114898682 0.742541015148163 -3.806040048599243
2.652019977569580 0.834540009498596 -3.883039951324463
2.758019924163818 0.684540987014771 -3.938040018081665
