ply
format ascii 1.0
element vertex 462
property double x
property double y
property double z
end_header
-19.128999710083008 -3.502019882202148 117.766998291015620
-18.496400833129883 -2.033070087432861 119.154998779296870
-18.642799377441406 -1.498729944229126 118.785003662109370
-18.871700286865234 -1.990509986877441 118.458999633789060
-18.195699691772461 -2.982239961624146 118.369003295898440
-18.162200927734375 -3.981669902801514 118.829002380371090
-17.758100509643555 -4.964799880981445 118.944000244140620
-18.595800399780273 -3.516459941864014 118.179000854492190
-19.128999710083008 -3.502019882202148 117.766998291015620
-19.227699279785156 -2.949690103530884 117.429000854492190
-20.181299209594727 -0.957161009311676 116.383003234863280
-22.641899108886719 2.129400014877319 114.950996398925780
-21.116800308227539 0.450147986412048 115.667999267578130
-20.069000244140625 -1.559900045394898 116.611000061035160
-18.308599472045898 -5.509039878845215 118.529998779296870
-19.718299865722656 -2.437999963760376 116.958000183105470
-20.693099975585938 -0.419773995876312 115.956001281738280
-21.683799743652344 1.350710034370422 115.103996276855470
-22.138299942016602 1.016469955444336 115.306999206542970
-21.638599395751953 0.005526999942958 115.791999816894530
-23.109100341796875 2.389230012893677 114.611999511718750
-23.137800216674805 2.983530044555664 114.261001586914060
-22.065500259399414 0.386546999216080 115.518997192382810
-23.655199050903320 3.971280097961426 113.751998901367190
-21.081899642944336 -1.055019974708557 116.141998291015620
-19.639499664306641 -3.498480081558228 117.286003112792970
-22.603099822998047 1.315379977226257 114.975997924804690
-18.721099853515625 -4.990869998931885 117.954002380371090
-22.157300949096680 2.454279899597168 114.236000061035160
-23.141799926757813 3.490859985351563 113.771003723144530
-22.581399917602539 3.122639894485474 113.892997741699220
-19.157400131225586 -3.991139888763428 117.320999145507810
-19.018999099731445 -4.516809940338135 117.585998535156250
-20.266399383544922 -2.410840034484863 116.558998107910160
-20.663200378417969 -1.981979966163635 116.334999084472660
-20.118700027465820 -3.005810022354126 116.750999450683590
-24.676300048828125 5.398419857025147 112.682998657226560
-21.680099487304687 1.946519970893860 114.239997863769530
-23.534400939941406 2.424959897994995 114.112998962402340
-23.801300048828125 4.299089908599854 113.092002868652340
-23.184299468994141 3.941540002822876 113.223999023437500
-24.588600158691406 4.639329910278320 112.929000854492190
-25.146299362182617 5.973760128021240 112.254997253417970
-23.219999313354492 1.539819955825806 114.415000915527340
-19.136499404907227 -5.500490188598633 117.779998779296870
-22.695699691772461 0.528918027877808 114.889999389648440
-19.396499633789063 -4.983739852905273 117.480003356933590
-23.748800277709961 4.840469837188721 112.632003784179690
-22.670799255371094 3.455029964447022 113.236999511718750
-24.137800216674805 5.497330188751221 112.277000427246090
-25.705400466918945 6.860109806060791 111.651000976562500
-22.239200592041016 -0.945343017578125 115.467002868652340
-21.282899856567383 1.346230030059815 114.177001953125000
-20.228000640869141 -3.991810083389282 116.898002624511720
-20.713199615478516 -2.982399940490723 116.402000427246090
-21.208099365234375 -1.965209960937500 115.899002075195310
-24.578899383544922 6.121739864349365 111.904998779296870
-26.232200622558594 7.821710109710693 111.125000000000000
-25.156900405883789 6.456150054931641 111.739997863769530
-20.898899078369141 0.694714009761810 114.416999816894530
-20.491800308227539 -3.514250040054321 116.589996337890620
-23.256099700927734 4.329679965972900 112.623001098632810
-24.046499252319336 2.462800025939941 113.666000366210940
-22.170400619506836 2.958750009536743 113.241996765136720
-25.686000823974609 7.392099857330322 111.181999206542970
-22.021200180053711 -1.545070052146912 115.571998596191410
-25.121400833129883 7.030580043792725 111.308998107910160
-24.554899215698242 6.633649826049805 111.434997558593750
-22.717199325561523 3.906990051269531 112.692001342773440
-21.901599884033203 2.264780044555664 113.469001770019530
-22.746400833129883 -0.477777004241943 114.943000793457030
-23.280199050903320 0.509456992149353 114.459999084472660
-20.455999374389648 0.167375996708870 114.406997680664060
-23.063899993896484 -0.015933999791741 114.670997619628910
-19.908599853515625 -4.981679916381836 117.025001525878910
-23.530899047851563 0.995981991291046 114.165000915527340
-19.619499206542969 -5.498310089111328 117.262001037597660
-25.106700897216797 7.554759979248047 110.833999633789060
-19.355400085449219 -6.026229858398438 117.492996215820310
-23.704900741577148 1.515789985656738 113.869003295898440
-23.279899597167969 4.813199996948242 112.097000122070310
-23.753400802612305 5.830669879913330 111.598999023437500
-22.215400695800781 3.412300109863281 112.698997497558590
-24.550100326538086 7.127089977264404 110.925003051757810
-21.262899398803711 -3.007839918136597 115.924003601074220
-22.752899169921875 4.345359802246094 112.129997253417970
-24.553100585937500 2.482100009918213 113.185997009277340
-26.101200103759766 8.074640274047852 110.360000610351560
-23.291500091552734 5.297349929809570 111.591003417968750
-19.015100479125977 -6.977900028228760 117.685997009277340
-26.660299301147461 8.425889968872070 110.200996398925780
-20.836599349975586 0.859139025211334 113.705001831054690
-19.562200546264648 -1.474480032920837 114.785003662109370
-20.053199768066406 -0.466163009405136 114.291000366210940
-22.467199325561523 -1.526970028877258 115.037002563476560
-24.067800521850586 6.585020065307617 110.867996215820310
-21.791099548339844 2.836119890213013 112.639999389648440
-25.262199401855469 8.245699882507324 110.043998718261720
-21.754400253295898 -2.500200033187866 115.403999328613280
-26.076000213623047 8.612700462341309 109.901000976562500
-21.174499511718750 1.467779994010925 113.255996704101560
-20.944099426269531 -3.970429897308350 116.097999572753910
-22.355499267578125 3.804990053176880 112.115997314453120
-21.489200592041016 2.148109912872315 112.900001525878910
-20.645599365234375 -4.501530170440674 116.288002014160160
-24.747600555419922 7.835499763488770 110.123001098632810
-24.229400634765625 1.512969970703125 113.385002136230470
-23.697599411010742 0.506521999835968 113.860000610351560
-26.233200073242187 9.205880165100098 109.481002807617190
-22.826900482177734 4.728260040283203 111.527000427246090
-23.541799545288086 6.092800140380859 110.863998413085940
-23.880399703979492 1.038939952850342 113.549003601074220
-27.052099227905273 9.207830429077148 109.489997863769530
-20.342500686645508 -5.049829959869385 116.435997009277340
-19.739299774169922 -1.038159966468811 114.266998291015620
-25.276699066162109 8.762539863586426 109.561996459960940
-27.178499221801758 9.861559867858887 109.130996704101560
-20.274999618530273 -0.053525000810623 113.765998840332030
-24.215799331665039 7.387139797210693 110.167999267578120
-25.692199707031250 9.415749549865723 109.208999633789060
-26.242300033569336 9.763210296630859 109.053001403808590
-23.555299758911133 -0.504471004009247 114.180999755859370
-19.472200393676758 -6.957590103149414 117.160003662109370
-27.121599197387695 11.024399757385254 108.305000305175780
-26.718200683593750 10.340299606323242 108.627998352050780
-19.978599548339844 -5.960020065307617 116.652999877929690
-22.420000076293945 4.177949905395508 111.514999389648440
-24.802200317382813 8.260829925537109 109.560997009277340
-23.098600387573242 5.535779953002930 110.807998657226560
-27.600400924682617 10.683600425720215 108.460998535156250
-20.408199310302734 0.369843989610672 113.259002685546870
-28.145599365234375 11.985400199890137 107.761001586914060
-22.494199752807617 -1.997410058975220 114.654998779296870
-23.798599243164063 6.820340156555176 110.110000610351560
-27.711599349975586 11.316900253295898 108.055000305175780
-24.936700820922852 3.054209947586060 112.175003051757810
-18.946500778198242 -2.913269996643066 114.804000854492190
-18.491399765014648 -3.929970026016235 115.294998168945310
-18.874799728393555 -7.957349777221680 117.444000244140620
-27.223400115966797 11.897999763488770 107.668998718261720
-22.758699417114258 -1.523869991302490 114.361999511718750
-19.391599655151367 -1.930830001831055 114.290000915527340
-28.066299438476563 13.568200111389160 106.844001770019530
-18.162599563598633 -5.004429817199707 115.777999877929690
-22.139099121093750 -2.500149965286255 114.781997680664060
-21.598199844360352 -3.487910032272339 115.250000000000000
-27.617599487304687 12.523099899291992 107.303001403808590
-26.384300231933594 10.790800094604492 108.110000610351560
-24.336099624633789 7.738379955291748 109.541000366210940
-24.194099426269531 0.499839007854462 113.336997985839840
-25.994800567626953 10.159600257873535 108.400001525878910
-28.221399307250977 12.866700172424316 107.156997680664060
-27.696500778198242 14.470899581909180 106.252998352050780
-21.644100189208984 2.994179964065552 111.776000976562500
-27.497800827026367 13.131699562072754 106.910003662109370
-26.712200164794922 11.442099571228027 107.722999572753910
-25.072599411010742 9.067299842834473 108.823997497558590
-21.320100784301758 -4.070779800415039 115.396003723144530
-22.703100204467773 4.947219848632813 110.742996215820310
-23.196599960327148 5.948679924011231 110.240997314453120
-19.249000549316406 -8.464799880981445 117.491996765136720
-21.966499328613281 3.621659994125366 111.348999023437500
-19.552499771118164 -1.467350006103516 113.790000915527340
-19.127199172973633 -2.496059894561768 114.280998229980470
-18.675899505615234 -3.516429901123047 114.777999877929690
-25.470500946044922 9.659500122070313 108.377998352050780
-27.413099288940430 13.653499603271484 106.420997619628910
-18.374500274658203 -4.547780036926270 115.240997314453120
-20.888500213623047 -4.910379886627197 115.634002685546870
-26.991800308227539 12.586700439453125 106.862998962402340
-21.343599319458008 2.388609886169434 111.752998352050780
-19.605899810791016 -7.496829986572266 116.753997802734370
-20.649499893188477 -5.503970146179199 115.787002563476560
-18.713600158691406 -9.016730308532715 117.468002319335940
-24.685699462890625 8.455539703369141 108.755996704101560
-18.005300521850586 -5.990069866180420 115.793998718261720
-22.786100387573242 5.378479957580566 110.197998046875000
-20.116800308227539 0.011878999881446 112.782997131347660
-24.757400512695313 2.448250055313110 111.836997985839840
-21.872900009155273 -3.389600038528442 114.649002075195310
-22.157400131225586 3.985179901123047 110.772003173828120
-27.953599929809570 14.786600112915039 105.554000854492190
-22.483800888061523 -2.456190109252930 114.178001403808590
-25.828399658203125 10.353899955749512 107.689002990722660
-26.997400283813477 13.068499565124512 106.346000671386720
-20.332599639892578 -6.398509979248047 116.038002014160160
-23.696699142456055 6.952939987182617 109.253997802734380
-26.593599319458008 12.024600028991699 106.802001953125000
-21.390899658203125 2.830310106277466 111.197998046875000
-21.663900375366211 -4.010260105133057 114.796997070312500
-26.156900405883789 10.985899925231934 107.269996643066410
-27.409700393676758 14.343500137329102 105.605003356933590
-18.195699691772461 -5.507040023803711 115.275001525878910
-24.031799316406250 7.577089786529541 108.806999206542970
-24.830200195312500 8.842329978942871 108.202003479003910
-21.809400558471680 3.398180007934570 110.755996704101560
-27.031999588012695 13.549699783325195 105.833000183105470
-22.934000015258789 -1.945309996604919 113.640998840332030
-22.401800155639648 4.361589908599854 110.246002197265620
-27.923900604248047 15.209600448608398 104.986000061035160
-19.271600723266602 -9.057760238647461 117.027000427246090
-26.666400909423828 12.484399795532227 106.264999389648440
-25.230400085449219 9.433239936828613 107.747001647949220
-19.561399459838867 -8.475319862365723 116.705001831054690
-19.185100555419922 -2.024770021438599 113.271003723144530
-27.444499969482422 14.819499969482422 105.068000793457030
-19.719800949096680 -1.039600014686585 112.776000976562500
-26.228399276733398 11.442700386047363 106.736000061035160
-20.952999114990234 -5.434740066528320 115.184997558593750
-27.706399917602539 16.447099685668945 104.221000671386720
-20.302099227905273 -7.085289955139160 115.996002197265620
-24.446300506591797 8.112469673156738 108.324996948242190
-23.083400726318359 6.035029888153076 109.295997619628910
-21.193199157714844 1.971320033073425 111.277000427246090
-21.246200561523438 -5.038640022277832 114.837997436523440
-20.485200881958008 -5.938610076904297 115.236999511718750
-27.424400329589844 15.630599975585938 104.441001892089840
-23.423099517822266 6.631609916687012 108.817001342773440
-26.698999404907227 12.968299865722656 105.747001647949220
-20.545799255371094 0.533612012863159 111.782997131347660
-18.800699234008789 -3.563430070877075 113.791000366210940
-27.736200332641602 16.923000335693359 103.685997009277340
-26.301700592041016 11.908300399780273 106.205001831054690
-25.868400573730469 10.870100021362305 106.708999633789060
-19.403499603271484 -1.617939949035645 112.748001098632810
-18.028999328613281 -4.972209930419922 114.297996520996090
-26.874399185180664 14.131799697875977 104.943000793457030
-28.114799499511719 15.523699760437012 104.302001953125000
-21.587099075317383 -4.479209899902344 114.259002685546870
-26.719100952148437 13.460599899291992 105.232002258300780
-20.920499801635742 1.069090008735657 111.263999938964840
-26.999099731445312 15.077300071716309 104.380996704101560
-21.663299560546875 2.983190059661865 110.277000427246090
-22.197000503540039 3.976779937744141 109.777000427246090
-25.474100112915039 10.091899871826172 106.827003479003910
-26.345699310302734 12.397100448608398 105.680999755859370
-27.294500350952148 16.394699096679688 103.646003723144530
-25.025100708007813 9.051050186157227 107.292999267578120
-24.109300613403320 7.008460044860840 108.276000976562500
-26.983100891113281 15.592000007629395 103.898002624511720
-21.848899841308594 -4.094120025634766 113.834999084472660
-27.263599395751953 16.911300659179688 103.163002014160160
-27.569099426269531 17.540800094604492 102.833999633789060
-26.407300949096680 12.875599861145020 105.142997741699220
-21.826000213623047 3.382590055465698 109.752998352050780
-27.954099655151367 18.158399581909180 102.475997924804690
-26.623899459838867 14.506099700927734 104.288002014160160
-24.426099777221680 7.561749935150147 107.758003234863280
-25.601499557495117 10.518099784851074 106.290000915527340
-25.169599533081055 9.486450195312500 106.774002075195310
-26.829200744628906 16.385200500488281 103.121002197265620
-27.622999191284180 19.009599685668945 101.792999267578120
-26.598400115966797 15.018699645996094 103.806999206542970
-24.599800109863281 8.009849548339844 107.277000427246090
-25.671600341796875 10.982500076293945 105.766998291015620
-23.413799285888672 5.004920005798340 108.692001342773440
-27.375299453735352 18.212099075317383 102.053001403808590
-25.303699493408203 9.931879997253418 106.238998413085940
-27.070400238037109 17.546899795532227 102.343002319335940
-26.550800323486328 15.546600341796875 103.347000122070310
-26.786800384521484 16.901599884033203 102.640998840332030
-23.920299530029297 5.455289840698242 108.371002197265620
-26.185499191284180 13.482000350952148 104.250999450683590
-24.793399810791016 8.454879760742188 106.771003723144530
-25.719999313354492 11.460399627685547 105.241996765136720
-26.255399703979492 14.447999954223633 103.698997497558590
-25.393800735473633 10.392299652099609 105.692001342773440
-25.877899169921875 12.388400077819824 104.640998840332030
-26.825300216674805 18.356599807739258 101.571998596191410
-24.968299865722656 9.062150001525879 106.310997009277340
-26.376699447631836 16.365100860595703 102.582000732421870
-27.170400619506836 18.967599868774414 101.237998962402340
-24.346300125122070 6.958980083465576 107.301002502441410
-24.122699737548828 6.003769874572754 107.777999877929690
-26.210399627685547 14.967700004577637 103.225997924804690
-26.542999267578125 17.562200546264648 101.871002197265620
-26.324199676513672 16.892900466918945 102.111999511718750
-26.132200241088867 15.502099990844727 102.782997131347660
-25.887399673461914 12.890500068664551 104.132003784179690
-25.056699752807617 9.532070159912109 105.802001953125000
-24.522199630737305 7.525919914245606 106.777999877929690
-25.818599700927734 13.433099746704102 103.666999816894530
-26.336500167846680 18.375600814819336 101.083999633789060
-25.864999771118164 14.408399581909180 103.121002197265620
-27.685400009155273 19.373199462890625 100.655998229980470
-26.775899887084961 19.324800491333008 100.585998535156250
-25.390600204467773 11.382900238037109 104.651000976562500
-27.163799285888672 19.965400695800781 100.242996215820310
-25.091899871826172 10.019499778747559 105.296997070312500
-24.649200439453125 7.996689796447754 106.278999328613280
-26.048299789428711 17.547599792480469 101.357002258300780
-23.974199295043945 5.032509803771973 107.767997741699220
-24.817300796508789 8.943739891052246 105.737998962402340
-25.797000885009766 14.934900283813477 102.656997680664060
-25.806999206542969 15.911000251770020 102.138000488281250
-26.308599472045898 18.884700775146484 100.611000061035160
-25.871099472045898 16.883199691772461 101.579002380371090
-27.622900009155273 20.521799087524414 99.800003051757813
-25.392499923706055 11.876700401306152 104.128997802734370
-25.086900711059570 10.523200035095215 104.803001403808590
-24.061000823974609 5.516769886016846 107.265998840332030
-26.270399093627930 19.382400512695313 100.132003784179690
-26.606000900268555 20.027399063110352 99.811599731445313
-24.815000534057617 9.442830085754395 105.214996337890620
-25.384899139404297 12.385600090026855 103.622001647949220
-25.426799774169922 13.593400001525879 102.958999633789060
-25.753700256347656 17.943199157714844 100.683998107910160
-24.228799819946289 5.987820148468018 106.783996582031250
-24.759599685668945 9.962349891662598 104.734001159667970
-24.395099639892578 6.962319850921631 106.280998229980470
-25.850099563598633 18.884399414062500 100.099998474121090
-25.312000274658203 12.924900054931641 103.152000427246090
-26.640800476074219 20.492799758911133 99.272102355957031
-25.368400573730469 14.907400131225586 102.096000671386720
-25.438299179077148 16.069799423217773 101.411003112792970
-26.073699951171875 20.057800292968750 99.347801208496094
-25.508800506591797 17.050800323486328 100.869003295898440
-24.537700653076172 7.518959999084473 105.779998779296870
-25.298200607299805 15.425499916076660 101.651000976562500
-24.826499938964844 10.450799942016602 104.230003356933590
-29.006000518798828 18.203199386596680 100.458000183105470
-27.973499298095703 17.776100158691406 100.509002685546870
-26.084199905395508 20.554800033569336 98.838798522949219
-24.630899429321289 9.001700401306152 104.780998229980470
-25.613199234008789 19.515699386596680 99.301101684570313
-24.712499618530273 7.986869812011719 105.274002075195310
-25.372499465942383 17.903600692749023 100.106002807617190
-25.034799575805664 13.549300193786621 102.363998413085940
-24.864099502563477 11.897700309753418 103.140998840332030
-24.856800079345703 12.909700393676758 102.600997924804690
-25.223800659179688 16.472799301147461 100.730003356933590
-25.584299087524414 20.036500930786133 98.825202941894531
-24.627899169921875 9.502050399780273 104.281997680664060
-28.475299835205078 18.257799148559570 99.975997924804688
-24.262300491333008 5.480569839477539 106.285003662109370
-25.174600601196289 16.988599777221680 100.258003234863280
-25.275299072265625 18.938699722290039 99.179901123046875
-24.420499801635742 7.043109893798828 105.280998229980470
-25.006799697875977 15.538599967956543 100.853996276855470
-24.038999557495117 6.020040035247803 105.782997131347660
-24.800600051879883 10.955800056457520 103.241996765136720
-24.982099533081055 14.535599708557129 101.351997375488280
-24.832599639892578 9.956540107727051 103.746002197265620
-25.207199096679687 19.460899353027344 98.719596862792969
-28.601200103759766 18.685800552368164 99.386703491210937
-24.518499374389648 8.524829864501953 104.307998657226560
-24.951000213623047 16.052099227905273 100.375000000000000
-25.030199050903320 18.033199310302734 99.338401794433594
-24.457599639892578 7.529089927673340 104.790000915527340
-27.589000701904297 18.184299468994141 99.415702819824219
-24.830699920654297 13.467100143432617 101.671997070312500
-24.191200256347656 6.486589908599854 105.276000976562500
-24.782699584960938 14.965399742126465 100.710998535156250
-24.523300170898438 9.021739959716797 103.809997558593750
-24.862300872802734 18.894699096679687 98.612503051757812
-27.655099868774414 18.653400421142578 98.911003112792969
-29.135499954223633 19.056699752807617 98.819396972656250
-24.465099334716797 10.552200317382812 102.830001831054690
-24.825500488281250 16.464799880981445 99.696800231933594
-24.872200012207031 19.391399383544922 98.112602233886719
-24.852300643920898 14.045299530029297 100.870002746582030
-28.625999450683594 18.794000625610352 98.630401611328125
-24.832399368286133 16.968599319458008 99.192703247070313
-24.673999786376953 17.492200851440430 98.761901855468750
-24.812799453735352 15.471500396728516 99.717002868652344
-24.710899353027344 15.988400459289551 99.252799987792969
-24.784299850463867 17.966800689697266 98.212799072265625
-24.746599197387695 18.479799270629883 97.738998413085938
-24.666000366210937 18.994600296020508 97.268798828125000
-26.832799911499023 25.381200790405273 91.868499755859375
-26.214099884033203 25.346799850463867 92.382896423339844
-27.101499557495117 25.336399078369141 92.599800109863281
-26.634899139404297 24.683200836181641 92.956596374511719
-25.602199554443359 24.763399124145508 92.993698120117188
-26.288200378417969 25.738700866699219 92.945198059082031
-28.209199905395508 25.185699462890625 92.521202087402344
-28.975799560546875 24.785400390625000 92.051597595214844
-27.666000366210937 25.065399169921875 92.873298645019531
-26.132499694824219 24.450500488281250 93.230796813964844
-27.135400772094727 24.496500015258789 93.275596618652344
-26.634700775146484 24.132400512695313 93.405296325683594
-28.053800582885742 24.396200180053711 93.115997314453125
-24.529800415039063 24.165599822998047 93.377197265625000
-28.704099655151367 24.618600845336914 92.954200744628906
-28.516700744628906 23.887599945068359 93.101196289062500
-24.066900253295898 23.566699981689453 93.331497192382813
-27.564599990844727 23.904100418090820 93.647201538085937
-25.075199127197266 24.065500259399414 93.826301574707031
-28.036100387573242 23.413799285888672 93.648696899414063
-25.877300262451172 24.234699249267578 95.104400634765625
-26.292900085449219 24.370399475097656 95.672897338867187
-24.999399185180664 23.628900527954102 94.381599426269531
-25.392900466918945 23.724599838256836 94.976997375488281
-26.630100250244141 23.474000930786133 94.248001098632813
-24.522699356079102 23.648799896240234 93.881103515625000
-25.832399368286133 23.840700149536133 95.639503479003906
-27.474700927734375 23.354000091552734 94.057296752929688
-26.301200866699219 23.863300323486328 96.148399353027344
-24.878299713134766 23.265899658203125 95.011703491210938
-25.370899200439453 23.231399536132813 95.504096984863281
-27.052400588989258 22.862600326538086 94.602500915527344
-27.954999923706055 22.828199386596680 94.062698364257813
-24.429199218750000 22.684400558471680 94.946403503417969
-24.875200271606445 22.760400772094727 95.542396545410156
-28.416700363159180 22.830600738525391 93.551002502441406
-26.708000183105469 23.432800292968750 96.708602905273437
-25.697500228881836 22.945400238037109 96.219299316406250
-27.583799362182617 22.430900573730469 94.698699951171875
-27.037799835205078 22.347200393676758 95.110496520996094
-26.514299392700195 22.307500839233398 95.620101928710938
-26.223199844360352 22.915100097656250 96.686798095703125
-28.888900756835937 22.661100387573242 93.049697875976563
-26.556900024414063 21.896799087524414 96.182098388671875
-27.044300079345703 21.369199752807617 96.148803710937500
-27.033000946044922 21.854099273681641 95.628898620605469
-28.503700256347656 22.348499298095703 94.106597900390625
-29.084499359130859 21.915800094604492 94.201103210449219
-27.190799713134766 20.813899993896484 99.109703063964844
-26.657400131225586 20.966299057006836 98.746299743652344
-27.194700241088867 21.262300491333008 98.563400268554687
-26.726400375366211 21.740499496459961 98.042198181152344
-26.237400054931641 21.391700744628906 98.168502807617188
-26.788200378417969 22.324300765991211 97.611198425292969
-25.750499725341797 20.905500411987305 98.176300048828125
-26.246099472045898 21.890399932861328 97.670303344726563
-27.100700378417969 19.921499252319336 98.721397399902344
-26.799800872802734 22.824199676513672 97.099899291992188
-25.726699829101563 21.424800872802734 97.697601318359375
-26.205099105834961 22.430900573730469 97.205802917480469
-25.322999954223633 20.393800735473633 98.145500183105469
-25.721099853515625 21.928400039672852 97.195800781250000
-25.285999298095703 20.892599105834961 97.657402038574219
-25.716199874877930 22.428400039672852 96.699798583984375
-25.270200729370117 21.415100097656250 97.171600341796875
-24.895900726318359 20.326400756835937 97.580596923828125
-25.248800277709961 21.919799804687500 96.681396484375000
-28.144599914550781 19.111999511718750 98.368797302246094
-27.607999801635742 19.345199584960937 98.158599853515625
-29.138299942016602 19.425500869750977 98.223396301269531
-25.226200103759766 22.426700592041016 96.194900512695313
-24.867099761962891 21.381599426269531 96.610702514648438
-28.635900497436523 19.559900283813477 97.828102111816406
-28.104099273681641 19.754999160766602 97.575698852539063
-24.791900634765625 21.888399124145508 96.145202636718750
-27.640399932861328 20.014099121093750 97.292800903320313
-27.186000823974609 20.586799621582031 96.868103027343750
-28.635700225830078 19.993299484252930 97.273597717285156
-24.506099700927734 20.055400848388672 96.851898193359375
-29.168800354003906 20.227100372314453 97.042098999023437
-28.118700027465820 20.422300338745117 96.711601257324219
-24.384899139404297 21.157899856567383 95.975402832031250
-27.595399856567383 20.926799774169922 96.208396911621094
-24.833900451660156 20.457799911499023 96.207397460937500
-28.656799316406250 20.579500198364258 96.346702575683594
-27.580799102783203 21.412599563598633 95.694801330566406
-28.145599365234375 21.022899627685547 95.798400878906250
-27.567699432373047 21.895200729370117 95.174102783203125
-29.201900482177734 20.659200668334961 95.894500732421875
-28.124000549316406 21.479400634765625 95.260696411132813
-28.681499481201172 21.101999282836914 95.368103027343750
-28.115100860595703 21.969299316406250 94.748100280761719
-28.646600723266602 21.520200729370117 94.796897888183594
